<svg width="16" height="16" viewBox="0 0 16 16" fill="none" xmlns="http://www.w3.org/2000/svg">
<path fill-rule="evenodd" clip-rule="evenodd" d="M13.0803 10.8185C13.3924 11.1308 13.3924 11.6369 13.0803 11.9492L11.9497 13.0798C11.6374 13.3919 11.1313 13.3919 10.819 13.0798L7.99239 10.2532L5.16575 13.0798C4.8535 13.3919 4.34738 13.3919 4.03513 13.0798L2.9045 11.9492C2.59238 11.6369 2.59238 11.1308 2.9045 10.8185L5.73114 7.9919L2.9045 5.16526C2.59238 4.85301 2.59238 4.34689 2.9045 4.03464L4.03513 2.90402C4.34738 2.59189 4.8535 2.59189 5.16575 2.90402L7.99239 5.73066L10.819 2.90402C11.1313 2.59189 11.6374 2.59189 11.9497 2.90402L13.0803 4.03464C13.3924 4.34689 13.3924 4.85301 13.0803 5.16526L10.2536 7.9919L13.0803 10.8185Z" fill="black"/>
</svg>
