<svg width="24" height="24" viewBox="0 0 24 24" fill="none" xmlns="http://www.w3.org/2000/svg">
  <path fill-rule="evenodd" clip-rule="evenodd"
        d="M15.6001 5.40005H12.6001C12.2687 5.40005 12.0001 5.13142 12.0001 4.80005V1.80005L15.6001 5.40005ZM7.8001 14.4H6.0001C5.66873 14.4 5.4001 14.1314 5.4001 13.8C5.4001 13.4687 5.66873 13.2 6.0001 13.2H7.8001V12H6.0001C5.66873 12 5.4001 11.7314 5.4001 11.4C5.4001 11.0687 5.66873 10.8 6.0001 10.8H7.8001V9.60005H6.0001C5.66873 9.60005 5.4001 9.33142 5.4001 9.00005C5.4001 8.66868 5.66873 8.40005 6.0001 8.40005H7.8001V6.00005H11.2588C10.9629 5.67044 10.7995 5.24298 10.8001 4.80005V1.80005H3.6001V15.6C3.6001 16.5942 4.40599 17.4 5.4001 17.4H7.8001V14.4ZM20.4001 10.2H17.4001C17.0687 10.2 16.8001 9.93142 16.8001 9.60005V6.60005L20.4001 10.2ZM17.4001 11.4C16.406 11.4 15.6001 10.5942 15.6001 9.60005V6.60005H8.4001V20.4C8.4001 21.3942 9.20599 22.2001 10.2001 22.2001H20.4001V11.4H17.4001ZM18.6001 18.6C18.6001 18.9314 18.3315 19.2001 18.0001 19.2001H10.8001C10.4687 19.2001 10.2001 18.9314 10.2001 18.6C10.2001 18.2687 10.4687 18 10.8001 18H18.0001C18.3315 18 18.6001 18.2687 18.6001 18.6ZM18.6001 16.2C18.6001 16.5314 18.3315 16.8 18.0001 16.8H10.8001C10.4687 16.8 10.2001 16.5314 10.2001 16.2C10.2001 15.8687 10.4687 15.6 10.8001 15.6H18.0001C18.3315 15.6 18.6001 15.8687 18.6001 16.2ZM18.6001 13.8C18.6001 14.1314 18.3315 14.4 18.0001 14.4H10.8001C10.4687 14.4 10.2001 14.1314 10.2001 13.8C10.2001 13.4687 10.4687 13.2 10.8001 13.2H18.0001C18.3315 13.2 18.6001 13.4687 18.6001 13.8Z"
        fill="var(--hl-color-icon)"/>
</svg>
