<svg xmlns="http://www.w3.org/2000/svg" width="1000" height="1000" viewBox="0 0 1000 1000">
  <path id="erase" class="cls-1" d="M816.063,275H356.545L95.3,469.813c-13.931,13.935-20.291,31.105-20.291,49.672,0,18.584,6.359,35.767,20.3,49.7L356.545,775H816.063a108.725,108.725,0,0,0,108.93-101.932V379.126C924.993,318.656,876.421,275,816.063,275ZM689.5,632.913L667.3,655.133a26.144,26.144,0,0,1-37.009,0l-70.3-70.375-70.3,70.375a26.139,26.139,0,0,1-37,.007l-22.2-22.227a26.205,26.205,0,0,1,0-37.037L500.8,525.5l-70.307-70.375a26.211,26.211,0,0,1,0-37.042l22.2-22.222a26.145,26.145,0,0,1,37,0L560,466.228l70.3-70.37a26.146,26.146,0,0,1,37,0L689.5,418.08a26.217,26.217,0,0,1,0,37.042L619.2,525.5l70.3,70.375A26.214,26.214,0,0,1,689.5,632.913Z"/>
</svg>
