<svg width="25" height="24" viewBox="0 0 25 24" fill="none" xmlns="http://www.w3.org/2000/svg">
<path fill-rule="evenodd" clip-rule="evenodd" d="M21.8162 17.4432L14.0387 4.10319C13.6408 3.42013 12.9097 3 12.1192 3C11.3287 3 10.5978 3.42013 10.1999 4.10319L2.44112 17.4103L2.44029 17.4117L2.42202 17.4431C2.02089 18.1305 2.01807 18.98 2.41431 19.6703C2.81056 20.3605 3.5456 20.7863 4.34153 20.7866H19.8969C20.6928 20.7863 21.4278 20.3605 21.8241 19.6703C22.2203 18.98 22.2173 18.1306 21.8162 17.4432ZM15.5563 17.1839C15.3849 17.3553 15.1523 17.4517 14.9099 17.4517C14.6675 17.4517 14.4349 17.3553 14.2635 17.1839L12.1189 15.0382L9.97436 17.1839C9.744 17.4181 9.40569 17.5107 9.08815 17.4265C8.77062 17.3423 8.52267 17.0942 8.43866 16.7766C8.35465 16.459 8.44749 16.1207 8.68186 15.8905L10.8264 13.7451L8.7581 11.6758C8.40496 11.3181 8.40674 10.7425 8.76207 10.387C9.1174 10.0315 9.69304 10.0295 10.0509 10.3825L12.1191 12.4518L14.1873 10.3825C14.4176 10.1479 14.7561 10.0551 15.0738 10.1392C15.3916 10.2234 15.6397 10.4716 15.7237 10.7894C15.8077 11.1072 15.7146 11.4456 15.48 11.6758L13.4117 13.7451L15.5563 15.8905C15.9131 16.2477 15.9131 16.8266 15.5563 17.1839Z" fill="black"/>
</svg>
