<svg width="24" height="24" viewBox="0 0 24 24" fill="none" xmlns="http://www.w3.org/2000/svg">
<path fill-rule="evenodd" clip-rule="evenodd" d="M11.9997 3C7.02906 3 2.99951 7.02955 2.99951 12.0002C2.99951 16.9708 7.02906 21.0004 11.9997 21.0004C16.9704 21.0004 20.9999 16.9708 20.9999 12.0002C20.9999 7.02955 16.9704 3 11.9997 3ZM12.0001 5.11771C12.8772 5.11771 13.5883 5.82881 13.5883 6.70598C13.5883 7.58316 12.8772 8.29425 12.0001 8.29425C11.1229 8.29425 10.4118 7.58316 10.4118 6.70598C10.4118 5.82881 11.1229 5.11771 12.0001 5.11771ZM14.6475 17.8239H9.8827V17.2788L9.99467 17.2753C10.3241 17.2647 10.5689 17.1711 10.7225 16.9971C10.777 16.9342 10.8698 16.7197 10.8698 15.9986V11.1872C10.8698 10.5012 10.774 10.2427 10.6938 10.1465C10.5803 10.0112 10.344 9.93162 9.99134 9.91026L9.8827 9.90369V9.35309H13.5887V15.9986C13.5887 16.685 13.7678 16.9434 13.8479 17.0392C13.961 17.1745 14.1799 17.254 14.5388 17.2754L14.6475 17.2818V17.8239Z" fill="#5A83DD"/>
</svg>
