<svg width="25" height="24" viewBox="0 0 25 24" fill="none" xmlns="http://www.w3.org/2000/svg">
<path d="M12.3691 8.26667H11.8691C11.7311 8.26667 11.6191 8.38606 11.6191 8.53333V9.86667L11.9191 12H12.3191L12.6191 9.86667V8.53333C12.6191 8.38606 12.5072 8.26667 12.3691 8.26667Z" fill="black"/>
<path d="M12.6191 13.6H11.6191V12.5333H12.6191V13.6Z" fill="black"/>
<path fill-rule="evenodd" clip-rule="evenodd" d="M18.6191 4H4.11914V15.2C4.11914 16.0837 4.79071 16.8 5.61914 16.8H7.61914V20L10.6191 16.8H20.1191V5.6C20.1191 4.71634 19.4476 4 18.6191 4ZM15.6185 14.6667H8.61848C8.26041 14.6667 7.92965 14.4625 7.75132 14.1313C7.57298 13.8001 7.57431 13.3925 7.75478 13.0626L7.763 13.0476C7.76314 13.0473 7.76288 13.0478 7.763 13.0476L11.2548 6.6626C11.4339 6.33489 11.7628 6.13336 12.1185 6.13336C12.4741 6.13336 12.803 6.33489 12.9822 6.6626L16.4822 13.0626C16.6627 13.3925 16.6639 13.8001 16.4856 14.1313C16.3073 14.4625 15.9765 14.6667 15.6185 14.6667Z" fill="black"/>
</svg>
