<svg xmlns="http://www.w3.org/2000/svg" width="1000" height="1000" viewBox="0 0 1000 1000">
  <path id="Modifier_Delete" data-name="Modifier Delete" fill="var(--hl-color-icon)" d="M680.444,592.543L588.4,500.5l91.918-91.918a32.008,32.008,0,0,0,0-45.268l-42.633-42.633a32.008,32.008,0,0,0-45.268,0L500.5,412.6l-91.418-91.418a32.008,32.008,0,0,0-45.268,0l-42.633,42.633a32.008,32.008,0,0,0,0,45.268L412.6,500.5l-92.168,92.168a32.008,32.008,0,0,0,0,45.268l42.633,42.633a32.008,32.008,0,0,0,45.268,0L500.5,588.4l92.043,92.043a32.008,32.008,0,0,0,45.268,0l42.633-42.633A32.008,32.008,0,0,0,680.444,592.543ZM801.025,199.975C635.05,34,365.95,34,199.975,199.975S34,635.05,199.975,801.025s435.075,165.975,601.05,0S967,365.95,801.025,199.975ZM730.313,730.313c-126.92,126.921-332.706,126.921-459.626,0s-126.921-332.706,0-459.626,332.706-126.921,459.626,0S857.234,603.393,730.313,730.313Z"/>
</svg>
