<svg width="16" height="16" viewBox="0 0 16 16" fill="none" xmlns="http://www.w3.org/2000/svg">
  <path fill-rule="evenodd" clip-rule="evenodd"
        d="M14.2909 13.1966L10.9044 9.8101C11.4725 9.01609 11.7772 8.06391 11.7757 7.08763C11.7757 4.49873 9.67694 2.4 7.08802 2.4C4.49909 2.4 2.40039 4.49873 2.40039 7.08766C2.40039 9.67658 4.49909 11.7753 7.08802 11.7753C8.0643 11.7768 9.01648 11.4721 9.81048 10.9041L13.197 14.2906C13.3436 14.4365 13.5807 14.4365 13.7274 14.2906L14.2909 13.727C14.4369 13.5803 14.4369 13.3433 14.2909 13.1966ZM7.08781 10.2752C5.32736 10.2752 3.90022 8.84809 3.90022 7.08765C3.90022 5.3272 5.32736 3.90006 7.08781 3.90006C8.84825 3.90006 10.2754 5.3272 10.2754 7.08765C10.2754 8.84809 8.84825 10.2752 7.08781 10.2752Z"
        fill="black"></path>
</svg>
