<svg width="24" height="24" viewBox="0 0 24 24" fill="currentColor" xmlns="http://www.w3.org/2000/svg">
<path fill-rule="evenodd" clip-rule="evenodd" d="M4.2 21C3.53726 21 3 20.4627 3 19.8V3H19.8C20.4627 3 21 3.53726 21 4.2V21H4.2ZM11.0109 16.2H7.80377V15L5.18669 17.0958C5.09438 17.1698 5.04066 17.2817 5.04066 17.4C5.04066 17.5183 5.09438 17.6302 5.18669 17.7042L7.80377 19.8V18.6H11.0109C11.2259 18.5999 11.4001 18.4255 11.4 18.2105V16.5895C11.4001 16.3745 11.2259 16.2001 11.0109 16.2ZM11.0109 9H7.80377V7.8L5.18669 9.89582C5.09438 9.96981 5.04066 10.0817 5.04066 10.2C5.04066 10.3183 5.09438 10.4302 5.18669 10.5042L7.80377 12.6V11.4H11.0109C11.2259 11.3999 11.4001 11.2255 11.4 11.0105V9.38954C11.4 9.28629 11.3591 9.18724 11.2861 9.11418C11.2131 9.04113 11.1141 9.00006 11.0109 9ZM12.9892 7.8H16.1967V9L18.814 6.90418C18.9064 6.83021 18.9601 6.71831 18.9601 6.6C18.9601 6.48169 18.9064 6.36979 18.814 6.29582L16.1967 4.2V5.4H12.9892C12.7741 5.40011 12.5999 5.5745 12.6 5.78952V7.41048C12.5999 7.6255 12.7741 7.79989 12.9892 7.8ZM12.9892 15H16.1967V16.2L18.814 14.1042C18.9064 14.0302 18.9601 13.9183 18.9601 13.8C18.9601 13.6817 18.9064 13.5698 18.814 13.4958L16.1967 11.4V12.6H12.9892C12.7741 12.6001 12.5999 12.7745 12.6 12.9895V14.6105C12.6 14.7137 12.6409 14.8128 12.7139 14.8858C12.7869 14.9589 12.8859 14.9999 12.9892 15Z" fill="currentColor"/>
</svg>
