<svg width="24" height="24" viewBox="0 0 24 24" fill="currentColor" xmlns="http://www.w3.org/2000/svg">
<path fill-rule="evenodd" clip-rule="evenodd" d="M6.00001 22.2001C5.0071 22.1972 4.20291 21.393 4.20001 20.4V3.60005C4.20291 2.60714 5.0071 1.80295 6.00001 1.80005H18.6V4.20005H19.8V22.2001H6.00001ZM17.4 3.00005H6.00001C5.66904 3.00101 5.40097 3.26908 5.40001 3.60005C5.40097 3.93102 5.66904 4.19909 6.00001 4.20005H17.4V3.00005ZM16.2301 16.1999L15.454 15.5239C16.6761 14.2157 16.6761 12.1844 15.454 10.8762L16.2301 10.2002C17.79 11.8959 17.79 14.5042 16.2301 16.1999ZM14.9366 15.0733L14.16 14.397C14.8148 13.7334 14.8148 12.6667 14.16 12.0032L14.9365 11.3268C15.9304 12.3779 15.9305 14.0222 14.9366 15.0733ZM8.37601 15C8.09041 15 7.77601 14.6855 7.77601 14.4V12C7.77601 11.7146 8.09041 11.4 8.37601 11.4H10.776L13.176 9.00005V17.4L10.776 15H8.37601Z" fill="currentColor"/>
</svg>
