<svg width="24" height="24" viewBox="0 0 24 24" fill="currentColor" xmlns="http://www.w3.org/2000/svg">
<path d="M9.00832 10.7869L10.2097 14.391H13.8139L15.0152 10.7869L12.0118 8.6781L9.00832 10.7869Z" fill="currentColor"/>
<path fill-rule="evenodd" clip-rule="evenodd" d="M11.9999 22.2C17.6332 22.2 22.2 17.6332 22.2 12C22.2 6.36668 17.6333 1.8 12 1.8C6.36666 1.8 1.8 6.36685 1.8 12C1.8 17.6332 6.36654 22.2 11.9999 22.2ZM18.9492 17.7865C20.244 16.2262 21.0224 14.222 21.0224 12.0361C21.0224 11.8331 21.0157 11.6317 21.0025 11.4321L19.786 12.6303L17.7153 10.1451L17.9228 6.8908L19.5889 7.15766C18.3806 5.2847 16.4968 3.88855 14.2821 3.3137L15.0152 4.77996L12.0118 5.98135L8.98095 4.77843L9.72869 3.31718C7.52831 3.89197 5.65571 5.27784 4.44937 7.13618L6.07499 6.89135L6.28944 10.1191L4.20878 12.63L3.02147 11.4384C3.00854 11.6359 3.00197 11.8352 3.00197 12.0361C3.00197 14.2013 3.7657 16.1883 5.0385 17.7422L5.3203 16.0465L8.4563 16.8399L10.2012 19.5947L8.63155 20.391C9.6754 20.8138 10.8165 21.0467 12.012 21.0467C13.1942 21.0467 14.3233 20.819 15.3577 20.405L13.7941 19.5933L15.5179 16.856L18.6769 16.0478L18.9492 17.7865Z" fill="currentColor"/>
</svg>
