<svg width="24" height="24" viewBox="0 0 24 24" fill="currentColor" xmlns="http://www.w3.org/2000/svg">
<path fill-rule="evenodd" clip-rule="evenodd" d="M20.6 18.8H20.5068C19.5642 18.8 18.8 18.0358 18.8 17.0932V17H4.4V17.0932C4.4 17.5458 4.22017 17.98 3.90008 18.3001C3.57999 18.6202 3.14585 18.8 2.69317 18.8H2.6C2.26863 18.8 2 19.0686 2 19.4V20H21.2V19.4C21.2 19.0686 20.9314 18.8 20.6 18.8ZM12.8 8H12.2V6.8H14V6.2C14 5.53726 13.4627 5 12.8 5H10.4C9.73726 5 9.2 5.53726 9.2 6.2V6.8H11V8H10.4C5.7608 8 2 11.7608 2 16.4H21.2C21.2 11.7608 17.4392 8 12.8 8Z" fill="currentColor"/>
</svg>
