<svg width="24" height="24" viewBox="0 0 24 24" fill="currentColor" xmlns="http://www.w3.org/2000/svg">
<path fill-rule="evenodd" clip-rule="evenodd" d="M9.59292 15.6214H17.9929C18.3243 15.6214 18.5929 15.3527 18.5929 15.0214V5.42136C18.5929 4.09588 17.5184 3.02136 16.1929 3.02136H3.59292C3.26155 3.02136 2.99292 3.28999 2.99292 3.62136V13.2214C2.99292 14.5468 4.06744 15.6214 5.39292 15.6214H6.59292V18.6214L9.59292 15.6214ZM13.0929 7.24949C13.0948 7.17356 13.1578 7.11348 13.2337 7.11524C13.2591 7.11524 13.284 7.1219 13.306 7.13448L16.2047 8.7931C16.32 8.85736 16.392 8.97861 16.3931 9.11064V9.52995C16.392 9.66244 16.3197 9.7841 16.2039 9.84852L13.3031 11.5086C13.2376 11.5463 13.1542 11.5264 13.1128 11.4633C13.0999 11.4429 13.0931 11.4193 13.093 11.3952V10.9555C13.094 10.8511 13.1516 10.7555 13.2434 10.7059L15.5751 9.4087C15.5768 9.40781 15.5785 9.40685 15.5801 9.40584C15.6026 9.39217 15.6187 9.37013 15.625 9.34457C15.6312 9.319 15.627 9.29201 15.6133 9.26952C15.6039 9.2542 15.5907 9.24158 15.5749 9.2329L13.2262 7.9261C13.1448 7.88205 13.0937 7.79727 13.0929 7.70472L13.0929 7.24949ZM9.72842 12.1723L11.3689 6.29016C11.4132 6.13127 11.5579 6.02136 11.7229 6.02136H11.7241C11.8324 6.02136 11.9344 6.07196 11.9999 6.15818C12.0654 6.24439 12.0868 6.35627 12.0577 6.46056L10.4117 12.3624C10.369 12.5155 10.2296 12.6214 10.0707 12.6214H10.0694C9.95871 12.6214 9.8544 12.5696 9.78747 12.4814C9.72054 12.3933 9.6987 12.2789 9.72842 12.1723ZM5.58211 9.84845C5.46633 9.78402 5.39408 9.66237 5.39292 9.52987V9.11057C5.39409 8.97853 5.46606 8.85728 5.58142 8.79303L8.4798 7.13439C8.50182 7.1218 8.52675 7.11515 8.55211 7.11515C8.62804 7.11339 8.69106 7.17345 8.69292 7.24937V7.70446C8.69205 7.79699 8.64101 7.88176 8.55962 7.92581L6.21086 9.23261C6.19512 9.2413 6.18189 9.25392 6.17246 9.26923C6.17148 9.27089 6.1705 9.27257 6.16961 9.27425C6.15729 9.29751 6.15471 9.32472 6.16246 9.34988C6.1702 9.37504 6.18762 9.3961 6.21089 9.40841L8.5427 10.7056C8.63452 10.7553 8.69213 10.8509 8.69309 10.9552V11.3949C8.69304 11.419 8.68617 11.4426 8.67329 11.463C8.63188 11.5261 8.54844 11.546 8.48302 11.5083L5.58211 9.84845ZM19.1929 5.42136V15.0193C19.1929 15.6832 18.6547 16.2214 17.9909 16.2214H9.80892L8.00892 18.0214H13.7929L16.7929 21.0214V18.0214H19.1919C20.1866 18.0214 20.9929 17.215 20.9929 16.2203V7.22136C20.9929 6.22725 20.187 5.42136 19.1929 5.42136Z" fill="currentColor"/>
</svg>
