<svg width="24" height="24" viewBox="0 0 24 24" fill="currentColor" xmlns="http://www.w3.org/2000/svg">
<path fill-rule="evenodd" clip-rule="evenodd" d="M12.36 13.2C12.36 12.5372 12.8972 12 13.56 12H17.4384C16.8954 10.9091 16.0008 10.0329 14.8989 9.51274C12.8821 11.229 9.91806 11.229 7.90117 9.51274C6.00799 10.4035 4.7997 12.3077 4.79999 14.4V19.2C4.79999 20.5254 5.8745 21.6 7.19999 21.6H12.36V13.2ZM15.6 5.39995C15.6 7.71955 13.7196 9.59995 11.4 9.59995C9.08039 9.59995 7.19999 7.71955 7.19999 5.39995C7.19999 3.08036 9.08039 1.19995 11.4 1.19995C13.7196 1.19995 15.6 3.08036 15.6 5.39995ZM18.6006 12.6H13.5594C13.4003 12.6 13.2478 12.6633 13.1354 12.7758C13.023 12.8883 12.9599 13.0409 12.96 13.2V22.2C12.9599 22.359 13.023 22.5116 13.1354 22.6241C13.2478 22.7366 13.4003 22.7999 13.5594 22.7999H18.6006C18.9318 22.7998 19.2001 22.5312 19.2 22.2V13.2C19.2001 12.8687 18.9318 12.6001 18.6006 12.6ZM16.08 22.32C15.8149 22.32 15.6 22.105 15.6 21.84C15.6 21.5749 15.8149 21.36 16.08 21.36C16.3451 21.36 16.56 21.5749 16.56 21.84C16.56 22.105 16.3451 22.32 16.08 22.32ZM18.24 20.8799H13.92V13.68H18.24V20.8799Z" fill="currentColor"/>
</svg>
