<svg width="24" height="24" viewBox="0 0 24 24" fill="currentColor" xmlns="http://www.w3.org/2000/svg">
<path fill-rule="evenodd" clip-rule="evenodd" d="M12 1.79999C17.6333 1.79999 22.2 6.36668 22.2 12C22.2 17.6333 17.6333 22.2 12 22.2C6.36668 22.2 1.79999 17.6333 1.79999 12C1.79999 6.36668 6.36668 1.79999 12 1.79999ZM12 2.39999C17.3019 2.39999 21.6 6.69805 21.6 12C21.6 17.3019 17.3019 21.6 12 21.6C6.69805 21.6 2.39999 17.3019 2.39999 12C2.39999 6.69805 6.69805 2.39999 12 2.39999ZM12 10.7997C12.9707 10.7998 13.8458 10.2151 14.2173 9.31832C14.5888 8.42154 14.3835 7.38927 13.6971 6.70288C13.0108 6.0165 11.9785 5.81118 11.0817 6.18267C10.1849 6.55416 9.60022 7.4293 9.60028 8.39999C9.60028 9.7253 10.6747 10.7997 12 10.7997ZM14.0715 10.6593C12.8802 11.7786 11.0239 11.7786 9.83262 10.6593C8.91176 11.1613 8.40121 12.1272 8.37685 13.2422L8.37599 16.0588C8.37636 16.4149 8.51816 16.7562 8.77022 17.0078C9.02227 17.2593 9.36391 17.4004 9.71999 17.4H15.6V13.3094C15.6 12.1661 15.0108 11.1713 14.0715 10.6593ZM14.88 15.6H13.8V16.68C13.8 16.7463 13.7463 16.8 13.68 16.8H13.32C13.2537 16.8 13.2 16.7463 13.2 16.68V15.6H12.12C12.0537 15.6 12 15.5463 12 15.48V15.12C12 15.0537 12.0537 15 12.12 15H13.2V13.92C13.2 13.8537 13.2537 13.8 13.32 13.8H13.68C13.7463 13.8 13.8 13.8537 13.8 13.92V15H14.88C14.9463 15 15 15.0537 15 15.12V15.48C15 15.5463 14.9463 15.6 14.88 15.6Z" fill="currentColor"/>
</svg>
