<svg width="24" height="24" viewBox="0 0 24 24" fill="currentColor" xmlns="http://www.w3.org/2000/svg">
<path fill-rule="evenodd" clip-rule="evenodd" d="M9.58838 15.1911H14.4364V16.1907H9.58838V15.1911ZM16.1862 5.98109C16.1725 3.71669 14.3437 1.85309 12.0822 1.79669C14.3445 1.84757 16.1793 3.70877 16.1862 5.98109ZM14.2081 3.98597C14.1748 3.94877 14.1402 3.91229 14.1047 3.87701C13.2468 3.0233 11.9599 2.76873 10.8415 3.2315C9.72318 3.69428 8.99245 4.78374 8.98862 5.99405H8.96822V5.98541C8.97998 4.34405 10.3269 2.97533 11.9754 2.97533C12.8596 2.97533 13.6571 3.36821 14.2081 3.98597ZM9.07374 7.35437V8.39333H8.97374V8.38349C8.97374 8.36309 8.97629 8.31269 8.97629 8.23949C8.97629 8.04893 8.97629 7.70549 8.97629 7.34309L9.07374 7.35437ZM7.87021 8.39333H7.86121V7.35437C7.86121 7.84373 7.86121 8.29709 7.86121 8.37989C7.85923 8.38088 7.85923 8.38202 7.86121 8.38301C7.86169 8.38655 7.86473 8.39004 7.87021 8.39333ZM15.5865 9.59333C15.0446 9.59277 14.5703 9.22909 14.4291 8.70588C14.288 8.18268 14.515 7.6298 14.9831 7.35677L14.9865 7.35485V8.39381C14.9865 8.41421 14.9865 8.43485 14.9896 8.45525C14.9896 8.46413 14.9915 8.47277 14.9927 8.48165C14.9939 8.49053 14.9953 8.49797 14.9968 8.50565C15.043 8.74734 15.2318 8.9365 15.4734 8.98325L15.4974 8.98733L15.5243 8.99045C15.5652 8.99453 15.6063 8.99453 15.6472 8.99045L15.6738 8.98733L15.6978 8.98325C15.9394 8.9365 16.1282 8.74734 16.1745 8.50565C16.1759 8.49797 16.1773 8.48981 16.1785 8.48165C16.1797 8.47349 16.1807 8.46413 16.1817 8.45525C16.1838 8.43484 16.1848 8.41433 16.1848 8.39381V7.35437C16.6544 7.62626 16.8831 8.17943 16.7426 8.70353C16.6021 9.22764 16.1274 9.59226 15.5848 9.59285L15.5865 9.59333ZM15.5865 17.9907C15.5847 18.6527 15.0485 19.189 14.3865 19.1907H9.58838C8.92635 19.189 8.3901 18.6527 8.38838 17.9907V13.1917C8.3901 12.5296 8.92635 11.9934 9.58838 11.9917H14.3867C15.0487 11.9934 15.585 12.5296 15.5867 13.1917L15.5865 17.9907ZM7.19006 8.39333C7.18986 7.96463 7.41865 7.56846 7.79006 7.35437C7.79006 7.84373 7.79006 8.29709 7.79006 8.37989V8.38301C7.79006 8.38637 7.79006 8.38997 7.79006 8.39333C7.79191 8.71199 8.05076 8.96934 8.36942 8.96933C8.69606 8.96933 8.96942 8.71877 8.96942 8.39333V8.38349C8.96942 8.36309 8.96942 8.31269 8.96942 8.23949C8.96942 8.04893 8.96942 7.70549 8.96942 7.34309L8.98934 7.35437C9.4937 7.64556 9.71617 8.25686 9.51694 8.80411C9.31771 9.35136 8.75431 9.67656 8.18079 9.57534C7.60726 9.47412 7.18993 8.97572 7.19006 8.39333ZM8.96822 5.98541C8.97998 4.34405 10.3269 2.97533 11.9754 2.97533C12.8596 2.97533 13.6571 3.36821 14.2081 3.98597C14.2163 3.99485 14.2247 4.00397 14.2324 4.01333C14.2358 4.01651 14.2389 4.02005 14.2415 4.02389C14.7221 4.56752 14.9868 5.26844 14.9855 5.99405H8.96822V5.98541ZM16.1872 5.99405L16.1862 5.98109C16.1725 3.71669 14.3437 1.85309 12.0822 1.79669H12.0297H11.9337C9.96062 1.82213 8.30438 3.22565 7.88894 5.08469C7.88558 5.09957 7.88246 5.11469 7.8791 5.12981C7.87286 5.15981 7.86686 5.19005 7.8611 5.22029C7.85822 5.23541 7.85534 5.25077 7.8527 5.26589C7.8527 5.27117 7.85102 5.27621 7.85006 5.28125C7.84238 5.32589 7.83542 5.37053 7.82918 5.41565C7.82678 5.43149 7.82486 5.44733 7.8227 5.46365C7.8143 5.53037 7.80734 5.59733 7.80206 5.66501C7.80206 5.67029 7.80206 5.67557 7.80086 5.68085C7.79846 5.71277 7.7963 5.74517 7.79486 5.77685C7.79102 5.84901 7.7891 5.92173 7.7891 5.99501H4.19006V20.3888C4.19006 21.3829 4.99595 22.1888 5.99006 22.1888H17.9855C18.9796 22.1888 19.7855 21.3829 19.7855 20.3888V5.99405H16.1872ZM8.98958 8.39405C8.98958 8.72542 8.72095 8.99405 8.38958 8.99405C8.05821 8.99405 7.79006 8.7247 7.79006 8.39333C7.79191 8.71199 8.05076 8.96934 8.36942 8.96933C8.69606 8.96933 8.96942 8.71877 8.96942 8.39333V8.38349C8.96942 8.36309 8.96942 8.31269 8.96942 8.23949C8.98251 8.28948 8.98864 8.34166 8.98862 8.39333L8.98958 8.39405ZM16.1769 8.50589C16.1332 8.74894 15.9432 8.93932 15.7002 8.98349C15.9417 8.93629 16.13 8.74686 16.1759 8.50517L16.1769 8.50589ZM15.4734 8.98325C15.2305 8.93901 15.0405 8.74866 14.9968 8.50565C15.043 8.74734 15.2318 8.9365 15.4734 8.98325ZM9.04462 8.49353V8.50581V8.40581C9.04462 8.43505 9.04462 8.46429 9.04462 8.49353ZM15.0907 7.35437V8.39333H15.0327V7.35677L15.0907 7.35437ZM14.9838 5.99405V5.98541C14.978 5.26413 14.7143 4.56859 14.2415 4.02389C14.7221 4.56752 14.9868 5.26844 14.9855 5.99405H14.9838ZM11.9337 1.79669C9.96062 1.82213 8.30438 3.22565 7.88894 5.08469C8.30246 3.22517 9.95318 1.81613 11.9337 1.79669ZM7.86688 8.50461V8.40461C7.86288 8.43701 7.86288 8.47221 7.86688 8.50461Z" fill="currentColor"/>
</svg>
