<svg width="24" height="24" viewBox="0 0 24 24" fill="currentColor" xmlns="http://www.w3.org/2000/svg">
<path fill-rule="evenodd" clip-rule="evenodd" d="M21 4.19995H3.00005C2.33731 4.19995 1.80005 4.73721 1.80005 5.39995V18.6C1.80005 19.2627 2.33731 19.8 3.00005 19.8H21C21.6628 19.8 22.2001 19.2627 22.2001 18.6V5.39995C22.2001 4.73721 21.6628 4.19995 21 4.19995ZM3.60005 5.39995C3.93142 5.39995 4.20005 5.66858 4.20005 5.99995C4.20005 6.33132 3.93142 6.59995 3.60005 6.59995C3.26868 6.59995 3.00005 6.33132 3.00005 5.99995C3.00005 5.66858 3.26868 5.39995 3.60005 5.39995ZM21 18.6H3.00005V7.79995H21V18.6Z" fill="currentColor"/>
</svg>
