<svg width="24" height="24" viewBox="0 0 24 24" fill="currentColor" xmlns="http://www.w3.org/2000/svg">
<path fill-rule="evenodd" clip-rule="evenodd" d="M12 22.2001C10.3091 22.2001 8.78308 21.1862 8.12801 19.6274C7.47294 18.0685 7.81662 16.2688 9.00003 15.0611V4.80005C9.00003 3.14319 10.3432 1.80005 12 1.80005C13.6569 1.80005 15 3.14319 15 4.80005V15.0611C16.1834 16.2688 16.5271 18.0685 15.872 19.6274C15.217 21.1862 13.6909 22.2001 12 22.2001ZM13.8 15.5999V4.80005C13.8 3.80594 12.9941 3.00005 12 3.00005C11.0059 3.00005 10.2 3.80594 10.2 4.80005V5.40005H11.1C11.2657 5.40005 11.4 5.53436 11.4 5.70005C11.4 5.86573 11.2657 6.00005 11.1 6.00005H10.2V6.60005H11.1C11.2657 6.60005 11.4 6.73436 11.4 6.90005C11.4 7.06573 11.2657 7.20005 11.1 7.20005H10.2V7.80005H11.1C11.2657 7.80005 11.4 7.93436 11.4 8.10005C11.4 8.26573 11.2657 8.40005 11.1 8.40005H10.2V15.5999C9.16699 16.3747 8.74563 17.7236 9.15398 18.9486C9.56232 20.1736 10.7087 20.9999 12 20.9999C13.2913 20.9999 14.4377 20.1736 14.8461 18.9486C15.2544 17.7236 14.8331 16.3747 13.8 15.5999ZM12 19.8C11.1878 19.8002 10.4761 19.2563 10.2629 18.4726C10.0496 17.6889 10.3877 16.8594 11.088 16.448V10.512C11.088 10.0084 11.4963 9.60005 12 9.60005C12.5037 9.60005 12.912 10.0084 12.912 10.512V16.448C13.6124 16.8594 13.9504 17.6889 13.7372 18.4726C13.524 19.2563 12.8123 19.8002 12 19.8Z" fill="currentColor"/>
</svg>
