<svg width="24" height="24" viewBox="0 0 24 24" fill="currentColor" xmlns="http://www.w3.org/2000/svg">
<path fill-rule="evenodd" clip-rule="evenodd" d="M19.2 3H4.8C3.80709 3.0029 3.0029 3.80709 3 4.8V11.4C3.0029 12.3929 3.80709 13.1971 4.8 13.2H9.432L9.01716 12H4.8C4.46903 11.999 4.20096 11.731 4.2 11.4V4.8C4.20096 4.46903 4.46903 4.20096 4.8 4.2H19.2C19.531 4.20096 19.799 4.46903 19.8 4.8V11.4C19.799 11.731 19.531 11.999 19.2 12H15.4111L15.8911 13.2H19.2C20.1929 13.1971 20.9971 12.3929 21 11.4V4.8C20.9971 3.80709 20.1929 3.0029 19.2 3ZM10.7698 14.7405C10.7698 15.7362 9.77414 16.7318 9.77414 17.7274C9.77414 18.6183 10.5711 19.5091 10.7389 20.4H11.7839C11.6161 19.5091 10.8191 18.6183 10.8191 17.7274C10.8191 16.7318 11.8147 15.7362 11.8147 14.7405C11.8147 13.827 10.9767 12.9135 10.8384 12H9.79346C9.93173 12.9135 10.7698 13.827 10.7698 14.7405ZM12.7117 14.7405C12.7117 15.7362 11.7161 16.7318 11.7161 17.7274C11.7161 18.6183 12.5131 19.5091 12.6809 20.4H13.7258C13.5581 19.5091 12.761 18.6183 12.761 17.7274C12.761 16.7318 13.7567 15.7362 13.7567 14.7405C13.7567 13.827 12.9186 12.9135 12.7803 12H11.7354C11.8737 12.9135 12.7117 13.827 12.7117 14.7405ZM14.5551 14.7405C14.5551 15.7362 13.5594 16.7318 13.5594 17.7274C13.5594 18.6183 14.3565 19.5091 14.5242 20.4H15.5692C15.4014 19.5091 14.6044 18.6183 14.6044 17.7274C14.6044 16.7318 15.6 15.7362 15.6 14.7405C15.6 13.827 14.7619 12.9135 14.6237 12H13.5788C13.717 12.9135 14.5551 13.827 14.5551 14.7405ZM10.9333 10.8H10C10.0002 10.7928 10 10.7806 10 10.7735C9.99804 10.2228 9.55068 9.77764 9 9.77837V8.84957C10.0678 8.84957 10.9333 9.7109 10.9333 10.7734C10.9333 10.7806 10.9334 10.7928 10.9333 10.8ZM12.6667 10.8H11.7333C11.7333 10.7928 11.7333 10.7806 11.7333 10.7735C11.7296 9.26761 10.5059 8.04987 9 8.05356V7.12476C11.025 7.12476 12.6667 8.75832 12.6667 10.7734C12.6667 10.7806 12.6667 10.7928 12.6667 10.8ZM14.4 10.8H13.4667C13.4667 10.7928 13.4667 10.7806 13.4667 10.7735C13.468 9.59312 12.9969 8.46132 12.1584 7.63056C11.32 6.79472 10.1838 6.32642 9 6.3288V5.4C11.9823 5.4 14.4 7.80578 14.4 10.7735C14.4 10.7806 14.4 10.7928 14.4 10.8Z" fill="currentColor"/>
</svg>
