<svg width="24" height="24" viewBox="0 0 24 24" fill="currentColor" xmlns="http://www.w3.org/2000/svg">
<path fill-rule="evenodd" clip-rule="evenodd" d="M20.8474 11.9585C20.9456 11.5008 20.995 11.0339 20.9949 10.5657C20.9949 6.91859 18.0401 3.96198 14.3952 3.96198C12.398 3.96033 10.5079 4.86519 9.2568 6.42198C8.50503 6.26276 7.72103 6.43123 7.10102 6.88522C6.48102 7.3392 6.08368 8.03574 6.00847 8.8005C3.60226 9.09822 1.79536 11.1428 1.79578 13.5674C1.79578 16.0931 3.74434 18.1634 6.21931 18.3554C6.62825 19.3724 7.61386 20.0391 8.70998 20.0402C9.80088 20.0396 10.7832 19.3798 11.1964 18.3702H18.595C20.1233 18.369 21.4845 17.4037 21.9911 15.9617C22.4976 14.5198 22.0392 12.9152 20.8474 11.9585ZM8.70998 18.8395C8.04335 18.8392 7.45853 18.3949 7.27956 17.7527C7.1006 17.1105 7.37132 16.4278 7.94172 16.0827L10.1934 14.7812L10.195 17.3153C10.2058 17.716 10.0541 18.104 9.77441 18.3911C9.49471 18.6781 9.11079 18.8399 8.70998 18.8395ZM7.42392 10.7512C7.54884 10.5338 7.72704 10.3518 7.94174 10.2223L10.1934 8.92079L10.195 11.4549C10.2111 12.0836 9.82951 12.6543 9.24237 12.8795C8.65523 13.1048 7.98985 12.9358 7.58134 12.4577C7.17283 11.9796 7.10977 11.296 7.42392 10.7512ZM14.7967 15.0936C14.4863 15.6311 13.8744 15.919 13.2624 15.8153C12.6504 15.7117 12.1674 15.2385 12.0513 14.6287C11.9352 14.019 12.2104 13.4013 12.7415 13.08L14.993 11.7785L14.9946 14.3127C15.0022 14.5863 14.9337 14.8566 14.7967 15.0936Z" fill="currentColor"/>
</svg>
