<svg width="24" height="24" viewBox="0 0 24 24" fill="currentColor" xmlns="http://www.w3.org/2000/svg">
<path fill-rule="evenodd" clip-rule="evenodd" d="M19.8 22.2001H3V21C3 20.3373 3.53726 19.8 4.2 19.8V9.60005C4.2 5.29224 7.69219 1.80005 12 1.80005C16.3078 1.80005 19.8 5.29224 19.8 9.60005V19.8C20.4627 19.8 21 20.3373 21 21V22.2001H19.8ZM15.6 11.4H13.2V16.2C13.2 16.5314 12.9314 16.8 12.6 16.8H11.4C11.0686 16.8 10.8 16.5314 10.8 16.2V11.4H8.4C8.06863 11.4 7.8 11.1314 7.8 10.8V9.60005C7.8 9.26868 8.06863 9.00005 8.4 9.00005H10.8V6.60005C10.8 6.26868 11.0686 6.00005 11.4 6.00005H12.6C12.9314 6.00005 13.2 6.26868 13.2 6.60005V9.00005H15.6C15.9314 9.00005 16.2 9.26868 16.2 9.60005V10.8C16.2 11.1314 15.9314 11.4 15.6 11.4Z" fill="currentColor"/>
</svg>
