<svg width="24" height="24" viewBox="0 0 24 24" fill="currentColor" xmlns="http://www.w3.org/2000/svg">
<path fill-rule="evenodd" clip-rule="evenodd" d="M20.9958 4.21851H2.99578C2.33384 4.22044 1.79771 4.75657 1.79578 5.41851V16.8305C1.79578 17.4866 2.32766 18.0185 2.98378 18.0185H4.79578V19.8185H19.1958V18.0185H20.9958C21.6577 18.0166 22.1938 17.4804 22.1958 16.8185V5.41851C22.1938 4.75657 21.6577 4.22044 20.9958 4.21851ZM12.0445 18.9166C11.7937 18.937 11.5569 18.7988 11.4513 18.5705C11.3457 18.3421 11.3937 18.0722 11.5716 17.8943C11.7495 17.7164 12.0194 17.6684 12.2477 17.774C12.4761 17.8796 12.6143 18.1165 12.5939 18.3672C12.57 18.6602 12.3374 18.8927 12.0445 18.9166ZM20.9958 16.8185H2.99578V5.41851H20.9958V16.8185ZM12.0377 6.61851C12.0277 6.61851 12.007 6.61851 12.007 6.61851C9.53578 6.6187 7.52414 8.61375 7.50778 11.089C7.4911 13.5746 9.49229 15.6029 11.9777 15.6195C11.9879 15.6195 11.9979 15.6195 12.0081 15.6195C14.4794 15.6195 16.491 13.6241 16.5078 11.149C16.524 8.66331 14.5228 6.63511 12.0377 6.61851ZM11.547 7.17387V7.42311C11.5438 7.48159 11.5208 7.53724 11.4816 7.58083L11.058 8.00455C11.0144 8.04365 10.9588 8.0667 10.9003 8.06988H10.0688C10.0179 8.07005 9.9766 8.11133 9.97644 8.16228V8.53188C9.97659 8.58284 10.0179 8.62412 10.0688 8.62428H10.9003C10.9512 8.62445 10.9925 8.66571 10.9927 8.71666V9.08626C10.9925 9.13722 10.9513 9.17851 10.9003 9.17866H10.5307C10.4722 9.18184 10.4166 9.20489 10.373 9.24399L10.0418 9.57531C10.0027 9.61891 9.97966 9.67456 9.97649 9.73303V10.1026C9.97331 10.1611 9.95026 10.2167 9.91116 10.2603L9.57996 10.5917C9.53635 10.6308 9.48071 10.6538 9.42223 10.657H9.05263C8.99416 10.6538 8.93853 10.6308 8.89493 10.5917L8.56373 10.2603C8.52013 10.2212 8.4645 10.1982 8.40602 10.195H8.14534C8.52948 8.59575 9.88558 7.36762 11.547 7.17387ZM8.86781 13.5483V13.3365C8.86463 13.278 8.8416 13.2224 8.8025 13.1788L8.4713 12.8476C8.4322 12.804 8.40915 12.7483 8.40598 12.6899V11.8581C8.40916 11.7997 8.43221 11.744 8.4713 11.7004L8.89498 11.2767C8.93857 11.2376 8.99421 11.2146 9.05268 11.2114H9.32983C9.3883 11.2146 9.44394 11.2376 9.48754 11.2767L10.3731 12.1623C10.4167 12.2014 10.4724 12.2245 10.5308 12.2276H10.9004C10.9514 12.2278 10.9926 12.2691 10.9928 12.32V13.1885C10.9896 13.247 10.9666 13.3026 10.9275 13.3462L10.5407 13.7329C10.5016 13.7765 10.4786 13.8322 10.4754 13.8906V14.2233C10.4722 14.2818 10.4492 14.3374 10.4101 14.381L10.1581 14.633C9.65579 14.3673 9.21592 13.9974 8.86781 13.5483ZM13.8582 14.6314L13.6448 14.4181C13.6057 14.3745 13.5827 14.3189 13.5795 14.2604V12.8744C13.5763 12.8159 13.5533 12.7603 13.5142 12.7167L13.0905 12.293C13.0469 12.2539 12.9913 12.2308 12.9328 12.2276H12.0089C11.9579 12.2275 11.9167 12.1862 11.9165 12.1352V11.3038C11.9197 11.2453 11.9427 11.1897 11.9818 11.1461L12.4055 10.7223C12.4491 10.6832 12.5048 10.6602 12.5632 10.657H13.4871C13.5455 10.6538 13.6012 10.6308 13.6448 10.5917L14.0684 10.1681C14.112 10.129 14.1677 10.106 14.2261 10.1028H14.5033C14.5543 10.1026 14.5956 10.0613 14.5957 10.0104V9.73308C14.5955 9.68213 14.5543 9.64085 14.5033 9.64068H14.2261C14.1677 9.64387 14.112 9.66691 14.0684 9.70601L13.6448 10.1297C13.6012 10.1688 13.5455 10.1919 13.4871 10.195H12.5683C12.5173 10.1949 12.476 10.1536 12.4759 10.1026V9.73303C12.4791 9.67452 12.502 9.61882 12.5409 9.57504L12.9601 9.15187C13.0035 9.11261 13.0591 9.08945 13.1175 9.08626H13.949C14 9.08613 14.0412 9.04485 14.0414 8.99388V8.71668C14.0412 8.66573 13.9999 8.62446 13.949 8.62431H13.5794C13.5284 8.62416 13.4871 8.58288 13.487 8.53191V8.16231C13.4872 8.11134 13.5284 8.07006 13.5794 8.06991H14.5517C15.4308 8.80249 15.9506 9.879 15.9779 11.023L15.6774 10.7223C15.6338 10.6832 15.5781 10.6602 15.5197 10.657H15.2424C15.1914 10.6572 15.1502 10.6985 15.15 10.7494V11.119C15.1532 11.1775 15.1762 11.2331 15.2153 11.2767L15.5465 11.6079C15.5856 11.6515 15.6087 11.7072 15.6119 11.7657V12.1353C15.6087 12.1937 15.5856 12.2494 15.5465 12.293L15.2153 12.6243C15.1762 12.6679 15.1532 12.7235 15.15 12.782V13.5424C14.8016 13.993 14.3612 14.3643 13.8582 14.6314Z" fill="currentColor"/>
</svg>
