<svg width="24" height="24" viewBox="0 0 24 24" fill="currentColor" xmlns="http://www.w3.org/2000/svg">
<path fill-rule="evenodd" clip-rule="evenodd" d="M9.01143 6.59573H15.0114V1.79573H9.01143V6.59573ZM13.8114 4.19573V5.39573H12.6114V4.19573H13.8114ZM11.4114 4.19573V5.39573H10.2114V4.19573H11.4114ZM16.8114 8.43509C16.8094 7.75144 16.2557 7.19773 15.5721 7.19573H8.45079C7.76714 7.19773 7.21343 7.75144 7.21143 8.43509V17.3564C7.21143 17.3608 7.21171 17.3651 7.21176 17.3694C7.21176 17.3782 7.21143 17.3869 7.21143 17.3958C7.21143 20.0468 9.36046 22.1958 12.0114 22.1958C14.6624 22.1958 16.8114 20.0468 16.8114 17.3958C16.8114 17.387 16.8111 17.3783 16.8111 17.3694C16.8111 17.3651 16.8114 17.3608 16.8114 17.3564V8.43509Z" fill="currentColor"/>
</svg>
