<svg width="24" height="24" viewBox="0 0 24 24" fill="currentColor" xmlns="http://www.w3.org/2000/svg">
<path fill-rule="evenodd" clip-rule="evenodd" d="M20.1 6.60001H10.8L9.00002 4.20001H2.40002V18.3C2.40002 19.1284 3.0716 19.8 3.90002 19.8H21.6V8.10001C21.6 7.27159 20.9285 6.60001 20.1 6.60001ZM16.6144 9.05831L16.1896 8.63351C15.9547 8.39998 15.5752 8.39998 15.3403 8.63351L14.4909 9.48289L15.7546 10.7466C15.7603 10.7523 15.7696 10.7523 15.7753 10.7466L16.6143 9.9076C16.8478 9.67268 16.8479 9.29329 16.6144 9.05831ZM14.0664 9.90769L8.54563 15.4287C8.31206 15.6624 6.98403 18.216 6.98403 18.216C6.98403 18.216 9.58606 16.9365 9.81962 16.7029L15.2718 11.2504C15.3095 11.2124 15.3095 11.1511 15.2718 11.1131L14.0664 9.90769Z" fill="currentColor"/>
</svg>
