<svg width="24" height="24" viewBox="0 0 24 24" fill="currentColor" xmlns="http://www.w3.org/2000/svg">
<path fill-rule="evenodd" clip-rule="evenodd" d="M21.6 16.2H20.4C20.4 17.8569 19.0569 19.2 17.4 19.2C15.7432 19.2 14.4 17.8569 14.4 16.2H9.00001C9.00001 17.8569 7.65687 19.2 6.00001 19.2C4.34316 19.2 3.00001 17.8569 3.00001 16.2H2.40001C1.73735 16.1998 1.20001 15.6627 1.20001 15V10.807C1.19965 10.5507 1.28187 10.3011 1.43449 10.0951L1.43675 10.0921C1.43797 10.0905 1.43915 10.0888 1.44042 10.0872L5.03665 5.28409C5.26298 4.97926 5.62035 4.79968 6.00001 4.8H13.8C14.1247 4.79863 14.4362 4.92831 14.664 5.1597L18.912 9.67201L21.8437 10.2321C22.4004 10.3475 22.7998 10.838 22.8 11.4065V15C22.8 15.6627 22.2627 16.1998 21.6 16.2ZM14.2931 12.8181L13.5844 13.5268C12.8724 14.2388 10.9246 13.4452 9.2337 11.7543C7.54283 10.0634 6.74925 8.11559 7.46121 7.40365L8.16995 6.69491C8.31245 6.55244 8.54345 6.55244 8.68595 6.69491L9.66755 7.86049C9.81219 8.03228 9.80133 8.28618 9.64254 8.44499L9.07252 9.01501C8.89454 9.19299 9.39952 9.98658 10.2005 10.7875C11.0015 11.5884 11.795 12.0934 11.973 11.9155L12.543 11.3455C12.7018 11.1867 12.9557 11.1758 13.1275 11.3205L14.2931 12.3021C14.4356 12.4446 14.4356 12.6756 14.2931 12.8181Z" fill="currentColor"/>
</svg>
