<svg width="24" height="24" viewBox="0 0 24 24" fill="currentColor" xmlns="http://www.w3.org/2000/svg">
<path fill-rule="evenodd" clip-rule="evenodd" d="M21.6 16.2H20.4C20.4 17.8569 19.0568 19.2 17.4 19.2C15.7431 19.2 14.4 17.8569 14.4 16.2H8.99995C8.99995 17.8569 7.65681 19.2 5.99995 19.2C4.3431 19.2 2.99995 17.8569 2.99995 16.2H2.39995C1.73729 16.1998 1.19995 15.6627 1.19995 15V10.807C1.19959 10.5507 1.28181 10.3011 1.43443 10.0951L1.43669 10.0921C1.43791 10.0905 1.43909 10.0888 1.44036 10.0872L5.03659 5.28408C5.26292 4.97925 5.62029 4.79968 5.99995 4.79999H13.8C14.1246 4.79862 14.4362 4.9283 14.664 5.15969L18.912 9.672L21.8436 10.2321C22.4003 10.3475 22.7997 10.838 22.8 11.4065V15C22.8 15.6627 22.2626 16.1998 21.6 16.2ZM10.1626 13.8H9.02155C9.02175 13.7913 9.02223 13.7827 9.02223 13.774C9.02013 13.1006 8.47334 12.556 7.79995 12.5566V11.4203C9.10498 11.4203 10.1629 12.4741 10.1629 13.774C10.1629 13.7827 10.1627 13.7913 10.1626 13.8ZM12.2811 13.8H11.1404C11.1404 13.7913 11.1407 13.7826 11.1407 13.774C11.137 11.9326 9.64135 10.4428 7.79995 10.4464V9.31015C10.275 9.31015 12.2814 11.3087 12.2814 13.774C12.2814 13.7827 12.2812 13.7913 12.2811 13.8ZM14.3998 13.8H13.2589C13.2589 13.7913 13.2592 13.7826 13.2592 13.774C13.261 12.3302 12.6853 10.9457 11.6602 9.92892C10.636 8.9065 9.24715 8.33348 7.79995 8.33623V7.2C11.445 7.2 14.4 10.1433 14.4 13.774C14.4 13.7826 14.4 13.7913 14.3998 13.8Z" fill="currentColor"/>
</svg>
