<svg width="24" height="24" viewBox="0 0 24 24" fill="currentColor" xmlns="http://www.w3.org/2000/svg">
<path fill-rule="evenodd" clip-rule="evenodd" d="M14.4 17.3999H8.99999V6.00079L4.6 3.60021H14.4V7.1999H15.6V2.3999H2.39999V18.6039L8.99999 22.2479V18.5999H15.6V13.7999H14.4V17.3999ZM22.8 10.5019C22.7984 10.1581 22.6573 9.82959 22.4092 9.5916L17.4 4.8005V7.7999H11.4C10.7369 7.80062 10.1998 8.33845 10.2 9.00153V12.0023C10.2 12.3203 10.3266 12.6253 10.5517 12.8499C10.7768 13.0746 11.082 13.2005 11.4 13.1999H17.4V16.2033L22.4092 11.4123C22.6574 11.1743 22.7984 10.8458 22.8 10.5019Z" fill="currentColor"/>
</svg>
