<svg width="24" height="24" viewBox="0 0 24 24" fill="currentColor" xmlns="http://www.w3.org/2000/svg">
<path fill-rule="evenodd" clip-rule="evenodd" d="M16.8012 1.8H7.19882C6.88072 1.8 6.5757 1.92667 6.35088 2.15171C6.12606 2.37676 5.99984 2.6819 6 3V21C5.99967 21.6624 6.53637 22.1997 7.19878 22.2H16.8012C17.1193 22.2 17.4243 22.0733 17.6491 21.8483C17.8739 21.6232 18.0002 21.3181 18 21V3C18.0003 2.3376 17.4636 1.80035 16.8012 1.8ZM11.1 2.4H12.9C13.0657 2.4 13.2 2.53432 13.2 2.7C13.2 2.86569 13.0657 3 12.9 3H11.1C10.9343 3 10.8 2.86569 10.8 2.7C10.8 2.53432 10.9343 2.4 11.1 2.4ZM12 21.6C11.6686 21.6 11.4 21.3314 11.4 21C11.4 20.6686 11.6686 20.4 12 20.4C12.3314 20.4 12.6 20.6686 12.6 21C12.6 21.3314 12.3314 21.6 12 21.6ZM16.8 19.8H7.2V3.6H16.8V19.8Z" fill="currentColor"/>
</svg>
