<svg width="24" height="24" viewBox="0 0 24 24" fill="currentColor" xmlns="http://www.w3.org/2000/svg">
<path fill-rule="evenodd" clip-rule="evenodd" d="M14.4891 6.0868C15.3951 5.18085 16.8529 5.14624 17.8008 6.00818C18.8176 6.93426 18.8316 8.53245 17.8591 9.50498L14.8788 12.4852C14.7754 12.5886 14.7174 12.7287 14.7174 12.8749C14.7174 13.021 14.7754 13.1612 14.8788 13.2645L15.7965 14.1823C16.0117 14.3975 16.3606 14.3975 16.5758 14.1823L19.5802 11.1778L19.5832 11.1749C21.456 9.30208 21.456 6.26562 19.5832 4.39281C17.7104 2.51999 14.674 2.51999 12.8011 4.39281L12.7982 4.39586L12.7922 4.38981L9.7877 7.3942C9.68437 7.49753 9.62631 7.63769 9.62631 7.78383C9.62631 7.92997 9.68437 8.07012 9.7877 8.17346L10.7055 9.09122C10.8088 9.19455 10.949 9.25261 11.0951 9.25261C11.2412 9.25261 11.3814 9.19455 11.4847 9.09122L14.4891 6.0868ZM9.48086 17.8831C8.57492 18.7891 7.11714 18.8237 6.16922 17.9618C5.15239 17.0357 5.13845 15.4375 6.11095 14.465L9.0912 11.4847C9.19453 11.3814 9.25259 11.2412 9.25259 11.0951C9.25259 10.9489 9.19453 10.8088 9.0912 10.7054L8.17344 9.78767C8.0701 9.68434 7.92995 9.62628 7.78381 9.62628C7.63767 9.62628 7.49752 9.68434 7.39418 9.78767L4.38981 12.7921L4.39586 12.7981L4.39281 12.8011C2.52 14.6739 2.52 17.7103 4.39281 19.5832C6.26563 21.456 9.30209 21.456 11.1749 19.5832L11.1779 19.5801L14.1823 16.5758C14.3975 16.3606 14.3975 16.0117 14.1823 15.7965L13.2645 14.8787C13.1612 14.7754 13.021 14.7173 12.8749 14.7173C12.7288 14.7173 12.5886 14.7754 12.4853 14.8787L9.48086 17.8831ZM5.38711 6.2356L6.66 7.50837C6.89471 7.7417 7.2738 7.7417 7.50852 7.50837C7.74185 7.27365 7.74185 6.89456 7.50852 6.65985L6.23575 5.38708C6.00103 5.15375 5.62195 5.15375 5.38723 5.38708C5.15386 5.62176 5.15381 6.00085 5.38711 6.2356ZM3.58819 9.38111H5.38819C5.71916 9.38015 5.98723 9.11208 5.98819 8.78111C5.98723 8.45014 5.71916 8.18207 5.38819 8.18111H3.58819C3.25722 8.18207 2.98915 8.45014 2.98819 8.78111C2.98914 9.11209 3.25721 9.38016 3.58819 9.38111ZM8.18117 3.58816V5.38816C8.18213 5.71913 8.45019 5.9872 8.78117 5.98816C9.11214 5.9872 9.3802 5.71913 9.38117 5.38816V3.58816C9.38022 3.25718 9.11214 2.98911 8.78117 2.98816C8.45019 2.98912 8.18213 3.25719 8.18117 3.58816ZM17.7404 18.5889L16.4676 17.3161C16.2343 17.0814 16.2343 16.7023 16.4676 16.4676C16.7023 16.2342 17.0814 16.2342 17.3161 16.4676L18.5889 17.7403C18.8222 17.9751 18.8222 18.3541 18.5889 18.5889C18.3542 18.8222 17.9751 18.8222 17.7404 18.5889ZM14.5949 20.3878V18.5878C14.5958 18.2568 14.8639 17.9887 15.1949 17.9878C15.5258 17.9887 15.7939 18.2568 15.7949 18.5878V20.3878C15.7939 20.7187 15.5258 20.9868 15.1949 20.9878C14.8639 20.9868 14.5958 20.7188 14.5949 20.3878ZM20.3878 15.7948H18.5878C18.2568 15.7938 17.9888 15.5258 17.9878 15.1948C17.9888 14.8638 18.2568 14.5958 18.5878 14.5948H20.3878C20.7188 14.5957 20.9869 14.8638 20.9878 15.1948C20.9868 15.5258 20.7188 15.7938 20.3878 15.7948Z" fill="currentColor"/>
</svg>
