<svg width="24" height="24" viewBox="0 0 24 24" fill="currentColor" xmlns="http://www.w3.org/2000/svg">
<path fill-rule="evenodd" clip-rule="evenodd" d="M21.6 8.11206H21V18.9121C21 19.2303 20.8736 19.5355 20.6485 19.7606C20.4235 19.9856 20.1183 20.1121 19.8 20.1121H7.20001V20.7121C7.20001 21.3748 7.73727 21.9121 8.40001 21.9121H21.6C22.2628 21.9121 22.8 21.3748 22.8 20.7121V9.31206C22.8 8.64932 22.2628 8.11206 21.6 8.11206ZM18.6 5.11206H18V15.9121C18 16.5748 17.4628 17.1121 16.8 17.1121H4.20001V17.7121C4.20001 18.3748 4.73727 18.9121 5.40001 18.9121H18.6C19.2628 18.9121 19.8 18.3748 19.8 17.7121V6.31206C19.8 5.64932 19.2628 5.11206 18.6 5.11206ZM15 3.91206V14.1121H3.00001V3.91206H15ZM15.6 2.11206H2.40001C1.73727 2.11206 1.20001 2.64932 1.20001 3.31206V14.7121C1.20001 15.3748 1.73727 15.9121 2.40001 15.9121H15.6C16.2628 15.9121 16.8 15.3748 16.8 14.7121V3.31206C16.8 2.64932 16.2628 2.11206 15.6 2.11206Z" fill="currentColor"/>
</svg>
