<svg width="24" height="24" viewBox="0 0 24 24" fill="currentColor" xmlns="http://www.w3.org/2000/svg">
<path fill-rule="evenodd" clip-rule="evenodd" d="M10.5347 13.7397L9.10476 13.3121L8.56051 13.8559L8.98848 15.2848L9.24022 15.0308L14.3116 20.0986L14.5184 19.8919L9.44705 14.8241L10.0675 14.2041L15.1388 19.2718L15.3457 19.0652L10.2744 13.9974L10.5347 13.7397ZM15.7848 10.1379C13.6592 12.1407 10.3412 12.1408 8.21546 10.1381C6.51737 11.0635 5.444 12.8266 5.40154 14.76H5.40002V19.8C5.40002 21.1255 6.47454 22.2001 7.80002 22.2001H18.6V14.88C18.6007 12.9031 17.5207 11.0839 15.7848 10.1379ZM10.0645 20.8246C9.83572 21.0521 9.46621 21.0521 9.23743 20.8246L7.99682 19.584C7.76938 19.3553 7.76938 18.9858 7.99682 18.757L9.85774 16.896L10.0645 17.1028L9.85774 17.3096L10.3746 17.8265C10.4308 17.8837 10.4304 17.9755 10.3737 18.0323C10.317 18.089 10.2251 18.0894 10.1679 18.0332L9.65098 17.5163L9.23743 17.9299L9.54758 18.24C9.60469 18.2971 9.60469 18.3897 9.5476 18.4468C9.4905 18.5039 9.39793 18.5039 9.34082 18.4468L9.03067 18.1367L8.61713 18.5502L9.13406 19.0671C9.171 19.1041 9.18542 19.1579 9.1719 19.2084C9.15838 19.2588 9.11896 19.2982 9.06851 19.3117C9.01805 19.3253 8.96421 19.3108 8.92728 19.2739L8.41037 18.757L8.20361 18.9637C8.0899 19.0781 8.0899 19.2629 8.20361 19.3773L9.44419 20.6179C9.55859 20.7316 9.74334 20.7316 9.85774 20.6179L11.7186 18.757L11.9254 18.9637L10.0645 20.8246ZM15.7077 19.5301L15.1906 20.0468L14.7831 20.454C14.6598 20.5776 14.4923 20.6469 14.3178 20.6467C14.2977 20.6467 14.277 20.6458 14.257 20.6439L14.251 20.6433C14.233 20.6415 14.2152 20.6389 14.1974 20.6356C14.1938 20.6349 14.1902 20.6342 14.1866 20.6335C14.0585 20.6116 13.9397 20.5524 13.845 20.4634L10.9617 17.5779L8.82655 15.4484L8.40156 14.0256L8.19617 13.3493L8.15537 13.1867C8.15537 13.1869 8.15537 13.1866 8.15537 13.1867C8.15377 13.1815 8.15239 13.1759 8.15124 13.1707C8.15081 13.1688 8.15052 13.1669 8.15014 13.165C8.14946 13.1616 8.14874 13.1582 8.14822 13.1548C8.1479 13.1526 8.14771 13.1504 8.14745 13.1482C8.14706 13.1451 8.14666 13.142 8.14642 13.139C8.14622 13.1366 8.1462 13.1344 8.14608 13.1321C8.14608 13.1292 8.14577 13.1262 8.14577 13.1233C8.14577 13.1229 8.14577 13.1224 8.14577 13.122C8.14577 13.1187 8.14591 13.1155 8.14606 13.1122C8.14606 13.1113 8.14606 13.1103 8.14606 13.1094C8.14632 13.1046 8.14678 13.1 8.14735 13.0954C8.1475 13.0942 8.14771 13.093 8.14788 13.0919C8.14838 13.0884 8.14891 13.085 8.14956 13.0817C8.14987 13.08 8.15026 13.0784 8.15059 13.0769C8.15122 13.074 8.15189 13.0711 8.15261 13.0683C8.15306 13.0666 8.15357 13.0649 8.15405 13.0631C8.15484 13.0604 8.15566 13.0578 8.15645 13.0551C8.15699 13.0534 8.15757 13.0517 8.15818 13.05C8.15914 13.0473 8.16017 13.0447 8.16122 13.0421C8.16187 13.0404 8.1625 13.0388 8.16317 13.0373C8.16437 13.0345 8.16557 13.0317 8.16698 13.029C8.16763 13.0277 8.16823 13.0263 8.1689 13.025C8.17082 13.0212 8.17289 13.0174 8.17502 13.0137C8.1749 13.0139 8.17502 13.0135 8.17502 13.0137C8.17728 13.0098 8.17999 13.0055 8.18254 13.0018C8.18335 13.0006 8.18422 12.9994 8.18494 12.9982C8.18669 12.9958 8.18844 12.9933 8.19029 12.9909C8.19132 12.9895 8.19242 12.9882 8.19348 12.9868C8.19523 12.9846 8.19698 12.9825 8.19878 12.9804C8.19996 12.979 8.20118 12.9777 8.20236 12.9764C8.20421 12.9743 8.20606 12.9724 8.20795 12.9704C8.2092 12.9691 8.21035 12.9678 8.21174 12.9666C8.21374 12.9646 8.2158 12.9627 8.21789 12.9608L8.22161 12.9575C8.22401 12.9554 8.22641 12.9534 8.229 12.9514C8.23001 12.9506 8.23097 12.9497 8.232 12.949C8.23555 12.9462 8.2392 12.9436 8.24287 12.9411L8.24508 12.9397C8.24808 12.9377 8.25113 12.9358 8.25425 12.9339C8.25562 12.9331 8.25701 12.9324 8.25838 12.9315C8.26092 12.9301 8.26349 12.9287 8.26608 12.9274C8.26766 12.9265 8.26925 12.9258 8.27088 12.925C8.27328 12.9238 8.27592 12.9226 8.27846 12.9215C8.28012 12.9208 8.28178 12.92 8.28346 12.9194C8.28605 12.9183 8.28866 12.9173 8.29128 12.9164L8.2963 12.9146C8.2991 12.9137 8.30194 12.9128 8.30482 12.912C8.30635 12.9115 8.30786 12.9111 8.3094 12.9107C8.31298 12.9097 8.3166 12.9089 8.3202 12.9081C8.32109 12.9079 8.32193 12.9077 8.32282 12.9075C8.32733 12.9066 8.33191 12.9059 8.33652 12.9053C8.33774 12.9051 8.33892 12.905 8.34019 12.9049C8.3436 12.9045 8.34701 12.9042 8.35046 12.904C8.35214 12.904 8.35387 12.9038 8.35558 12.9037C8.3586 12.9037 8.36162 12.9036 8.36467 12.9036C8.36652 12.9036 8.36837 12.9036 8.37024 12.9036C8.3732 12.9036 8.37618 12.9037 8.37917 12.904C8.38104 12.904 8.38294 12.9042 8.38483 12.9044C8.38788 12.9047 8.39093 12.9051 8.394 12.9055L8.3995 12.9063C8.40283 12.9069 8.40619 12.9075 8.40955 12.9082C8.41109 12.9086 8.41265 12.9088 8.41421 12.9092C8.41901 12.9103 8.42405 12.9116 8.42899 12.9131L8.91504 13.0519L9.26851 13.1591L10.6893 13.585L15.7024 18.5946C15.7741 18.6659 15.8292 18.7522 15.8637 18.8473C15.8636 18.8471 15.8637 18.8475 15.8637 18.8473C15.8701 18.8656 15.8758 18.885 15.8805 18.9037C15.8852 18.9224 15.889 18.941 15.892 18.9599C15.8929 18.9656 15.8938 18.9714 15.8946 18.9772C15.9222 19.1806 15.853 19.3851 15.7077 19.5301ZM16.0607 14.8285L14.1998 16.6894L13.9931 16.4826L15.8539 14.6217C15.9677 14.5073 15.9677 14.3226 15.8539 14.2082L14.6133 12.9676C14.4989 12.8539 14.3142 12.8539 14.1998 12.9676L13.9931 13.1744L14.51 13.6913C14.5671 13.7484 14.5671 13.841 14.51 13.8981C14.4529 13.9552 14.3603 13.9552 14.3032 13.8981L13.7863 13.3811L13.3728 13.7946L13.6829 14.1048C13.7391 14.1621 13.7386 14.2539 13.6819 14.3106C13.6252 14.3673 13.5334 14.3678 13.4761 14.3116L13.166 14.0015L12.7524 14.415L13.2694 14.9319C13.3255 14.9892 13.3251 15.081 13.2684 15.1377C13.2117 15.1944 13.1199 15.1948 13.0626 15.1387L12.5457 14.6218L12.3389 14.8285L12.1322 14.6218L13.9931 12.7608C14.2218 12.5334 14.5913 12.5334 14.8201 12.7608L16.0608 14.0014C16.2883 14.2301 16.2882 14.5997 16.0607 14.8285ZM12 10.44C14.3859 10.44 16.32 8.50592 16.32 6.12005C16.32 3.73418 14.3859 1.80005 12 1.80005C9.61415 1.80005 7.68002 3.73418 7.68002 6.12005C7.68002 8.50592 9.61415 10.44 12 10.44Z" fill="currentColor"/>
</svg>
