<svg width="24" height="24" viewBox="0 0 24 24" fill="currentColor" xmlns="http://www.w3.org/2000/svg">
<path fill-rule="evenodd" clip-rule="evenodd" d="M19.476 4.19995H2.40002V17.088C2.40034 17.6495 2.62417 18.1879 3.0221 18.5841C3.42002 18.9804 3.95931 19.202 4.52088 19.2H21.6V6.27115C21.6 5.09995 20.6478 4.19995 19.476 4.19995ZM19.8 8.70341L14.1302 14.16H14.1254C13.5698 14.712 12.8164 14.9987 11.9863 14.9987C11.1563 14.9987 10.4033 14.712 9.8466 14.16H9.83172L4.20002 8.70715V6.63022C6.45516 8.85943 10.5597 12.84 10.5597 12.84H10.561C10.9282 13.224 11.4282 13.3872 11.9799 13.3872C12.5642 13.3872 13.0901 13.152 13.4621 12.744H13.4647L19.8 6.60118V8.70341Z" fill="currentColor"/>
</svg>
