<svg width="24" height="24" viewBox="0 0 24 24" fill="currentColor" xmlns="http://www.w3.org/2000/svg">
<path fill-rule="evenodd" clip-rule="evenodd" d="M13.5 1.20001C11.3461 1.20001 9.59998 2.9461 9.59998 5.10001V17.4C9.59998 18.7255 10.6745 19.8 12 19.8C13.3255 19.8 14.4 18.7255 14.4 17.4V10.2C14.4 9.53727 13.8627 9.00001 13.2 9.00001H12.6V17.4C12.6 17.7314 12.3313 18 12 18C11.6686 18 11.4 17.7314 11.4 17.4V5.10001C11.4 3.94021 12.3402 3.00001 13.5 3.00001C14.6598 3.00001 15.6 3.94021 15.6 5.10001V17.4C15.6 19.3882 13.9882 21 12 21C10.0118 21 8.39998 19.3882 8.39998 17.4V9.00001H7.79998C7.13723 9.00001 6.59998 9.53727 6.59998 10.2V17.4C6.59998 20.3823 9.01764 22.8 12 22.8C14.9823 22.8 17.4 20.3823 17.4 17.4V5.10001C17.4 2.9461 15.6539 1.20001 13.5 1.20001Z" fill="currentColor"/>
</svg>
