<svg width="24" height="24" viewBox="0 0 24 24" fill="currentColor" xmlns="http://www.w3.org/2000/svg">
<path fill-rule="evenodd" clip-rule="evenodd" d="M3 7.51044V16.4892C3 16.9256 3.23288 17.3287 3.61082 17.5468L11.3892 22.0362C11.7672 22.2544 12.2328 22.2544 12.6108 22.0362L20.3892 17.5468C20.7671 17.3287 21 16.9256 21 16.4892V7.51044C21 7.07409 20.7671 6.67091 20.3892 6.45283L12.6108 1.96341C12.2328 1.74527 11.7672 1.74527 11.3892 1.96341L3.61082 6.4528C3.23288 6.67089 3 7.07408 3 7.51044ZM14.5506 10.535C14.4151 10.302 14.1169 10.2222 13.8831 10.3562L12.0121 11.4362L10.1411 10.3562C9.90726 10.2222 9.6091 10.302 9.47362 10.535C9.33959 10.7688 9.4195 11.0669 9.65246 11.2022L11.5235 12.2822V14.4424C11.5254 14.7109 11.7436 14.9276 12.0121 14.9276C12.2806 14.9276 12.4988 14.7109 12.5007 14.4424V12.2822L14.3717 11.2022C14.6047 11.0669 14.6846 10.7688 14.5506 10.535ZM14.5506 18.237C14.4146 18.0047 14.1168 17.9252 13.8831 18.0588L12.5007 18.8541V17.2629C12.4989 16.9944 12.2807 16.7777 12.0121 16.7777C11.7436 16.7777 11.5254 16.9944 11.5235 17.2629V18.8541L10.1411 18.0588C9.90742 17.9252 9.60968 18.0047 9.47369 18.237C9.33963 18.4701 9.41966 18.7677 9.65254 18.9021L11.7682 20.1193C11.7734 20.1222 11.7787 20.1245 11.7839 20.1272C11.7903 20.1306 11.7967 20.134 11.8032 20.1371C11.8098 20.1401 11.8159 20.1429 11.8224 20.1456C11.8257 20.147 11.8296 20.1484 11.8329 20.1497C11.837 20.1513 11.8411 20.153 11.8453 20.1545C11.8524 20.1571 11.8594 20.1596 11.8666 20.1618C11.8681 20.1623 11.8697 20.1627 11.8714 20.1631C11.8742 20.164 11.877 20.1647 11.8799 20.1655C11.8832 20.1665 11.8865 20.1674 11.8898 20.1683C11.8973 20.1702 11.9047 20.1722 11.9122 20.1737C11.9159 20.1745 11.9197 20.175 11.9234 20.1756L11.925 20.1759C11.929 20.1767 11.9331 20.1774 11.9371 20.178C11.9443 20.1791 11.9515 20.1803 11.9587 20.1811C11.9629 20.1815 11.9671 20.1817 11.9712 20.1821C11.9765 20.1826 11.9816 20.1828 11.9869 20.1831C11.9933 20.1834 11.9997 20.1838 12.0061 20.1839C12.0081 20.1839 12.0102 20.1842 12.0122 20.1842C12.0143 20.1842 12.0163 20.1839 12.0183 20.1839C12.0248 20.1839 12.0312 20.1834 12.0375 20.1831C12.0427 20.1828 12.048 20.1826 12.0531 20.1821C12.0573 20.1817 12.0615 20.1815 12.0657 20.1811C12.0729 20.1803 12.0801 20.1791 12.0873 20.178C12.0913 20.1774 12.0954 20.1767 12.0993 20.1759L12.1009 20.1756C12.1046 20.175 12.1084 20.1745 12.1122 20.1737C12.1196 20.1722 12.1271 20.1702 12.1345 20.1683C12.1378 20.1674 12.1411 20.1665 12.1444 20.1655C12.1473 20.1647 12.1501 20.1641 12.1529 20.1631C12.1545 20.1627 12.1561 20.1623 12.1577 20.1618C12.1649 20.1596 12.1719 20.157 12.179 20.1545C12.1832 20.153 12.1872 20.1513 12.1914 20.1497C12.1947 20.1484 12.198 20.1473 12.2012 20.1459C12.2077 20.1432 12.2146 20.1401 12.221 20.1371C12.2274 20.1341 12.234 20.1306 12.2404 20.1272C12.2456 20.1245 12.2509 20.1222 12.256 20.1193L14.3717 18.9021C14.6046 18.7677 14.6846 18.4701 14.5506 18.237ZM18.737 12.9649C18.4672 12.9638 18.2472 13.1808 18.2445 13.4506L18.2356 15.0462L16.8538 14.2404C16.7031 14.15 16.5154 14.1474 16.3622 14.2338C16.2091 14.3201 16.1141 14.4821 16.1135 14.6579C16.113 14.8337 16.2069 14.9963 16.3594 15.0837L17.7413 15.8894L16.3511 16.6796C16.1968 16.7649 16.1004 16.9266 16.0988 17.1028C16.0972 17.2791 16.1906 17.4426 16.3433 17.5307C16.4959 17.6188 16.6842 17.6178 16.836 17.5283L18.9636 16.319C18.9687 16.316 18.9734 16.3126 18.9784 16.3095C18.9846 16.3057 18.9908 16.3019 18.9967 16.2978C19.0027 16.2937 19.0082 16.2898 19.0138 16.2856C19.0137 16.2857 19.014 16.2856 19.0138 16.2856C19.0167 16.2835 19.0199 16.2809 19.0226 16.2787C19.0261 16.2759 19.0297 16.2732 19.0331 16.2704C19.0389 16.2656 19.0447 16.2608 19.0502 16.2557C19.0514 16.2546 19.0526 16.2533 19.0537 16.2523C19.0559 16.2503 19.058 16.2482 19.0601 16.2462C19.0622 16.2442 19.065 16.2414 19.0675 16.239C19.0729 16.2335 19.0784 16.2281 19.0835 16.2224C19.0861 16.2197 19.0883 16.2166 19.0908 16.2138L19.092 16.2125C19.0946 16.2094 19.0973 16.2063 19.0999 16.2031C19.1045 16.1974 19.1092 16.1918 19.1135 16.1859C19.1159 16.1826 19.1183 16.1791 19.1207 16.1756C19.1237 16.1714 19.1266 16.1671 19.1295 16.1627C19.133 16.1573 19.1367 16.1519 19.1399 16.1464C19.141 16.1447 19.1423 16.1431 19.1433 16.1413C19.1443 16.1395 19.1451 16.1376 19.1461 16.1358C19.1493 16.1303 19.1522 16.1245 19.1552 16.1188C19.1576 16.1142 19.16 16.1095 19.1622 16.1048C19.164 16.101 19.166 16.0973 19.1677 16.0935C19.1707 16.0869 19.1733 16.08 19.176 16.0733C19.1775 16.0694 19.1789 16.0656 19.1803 16.0617L19.1809 16.0602C19.1822 16.0566 19.1837 16.053 19.1849 16.0495C19.1873 16.0423 19.1894 16.0349 19.1915 16.0275C19.1924 16.0242 19.1933 16.0209 19.1941 16.0175C19.1949 16.0147 19.1957 16.0119 19.1964 16.009C19.1968 16.0074 19.1973 16.0059 19.1976 16.0042C19.1993 15.997 19.2007 15.9895 19.2021 15.9821C19.2029 15.9777 19.2035 15.9733 19.2042 15.9689C19.2047 15.9655 19.2054 15.9621 19.2058 15.9586C19.2058 15.9589 19.2058 15.9584 19.2058 15.9586C19.2067 15.9517 19.2074 15.9441 19.208 15.9371C19.2086 15.9301 19.209 15.9227 19.2093 15.9153C19.2095 15.9095 19.2102 15.9037 19.2103 15.8978L19.224 13.456C19.2243 13.1862 19.0068 12.9668 18.737 12.9649ZM7.6421 16.6988L6.25567 15.9088L7.63378 15.1032C7.78528 15.0156 7.87828 14.8535 7.87757 14.6785C7.87685 14.5035 7.78252 14.3422 7.63031 14.2558C7.47809 14.1694 7.29128 14.1711 7.14062 14.2602L5.76254 15.0658L5.75371 13.4705C5.75138 13.2011 5.53195 12.9842 5.26255 12.9849C4.99316 12.9871 4.77615 13.2065 4.77681 13.4759L4.7904 15.9173C4.7904 15.9233 4.79117 15.929 4.79141 15.9348C4.79172 15.942 4.79198 15.9492 4.79263 15.9566C4.79328 15.9639 4.79395 15.9705 4.79486 15.9773C4.79481 15.9771 4.79489 15.9776 4.79486 15.9773C4.79532 15.9808 4.79609 15.985 4.79662 15.9884C4.79731 15.9928 4.79791 15.9972 4.79873 16.0016C4.80007 16.009 4.80144 16.0164 4.80312 16.0237C4.80348 16.0252 4.80398 16.0268 4.80434 16.0285C4.80504 16.0313 4.80588 16.0342 4.80662 16.037C4.80749 16.0403 4.8083 16.0437 4.80924 16.047C4.81135 16.0544 4.81339 16.0618 4.81584 16.069C4.81704 16.0726 4.81855 16.0762 4.81982 16.0797L4.8204 16.0812C4.82179 16.085 4.82321 16.0889 4.82472 16.0927C4.82741 16.0995 4.83002 16.1063 4.833 16.1129C4.8347 16.1168 4.83662 16.1205 4.83842 16.1243C4.84068 16.1291 4.84303 16.1336 4.84543 16.1383C4.84841 16.144 4.85134 16.1497 4.8545 16.1553C4.85554 16.1571 4.8563 16.159 4.85734 16.1607C4.85839 16.1625 4.85974 16.1641 4.8607 16.1659C4.86401 16.1714 4.86756 16.1767 4.87109 16.1821C4.87397 16.1865 4.87685 16.1908 4.87985 16.1951C4.88225 16.1985 4.88465 16.202 4.88705 16.2054C4.89139 16.2112 4.89605 16.2169 4.90066 16.2225C4.90325 16.2257 4.90588 16.2289 4.90855 16.2319L4.90966 16.2332C4.91206 16.2361 4.91446 16.2391 4.91686 16.2419C4.92199 16.2475 4.92742 16.253 4.93284 16.2584C4.93524 16.2608 4.93776 16.2632 4.94023 16.2656C4.94234 16.2677 4.94441 16.2698 4.94654 16.2718C4.94774 16.2729 4.94894 16.2742 4.95005 16.2752C4.95557 16.2802 4.96135 16.285 4.96714 16.2898C4.97054 16.2927 4.9741 16.2953 4.97758 16.2981C4.98034 16.3003 4.983 16.3025 4.98583 16.3046C4.98564 16.3045 4.986 16.3046 4.98583 16.3046C4.9914 16.3088 4.99762 16.3133 5.0034 16.3172C5.00918 16.3212 5.01557 16.3251 5.02171 16.3289C5.0267 16.332 5.03131 16.3354 5.0365 16.3384L7.15831 17.5474C7.39264 17.681 7.69091 17.5993 7.8245 17.365C7.9581 17.1306 7.87644 16.8324 7.6421 16.6988ZM7.16126 6.46939L5.03945 7.67839C5.03431 7.68132 5.02966 7.68475 5.02466 7.68784C5.0185 7.69168 5.01233 7.69545 5.00635 7.69953C5.00038 7.70361 4.99488 7.70752 4.98931 7.7117C4.98948 7.71158 4.98912 7.7117 4.98931 7.7117C4.98648 7.71381 4.98329 7.7165 4.98053 7.71866C4.97702 7.72142 4.9735 7.72408 4.97009 7.72694C4.96428 7.73174 4.95852 7.73654 4.953 7.74158C4.9518 7.74268 4.9506 7.74398 4.9495 7.74499C4.94734 7.74698 4.9453 7.74909 4.94318 7.75111C4.94078 7.75351 4.93822 7.75591 4.93579 7.75831C4.93037 7.76376 4.92492 7.76918 4.91981 7.77487C4.91726 7.77765 4.91501 7.78068 4.91261 7.78351C4.91222 7.78394 4.91186 7.7844 4.9115 7.78483C4.90884 7.78792 4.9062 7.79102 4.90361 7.79419C4.899 7.79985 4.89434 7.80549 4.89 7.81135C4.8876 7.81471 4.8852 7.81821 4.8828 7.82164C4.8798 7.82589 4.8769 7.83021 4.87404 7.83458C4.87051 7.83998 4.86696 7.84533 4.86365 7.85088C4.86259 7.85263 4.86125 7.85421 4.86029 7.85599C4.85923 7.85776 4.85849 7.85964 4.85746 7.86144C4.85426 7.867 4.85134 7.87272 4.84838 7.87843C4.84598 7.88308 4.84358 7.88774 4.84138 7.89244C4.83958 7.89624 4.83763 7.89996 4.83595 7.90377C4.83298 7.91042 4.83034 7.91721 4.82767 7.924C4.82616 7.92784 4.82474 7.93168 4.82335 7.93555L4.82278 7.93706C4.8215 7.94064 4.81999 7.94426 4.81879 7.94772C4.81639 7.95492 4.8143 7.96236 4.81219 7.96975C4.81126 7.97306 4.81044 7.9764 4.80955 7.97973C4.80881 7.98259 4.80799 7.9854 4.8073 7.98825C4.80694 7.98984 4.80643 7.99137 4.80607 7.99293C4.80439 8.00013 4.80302 8.0076 4.80168 8.01501C4.80086 8.01938 4.80026 8.0238 4.79957 8.02819C4.79904 8.03164 4.79839 8.03505 4.79794 8.03851C4.79794 8.03827 4.79794 8.03877 4.79794 8.03851C4.79702 8.0454 4.7963 8.05305 4.7957 8.06004C4.7951 8.06702 4.79479 8.07444 4.79446 8.08164C4.79422 8.08749 4.79352 8.09323 4.79347 8.09913L4.77993 10.5406C4.77928 10.81 4.9963 11.0293 5.2657 11.0316C5.53508 11.0323 5.75451 10.8154 5.75686 10.546L5.76569 8.95072L7.14377 9.75631C7.29454 9.84806 7.48308 9.85131 7.63692 9.76483C7.79077 9.67834 7.88598 9.51557 7.88595 9.33908C7.88593 9.16259 7.79067 8.99985 7.6368 8.9134L6.25872 8.1078L7.64501 7.31781C7.79753 7.23189 7.89239 7.07089 7.89365 6.89583C7.89489 6.72077 7.80233 6.55844 7.65105 6.47035C7.49976 6.38226 7.31289 6.38189 7.16126 6.46939ZM16.351 7.2965L17.7412 8.08668L16.3593 8.89245C16.2068 8.97982 16.1129 9.14239 16.1134 9.3182C16.114 9.49402 16.209 9.65597 16.3621 9.74233C16.5153 9.82869 16.703 9.82615 16.8537 9.73567L18.2355 8.92989L18.2444 10.5255C18.2471 10.7953 18.4671 11.0123 18.7369 11.0112C19.0067 11.0093 19.2243 10.7899 19.224 10.5201L19.2104 8.07811C19.2104 8.0722 19.2097 8.06647 19.2095 8.06061C19.2091 8.05341 19.2089 8.04621 19.2082 8.03889C19.2075 8.03157 19.2069 8.025 19.206 8.01808C19.206 8.01832 19.206 8.01784 19.206 8.01808C19.2055 8.0146 19.2049 8.0105 19.2043 8.00704C19.2036 8.00263 19.203 7.99824 19.2022 7.99384C19.2009 7.98645 19.1995 7.97906 19.1978 7.97176C19.1975 7.9702 19.197 7.96867 19.1966 7.96696C19.1959 7.96411 19.1951 7.9613 19.1943 7.95844C19.1934 7.95511 19.1926 7.95177 19.1917 7.94846C19.1896 7.94107 19.1875 7.93368 19.1851 7.92643C19.1839 7.92283 19.1823 7.91923 19.1811 7.91577L19.1805 7.91426C19.1791 7.91037 19.1777 7.90653 19.1762 7.90272C19.1735 7.8959 19.1708 7.88911 19.1679 7.88246C19.1662 7.87867 19.1642 7.87492 19.1624 7.87116C19.1602 7.86636 19.1578 7.86177 19.1554 7.85712C19.1524 7.8514 19.1495 7.84569 19.1463 7.84012C19.1453 7.83832 19.1445 7.83645 19.1435 7.83468C19.1424 7.83288 19.1411 7.83132 19.1401 7.82954C19.1368 7.82402 19.1332 7.81867 19.1297 7.81327C19.1268 7.8089 19.1239 7.80458 19.1209 7.80033C19.1185 7.7969 19.1161 7.79337 19.1137 7.79004C19.1093 7.78416 19.1047 7.77854 19.1 7.77285C19.0974 7.76968 19.0948 7.76659 19.0921 7.76349C19.0917 7.76306 19.0914 7.7626 19.091 7.7622C19.0886 7.75934 19.0862 7.75632 19.0837 7.75353C19.0786 7.74784 19.0731 7.74242 19.0677 7.73697C19.0653 7.73457 19.0627 7.73217 19.0602 7.72977C19.0581 7.72773 19.0561 7.72564 19.0539 7.72365C19.0527 7.72255 19.0515 7.72125 19.0504 7.72024C19.0449 7.7152 19.0391 7.7104 19.0333 7.7056C19.0299 7.70275 19.0263 7.70006 19.0228 7.69732C19.02 7.69514 19.0174 7.69288 19.0145 7.69077C19.0089 7.68661 19.0027 7.68213 18.9969 7.6782C18.9909 7.67409 18.9847 7.67032 18.9786 7.66648C18.9736 7.66341 18.969 7.65996 18.9637 7.65703L16.836 6.44786C16.6843 6.35979 16.4971 6.35977 16.3453 6.44779C16.1936 6.53582 16.1007 6.69839 16.1019 6.87379C16.1031 7.04919 16.1981 7.21051 16.351 7.2965ZM14.3717 5.0981L12.2557 3.88094C12.2506 3.87799 12.2452 3.87571 12.24 3.87297C12.2336 3.86961 12.2273 3.86618 12.2208 3.86311C12.2144 3.86004 12.2081 3.85728 12.2016 3.85456C12.1984 3.8532 12.1944 3.85192 12.1912 3.85051C12.187 3.8489 12.1829 3.8472 12.1788 3.84571C12.1716 3.84314 12.1646 3.8406 12.1575 3.83836C12.1559 3.83788 12.1543 3.83755 12.1527 3.83707C12.1499 3.83623 12.147 3.83551 12.1442 3.83467C12.1409 3.83376 12.1376 3.8328 12.1343 3.83193C12.1268 3.83001 12.1194 3.82807 12.1119 3.82651C12.1082 3.82574 12.1044 3.82526 12.1007 3.82456L12.099 3.8243C12.095 3.82356 12.091 3.82284 12.087 3.82221C12.0798 3.82111 12.0726 3.81993 12.0654 3.81916C12.0613 3.81868 12.0571 3.81847 12.0529 3.81813C12.0477 3.81768 12.0425 3.81739 12.0373 3.8171C12.0309 3.81676 12.0245 3.81643 12.0181 3.81636C12.016 3.81636 12.014 3.81604 12.012 3.81604C12.0099 3.81604 12.0079 3.81633 12.0058 3.81636C11.9994 3.81636 11.993 3.81676 11.9866 3.8171C11.9814 3.81739 11.9762 3.81768 11.971 3.81813C11.9668 3.81847 11.9626 3.81868 11.9585 3.81916C11.9513 3.81993 11.9441 3.82111 11.9369 3.82221C11.9328 3.82284 11.9288 3.82356 11.9249 3.8243L11.9233 3.82456C11.9196 3.82526 11.9157 3.82574 11.912 3.82651C11.9046 3.82807 11.8971 3.83001 11.8897 3.83193C11.8863 3.8328 11.883 3.83376 11.8797 3.83467C11.8769 3.83546 11.8741 3.83618 11.8713 3.83707C11.8697 3.83755 11.8681 3.83788 11.8665 3.83836C11.8593 3.8406 11.8523 3.84316 11.8452 3.84571C11.841 3.8472 11.8369 3.8489 11.8328 3.85051C11.8295 3.8518 11.8262 3.85291 11.8229 3.85432C11.8165 3.85704 11.8095 3.86011 11.8031 3.86311C11.7967 3.86611 11.7902 3.86961 11.7838 3.87297C11.7786 3.87571 11.7732 3.87799 11.7681 3.88094L9.6521 5.0981C9.4191 5.23233 9.33886 5.52992 9.4728 5.76309C9.60885 5.99543 9.90659 6.07491 10.1403 5.94129L11.523 5.14598V6.73718C11.5249 7.00573 11.7431 7.22244 12.0117 7.22244C12.2802 7.22244 12.4984 7.00573 12.5003 6.73718V5.14598L13.8829 5.94129C14.1167 6.07493 14.4144 5.99544 14.5505 5.76309C14.6846 5.53005 14.6046 5.23247 14.3717 5.0981Z" fill="currentColor"/>
</svg>
