<svg width="24" height="24" viewBox="0 0 24 24" fill="currentColor" xmlns="http://www.w3.org/2000/svg">
<path fill-rule="evenodd" clip-rule="evenodd" d="M19.6 20.4H5.2C4.53726 20.4 4 19.8627 4 19.2V4.8C4 4.13726 4.53726 3.6 5.2 3.6H10.6C10.6 3.26863 10.8686 3 11.2 3H13.6C13.9314 3 14.2 3.26863 14.2 3.6H19.6C20.2627 3.6 20.8 4.13726 20.8 4.8V19.2C20.8 19.8627 20.2627 20.4 19.6 20.4ZM4 6H4.6V6.6H4V6ZM20.2 6H20.8V6.6H20.2V6ZM20.2 17.4H20.8V18H20.2V17.4ZM4 17.4H4.6V18H4V17.4ZM12.4 7.8C14.7196 7.8 16.6 9.6804 16.6 12C16.6 14.3196 14.7196 16.2 12.4 16.2C10.0804 16.2 8.2 14.3196 8.2 12C8.2 9.6804 10.0804 7.8 12.4 7.8ZM12.4 9C14.0569 9 15.4 10.3431 15.4 12C15.4 13.6569 14.0569 15 12.4 15C10.7431 15 9.4 13.6569 9.4 12C9.4 10.3431 10.7431 9 12.4 9ZM9.40466 19.199H9.99801C9.99801 16.8809 8.12003 15.0012 5.80199 14.999V15.6029L5.80468 15.6019C7.79194 15.6015 9.4035 17.2117 9.40466 19.199ZM9.40466 19.199C9.4035 17.2117 7.79194 15.6015 5.80468 15.6019L5.80199 15.6029L5.8048 15.603C7.79178 15.6021 9.40337 17.212 9.40466 19.199ZM8.20197 19.199H8.79798C8.79686 17.5445 7.45648 16.2032 5.80199 16.201V16.8006C7.12684 16.8006 8.20108 17.8741 8.20197 19.199ZM6.9977 19.199H7.6018C7.6018 19.1963 7.60202 19.1937 7.60202 19.191C7.60202 18.1969 6.79613 17.391 5.80202 17.391V18.0111C6.45838 18.0134 6.99119 18.5426 6.9977 19.199Z" fill="currentColor"/>
</svg>
