<svg width="24" height="24" viewBox="0 0 24 24" fill="currentColor" xmlns="http://www.w3.org/2000/svg">
<path fill-rule="evenodd" clip-rule="evenodd" d="M13.2 7.19999C13.2 6.53725 12.6627 5.99999 12 5.99999C11.3372 5.99999 10.8 6.53725 10.8 7.19999V12C10.8 12.0338 10.8014 12.0677 10.8043 12.1013C10.8067 12.1286 10.8098 12.1557 10.8139 12.1826C10.8146 12.1862 10.8151 12.1896 10.8156 12.1932C10.8189 12.2138 10.823 12.2347 10.8273 12.2551C10.8317 12.2755 10.8367 12.2952 10.842 12.3151C10.8425 12.3165 10.8429 12.318 10.8432 12.3194C10.8461 12.3293 10.8487 12.3391 10.8518 12.3489C10.8545 12.3581 10.8573 12.3672 10.8602 12.3761C10.8643 12.3883 10.8686 12.4003 10.8729 12.4125C10.8801 12.432 10.8878 12.4514 10.896 12.4706C10.9106 12.5052 10.9269 12.539 10.9449 12.5719C10.9495 12.5803 10.9543 12.5887 10.9591 12.5971C10.9639 12.6055 10.9687 12.6139 10.9737 12.6221C10.9889 12.6465 11.0045 12.6705 11.021 12.6941C11.0376 12.7176 11.0558 12.7411 11.0741 12.7632C11.0803 12.7706 11.0865 12.7778 11.0928 12.7853C11.1115 12.8069 11.1312 12.828 11.1516 12.8484C11.1583 12.8551 11.1653 12.8618 11.1722 12.8685C11.1792 12.8753 11.1861 12.8817 11.1933 12.8882C11.2005 12.8947 11.2075 12.9009 11.2147 12.9072C11.2202 12.9122 11.226 12.917 11.2317 12.9218L11.2368 12.9259L14.1117 15.3218C14.6211 15.7432 15.3753 15.6733 15.7985 15.1655C16.2218 14.6577 16.1546 13.9032 15.6482 13.4781L13.2 11.4379V7.19999ZM10.8337 11.7469C10.8597 11.7136 10.8907 11.6803 10.9257 11.6469C10.8917 11.6797 10.8607 11.713 10.8337 11.7469ZM10.8337 11.7469C10.8597 11.7136 10.8907 11.6803 10.9257 11.6469C10.8917 11.6797 10.8607 11.713 10.8337 11.7469ZM12 1.79999C8.72459 1.79999 5.80984 3.34388 3.9436 5.7436L1.79999 3.59999V8.26664H1.80752C1.80256 8.31092 1.79999 8.35543 1.79999 8.39999C1.79968 8.74156 1.94508 9.06704 2.19968 9.29474C2.45428 9.52243 2.79392 9.63072 3.13333 9.59243V9.59999H7.79999L5.65792 7.45792C6.49665 6.2894 7.6406 5.37404 8.96461 4.81199C12.1384 3.46766 15.8182 4.3625 18.0203 7.01412C20.2224 9.66574 20.4262 13.4473 18.5218 16.3202C16.6175 19.1931 13.0552 20.4783 9.75529 19.4829C6.45538 18.4874 4.19798 15.4468 4.19999 12V11.4C4.19999 11.0686 3.93136 10.8 3.59999 10.8H2.39999C2.06862 10.8 1.79999 11.0686 1.79999 11.4V12C1.79999 17.6333 6.36668 22.2 12 22.2C17.6333 22.2 22.2 17.6333 22.2 12C22.2 6.36668 17.6333 1.79999 12 1.79999Z" fill="currentColor"/>
</svg>
