<svg width="24" height="24" viewBox="0 0 24 24" fill="currentColor" xmlns="http://www.w3.org/2000/svg">
<path fill-rule="evenodd" clip-rule="evenodd" d="M17.5364 20.8636L13.7971 17.1244L12.5243 18.3972L16.2635 22.1365C16.615 22.4877 17.1846 22.4875 17.5359 22.1362C17.8872 21.7848 17.8875 21.2151 17.5364 20.8636ZM19.9 11H19V2.9C19 2.40294 18.5971 2 18.1 2C17.6029 2 17.2 2.40294 17.2 2.9V3.2H7.6V2.9C7.6 2.40294 7.19706 2 6.7 2C6.46131 2 6.23239 2.09482 6.0636 2.2636C5.89482 2.43239 5.8 2.66131 5.8 2.9V11H4.9C4.40294 11 4 11.4029 4 11.9C4 12.3971 4.40294 12.8 4.9 12.8H6.92721L10.4029 16.2757L11.6757 15.0029L9.47279 12.8H14.7272L6.66359 20.8636C6.43601 21.0909 6.34706 21.4224 6.43025 21.7331C6.51344 22.0438 6.75614 22.2865 7.06685 22.3697C7.37757 22.4529 7.70906 22.364 7.93638 22.1364L17.2728 12.8H19.9C20.3971 12.8 20.8 12.3971 20.8 11.9C20.8 11.4029 20.3971 11 19.9 11ZM11.8967 4.84681L12.4 3.8L12.9033 4.84681L14.1112 5.048L13.2053 5.85325L13.5073 7.06107L12.4 6.45726L11.2928 7.06117L11.5948 5.85334L10.6888 5.048L11.8967 4.84681ZM17.2 8V11H7.6V8H17.2Z" fill="currentColor"/>
</svg>
