<svg width="24" height="24" viewBox="0 0 24 24" fill="currentColor" xmlns="http://www.w3.org/2000/svg">
<path fill-rule="evenodd" clip-rule="evenodd" d="M21.0525 12.9919C21.1507 12.5344 21.2001 12.0679 21.2 11.6C21.2 7.95496 18.2451 5 14.6 5C12.601 4.99824 10.7094 5.90432 9.4579 7.46305C8.70356 7.29717 7.91428 7.46207 7.28945 7.9161C6.66462 8.37013 6.26398 9.06987 6.18874 9.83857C3.8264 10.1389 2 12.1562 2 14.6C2 17.251 4.14903 19.4 6.8 19.4H18.8C20.328 19.4 21.6895 18.4354 22.1962 16.9938C22.7029 15.5523 22.2444 13.948 21.0525 12.9919ZM16.928 11.6H16.712V10.568C16.712 9.58033 15.8901 8.76801 14.9001 8.76801C13.9101 8.76801 13.112 9.58033 13.112 10.568V11.6H12.2V15.728C12.2003 15.9067 12.2716 16.0779 12.3983 16.204C12.5249 16.33 12.6964 16.4005 12.8751 16.4H17.6001V12.2635C17.6001 12.086 17.5291 11.9159 17.4028 11.7912C17.2765 11.6665 17.1055 11.5977 16.928 11.6ZM15.2291 14.0459L15.344 15.2H14.456L14.5712 14.0459C14.3028 13.8961 14.1695 13.584 14.2469 13.2865C14.3243 12.9891 14.5928 12.7815 14.9001 12.7815C15.2075 12.7815 15.476 12.9891 15.5534 13.2865C15.6308 13.584 15.4974 13.8961 15.2291 14.0459ZM16.04 11.6H13.784V10.568C13.7802 10.1137 14.0519 9.70229 14.4712 9.52746C14.8906 9.35263 15.3741 9.44918 15.6941 9.77169C15.9076 9.98466 16.04 10.2702 16.04 10.568V11.6Z" fill="currentColor"/>
</svg>
