<svg width="24" height="24" viewBox="0 0 24 24" fill="currentColor" xmlns="http://www.w3.org/2000/svg">
<path fill-rule="evenodd" clip-rule="evenodd" d="M21.3001 10.2001H16.8001V17.4001C16.8001 20.051 14.651 22.2001 12.0001 22.2001C9.34911 22.2001 7.20007 20.051 7.20007 17.4001V10.2001H2.70007L10.5001 2.42996C10.895 2.02669 11.4356 1.80005 12.0001 1.80005C12.5645 1.80005 13.1052 2.02732 13.5001 2.43058L21.3001 10.2001ZM15.6 17.4003C15.6 19.3885 13.9882 21.0003 12 21.0003C10.0117 21.0003 8.39995 19.3885 8.39995 17.4003C8.39995 15.412 10.0117 13.8003 12 13.8003C13.9882 13.8003 15.6 15.412 15.6 17.4003ZM13.406 18.9448H11.232C11.488 18.5831 11.5862 18.2506 11.5812 17.686L11.5771 17.3775H12.3446C12.5468 17.3775 12.6726 17.2529 12.6726 17.0459C12.6726 16.8328 12.553 16.7144 12.3446 16.7144H11.5665L11.5804 16.0925V16.0633C11.5804 15.5857 11.7967 15.3225 12.2159 15.3225C12.5364 15.3225 12.7268 15.4521 12.8305 15.7303C12.8915 15.8952 13.0186 15.9862 13.195 15.9862C13.2447 15.9862 13.2941 15.9782 13.3414 15.9626C13.5168 15.9133 13.6334 15.7689 13.6334 15.602C13.6326 15.5481 13.6212 15.4949 13.5998 15.4454L13.5991 15.4444L13.5986 15.4434C13.3492 14.8713 12.9192 14.6162 12.1982 14.6162C11.2698 14.6162 10.74 15.1279 10.74 16.0202V16.096L10.7374 16.1056L10.7544 16.7145H10.4126C10.2206 16.7145 10.0966 16.8423 10.0966 17.0461C10.0966 17.253 10.2177 17.3776 10.4126 17.3776H10.7857L10.8002 17.6672V17.766C10.8002 18.3974 10.6288 18.6307 10.3178 18.8375C10.1634 18.9248 10.0802 19.0561 10.0802 19.2199C10.0802 19.4455 10.2217 19.608 10.4186 19.608H13.4059C13.6063 19.608 13.7517 19.4896 13.7517 19.2675C13.7517 19.0522 13.6097 18.9448 13.406 18.9448Z" fill="currentColor"/>
</svg>
