<svg width="24" height="24" viewBox="0 0 24 24" fill="currentColor" xmlns="http://www.w3.org/2000/svg">
<path fill-rule="evenodd" clip-rule="evenodd" d="M21.4 6.2H21.2332L9.8032 2.01826C9.77016 2.00605 9.73522 2 9.7 2H5.5C5.42041 2 5.34407 2.03152 5.28786 2.08786L1.08786 6.28786C1.03152 6.34407 1 6.42041 1 6.5V8.3C1 8.46569 1.13431 8.6 1.3 8.6H5.2V20H4C3.66863 20 3.4 20.2686 3.4 20.6V23H11.8V20.6C11.8 20.2686 11.5314 20 11.2 20H10V8.6H19V11.6H19.6V8.6H20.8V11.6H21.4V8.6C22.0627 8.6 22.6 8.06274 22.6 7.4C22.6 6.73726 22.0627 6.2 21.4 6.2ZM6.4 12.8H8.4628L6.4 14.519V12.8ZM6.4 17H8.4628L6.4 18.719V17ZM8.8 18.281V20H6.73722L8.8 18.281ZM8.8 15.8H6.73722L8.8 14.081V15.8ZM8.8 11.6H6.73722L8.8 9.88102V11.6ZM6.73722 6.2L8.8 4.48102V6.2H6.73722ZM10 2.72922L19.4868 6.2H10V2.72922ZM8.4628 3.2L6.4 4.919V3.2H8.4628ZM2.02427 6.2L5.2 3.02427V6.2H2.02427ZM8.4628 8.6L6.4 10.319V8.6H8.4628ZM21.7072 12.2H18.6895C18.4222 12.2 18.3124 12.4767 18.4774 12.7121L19.6 14.3369V15.2C19.6 15.5314 19.8686 15.8 20.2 15.8C20.5314 15.8 20.8 16.0686 20.8 16.4C20.8 16.7314 20.5314 17 20.2 17C19.8686 17 19.6 16.7314 19.6 16.4C19.6 16.2343 19.4657 16.1 19.3 16.1C19.1343 16.1 19 16.2343 19 16.4C18.9999 16.9824 19.418 17.4807 19.9915 17.5819C20.565 17.6831 21.1284 17.3579 21.3276 16.8107C21.5268 16.2634 21.3044 15.6521 20.8 15.3609V14.3305L21.9213 12.7153C22.0912 12.5037 21.9745 12.2 21.7072 12.2Z" fill="currentColor"/>
</svg>
