<svg width="24" height="24" viewBox="0 0 24 24" fill="currentColor" xmlns="http://www.w3.org/2000/svg">
<path fill-rule="evenodd" clip-rule="evenodd" d="M6.23616 10.6603C6.51926 10.6404 6.79723 10.5745 7.05912 10.4652C7.30421 10.3647 7.5201 10.2043 7.68694 9.99855C7.85076 9.79494 7.93277 9.52345 7.93296 9.18409C7.93296 8.67505 7.76328 8.28479 7.42392 8.0133C7.09327 7.74484 6.679 7.60074 6.25313 7.60607C5.64228 7.60607 5.18132 7.80687 4.87025 8.20847C4.55918 8.61007 4.40929 9.1163 4.42058 9.72716H2.1299C2.15243 9.11631 2.26272 8.5592 2.46077 8.05583C2.64677 7.57111 2.92968 7.12942 3.2922 6.75776C3.65565 6.39108 4.09212 6.10489 4.5733 5.91776C5.0709 5.71999 5.62518 5.621 6.23616 5.62081C6.71904 5.62201 7.19917 5.69345 7.66147 5.8329C8.12274 5.96765 8.55648 6.18309 8.94257 6.46921C9.3178 6.74796 9.63243 7.10011 9.86731 7.50426C10.1049 7.91149 10.2236 8.38094 10.2236 8.9126C10.2236 9.48951 10.0851 9.99855 9.80791 10.4397C9.53076 10.8809 9.11506 11.1807 8.56082 11.339V11.373C9.21682 11.5202 9.73152 11.8369 10.1049 12.3232C10.4783 12.8094 10.665 13.392 10.6649 14.0709C10.6649 14.6931 10.5433 15.2474 10.3001 15.7337C10.0674 16.2069 9.73444 16.6238 9.32441 16.9553C8.90551 17.2897 8.42788 17.5429 7.91606 17.7019C7.37834 17.8725 6.81734 17.9584 6.2532 17.9565C5.58562 17.9565 4.97762 17.8603 4.4292 17.668C3.8804 17.4758 3.41378 17.1958 3.02935 16.828C2.64457 16.4606 2.34759 16.0111 2.13842 15.4792C1.92897 14.9476 1.82998 14.3368 1.84147 13.6467H4.13215C4.14182 13.9548 4.1932 14.2602 4.28486 14.5545C4.36636 14.8259 4.49884 15.0793 4.67522 15.301C4.84779 15.5127 5.06504 15.6837 5.31142 15.8016C5.56591 15.9262 5.8685 15.9884 6.21919 15.9882C6.76217 15.9882 7.2203 15.8214 7.5936 15.4877C7.9669 15.154 8.15354 14.6987 8.15354 14.1217C8.15354 13.6694 8.06588 13.3244 7.89055 13.0867C7.72104 12.8538 7.48849 12.6742 7.2203 12.5691C6.93549 12.4589 6.63459 12.3959 6.32947 12.3825C6.0071 12.3655 5.69886 12.357 5.40473 12.3571V10.6603C5.6814 10.6831 5.95948 10.6831 6.23616 10.6603ZM18.6398 17.6426C18.0629 17.8858 17.4803 18.0074 16.8921 18.0074C15.9644 18.0074 15.1301 17.8462 14.3893 17.5238C13.6484 17.2015 13.0234 16.7575 12.5143 16.1919C12.0053 15.6263 11.615 14.9618 11.3435 14.1981C11.072 13.4345 10.9363 12.6115 10.9363 11.7293C10.9363 10.8244 11.072 9.98451 11.3435 9.20953C11.615 8.43486 12.0053 7.75897 12.5143 7.18187C13.0234 6.60476 13.6483 6.15228 14.3893 5.82443C15.1301 5.49643 15.9643 5.33241 16.8921 5.33241C17.5053 5.33107 18.115 5.42553 18.6991 5.61239C19.2691 5.79256 19.8032 6.07108 20.2772 6.43535C20.7495 6.80086 21.1446 7.25649 21.4395 7.77582C21.7449 8.30766 21.9316 8.91851 21.9994 9.60836H19.4542C19.2957 8.92964 18.9903 8.4206 18.538 8.08124C18.0854 7.74188 17.5368 7.5722 16.8921 7.5722C16.2924 7.5722 15.7833 7.68815 15.3649 7.92003C14.955 8.14403 14.6056 8.46431 14.3469 8.8533C14.0865 9.24354 13.897 9.68754 13.7784 10.1853C13.6587 10.6912 13.5989 11.2095 13.6003 11.7294C13.5992 12.2297 13.659 12.7282 13.7784 13.2141C13.8892 13.6771 14.0817 14.1167 14.3469 14.5121C14.6074 14.8973 14.9565 15.2144 15.3649 15.4369C15.7833 15.6689 16.2924 15.7848 16.8921 15.7847C17.7744 15.7847 18.4559 15.5613 18.9367 15.1145C19.4174 14.6677 19.6974 14.0201 19.7767 13.1717H17.0957V11.1864H22.1861V17.736H20.4893L20.2178 16.3616C19.7427 16.9724 19.2167 17.3994 18.6398 17.6426Z" fill="currentColor"/>
</svg>
