<svg width="24" height="24" viewBox="0 0 24 24" fill="currentColor" xmlns="http://www.w3.org/2000/svg">
<path fill-rule="evenodd" clip-rule="evenodd" d="M12 4.17598C15.9889 4.18275 19.3244 7.20964 19.7172 11.1792C20.11 15.1488 17.4324 18.7707 13.5222 19.5591C9.61191 20.3475 5.74005 18.0461 4.56398 14.2344C3.38791 10.4228 5.28993 6.33991 8.96461 4.788C9.92493 4.38187 10.9573 4.17372 12 4.17598ZM12 1.776C6.36668 1.776 1.79999 6.34267 1.79999 11.976C1.79999 17.6093 6.36668 22.176 12 22.176C17.6333 22.176 22.2 17.6093 22.2 11.976C22.2 6.3427 17.6333 1.776 12 1.776ZM17.0812 11.252L16.6241 9.94848C16.5835 9.83164 16.4973 9.73623 16.3852 9.68402C16.273 9.6318 16.1445 9.62722 16.0289 9.67133L13.1675 10.7567V7.67006C13.1669 7.41067 12.9568 7.20051 12.6975 7.19967H11.3613C11.1019 7.20044 10.8918 7.41062 10.8911 7.67006V10.7567L8.1136 9.67538C7.99882 9.63008 7.87053 9.63362 7.75843 9.68518C7.64633 9.73674 7.56015 9.83185 7.51986 9.94848L7.06276 11.252C7.02174 11.3692 7.02935 11.4979 7.08388 11.6095C7.13841 11.721 7.23532 11.8061 7.35299 11.8457L10.2081 12.8057L8.3858 15.2189C8.311 15.3179 8.27905 15.4427 8.29712 15.5655C8.3152 15.6882 8.38178 15.7986 8.48195 15.8718L9.62929 16.7109C9.72854 16.7843 9.85344 16.8138 9.97503 16.7928C10.0966 16.7718 10.2043 16.702 10.2732 16.5997L12.001 14.0575L13.8323 16.6067C13.9047 16.7075 14.0145 16.775 14.137 16.7941C14.2596 16.8132 14.3847 16.7823 14.4843 16.7083L15.6072 15.8745C15.7069 15.8003 15.7729 15.6893 15.7905 15.5663C15.8082 15.4432 15.776 15.3182 15.7012 15.219L13.879 12.8058L16.7902 11.8434C16.908 11.8046 17.0052 11.7201 17.0599 11.6088C17.1147 11.4976 17.1223 11.369 17.0812 11.252Z" fill="currentColor"/>
</svg>
