<svg width="24" height="24" viewBox="0 0 24 24" fill="currentColor" xmlns="http://www.w3.org/2000/svg">
<path fill-rule="evenodd" clip-rule="evenodd" d="M19.608 14.256L18.6288 12.5006C19.2912 11.1856 19.246 9.62521 18.5086 8.35072L17.6349 6.83759L16.5426 4.94639C16.3867 4.67646 16.0986 4.51021 15.7869 4.51026C15.4752 4.5103 15.1872 4.67665 15.0313 4.94662C14.8755 5.2166 14.8756 5.5492 15.0315 5.81913L16.1238 7.71033L16.1197 7.71273C16.1632 7.81369 16.1243 7.93126 16.029 7.98625C15.9338 8.04125 15.8125 8.01624 15.7468 7.92808L15.7405 7.91894C15.7378 7.91486 15.735 7.91082 15.7325 7.9065C15.73 7.90218 15.7279 7.89777 15.7258 7.8934L15.0907 6.7937L12.5784 2.44401C12.4621 2.24034 12.2457 2.11451 12.0111 2.11417C11.7766 2.11383 11.5598 2.23904 11.4429 2.44237C11.326 2.64569 11.3268 2.89604 11.4451 3.09856L13.9574 7.44837C13.9961 7.51548 13.996 7.59818 13.9573 7.66531C13.9185 7.73243 13.8469 7.77379 13.7694 7.7738C13.6919 7.77381 13.6203 7.73247 13.5815 7.66535L13.5796 7.66643L10.6305 2.56022C10.4497 2.24726 10.0495 2.14009 9.73656 2.32083C9.42361 2.50157 9.31643 2.90179 9.49717 3.21474L12.4464 8.32108L12.4453 8.32173C12.4455 8.32216 12.4458 8.32252 12.4461 8.32295C12.4848 8.39008 12.4848 8.47277 12.446 8.53989C12.4073 8.60701 12.3357 8.64835 12.2582 8.64835C12.1806 8.64834 12.109 8.60699 12.0703 8.53986C12.0701 8.53948 12.0699 8.53905 12.0697 8.53864L12.0686 8.53926L9.55631 4.18946C9.43979 3.98621 9.2235 3.86076 8.98922 3.86055C8.75494 3.86033 8.53842 3.98538 8.42153 4.18842C8.30464 4.39145 8.30521 4.64149 8.42303 4.84398L10.9353 9.19377L11.3722 9.95039L11.3684 9.95262C11.3731 9.95901 11.3775 9.96566 11.3814 9.97254C11.4203 10.0397 11.4203 10.1224 11.3816 10.1896C11.3428 10.2568 11.2711 10.2981 11.1936 10.2981C11.116 10.2981 11.0444 10.2567 11.0057 10.1895C11.0017 10.1826 10.9982 10.1755 10.995 10.1683L10.9937 10.169L9.35605 7.33161C9.23929 7.12883 9.02314 7.00382 8.78914 7.00375C8.55515 7.00368 8.33893 7.12856 8.22205 7.33128C8.10517 7.53399 8.10543 7.78369 8.22272 7.98616L9.86113 10.823L10.704 12.288H13.848C16.4527 12.288 17.712 14.256 17.712 14.256H19.608ZM19.32 14.856H17.352C16.5713 13.6688 15.2563 12.8878 13.728 12.888H9.76799C9.53783 12.8868 9.31675 12.9777 9.15403 13.1405C8.99131 13.3032 8.90049 13.5244 8.9018 13.7545C8.90185 14.2364 9.28559 14.64 9.76799 14.64H11.976C12.0838 14.6527 12.1512 14.7355 12.1512 14.8466C12.1511 14.9565 12.0689 15.0489 11.9598 15.0619L11.952 15.072C11.9472 15.0723 11.933 15.072 11.928 15.072C11.923 15.072 11.9088 15.0723 11.904 15.072H5.61599C5.25811 15.072 4.96799 15.3621 4.96799 15.72C4.96799 16.0779 5.25811 16.368 5.61599 16.368H10.656C10.7753 16.368 10.872 16.4647 10.872 16.584C10.872 16.7033 10.7753 16.8 10.656 16.8H4.84799C4.48616 16.8 4.19997 17.1106 4.19997 17.472C4.1987 17.6442 4.26655 17.8098 4.38836 17.9316C4.51016 18.0534 4.67573 18.1213 4.84799 18.12L10.6497 18.1167V18.118C10.6502 18.118 10.6506 18.118 10.6511 18.118C10.7296 18.1165 10.8027 18.1576 10.8423 18.2253C10.882 18.293 10.882 18.3768 10.8423 18.4446C10.8027 18.5123 10.7296 18.5533 10.6511 18.5519C10.6507 18.5519 10.6502 18.5519 10.6497 18.5519V18.5531C10.6497 18.5531 5.648 18.5508 5.63999 18.552C5.27799 18.552 4.96799 18.8386 4.96799 19.2C4.96799 19.5614 5.25414 19.872 5.61599 19.872H11.52C11.5996 19.8634 11.6775 19.8995 11.7224 19.9657C11.7674 20.032 11.7722 20.1176 11.7348 20.1884C11.6974 20.2593 11.6241 20.3037 11.544 20.304C11.5359 20.304 11.5038 20.3049 11.496 20.304H8.25599C7.89411 20.304 7.58399 20.5906 7.58399 20.952C7.58399 21.3134 7.89416 21.6 8.25599 21.6H13.704C15.1566 21.6044 16.5158 20.8843 17.328 19.68L19.3236 19.677C19.4504 19.6781 19.5723 19.6281 19.6619 19.5384C19.7514 19.4487 19.8012 19.3268 19.8 19.2V15.36C19.8014 15.387 19.8 15.3408 19.8 15.336C19.8006 15.2085 19.7501 15.0861 19.66 14.996C19.5698 14.9059 19.4474 14.8555 19.32 14.856Z" fill="currentColor"/>
</svg>
