<svg width="24" height="24" viewBox="0 0 24 24" fill="currentColor" xmlns="http://www.w3.org/2000/svg">
<path fill-rule="evenodd" clip-rule="evenodd" d="M19.9621 4.44697C17.7698 2.25495 14.2237 2.24216 12.015 4.40785C9.80642 2.24216 6.26034 2.25505 4.06799 4.44697C1.89837 6.61628 1.86304 10.1114 3.96184 12.3239L12.015 21.2022L20.0683 12.324C22.167 10.1114 22.1317 6.61628 19.9621 4.44697ZM12.015 6.05552C13.5332 6.0558 14.7637 7.28666 14.7635 8.80479C14.7633 10.3229 13.5325 11.5535 12.0144 11.5534C10.4962 11.5533 9.2656 10.3226 9.2656 8.80446C9.26575 7.28613 10.4967 6.05539 12.015 6.05552ZM16.2156 14.9605L12.036 19.5922L7.81444 14.8885V14.3023C7.84153 13.0719 8.52567 11.95 9.60638 11.3612C10.9593 12.6357 13.0709 12.6357 14.4238 11.3612C15.5286 11.9631 16.2159 13.1207 16.2156 14.3788V14.9605Z" fill="currentColor"/>
</svg>
