<svg width="24" height="24" viewBox="0 0 24 24" fill="currentColor" xmlns="http://www.w3.org/2000/svg">
<path fill-rule="evenodd" clip-rule="evenodd" d="M13.7999 3.64798C13.3538 3.11555 12.6945 2.80798 11.9999 2.80798C11.3053 2.80798 10.6463 3.11555 10.2001 3.64798L9.0407 4.79998H5.9999V7.82213L2.3999 11.4H5.9999V18.6C5.9999 19.5941 6.80579 20.4 7.7999 20.4H16.1999C17.194 20.4 17.9999 19.5941 17.9999 18.6V11.4H21.5999L13.7999 3.64798ZM11.9615 16.128C11.6433 16.128 11.3382 16.0015 11.1132 15.7765C10.8883 15.5515 10.7619 15.2464 10.7619 14.9282C10.7619 14.2656 11.299 13.7525 11.9615 13.7525C12.624 13.7525 13.1611 14.2656 13.1611 14.9282C13.1611 15.2464 13.0347 15.5515 12.8098 15.7765C12.5848 16.0015 12.2797 16.128 11.9615 16.128ZM13.2371 13.5723C12.4932 12.9538 11.4111 12.9643 10.6794 13.5971L10.1149 12.9706C11.1653 12.0598 12.7211 12.0447 13.789 12.9349L13.2371 13.5723ZM14.3497 12.3025C12.9592 11.146 10.9359 11.1657 9.5681 12.3491L9.00182 11.7207C10.6901 10.2612 13.1864 10.2375 14.9021 11.6647L14.3497 12.3025ZM15.5528 11.0965C13.4611 9.36099 10.4218 9.38983 8.36345 11.1648L7.7999 10.5389C10.1761 8.48516 13.6893 8.45191 16.1039 10.4603L15.5528 11.0965Z" fill="currentColor"/>
</svg>
