<svg width="24" height="24" viewBox="0 0 24 24" fill="currentColor" xmlns="http://www.w3.org/2000/svg">
<path fill-rule="evenodd" clip-rule="evenodd" d="M13.8 6.59809H10.2C8.22001 6.59809 6.60001 9.41843 6.60001 11.3987V19.7997C6.60001 21.1198 7.68001 22.2 9.00001 22.2H15C16.32 22.2 17.4 21.1198 17.4 19.7997V11.3987C17.4 9.41843 15.78 6.59809 13.8 6.59809ZM10.6014 7.82466H13.4014C14.9414 7.82466 16.2014 9.88448 16.2014 11.4247V12.6288C16.0935 12.5553 15.982 12.4875 15.8671 12.4256C15.3062 12.1418 14.6761 12.0237 14.0505 12.085C13.8769 11.6334 13.2995 11.3821 12.7602 11.7751C12.5394 12.0452 12.4943 12.3201 12.5516 12.5547C12.3626 12.656 12.1799 12.7686 12.0044 12.8919C8.84705 15.1023 7.80149 12.7611 7.80149 12.7611V11.4247C7.8014 9.88448 9.0614 7.82466 10.6014 7.82466ZM13.8014 16.8244V18.0245H12.6014V19.2247H11.4014V18.0245H10.2014V16.8244H11.4014V15.6242H12.6014V16.8244H13.8014ZM13.8 4.79785C13.799 4.46689 13.531 4.19884 13.2 4.19785H10.8C10.469 4.19884 10.201 4.46689 10.2 4.79785V5.99802H13.8V4.79785ZM13.2 3.08835C13.2 2.92695 13.2705 2.77358 13.3929 2.66843C13.5154 2.56329 13.6776 2.51685 13.8372 2.54127L15.8648 2.85188C16.0219 2.87546 16.1685 2.76774 16.193 2.61078L16.1967 2.58704C16.2203 2.42992 16.1126 2.28324 15.9556 2.25872C15.9556 2.25872 14.1354 1.89152 12.9665 1.80083C12.5609 1.77599 11.4 1.79759 11.4 1.79759C11.069 1.79858 10.801 2.06663 10.8 2.39759V3.59773H13.2V3.08835ZM10.5014 9.62468C10.0043 9.62468 9.6014 10.0276 9.6014 10.5247C9.6014 11.0217 10.0043 11.4247 10.5014 11.4247C10.9985 11.4247 11.4014 11.0217 11.4014 10.5247C11.4014 10.286 11.3066 10.0571 11.1378 9.88829C10.969 9.7195 10.7401 9.62468 10.5014 9.62468ZM12.6014 8.42468C12.27 8.42468 12.0014 8.69331 12.0014 9.02468C12.0014 9.35605 12.27 9.62468 12.6014 9.62468C12.9328 9.62468 13.2014 9.35605 13.2014 9.02468C13.2014 8.86555 13.1382 8.71293 13.0257 8.6004C12.9131 8.48788 12.7605 8.42468 12.6014 8.42468Z" fill="currentColor"/>
</svg>
