<svg width="24" height="24" viewBox="0 0 24 24" fill="currentColor" xmlns="http://www.w3.org/2000/svg">
<path fill-rule="evenodd" clip-rule="evenodd" d="M19.8678 6.05599L16.9731 9.91546L19.6946 18.0797C19.834 18.3358 19.7952 18.6522 19.5981 18.8669L19.5976 18.8695L19.5784 18.8888L18.4205 20.0466L14.1056 12.804L8.77174 17.152L10.1372 20.3381C10.1372 20.3381 10.137 20.3396 10.1365 20.3422C10.178 20.464 10.1474 20.5987 10.0573 20.6906C10.0575 20.6905 10.0572 20.6908 10.0573 20.6906L10.0551 20.6931L9.73668 21.0115L2.9826 14.2574L3.29979 13.9402C3.30017 13.9398 3.30063 13.9394 3.30101 13.939C3.39924 13.8408 3.54722 13.812 3.67512 13.8662L3.67697 13.8658L6.842 15.2222L11.1733 9.90903L3.9667 5.55425L5.10524 4.41571C5.28103 4.23989 5.53858 4.17368 5.77738 4.24291L5.78065 4.24207L14.0785 7.02087L17.938 4.12625C18.9841 3.33444 20.2222 2.74013 20.7558 3.09934C20.7617 3.10323 20.7675 3.10716 20.7732 3.11134C20.7797 3.11614 20.7861 3.12094 20.7924 3.12591C20.8207 3.14794 20.8462 3.17341 20.8682 3.20175C20.8732 3.20794 20.8778 3.21432 20.8826 3.22073C20.8868 3.22659 20.8909 3.23259 20.8949 3.23863C21.2534 3.77223 20.6569 5.00983 19.8678 6.05599Z" fill="currentColor"/>
</svg>
