<svg width="24" height="24" viewBox="0 0 24 24" fill="currentColor" xmlns="http://www.w3.org/2000/svg">
<path fill-rule="evenodd" clip-rule="evenodd" d="M21.0085 15.7287L18.5994 13.8011V15.0017H16.489C17.0838 14.1139 17.4006 13.0689 17.3989 12.0002V5.3967H18.5994L16.6792 2.9961C16.5624 2.85004 16.3855 2.76501 16.1985 2.76501C16.0115 2.76501 15.8346 2.85004 15.7178 2.9961L13.7976 5.3967H14.998V7.50741C14.1104 6.91252 13.0655 6.59568 11.9969 6.59733H5.3945V5.3967L2.99798 7.3143C2.85104 7.43187 2.7655 7.60985 2.7655 7.79803C2.7655 7.98622 2.85104 8.1642 2.99798 8.28177L5.3945 10.1994V8.9986H7.50482C6.91 9.88649 6.59322 10.9315 6.59488 12.0002V18.6036H5.3945L7.31406 21.0035C7.43103 21.1497 7.60813 21.2348 7.7954 21.2348C7.98266 21.2348 8.15977 21.1497 8.27673 21.0035L10.1963 18.6036H8.99584V16.4929C9.88353 17.0878 10.9284 17.4047 11.9969 17.403H18.5993V18.6036L21.0085 16.6761C21.1523 16.5609 21.2361 16.3867 21.2361 16.2024C21.2361 16.0181 21.1524 15.8439 21.0085 15.7287ZM11.9969 8.9986C10.7829 8.9984 9.68824 9.72959 9.2235 10.8512C8.75876 11.9728 9.01545 13.2639 9.87385 14.1225C10.7323 14.981 12.0233 15.2379 13.145 14.7733C14.2667 14.3088 14.998 13.2143 14.998 12.0002C14.9981 11.2042 14.682 10.4407 14.1191 9.87784C13.5563 9.31493 12.793 8.99866 11.9969 8.9986ZM13.3304 13.5126C13.1753 13.7096 12.9757 13.867 12.7481 13.972C12.5135 14.0802 12.2583 14.1361 12 14.136C11.7938 14.1369 11.5892 14.0994 11.3968 14.0254C11.2049 13.9552 11.028 13.8495 10.8752 13.7139C10.5645 13.436 10.3884 13.038 10.3918 12.6212V10.7247C10.3879 10.6015 10.4289 10.4811 10.507 10.3857C10.5838 10.294 10.689 10.2481 10.8226 10.2481C10.9544 10.2481 11.0581 10.294 11.1335 10.3857C11.2133 10.4819 11.2567 10.6031 11.256 10.728V12.504C11.256 12.7432 11.3063 12.9293 11.4254 13.0744C11.4963 13.1586 11.5866 13.2241 11.6886 13.2655C11.7958 13.3107 11.8918 13.3475 12 13.344C12.121 13.3381 12.2397 13.3084 12.3492 13.2566C12.4546 13.2088 12.5459 13.1348 12.6144 13.0416C12.7226 12.8992 12.768 12.6919 12.768 12.408V10.728C12.7672 10.6029 12.8109 10.4816 12.8913 10.3857C12.9676 10.294 13.0713 10.2481 13.2022 10.2481C13.334 10.2481 13.4386 10.294 13.5158 10.3857C13.5943 10.4809 13.6355 10.6014 13.6318 10.7247V12.4021C13.6352 12.6104 13.6153 12.8185 13.5724 13.0224C13.5287 13.2016 13.4461 13.369 13.3304 13.5126Z" fill="currentColor"/>
</svg>
