<svg width="24" height="24" viewBox="0 0 24 24" fill="currentColor" xmlns="http://www.w3.org/2000/svg">
<path fill-rule="evenodd" clip-rule="evenodd" d="M16.9614 16.8083C14.0761 19.1972 9.89994 19.1972 7.0147 16.8083L4.97497 19.2971C4.60803 20.0922 5.18883 21 6.06437 21H17.9117C18.7873 21 19.368 20.0922 19.0011 19.2971L16.9614 16.8083ZM11.988 3.59998C8.01214 3.59998 4.78906 6.82354 4.78906 10.8C4.78906 14.7764 8.01214 18 11.988 18C15.9639 18 19.187 14.7764 19.187 10.8C19.187 6.82351 15.9639 3.59998 11.988 3.59998ZM11.988 13.8C10.7746 13.8002 9.68056 13.0693 9.21608 11.9483C8.7516 10.8273 9.00817 9.53689 9.86613 8.67881C10.7241 7.82072 12.0145 7.56398 13.1355 8.0283C14.2566 8.49261 14.9876 9.58655 14.9876 10.8C14.9876 11.5956 14.6717 12.3586 14.1091 12.9212C13.5466 13.4838 12.7836 13.8 11.988 13.8ZM11.988 8.99998C11.8596 9.00003 11.7316 9.01378 11.6061 9.04099C11.9075 9.15846 12.0615 9.49372 11.9543 9.79892C11.8471 10.1041 11.5172 10.2694 11.2085 10.1725C10.8999 10.0756 10.7236 9.75154 10.81 9.4398C10.1524 10.01 9.99724 10.9692 10.4416 11.7177C10.886 12.4661 11.8025 12.7891 12.6179 12.4846C13.4333 12.1802 13.9139 11.3356 13.7591 10.4791C13.6042 9.62256 12.8584 8.99969 11.988 8.99998Z" fill="currentColor"/>
</svg>
