<svg width="24" height="24" viewBox="0 0 24 24" fill="currentColor" xmlns="http://www.w3.org/2000/svg">
<path fill-rule="evenodd" clip-rule="evenodd" d="M22.4304 17.1107C22.2262 16.6002 21.8517 16.1762 21.3704 15.9105L12.6999 11.0377V10.0919C12.6999 9.5787 12.5531 9.07625 12.2766 8.64394C12.002 8.2144 11.6128 7.87023 11.1529 7.65034C10.6257 7.39632 10.2932 6.85999 10.3002 6.27478C10.3114 5.47078 10.9745 4.80771 11.7783 4.79638C12.1798 4.7906 12.5669 4.94608 12.8529 5.22801C13.1389 5.50994 13.2999 5.89478 13.2999 6.29638C13.2999 6.79344 13.7028 7.19638 14.1999 7.19638C14.6969 7.19638 15.0999 6.79344 15.0999 6.29638C15.098 4.48443 13.6353 3.01299 11.8234 3.00008C10.0115 2.98734 8.52823 4.43794 8.50065 6.24968C8.48524 7.5361 9.21606 8.71509 10.3751 9.27353C10.6941 9.42122 10.8988 9.74022 10.9001 10.0918V11.0376L2.22945 15.9105C1.27507 16.4363 0.800795 17.544 1.07892 18.5976C1.35822 19.6648 2.32654 20.406 3.42962 20.3971H20.1702C21.2733 20.4059 22.2416 19.6647 22.5209 18.5976C22.6517 18.1051 22.6199 17.5836 22.4304 17.1107ZM20.1702 18.597H3.42962C2.78978 18.597 2.55969 17.7897 3.11119 17.4798L11.7999 12.5968L20.4887 17.4798C21.0403 17.7897 20.8101 18.597 20.1702 18.597Z" fill="currentColor"/>
</svg>
