<svg width="24" height="24" viewBox="0 0 24 24" fill="currentColor" xmlns="http://www.w3.org/2000/svg">
<path fill-rule="evenodd" clip-rule="evenodd" d="M19.7967 1.80005H11.9952C6.36191 1.80005 1.79944 6.36547 1.79944 11.9988C1.79944 17.6321 6.36501 22.2001 11.9983 22.2001C17.6316 22.2001 22.199 17.6334 22.199 12L22.1982 4.20005C22.1975 2.87426 21.1224 1.80005 19.7967 1.80005ZM15.1733 18.8882C14.3399 19.7247 11.2347 18.9322 8.16503 15.8527C5.09603 12.7725 4.29407 9.7763 5.13976 8.82046C6.81604 7.14826 6.74188 6.83014 8.06272 8.47853C9.38284 10.1269 9.29521 10.025 7.98885 11.3358C7.46826 11.8581 8.55525 13.1794 9.69229 14.3202C10.8293 15.4611 12.146 16.5518 12.6667 16.0298C13.9671 14.7248 13.8715 14.6306 15.5137 15.956C17.1566 17.2808 16.9417 17.1137 15.1733 18.8882ZM19.2 12.6C18.8686 12.6 18.6 12.3314 18.6 12V10.8H17.4C17.0686 10.8 16.8 10.5314 16.8 10.2V9.00005H15.6C15.2686 9.00005 15 8.73142 15 8.40005V7.20005H13.8C13.4686 7.20005 13.2 6.93142 13.2 6.60005V5.40005H12C11.6686 5.40005 11.4 5.13142 11.4 4.80005C11.4 4.46868 11.6686 4.20005 12 4.20005H13.8C14.1314 4.20005 14.4 4.46868 14.4 4.80005V6.00005H15.6C15.9314 6.00005 16.2 6.26868 16.2 6.60005V7.80005H17.4C17.7314 7.80005 18 8.06868 18 8.40005V9.60005H19.2C19.5314 9.60005 19.8 9.86868 19.8 10.2V12C19.8 12.3314 19.5314 12.6 19.2 12.6ZM12 7.20005V8.40005H13.2C13.5314 8.40005 13.8 8.66868 13.8 9.00005V10.2H15C15.3314 10.2 15.6 10.4687 15.6 10.8V12H16.8C17.1314 12 17.4 12.2687 17.4 12.6V14.4C17.4 14.7314 17.1314 15 16.8 15C16.4686 15 16.2 14.7314 16.2 14.4V13.2H15C14.6686 13.2 14.4 12.9314 14.4 12.6V11.4H13.2C12.8686 11.4 12.6 11.1314 12.6 10.8V9.60005H11.4C11.0686 9.60005 10.8 9.33142 10.8 9.00005V7.80005H9.59999C9.26862 7.80005 8.99999 7.53142 8.99999 7.20005C8.99999 6.86868 9.26862 6.60005 9.59999 6.60005H11.4C11.7314 6.60005 12 6.86868 12 7.20005Z" fill="currentColor"/>
</svg>
