<svg width="24" height="24" viewBox="0 0 24 24" fill="currentColor" xmlns="http://www.w3.org/2000/svg">
<path fill-rule="evenodd" clip-rule="evenodd" d="M20.4 18.6H3.59999C2.60588 18.6 1.79999 17.7941 1.79999 16.8V7.20002C1.79999 6.20591 2.60588 5.40002 3.59999 5.40002H20.4C21.3941 5.40002 22.2 6.20591 22.2 7.20002V16.8C22.2 17.7941 21.3941 18.6 20.4 18.6ZM3.59999 17.4H20.4C20.7314 17.4 21 17.1314 21 16.8V11.4H2.99999V16.8C2.99999 17.1314 3.26862 17.4 3.59999 17.4ZM20.4 6.60002H3.59999C3.26862 6.60002 2.99999 6.86865 2.99999 7.20002V9.00002H21V7.20002C21 6.86865 20.7314 6.60002 20.4 6.60002ZM5.09999 14.4H6.29999C6.79704 14.4 7.19999 14.803 7.19999 15.3C7.19999 15.7971 6.79704 16.2 6.29999 16.2H5.09999C4.60293 16.2 4.19999 15.7971 4.19999 15.3C4.19999 14.803 4.60293 14.4 5.09999 14.4ZM9.29999 14.4H10.5C10.997 14.4 11.4 14.803 11.4 15.3C11.4 15.7971 10.997 16.2 10.5 16.2H9.29999C8.80293 16.2 8.39999 15.7971 8.39999 15.3C8.39999 14.803 8.80293 14.4 9.29999 14.4ZM13.5 14.4H14.7C15.197 14.4 15.6 14.803 15.6 15.3C15.6 15.7971 15.197 16.2 14.7 16.2H13.5C13.0029 16.2 12.6 15.7971 12.6 15.3C12.6 14.803 13.0029 14.4 13.5 14.4Z" fill="currentColor"/>
</svg>
