<svg width="24" height="24" viewBox="0 0 24 24" fill="currentColor" xmlns="http://www.w3.org/2000/svg">
<path fill-rule="evenodd" clip-rule="evenodd" d="M21 21H4.2C3.53726 21 3 20.4627 3 19.8V3H19.8C20.4627 3 21 3.53726 21 4.2V21ZM19.3708 11.6801L17.3981 10.2006V11.4002H15.5487C15.4589 10.8648 15.2485 10.3569 14.9334 9.91483L17.0894 7.75884L17.9376 8.60707L18.2863 6.16606C18.3041 6.04146 18.2622 5.91575 18.1732 5.82675C18.0842 5.73776 17.9585 5.69585 17.8339 5.71366L15.3929 6.0624L16.2412 6.91063L14.0852 9.06662C13.6431 8.75154 13.1352 8.54113 12.5998 8.45131V6.5779H13.7994L12.3199 4.60526C12.2444 4.50457 12.1259 4.44531 12 4.44531C11.8741 4.44531 11.7556 4.50457 11.6801 4.60526L10.2006 6.5779H11.4002V8.45129C10.8648 8.54111 10.3569 8.75152 9.91483 9.0666L7.75884 6.91061L8.60707 6.0624L6.16606 5.71368C6.04146 5.69588 5.91575 5.73778 5.82675 5.82678C5.73776 5.91578 5.69585 6.04148 5.71366 6.16608L6.0624 8.60707L6.91063 7.75884L9.06662 9.91483C8.75154 10.3569 8.54113 10.8648 8.45131 11.4002H6.5779V10.2006L4.60526 11.6801C4.50457 11.7556 4.44531 11.8741 4.44531 12C4.44531 12.1259 4.50457 12.2444 4.60526 12.3199L6.5779 13.7994V12.5998H8.45129C8.54111 13.1352 8.75152 13.6431 9.0666 14.0852L6.91061 16.2412L6.0624 15.3929L5.71368 17.8339C5.69588 17.9585 5.73778 18.0842 5.82678 18.1732C5.91578 18.2622 6.04148 18.3041 6.16608 18.2863L8.60707 17.9376L7.75884 17.0894L9.91483 14.9334C10.3569 15.2485 10.8648 15.4589 11.4002 15.5487V17.3981H10.2006L11.6801 19.3707C11.7556 19.4714 11.8741 19.5307 12 19.5307C12.1259 19.5307 12.2444 19.4714 12.3199 19.3707L13.7994 17.3981H12.5998V15.5487C13.1352 15.4589 13.6431 15.2485 14.0852 14.9334L16.2412 17.0894L15.3929 17.9376L17.8339 18.2863C17.9585 18.3041 18.0842 18.2622 18.1732 18.1732C18.2622 18.0842 18.3041 17.9585 18.2863 17.8339L17.9376 15.3929L17.0894 16.2412L14.9334 14.0852C15.2485 13.6431 15.4589 13.1352 15.5487 12.5998H17.3981V13.7994L19.3707 12.3199C19.4714 12.2444 19.5307 12.1259 19.5307 12C19.5307 11.8741 19.4714 11.7556 19.3708 11.6801Z" fill="currentColor"/>
</svg>
