<svg width="24" height="24" viewBox="0 0 24 24" fill="currentColor" xmlns="http://www.w3.org/2000/svg">
<path fill-rule="evenodd" clip-rule="evenodd" d="M16.212 4.79999L10.7496 10.7164C10.2076 11.2496 10.0595 12.0661 10.379 12.756C10.6984 13.4459 11.4169 13.8607 12.1741 13.7924C12.9314 13.7241 13.564 13.1874 13.7548 12.4514L16.212 4.79999ZM12.012 1.79999C6.37871 1.79999 1.81201 6.36668 1.81201 12C1.81201 17.6333 6.37871 22.2 12.012 22.2C17.6453 22.2 22.212 17.6333 22.212 12C22.212 6.36668 17.6453 1.79999 12.012 1.79999ZM20.2128 13.8284L18.5553 12.867C18.593 12.5795 18.612 12.2899 18.612 12C18.6132 11.0454 18.4065 10.102 18.0063 9.23531L19.5711 8.33185C19.6348 8.46305 19.6953 8.59606 19.7526 8.73088C20.429 10.3417 20.5898 12.1225 20.2128 13.8284ZM4.27139 8.73078C5.47287 5.89504 8.12872 3.94321 11.1939 3.64335C14.259 3.34348 17.2428 4.74358 18.9711 7.2927L17.4061 8.19625C17.0575 7.70299 16.6432 7.25961 16.1747 6.87839L14.3283 12.6285C14.0644 13.6006 13.2217 14.3045 12.2182 14.3909C11.2146 14.4774 10.2639 13.9281 9.83764 13.0155C9.41139 12.1028 9.60033 11.0212 10.3107 10.3071L14.4219 5.85412C13.6542 5.55311 12.8367 5.39906 12.012 5.39999C8.36692 5.39999 5.41201 8.35489 5.41201 12C5.41204 12.2899 5.43099 12.5796 5.46872 12.867L3.81121 13.8284C3.4342 12.1225 3.59495 10.3416 4.27139 8.73078Z" fill="currentColor"/>
</svg>
