<svg width="24" height="24" viewBox="0 0 24 24" fill="currentColor" xmlns="http://www.w3.org/2000/svg">
<path fill-rule="evenodd" clip-rule="evenodd" d="M12 7.19999H7.38959C7.49668 7.36977 7.63295 7.51927 7.79212 7.64159L12 10.7997L16.2079 7.64159C16.367 7.51927 16.5033 7.36977 16.6104 7.19999H12ZM14.0254 11.5767L17.3076 9.06647C18.1308 8.42694 18.6 7.52159 18.6 6.57212V3.59999H19.2V2.39999C19.2 2.06862 18.9314 1.79999 18.6 1.79999H5.39999C5.06862 1.79999 4.79999 2.06862 4.79999 2.39999V3.59999H5.39999V6.57212C5.39999 7.52147 5.86914 8.42694 6.69239 9.06647L9.9746 11.5767C10.2751 11.8008 10.2751 12.1992 9.9746 12.4233L6.69239 14.9335C5.86919 15.573 5.39999 16.4785 5.39999 17.4279V20.4H4.79999V21.6C4.79999 21.9314 5.06862 22.2 5.39999 22.2H18.6C18.9314 22.2 19.2 21.9314 19.2 21.6V20.4H18.6V17.4279C18.6 16.4785 18.1308 15.573 17.3076 14.9335L14.0254 12.4233C13.7249 12.1992 13.7249 11.8008 14.0254 11.5767ZM13.3006 13.3798L16.5747 15.8837C17.0992 16.2926 17.4 16.8552 17.4 17.4279V20.4H16.586C15.7953 18.0378 13.0272 15.6 12 15.6C10.9647 15.6 8.20237 18.0378 7.41359 20.4H6.59999V17.4279C6.59999 16.8552 6.90073 16.2927 7.42528 15.8837L10.6993 13.3798C11.1447 13.0442 11.4 12.5419 11.4 12C11.4 11.4581 11.1447 10.9557 10.6993 10.6202L7.42528 8.11624C6.90073 7.7074 6.59999 7.14479 6.59999 6.57212V3.59999H17.4V6.57212C17.4 7.14481 17.0992 7.70732 16.5747 8.11624L13.3008 10.6202C12.8552 10.9557 12.6 11.4581 12.6 12C12.6 12.5419 12.855 13.0442 13.3006 13.3798Z" fill="currentColor"/>
</svg>
