<svg width="24" height="24" viewBox="0 0 24 24" fill="currentColor" xmlns="http://www.w3.org/2000/svg">
<path fill-rule="evenodd" clip-rule="evenodd" d="M21.6 11.9761H18V19.2001C18 20.1942 17.1941 21.0001 16.2 21.0001H7.8C6.80589 21.0001 6 20.1942 6 19.2001V11.9761H2.4L10.2 4.15207H10.2184C10.6796 3.6408 11.3383 3.35236 12.0268 3.36001C12.7153 3.36797 13.3673 3.67127 13.8168 4.19287L21.6 11.9761ZM11.4185 15.0001C11.0872 14.997 10.821 14.726 10.8241 14.3946C10.8271 14.0633 11.0981 13.7971 11.4295 13.8001C11.7608 13.8031 12.027 14.0742 12.024 14.4055C12.0226 14.5646 11.958 14.7167 11.8444 14.8282C11.7309 14.9397 11.5777 15.0015 11.4185 15.0001ZM12.4298 15.3155C12.9283 14.7415 12.9275 13.888 12.428 13.3149L12.9315 12.878C13.6503 13.7007 13.6514 14.9278 12.9341 15.7518L12.4298 15.3155ZM13.4347 16.185C14.3667 15.1118 14.3651 13.5159 13.431 12.4446L13.9362 12.0062C15.0879 13.3287 15.0893 15.2976 13.9393 16.6216L13.4347 16.185ZM14.8915 17.5598L14.388 17.1241C15.7866 15.5098 15.7849 13.1128 14.3842 11.5004L14.8869 11.0641C16.5079 12.9253 16.5099 15.6963 14.8915 17.5598ZM9.89163 14.3999C9.89146 13.3138 10.0037 12.1657 10.512 12.1657C11.7877 12.1657 11.7808 12.2561 11.9383 10.8409C12.0954 9.42533 12.072 9.60749 10.3447 9.60741C9.53134 9.60763 8.40043 11.4677 8.40027 14.3998C8.4007 17.3319 9.53131 19.1924 10.3452 19.1923C12.0721 19.1923 12.0957 19.3745 11.9381 17.9592C11.7812 16.5439 11.7821 16.6344 10.5121 16.6344C10.0039 16.6342 9.89172 15.4864 9.89163 14.3999Z" fill="currentColor"/>
</svg>
