<svg width="24" height="24" viewBox="0 0 24 24" fill="currentColor" xmlns="http://www.w3.org/2000/svg">
<path fill-rule="evenodd" clip-rule="evenodd" d="M20.488 13.5381L18.6213 10.3181C18.3309 9.81624 17.7999 9.50207 17.2203 9.48908C16.6406 9.4761 16.0961 9.76617 15.7835 10.2545C15.0278 9.89939 14.126 10.1597 13.6756 10.8628C13.0297 10.5607 12.263 10.7044 11.7704 11.2201L10.653 9.29254C10.6434 9.17699 10.6888 9.06369 10.7754 8.98659L12.681 7.29128C13.0833 6.93339 12.8917 6.26854 12.3608 6.18008L9.7726 5.74827C9.65419 5.72848 9.55281 5.65232 9.50084 5.5441L8.45327 3.36322C8.22064 2.87893 7.53167 2.87893 7.29887 3.36322L6.25132 5.5441C6.19934 5.65232 6.09797 5.72848 5.97956 5.74827L3.39148 6.17998C2.86055 6.26854 2.66908 6.93339 3.07129 7.29118L4.97689 8.98649C5.07953 9.07783 5.12299 9.21859 5.08969 9.35189L4.47344 11.8189C4.33813 12.3607 4.91159 12.8045 5.40138 12.5371L7.69948 11.2825C7.77253 11.2427 7.85691 11.2287 7.9389 11.243L10.2275 15.1909L9.62754 14.938L9.62034 14.935C9.40598 14.8421 9.17479 14.7942 8.94114 14.7944C8.13883 14.7951 7.44364 15.3505 7.26596 16.1329C7.08827 16.9153 7.47535 17.7166 8.19868 18.0637C8.20556 18.0672 8.21254 18.0706 8.21963 18.0738L13.3774 20.4453C14.1567 20.8243 15.0118 21.0217 15.8783 21.0229C16.8327 21.0229 17.7599 20.7781 18.5597 20.3152C18.8917 20.1231 19.2008 19.8938 19.481 19.6319C21.2292 18.1087 21.6531 15.5479 20.488 13.5381ZM19.0792 19.1861C18.8303 19.4201 18.5552 19.6246 18.2595 19.7955C17.5259 20.2202 16.7019 20.4226 15.8784 20.4226C15.1006 20.4219 14.3331 20.2441 13.6342 19.9027L8.47004 17.5284C7.9076 17.273 7.65862 16.6099 7.91394 16.0475C8.16925 15.485 8.83218 15.236 9.39462 15.4914L11.2678 16.2807C11.3213 16.3003 11.3814 16.2842 11.418 16.2406C11.4547 16.1969 11.4601 16.135 11.4316 16.0856L11.0075 15.3406L8.93428 11.7637L7.54544 9.368C7.3548 9.03945 7.35392 8.63416 7.54313 8.30479C7.73234 7.97542 8.08289 7.77201 8.46274 7.77119C8.84259 7.77036 9.19402 7.97225 9.38466 8.30079L11.1687 11.3782L12.0514 12.9009C11.8608 12.5724 11.8599 12.1671 12.0491 11.8377C12.2383 11.5083 12.5889 11.3049 12.9688 11.3041C13.3486 11.3033 13.7 11.5052 13.8907 11.8337L14.1573 12.2937C13.8627 11.7858 14.0355 11.1352 14.5434 10.8405C15.0513 10.5458 15.7019 10.7186 15.9966 11.2265L16.2632 11.6863C15.9685 11.1784 16.1414 10.5278 16.6494 10.2332C17.1573 9.93852 17.8079 10.1114 18.1025 10.6193L19.9692 13.8394C20.9922 15.6046 20.6189 17.8475 19.0792 19.1861Z" fill="currentColor"/>
</svg>
