<svg width="24" height="24" viewBox="0 0 24 24" fill="currentColor" xmlns="http://www.w3.org/2000/svg">
<path fill-rule="evenodd" clip-rule="evenodd" d="M19.0047 8.67555C18.7599 8.57619 18.505 8.48274 18.2401 8.39521C18.7465 6.3463 18.4386 3.79273 17.1058 3.17643C16.0018 2.53901 14.4586 2.90283 12.7514 4.19933L13.6091 5.05714C14.5372 4.4306 15.5352 3.77578 16.5058 4.21589C17.5594 4.98778 17.3033 6.74295 17.0828 8.06391C16.2318 7.85875 15.3681 7.71073 14.4973 7.62082C13.6567 6.47302 12.7621 5.44997 11.7009 4.54772C7.62878 0.992022 4.55992 3.38103 5.7461 8.39321C0.484719 10.0009 0.538503 14.0101 5.77852 15.5909C4.64092 20.3979 7.41491 22.904 11.3652 19.7433C13.2321 18.263 14.695 16.3221 15.8988 14.2603C15.7457 13.9575 15.4004 13.2746 15.2444 12.9662C14.1665 14.9676 12.8309 16.8658 11.1407 18.3707C7.90045 21.2041 6.09832 20.1208 6.93592 15.9189C7.76646 16.1173 8.60905 16.2613 9.45832 16.3501C9.78952 16.8042 10.1303 17.2353 10.4776 17.6395L11.3361 16.7982C11.2434 16.6894 11.1512 16.5785 11.0595 16.4655C11.3445 16.4763 11.3595 16.4821 11.6488 16.4829L12.6564 15.2699C11.8098 15.2982 10.9623 15.2774 10.1181 15.2075C9.65321 14.5337 9.22434 13.8357 8.83331 13.1165L8.23269 14.4878C8.33946 14.6677 8.44794 14.8453 8.55815 15.0206C8.09735 14.9469 7.65196 14.8583 7.22589 14.7551C7.34932 14.3351 7.4951 13.9059 7.66122 13.4708L7.67056 13.4883L8.28304 12.0398C8.28131 12.0361 8.27954 12.0326 8.27781 12.0289C8.81759 10.8908 9.44878 9.79826 10.1652 8.76214C11.3875 8.66635 12.6155 8.66697 13.8377 8.76401C15.0903 10.5906 16.1359 12.6348 16.7626 14.7531C16.7118 14.7655 16.6606 14.7774 16.6093 14.7893L15.6217 16.2032C16.1147 16.124 16.5922 16.0286 17.05 15.9176C17.6788 18.9976 16.8683 21.2936 13.6444 18.984L12.7951 19.8498C16.699 22.8318 19.3015 20.2272 18.2077 15.589C22.7208 14.272 23.8847 10.592 19.0047 8.67555ZM8.11177 9.76388C7.76485 10.3296 7.22248 11.5 6.92493 12.1065C6.5926 12.8606 6.30788 13.6346 6.07314 14.4245C2.02655 13.0525 1.97032 10.9541 6.04012 9.56041C6.16252 9.97765 6.30477 10.4028 6.46578 10.8327L7.26899 9.48061C7.24254 9.39569 7.2169 9.3111 7.19205 9.22683C7.64308 9.11643 8.11583 9.02242 8.60584 8.94531C8.43725 9.21272 8.27256 9.48557 8.11177 9.76388ZM11.9902 7.49031C11.8912 7.49031 11.2894 7.49991 11.1076 7.50639C11.1923 7.40239 11.2773 7.30019 11.3628 7.19979L10.5123 6.34916C10.17 6.74729 9.83397 7.17161 9.50723 7.6183C8.63026 7.70784 7.76029 7.85625 6.90323 8.06252C5.69812 1.40393 10.4512 4.35121 12.8984 7.5073C12.598 7.49618 12.2954 7.49052 11.9902 7.49031ZM20.4214 13.0703C19.9066 13.5897 18.8098 14.1354 17.9155 14.4215C17.3534 12.5108 16.461 10.6496 15.3956 8.94877C15.881 9.02571 16.3493 9.11929 16.7963 9.22887C16.7628 9.34386 16.7277 9.45953 16.6908 9.57589L17.4403 11.0581C17.6358 10.5521 17.8058 10.0522 17.9482 9.56321C19.49 10.0712 22.1413 11.4139 20.4214 13.0703ZM11.9902 10.1063C11.2134 10.1062 10.513 10.574 10.2157 11.2917C9.91836 12.0093 10.0826 12.8354 10.6318 13.3847C11.1811 13.934 12.0071 14.0983 12.7248 13.8011C13.4425 13.5039 13.9104 12.8036 13.9104 12.0268C13.9104 11.5175 13.7081 11.029 13.348 10.6688C12.9879 10.3086 12.4995 10.1063 11.9902 10.1063Z" fill="currentColor"/>
</svg>
