<svg width="24" height="24" viewBox="0 0 24 24" fill="currentColor" xmlns="http://www.w3.org/2000/svg">
<path fill-rule="evenodd" clip-rule="evenodd" d="M13.8998 9.42374V8.61254L15.7968 6.06662H16.5893V8.69366H17.1696V9.42374H16.5893V10.4346H15.7469V9.42374H13.8998ZM15.7282 7.17734L14.5987 8.69366H15.7469V7.17734H15.7282ZM6.49896 14.9617C6.58418 14.6726 6.69962 14.4407 6.84528 14.266C6.9797 14.0994 7.15489 13.9705 7.35384 13.8916C7.54994 13.8162 7.75839 13.7781 7.96848 13.7792C8.18063 13.7778 8.39119 13.8158 8.58936 13.8916C8.78894 13.9709 8.96503 14.0998 9.10104 14.266C9.24864 14.4407 9.36512 14.6726 9.45048 14.9617C9.53584 15.2509 9.57848 15.6076 9.5784 16.032C9.5784 16.4688 9.53576 16.8338 9.45048 17.1271C9.3652 17.4204 9.24872 17.6544 9.10104 17.8291C8.96502 17.9953 8.78893 18.1242 8.58936 18.2035C8.39119 18.2792 8.18062 18.3173 7.96848 18.3159C7.7584 18.317 7.54995 18.2789 7.35384 18.2035C7.15489 18.1246 6.97971 17.9957 6.84528 17.8291C6.6996 17.6544 6.58416 17.4204 6.49896 17.1271C6.41376 16.8338 6.37112 16.4688 6.37104 16.032C6.37104 15.6076 6.41368 15.2509 6.49896 14.9617ZM7.2696 16.4843C7.27729 16.6572 7.30344 16.8287 7.3476 16.996C7.38599 17.1499 7.45731 17.2936 7.55664 17.4172C7.6523 17.5337 7.78958 17.592 7.96848 17.592C8.1515 17.592 8.2919 17.5338 8.38968 17.4173C8.49074 17.2943 8.5632 17.1505 8.60184 16.9961C8.64597 16.8288 8.67211 16.6572 8.67984 16.4844C8.68811 16.3076 8.69227 16.1568 8.69232 16.032C8.69232 15.9571 8.69128 15.8666 8.6892 15.7606C8.68681 15.651 8.67847 15.5416 8.66424 15.4329C8.64961 15.3206 8.62878 15.2092 8.60184 15.0991C8.57706 14.9945 8.536 14.8945 8.48016 14.8027C8.42816 14.7175 8.35781 14.6451 8.27424 14.5905C8.18245 14.5342 8.07614 14.506 7.96848 14.5094C7.86176 14.5056 7.75636 14.5339 7.66584 14.5905C7.58411 14.6453 7.51584 14.7178 7.46616 14.8027C7.41194 14.8953 7.37099 14.9951 7.34448 15.0991C7.31548 15.2087 7.29462 15.3203 7.28208 15.4329C7.2696 15.5453 7.26232 15.6545 7.26024 15.7606C7.25816 15.8666 7.25712 15.9571 7.25712 16.032C7.25712 16.1567 7.26128 16.3075 7.2696 16.4843ZM19.2 3H3V19.2C3 20.1941 3.80589 21 4.8 21H21V4.8C21 3.80589 20.1941 3 19.2 3ZM6.46464 7.452C6.52258 7.19251 6.62383 6.94464 6.76416 6.7188C6.89855 6.5033 7.07985 6.32093 7.29456 6.18528C7.5108 6.048 7.77496 5.97936 8.08704 5.97936C8.26499 5.97794 8.442 6.00534 8.6112 6.06048C8.76781 6.11153 8.91374 6.19084 9.04176 6.29448C9.16814 6.39838 9.27216 6.5268 9.34754 6.672C9.43022 6.83387 9.48307 7.00931 9.50354 7.18992H8.66114C8.633 7.04633 8.56361 6.91405 8.46146 6.80928C8.36135 6.70277 8.22072 6.6438 8.07458 6.64704C7.91646 6.64704 7.78438 6.69384 7.67834 6.78744C7.57095 6.88284 7.48485 6.99977 7.42562 7.13064C7.36221 7.26901 7.3161 7.41467 7.28834 7.56432C7.26133 7.70014 7.24464 7.83782 7.23842 7.97616L7.2509 7.98864C7.37153 7.81392 7.51297 7.68912 7.67522 7.61424C8.03033 7.46115 8.43347 7.46455 8.78594 7.6236C8.95869 7.70033 9.11376 7.81185 9.24146 7.9512C9.35747 8.08361 9.4446 8.23875 9.4973 8.40672C9.55086 8.57415 9.57823 8.74885 9.57842 8.92464C9.58028 9.13857 9.54328 9.35105 9.46922 9.55176C9.39999 9.73937 9.29391 9.91123 9.15722 10.0572C9.02086 10.2015 8.85624 10.3162 8.67362 10.3942C8.47624 10.4773 8.26379 10.5187 8.04962 10.5158C7.72094 10.5158 7.44846 10.4503 7.23218 10.3193C7.02012 10.1925 6.8423 10.0158 6.71426 9.80448C6.58164 9.5826 6.4907 9.33835 6.44594 9.08376C6.39581 8.81312 6.37074 8.53844 6.37106 8.2632C6.37137 7.99012 6.40276 7.71797 6.46464 7.452ZM16.4861 18.2346H15.6V15.4017H14.5018V14.734C14.6513 14.7385 14.8009 14.727 14.9479 14.6997C15.0844 14.6752 15.2154 14.6266 15.3348 14.5561C15.4496 14.4871 15.5485 14.3946 15.625 14.2847C15.7089 14.1594 15.7623 14.0163 15.781 13.8666H16.4861V18.2346ZM19.8 12H12V19.8H4.2V12H12V4.2H19.8V12ZM7.5036 9.53918C7.56336 9.61575 7.63891 9.67853 7.72512 9.72326C7.81783 9.77034 7.92068 9.79395 8.02464 9.792C8.12365 9.79428 8.22153 9.77061 8.30856 9.72336C8.38964 9.67762 8.46072 9.61609 8.5176 9.5424C8.57665 9.46591 8.62108 9.37918 8.64864 9.28656C8.67763 9.1915 8.69235 9.09266 8.69232 8.99328C8.69253 8.89103 8.67888 8.78923 8.65176 8.69064C8.62652 8.59695 8.58536 8.5083 8.53008 8.42856C8.47545 8.35116 8.40398 8.28716 8.32104 8.24136C8.23013 8.19215 8.12799 8.16742 8.02464 8.1696C7.91802 8.16746 7.81233 8.18988 7.71576 8.23512C7.62917 8.27648 7.55334 8.33736 7.49424 8.41296C7.43471 8.4903 7.39025 8.57815 7.3632 8.67192C7.33371 8.77221 7.319 8.87627 7.31954 8.9808C7.31965 9.08143 7.33544 9.18143 7.36632 9.2772C7.396 9.37205 7.4425 9.46079 7.5036 9.53918Z" fill="currentColor"/>
</svg>
