<svg width="24" height="24" viewBox="0 0 24 24" fill="currentColor" xmlns="http://www.w3.org/2000/svg">
<path fill-rule="evenodd" clip-rule="evenodd" d="M21.8439 10.2324L18.912 9.67207L14.664 5.15976C14.4362 4.92837 14.1247 4.79869 13.8 4.80006H6.00001C5.62035 4.79975 5.26298 4.97932 5.03666 5.28415L1.44033 10.0873L1.43665 10.0922L1.4344 10.0952C1.28182 10.3011 1.19963 10.5507 1.20001 10.8071V15.0001C1.20001 15.6627 1.73735 16.1999 2.40001 16.2001H3.00001C3.00001 17.8569 4.34316 19.2001 6.00001 19.2001C7.65687 19.2001 9.00001 17.8569 9.00001 16.2001H14.4C14.4 17.8569 15.7432 19.2001 17.4 19.2001C19.0569 19.2001 20.4 17.8569 20.4 16.2001H21.6C22.2627 16.1999 22.8 15.6627 22.8 15.0001V11.4066C22.7998 10.838 22.4005 10.3478 21.8439 10.2324ZM9.28802 9.59937H8.5407C8.19938 9.21802 7.71181 9.00007 7.20001 9.00007C6.68822 9.00007 6.20065 9.21802 5.85933 9.59937H3.56013L6.17632 6.09919L6.17903 6.09595H9.28802V9.59937ZM14.3007 9.59937C13.9594 9.21802 13.4718 9.00007 12.96 9.00007C12.4482 9.00007 11.9606 9.21802 11.6193 9.59937H11.088V6.09607H13.7566C13.7591 6.09602 13.7617 6.09628 13.7641 6.09684L17.0559 9.59937H14.3007ZM7.20001 8.70007C7.69707 8.70007 8.10002 8.29713 8.10002 7.80007C8.10002 7.30301 7.69707 6.90007 7.20001 6.90007C6.70296 6.90007 6.30001 7.30301 6.30001 7.80007C6.30001 8.29713 6.70296 8.70007 7.20001 8.70007ZM12.96 6.90007C12.463 6.90007 12.06 7.30301 12.06 7.80007C12.06 8.29713 12.463 8.70007 12.96 8.70007C13.4571 8.70007 13.86 8.29713 13.86 7.80007C13.86 7.30301 13.4571 6.90007 12.96 6.90007Z" fill="currentColor"/>
</svg>
