<svg width="24" height="24" viewBox="0 0 24 24" fill="currentColor" xmlns="http://www.w3.org/2000/svg">
<path fill-rule="evenodd" clip-rule="evenodd" d="M10.1469 1.96191C6.42909 2.61437 2.74396 6.19387 2.00306 9.89503C1.63202 11.7486 1.76375 13.5378 2.28626 15.151L3.75933 13.678C3.64809 13.1269 3.59219 12.566 3.59246 12.0038C3.59246 7.0458 7.88606 3.09063 12.9578 3.65362C16.8384 4.08435 19.9156 7.16158 20.3464 11.0421C20.9094 16.1139 16.9542 20.4075 11.9962 20.4075C11.434 20.4078 10.8731 20.3519 10.322 20.2406L8.84894 21.7137C10.4622 22.2362 12.2514 22.368 14.1049 21.9969C17.8061 21.256 21.3856 17.5709 22.0381 13.8531C23.28 6.77671 17.2233 0.719978 10.1469 1.96191ZM19.1993 12.0038C19.1993 8.0256 15.9744 4.80063 11.9962 4.80063C8.01799 4.80063 4.79301 8.02558 4.79301 12.0038C4.79301 12.2107 4.80223 12.4155 4.81941 12.618L8.24997 9.20731C9.13069 8.17565 10.4195 7.5821 11.776 7.58347C14.3389 7.58347 16.4165 9.66111 16.4165 12.224C16.4179 13.5805 15.8243 14.8693 14.7926 15.75L11.382 19.1806C11.5845 19.1977 11.7893 19.207 11.9962 19.207C15.9744 19.207 19.1993 15.982 19.1993 12.0038ZM14.3281 9.67183C13.6513 8.99496 12.7332 8.61469 11.776 8.61469C10.8187 8.61469 9.90069 8.99496 9.22382 9.67183C9.20255 9.6931 6.93062 12.3622 6.91317 12.3827C6.08947 13.3443 6.21503 14.9659 7.62455 16.3754C8.98643 17.7373 10.6195 17.8103 11.5889 17.0584C11.61 17.0419 14.3069 14.7974 14.3281 14.7762C15.7376 13.3666 15.7376 11.0814 14.3281 9.67183Z" fill="currentColor"/>
</svg>
