<svg width="24" height="24" viewBox="0 0 24 24" fill="currentColor" xmlns="http://www.w3.org/2000/svg">
<path d="M16.9315 12.5765H7.08432L7.9457 9.89016L7.94882 9.88008H16.0601L16.0632 9.89016L16.9315 12.5765ZM15.1915 7.19395H8.81028L9.67476 4.49777L10.3366 2.4343C10.458 2.05376 10.8117 1.79552 11.2112 1.79573H12.778C13.1765 1.79573 13.5296 2.05277 13.652 2.43209L14.3197 4.49772L15.1915 7.19395ZM21.4792 22.1947C21.4655 22.1952 21.4518 22.1957 21.4379 22.1957H2.56672C2.55307 22.1957 2.53915 22.1952 2.52547 22.1947C1.80252 22.1655 1.50316 21.2477 2.05516 20.7792L5.35072 17.9832L5.35864 17.9589L6.22 15.2726L6.22336 15.2625H17.7998L17.8032 15.2726L18.6718 17.9589L18.6794 17.9832L21.9524 20.7785C22.5032 21.2486 22.2024 22.1655 21.4792 22.1947Z" fill="currentColor"/>
</svg>
