<svg width="24" height="24" viewBox="0 0 24 24" fill="currentColor" xmlns="http://www.w3.org/2000/svg">
<path fill-rule="evenodd" clip-rule="evenodd" d="M21.0004 5.99965H7.20045V5.09965C7.20045 4.86095 7.10562 4.63203 6.93684 4.46325C6.76806 4.29447 6.53914 4.19965 6.30045 4.19965H4.50045C4.00339 4.19965 3.60045 4.60259 3.60045 5.09965V5.99965H1.80045V18.5996C1.80045 19.2624 2.3377 19.7996 3.00045 19.7996H22.2004V7.19965C22.2004 6.5369 21.6632 5.99965 21.0004 5.99965ZM7.20045 8.99965C7.20045 9.33102 6.93182 9.59965 6.60045 9.59965H4.20045C3.86907 9.59965 3.60045 9.33102 3.60045 8.99965V8.39965C3.60045 8.06827 3.86907 7.79965 4.20045 7.79965H6.60045C6.93182 7.79965 7.20045 8.06827 7.20045 8.39965V8.99965ZM12.9004 17.3996C10.4152 17.3996 8.40045 15.385 8.40045 12.8996C8.40045 10.4143 10.4152 8.39965 12.9004 8.39965C15.3857 8.39965 17.4004 10.4144 17.4004 12.8996C17.4004 15.3849 15.3857 17.3996 12.9004 17.3996Z" fill="currentColor"/>
</svg>
