<svg width="24" height="24" viewBox="0 0 24 24" fill="currentColor" xmlns="http://www.w3.org/2000/svg">
<path fill-rule="evenodd" clip-rule="evenodd" d="M15.761 8.03062C15.6759 7.2216 14.9978 6.59971 14.184 6.6H9.81603C9.00157 6.60029 8.32765 7.2251 8.24389 8.03503L7.20003 18H16.8L15.761 8.03062ZM9.61105 8.13583L8.86645 15.3211C8.84897 15.4849 8.70255 15.6038 8.53871 15.5873C8.37497 15.5698 8.25604 15.4234 8.2725 15.2596L9.01712 8.07432C9.03518 7.91126 9.18144 7.79332 9.34462 7.81022C9.50781 7.82712 9.62679 7.97253 9.61105 8.13583ZM10.0262 4.46335L9.56715 3.3552C9.4396 3.05039 9.08956 2.90613 8.78428 3.03256C8.479 3.15898 8.33345 3.50848 8.45874 3.81422L8.91786 4.92233C9.04485 5.22801 9.39545 5.37304 9.70128 5.2464C10.0071 5.11976 10.1525 4.76932 10.0262 4.46335ZM6.1519 7.99598L5.04354 7.53698C4.73754 7.4102 4.3867 7.55549 4.25991 7.86149C4.13313 8.16749 4.27842 8.51833 4.58442 8.64511L5.69283 9.10414C5.8912 9.18826 6.11945 9.15951 6.29076 9.02883C6.46207 8.89814 6.55012 8.68561 6.52141 8.47206C6.4927 8.25852 6.35165 8.07678 6.1519 7.99598ZM19.5886 13.8526L18.4802 13.3936C18.2823 13.3116 18.0556 13.3414 17.8856 13.4718C17.7156 13.6023 17.6281 13.8135 17.6561 14.0259C17.684 14.2383 17.8232 14.4197 18.0211 14.5017L19.1295 14.9607C19.3276 15.0436 19.5549 15.0142 19.7255 14.8837C19.896 14.7531 19.9837 14.5414 19.9555 14.3285C19.9272 14.1156 19.7873 13.9341 19.5886 13.8526ZM6.32763 13.7182C6.20077 13.4122 5.84991 13.2669 5.54384 13.3936L4.43547 13.8526C4.23753 13.9346 4.09838 14.116 4.07044 14.3285C4.0425 14.5409 4.13 14.7521 4.3 14.8825C4.47 15.0129 4.69665 15.0427 4.89459 14.9607L6.00296 14.5017C6.14993 14.4409 6.26671 14.3242 6.3276 14.1772C6.38849 14.0303 6.3885 13.8651 6.32763 13.7182ZM19.7643 7.86158C19.6375 7.55559 19.2866 7.41029 18.9806 7.53698L17.8722 7.99598C17.6733 8.07733 17.5331 8.2589 17.5047 8.47193C17.4764 8.68495 17.5642 8.89688 17.7348 9.02745C17.9055 9.15802 18.1331 9.18727 18.3312 9.10414L19.4396 8.64511C19.5866 8.58429 19.7034 8.46756 19.7643 8.32061C19.8252 8.17366 19.8252 8.00854 19.7643 7.86158ZM15.2407 3.03072C14.9347 2.90401 14.5839 3.04925 14.457 3.3552L13.9979 4.46335C13.8711 4.76942 14.0165 5.1203 14.3225 5.24706C14.6286 5.37382 14.9795 5.22847 15.1062 4.9224L15.5654 3.81432C15.6262 3.66736 15.6263 3.50223 15.5654 3.35527C15.5045 3.20831 15.3877 3.09156 15.2407 3.03072ZM17.4 21H6.60003C6.2691 20.9989 6.00109 20.7309 6.00003 20.4V19.2C6.00109 18.8691 6.2691 18.6011 6.60003 18.6H17.4C17.731 18.6011 17.999 18.8691 18 19.2V20.4C17.999 20.7309 17.731 20.9989 17.4 21Z" fill="currentColor"/>
</svg>
