<svg width="24" height="24" viewBox="0 0 24 24" fill="currentColor" xmlns="http://www.w3.org/2000/svg">
<path fill-rule="evenodd" clip-rule="evenodd" d="M21.6 16.1998H20.4C20.4 17.8567 19.0569 19.1998 17.4 19.1998C15.7432 19.1998 14.4 17.8567 14.4 16.1998H9.00001C9.00001 17.8567 7.65687 19.1998 6.00001 19.1998C4.34316 19.1998 3.00001 17.8567 3.00001 16.1998H2.40001C1.73735 16.1996 1.20001 15.6625 1.20001 14.9998V10.8068C1.19965 10.5505 1.28187 10.3009 1.43449 10.0949L1.43675 10.0919C1.43797 10.0903 1.43915 10.0887 1.44042 10.087L5.03665 5.28391C5.26298 4.97908 5.62035 4.7995 6.00001 4.79982H13.8C14.1247 4.79844 14.4362 4.92813 14.664 5.15951L18.912 9.67183L21.8437 10.2319C22.4004 10.3473 22.7998 10.8378 22.8 11.4063V14.9998C22.8 15.6625 22.2627 16.1996 21.6 16.1998ZM6.17632 6.09895L3.56013 9.59913H9.28801V6.09583H6.17903L6.17632 6.09895ZM13.7641 6.09655C13.7617 6.09598 13.7591 6.09572 13.7566 6.09577H11.088V9.59913H17.0559L13.7641 6.09655Z" fill="currentColor"/>
</svg>
