<svg width="24" height="24" viewBox="0 0 24 24" fill="currentColor" xmlns="http://www.w3.org/2000/svg">
<path fill-rule="evenodd" clip-rule="evenodd" d="M13.7197 19.8781H13.7112C12.9719 19.878 12.2634 19.5823 11.7434 19.0568C11.321 18.6316 11.3233 17.9444 11.7485 17.5221C12.1737 17.0997 12.8608 17.102 13.2832 17.5272C13.398 17.6432 13.5544 17.7085 13.7176 17.7085H13.7195C13.9679 17.7087 14.192 17.5594 14.2874 17.33C14.3828 17.1007 14.3309 16.8365 14.1557 16.6604C14.0392 16.5442 13.8814 16.479 13.7168 16.479H3.50765C2.90853 16.479 2.42285 15.9934 2.42285 15.3942C2.42285 14.7951 2.90853 14.3094 3.50765 14.3094H13.7192C14.4607 14.3113 15.1712 14.6066 15.6955 15.1308C16.4885 15.9286 16.7236 17.1251 16.2914 18.1636C15.8592 19.2021 14.8446 19.8786 13.7197 19.8781ZM3.5077 13.08C3.12014 13.08 2.76202 12.8732 2.56824 12.5375C2.37445 12.2019 2.37445 11.7884 2.56824 11.4527C2.76202 11.1171 3.12014 10.9103 3.5077 10.9103H18.3895C18.9617 10.907 19.4237 10.4418 19.4231 9.86951C19.4224 9.29723 18.9594 8.8331 18.3871 8.83109H18.3857C18.1102 8.83033 17.8457 8.93962 17.651 9.13469C17.3766 9.40859 16.9769 9.51528 16.6025 9.41458C16.2281 9.31388 15.9359 9.02109 15.8359 8.6465C15.7359 8.2719 15.8433 7.87242 16.1177 7.59852C17.3715 6.34887 19.409 6.35141 20.6596 7.60433C21.5752 8.52227 21.8485 9.90098 21.3524 11.0988C20.8562 12.2966 19.6881 13.0783 18.3916 13.08H3.5077ZM11.168 9.68086H3.50765C3.12009 9.68086 2.76197 9.47407 2.56819 9.13843C2.37441 8.8028 2.37441 8.38927 2.56819 8.05363C2.76197 7.718 3.12009 7.51123 3.50765 7.51123H11.1682C11.3319 7.51084 11.4888 7.44563 11.6046 7.32987C11.7797 7.15373 11.8316 6.88956 11.7361 6.66028C11.6407 6.43101 11.4167 6.28166 11.1684 6.28174H11.1665C11.0033 6.28178 10.8469 6.34707 10.7321 6.46308C10.3097 6.8883 9.62258 6.89059 9.19737 6.46821C8.77215 6.04582 8.76986 5.3587 9.19224 4.93349C9.89277 4.22363 10.9194 3.94247 11.8838 4.19634C12.8483 4.4502 13.6034 5.20034 13.8637 6.16309C14.1239 7.12585 13.8496 8.15428 13.1444 8.85951C12.62 9.38374 11.9095 9.67904 11.168 9.68086Z" fill="currentColor"/>
</svg>
