<svg width="24" height="24" viewBox="0 0 24 24" fill="currentColor" xmlns="http://www.w3.org/2000/svg">
<path fill-rule="evenodd" clip-rule="evenodd" d="M13.8 3V8.4C13.799 8.73097 13.531 8.99904 13.2 9H5.4C5.06903 8.99904 4.80096 8.73097 4.8 8.4V3C3.80709 3.0029 3.0029 3.80709 3 4.8V19.2C3.0029 20.1929 3.80709 20.9971 4.8 21H19.2C20.1929 20.9971 20.9971 20.1929 21 19.2V8.32601C21 8.06314 20.8955 7.81106 20.7096 7.62521L16.3302 3.24566C16.1729 3.08837 15.9596 3 15.7371 3H13.8ZM19.2 11.4V18.6C19.199 18.931 18.931 19.199 18.6 19.2H5.4C5.06903 19.199 4.80096 18.931 4.8 18.6V11.4C4.80096 11.069 5.06903 10.801 5.4 10.8H18.6C18.931 10.801 19.199 11.069 19.2 11.4ZM12 7.8H11.4C11.069 7.79904 10.801 7.53097 10.8 7.2V4.8C10.801 4.46903 11.069 4.20096 11.4 4.2H12C12.331 4.20096 12.599 4.46903 12.6 4.8V7.2C12.599 7.53097 12.331 7.79904 12 7.8Z" fill="currentColor"/>
</svg>
