<svg width="24" height="24" viewBox="0 0 24 24" fill="currentColor" xmlns="http://www.w3.org/2000/svg">
<path fill-rule="evenodd" clip-rule="evenodd" d="M19.8 3H2.39999V15.6C2.39999 16.5941 3.20588 17.4 4.19999 17.4H6.59999V21.6L10.8 17.4H21.6V4.8C21.6 3.80589 20.7941 3 19.8 3ZM16.1294 8.29411H15.8648C15.2757 6.25229 13.7675 4.8 12 4.8C10.2324 4.8 8.72431 6.25229 8.13518 8.29411H7.87058C7.16886 8.29413 6.59999 8.86298 6.59999 9.5647V10.8353C6.59999 11.537 7.16886 12.1059 7.87058 12.1059H8.13518C8.72431 14.1477 10.2324 15.6 12 15.6C13.7675 15.6 15.2757 14.1477 15.8648 12.1059H16.1294C16.8311 12.1059 17.4 11.537 17.4 10.8353V9.5647C17.4 8.86298 16.8311 8.29413 16.1294 8.29411ZM14.9516 12.7412H12.8985C12.7438 12.3036 12.2963 12.0411 11.8389 12.1196C11.3814 12.1981 11.0471 12.5947 11.0471 13.0588C11.0471 13.523 11.3814 13.9196 11.8389 13.9981C12.2963 14.0765 12.7438 13.8141 12.8985 13.3765H14.5973C14.5392 13.4645 14.4785 13.5498 14.4153 13.6325C14.0897 14.0583 13.7145 14.3904 13.2999 14.6197C12.4943 15.0797 11.5057 15.0797 10.7001 14.6197C10.2856 14.3904 9.91034 14.0583 9.58471 13.6325C9.24943 13.194 8.98526 12.6806 8.79955 12.1064C8.40799 10.8656 8.40799 9.53437 8.79955 8.29358C8.85105 8.13442 8.90855 7.98002 8.97206 7.83038C9.04934 7.6491 9.2389 7.54247 9.43396 7.57056C9.92639 7.64095 10.81 7.91059 12 8.85302C13.4418 9.99485 14.9737 9.68021 15.4456 9.40853C15.478 9.67111 15.4941 9.93543 15.4941 10.2C15.4965 10.8469 15.3974 11.4902 15.2004 12.1064C15.1306 12.3229 15.0475 12.5349 14.9516 12.7412Z" fill="currentColor"/>
</svg>
