<svg width="24" height="24" viewBox="0 0 24 24" fill="currentColor" xmlns="http://www.w3.org/2000/svg">
<path fill-rule="evenodd" clip-rule="evenodd" d="M5.40001 22.2001C4.73727 22.2001 4.20001 21.6628 4.20001 21V20.9946V1.80005H13.8V5.40017C13.8001 6.72561 14.8746 7.80005 16.2 7.80005H19.8V22.2001H5.40001ZM15 5.40005V1.80005L19.8 6.60005H16.0666C15.4776 6.60005 15 6.06286 15 5.40005ZM9.60001 15L9.5979 10.5585C9.59968 10.0296 10.0283 9.60139 10.5572 9.60005H13.4428C13.9718 9.60139 14.4003 10.0296 14.4021 10.5585L14.4 15H17.448L12.88 19.4532C12.6415 19.6766 12.3268 19.8006 12 19.8001C11.6804 19.8004 11.3732 19.676 11.1441 19.4532L6.55201 15H9.60001Z" fill="currentColor"/>
</svg>
