<svg width="24" height="24" viewBox="0 0 24 24" fill="currentColor" xmlns="http://www.w3.org/2000/svg">
<path fill-rule="evenodd" clip-rule="evenodd" d="M11.952 20.3513C7.3128 20.3513 3.5509 16.5905 3.552 11.9513C3.55263 9.32304 4.71391 6.96154 6.6 5.42402C6.61683 5.41231 6.63623 5.40481 6.65657 5.40216C6.98837 5.09966 7.46135 5.00784 7.88224 5.16421C8.30312 5.32058 8.60142 5.69895 8.65522 6.14471C8.70903 6.59047 8.50934 7.02895 8.13775 7.28098C8.1248 7.30462 8.10798 7.32593 8.088 7.34402C6.88606 8.3634 5.952 10.0196 5.952 11.9513C5.952 15.265 8.63832 17.9513 11.952 17.9513C15.2657 17.9513 17.952 15.265 17.952 11.9513C17.952 10.1112 17.0721 8.49257 15.768 7.39202C15.7151 7.34537 15.6653 7.2954 15.6187 7.24243C15.1041 6.85249 14.9907 6.12511 15.3622 5.59704C15.7336 5.06897 16.4565 4.92985 16.9975 5.28235L17.016 5.28002C19.0549 6.81264 20.352 9.20424 20.352 11.9513C20.352 16.5905 16.5912 20.3513 11.952 20.3513ZM11.976 13.2C11.3133 13.2 10.776 12.6628 10.776 12V3.60002C10.776 2.93728 11.3133 2.40002 11.976 2.40002C12.6387 2.40002 13.176 2.93728 13.176 3.60002V12C13.176 12.6628 12.6387 13.2 11.976 13.2Z" fill="currentColor"/>
</svg>
