<svg width="24" height="24" viewBox="0 0 24 24" fill="currentColor" xmlns="http://www.w3.org/2000/svg">
<path fill-rule="evenodd" clip-rule="evenodd" d="M21.5 9.40005H2.9C2.40355 9.4015 2.00145 9.8036 2 10.3001C2.00145 10.7965 2.40355 11.1986 2.9 11.2H3.66474C3.82128 11.2 3.95151 11.3204 3.96382 11.4765L4.3592 16.488C4.35973 16.4948 4.35999 16.5016 4.36002 16.5084C4.36518 18.2168 5.65935 19.6 7.25509 19.6H17.1449C18.7406 19.6 20.0348 18.2168 20.04 16.5084C20.04 16.5016 20.0403 16.4948 20.0408 16.488L20.4362 11.4765C20.4485 11.3204 20.5787 11.2 20.7353 11.2H21.5C21.9965 11.1986 22.3986 10.7965 22.4 10.3001C22.3986 9.8036 21.9965 9.4015 21.5 9.40005ZM20.7779 7.02715C20.5831 6.96875 20.3919 6.89926 20.205 6.81904C18.0146 5.84781 15.4926 5.26315 12.8 5.18721V4.89143C12.8 4.73051 12.9305 4.60005 13.0914 4.60005C13.2395 4.60195 13.3677 4.49739 13.3956 4.35189C13.4106 4.26462 13.3864 4.17516 13.3295 4.10735C13.2725 4.03955 13.1886 4.00029 13.1 4.00002H11.3086C11.1605 3.99815 11.0323 4.10272 11.0044 4.24821C10.9894 4.33548 11.0136 4.42494 11.0705 4.49275C11.1275 4.56055 11.2114 4.59981 11.3 4.60005C11.4657 4.60005 11.6 4.73436 11.6 4.90005V5.18721C8.90739 5.26315 6.38542 5.84781 4.19499 6.81904C4.00814 6.89926 3.81686 6.96875 3.62209 7.02715C3.33899 7.11524 3.16268 7.3969 3.20715 7.69003C3.25161 7.98317 3.50351 8.19987 3.8 8.20005H20.6C20.8965 8.19987 21.1484 7.98317 21.1929 7.69003C21.2373 7.3969 21.061 7.11524 20.7779 7.02715Z" fill="currentColor"/>
</svg>
