<svg width="24" height="24" viewBox="0 0 24 24" fill="currentColor" xmlns="http://www.w3.org/2000/svg">
<path fill-rule="evenodd" clip-rule="evenodd" d="M13.8 3.5999L12.6 2.3999H4.2V16.7999C4.2 17.4626 4.73726 17.9999 5.4 17.9999V3.5999H13.8ZM15.6 5.3999L14.4 4.1999H6V18.5999C6 19.2626 6.53726 19.7999 7.2 19.7999V5.3999H15.6ZM15.24 8.9999V5.9999H7.8V20.3999C7.8 21.0626 8.33726 21.5999 9 21.5999H19.8V10.5599H16.8C15.9388 10.5589 15.241 9.86106 15.24 8.9999ZM19.8 9.5999H16.8C16.4686 9.5999 16.2 9.33127 16.2 8.9999V5.9999L19.8 9.5999ZM10.4483 16.2854H17.2717C17.447 16.2842 17.6095 16.377 17.6974 16.5285C17.7854 16.6801 17.7854 16.8672 17.6974 17.0188C17.6095 17.1703 17.447 17.2631 17.2717 17.2619H10.4483C10.273 17.2631 10.1105 17.1703 10.0226 17.0188C9.93458 16.8672 9.93458 16.6801 10.0226 16.5285C10.1105 16.377 10.273 16.2842 10.4483 16.2854ZM10.4483 13.8922H17.2717C17.447 13.8909 17.6095 13.9837 17.6974 14.1353C17.7854 14.2869 17.7854 14.4739 17.6974 14.6255C17.6095 14.7771 17.447 14.8699 17.2717 14.8686H10.4483C10.273 14.8699 10.1105 14.7771 10.0226 14.6255C9.93458 14.4739 9.93458 14.2869 10.0226 14.1353C10.1105 13.9837 10.273 13.8909 10.4483 13.8922ZM10.4483 18.6794H13.8593C14.1276 18.6813 14.3441 18.8993 14.3441 19.1677C14.3441 19.436 14.1276 19.654 13.8593 19.6559H10.4483C10.273 19.6571 10.1105 19.5643 10.0226 19.4128C9.93458 19.2612 9.93458 19.0741 10.0226 18.9225C10.1105 18.771 10.273 18.6782 10.4483 18.6794ZM13.7061 11.4974C13.3995 12.2172 12.8679 12.5474 11.9826 12.5474C11.4169 12.5474 10.9523 12.3922 10.6016 12.0506C10.2764 11.7338 10.0769 11.326 9.97999 10.8424H9.68479C9.47383 10.8424 9.33593 10.7001 9.33593 10.4931C9.33593 10.2829 9.47068 10.117 9.68479 10.117H9.9264C9.92556 10.0364 9.9264 9.9419 9.9264 9.90204C9.9264 9.84355 9.92337 9.82145 9.9264 9.71397H9.68486C9.4739 9.71397 9.336 9.54492 9.336 9.33782C9.336 9.13073 9.4739 8.93481 9.68486 8.93481H10.0069C10.1171 8.42431 10.3261 7.97599 10.6512 7.66454C11 7.33037 11.4605 7.1759 11.9826 7.1759C12.8378 7.1759 13.3934 7.52131 13.6815 8.22825C13.7105 8.28961 13.7251 8.35682 13.724 8.4247C13.724 8.58756 13.6263 8.72808 13.456 8.7989L13.4497 8.81405H13.443C13.3943 8.8409 13.3301 8.83013 13.268 8.83013C13.1033 8.83013 12.9708 8.71932 12.9044 8.55931C12.7209 8.11786 12.4796 7.95081 11.9826 7.95081C11.4077 7.95081 10.9952 8.26325 10.812 8.93496H12.6368C12.851 8.93496 12.9771 9.12549 12.9771 9.33151C12.9771 9.54257 12.8479 9.71412 12.6368 9.71412H10.7046C10.7015 9.82159 10.7046 9.83949 10.7046 9.90218C10.7046 9.94022 10.7037 10.0366 10.7046 10.1171H12.3148C12.5321 10.1171 12.6477 10.28 12.6477 10.4933C12.6477 10.6971 12.5226 10.8426 12.3148 10.8426H10.7851C10.9499 11.4874 11.3735 11.7678 11.9826 11.7678C12.5087 11.7678 12.7395 11.5987 12.8975 11.2048L12.898 11.2033L12.8987 11.2019C12.9742 11.0265 13.1099 10.93 13.2806 10.93C13.3293 10.9307 13.3775 10.9386 13.4238 10.9536C13.609 11.004 13.743 11.1655 13.743 11.3328C13.7437 11.3898 13.731 11.4462 13.7061 11.4974Z" fill="currentColor"/>
</svg>
