<svg width="24" height="24" viewBox="0 0 24 24" fill="currentColor" xmlns="http://www.w3.org/2000/svg">
<path fill-rule="evenodd" clip-rule="evenodd" d="M21 12.3816C20.9927 12.1526 20.898 11.9351 20.7353 11.7738L20.4002 11.4389V4.19971C20.4001 3.20569 19.5942 2.40002 18.6002 2.40002H3.59998V17.3973C3.59998 18.392 4.40536 19.1987 5.39998 19.2H10.704L9.61061 21.2151L8.6946 22.92L10.4145 22.032L13.0468 20.6729L13.1297 20.63L13.1958 20.564C13.4948 20.265 13.9864 19.7816 14.568 19.2001H20.4L20.4002 13.3657C20.5775 13.1886 20.7486 13.0177 20.7529 13.0133C20.9173 12.8449 21.0065 12.617 21 12.3816ZM10.56 12.5447L8.66638 9.88788C8.50044 9.67128 8.23109 9.67128 8.06537 9.88788L5.27998 13.008C4.99865 12.7961 4.80958 12.5633 4.79998 12.0814V3.59981H18.3002C18.7972 3.59981 19.2002 4.00265 19.2002 4.49964V10.3942L17.6059 11.9873L14.5896 8.56147C14.4233 8.34478 14.1542 8.34478 13.9882 8.56147L10.56 12.5447ZM18.9746 13.9374C18.9712 13.9414 18.9675 13.9451 18.9635 13.9484C17.3111 15.6008 13.8416 19.0696 12.7715 20.1398L10.1392 21.4989L11.5341 18.9027L17.9208 12.5252L18.9633 13.5396C19.0167 13.5921 19.0485 13.6627 19.0523 13.7375C19.0558 13.8121 19.0276 13.8847 18.9746 13.9374ZM20.3221 12.5955C20.3188 12.5992 20.3152 12.6027 20.3113 12.606L19.5821 13.3348L18.3445 12.0974L19.2777 11.1648L20.3106 12.1976C20.4254 12.3126 20.4305 12.4872 20.3221 12.5955ZM9.59926 6.85013C9.6195 7.46546 9.2617 8.03067 8.69687 8.27563C8.13204 8.52058 7.47488 8.39552 7.0395 7.96022C6.60413 7.52492 6.47895 6.86779 6.72379 6.30291C6.96864 5.73803 7.5338 5.38013 8.14913 5.40026C8.93896 5.42611 9.57327 6.0603 9.59926 6.85013Z" fill="currentColor"/>
</svg>
