<svg width="24" height="24" viewBox="0 0 24 24" fill="currentColor" xmlns="http://www.w3.org/2000/svg">
<path fill-rule="evenodd" clip-rule="evenodd" d="M20.9957 4.19006H2.99572C2.33379 4.192 1.79766 4.72813 1.79572 5.39006V10.162C1.79766 10.8239 2.33379 11.36 2.99572 11.362H20.9957C21.6577 11.36 22.1938 10.8239 22.1957 10.162V5.39006C22.1938 4.72813 21.6577 4.192 20.9957 4.19006ZM20.9957 9.84758C20.995 10.0811 20.8059 10.2702 20.5724 10.2709H14.5728V5.35622H20.5724C20.8059 5.35693 20.995 5.54606 20.9957 5.77958V9.84758ZM20.9957 12.6181H2.99572C2.33379 12.6201 1.79766 13.1562 1.79572 13.8181V18.5901C1.79766 19.252 2.33379 19.7881 2.99572 19.7901H20.9957C21.6577 19.7881 22.1938 19.252 22.1957 18.5901V13.8181C22.1938 13.1562 21.6577 12.6201 20.9957 12.6181ZM20.9957 18.1667C20.995 18.4002 20.8059 18.5894 20.5724 18.5901H8.99572V13.6753H20.5724C20.8059 13.6761 20.995 13.8652 20.9957 14.0987V18.1667Z" fill="currentColor"/>
</svg>
