<svg width="24" height="24" viewBox="0 0 24 24" fill="currentColor" xmlns="http://www.w3.org/2000/svg">
<path fill-rule="evenodd" clip-rule="evenodd" d="M22.1206 17.6856C22.1042 17.6376 22.0896 17.5892 22.0761 17.5404C22.0761 17.5406 22.0761 17.5401 22.0761 17.5404L19.9628 10.5745C19.7836 9.95052 19.0056 9.60864 18.4107 9.59998H5.59925C4.98552 9.5891 4.25011 9.96862 4.0471 10.5745C3.36764 12.814 2.68822 15.0534 2.00885 17.2929C1.98497 17.3715 1.95 17.4461 1.92149 17.5233C1.84389 17.7285 1.80279 17.9457 1.80005 18.165V18.3C1.80005 18.6979 1.95828 19.0795 2.2397 19.3608C2.52112 19.6421 2.90277 19.8 3.30067 19.8H20.6994C21.527 19.7977 22.1974 19.1276 22.2001 18.3V18.165C22.2001 18.0019 22.1732 17.8399 22.1206 17.6856ZM7.19842 16.0301C7.14038 16.4127 7.08234 16.7953 7.0243 17.178C6.91841 17.5468 6.4579 17.658 6.12154 17.6652H4.16885C3.89525 17.6796 3.40505 17.5399 3.4667 17.178C3.56621 16.7953 3.6657 16.4127 3.76519 16.0301C3.89162 15.6943 4.33342 15.5333 4.66798 15.5429H6.49625C6.78422 15.5473 7.21728 15.6691 7.19842 16.0301ZM7.58477 13.4832C7.52672 13.8658 7.46868 14.2485 7.41065 14.6311C7.31559 14.9852 6.89791 15.1105 6.57123 15.1183H4.76782C4.49285 15.1336 4.06515 14.9752 4.12901 14.6311C4.22851 14.2485 4.32801 13.8658 4.4275 13.4832C4.54344 13.1627 4.94251 12.9868 5.26692 12.996H6.94596C7.23012 13.001 7.60884 13.1402 7.58477 13.4832ZM7.02091 12.5714H5.36676C5.09525 12.5799 4.71607 12.4199 4.79129 12.0842C4.89079 11.7016 4.99029 11.3189 5.08978 10.9363C5.19538 10.6325 5.55221 10.4405 5.86586 10.4491H7.39565C7.67278 10.4437 8.00547 10.6153 7.9711 10.9363C7.91306 11.3189 7.85502 11.7016 7.79698 12.0842C7.71221 12.4224 7.33788 12.5627 7.02091 12.5714ZM11.2934 17.178C11.2376 17.5517 10.7702 17.6594 10.454 17.6652H8.50133C8.21364 17.6784 7.72639 17.5404 7.73573 17.178L7.88498 16.0301C7.96786 15.6886 8.40763 15.5319 8.72441 15.5429H10.5528C10.857 15.5488 11.2852 15.6699 11.3184 16.0301C11.3101 16.4127 11.3017 16.7954 11.2934 17.178ZM11.3486 14.6311C11.302 14.9893 10.8813 15.1119 10.5726 15.1183H8.76912C8.48352 15.132 8.05258 14.9768 8.06698 14.6311C8.1167 14.2484 8.16645 13.8658 8.21621 13.4832C8.29034 13.1578 8.68346 12.9852 8.9923 12.996H10.6713C10.9688 13.0025 11.3481 13.14 11.3735 13.4832C11.3652 13.8658 11.3569 14.2484 11.3486 14.6311ZM11.4038 12.0841C11.3654 12.4255 10.9926 12.5641 10.691 12.5713H9.03691C8.75347 12.5856 8.37972 12.4114 8.3981 12.0841L8.54736 10.9362C8.6131 10.6285 8.95975 10.4385 9.26016 10.449H10.7899C11.0779 10.4466 11.4161 10.6127 11.4288 10.9362C11.4204 11.3189 11.4121 11.7015 11.4038 12.0841ZM12.5812 10.9362C12.5939 10.6126 12.9321 10.4465 13.22 10.449H14.7498C15.0555 10.4584 15.3917 10.6136 15.4626 10.9362L15.6119 12.0841C15.6305 12.4257 15.2589 12.5659 14.973 12.5713H13.3188C13.0223 12.5833 12.6408 12.4109 12.606 12.0841C12.5978 11.7015 12.5895 11.3188 12.5812 10.9362ZM12.6364 13.4832C12.6588 13.1545 13.0457 12.9832 13.3386 12.996H15.0176C15.3331 13.0043 15.7133 13.1432 15.7937 13.4832L15.9429 14.6311C15.9561 14.9907 15.5306 15.1135 15.2407 15.1183H13.4373C13.1352 15.1303 12.7029 14.9749 12.6612 14.6311C12.653 14.2484 12.6447 13.8658 12.6364 13.4832ZM15.5085 17.6653H13.5559C13.2484 17.6771 12.7656 17.5374 12.7164 17.1781C12.7081 16.7954 12.6998 16.4128 12.6916 16.0302C12.7204 15.6842 13.1593 15.5304 13.4572 15.543H15.2854C15.6104 15.5504 16.0342 15.6743 16.1248 16.0302L16.2741 17.1781C16.2807 17.5541 15.8027 17.6609 15.5085 17.6653ZM16.2129 12.0841C16.1548 11.7015 16.0968 11.3188 16.0387 10.9362C16.0044 10.6152 16.3371 10.4436 16.6142 10.449H18.144C18.4645 10.46 18.8071 10.6178 18.9201 10.9362C19.0196 11.3188 19.1191 11.7015 19.2186 12.0841C19.2939 12.4199 18.9147 12.5799 18.6432 12.5713H16.9889C16.6787 12.5817 16.2912 12.4077 16.2129 12.0841ZM16.5993 14.6311C16.5411 14.2484 16.4831 13.8658 16.4251 13.4832C16.4015 13.1545 16.782 12.9814 17.0639 12.996H18.7429C19.0753 13.0058 19.4579 13.1484 19.5823 13.4832C19.6819 13.8658 19.7813 14.2485 19.8808 14.6311C19.9473 14.9882 19.5184 15.1148 19.242 15.1183H17.4386C17.1201 15.1289 16.6867 14.9708 16.5993 14.6311ZM19.841 17.6653H17.8883C17.5619 17.6759 17.0822 17.5325 16.9855 17.1781C16.9275 16.7954 16.8694 16.4128 16.8114 16.0302C16.7916 15.6829 17.2298 15.5289 17.5136 15.543H19.3418C19.6538 15.551 20.145 15.6765 20.2446 16.0302C20.3441 16.4128 20.4436 16.7954 20.5431 17.1781C20.6058 17.5524 20.1185 17.6621 19.841 17.6653ZM11.9959 5.62498C13.8602 5.6246 15.3719 7.13564 15.3722 8.99998H17.3981L16.2801 7.85246L16.6743 6.29998L15.1322 5.86495L14.697 4.32343L13.1438 4.71744L11.9959 3.59998L10.8479 4.71744L9.29477 4.32343L8.85955 5.86495L7.31741 6.29998L7.71159 7.85246L6.59364 8.99998H8.61948C8.61967 8.10469 8.97549 7.24614 9.60869 6.6132C10.2419 5.98027 11.1006 5.62479 11.9959 5.62498Z" fill="currentColor"/>
</svg>
