<svg width="24" height="24" viewBox="0 0 24 24" fill="currentColor" xmlns="http://www.w3.org/2000/svg">
<path fill-rule="evenodd" clip-rule="evenodd" d="M9.59999 19.8C9.59999 20.1314 9.86862 20.4 10.2 20.4H10.9609C11.1752 20.7713 11.5713 21 12 21C12.4287 21 12.8248 20.7713 13.039 20.4H13.8C14.1314 20.4 14.4 20.1314 14.4 19.8V18H9.59999V19.8ZM12 3C9.01765 3 6.59998 5.41766 6.59998 8.4C6.59833 9.48936 6.92775 10.5535 7.54458 11.4514C9.20968 14.0102 9.55578 16.2074 9.60222 16.5604C9.63399 17.0329 10.0264 17.4 10.5 17.4H13.5C13.9544 17.4 14.3374 17.0612 14.393 16.6102C14.393 16.6102 14.6448 14.1835 16.5297 11.3406C17.0993 10.4658 17.4016 9.44394 17.4 8.4C17.4 5.41766 14.9823 3 12 3Z" fill="currentColor"/>
</svg>
