<svg width="24" height="24" viewBox="0 0 24 24" fill="currentColor" xmlns="http://www.w3.org/2000/svg">
<path fill-rule="evenodd" clip-rule="evenodd" d="M15 1.79999H8.99995V6.59999H15V1.79999ZM11.4 5.39999H10.2V4.19999H11.4V5.39999ZM13.8 5.39999H12.6V4.19999H13.8V5.39999ZM16.8 8.43935C16.7979 7.7557 16.2442 7.20199 15.5606 7.19999H8.43931C7.75566 7.20199 7.20195 7.7557 7.19995 8.43935V17.3606C7.19995 17.365 7.20024 17.3693 7.20029 17.3737C7.20029 17.3825 7.19995 17.3912 7.19995 17.4001C7.19995 20.0511 9.34898 22.2001 12 22.2001C14.6509 22.2001 16.8 20.0511 16.8 17.4001C16.8 17.3913 16.7997 17.3826 16.7996 17.3737C16.7996 17.3693 16.8 17.365 16.8 17.3606V8.43935ZM14.4 17.4H10.0455C9.70198 17.4 9.42348 17.1215 9.42348 16.7779V13.0456H10.2529V12.0088C10.2506 11.4146 10.5663 10.8646 11.0805 10.5669C11.5946 10.2692 12.2288 10.2692 12.743 10.5669C13.2571 10.8646 13.5728 11.4146 13.5705 12.0088V13.0456H13.7779C14.1214 13.0456 14.4 13.3241 14.4 13.6676V17.4ZM11.9117 10.972C11.3391 10.972 10.8749 11.4362 10.8749 12.0088V13.0456H12.9485V12.0088C12.9485 11.4362 12.4843 10.972 11.9117 10.972ZM12.2148 14.1612C11.9148 13.9937 11.5359 14.1012 11.3685 14.4012C11.2011 14.7012 11.3086 15.0802 11.6086 15.2476L11.497 16.3632H12.3264L12.2148 15.2475C12.4117 15.1376 12.5337 14.9298 12.5337 14.7044C12.5337 14.4789 12.4117 14.2711 12.2148 14.1612Z" fill="currentColor"/>
</svg>
