<svg width="24" height="24" viewBox="0 0 24 24" fill="currentColor" xmlns="http://www.w3.org/2000/svg">
<path fill-rule="evenodd" clip-rule="evenodd" d="M7.776 9.60005C7.11326 9.60005 6.576 10.1373 6.576 10.8C6.576 11.4628 7.11326 12 7.776 12C8.43874 12 8.976 11.4628 8.976 10.8C8.976 10.1373 8.43874 9.60005 7.776 9.60005ZM16.176 9.60005C15.5133 9.60005 14.976 10.1373 14.976 10.8C14.976 11.4628 15.5133 12 16.176 12C16.8387 12 17.376 11.4628 17.376 10.8C17.376 10.1373 16.8387 9.60005 16.176 9.60005ZM15 15.9C14.9986 15.4036 14.5965 15.0015 14.1 15H9.9C9.40355 15.0015 9.00145 15.4036 9 15.9V16.2C9 16.8628 10.3431 17.4 12 17.4C13.6569 17.4 15 16.8628 15 16.2V15.9ZM12 1.80005C6.3667 1.80005 1.8 6.36674 1.8 12C1.8 17.6334 6.3667 22.2001 12 22.2001C17.6333 22.2001 22.2 17.6334 22.2 12C22.2 6.36674 17.6333 1.80005 12 1.80005ZM12 21C7.02943 21 3 16.9706 3 12C3 7.02948 7.02943 3.00005 12 3.00005C16.9706 3.00005 21 7.02948 21 12C21 16.9706 16.9706 21 12 21Z" fill="currentColor"/>
</svg>
