<svg width="24" height="24" viewBox="0 0 24 24" fill="currentColor" xmlns="http://www.w3.org/2000/svg">
<path fill-rule="evenodd" clip-rule="evenodd" d="M10.2025 18.0014L10.1947 15.469L7.94609 16.775C7.32941 17.1501 7.072 17.9142 7.33556 18.5862C7.59912 19.2581 8.30763 19.6432 9.01485 19.499C9.72207 19.3548 10.2232 18.7229 10.2025 18.0014ZM20.9795 12.371C21.0369 12.0125 21.0658 11.65 21.0659 11.287C21.0658 7.52496 18.0162 4.47525 14.2542 4.47504H14.2482C12.3111 4.47485 10.4659 5.30095 9.17578 6.74594C7.63665 6.6066 6.22426 7.60584 5.84333 9.10358C3.50676 9.60026 1.79578 11.6778 1.79578 14.1094C1.79578 16.3267 3.21314 18.2191 5.18938 18.9286C5.374 18.9954 5.57957 18.968 5.74032 18.8553C5.90107 18.7426 5.99687 18.5587 5.99707 18.3624C5.99816 18.1097 5.84048 17.8836 5.60302 17.7972C4.08778 17.2568 3.00022 15.8078 3.00022 14.1094C3.00022 12.1336 4.47679 10.4635 6.43486 10.2247L6.91373 10.1663L6.95885 9.71054C7.008 9.184 7.2666 8.69927 7.67657 8.36522C8.01952 8.08797 8.44728 7.93688 8.88828 7.93725C8.95284 7.93725 9.01772 7.94045 9.08292 7.94685C9.15373 7.95388 9.2241 7.96478 9.29371 7.97949L9.6558 8.05629L9.88776 7.76788C10.9501 6.44725 12.5537 5.67926 14.2486 5.67948H14.2535C15.7408 5.67943 17.1671 6.27021 18.2188 7.32184C19.2705 8.37347 19.8613 9.79982 19.8613 11.2871C19.8613 11.6848 19.8193 12.0814 19.7359 12.4703L19.6578 12.8342L19.9464 13.0652C20.6063 13.5934 20.9904 14.3928 20.9904 15.2381C20.9903 16.7761 19.7434 18.0234 18.2053 18.0233H12.0194C11.6868 18.0233 11.4172 18.2929 11.4172 18.6254C11.4172 18.7852 11.4806 18.9383 11.5936 19.0513C11.7065 19.1642 11.8597 19.2276 12.0194 19.2276H18.2053C20.405 19.2276 22.1946 17.4384 22.1949 15.2388C22.1984 14.157 21.7593 13.1208 20.9795 12.371Z" fill="currentColor"/>
</svg>
