<svg width="24" height="24" viewBox="0 0 24 24" fill="currentColor" xmlns="http://www.w3.org/2000/svg">
<path fill-rule="evenodd" clip-rule="evenodd" d="M21.8323 17.6168L13.9459 4.11677C13.7503 3.78245 13.4722 3.50429 13.1379 3.30869C12.0629 2.68013 10.6822 3.04205 10.0536 4.11677L2.18617 17.5834L2.18545 17.5848L2.16673 17.6165C1.96489 17.9621 1.85905 18.3552 1.86001 18.7556C1.86217 19.9976 2.87113 21.0027 4.11313 21.0003H19.8862C20.2865 21.001 20.6796 20.8949 21.0252 20.6931C22.0975 20.0664 22.459 18.6891 21.8323 17.6168ZM14.952 16.9025C14.6309 17.2236 14.1101 17.2239 13.7887 16.9028L11.8587 14.9712L9.92857 16.9025C9.60985 17.2265 9.08881 17.2308 8.76481 16.9121C8.44081 16.5934 8.43649 16.0724 8.75521 15.7484C8.75857 15.745 8.76193 15.7416 8.76529 15.7385L10.6954 13.8075L8.83393 11.9451C8.51449 11.6218 8.51785 11.1008 8.84113 10.7813C9.16153 10.465 9.67681 10.465 9.99721 10.7811L11.8587 12.6435L13.7201 10.7811C14.0386 10.4568 14.5596 10.452 14.8839 10.7705C15.2081 11.089 15.2129 11.6098 14.8944 11.9343C14.8908 11.9379 14.8872 11.9415 14.8836 11.9451L13.0222 13.8075L14.9523 15.7383C15.2734 16.0599 15.2731 16.5809 14.952 16.9025Z" fill="currentColor"/>
</svg>
