<svg width="24" height="24" viewBox="0 0 24 24" fill="currentColor" xmlns="http://www.w3.org/2000/svg">
<path fill-rule="evenodd" clip-rule="evenodd" d="M18.6 8.40005C18.6 4.75505 15.645 1.80005 12 1.80005C8.35493 1.80005 5.39997 4.75505 5.39997 8.40005C5.39821 9.54954 5.69808 10.6794 6.26962 11.6767L12 22.2001L17.7304 11.6767C18.302 10.6794 18.6018 9.54954 18.6 8.40005ZM12 13.2C10.2847 13.2007 8.69956 12.2857 7.84229 10.8H12.6V12L14.88 10.44C14.9555 10.3834 15 10.2945 15 10.2C15 10.1056 14.9555 10.0167 14.88 9.96005L12.6 8.40005V9.60005H7.35118C7.25048 9.20801 7.19968 8.80482 7.19998 8.40005C7.19998 5.74908 9.34901 3.60005 12 3.60005C13.7152 3.59936 15.3004 4.51438 16.1577 6.00005H11.4V4.80005L9.11998 6.36005C9.04444 6.41671 8.99998 6.50562 8.99998 6.60005C8.99998 6.69448 9.04444 6.78339 9.11998 6.84005L11.4 8.40005V7.20005H16.6488C16.7495 7.59209 16.8003 7.99528 16.8 8.40005C16.8 11.051 14.6509 13.2 12 13.2Z" fill="currentColor"/>
</svg>
