<svg width="24" height="24" viewBox="0 0 24 24" fill="currentColor" xmlns="http://www.w3.org/2000/svg">
<path fill-rule="evenodd" clip-rule="evenodd" d="M19.8 3.60001H2.40002V18.6C2.40002 19.5941 3.20591 20.4 4.20002 20.4H21.6V5.40001C21.6 4.40589 20.7941 3.60001 19.8 3.60001ZM10.4486 4.20001L11.3636 5.11508L10.5151 5.9636L8.7515 4.20001H10.4486ZM3.00002 6.95149L6.26362 10.2151L5.4151 11.0636L3.00002 8.64853V6.95149ZM3.00002 16.8728V14.3272L13.1272 4.20001H15.6728L3.00002 16.8728ZM21 8.40001H18.2486L16.4486 10.2L21 14.7515V16.4485L15.6 11.0486L11.8964 14.7522C12.0346 15.1043 12.0346 15.4957 11.8964 15.8478L15.8486 19.8H14.1515L11.0478 16.6964C10.6957 16.8346 10.3043 16.8346 9.95222 16.6964L6.84857 19.8H5.15148L9.10368 15.8478C8.96547 15.4957 8.96547 15.1043 9.10368 14.7522L7.53648 13.185L8.385 12.3365L9.9522 13.9037C10.3043 13.7655 10.6957 13.7655 11.0478 13.9037L14.7515 10.2L12.6364 8.08493L13.485 7.23641L15.6 9.35149L17.7515 7.20001H21V8.40001Z" fill="currentColor"/>
</svg>
