<svg width="24" height="24" viewBox="0 0 24 24" fill="currentColor" xmlns="http://www.w3.org/2000/svg">
<path fill-rule="evenodd" clip-rule="evenodd" d="M3.2 4H21.2C21.8627 4 22.4 4.53726 22.4 5.2V18.4C22.4 19.0627 21.8627 19.6 21.2 19.6H3.2C2.53726 19.6 2 19.0627 2 18.4V5.2C2 4.53726 2.53726 4 3.2 4ZM3.8 5.2H8C8.33137 5.2 8.6 5.46863 8.6 5.8V17.8C8.6 18.1314 8.33137 18.4 8 18.4H3.8C3.46863 18.4 3.2 18.1314 3.2 17.8V5.8C3.2 5.46863 3.46863 5.2 3.8 5.2ZM10.112 5.2H14.312C14.6434 5.2 14.912 5.46863 14.912 5.8V17.8C14.912 18.1314 14.6434 18.4 14.312 18.4H10.112C9.78063 18.4 9.512 18.1314 9.512 17.8V5.8C9.512 5.46863 9.78063 5.2 10.112 5.2ZM16.4 5.2H20.6C20.9314 5.2 21.2 5.46863 21.2 5.8V17.8C21.2 18.1314 20.9314 18.4 20.6 18.4H16.4C16.0686 18.4 15.8 18.1314 15.8 17.8V5.8C15.8 5.46863 16.0686 5.2 16.4 5.2ZM17 5.8H20C20.3314 5.8 20.6 6.06863 20.6 6.4V7C20.6 7.33137 20.3314 7.6 20 7.6H17C16.6686 7.6 16.4 7.33137 16.4 7V6.4C16.4 6.06863 16.6686 5.8 17 5.8ZM17 8.2H20C20.3314 8.2 20.6 8.46863 20.6 8.8V9.4C20.6 9.73137 20.3314 10 20 10H17C16.6686 10 16.4 9.73137 16.4 9.4V8.8C16.4 8.46863 16.6686 8.2 17 8.2ZM17 10.6H20C20.3314 10.6 20.6 10.8686 20.6 11.2V11.8C20.6 12.1314 20.3314 12.4 20 12.4H17C16.6686 12.4 16.4 12.1314 16.4 11.8V11.2C16.4 10.8686 16.6686 10.6 17 10.6ZM17 13H20C20.3314 13 20.6 13.2686 20.6 13.6V14.2C20.6 14.5314 20.3314 14.8 20 14.8H17C16.6686 14.8 16.4 14.5314 16.4 14.2V13.6C16.4 13.2686 16.6686 13 17 13ZM18.488 16C18.8194 16 19.088 16.2686 19.088 16.6C19.088 16.9314 18.8194 17.2 18.488 17.2C18.1566 17.2 17.888 16.9314 17.888 16.6C17.888 16.2686 18.1566 16 18.488 16ZM10.712 5.8H13.712C14.0434 5.8 14.312 6.06863 14.312 6.4V7C14.312 7.33137 14.0434 7.6 13.712 7.6H10.712C10.3806 7.6 10.112 7.33137 10.112 7V6.4C10.112 6.06863 10.3806 5.8 10.712 5.8ZM10.712 8.2H13.712C14.0434 8.2 14.312 8.46863 14.312 8.8V9.4C14.312 9.73137 14.0434 10 13.712 10H10.712C10.3806 10 10.112 9.73137 10.112 9.4V8.8C10.112 8.46863 10.3806 8.2 10.712 8.2ZM10.712 10.6H13.712C14.0434 10.6 14.312 10.8686 14.312 11.2V11.8C14.312 12.1314 14.0434 12.4 13.712 12.4H10.712C10.3806 12.4 10.112 12.1314 10.112 11.8V11.2C10.112 10.8686 10.3806 10.6 10.712 10.6ZM10.712 13H13.712C14.0434 13 14.312 13.2686 14.312 13.6V14.2C14.312 14.5314 14.0434 14.8 13.712 14.8H10.712C10.3806 14.8 10.112 14.5314 10.112 14.2V13.6C10.112 13.2686 10.3806 13 10.712 13ZM12.2 16C12.5314 16 12.8 16.2686 12.8 16.6C12.8 16.9314 12.5314 17.2 12.2 17.2C11.8686 17.2 11.6 16.9314 11.6 16.6C11.6 16.2686 11.8686 16 12.2 16ZM4.4 5.8H7.4C7.73137 5.8 8 6.06863 8 6.4V7C8 7.33137 7.73137 7.6 7.4 7.6H4.4C4.06863 7.6 3.8 7.33137 3.8 7V6.4C3.8 6.06863 4.06863 5.8 4.4 5.8ZM4.4 8.2H7.4C7.73137 8.2 8 8.46863 8 8.8V9.4C8 9.73137 7.73137 10 7.4 10H4.4C4.06863 10 3.8 9.73137 3.8 9.4V8.8C3.8 8.46863 4.06863 8.2 4.4 8.2ZM4.4 10.6H7.4C7.73137 10.6 8 10.8686 8 11.2V11.8C8 12.1314 7.73137 12.4 7.4 12.4H4.4C4.06863 12.4 3.8 12.1314 3.8 11.8V11.2C3.8 10.8686 4.06863 10.6 4.4 10.6ZM4.4 13H7.4C7.73137 13 8 13.2686 8 13.6V14.2C8 14.5314 7.73137 14.8 7.4 14.8H4.4C4.06863 14.8 3.8 14.5314 3.8 14.2V13.6C3.8 13.2686 4.06863 13 4.4 13ZM5.888 16C6.21937 16 6.488 16.2686 6.488 16.6C6.488 16.9314 6.21937 17.2 5.888 17.2C5.55663 17.2 5.288 16.9314 5.288 16.6C5.288 16.2686 5.55663 16 5.888 16Z" fill="currentColor"/>
</svg>
