<svg width="24" height="24" viewBox="0 0 24 24" fill="currentColor" xmlns="http://www.w3.org/2000/svg">
<path fill-rule="evenodd" clip-rule="evenodd" d="M4.2857 12.2386V4.2857H18.9612C18.6887 3.51521 17.9602 3 17.1429 3H3V17.1429C3 17.9602 3.51521 18.6887 4.2857 18.9612V12.2386ZM19.0714 4.92857H4.92857V19.0714C4.92857 20.1366 5.79202 21 6.85714 21H21V6.85714C21 5.79202 20.1366 4.92857 19.0714 4.92857ZM19.7143 15.8571L15.3919 10.8667C15.2359 10.6635 14.9837 10.6635 14.8281 10.8667L11.6143 14.6016L9.83899 12.1104C9.68345 11.9073 9.43099 11.9073 9.27557 12.1104L6.66437 15.036C6.40061 14.8373 6.22337 14.619 6.21437 14.1672V6.2143H18.8705C19.0943 6.2143 19.3089 6.30318 19.4672 6.46141C19.6254 6.61965 19.7143 6.83426 19.7143 7.05804V15.8571ZM8.0143 9.3C8.0143 8.72797 8.35888 8.21226 8.88737 7.99336C9.41586 7.77445 10.0242 7.89546 10.4287 8.29995C10.8331 8.70444 10.9541 9.31276 10.7352 9.84124C10.5163 10.3697 10.0006 10.7143 9.42857 10.7143C8.64748 10.7143 8.0143 10.0811 8.0143 9.3Z" fill="currentColor"/>
</svg>
