<svg width="24" height="24" viewBox="0 0 24 24" fill="currentColor" xmlns="http://www.w3.org/2000/svg">
<path fill-rule="evenodd" clip-rule="evenodd" d="M20.9943 18.905H2.9943C2.66293 18.905 2.3943 19.1737 2.3943 19.505C2.3943 19.8364 2.66293 20.105 2.9943 20.105H20.9943C21.3257 20.105 21.5943 19.8364 21.5943 19.505C21.5943 19.1737 21.3257 18.905 20.9943 18.905ZM5.9223 16.805C5.9223 17.3021 5.51936 17.705 5.0223 17.705C4.52525 17.705 4.1223 17.3021 4.1223 16.805C4.1223 16.308 4.52525 15.905 5.0223 15.905C5.51936 15.905 5.9223 16.308 5.9223 16.805ZM8.9223 13.805C8.9223 14.6335 8.25073 15.305 7.4223 15.305C6.59387 15.305 5.9223 14.6335 5.9223 13.805C5.9223 12.9766 6.59387 12.305 7.4223 12.305C8.25073 12.305 8.9223 12.9766 8.9223 13.805ZM16.7223 12.005C16.7223 13.4962 15.5135 14.705 14.0223 14.705C12.5311 14.705 11.3223 13.4962 11.3223 12.005C11.3223 10.5139 12.5311 9.30503 14.0223 9.30503C15.5135 9.30503 16.7223 10.5139 16.7223 12.005ZM11.3223 8.70503C11.3223 10.0305 10.2478 11.105 8.9223 11.105C7.59682 11.105 6.5223 10.0305 6.5223 8.70503C6.5223 7.37955 7.59682 6.30503 8.9223 6.30503C10.2478 6.30503 11.3223 7.37955 11.3223 8.70503ZM17.3223 6.30503C17.3223 7.29914 16.5164 8.10503 15.5223 8.10503C14.5282 8.10503 13.7223 7.29914 13.7223 6.30503C13.7223 5.31092 14.5282 4.50503 15.5223 4.50503C16.5164 4.50503 17.3223 5.31092 17.3223 6.30503ZM19.7223 4.80503C19.7223 5.30209 19.3194 5.70503 18.8223 5.70503C18.3252 5.70503 17.9223 5.30209 17.9223 4.80503C17.9223 4.30797 18.3252 3.90503 18.8223 3.90503C19.3194 3.90503 19.7223 4.30797 19.7223 4.80503Z" fill="currentColor"/>
</svg>
