<svg width="24" height="24" viewBox="0 0 24 24" fill="currentColor" xmlns="http://www.w3.org/2000/svg">
<path fill-rule="evenodd" clip-rule="evenodd" d="M18.4536 7.08823L12.1001 3.41999C11.8894 3.29861 11.6391 3.26591 11.4043 3.32909C11.1695 3.39227 10.9694 3.54616 10.848 3.75688L3.96577 15.6775C3.71222 16.1157 3.86191 16.6765 4.30012 16.9301L10.6536 20.5982C11.0923 20.851 11.6529 20.7002 11.9056 20.2615L18.7878 8.34088C19.0414 7.90267 18.8918 7.34186 18.4536 7.08823ZM14.4519 5.30771L15.6429 5.99531C15.7526 6.05866 15.7902 6.19897 15.7269 6.30871C15.6635 6.41844 15.5232 6.45603 15.4135 6.39268L14.2224 5.70508C14.1127 5.6417 14.0751 5.50137 14.1385 5.39164C14.2019 5.28191 14.3422 5.24434 14.4519 5.30771ZM7.70622 18.3668C7.54538 18.2741 7.45622 18.0937 7.48032 17.9097C7.50442 17.7256 7.63704 17.5742 7.81631 17.5261C7.99559 17.478 8.1862 17.5426 8.29922 17.6898C8.41225 17.8371 8.42543 18.0379 8.33262 18.1987C8.20607 18.4181 7.92563 18.4934 7.70622 18.3668ZM11.5704 19.0084L5.21857 15.3412L11.4127 4.61262L17.7645 8.27983L11.5704 19.0084ZM6.74895 3.90331L6.72325 5.26768L7.75458 6.15772L6.45061 6.55759L5.92189 7.81641L5.1417 6.69906L3.78354 6.58711L4.60532 5.49676L4.29474 4.16879L5.58282 4.61217L6.74895 3.90331ZM20.2526 12.4008L20.2851 13.3543L21.0401 13.9375L20.1419 14.265L19.8183 15.1634L19.2306 14.4122L18.2754 14.3844L18.8105 13.5928L18.5439 12.6771L19.4622 12.9388L20.2526 12.4008ZM18.9323 16.3121L18.9307 18.0524L20.2692 19.1634L18.6117 19.7034L17.9649 21.3207L16.9421 19.9139L15.2036 19.8024L16.229 18.3932L15.8016 16.707L17.4581 17.2427L18.9323 16.3121Z" fill="currentColor"/>
</svg>
