<svg width="24" height="24" viewBox="0 0 24 24" fill="currentColor" xmlns="http://www.w3.org/2000/svg">
<path fill-rule="evenodd" clip-rule="evenodd" d="M12 10.44C14.3859 10.44 16.32 8.50586 16.32 6.11999C16.32 3.73412 14.3859 1.79999 12 1.79999C9.61415 1.79999 7.68002 3.73412 7.68002 6.11999C7.68002 8.50586 9.61415 10.44 12 10.44ZM15.7848 10.1378C13.6592 12.1406 10.3412 12.1407 8.21546 10.138C6.51737 11.0635 5.444 12.8265 5.40156 14.76H5.40002V19.8C5.40002 21.1255 6.47454 22.2 7.80002 22.2H18.6V14.88C18.6007 12.903 17.5207 11.0838 15.7848 10.1378ZM17.4 18.96C17.4 19.0925 17.2926 19.2 17.16 19.2H15.6V20.76C15.6 20.8925 15.4926 21 15.36 21H14.64C14.5075 21 14.4 20.8925 14.4 20.76V19.2H12.84C12.7075 19.2 12.6 19.0925 12.6 18.96V18.24C12.6 18.1074 12.7075 18 12.84 18H14.4V16.44C14.4 16.3074 14.5075 16.2 14.64 16.2H15.36C15.4926 16.2 15.6 16.3074 15.6 16.44V18H17.16C17.2926 18 17.4 18.1074 17.4 18.24V18.96Z" fill="currentColor"/>
</svg>
