<svg width="24" height="24" viewBox="0 0 24 24" fill="currentColor" xmlns="http://www.w3.org/2000/svg">
<path fill-rule="evenodd" clip-rule="evenodd" d="M20.8205 13.7264C20.9128 13.2976 20.9592 12.8601 20.9591 12.4215C20.9591 9.00387 18.1831 6.23352 14.7587 6.23352C12.8835 6.2314 11.1084 7.07902 9.9312 8.53863C9.22586 8.38942 8.49034 8.54708 7.90813 8.97227C7.32591 9.39747 6.95189 10.0501 6.87936 10.7674C4.64909 11.0389 2.92152 12.9351 2.92152 15.2342C2.92152 17.7196 4.94045 19.7345 7.43093 19.7345H18.7044C20.5723 19.7345 22.0865 18.2233 22.0865 16.3592C22.0871 15.3347 21.6212 14.3657 20.8205 13.7264ZM16.0944 15.3734V9.41148C16.0988 9.03044 15.8981 8.67642 15.5688 8.4846C15.2396 8.29278 14.8326 8.29278 14.5033 8.4846C14.174 8.67642 13.9733 9.03044 13.9777 9.41148V9.76469H14.5069C14.6037 9.76582 14.6815 9.84456 14.6815 9.9413C14.6815 10.038 14.6037 10.1168 14.5069 10.1179H13.9776V10.4712H14.5068C14.6035 10.4723 14.6813 10.5511 14.6813 10.6478C14.6813 10.7445 14.6035 10.8233 14.5068 10.8244H13.9776V11.1776H14.5068C14.6043 11.1776 14.6834 11.2567 14.6834 11.3542C14.6834 11.4517 14.6043 11.5308 14.5068 11.5308H13.9776V15.3734C13.3702 15.829 13.1224 16.6222 13.3625 17.3425C13.6026 18.0628 14.2767 18.5486 15.036 18.5486C15.7953 18.5486 16.4694 18.0628 16.7095 17.3425C16.9496 16.6222 16.7018 15.829 16.0944 15.3734ZM15.036 17.8459C14.5583 17.8452 14.14 17.525 14.0147 17.064C13.8895 16.6029 14.0881 16.1151 14.4998 15.8727V12.3783C14.4985 12.1859 14.6004 12.0075 14.7669 11.9109C14.9333 11.8143 15.1387 11.8143 15.3052 11.9109C15.4716 12.0075 15.5735 12.1859 15.5722 12.3783V15.8727C15.9839 16.1151 16.1825 16.603 16.0572 17.064C15.9319 17.525 15.5137 17.8452 15.036 17.8459ZM4.17883 11.1583C4.17703 11.1059 4.17579 11.0534 4.17579 11.0005C4.17579 8.51655 6.19032 6.5028 8.6754 6.5028C9.33903 6.50194 9.99458 6.64841 10.5947 6.93166C11.1168 6.52898 11.6955 6.20558 12.312 5.97192L12.1051 5.02618L10.0878 5.66828L8.66206 4.104L7.23626 5.66828L5.21902 5.02618L4.76671 7.09349L2.69856 7.5456L3.34092 9.56201L1.776 10.9872L3.15161 12.24C3.43916 11.831 3.78526 11.4666 4.17883 11.1583Z" fill="currentColor"/>
</svg>
