<svg width="24" height="24" viewBox="0 0 24 24" fill="currentColor" xmlns="http://www.w3.org/2000/svg">
<path fill-rule="evenodd" clip-rule="evenodd" d="M20.3992 10.2095C20.4003 10.0493 20.337 9.89536 20.2236 9.78226L18.8211 8.38039L19.3339 6.46759C19.4199 6.14658 19.2303 5.8164 18.9096 5.72897L16.9928 5.21556L16.4792 3.2995C16.3933 2.97954 16.0644 2.78972 15.7444 2.87547L13.8275 3.38883L12.4243 1.98619C12.19 1.752 11.8102 1.752 11.5758 1.98619L10.1726 3.38883L8.25571 2.87544C7.93572 2.7897 7.60679 2.97952 7.52093 3.29947L7.00733 5.21554L5.09045 5.72897C4.76992 5.81645 4.58031 6.14646 4.66615 6.46743L5.17896 8.38039L3.77659 9.78216C3.54241 10.0179 3.54241 10.3984 3.77659 10.6342L5.17896 12.036L4.6662 13.9488C4.58011 14.2698 4.76977 14.6 5.09045 14.6874L7.00733 15.2008L7.52093 17.1169C7.60678 17.4368 7.9357 17.6267 8.25569 17.541L10.1726 17.0275L11.5758 18.4302C11.8102 18.6644 12.19 18.6644 12.4243 18.4302L13.8275 17.0275L15.7444 17.541C16.0644 17.6266 16.3933 17.4368 16.4791 17.1168L16.9927 15.2008L18.9096 14.6874C19.2301 14.5999 19.4197 14.2699 19.3339 13.9489L18.8212 12.036L20.2235 10.6343C20.3364 10.5217 20.3996 10.3688 20.3992 10.2095ZM12 15.0037C9.34932 15.0037 7.2005 12.8557 7.2005 10.2061C7.2005 7.55654 9.34932 5.40855 12 5.40855C14.6508 5.40855 16.7996 7.55654 16.7996 10.2061C16.7996 12.8557 14.6508 15.0037 12 15.0037ZM16.1997 10.2061C16.1997 12.5245 14.3194 14.404 12 14.404C9.68066 14.404 7.80043 12.5245 7.80043 10.2061C7.80043 7.88774 9.68069 6.0084 12 6.0084C14.3194 6.0084 16.1997 7.88774 16.1997 10.2061ZM17.0587 17.2681C16.9764 17.5755 16.7752 17.8375 16.4996 17.9966C16.224 18.1557 15.8965 18.1987 15.5891 18.1162L14.1731 17.737L16.7996 22.2L17.3996 19.8013L19.7994 20.401L17.3538 16.167L17.0587 17.2681ZM8.41097 18.1162C8.10363 18.1987 7.77609 18.1557 7.50048 17.9967C7.22486 17.8376 7.02375 17.5755 6.94142 17.2681L6.64622 16.1671L4.20079 20.401L6.60057 19.8013L7.20057 22.2L9.82697 17.737L8.41097 18.1162Z" fill="currentColor"/>
</svg>
