<svg width="24" height="24" viewBox="0 0 24 24" fill="currentColor" xmlns="http://www.w3.org/2000/svg">
<path fill-rule="evenodd" clip-rule="evenodd" d="M0 0V24H24V0H0ZM9.5729 17.9126C9.5729 18.4451 9.42236 18.894 9.12127 19.2593C8.82018 19.6246 8.39791 19.8072 7.85446 19.8072C7.33303 19.8072 6.9172 19.6236 6.60696 19.2564C6.29672 18.8892 6.14158 18.4412 6.14155 17.9124V7.57994H5.10607C4.625 7.57994 4.22202 7.44501 3.89712 7.17514C3.57222 6.90526 3.40974 6.53532 3.40966 6.0653C3.40966 5.59161 3.57126 5.21801 3.89446 4.9445C4.21766 4.671 4.62156 4.5341 5.10617 4.5341H7.74432C8.32445 4.5341 8.77425 4.69566 9.09372 5.01878C9.41319 5.3419 9.5729 5.79722 9.5729 6.38472V17.9126ZM20.465 7.2384L15.5659 18.4524C15.1655 19.3997 14.5942 19.8734 13.8521 19.8734C13.5568 19.8721 13.2663 19.7984 13.0061 19.6586C12.7353 19.5179 12.5041 19.3115 12.3338 19.0582C12.159 18.8 12.0676 18.4943 12.0722 18.1825C12.1016 17.852 12.1604 17.5968 12.2485 17.4169L16.7397 7.57994H12.1382C11.657 7.57994 11.2547 7.44314 10.9314 7.16954C10.6081 6.89594 10.4465 6.5205 10.4465 6.0432C10.4465 5.57323 10.6072 5.20421 10.9286 4.93613C11.2501 4.66805 11.6533 4.53406 12.1382 4.53406H18.8889C19.4914 4.53406 19.9488 4.69194 20.2611 5.00772C20.5917 5.33092 20.7571 5.72932 20.7571 6.20292C20.7571 6.48575 20.6597 6.83091 20.465 7.2384Z" fill="currentColor"/>
</svg>
