<svg width="24" height="24" viewBox="0 0 24 24" fill="currentColor" xmlns="http://www.w3.org/2000/svg">
<path fill-rule="evenodd" clip-rule="evenodd" d="M21 7.17014V9.06876C21.3495 9.23354 21.6 9.67776 21.6 10.2002V13.8002C21.6 14.3227 21.3495 14.7669 21 14.9317V16.8303C21.7357 16.9805 22.247 17.6515 22.1966 18.4007C22.1462 19.1499 21.5497 19.7464 20.8005 19.7968C20.0513 19.8472 19.3803 19.3359 19.2301 18.6002H17.0435C16.8787 18.9497 16.4345 19.2002 15.912 19.2002H7.80001C7.27755 19.2002 6.83333 18.9497 6.66855 18.6002H4.76994C4.6197 19.3359 3.94868 19.8472 3.1995 19.7968C2.45032 19.7464 1.85379 19.1499 1.80341 18.4007C1.75303 17.6515 2.26432 16.9805 3.00001 16.8303V14.9317C2.6505 14.7669 2.40001 14.3227 2.40001 13.8002V10.2002C2.40001 9.67776 2.6505 9.23354 3.00001 9.06876V7.17014C2.26432 7.01991 1.75303 6.34888 1.80341 5.5997C1.85379 4.85052 2.45032 4.254 3.1995 4.20362C3.94868 4.15324 4.6197 4.66453 4.76994 5.40022H6.66855C6.83333 5.0507 7.27755 4.80022 7.80001 4.80022H15.912C16.4345 4.80022 16.8787 5.0507 17.0435 5.40022H19.2301C19.3803 4.66453 20.0513 4.15324 20.8005 4.20362C21.5497 4.254 22.1462 4.85052 22.1966 5.5997C22.247 6.34888 21.7357 7.01991 21 7.17014ZM4.20001 6.60021H19.8V17.4002H4.20001V6.60021ZM7.17601 7.17621C8.17012 7.17621 8.97601 7.9821 8.97601 8.97621C8.97601 9.97033 8.17012 10.7762 7.17601 10.7762C6.18189 10.7762 5.37601 9.97033 5.37601 8.97621C5.37601 8.49883 5.56565 8.04099 5.90321 7.70342C6.24078 7.36586 6.69862 7.17621 7.17601 7.17621ZM4.80193 16.6901V16.8H19.2V16.6874C19.2 16.2152 19.2024 15.743 19.1969 15.2709C19.1932 15.2085 19.1684 15.1493 19.1267 15.1029C17.6743 13.5499 16.531 12.0957 15.0039 10.5933C14.7862 10.3791 14.5741 10.3899 14.3871 10.6264C12.6756 12.791 10.3423 15.1665 10.3423 15.1665C10.3423 15.1665 10.2813 15.1029 10.258 15.0753C9.46686 14.141 8.57955 13.2065 7.78918 12.2714C7.56786 12.0096 7.37598 11.9987 7.13213 12.2386C6.34901 13.009 5.66252 13.78 4.87789 14.549C4.82636 14.5942 4.79785 14.6601 4.80009 14.7287C4.80318 15.3824 4.80193 16.0362 4.80193 16.6901Z" fill="currentColor"/>
</svg>
