<svg width="24" height="24" viewBox="0 0 24 24" fill="currentColor" xmlns="http://www.w3.org/2000/svg">
<path fill-rule="evenodd" clip-rule="evenodd" d="M12 7.5702C8.99834 7.56636 6.11902 8.75932 3.99963 10.8849L5.41146 12.2971C7.15738 10.5469 9.52789 9.56337 12 9.56337C14.4721 9.56337 16.8426 10.5469 18.5885 12.2971L20.0003 10.8849C17.881 8.75932 15.0016 7.56637 12 7.5702ZM14.3991 18.0002C14.3988 19.3252 13.3245 20.399 11.9996 20.3988C10.6746 20.3986 9.60068 19.3244 9.6008 17.9994C9.60092 16.6745 10.675 15.6005 12 15.6005C12.6364 15.6005 13.2466 15.8534 13.6966 16.3035C14.1465 16.7535 14.3992 17.3638 14.3991 18.0002ZM6.82319 13.7092L8.23501 15.1214C9.23339 14.1227 10.5877 13.5616 11.9999 13.5616C13.4121 13.5616 14.7664 14.1227 15.7648 15.1214L17.1768 13.7092C15.804 12.3359 13.9418 11.5644 12 11.5644C10.0582 11.5644 8.19598 12.3359 6.82319 13.7092Z" fill="currentColor"/>
</svg>
