<svg width="24" height="24" viewBox="0 0 24 24" fill="currentColor" xmlns="http://www.w3.org/2000/svg">
<path fill-rule="evenodd" clip-rule="evenodd" d="M15.6836 12.7242C15.1622 12.7242 14.7115 12.9146 14.3315 13.2952C13.9515 13.6758 13.7614 14.1253 13.7614 14.6437C13.7614 15.1733 13.9505 15.6293 14.3287 16.0117C14.7069 16.3941 15.1586 16.5853 15.6836 16.5853C16.2124 16.5853 16.6677 16.3941 17.0496 16.0117C17.4314 15.6293 17.6224 15.1733 17.6224 14.6437C17.6224 14.1253 17.4305 13.6758 17.0468 13.2952C16.6631 12.9145 16.2087 12.7242 15.6836 12.7242ZM0 0V24H24V0H0ZM8.89142 17.9126C8.89142 18.4451 8.74087 18.894 8.43977 19.2593C8.13866 19.6246 7.7164 19.8072 7.17298 19.8072C6.65155 19.8072 6.23572 19.6236 5.92548 19.2564C5.61524 18.8892 5.4601 18.4412 5.46005 17.9124V7.57994H4.42457C3.94351 7.57994 3.54053 7.44501 3.21562 7.17514C2.8907 6.90526 2.72818 6.53532 2.72818 6.0653C2.72818 5.59161 2.88974 5.21801 3.21286 4.9445C3.53598 4.671 3.93988 4.5341 4.42457 4.5341H7.06282C7.64294 4.5341 8.09275 4.69566 8.41224 5.01878C8.73173 5.3419 8.89142 5.79722 8.89142 6.38472V17.9126ZM20.481 17.3012C20.0385 18.1217 19.3731 18.8005 18.5616 19.2593C17.7372 19.731 16.8073 19.967 15.7719 19.967C14.74 19.967 13.8009 19.7485 12.9546 19.3116C12.1084 18.8746 11.441 18.2522 10.9525 17.4444C10.4641 16.6366 10.22 15.7095 10.22 14.6629C10.22 13.4659 10.5009 12.2891 11.0627 11.1325C11.6245 9.97591 12.3753 8.79172 13.3152 7.57994C13.8586 6.8493 14.4975 6.06719 15.2319 5.23361C15.8488 4.525 16.4124 4.1706 16.9228 4.1706C17.3377 4.1706 17.7269 4.3083 18.0905 4.58369C18.454 4.85908 18.6358 5.19508 18.6357 5.59169C18.6357 6.12415 18.4099 6.62904 17.9583 7.10635L17.2368 7.87195C16.8072 8.33099 16.2215 9.06904 15.4798 10.0861C15.902 9.9503 16.2783 9.88238 16.6089 9.88231C17.4105 9.87863 18.198 10.0938 18.8863 10.5047C20.2998 11.3404 21.166 12.8612 21.1639 14.5032C21.1639 15.5351 20.9363 16.4678 20.481 17.3012Z" fill="currentColor"/>
</svg>
