<svg width="24" height="24" viewBox="0 0 24 24" fill="currentColor" xmlns="http://www.w3.org/2000/svg">
<path fill-rule="evenodd" clip-rule="evenodd" d="M17.4 22.1999H11.4C10.7373 22.1999 10.2 21.6626 10.2 20.9999V13.1999H11.4V19.7999H17.4V7.7999H11.4V10.1999H10.2V7.7999C10.2065 7.14257 10.7413 6.5999 11.4 6.5999H17.4C18.0627 6.5999 18.6 7.14917 18.6 7.8119V20.9999C18.6 21.6626 18.0627 22.1999 17.4 22.1999ZM14.4 20.3999C14.0686 20.3999 13.8 20.6685 13.8 20.9999C13.8 21.3313 14.0686 21.5999 14.4 21.5999C14.7314 21.5999 15 21.3313 15 20.9999C15 20.6685 14.7314 20.3999 14.4 20.3999ZM14.0032 11.4071C14.0784 11.4803 14.1208 11.5808 14.1208 11.6857C14.1208 11.7907 14.0784 11.8911 14.0032 11.9643L12 13.7999V12.5999H10.8C9.6 12.5999 8.976 11.8407 8.976 10.8977C8.976 10.351 9.19003 9.86441 9.59726 9.5519V9.97754C9.59726 10.4128 9.90058 10.7999 10.344 10.7999H12V9.5999L14.0032 11.4071ZM13.2 4.8119V3.5999H7.2V15.5999H9.6V17.9999H7.2C6.53726 17.9999 6 17.4626 6 16.7999V3.6119C6 2.94917 6.53729 2.3999 7.2 2.3999H13.2C13.8627 2.3999 14.4 2.94917 14.4 3.6119V5.9999H13.2V4.8119Z" fill="currentColor"/>
</svg>
