<svg width="24" height="24" viewBox="0 0 24 24" fill="currentColor" xmlns="http://www.w3.org/2000/svg">
<path fill-rule="evenodd" clip-rule="evenodd" d="M15.8576 5.83636C15.9111 5.83962 15.9757 5.83998 16.023 5.86909C16.0372 5.87788 16.1166 5.98376 16.0763 5.99389C16.0307 6.00524 15.9621 5.98744 15.9379 6.04112C15.9259 6.06791 15.9427 6.09904 15.9251 6.12673C15.9124 6.14689 15.8695 6.15635 15.8642 6.17999C15.8515 6.23963 15.9516 6.19523 15.9605 6.24109C15.9701 6.29195 15.8203 6.33532 15.8165 6.41111C15.8134 6.47322 15.8105 6.53303 15.8887 6.51368C15.9804 6.4911 16.0426 6.4089 16.128 6.37285C16.1546 6.36174 16.2118 6.3658 16.2312 6.353C16.3293 6.28866 16.4574 6.3506 16.5631 6.33779C16.6578 6.32622 16.7211 6.22194 16.7053 6.12805C16.697 6.07945 16.6784 6.08437 16.6303 6.07765C16.5309 6.06414 16.5118 6.02809 16.4671 5.94659C16.4175 5.85623 16.299 5.81096 16.2319 5.73455C16.2049 5.704 16.1753 5.65964 16.1856 5.61695C16.1959 5.57425 16.286 5.51351 16.2048 5.4788C16.1602 5.4596 16.1126 5.4836 16.0671 5.47667C16.0051 5.46683 16.0488 5.40978 16.0068 5.38525C15.9734 5.36605 15.8928 5.39226 15.8611 5.40419C15.8115 5.42298 15.754 5.45418 15.7246 5.50043C15.6857 5.56184 15.7203 5.58709 15.7328 5.64505C15.7643 5.79078 15.8348 5.64092 15.8576 5.83636ZM7.93264 16.9196C7.72891 16.692 7.65766 16.3752 7.74438 16.0824C7.57695 16.1325 7.39838 16.1315 7.23152 16.0795C7.21712 16.2681 7.22276 16.4554 7.19118 16.6433C7.14966 16.8901 7.02376 17.11 6.93236 17.3401C6.90582 17.4069 6.8697 17.4924 6.8853 17.5662C6.91024 17.6838 7.03468 17.7006 6.96822 17.8355C6.92056 17.9327 6.84685 18.0194 6.78618 18.1089C6.75258 18.1581 6.72119 18.2129 6.72208 18.2745C6.72268 18.3201 6.7503 18.3602 6.7449 18.4054C6.73753 18.4677 6.68104 18.5099 6.66863 18.5705C6.65377 18.6444 6.69294 18.7368 6.72316 18.8028C6.85165 19.0812 7.38059 19.5411 7.71877 19.4397C7.84259 19.4025 7.91521 19.2039 7.90427 19.088C7.88941 18.9283 7.79507 19.0128 7.68524 18.9746C7.48232 18.9036 7.84052 18.4819 7.82528 18.3462C7.81878 18.2893 7.77248 18.2422 7.77037 18.1811C7.76459 18.0155 8.08741 17.7333 8.22637 17.6745C8.36996 17.6135 8.47427 17.5075 8.59501 17.419C8.34183 17.3005 8.11621 17.1304 7.93264 16.9196ZM12 1.79999C6.36656 1.79999 1.79999 6.36666 1.79999 12C1.79999 17.6333 6.36656 22.2 12 22.2C17.6334 22.2 22.2 17.6333 22.2 12C22.2 6.36664 17.6333 1.79999 12 1.79999ZM20.2376 8.84824C20.1748 8.82448 20.1085 8.81108 20.0413 8.80856C19.9141 8.80674 19.826 8.74916 19.7073 8.71784C19.6153 8.69346 19.5105 8.63965 19.4165 8.63353C19.2968 8.6259 19.1894 8.68412 19.1597 8.80182C19.1477 8.84862 19.1433 8.90677 19.0938 8.93017C19.0109 8.96924 18.9152 8.89026 18.8355 8.87466C18.7716 8.86635 18.7087 8.85142 18.6479 8.83012C18.6208 8.81899 18.596 8.80294 18.5747 8.78276C18.5577 8.76596 18.5387 8.71674 18.5197 8.70736C18.4252 8.66019 18.3215 8.63459 18.216 8.6324C18.1188 8.6272 18.0306 8.60982 17.9509 8.5508C17.8222 8.45524 17.976 8.42264 17.9527 8.31133C17.9493 8.29427 17.9093 8.24843 17.9122 8.23693C17.9551 8.06195 17.7641 8.10308 17.6292 8.13481C17.3777 8.15881 17.0615 8.07097 16.8447 8.17081C16.7541 8.17441 16.664 8.18717 16.5759 8.2089C16.601 8.22905 16.6251 8.25052 16.6479 8.27322L17.7157 9.34098C18.4481 10.0778 18.5411 11.236 17.9355 12.0802C17.9422 12.0858 17.9483 12.0921 17.9538 12.0988C18.0478 12.2178 17.9548 12.4524 17.9612 12.5868C17.9713 12.7977 18.0215 12.9006 18.1412 13.0696C18.3308 13.3372 18.572 13.6158 18.5154 13.967C18.4674 14.2642 18.1746 14.4566 18.2863 14.7815C18.3835 15.0645 18.5856 15.2348 18.656 15.5473C18.7136 15.8032 18.7745 15.8677 18.9045 16.0617C19.0467 16.2738 19.2391 17.1881 19.6843 16.6947C19.7781 16.6632 19.8541 16.7067 19.9394 16.7271C18.3245 19.4292 15.3702 21.2427 12 21.2427C6.90349 21.2427 2.75716 17.0965 2.75716 11.9999C2.75716 11.411 2.8133 10.8234 2.92496 10.2452C3.04141 10.3366 3.18193 10.3276 3.32 10.3998C3.35168 10.4584 3.38228 10.4531 3.4539 10.4598C3.5931 10.5155 3.73249 10.6018 3.88496 10.6018C4.08025 10.5525 4.15064 10.4783 4.27559 10.6378C4.3881 10.7813 4.67504 10.8501 4.84372 10.8824C4.94087 10.9009 5.03044 10.8954 5.1082 10.9606C5.17734 11.0189 5.2162 11.109 5.27401 11.1775C5.39034 11.3152 5.51084 11.4147 5.68897 11.4586C5.81034 11.4886 5.94006 11.4987 6.06289 11.5282L6.31196 11.2797C5.97181 11.2241 5.72975 10.9778 5.47156 10.7679C5.32808 10.6514 5.18336 10.5365 5.00524 10.4774C5.00905 10.4786 5.06557 10.008 4.98668 9.94076C4.78806 9.77123 4.55761 10.1408 4.39117 10.2072C3.98605 10.3693 3.75008 10.0558 3.71492 9.66841C3.63239 8.75975 5.03682 8.554 5.61539 8.99929C5.67349 9.044 5.87447 9.3441 5.9451 9.3226C6.06044 9.28756 5.97851 8.92708 5.9835 8.85263C5.99737 8.62672 6.01151 8.52901 6.23262 8.39903C6.35668 8.32616 6.44192 8.21423 6.5031 8.08573C6.5432 8.00123 6.56255 7.92395 6.62336 7.86676C6.47891 7.59392 6.48797 7.26534 6.64724 7.00088C6.80651 6.73642 7.0927 6.57474 7.40142 6.57481H8.07342C8.06051 6.56622 8.04774 6.55722 8.03447 6.54913C8.0206 6.54061 8.00622 6.53298 7.99184 6.52561C7.93422 6.49166 7.87091 6.46844 7.805 6.45707C7.78916 6.45522 7.77416 6.45707 7.75969 6.4545C7.75328 6.45325 7.72909 6.44888 7.74004 6.44147C7.74841 6.43842 7.75729 6.43697 7.7662 6.43722C7.77908 6.43532 7.79188 6.43312 7.8046 6.43091C7.83093 6.42569 7.85762 6.42253 7.88444 6.42145C7.97778 6.41905 8.06953 6.44416 8.16059 6.46295C8.20557 6.47296 8.25109 6.48035 8.29693 6.48508C8.32102 6.48846 8.34551 6.48759 8.36929 6.48251C8.3877 6.47752 8.43409 6.4917 8.43032 6.47555C8.42113 6.45841 8.38453 6.44392 8.39533 6.41948C8.40234 6.40338 8.42776 6.39479 8.44237 6.38742C8.46208 6.37823 8.48245 6.37052 8.50331 6.36438C8.59506 6.33508 8.68463 6.30044 8.77897 6.27889C8.82378 6.26799 8.86966 6.26207 8.91577 6.26125C8.93514 6.26117 8.9545 6.2622 8.97376 6.26432C8.99082 6.26624 9.02044 6.26574 9.03376 6.27796C9.04897 6.29202 9.03068 6.31156 9.02147 6.32305C9.00718 6.34068 8.99438 6.35945 8.98319 6.37919C8.95132 6.43615 8.92985 6.49834 8.9198 6.56284C8.9192 6.56677 8.9198 6.57092 8.91937 6.575H9.60719C9.53183 6.49504 9.3686 6.43453 9.31573 6.33712C9.25002 6.21539 9.30222 6.0616 9.20773 5.94275C9.10871 5.81826 8.94558 5.81893 8.81831 5.74271C8.63639 5.6338 8.54094 5.42332 8.36471 5.3086C8.09864 5.13539 7.97089 5.30845 7.68983 5.28582C7.51724 5.27209 7.42153 5.14331 7.29143 5.04822C6.99918 4.83462 6.62699 4.74119 6.27368 4.8752C6.22996 4.892 6.39568 5.42639 6.40316 5.45732C6.4916 5.81651 6.28033 5.58851 6.14226 5.80319C6.08413 5.89328 6.20108 5.97572 6.16338 6.05051C6.00368 6.36676 5.79056 5.85575 5.60898 5.74194C5.50604 5.67757 5.39956 5.66651 5.29127 5.64834C5.6419 5.27835 6.02225 4.93771 6.42851 4.62983C6.53593 4.63638 6.6826 4.58528 6.78258 4.59892C7.03823 4.63357 7.26179 4.77078 7.5044 4.84756C7.55514 4.86366 7.92587 4.89448 7.8956 4.87422C7.83246 4.83152 7.56515 4.77176 7.7636 4.74942C7.85108 4.76802 8.06665 4.84216 8.10536 4.75199C8.22757 4.6592 8.28496 4.66153 8.44292 4.66153C8.59228 4.55675 8.73613 4.47836 8.76342 4.30307C8.72176 4.2063 8.76772 4.13447 8.74182 4.0522C8.54195 4.00028 8.5767 3.90054 8.60116 3.77192C8.54946 3.70566 8.20691 3.5878 8.12418 3.61002C8.38044 3.4912 8.64274 3.384 8.91109 3.28842C9.14238 3.37453 9.38948 3.52842 9.33623 3.7298C9.41783 3.74404 9.50968 3.75044 9.58878 3.7202C9.60673 3.71334 9.62317 3.68785 9.6442 3.6914C9.66764 3.69544 9.67552 3.73278 9.68536 3.75025C9.69038 3.75845 9.69489 3.76696 9.69887 3.77572C9.69908 3.7762 9.75769 3.76559 9.76367 3.76508C9.78415 3.76347 9.80475 3.76413 9.82508 3.76705C9.86274 3.77065 9.8985 3.78527 9.9279 3.80908C9.93822 3.81817 9.97912 3.84493 9.9687 3.86332C9.96071 3.87676 9.92987 3.87479 9.91696 3.87532C9.90138 3.87613 9.8859 3.8763 9.87054 3.87851C9.84438 3.88247 9.81808 3.88638 9.79168 3.88957C9.76871 3.89477 9.74516 3.89688 9.72164 3.89586C9.68579 3.91852 9.80348 3.92245 9.8402 3.94081C9.87042 3.95617 9.90678 3.96001 9.93527 3.97847C9.98442 4.01012 9.8806 4.02954 9.86452 4.03729C9.83092 4.0532 9.79818 4.07065 9.76612 4.08968C9.72484 4.11239 9.68781 4.14206 9.65665 4.17738C9.63221 4.20554 9.6168 4.2404 9.61242 4.27744C9.61028 4.3218 9.6203 4.36591 9.64141 4.405C9.67062 4.46113 9.70482 4.51452 9.7436 4.56452C9.7484 4.57127 9.75308 4.57847 9.75836 4.58485C9.96817 4.84036 10.4667 5.20645 10.8186 5.16611C11.2058 5.12159 11.1735 4.62992 11.5421 4.49171C11.9108 4.35349 12.2938 4.25636 12.6786 4.17637C12.7852 4.15101 12.8903 4.11976 12.9933 4.08277C13.1388 4.0375 13.2867 4.00087 13.4364 3.97307C13.4617 3.96788 13.4875 3.96654 13.5131 3.9628C13.5211 3.96152 13.582 3.95118 13.5558 3.93604C13.5362 3.92748 13.5153 3.92224 13.4939 3.92053C13.4706 3.91645 13.4472 3.91333 13.424 3.90978C13.3802 3.90596 13.3372 3.89594 13.2963 3.88002C13.2863 3.87522 13.2659 3.8708 13.2691 3.85674C13.2727 3.83936 13.2999 3.84328 13.3123 3.84426C13.3632 3.84769 13.4155 3.84198 13.4665 3.84198C13.5201 3.84325 13.5738 3.84071 13.627 3.83437C13.6527 3.83068 13.678 3.82936 13.7036 3.82393C13.716 3.82153 13.7356 3.82492 13.7343 3.80675C13.7312 3.78128 13.7195 3.75762 13.7012 3.73967C13.6924 3.73105 13.6807 3.72604 13.6727 3.7167C13.6607 3.70288 13.6668 3.69404 13.6749 3.6796C13.6892 3.65858 13.7008 3.63579 13.7092 3.6118C13.7144 3.58442 13.718 3.55678 13.7201 3.529C13.7294 3.466 13.8437 3.45515 13.8887 3.44533C13.9502 3.43182 14.0535 3.40235 14.0749 3.33282C14.0992 3.25446 14.0157 3.22225 14.0151 3.15342C14.0146 3.10302 14.0979 3.10016 14.133 3.08248C14.1635 3.06724 14.1926 3.07412 14.2242 3.03671C14.2234 3.03335 14.2224 3.03064 14.2215 3.02768C15.4866 3.34157 16.6708 3.92023 17.6958 4.72544C17.4285 4.86253 17.1075 5.19899 17.6473 5.41372C17.8706 5.50252 18.0453 5.11578 18.2584 5.401C18.3024 5.45965 18.3489 5.54514 18.3024 5.61395C18.273 5.65748 18.1885 5.71897 18.1344 5.68187C18.0661 5.63555 18.1565 5.48238 18.0285 5.46107C17.938 5.44959 17.849 5.4911 17.7996 5.56777C17.7391 5.6644 17.8917 5.80297 17.8286 5.89828C17.7465 6.02245 17.543 5.92645 17.4277 5.97724C17.194 6.0802 16.9909 6.30229 16.7411 6.41468C16.6278 6.46566 16.4928 6.45548 16.372 6.46988C16.293 6.4791 16.1619 6.48908 16.1177 6.56718C16.0656 6.65932 16.3531 6.7767 16.4068 6.8139C16.5537 6.91561 16.6231 7.04545 16.4567 7.17308C16.2489 7.33204 15.8686 7.02568 15.6391 7.17604C15.6278 7.18384 15.6175 7.19303 15.6085 7.20337C15.6089 7.20388 15.6094 7.2044 15.6099 7.20496C15.8112 7.43607 15.8787 7.75483 15.7883 8.04769C15.9601 7.99961 16.1425 8.00523 16.311 8.0638C16.3136 8.06226 16.3156 8.06036 16.3184 8.059C16.3525 8.0422 16.391 8.0337 16.4196 8.00716C16.4672 7.96307 16.4469 7.88826 16.4663 7.83126C16.4859 7.77316 16.5321 7.7422 16.5731 7.70044C16.6012 7.67195 16.6217 7.63153 16.6547 7.60842C16.7073 7.5717 16.7804 7.58442 16.8382 7.55843C16.9323 7.51561 16.88 7.39345 16.964 7.33763C17.0232 7.29822 17.0938 7.32205 17.1554 7.34072C17.3235 7.39151 17.4315 7.28994 17.5918 7.27734C17.6079 7.27609 17.635 7.24871 17.6518 7.24196C17.7047 7.22022 17.7761 7.21602 17.8217 7.25485C17.8591 7.28641 17.8716 7.34022 17.9023 7.37756C17.9496 7.435 18.0275 7.46336 18.0885 7.50335C18.1573 7.5488 18.2016 7.5598 18.2773 7.57993C18.3597 7.60211 18.4304 7.679 18.5073 7.7182C18.5675 7.74884 18.6628 7.79288 18.6616 7.87336C18.6594 8.01448 18.4236 7.97708 18.3412 7.98083C18.3117 7.98205 18.1895 7.99043 18.1789 8.02124C18.1632 8.06713 18.3731 8.14175 18.4054 8.14715C18.4963 8.16256 18.5345 8.09862 18.5961 8.04457C18.6479 7.99926 18.7176 7.97099 18.7563 7.91204C18.7887 7.86277 18.7546 7.80911 18.7617 7.757C18.7676 7.71316 18.8037 7.71352 18.8171 7.67852C18.8416 7.6131 18.6974 7.55588 18.6565 7.54057C18.6176 7.52634 18.5777 7.51511 18.5371 7.50697C18.5115 7.50167 18.4551 7.50414 18.4337 7.48988C18.3561 7.438 18.346 7.35433 18.2709 7.29462C17.9997 7.16166 18.2227 6.98514 18.3446 7.14176C18.534 7.14988 18.5801 7.34881 18.7883 7.36496C18.8877 7.49092 19.0083 7.42343 19.0801 7.58298C19.0927 7.79137 19.1346 7.78849 19.3202 7.91884C19.3837 7.96348 19.3575 8.18694 19.4917 8.15056C19.5343 8.13889 19.5842 8.08645 19.6186 8.05955C19.6385 8.04395 19.6854 8.02079 19.6981 7.99897C19.7374 7.93156 19.6139 7.92697 19.5901 7.8856C19.479 7.69285 19.7498 7.63691 19.884 7.6436C20.0104 7.65006 20.0201 7.80846 20.0456 7.90112C20.0583 7.95454 20.0842 8.00387 20.1211 8.04455C20.1429 8.06693 20.1682 8.08558 20.196 8.09975C20.2416 8.12315 20.2893 8.12879 20.3323 8.15884C20.3617 8.18451 20.3958 8.20426 20.4328 8.21699C20.5188 8.40812 20.5985 8.60262 20.6717 8.80048C20.67 8.80048 20.668 8.80048 20.6663 8.80048C20.52 8.80751 20.3863 8.89679 20.2376 8.84824ZM17.2964 9.68207L16.2302 8.61599C16.1284 8.71784 15.3164 9.529 14.481 10.3644L11.8056 13.0397L8.59172 16.2536C8.67656 16.3384 9.06707 16.5746 9.6328 16.6278C10.2278 16.7031 15.808 16.6789 15.808 16.6789L13.9389 14.8097C13.9389 14.8097 16.5789 12.1695 17.0501 11.6984C17.7525 10.996 17.7835 10.1691 17.2964 9.68207ZM6.68072 14.34L7.74452 15.4038L9.49218 13.656L12.1676 10.9807C13.8404 9.30786 15.3814 7.7668 15.3814 7.7668C15.2966 7.68191 14.908 7.44652 14.3424 7.39331C13.7473 7.318 8.1692 7.3431 8.1692 7.3431L10.0356 9.20944L6.92303 12.3219C6.22079 13.0243 6.19364 13.8528 6.68072 14.34Z" fill="currentColor"/>
</svg>
