<svg width="24" height="24" viewBox="0 0 24 24" fill="currentColor" xmlns="http://www.w3.org/2000/svg">
<path fill-rule="evenodd" clip-rule="evenodd" d="M17.2763 7.52125C17.2999 7.34377 17.3123 7.16497 17.3133 6.98593C17.3133 4.53313 15.2249 2.54437 12.6506 2.54437C10.7506 2.54437 9.1182 3.62936 8.39189 5.18322C5.3592 5.52133 3 8.0912 3 11.2109C3 14.5605 5.71958 17.2774 9.07236 17.2774C9.5416 17.2775 10.0093 17.2232 10.466 17.1157L10.2761 20.748C10.2764 21.1921 10.6366 21.5518 11.0806 21.5518H13.4184C13.8625 21.5518 14.2226 21.1921 14.2229 20.748L14.0372 17.1948C14.6021 17.3933 15.1965 17.4945 15.7953 17.4941C18.6709 17.4941 21.0001 15.215 21.0001 12.4026C21.0001 10.0937 19.4296 8.14499 17.2763 7.52125ZM14.3777 15.5313L13.0328 16.95L13.1256 20.0401C13.1268 20.1355 13.0896 20.2274 13.0223 20.2951C12.955 20.3628 12.8634 20.4006 12.768 20.4H11.712C11.6163 20.4007 11.5244 20.3629 11.4567 20.2953C11.3891 20.2276 11.3514 20.1357 11.352 20.04L11.5086 14.4589C11.5118 14.2552 11.6763 14.0909 11.88 14.088H12.6C12.8007 14.088 12.9586 14.2583 12.9586 14.4589L12.9999 15.8441L13.8683 15.0225C13.9389 14.9519 14.0533 14.9519 14.1239 15.0225L14.3777 15.2761C14.4116 15.31 14.4306 15.3559 14.4306 15.4037C14.4306 15.4516 14.4115 15.4975 14.3777 15.5313Z" fill="currentColor"/>
</svg>
