<svg width="24" height="24" viewBox="0 0 24 24" fill="currentColor" xmlns="http://www.w3.org/2000/svg">
<path fill-rule="evenodd" clip-rule="evenodd" d="M12.1155 22.3999C11.4762 22.3994 10.8388 22.329 10.2147 22.1899C8.9038 21.8986 7.6748 21.3173 6.61808 20.4886C5.48941 19.5982 4.60012 18.469 3.97489 17.1327C3.39179 15.8866 3.0668 14.5253 3.0088 13.0866C2.94849 11.554 3.19881 10.0251 3.74471 8.59174C4.31224 7.11266 5.19656 5.78818 6.30212 4.76148C7.81009 3.36118 9.81944 2.42016 11.9601 2.11169C14.1008 1.80322 16.2943 2.13871 18.1365 3.05623C18.5346 3.25356 18.7969 3.64858 18.8244 4.09207C18.8519 4.53556 18.6403 4.95994 18.2695 5.20489C17.8988 5.44985 17.4255 5.47805 17.0283 5.27885C14.1494 3.84497 10.3498 4.39253 7.99348 6.58068C6.32761 8.1277 5.39228 10.5224 5.4915 12.9867C5.53547 14.0785 5.78929 15.1484 6.22552 16.0808C6.68533 17.0636 7.33535 17.8908 8.15752 18.5395C9.69445 19.7521 11.7712 20.2087 13.5773 19.7311C14.6039 19.4555 15.536 18.9053 16.2733 18.1396C16.9894 17.3904 17.4678 16.4648 17.6206 15.5332C17.7852 14.4977 17.573 13.4375 17.0226 12.545C16.3444 11.4574 15.1356 10.7249 13.943 10.679C12.7351 10.6332 11.5359 11.3082 11.027 12.3224C10.718 12.9409 10.6715 13.6579 10.898 14.3112C11.103 14.8973 11.5124 15.3571 12.0505 15.6059C12.6729 15.8939 12.9439 16.632 12.6559 17.2544C12.3678 17.8768 11.6298 18.1478 11.0074 17.8597C9.85336 17.3262 8.98158 16.357 8.5526 15.1307C8.10559 13.8427 8.19694 12.4288 8.806 11.2091C9.7521 9.32354 11.855 8.11241 14.0387 8.19749C16.0616 8.27539 18.0129 9.43798 19.1313 11.2315C19.9931 12.6136 20.3361 14.3279 20.0725 15.9349C19.8395 17.3552 19.1284 18.7473 18.07 19.8547C16.5187 21.4844 14.3656 22.4047 12.1155 22.3999Z" fill="currentColor"/>
</svg>
