<svg width="24" height="24" viewBox="0 0 24 24" fill="currentColor" xmlns="http://www.w3.org/2000/svg">
<path fill-rule="evenodd" clip-rule="evenodd" d="M22.224 10.2227L19.824 10.6547C19.9584 11.9723 19.8608 13.1192 19.6035 14.1172C21.3201 14.8265 22.3671 16.579 22.1782 18.4267C21.9892 20.2745 20.6091 21.7788 18.7844 22.1259C16.9598 22.473 15.1238 21.5805 14.2695 19.9312C13.4948 20.2698 12.9039 20.4338 12.7361 20.4926C12.0745 20.7242 11.1732 20.6246 10.0525 21.3746C8.93179 22.1245 6.73413 22.656 5.30397 21.7444C3.87381 20.8328 4.44645 19.0209 4.44645 19.0209C2.48942 17.2771 1.82397 13.8236 1.82397 13.8236L4.22397 13.5356C3.46742 5.78711 10.6314 3.75843 11.2939 3.52971C11.9565 3.30099 12.8574 3.40443 13.9813 2.65928C15.1052 1.91413 17.3053 1.39208 18.7314 2.30984C20.1575 3.2276 19.5773 5.03699 19.5773 5.03699C21.5267 6.78939 22.224 10.2227 22.224 10.2227ZM18 21C19.6568 21 21 19.6569 21 18C21 16.3432 19.6568 15 18 15C16.3431 15 15 16.3432 15 18C15 19.6569 16.3431 21 18 21ZM6.62465 13.5894L5.11197 13.8729C5.95061 17.4139 8.42877 18.0399 8.70329 18.1097C9.03535 18.1942 9.27379 18.1106 9.47573 17.9517C11.7103 15.639 11.1302 12.7453 11.1302 12.7453L9.23122 13.101C8.67257 9.12443 12.1196 6.30963 12.1196 6.30963C5.47183 7.80584 6.62465 13.5894 6.62465 13.5894ZM15.3473 6.03123C15.0153 5.94668 14.7768 6.03025 14.5749 6.18903C12.3405 8.50189 12.9204 11.3956 12.9204 11.3956L14.8194 11.0398C15.378 15.0163 11.931 17.8311 11.931 17.8311C12.6741 17.6638 13.3192 17.4428 13.8798 17.1825C14.2039 15.5549 15.4549 14.2701 17.0733 13.9028C17.7468 12.1617 17.4261 10.5513 17.4261 10.5513L18.9388 10.2678C18.1 6.7268 15.6219 6.10098 15.3473 6.03123ZM17.4 17.4V15.984C17.4 15.7769 17.4929 15.6 17.7 15.6H18.3C18.5071 15.6 18.6 15.7769 18.6 15.984V17.4H20.016C20.2231 17.4 20.4 17.4929 20.4 17.7V18.3C20.4 18.5072 20.2231 18.6 20.016 18.6H18.6V20.016C18.6 20.2231 18.5071 20.4 18.3 20.4H17.7C17.4929 20.4 17.4 20.1751 17.4 19.968V18.6H15.984C15.7769 18.6 15.6 18.5072 15.6 18.3V17.7C15.6 17.4929 15.7769 17.4 15.984 17.4H17.4Z" fill="currentColor"/>
</svg>
