<svg width="24" height="24" viewBox="0 0 24 24" fill="currentColor" xmlns="http://www.w3.org/2000/svg">
<path fill-rule="evenodd" clip-rule="evenodd" d="M3.00002 4.79999H21V2.99999C21 2.66862 20.7314 2.39999 20.4 2.39999H3.60002C3.26865 2.39999 3.00002 2.66862 3.00002 2.99999V4.79999ZM20.4 12.6C19.957 12.6004 19.5295 12.4367 19.2 12.1405C18.5173 12.7531 17.4827 12.7531 16.8 12.1405C16.1173 12.7531 15.0827 12.7531 14.4 12.1405C13.7173 12.7531 12.6827 12.7531 12 12.1405C11.3173 12.7531 10.2827 12.7531 9.60003 12.1405C8.9173 12.7531 7.88275 12.7531 7.20002 12.1405C6.5173 12.7531 5.48275 12.7531 4.80002 12.1405C4.31049 12.5799 3.62 12.7165 3.00002 12.4968V21.6H15.6V14.4H19.2V21.6H21V12.4968C20.8074 12.5652 20.6044 12.6001 20.4 12.6ZM13.8 19.2H4.80002V14.4H13.8V19.2ZM21 5.39999H3.00002L2.40002 10.8C2.40002 11.4627 2.93728 12 3.60002 12C4.26277 12 4.80002 11.4627 4.80002 10.8C4.80002 11.4627 5.33728 12 6.00002 12C6.66277 12 7.20002 11.4627 7.20002 10.8C7.20002 11.4627 7.73728 12 8.40002 12C9.06277 12 9.60003 11.4627 9.60003 10.8C9.60003 11.4627 10.1373 12 10.8 12C11.4628 12 12 11.4627 12 10.8C12 11.4627 12.5373 12 13.2 12C13.8628 12 14.4 11.4627 14.4 10.8C14.4 11.4627 14.9373 12 15.6 12C16.2628 12 16.8 11.4627 16.8 10.8C16.8 11.4627 17.3373 12 18 12C18.6628 12 19.2 11.4627 19.2 10.8C19.2 11.4627 19.7373 12 20.4 12C21.0628 12 21.6 11.4627 21.6 10.8L21 5.39999Z" fill="currentColor"/>
</svg>
