<svg width="24" height="24" viewBox="0 0 24 24" fill="currentColor" xmlns="http://www.w3.org/2000/svg">
<path fill-rule="evenodd" clip-rule="evenodd" d="M19.8 14.16V19.56C20.564 18.8703 21 17.8892 21 16.86C21 15.8307 20.564 14.8497 19.8 14.16ZM3.00001 16.86C2.99823 17.8896 3.43456 18.8713 4.20001 19.56V14.16C3.43457 14.8486 2.99824 15.8304 3.00001 16.86ZM12 3.59998C8.04001 3.59998 4.80001 6.83998 4.80001 10.8V19.9182C5.34622 20.2343 5.96623 20.4005 6.5973 20.4H6.60001C7.26275 20.4 7.80001 19.8627 7.80001 19.2V14.4C7.80001 13.7372 7.26275 13.2 6.60001 13.2H6.00001V10.8C5.99877 10.0005 6.15953 9.20915 6.47259 8.47356C7.08693 7.03372 8.23376 5.88689 9.67359 5.27256C11.1605 4.64245 12.8395 4.64245 14.3264 5.27256C15.7663 5.88689 16.9131 7.03372 17.5274 8.47356C17.8405 9.20915 18.0013 10.0005 18 10.8V13.2H17.4C16.7373 13.2 16.2 13.7372 16.2 14.4V19.2C16.2 19.8627 16.7373 20.4 17.4 20.4H17.4027C18.0338 20.4005 18.6538 20.2343 19.2 19.9182V10.8C19.2 6.83998 15.96 3.59998 12 3.59998Z" fill="currentColor"/>
</svg>
