<svg width="24" height="24" viewBox="0 0 24 24" fill="currentColor" xmlns="http://www.w3.org/2000/svg">
<path fill-rule="evenodd" clip-rule="evenodd" d="M19.8 5.4H5.4V19.8C5.4 20.4627 5.93726 21 6.6 21H21V6.6C21 5.93726 20.4627 5.4 19.8 5.4ZM14.136 10.2H16.8V11.4L19.0761 9.56614C19.1547 9.50009 19.2001 9.40267 19.2001 9.3C19.2001 9.19733 19.1547 9.09991 19.0761 9.03386L16.8 7.2V8.4H14.136C14.047 8.3998 13.9616 8.43498 13.8986 8.49778C13.8356 8.56058 13.8001 8.64585 13.8 8.73482V9.84122C13.8 10.0294 13.9536 10.2 14.136 10.2ZM12.264 10.8H9.6V9.6L7.32394 11.4339C7.24532 11.4999 7.19992 11.5973 7.19992 11.7C7.19992 11.8027 7.24532 11.9001 7.32394 11.9661L9.6 13.8V12.6H12.264C12.353 12.6002 12.4384 12.565 12.5014 12.5022C12.5644 12.4394 12.5999 12.3541 12.6 12.2652V11.1588C12.6 10.9706 12.4464 10.8 12.264 10.8ZM14.136 15.6H16.8V16.8L19.0761 14.9661C19.1547 14.9001 19.2001 14.8027 19.2001 14.7C19.2001 14.5973 19.1547 14.4999 19.0761 14.4339L16.8 12.6V13.8H14.136C14.047 13.7998 13.9616 13.835 13.8986 13.8978C13.8356 13.9606 13.8001 14.0459 13.8 14.1348V15.2412C13.8 15.4294 13.9536 15.6 14.136 15.6ZM12.264 16.2H9.6V15L7.32394 16.8339C7.24532 16.8999 7.19992 16.9973 7.19992 17.1C7.19992 17.2027 7.24532 17.3001 7.32394 17.3661L9.6 19.2V18H12.264C12.353 18.0002 12.4384 17.965 12.5014 17.9022C12.5644 17.8394 12.5999 17.7541 12.6 17.6652V16.5588C12.6 16.3706 12.4464 16.2 12.264 16.2ZM4.80043 4.80043H19.2106C19.3808 4.8004 19.5491 4.83691 19.704 4.9075C19.5094 4.47784 19.0819 4.20133 18.6102 4.2H4.2V18.6102C4.20135 19.0819 4.47786 19.5094 4.9075 19.704C4.8369 19.5491 4.80039 19.3809 4.80043 19.2106V4.80043ZM3.60043 3.60043H18.0106C18.1808 3.6004 18.3491 3.63691 18.504 3.7075C18.3094 3.27785 17.8819 3.00134 17.4102 3H3V17.4102C3.00135 17.8819 3.27786 18.3094 3.7075 18.504C3.6369 18.3491 3.60039 18.1809 3.60043 18.0106V3.60043Z" fill="currentColor"/>
</svg>
