<svg width="24" height="24" viewBox="0 0 24 24" fill="currentColor" xmlns="http://www.w3.org/2000/svg">
<path fill-rule="evenodd" clip-rule="evenodd" d="M18.6 3.6H16.2V4.8H18.6V21H5.4V4.8H7.8V3.6H5.4C4.73726 3.6 4.2 4.13726 4.2 4.8V21C4.2 21.6627 4.73726 22.2 5.4 22.2H18.6C19.2627 22.2 19.8 21.6627 19.8 21V4.8C19.8 4.13726 19.2627 3.6 18.6 3.6ZM15 2.4H13.6972C13.4428 1.68081 12.7628 1.2 12 1.2C11.2372 1.2 10.5572 1.68081 10.3028 2.4H9C8.66863 2.4 8.4 2.66863 8.4 3V5.4H15.6V3C15.6 2.66863 15.3314 2.4 15 2.4ZM12 3.6C11.6686 3.6 11.4 3.33137 11.4 3C11.4 2.66863 11.6686 2.4 12 2.4C12.3314 2.4 12.6 2.66863 12.6 3C12.6 3.33137 12.3314 3.6 12 3.6ZM17.4 17.76H6.6V16.8H17.4V17.76ZM17.4 19.44H6.6V18.48H17.4V19.44ZM17.4 11.496H15.696C15.5695 11.496 15.4524 11.5623 15.3873 11.6708L15.0048 12.3085L14.5781 11.455C14.5121 11.323 14.3722 11.2447 14.2251 11.2574C14.0781 11.2701 13.9537 11.3712 13.9113 11.5126L13.5526 12.7083L13.1634 11.2813C13.1209 11.1254 12.9798 11.0169 12.8182 11.016H12.816C12.6553 11.016 12.514 11.1226 12.4699 11.2771L11.9429 13.1214L11.0108 7.71483C10.9821 7.54769 10.8406 7.42326 10.6712 7.41611C10.5017 7.40896 10.3503 7.52102 10.3076 7.68514L9.07029 12.4284L8.55554 11.6563C8.48877 11.5562 8.37637 11.496 8.256 11.496H6.6V12.216H8.06335L8.91648 13.4957C8.99513 13.6138 9.1358 13.6746 9.27572 13.6511C9.41564 13.6277 9.52871 13.5242 9.56448 13.3869L10.584 9.47779L11.5011 14.7972C11.5297 14.9627 11.6688 15.0864 11.8365 15.0955C11.8431 15.0958 11.8496 15.096 11.8561 15.096C12.0167 15.096 12.1579 14.9894 12.2021 14.8349L12.8078 12.7147L13.1886 14.1107C13.2308 14.2658 13.3708 14.374 13.5315 14.376H13.536C13.695 14.376 13.8351 14.2717 13.8808 14.1195L14.34 12.5889L14.654 13.217C14.7128 13.3345 14.8309 13.4107 14.9622 13.4157C15.0935 13.4208 15.2171 13.3539 15.2847 13.2412L15.8998 12.216H17.4V11.496Z" fill="currentColor"/>
</svg>
