<svg width="24" height="24" viewBox="0 0 24 24" fill="currentColor" xmlns="http://www.w3.org/2000/svg">
<path fill-rule="evenodd" clip-rule="evenodd" d="M13.3238 10.4163C14.201 9.82892 14.5908 8.73697 14.2839 7.72692C13.9769 6.71687 13.0455 6.02641 11.9898 6.02641C10.9342 6.02641 10.0027 6.71687 9.69582 7.72692C9.38889 8.73697 9.77871 9.82892 10.6559 10.4163L7.22401 20.2254C7.15081 20.4283 7.19217 20.6549 7.33233 20.8188C7.47249 20.9828 7.68987 21.0589 7.9017 21.0182C8.11352 20.9774 8.28718 20.8261 8.35654 20.6219L9.05583 18.6232H14.9238L15.6231 20.6219C15.6922 20.8265 15.8659 20.9782 16.078 21.0191C16.29 21.06 16.5077 20.9838 16.6479 20.8196C16.7882 20.6553 16.8293 20.4284 16.7556 20.2254L13.3238 10.4163ZM13.664 15.0222H10.3157L10.7357 13.8219H13.244L13.664 15.0222ZM12.1911 10.8124L12.8241 12.6216H11.1556L11.7886 10.8124C11.9225 10.8236 12.0572 10.8236 12.1911 10.8124ZM9.47576 17.4229L9.89576 16.2225H14.084L14.504 17.4229H9.47576ZM7.84081 11.4354C8.05552 11.4351 8.25371 11.3201 8.36057 11.1339C8.46743 10.9477 8.46668 10.7185 8.35861 10.533C7.58458 9.19856 7.6023 7.54766 8.40481 6.23013C8.51673 6.04731 8.52261 5.81866 8.42025 5.63033C8.31788 5.44199 8.12281 5.32257 7.90852 5.31705C7.69423 5.31154 7.49327 5.42076 7.38135 5.60359C6.34842 7.29772 6.32557 9.42132 7.32181 11.1373C7.42929 11.3221 7.62703 11.4357 7.84081 11.4354ZM15.8403 5.49062C15.5539 5.65728 15.4567 6.02459 15.6232 6.31113C16.383 7.62123 16.3795 9.2387 15.614 10.5455C15.5038 10.7304 15.5011 10.9603 15.6069 11.1477C15.7128 11.3352 15.911 11.4516 16.1263 11.4527C16.3416 11.4538 16.541 11.3394 16.6488 11.1531C17.6332 9.47255 17.6377 7.39249 16.6606 5.70775C16.5806 5.57013 16.4493 5.46992 16.2954 5.42918C16.1416 5.38845 15.9779 5.41059 15.8403 5.49062ZM6.08194 4.25853C5.94474 4.17793 5.78112 4.15515 5.62711 4.19521C5.4731 4.23527 5.34133 4.33488 5.26079 4.47213C3.83094 6.91007 3.83094 9.93057 5.26079 12.3685C5.36922 12.5537 5.56827 12.6668 5.78283 12.6653C5.99739 12.6638 6.1948 12.5478 6.30057 12.3611C6.40634 12.1744 6.40437 11.9454 6.2954 11.7606C5.08568 9.69804 5.08568 7.14261 6.2954 5.08005C6.46331 4.79424 6.36773 4.4265 6.08194 4.25853ZM18.7187 4.47213C18.6106 4.28638 18.4114 4.17267 18.1964 4.17401C17.9815 4.17538 17.7837 4.29161 17.6779 4.47871C17.5721 4.66581 17.5745 4.8952 17.6841 5.08007C18.8927 7.14085 18.8938 9.69374 17.687 11.7555C17.5785 11.9404 17.577 12.1692 17.6829 12.3555C17.7888 12.5419 17.9861 12.6576 18.2004 12.6591C18.4148 12.6605 18.6137 12.5475 18.7221 12.3626C20.1486 9.9255 20.1473 6.90801 18.7187 4.47213ZM2.99067 8.43715C2.98677 6.84068 3.40743 5.27189 4.20954 3.89155C4.31749 3.70635 4.31844 3.47764 4.21203 3.29155C4.10563 3.10546 3.90803 2.99028 3.69367 2.98939C3.47931 2.9885 3.28076 3.10203 3.17281 3.28723C1.31996 6.47259 1.32759 10.4093 3.19278 13.5874C3.30147 13.7722 3.50048 13.885 3.71484 13.8832C3.92921 13.8815 4.12636 13.7655 4.23204 13.579C4.33772 13.3925 4.33587 13.1638 4.22718 12.979C3.41947 11.6015 2.99271 10.034 2.99067 8.43715ZM20.8069 3.2873C20.6989 3.10211 20.5004 2.9886 20.286 2.9895C20.0717 2.99042 19.8741 3.10562 19.7677 3.29172C19.6613 3.47781 19.6623 3.70653 19.7702 3.89171C21.4016 6.69729 21.3978 10.1635 19.7604 12.9655C19.6507 13.1505 19.6485 13.3801 19.7545 13.5672C19.8606 13.7544 20.0586 13.8704 20.2737 13.8715C20.4888 13.8725 20.688 13.7583 20.7958 13.5721C22.6517 10.3961 22.656 6.46732 20.8069 3.2873Z" fill="currentColor"/>
</svg>
