<svg width="24" height="24" viewBox="0 0 24 24" fill="currentColor" xmlns="http://www.w3.org/2000/svg">
<path fill-rule="evenodd" clip-rule="evenodd" d="M17.4 10.2H8.99999V6.00001C8.99999 4.34316 10.3431 3.00001 12 3.00001C13.6568 3.00001 15 4.34316 15 6.00001V9.00001H16.8V6.00001C16.8 3.36001 14.64 1.20001 12 1.20001C9.35999 1.20001 7.19999 3.36001 7.19999 6.00001V10.2H4.79999V21C4.79999 21.9941 5.60587 22.8 6.59999 22.8H19.2V12C19.2 11.0059 18.3941 10.2 17.4 10.2ZM8.50487 16.6006C8.73527 16.9267 8.96215 17.2552 9.18551 17.586C9.47111 18.0101 9.24047 18.5278 8.73335 18.5935C8.48423 18.6259 8.28599 18.5196 8.14247 18.318C8.00639 18.1277 7.87559 17.9333 7.74215 17.7408C7.71671 17.7041 7.69007 17.6679 7.65599 17.6201C7.48559 17.8649 7.32671 18.1011 7.15943 18.3315C6.95015 18.6197 6.57287 18.6819 6.27623 18.4894C6.05543 18.3459 5.87735 17.9451 6.11831 17.5954C6.32279 17.2987 6.52679 17.0019 6.73031 16.7047C6.77903 16.6335 6.86087 16.5593 6.86039 16.4868C6.85991 16.4139 6.77711 16.3404 6.72839 16.2687C6.52343 15.9687 6.31815 15.6691 6.11255 15.3699C5.83271 14.9633 6.12167 14.4879 6.45719 14.4012C6.73223 14.3302 7.00103 14.4183 7.16663 14.6525C7.31039 14.8558 7.45031 15.0622 7.59215 15.2669C7.61063 15.2935 7.63055 15.3195 7.65647 15.3547C7.68335 15.3173 7.70615 15.2873 7.72751 15.2563C7.86431 15.0588 7.99703 14.8587 8.13815 14.6645C8.29319 14.4514 8.50439 14.3407 8.77175 14.3859C9.03911 14.431 9.21575 14.5937 9.28919 14.8541C9.34463 15.0509 9.29615 15.2328 9.18095 15.3994C8.95559 15.7253 8.73335 16.0534 8.50391 16.3764C8.44535 16.4587 8.44751 16.5197 8.50487 16.6006ZM12.8249 16.6006C13.0553 16.9267 13.2821 17.2552 13.5055 17.586C13.7911 18.0101 13.5605 18.5278 13.0533 18.5935C12.8042 18.6259 12.606 18.5196 12.4625 18.318C12.3264 18.1277 12.1956 17.9333 12.0621 17.7408C12.0367 17.7041 12.0101 17.6679 11.976 17.6201C11.8056 17.8649 11.6467 18.1011 11.4794 18.3315C11.2701 18.6197 10.8929 18.6819 10.5962 18.4894C10.3754 18.3459 10.1973 17.9451 10.4383 17.5954C10.6428 17.2987 10.8468 17.0019 11.0503 16.7047C11.099 16.6335 11.1809 16.5593 11.1804 16.4868C11.1799 16.4139 11.0971 16.3404 11.0484 16.2687C10.8434 15.9687 10.6381 15.6691 10.4325 15.3699C10.1527 14.9633 10.4417 14.4879 10.7772 14.4012C11.0522 14.3302 11.321 14.4183 11.4866 14.6525C11.6304 14.8558 11.7703 15.0622 11.9121 15.2669C11.9306 15.2935 11.9505 15.3195 11.9765 15.3547C12.0033 15.3173 12.0261 15.2873 12.0475 15.2563C12.1843 15.0588 12.317 14.8587 12.4581 14.6645C12.6132 14.4514 12.8244 14.3407 13.0917 14.3859C13.3591 14.431 13.5357 14.5937 13.6092 14.8541C13.6646 15.0509 13.6161 15.2328 13.5009 15.3994C13.2756 15.7253 13.0533 16.0534 12.8239 16.3764C12.7653 16.4587 12.7675 16.5197 12.8249 16.6006ZM17.1929 16.6006C17.4233 16.9267 17.6501 17.2552 17.8735 17.586C18.1591 18.0101 17.9285 18.5278 17.4213 18.5935C17.1722 18.6259 16.974 18.5196 16.8305 18.318C16.6944 18.1277 16.5636 17.9333 16.4301 17.7408C16.4047 17.7041 16.3781 17.6679 16.344 17.6201C16.1736 17.8649 16.0147 18.1011 15.8474 18.3315C15.6381 18.6197 15.2609 18.6819 14.9642 18.4894C14.7434 18.3459 14.5653 17.9451 14.8063 17.5954C15.0108 17.2987 15.2148 17.0019 15.4183 16.7047C15.467 16.6335 15.5489 16.5593 15.5484 16.4868C15.5479 16.4139 15.4651 16.3404 15.4164 16.2687C15.2114 15.9687 15.0061 15.6691 14.8005 15.3699C14.5207 14.9633 14.8097 14.4879 15.1452 14.4012C15.4202 14.3302 15.689 14.4183 15.8546 14.6525C15.9984 14.8558 16.1383 15.0622 16.2801 15.2669C16.2986 15.2935 16.3185 15.3195 16.3445 15.3547C16.3713 15.3173 16.3941 15.2873 16.4155 15.2563C16.5523 15.0588 16.685 14.8587 16.8261 14.6645C16.9812 14.4514 17.1924 14.3407 17.4597 14.3859C17.7271 14.431 17.9037 14.5937 17.9772 14.8541C18.0326 15.0509 17.9841 15.2328 17.8689 15.3994C17.6436 15.7253 17.4213 16.0534 17.1919 16.3764C17.1333 16.4587 17.1355 16.5197 17.1929 16.6006Z" fill="currentColor"/>
</svg>
