<svg width="24" height="24" viewBox="0 0 24 24" fill="currentColor" xmlns="http://www.w3.org/2000/svg">
<path fill-rule="evenodd" clip-rule="evenodd" d="M22.2001 9.60005V5.86363C22.2001 5.27623 21.6842 4.80005 21.0478 4.80005H16.6528C16.6528 5.13142 16.3842 5.40005 16.0528 5.40005C15.7214 5.40005 15.4528 5.13142 15.4528 4.80005H2.95226C2.31593 4.80005 1.80005 5.27623 1.80005 5.86363V9.60005C3.12554 9.60005 4.20005 10.7765 4.20005 12C4.20005 13.2236 3.12554 14.4 1.80005 14.4V18.1365C1.80005 18.7239 2.31593 19.2 2.95226 19.2H15.4528C15.4528 18.8687 15.7214 18.6 16.0528 18.6C16.3841 18.6 16.6528 18.8687 16.6528 19.2H21.0478C21.6842 19.2 22.2001 18.7239 22.2001 18.1365V14.4C20.8746 14.4 19.8 13.2236 19.8 12C19.8 10.7765 20.8746 9.60005 22.2001 9.60005ZM16.0528 18C15.7214 18 15.4528 17.7314 15.4528 17.4C15.4528 17.0687 15.7214 16.8 16.0528 16.8C16.3841 16.8 16.6528 17.0687 16.6528 17.4C16.6528 17.7314 16.3841 18 16.0528 18ZM16.0528 16.2C15.7214 16.2 15.4528 15.9314 15.4528 15.6C15.4528 15.2687 15.7214 15 16.0528 15C16.3841 15 16.6528 15.2687 16.6528 15.6C16.6528 15.9314 16.3841 16.2 16.0528 16.2ZM16.0528 14.4C15.7214 14.4 15.4528 14.1314 15.4528 13.8C15.4528 13.4687 15.7214 13.2 16.0528 13.2C16.3841 13.2 16.6528 13.4687 16.6528 13.8C16.6528 14.1314 16.3841 14.4 16.0528 14.4ZM16.0528 12.6C15.7214 12.6 15.4528 12.3314 15.4528 12C15.4528 11.6687 15.7214 11.4 16.0528 11.4C16.3841 11.4 16.6528 11.6687 16.6528 12C16.6528 12.3314 16.3841 12.6 16.0528 12.6ZM16.0528 10.8C15.7214 10.8 15.4528 10.5314 15.4528 10.2C15.4528 9.86868 15.7214 9.60005 16.0528 9.60005C16.3841 9.60005 16.6528 9.86868 16.6528 10.2C16.6528 10.5314 16.3841 10.8 16.0528 10.8ZM16.0528 9.00005C15.7214 9.00005 15.4528 8.73142 15.4528 8.40005C15.4528 8.06868 15.7214 7.80005 16.0528 7.80005C16.3841 7.80005 16.6528 8.06868 16.6528 8.40005C16.6528 8.73142 16.3841 9.00005 16.0528 9.00005ZM16.0528 7.20005C15.7214 7.20005 15.4528 6.93142 15.4528 6.60005C15.4528 6.26868 15.7214 6.00005 16.0528 6.00005C16.3841 6.00005 16.6528 6.26868 16.6528 6.60005C16.6528 6.93142 16.3841 7.20005 16.0528 7.20005Z" fill="currentColor"/>
</svg>
