<svg width="24" height="24" viewBox="0 0 24 24" fill="currentColor" xmlns="http://www.w3.org/2000/svg">
<path fill-rule="evenodd" clip-rule="evenodd" d="M20.9958 4.19006H2.99578C2.33578 4.19006 1.79578 4.74206 1.79578 5.40206V16.8021C1.79578 17.4621 2.33578 17.9901 2.99578 17.9901H4.79578V19.7901H19.1958V17.9901H20.9958C21.6558 17.9901 22.1958 17.4621 22.1958 16.8021V5.40206C22.1958 4.74206 21.6558 4.19006 20.9958 4.19006ZM11.9958 18.8901C11.6644 18.8901 11.3958 18.6214 11.3958 18.2901C11.3958 17.9587 11.6644 17.6901 11.9958 17.6901C12.3271 17.6901 12.5958 17.9587 12.5958 18.2901C12.5958 18.6214 12.3271 18.8901 11.9958 18.8901ZM20.9958 5.39006V16.7901H2.99578V5.39006H20.9958ZM12.4237 8.27633C12.1211 8.27633 11.7667 8.63069 11.2426 9.28032C10.4231 10.2991 10.0171 11.1997 10.0171 11.9454C10.0171 13.0601 10.7923 13.8426 11.8627 13.8426C12.9996 13.8426 13.8264 13.001 13.8264 11.9897C13.8264 11.0153 13.1399 10.2991 12.3278 10.2991C12.1869 10.3029 12.0464 10.3152 11.907 10.336C12.4533 9.5387 12.9996 9.2065 12.9996 8.83001C12.9996 8.53481 12.7264 8.27633 12.4237 8.27633ZM16.233 8.29109C14.9263 8.29109 14.0478 9.32462 14.0478 11.0669C14.0478 12.8091 14.9262 13.8426 16.233 13.8426C17.5397 13.8426 18.4255 12.8091 18.4255 11.0669C18.4255 9.32462 17.5398 8.29109 16.233 8.29109ZM8.03429 9.59006H7.58126C7.52119 9.59006 7.46358 9.61393 7.4211 9.65641C7.37863 9.69889 7.35477 9.7565 7.35478 9.81658V10.9491H6.22229C6.16222 10.9491 6.1046 10.9729 6.06212 11.0154C6.01964 11.0579 5.99578 11.1155 5.99578 11.1756V11.6286C5.99578 11.6886 6.01964 11.7463 6.06212 11.7887C6.1046 11.8312 6.16222 11.8551 6.22229 11.8551H7.35478V12.9876C7.35478 13.1127 7.45618 13.2141 7.58126 13.2141H8.03429C8.15937 13.2141 8.26078 13.1127 8.26078 12.9876V11.8551H9.39329C9.51837 11.8551 9.61978 11.7537 9.61978 11.6286V11.1756C9.61978 11.0505 9.51837 10.9491 9.39329 10.9491H8.26078V9.81658C8.26078 9.7565 8.23692 9.69889 8.19445 9.65641C8.15197 9.61393 8.09436 9.59006 8.03429 9.59006ZM11.9144 11.2884C12.2836 11.2884 12.5936 11.5984 12.5936 12.0045C12.5936 12.4105 12.2835 12.7353 11.9144 12.7353C11.5453 12.7353 11.2352 12.4104 11.2352 12.0045C11.2352 11.5984 11.5453 11.2884 11.9144 11.2884ZM16.2404 9.39106C16.8014 9.39106 17.1853 9.98165 17.1853 11.0595C17.1853 12.1373 16.8088 12.7353 16.2403 12.7353C15.6719 12.7353 15.2954 12.1373 15.2954 11.0595C15.2954 9.98167 15.6793 9.39106 16.2404 9.39106Z" fill="currentColor"/>
</svg>
