<svg width="24" height="24" viewBox="0 0 24 24" fill="currentColor" xmlns="http://www.w3.org/2000/svg">
<path fill-rule="evenodd" clip-rule="evenodd" d="M21 4.20001H3C2.33726 4.20001 1.8 4.73727 1.8 5.40001V18.6C1.8 19.2628 2.33726 19.8 3 19.8H21C21.6627 19.8 22.2 19.2628 22.2 18.6V5.40001C22.2 4.73727 21.6627 4.20001 21 4.20001ZM3.6 5.40001C3.93137 5.40001 4.2 5.66864 4.2 6.00001C4.2 6.33138 3.93137 6.60001 3.6 6.60001C3.26863 6.60001 3 6.33138 3 6.00001C3 5.66864 3.26863 5.40001 3.6 5.40001ZM21 18.6H3V7.80001H21V18.6ZM16.8572 10.9565L14.7317 13.0819L14.4955 12.8458L16.621 10.7203C16.7509 10.5897 16.7509 10.3786 16.621 10.248L15.204 8.831C15.0734 8.70112 14.8623 8.70112 14.7317 8.831L14.4955 9.06716L15.0859 9.65756C15.1284 9.69969 15.1451 9.76133 15.1297 9.81915C15.1143 9.87697 15.0692 9.92214 15.0114 9.93754C14.9535 9.95294 14.8919 9.93622 14.8498 9.89372L14.2594 9.30332L13.787 9.77567L14.1413 10.1299C14.206 10.1952 14.2058 10.3005 14.1408 10.3655C14.0757 10.4306 13.9704 10.4308 13.9051 10.3661L13.5509 10.0118L13.0785 10.4841L13.6689 11.0745C13.7114 11.1167 13.7282 11.1783 13.7128 11.2361C13.6974 11.294 13.6522 11.3391 13.5944 11.3545C13.5365 11.3699 13.4749 11.3532 13.4328 11.3107L12.8424 10.7203L12.6062 10.9565L12.3701 10.7203L14.4955 8.59484C14.7568 8.33507 15.1789 8.33507 15.4402 8.59484L16.8571 10.0118C17.1169 10.2731 17.1169 10.6952 16.8572 10.9565ZM16.4479 15.2583C16.5298 15.3399 16.5927 15.4384 16.6321 15.547C16.632 15.5467 16.6321 15.5473 16.6321 15.547C16.6393 15.5679 16.6459 15.59 16.6513 15.6114C16.6567 15.6328 16.6609 15.6541 16.6645 15.6756C16.6655 15.6822 16.6665 15.6887 16.6674 15.6953C16.6988 15.9275 16.6199 16.161 16.454 16.3265L15.8634 16.9167L15.3979 17.3818C15.2571 17.5229 15.0658 17.6021 14.8664 17.6019C14.8435 17.6019 14.8198 17.6008 14.797 17.5987L14.7901 17.598C14.7696 17.5959 14.7492 17.593 14.7289 17.5892C14.7248 17.5884 14.7207 17.5876 14.7166 17.5868C14.5768 17.5585 14.4348 17.5008 14.3264 17.3924L11.0333 14.0968L8.5944 11.6646L8.109 10.0398L7.8744 9.26713L7.82787 9.08147C7.82787 9.08161 7.82787 9.08132 7.82787 9.08147C7.82607 9.07549 7.82448 9.06901 7.82307 9.06316C7.82259 9.061 7.82228 9.05886 7.82184 9.0567C7.82105 9.05279 7.82024 9.04885 7.81964 9.04496C7.81925 9.04244 7.81906 9.03995 7.81875 9.03745C7.81832 9.03392 7.81786 9.03042 7.81757 9.02694C7.81738 9.0243 7.81733 9.02171 7.81719 9.01907C7.81704 9.01573 7.81683 9.0124 7.81683 9.00908C7.81683 9.00858 7.81683 9.00805 7.81683 9.00752C7.81683 9.00378 7.817 9.00008 7.81716 8.99636C7.81716 8.99528 7.81716 8.99418 7.81716 8.9931C7.81748 8.98775 7.81798 8.98242 7.81865 8.97716C7.81882 8.9758 7.81906 8.97445 7.81927 8.97311C7.81983 8.96922 7.82043 8.96533 7.82117 8.96149C7.82153 8.95962 7.82196 8.9578 7.82235 8.95592C7.82307 8.95266 7.82381 8.94937 7.82475 8.94613C7.82527 8.94414 7.82583 8.9422 7.8264 8.94023C7.82729 8.93713 7.82823 8.93406 7.82924 8.93104C7.82988 8.92907 7.83053 8.92712 7.83123 8.9252C7.83231 8.92216 7.83348 8.91913 7.83468 8.91616C7.83543 8.91433 7.83615 8.91248 7.83692 8.91068C7.83831 8.90749 7.83977 8.90435 7.84128 8.90123C7.842 8.89972 7.8427 8.89816 7.84347 8.89667C7.84567 8.89228 7.848 8.88798 7.85048 8.88373C7.85307 8.87932 7.85613 8.87439 7.859 8.87015C7.85991 8.86878 7.86089 8.86746 7.86185 8.86609C7.86384 8.86326 7.86583 8.86043 7.86795 8.85767C7.86915 8.85611 7.87035 8.8546 7.8716 8.85306C7.87359 8.85066 7.87558 8.84826 7.87767 8.84572C7.87901 8.84416 7.88038 8.84264 7.88175 8.84111C7.88384 8.83871 7.88597 8.83655 7.88813 8.83432C7.88957 8.83285 7.89099 8.83139 7.89245 8.82995C7.89485 8.82772 7.89711 8.82553 7.89948 8.82335C7.9009 8.82208 7.90229 8.82078 7.90373 8.81953C7.90649 8.81713 7.9093 8.81485 7.91216 8.81257L7.91559 8.80979C7.91964 8.80669 7.92377 8.80369 7.92799 8.80084C7.92883 8.80026 7.9297 8.79976 7.9304 8.7992C7.93385 8.79695 7.93733 8.79472 7.94088 8.79263C7.94244 8.79172 7.94403 8.79085 7.94568 8.78996C7.94859 8.78833 7.95151 8.78673 7.95449 8.78516C7.95627 8.78425 7.95809 8.78339 7.95992 8.7825C7.96276 8.78112 7.96564 8.7798 7.96856 8.77854C7.97045 8.7777 7.97235 8.77691 7.97427 8.77614C7.97722 8.77494 7.9802 8.77374 7.98322 8.77271C7.98512 8.77201 7.98699 8.77132 7.98891 8.77069C7.99212 8.76961 7.99539 8.76865 7.99865 8.76769C8.0004 8.76719 8.00213 8.76664 8.00391 8.76618C8.00796 8.7651 8.01209 8.76416 8.01624 8.76328C8.01723 8.76308 8.01821 8.7628 8.01922 8.7626C8.02437 8.7616 8.02959 8.76075 8.03487 8.76006C8.03626 8.75987 8.03768 8.75977 8.03907 8.75963C8.04296 8.75917 8.04687 8.75879 8.05078 8.75855C8.05272 8.7584 8.05469 8.75838 8.05663 8.75828C8.06009 8.75806 8.06352 8.75806 8.067 8.75806C8.06914 8.75806 8.07125 8.75806 8.07339 8.75806C8.07677 8.75806 8.08015 8.75831 8.08356 8.75855C8.08572 8.75869 8.08788 8.75886 8.09004 8.75908C8.09352 8.75941 8.09703 8.75984 8.10051 8.76032C8.10262 8.76061 8.10468 8.76088 8.1068 8.76121C8.11061 8.76184 8.11443 8.7626 8.11827 8.76342C8.12004 8.76378 8.12182 8.76409 8.1236 8.7645C8.12921 8.76582 8.13483 8.76728 8.1404 8.76899L8.69556 8.92739L9.09931 9.04979L10.722 9.53624L16.4479 15.2583ZM8.91228 9.22451L8.29068 9.8457L8.77949 11.4777L9.06703 11.1876L14.8593 16.9759L15.0956 16.7398L9.30322 10.9516L10.0119 10.2434L15.8042 16.0316L16.0405 15.7956L10.2481 10.0073L10.5455 9.71298L8.91228 9.22451ZM10.0085 13.5543L9.7723 13.7904L10.3627 14.3808C10.4279 14.446 10.4279 14.5518 10.3627 14.617C10.2975 14.6822 10.1918 14.6822 10.1265 14.617L9.53614 14.0266L9.06382 14.4989L9.41806 14.8532C9.48278 14.9185 9.48254 15.0238 9.41753 15.0888C9.35252 15.1538 9.2472 15.1541 9.1819 15.0893L8.82766 14.7351L8.35532 15.2074L8.94571 15.7978C8.98821 15.8399 9.00493 15.9016 8.98953 15.9594C8.97413 16.0172 8.92896 16.0624 8.87114 16.0778C8.81332 16.0932 8.75168 16.0765 8.70955 16.034L8.11915 15.4436L7.88299 15.6797C7.75311 15.8104 7.75311 16.0214 7.88299 16.1521L9.3 17.569C9.43066 17.6989 9.64167 17.6989 9.77232 17.569L11.8978 15.4436L12.1339 15.6797L10.0085 17.8052C9.74718 18.065 9.32515 18.065 9.06384 17.8052L7.64686 16.3882C7.38709 16.1269 7.38709 15.7049 7.64686 15.4436L9.77232 13.3181L10.0085 13.5543Z" fill="currentColor"/>
</svg>
