<svg width="24" height="24" viewBox="0 0 24 24" fill="currentColor" xmlns="http://www.w3.org/2000/svg">
<path fill-rule="evenodd" clip-rule="evenodd" d="M16.8 4.20071C15 4.20071 13.3636 4.66727 12 5.49911C10.6364 4.66727 9 4.19996 7.2 4.19996H1.8V16.308C1.8 16.908 2.28 17.3992 2.88 17.3992L7.2 17.4C8.16 17.4 9.07575 17.5623 9.88865 17.9061C10.4953 18.1627 11.5569 18.9268 11.5569 18.9268C11.76 19.068 11.8258 19.116 12 19.116C12.1742 19.116 12.24 19.068 12.4431 18.9268C12.4431 18.9268 13.5047 18.1627 14.1114 17.9061C14.9243 17.5623 15.84 17.3992 16.8 17.3992L21.12 17.3984C21.4079 17.3973 21.6835 17.2817 21.8861 17.0771C22.0887 16.8726 22.2016 16.5959 22.2 16.308V4.19922L16.8 4.20071ZM21 15.5968C21.0002 15.9287 20.732 16.1983 20.4 16.1997H16.8C15.6 16.1997 14.6051 16.3941 13.6442 16.8004C13.1897 16.9927 12.36 17.508 12.36 17.508C12.2614 17.5791 12.12 17.61 12 17.61C11.88 17.61 11.7386 17.5791 11.64 17.508C11.64 17.508 10.8103 16.9927 10.3558 16.8004C9.3949 16.394 8.4 16.1997 7.2 16.1997H3.6C3.26806 16.1983 2.99976 15.9287 3 15.5968V14.9983H7.19854C8.99854 14.9983 10.6364 15.4673 12 16.2991C13.3636 15.4673 15 14.9997 16.8 14.9997H21V15.5968ZM3.6 6.59795H8.4C8.72907 6.60211 8.99365 6.87005 8.99365 7.19915C8.99365 7.52824 8.72907 7.79619 8.4 7.80035H3.6C3.27093 7.79619 3.00635 7.52824 3.00635 7.19915C3.00635 6.87005 3.27093 6.60211 3.6 6.59795ZM3.6 9.00035H8.4C8.73137 9.00035 9 9.26898 9 9.60035C9 9.93172 8.73137 10.2003 8.4 10.2003H3.6C3.27122 10.1967 3.00658 9.92919 3.00658 9.60038C3.00658 9.27158 3.27122 9.00395 3.6 9.00035ZM3.6 11.3981H6C6.33208 11.3981 6.60128 11.6673 6.60128 11.9994C6.60128 12.3315 6.33208 12.6007 6 12.6007H3.6C3.27052 12.5971 3.00531 12.3289 3.00531 11.9994C3.00531 11.6699 3.27052 11.4017 3.6 11.3981ZM17.4862 13.0255C17.3689 13.1383 17.2122 13.2009 17.0494 13.1999C16.8838 13.2019 16.7238 13.1402 16.6023 13.0277C16.4748 12.9129 16.411 12.7523 16.4111 12.546C16.4069 12.3732 16.4737 12.2062 16.5959 12.0839C16.7143 11.9609 16.8788 11.893 17.0495 11.8965C17.2178 11.893 17.3796 11.9612 17.4947 12.0839C17.6146 12.2074 17.6796 12.374 17.6753 12.546C17.6753 12.7495 17.6123 12.9093 17.4862 13.0255ZM19.0548 8.98878C18.9648 9.16569 18.8487 9.32806 18.7104 9.47044C18.5775 9.60556 18.3388 9.83298 17.9943 10.1527C17.9137 10.2276 17.8373 10.307 17.7655 10.3903C17.7156 10.4475 17.6726 10.5104 17.6374 10.5777C17.6102 10.6321 17.5884 10.689 17.5723 10.7477C17.5569 10.8044 17.5338 10.9039 17.503 11.0463C17.4499 11.3486 17.2833 11.4997 17.0032 11.4997C16.8656 11.5029 16.7326 11.4493 16.6357 11.3515C16.5364 11.2527 16.4867 11.106 16.4867 10.9113C16.4867 10.6671 16.5231 10.4556 16.5958 10.2769C16.6647 10.1046 16.7628 9.94539 16.8857 9.80636C17.0398 9.63761 17.2025 9.47678 17.3729 9.32451C17.5519 9.16189 17.6814 9.03912 17.7613 8.95621C17.8409 8.87368 17.9088 8.78053 17.9629 8.67942C18.0175 8.57763 18.0457 8.46374 18.0448 8.34822C18.0489 8.12545 17.9581 7.91145 17.7949 7.75971C17.6283 7.59996 17.4134 7.52004 17.1503 7.51993C16.8423 7.51993 16.6155 7.60059 16.4699 7.76192C16.3244 7.92325 16.2012 8.16081 16.1003 8.4746C16.005 8.80302 15.8244 8.96723 15.5585 8.96725C15.4076 8.96983 15.2629 8.90705 15.1616 8.79505C15.0539 8.68014 15 8.55582 15 8.42209C15 8.14609 15.0854 7.86639 15.2562 7.583C15.4269 7.29961 15.6761 7.06494 16.0038 6.87899C16.3314 6.69297 16.7136 6.59996 17.1504 6.59996C17.5562 6.59996 17.9146 6.67771 18.2256 6.83319C18.5363 6.98871 18.7763 7.20013 18.9458 7.46744C19.113 7.72737 19.2013 8.03021 19.1999 8.33929C19.1998 8.58633 19.1514 8.80278 19.0548 8.98878Z" fill="currentColor"/>
</svg>
