<svg width="24" height="24" viewBox="0 0 24 24" fill="currentColor" xmlns="http://www.w3.org/2000/svg">
<path fill-rule="evenodd" clip-rule="evenodd" d="M16.8001 1.7998C15.1432 1.7998 13.8001 3.14295 13.8001 4.7998V13.7998H15.0001V20.9998C15.0001 21.6625 15.5374 22.1998 16.2001 22.1998C16.8628 22.1998 17.4001 21.6625 17.4001 20.9998V2.3998C17.4001 2.06843 17.1315 1.7998 16.8001 1.7998ZM10.8001 1.7998C10.4687 1.7998 10.2001 2.06843 10.2001 2.3998V7.1998H9.6001V2.3998C9.6001 2.06843 9.33147 1.7998 9.0001 1.7998C8.66873 1.7998 8.4001 2.06843 8.4001 2.3998V7.1998H7.8001V2.3998C7.8001 2.06843 7.53147 1.7998 7.2001 1.7998C6.86873 1.7998 6.6001 2.06843 6.6001 2.3998V8.3998C6.60019 9.16261 7.08096 9.84258 7.8001 10.097V20.9998C7.8001 21.6625 8.33736 22.1998 9.0001 22.1998C9.66284 22.1998 10.2001 21.6625 10.2001 20.9998V10.097C10.9192 9.84258 11.4 9.16261 11.4001 8.3998V2.3998C11.4001 2.06843 11.1315 1.7998 10.8001 1.7998Z" fill="currentColor"/>
</svg>
