<svg width="24" height="24" viewBox="0 0 24 24" fill="currentColor" xmlns="http://www.w3.org/2000/svg">
<path fill-rule="evenodd" clip-rule="evenodd" d="M12 2.40002C6.36668 2.40002 1.79999 6.02642 1.79999 10.5C1.79999 13.9672 4.54319 16.9254 8.39999 18.081V22.2L12 18.6C17.6333 18.6 22.2 14.9736 22.2 10.5C22.2 6.02642 17.6333 2.40002 12 2.40002ZM16.2 14.4H7.79999C7.3703 14.4 6.97339 14.1704 6.75939 13.7978C6.54539 13.4252 6.54697 12.9666 6.76355 12.5954L6.77341 12.5785C6.77327 12.5788 6.77358 12.5783 6.77341 12.5785L10.9635 5.39544C11.1785 5.02676 11.5732 4.80004 12 4.80004C12.4268 4.80004 12.8214 5.02676 13.0364 5.39544L17.2364 12.5954C17.453 12.9665 17.4545 13.4251 17.2405 13.7977C17.0265 14.1703 16.6297 14.4 16.2 14.4ZM12 13.2C11.6686 13.2 11.4 12.9314 11.4 12.6C11.4 12.2687 11.6686 12 12 12C12.3314 12 12.6 12.2687 12.6 12.6C12.6 12.9314 12.3314 13.2 12 13.2ZM12.5982 7.84375L12.3999 11.1042C12.3999 11.325 12.2208 11.408 11.9999 11.408C11.7791 11.408 11.6001 11.325 11.6 11.1042L11.4011 7.83624C11.4004 7.82424 11.4 7.81224 11.4 7.80002C11.4 7.46865 11.6686 7.20002 12 7.20002C12.3313 7.20002 12.6 7.46865 12.6 7.80002C12.6 7.81474 12.5993 7.82928 12.5982 7.84375Z" fill="currentColor"/>
</svg>
