<svg width="24" height="24" viewBox="0 0 24 24" fill="currentColor" xmlns="http://www.w3.org/2000/svg">
<path fill-rule="evenodd" clip-rule="evenodd" d="M21.2598 9.82841C21.1565 9.8283 21.0539 9.84482 20.9558 9.87732C20.7026 9.96132 20.424 9.77486 20.424 9.50806V7.17595C20.4221 6.51401 19.886 5.97789 19.2241 5.97595H12.6392C12.3058 5.97693 12.0335 6.24267 12.0244 6.57595H12.0233C12.0066 6.24057 11.7303 5.97693 11.3945 5.97595H4.82405C4.16211 5.97789 3.62599 6.51401 3.62405 7.17595V9.50806C3.62405 9.77486 3.32146 9.96137 3.06828 9.87732C2.77434 9.77993 2.45153 9.82955 2.2004 10.0107C1.94927 10.1919 1.80036 10.4826 1.80005 10.7922V15.1345C1.80005 15.4108 1.9099 15.6757 2.10531 15.8711C2.30072 16.0664 2.56573 16.176 2.84201 16.176H3.62405V16.776C3.62405 17.1073 3.89268 17.376 4.22405 17.376C4.55542 17.376 4.82405 17.1073 4.82405 16.776V16.176H19.2241V16.776C19.2241 17.1073 19.4927 17.376 19.824 17.376C20.1554 17.376 20.424 17.1073 20.424 16.776V16.176H21.1821C21.4584 16.1761 21.7234 16.0664 21.9188 15.8711C22.1142 15.6758 22.2241 15.4108 22.2241 15.1345V10.7922C22.2241 10.5365 22.1224 10.2913 21.9415 10.1106C21.7607 9.92985 21.5155 9.82834 21.2598 9.82841ZM20.424 12.276C20.4226 12.7724 20.0205 13.1745 19.524 13.176H4.52405C4.02759 13.1745 3.6255 12.7724 3.62405 12.276C3.6255 11.7795 4.02759 11.3774 4.52405 11.376H11.4437C11.7638 11.3769 12.0231 11.6362 12.024 11.9563C12.025 11.6358 12.2846 11.3769 12.605 11.376H19.524C20.0205 11.3774 20.4226 11.7795 20.424 12.276Z" fill="currentColor"/>
</svg>
