<svg width="24" height="24" viewBox="0 0 24 24" fill="currentColor" xmlns="http://www.w3.org/2000/svg">
<path fill-rule="evenodd" clip-rule="evenodd" d="M21.6 3.5998H19.1163L19.3162 2.9998H21V2.3998C21 2.06843 20.7314 1.7998 20.4 1.7998H18C17.6686 1.7998 17.4 2.06843 17.4 2.3998V2.9998H18.6838L18.4838 3.5998H12.3V2.9998H13.8V2.3998C13.8 2.06843 13.5314 1.7998 13.2 1.7998H10.8C10.4686 1.7998 10.2 2.06843 10.2 2.3998V2.9998H11.7V3.5998H5.51622L5.31623 2.9998H6.60001V2.3998C6.60001 2.06843 6.33138 1.7998 6.00001 1.7998H3.60001C3.26864 1.7998 3.00001 2.06843 3.00001 2.3998V2.9998H4.68378L4.88377 3.5998H2.40001C1.73727 3.5998 1.20001 4.13706 1.20001 4.7998V14.3998C1.20001 15.0625 1.73727 15.5998 2.40001 15.5998H21.6C22.2628 15.5998 22.8 15.0625 22.8 14.3998V4.7998C22.8 4.13706 22.2628 3.5998 21.6 3.5998ZM21.6 14.3998H2.40001V4.7998H21.6V14.3998ZM21 16.1998H3.00001C2.66864 16.1998 2.40001 16.4684 2.40001 16.7998C2.40001 17.1312 2.66864 17.3998 3.00001 17.3998H10.2V22.7998H13.8V17.3998H21C21.3314 17.3998 21.6 17.1312 21.6 16.7998C21.6 16.4684 21.3314 16.1998 21 16.1998Z" fill="currentColor"/>
</svg>
