<svg width="24" height="24" viewBox="0 0 24 24" fill="currentColor" xmlns="http://www.w3.org/2000/svg">
<path fill-rule="evenodd" clip-rule="evenodd" d="M12 1.80005C6.3667 1.80005 1.8 6.36674 1.8 12C1.8 17.6334 6.3667 22.2001 12 22.2001C17.6333 22.2001 22.2 17.6334 22.2 12C22.2 6.36674 17.6333 1.80005 12 1.80005ZM12 3.60005C16.6392 3.60005 20.4 7.36085 20.4 12H16.7931C16.7296 10.4909 16.1705 9.04475 15.2023 7.88537L14.3817 12.3434C14.2359 13.3413 13.4825 14.1421 12.4953 14.3484C11.5081 14.5547 10.4971 14.1227 9.96387 13.2667C9.43058 12.4107 9.48847 11.3128 10.1088 10.5177L13.1589 6.21723C10.3883 4.73388 6.96548 5.30958 4.83257 7.61765C6.30915 5.20783 8.96676 3.60005 12 3.60005ZM10.5943 10.8704C10.1185 11.4655 10.0684 12.2955 10.4686 12.9439C10.8687 13.5923 11.6331 13.9193 12.3784 13.7609C13.1236 13.6024 13.6889 12.9927 13.7907 12.2376L15.2515 4.30402L10.5943 10.8704Z" fill="currentColor"/>
</svg>
