<svg width="24" height="24" viewBox="0 0 24 24" fill="currentColor" xmlns="http://www.w3.org/2000/svg">
<path fill-rule="evenodd" clip-rule="evenodd" d="M21.0015 11.4149C21.0591 11.0554 21.0881 10.6918 21.0881 10.3277C21.0888 6.56103 18.036 3.50692 14.2694 3.50595H14.2634C12.3237 3.50595 10.4762 4.33363 9.18499 5.78115C7.62667 5.63893 6.22219 6.66603 5.8493 8.14261C3.50938 8.63921 1.79578 10.72 1.79578 13.1556C1.79578 15.386 3.22752 17.2882 5.21988 17.9908C5.40335 18.0563 5.60718 18.0285 5.76647 17.9164C5.92576 17.8043 6.02065 17.6218 6.02093 17.427C6.02205 17.1728 5.86278 16.9455 5.62349 16.8598C4.09505 16.3234 2.99611 14.8654 2.99611 13.1556C2.99611 11.1746 4.47598 9.50009 6.43838 9.26065C6.71736 9.2266 6.93536 9.00352 6.96298 8.72384C7.06243 7.72922 7.89828 6.97112 8.89786 6.96893C8.96165 6.96893 9.02618 6.97208 9.09096 6.97853C9.16199 6.9856 9.23257 6.99654 9.3024 7.01132C9.52377 7.05818 9.75269 6.97652 9.89441 6.80012C10.9586 5.47642 12.5655 4.70654 14.2639 4.70665H14.2688C15.7594 4.70692 17.1888 5.29931 18.2425 6.35349C19.2963 7.40767 19.8881 8.83729 19.8878 10.3278C19.8878 10.7251 19.846 11.1213 19.763 11.5098C19.7154 11.7348 19.7984 11.9674 19.9776 12.1115C20.638 12.6398 21.0213 13.4405 21.0185 14.2862C21.0187 15.0269 20.7246 15.7378 20.201 16.2616C19.6773 16.7854 18.9671 17.0797 18.2264 17.0798H17.4222C17.2629 17.0799 17.1102 17.1431 16.9977 17.2558C16.8851 17.3684 16.8219 17.5211 16.822 17.6804C16.822 18.0118 17.0907 18.2806 17.4222 18.2806H18.2265C20.4278 18.2806 22.2187 16.4893 22.219 14.2873C22.2226 13.2037 21.7827 12.1658 21.0015 11.4149ZM14.1907 20.522H14.1855C13.7316 20.5218 13.2966 20.3401 12.9775 20.0172C12.8247 19.8655 12.7649 19.6435 12.8208 19.4355C12.8767 19.2276 13.0397 19.0655 13.248 19.0108C13.4563 18.956 13.6779 19.017 13.8288 19.1707C13.9918 19.3345 14.2445 19.3683 14.4447 19.2531C14.645 19.1379 14.7429 18.9025 14.6833 18.6793C14.6237 18.456 14.4215 18.3007 14.1905 18.3007H7.52458C7.19448 18.2986 6.92799 18.0304 6.92799 17.7003C6.92799 17.3702 7.19448 17.102 7.52458 17.1H14.1904C14.6456 17.1011 15.0818 17.2826 15.4035 17.6047C15.8907 18.0948 16.0353 18.8298 15.77 19.4678C15.5047 20.1059 14.8817 20.5217 14.1907 20.522ZM17.2401 15.8873H7.52458C7.19299 15.8873 6.92419 15.6185 6.92419 15.2869C6.92419 14.9553 7.19299 14.6865 7.52458 14.6865H17.239C17.5951 14.6854 17.9063 14.4456 17.9979 14.1014C18.0895 13.7573 17.9389 13.3944 17.6304 13.2164C17.322 13.0383 16.9325 13.0893 16.6803 13.3408C16.5284 13.4922 16.3073 13.5511 16.1002 13.4953C15.8932 13.4395 15.7316 13.2775 15.6764 13.0702C15.6212 12.863 15.6807 12.6421 15.8326 12.4906C16.4694 11.856 17.4528 11.7276 18.2312 12.1775C19.0095 12.6274 19.3892 13.5436 19.1571 14.4122C18.9251 15.2807 18.1391 15.8855 17.2401 15.8873ZM12.525 13.4739H7.52458C7.19448 13.4718 6.92799 13.2036 6.92799 12.8735C6.92799 12.5434 7.19448 12.2752 7.52458 12.2732H12.5251C12.7562 12.2732 12.9584 12.1179 13.0181 11.8946C13.0777 11.6713 12.9798 11.4359 12.7795 11.3207C12.5792 11.2055 12.3264 11.2393 12.1634 11.4032C12.0122 11.5552 11.7914 11.6151 11.5841 11.5601C11.3768 11.5052 11.2145 11.3439 11.1584 11.1369C11.1023 10.9299 11.1609 10.7087 11.3122 10.5566C11.8586 10.0073 12.706 9.89392 13.3777 10.2802C14.0494 10.6664 14.3776 11.4559 14.1777 12.2045C13.9779 12.9531 13.2998 13.4739 12.525 13.4739Z" fill="currentColor"/>
</svg>
