<svg width="24" height="24" viewBox="0 0 24 24" fill="currentColor" xmlns="http://www.w3.org/2000/svg">
<path fill-rule="evenodd" clip-rule="evenodd" d="M19.8 3H2.40002V15.6C2.40002 16.5941 3.20591 17.4 4.20002 17.4H14.4V21L18 17.4H21.6V4.8C21.6 3.80589 20.7941 3 19.8 3ZM5.40002 11.4H8.40002C8.7314 11.4 9.00002 11.6686 9.00002 12C9.00002 12.3314 8.7314 12.6 8.40002 12.6H5.40002C5.06865 12.6 4.80002 12.3314 4.80002 12C4.80002 11.6686 5.06865 11.4 5.40002 11.4ZM7.20002 14.4343C7.19906 14.7653 6.931 15.0334 6.60002 15.0343H5.40002C5.06905 15.0334 4.80099 14.7653 4.80002 14.4343C4.80099 14.1033 5.06905 13.8353 5.40002 13.8343H6.60002C6.931 13.8353 7.19906 14.1033 7.20002 14.4343ZM13.8 14.4916C13.7991 14.791 13.5567 15.0334 13.2573 15.0343H8.94274C8.64337 15.0334 8.40091 14.791 8.40002 14.4916V14.377C8.40091 14.0777 8.64337 13.8352 8.94274 13.8343H13.2573C13.5567 13.8352 13.7991 14.0777 13.8 14.377V14.4916ZM14.4 12.6343H10.8C10.4691 12.6334 10.201 12.3653 10.2 12.0343C10.201 11.7033 10.4691 11.4353 10.8 11.4343H14.4C14.731 11.4353 14.9991 11.7033 15 12.0343C14.9991 12.3653 14.731 12.6334 14.4 12.6343ZM19.2 14.4731C19.1991 14.7827 18.9484 15.0334 18.6388 15.0343H15.5613C15.2517 15.0334 15.0009 14.7827 15 14.4731V14.3956C15.0009 14.086 15.2517 13.8352 15.5613 13.8343H18.6388C18.9484 13.8352 19.1991 14.086 19.2 14.3956V14.4731ZM19.2 12.0343C19.1991 12.3653 18.931 12.6334 18.6 12.6343H16.8C16.4691 12.6334 16.201 12.3653 16.2 12.0343C16.201 11.7033 16.4691 11.4353 16.8 11.4343H18.6C18.931 11.4353 19.1991 11.7033 19.2 12.0343Z" fill="currentColor"/>
</svg>
