<svg width="24" height="24" viewBox="0 0 24 24" fill="currentColor" xmlns="http://www.w3.org/2000/svg">
<path fill-rule="evenodd" clip-rule="evenodd" d="M20 4.188H7.40696V4.18248C7.40696 3.53208 6.87488 3 6.22472 3H4.98032C4.3316 3 3.80072 3.53088 3.80072 4.1796V4.188H3.2C2.53736 4.188 2 4.72536 2 5.388V16.788C2 17.4506 2.53736 17.988 3.2 17.988H20C20.6626 17.988 21.2 17.4506 21.2 16.788V5.388C21.2 4.72536 20.6626 4.188 20 4.188ZM4.39184 4.19376L4.39208 4.188C4.39496 3.86016 4.66424 3.59304 4.99256 3.59304H6.19904C6.52808 3.59304 6.7976 3.86016 6.80168 4.188C6.80192 4.19064 6.80192 4.19304 6.80192 4.19568V6.78624C6.80192 6.852 6.72368 6.88608 6.67544 6.8412L5.6564 5.89392C5.6276 5.86704 5.5832 5.86704 5.5544 5.89344L4.51784 6.84336C4.4696 6.88752 4.39184 6.8532 4.39184 6.78792V4.19376ZM11.576 17.364C11.2446 17.364 10.976 17.0954 10.976 16.764C10.976 16.4326 11.2446 16.164 11.576 16.164C11.9074 16.164 12.176 16.4326 12.176 16.764C12.176 17.0954 11.9074 17.364 11.576 17.364ZM20 15.588H3.2V5.412H3.80072V8.18088L5.49584 6.69768C5.5568 6.6444 5.648 6.64416 5.7092 6.69768L7.40696 8.18088V5.412H20V15.588ZM14.6031 10.5L9.80312 13.5V7.5L14.6031 10.5ZM16.4 20.388H13.4V18.588H9.8V20.388H6.8C6.46856 20.388 6.2 20.6566 6.2 20.988V21.588H6.8H9.8H13.4H16.4H17V20.988C17 20.6566 16.7314 20.388 16.4 20.388Z" fill="currentColor"/>
</svg>
