<svg width="24" height="24" viewBox="0 0 24 24" fill="currentColor" xmlns="http://www.w3.org/2000/svg">
<path fill-rule="evenodd" clip-rule="evenodd" d="M9.23009 18.6933L8.37485 19.204C8.28389 19.2583 8.16619 19.2298 8.11018 19.1399L7.82494 18.6819C7.76841 18.5912 7.79579 18.4718 7.88623 18.4147L8.82312 17.824C8.87955 17.7884 8.91377 17.7264 8.91377 17.6596C8.91377 17.5929 8.87955 17.5308 8.82312 17.4952L7.88621 16.9044C7.79578 16.8473 7.7684 16.728 7.82491 16.6372L8.11018 16.1792C8.16619 16.0893 8.28389 16.0608 8.37485 16.1151L9.23009 16.6258C9.29015 16.6617 9.36484 16.6625 9.42567 16.628C9.4865 16.5934 9.52409 16.5289 9.52411 16.459V15.3535C9.52411 15.3019 9.54459 15.2525 9.58105 15.216C9.61751 15.1795 9.66695 15.1591 9.71851 15.1591H10.3146C10.3662 15.1591 10.4156 15.1795 10.4521 15.216C10.4885 15.2525 10.509 15.3019 10.509 15.3535V16.4588C10.509 16.5288 10.5466 16.5933 10.6075 16.6278C10.6683 16.6624 10.743 16.6616 10.803 16.6257L11.6583 16.1151C11.7493 16.0608 11.8669 16.0893 11.9229 16.1792L12.2068 16.6349C12.2342 16.6789 12.2429 16.732 12.231 16.7825C12.219 16.8329 12.1875 16.8765 12.1433 16.9035L11.1783 17.4939C11.1205 17.5292 11.0854 17.592 11.0854 17.6597C11.0854 17.7274 11.1205 17.7902 11.1783 17.8255L12.1432 18.4157C12.1874 18.4427 12.219 18.4863 12.2309 18.5367C12.2429 18.5872 12.2342 18.6403 12.2068 18.6843L11.9229 19.14C11.8669 19.2299 11.7493 19.2584 11.6583 19.2041L10.803 18.6934C10.7429 18.6575 10.6682 18.6567 10.6074 18.6912C10.5466 18.7258 10.509 18.7903 10.509 18.8603V19.9656C10.509 20.0172 10.4885 20.0666 10.452 20.1031C10.4156 20.1395 10.3661 20.16 10.3146 20.16H9.71851C9.61115 20.16 9.52411 20.073 9.52411 19.9656V18.8602C9.5241 18.7902 9.48651 18.7257 9.42568 18.6911C9.36485 18.6566 9.29015 18.6574 9.23009 18.6933ZM20.9795 11.736C21.037 11.3775 21.0658 11.015 21.0659 10.6519C21.0659 6.9963 18.1803 3.99246 14.5276 3.84583C14.4367 3.84228 14.3456 3.84 14.254 3.84H14.248C14.0925 3.84 13.9368 3.84612 13.7814 3.85696C12.0107 3.97771 10.3575 4.78673 9.17578 6.1109C9.07872 6.10204 8.98202 6.09762 8.88566 6.09765C7.44932 6.10102 6.19752 7.07654 5.84333 8.46854C4.87276 8.6753 3.98367 9.16094 3.28522 9.86587C2.33145 10.8247 1.79578 12.122 1.79578 13.4744C1.79578 15.9402 3.54881 18.0041 5.8741 18.486C6.0512 18.5221 6.23513 18.4766 6.375 18.3621C6.51487 18.2476 6.59586 18.0764 6.59556 17.8956C6.59467 17.609 6.39264 17.3625 6.11182 17.3052C4.33718 16.934 3.00022 15.3574 3.00022 13.4742C3.00076 11.4981 4.47381 9.83218 6.43498 9.5897L6.91385 9.53131L6.95897 9.0755C7.00813 8.54895 7.26674 8.06422 7.67671 7.73018C8.01966 7.45293 8.4474 7.30185 8.8884 7.30221C8.95296 7.30221 9.01784 7.30541 9.08304 7.31181C9.15385 7.31884 9.22422 7.32974 9.29383 7.34445L9.65592 7.42113L9.88788 7.13275C10.8608 5.92273 12.2931 5.17182 13.8417 5.05992C13.9772 5.04993 14.1129 5.04436 14.2486 5.04436H14.2535C14.3341 5.04436 14.4143 5.04638 14.4943 5.04974C14.7162 5.05904 14.9373 5.08138 15.1565 5.11665C17.8691 5.55999 19.8609 7.90343 19.8613 10.652C19.8613 11.0497 19.8193 11.4463 19.7359 11.8352L19.6578 12.1991L19.9465 12.4301C20.6063 12.9583 20.9904 13.7577 20.9905 14.603C20.9904 15.3416 20.697 16.0505 20.1747 16.5727C19.6523 17.095 18.944 17.3883 18.2053 17.3883H14.3975C14.0649 17.3883 13.7953 17.6578 13.7952 17.9904C13.7952 18.1501 13.8587 18.3033 13.9716 18.4162C14.0846 18.5291 14.2377 18.5926 14.3975 18.5926H18.2053C20.405 18.5926 22.1946 16.8034 22.1949 14.6038C22.1984 13.522 21.7593 12.4858 20.9795 11.736Z" fill="currentColor"/>
</svg>
