<svg width="24" height="24" viewBox="0 0 24 24" fill="currentColor" xmlns="http://www.w3.org/2000/svg">
<path fill-rule="evenodd" clip-rule="evenodd" d="M19.7539 4.20005C16.8445 4.20005 14.1599 3.30655 12 1.80005C9.84013 3.30655 7.15549 4.19938 4.24616 4.19938L3.60001 4.20005V10.8C3.60001 15.2376 6.18459 20.4001 12 22.2001C17.8154 20.4001 20.4 15.2376 20.4 10.8V4.20005H19.7539ZM7.12047 12.6H10.5C10.6657 12.6 10.8 12.4657 10.8 12.3C10.8 12.1344 10.6657 12 10.5 12H7.11759C7.35303 10.7211 8.99919 9.29119 8.99919 9.29119L11.5347 11.8265C11.7469 11.4836 12.1613 11.3237 12.5488 11.4352C12.9363 11.5467 13.2024 11.9024 13.2 12.3056C13.1975 12.7088 12.9272 13.0612 12.5384 13.168C12.1495 13.2748 11.7371 13.11 11.5291 12.7645L8.99907 15.293C8.99907 15.293 7.36649 13.8749 7.12047 12.6ZM16.2 12C16.2075 12.0991 16.2 12.1991 16.2 12.3C16.2008 13.6312 15.522 14.8706 14.4 15.5869V16.8H10.2V15.5869C10.0701 15.5037 9.94525 15.4128 9.82609 15.3148L11.5454 13.5965L11.5511 13.5999C12.181 13.9613 12.9793 13.8195 13.4461 13.2631C13.9128 12.7067 13.9138 11.8958 13.4483 11.3384C12.9828 10.7809 12.1847 10.6372 11.554 10.9973L9.83468 9.27821C10.5301 8.70908 11.4014 8.39872 12.3 8.40005C12.401 8.40005 12.5009 8.40384 12.6 8.41142V6.60005C15.5134 6.75125 17.8489 9.08645 18 12H16.2Z" fill="currentColor"/>
</svg>
