<svg width="24" height="24" viewBox="0 0 24 24" fill="currentColor" xmlns="http://www.w3.org/2000/svg">
<path fill-rule="evenodd" clip-rule="evenodd" d="M19.799 3H4.19902C3.53628 3 2.99902 3.53726 2.99902 4.2V19.8C2.99902 20.4627 3.53628 21 4.19902 21H19.799C20.4619 21 20.9994 20.4629 20.9998 19.8L21.0005 4.2C20.9998 3.53697 20.4621 3 19.799 3ZM19.2002 19.2H4.8014L4.80219 4.8H9.59902V8.4L11.999 6.6L14.4002 8.4V6.6L14.3999 4.79921L19.1999 4.8L19.2002 19.2ZM14.399 13.8H15.599V16.2H17.4005V13.8H18.599L16.499 11.4L14.399 13.8ZM10.799 16.2H12.5998V13.8H13.799L11.699 11.4L9.59902 13.8H10.799V16.2ZM10.799 18H17.399V16.8H10.799V18Z" fill="currentColor"/>
</svg>
