<svg width="24" height="24" viewBox="0 0 24 24" fill="currentColor" xmlns="http://www.w3.org/2000/svg">
<path fill-rule="evenodd" clip-rule="evenodd" d="M20.7613 13.6244C20.1753 14.2104 19.2252 14.2104 18.6392 13.6244L11.6004 6.5855L4.56156 13.6244C3.97558 14.2104 3.0255 14.2104 2.4395 13.6244C1.85351 13.0385 1.8535 12.0884 2.43948 11.5024L10.5032 3.43862C11.1178 2.85379 12.083 2.85379 12.6975 3.43862L20.7613 11.5024C21.3473 12.0884 21.3473 13.0384 20.7613 13.6244ZM11.6008 13.1999C13.9204 13.1999 15.8008 15.0803 15.8008 17.3999C15.8008 19.7195 13.9204 21.5999 11.6008 21.5999C9.28116 21.5999 7.40076 19.7195 7.40076 17.3999C7.40076 15.0803 9.28116 13.1999 11.6008 13.1999Z" fill="currentColor"/>
</svg>
