<svg width="24" height="24" viewBox="0 0 24 24" fill="currentColor" xmlns="http://www.w3.org/2000/svg">
<path fill-rule="evenodd" clip-rule="evenodd" d="M16.8 4.8008C15 4.8008 13.3636 5.26736 12 6.0992C10.6364 5.26736 9 4.80006 7.2 4.80006H1.8V16.9081C1.8 17.5081 2.28 17.9993 2.88 17.9993L7.2 18.0001C8.16 18.0001 9.07575 18.1624 9.88865 18.5062C10.4953 18.7628 11.5569 19.5269 11.5569 19.5269C11.76 19.6681 11.8258 19.7161 12 19.7161C12.1742 19.7161 12.24 19.6681 12.4431 19.5269C12.4431 19.5269 13.5047 18.7628 14.1114 18.5062C14.9243 18.1624 15.84 17.9993 16.8 17.9993L21.12 17.9985C21.4079 17.9974 21.6835 17.8818 21.8861 17.6772C22.0887 17.4727 22.2016 17.196 22.2 16.9081V4.79932L16.8 4.8008ZM21 16.1969C21.0002 16.5288 20.732 16.7984 20.4 16.7998H16.8C15.6 16.7998 14.6051 16.9942 13.6442 17.4005C13.1897 17.5928 12.36 18.1081 12.36 18.1081C12.2614 18.1792 12.12 18.2101 12 18.2101C11.88 18.2101 11.7386 18.1792 11.64 18.1081C11.64 18.1081 10.8103 17.5928 10.3558 17.4005C9.3949 16.9941 8.4 16.7998 7.2 16.7998H3.6C3.26806 16.7984 2.99976 16.5288 3 16.1969V15.5984H7.19854C8.99854 15.5984 10.6364 16.0674 12 16.8992C13.3636 16.0674 15 15.5998 16.8 15.5998H21V16.1969ZM3.6 7.19804H8.4C8.72907 7.2022 8.99365 7.47015 8.99365 7.79924C8.99365 8.12834 8.72907 8.39629 8.4 8.40044H3.6C3.27093 8.39629 3.00635 8.12834 3.00635 7.79924C3.00635 7.47015 3.27093 7.2022 3.6 7.19804ZM3.6 9.60044H8.4C8.73137 9.60044 9 9.86907 9 10.2004C9 10.5318 8.73137 10.8004 8.4 10.8004H3.6C3.27122 10.7968 3.00658 10.5293 3.00658 10.2005C3.00658 9.87167 3.27122 9.60405 3.6 9.60044ZM3.6 11.9982H6C6.33208 11.9982 6.60128 12.2674 6.60128 12.5995C6.60128 12.9316 6.33208 13.2008 6 13.2008H3.6C3.27052 13.1972 3.00531 12.929 3.00531 12.5995C3.00531 12.27 3.27052 12.0018 3.6 11.9982ZM17.1173 7.17606C17.5741 7.17826 17.9428 7.54993 17.9413 8.0067C17.9399 8.46347 17.5688 8.83278 17.112 8.83205C16.6553 8.83132 16.2853 8.46083 16.2853 8.00406C16.2865 7.54567 16.6589 7.17497 17.1173 7.17606ZM18.504 13.8001H16.008V13.5159L16.0667 13.5141C16.2392 13.5085 16.3675 13.4598 16.4479 13.3691C16.4765 13.3363 16.5251 13.2244 16.5251 12.8485V10.3402C16.5251 9.98264 16.4749 9.84784 16.4329 9.79772C16.3734 9.72716 16.2497 9.68572 16.0649 9.67456L16.008 9.67115V9.38406H17.9493V12.8485C17.9493 13.2063 18.0432 13.3411 18.0851 13.391C18.1444 13.4615 18.2591 13.503 18.4471 13.5141L18.504 13.5175V13.8001Z" fill="currentColor"/>
</svg>
