<svg width="24" height="24" viewBox="0 0 24 24" fill="currentColor" xmlns="http://www.w3.org/2000/svg">
<path fill-rule="evenodd" clip-rule="evenodd" d="M18.6 22.2001H4.80005V21.6H5.40005V12L6.60005 10.8V4.80005H10.8V4.20005H12V1.80005H12.6V4.20005H13.8V3.00005H14.4V4.20005H15.6V4.80005H16.8V15.6L18 16.8V21.6H18.6V22.2001ZM13.8 15V16.8H15.6V15H13.8ZM15.6 13.8V12H13.8V13.8H15.6ZM13.8 18V19.8H15.6V18H13.8ZM10.8 15V16.8H12.6V15H10.8ZM12.6 13.8V12H10.8V13.8H12.6ZM10.8 18V19.8H12.6V18H10.8ZM9.58222 6.00005H7.80005V7.80005H9.58222V6.00005ZM9.60022 9.00005H7.82405V10.8H9.60022V9.00005ZM9.60022 12H7.80005V13.8H9.60022V12ZM9.60022 15H7.80005V16.8H9.60022V15ZM9.60022 18H7.80005V19.8H9.60022V18ZM10.8 10.8H12.6V9.00005H10.8V10.8ZM12.606 6.00005H10.8V7.80005H12.606V6.00005ZM15.6 6.00005H13.8V7.80005H15.6V6.00005ZM15.606 9.00005H13.8V10.8H15.606L15.606 9.00005Z" fill="currentColor"/>
</svg>
