<svg width="24" height="24" viewBox="0 0 24 24" fill="currentColor" xmlns="http://www.w3.org/2000/svg">
<path fill-rule="evenodd" clip-rule="evenodd" d="M10.6477 14.664L6.94667 18.3675C7.36144 18.6787 7.8052 18.9491 8.27181 19.1752C8.34698 18.9894 8.4588 18.8207 8.60061 18.6792L11.6306 15.6474L10.6477 14.664ZM4.92045 16.1562L8.51457 12.5686L8.51291 12.5694C8.07976 12.7834 7.57 12.7754 7.14376 12.548C6.71753 12.3205 6.42712 11.9015 6.36378 11.4225L3.94036 13.8316L3.28845 14.4796C2.91671 14.8355 2.70652 15.3279 2.70652 15.8425V18.3545L4.91759 16.1515C4.91855 16.1531 4.91949 16.1546 4.92045 16.1562ZM21.4356 4.1466C21.0838 3.79653 20.5152 3.79653 20.1634 4.1466L17.8143 6.49721L17.1697 7.14219L17.0174 7.29459L16.824 7.4881C16.5125 7.77388 16.1269 7.96629 15.7112 8.04334C15.6968 8.04607 15.6823 8.04868 15.6677 8.05116C15.1637 8.13704 14.6454 8.05952 14.1886 7.82993C14.1736 7.82231 14.1586 7.81455 14.1437 7.80665C13.8687 7.66052 13.6246 7.4626 13.4247 7.22379H10.9387C10.8427 7.22377 10.7474 7.23999 10.6568 7.27179C10.6533 7.27301 10.6498 7.27419 10.6464 7.27534C10.6444 7.27603 10.6425 7.27683 10.6406 7.27752C10.617 7.28602 10.5939 7.29583 10.571 7.30632C10.4785 7.34872 10.3939 7.40667 10.321 7.47766C10.318 7.48059 10.3149 7.4833 10.3119 7.48627L8.56917 9.23023L7.21293 10.5873C6.87107 10.9403 6.87546 11.5022 7.22278 11.8497C7.57011 12.1973 8.13199 12.202 8.48514 11.8604L10.7136 9.63053L10.9533 9.39072L11.1929 9.15091L11.3195 9.02419H12.9147L11.3484 10.5877L9.4253 12.5072L5.25909 16.6583C5.26017 16.6598 5.2612 16.6613 5.26228 16.6627L3.03294 18.8879C2.68149 19.2397 2.68149 19.8097 3.03294 20.1616C3.20167 20.3304 3.43061 20.4253 3.66934 20.4253C3.90807 20.4253 4.13701 20.3304 4.30574 20.1616L6.47774 17.988L10.6477 13.8153L12.4787 15.6474L9.02469 19.1036C8.93578 19.1925 8.86669 19.2992 8.82196 19.4167C8.6948 19.7487 8.77415 20.1244 9.02469 20.3766C9.37652 20.7267 9.94509 20.7267 10.2969 20.3766L10.7593 19.914L14.3628 16.3082C14.7119 15.9369 14.7119 15.358 14.3628 14.9867L13.0937 13.7167L15.3693 11.492L15.4896 11.3694L18.8702 7.9867L21.4356 5.41971C21.7855 5.06747 21.7855 4.49884 21.4356 4.1466ZM17.0383 5.69153C17.0377 6.68899 16.2287 7.49715 15.2312 7.49674C14.2338 7.49633 13.4255 6.6875 13.4257 5.69004C13.4259 4.69258 14.2345 3.88411 15.232 3.88411C16.2299 3.88443 17.0386 4.69364 17.0383 5.69153ZM7.2484 8.87919L7.24876 8.88202L7.73438 8.39609L9.47711 6.65227C9.4889 6.64049 9.49926 6.63067 9.50752 6.62285C9.67635 6.46042 9.87137 6.32762 10.0844 6.23004C10.1369 6.20604 10.1869 6.18523 10.2365 6.16699C10.2417 6.16504 10.2469 6.16313 10.2521 6.16126C10.2621 6.15763 10.2722 6.15406 10.2824 6.15072C10.4977 6.07616 10.724 6.03813 10.952 6.03819H12.2578C12.2457 5.92789 12.2396 5.81703 12.2396 5.70607C12.2377 5.04747 12.4537 4.40674 12.8538 3.88361C12.523 3.84044 12.1899 3.81767 11.8564 3.81545C11.8385 3.81519 11.8015 3.81519 11.8015 3.81519C7.36235 3.81552 3.74879 7.40153 3.71958 11.8507C3.71842 12.0264 3.72293 12.2007 3.73312 12.3736L5.53192 10.5856L7.2484 8.87919ZM16.2219 12.3287L16.2132 12.3375L16.2044 12.3461L14.7967 13.7221L15.2078 14.1335C16.0255 14.9736 16.0255 16.3122 15.2078 17.1524L12.4109 19.9511C16.5598 19.6336 19.8408 16.178 19.8694 11.9395C19.8766 10.9893 19.7162 10.0454 19.3953 9.15101L16.3385 12.2098L16.2219 12.3287Z" fill="currentColor"/>
</svg>
