<svg width="24" height="24" viewBox="0 0 24 24" fill="currentColor" xmlns="http://www.w3.org/2000/svg">
<path fill-rule="evenodd" clip-rule="evenodd" d="M6.55481 10.9656C9.60483 12.1084 12.0118 14.514 13.1563 17.5634L3.70754 20.5146C3.61321 20.544 3.51032 20.5187 3.44042 20.4488L3.07785 20.0864C3.00267 20.0113 2.97952 19.8986 3.01903 19.8L6.55481 10.9656ZM10.4557 12.1651C10.2863 12.1651 10.1453 12.035 10.1317 11.8662L9.55555 4.66747C9.55713 4.17103 9.95933 3.76906 10.4558 3.76776C10.9522 3.76908 11.3544 4.17104 11.356 4.66747L10.7797 11.8662C10.7661 12.035 10.6251 12.1651 10.4557 12.1651ZM11.9561 13.6646C11.9561 13.4952 12.0863 13.3543 12.2552 13.3408L19.4578 12.7648C19.9543 12.7662 20.3564 13.1682 20.358 13.6646C20.3564 14.1611 19.9542 14.563 19.4577 14.5644L12.2551 13.9884C12.0863 13.9749 11.9561 13.834 11.9561 13.6646ZM11.4511 12.6698C11.3313 12.55 11.351 12.331 11.4964 12.1666L17.6396 5.21969C17.6994 5.15087 17.7657 5.08782 17.8373 5.03138C18.2781 4.68986 18.8426 4.65245 19.1577 4.96738C19.4728 5.28228 19.4354 5.84647 19.0937 6.28706C19.0372 6.35869 18.9741 6.42487 18.9053 6.48473L11.9546 12.6245C11.7901 12.7698 11.5709 12.7896 11.4511 12.6698ZM5.18647 6.2136L6.13274 6.72043L6.12139 7.82254L6.95081 7.07462L8.02915 7.36661L7.52011 6.3888L8.13475 5.50901L7.05276 5.58434L6.40361 4.78666L6.18566 5.79156L5.18647 6.2136ZM13.127 3.58231L13.6694 4.50821L13.0842 5.44241L14.1823 5.23709L14.9495 6.04862L15.026 4.94909L16.0097 4.5192L15.0473 4.01906L14.9102 3L14.1995 3.7435L13.127 3.58231ZM19.5092 8.10631L19.146 9.11604L18.0534 9.26606L18.915 9.9767L18.7837 11.0855L19.6771 10.4393L20.6378 10.9181L20.405 9.85939L21.0996 9.1008L20.073 9.03235L19.5092 8.10631ZM18.7791 16.1347L17.8046 16.5848L16.931 15.9123L17.0292 17.0245L16.1468 17.7092L17.2344 17.8916L17.5674 18.9116L18.1585 18.0027L19.1866 17.9648L18.5147 17.1861L18.7791 16.1347Z" fill="currentColor"/>
</svg>
