<svg width="24" height="24" viewBox="0 0 24 24" fill="currentColor" xmlns="http://www.w3.org/2000/svg">
<path fill-rule="evenodd" clip-rule="evenodd" d="M12 2.4C6.3667 2.4 1.8 6.0264 1.8 10.5C1.8 13.9671 4.5432 16.9254 8.4 18.081V22.2L12 18.6C17.6333 18.6 22.2 14.9736 22.2 10.5C22.2 6.0264 17.6333 2.4 12 2.4ZM6.9 12C6.07158 12 5.4 11.3284 5.4 10.5C5.4 9.67157 6.07158 9 6.9 9C7.72843 9 8.4 9.67157 8.4 10.5C8.4 10.8978 8.24197 11.2794 7.96066 11.5607C7.67936 11.842 7.29783 12 6.9 12ZM12 12C11.1716 12 10.5 11.3284 10.5 10.5C10.5 9.67157 11.1716 9 12 9C12.8284 9 13.5 9.67157 13.5 10.5C13.5 11.3284 12.8284 12 12 12ZM17.1 12C16.2716 12 15.6 11.3284 15.6 10.5C15.6 9.67157 16.2716 9 17.1 9C17.9284 9 18.6 9.67157 18.6 10.5C18.6 11.3284 17.9284 12 17.1 12Z" fill="currentColor"/>
</svg>
