<svg width="24" height="24" viewBox="0 0 24 24" fill="currentColor" xmlns="http://www.w3.org/2000/svg">
<path fill-rule="evenodd" clip-rule="evenodd" d="M16.199 1.80005V1.80132C12.9942 1.8311 8.58686 2.42292 5.91374 5.09532C2.98017 8.02826 2.83199 12.6909 5.46844 15.7991C7.33161 11.9269 10.8545 6.88119 17.1746 4.29111C10.6639 7.90697 6.83584 16.4759 5.42159 20.3103C5.0835 21.227 5.76182 22.2001 6.73919 22.2001C7.35931 22.2001 7.90606 21.7935 8.08411 21.1994C8.39495 20.1605 8.73266 19.1683 9.08992 18.2223C11.8222 19.0969 14.9357 18.4508 17.104 16.283C19.7771 13.6104 20.3689 9.20419 20.3987 6.00005H20.4V1.80005H16.199Z" fill="currentColor"/>
</svg>
