<svg width="24" height="24" viewBox="0 0 24 24" fill="currentColor" xmlns="http://www.w3.org/2000/svg">
<path fill-rule="evenodd" clip-rule="evenodd" d="M12.0562 1.80026C12.0335 1.80005 11.9867 1.80005 11.9867 1.80005C6.38583 1.80046 1.82663 6.32208 1.78979 11.932C1.75194 17.5653 6.28743 22.1622 11.9203 22.1999C11.9434 22.1999 11.9661 22.1999 11.9892 22.1999C17.59 22.1999 22.1491 17.6776 22.1868 12.0679C22.2239 6.43445 17.6884 1.8377 12.0562 1.80026ZM10.9439 3.0587V3.62362C10.9368 3.75621 10.8845 3.88237 10.7959 3.98122L9.83569 4.9415C9.73689 5.03012 9.6108 5.08235 9.47828 5.08956H7.5939C7.4784 5.08993 7.38487 5.18347 7.3845 5.29896V6.13656C7.38483 6.25207 7.47839 6.34563 7.5939 6.34596H9.47833C9.59382 6.34634 9.68734 6.43987 9.68771 6.55536V7.39318C9.68739 7.50868 9.59384 7.60225 9.47833 7.60258H8.64073C8.5082 7.60979 8.38211 7.66202 8.2833 7.75063L7.53248 8.50154C7.44387 8.60036 7.39164 8.72647 7.38443 8.859V9.6966C7.37725 9.82914 7.32502 9.95525 7.23639 10.0541L6.48563 10.8048C6.38682 10.8935 6.26074 10.9457 6.12822 10.9529H5.29062C5.15809 10.9457 5.032 10.8935 4.93319 10.8048L4.18237 10.0539C4.08355 9.96534 3.95746 9.91311 3.82494 9.90588H3.23454C4.10514 6.28123 7.1786 3.49786 10.9439 3.0587ZM4.87194 17.5058V17.0258C4.86473 16.8932 4.81251 16.7671 4.72391 16.6683L3.97309 15.9174C3.88446 15.8186 3.83223 15.6925 3.82503 15.5599V13.6752C3.83224 13.5427 3.88448 13.4166 3.97309 13.3178L4.93328 12.3575C5.03209 12.2689 5.15819 12.2166 5.29071 12.2094H5.91887C6.05138 12.2166 6.17747 12.2689 6.27627 12.3575L8.28339 14.3648C8.3822 14.4534 8.5083 14.5056 8.64083 14.5128H9.47843C9.59391 14.5132 9.68743 14.6068 9.6878 14.7222V16.6905C9.68059 16.823 9.62836 16.9491 9.53975 17.048L8.66317 17.9244C8.57449 18.0232 8.52225 18.1494 8.51514 18.2819V19.0359C8.50792 19.1684 8.4557 19.2945 8.36711 19.3933L7.79591 19.9647C6.65755 19.3622 5.66074 18.5239 4.87194 17.5058ZM16.182 19.9605L15.6983 19.4771C15.6097 19.3783 15.5575 19.2522 15.5503 19.1196V15.9784C15.5431 15.8459 15.4909 15.7198 15.4023 15.621L14.4421 14.6606C14.3433 14.572 14.2172 14.5198 14.0847 14.5126H11.9909C11.8754 14.5122 11.7818 14.4187 11.7815 14.3032V12.4188C11.7887 12.2862 11.8409 12.1601 11.9295 12.0613L12.8898 11.101C12.9886 11.0124 13.1147 10.9601 13.2472 10.9529H15.341C15.4735 10.9457 15.5996 10.8935 15.6983 10.8048L16.6586 9.84454C16.7574 9.75593 16.8835 9.70369 17.016 9.69648H17.6441C17.7596 9.69615 17.8532 9.60259 17.8535 9.48708V8.8589C17.8531 8.74342 17.7596 8.64989 17.6441 8.6495H17.0161C16.8835 8.65672 16.7574 8.70894 16.6586 8.79754L15.6983 9.75787C15.5995 9.84647 15.4734 9.89869 15.3409 9.9059L13.2586 9.90571C13.143 9.90545 13.0494 9.81185 13.0492 9.69631V8.85871C13.0563 8.7261 13.1083 8.59985 13.1966 8.50066L14.1466 7.54157C14.245 7.45261 14.3709 7.40012 14.5034 7.39289H16.3878C16.5033 7.39256 16.5969 7.299 16.5972 7.18349V6.55526C16.5969 6.43977 16.5033 6.34623 16.3878 6.34587H15.5502C15.4347 6.34552 15.3412 6.25197 15.3409 6.13647V5.29887C15.3412 5.18338 15.4347 5.08985 15.5502 5.08946L17.7539 5.08968C19.6804 6.70027 20.9219 9.09982 20.986 11.7824L20.3047 11.101C20.2059 11.0124 20.0798 10.9602 19.9472 10.953H19.3193C19.2038 10.9533 19.1102 11.0469 19.1099 11.1624V12C19.1171 12.1326 19.1693 12.2587 19.2579 12.3575L20.0087 13.1081C20.0973 13.2069 20.1496 13.333 20.1568 13.4656V14.3032C20.1496 14.4357 20.0974 14.5618 20.0087 14.6606L19.2579 15.4115C19.1693 15.5104 19.1171 15.6365 19.1099 15.769V17.4922C18.3203 18.5135 17.3222 19.355 16.182 19.9605Z" fill="currentColor"/>
</svg>
