<svg width="24" height="24" viewBox="0 0 24 24" fill="currentColor" xmlns="http://www.w3.org/2000/svg">
<path fill-rule="evenodd" clip-rule="evenodd" d="M20.727 16.2467C20.5104 16.4633 20.2166 16.5851 19.9102 16.5851C19.6038 16.5851 19.3099 16.4633 19.0933 16.2467L15.5189 12.6717V15.2826L19.0206 18.7968C19.5888 19.367 19.758 20.2232 19.4493 20.9666C19.1406 21.7101 18.4148 22.1948 17.6098 22.1948H10.0246C9.16179 22.0514 8.55313 21.2704 8.62496 20.3987C8.69678 19.5271 9.42508 18.8562 10.2997 18.856H14.2498L13.6273 18.2334H10.2997C9.36033 18.2332 8.51505 18.8037 8.16385 19.675C7.81264 20.5462 8.02593 21.5434 8.7028 22.1948H6.3628C5.55784 22.1946 4.83211 21.71 4.52349 20.9665C4.21487 20.2231 4.38403 19.367 4.9522 18.7968L8.45404 15.2825V12.6717L4.87965 16.2467C4.42843 16.6978 3.69693 16.6977 3.24579 16.2465C2.79465 15.7953 2.79471 15.0638 3.24592 14.6127L8.92233 8.93534C8.95223 8.90552 8.98372 8.87733 9.01667 8.85091C9.18509 8.62246 9.38637 8.42019 9.61398 8.2506C9.67178 8.29406 9.7307 8.3363 9.7912 8.37682C11.1197 9.266 12.8533 9.266 14.1818 8.37682C14.2424 8.33628 14.3013 8.29402 14.3591 8.2506C14.5871 8.42036 14.7888 8.62297 14.9574 8.85185C14.99 8.87801 15.0211 8.90589 15.0506 8.93539L20.727 14.6127C21.1782 15.0639 21.1782 15.7954 20.727 16.2467ZM10.1585 7.8282C11.1689 8.50242 12.4684 8.56572 13.5395 7.99292C14.6107 7.42011 15.2796 6.30419 15.2799 5.08949C15.2799 3.27331 13.8024 1.79578 11.9865 1.79578C10.1706 1.79578 8.69306 3.27331 8.69306 5.08949C8.69326 6.18989 9.2431 7.21748 10.1585 7.8282Z" fill="currentColor"/>
</svg>
