<svg width="24" height="24" viewBox="0 0 24 24" fill="currentColor" xmlns="http://www.w3.org/2000/svg">
<path fill-rule="evenodd" clip-rule="evenodd" d="M13.2965 12.012L17.327 7.98151C17.6785 7.63003 17.6785 7.06018 17.327 6.70872L12.6601 2.04183L12.6536 2.04828C12.6515 2.04615 12.6496 2.04394 12.6475 2.04183C12.296 1.69032 11.7261 1.69032 11.3747 2.04183C11.187 2.22951 11.0996 2.47942 11.1124 2.72513V9.82793L8.0277 6.74328C8.01714 6.73155 8.00622 6.72003 7.99494 6.70875C7.64346 6.35727 7.07361 6.35727 6.72215 6.70875C6.37098 7.05991 6.3707 7.62907 6.72126 7.98063L6.72035 7.98154L10.7509 12.012L6.72038 16.0425L6.72129 16.0435C6.37072 16.395 6.37101 16.9642 6.72218 17.3153C7.07366 17.6668 7.64349 17.6668 7.99497 17.3153C8.00625 17.304 8.01714 17.2925 8.02773 17.2808L11.1124 14.1961V21.2944C11.0983 21.5416 11.1855 21.7934 11.3744 21.9823C11.7258 22.3338 12.2957 22.3338 12.6472 21.9823C12.6493 21.9801 12.6513 21.9778 12.6534 21.9757L12.6601 21.9823L17.327 17.3154C17.6784 16.9639 17.6784 16.394 17.327 16.0426L13.2965 12.012ZM15.4178 16.6789L12.9124 19.1844V14.1735L15.4178 16.6789ZM12.9124 9.85054V4.8397L15.4178 7.34513L12.9124 9.85054Z" fill="currentColor"/>
</svg>
