<svg width="24" height="24" viewBox="0 0 24 24" fill="currentColor" xmlns="http://www.w3.org/2000/svg">
<path fill-rule="evenodd" clip-rule="evenodd" d="M7.2 5.4L9.6 3H3.89897C3.40248 3 3 3.40248 3 3.89897V9.6L5.4 7.2L11.0546 12.8546C11.2758 13.0758 11.4 13.3757 11.4 13.6885V20.0803C11.4 20.5883 11.8117 21 12.3197 21H12.8803C13.3883 21 13.8 20.5883 13.8 20.0803V12.4885C13.8 12.1757 13.6758 11.8757 13.4546 11.6546L7.2 5.4ZM21 3.915C21 3.40966 20.5903 3 20.085 3H14.4L16.8 5.4L12.9 9.3L14.7 11.1L18.6 7.2L21 9.6V3.915Z" fill="currentColor"/>
</svg>
