<svg width="25" height="24" viewBox="0 0 25 24" fill="currentColor" xmlns="http://www.w3.org/2000/svg">
<path fill-rule="evenodd" clip-rule="evenodd" d="M19.0526 12.9909C19.1507 12.5335 19.2002 12.067 19.2 11.5992C19.2 7.9546 16.2451 5 12.6 5C10.6011 4.99823 8.70951 5.90419 7.45793 7.46276C6.70362 7.29684 5.91436 7.46168 5.28952 7.91566C4.66468 8.36963 4.26402 9.06933 4.18874 9.838C1.8264 10.1383 0 12.1553 0 14.5989C0 17.2495 2.14903 19.3983 4.8 19.3983H16.8C18.3279 19.3985 19.6895 18.434 20.1962 16.9926C20.703 15.5512 20.2445 13.9469 19.0526 12.9909ZM9.56309 14.0061C9.23444 13.7162 9.04618 13.299 9.04618 12.8608C9.04618 12.4225 9.23444 12.0054 9.56309 11.7155V14.0061ZM16.0246 14.3624C16.0249 14.6006 15.9763 14.8363 15.8817 15.0549C15.5925 15.7172 14.9381 16.1449 14.2154 16.144H13.7407C13.6844 16.2971 13.5385 16.3987 13.3754 16.3986H12.7939C12.656 16.4007 12.5277 16.3284 12.4582 16.2094C12.3886 16.0904 12.3886 15.9431 12.4582 15.8241C12.5277 15.7051 12.656 15.6328 12.7939 15.635H13.3754C13.5385 15.6348 13.6844 15.7365 13.7407 15.8895H14.2154C15.0683 15.8895 15.7662 15.2023 15.7662 14.3624V14.3192C15.7059 14.3473 15.635 14.3623 15.5089 14.3624H15.5077C15.2244 14.3646 14.993 14.1367 14.9908 13.8534V11.8174C14.993 11.5341 15.2244 11.3062 15.5077 11.3083V11.0538C15.5082 10.7144 15.4389 10.3785 15.3041 10.067C14.891 9.12013 13.9561 8.50805 12.9231 8.50805C11.89 8.50805 10.9552 9.12013 10.542 10.067C10.4073 10.3785 10.338 10.7144 10.3385 11.0538V11.3083C10.6218 11.3062 10.8532 11.5341 10.8554 11.8174V13.8534C10.8532 14.1367 10.6218 14.3646 10.3385 14.3625H10.3373C10.0553 14.3623 10.0493 14.2879 9.82157 14.1581V11.0538C9.82157 9.37403 11.2172 7.99964 12.9231 7.99964C14.6289 7.99964 16.0246 9.37403 16.0246 11.0538V14.3624ZM16.2831 14.0061V11.7156C16.3227 11.7507 16.3604 11.7879 16.3962 11.8269C16.6744 12.1289 16.8193 12.5303 16.798 12.9403C16.7767 13.3504 16.5911 13.7345 16.2831 14.0061Z" fill="currentColor"/>
</svg>
