<svg width="24" height="24" viewBox="0 0 24 24" fill="currentColor" xmlns="http://www.w3.org/2000/svg">
<path fill-rule="evenodd" clip-rule="evenodd" d="M13.7061 22.2002H9.17798C8.55278 22.2002 8.0459 21.6933 8.0459 21.0681V18.8042H14.8379V21.0681C14.8381 21.6933 14.3313 22.2002 13.7061 22.2002ZM9.17798 1.82422H13.7058C14.331 1.82422 14.8379 2.3311 14.8379 2.9563V5.22022H8.0459V2.9563C8.04614 2.3311 8.55302 1.82422 9.17798 1.82422ZM18.5171 9.7483H17.6682V6.91822C17.6682 6.29302 17.1613 5.78614 16.5361 5.78614H6.34814C5.72294 5.78614 5.21606 6.29302 5.21606 6.91822V17.1062C5.21606 17.7314 5.72294 18.2383 6.34814 18.2383H16.5361C17.1613 18.2383 17.6682 17.7314 17.6682 17.1062V11.4463H18.5171C18.6733 11.4463 18.8001 11.3196 18.8001 11.1633V10.0313C18.8001 9.87502 18.6733 9.7483 18.5171 9.7483ZM16.5359 17.1062H6.3479V6.91822H16.5359V17.1062Z" fill="currentColor"/>
<path d="M11.4342 8.75182C9.6335 8.75182 8.17382 10.2115 8.17382 12.0122C8.17382 13.8129 9.6335 15.2726 11.4342 15.2726C13.2349 15.2726 14.6946 13.8129 14.6946 12.0122C14.6946 10.2115 13.2349 8.75182 11.4342 8.75182ZM11.4342 14.7293C9.93374 14.7293 8.71718 13.5127 8.71718 12.0122C8.71718 10.5117 9.93374 9.29518 11.4342 9.29518C12.9347 9.29518 14.1513 10.5117 14.1513 12.0122C14.1513 13.5127 12.9349 14.7293 11.4342 14.7293Z" fill="currentColor"/>
<path d="M12.8339 13.2509C12.6025 13.7959 12.2015 14.046 11.5338 14.046C11.1071 14.046 10.7565 13.9286 10.492 13.6699C10.2467 13.4301 10.096 13.1213 10.023 12.755H9.8003C9.64118 12.755 9.53702 12.6473 9.53702 12.4905C9.53702 12.3314 9.63878 12.2057 9.8003 12.2057H9.98246C9.98174 12.1447 9.98246 12.0732 9.98246 12.0429C9.98246 11.9985 9.98006 11.982 9.98246 11.9006H9.8003C9.64118 11.9006 9.53702 11.7727 9.53702 11.6157C9.53702 11.4588 9.64094 11.3105 9.8003 11.3105H10.0432C10.1262 10.9238 10.2839 10.5845 10.5292 10.3485C10.7925 10.0953 11.1397 9.97846 11.5336 9.97846C12.1787 9.97846 12.598 10.2401 12.8152 10.7753C12.837 10.8218 12.8481 10.8727 12.8473 10.9241C12.8473 11.0474 12.7737 11.1537 12.645 11.2075L12.6402 11.219H12.6352C12.5985 11.2394 12.55 11.2313 12.5032 11.2313C12.3789 11.2313 12.279 11.1475 12.2289 11.0261C12.0904 10.6917 11.9085 10.5653 11.5336 10.5653C11.0999 10.5653 10.7886 10.8019 10.6504 11.3105H12.027C12.1885 11.3105 12.2836 11.4547 12.2836 11.6107C12.2836 11.7705 12.1861 11.9004 12.027 11.9004H10.5695C10.5671 11.9817 10.5695 11.9954 10.5695 12.0427C10.5695 12.0715 10.5688 12.1445 10.5695 12.2054H11.7841C11.9481 12.2054 12.0352 12.3288 12.0352 12.4903C12.0352 12.6446 11.9409 12.7548 11.7841 12.7548H10.6305C10.7548 13.2429 11.0742 13.4553 11.5338 13.4553C11.9308 13.4553 12.1048 13.3272 12.2241 13.0291L12.2245 13.0279L12.225 13.0269C12.2819 12.8942 12.3844 12.821 12.5133 12.821C12.55 12.8215 12.5865 12.8275 12.6213 12.8388C12.7609 12.8769 12.862 12.9991 12.862 13.1258C12.8622 13.1693 12.8526 13.212 12.8339 13.2509Z" fill="currentColor"/>
</svg>
