<svg width="24" height="24" viewBox="0 0 24 24" fill="currentColor" xmlns="http://www.w3.org/2000/svg">
<path fill-rule="evenodd" clip-rule="evenodd" d="M12 18.0001C12 18.9942 11.1941 19.8001 10.2 19.8001C9.20587 19.8001 8.39999 18.9942 8.39999 18.0001C8.39999 17.006 9.20587 16.2001 10.2 16.2001C11.1941 16.2001 12 17.006 12 18.0001ZM19.2 18.0001C19.2 18.9942 18.3941 19.8001 17.4 19.8001C16.4059 19.8001 15.6 18.9942 15.6 18.0001C15.6 17.006 16.4059 16.2001 17.4 16.2001C18.3941 16.2001 19.2 17.006 19.2 18.0001ZM22.2 6.3001C22.1985 5.80364 21.7964 5.40155 21.3 5.4001H6.91036L6.3957 4.16107C6.25788 3.83193 5.93914 3.61482 5.58239 3.60711C5.55616 3.60263 5.52961 3.60028 5.503 3.6001H2.69999C2.20353 3.60155 1.80144 4.00364 1.79999 4.5001C1.80144 4.99655 2.20353 5.39865 2.69999 5.4001H4.65786C4.84155 5.40009 5.00718 5.51065 5.07762 5.6803L8.46239 13.8295C8.59576 14.1683 8.92014 14.3934 9.2842 14.3997C9.28864 14.3997 9.29305 14.4 9.29749 14.4H9.29975H18.9259C18.9366 14.4 18.9472 14.3993 18.9579 14.398C19.3531 14.3724 19.6851 14.0916 19.776 13.7061L22.1086 6.7009C22.1108 6.69432 22.1126 6.68772 22.1146 6.68115C22.1709 6.562 22.2 6.43186 22.2 6.3001ZM19.9187 7.58004L18.401 12.1379C18.3091 12.4139 18.0509 12.6001 17.76 12.6001H10.3519C10.0789 12.6001 9.83264 12.4358 9.72791 12.1836L7.82399 7.59955C7.78698 7.51047 7.79691 7.40879 7.85045 7.32855C7.90399 7.24831 7.99407 7.2001 8.09053 7.2001H19.6448C19.7376 7.2001 19.8247 7.24471 19.879 7.31997C19.9332 7.39524 19.948 7.492 19.9187 7.58004Z" fill="currentColor"/>
</svg>
