<svg width="24" height="24" viewBox="0 0 24 24" fill="currentColor" xmlns="http://www.w3.org/2000/svg">
<path fill-rule="evenodd" clip-rule="evenodd" d="M5.40002 10.2H3.60002C2.93728 10.2 2.40002 10.7373 2.40002 11.4V19.2C2.40002 19.8627 2.93728 20.4 3.60002 20.4H5.40002C6.06277 20.4 6.60002 19.8627 6.60002 19.2V11.4C6.60002 10.7373 6.06277 10.2 5.40002 10.2ZM4.50002 19.2C4.00297 19.2 3.60002 18.7971 3.60002 18.3C3.60002 17.8029 4.00297 17.4 4.50002 17.4C4.99708 17.4 5.40002 17.8029 5.40002 18.3C5.40002 18.7971 4.99708 19.2 4.50002 19.2ZM19.8 9H15C15 9 15.6 5.624 15.6 5.1C15.6 2.4 14.0314 1.83454 13.6083 1.80432C13.5934 1.80327 13.5778 1.80226 13.5627 1.80164C13.5419 1.80063 13.521 1.8 13.5 1.8C12.6716 1.8 12 2.47158 12 3.3V5.4L10.2 9C9.53525 10.0331 8.42492 10.695 7.20002 10.7886V19.8H8.11683C8.30312 19.8 8.48685 19.8434 8.65346 19.9267L11.4933 21.3466C11.8266 21.5132 12.194 21.6 12.5666 21.6H17.4C18.3941 21.6 19.2 20.7941 19.2 19.8C19.2006 19.3545 19.0354 18.9247 18.7364 18.5943C19.6748 18.5231 20.3999 17.7411 20.4 16.8C20.4005 16.302 20.1941 15.8262 19.83 15.4864C20.5336 15.2234 21 14.5512 21 13.8C21.0005 13.302 20.7941 12.8262 20.43 12.4864C21.1336 12.2234 21.6 11.5512 21.6 10.8C21.6 9.80589 20.7941 9 19.8 9Z" fill="currentColor"/>
</svg>
