<svg width="24" height="24" viewBox="0 0 24 24" fill="currentColor" xmlns="http://www.w3.org/2000/svg">
<path fill-rule="evenodd" clip-rule="evenodd" d="M16.6 2H4V13.4C4 17.7078 7.49217 21.2 11.8 21.2C16.1078 21.2 19.6 17.7078 19.6 13.4V5C19.6 3.34315 18.2569 2 16.6 2ZM6.03952 8.72038C5.99459 8.75451 5.93425 8.76038 5.88359 8.73556C5.83292 8.71074 5.80058 8.65947 5.8 8.60305V8.6C5.8 7.96256 6.05359 7.3513 6.50483 6.90106C6.95607 6.45082 7.56789 6.19859 8.20533 6.19999C9.46977 6.20276 10.5254 7.20097 10.5962 8.46342C10.5988 8.51007 10.6001 8.55642 10.6 8.60247C10.5995 8.65897 10.5673 8.71039 10.5166 8.73532C10.4658 8.76026 10.4054 8.75445 10.3604 8.72031C9.08019 7.7599 7.31968 7.75993 6.03952 8.72038ZM11.8 18.2C9.14903 18.2 7 16.051 7 13.4V13.3939C7.00077 13.2813 7.06495 13.1787 7.16588 13.1288C7.26682 13.0789 7.38728 13.0901 7.47724 13.1579C10.0383 15.0807 13.5617 15.0807 16.1228 13.1579C16.2127 13.0901 16.3332 13.0789 16.4341 13.1288C16.5351 13.1787 16.5992 13.2813 16.6 13.3939V13.4C16.6 16.051 14.451 18.2 11.8 18.2ZM17.5604 8.72031C16.2802 7.75985 14.5197 7.75985 13.2395 8.72031C13.1946 8.75442 13.1343 8.7603 13.0836 8.7355C13.033 8.7107 13.0006 8.65945 13 8.60305V8.6C13 7.96256 13.2536 7.3513 13.7048 6.90106C14.1561 6.45082 14.7679 6.19859 15.4053 6.19999C16.6698 6.20276 17.7254 7.20097 17.7962 8.46342C17.7988 8.51007 17.8 8.55642 17.8 8.60247C17.7995 8.65897 17.7673 8.71039 17.7165 8.73532C17.6658 8.76026 17.6054 8.75445 17.5604 8.72031Z" fill="currentColor"/>
</svg>
