<svg width="24" height="24" viewBox="0 0 24 24" fill="currentColor" xmlns="http://www.w3.org/2000/svg">
<path fill-rule="evenodd" clip-rule="evenodd" d="M20.2485 15.8317L18.5245 14.1076C18.8981 12.3167 18.343 10.4582 17.0485 9.16556L15.5139 7.63143L13.5955 5.71369C13.3216 5.43854 12.9215 5.33073 12.5464 5.43098C12.1714 5.53123 11.8784 5.82426 11.7783 6.19938C11.6782 6.57449 11.7861 6.97453 12.0613 7.24837L13.9796 9.16611L13.9755 9.17029C14.06 9.27757 14.0509 9.4311 13.9543 9.52768C13.8578 9.62427 13.7043 9.63341 13.597 9.54896L13.5961 9.54978L13.5865 9.54017C13.582 9.53614 13.5773 9.53221 13.5729 9.52784C13.5685 9.52347 13.5646 9.51884 13.5606 9.51426L12.4452 8.39914L8.03309 3.98821C7.71491 3.67247 7.20131 3.6735 6.8844 3.99051C6.56749 4.30752 6.56663 4.82113 6.88248 5.1392L11.2946 9.54997C11.3999 9.65531 11.4 9.82628 11.2946 9.93165C11.1893 10.037 11.0185 10.0371 10.9131 9.93171L10.9112 9.93361L5.73161 4.75575C5.41378 4.43801 4.89854 4.43808 4.5808 4.75591C4.26305 5.07374 4.26312 5.58897 4.58095 5.90672L9.76039 11.0846L9.75924 11.0858C9.75967 11.0862 9.76015 11.0865 9.76056 11.087C9.82873 11.1551 9.85535 11.2545 9.8304 11.3476C9.80545 11.4407 9.73271 11.5134 9.6396 11.5384C9.54648 11.5633 9.44713 11.5367 9.37896 11.4686C9.37855 11.4681 9.37824 11.4677 9.37781 11.4673L9.37673 11.4684L4.96474 7.05754C4.75914 6.85201 4.4595 6.77177 4.1787 6.84706C3.8979 6.92234 3.6786 7.14172 3.6034 7.42254C3.5282 7.70336 3.60853 8.00297 3.81413 8.20851L8.22619 12.6192L8.99357 13.3864L8.98966 13.3903C8.99739 13.3964 9.00477 13.403 9.01176 13.41C9.07993 13.4781 9.10655 13.5775 9.0816 13.6706C9.05665 13.7637 8.98391 13.8364 8.8908 13.8614C8.79768 13.8863 8.69833 13.8597 8.63016 13.7916C8.62321 13.7846 8.61664 13.7772 8.61048 13.7695L8.60921 13.7708L5.73257 10.8934C5.41472 10.5756 4.89947 10.5757 4.58172 10.8936C4.26397 11.2114 4.26404 11.7267 4.58189 12.0444L7.45934 14.921L9.37762 16.8386C10.6546 18.117 12.4847 18.6748 14.2577 18.3261L16.0059 20.0743C16.2402 20.3086 16.6201 20.3086 16.8544 20.0743L20.2357 16.693C20.2401 16.6888 20.2442 16.6845 20.2485 16.6802C20.4828 16.4459 20.4828 16.066 20.2485 15.8317Z" fill="currentColor"/>
</svg>
