<svg width="24" height="24" viewBox="0 0 24 24" fill="currentColor" xmlns="http://www.w3.org/2000/svg">
<path fill-rule="evenodd" clip-rule="evenodd" d="M16.8012 1.8H7.19882C6.88072 1.8 6.5757 1.92667 6.35088 2.15171C6.12606 2.37676 5.99984 2.6819 6 3V21C5.99967 21.6624 6.53637 22.1997 7.19878 22.2H16.8012C17.1193 22.2 17.4243 22.0733 17.6491 21.8483C17.8739 21.6232 18.0002 21.3181 18 21V3C18.0003 2.3376 17.4636 1.80035 16.8012 1.8ZM11.1 2.4H12.9C13.0657 2.4 13.2 2.53432 13.2 2.7C13.2 2.86569 13.0657 3 12.9 3H11.1C10.9343 3 10.8 2.86569 10.8 2.7C10.8 2.53432 10.9343 2.4 11.1 2.4ZM12 21.6C11.6686 21.6 11.4 21.3314 11.4 21C11.4 20.6686 11.6686 20.4 12 20.4C12.3314 20.4 12.6 20.6686 12.6 21C12.6 21.3314 12.3314 21.6 12 21.6ZM16.8 19.8H7.2V3.6H16.8V19.8ZM7.8 19.2H16.2V13.2209C15.8386 12.6488 15.3352 12.18 14.7388 11.8601C13.208 13.3282 10.792 13.3282 9.26117 11.8601C8.66479 12.18 8.16139 12.6488 7.8 13.2209V19.2ZM15 9C15 10.6569 13.6569 12 12 12C10.3431 12 9 10.6569 9 9C9 7.34315 10.3431 6 12 6C13.6569 6 15 7.34315 15 9ZM12 6C13.6569 6 15 7.34315 15 9C15 10.6569 13.6569 12 12 12C10.3431 12 9 10.6569 9 9C9 7.34315 10.3431 6 12 6ZM12 5.97599C10.5573 5.97611 9.31564 6.99528 9.03428 8.41025C8.75293 9.82521 9.51027 11.2419 10.8432 11.7939C12.176 12.3459 13.7132 11.8795 14.5147 10.6799C15.3161 9.48033 15.1586 7.88167 14.1384 6.8616C13.5725 6.29265 12.8025 5.97375 12 5.97599Z" fill="currentColor"/>
</svg>
