<svg width="24" height="24" viewBox="0 0 24 24" fill="currentColor" xmlns="http://www.w3.org/2000/svg">
<path fill-rule="evenodd" clip-rule="evenodd" d="M20.7247 16.093L15.8367 11.5344L14.601 10.3819C14.5959 10.3778 14.5909 10.3738 14.586 10.3693C14.5812 10.3648 14.5767 10.3599 14.5722 10.3551L14.5616 10.3451L14.5624 10.3442C14.4681 10.2325 14.4722 10.0679 14.5719 9.96097C14.6717 9.85405 14.8356 9.83853 14.9536 9.92483L14.958 9.9202L17.0832 11.9022C17.3868 12.1855 17.8186 12.2853 18.2157 12.164C18.6129 12.0426 18.9152 11.7187 19.0087 11.314C19.1022 10.9094 18.9728 10.4856 18.6691 10.2023L16.5439 8.22028L14.844 6.63469C13.4113 5.29702 11.4004 4.77232 9.49679 5.23941L7.58627 3.45808C7.32658 3.21598 6.91981 3.23018 6.67765 3.48981C6.67323 3.49461 6.66906 3.49941 6.66481 3.50433L3.17015 7.25039C3.05386 7.37505 2.99188 7.5408 2.99783 7.71117C3.00378 7.88155 3.07718 8.04257 3.20187 8.15881L5.1392 9.96508C4.83214 11.8762 5.49789 13.8147 6.91439 15.1339L9.03949 17.1159L12.2274 20.089C12.4551 20.3015 12.7789 20.3763 13.0768 20.2853C13.3747 20.1943 13.6014 19.9513 13.6715 19.6478C13.7416 19.3444 13.6445 19.0265 13.4168 18.8141L10.2281 15.8419L10.2295 15.8404C10.221 15.8341 10.2129 15.8274 10.2051 15.8203C10.1296 15.7498 10.0974 15.6445 10.1207 15.5438C10.1439 15.4432 10.219 15.3627 10.3178 15.3325C10.4165 15.3023 10.5239 15.3271 10.5994 15.3975C10.6072 15.4047 10.6145 15.4124 10.6214 15.4204L10.6254 15.4161L11.4755 16.209L16.3635 20.7676C16.5905 20.9841 16.9163 21.0619 17.2167 20.9713C17.5171 20.8808 17.7456 20.6358 17.8152 20.3299C17.8847 20.024 17.7845 19.7043 17.5529 19.4928L12.6649 14.9341L12.666 14.9329C12.6655 14.9325 12.6651 14.9321 12.6646 14.9317C12.5479 14.8229 12.5415 14.64 12.6504 14.5232C12.7592 14.4065 12.9421 14.4001 13.0589 14.509C13.0593 14.5095 13.0598 14.5099 13.0603 14.5104L13.0614 14.5091L18.7995 19.8606C19.0272 20.073 19.351 20.1479 19.6489 20.0569C19.9467 19.9659 20.1734 19.7229 20.2436 19.4194C20.3137 19.116 20.2166 18.7982 19.9889 18.5857L14.2509 13.2342L14.2528 13.2321C14.1773 13.1616 14.1451 13.0563 14.1684 12.9557C14.1916 12.855 14.2668 12.7745 14.3655 12.7443C14.4643 12.7141 14.5717 12.7389 14.6472 12.8094L19.5353 17.3679C19.8873 17.6964 20.439 17.6773 20.7674 17.3252C21.0959 16.9732 21.0768 16.4215 20.7247 16.093ZM12.6677 10.7482L9.89912 13.7981L7.13039 10.7482C6.40123 9.98018 6.42238 8.76944 7.1779 8.02737C7.93343 7.28531 9.14435 7.28592 9.89912 8.02876C10.6542 7.28755 11.8638 7.28772 12.6186 8.02914C13.3734 8.77056 13.3953 9.98002 12.6677 10.7482Z" fill="currentColor"/>
</svg>
