<svg width="24" height="24" viewBox="0 0 24 24" fill="currentColor" xmlns="http://www.w3.org/2000/svg">
<path fill-rule="evenodd" clip-rule="evenodd" d="M20.4 5.3999H3.6C2.60589 5.3999 1.8 6.20579 1.8 7.1999V16.7999C1.8 17.794 2.60589 18.5999 3.6 18.5999H20.4C21.3941 18.5999 22.2 17.794 22.2 16.7999V7.1999C22.2 6.20579 21.3941 5.3999 20.4 5.3999ZM4.2 16.4399C3.93491 16.4399 3.72 16.225 3.72 15.9599C3.72 15.6948 3.93491 15.4799 4.2 15.4799C4.4651 15.4799 4.68 15.6948 4.68 15.9599C4.68 16.225 4.4651 16.4399 4.2 16.4399ZM4.2 14.5199C3.93491 14.5199 3.72 14.305 3.72 14.0399C3.72 13.7748 3.93491 13.5599 4.2 13.5599C4.4651 13.5599 4.68 13.7748 4.68 14.0399C4.68 14.305 4.4651 14.5199 4.2 14.5199ZM4.2 12.5999C3.93491 12.5999 3.72 12.385 3.72 12.1199C3.72 11.8548 3.93491 11.6399 4.2 11.6399C4.4651 11.6399 4.68 11.8548 4.68 12.1199C4.68 12.385 4.4651 12.5999 4.2 12.5999ZM4.2 10.6799C3.93491 10.6799 3.72 10.465 3.72 10.1999C3.72 9.93481 3.93491 9.7199 4.2 9.7199C4.4651 9.7199 4.68 9.93481 4.68 10.1999C4.68 10.465 4.4651 10.6799 4.2 10.6799ZM4.2 8.7599C3.93491 8.7599 3.72 8.545 3.72 8.2799C3.72 8.01481 3.93491 7.7999 4.2 7.7999C4.4651 7.7999 4.68 8.01481 4.68 8.2799C4.68 8.545 4.4651 8.7599 4.2 8.7599ZM6.12 16.4399C5.85491 16.4399 5.64 16.225 5.64 15.9599C5.64 15.6948 5.85491 15.4799 6.12 15.4799C6.3851 15.4799 6.6 15.6948 6.6 15.9599C6.6 16.225 6.3851 16.4399 6.12 16.4399ZM6.12 14.5199C5.85491 14.5199 5.64 14.305 5.64 14.0399C5.64 13.7748 5.85491 13.5599 6.12 13.5599C6.3851 13.5599 6.6 13.7748 6.6 14.0399C6.6 14.305 6.3851 14.5199 6.12 14.5199ZM6.12 12.5999C5.85491 12.5999 5.64 12.385 5.64 12.1199C5.64 11.8548 5.85491 11.6399 6.12 11.6399C6.3851 11.6399 6.6 11.8548 6.6 12.1199C6.6 12.385 6.3851 12.5999 6.12 12.5999ZM6.12 10.6799C5.85491 10.6799 5.64 10.465 5.64 10.1999C5.64 9.93481 5.85491 9.7199 6.12 9.7199C6.3851 9.7199 6.6 9.93481 6.6 10.1999C6.6 10.465 6.3851 10.6799 6.12 10.6799ZM6.12 8.7599C5.85491 8.7599 5.64 8.545 5.64 8.2799C5.64 8.01481 5.85491 7.7999 6.12 7.7999C6.3851 7.7999 6.6 8.01481 6.6 8.2799C6.6 8.545 6.3851 8.7599 6.12 8.7599ZM8.04 16.4399C7.77491 16.4399 7.56 16.225 7.56 15.9599C7.56 15.6948 7.77491 15.4799 8.04 15.4799C8.3051 15.4799 8.52 15.6948 8.52 15.9599C8.52 16.225 8.3051 16.4399 8.04 16.4399ZM8.04 14.5199C7.77491 14.5199 7.56 14.305 7.56 14.0399C7.56 13.7748 7.77491 13.5599 8.04 13.5599C8.3051 13.5599 8.52 13.7748 8.52 14.0399C8.52 14.305 8.3051 14.5199 8.04 14.5199ZM8.04 12.5999C7.77491 12.5999 7.56 12.385 7.56 12.1199C7.56 11.8548 7.77491 11.6399 8.04 11.6399C8.3051 11.6399 8.52 11.8548 8.52 12.1199C8.52 12.385 8.3051 12.5999 8.04 12.5999ZM8.04 10.6799C7.77491 10.6799 7.56 10.465 7.56 10.1999C7.56 9.93481 7.77491 9.7199 8.04 9.7199C8.3051 9.7199 8.52 9.93481 8.52 10.1999C8.52 10.465 8.3051 10.6799 8.04 10.6799ZM8.04 8.7599C7.77491 8.7599 7.56 8.545 7.56 8.2799C7.56 8.01481 7.77491 7.7999 8.04 7.7999C8.3051 7.7999 8.52 8.01481 8.52 8.2799C8.52 8.545 8.3051 8.7599 8.04 8.7599ZM9.96 16.4399C9.69491 16.4399 9.48 16.225 9.48 15.9599C9.48 15.6948 9.69491 15.4799 9.96 15.4799C10.2251 15.4799 10.44 15.6948 10.44 15.9599C10.44 16.225 10.2251 16.4399 9.96 16.4399ZM9.96 14.5199C9.69491 14.5199 9.48 14.305 9.48 14.0399C9.48 13.7748 9.69491 13.5599 9.96 13.5599C10.2251 13.5599 10.44 13.7748 10.44 14.0399C10.44 14.305 10.2251 14.5199 9.96 14.5199ZM9.96 12.5999C9.69491 12.5999 9.48 12.385 9.48 12.1199C9.48 11.8548 9.69491 11.6399 9.96 11.6399C10.2251 11.6399 10.44 11.8548 10.44 12.1199C10.44 12.385 10.2251 12.5999 9.96 12.5999ZM9.96 10.6799C9.69491 10.6799 9.48 10.465 9.48 10.1999C9.48 9.93481 9.69491 9.7199 9.96 9.7199C10.2251 9.7199 10.44 9.93481 10.44 10.1999C10.44 10.465 10.2251 10.6799 9.96 10.6799ZM9.96 8.7599C9.69491 8.7599 9.48 8.545 9.48 8.2799C9.48 8.01481 9.69491 7.7999 9.96 7.7999C10.2251 7.7999 10.44 8.01481 10.44 8.2799C10.44 8.545 10.2251 8.7599 9.96 8.7599ZM11.88 16.4399C11.6149 16.4399 11.4 16.225 11.4 15.9599C11.4 15.6948 11.6149 15.4799 11.88 15.4799C12.1451 15.4799 12.36 15.6948 12.36 15.9599C12.36 16.225 12.1451 16.4399 11.88 16.4399ZM11.88 14.5199C11.6149 14.5199 11.4 14.305 11.4 14.0399C11.4 13.7748 11.6149 13.5599 11.88 13.5599C12.1451 13.5599 12.36 13.7748 12.36 14.0399C12.36 14.305 12.1451 14.5199 11.88 14.5199ZM11.88 12.5999C11.6149 12.5999 11.4 12.385 11.4 12.1199C11.4 11.8548 11.6149 11.6399 11.88 11.6399C12.1451 11.6399 12.36 11.8548 12.36 12.1199C12.36 12.385 12.1451 12.5999 11.88 12.5999ZM11.88 10.6799C11.6149 10.6799 11.4 10.465 11.4 10.1999C11.4 9.93481 11.6149 9.7199 11.88 9.7199C12.1451 9.7199 12.36 9.93481 12.36 10.1999C12.36 10.465 12.1451 10.6799 11.88 10.6799ZM11.88 8.7599C11.6149 8.7599 11.4 8.545 11.4 8.2799C11.4 8.01481 11.6149 7.7999 11.88 7.7999C12.1451 7.7999 12.36 8.01481 12.36 8.2799C12.36 8.545 12.1451 8.7599 11.88 8.7599ZM16.8 10.7999H16.2V9.5999H15.6V10.7999H15V9.5999H14.4V10.7999H13.8V7.7999H16.8V10.7999ZM18.84 16.4399C17.9784 16.4399 17.28 15.7415 17.28 14.8799C17.28 14.0183 17.9784 13.3199 18.84 13.3199C19.7016 13.3199 20.4 14.0183 20.4 14.8799C20.4 15.2936 20.2356 15.6904 19.9431 15.983C19.6505 16.2755 19.2537 16.4399 18.84 16.4399ZM20.4 10.7999H19.8V9.5999H19.2V10.7999H18.6V9.5999H18V10.7999H17.4V7.7999H20.4V10.7999Z" fill="currentColor"/>
</svg>
