<svg width="24" height="24" viewBox="0 0 24 24" fill="currentColor" xmlns="http://www.w3.org/2000/svg">
<path fill-rule="evenodd" clip-rule="evenodd" d="M16.2 15.5971C11.8922 15.5971 8.40005 12.1034 8.40005 7.79374C8.3977 5.49108 9.41453 3.30544 11.1774 1.824C5.92877 2.24311 1.80005 6.63689 1.80005 11.9956C1.80005 17.6313 6.36674 22.2 12 22.2C17.3564 22.2 21.7482 18.0695 22.1672 12.8186C20.6871 14.5819 18.5022 15.5992 16.2 15.5971ZM12.36 9.76272L13.44 10.7231L13.08 12.1638L14.4 11.4434L15.72 12.1638L15.36 10.7231L16.44 9.76272L15 9.52272L14.4 8.27419L13.8 9.52248L12.36 9.76272ZM16.59 3.89203L18.0751 5.21261L17.58 7.19347L19.3951 6.20304L21.21 7.19347L20.715 5.21261L22.2001 3.89206L20.22 3.56189L19.3951 1.84514L18.57 3.56189L16.59 3.89203Z" fill="currentColor"/>
</svg>
