<svg width="24" height="24" viewBox="0 0 24 24" fill="currentColor" xmlns="http://www.w3.org/2000/svg">
<path fill-rule="evenodd" clip-rule="evenodd" d="M16.8 11.28V19.8H7.20043V3.59999H16.8V7.87199L18 6.67199V2.99999C18.0011 2.6823 17.8758 2.37722 17.6516 2.15209C17.4275 1.92695 17.1229 1.80027 16.8052 1.79999H7.19923C6.88107 1.79999 6.57599 1.92658 6.35109 2.15162C6.12619 2.37666 6 2.68183 6 2.99999V21C6 21.3181 6.12619 21.6233 6.35109 21.8484C6.57599 22.0734 6.88107 22.2 7.19923 22.2H16.8052C17.1229 22.1997 17.4275 22.073 17.6516 21.8479C17.8758 21.6228 18.0011 21.3177 18 21V10.08L16.8 11.28ZM11.1019 2.39999H12.9025C13.0682 2.39999 13.2025 2.5343 13.2025 2.69999C13.2025 2.86567 13.0682 2.99999 12.9025 2.99999H11.1019C10.9362 2.99999 10.8019 2.86567 10.8019 2.69999C10.8019 2.5343 10.9362 2.39999 11.1019 2.39999ZM12.0022 21.6C11.6709 21.5999 11.4023 21.3312 11.4024 20.9999C11.4025 20.6685 11.6711 20.4 12.0025 20.4C12.3338 20.4 12.6024 20.6686 12.6024 21C12.6023 21.3314 12.3336 21.6 12.0022 21.6ZM20.7364 4.79999L18.6144 6.9213L9.70142 15.8308L9.04579 16.9232C8.88499 17.191 9.18962 17.4955 9.45754 17.3348L10.5504 16.6794L19.4631 7.76984L19.8876 8.19409L20.7364 7.34557C21.0741 7.00807 21.2638 6.55021 21.2638 6.07278C21.2638 5.59535 21.0741 5.13749 20.7364 4.79999Z" fill="currentColor"/>
</svg>
