<svg width="24" height="24" viewBox="0 0 24 24" fill="currentColor" xmlns="http://www.w3.org/2000/svg">
<path fill-rule="evenodd" clip-rule="evenodd" d="M16.2 15.5971C11.8922 15.5971 8.39999 12.1034 8.39999 7.79371C8.39764 5.49106 9.41447 3.30542 11.1773 1.82397C5.92871 2.24309 1.79999 6.63686 1.79999 11.9955C1.79999 17.6313 6.36668 22.2 12 22.2C17.3563 22.2 21.7482 18.0694 22.1671 12.8186C20.687 14.5819 18.5021 15.5992 16.2 15.5971ZM12.36 9.76269L13.44 10.7231L13.08 12.1637L14.4 11.4434L15.72 12.1637L15.36 10.7231L16.44 9.76269L15 9.5227L14.4 8.27417L13.8 9.52245L12.36 9.76269ZM16.59 3.89201L18.075 5.21258L17.58 7.19345L19.395 6.20301L21.21 7.19345L20.715 5.21258L22.2 3.89203L20.22 3.56186L19.395 1.84512L18.57 3.56186L16.59 3.89201Z" fill="currentColor"/>
</svg>
