<svg width="24" height="24" viewBox="0 0 24 24" fill="currentColor" xmlns="http://www.w3.org/2000/svg">
<path fill-rule="evenodd" clip-rule="evenodd" d="M16.8012 1.80005H7.19882C6.88072 1.80005 6.5757 1.92672 6.35088 2.15176C6.12606 2.3768 5.99984 2.68194 6 3.00005V21C5.99967 21.6625 6.53637 22.1997 7.19878 22.2001H16.8012C17.1193 22.2001 17.4243 22.0734 17.6491 21.8483C17.8739 21.6233 18.0002 21.3182 18 21V3.00005C18.0003 2.33765 17.4636 1.80039 16.8012 1.80005ZM11.1 2.40005H12.9C13.0657 2.40005 13.2 2.53436 13.2 2.70005C13.2 2.86573 13.0657 3.00005 12.9 3.00005H11.1C10.9343 3.00005 10.8 2.86573 10.8 2.70005C10.8 2.53436 10.9343 2.40005 11.1 2.40005ZM12 21.6C11.6686 21.6 11.4 21.3314 11.4 21C11.4 20.6687 11.6686 20.4 12 20.4C12.3314 20.4 12.6 20.6687 12.6 21C12.6 21.3314 12.3314 21.6 12 21.6ZM16.8 19.8H7.2V3.60005H16.8V19.8ZM14.4 10.2H13.8V9.00005C13.8 8.00594 12.9941 7.20005 12 7.20005C11.0059 7.20005 10.2 8.00594 10.2 9.00005V10.2H9V15C9 15.3314 9.26863 15.6 9.6 15.6H15V10.8C15 10.4687 14.7314 10.2 14.4 10.2ZM10.8 9.00005C10.8 8.33731 11.3373 7.80005 12 7.80005C12.6627 7.80005 13.2 8.33731 13.2 9.00005V10.2H10.8V9.00005ZM12.3611 12.9061L12.4955 14.2739H11.4962L11.6306 12.9061C11.3326 12.7398 11.1845 12.3931 11.2705 12.0628C11.3564 11.7326 11.6546 11.502 11.9958 11.502C12.3371 11.502 12.6353 11.7326 12.7212 12.0628C12.8072 12.3931 12.6591 12.7398 12.3611 12.9061Z" fill="currentColor"/>
</svg>
