<svg width="24" height="24" viewBox="0 0 24 24" fill="currentColor" xmlns="http://www.w3.org/2000/svg">
<path fill-rule="evenodd" clip-rule="evenodd" d="M11.9953 0.867981C5.84992 0.867981 0.868073 5.84983 0.868073 11.9953C0.868073 18.1407 5.84992 23.1225 11.9953 23.1225C18.1408 23.1225 23.1226 18.1407 23.1226 11.9953C23.1226 5.84983 18.1408 0.867981 11.9953 0.867981ZM11.9953 21.8134C6.57291 21.8134 2.17716 17.4177 2.17716 11.9953C2.17716 6.57282 6.57291 2.17707 11.9953 2.17707C17.4178 2.17707 21.8135 6.57282 21.8135 11.9953C21.8135 17.4177 17.4178 21.8134 11.9953 21.8134ZM11.8016 19.1953C13.7703 19.1965 15.6091 18.2131 16.7013 16.5751C17.0746 16.017 16.6722 15.268 16.0008 15.268H7.60222C6.93079 15.268 6.5285 16.017 6.90178 16.5751C7.99392 18.2132 9.83286 19.1965 11.8016 19.1953ZM8.06933 8.72253C6.98676 8.72253 6.10444 9.61952 6.10444 10.714C6.10444 10.8802 6.17045 11.0396 6.28796 11.1572C6.40548 11.2747 6.56487 11.3407 6.73107 11.3407H6.77647C6.94543 11.3407 7.10748 11.2736 7.22695 11.1541C7.34642 11.0346 7.41353 10.8726 7.41353 10.7036C7.41353 10.3331 7.70433 10.0316 8.06807 10.0316C8.0839 10.0316 8.09985 10.0322 8.11591 10.0333C8.45794 10.0584 8.72263 10.3432 8.72262 10.6862C8.72262 11.0477 9.01567 11.3407 9.37716 11.3407C9.73866 11.3407 10.0317 11.0477 10.0317 10.6862C10.0317 9.63788 9.20833 8.77443 8.16123 8.7247C8.13049 8.72326 8.09978 8.72253 8.06933 8.72253ZM15.9239 8.72253C14.8413 8.72253 13.959 9.61952 13.959 10.714C13.959 10.8802 14.025 11.0396 14.1425 11.1572C14.26 11.2747 14.4194 11.3407 14.5856 11.3407H14.631C14.8 11.3407 14.962 11.2736 15.0815 11.1541C15.201 11.0346 15.2681 10.8726 15.2681 10.7036C15.2681 10.3331 15.5589 10.0316 15.9226 10.0316C15.9385 10.0316 15.9544 10.0322 15.9705 10.0333C16.3125 10.0584 16.5772 10.3432 16.5772 10.6862C16.5772 11.0477 16.8702 11.3407 17.2317 11.3407C17.5932 11.3407 17.8863 11.0477 17.8863 10.6862C17.8863 9.63788 17.0629 8.77443 16.0158 8.7247C15.985 8.72326 15.9543 8.72253 15.9239 8.72253Z" fill="currentColor"/>
</svg>
