<svg width="24" height="24" viewBox="0 0 24 24" fill="currentColor" xmlns="http://www.w3.org/2000/svg">
<path fill-rule="evenodd" clip-rule="evenodd" d="M20.4 22.2H3.60001V21.6H4.20001V6C4.20001 5.33726 4.73726 4.8 5.40001 4.8V3.6H6.60001V2.976C6.60001 2.31326 7.13726 1.776 7.80001 1.776H16.2C16.8627 1.776 17.4 2.31326 17.4 2.976V3.6H18.6V4.8C19.2627 4.8 19.8 5.33726 19.8 6V21.6H20.4V22.2ZM12.6 12V15H15V12H12.6ZM15 10.2V7.2H12.6V10.2H15ZM12.264 16.8V21H15V16.8H12.264ZM9.00001 12V15H11.4V12H9.00001ZM11.4 10.2V7.2H9.00001V10.2H11.4ZM9.00001 16.8V21H11.712V16.8H9.00001ZM5.40001 16.8V19.8H7.80001V16.8H5.40001ZM7.80001 15V12H5.40001V15H7.80001ZM5.40001 7.2V10.2H7.80001V7.2H5.40001ZM9.35295 3.21156L9.00001 2.472L8.64706 3.21156L7.80001 3.35378L8.43531 3.92259L8.22353 4.776L9.00001 4.34933L9.77648 4.776L9.5647 3.92266L10.2 3.35378L9.35295 3.21156ZM12.353 3.21156L12 2.472L11.6471 3.21156L10.8 3.35378L11.4353 3.92259L11.2235 4.776L12 4.34933L12.7765 4.776L12.5647 3.92266L13.2 3.35378L12.353 3.21156ZM15.353 3.21156L15 2.472L14.6471 3.21156L13.8 3.35378L14.4353 3.92259L14.2235 4.776L15 4.34933L15.7765 4.776L15.5647 3.92266L16.2 3.35378L15.353 3.21156ZM18.6 7.2H16.2V10.2H18.6V7.2ZM18.6 12H16.2V15H18.6V12ZM18.6 16.8H16.2V19.8H18.6V16.8Z" fill="currentColor"/>
</svg>
