<svg width="24" height="24" viewBox="0 0 24 24" fill="currentColor" xmlns="http://www.w3.org/2000/svg">
<path fill-rule="evenodd" clip-rule="evenodd" d="M7.0195 10.104L6.8142 9.8197L7.78483 9.11599L8.48719 10.0887L8.46612 10.104H20.328L19.4056 8.82646C18.6022 9.40092 17.4661 9.23275 16.8866 8.43019C16.3072 7.62763 16.5031 6.49373 17.2989 5.90873L15.1987 3L5.4 10.104H7.0195ZM15.0646 3.8382L15.7669 4.81097L14.7963 5.51465L14.094 4.54193L15.0646 3.8382ZM13.6086 4.89377L14.311 5.86654L13.3403 6.57022L12.638 5.59747L13.6086 4.89377ZM12.1527 5.94934L12.855 6.92208L11.8844 7.62576L11.1821 6.65304L12.1527 5.94934ZM10.6968 7.00488L11.3991 7.9776L10.4285 8.6813L9.72612 7.70856L10.6968 7.00488ZM9.24084 8.06042L9.9432 9.03319L8.9725 9.7368L8.27016 8.76413L9.24084 8.06042ZM20.808 14.328V10.728H5.808V14.328C6.80211 14.328 7.608 15.1339 7.608 16.128C7.608 17.1221 6.80211 17.928 5.808 17.928V21.528H20.808V17.928C19.8139 17.928 19.008 17.1221 19.008 16.128C19.008 15.1339 19.8139 14.328 20.808 14.328ZM7.608 20.928H6.408V19.728H7.608V20.928ZM13.608 11.328H14.808V12.528H13.608V11.328ZM11.808 11.328H13.008V12.528H11.808V11.328ZM10.008 11.328H11.208V12.528H10.008V11.328ZM7.608 12.528H6.408V11.328H7.608V12.528ZM9.408 20.928H8.208V19.728H9.408V20.928ZM9.408 12.528H8.208V11.328H9.408V12.528ZM11.208 20.928H10.008V19.728H11.208V20.928ZM13.008 20.928H11.808V19.728H13.008V20.928ZM14.808 20.928H13.608V19.728H14.808V20.928ZM13.368 17.688L11.808 18.528L12.168 16.728L10.968 15.528L12.6253 15.3092L13.3621 13.728L14.109 15.3039L15.768 15.528L14.568 16.728L14.928 18.528L13.368 17.688ZM16.608 20.928H15.408V19.728H16.608V20.928ZM16.608 12.528H15.408V11.328H16.608V12.528ZM18.408 20.928H17.208V19.728H18.408V20.928ZM18.408 12.528H17.208V11.328H18.408V12.528ZM20.208 19.728V20.928H19.008V19.728H20.208ZM19.008 11.328H20.208V12.528H19.008V11.328ZM5.208 14.4208V12.4624L4.55678 12.9274L3.84624 11.9584L4.8282 11.2573L5.208 11.7753V10.248L3 11.8243L4.97654 14.52C5.05132 14.4816 5.12865 14.4485 5.208 14.4208Z" fill="currentColor"/>
</svg>
