<svg width="24" height="24" viewBox="0 0 24 24" fill="currentColor" xmlns="http://www.w3.org/2000/svg">
<path fill-rule="evenodd" clip-rule="evenodd" d="M15.7608 10.1379C13.6351 12.1407 10.3172 12.1408 8.19142 10.1381C6.49332 11.0635 5.41995 12.8266 5.37751 14.76H5.37598V19.8C5.37598 21.1255 6.45049 22.2001 7.77598 22.2001H18.576V14.88C18.5766 12.9031 17.4967 11.0839 15.7608 10.1379ZM16.296 6.12005C16.296 8.50592 14.3618 10.44 11.976 10.44C9.59011 10.44 7.65598 8.50592 7.65598 6.12005C7.65598 3.73418 9.59011 1.80005 11.976 1.80005C14.3618 1.80005 16.296 3.73418 16.296 6.12005ZM11.3811 17.4263C10.6863 16.7311 10.0221 15.926 10.3402 15.6077C11.1384 14.809 11.192 14.8711 10.3854 13.8666C9.57828 12.8621 9.61066 13.0426 8.59934 14.0749C8.06741 14.6481 8.57261 16.4833 10.4478 18.3601C12.3235 20.2366 14.2059 20.7196 14.7301 20.2098C15.8077 19.139 15.8924 19.1987 14.9381 18.423C13.9347 17.6154 13.9932 17.6728 13.1985 18.468C12.8803 18.7861 12.076 18.1217 11.3811 17.4263Z" fill="currentColor"/>
</svg>
