<svg width="24" height="24" viewBox="0 0 24 24" fill="currentColor" xmlns="http://www.w3.org/2000/svg">
<path fill-rule="evenodd" clip-rule="evenodd" d="M15 1.80005V5.40005C15 6.06279 15.4776 6.60005 16.0666 6.60005H19.8L15 1.80005ZM15.675 11.4H7.80001V16.5485C7.8056 16.8296 7.91591 16.9655 8.08002 17.0891L9.70482 15.2687C9.80149 15.1423 9.95862 15.1423 10.0554 15.2687L11.16 16.8188L13.1597 14.4949C13.2566 14.3684 13.4135 14.3684 13.5105 14.4949L16.2 17.55V11.925C16.2 11.7858 16.1447 11.6523 16.0462 11.5538C15.9478 11.4554 15.8142 11.4 15.675 11.4ZM9.87056 14.3996C9.38142 14.3836 8.99473 13.9796 9.00007 13.4902C9.00541 13.0009 9.40082 12.6054 9.8902 12.6001C10.3796 12.5948 10.7835 12.9815 10.7995 13.4706C10.8067 13.7191 10.7112 13.9596 10.5354 14.1354C10.3596 14.3112 10.1191 14.4068 9.87056 14.3996ZM16.2 7.80005C14.8745 7.80005 13.8 6.72553 13.8 5.40005V1.80005H4.20001V21C4.20001 21.6628 4.7373 22.2001 5.40001 22.2001H19.8V7.80005H16.2ZM16.8 19.2001H8.22865C7.66056 19.2001 7.20001 18.7395 7.20001 18.1714V10.8H15.7714C16.3395 10.8 16.8 11.2606 16.8 11.8287V19.2001Z" fill="currentColor"/>
</svg>
