<svg width="24" height="24" viewBox="0 0 24 24" fill="currentColor" xmlns="http://www.w3.org/2000/svg">
<path fill-rule="evenodd" clip-rule="evenodd" d="M12 1.80005C17.6333 1.80005 22.2 6.36674 22.2 12C22.2 17.6334 17.6333 22.2001 12 22.2001C6.36668 22.2001 1.79999 17.6334 1.79999 12C1.79999 6.36674 6.36668 1.80005 12 1.80005ZM10.7859 13.1174C9.53053 11.8638 8.33065 10.4118 8.90536 9.83789C10.3475 8.39743 10.4442 8.50947 8.98696 6.69802C7.52886 4.88667 7.58732 5.2122 5.76023 7.07376C4.79915 8.10744 5.71199 11.4167 9.09983 14.8014C12.4885 18.1854 15.8894 19.0564 16.8364 18.1371C18.7832 16.2061 18.9363 16.3138 17.2122 14.9149C15.3994 13.4585 15.505 13.562 14.0693 14.9961C13.4945 15.5696 12.0414 14.3714 10.7859 13.1174Z" fill="currentColor"/>
</svg>
