<svg width="24" height="24" viewBox="0 0 24 24" fill="currentColor" xmlns="http://www.w3.org/2000/svg">
<path fill-rule="evenodd" clip-rule="evenodd" d="M21.4149 19.6652L15.9992 14.2495C16.9077 12.9799 17.395 11.4573 17.3924 9.89618C17.3924 5.75619 14.0362 2.40002 9.89618 2.40002C5.75614 2.40002 2.40002 5.75614 2.40002 9.89618C2.40002 14.0362 5.75614 17.3924 9.89618 17.3924C11.4574 17.3948 12.9801 16.9076 14.2498 15.9992L19.6652 21.4146C19.8998 21.648 20.2789 21.648 20.5134 21.4146L21.4149 20.5134C21.648 20.2788 21.648 19.8999 21.4149 19.6652ZM9.89618 14.9936C7.08099 14.9936 4.7988 12.7114 4.7988 9.89618C4.7988 7.08099 7.08099 4.7988 9.89618 4.7988C12.7114 4.7988 14.9936 7.08099 14.9936 9.89618C14.9936 12.7114 12.7114 14.9936 9.89618 14.9936Z" fill="currentColor"/>
</svg>
