<svg width="24" height="24" viewBox="0 0 24 24" fill="currentColor" xmlns="http://www.w3.org/2000/svg">
<path fill-rule="evenodd" clip-rule="evenodd" d="M19.2 4.8V18C19.1992 18.6624 18.6624 19.1992 18 19.2H4.8V6C4.80075 5.33757 5.33757 4.80075 6 4.8H19.2ZM21 3H6C4.34315 3 3 4.34315 3 6V21H18C19.6569 21 21 19.6569 21 18V3ZM12.5024 12.6654C12.9324 13.0954 13.6295 13.0954 14.0595 12.6654L16.3624 10.3624L18 12V7.09092C18 6.48842 17.5116 6 16.9091 6H12L13.6376 7.63757L11.3346 9.94056C10.9046 10.3705 10.9046 11.0676 11.3346 11.4976L12.5024 12.6654Z" fill="currentColor"/>
</svg>
