<svg width="24" height="24" viewBox="0 0 24 24" fill="currentColor" xmlns="http://www.w3.org/2000/svg">
<path fill-rule="evenodd" clip-rule="evenodd" d="M22.2 19.6V10.6L20.4 7.6H15V6.4L12 4L8.99995 6.4V7.6H3.59995L1.79995 10.6V19.6H1.19995V20.2H22.7999V19.6H22.2ZM5.39995 17.8H3.59995V16H5.39995V17.8ZM5.39995 14.2H3.59995V12.4H5.39995V14.2ZM8.99995 17.8H7.19995V16H8.99995V17.8ZM8.99995 14.2H7.19995V12.4H8.99995V14.2ZM13.2 19.6H10.8V17.2C10.8 16.5373 11.3372 16 12 16C12.6627 16 13.2 16.5373 13.2 17.2V19.6ZM13.2 14.2H10.8V12.4H13.2V14.2ZM12 10.6C11.3372 10.6 10.8 10.0627 10.8 9.4C10.8 8.73726 11.3372 8.2 12 8.2C12.6627 8.2 13.2 8.73726 13.2 9.4C13.2 10.0627 12.6627 10.6 12 10.6ZM16.8 17.8H15V16H16.8V17.8ZM16.8 14.2H15V12.4H16.8V14.2ZM20.4 17.8H18.6V16H20.4V17.8ZM20.4 14.2H18.6V12.4H20.4V14.2Z" fill="currentColor"/>
</svg>
