<svg width="24" height="24" viewBox="0 0 24 24" fill="currentColor" xmlns="http://www.w3.org/2000/svg">
<path fill-rule="evenodd" clip-rule="evenodd" d="M21.6693 17.0308L19.9397 17.896L16.048 14.0028L16.9128 12.2724L16.4804 11.8399L14.7507 12.7051L11.2914 9.24444L12.1562 7.51404L11.7238 7.08147L9.99418 7.94662L6.10246 4.05363L6.96725 2.32323C10.6641 1.05603 15.0393 2.13197 18.1869 4.94177L18.6424 4.48611C18.7968 4.3307 19.0225 4.26969 19.2341 4.32617C19.4457 4.38265 19.611 4.54799 19.6674 4.75965C19.7238 4.9713 19.6627 5.19696 19.5072 5.35126L19.0548 5.80383C21.9033 8.95239 22.944 13.3089 21.6693 17.0308ZM1.80005 21.3349L2.66489 22.2L13.0211 11.8399L12.1562 10.9747L1.80005 21.3349Z" fill="currentColor"/>
</svg>
