<svg width="24" height="24" viewBox="0 0 24 24" fill="currentColor" xmlns="http://www.w3.org/2000/svg">
<path fill-rule="evenodd" clip-rule="evenodd" d="M4.5602 18.8315C4.37554 19.0161 4.27179 19.2664 4.27179 19.5275C4.27179 19.7886 4.37554 20.039 4.5602 20.2235L5.04803 20.711C5.43277 21.0954 6.0562 21.0954 6.44094 20.711L10.7598 16.395L8.87905 14.5154L4.5602 18.8315ZM19.4202 18.7848L13.2795 12.648C12.9678 12.3365 12.7927 11.914 12.7927 11.4734V7.62381H16.402L12.0498 3.27434C11.6835 2.90839 11.0899 2.90839 10.7236 3.27434L6.37141 7.62381H10.1328V12.5744C10.1328 13.015 10.308 13.4375 10.6196 13.7489L17.5394 20.6643C17.95 21.0745 18.6154 21.0745 19.026 20.6643L19.4202 20.2704C19.6174 20.0734 19.7281 19.8062 19.7281 19.5276C19.7281 19.2489 19.6174 18.9817 19.4202 18.7848Z" fill="currentColor"/>
</svg>
