<svg width="24" height="24" viewBox="0 0 24 24" fill="currentColor" xmlns="http://www.w3.org/2000/svg">
<path fill-rule="evenodd" clip-rule="evenodd" d="M20.4 10.1924H3.6C2.93776 10.1902 2.40163 9.65356 2.4 8.99132V6.62512C2.40162 5.96287 2.93775 5.42624 3.6 5.42401H20.4C21.0622 5.42624 21.5984 5.96285 21.6 6.62509V8.9913C21.5984 9.65355 21.0622 10.1902 20.4 10.1924ZM20.4 18.6H3.6C2.93776 18.5978 2.40163 18.0612 2.4 17.3989V15.0327C2.40165 14.3705 2.93777 13.8339 3.6 13.8316H20.4C21.0622 13.8339 21.5984 14.3705 21.6 15.0327V17.3989C21.5984 18.0612 21.0622 18.5978 20.4 18.6Z" fill="currentColor"/>
</svg>
