<svg width="24" height="24" viewBox="0 0 24 24" fill="currentColor" xmlns="http://www.w3.org/2000/svg">
<path fill-rule="evenodd" clip-rule="evenodd" d="M12 8.40005C13.9882 8.40005 15.6 10.0118 15.6 12C15.6 13.9883 13.9882 15.6 12 15.6C10.0118 15.6 8.4 13.9883 8.4 12C8.4 10.0118 10.0118 8.40005 12 8.40005ZM12 9.00005C13.6569 9.00005 15 10.3432 15 12C15 13.6569 13.6569 15 12 15C10.3431 15 9 13.6569 9 12C9 10.3432 10.3431 9.00005 12 9.00005ZM16.8012 1.80005H7.19882C6.88072 1.80005 6.5757 1.92672 6.35088 2.15176C6.12606 2.3768 5.99984 2.68194 6 3.00005V21C5.99967 21.6625 6.53637 22.1997 7.19878 22.2001H16.8012C17.1193 22.2001 17.4243 22.0734 17.6491 21.8483C17.8739 21.6233 18.0002 21.3182 18 21V3.00005C18.0003 2.33765 17.4636 1.80039 16.8012 1.80005ZM11.1 2.40005H12.9C13.0657 2.40005 13.2 2.53436 13.2 2.70005C13.2 2.86573 13.0657 3.00005 12.9 3.00005H11.1C10.9343 3.00005 10.8 2.86573 10.8 2.70005C10.8 2.53436 10.9343 2.40005 11.1 2.40005ZM12 21.6C11.6686 21.6 11.4 21.3314 11.4 21C11.4 20.6687 11.6686 20.4 12 20.4C12.3314 20.4 12.6 20.6687 12.6 21C12.6 21.3314 12.3314 21.6 12 21.6ZM16.8 19.8H7.2V3.60005H16.8V19.8ZM13.6008 13.3824C13.3414 13.9906 12.8917 14.2697 12.1427 14.2697C11.6641 14.2697 11.271 14.1386 10.9743 13.8499C10.6992 13.5823 10.5303 13.2377 10.4485 12.829H10.1988C10.0203 12.829 9.9036 12.7087 9.9036 12.5338C9.9036 12.3562 10.0176 12.216 10.1988 12.216H10.4031C10.4024 12.1479 10.4031 12.068 10.4031 12.0343C10.4031 11.9849 10.4006 11.9662 10.4031 11.8754H10.1988C10.0203 11.8754 9.9036 11.7326 9.9036 11.5576C9.9036 11.3826 10.0203 11.217 10.1988 11.217H10.4712C10.5645 10.7856 10.7412 10.4068 11.0163 10.1436C11.3115 9.86114 11.7009 9.73056 12.1427 9.73056C12.8662 9.73056 13.3363 10.0224 13.58 10.6198C13.6045 10.6717 13.6169 10.7285 13.616 10.7858C13.616 10.9235 13.5333 11.0422 13.3892 11.102L13.3839 11.1149H13.3783C13.337 11.1375 13.2827 11.1284 13.2302 11.1284C13.0908 11.1284 12.9788 11.0348 12.9225 10.8996C12.7674 10.5265 12.5632 10.3854 12.1427 10.3854C11.6563 10.3854 11.3073 10.6494 11.1523 11.217H12.6962C12.8774 11.217 12.9841 11.378 12.9841 11.5521C12.9841 11.7305 12.8748 11.8754 12.6962 11.8754H11.0616C11.059 11.9662 11.0616 11.9814 11.0616 12.0343C11.0616 12.0665 11.0608 12.1479 11.0616 12.216H12.4238C12.6077 12.216 12.7055 12.3536 12.7055 12.5338C12.7055 12.7061 12.5996 12.829 12.4238 12.829H11.1297C11.269 13.3738 11.6275 13.6109 12.1428 13.6109C12.5878 13.6109 12.7831 13.4679 12.9167 13.1351L12.9172 13.1339L12.9177 13.1327C12.9816 12.9845 13.0965 12.9029 13.2409 12.9029C13.282 12.9035 13.3229 12.9102 13.362 12.9228C13.5187 12.9654 13.632 13.1018 13.632 13.2432C13.6326 13.2915 13.6219 13.3391 13.6008 13.3824Z" fill="currentColor"/>
</svg>
