<svg width="24" height="24" viewBox="0 0 24 24" fill="currentColor" xmlns="http://www.w3.org/2000/svg">
<path fill-rule="evenodd" clip-rule="evenodd" d="M14.7706 11.973C14.5137 11.9727 14.2819 12.1273 14.1833 12.3646C14.0848 12.6019 14.139 12.8752 14.3206 13.057C14.5022 13.2388 14.7754 13.2933 15.0128 13.195C15.2503 13.0967 15.4051 12.8651 15.4051 12.6081C15.405 12.2576 15.1211 11.9734 14.7706 11.973ZM14.7706 14.9208C14.5136 14.9205 14.2817 15.0752 14.1832 15.3125C14.0847 15.5499 14.1389 15.8233 14.3206 16.0051C14.5023 16.1869 14.7756 16.2413 15.013 16.1429C15.2505 16.0445 15.4052 15.8127 15.4051 15.5557C15.4047 15.2054 15.1209 14.9214 14.7706 14.9208ZM10.7463 13.4467H9.89914V12.5996C9.89914 12.2474 9.61274 11.9561 9.26398 11.9561C8.91139 11.9597 8.62772 12.247 8.62853 12.5996V13.4467H7.78159C7.43377 13.451 7.15405 13.7342 7.15405 14.082C7.15405 14.4299 7.43377 14.7131 7.78159 14.7173H8.62865V15.5644C8.62583 15.7932 8.7463 16.0059 8.94402 16.1211C9.14174 16.2364 9.38616 16.2364 9.58388 16.1211C9.7816 16.0059 9.90207 15.7932 9.89926 15.5644V14.7173H10.7465C11.0943 14.713 11.3739 14.4298 11.3739 14.082C11.3739 13.7341 11.0942 13.451 10.7463 13.4467ZM13.2796 13.4466C13.0226 13.4463 12.7906 13.6009 12.692 13.8383C12.5934 14.0757 12.6475 14.3491 12.8291 14.531C13.0107 14.713 13.2841 14.7676 13.5216 14.6694C13.7592 14.5712 13.9142 14.3395 13.9144 14.0824C13.9145 13.7316 13.6304 13.447 13.2796 13.4466ZM19.2 5.3999H11.7089L12.3211 6.0887L12.7756 6.5999L13.5211 7.43865L14.2667 6.5999H14.3675C14.7164 6.60089 14.999 6.88346 15 7.23235V7.76755C14.9989 8.11638 14.7164 8.39887 14.3676 8.3999H9.63235C9.28352 8.39882 9.00103 8.11628 9 7.76745V7.23225C9.00023 7.04627 9.0824 6.86985 9.22462 6.75L8.02445 5.3999H4.8C3.80709 5.4028 3.0029 6.20699 3 7.1999V19.7999C3.0029 20.7928 3.80709 21.597 4.8 21.5999H19.2C20.1929 21.597 20.9971 20.7928 21 19.7999V7.1999C20.9971 6.20699 20.1929 5.4028 19.2 5.3999ZM17 19.7999C16.0673 19.7999 15.2709 19.1855 14.9508 18.3652L14.8952 18.2327C14.6822 17.7205 14.1981 17.2585 13.6094 17.2585H10.4075C9.81881 17.2585 9.31778 17.7198 9.10478 18.2314L9.04922 18.3652C8.72842 19.1855 7.93135 19.7999 7.00003 19.7999C5.78426 19.7999 4.8 18.711 4.8 17.4944C4.79957 17.1894 4.86264 16.8877 4.98521 16.6084L6.9504 11.8833C7.2799 11.0386 8.09358 10.4823 9.00026 10.4818H14.9997C15.9063 10.4821 16.7199 11.0385 17.0489 11.8833L19.0148 16.6084C19.1374 16.8877 19.2004 17.1894 19.2 17.4944C19.2 18.711 18.2144 19.7999 17 19.7999ZM16.243 13.4466C15.8921 13.4469 15.6079 13.7314 15.608 14.0823C15.6081 14.4332 15.8926 14.7175 16.2434 14.7176C16.5943 14.7176 16.8788 14.4333 16.879 14.0824C16.8792 13.9137 16.8122 13.7518 16.6929 13.6326C16.5736 13.5133 16.4117 13.4464 16.243 13.4466ZM18 2.3999H15.6L13.4667 4.7999H15.8667L18 2.3999ZM8.66666 5.3999L9.73332 6.5999L10.8 7.7999H13.2L12.1333 6.5999L12 6.4499L11.0667 5.3999L10.5333 4.7999L8.4 2.3999H6L8.13334 4.7999L8.66666 5.3999Z" fill="currentColor"/>
</svg>
