<svg width="24" height="24" viewBox="0 0 24 24" fill="currentColor" xmlns="http://www.w3.org/2000/svg">
<path fill-rule="evenodd" clip-rule="evenodd" d="M14.3846 6.68456C12.917 8.14415 12.0944 10.1302 12.1 12.2C12.1 12.3657 11.9657 12.5 11.8 12.5C11.6343 12.5 11.5 12.3657 11.5 12.2C11.4999 8.0089 8.18799 4.56695 4 4.40562V12.2C4.00058 16.0445 6.80142 19.3158 10.6 19.9084V21.2C10.6 21.8627 11.1373 22.4 11.8 22.4C12.4627 22.4 13 21.8627 13 21.2V19.9084C16.7986 19.3158 19.5994 16.0445 19.6 12.2V4.40562C17.6353 4.47578 15.7708 5.29049 14.3846 6.68456ZM9.63976 6.26031C10.6686 7.28749 11.413 8.56433 11.8 9.96574C12.322 8.08442 13.4807 6.44255 15.0784 5.32033C14.2594 4.04166 13.141 2.91361 11.8 2C10.459 2.91361 9.3406 4.04166 8.5216 5.32033C8.92076 5.60075 9.29493 5.91526 9.63976 6.26031Z" fill="currentColor"/>
</svg>
