<svg width="24" height="24" viewBox="0 0 24 24" fill="currentColor" xmlns="http://www.w3.org/2000/svg">
<path fill-rule="evenodd" clip-rule="evenodd" d="M19.5132 10.1054L18.4518 9.49253C18.4515 9.49224 18.4511 9.49203 18.4506 9.49193L17.3373 8.84918L16.8017 8.56819L17.7458 8.0562C18.2224 7.78121 18.535 7.43671 18.26 6.96055L17.4419 5.54378C17.1648 5.06694 16.5546 4.90341 16.0762 5.17776L13.5268 6.64942L8.09918 3.516C7.86105 3.3785 7.64191 3.43145 7.5419 3.6048C7.44189 3.77782 7.49736 4.00829 7.73546 4.14581L12.7995 7.06915L11.5099 7.81368C11.4154 7.86818 11.0563 8.07442 10.9577 8.13146C10.4375 8.43406 10.2592 9.09999 10.5587 9.62206L12.5592 13.0858L8.77989 15.2676L3.37768 12.132C3.02968 11.9324 2.58582 12.0513 2.38408 12.398C2.18454 12.746 2.30357 13.1903 2.65048 13.3917L16.7018 21.52C17.0494 21.7177 17.4914 21.5976 17.6912 21.2513C17.891 20.9049 17.7737 20.4623 17.4287 20.2603L10.2343 16.1074C10.2343 16.1074 14.2097 13.812 14.2311 13.7995C14.7514 13.4972 14.9303 12.8309 14.6306 12.3091L13.8255 10.1202L15.2976 9.36816L18.786 11.3653C19.134 11.5649 19.5779 11.446 19.7794 11.0991C19.9789 10.7511 19.86 10.307 19.5132 10.1054ZM20.7673 6.52519C19.9511 6.99649 18.9074 6.71701 18.4359 5.90092C17.9644 5.08482 18.2436 4.04101 19.0596 3.5693C19.8755 3.09759 20.9194 3.37653 21.3913 4.19239C21.6181 4.58444 21.6798 5.05056 21.5628 5.4881C21.4457 5.92564 21.1596 6.29872 20.7673 6.52519Z" fill="currentColor"/>
</svg>
