<svg width="24" height="24" viewBox="0 0 24 24" fill="currentColor" xmlns="http://www.w3.org/2000/svg">
<path fill-rule="evenodd" clip-rule="evenodd" d="M16.2 6V5.99815C16.1989 3.68899 14.3094 1.8 12 1.8C9.68995 1.8 7.79995 3.69 7.79995 6H4.19995V20.4C4.19995 21.3941 5.00584 22.2 5.99995 22.2H18C18.9941 22.2 19.8 21.3941 19.8 20.4V6H16.2ZM9.88224 3.88229C10.7401 3.02733 12.0279 2.77207 13.147 3.23516C14.2662 3.69825 14.997 4.78886 15 6H8.99995C8.99942 5.2046 9.31712 4.44204 9.88224 3.88229ZM7.79995 7.36095V8.4C7.79995 8.73137 8.06858 9 8.39995 9C8.73132 9 8.99995 8.73137 8.99995 8.4V7.36095C9.47031 7.63251 9.69963 8.18614 9.55906 8.71076C9.41849 9.23538 8.94308 9.60018 8.39995 9.60018C7.85682 9.60018 7.38141 9.23538 7.24084 8.71076C7.10027 8.18614 7.32959 7.63251 7.79995 7.36095ZM12 20.3647C9.34898 20.3647 7.19995 18.2157 7.19995 15.5647C7.19995 13.1169 9.03216 11.0971 11.4 10.8019V10.1647H11.1V9.5647C11.1 9.39901 11.2343 9.2647 11.4 9.2647H12.6C12.7656 9.2647 12.9 9.39901 12.9 9.5647V10.1647H12.6V10.8019C13.3698 10.8979 14.1046 11.18 14.7408 11.6239L15.2121 11.1526C15.3293 11.0354 15.5192 11.0354 15.6364 11.1526L16.1121 11.6283C16.1684 11.6846 16.2 11.7609 16.2 11.8404C16.2 11.92 16.1684 11.9963 16.1121 12.0526L15.6807 12.484C16.4052 13.3469 16.8016 14.438 16.8 15.5647C16.8 18.2157 14.6509 20.3647 12 20.3647ZM15.6 9.6C15.0569 9.59987 14.5817 9.23511 14.4411 8.71061C14.3006 8.18611 14.5298 7.63259 15 7.36095V8.4C15 8.73137 15.2686 9 15.6 9C15.9313 9 16.2 8.73137 16.2 8.4C16.2 8.40031 16.2 8.39969 16.2 8.4V7.36092C16.6702 7.63255 16.8993 8.18609 16.7588 8.71061C16.6182 9.23512 16.143 9.59989 15.6 9.6ZM12 11.6647C9.84604 11.6647 8.09995 13.4108 8.09995 15.5647C8.09995 17.7186 9.84604 19.4647 12 19.4647C14.1539 19.4647 15.9 17.7186 15.9 15.5647C15.9 14.5304 15.4891 13.5384 14.7577 12.807C14.0263 12.0756 13.0343 11.6647 12 11.6647ZM12 15.5647V12.5647C12.8652 12.5638 13.6886 12.9374 14.2576 13.5893L12 15.5647Z" fill="currentColor"/>
</svg>
