<svg width="24" height="24" viewBox="0 0 24 24" fill="currentColor" xmlns="http://www.w3.org/2000/svg">
<path fill-rule="evenodd" clip-rule="evenodd" d="M12.2 2C6.5667 2 2 5.6264 2 10.1C2 13.5671 4.7432 16.5254 8.6 17.681V21.8L12.2 18.2C17.8333 18.2 22.4 14.5736 22.4 10.1C22.4 5.6264 17.8333 2 12.2 2ZM12.8576 15.4899C12.6549 15.676 12.3891 15.7783 12.1139 15.776C11.8338 15.7799 11.5623 15.6791 11.3524 15.4935C11.1353 15.3052 11.0268 15.0419 11.0269 14.7035C11.0269 14.4032 11.1317 14.1506 11.3414 13.9457C11.5512 13.7408 11.8087 13.6384 12.1139 13.6383C12.4144 13.6383 12.6671 13.7408 12.8721 13.9457C13.0771 14.1506 13.1796 14.4032 13.1796 14.7035C13.1796 15.0372 13.0723 15.2994 12.8576 15.4899ZM15.5288 8.91778C15.3745 9.20929 15.1767 9.47564 14.9423 9.7077C14.716 9.92931 14.3095 10.3023 13.7229 10.8266C13.586 10.9493 13.4559 11.0794 13.3333 11.2163C13.2486 11.3097 13.1754 11.4129 13.1152 11.5236C13.069 11.6126 13.0319 11.706 13.0043 11.8024C12.9781 11.8954 12.9388 12.0587 12.8863 12.2922C12.7958 12.7879 12.5122 13.0358 12.0353 13.0358C11.7873 13.0358 11.5787 12.9547 11.4094 12.7927C11.2402 12.6306 11.1556 12.3899 11.1557 12.0707C11.1557 11.6703 11.2176 11.3235 11.3415 11.0304C11.4597 10.7462 11.6268 10.4849 11.8352 10.2584C12.0401 10.0367 12.3167 9.77333 12.6649 9.46818C12.9697 9.20139 13.1901 9 13.3261 8.864C13.4611 8.72941 13.5766 8.57662 13.6693 8.41006C13.7621 8.24411 13.8102 8.05689 13.8089 7.86675C13.8089 7.48541 13.667 7.16368 13.3832 6.90157C13.0995 6.63946 12.7336 6.50838 12.2856 6.50835C11.7611 6.50835 11.3749 6.64063 11.127 6.90519C10.8791 7.16975 10.6694 7.55935 10.4978 8.07399C10.3355 8.6126 10.028 8.8819 9.57514 8.8819C9.32017 8.88701 9.07484 8.78449 8.8993 8.5995C8.71567 8.41135 8.6239 8.20762 8.624 7.98831C8.624 7.53566 8.7694 7.07694 9.0602 6.61218C9.351 6.14741 9.77534 5.76255 10.3332 5.45761C10.891 5.15254 11.5418 5 12.2856 5C12.9766 5 13.5869 5.1275 14.1164 5.38249C14.6454 5.63756 15.0542 5.98429 15.3428 6.42267C15.6265 6.84542 15.7772 7.34339 15.7756 7.85252C15.7756 8.25764 15.6933 8.61273 15.5288 8.91778Z" fill="currentColor"/>
</svg>
