<svg width="24" height="24" viewBox="0 0 24 24" fill="currentColor" xmlns="http://www.w3.org/2000/svg">
<path fill-rule="evenodd" clip-rule="evenodd" d="M12.3962 13.3301V8.59339L9.89561 13.3301H12.3962ZM0 0V24H24V0H0ZM17.009 15.8912C16.6546 16.1997 16.2461 16.3539 15.7835 16.3539H15.6017V18.0228C15.6017 18.5295 15.4594 18.9536 15.1748 19.2951C14.8903 19.6365 14.4983 19.8073 13.9988 19.8073C13.4994 19.8073 13.1074 19.6366 12.8228 19.2951C12.5382 18.9536 12.3959 18.5295 12.396 18.0228V16.3539H8.02296C7.50883 16.3539 7.07555 16.2346 6.72312 15.9959C6.37069 15.7572 6.19445 15.3955 6.1944 14.9108C6.19041 14.6585 6.2531 14.4096 6.37615 14.1893L10.8154 5.95514C11.0612 5.4909 11.4074 5.0873 11.8289 4.77372C12.2475 4.4635 12.7083 4.30831 13.2113 4.30831C13.9235 4.30831 14.5 4.55158 14.9407 5.0381C15.3814 5.52463 15.6017 6.13141 15.6016 6.85843V13.3301H15.9596C16.3893 13.3301 16.7518 13.4531 17.0474 13.6991C17.343 13.9451 17.5073 14.2811 17.5404 14.7071C17.5404 15.1882 17.3633 15.5829 17.009 15.8912Z" fill="currentColor"/>
</svg>
