<svg width="24" height="24" viewBox="0 0 24 24" fill="currentColor" xmlns="http://www.w3.org/2000/svg">
<path fill-rule="evenodd" clip-rule="evenodd" d="M15 1.80005V5.40005C15 6.06279 15.4776 6.60005 16.0667 6.60005H19.8L15 1.80005ZM16.2 7.80005C14.8745 7.80005 13.8 6.72553 13.8 5.40005V1.80005H4.2V20.9946C4.2 20.9964 4.2 20.9982 4.2 21C4.2 21.6628 4.73726 22.2001 5.4 22.2001H19.8V7.80005H16.2ZM12.7004 18.8864C12.5073 19.064 12.2539 19.1616 11.9915 19.1595C11.7245 19.1631 11.4657 19.0669 11.2659 18.8898C11.059 18.7101 10.9556 18.4587 10.9556 18.1356C10.9556 17.8488 11.0556 17.6076 11.2554 17.412C11.4553 17.2165 11.7007 17.1186 11.9915 17.1185C12.2779 17.1185 12.5187 17.2164 12.7141 17.412C12.9095 17.6077 13.0071 17.8489 13.0071 18.1356C13.0071 18.4541 12.9049 18.7044 12.7004 18.8864ZM15.481 11.5502C15.4807 11.9362 15.4023 12.2746 15.2458 12.5655C15.0987 12.8437 14.9103 13.098 14.6868 13.3197C14.4711 13.5313 14.0838 13.8874 13.5249 14.388C13.3943 14.5051 13.2703 14.6293 13.1535 14.76C13.0728 14.8492 13.0031 14.9477 12.9457 15.0534C12.9017 15.1385 12.8663 15.2277 12.84 15.3197C12.8151 15.4084 12.7776 15.5643 12.7275 15.7874C12.6413 16.2606 12.371 16.4972 11.9166 16.4972C11.6802 16.4972 11.4814 16.4199 11.3201 16.2652C11.1589 16.1105 11.0783 15.8808 11.0784 15.5759C11.0784 15.1935 11.1374 14.8624 11.2555 14.5826C11.3681 14.3113 11.5273 14.0618 11.7259 13.8454C11.9766 13.5808 12.2404 13.3289 12.5165 13.0909C12.8071 12.8363 13.0172 12.6441 13.1468 12.5142C13.2755 12.3857 13.3857 12.2399 13.474 12.0809C13.5624 11.9223 13.6082 11.7436 13.6069 11.5621C13.6069 11.198 13.4717 10.8908 13.2013 10.6405C12.9309 10.3902 12.5823 10.265 12.1554 10.2651C11.6555 10.2651 11.2874 10.3914 11.0512 10.6439C10.8151 10.8965 10.6152 11.2685 10.4517 11.7599C10.297 12.2742 10.0039 12.5314 9.57242 12.5314C9.32926 12.5362 9.09532 12.4383 8.92814 12.2616C8.75326 12.082 8.66577 11.8876 8.66577 11.6784V11.6769C8.66597 11.2451 8.80453 10.8075 9.08148 10.3641C9.35853 9.92036 9.76293 9.5529 10.2947 9.26174C10.8257 8.97069 11.4453 8.82509 12.1535 8.82494H12.1571C12.8147 8.82517 13.3956 8.94688 13.8999 9.19008C14.404 9.43363 14.7936 9.76469 15.0687 10.1832C15.3386 10.5864 15.4822 11.0608 15.4811 11.546L15.481 11.5502Z" fill="currentColor"/>
</svg>
