<svg width="24" height="24" viewBox="0 0 24 24" fill="currentColor" xmlns="http://www.w3.org/2000/svg">
<path fill-rule="evenodd" clip-rule="evenodd" d="M18 22.2001H6C5.00588 22.2001 4.2 21.3942 4.2 20.4V3.60005C4.2 2.60594 5.00588 1.80005 6 1.80005H18C18.9941 1.80005 19.8 2.60594 19.8 3.60005V20.4C19.8 21.3942 18.9941 22.2001 18 22.2001ZM15.4122 19.2155C15.7723 19.702 16.399 19.91 16.9785 19.7355C17.5581 19.5609 17.9656 19.0413 17.9971 18.4369C18.0285 17.8325 17.6771 17.2733 17.1189 17.0395L11.3276 14.2799L15.4122 19.2155ZM7.176 19.8C7.83874 19.8 8.376 19.2628 8.376 18.6C8.376 17.9373 7.83874 17.4 7.176 17.4C6.51326 17.4 5.976 17.9373 5.976 18.6C5.976 19.2628 6.51326 19.8 7.176 19.8ZM12 4.80005C8.68629 4.80005 6 7.48634 6 10.8C6 14.1138 8.68629 16.8 12 16.8C12.2116 16.8 12.4231 16.7889 12.6336 16.7668L10.2552 13.8883C10.1514 13.763 10.1486 13.5824 10.2485 13.454C10.3484 13.3256 10.5242 13.2838 10.6711 13.3536L15.5132 15.6639C17.076 14.5368 18.0014 12.7269 18 10.8C18 7.48634 15.3137 4.80005 12 4.80005ZM12 12.6C11.0059 12.6 10.2 11.7942 10.2 10.8C10.2 9.80594 11.0059 9.00005 12 9.00005C12.9941 9.00005 13.8 9.80594 13.8 10.8C13.8 11.7942 12.9941 12.6 12 12.6Z" fill="currentColor"/>
</svg>
