<svg width="24" height="24" viewBox="0 0 24 24" fill="currentColor" xmlns="http://www.w3.org/2000/svg">
<path fill-rule="evenodd" clip-rule="evenodd" d="M12.8835 3.53798C12.5447 3.19305 12.0813 2.99942 11.5979 3C11.1144 3.00059 10.6515 3.19576 10.3136 3.54151L2 12H5.6V19.2C5.6 20.1941 6.40589 21 7.4 21H15.8C16.7941 21 17.6 20.1941 17.6 19.2V12H21.2L12.8835 3.53798ZM12.4768 15.3717L12.7996 18.6H10.3996L10.7225 15.3717C10.0068 14.9723 9.65126 14.1399 9.8576 13.3467C10.0639 12.5535 10.78 11.9999 11.5996 11.9999C12.4192 11.9999 13.1353 12.5535 13.3416 13.3467C13.548 14.1399 13.1924 14.9723 12.4768 15.3717Z" fill="currentColor"/>
</svg>
