<svg width="24" height="24" viewBox="0 0 24 24" fill="currentColor" xmlns="http://www.w3.org/2000/svg">
<path fill-rule="evenodd" clip-rule="evenodd" d="M19.8 18.6C19.7981 19.2619 19.2619 19.7981 18.6 19.8H17.4C17.0686 19.8 16.8 20.0686 16.8 20.4C16.8 20.7314 17.0686 21 17.4 21H18.6099C19.9245 21 21 19.9245 21 18.6099V17.4C21 17.0686 20.7314 16.8 20.4 16.8C20.0686 16.8 19.8 17.0686 19.8 17.4V18.6ZM18.6 4.2C19.2619 4.20194 19.7981 4.73806 19.8 5.4V6.6C19.8 6.93137 20.0686 7.2 20.4 7.2C20.7314 7.2 21 6.93137 21 6.6V5.39006C21 4.07554 19.9245 3 18.6099 3H17.4C17.0686 3 16.8 3.26863 16.8 3.6C16.8 3.93137 17.0686 4.2 17.4 4.2H18.6ZM5.4 19.8C4.73806 19.7981 4.20194 19.2619 4.2 18.6V17.4C4.2 17.0686 3.93137 16.8 3.6 16.8C3.26863 16.8 3 17.0686 3 17.4V18.6099C3 19.9245 4.07554 21 5.39006 21H6.6C6.93137 21 7.2 20.7314 7.2 20.4C7.2 20.0686 6.93137 19.8 6.6 19.8H5.4ZM4.2 5.4C4.20194 4.73806 4.73806 4.20194 5.4 4.2H6.6C6.93137 4.2 7.2 3.93137 7.2 3.6C7.2 3.26863 6.93137 3 6.6 3H5.39006C4.07554 3 3 4.07554 3 5.39006V6.6C3 6.93137 3.26863 7.2 3.6 7.2C3.93137 7.2 4.2 6.93137 4.2 6.6V5.4ZM6.444 16.8H6.048V7.2H6.444V16.8ZM12.198 16.8H11.802V7.2H12.198V16.8ZM13.218 16.8H12.822V7.2H13.218V16.8ZM15.48 16.8H15.084V7.2H15.48V16.8ZM17.748 16.8H17.352V7.2H17.748V16.8ZM8.712 16.8H8.316V7.2H8.712V16.8ZM9.53002 16.8H8.928V7.2H9.53002V16.8ZM11.582 16.8H10.98V7.2H11.582V16.8ZM16.718 16.8H16.116V7.2H16.718V16.8ZM9.948 16.8H9.756V7.2H9.948V16.8ZM10.764 16.8H10.572V7.2H10.764V16.8ZM13.632 16.8H13.44V7.2H13.632V16.8ZM14.46 16.8H14.268V7.2H14.46V16.8ZM17.124 16.8H16.932V7.2H17.124V16.8ZM6.876 16.8H6.684V7.2H6.876V16.8ZM7.476 16.8H7.284V7.2H7.476V16.8Z" fill="currentColor"/>
</svg>
