<svg width="24" height="24" viewBox="0 0 24 24" fill="currentColor" xmlns="http://www.w3.org/2000/svg">
<path fill-rule="evenodd" clip-rule="evenodd" d="M20.4 9.60003H14.4V3.60002C14.4 2.93728 13.8628 2.40002 13.2 2.40002H10.8C10.1373 2.40002 9.60003 2.93728 9.60003 3.60002V9.60003H3.60002C2.93728 9.60003 2.40002 10.1373 2.40002 10.8V13.2C2.40002 13.8628 2.93728 14.4 3.60002 14.4H9.60003V20.4C9.60003 21.0628 10.1373 21.6 10.8 21.6H13.2C13.8628 21.6 14.4 21.0628 14.4 20.4V14.4H20.4C21.0628 14.4 21.6 13.8628 21.6 13.2V10.8C21.6 10.1373 21.0628 9.60003 20.4 9.60003Z" fill="currentColor"/>
</svg>
