<svg width="24" height="24" viewBox="0 0 24 24" fill="currentColor" xmlns="http://www.w3.org/2000/svg">
<path fill-rule="evenodd" clip-rule="evenodd" d="M20.8204 13.7264C20.9127 13.2976 20.9591 12.8601 20.959 12.4215C20.959 9.00387 18.183 6.23352 14.7586 6.23352C12.8834 6.2314 11.1083 7.07902 9.93108 8.53863C9.22574 8.38942 8.49022 8.54708 7.908 8.97227C7.32579 9.39747 6.95177 10.0501 6.87924 10.7674C4.64897 11.0389 2.9214 12.9351 2.9214 15.2342C2.9214 17.7196 4.94033 19.7345 7.43081 19.7345H18.7043C20.5722 19.7345 22.0864 18.2233 22.0864 16.3592C22.087 15.3347 21.6211 14.3657 20.8204 13.7264ZM4.17881 11.1583C4.17701 11.1059 4.17576 11.0534 4.17576 11.0005C4.17576 8.51655 6.1903 6.5028 8.67537 6.5028C9.33901 6.50194 9.99455 6.64841 10.5947 6.93166C11.1167 6.52899 11.6954 6.20559 12.3119 5.97192L12.105 5.02618L10.0877 5.66828L8.66193 4.104L7.23614 5.66828L5.21889 5.02618L4.76659 7.09349L2.69844 7.5456L3.3408 9.56201L1.77588 10.9872L3.15149 12.24C3.43903 11.831 3.78524 11.4666 4.17881 11.1583Z" fill="currentColor"/>
</svg>
