<svg width="24" height="24" viewBox="0 0 24 24" fill="currentColor" xmlns="http://www.w3.org/2000/svg">
<path fill-rule="evenodd" clip-rule="evenodd" d="M19.8 22.2H4.20001V21.6H19.8V22.2ZM12 3.65875L12.1854 4.03445L12.6 4.09469L12.3 4.38722L12.3708 4.80002L12 4.60507L11.6292 4.80002L11.7 4.38722L11.4 4.09469L11.8146 4.03445L12 3.65875ZM12 5.45875L12.1854 5.83445L12.6 5.89469L12.3 6.18722L12.3708 6.60002L12 6.40507L11.6292 6.60002L11.7 6.18722L11.4 5.89469L11.8146 5.83445L12 5.45875ZM12 7.25875L12.1854 7.63445L12.6 7.69469L12.3 7.98722L12.3708 8.40002L12 8.20507L11.6292 8.40002L11.7 7.98722L11.4 7.69469L11.8146 7.63445L12 7.25875ZM5.40001 15.6V21H7.80001V18.3C7.80001 18.1343 7.93433 18 8.10001 18H9.30001C9.4657 18 9.60001 18.1343 9.60001 18.3V21H14.4V18.3C14.4 18.1343 14.5343 18 14.7 18H15.9C16.0657 18 16.2 18.1343 16.2 18.3V21H18.6V15.6H5.40001ZM13.2 19.5C13.2 19.6657 13.0657 19.8 12.9 19.8H12.6C12.6 19.4687 12.3314 19.2 12 19.2C11.6686 19.2 11.4 19.4687 11.4 19.8H11.1C10.9343 19.8 10.8 19.6657 10.8 19.5V18.3C10.8 18.1343 10.9343 18 11.1 18H12.9C13.0657 18 13.2 18.1343 13.2 18.3V19.5ZM13.5 17.4H10.5C10.3343 17.4 10.2 17.2657 10.2 17.1C10.2 16.9343 10.3343 16.8 10.5 16.8H13.5C13.6657 16.8 13.8 16.9343 13.8 17.1C13.8 17.2657 13.6657 17.4 13.5 17.4ZM19.2 9.60003H17.4V8.86322C17.4 8.27604 16.924 7.80002 16.3368 7.80002H16.1648C16.015 7.80002 15.8713 7.74052 15.7654 7.63461C15.6595 7.52871 15.6 7.38506 15.6 7.23528V6.59647C15.6 5.9357 15.0643 5.40004 14.4036 5.40002C14.0702 5.40002 13.8 5.1298 13.8 4.79647V4.20002C13.7971 3.20712 12.9929 2.40292 12 2.40002C11.0071 2.40292 10.2029 3.20712 10.2 4.20002V4.78992C10.2 4.95173 10.1357 5.10691 10.0213 5.22133C9.9069 5.33575 9.75172 5.40002 9.58991 5.40002H9.58751C8.93166 5.40008 8.40001 5.93177 8.40001 6.58762V7.22942C8.40002 7.38076 8.3399 7.5259 8.23289 7.63291C8.12589 7.73992 7.98075 7.80003 7.82941 7.80002H7.66321C7.07602 7.80002 6.60001 8.27604 6.60001 8.86322V9.60003H4.80001C4.46864 9.60003 4.20001 9.86865 4.20001 10.2V13.8L5.38758 15H18.5876L19.7876 13.8H19.8V10.2C19.8 9.86865 19.5314 9.60003 19.2 9.60003ZM10.8 4.20002C10.8 3.53728 11.3373 3.00002 12 3.00002C12.6628 3.00002 13.2 3.53728 13.2 4.20002V9.60003H10.8V4.20002ZM19.2 13.2H4.80001V12H19.2V13.2ZM19.2 11.4H4.80001V10.2H19.2V11.4Z" fill="currentColor"/>
</svg>
