<svg width="24" height="24" viewBox="0 0 24 24" fill="currentColor" xmlns="http://www.w3.org/2000/svg">
<path fill-rule="evenodd" clip-rule="evenodd" d="M8 7.69782C7.9997 6.19977 8.85743 4.83392 10.2069 4.18352C9.59742 2.48799 7.74014 1.59525 6.03535 2.17838C4.33057 2.76151 3.40913 4.60472 3.96575 6.31834C4.52237 8.03197 6.35108 8.98188 8.07313 8.4519C8.02445 8.20349 7.99996 7.95095 8 7.69782ZM12.8 10.0978C12.7997 8.59977 13.6574 7.23391 15.0069 6.58352C14.3974 4.88799 12.5401 3.99525 10.8354 4.57838C9.13057 5.16151 8.20913 7.00472 8.76575 8.71834C9.32237 10.432 11.1511 11.3819 12.8731 10.8519C12.8245 10.6035 12.8 10.351 12.8 10.0978ZM20 10.0978C20 11.9204 18.5225 13.3978 16.7 13.3978C14.8775 13.3978 13.4 11.9204 13.4 10.0978C13.4 8.27528 14.8775 6.79782 16.7 6.79782C18.5225 6.79782 20 8.27528 20 10.0978ZM8.37306 9.36395C6.90293 9.82307 5.29946 9.45374 4.17831 8.39776C2.84452 9.05397 1.99975 10.4113 2 11.8978V15.7978C2 16.7919 2.80589 17.5978 3.8 17.5978H6.2V14.2978C6.2005 12.5126 7.25553 10.8963 8.88956 10.1774C8.68446 9.92859 8.51097 9.65538 8.37306 9.36395ZM13.1731 11.7639C11.7029 12.2231 10.0995 11.8537 8.97831 10.7978C7.64452 11.454 6.79975 12.8113 6.8 14.2978V18.1978C6.8 19.1919 7.60589 19.9978 8.6 19.9978H11V16.6978C11.0005 14.9126 12.0556 13.2963 13.6896 12.5774C13.4845 12.3286 13.311 12.0554 13.1731 11.7639ZM19.6217 13.1978C17.981 14.7445 15.419 14.7445 13.7783 13.1978C12.4445 13.854 11.5997 15.2113 11.6 16.6978V20.5978C11.6 21.5919 12.4059 22.3978 13.4 22.3978H21.8V16.6978C21.8003 15.2113 20.9555 13.854 19.6217 13.1978ZM19.9525 21.0565C19.5623 21.4357 18.1611 21.0765 16.765 19.6807C15.3688 18.285 14.9931 16.9198 15.389 16.4935C16.1418 15.7258 16.1177 15.5914 16.7185 16.3385C17.3192 17.0857 17.279 17.0393 16.6849 17.6336C16.448 17.8702 16.9424 18.469 17.4596 18.9861C17.9768 19.5033 18.5756 19.9976 18.8124 19.761C19.4039 19.1695 19.3604 19.1268 20.1073 19.7275C20.8176 20.3045 20.7546 20.26 19.9525 21.0565Z" fill="currentColor"/>
</svg>
