<svg width="24" height="24" viewBox="0 0 24 24" fill="currentColor" xmlns="http://www.w3.org/2000/svg">
<path fill-rule="evenodd" clip-rule="evenodd" d="M7.776 9C7.11326 9 6.576 9.53726 6.576 10.2C6.576 10.8627 7.11326 11.4 7.776 11.4C8.43874 11.4 8.976 10.8627 8.976 10.2C8.976 9.53726 8.43874 9 7.776 9ZM16.176 9C15.5133 9 14.976 9.53726 14.976 10.2C14.976 10.8627 15.5133 11.4 16.176 11.4C16.8387 11.4 17.376 10.8627 17.376 10.2C17.376 9.53726 16.8387 9 16.176 9ZM15 15.3C14.9986 14.8035 14.5965 14.4014 14.1 14.4H9.9C9.40355 14.4014 9.00145 14.8035 9 15.3V15.6C9 16.2627 10.3431 16.8 12 16.8C13.6569 16.8 15 16.2627 15 15.6V15.3ZM19.8 18.6C19.7981 19.2619 19.2619 19.7981 18.6 19.8H17.4C17.0686 19.8 16.8 20.0686 16.8 20.4C16.8 20.7314 17.0686 21 17.4 21H18.6099C19.9245 21 21 19.9245 21 18.6099V17.4C21 17.0686 20.7314 16.8 20.4 16.8C20.0686 16.8 19.8 17.0686 19.8 17.4V18.6ZM18.6 4.2C19.2619 4.20194 19.7981 4.73806 19.8 5.4V6.6C19.8 6.93137 20.0686 7.2 20.4 7.2C20.7314 7.2 21 6.93137 21 6.6V5.39006C21 4.07554 19.9245 3 18.6099 3H17.4C17.0686 3 16.8 3.26863 16.8 3.6C16.8 3.93137 17.0686 4.2 17.4 4.2H18.6ZM5.4 19.8C4.73806 19.7981 4.20194 19.2619 4.2 18.6V17.4C4.2 17.0686 3.93137 16.8 3.6 16.8C3.26863 16.8 3 17.0686 3 17.4V18.6099C3 19.9245 4.07554 21 5.39006 21H6.6C6.93137 21 7.2 20.7314 7.2 20.4C7.2 20.0686 6.93137 19.8 6.6 19.8H5.4ZM4.2 5.4C4.20194 4.73806 4.73806 4.20194 5.4 4.2H6.6C6.93137 4.2 7.2 3.93137 7.2 3.6C7.2 3.26863 6.93137 3 6.6 3H5.39006C4.07554 3 3 4.07554 3 5.39006V6.6C3 6.93137 3.26863 7.2 3.6 7.2C3.93137 7.2 4.2 6.93137 4.2 6.6V5.4Z" fill="currentColor"/>
</svg>
