<svg width="24" height="24" viewBox="0 0 24 24" fill="currentColor" xmlns="http://www.w3.org/2000/svg">
<path fill-rule="evenodd" clip-rule="evenodd" d="M15 1.80005V5.40005C15 6.06279 15.4776 6.60005 16.0667 6.60005H19.8L15 1.80005ZM16.2 7.80005C14.8745 7.80005 13.8 6.72553 13.8 5.40005V1.80005H4.20001V20.9946C4.20001 20.9964 4.20001 20.9982 4.20001 21C4.20001 21.6628 4.73727 22.2001 5.40001 22.2001H19.8V7.80005H16.2ZM15.6 11.106V16.5C15.5995 17.1336 15.2006 17.6983 14.6038 17.9107C14.0069 18.1231 13.341 17.9373 12.9403 17.4465C12.5397 16.9558 12.4909 16.2661 12.8185 15.7238C13.1461 15.1816 13.7792 14.9039 14.4 15.0301V12.1899L10.8 13.0937V17.7C10.7995 18.3336 10.4006 18.8984 9.80377 19.1108C9.2069 19.3232 8.54095 19.1373 8.1403 18.6466C7.73966 18.1558 7.69087 17.4661 8.01845 16.9238C8.34602 16.3816 8.97919 16.1038 9.60001 16.2301V11.4L14.4984 10.2227C14.7656 10.1611 15.0462 10.2251 15.2607 10.3959C15.4752 10.5666 15.6001 10.8259 15.6 11.1C15.6 11.1021 15.6002 11.104 15.6 11.106Z" fill="currentColor"/>
</svg>
