<svg width="24" height="24" viewBox="0 0 24 24" fill="currentColor" xmlns="http://www.w3.org/2000/svg">
<path fill-rule="evenodd" clip-rule="evenodd" d="M18.3 9.91196C17.8029 9.91196 17.4 10.3149 17.4 10.812V11.712C17.4 14.6943 14.9823 17.112 12 17.112C9.01765 17.112 6.59999 14.6943 6.59999 11.712V10.812C6.59999 10.3149 6.19705 9.91196 5.69999 9.91196C5.20293 9.91196 4.79999 10.3149 4.79999 10.812V11.712C4.79812 15.3459 7.50563 18.4111 11.112 18.8578V20.712H8.99999C8.33725 20.712 7.79999 21.2492 7.79999 21.912V22.512H16.2V21.912C16.2 21.2492 15.6627 20.712 15 20.712H12.888V18.8578C16.4945 18.4114 19.2022 15.346 19.2 11.712V10.812C19.2 10.3149 18.797 9.91196 18.3 9.91196ZM12 1.51196C9.68039 1.51196 7.79999 3.39237 7.79999 5.71196V11.712C7.79999 14.0316 9.68039 15.912 12 15.912C14.3196 15.912 16.2 14.0316 16.2 11.712V5.71196C16.2 3.39237 14.3196 1.51196 12 1.51196ZM8.99999 9.31196V5.71196C8.99999 4.05511 10.3431 2.71196 12 2.71196C13.6568 2.71196 15 4.05511 15 5.71196V9.31196H8.99999Z" fill="currentColor"/>
</svg>
