<svg width="24" height="24" viewBox="0 0 24 24" fill="currentColor" xmlns="http://www.w3.org/2000/svg">
<path fill-rule="evenodd" clip-rule="evenodd" d="M19.8657 17.393H4.12008C3.49829 17.3948 2.99465 17.8984 2.99287 18.5202V19.8657C2.99465 20.4875 3.49829 20.9911 4.12008 20.9929H19.8657C20.4875 20.9911 20.9911 20.4875 20.9929 19.8657V18.5202C20.9911 17.8984 20.4875 17.3948 19.8657 17.393ZM4.79287 19.7929C4.4615 19.7929 4.19287 19.5242 4.19287 19.1929C4.19287 18.8615 4.4615 18.5929 4.79287 18.5929C5.12425 18.5929 5.39287 18.8615 5.39287 19.1929C5.39287 19.5242 5.12425 19.7929 4.79287 19.7929ZM6.59287 19.7935C6.2615 19.7935 5.99287 19.5249 5.99287 19.1935C5.99287 18.8621 6.2615 18.5935 6.59287 18.5935C6.92424 18.5935 7.19287 18.8621 7.19287 19.1935C7.19287 19.5249 6.92424 19.7935 6.59287 19.7935ZM19.1929 19.7929C18.8615 19.7929 18.5929 19.5242 18.5929 19.1929C18.5929 18.8615 18.8615 18.5929 19.1929 18.5929C19.5242 18.5929 19.7929 18.8615 19.7929 19.1929C19.7929 19.5242 19.5242 19.7929 19.1929 19.7929ZM11.9929 5.84202C9.83422 5.83751 7.76151 6.68757 6.22767 8.2065L7.24505 9.21383C9.86088 6.61823 14.1071 6.61319 16.7293 9.20252L16.7407 9.21383L17.7581 8.2065C16.2242 6.68757 14.1515 5.83751 11.9929 5.84202ZM4.19287 6.19179L5.21026 7.19919C8.94761 3.49119 15.014 3.48431 18.7599 7.18381C18.7651 7.18892 18.7703 7.19406 18.7755 7.19919L19.7929 6.19179C15.4675 1.92655 8.51824 1.92655 4.19287 6.19179ZM13.7217 13.282C13.7215 14.2272 12.9473 14.9932 11.9924 14.993C11.0376 14.9927 10.2637 14.2263 10.264 13.2812C10.2642 12.336 11.0382 11.5702 11.9929 11.5702C12.9475 11.5702 13.7219 12.3367 13.7217 13.282ZM8.26236 10.2212L9.27975 11.2285C10.7776 9.74531 13.2065 9.74487 14.7049 11.2275L14.7059 11.2285L15.7235 10.2212C13.6639 8.18173 10.3242 8.18115 8.26385 10.2198L8.26236 10.2212Z" fill="currentColor"/>
</svg>
