<svg width="24" height="24" viewBox="0 0 24 24" fill="currentColor" xmlns="http://www.w3.org/2000/svg">
<path fill-rule="evenodd" clip-rule="evenodd" d="M21.0301 14.9917L19.7741 14.2943V4.81189C19.7725 3.48726 18.6988 2.41401 17.3741 2.41309H6.57869C5.25481 2.41507 4.1822 3.488 4.18061 4.81189V14.3116L2.95661 14.9917C2.18861 15.4175 2.18861 16.5198 2.95517 16.9456L10.7657 21.284C11.5287 21.7079 12.4565 21.7079 13.2195 21.284L21.0301 16.9456C21.7966 16.5198 21.7966 15.4175 21.0301 14.9917ZM18.5746 13.6278V14.4056C18.573 15.0677 18.0367 15.6041 17.3746 15.6056H13.7763L11.9763 17.4056L10.1763 15.6056H6.57869C5.91661 15.6041 5.38028 15.0677 5.37869 14.4056V4.81189C5.38041 4.14986 5.91666 3.6136 6.57869 3.61189H17.3751C18.0371 3.6136 18.5734 4.14986 18.5751 4.81189L18.5746 13.6278ZM12.6185 5.07973C12.4492 4.90735 12.2176 4.81036 11.976 4.81064C11.7344 4.81091 11.503 4.90841 11.3341 5.08117L10.4206 6.00997H8.97797V7.47781L7.17797 9.30829H8.97797V12.9064C8.97797 13.145 9.07278 13.3738 9.24152 13.5425C9.41026 13.7112 9.63912 13.8059 9.87773 13.8059H14.0763C14.3149 13.8059 14.5437 13.7111 14.7123 13.5424C14.881 13.3737 14.9758 13.1449 14.9758 12.9064V9.30829H16.7758L12.6185 5.07973ZM12.8765 9.90805V12.3068H10.4765C10.1452 12.3068 9.87653 12.0382 9.87653 11.7068V9.30829H12.2765C12.6078 9.30829 12.8764 9.57677 12.8765 9.90805Z" fill="currentColor"/>
</svg>
