<svg width="24" height="24" viewBox="0 0 24 24" fill="currentColor" xmlns="http://www.w3.org/2000/svg">
<path fill-rule="evenodd" clip-rule="evenodd" d="M18 3.59906H15V3.00005C15 2.33731 14.4627 1.80005 13.8 1.80005H10.2C9.53721 1.80005 8.99995 2.33731 8.99995 3.00005V3.59906H5.99995C5.00584 3.59906 4.19995 4.40495 4.19995 5.39906V6.60005H19.8V5.39906C19.8 4.40495 18.9941 3.59906 18 3.59906ZM10.2 3.00005H13.8V3.59906H10.2V3.00005ZM5.39995 7.19907V22.2001H18.6V7.19907H5.39995ZM8.99995 9.60005V19.7968C8.99995 19.7979 8.99995 19.799 8.99995 19.8C8.99995 20.1314 8.73132 20.4 8.39995 20.4C8.06858 20.4 7.79995 20.1314 7.79995 19.8C7.79995 19.799 7.79995 19.7979 7.79995 19.7968V9.60005C7.79995 9.60039 7.79995 9.59971 7.79995 9.60005C7.79995 9.26868 8.06858 8.99906 8.39995 8.99906C8.73132 8.99906 8.99995 9.26868 8.99995 9.60005C8.99995 9.60039 8.99995 9.59971 8.99995 9.60005ZM12.6 9.60005V19.7968C12.6 19.7979 12.6 19.7989 12.6 19.8C12.6 20.1314 12.3313 20.4 12 20.4C11.6686 20.4 11.4 20.1314 11.4 19.8C11.4 19.7989 11.4 19.7979 11.4 19.7968V9.60005C11.4 9.60036 11.4 9.59971 11.4 9.60005C11.4 9.26868 11.6686 8.99906 12 8.99906C12.3313 8.99906 12.6 9.26868 12.6 9.60005C12.6 9.60036 12.6 9.59971 12.6 9.60005ZM16.2 9.60005V19.7968C16.2 19.7979 16.2 19.799 16.2 19.8C16.2 20.1314 15.9313 20.4 15.6 20.4C15.2686 20.4 15 20.1314 15 19.8C15 19.799 15 19.7979 15 19.7968V9.60005C15 9.60039 15 9.59971 15 9.60005C15 9.26868 15.2686 8.99906 15.6 8.99906C15.9313 8.99906 16.2 9.26868 16.2 9.60005C16.2 9.60039 16.2 9.59971 16.2 9.60005Z" fill="currentColor"/>
</svg>
