<svg width="24" height="24" viewBox="0 0 24 24" fill="currentColor" xmlns="http://www.w3.org/2000/svg">
<path fill-rule="evenodd" clip-rule="evenodd" d="M1.80005 5.3989V8.39995C2.40283 8.39981 3.00468 8.44707 3.60005 8.54129V5.99995H20.4V18H13.0607C13.1536 18.59 13.2002 19.1864 13.2 19.7837C13.2 19.7892 13.2 19.7945 13.2 19.8H20.9965C21.6612 19.8 22.2001 19.2611 22.2001 18.5964V5.40199C22.2001 4.73812 21.6619 4.19995 20.998 4.19995H2.99899C2.33683 4.19995 1.80005 4.73674 1.80005 5.3989ZM9.60005 19.8H11.4C11.4 14.498 7.10198 10.2 1.80005 10.2V12C6.10788 12 9.60005 15.4921 9.60005 19.8ZM6.00005 19.8H7.80005C7.80005 16.4862 5.11375 13.8 1.80005 13.8V15.6C4.11964 15.6 6.00005 17.4804 6.00005 19.8ZM4.20005 19.8C4.20005 18.4745 3.12553 17.4 1.80005 17.4V19.8H4.20005Z" fill="currentColor"/>
</svg>
