<svg width="24" height="24" viewBox="0 0 24 24" fill="currentColor" xmlns="http://www.w3.org/2000/svg">
<path fill-rule="evenodd" clip-rule="evenodd" d="M18.912 4.19999H4.92086C4.81369 4.19999 4.7111 4.24348 4.63658 4.3205C4.56205 4.39753 4.52197 4.50149 4.52551 4.60861L4.98504 18.5274C4.98498 19.5015 5.37189 20.4356 6.06064 21.1244C6.7494 21.8131 7.68357 22.2 8.65762 22.2H13.775C13.0169 21.5849 12.6495 20.6087 12.814 19.6464C12.9785 18.6841 13.6493 17.8853 14.5687 17.557C15.4881 17.2286 16.5131 17.4217 17.25 18.0621L17.6616 5.70913C17.6674 5.53672 17.8088 5.39994 17.9813 5.39999H18.912C19.243 5.39903 19.5111 5.13096 19.512 4.79999C19.5111 4.46902 19.243 4.20095 18.912 4.19999ZM10.0898 15H8.84534C8.84556 14.9905 8.84534 14.9741 8.84534 14.9646C8.84271 14.2304 8.24625 13.6368 7.51202 13.6378V12.3994C8.93568 12.3994 10.0898 13.5478 10.0898 14.9645C10.0898 14.9741 10.0899 14.9905 10.0898 15ZM12.401 15H11.1564C11.1564 14.9905 11.1564 14.9741 11.1564 14.9646C11.1515 12.9568 9.51984 11.3331 7.51202 11.3381V10.0997C10.212 10.0997 12.4008 12.2777 12.4008 14.9645C12.4008 14.9741 12.4012 14.9904 12.401 15ZM14.7122 15H13.4676C13.4676 14.9905 13.4676 14.9741 13.4676 14.9646C13.4693 13.3909 12.8412 11.8819 11.7232 10.7742C10.6054 9.65975 9.09048 9.0353 7.51202 9.03839V7.79999C11.4885 7.79999 14.712 11.0077 14.712 14.9646C14.712 14.9741 14.7122 14.9905 14.7122 15ZM15.4782 18.02C14.525 18.02 13.6936 18.6674 13.4599 19.5915C13.2262 20.5156 13.6499 21.4803 14.4884 21.9335C15.327 22.3867 16.3662 22.2126 17.0112 21.5108C17.6562 20.809 17.7422 19.7588 17.22 18.9614C16.8353 18.3739 16.1805 18.0199 15.4782 18.02ZM15.4782 21.045C15.0969 21.0451 14.753 20.8155 14.607 20.4631C14.461 20.1108 14.5416 19.7053 14.8112 19.4356C15.0808 19.1659 15.4864 19.0852 15.8387 19.2311C16.1911 19.377 16.4208 19.7208 16.4208 20.1022C16.4208 20.6229 15.9989 21.045 15.4782 21.045ZM4.81202 3.59999H17.412C17.5777 3.59999 17.712 3.46567 17.712 3.29999C17.712 3.1343 17.5777 2.99999 17.412 2.99999H17.3783C17.2364 2.99906 17.1147 2.89823 17.0875 2.75893C16.9714 2.20175 16.4812 1.80184 15.912 1.79999H6.31202C5.74286 1.80184 5.25265 2.20175 5.1365 2.75893C5.1093 2.89823 4.98769 2.99906 4.84577 2.99999H4.81202C4.64634 2.99999 4.51202 3.1343 4.51202 3.29999C4.51202 3.46567 4.64634 3.59999 4.81202 3.59999Z" fill="currentColor"/>
</svg>
