<svg width="24" height="24" viewBox="0 0 24 24" fill="currentColor" xmlns="http://www.w3.org/2000/svg">
<path fill-rule="evenodd" clip-rule="evenodd" d="M18.6 13.8H20.4C21.0628 13.8 21.6 13.2627 21.6 12.6V4.79999C21.6 4.13725 21.0628 3.59999 20.4 3.59999H18.6C17.9373 3.59999 17.4 4.13725 17.4 4.79999V12.6C17.4 13.2627 17.9373 13.8 18.6 13.8ZM19.5 4.79999C19.9971 4.79999 20.4 5.20294 20.4 5.69999C20.4 6.19705 19.9971 6.59999 19.5 6.59999C19.003 6.59999 18.6 6.19705 18.6 5.69999C18.6 5.4613 18.6948 5.23238 18.8636 5.0636C19.0324 4.89482 19.2613 4.79999 19.5 4.79999ZM4.20002 15H9.00002C9.00002 15 8.40002 18.376 8.40002 18.9C8.40002 21.6 9.96867 22.1655 10.3917 22.1957C10.4067 22.1967 10.4223 22.1977 10.4373 22.1984C10.4582 22.1993 10.479 22.1999 10.5 22.1999C11.3284 22.1999 12 21.5284 12 20.7V18.6L13.8 15C14.4648 13.9669 15.5751 13.305 16.8 13.2114V4.19999H15.8832C15.6969 4.2 15.5132 4.15662 15.3466 4.0733L12.5068 2.65336C12.1735 2.48675 11.806 2.39999 11.4335 2.39999H6.60002C5.60591 2.39999 4.80002 3.20588 4.80002 4.19999C4.79942 4.64552 4.96469 5.07532 5.26363 5.40566C4.32527 5.47685 3.60016 6.25893 3.60002 7.19999C3.59954 7.69798 3.806 8.17377 4.17002 8.51359C3.46643 8.77663 3.00007 9.44884 3.00002 10.2C2.99954 10.698 3.206 11.1738 3.57002 11.5136C2.86643 11.7766 2.40002 12.4488 2.40002 13.2C2.40002 14.1941 3.20591 15 4.20002 15Z" fill="currentColor"/>
</svg>
