<svg width="24" height="24" viewBox="0 0 24 24" fill="currentColor" xmlns="http://www.w3.org/2000/svg">
<path fill-rule="evenodd" clip-rule="evenodd" d="M21.6 16.2H20.4C20.4 17.8569 19.0569 19.2 17.4 19.2C15.7432 19.2 14.4 17.8569 14.4 16.2H9.00001C9.00001 17.8569 7.65687 19.2 6.00001 19.2C4.34316 19.2 3.00001 17.8569 3.00001 16.2H2.40001C1.73735 16.1998 1.20001 15.6627 1.20001 15V10.807C1.19965 10.5507 1.28187 10.3011 1.43449 10.0951L1.43675 10.0921C1.43797 10.0905 1.43915 10.0888 1.44042 10.0872L5.03665 5.28409C5.26298 4.97926 5.62035 4.79968 6.00001 4.8H13.8C14.1247 4.79863 14.4362 4.92831 14.664 5.1597L18.912 9.67201L21.8437 10.2321C22.4004 10.3475 22.7998 10.838 22.8 11.4065V15C22.8 15.6627 22.2627 16.1998 21.6 16.2ZM10.7831 12.116C10.7808 12.402 10.6064 12.6586 10.3411 12.7659C10.0759 12.8732 9.7722 12.8101 9.57163 12.6061C9.37105 12.4021 9.31316 12.0973 9.42495 11.834C9.53674 11.5706 9.79619 11.4006 10.0823 11.4032C10.2697 11.4047 10.4489 11.4807 10.5803 11.6144C10.7118 11.7481 10.7847 11.9285 10.7831 12.116ZM11.1548 10.9254C10.4781 10.3385 9.47252 10.3394 8.79685 10.9275L8.28191 10.3347C9.25197 9.48846 10.6975 9.48712 11.6691 10.3316L11.1548 10.9254ZM12.1796 9.7424C10.9143 8.64518 9.03421 8.64705 7.77107 9.74677L7.25442 9.152C8.81368 7.7961 11.1331 7.79452 12.6942 9.14828L12.1796 9.7424ZM13.8 8.02734L13.2864 8.62014C11.3831 6.9737 8.55936 6.97561 6.65831 8.6246L6.14401 8.03267C8.33849 6.12429 11.6029 6.12202 13.8 8.02734Z" fill="currentColor"/>
</svg>
