<svg width="24" height="24" viewBox="0 0 24 24" fill="currentColor" xmlns="http://www.w3.org/2000/svg">
<path fill-rule="evenodd" clip-rule="evenodd" d="M21 5.39999H2.99999C2.33725 5.39999 1.79999 5.93725 1.79999 6.59999V17.4C1.79999 18.0627 2.33725 18.6 2.99999 18.6H21C21.6627 18.6 22.2 18.0627 22.2 17.4V6.59999C22.2 5.93725 21.6627 5.39999 21 5.39999ZM15.6 6.89999C15.6 6.73431 15.7343 6.59999 15.9 6.59999H17.1C17.2657 6.59999 17.4 6.73431 17.4 6.89999V8.09999C17.4 8.26568 17.2657 8.39999 17.1 8.39999H15.9C15.7343 8.39999 15.6 8.26568 15.6 8.09999V6.89999ZM15.6 9.89999C15.6 9.73431 15.7343 9.59999 15.9 9.59999H17.1C17.2657 9.59999 17.4 9.73431 17.4 9.89999V11.1C17.4 11.2657 17.2657 11.4 17.1 11.4H15.9C15.7343 11.4 15.6 11.2657 15.6 11.1V9.89999ZM15.612 12.6C15.7777 12.6 15.912 12.7343 15.912 12.9V14.1C15.912 14.2657 15.7777 14.4 15.612 14.4H14.412C14.2463 14.4 14.112 14.2657 14.112 14.1V12.9C14.112 12.7343 14.2463 12.6 14.412 12.6H15.612ZM12.6 6.89999C12.6 6.73431 12.7343 6.59999 12.9 6.59999H14.1C14.2657 6.59999 14.4 6.73431 14.4 6.89999V8.09999C14.4 8.26568 14.2657 8.39999 14.1 8.39999H12.9C12.7343 8.39999 12.6 8.26568 12.6 8.09999V6.89999ZM12.6 9.89999C12.6 9.73431 12.7343 9.59999 12.9 9.59999H14.1C14.2657 9.59999 14.4 9.73431 14.4 9.89999V11.1C14.4 11.2657 14.2657 11.4 14.1 11.4H12.9C12.7343 11.4 12.6 11.2657 12.6 11.1V9.89999ZM12.612 12.6C12.7777 12.6 12.912 12.7343 12.912 12.9V14.1C12.912 14.2657 12.7777 14.4 12.612 14.4H11.412C11.2463 14.4 11.112 14.2657 11.112 14.1V12.9C11.112 12.7343 11.2463 12.6 11.412 12.6H12.612ZM9.59999 6.89999C9.59999 6.73431 9.7343 6.59999 9.89999 6.59999H11.1C11.2657 6.59999 11.4 6.73431 11.4 6.89999V8.09999C11.4 8.26568 11.2657 8.39999 11.1 8.39999H9.89999C9.7343 8.39999 9.59999 8.26568 9.59999 8.09999V6.89999ZM9.59999 9.89999C9.59999 9.73431 9.7343 9.59999 9.89999 9.59999H11.1C11.2657 9.59999 11.4 9.73431 11.4 9.89999V11.1C11.4 11.2657 11.2657 11.4 11.1 11.4H9.89999C9.7343 11.4 9.59999 11.2657 9.59999 11.1V9.89999ZM9.61199 12.6C9.77767 12.6 9.91199 12.7343 9.91199 12.9V14.1C9.91199 14.2657 9.77767 14.4 9.61199 14.4H8.41199C8.2463 14.4 8.11199 14.2657 8.11199 14.1V12.9C8.11199 12.7343 8.2463 12.6 8.41199 12.6H9.61199ZM6.59999 6.89999C6.59999 6.73431 6.7343 6.59999 6.89999 6.59999H8.09999C8.26567 6.59999 8.39999 6.73431 8.39999 6.89999V8.09999C8.39999 8.26568 8.26567 8.39999 8.09999 8.39999H6.89999C6.7343 8.39999 6.59999 8.26568 6.59999 8.09999V6.89999ZM6.59999 9.89999C6.59999 9.73431 6.7343 9.59999 6.89999 9.59999H8.09999C8.26567 9.59999 8.39999 9.73431 8.39999 9.89999V11.1C8.39999 11.2657 8.26567 11.4 8.09999 11.4H6.89999C6.7343 11.4 6.59999 11.2657 6.59999 11.1V9.89999ZM3.59999 6.89999C3.59999 6.73431 3.7343 6.59999 3.89999 6.59999H5.09999C5.26567 6.59999 5.39999 6.73431 5.39999 6.89999V8.09999C5.39999 8.26568 5.26567 8.39999 5.09999 8.39999H3.89999C3.7343 8.39999 3.59999 8.26568 3.59999 8.09999V6.89999ZM3.59999 9.89999C3.59999 9.73431 3.7343 9.59999 3.89999 9.59999H5.09999C5.26567 9.59999 5.39999 9.73431 5.39999 9.89999V11.1C5.39999 11.2657 5.26567 11.4 5.09999 11.4H3.89999C3.7343 11.4 3.59999 11.2657 3.59999 11.1V9.89999ZM5.39999 17.1C5.39999 17.2657 5.26567 17.4 5.09999 17.4H3.89999C3.7343 17.4 3.59999 17.2657 3.59999 17.1V15.9C3.59999 15.7343 3.7343 15.6 3.89999 15.6H5.09999C5.26567 15.6 5.39999 15.7343 5.39999 15.9V17.1ZM6.29999 14.4H3.89999C3.7343 14.4 3.59999 14.2657 3.59999 14.1V12.9C3.59999 12.7343 3.7343 12.6 3.89999 12.6H6.29999C6.46567 12.6 6.59999 12.7343 6.59999 12.9V14.1C6.59999 14.2657 6.46567 14.4 6.29999 14.4ZM17.4 17.1C17.4 17.2657 17.2657 17.4 17.1 17.4H6.89999C6.7343 17.4 6.59999 17.2657 6.59999 17.1V15.9C6.59999 15.7343 6.7343 15.6 6.89999 15.6H17.1C17.2657 15.6 17.4 15.7343 17.4 15.9V17.1ZM20.4 17.1C20.4 17.2657 20.2657 17.4 20.1 17.4H18.9C18.7343 17.4 18.6 17.2657 18.6 17.1V15.9C18.6 15.7343 18.7343 15.6 18.9 15.6H20.1C20.2657 15.6 20.4 15.7343 20.4 15.9V17.1ZM20.4 14.1C20.4 14.2657 20.2657 14.4 20.1 14.4H17.7C17.5343 14.4 17.4 14.2657 17.4 14.1V12.9C17.4 12.7343 17.5343 12.6 17.7 12.6H20.1C20.2657 12.6 20.4 12.7343 20.4 12.9V14.1ZM20.4 11.1C20.4 11.2657 20.2657 11.4 20.1 11.4H18.9C18.7343 11.4 18.6 11.2657 18.6 11.1V9.89999C18.6 9.73431 18.7343 9.59999 18.9 9.59999H20.1C20.2657 9.59999 20.4 9.73431 20.4 9.89999V11.1ZM20.4 8.09999C20.4 8.26568 20.2657 8.39999 20.1 8.39999H18.9C18.7343 8.39999 18.6 8.26568 18.6 8.09999V6.89999C18.6 6.73431 18.7343 6.59999 18.9 6.59999H20.1C20.2657 6.59999 20.4 6.73431 20.4 6.89999V8.09999Z" fill="currentColor"/>
</svg>
