<svg width="24" height="24" viewBox="0 0 24 24" fill="currentColor" xmlns="http://www.w3.org/2000/svg">
<path fill-rule="evenodd" clip-rule="evenodd" d="M19.8622 8.70581C19.1635 9.36624 18.2501 9.75248 17.2896 9.79361C17.4401 10.1149 17.6223 10.8 17.6223 10.8L18.0681 11.5284L18.7505 11.0813L18.7046 11.8959L19.519 11.8499L19.072 12.5324L19.8004 12.8999L19.072 13.2673L19.519 13.9498L18.7046 13.9038L18.7505 14.7184L18.0681 14.2713C18.0681 14.2713 17.6863 14.8082 17.6368 15C17.4169 15.8445 16.7574 16.5041 15.9129 16.7241V21C15.9133 21.4431 15.7495 21.8706 15.4532 22.2H19.0184C19.3356 22.1996 19.6395 22.0727 19.8629 21.8475C20.0862 21.6222 20.2105 21.3172 20.2083 21V16.56C21.1438 16.56 21.912 15.7944 21.912 14.8588V12C21.9123 10.601 21.1174 9.32352 19.8622 8.70581ZM4.13785 8.70581C4.83649 9.36624 5.74991 9.75248 6.71041 9.79361C6.55991 10.1149 6.37775 10.8 6.37775 10.8L5.9319 11.5284L5.24951 11.0813L5.29547 11.8959L4.48098 11.8499L4.92803 12.5324L4.19968 12.8999L4.92803 13.2673L4.48098 13.9498L5.29547 13.9038L5.24951 14.7184L5.9319 14.2713C5.9319 14.2713 6.31372 14.8082 6.36325 15C6.58314 15.8445 7.24259 16.5041 8.08708 16.7241V21C8.08676 21.4431 8.25053 21.8706 8.5468 22.2H4.98167C4.66446 22.1996 4.36051 22.0727 4.13716 21.8475C3.9138 21.6222 3.78949 21.3172 3.79175 21V16.56C2.85625 16.56 2.08801 15.7944 2.08801 14.8588V12C2.0877 10.601 2.88264 9.32352 4.13785 8.70581ZM17.1128 3C16.5589 2.99916 16.0157 3.15244 15.544 3.44271C15.5656 3.48862 15.5865 3.53487 15.6063 3.58176C16.1712 4.91743 15.9478 6.45629 15.0264 7.5762L15.1999 7.66174C15.8288 7.97201 16.3767 8.42469 16.8 8.9838C17.9029 9.09888 18.9793 8.59623 19.599 7.67673C20.2188 6.75723 20.2808 5.57086 19.7603 4.59176C19.2398 3.61266 18.2216 3.00053 17.1128 3ZM15.313 5.1C15.3128 6.92218 13.8354 8.39914 12.0132 8.39895C10.191 8.39875 8.714 6.92148 8.7141 5.0993C8.7142 3.27712 10.1914 1.8 12.0136 1.8C12.8887 1.80007 13.728 2.14779 14.3468 2.76666C14.9655 3.38553 15.3131 4.22486 15.313 5.1ZM14.9348 8.19994C13.2944 9.74669 10.7327 9.74669 9.09234 8.19994C7.7587 8.85627 6.91409 10.2136 6.91441 11.7V14.4C6.91441 15.394 7.72014 16.1999 8.71415 16.2V21C8.71415 21.6627 9.25129 22.2 9.91396 22.2H14.1132C14.7759 22.2 15.313 21.6627 15.313 21V16.2C16.3071 16.1999 17.1128 15.394 17.1128 14.4V11.7C17.1131 10.2136 16.2685 8.85625 14.9348 8.19994ZM7.22716 8.9838C7.65045 8.42469 8.19832 7.97202 8.82721 7.66174L9.00073 7.5762C8.081 6.45557 7.85775 4.91766 8.42087 3.58176C8.44069 3.53487 8.46167 3.48862 8.48315 3.44271C7.39978 2.77822 6.01527 2.86849 5.02735 3.66802C4.03943 4.46754 3.66251 5.80281 4.08653 7.00091C4.51055 8.199 5.6435 8.99991 6.91441 9C7.01887 9 7.12326 8.9946 7.22716 8.9838ZM14.4012 13.1999L13.5688 13.6199L14.0797 14.3999L13.1489 14.3472L13.2014 15.2782L12.4214 14.7672L12.0014 15.5997L11.5814 14.7672L10.8014 15.2782L10.8539 14.3472L9.92308 14.3997L10.434 13.6197L9.6016 13.1997L10.434 12.7797L9.92346 12L10.8543 12.0525L10.8018 11.1216L11.5818 11.6326L12.0016 10.8L12.4216 11.6325L13.2016 11.1215L13.1491 12.0525L14.0797 12L13.5688 12.78L14.4012 13.1999Z" fill="currentColor"/>
</svg>
