<svg width="24" height="24" viewBox="0 0 24 24" fill="currentColor" xmlns="http://www.w3.org/2000/svg">
<path fill-rule="evenodd" clip-rule="evenodd" d="M18.6 19.2H13.8C13.1373 19.2 12.6 18.6627 12.6 18V2.38799C12.6 2.05662 12.8686 1.78799 13.2 1.78799C13.5314 1.78799 13.8 2.05662 13.8 2.38799V2.99999H18.6C19.2627 2.99999 19.8 3.53725 19.8 4.19999V18C19.8 18.6627 19.2627 19.2 18.6 19.2ZM15.3 18H17.1C17.2657 18 17.4 17.8657 17.4 17.7C17.4 17.5343 17.2657 17.4 17.1 17.4H15.3C15.1343 17.4 15 17.5343 15 17.7C15 17.8657 15.1343 18 15.3 18ZM16.2 12.6C15.8686 12.6 15.6 12.8686 15.6 13.2C15.6 13.5314 15.8686 13.8 16.2 13.8C16.5314 13.8 16.8 13.5314 16.8 13.2C16.8 12.8686 16.5314 12.6 16.2 12.6ZM16.8 11.4C16.8 11.0686 16.5314 10.8 16.2 10.8C15.8686 10.8 15.6 11.0686 15.6 11.4C15.6 11.7314 15.8686 12 16.2 12C16.5314 12 16.8 11.7314 16.8 11.4ZM16.2 14.4C15.8686 14.4 15.6 14.6686 15.6 15C15.6 15.3314 15.8686 15.6 16.2 15.6C16.5314 15.6 16.8 15.3314 16.8 15C16.8 14.6686 16.5314 14.4 16.2 14.4ZM14.4 15.6C14.7314 15.6 15 15.3314 15 15C15 14.6686 14.7314 14.4 14.4 14.4C14.0686 14.4 13.8 14.6686 13.8 15C13.8 15.3314 14.0686 15.6 14.4 15.6ZM14.4 13.8C14.7314 13.8 15 13.5314 15 13.2C15 12.8686 14.7314 12.6 14.4 12.6C14.0686 12.6 13.8 12.8686 13.8 13.2C13.8 13.5314 14.0686 13.8 14.4 13.8ZM14.4 12C14.7314 12 15 11.7314 15 11.4C15 11.0686 14.7314 10.8 14.4 10.8C14.0686 10.8 13.8 11.0686 13.8 11.4C13.8 11.7314 14.0686 12 14.4 12ZM18.6 4.19999H13.8V9.59999H18.6V4.19999ZM18 10.8C17.6686 10.8 17.4 11.0686 17.4 11.4C17.4 11.7314 17.6686 12 18 12C18.3314 12 18.6 11.7314 18.6 11.4C18.6 11.0686 18.3314 10.8 18 10.8ZM18 12.6C17.6686 12.6 17.4 12.8686 17.4 13.2C17.4 13.5314 17.6686 13.8 18 13.8C18.3314 13.8 18.6 13.5314 18.6 13.2C18.6 12.8686 18.3314 12.6 18 12.6ZM18 14.4C17.6686 14.4 17.4 14.6686 17.4 15C17.4 15.3314 17.6686 15.6 18 15.6C18.3314 15.6 18.6 15.3314 18.6 15C18.6 14.6686 18.3314 14.4 18 14.4ZM12.6 8.39999V13.2L10.2 10.8L12.6 8.39999ZM5.4 19.8H15V20.988C15 21.6507 14.4633 22.2 13.8012 22.2H5.41082C4.74871 22.2 4.2 21.6507 4.2 20.988V4.18799C4.2 3.52526 4.74993 2.99999 5.412 2.99999H12V4.79999H5.4V19.8ZM9.6 21.6C9.93137 21.6 10.2 21.3314 10.2 21C10.2 20.6686 9.93137 20.4 9.6 20.4C9.26863 20.4 9 20.6686 9 21C9 21.3314 9.26863 21.6 9.6 21.6ZM8.7 4.19999H10.5C10.6657 4.19999 10.8 4.06568 10.8 3.89999C10.8 3.73431 10.6657 3.59999 10.5 3.59999H8.7C8.53431 3.59999 8.4 3.73431 8.4 3.89999C8.4 4.06568 8.53431 4.19999 8.7 4.19999Z" fill="currentColor"/>
</svg>
