<svg width="24" height="24" viewBox="0 0 24 24" fill="currentColor" xmlns="http://www.w3.org/2000/svg">
<path fill-rule="evenodd" clip-rule="evenodd" d="M20.4 16.2H19.8V9.00001C19.8 8.33727 19.2627 7.80001 18.6 7.80001H16.2V7.20001H17.4C17.731 7.19905 17.999 6.93098 18 6.60001V4.80001C17.999 4.46904 17.731 4.20097 17.4 4.20001H13.2C12.869 4.20097 12.601 4.46904 12.6 4.80001V6.60001C12.601 6.93098 12.869 7.19905 13.2 7.20001H14.4V7.80001H9.6V6.00001L9 6.42858L8.4 6.00001L7.8 6.42858L7.2 6.00001V7.80001H5.4C4.73726 7.80001 4.2 8.33727 4.2 9.00001V16.2H3.6C3.26903 16.201 3.00096 16.469 3 16.8V19.2C3.00096 19.531 3.26903 19.799 3.6 19.8H20.4C20.731 19.799 20.999 19.531 21 19.2V16.8C20.999 16.469 20.731 16.201 20.4 16.2ZM13.2 6.60001V4.80001H17.4V6.60001H13.2ZM4.8 9.00001C4.8 8.66864 5.06863 8.40001 5.4 8.40001H7.2V9.60001H6.6V10.2H10.2V9.60001H9.6V8.40001H18.6C18.9314 8.40001 19.2 8.66864 19.2 9.00001V16.2H4.8V9.00001ZM12 18.6C11.6686 18.6 11.4 18.3314 11.4 18C11.4 17.6686 11.6686 17.4 12 17.4C12.3314 17.4 12.6 17.6686 12.6 18C12.6 18.3314 12.3314 18.6 12 18.6ZM17.4 9.60001H13.2C12.869 9.60098 12.601 9.86904 12.6 10.2V11.4C12.601 11.731 12.869 11.9991 13.2 12H17.4C17.731 11.9991 17.999 11.731 18 11.4V10.2C17.999 9.86904 17.731 9.60098 17.4 9.60001ZM17.1 12.6C16.9343 12.6 16.8 12.7343 16.8 12.9C16.8 13.0657 16.9343 13.2 17.1 13.2C17.2657 13.2 17.4 13.0657 17.4 12.9C17.3995 12.7345 17.2655 12.6005 17.1 12.6ZM15.9 12.6C15.7343 12.6 15.6 12.7343 15.6 12.9C15.6 13.0657 15.7343 13.2 15.9 13.2C16.0657 13.2 16.2 13.0657 16.2 12.9C16.1995 12.7345 16.0655 12.6005 15.9 12.6ZM14.7 12.6C14.5343 12.6 14.4 12.7343 14.4 12.9C14.4 13.0657 14.5343 13.2 14.7 13.2C14.8657 13.2 15 13.0657 15 12.9C14.9995 12.7345 14.8655 12.6005 14.7 12.6ZM17.1 13.8C16.9343 13.8 16.8 13.9343 16.8 14.1C16.8 14.2657 16.9343 14.4 17.1 14.4C17.2657 14.4 17.4 14.2657 17.4 14.1C17.3995 13.9345 17.2655 13.8005 17.1 13.8ZM15.9 13.8C15.7343 13.8 15.6 13.9343 15.6 14.1C15.6 14.2657 15.7343 14.4 15.9 14.4C16.0657 14.4 16.2 14.2657 16.2 14.1C16.1995 13.9345 16.0655 13.8005 15.9 13.8ZM14.7 13.8C14.5343 13.8 14.4 13.9343 14.4 14.1C14.4 14.2657 14.5343 14.4 14.7 14.4C14.8657 14.4 15 14.2657 15 14.1C14.9995 13.9345 14.8655 13.8005 14.7 13.8ZM17.1 15C16.9343 15 16.8 15.1343 16.8 15.3C16.8 15.4657 16.9343 15.6 17.1 15.6C17.2657 15.6 17.4 15.4657 17.4 15.3C17.3995 15.1345 17.2655 15.0005 17.1 15ZM15.9 15C15.7343 15 15.6 15.1343 15.6 15.3C15.6 15.4657 15.7343 15.6 15.9 15.6C16.0657 15.6 16.2 15.4657 16.2 15.3C16.1995 15.1345 16.0655 15.0005 15.9 15ZM14.7 15C14.5343 15 14.4 15.1343 14.4 15.3C14.4 15.4657 14.5343 15.6 14.7 15.6C14.8657 15.6 15 15.4657 15 15.3C14.9995 15.1345 14.8655 15.0005 14.7 15ZM13.5 12.6C13.3343 12.6 13.2 12.7343 13.2 12.9C13.2 13.0657 13.3343 13.2 13.5 13.2C13.6657 13.2 13.8 13.0657 13.8 12.9C13.7995 12.7345 13.6655 12.6005 13.5 12.6ZM13.5 13.8C13.3343 13.8 13.2 13.9343 13.2 14.1C13.2 14.2657 13.3343 14.4 13.5 14.4C13.6657 14.4 13.8 14.2657 13.8 14.1C13.7995 13.9345 13.6655 13.8005 13.5 13.8ZM13.5 15C13.3343 15 13.2 15.1343 13.2 15.3C13.2 15.4657 13.3343 15.6 13.5 15.6C13.6657 15.6 13.8 15.4657 13.8 15.3C13.7995 15.1345 13.6655 15.0005 13.5 15ZM7.5035 15.6H6.77736C6.77736 15.5945 6.77779 15.589 6.77779 15.5834C6.77646 15.1549 6.42851 14.8084 6 14.8087V14.0856C6.82883 14.084 7.50205 14.7546 7.5037 15.5834C7.50372 15.589 7.50358 15.5945 7.5035 15.6ZM8.85166 15.6H8.12573C8.12573 15.5945 8.12594 15.589 8.12594 15.5834C8.12361 14.4116 7.1718 13.4636 6 13.4659V12.7428C7.57502 12.7428 8.85183 14.0146 8.85183 15.5834C8.85183 15.589 8.85168 15.5945 8.85166 15.6ZM10.2 15.6H9.474C9.474 15.5945 9.47419 15.589 9.47419 15.5834C9.47531 14.6647 9.10889 13.7836 8.45659 13.1366C7.8048 12.486 6.92096 12.1213 6 12.1231V11.4C8.31958 11.4 10.2 13.273 10.2 15.5834C10.2 15.589 10.2 15.5945 10.2 15.6Z" fill="currentColor"/>
</svg>
