<svg width="24" height="24" viewBox="0 0 24 24" fill="currentColor" xmlns="http://www.w3.org/2000/svg">
<path fill-rule="evenodd" clip-rule="evenodd" d="M21.2519 9.05274C20.9539 9.15787 20.7885 9.47606 20.8736 9.7804C21.0929 10.5688 21.2037 11.3833 21.2031 12.2016C21.2031 17.9914 15.7369 22.5045 9.68373 20.8617C7.03482 20.1428 4.26049 17.3684 3.54167 14.7195C1.89882 8.66637 6.41188 3.2002 12.2016 3.2002C13.024 3.19952 13.8425 3.31146 14.6345 3.53289C14.9409 3.61904 15.2613 3.45109 15.3647 3.15009C15.4182 2.99359 15.4049 2.82195 15.3278 2.67561C15.2508 2.52927 15.1168 2.42117 14.9574 2.37681C14.0603 2.12607 13.1331 1.99929 12.2016 2C5.67976 2 0.58727 8.12001 2.35381 14.9304C3.15796 18.0306 6.37269 21.2453 9.47286 22.0495C16.2833 23.816 22.4033 18.7235 22.4033 12.2016C22.404 11.2746 22.2785 10.3518 22.0301 9.45865C21.9856 9.29837 21.8766 9.16371 21.7291 9.08677C21.5817 9.00984 21.4089 8.99753 21.2519 9.05274ZM18.9713 4.83201C19.3026 4.83201 19.5713 5.10064 19.5713 5.43201C19.5713 5.76338 19.3026 6.03201 18.9713 6.03201C18.6399 6.03201 18.3713 5.76338 18.3713 5.43201C18.3713 5.10064 18.6399 4.83201 18.9713 4.83201ZM17.0993 3.36801C17.4306 3.36801 17.6993 3.63664 17.6993 3.96801C17.6993 4.29938 17.4306 4.56801 17.0993 4.56801C16.7679 4.56801 16.4993 4.29938 16.4993 3.96801C16.4993 3.63664 16.7679 3.36801 17.0993 3.36801ZM20.4593 6.72801C20.7906 6.72801 21.0593 6.99663 21.0593 7.32801C21.0593 7.65938 20.7906 7.92801 20.4593 7.92801C20.1279 7.92801 19.8593 7.65938 19.8593 7.32801C19.8593 6.99663 20.1279 6.72801 20.4593 6.72801ZM11.415 13.034C10.3009 11.9217 9.23613 10.6334 9.74613 10.1242C11.026 8.84617 11.1117 8.94556 9.81849 7.33835C8.5245 5.73121 8.57639 6.02003 6.95493 7.67173C6.10204 8.58885 6.91206 11.525 9.91871 14.528C12.9259 17.5306 15.9441 18.3032 16.7846 17.4876C18.5123 15.7743 18.6481 15.8698 17.1182 14.6287C15.5094 13.3365 15.6031 13.4283 14.329 14.7007C13.8188 15.2096 12.5292 14.1466 11.415 13.034Z" fill="currentColor"/>
</svg>
