<svg width="24" height="24" viewBox="0 0 24 24" fill="currentColor" xmlns="http://www.w3.org/2000/svg">
<path fill-rule="evenodd" clip-rule="evenodd" d="M7.03227 14.9869C6.83547 15.0555 5.56827 16.0686 5.21179 16.4391C5.00779 16.7295 5.15804 16.9107 5.40891 16.7019C5.96604 16.2003 7.0183 15.2483 7.48791 15.143C8.47042 14.8359 9.26554 14.7113 9.9462 15.5054C10.1219 15.6746 10.2812 15.9827 10.4327 16.5338C10.5093 16.8188 10.7144 17.7885 10.7647 18.023C10.8203 18.2587 10.9157 18.8864 11.0435 19.1697C11.1637 19.4538 11.2991 19.7946 11.5393 19.9807C11.7856 20.1728 12.8096 20.33 12.9687 20.0085C13.0961 19.7324 13.2489 19.6653 13.3843 19.6939C13.518 19.7231 13.5849 19.8874 13.5849 19.8874C13.5474 19.9196 13.259 20.1808 13.312 20.2365C13.3702 20.2929 13.5944 20.0463 13.7746 20.0871C13.8893 20.1165 13.9577 20.3069 13.7539 20.3298C13.5507 20.3719 13.5684 20.3138 13.4027 20.3499C13.2387 20.3847 13.3756 20.522 13.5991 20.5811C13.7597 20.6286 13.6863 20.7703 13.5913 20.7988C13.5273 20.8122 13.2398 20.7543 13.1905 20.8444C13.1475 20.9284 13.4357 20.9735 13.4811 20.9912C13.5895 21.0402 13.503 21.1496 13.3947 21.1711C13.287 21.1806 13.2725 21.0974 13.0239 21.148C12.9284 21.162 12.8735 21.2462 13.0154 21.319C13.157 21.3924 13.192 21.5515 13.0974 21.5783C13.0076 21.5869 12.8679 21.5833 12.7666 21.5923C12.3657 21.6897 11.0898 21.6776 10.6618 21.3941C10.52 21.2948 10.444 21.0228 10.3141 20.6371C10.179 20.2577 9.93365 19.8102 9.50266 19.3293C9.07112 18.8543 8.6029 18.7303 8.37077 18.0093C8.32359 17.8638 8.41294 16.9386 8.41294 16.9386C8.37238 16.8312 8.2813 16.7822 8.13838 16.9567C7.95264 17.5468 7.57877 18.5664 7.04328 18.8907C4.23872 20.5409 4.25019 14.3961 4.91799 13.0895C4.96119 12.9923 5.02887 12.8833 5.25972 12.9099C5.49012 12.9245 5.79132 12.9819 5.95673 12.9908C6.19277 13.0051 6.59532 13.0232 6.74775 12.9872C6.90603 12.9591 7.39001 12.9481 7.52719 13.0154C7.70083 13.0951 7.96143 13.0379 8.13819 12.9265C8.24398 12.8611 8.18278 12.6324 8.18278 12.6324C8.37394 12.6543 8.76716 12.5122 8.67663 12.1766C8.77626 12.142 8.83816 12.0425 8.82514 11.9379C8.81993 11.7218 8.69456 11.7692 8.75883 11.4942C8.86083 11.2111 8.8206 11.1233 8.66599 11.0244C8.50999 10.9196 8.45093 10.8571 8.15595 10.7417C7.85304 10.6335 7.41339 10.6302 7.02113 10.766C6.90581 10.8129 6.7165 10.8801 6.57768 11.0047C6.45392 11.1088 6.10968 11.1283 6.0636 11.0853C5.86704 10.8477 6.32076 10.6023 6.3822 10.4418C6.68057 9.77941 5.81069 10.5807 5.44256 10.6967C4.53267 10.2001 4.85513 10.0535 4.40035 9.986C4.25333 9.9699 4.13508 10.0801 4.13508 10.0801C4.13508 10.0801 4.08468 10.1328 4.13715 10.1764C4.27887 10.282 4.65953 10.465 4.70453 10.5082C4.75767 10.5706 5.07653 10.883 5.18693 10.9889C5.29123 11.1012 5.52509 11.3125 5.78151 11.3517C6.05052 11.3848 6.29439 11.4048 6.46445 11.3568C6.63634 11.3086 6.9426 11.0353 7.13451 11.0115C7.3183 10.9763 7.38891 10.9875 7.54743 10.9578C7.70028 10.9359 7.9358 10.9439 8.06398 10.9923C8.24508 11.0648 8.37384 11.1072 8.49682 11.1997C8.54203 11.2429 8.57513 11.2745 8.58867 11.3186L8.58965 11.3631C8.58291 11.3942 8.57282 11.4244 8.55956 11.4533C8.46665 11.6202 8.27083 11.3766 8.15539 11.3216C8.07091 11.2784 7.80187 11.2204 7.80317 11.2971C7.79191 11.3604 7.71079 11.4261 7.96035 11.4661C8.26164 11.5546 8.33304 11.6173 8.44349 11.6919C8.55307 11.7591 8.58574 11.8023 8.59409 11.8853L8.59527 11.9237L8.57047 11.9875C8.47812 12.1109 8.3869 12.0113 8.26964 11.9307C8.16536 11.8563 7.83108 11.7099 7.72992 11.7372C7.62192 11.7467 7.55712 11.7417 7.55952 11.8243C7.56094 11.9008 7.72095 11.9291 7.90625 11.976C8.07425 12.0177 8.09976 12.0363 8.22874 12.1026C8.28586 12.1271 8.54463 12.2556 8.40634 12.3733C8.26267 12.4906 8.25339 12.3765 7.96563 12.3057C7.84383 12.2769 7.59867 12.2309 7.50327 12.2136C7.40727 12.1901 7.31688 12.1542 7.20955 12.1947C7.11511 12.2411 7.12896 12.2917 7.19364 12.3538C7.24589 12.4101 7.33407 12.3642 7.44343 12.3867C7.55931 12.4171 7.71269 12.4449 7.79686 12.5071C7.88059 12.5692 8.05366 12.6031 7.97275 12.6945C7.89802 12.7713 7.87915 12.7725 7.69224 12.7197C7.51896 12.6717 7.32044 12.6441 7.26363 12.6459C7.03959 12.6245 6.63555 12.8049 6.32031 12.6334C6.06351 12.5751 5.49711 12.6827 5.30439 12.6545C5.11939 12.6135 4.49628 12.4108 4.38507 12.2978C4.26783 12.1737 3.648 11.8295 3.45787 11.2601C3.24747 10.6982 3.236 10.4306 3.40347 10.2108C3.56475 9.9848 3.90488 9.76141 4.35339 9.55446C4.79467 9.32872 4.93443 9.2619 5.13819 9.22616C5.32848 9.20274 5.45158 8.97063 5.52523 8.86084C5.60647 8.75115 5.72019 8.40503 6.00504 8.31587C6.20904 8.26146 6.36788 8.24548 6.51965 8.19752C6.77441 8.12843 6.65098 8.37935 6.65098 8.37935C6.5971 8.83849 6.75492 9.40268 7.08521 9.61201C7.16981 9.66167 7.389 9.72632 7.58489 10.0219C7.78243 10.3105 7.88009 10.4042 7.9776 10.4597C8.1456 10.5577 8.544 10.7154 8.71702 10.7244C8.86328 10.7273 9.09725 10.6139 9.51192 10.6311C9.94008 10.6409 9.88426 10.7569 10.1157 10.7967C10.3013 10.8506 10.6516 10.8111 10.888 10.812C11.1108 10.8205 11.2853 10.9061 11.3656 11.0634C11.4445 11.2218 11.3776 11.7 11.3365 11.8216C11.2879 11.9505 11.1925 11.9332 11.0659 12.0123C10.9404 12.0855 11.0461 12.2868 11.0493 12.3947C11.0641 13.1393 11.2641 13.8355 10.883 14.5691C10.7916 14.7498 10.3761 15.0385 10.1395 15.0431C9.98755 15.0463 9.99956 15.0137 9.64375 14.7671C9.05448 14.3656 7.82683 14.557 7.03227 14.9869ZM13.8981 19.6008C14.3978 19.6857 14.0129 20.5284 13.86 20.7916C13.6865 21.0824 13.5703 21.3014 13.5722 21.4031C13.5778 21.6641 14.7696 21.5948 15.0235 21.5454C15.653 21.4238 16.0288 21.0966 16.5664 20.5638C17.1244 20.1134 17.558 19.5047 17.8891 18.8228C18.2059 18.1541 18.3845 17.5206 18.5896 16.9366C19.1677 15.2943 19.0667 14.1376 19.1749 12.5694C19.2262 11.7017 18.9438 10.9883 17.9609 11.009C17.4706 11.0193 17.0866 11.276 16.847 11.4524C15.9524 11.9232 15.3137 12.2168 14.2587 12.1368C14.1253 12.1267 14.0069 12.2818 14.0162 12.4284C14.0326 12.5871 14.2563 12.9263 14.4253 13.0816C14.679 13.3251 15.1656 13.7039 15.804 13.703C15.804 13.703 16.055 13.507 16.1597 13.0659C16.2419 12.7319 16.3105 12.3363 16.553 12.3117C16.8008 12.2755 16.6582 12.7806 16.3871 13.5318C16.1032 14.2763 15.5115 14.0528 15.1315 13.9209C14.7311 13.6743 14.6073 13.5624 14.5555 13.519C14.4515 13.4251 13.977 13.0088 13.9251 12.9654C13.8667 12.922 13.7693 12.8475 13.7693 12.8475C13.7317 11.9571 13.3907 12.0913 13.2756 11.8137C13.2394 11.6169 13.1652 11.4022 13.0417 11.3025C12.9311 11.2352 12.7509 11.1175 12.6472 11.0432C12.562 10.9823 12.4036 10.9976 12.4363 11.0608C12.4709 11.1368 12.7303 11.3728 12.694 11.4628C12.6386 11.5468 12.6094 11.6683 12.5239 11.5933C12.4341 11.5193 12.2818 11.2994 12.1935 11.3326C12.1126 11.38 12.0239 11.464 12.0709 11.552C12.1165 11.6466 12.2483 11.8229 12.199 11.8872C12.1429 11.9457 11.9969 11.9678 11.9501 11.8926C11.9034 11.8098 11.8056 11.7046 11.7247 11.7693C11.6307 11.8673 11.5379 12.0087 11.6746 12.1461C11.7645 12.1948 11.8826 12.3264 11.8132 12.3909C11.7314 12.4317 11.5625 12.2379 11.517 12.2259C11.4775 12.2098 11.4327 12.2145 11.3974 12.2383C11.3621 12.2621 11.341 12.302 11.3412 12.3445C11.3202 12.5552 11.5663 12.7533 11.7037 12.884C11.9235 13.0513 11.7625 13.2906 12.4118 13.5821C12.5102 13.6438 13.0077 14.2572 13.127 14.4151C13.3434 14.7219 13.5654 14.9911 14.183 15.2457C14.9048 15.5871 14.6538 15.7395 15.6494 16.0941C16.1445 16.2551 16.2072 16.2601 16.4729 16.1215C16.7382 15.9824 17.3855 15.2112 17.5999 14.7673C17.6735 14.6191 18.1517 13.4247 18.2863 13.1099C18.4531 12.8581 18.5691 12.9134 18.604 13.0457C18.6548 13.0451 18.6232 13.3893 18.3703 14.089C18.0768 14.9737 17.5632 15.4556 17.1533 16.0055C16.7813 16.5164 16.4661 16.7197 15.5475 16.4015C15.5475 16.4015 15.3 16.4449 15.3913 16.577C15.5438 16.8223 15.8833 17.2095 15.9811 17.3284C16.3872 17.8106 16.9345 19.2829 16.5572 19.2455C16.2578 19.2145 16.2026 18.4447 15.9663 18.1059C15.9663 18.1059 15.0975 16.8754 14.7753 16.411C14.5386 16.0344 14.0249 15.6065 13.4152 15.415C13.0102 15.2835 12.4271 15.7859 12.071 16.1556C11.7094 16.5328 11.5696 16.8666 11.5325 17.5493C11.5061 17.7905 11.1803 18.7079 11.6497 19.5008C12.2324 20.4763 13.558 18.8817 12.9516 17.6467C12.9085 17.1566 13.2508 17.6277 13.317 17.7344C13.462 17.9665 13.5834 18.283 13.568 18.4736C13.3688 19.2802 13.0142 19.4599 13.8981 19.6008ZM8.48081 18.9366C8.39705 18.9384 8.05901 18.9522 8.09535 18.5694C8.09535 18.5694 8.0154 18.3798 7.81455 18.5755C7.56571 18.8283 7.12124 19.2517 7.07338 19.38C6.99972 19.5532 6.93375 19.7138 7.05015 19.8384C7.09558 19.8822 7.78164 20.3073 8.05524 20.2892C8.30405 20.2844 8.09506 19.4353 8.07992 19.3398C8.05536 18.8056 8.43223 19.3832 8.43223 19.3832C8.53589 19.483 8.85955 19.426 8.83543 19.1397C8.81811 18.9678 8.69707 18.9256 8.48081 18.9366ZM8.41903 19.6836C8.40257 19.8304 8.42369 19.8991 8.53241 19.9101C8.63475 19.9144 8.78091 19.8667 8.79744 19.7963C8.81508 19.7201 8.78784 19.5923 8.65344 19.5948C8.51981 19.6173 8.53294 19.6298 8.41903 19.6836ZM8.44075 20.1027C8.41675 20.18 8.44973 20.2113 8.50663 20.2105C8.50663 20.2105 8.66597 20.1941 8.60744 20.1187C8.57434 20.0682 8.50448 20.1023 8.44075 20.1027ZM8.41227 20.2821C8.49696 20.3569 8.33871 20.4365 8.46679 20.4337C8.60028 20.4241 8.67449 20.3209 8.57866 20.2912C8.5278 20.2925 8.50831 20.2864 8.41227 20.2821ZM18.9275 8.07877C19.3026 7.409 19.8537 5.69732 19.3043 5.03389C18.5576 4.15134 17.0634 3.47584 15.7319 4.1726C14.8924 4.60391 14.4805 5.04536 13.9385 5.68004C13.2105 6.5434 12.4963 7.16243 12.6226 8.64966C12.6486 9.00582 12.745 9.01703 12.6826 9.38725C12.6716 9.47684 12.4537 9.72299 12.4444 9.90784C12.4288 10.0865 12.4699 10.4739 12.6069 10.6299C12.7499 10.7737 12.8272 10.8165 12.9695 10.909C13.1056 11.0013 13.1277 11.1418 13.2105 11.1525C13.3323 11.1693 13.4841 11.1027 13.5881 11.1571C13.6714 11.2065 13.7542 11.2369 13.92 11.2141C14.2577 11.1631 14.3445 10.7535 14.457 10.9549C14.4838 11.0048 14.4611 11.1391 14.3854 11.191C14.2861 11.2767 13.9635 11.4494 13.8172 11.4265C13.6751 11.4103 13.5982 11.367 13.5154 11.3689C13.4388 11.3705 13.3762 11.4293 13.4221 11.5239C13.4758 11.6052 13.5444 11.808 13.7356 11.8485C14.0877 11.8983 14.5701 11.7675 14.8343 11.8578C15.0905 11.9482 15.8268 11.7604 16.2167 11.4652C16.6062 11.1769 17.5635 10.3105 17.5635 10.3105C17.5635 10.3105 17.5631 10.2473 17.7862 10.2676C18.0097 10.2691 18.382 10.0642 18.4943 9.92202C18.8931 9.44226 19.0019 8.6246 18.7672 8.66852C18.6216 8.6967 18.2304 8.92179 18.1242 9.01892C18.03 9.10376 17.8805 9.27306 17.8805 9.27306C17.8805 9.27306 17.8147 9.16585 17.9305 8.92727C18.1263 8.52229 18.756 8.4129 18.9275 8.07877ZM13.0351 10.3537C13.0829 10.4997 13.2473 10.4322 13.4023 10.5373C13.4741 10.5995 13.3413 10.653 13.1688 10.6505C13.0156 10.647 12.8486 10.5935 12.7686 10.4547C12.766 10.3471 12.8945 10.0572 12.9501 9.94787C13.0282 9.76823 13.272 9.5019 13.0169 9.48817C12.8945 9.4778 12.7212 9.3351 12.8131 9.2253C12.8889 9.12846 12.9033 9.25465 13.0819 9.27128C13.1724 9.26903 13.1778 9.28134 13.3422 9.15059C13.3422 9.15059 13.4231 9.12935 13.4255 9.1996C13.429 9.37201 13.3478 9.76141 13.2799 9.86519C13.2058 9.98761 12.973 10.158 13.0351 10.3537ZM14.7543 10.1718C14.4858 10.1396 14.4207 10.1278 14.2666 10.0797C14.1066 10.034 13.9871 9.90046 13.9594 9.73638C13.9497 9.57683 14.2123 9.32279 14.2123 9.32279C14.2251 9.32322 14.665 9.25705 14.5141 9.41305C14.4517 9.4774 14.3203 9.5698 14.3013 9.60121C14.2712 9.66644 14.343 9.76662 14.4603 9.85232C14.5516 9.9278 14.7043 9.96882 14.9733 9.98231L15.0704 10.0572C15.0704 10.0572 14.9776 10.1992 14.7543 10.1718ZM13.4243 4.0042C13.1651 3.74185 11.6692 3.02857 10.8559 3.1917C10.1325 3.36333 9.4928 3.78461 9.04939 4.3814C8.56073 5.09824 8.3898 6.07679 7.719 6.65728C7.68751 6.67672 7.35108 7.07867 7.14672 7.66249C6.99106 8.12389 6.92235 8.51989 7.0608 9.00709C7.12853 9.21664 7.3159 9.37165 7.45253 9.46386C7.5883 9.56946 7.76863 9.64177 7.82213 9.76854C7.89504 9.89399 7.91813 10.1034 8.06751 10.1962C8.16452 10.2521 8.40989 10.425 8.685 10.4325C8.81264 10.4421 8.92145 10.4524 9.2076 10.4018C9.43661 10.365 9.65914 10.3477 9.8076 10.4026C10.027 10.4996 10.1623 10.5984 10.5636 10.5648C10.945 10.5184 11.1609 10.4439 11.3892 10.1016C11.7617 9.56528 11.8437 8.61517 12.1602 7.5387C12.3312 6.89807 12.6827 6.33721 13.0672 5.80727C13.377 5.37424 13.6572 5.02391 13.7403 4.75487C13.824 4.46658 13.6785 4.26642 13.4243 4.0042ZM8.26639 7.83028C8.40811 7.87127 8.73017 8.03051 8.83659 7.92628C8.87169 7.87857 8.87032 7.81323 8.83325 7.76704C8.72733 7.6686 8.62914 7.56216 8.53954 7.44868C8.52643 7.43615 8.21143 7.01598 8.53414 7.19411C8.63151 7.24259 8.85228 7.46737 8.94425 7.57331C9.04172 7.67329 9.14513 7.72264 9.29595 7.89755C9.1195 8.60759 8.95171 8.25529 8.74236 8.90219C8.60316 9.27496 8.54148 9.38379 8.4529 9.12512C8.5225 8.78624 8.4697 8.98465 8.63151 8.51041L8.65347 8.3121C8.65174 8.23556 8.2664 8.09077 8.07747 7.942C7.82501 7.73115 7.81539 7.59771 8.26639 7.83028ZM9.16265 10.0845C9.05612 10.1881 8.50745 10.1743 8.39048 10.1069C8.28867 10.0648 8.11159 9.85847 7.97031 9.52998C7.93642 9.45407 7.96685 9.37062 8.08162 9.35562C8.26097 9.69546 8.27516 9.77802 8.49454 9.86896C8.70689 9.96611 8.78239 9.92656 9.11451 9.91979C9.19167 9.95068 9.25592 9.99364 9.16265 10.0845ZM10.3171 8.54516C10.2398 8.54008 10.1913 8.60516 10.1781 8.63716C10.1605 8.6692 10.3435 8.90735 10.4736 8.96231C10.9819 9.19959 10.868 9.2661 10.5487 9.19561C10.2781 9.12488 9.93094 8.97947 9.91786 8.98033L9.76099 9.0976L9.61267 9.27872C9.51238 9.38324 9.40563 9.48107 9.29938 9.57896C9.10846 9.65886 8.98198 9.68111 8.88548 9.65735L8.80651 9.54455L8.86891 9.4665C9.04632 9.43129 9.17528 9.45332 9.3686 9.23298C9.61731 8.94191 9.69886 8.56374 9.9798 8.2785C10.2489 8.30454 10.1604 8.32525 10.4401 8.35194C11.2965 8.42888 11.3149 8.69576 10.3171 8.54516Z" fill="currentColor"/>
</svg>
