<svg width="24" height="24" viewBox="0 0 24 24" fill="currentColor" xmlns="http://www.w3.org/2000/svg">
<path fill-rule="evenodd" clip-rule="evenodd" d="M22.8 16.2C22.7996 16.5947 22.6436 16.9733 22.3658 17.2537L16.8 22.7999V19.7999H10.8C9.8059 19.7999 9.00001 18.9941 9.00001 18V14.4C9.00001 13.4058 9.8059 12.6 10.8 12.6H16.8V9.59995L22.3658 15.1461C22.6436 15.4265 22.7996 15.8052 22.8 16.2ZM13.2 11.4H7.20001V14.4L1.63422 8.85379C1.0552 8.27057 1.0552 7.32943 1.63422 6.74621L7.20001 1.19995V4.19995H13.2C14.1941 4.19995 15 5.00584 15 5.99995V9.59995C15 10.5941 14.1941 11.4 13.2 11.4Z" fill="currentColor"/>
</svg>
