<svg width="24" height="24" viewBox="0 0 24 24" fill="currentColor" xmlns="http://www.w3.org/2000/svg">
<path fill-rule="evenodd" clip-rule="evenodd" d="M22.4 15.8C22.4 17.7882 20.7882 19.4 18.8 19.4H6.67856C6.20519 19.4005 5.73537 19.3184 5.29021 19.1574C3.32601 18.506 2 16.6694 2 14.6C2 12.1562 3.8264 10.1389 6.18865 9.83857C6.26388 9.06988 6.66451 8.37013 7.28934 7.9161C7.91417 7.46207 8.70344 7.29717 9.45778 7.46305C10.7093 5.90429 12.601 4.99821 14.6 5C18.2451 5 21.2 7.95493 21.2 11.6C21.2001 12.0679 21.1507 12.5345 21.0525 12.992C21.9051 13.6746 22.4009 14.7079 22.4 15.8ZM18.0374 14.8906C17.6836 14.6064 17.5203 14.1469 17.6156 13.7031C17.6811 13.3972 17.7142 13.0852 17.7142 12.7723C17.7143 10.9024 16.5345 9.23587 14.7707 8.61464C13.007 7.99341 11.0432 8.55268 9.8714 10.0099C9.58586 10.3646 9.12415 10.527 8.67946 10.4292C8.60164 10.4122 8.5222 10.4036 8.44254 10.4036C7.87983 10.4037 7.40889 10.8304 7.35358 11.3904C7.29996 11.9487 6.86678 12.3954 6.3104 12.4661C4.80458 12.6603 3.70843 13.9905 3.80571 15.5057C3.903 17.0209 5.16028 18.2 6.67856 18.2H16.875C17.6641 18.2 18.3673 17.7018 18.6288 16.9572C18.8904 16.2126 18.6532 15.3841 18.0374 14.8906ZM10.3941 17H6.54118C5.72816 17 5.05495 16.3685 5.00307 15.5571C4.95119 14.7457 5.53848 14.0336 6.34489 13.93C6.36903 13.6832 6.49765 13.4585 6.69827 13.3127C6.89888 13.1669 7.15231 13.114 7.39453 13.1672C8.01054 12.4025 9.07113 12.161 9.95747 12.5837C10.8438 13.0064 11.3238 13.9825 11.1173 14.9425C11.5 15.2495 11.6473 15.7646 11.4846 16.2274C11.3219 16.6903 10.8847 17 10.3941 17Z" fill="currentColor"/>
</svg>
