<svg width="24" height="24" viewBox="0 0 24 24" fill="currentColor" xmlns="http://www.w3.org/2000/svg">
<path fill-rule="evenodd" clip-rule="evenodd" d="M19.7967 1.79999H11.9952C6.36191 1.79999 1.79944 6.36541 1.79944 11.9987C1.79944 17.632 6.36501 22.2 11.9983 22.2C17.6316 22.2 22.199 17.6333 22.199 12L22.1982 4.19999C22.1975 2.8742 21.1224 1.79999 19.7967 1.79999ZM15.1733 18.8882C14.3399 19.7247 11.2347 18.9322 8.16503 15.8526C5.09603 12.7725 4.29407 9.77624 5.13976 8.8204C6.81604 7.1482 6.74188 6.83008 8.06272 8.47847C9.38284 10.1269 9.29521 10.0249 7.98885 11.3358C7.46826 11.858 8.55525 13.1793 9.69229 14.3202C10.8293 15.461 12.146 16.5517 12.6667 16.0298C13.9671 14.7248 13.8715 14.6306 15.5137 15.956C17.1566 17.2807 16.9417 17.1136 15.1733 18.8882ZM18.749 4.20052C19.0446 4.20052 19.2931 4.25452 19.5006 4.4614C19.7081 4.66828 19.7763 4.95157 19.7763 5.21905V9.89759L18.3381 8.46383L16.2765 10.519C15.9208 10.8737 15.3774 10.9027 15.0213 10.5476L13.402 8.9332C13.0848 8.57484 13.1031 8.03102 13.4436 7.6948L15.5051 5.6396L14.0613 4.19999L18.749 4.20052Z" fill="currentColor"/>
</svg>
