<svg width="24" height="24" viewBox="0 0 24 24" fill="currentColor" xmlns="http://www.w3.org/2000/svg">
<path fill-rule="evenodd" clip-rule="evenodd" d="M21.3001 10.2001H16.8001V17.4001C16.8001 20.051 14.651 22.2001 12.0001 22.2001C9.34911 22.2001 7.20007 20.051 7.20007 17.4001V10.2001H2.70007L10.5001 2.42996C10.895 2.02669 11.4356 1.80005 12.0001 1.80005C12.5645 1.80005 13.1052 2.02732 13.5001 2.43058L21.3001 10.2001ZM15.6 17.4003C15.6 19.3885 13.9882 21.0003 12 21.0003C10.0117 21.0003 8.39995 19.3885 8.39995 17.4003C8.39995 15.412 10.0117 13.8003 12 13.8003C13.9882 13.8003 15.6 15.412 15.6 17.4003ZM13.5537 18.474C13.5076 18.4589 13.4595 18.4509 13.411 18.4503C13.2409 18.4503 13.1057 18.547 13.0304 18.7226L13.0297 18.7242L13.0292 18.7256C12.8718 19.1201 12.6418 19.2771 12.1176 19.2771C11.5107 19.2771 11.0928 19.0327 10.9285 18.351H12.4395C12.6466 18.351 12.7803 18.1834 12.7803 17.9792C12.7803 17.7656 12.6562 17.6074 12.4395 17.6074H10.8436C10.8427 17.5454 10.8427 17.4374 10.8427 17.3993C10.8427 17.3365 10.8449 17.2975 10.848 17.2355H12.7676C12.9779 17.2355 13.1084 17.0686 13.1084 16.8573C13.1084 16.6509 12.9809 16.4919 12.7676 16.4919H10.9529C11.1355 15.8103 11.5447 15.4791 12.1175 15.4791C12.6128 15.4791 12.8532 15.6397 13.0361 16.082C13.1022 16.2423 13.2343 16.3364 13.3983 16.3364C13.4576 16.3346 13.5163 16.3244 13.5728 16.3063L13.5794 16.3048L13.5856 16.3024C13.7554 16.2315 13.8527 16.0973 13.8527 15.934C13.8537 15.8671 13.8392 15.8009 13.8103 15.7405C13.5234 15.0323 12.9697 14.6879 12.1175 14.6879C11.5972 14.6879 11.1383 14.8569 10.7908 15.1919C10.4668 15.5039 10.2394 15.9963 10.1295 16.4921H9.82109C9.6109 16.4921 9.48029 16.6566 9.48029 16.8639C9.48029 17.0713 9.61087 17.2358 9.82109 17.2358H10.0536C10.0505 17.2977 10.0484 17.3409 10.0484 17.3995C10.0484 17.4394 10.0484 17.5456 10.0492 17.6076H9.82121C9.60782 17.6076 9.48041 17.7688 9.48041 17.9794C9.48041 18.1867 9.61099 18.3512 9.82121 18.3512H10.1082C10.2046 18.847 10.4175 19.2434 10.7415 19.5607C11.091 19.9029 11.5539 20.0645 12.1176 20.0645C12.9997 20.0645 13.5295 19.7369 13.835 19.0158C13.8599 18.965 13.8725 18.909 13.8717 18.8524C13.8716 18.6846 13.7382 18.5244 13.5537 18.474Z" fill="currentColor"/>
</svg>
