<svg width="24" height="24" viewBox="0 0 24 24" fill="currentColor" xmlns="http://www.w3.org/2000/svg">
<path fill-rule="evenodd" clip-rule="evenodd" d="M19.8 3H2.39999V15.6C2.39999 16.5941 3.20588 17.4 4.19999 17.4H6.59999V21L10.2 17.4H21.6V4.8C21.6 3.80589 20.7941 3 19.8 3ZM18.3 11.088H18V11.1C18 11.2657 17.8657 11.4 17.7 11.4C17.5343 11.4 17.4 11.2657 17.4 11.1V11.088H16.8V12.3C16.8 12.4657 16.6657 12.6 16.5 12.6C16.3343 12.6 16.2 12.4657 16.2 12.3V11.7C16.2 11.8657 16.0657 12 15.9 12C15.7343 12 15.6 11.8657 15.6 11.7V11.088H15V11.1C15 11.2657 14.8657 11.4 14.7 11.4C14.5343 11.4 14.4 11.2657 14.4 11.1V12.3C14.4 12.4657 14.2657 12.6 14.1 12.6C13.9343 12.6 13.8 12.4657 13.8 12.3V11.088V14.1C13.8 14.2657 13.6657 14.4 13.5 14.4C13.3343 14.4 13.2 14.2657 13.2 14.1V12.9C13.2 13.0657 13.0657 13.2 12.9 13.2C12.7343 13.2 12.6 13.0657 12.6 12.9V14.7C12.6 14.8657 12.4657 15 12.3 15C12.1343 15 12 14.8657 12 14.7V11.088H11.4V12.3C11.4 12.4657 11.2657 12.6 11.1 12.6C10.9343 12.6 10.8 12.4657 10.8 12.3V11.7C10.8 11.8657 10.6657 12 10.5 12C10.3343 12 10.2 11.8657 10.2 11.7V14.1C10.2 14.2657 10.0657 14.4 9.89999 14.4C9.73431 14.4 9.59999 14.2657 9.59999 14.1V11.7C9.59999 11.8657 9.46568 12 9.29999 12C9.13431 12 8.99999 11.8657 8.99999 11.7V11.088H8.39999V12.3C8.39999 12.4657 8.26568 12.6 8.09999 12.6C7.93431 12.6 7.79999 12.4657 7.79999 12.3V11.1C7.79999 11.2657 7.66568 11.4 7.49999 11.4C7.33431 11.4 7.19999 11.2657 7.19999 11.1V11.7C7.19999 11.8657 7.06568 12 6.89999 12C6.73431 12 6.59999 11.8657 6.59999 11.7V11.1C6.59999 11.2657 6.46568 11.4 6.29999 11.4C6.13431 11.4 5.99999 11.2657 5.99999 11.1V11.088H5.69999C5.53431 11.088 5.39999 10.9537 5.39999 10.788C5.39999 10.6223 5.53431 10.488 5.69999 10.488H6.00059C6.00671 10.3271 6.13895 10.1998 6.29999 10.1998C6.46104 10.1998 6.59328 10.3271 6.59939 10.488L6.59999 9.9C6.59999 9.73431 6.73431 9.6 6.89999 9.6C7.06568 9.6 7.19999 9.73431 7.19999 9.9V10.488C7.20611 10.3271 7.33895 10.1998 7.49999 10.1998C7.66104 10.1998 7.79328 10.3271 7.79939 10.488L7.79999 9.3C7.79999 9.13431 7.93431 9 8.09999 9C8.26568 9 8.39999 9.13431 8.39999 9.3V10.488H8.99999V9.9C8.99999 9.73431 9.13431 9.6 9.29999 9.6C9.46568 9.6 9.59999 9.73431 9.59999 9.9V7.5C9.59999 7.33431 9.73431 7.2 9.89999 7.2C10.0657 7.2 10.2 7.33431 10.2 7.5V9.9C10.2 9.73431 10.3343 9.6 10.5 9.6C10.6657 9.6 10.8 9.73431 10.8 9.9V9.3C10.8 9.13431 10.9343 9 11.1 9C11.2657 9 11.4 9.13431 11.4 9.3V10.488H12V5.7C12 5.53431 12.1343 5.4 12.3 5.4C12.4657 5.4 12.6 5.53431 12.6 5.7V8.7C12.6 8.53431 12.7343 8.4 12.9 8.4C13.0657 8.4 13.2 8.53431 13.2 8.7V7.5C13.2 7.33431 13.3343 7.2 13.5 7.2C13.6657 7.2 13.8 7.33431 13.8 7.5V10.488V9.3C13.8 9.13431 13.9343 9 14.1 9C14.2657 9 14.4 9.13431 14.4 9.3V10.488C14.4061 10.3271 14.5389 10.1998 14.7 10.1998C14.861 10.1998 14.9933 10.3271 14.9994 10.488H15.6V9.9C15.6 9.73431 15.7343 9.6 15.9 9.6C16.0657 9.6 16.2 9.73431 16.2 9.9V9.3C16.2 9.13431 16.3343 9 16.5 9C16.6657 9 16.8 9.13431 16.8 9.3V10.488H17.4006C17.4067 10.3271 17.5389 10.1998 17.7 10.1998C17.861 10.1998 17.9933 10.3271 17.9994 10.488H18.3C18.4657 10.488 18.6 10.6223 18.6 10.788C18.6 10.9537 18.4657 11.088 18.3 11.088Z" fill="currentColor"/>
</svg>
