<svg width="24" height="24" viewBox="0 0 24 24" fill="currentColor" xmlns="http://www.w3.org/2000/svg">
<path fill-rule="evenodd" clip-rule="evenodd" d="M12 1.8C6.36667 1.8 1.8 6.36667 1.8 12C1.8 17.6333 6.36667 22.2 12 22.2C17.6333 22.2 22.2 17.6332 22.2 12C22.2 6.36684 17.6332 1.8 12 1.8ZM18.9295 17.7914L18.6576 16.0548L15.502 16.8621L13.7803 19.5962L15.3419 20.4069C13.1841 21.2664 10.7781 21.2614 8.62387 20.3929L10.1915 19.5976L8.44863 16.8461L5.31622 16.0536L5.03482 17.7471C3.71652 16.1406 2.99742 14.1259 3.00054 12.0477C3.00054 11.8472 3.00709 11.6483 3.02016 11.451L4.206 12.6408L6.28424 10.1328L6.07006 6.90883L4.44682 7.1533C5.66814 5.26971 7.54829 3.90958 9.71945 3.33898L8.97264 4.79849L12 6L15 4.8L14.2678 3.3355C16.4531 3.90617 18.3445 5.27635 19.5679 7.1749L17.9041 6.90849L17.6969 10.159L19.7652 12.6414L20.9802 11.4447C20.9934 11.644 21.0001 11.845 21.0003 12.0477C21.0034 14.1456 20.2707 16.1782 18.9295 17.7914ZM11.6846 14.7038C11.4018 14.7038 11.1577 14.8073 10.9523 15.0144C10.747 15.2216 10.6443 15.4653 10.6444 15.7456C10.6411 16.0244 10.7518 16.2925 10.9507 16.4878C11.155 16.6959 11.3997 16.8 11.6846 16.8C12.2672 16.7999 12.7397 16.3282 12.7406 15.7456C12.7406 15.4632 12.6374 15.219 12.431 15.0129C12.2355 14.8113 11.9654 14.6995 11.6846 14.7038ZM13.8546 8.51695C13.5649 8.28321 13.2361 8.10263 12.8834 7.98357C12.5232 7.86097 12.1451 7.79893 11.7646 7.79999C11.3609 7.79999 10.9419 7.88674 10.5078 8.06021C10.0737 8.23368 9.71391 8.48185 9.42836 8.80471C9.14279 9.12766 9 9.49496 9 9.90662C9 10.1741 9.08832 10.3972 9.26494 10.5759C9.44156 10.7546 9.66156 10.844 9.92494 10.8439C10.2134 10.8439 10.4872 10.664 10.7464 10.3042C11.0307 9.91089 11.3432 9.71424 11.6839 9.71424C11.9276 9.70985 12.1657 9.78785 12.3595 9.93561C12.5529 10.0832 12.6495 10.2795 12.6495 10.5244C12.6495 11.098 12.2891 11.4402 11.5683 11.5512C11.2854 11.5993 11.0769 11.681 10.948 11.7961C10.8192 11.9113 10.752 12.105 10.752 12.3771V13.1873C10.751 13.3692 10.7894 13.5492 10.8646 13.7149C10.9341 13.8713 11.0467 14.0047 11.1891 14.0996C11.3313 14.1949 11.5005 14.2425 11.695 14.2425C11.8627 14.2413 12.0272 14.1964 12.1723 14.1121C12.3196 14.0327 12.4407 13.9121 12.5208 13.7651C12.6065 13.5892 12.6494 13.3453 12.6495 13.0333C13.3136 12.8806 13.8353 12.5799 14.2146 12.1313C14.5939 11.6826 14.7835 11.1215 14.7834 10.448C14.7877 10.0711 14.7027 9.69858 14.5355 9.36079C14.3721 9.03369 14.1398 8.74583 13.8546 8.51695Z" fill="currentColor"/>
</svg>
