<svg width="24" height="24" viewBox="0 0 24 24" fill="currentColor" xmlns="http://www.w3.org/2000/svg">
<path fill-rule="evenodd" clip-rule="evenodd" d="M15 1.80005V5.40005C15 6.06279 15.4776 6.60005 16.0667 6.60005H19.8L15 1.80005ZM16.2 7.80005C14.8745 7.80005 13.8 6.72553 13.8 5.40005V1.80005H4.2V20.9946C4.2 20.9964 4.2 20.9982 4.2 21C4.2 21.6628 4.73726 22.2001 5.4 22.2001H19.8V7.80005H16.2ZM7.8 9.00005H16.2C16.5314 9.00005 16.8 9.26868 16.8 9.60005C16.8 9.93142 16.5314 10.2 16.2 10.2H7.8C7.46863 10.2 7.2 9.93142 7.2 9.60005C7.2 9.26868 7.46863 9.00005 7.8 9.00005ZM7.8 11.4H16.2C16.5314 11.4 16.8 11.6687 16.8 12C16.8 12.3314 16.5314 12.6 16.2 12.6H7.8C7.46863 12.6 7.2 12.3314 7.2 12C7.2 11.6687 7.46863 11.4 7.8 11.4ZM7.8 13.8H16.2C16.5314 13.8 16.8 14.0687 16.8 14.4C16.8 14.7314 16.5314 15 16.2 15H7.8C7.46863 15 7.2 14.7314 7.2 14.4C7.2 14.0687 7.46863 13.8 7.8 13.8ZM10.2 17.4H7.8C7.46863 17.4 7.2 17.1314 7.2 16.8C7.2 16.4687 7.46863 16.2 7.8 16.2H10.2C10.5314 16.2 10.8 16.4687 10.8 16.8C10.8 17.1314 10.5314 17.4 10.2 17.4ZM17.731 16.7789L14.2551 20.8109C14.1471 20.9313 13.9929 21.0001 13.8311 21.0001C13.6693 21.0001 13.5152 20.9313 13.4071 20.8109L11.6692 18.7949C11.5927 18.7078 11.5504 18.596 11.55 18.48C11.5508 18.3442 11.6085 18.2149 11.7091 18.1236L11.9263 17.9221C12.1332 17.7356 12.4441 17.7246 12.6637 17.8959L13.7224 18.984L16.9354 16.0964C17.0387 16.0076 17.1707 15.9592 17.3069 15.96C17.6069 15.96 17.85 16.1856 17.85 16.464C17.8496 16.5799 17.8074 16.6918 17.731 16.7789Z" fill="currentColor"/>
</svg>
