<svg width="24" height="24" viewBox="0 0 24 24" fill="currentColor" xmlns="http://www.w3.org/2000/svg">
<path fill-rule="evenodd" clip-rule="evenodd" d="M12 7.20001C14.651 7.20001 16.8 9.34904 16.8 12C16.8 14.651 14.651 16.8 12 16.8C9.34902 16.8 7.19999 14.651 7.19999 12C7.19999 9.34904 9.34902 7.20001 12 7.20001ZM2.39999 11.4H4.79999C5.13136 11.4 5.39999 11.6686 5.39999 12C5.39999 12.3314 5.13136 12.6 4.79999 12.6H2.39999C2.06862 12.6 1.79999 12.3314 1.79999 12C1.79999 11.6686 2.06862 11.4 2.39999 11.4ZM5.629 4.8045L7.32606 6.50154C7.55763 6.73631 7.55635 7.11395 7.32318 7.34714C7.09002 7.58032 6.71237 7.58164 6.47759 7.35008L4.78055 5.65302C4.5503 5.41804 4.5522 5.04148 4.78482 4.80884C5.01743 4.57621 5.394 4.57427 5.629 4.8045ZM19.1441 5.6133L17.4441 7.31329C17.2931 7.46722 17.0711 7.52823 16.8626 7.47307C16.6541 7.41792 16.4913 7.25509 16.4362 7.04661C16.381 6.83814 16.442 6.6161 16.596 6.46508L18.296 4.76514C18.447 4.61121 18.669 4.55021 18.8775 4.60536C19.086 4.66052 19.2488 4.82334 19.3039 5.03182C19.3591 5.2403 19.2981 5.46228 19.1441 5.6133ZM18.2962 19.2488L16.5996 17.5573C16.4485 17.4058 16.3898 17.1852 16.4455 16.9785C16.5012 16.7719 16.6629 16.6108 16.8697 16.5557C17.0765 16.5006 17.2969 16.5601 17.448 16.7116L19.1446 18.403C19.3782 18.6373 19.3776 19.0166 19.1433 19.2501C18.909 19.4836 18.5298 19.483 18.2962 19.2488ZM4.78458 18.4426L6.48409 16.7482C6.63513 16.5967 6.85549 16.5373 7.06218 16.5924C7.26886 16.6475 7.43047 16.8086 7.48612 17.0151C7.54178 17.2217 7.48302 17.4422 7.33199 17.5937L5.63248 19.2881C5.48144 19.4395 5.26108 19.4989 5.05439 19.4438C4.8477 19.3888 4.6861 19.2276 4.63044 19.0211C4.57479 18.8146 4.63355 18.594 4.78458 18.4426ZM21.5189 12.5626L19.1173 12.5651C18.7857 12.5647 18.5172 12.2957 18.5175 11.9641C18.5179 11.6325 18.787 11.3639 19.1186 11.3643L21.5202 11.3619C21.8473 11.3684 22.1089 11.6356 22.1086 11.9628C22.1083 12.29 21.8461 12.5567 21.5189 12.5626ZM11.3905 21.5518V19.1508C11.3956 18.8204 11.6649 18.5553 11.9953 18.5553C12.3256 18.5553 12.5949 18.8204 12.6 19.1508V21.5518C12.5949 21.8821 12.3256 22.1472 11.9953 22.1472C11.6649 22.1472 11.3956 21.8821 11.3905 21.5518ZM12.5622 2.42507L12.5647 4.82764C12.5643 5.16185 12.2931 5.43251 11.9589 5.43217C11.6247 5.43183 11.354 5.16063 11.3544 4.82641L11.352 2.42382C11.3565 2.09261 11.6264 1.82656 11.9577 1.8269C12.2889 1.82725 12.5583 2.09385 12.5622 2.42507Z" fill="currentColor"/>
</svg>
