<svg width="24" height="24" viewBox="0 0 24 24" fill="currentColor" xmlns="http://www.w3.org/2000/svg">
<path fill-rule="evenodd" clip-rule="evenodd" d="M12.2 7.8V6.6H17V7.8H12.2ZM12.2 9.6V8.4H18.2V9.6H12.2ZM12.2 11.4V10.2H17V11.4H12.2ZM16.4 19.2H13.4V17.4H9.8V19.2H6.8C6.46863 19.2 6.2 19.4686 6.2 19.8V20.4H17V19.8C17 19.4686 16.7314 19.2 16.4 19.2ZM20 3H3.2C2.53726 3 2 3.53726 2 4.2V15.6C2 16.2627 2.53726 16.8 3.2 16.8H20C20.6627 16.8 21.2 16.2627 21.2 15.6V4.2C21.2 3.53726 20.6627 3 20 3ZM3.2 4.224V14.4H20V4.224H3.2ZM11.576 14.976C11.2446 14.976 10.976 15.2446 10.976 15.576C10.976 15.9074 11.2446 16.176 11.576 16.176C11.9074 16.176 12.176 15.9074 12.176 15.576C12.176 15.2446 11.9074 14.976 11.576 14.976ZM8 6C6.34315 6 5 7.34315 5 9C5 10.6569 6.34315 12 8 12C9.65685 12 11 10.6569 11 9C11 8.20435 10.6839 7.44129 10.1213 6.87868C9.55871 6.31607 8.79565 6 8 6ZM10.078 7.80026L8 9V6.6C8.85724 6.60052 9.64921 7.05796 10.078 7.80026Z" fill="currentColor"/>
</svg>
