<svg width="24" height="24" viewBox="0 0 24 24" fill="currentColor" xmlns="http://www.w3.org/2000/svg">
<path fill-rule="evenodd" clip-rule="evenodd" d="M4.2 9.82265V2.39995H19.8C19.5456 1.68081 18.8656 1.19995 18.1028 1.19995H3V18.6C3 19.3628 3.48085 20.0427 4.2 20.2971V9.82265ZM19.8 2.99995H4.8V20.4C4.8 21.3941 5.60589 22.2 6.6 22.2H21.6V4.79995C21.6 3.80584 20.7941 2.99995 19.8 2.99995ZM7.8 21H6V19.2H7.8V21ZM7.8 18H6V16.2H7.8V18ZM7.8 15H6V13.2H7.8V15ZM7.8 12H6V10.2H7.8V12ZM7.8 8.99995H6V7.19995H7.8V8.99995ZM7.8 5.99995H6V4.19995H7.8V5.99995ZM17.4 20.4C17.399 20.7309 17.131 20.999 16.8 21H9.6C9.26903 20.999 9.00096 20.7309 9 20.4V13.8C9.00096 13.469 9.26903 13.2009 9.6 13.2H16.8C17.131 13.2009 17.399 13.469 17.4 13.8V20.4ZM17.4 11.4C17.399 11.7309 17.131 11.999 16.8 12H9.6C9.26903 11.999 9.00096 11.7309 9 11.4V4.79995C9.00096 4.46898 9.26903 4.20091 9.6 4.19995H16.8C17.131 4.20091 17.399 4.46898 17.4 4.79995V11.4ZM20.4 21H18.6V19.2H20.4V21ZM20.4 18H18.6V16.2H20.4V18ZM20.4 15H18.6V13.2H20.4V15ZM20.4 12H18.6V10.2H20.4V12ZM20.4 8.99995H18.6V7.19995H20.4V8.99995ZM20.4 5.99995H18.6V4.19995H20.4V5.99995Z" fill="currentColor"/>
</svg>
