<svg width="24" height="24" viewBox="0 0 24 24" fill="currentColor" xmlns="http://www.w3.org/2000/svg">
<path fill-rule="evenodd" clip-rule="evenodd" d="M19.8002 14.4002C19.3715 14.4001 18.9753 14.6288 18.7611 15.0002H17.2974C17.043 14.281 16.363 13.8002 15.6002 13.8002C14.8373 13.8002 14.1573 14.281 13.903 15.0002H10.0974C10.0763 14.9403 10.052 14.8815 10.0247 14.8242L14.8242 10.0247C15.2849 10.2445 15.8173 10.2584 16.2889 10.0631C16.7605 9.86771 17.127 9.48139 17.2974 9.00017H18.7611C19.0327 9.47054 19.5863 9.69986 20.1109 9.55929C20.6356 9.41871 21.0005 8.9433 21.0005 8.40017C21.0005 7.85705 20.6356 7.38164 20.1109 7.24106C19.5863 7.10049 19.0327 7.32981 18.7611 7.80017H17.2974C17.2763 7.74027 17.252 7.68154 17.2247 7.62421L18.2895 6.55935C18.814 6.69977 19.3674 6.47045 19.6388 6.00023C19.9102 5.53 19.832 4.93611 19.4481 4.5522C19.0642 4.16829 18.4703 4.09009 18.0001 4.36152C17.5298 4.63295 17.3005 5.18635 17.441 5.71081L16.3761 6.77569C16.3188 6.74836 16.2601 6.72409 16.2002 6.70299V5.23923C16.6705 4.96767 16.8999 4.41404 16.7593 3.88942C16.6187 3.3648 16.1433 3 15.6002 3C15.057 3 14.5816 3.3648 14.4411 3.88942C14.3005 4.41404 14.5298 4.96767 15.0002 5.23923V6.70299C14.519 6.87331 14.1326 7.23986 13.9373 7.71146C13.7419 8.18307 13.7559 8.71542 13.9757 9.17614L9.17614 13.9757C9.11881 13.9484 9.06008 13.9241 9.00017 13.903V10.0974C9.71936 9.84302 10.2002 9.16301 10.2002 8.40017C10.2002 7.63734 9.71936 6.95733 9.00017 6.70299V5.23923C9.47054 4.96767 9.69986 4.41404 9.55929 3.88942C9.41871 3.3648 8.9433 3 8.40017 3C7.85705 3 7.38164 3.3648 7.24106 3.88942C7.10049 4.41404 7.32981 4.96767 7.80017 5.23923V6.70299C7.74027 6.72409 7.68154 6.74836 7.62421 6.77569L6.55937 5.71081C6.6998 5.18635 6.47048 4.63296 6.00026 4.36153C5.53004 4.09011 4.93615 4.16833 4.55224 4.55224C4.16833 4.93615 4.09011 5.53004 4.36153 6.00026C4.63296 6.47048 5.18635 6.6998 5.71081 6.55937L6.77569 7.62423C6.74836 7.68155 6.72409 7.74028 6.70299 7.80017H5.23923C4.96767 7.32981 4.41404 7.10049 3.88942 7.24106C3.3648 7.38164 3 7.85705 3 8.40017C3 8.9433 3.3648 9.41871 3.88942 9.55929C4.41404 9.69986 4.96767 9.47054 5.23923 9.00017H6.70299C6.88484 9.51246 7.28789 9.91551 7.80017 10.0974V13.903C7.00986 14.1825 6.51713 14.9706 6.61192 15.8035C6.70671 16.6364 7.36392 17.2936 8.19684 17.3884C9.02975 17.4832 9.81784 16.9905 10.0974 16.2002H13.903C14.0848 16.7125 14.4879 17.1155 15.0002 17.2974V18.7611C14.5298 19.0327 14.3005 19.5863 14.4411 20.1109C14.5816 20.6356 15.057 21.0003 15.6002 21.0003C16.1433 21.0003 16.6187 20.6356 16.7593 20.1109C16.8999 19.5863 16.6705 19.0327 16.2002 18.7611V17.2974C16.2601 17.2763 16.3188 17.252 16.3761 17.2247L17.441 18.2895C17.3006 18.814 17.5299 19.3674 18.0001 19.6388C18.4703 19.9102 19.0642 19.832 19.4481 19.4481C19.8321 19.0642 19.9103 18.4703 19.6388 18.0001C19.3674 17.5298 18.814 17.3005 18.2895 17.441L17.2247 16.3761C17.252 16.3188 17.2763 16.2601 17.2974 16.2002H18.7611C19.0523 16.7045 19.6636 16.927 20.2108 16.7278C20.7581 16.5286 21.0833 15.9652 20.9821 15.3917C20.8809 14.8182 20.3825 14.4001 19.8002 14.4002ZM15.6002 7.80017C15.9315 7.80017 16.2002 8.0688 16.2002 8.40017C16.2002 8.73154 15.9315 9.00017 15.6002 9.00017C15.2688 9.00017 15.0002 8.73154 15.0002 8.40017C15.0002 8.0688 15.2688 7.80017 15.6002 7.80017ZM8.40017 7.80017C8.73154 7.80017 9.00017 8.0688 9.00017 8.40017C9.00017 8.73154 8.73154 9.00017 8.40017 9.00017C8.0688 9.00017 7.80017 8.73154 7.80017 8.40017C7.80017 8.0688 8.0688 7.80017 8.40017 7.80017ZM15.6002 16.2002C15.2688 16.2002 15.0002 15.9315 15.0002 15.6002C15.0002 15.2688 15.2688 15.0002 15.6002 15.0002C15.9315 15.0002 16.2002 15.2688 16.2002 15.6002C16.2002 15.9315 15.9315 16.2002 15.6002 16.2002Z" fill="currentColor"/>
</svg>
