<svg width="24" height="24" viewBox="0 0 24 24" fill="currentColor" xmlns="http://www.w3.org/2000/svg">
<path fill-rule="evenodd" clip-rule="evenodd" d="M21.7787 17.2302L19.2193 15.4158L17.3539 14.1037C17.2977 14.7663 16.8043 15.3088 16.1501 15.4274C16.1707 15.464 16.1898 15.5016 16.2073 15.5402L18.1662 16.9181L20.7257 18.7325C21.1405 19.0233 21.7125 18.9227 22.0033 18.5079C22.2941 18.0931 22.1936 17.521 21.7787 17.2302ZM16.7741 19.3034L14.4391 17.661C14.7768 18.3269 14.561 19.1403 13.9377 19.5512L15.721 20.8056C16.1355 21.0954 16.7062 20.9953 16.9974 20.5819C17.2867 20.1667 17.187 19.5959 16.7741 19.3034ZM19.5902 18.4804L17.903 17.2937L16.3378 16.1928C16.3161 16.883 15.8173 17.4651 15.1386 17.5923L16.8498 18.796L18.537 19.9827C18.9515 20.2724 19.5222 20.1724 19.8134 19.759C20.1026 19.3438 20.003 18.7731 19.5902 18.4804ZM14.6534 6.5921C15.2586 6.59268 15.8045 6.22855 16.0366 5.66957C16.2686 5.11058 16.1409 4.46687 15.7132 4.03871C15.2854 3.61055 14.6418 3.48229 14.0826 3.71376C13.5234 3.94523 13.1588 4.49084 13.1588 5.09606C13.1593 5.92152 13.8279 6.59078 14.6534 6.5921ZM14.6534 4.19843C15.0165 4.1981 15.344 4.41657 15.4832 4.75196C15.6224 5.08734 15.5458 5.47355 15.2892 5.73044C15.0326 5.98732 14.6464 6.06427 14.3109 5.92539C13.9754 5.78651 13.7566 5.45916 13.7566 5.09603C13.7565 4.85809 13.8509 4.62984 14.0191 4.46151C14.1873 4.29317 14.4154 4.19854 14.6534 4.19843ZM21.8111 14.4399L16.5345 10.7238C16.4867 10.6902 16.4651 10.6302 16.4803 10.5738C16.4956 10.5174 16.5445 10.4765 16.6028 10.4716L18.6854 10.3965C19.3143 10.385 19.8166 9.869 19.8115 9.24002C19.8064 8.61103 19.2957 8.10348 18.6667 8.10225L16.1157 8.11202C16.0014 7.62553 15.5965 7.26154 15.1006 7.19963C14.6047 7.13772 14.1227 7.39095 13.8923 7.83441C13.6235 7.77747 13.3461 7.77394 13.076 7.82402C12.6651 5.71844 10.8203 4.19888 8.67501 4.19888C6.52971 4.19888 4.68496 5.71844 4.27406 7.82402C3.35096 7.65345 2.42716 8.11814 2.01381 8.96096C1.60045 9.80378 1.79859 10.8187 2.49859 11.4442C2.56296 11.368 2.62936 11.2936 2.69779 11.221C2.76622 11.1483 2.83634 11.0776 2.90815 11.0087C2.44732 10.606 2.27842 9.96317 2.48179 9.38596C2.68515 8.80876 3.21973 8.41376 3.8312 8.38887C4.44268 8.36398 5.00759 8.71423 5.2572 9.27299L5.50459 9.0978L5.75133 8.92307C5.5505 8.53546 5.23427 8.21977 4.84632 8.01959C5.1623 6.18914 6.75609 4.79685 8.67501 4.79685C10.5939 4.79685 12.1877 6.18914 12.5039 8.01952C11.6619 8.45129 11.214 9.39412 11.4114 10.3196L11.7179 10.32L12.0287 10.3204C11.8743 9.81605 11.9971 9.26769 12.3518 8.87728C12.7064 8.48687 13.2405 8.31215 13.7574 8.41747C13.7738 9.05404 14.2856 9.56639 14.9222 9.58341C14.9775 9.85601 14.9563 10.1386 14.8607 10.3999C14.9555 10.4317 15.0467 10.4731 15.1329 10.5235C15.5852 10.7869 15.8636 11.2708 15.8639 11.7942C15.8642 12.0447 15.8001 12.2911 15.6777 12.5097L15.8925 12.5107C16.5124 12.5126 17.0647 12.9028 17.2735 13.4865L19.4827 15.0404L20.7581 15.9421C21.1725 16.2319 21.7433 16.1318 22.0345 15.7184C22.3236 15.3032 22.2239 14.7325 21.8111 14.4399ZM15.2932 8.87877C15.2089 8.93761 15.1107 8.97355 15.0083 8.98305C14.9899 8.98478 14.9712 8.98576 14.9523 8.98576C14.7937 8.98569 14.6415 8.9226 14.5294 8.81037C14.4173 8.69815 14.3544 8.54598 14.3544 8.38735C14.3544 8.36841 14.3554 8.34969 14.3571 8.33121C14.3833 8.05565 14.5952 7.83409 14.8693 7.79568C15.1434 7.75728 15.4081 7.91208 15.509 8.16984C15.6099 8.4276 15.5206 8.7209 15.2932 8.87877ZM14.0001 18.3254C13.9989 17.8449 13.6102 17.4554 13.1297 17.4533L10.9527 17.4516L10.1259 17.451L9.86575 17.4508C9.80426 17.4506 9.74572 17.4245 9.70451 17.3788C9.66329 17.3332 9.64322 17.2723 9.64922 17.2111C9.66256 17.0983 9.75885 17.0138 9.87242 17.0151H9.8813L10.3325 17.0155L12.9121 17.0174L13.8985 17.0182L14.3229 17.0184L14.8706 17.0188C15.3506 17.0172 15.7399 16.6281 15.741 16.148C15.7411 15.9794 15.6919 15.8145 15.5994 15.6735C15.5019 15.5239 15.3611 15.4075 15.1958 15.3399C15.0926 15.2977 14.9821 15.276 14.8706 15.2759L12.9122 15.2744L10.8451 15.2729L9.86592 15.2721C9.80443 15.2719 9.7459 15.2457 9.70469 15.2001C9.66348 15.1545 9.64341 15.0936 9.64941 15.0324C9.66275 14.9196 9.75904 14.8351 9.87261 14.8364L10.4488 14.8369L12.9125 14.8387L15.891 14.8519C16.3723 14.8518 16.7628 14.4615 16.7628 13.9802C16.7628 13.4989 16.3724 13.1089 15.8911 13.109L12.9126 13.0958L10.0685 13.0937L9.8662 13.0935C9.80477 13.0931 9.74632 13.067 9.70514 13.0214C9.66396 12.9758 9.64384 12.915 9.6497 12.8538C9.65343 12.8165 9.66713 12.7808 9.68937 12.7506C9.7323 12.6923 9.80043 12.6579 9.87285 12.6579H10.0057L10.3419 12.6581L10.7641 12.6585L12.9126 12.6601L14.3956 12.6649C14.8757 12.6633 15.265 12.2742 15.2661 11.7941C15.2661 11.5876 15.1924 11.3879 15.0584 11.2308C14.9934 11.1542 14.9157 11.0893 14.8289 11.039C14.6973 10.9625 14.5479 10.9221 14.3958 10.922L12.3802 10.9193L12.214 10.9191L11.9942 10.9188L11.857 10.9186L11.6397 10.9183L8.26848 10.9138C8.24255 10.9139 8.21717 10.9063 8.19561 10.8919C8.1609 10.8688 8.13911 10.8307 8.13683 10.789C8.13456 10.7474 8.15205 10.7071 8.18404 10.6804L8.39102 10.5236L9.76228 9.48494C10.2462 9.13376 10.3564 8.45791 10.0092 7.97108C9.6621 7.48425 8.98737 7.36835 8.49768 7.71143L5.95221 9.51364L5.67739 9.70826L5.38615 9.91449L3.97975 10.9105C3.79709 11.0336 3.62284 11.1688 3.45816 11.3151C3.37462 11.3891 3.29359 11.4659 3.21506 11.5453C3.1409 11.6205 3.06912 11.6978 2.99971 11.7774C2.26531 12.6226 1.81473 13.7127 1.81473 14.8652C1.81454 17.2524 3.74724 19.1891 6.13156 19.1909L6.60158 19.1912L13.1296 19.1962C13.2143 19.1962 13.2992 19.1837 13.3803 19.1591C13.7476 19.0475 13.999 18.7093 14.0001 18.3254Z" fill="currentColor"/>
</svg>
