<svg width="24" height="24" viewBox="0 0 24 24" fill="currentColor" xmlns="http://www.w3.org/2000/svg">
<path fill-rule="evenodd" clip-rule="evenodd" d="M13.8 22.8H9.00005C8.33731 22.8 7.80005 22.2628 7.80005 21.6V19.2H15V21.6C15 22.2628 14.4628 22.8 13.8 22.8ZM9.00005 1.20001H13.8C14.4628 1.20001 15 1.73727 15 2.40001V4.80001H7.80005V2.40001C7.80005 1.73727 8.33731 1.20001 9.00005 1.20001ZM18.9 9.60001H18V6.60001C18 5.93727 17.4628 5.40001 16.8 5.40001H6.00005C5.33731 5.40001 4.80005 5.93727 4.80005 6.60001V17.4C4.80005 18.0628 5.33731 18.6 6.00005 18.6H16.8C17.4628 18.6 18 18.0628 18 17.4V11.4H18.9C19.0657 11.4 19.2 11.2657 19.2 11.1V9.90001C19.2 9.73433 19.0657 9.60001 18.9 9.60001ZM16.8 17.4H6.00005V6.60001H16.8V17.4ZM14.2243 13.9757L12 11.7515V7.80001C12 7.46864 11.7314 7.20001 11.4 7.20001C11.0687 7.20001 10.8 7.46864 10.8 7.80001V12V12.0041C10.8 12.0126 10.8003 12.0211 10.8007 12.0296C10.801 12.0347 10.8014 12.0398 10.8018 12.0449C10.8021 12.0496 10.8024 12.0542 10.8029 12.0588C10.8035 12.0649 10.8043 12.071 10.805 12.0771C10.8055 12.0806 10.8059 12.0843 10.8064 12.0877C10.8074 12.0943 10.8085 12.1007 10.8097 12.1072C10.8102 12.1103 10.8107 12.1133 10.8113 12.1164C10.8126 12.1229 10.8141 12.1294 10.8156 12.1359C10.8163 12.1389 10.8169 12.142 10.8177 12.145C10.8192 12.1513 10.821 12.1575 10.8227 12.1636C10.8236 12.1669 10.8245 12.1702 10.8255 12.1735C10.8273 12.1792 10.8291 12.1849 10.831 12.1906C10.8323 12.1943 10.8334 12.198 10.8348 12.2017C10.8366 12.2068 10.8385 12.2118 10.8405 12.2168C10.8421 12.2211 10.8438 12.2254 10.8456 12.2296C10.8473 12.2339 10.8492 12.2382 10.8511 12.2424C10.8533 12.2472 10.8554 12.252 10.8577 12.2568C10.8594 12.2605 10.8612 12.264 10.863 12.2677C10.8656 12.2729 10.8683 12.2782 10.8711 12.2834C10.8727 12.2865 10.8745 12.2895 10.8762 12.2925C10.8793 12.2981 10.8824 12.3036 10.8857 12.309C10.8873 12.3118 10.8891 12.3145 10.8908 12.3172C10.8942 12.3227 10.8977 12.3283 10.9014 12.3338C10.9032 12.3364 10.905 12.339 10.9069 12.3417C10.9106 12.347 10.9143 12.3524 10.9182 12.3576C10.9204 12.3605 10.9226 12.3632 10.9248 12.3661C10.9285 12.3709 10.9323 12.3758 10.9362 12.3806C10.9391 12.3841 10.9422 12.3875 10.9451 12.391C10.9485 12.3949 10.9518 12.3989 10.9553 12.4028C10.9607 12.4087 10.9663 12.4145 10.9719 12.4202L10.9757 12.4242L13.3757 14.8242C13.61 15.0585 13.9899 15.0586 14.2242 14.8243C14.4586 14.59 14.4586 14.2101 14.2243 13.9757Z" fill="currentColor"/>
</svg>
