<svg width="24" height="24" viewBox="0 0 24 24" fill="currentColor" xmlns="http://www.w3.org/2000/svg">
<path fill-rule="evenodd" clip-rule="evenodd" d="M8.97433 10.0398C9.30418 9.26124 9.92384 8.64141 10.7023 8.31134C10.753 8.28992 10.8041 8.26982 10.8555 8.25106C10.4792 7.03744 9.24479 6.30613 7.99959 6.55907C6.75439 6.812 5.90316 7.96696 6.03014 9.23123C6.15712 10.4955 7.22104 11.4581 8.49167 11.4583C8.5694 11.4583 8.64623 11.4546 8.72207 11.4476C8.72003 11.4 8.7188 11.3524 8.7188 11.3045C8.71804 10.8701 8.80495 10.4399 8.97433 10.0398ZM14.2632 9.00725C14.8731 9.61604 15.2154 10.4427 15.2144 11.3044C15.2144 11.3509 15.2133 11.3971 15.2113 11.4432C15.3018 11.4532 15.3927 11.4582 15.4837 11.4582C16.7566 11.4583 17.8219 10.4929 17.9467 9.22611C18.0715 7.95937 17.215 6.80457 15.9666 6.55627C14.7182 6.30797 13.485 7.04718 13.1156 8.26526C13.1543 8.27993 13.1928 8.29507 13.231 8.31125C13.6169 8.47427 13.9674 8.71064 14.2632 9.00725ZM7.75225 14.5563C8.12185 13.9741 8.5414 13.5678 9.13499 13.2221L9.2433 13.1477C9.16453 12.9851 9.09102 12.8754 8.97433 12.5693C8.92259 12.4335 8.87072 12.2989 8.83285 12.1601C8.71953 12.1722 8.60564 12.1783 8.49167 12.1783C7.67708 12.1794 6.89311 11.868 6.30124 11.3083C5.52966 11.6889 4.96429 12.3893 4.75501 13.2238C5.08966 14.8484 5.96328 16.3124 7.23421 17.3782V16.7499C7.23416 16.0376 7.37204 15.1552 7.75225 14.5563ZM19.1962 13.1334C18.9693 12.3375 18.4164 11.6746 17.6742 11.3083C17.0823 11.868 16.2983 12.1793 15.4837 12.1783C15.356 12.1783 15.2285 12.1707 15.1017 12.1555C15.0635 12.2965 15.0159 12.4347 14.959 12.5692C14.8417 12.8467 14.8387 12.8985 14.7111 13.1056L14.6721 13.18C15.2897 13.4844 15.7694 14.0372 16.139 14.6194C16.5192 15.2184 16.6992 16.0376 16.6992 16.75V17.3783C17.9944 16.2921 18.8762 14.7932 19.1962 13.1334ZM13.017 8.79202C12.1766 8.44053 11.216 8.53277 10.4578 9.03776C9.69964 9.54276 9.24434 10.3936 9.24479 11.3045C9.24479 11.3168 9.2451 11.3291 9.24524 11.3413C9.26194 12.7126 10.2973 13.8568 11.6602 14.01C12.4268 14.0977 13.1946 13.8556 13.7723 13.3439C14.3499 12.8323 14.6829 12.0993 14.6883 11.3276C14.6883 11.3199 14.6886 11.3123 14.6886 11.3045C14.6888 10.2066 14.0297 9.21602 13.017 8.79202ZM18.916 15.6C17.6155 18.0958 15.0055 19.8 11.9971 19.8C7.6905 19.8 4.19932 16.3079 4.19932 12C4.19932 7.69222 7.6905 4.20005 11.9971 4.20005C15.0055 4.20005 17.6155 5.90431 18.916 8.40005H20.664V6.62328C18.8649 3.7278 15.6561 1.80005 11.9971 1.80005C6.36539 1.80005 1.79999 6.36674 1.79999 12C1.79999 17.6334 6.36539 22.2001 11.9971 22.2001C15.6561 22.2001 18.8649 20.2723 20.664 17.3768V15.6H18.916ZM14.3766 13.5887C13.8268 14.1072 13.1099 14.5135 12.3152 14.5919C12.2006 14.6031 12.0844 14.6088 11.9667 14.609C11.8635 14.609 11.7612 14.6042 11.6602 14.5955C10.8488 14.5253 10.1162 14.1164 9.55674 13.5887C8.45647 14.1303 7.7597 15.2502 7.76 16.4765V17.7814C8.71384 18.4477 9.8128 18.8771 10.9657 19.0338C11.6441 19.1259 12.3319 19.1239 13.0097 19.028C14.1475 18.8666 15.2313 18.4395 16.1733 17.7814V16.4765C16.1736 15.2501 15.4769 14.1302 14.3766 13.5887Z" fill="currentColor"/>
</svg>
