<svg width="24" height="24" viewBox="0 0 24 24" fill="currentColor" xmlns="http://www.w3.org/2000/svg">
<path fill-rule="evenodd" clip-rule="evenodd" d="M10.5965 10.8682C10.1206 11.4633 10.0704 12.2934 10.4706 12.9419C10.8707 13.5903 11.6352 13.9173 12.3805 13.7589C13.1258 13.6004 13.6911 12.9906 13.7928 12.2354L15.2537 4.30181L10.5965 10.8682ZM12 22.2001C17.6333 22.2001 22.2 17.6334 22.2 12C22.2 6.36674 17.6333 1.80005 12 1.80005C6.3667 1.80005 1.8 6.36674 1.8 12C1.8 17.6334 6.3667 22.2001 12 22.2001ZM4.35872 8.50762C4.73425 7.68827 5.23898 6.93457 5.8536 6.27533L7.12752 7.54925C6.67884 8.03999 6.30672 8.59559 6.02374 9.1973L7.12587 9.65381L6.89626 10.2082L4.12829 9.06161C4.16974 8.95073 4.21308 8.8404 4.25938 8.73094C4.29116 8.65579 4.32488 8.58161 4.35872 8.50762ZM17.1037 10.2081L16.8741 9.65374L17.9763 9.19723C17.6933 8.59554 17.3212 8.03996 16.8725 7.54925L18.1464 6.27528C18.761 6.93447 19.2658 7.68829 19.6413 8.50759C19.6752 8.58158 19.7088 8.65579 19.7406 8.73094C19.7869 8.8404 19.8302 8.95073 19.8716 9.06161L17.1037 10.2081ZM11.0611 14.2037C10.1757 13.8258 9.60146 12.9556 9.60221 11.9928C9.60274 11.4575 9.78178 10.9376 10.111 10.5155L13.6003 5.59589C11.4553 5.06166 9.18522 5.63559 7.55189 7.1251L6.27797 5.85125C7.72647 4.49915 9.60781 3.70498 11.587 3.61013C11.5979 3.6096 11.6086 3.60941 11.6195 3.60893C11.6768 3.60638 11.7343 3.60413 11.7919 3.60269C11.8611 3.60093 11.9305 3.60005 12 3.60005C12.065 3.60005 12.1298 3.60098 12.1945 3.60245C12.2199 3.60302 12.2451 3.60401 12.2704 3.60485C12.3084 3.60605 12.3464 3.60725 12.3844 3.60905C12.4176 3.61055 12.4508 3.61227 12.4839 3.61421C12.5115 3.61581 12.5391 3.6175 12.5667 3.6193C12.6069 3.62198 12.6471 3.62479 12.6872 3.62803C12.7018 3.62921 12.7165 3.63058 12.7311 3.63185C13.4019 3.68958 14.0632 3.8281 14.7007 4.04438L14.7013 4.04347C14.8926 4.10846 15.0819 4.18046 15.2691 4.25947C15.4577 4.33922 15.6426 4.42546 15.8239 4.51819L15.8237 4.51927C16.5149 4.87356 17.1537 5.32175 17.7221 5.8511L16.4481 7.1251C16.1483 6.85131 15.8239 6.60566 15.4791 6.39125L14.3839 12.3412C14.2763 13.0795 13.8319 13.7258 13.1811 14.0906C12.5303 14.4554 11.747 14.4972 11.0611 14.2037Z" fill="currentColor"/>
</svg>
