<svg width="24" height="24" viewBox="0 0 24 24" fill="currentColor" xmlns="http://www.w3.org/2000/svg">
<path fill-rule="evenodd" clip-rule="evenodd" d="M20.3849 18.015L11.2575 8.88757C11.6568 7.39337 11.2031 5.8006 10.0764 4.74106C8.94973 3.68151 7.33213 3.32642 5.86524 3.81664L8.22427 6.17567C8.45858 6.40998 8.45858 6.78988 8.22427 7.02419L6.42427 8.82419C6.31175 8.93672 6.15913 8.99993 6 8.99993C5.84087 8.99993 5.68825 8.93672 5.57573 8.82419L3.2167 6.46516C2.72639 7.93205 3.08144 9.54971 4.14102 10.6764C5.20059 11.8031 6.79341 12.2568 8.28763 11.8574L17.4151 20.9849C18.2352 21.805 19.5648 21.805 20.3849 20.9849C21.205 20.1648 21.205 18.8351 20.3849 18.015Z" fill="currentColor"/>
</svg>
