<svg width="24" height="24" viewBox="0 0 24 24" fill="currentColor" xmlns="http://www.w3.org/2000/svg">
<path fill-rule="evenodd" clip-rule="evenodd" d="M16.2001 2.40002H13.2001C10.5491 2.40002 8.4001 4.54906 8.4001 7.20002V7.40002L4.36975 8.74346C3.91294 8.89574 3.6001 9.36293 3.6001 9.89283V11.4H15.6001V9.89283C15.6001 9.36289 15.2525 8.89569 14.7449 8.74342L10.2001 7.38002V7.20002C10.2001 5.54317 11.5432 4.20002 13.2001 4.20002H16.2001C17.857 4.20002 19.2001 5.54317 19.2001 7.20002V22.2H21.0001V7.20002C21.0001 4.54906 18.8511 2.40002 16.2001 2.40002ZM4.8001 15C4.46873 15 4.2001 14.7314 4.2001 14.4V13.2C4.2001 12.8687 4.46873 12.6 4.8001 12.6C5.13147 12.6 5.4001 12.8687 5.4001 13.2V14.4C5.4001 14.7314 5.13147 15 4.8001 15ZM7.2001 15C6.86873 15 6.6001 14.7314 6.6001 14.4V13.2C6.6001 12.8687 6.86873 12.6 7.2001 12.6C7.53147 12.6 7.8001 12.8687 7.8001 13.2V14.4C7.8001 14.7314 7.53147 15 7.2001 15ZM9.6001 15C9.26873 15 9.0001 14.7314 9.0001 14.4V13.2C9.0001 12.8687 9.26873 12.6 9.6001 12.6C9.93147 12.6 10.2001 12.8687 10.2001 13.2V14.4C10.2001 14.7314 9.93147 15 9.6001 15ZM12.0001 15C11.6687 15 11.4001 14.7314 11.4001 14.4V13.2C11.4001 12.8687 11.6687 12.6 12.0001 12.6C12.3315 12.6 12.6001 12.8687 12.6001 13.2V14.4C12.6001 14.7314 12.3315 15 12.0001 15ZM14.4001 15C14.0687 15 13.8001 14.7314 13.8001 14.4V13.2C13.8001 12.8687 14.0687 12.6 14.4001 12.6C14.7315 12.6 15.0001 12.8687 15.0001 13.2V14.4C15.0001 14.7314 14.7315 15 14.4001 15ZM4.8001 18.6C4.46873 18.6 4.2001 18.3314 4.2001 18V16.8C4.2001 16.4687 4.46873 16.2 4.8001 16.2C5.13147 16.2 5.4001 16.4687 5.4001 16.8V18C5.4001 18.3314 5.13147 18.6 4.8001 18.6ZM7.2001 18.6C6.86873 18.6 6.6001 18.3314 6.6001 18V16.8C6.6001 16.4687 6.86873 16.2 7.2001 16.2C7.53147 16.2 7.8001 16.4687 7.8001 16.8V18C7.8001 18.3314 7.53147 18.6 7.2001 18.6ZM9.6001 18.6C9.26873 18.6 9.0001 18.3314 9.0001 18V16.8C9.0001 16.4687 9.26873 16.2 9.6001 16.2C9.93147 16.2 10.2001 16.4687 10.2001 16.8V18C10.2001 18.3314 9.93147 18.6 9.6001 18.6ZM12.0001 18.6C11.6687 18.6 11.4001 18.3314 11.4001 18V16.8C11.4001 16.4687 11.6687 16.2 12.0001 16.2C12.3315 16.2 12.6001 16.4687 12.6001 16.8V18C12.6001 18.3314 12.3315 18.6 12.0001 18.6ZM14.4001 18.6C14.0687 18.6 13.8001 18.3314 13.8001 18V16.8C13.8001 16.4687 14.0687 16.2 14.4001 16.2C14.7315 16.2 15.0001 16.4687 15.0001 16.8V18C15.0001 18.3314 14.7315 18.6 14.4001 18.6ZM4.8001 22.2C4.46873 22.2 4.2001 21.9314 4.2001 21.6V20.4C4.2001 20.0687 4.46873 19.8 4.8001 19.8C5.13147 19.8 5.4001 20.0687 5.4001 20.4V21.6C5.4001 21.9314 5.13147 22.2 4.8001 22.2ZM7.2001 22.2C6.86873 22.2 6.6001 21.9314 6.6001 21.6V20.4C6.6001 20.0687 6.86873 19.8 7.2001 19.8C7.53147 19.8 7.8001 20.0687 7.8001 20.4V21.6C7.8001 21.9314 7.53147 22.2 7.2001 22.2ZM9.6001 22.2C9.26873 22.2 9.0001 21.9314 9.0001 21.6V20.4C9.0001 20.0687 9.26873 19.8 9.6001 19.8C9.93147 19.8 10.2001 20.0687 10.2001 20.4V21.6C10.2001 21.9314 9.93147 22.2 9.6001 22.2ZM12.0001 22.2C11.6687 22.2 11.4001 21.9314 11.4001 21.6V20.4C11.4001 20.0687 11.6687 19.8 12.0001 19.8C12.3315 19.8 12.6001 20.0687 12.6001 20.4V21.6C12.6001 21.9314 12.3315 22.2 12.0001 22.2ZM14.4001 22.2C14.0687 22.2 13.8001 21.9314 13.8001 21.6V20.4C13.8001 20.0687 14.0687 19.8 14.4001 19.8C14.7315 19.8 15.0001 20.0687 15.0001 20.4V21.6C15.0001 21.9314 14.7315 22.2 14.4001 22.2Z" fill="currentColor"/>
</svg>
