<svg width="24" height="24" viewBox="0 0 24 24" fill="currentColor" xmlns="http://www.w3.org/2000/svg">
<path fill-rule="evenodd" clip-rule="evenodd" d="M20.4 4.20001H1.79999V18C1.79999 18.8841 2.71573 19.8 3.59999 19.8H22.2V6.00001C22.2 5.11592 21.2841 4.20001 20.4 4.20001ZM4.7919 10.7798C4.7919 10.4486 5.06872 10.2002 5.39999 10.2H8.99999C9.15913 10.2 9.31178 10.2632 9.42431 10.3757C9.53685 10.4882 9.60005 10.6409 9.59999 10.8C9.59987 11.1313 9.33131 11.3999 8.99999 11.4H5.39999C5.0685 11.4002 4.7919 11.1112 4.7919 10.7798ZM11.388 15.612C11.3902 15.7686 11.3289 15.9195 11.2182 16.0302C11.1074 16.141 10.9566 16.2022 10.8 16.2H5.39999C5.06848 16.2002 4.792 15.9469 4.792 15.6153C4.792 15.2841 5.06876 15.0002 5.39999 15H10.8C11.1315 14.9998 11.388 15.2806 11.388 15.612ZM11.388 8.4123C11.388 8.7435 11.1196 8.98811 10.7883 8.9883L5.39999 9.00001C5.06848 9.0002 4.792 8.74717 4.792 8.41566C4.792 8.08415 5.06879 7.8002 5.39999 7.80001H10.8C11.1315 7.79982 11.388 8.08074 11.388 8.4123ZM16.9345 17.0918C16.7003 17.326 16.3206 17.3262 16.0862 17.0921L15.4555 16.4622L14.8256 17.093C14.7131 17.2056 14.5605 17.2689 14.4013 17.269C14.2422 17.269 14.0895 17.2059 13.9769 17.0933C13.7426 16.8591 13.7425 16.4794 13.9765 16.245L14.6064 15.6144L13.9757 14.9845C13.7412 14.7504 13.7409 14.3705 13.9751 14.136C14.2093 13.9015 14.5892 13.9013 14.8236 14.1354L15.4544 14.7653L16.0842 14.1346C16.1967 14.022 16.3493 13.9586 16.5085 13.9586C16.6677 13.9585 16.8204 14.0217 16.9329 14.1342C17.1672 14.3684 17.1674 14.7482 16.9333 14.9825L16.3035 15.6133L16.9342 16.2431C17.0468 16.3556 17.1101 16.5082 17.1101 16.6674C17.1102 16.8265 17.047 16.9792 16.9345 17.0918ZM18.9688 8.40347L16.2409 11.795C16.2187 11.8224 16.1941 11.8477 16.1674 11.8708C15.9165 12.087 15.5379 12.0591 15.3214 11.8084L13.9401 10.2082C13.8361 10.0877 13.7842 9.93081 13.7959 9.77204C13.8076 9.61327 13.882 9.46567 14.0025 9.36172C14.2534 9.14546 14.6321 9.17339 14.8485 9.42412L15.6076 10.3035C15.6502 10.3529 15.7122 10.3813 15.7775 10.3815C15.8428 10.3816 15.9049 10.3534 15.9477 10.3042L18.3277 7.78357C18.5453 7.53356 18.7804 7.4594 19.0303 7.67713C19.2801 7.89474 19.1863 8.1536 18.9688 8.40347Z" fill="currentColor"/>
</svg>
