<svg width="24" height="24" viewBox="0 0 24 24" fill="currentColor" xmlns="http://www.w3.org/2000/svg">
<path fill-rule="evenodd" clip-rule="evenodd" d="M15.3666 12.6201C15.1389 12.692 14.892 12.6706 14.6802 12.5605L4.40508 7.22162C4.31434 7.17458 4.23226 7.11247 4.16234 7.03792L3.58529 8.14835C3.51189 8.2896 3.49761 8.45422 3.54559 8.60599C3.59357 8.75777 3.69988 8.88426 3.84113 8.95766L7.83007 11.0304C7.81141 11.1518 7.80203 11.2744 7.80202 11.3972C7.8012 11.9821 8.01476 12.547 8.4023 12.985L6.6455 16.4986H4.1454C3.90986 14.611 2.94936 13.1976 1.80005 13.1976V21.6C2.94936 21.6 3.90986 20.1867 4.1454 18.2991H7.19448C7.19669 18.2991 7.1989 18.2993 7.20111 18.2993C7.20732 18.2993 7.21349 18.2987 7.21968 18.2986C7.2313 18.2984 7.24289 18.2981 7.25438 18.2974C7.26158 18.297 7.26864 18.2964 7.27577 18.2958C7.28883 18.2947 7.3018 18.2934 7.3147 18.2918C7.3195 18.2912 7.3243 18.2907 7.32895 18.29C7.36755 18.2845 7.40574 18.2764 7.44329 18.266L7.44528 18.2654C7.50272 18.2493 7.55841 18.2275 7.6115 18.2003L7.61808 18.1969C7.65088 18.1798 7.6826 18.1607 7.71305 18.1396C7.71874 18.1357 7.72433 18.1317 7.72985 18.1276C7.73881 18.1211 7.74761 18.1145 7.75625 18.1076C7.76249 18.1028 7.76875 18.098 7.77487 18.093C7.78652 18.0834 7.79791 18.0734 7.80905 18.0632C7.81596 18.0569 7.82268 18.0503 7.8294 18.0438C7.83562 18.0377 7.84171 18.0316 7.84776 18.0254C7.85381 18.0192 7.86051 18.0123 7.8667 18.0055C7.87737 17.9938 7.88777 17.9818 7.8979 17.9695C7.90231 17.9641 7.90651 17.9586 7.91081 17.9531C7.91881 17.9428 7.92666 17.9323 7.93435 17.9217C7.93745 17.9173 7.94064 17.913 7.94369 17.9085C7.95465 17.8926 7.96511 17.8763 7.97508 17.8597L7.97671 17.8568C7.98727 17.839 7.9972 17.8208 8.0065 17.8023L8.00705 17.8012L8.00844 17.7984C8.01043 17.7945 8.0125 17.7905 8.01442 17.7864L10.0127 13.7904C10.0754 13.7953 10.1388 13.7978 10.2028 13.7979C10.8233 13.7987 11.4199 13.5584 11.8666 13.1278L16.6231 15.5992C16.9173 15.7521 17.2796 15.6375 17.4324 15.3434L19.5318 11.3035L15.3666 12.6201ZM21.6 12H19.896L18.5184 14.6601L19.6449 16.0704C19.907 16.4315 20.4574 16.3665 20.6632 15.9706L22.1383 12.901C22.344 12.5049 22.0462 12.007 21.6 12ZM4.68182 6.68882L14.9568 12.028C15.0275 12.0647 15.1098 12.0718 15.1857 12.0478L20.851 10.257C20.9668 10.2205 21.0492 10.1178 21.0597 9.99688C21.0702 9.87592 21.0068 9.76056 20.899 9.70463L6.8958 2.42843C6.82518 2.39171 6.74286 2.38455 6.66696 2.40854C6.59107 2.43254 6.52782 2.48571 6.49114 2.55635L4.5539 6.28427C4.51722 6.35488 4.51008 6.43717 4.53407 6.51304C4.55806 6.58891 4.61121 6.65214 4.68182 6.68882Z" fill="currentColor"/>
</svg>
