<svg width="24" height="24" viewBox="0 0 24 24" fill="currentColor" xmlns="http://www.w3.org/2000/svg">
<path fill-rule="evenodd" clip-rule="evenodd" d="M20.2491 7.95749L16.4307 11.7759L16.0064 11.3516L19.8248 7.53322C20.0582 7.2985 20.0582 6.91941 19.8248 6.6847L17.2793 4.13911C17.0445 3.90577 16.6655 3.90577 16.4307 4.13911L16.0065 4.56338L17.0671 5.62404C17.1843 5.7412 17.1843 5.93115 17.0671 6.04831C16.95 6.16547 16.76 6.16547 16.6429 6.04831L15.5822 4.98763L14.7337 5.83618L15.3701 6.47256C15.4863 6.58986 15.4859 6.7791 15.3691 6.89589C15.2524 7.01269 15.0631 7.01311 14.9458 6.89683L14.3094 6.26042L13.4609 7.10897L14.5215 8.1696C14.5973 8.24539 14.6269 8.35585 14.5992 8.45938C14.5714 8.56291 14.4906 8.64378 14.3871 8.67152C14.2835 8.69926 14.1731 8.66966 14.0973 8.59387L13.0366 7.53319L12.6124 7.95746L12.1881 7.53319L16.0065 3.71479C16.4759 3.24811 17.2341 3.24811 17.7036 3.71479L20.2491 6.26042C20.7158 6.72986 20.7158 7.48805 20.2491 7.95749ZM19.5139 15.6857C19.661 15.8322 19.7739 16.0093 19.8448 16.2043C19.845 16.2048 19.8451 16.2054 19.8453 16.2059C19.8584 16.2435 19.8696 16.2816 19.8793 16.32C19.889 16.3584 19.8967 16.3967 19.9029 16.4354C19.9048 16.4472 19.9066 16.459 19.9082 16.4708C19.9647 16.888 19.8228 17.3076 19.5248 17.6049L18.4638 18.6652L17.6276 19.5007C17.3745 19.7542 17.0309 19.8964 16.6728 19.896H16.6712C16.6301 19.896 16.589 19.8941 16.548 19.8902C16.5438 19.8898 16.5397 19.8894 16.5356 19.889C16.4988 19.8852 16.4622 19.88 16.4257 19.8732C16.4183 19.8718 16.4109 19.8704 16.4035 19.8689C16.1523 19.8181 15.8973 19.7145 15.7027 19.5199L9.78665 13.5991L5.40528 9.22961L4.53324 6.31049L4.11178 4.92262L4.02821 4.58902C4.02831 4.5893 4.02821 4.58873 4.02821 4.58902C4.02501 4.57831 4.02195 4.56677 4.0195 4.55611C4.01864 4.55222 4.01806 4.54836 4.01727 4.54447C4.01588 4.53744 4.01441 4.53041 4.01333 4.52342C4.01266 4.51889 4.01228 4.51442 4.01172 4.50991C4.01096 4.5036 4.01012 4.49729 4.00961 4.49102C4.00925 4.48622 4.00916 4.48162 4.00894 4.47691C4.00868 4.47091 4.00817 4.46491 4.00817 4.45896C4.00817 4.45805 4.00817 4.45709 4.00817 4.45618C4.00817 4.44943 4.00848 4.44278 4.0088 4.43611C4.0088 4.43417 4.0088 4.4322 4.00896 4.43026C4.00954 4.42066 4.01045 4.41106 4.01163 4.40146C4.01194 4.39906 4.0124 4.39666 4.01273 4.39426C4.01374 4.38725 4.01482 4.38029 4.01616 4.3734C4.01681 4.37004 4.01758 4.36673 4.0183 4.36339C4.01957 4.35751 4.02092 4.35161 4.02243 4.34578C4.02336 4.34222 4.02437 4.33858 4.02538 4.33517C4.02699 4.32962 4.02867 4.32413 4.03047 4.31866C4.03164 4.31515 4.03287 4.31165 4.03407 4.30819C4.03601 4.30272 4.03812 4.2973 4.04028 4.29192C4.0416 4.28863 4.0429 4.28534 4.04429 4.2821C4.04669 4.27637 4.04943 4.27073 4.05214 4.26511C4.05344 4.26238 4.05468 4.25962 4.05603 4.25693C4.06001 4.24906 4.06421 4.24132 4.06863 4.23372L4.06923 4.23262C4.07388 4.22467 4.07883 4.21692 4.08394 4.20929C4.0856 4.20689 4.08737 4.20449 4.08908 4.20209C4.09265 4.19698 4.09627 4.19191 4.10002 4.18694C4.10218 4.18414 4.10439 4.1814 4.1066 4.17864C4.11015 4.17419 4.11377 4.16981 4.11747 4.16549C4.11987 4.16268 4.12227 4.15994 4.12484 4.15721C4.12858 4.15305 4.1324 4.14897 4.13631 4.14497C4.13885 4.14235 4.14142 4.13971 4.14404 4.13714C4.14816 4.13311 4.15241 4.1292 4.15668 4.12531C4.15923 4.12291 4.16172 4.12066 4.16432 4.1184C4.16926 4.1141 4.17432 4.11 4.17944 4.10592C4.18152 4.10429 4.18354 4.10254 4.18563 4.10093C4.19289 4.09533 4.20032 4.08996 4.20792 4.08482C4.20939 4.08382 4.21095 4.0829 4.21246 4.08192C4.21863 4.07784 4.22489 4.07386 4.23128 4.07009C4.23406 4.06843 4.23694 4.0669 4.23977 4.06529C4.24498 4.06234 4.25024 4.05946 4.25559 4.05672C4.2588 4.05506 4.26207 4.0535 4.26531 4.05192C4.27044 4.04952 4.27563 4.04712 4.28086 4.04472C4.28424 4.04323 4.28765 4.04179 4.29111 4.0404C4.29641 4.03824 4.30176 4.03622 4.30719 4.03426C4.3106 4.03303 4.314 4.03186 4.31744 4.03063C4.32322 4.02869 4.32905 4.02696 4.33491 4.02526C4.33808 4.02434 4.34117 4.02336 4.34436 4.02252C4.35156 4.02058 4.35908 4.0189 4.36652 4.01731C4.36832 4.01695 4.37007 4.01647 4.37187 4.01611C4.38113 4.01429 4.3905 4.01276 4.39997 4.01153C4.40237 4.01119 4.40504 4.01102 4.40753 4.01074C4.41452 4.00994 4.42152 4.00925 4.42858 4.00879C4.43206 4.00858 4.43559 4.00848 4.43909 4.00836C4.44528 4.0081 4.45148 4.00793 4.45774 4.00793C4.46153 4.00793 4.46535 4.00793 4.46919 4.00814C4.47526 4.00831 4.48135 4.00862 4.48747 4.00903C4.49136 4.0093 4.49523 4.00961 4.49911 4.00997C4.50538 4.01057 4.51164 4.01136 4.51793 4.0122C4.52167 4.01273 4.52542 4.01321 4.52919 4.01383C4.53605 4.01494 4.54294 4.01623 4.54983 4.01777C4.55302 4.01844 4.55619 4.01899 4.55943 4.01974C4.56951 4.02214 4.57964 4.02473 4.58976 4.0278L5.58716 4.3128L6.31246 4.53274L9.22755 5.40662L19.5139 15.6857ZM5.97615 4.84603L4.85938 5.96203L5.73754 8.89397L6.25412 8.37278L16.66 18.7713L17.0844 18.3472L6.67848 7.9488L7.95164 6.67654L18.3576 17.075L18.7819 16.6509L8.37596 6.25234L8.9101 5.72357L5.97615 4.84603ZM7.94544 12.6244L7.52117 13.0487L8.58185 14.1093C8.65764 14.1851 8.68723 14.2956 8.65948 14.3991C8.63174 14.5027 8.55087 14.5835 8.44733 14.6112C8.3438 14.639 8.23334 14.6094 8.15756 14.5336L7.0969 13.4729L6.24836 14.3214L6.88476 14.9579C7.00104 15.0752 7.00062 15.2644 6.88382 15.3812C6.76703 15.498 6.57779 15.4984 6.46049 15.3821L5.82411 14.7457L4.97559 15.5942L6.03627 16.6549C6.15343 16.7721 6.15343 16.962 6.03627 17.0792C5.91911 17.1963 5.72915 17.1963 5.612 17.0792L4.55134 16.0185L4.12707 16.4428C3.89372 16.6775 3.89372 17.0566 4.12707 17.2913L6.67265 19.8369C6.90736 20.0702 7.28646 20.0702 7.52117 19.8369L11.3396 16.0185L11.7638 16.4428L7.94542 20.2612C7.47598 20.7278 6.71779 20.7278 6.24836 20.2612L3.7028 17.7156C3.23611 17.2461 3.23611 16.4879 3.7028 16.0185L7.52119 12.2001L7.94544 12.6244Z" fill="currentColor"/>
</svg>
