<svg width="24" height="24" viewBox="0 0 24 24" fill="currentColor" xmlns="http://www.w3.org/2000/svg">
<path fill-rule="evenodd" clip-rule="evenodd" d="M20.7795 18.2906L10.3913 7.90843C10.2966 7.81241 10.2748 7.66617 10.3374 7.5467C11.1554 6.02991 10.8804 4.15597 9.66106 2.93819C7.77773 1.05599 4.4496 1.49877 3.25179 4.2683C2.85688 5.18519 2.86145 6.22508 3.26441 7.13846C4.29778 9.48496 6.86489 10.1464 8.76075 9.12244C8.87982 9.06121 9.02491 9.08476 9.11849 9.18052L16.3331 16.3909L16.961 17.0184C17.0178 17.0738 17.0502 17.1495 17.0509 17.2289C17.0517 17.3082 17.0209 17.3846 16.9652 17.4411C16.8467 17.5585 16.6559 17.5591 16.5367 17.4424L16.1125 17.0184C16.0595 16.9624 15.9859 16.9306 15.9088 16.9306C15.8317 16.9306 15.7581 16.9624 15.7051 17.0184L14.008 18.7145C13.8909 18.8315 13.8739 19.0214 13.991 19.1386L14.6359 19.7832L15.0602 20.2072L15.4845 19.7832L15.9088 19.3592L16.7574 20.2073L16.3331 20.6313L15.9088 21.0552L16.3331 21.4792L16.961 22.1068C17.0848 22.2239 17.2785 22.2239 17.4023 22.1068L19.0994 20.4107C19.2165 20.2936 19.1996 20.1037 19.0824 19.9866L18.6581 19.5626C18.5411 19.4456 18.553 19.2616 18.6695 19.144C18.7227 19.0871 18.7968 19.0544 18.8747 19.0534C18.9526 19.0523 19.0276 19.0831 19.0823 19.1386L19.3029 19.359L19.4896 19.5456C19.8266 19.8824 20.3803 19.9175 20.7388 19.6044C20.9255 19.4397 21.0358 19.2051 21.0435 18.9563C21.0512 18.7075 20.9557 18.4665 20.7795 18.2906ZM8.93662 6.29632C8.22807 8.28969 5.58516 8.28832 4.87462 6.29433C4.73578 5.90434 4.73558 5.47843 4.87404 5.08831C5.58262 3.09496 8.2255 3.09631 8.93602 5.0903C9.07486 5.48028 9.07507 5.9062 8.93662 6.29632Z" fill="currentColor"/>
</svg>
