<svg width="24" height="24" viewBox="0 0 24 24" fill="currentColor" xmlns="http://www.w3.org/2000/svg">
<path fill-rule="evenodd" clip-rule="evenodd" d="M12 1.79999C6.36668 1.79999 1.79999 6.36668 1.79999 12C1.79999 12.3081 1.81345 12.6127 1.84038 12.9141C2.02921 15.0441 2.88553 17.0602 4.2873 18.6751C4.34072 18.7368 4.39488 18.7978 4.44976 18.8582C5.2213 19.7074 6.13006 20.4209 7.13807 20.9689C7.21032 21.0081 7.28312 21.0465 7.35647 21.0841C7.53973 21.178 7.72613 21.2664 7.91567 21.3494C7.95356 21.3659 7.99157 21.3823 8.02972 21.3984C8.29666 21.5113 8.56922 21.613 8.8474 21.7035C8.88709 21.7163 8.92691 21.729 8.96684 21.7414C9.41012 21.8793 9.86233 21.9865 10.3203 22.0623C10.4043 22.0763 10.4888 22.0892 10.5735 22.101C10.743 22.1247 10.9138 22.1443 11.0859 22.1596C11.387 22.1863 11.6917 22.2 12 22.2C12.3083 22.2 12.6129 22.1867 12.9141 22.1596C13.0861 22.1443 13.2569 22.1248 13.4265 22.101C13.5113 22.0892 13.5957 22.0763 13.6797 22.0623C14.1377 21.9865 14.5899 21.8793 15.0332 21.7414C15.0731 21.729 15.1129 21.7163 15.1526 21.7035C15.4306 21.6132 15.7032 21.5115 15.9703 21.3984C16.0084 21.3823 16.0464 21.3659 16.0843 21.3494C16.2738 21.2665 16.4602 21.178 16.6435 21.0841C16.7168 21.0466 16.7896 21.0082 16.8619 20.9689C17.8699 20.4209 18.7787 19.7074 19.5502 18.8582C19.6051 18.7978 19.6592 18.7368 19.7127 18.6751C21.1144 17.0602 21.9708 15.0441 22.1596 12.9141C22.1863 12.6129 22.2 12.3083 22.2 12C22.2 6.36668 17.6333 1.79999 12 1.79999ZM4.25936 8.73088C5.81245 5.04581 9.74808 2.96653 13.6675 3.76036C17.5869 4.55419 20.4032 8.00102 20.4 12H14.4V17.4H12.6V13.8H11.4V17.4H9.59999V12H3.59997C3.59761 10.877 3.82188 9.76512 4.25936 8.73088ZM12 8.99999C10.6745 8.99999 9.59999 10.0745 9.59999 11.4V12H14.4V11.4C14.4 10.0745 13.3255 8.99999 12 8.99999ZM12 8.39999C12.9941 8.39999 13.8 7.5941 13.8 6.59999C13.8 5.60588 12.9941 4.79999 12 4.79999C11.0059 4.79999 10.2 5.60588 10.2 6.59999C10.2 7.5941 11.0059 8.39999 12 8.39999Z" fill="currentColor"/>
</svg>
