<svg width="24" height="24" viewBox="0 0 24 24" fill="currentColor" xmlns="http://www.w3.org/2000/svg">
<path fill-rule="evenodd" clip-rule="evenodd" d="M21.8176 17.6007L13.9343 4.10847C13.53 3.41741 12.7893 2.99268 11.9887 2.99268C11.1881 2.99268 10.4475 3.41741 10.0433 4.10847L2.17897 17.5675L2.17811 17.569L2.1596 17.6007C1.753 18.2966 1.75028 19.1569 2.15217 19.8555C2.55407 20.5541 3.29924 20.984 4.10519 20.9823H19.8723C20.6782 20.9839 21.4232 20.5539 21.8251 19.8554C22.227 19.1568 22.2241 18.2966 21.8176 17.6007ZM16.4869 15.6095H13.4881V18.6078H10.4893V15.6095H7.49048V12.6113H10.4893V9.61299H13.4881V12.6113H16.4869V15.6095Z" fill="currentColor"/>
</svg>
