<svg width="24" height="24" viewBox="0 0 24 24" fill="currentColor" xmlns="http://www.w3.org/2000/svg">
<path fill-rule="evenodd" clip-rule="evenodd" d="M2.9999 12.5999V20.3999C2.9999 21.0627 3.53716 21.5999 4.1999 21.5999H11.3999V12.5999H2.9999ZM12.5999 12.5999V21.5999H19.7999C20.4626 21.5999 20.9999 21.0627 20.9999 20.3999V12.5999H12.5999ZM20.3999 7.19991H15.6719C16.0458 7.17721 16.4605 7.0725 16.7911 6.88338C17.5354 6.45776 17.9961 5.66741 17.9996 4.81006C18.0031 3.95271 17.549 3.1586 16.8083 2.72686C16.0675 2.29513 15.1528 2.29136 14.4085 2.71698C14.0176 2.94056 13.732 3.2253 13.5265 3.59132L11.9999 6.18491L10.4733 3.59144C10.2679 3.22542 9.98225 2.94068 9.59138 2.7171C8.84713 2.29148 7.93234 2.29525 7.19162 2.72698C6.45089 3.15872 5.99676 3.95283 6.00029 4.81018C6.00382 5.66753 6.46448 6.45788 7.20873 6.8835C7.53933 7.07252 7.95401 7.17723 8.3279 7.19991H3.5999C2.93716 7.19991 2.3999 7.73717 2.3999 8.39991V11.3999H11.3999V7.20423H12.5999V11.3999H21.5999V8.39991C21.5999 7.73717 21.0626 7.19991 20.3999 7.19991ZM7.35859 4.20433C7.57324 3.83069 7.97116 3.6002 8.40206 3.59991C8.6104 3.59958 8.81513 3.65436 8.99546 3.7587C9.19466 3.87267 9.32774 4.00223 9.42684 4.1787L9.43286 4.18945L9.4391 4.20006L10.501 6.00414H8.51565L8.50365 6.00438C8.49609 6.00455 8.48844 6.00462 8.48078 6.00462C8.24669 6.00462 7.97498 5.93915 7.80463 5.84171C7.23003 5.51217 7.03051 4.77976 7.35859 4.20433ZM14.5607 4.20015L14.5669 4.18955L14.573 4.17879C14.6721 4.00225 14.8051 3.8727 15.0043 3.75879C15.1847 3.65443 15.3894 3.59961 15.5978 3.59991C16.1423 3.59901 16.6191 3.9648 16.7593 4.49092C16.8995 5.01704 16.668 5.57162 16.1952 5.84178C16.0248 5.93922 15.7532 6.00469 15.5191 6.00469C15.5114 6.00469 15.5038 6.00469 15.4962 6.00445L15.4842 6.00421H13.4987L14.5607 4.20015ZM16.7879 7.47111C16.8651 7.47111 16.8653 7.35111 16.7879 7.35111C16.7106 7.35111 16.7106 7.47111 16.7879 7.47111Z" fill="currentColor"/>
</svg>
