<svg width="24" height="24" viewBox="0 0 24 24" fill="currentColor" xmlns="http://www.w3.org/2000/svg">
<path fill-rule="evenodd" clip-rule="evenodd" d="M11.988 6.87319C9.48952 6.86972 7.09254 7.86151 5.32696 9.62933L6.50245 10.8036C7.95696 9.34804 9.93031 8.53025 11.988 8.53025C14.0457 8.53025 16.0191 9.34804 17.4736 10.8036L18.6491 9.62933C16.8835 7.86152 14.4865 6.86972 11.988 6.87319ZM2.97601 7.28089L4.15149 8.45521C6.22945 6.37606 9.04849 5.20791 11.988 5.20791C14.9275 5.20791 17.7466 6.37606 19.8245 8.45521L21 7.28089C16.0206 2.30904 7.95542 2.30904 2.97601 7.28089ZM7.67793 11.9777L8.8534 13.152C10.5854 11.4227 13.3907 11.4227 15.1226 13.152L16.2981 11.9778C13.9166 9.59996 10.0594 9.59987 7.67793 11.9777ZM9.18261 19.548C9.2988 19.6854 9.45602 19.7541 9.65428 19.7541C9.85525 19.7541 10.0121 19.6857 10.1249 19.549C10.2377 19.4123 10.2941 19.2428 10.2941 19.0404V14.6969C10.2941 14.496 10.2374 14.3268 10.1239 14.1894C10.0104 14.0519 9.85389 13.9832 9.65428 13.9832C9.4533 13.9832 9.29539 14.0519 9.18054 14.1894C9.06569 14.3268 9.00828 14.496 9.00829 14.6969V19.0405C9.00829 19.2415 9.0664 19.4106 9.18261 19.548ZM14.1067 19.4773C14.2461 19.6618 14.4615 19.7541 14.7527 19.7541C14.8949 19.7541 15.0186 19.6919 15.1239 19.5675C15.2258 19.452 15.282 19.3032 15.2818 19.1491C15.2796 19.101 15.2741 19.053 15.2654 19.0056C15.2353 18.8825 15.1375 18.7314 14.9721 18.5523L13.879 17.3526C14.2755 17.261 14.5695 17.1236 14.7609 16.9404C15.0521 16.6561 15.1977 16.261 15.1977 15.7551C15.198 15.5184 15.1462 15.2845 15.0459 15.0701C14.9472 14.8546 14.8015 14.664 14.6194 14.5123C14.2666 14.2211 13.8045 14.0755 13.2331 14.0755H11.939C11.6929 14.0755 11.5012 14.1435 11.3638 14.2795C11.2264 14.4155 11.1576 14.6053 11.1576 14.8488V19.0405C11.1576 19.2415 11.2157 19.4106 11.3319 19.5481C11.4482 19.6855 11.6054 19.7541 11.8036 19.7541C12.0046 19.7541 12.1615 19.6858 12.2743 19.5491C12.387 19.4123 12.4434 19.2428 12.4435 19.0405V17.3937L14.1067 19.4773ZM12.4435 15.1933H13.2146C13.4008 15.1913 13.5811 15.2589 13.7201 15.3829C13.861 15.4991 13.9413 15.673 13.9385 15.8557C13.9385 16.0471 13.8718 16.2016 13.7385 16.3191C13.6052 16.4367 13.4394 16.4955 13.2412 16.4955H12.4435L12.4435 15.1933Z" fill="currentColor"/>
</svg>
