<svg width="24" height="24" viewBox="0 0 24 24" fill="currentColor" xmlns="http://www.w3.org/2000/svg">
<path fill-rule="evenodd" clip-rule="evenodd" d="M5.07438 8.17461L4.59935 10.872L4.63328 10.9059C4.9612 10.578 5.31183 10.3433 5.68516 10.2019C6.05848 10.0604 6.48264 9.98975 6.95761 9.98985C7.54558 9.98985 8.06587 10.0973 8.51848 10.3122C8.95689 10.5167 9.34714 10.8115 9.66366 11.1773C9.97462 11.5394 10.2121 11.9663 10.3762 12.4581C10.5424 12.9644 10.6255 13.4944 10.6222 14.0273C10.6222 14.638 10.5035 15.2062 10.266 15.7321C10.0376 16.2449 9.71208 16.7087 9.30738 17.0977C8.9038 17.4836 8.4282 17.7862 7.9077 17.9883C7.36748 18.1989 6.79074 18.2998 6.21112 18.2852C5.65166 18.2876 5.09469 18.2105 4.55694 18.0562C4.04971 17.9129 3.57459 17.6739 3.15726 17.352C2.74974 17.0351 2.41672 16.6327 2.18171 16.1731C1.93843 15.7039 1.81119 15.1582 1.79999 14.5361H4.20913C4.26561 15.0789 4.4692 15.5115 4.81991 15.8338C5.17031 16.1561 5.61708 16.3173 6.16021 16.3173C6.47672 16.3173 6.76232 16.2523 7.01701 16.1222C7.26419 15.998 7.48354 15.8249 7.66172 15.6133C7.84089 15.3971 7.97886 15.1498 8.06879 14.8838C8.16459 14.6084 8.21335 14.3188 8.213 14.0272C8.21478 13.7333 8.16895 13.4412 8.07728 13.162C7.99158 12.8992 7.85301 12.6568 7.6701 12.4495C7.49108 12.2475 7.27137 12.0857 7.02539 11.9745C6.77649 11.8616 6.48808 11.8051 6.16014 11.8049C5.73016 11.8049 5.37952 11.8812 5.10824 12.0339C4.83696 12.1866 4.58248 12.4269 4.34478 12.7549H2.17324L3.34388 6.18983H9.97748V8.17463L5.07438 8.17461ZM18.6301 17.9712C18.0532 18.2143 17.4707 18.336 16.8826 18.336C15.9551 18.336 15.1209 18.1748 14.3802 17.8525C13.6395 17.5302 13.0146 17.0863 12.5055 16.5208C11.9965 15.9555 11.6062 15.291 11.3348 14.5276C11.0634 13.7642 10.9276 12.9414 10.9276 12.0593C10.9276 11.1547 11.0633 10.315 11.3348 9.54021C11.6063 8.7657 11.9965 8.08997 12.5055 7.51302C13.0144 6.93608 13.6393 6.48373 14.3802 6.15597C15.1208 5.82808 15.955 5.66395 16.8826 5.66395C17.4958 5.66261 18.1055 5.75705 18.6895 5.94386C19.2594 6.12397 19.7934 6.40242 20.2673 6.76662C20.7396 7.13201 21.1347 7.58753 21.4296 8.10676C21.735 8.63846 21.9216 9.24916 21.9895 9.93887H19.4445C19.2859 9.2603 18.9806 8.75138 18.5283 8.41211C18.0758 8.07283 17.5272 7.90323 16.8826 7.90331C16.283 7.90331 15.774 8.01923 15.3557 8.25107C14.9458 8.475 14.5965 8.7952 14.3378 9.1841C14.0774 9.57427 13.888 10.0182 13.7694 10.5157C13.6497 11.0215 13.5899 11.5397 13.5913 12.0595C13.5902 12.5596 13.65 13.0581 13.7694 13.5438C13.8802 14.0067 14.0727 14.4462 14.3378 14.8415C14.5983 15.2267 14.9474 15.5437 15.3557 15.7661C15.774 15.998 16.283 16.1139 16.8826 16.1138C17.7649 16.1138 18.4463 15.8905 18.927 15.4438C19.4077 14.997 19.6877 14.3496 19.7668 13.5014H17.0862V11.5166H22.176V18.0646H20.4794L20.208 16.6905C19.7329 17.3012 19.2069 17.7281 18.6301 17.9712Z" fill="currentColor"/>
</svg>
