<svg width="24" height="24" viewBox="0 0 24 24" fill="currentColor" xmlns="http://www.w3.org/2000/svg">
<path fill-rule="evenodd" clip-rule="evenodd" d="M19.824 4.2H4.2C2.88 4.2 1.8 4.92 1.8 6.24V17.064C1.8 18.384 2.88 19.8 4.2 19.8H19.824C21.144 19.8 22.2 18.384 22.2 17.064V6.24C22.2 4.92 21.144 4.2 19.824 4.2ZM5.424 9.087V9.537C5.42397 9.82305 5.24368 10.078 4.974 10.1734V16.662C4.974 16.9105 4.77253 17.112 4.524 17.112C4.27548 17.112 4.074 16.9105 4.074 16.662V10.1734C3.80432 10.078 3.62403 9.82305 3.624 9.537V7.287C3.624 7.16274 3.72474 7.062 3.849 7.062C3.97327 7.062 4.074 7.16274 4.074 7.287V9.087H4.299V7.287C4.299 7.16274 4.39974 7.062 4.524 7.062C4.64827 7.062 4.749 7.16274 4.749 7.287V9.087H4.974V7.287C4.974 7.16274 5.07474 7.062 5.199 7.062C5.32327 7.062 5.424 7.16274 5.424 7.287V9.087ZM11.9869 17.7196C8.87443 17.7196 6.35124 15.1004 6.35124 11.9879C6.35124 8.87534 8.87443 6.35215 11.9869 6.35215C15.0995 6.35215 17.6227 8.87534 17.6227 11.9879C17.6227 15.1004 15.0995 17.7196 11.9869 17.7196ZM19.8 10.416V16.536C19.8 16.9584 19.6191 17.136 19.392 17.136C19.1649 17.136 18.984 16.9914 18.984 16.536L18.9872 12.5591H18.576V8.32375C18.576 7.54407 19.0363 6.912 19.604 6.912C19.7175 6.912 19.8 6.876 19.8 7.032V10.416ZM11.9869 7.53586C9.50168 7.53586 7.48695 9.55059 7.48695 12.0359C7.48695 14.5211 9.50168 16.5359 11.9869 16.5359C14.4722 16.5359 16.4869 14.5211 16.4869 12.0359C16.4869 9.55059 14.4722 7.53586 11.9869 7.53586ZM11.9869 16.2679C9.64967 16.2679 7.75493 14.3731 7.75493 12.0359C7.75493 9.69858 9.64967 7.80384 11.9869 7.80384C14.3242 7.80384 16.219 9.69858 16.219 12.0359C16.219 13.1583 15.7731 14.2347 14.9794 15.0283C14.1858 15.822 13.1093 16.2679 11.9869 16.2679Z" fill="currentColor"/>
</svg>
