<svg width="24" height="24" viewBox="0 0 24 24" fill="currentColor" xmlns="http://www.w3.org/2000/svg">
<path fill-rule="evenodd" clip-rule="evenodd" d="M20.4432 4.13337C18.1139 1.80432 14.3465 1.79071 12 4.09181C9.65352 1.79071 5.8861 1.80432 3.55692 4.13337C1.25191 6.43829 1.2144 10.1519 3.44412 12.5027L12 21.936L20.556 12.5028C22.7856 10.1519 22.7481 6.43829 20.4432 4.13337ZM18.8718 10.7893L12 18.4007L5.12825 10.7894L5.12477 10.7855C3.81845 9.33533 3.90559 7.10836 5.32122 5.76472C6.73686 4.42108 8.96533 4.45018 10.3454 5.83034C10.3489 5.83389 10.3525 5.8374 10.3562 5.84085L11.4071 6.84021L12 7.41081L12.5928 6.84033L13.6439 5.84085C13.6475 5.8374 13.6511 5.83389 13.6546 5.83034C14.3284 5.15305 15.2451 4.7734 16.2004 4.776C17.6225 4.77593 18.9113 5.61296 19.4895 6.91212C20.0678 8.21128 19.8271 9.72908 18.8753 10.7856L18.8718 10.7893Z" fill="currentColor"/>
</svg>
