<svg width="24" height="24" viewBox="0 0 24 24" fill="currentColor" xmlns="http://www.w3.org/2000/svg">
<path fill-rule="evenodd" clip-rule="evenodd" d="M7.79998 9.00005C8.43166 8.99722 8.96828 9.00005 9.59998 9.00005H12C13.3913 9.00005 14.8086 8.99938 16.2 9.00005C16.4548 9.00005 16.6484 9.09902 16.7412 9.31378C16.8364 9.53419 16.824 9.74167 16.6827 9.93574C16.5702 10.0902 16.4144 10.1886 16.224 10.2C16.2041 10.2012 16.172 10.2 16.152 10.2H7.79998C7.64033 10.2018 7.4867 10.1391 7.37379 10.0262C7.26089 9.91334 7.19824 9.75971 7.19995 9.60005C7.19995 9.24485 7.43518 9.0017 7.79998 9.00005ZM16.2 12.6H12C10.6086 12.6 9.19134 12.601 7.79998 12.6C7.43216 12.5998 7.19998 12.3525 7.19998 12C7.19998 11.6945 7.49422 11.4194 7.79998 11.4C7.82398 11.3985 7.82398 11.4 7.84798 11.4C10.6267 11.4 13.4213 11.3996 16.2 11.4C16.531 11.4009 16.7992 11.669 16.8 12C16.8 12.3507 16.5537 12.6 16.2 12.6ZM7.31854 14.0394C7.43091 13.8848 7.6095 13.8108 7.79998 13.8C7.80797 13.7994 7.816 13.7994 7.82398 13.8C10.5907 13.8 13.3853 13.7998 16.152 13.8C16.2644 13.7975 16.3758 13.8211 16.4775 13.8689L15.336 15H12C10.6086 15 9.19134 15.0008 7.79998 15C7.5505 14.9999 7.37838 14.8947 7.26428 14.6717C7.15234 14.4528 7.17459 14.2373 7.31854 14.0394ZM10.1634 17.3792C9.77178 17.3801 9.38014 17.3794 8.98851 17.3794C8.60487 17.3794 8.22123 17.3801 7.83759 17.3792C7.4695 17.3783 7.19826 17.1232 7.19691 16.7784C7.19554 16.4328 7.46612 16.1724 7.83174 16.1719C8.61094 16.1708 9.3902 16.1708 10.1695 16.1719C10.5349 16.1724 10.8053 16.4327 10.804 16.7786C10.8027 17.1234 10.5316 17.3784 10.1634 17.3792ZM16.0608 6.60005H19.8L15 1.80005V5.40005C15 6.06276 15.4719 6.60005 16.0608 6.60005ZM22.6562 12.3833C22.6488 12.1543 22.5541 11.9368 22.3914 11.7754L21.3587 10.7422L20.9348 10.3181L20.5107 10.7421L19.8 11.448V7.80005H16.1939C15.5581 7.79967 14.9485 7.5465 14.4994 7.09632C14.0504 6.64614 13.7988 6.0359 13.8 5.40005V1.80005H4.19977V20.9946C4.19977 20.9965 4.19977 20.9982 4.19977 21C4.19977 21.6626 4.73669 22.2001 5.39926 22.2001H19.8V15.624L22.3822 13.0416C22.3912 13.0332 22.4001 13.0244 22.409 13.0151C22.5733 12.8465 22.6627 12.6186 22.6562 12.3833ZM20.6319 13.9395C20.6285 13.9435 20.6248 13.9472 20.6207 13.9506C18.9692 15.6032 15.5015 19.0726 14.4317 20.143L11.8006 21.5024L13.1948 18.9056L19.5783 12.5271L20.6202 13.5416C20.6736 13.5941 20.7054 13.6648 20.7092 13.7396C20.7127 13.8142 20.6848 13.8868 20.6319 13.9395ZM21.9787 12.5974C21.9754 12.6011 21.9718 12.6046 21.968 12.6078L21.2388 13.3368L20.0018 12.0992L20.9345 11.1666L21.9669 12.1995C22.0817 12.3144 22.087 12.4891 21.9787 12.5974Z" fill="currentColor"/>
</svg>
