<svg width="24" height="24" viewBox="0 0 24 24" fill="currentColor" xmlns="http://www.w3.org/2000/svg">
<path fill-rule="evenodd" clip-rule="evenodd" d="M1.79999 4.80005V16.8L4.19999 19.2H22.2V4.80005H1.79999ZM12 6.00005C12.497 6.00005 12.9 6.40299 12.9 6.90005C12.9 7.3971 12.497 7.80005 12 7.80005C11.5029 7.80005 11.1 7.3971 11.1 6.90005C11.1 6.40299 11.5029 6.00005 12 6.00005ZM10.2 14.0123L10.4236 14.0098C10.658 14.0022 10.8321 13.9357 10.9414 13.8119C10.9802 13.7672 11.0461 13.6146 11.0461 13.1015V9.67889C11.0461 9.19087 10.978 9.00689 10.9209 8.93856C10.8403 8.8423 10.6721 8.7857 10.4213 8.77056L10.2 8.76586V8.40005H12.9659V13.1016C12.9659 13.59 13.0338 13.7736 13.0909 13.842C13.1714 13.9382 13.3416 13.9947 13.5968 14.01L13.8 14.016V14.4H10.2V14.0123ZM20.7 18C20.5343 18 20.4 17.8657 20.4 17.7C20.4 17.5344 20.5343 17.4 20.7 17.4C20.8657 17.4 21 17.5344 21 17.7C21 17.8657 20.8657 18 20.7 18ZM21 16.2H4.79999V15.6H21V16.2Z" fill="currentColor"/>
</svg>
