<svg width="24" height="24" viewBox="0 0 24 24" fill="currentColor" xmlns="http://www.w3.org/2000/svg">
<path fill-rule="evenodd" clip-rule="evenodd" d="M19.8 3H2.40002V15.6C2.40002 16.5941 3.20591 17.4 4.20002 17.4H6.60002V21L10.2 17.4H21.6V4.8C21.6 3.80589 20.7941 3 19.8 3ZM16.2 15H7.80002C7.37034 15 6.97342 14.7703 6.75942 14.3977C6.54542 14.0251 6.54701 13.5665 6.76358 13.1954L6.77345 13.1785C6.7733 13.1788 6.77362 13.1782 6.77345 13.1785L10.9636 5.99542C11.1786 5.62673 11.5732 5.40001 12 5.40001C12.4268 5.40001 12.8215 5.62673 13.0365 5.99542L17.2365 13.1954C17.453 13.5665 17.4545 14.0251 17.2405 14.3977C17.0266 14.7703 16.6297 15 16.2 15ZM12.3 7.8H11.7C11.5343 7.8 11.4 7.93431 11.4 8.1V9.6L11.76 12H12.24L12.6 9.6V8.1C12.6 7.93431 12.4657 7.8 12.3 7.8ZM12.6 13.8H11.4V12.6H12.6V13.8Z" fill="currentColor"/>
</svg>
