<svg width="24" height="24" viewBox="0 0 24 24" fill="currentColor" xmlns="http://www.w3.org/2000/svg">
<path fill-rule="evenodd" clip-rule="evenodd" d="M15.3264 15.0002L16.6625 16.2618C17.6463 17.1907 17.6463 18.697 16.6625 19.626L14.213 21.9389C13.8441 22.2872 13.2458 22.2872 12.877 21.9389C12.7006 21.7765 12.6003 21.5478 12.6003 21.3081C12.6003 21.0684 12.7006 20.8396 12.877 20.6773L14.4357 19.2054C14.5533 19.0972 14.6202 18.9447 14.6202 18.7849C14.6202 18.6251 14.5533 18.4726 14.4357 18.3644L13.0996 17.1028L15.3264 15.0002ZM8.67409 15.0002L7.33803 16.2618C6.35417 17.1907 6.35417 18.697 7.33803 19.626L9.78747 21.9389C10.1564 22.2872 10.7547 22.2872 11.1235 21.9389C11.2999 21.7765 11.4002 21.5478 11.4002 21.3081C11.4002 21.0684 11.2999 20.8396 11.1235 20.6773L9.5648 19.2054C9.44722 19.0972 9.38032 18.9447 9.38032 18.7849C9.38032 18.6251 9.44722 18.4726 9.5648 18.3644L10.9008 17.1027L8.67409 15.0002ZM15.0002 4.2002C15.0002 5.85705 13.657 7.2002 12.0002 7.2002C10.3433 7.2002 9.00017 5.85705 9.00017 4.2002C9.00017 2.54334 10.3433 1.2002 12.0002 1.2002C13.657 1.2002 15.0002 2.54334 15.0002 4.2002ZM19.4378 12.251L15.6064 8.35325C15.2608 8.0002 14.7878 7.8009 14.2938 7.8002H9.7064C9.21239 7.80092 8.73941 8.00022 8.39386 8.35328L4.56238 12.251C4.07914 12.7461 4.07914 13.5363 4.56238 14.0314C4.79247 14.2672 5.10797 14.4001 5.43741 14.4001C5.76685 14.4001 6.08235 14.2672 6.31244 14.0314L8.99998 11.2973V13.8002H15V11.2973L17.6734 14.0167C18.1532 14.5049 18.9349 14.5264 19.4227 14.0465C19.9202 13.5538 19.9268 12.752 19.4378 12.251Z" fill="currentColor"/>
</svg>
