<svg width="24" height="24" viewBox="0 0 24 24" fill="currentColor" xmlns="http://www.w3.org/2000/svg">
<path fill-rule="evenodd" clip-rule="evenodd" d="M11.3991 7.12462C11.3579 4.82493 9.47463 2.98615 7.17462 2.99983C4.87461 3.01366 3.01349 4.87484 2.99974 7.17485C2.98614 9.47487 4.82498 11.358 7.12467 11.3992L11.4 11.4001L11.3991 7.12462ZM7.12481 12.6012C4.8253 12.6423 2.98661 14.5254 3.00024 16.8252C3.01402 19.1251 4.87502 20.9861 7.17486 20.9999C9.4747 21.0135 11.3578 19.1749 11.3989 16.8754H11.4V12.6002L7.12481 12.6012ZM12.6008 7.12438C12.641 4.83965 14.5001 2.99988 16.7881 2.99988C19.1012 2.99988 20.9763 4.88021 20.9763 7.19988C20.9763 9.49428 19.1416 11.3585 16.8632 11.3987L12.6 11.3997L12.6008 7.12438ZM16.8752 12.6005C19.1835 12.6368 21.0298 14.5292 21.0091 16.8377C20.9884 19.1461 19.1085 21.0051 16.8 21C14.5056 21 12.6414 19.16 12.6012 16.875H12.6V12.5997L16.8752 12.6005ZM18.6003 16.2011C18.6003 15.2069 17.7943 14.4009 16.8001 14.4009C15.8059 14.4009 14.9999 15.2069 14.9999 16.2011C14.9999 16.6077 15.1803 16.9597 15.3616 17.2842C15.4033 17.3614 15.4393 17.4287 15.4627 17.4789C15.6001 17.724 15.7701 17.9693 15.9085 18.231C16.2006 18.754 16.508 19.2771 16.8001 19.8001C17.0922 19.2771 17.3704 18.7378 17.661 18.2463C17.8581 17.9035 18.0744 17.6128 18.264 17.2799C18.4841 16.9811 18.6003 16.6008 18.6003 16.2011ZM16.8 14.9999C17.4627 15 17.9999 15.5373 17.9998 16.2C17.9998 16.8627 17.4625 17.3999 16.7998 17.3999C16.1371 17.3999 15.5998 16.8626 15.5998 16.1999C15.5998 15.8816 15.7263 15.5763 15.9514 15.3513C16.1764 15.1262 16.4817 14.9998 16.8 14.9999ZM7.8 6.40788L7.79928 9.41508C7.79928 9.68215 7.83026 9.85276 7.89221 9.92691C7.95416 10.001 8.07536 10.0435 8.25579 10.0543V10.2H6.21622V10.0543C6.38304 10.049 6.50688 10.0004 6.58774 9.90874C6.64148 9.84663 6.672 9.67493 6.672 9.40788V7.19988C6.672 6.93288 6.63747 6.76824 6.57548 6.69396C6.51348 6.61968 6.39394 6.57732 6.21622 6.56657L6.216 6.40788H7.8ZM7.23392 4.58371C7.40119 4.5806 7.56219 4.64737 7.67816 4.76796C7.79679 4.88455 7.86249 5.04464 7.85996 5.21095C7.86263 5.37711 7.79606 5.53689 7.67621 5.652C7.56002 5.77083 7.40009 5.83667 7.23392 5.83411C7.06867 5.83439 6.91014 5.76878 6.79341 5.65182C6.67668 5.53486 6.6114 5.3762 6.612 5.21095C6.60939 5.04467 6.67501 4.88457 6.79359 4.76796C6.90832 4.64793 7.06789 4.58116 7.23392 4.58371ZM15.5997 4.80012L18.6 7.19988L15.5997 9.59964V4.80012ZM7.2 14.3999C8.52549 14.3999 9.6 15.4744 9.6 16.7999C9.6 18.1254 8.52549 19.1999 7.2 19.1999C5.87452 19.1999 4.8 18.1254 4.8 16.7999C4.8 15.4744 5.87452 14.3999 7.2 14.3999ZM8.388 17.3999H7.188C7.02232 17.3999 6.888 17.2656 6.888 17.0999V15.2999C6.888 15.1342 7.02232 14.9999 7.188 14.9999C7.35369 14.9999 7.488 15.1342 7.488 15.2999V16.7999H8.388C8.55369 16.7999 8.688 16.9342 8.688 17.0999C8.688 17.2656 8.55369 17.3999 8.388 17.3999Z" fill="currentColor"/>
</svg>
