<svg width="24" height="24" viewBox="0 0 24 24" fill="currentColor" xmlns="http://www.w3.org/2000/svg">
<path fill-rule="evenodd" clip-rule="evenodd" d="M18.6 8.40005C18.6 4.75505 15.6451 1.80005 12 1.80005C8.35496 1.80005 5.4 4.75505 5.4 8.40005C5.39824 9.54954 5.69811 10.6794 6.26965 11.6767L12 22.2001L17.7305 11.6767C18.302 10.6794 18.6018 9.54954 18.6 8.40005ZM16.8 8.10005H15V11.7C15 12.1971 14.5971 12.6001 14.1 12.6001H9.90001C9.40295 12.6001 9.00001 12.1971 9.00001 11.7V8.10005H7.20001L9.00001 6.26856V4.80005H10.4433L11.3568 3.87055C11.5258 3.69767 11.7572 3.60035 11.999 3.60005C12.2407 3.59976 12.4724 3.69679 12.6418 3.86926L16.8 8.10005ZM10.5 11.1C10.1686 11.1 9.90001 10.8314 9.90001 10.5V8.10005H12.3C12.6314 8.10005 12.9 8.36868 12.9 8.70005V11.1H10.5Z" fill="currentColor"/>
</svg>
