<svg width="24" height="24" viewBox="0 0 24 24" fill="currentColor" xmlns="http://www.w3.org/2000/svg">
<path fill-rule="evenodd" clip-rule="evenodd" d="M1.94307 9.85366C2.29781 8.71647 2.85507 7.78616 3.60608 7.70293C5.04442 7.54327 6.72075 9.95478 7.01408 12.7896C7.28528 15.4107 6.67145 18.28 5.23275 18.4397C4.35709 18.537 3.54586 18.1805 2.91675 16.8192C3.88738 17.0854 5.11837 16.6954 5.11837 16.6954C5.55581 15.2805 5.55233 12.6775 5.55233 12.6775C4.65349 10.3013 3.67349 9.21036 3.67349 9.21036C3.67349 9.21036 2.68364 9.43366 1.94307 9.85366ZM3.09411 15.3615C2.52833 15.4295 1.96131 14.5877 1.82823 13.4814C1.69515 12.3751 2.04617 11.4231 2.61197 11.3553C3.17775 11.2871 3.74477 12.1287 3.87783 13.235C4.01089 14.3413 3.66003 15.2932 3.09411 15.3615ZM16.0064 9.92408C16.1253 10.9593 15.3962 11.8928 14.3787 12.0093C13.3607 12.1261 12.4393 11.3815 12.3209 10.3463C12.202 9.31134 12.9311 8.37785 13.9488 8.26104C14.9666 8.14423 15.888 8.88925 16.0064 9.92408ZM19.3909 9.55104C19.0302 6.40657 16.3309 4.13299 13.3619 4.4731C10.3928 4.81321 8.279 7.63837 8.63965 10.783C8.94963 13.4869 10.9896 15.5469 13.4434 15.8544C13.4434 15.8544 13.3962 15.3125 13.3342 14.7729C13.2727 14.2363 13.1965 13.7068 13.1965 13.7068L12.5535 13.7756C12.5535 13.7756 11.8119 13.0671 11.2335 12.2456C10.6926 11.4769 10.3122 10.5914 10.3122 10.5914C10.3122 10.5914 10.5862 9.61969 10.9489 8.72536C11.194 8.13079 11.4694 7.54912 11.7739 6.98264C12.3548 6.84988 12.9422 6.74727 13.5336 6.67523C14.4891 6.56593 15.4771 6.55828 15.4771 6.55828C15.4771 6.55828 16.1437 7.21676 16.6971 8.00325C17.2643 8.80886 17.7184 9.74245 17.7184 9.74245C17.7184 9.74245 17.5957 10.632 17.2326 11.5277C16.8644 12.436 16.2566 13.3509 16.2566 13.3509L15.6784 13.4466C15.6784 13.4466 15.7552 13.9564 15.7936 14.4799C15.8349 15.0318 15.8606 15.5774 15.8606 15.5774C18.1809 14.7231 19.7011 12.2552 19.3909 9.55104ZM18.3104 4.84415C16.944 3.61492 15.8126 2.6513 15.8286 2.59232C15.8363 2.5638 16.1733 2.70963 16.7036 2.98287C17.4178 3.35736 18.0839 3.81688 18.6876 4.3514C20.0973 5.59355 20.8371 6.94542 20.8194 6.99934C20.7947 7.07479 19.677 6.07294 18.3104 4.84415ZM8.50822 2.38262C7.77092 2.64029 7.14236 2.96008 6.5731 3.29712C7.34199 3.14558 8.83294 2.81886 10.2205 1.94437C9.78584 1.99994 9.08288 2.18172 8.50822 2.38262ZM13.5118 2.05664C13.4583 1.90127 12.5206 1.74421 11.3217 1.81948C11.5637 1.86157 11.819 1.93511 11.9913 2.04434L9.33281 3.23792L6.15363 4.07209C6.15363 4.07209 5.9624 4.05794 5.75614 3.85184C4.93054 4.48142 4.40568 5.04739 4.4209 5.18087C4.45191 5.45279 6.61733 4.95038 9.12785 4.08756C11.6383 3.22514 13.6009 2.31546 13.5118 2.05664ZM20.661 13.2301C20.9886 10.9014 21.4607 8.99587 21.6901 9.07502C21.8326 9.12402 22.4344 11.1565 22.1005 13.4974C21.822 15.4512 20.7921 17.4137 20.4 17.3902C20.1576 17.376 20.3328 15.5589 20.661 13.2301ZM10.3419 22.1492C9.17369 21.9121 8.58692 21.454 8.42449 20.8192C8.06585 19.4179 10.3412 18.1259 13.1603 17.6956C15.7373 17.3023 17.9524 18.1283 18.1857 19.0859C18.367 19.8299 18.0186 20.4292 17.0332 21.0775C17.1995 20.0855 17.0781 19.4665 17.0781 19.4665C15.6284 19.081 13.3586 18.8688 13.3586 18.8688C10.9165 19.7938 9.84243 20.6271 9.84243 20.6271C9.84243 20.6271 9.92523 21.4557 10.3419 22.1492ZM15.6884 20.9233C15.7681 21.422 14.9405 21.9692 13.8394 22.1452C12.7383 22.3212 11.781 22.0596 11.7014 21.5609C11.6219 21.0621 12.449 20.5151 13.5501 20.3389C14.6513 20.1628 15.6082 20.4244 15.6884 20.9233Z" fill="currentColor"/>
</svg>
