<svg width="24" height="24" viewBox="0 0 24 24" fill="currentColor" xmlns="http://www.w3.org/2000/svg">
<path fill-rule="evenodd" clip-rule="evenodd" d="M16.2 7.79999C14.8745 7.79999 13.8 6.72547 13.8 5.39999V1.79999H4.2V20.9945V21C4.2 21.6627 4.73728 22.2 5.4 22.2H19.8V7.79999H16.2ZM8.7768 16.1167C8.63682 16.1166 8.50284 16.0599 8.40528 15.9595C8.20013 15.7481 8.20013 15.412 8.40528 15.2006L8.9004 14.6947C8.99788 14.5942 9.13191 14.5375 9.27192 14.5375C9.41192 14.5375 9.54595 14.5942 9.64344 14.6947C9.8484 14.9062 9.8484 15.2421 9.64344 15.4536L9.14808 15.9595C9.05061 16.0599 8.9167 16.1166 8.7768 16.1167ZM9.76704 17.1283C9.62711 17.1283 9.49316 17.0716 9.39576 16.9711C9.19056 16.7599 9.19056 16.4237 9.39576 16.2125L9.89088 15.7065C9.98831 15.6061 10.1223 15.5494 10.2623 15.5494C10.4022 15.5494 10.5362 15.6061 10.6337 15.7065C10.8388 15.9179 10.8388 16.2541 10.6337 16.4654L10.1386 16.9711C10.0411 17.0716 9.90704 17.1283 9.76704 17.1283ZM10.7575 18.1401C10.6176 18.1401 10.4836 18.0834 10.3862 17.9829C10.1811 17.7716 10.1811 17.4354 10.3862 17.2241L10.8814 16.7184C10.9788 16.6179 11.1128 16.5612 11.2528 16.5612C11.3927 16.5612 11.5267 16.6179 11.6242 16.7184C11.8294 16.9296 11.8294 17.2658 11.6242 17.477L11.129 17.9829C11.0315 18.0834 10.8975 18.1401 10.7575 18.1401ZM12.6146 18.4889L12.1193 18.9948C12.0218 19.0952 11.8878 19.1518 11.7479 19.1518C11.6079 19.1518 11.474 19.0952 11.3765 18.9948C11.1715 18.7833 11.1715 18.4474 11.3765 18.2359L11.8718 17.73C11.9694 17.6296 12.1033 17.573 12.2432 17.573C12.3832 17.573 12.5171 17.6296 12.6146 17.73C12.8196 17.9414 12.8196 18.2774 12.6146 18.4889ZM15.8335 15.7065C15.7361 15.807 15.6021 15.8637 15.4621 15.8637C15.3222 15.8637 15.1882 15.807 15.0907 15.7065L14.843 15.4536L13.1098 13.6829C13.0772 13.6494 13.0326 13.6306 12.9859 13.6306C12.9393 13.6306 12.8946 13.6494 12.8621 13.6829C12.7939 13.7534 12.7939 13.8653 12.8621 13.9358L14.5954 15.7065L14.843 15.9595C15.0482 16.1709 15.0482 16.507 14.843 16.7184C14.7455 16.8187 14.6116 16.8753 14.4716 16.8753C14.3317 16.8753 14.1978 16.8187 14.1002 16.7184L13.8526 16.4654L12.1193 14.6947C12.0868 14.6613 12.0422 14.6424 11.9956 14.6424C11.9489 14.6424 11.9043 14.6613 11.8718 14.6947C11.8034 14.7652 11.8034 14.8772 11.8718 14.9477L13.6049 16.7184L13.8526 16.9711C14.0577 17.1825 14.0577 17.5186 13.8526 17.73C13.7551 17.8305 13.6211 17.8872 13.4812 17.8872C13.3412 17.8872 13.2072 17.8305 13.1098 17.73L12.8621 17.477C12.7651 17.3775 12.6455 17.3028 12.5136 17.2591C12.5054 17.2565 12.4975 17.2538 12.4896 17.2514C12.4735 17.2466 12.4572 17.2423 12.4411 17.2385C12.425 17.2346 12.4085 17.2315 12.3919 17.2286C12.3592 17.2229 12.3262 17.219 12.293 17.2171C12.2765 17.2161 12.2599 17.2157 12.2431 17.2157C12.2016 17.2156 12.1601 17.2186 12.119 17.2245C12.1587 16.9469 12.0674 16.6665 11.8718 16.4654C11.7093 16.2982 11.4861 16.2038 11.2529 16.2038C11.2113 16.2039 11.1697 16.2069 11.1286 16.2127C11.1682 15.935 11.0769 15.6547 10.8814 15.4536C10.6886 15.2549 10.412 15.1609 10.1381 15.2011C10.1778 14.9234 10.0865 14.6429 9.89088 14.4417C9.72837 14.2745 9.50511 14.1801 9.27192 14.1801C9.03873 14.1801 8.81546 14.2745 8.65296 14.4417L8.1576 14.9477C8.14704 14.9585 8.13672 14.9695 8.12688 14.9808C8.11776 14.9911 8.10912 15.0017 8.10048 15.0122L8.09808 15.0151C8.07962 15.0381 8.0624 15.0621 8.04648 15.0869L7.68216 14.7149C7.056 14.0695 7.056 13.0433 7.68216 12.3979L9.37608 10.6677C9.67352 10.3609 10.0826 10.1877 10.51 10.1877C10.9373 10.1877 11.3464 10.3609 11.6438 10.6677L11.748 10.7741L9.5196 13.0505L10.0147 13.5564C10.2096 13.7574 10.4776 13.8708 10.7575 13.8708C11.0375 13.8708 11.3054 13.7574 11.5003 13.5564L12.9859 12.0386L15.1946 14.2951L15.8335 14.9477C16.0385 15.1591 16.0385 15.4951 15.8335 15.7065ZM16.3286 14.6947L16.2048 14.8212L12.9859 11.5327L12.8621 11.6592L12.7385 11.7857L11.2526 13.3034C11.1227 13.4374 10.9441 13.5129 10.7575 13.5129C10.5709 13.5129 10.3923 13.4374 10.2624 13.3034L10.0147 13.0505L11.9957 11.0268L12.2431 10.7741L12.367 10.6476C12.6593 10.3461 13.0613 10.176 13.4812 10.176C13.9011 10.176 14.303 10.3461 14.5954 10.6476L16.3286 12.4181C16.944 13.0522 16.944 14.0606 16.3286 14.6947ZM15 1.79999V5.39999C15 6.06287 15.4776 6.59999 16.0666 6.59999H19.8L15 1.79999Z" fill="currentColor"/>
</svg>
