<svg width="24" height="24" viewBox="0 0 24 24" fill="currentColor" xmlns="http://www.w3.org/2000/svg">
<path fill-rule="evenodd" clip-rule="evenodd" d="M21.0192 14.7908L18.2943 13.4965C20.0373 10.4751 19.365 6.63904 16.6984 4.39041C14.0319 2.14178 10.1373 2.12684 7.4536 4.35493C4.76986 6.58302 4.06815 10.4139 5.7879 13.4485L2.96214 14.7908C2.11467 15.2893 2.11467 16.5147 2.96214 17.0132L10.9124 21.0078C11.5779 21.3993 12.4034 21.3993 13.069 21.0078L21.0192 17.0132C21.8667 16.5147 21.8667 15.2893 21.0192 14.7908ZM18.0548 9.9026C18.0551 12.5597 16.3076 14.9006 13.76 15.6558L12.0548 17.7018L10.3496 15.6558C7.80173 14.901 6.05406 12.5599 6.05482 9.9026C6.05482 6.5892 8.74107 3.90332 12.0548 3.90332C15.3686 3.90332 18.0548 6.5892 18.0548 9.9026ZM7.88626 12.4521C9.04686 14.2768 11.2727 15.1164 13.3492 14.5126C15.4258 13.9089 16.8545 12.0069 16.8559 9.84435C16.8559 7.16148 14.6779 4.98658 11.9912 4.98658C9.30454 4.98658 7.12642 7.16148 7.12642 9.84435C7.12504 10.7684 7.38875 11.6734 7.88626 12.4521ZM14.2209 11.4637C14.5408 11.464 14.8059 11.7122 14.827 12.0314C14.8482 12.3507 14.6183 12.6317 14.3012 12.6743C13.9841 12.7168 13.6883 12.5062 13.6246 12.1927C13.5609 11.8791 13.7512 11.5699 14.0598 11.4853C14.1123 11.4709 14.1664 11.4637 14.2209 11.4637ZM13.6125 9.87519C13.5969 10.7629 12.8703 11.4731 11.9825 11.4683C11.0946 11.4635 10.3757 10.7456 10.3697 9.8578C10.3636 8.96995 11.0727 8.24234 11.9604 8.2255C12.4013 8.21504 12.8272 8.3854 13.1392 8.69697C13.4513 9.00854 13.6223 9.43433 13.6125 9.87519ZM8.85039 7.28515C9.49313 6.49771 10.4085 5.98074 11.4147 5.83685C11.5592 5.81575 11.7058 5.85844 11.8165 5.95386C11.9271 6.04927 11.9908 6.18802 11.9912 6.33411V7.01852C11.9903 7.23191 11.8335 7.41256 11.6223 7.44332C11.0751 7.52681 10.5729 7.79473 10.1988 8.2027C10.0139 8.40608 9.71837 8.46582 9.46902 8.3502L9.05005 8.15371C8.89222 8.08013 8.77714 7.93789 8.73813 7.76819C8.69912 7.59848 8.74054 7.42027 8.85039 7.28515ZM7.97502 9.2905C7.99627 9.13542 8.02657 8.98172 8.06576 8.83018C8.10486 8.67819 8.20961 8.55151 8.35154 8.48456C8.49348 8.4176 8.65786 8.41733 8.80002 8.48381L9.29125 8.71395C9.53201 8.82701 9.66358 9.09064 9.60918 9.351C9.60438 9.37387 9.59997 9.39686 9.59595 9.41998C9.55427 9.66439 9.34289 9.84344 9.09495 9.84435H8.46214C8.32081 9.84478 8.18617 9.78415 8.09283 9.67802C7.99949 9.5719 7.95654 9.43062 7.97502 9.2905Z" fill="currentColor"/>
</svg>
