<svg width="24" height="24" viewBox="0 0 24 24" fill="currentColor" xmlns="http://www.w3.org/2000/svg">
<path fill-rule="evenodd" clip-rule="evenodd" d="M22.8 7.19995H19.8V13.2C19.8 14.1941 18.9941 15 18 15H14.4C13.4059 15 12.6 14.1941 12.6 13.2V7.19995H9.60001L15.1462 1.63412C15.7295 1.05523 16.6705 1.05523 17.2539 1.63412L22.8 7.19995ZM14.4 16.8L8.85385 22.3658C8.27053 22.9447 7.32949 22.9447 6.74617 22.3658L1.20001 16.8H4.20001V10.8C4.20001 9.80584 5.0059 8.99996 6.00001 8.99996H9.60001C10.5941 8.99996 11.4 9.80584 11.4 10.8V16.8H14.4Z" fill="currentColor"/>
</svg>
