<svg width="24" height="24" viewBox="0 0 24 24" fill="currentColor" xmlns="http://www.w3.org/2000/svg">
<path fill-rule="evenodd" clip-rule="evenodd" d="M12 6.6L8.4 8.136L11.9831 9.33303L14.571 8.46L14.568 10.2168L14.424 10.8H15.273L15.132 10.2168L15.123 8.27964L15.5835 8.12035L12 6.6ZM11.9781 12.1898C13.0733 12.1907 13.9795 11.338 14.045 10.2448C14.0536 10.204 14.045 9.276 14.045 9.276L11.9853 9.97491L9.912 9.2832V10.1234L9.9096 10.1239L9.90881 10.1286C9.91218 11.2687 10.838 12.1909 11.9781 12.1898ZM15 17.4V14.0837C15 14.0359 15.1822 12.9622 13.6767 12.1725C13.6767 12.1725 13.1026 12.792 12.0291 12.792H12.023C12.018 12.792 12.024 12.7918 12 12.7917C11.976 12.7917 11.983 12.792 11.9779 12.792H11.9718C10.8983 12.792 10.3238 12.1725 10.3238 12.1725C8.81827 12.9622 9 14.0359 9 14.0837V16.2C9 16.7901 9.60989 17.4 10.2 17.4H15ZM16.8012 1.8H7.19882C6.88072 1.8 6.5757 1.92667 6.35088 2.15171C6.12606 2.37676 5.99984 2.6819 6 3V21C5.99967 21.6624 6.53637 22.1997 7.19878 22.2H16.8012C17.1193 22.2 17.4243 22.0733 17.6491 21.8483C17.8739 21.6232 18.0002 21.3181 18 21V3C18.0003 2.3376 17.4636 1.80035 16.8012 1.8ZM11.1 2.4H12.9C13.0657 2.4 13.2 2.53432 13.2 2.7C13.2 2.86569 13.0657 3 12.9 3H11.1C10.9343 3 10.8 2.86569 10.8 2.7C10.8 2.53432 10.9343 2.4 11.1 2.4ZM12 21.6C11.6686 21.6 11.4 21.3314 11.4 21C11.4 20.6686 11.6686 20.4 12 20.4C12.3314 20.4 12.6 20.6686 12.6 21C12.6 21.3314 12.3314 21.6 12 21.6ZM16.8 19.8H7.2V3.6H16.8V19.8Z" fill="currentColor"/>
</svg>
