<svg width="24" height="24" viewBox="0 0 24 24" fill="currentColor" xmlns="http://www.w3.org/2000/svg">
<path fill-rule="evenodd" clip-rule="evenodd" d="M3 3.60001V20.4H21V3.60001H3ZM19.8 19.2H4.2V7.20001H19.8V19.2ZM15.3056 12.3859L14.9914 11.4897C14.9635 11.4094 14.9042 11.3438 14.8271 11.3079C14.75 11.272 14.6616 11.2688 14.5822 11.2992L12.615 12.0454V9.92331C12.6145 9.74501 12.4701 9.60059 12.2918 9.60001H11.3733C11.1949 9.60053 11.0505 9.74498 11.05 9.92331V12.0454L9.14045 11.302C9.06154 11.2708 8.97334 11.2733 8.89627 11.3087C8.8192 11.3442 8.75996 11.4096 8.73226 11.4897L8.418 12.3859C8.38976 12.4665 8.39498 12.555 8.43247 12.6317C8.46996 12.7084 8.53662 12.7669 8.61754 12.7941L10.5804 13.4541L9.32762 15.1132C9.27622 15.1812 9.25428 15.267 9.2667 15.3514C9.27913 15.4358 9.32488 15.5116 9.39372 15.562L10.1825 16.1389C10.2507 16.1893 10.3366 16.2096 10.4202 16.1952C10.5038 16.1807 10.5779 16.1327 10.6252 16.0624L11.813 14.3146L13.0721 16.0672C13.1218 16.1364 13.1973 16.1829 13.2816 16.196C13.3658 16.2091 13.4519 16.1879 13.5203 16.1371L14.2923 15.5637C14.3609 15.5127 14.4062 15.4364 14.4184 15.3518C14.4305 15.2672 14.4084 15.1813 14.3569 15.1131L13.1041 13.454L15.1057 12.7923C15.1866 12.7656 15.2534 12.7075 15.291 12.6311C15.3286 12.5546 15.3339 12.4663 15.3056 12.3859Z" fill="currentColor"/>
</svg>
