<svg width="24" height="24" viewBox="0 0 24 24" fill="currentColor" xmlns="http://www.w3.org/2000/svg">
<path fill-rule="evenodd" clip-rule="evenodd" d="M18.6 8.40005C18.6 4.75505 15.645 1.80005 12 1.80005C8.35493 1.80005 5.39997 4.75505 5.39997 8.40005C5.39821 9.54954 5.69808 10.6794 6.26962 11.6767L12 22.2001L17.7304 11.6767C18.302 10.6794 18.6018 9.54954 18.6 8.40005ZM13.8111 5.40005C13.8111 6.39415 13.0002 7.20005 12 7.20005C10.9998 7.20005 10.1889 6.39415 10.1889 5.40005C10.1889 4.40594 10.9998 3.60005 12 3.60005C13.0002 3.60005 13.8111 4.40594 13.8111 5.40005ZM13.4505 7.06188C12.6166 7.77945 11.3834 7.77945 10.5495 7.06188C9.83286 7.44314 9.38475 8.18834 9.38398 9.00005V10.6001C9.38398 12.036 10.5552 13.2 12 13.2C13.4448 13.2 14.616 12.036 14.616 10.6001V9.00005C14.6152 8.18833 14.1671 7.44313 13.4505 7.06188Z" fill="currentColor"/>
</svg>
