<svg width="24" height="24" viewBox="0 0 24 24" fill="currentColor" xmlns="http://www.w3.org/2000/svg">
<path fill-rule="evenodd" clip-rule="evenodd" d="M7.79999 21.6H1.79999V19.8H7.79999V21.6ZM22.2 21.6H16.2V19.8H22.2V21.6ZM20.4 2.40002H3.59999C2.93725 2.40002 2.39999 2.93728 2.39999 3.60002V15.6C2.39999 16.2628 2.93725 16.8 3.59999 16.8H10.8V19.2H8.99999C8.66862 19.2 8.39999 19.4687 8.39999 19.8V21.6C8.39999 21.9314 8.66862 22.2 8.99999 22.2H15C15.3314 22.2 15.6 21.9314 15.6 21.6V19.8C15.6 19.4687 15.3314 19.2 15 19.2H13.2V16.8H20.4C21.0627 16.8 21.6 16.2628 21.6 15.6V3.60002C21.6 2.93728 21.0627 2.40002 20.4 2.40002ZM11.4 15.6C11.4 15.2687 11.6686 15 12 15C12.3314 15 12.6 15.2687 12.6 15.6C12.6 15.9314 12.3314 16.2 12 16.2C11.6686 16.2 11.4 15.9314 11.4 15.6ZM20.4 14.4H3.59999V3.60002H20.4V14.4Z" fill="currentColor"/>
</svg>
