<svg width="24" height="24" viewBox="0 0 24 24" fill="currentColor" xmlns="http://www.w3.org/2000/svg">
<path fill-rule="evenodd" clip-rule="evenodd" d="M16.2 7.8H12.6V6.6C12.6 5.93726 12.0627 5.4 11.4 5.4H10.8V3.6H13.5C13.9971 3.6 14.4 3.19705 14.4 2.7C14.4 2.20294 13.9971 1.8 13.5 1.8H10.7486C10.6214 1.44042 10.2814 1.2 9.9 1.2C9.51859 1.2 9.17861 1.44043 9.05141 1.8H6.3C5.80294 1.8 5.4 2.20294 5.4 2.7C5.4 3.19705 5.80294 3.6 6.3 3.6H9V5.4H8.4C7.73726 5.4 7.2 5.93726 7.2 6.6V7.8H3V12H15.6C16.2627 12 16.8 12.5373 16.8 13.2V15C16.8 15.3314 17.0686 15.6 17.4 15.6H20.4C20.7314 15.6 21 15.3314 21 15V12.6C21 9.94903 18.851 7.8 16.2 7.8ZM20.4231 19.46L18.888 16.8L17.3112 19.531C16.8889 20.2972 17.0791 21.2561 17.7614 21.8037C18.4437 22.3512 19.4209 22.3289 20.0775 21.7508C20.7341 21.1726 20.88 20.2061 20.4231 19.46ZM18.648 20.16C18.6483 20.3619 18.5223 20.5423 18.3327 20.6116C18.143 20.6808 17.9304 20.624 17.8005 20.4695C17.6707 20.315 17.6514 20.0957 17.7522 19.9208L18.648 18.3677V20.16Z" fill="currentColor"/>
</svg>
