<svg width="24" height="24" viewBox="0 0 24 24" fill="currentColor" xmlns="http://www.w3.org/2000/svg">
<path fill-rule="evenodd" clip-rule="evenodd" d="M19.8 3H2.40002V15.6C2.40002 16.5941 3.20591 17.4 4.20002 17.4H6.60002V21L10.2 17.4H21.6V4.8C21.6 3.80589 20.7941 3 19.8 3ZM17.4 6.6H6.60002C6.26865 6.6 6.00002 6.86863 6.00002 7.2C6.00002 7.53137 6.26865 7.8 6.60002 7.8H17.4C17.7314 7.8 18 7.53137 18 7.2C18 6.86863 17.7314 6.6 17.4 6.6ZM17.4 9.6H6.60002C6.26865 9.6 6.00002 9.86863 6.00002 10.2C6.00002 10.5314 6.26865 10.8 6.60002 10.8H17.4C17.7314 10.8 18 10.5314 18 10.2C18 9.86863 17.7314 9.6 17.4 9.6ZM12 12.6H6.60002C6.26865 12.6 6.00002 12.8686 6.00002 13.2C6.00002 13.5314 6.26865 13.8 6.60002 13.8H12C12.3314 13.8 12.6 13.5314 12.6 13.2C12.6 12.8686 12.3314 12.6 12 12.6Z" fill="currentColor"/>
</svg>
