<svg width="24" height="24" viewBox="0 0 24 24" fill="currentColor" xmlns="http://www.w3.org/2000/svg">
<path fill-rule="evenodd" clip-rule="evenodd" d="M21.3566 6.73463L18.9104 8.99543L18 9.83682V5.99999C18 5.33725 17.4628 4.79999 16.8 4.79999H3.00005C2.33731 4.79999 1.80005 5.33725 1.80005 5.99999V18C1.80005 18.6627 2.33731 19.2 3.00005 19.2H16.8C17.4628 19.2 18 18.6627 18 18V14.2348L18.9104 15.0762L21.3565 17.2653C21.6669 17.5521 22.2001 17.3504 22.2001 16.9461V7.05378C22.2001 6.64955 21.6669 6.44783 21.3566 6.73463ZM6.32213 14.4H2.87153V9.52129H3.94433V13.4981H6.32213V14.4ZM7.99611 14.4H6.9233V9.52129H7.99611V14.4ZM11.2076 14.4H9.99814L8.41973 9.52129H9.51984L10.6063 12.9514H10.62L11.7202 9.52129H12.8271L11.2076 14.4ZM16.9471 14.4H13.2437V9.52129H16.8925V10.4232H14.3165V11.4686H16.6806V12.3024H14.3165V13.4981H16.9471V14.4Z" fill="currentColor"/>
</svg>
