<svg width="24" height="24" viewBox="0 0 24 24" fill="currentColor" xmlns="http://www.w3.org/2000/svg">
<path fill-rule="evenodd" clip-rule="evenodd" d="M6 15.6V13.8H19.2V15.6H6ZM6 12.6V10.2H7.2V9.00002H8.4C8.4 7.67454 9.47452 6.60002 10.8 6.60002C12.1255 6.60002 13.2 7.67454 13.2 9.00002V12.6H14.4L15.6 2.40002H17.4L18.6 12.6H19.2V13.2H6V12.6ZM10.2 22.2H8.4V16.2H10.2V22.2ZM16.8 22.2H15V16.2H16.8V22.2ZM18 12.6H15L15.072 12H17.928L18 12.6ZM17.856 11.4H15.144L17.472 8.06402L17.856 11.4ZM17.352 7.20002H15.648L15.264 10.2L17.352 7.20002ZM17.304 6.60002H15.696L16.128 3.00002H16.872L17.304 6.60002Z" fill="currentColor"/>
</svg>
