<svg width="24" height="24" viewBox="0 0 24 24" fill="currentColor" xmlns="http://www.w3.org/2000/svg">
<path fill-rule="evenodd" clip-rule="evenodd" d="M14.9923 18.601H12.5961V17.402H11.3956V18.601H8.99942C8.66551 18.6009 8.39466 18.8714 8.39438 19.2053V19.8H15.5973V19.2053C15.5971 18.8714 15.3262 18.6009 14.9923 18.601ZM22.1206 14.6898C22.1042 14.6418 22.0896 14.5935 22.0761 14.5448C22.0761 14.545 22.0761 14.5445 22.0761 14.5448L19.9628 7.58457C19.7836 6.96117 19.0056 6.61949 18.4107 6.61082H5.59925C4.98552 6.59997 4.25011 6.97915 4.0471 7.58457C3.36764 9.82219 2.68822 12.0598 2.00885 14.2974C1.98497 14.376 1.95 14.4505 1.92149 14.5276C1.8439 14.7326 1.80279 14.9497 1.80005 15.1689V15.3037C1.80059 16.1319 2.47244 16.8029 3.30067 16.8024H20.6994C21.5267 16.8005 22.1971 16.1309 22.2001 15.3037V15.1689C22.2001 15.0059 22.1732 14.8441 22.1206 14.6898ZM7.19842 13.0357C7.14038 13.418 7.08234 13.8003 7.0243 14.1827C6.91841 14.5512 6.4579 14.6624 6.12154 14.6695H4.16885C3.89525 14.6839 3.40505 14.5444 3.4667 14.1827C3.56621 13.8003 3.6657 13.418 3.76519 13.0357C3.89162 12.7002 4.33342 12.5393 4.66798 12.5488H6.49625C6.78422 12.5533 7.21728 12.6751 7.19842 13.0357ZM7.58482 10.4908C7.52677 10.8732 7.46873 11.2556 7.4107 11.6378C7.31563 11.9916 6.89796 12.1168 6.57127 12.1247H4.76782C4.49285 12.14 4.06515 11.9817 4.12901 11.6378C4.22851 11.2554 4.32801 10.8731 4.4275 10.4908C4.54344 10.1706 4.94251 9.99485 5.26692 10.004H6.94596C7.23012 10.0091 7.60889 10.1482 7.58482 10.4908ZM7.02096 9.57981H5.36676C5.09525 9.58829 4.71607 9.42845 4.79129 9.09295C4.89079 8.71055 4.99029 8.32823 5.08978 7.94599C5.19538 7.64239 5.55221 7.45061 5.86586 7.4591H7.39565C7.67278 7.45373 8.00547 7.62521 7.9711 7.94599C7.91306 8.32831 7.85502 8.71063 7.79698 9.09295C7.71221 9.4308 7.33793 9.5712 7.02096 9.57981ZM11.2934 14.1827C11.2376 14.556 10.7702 14.6637 10.454 14.6695H8.50133C8.21364 14.6826 7.72639 14.5447 7.73573 14.1827L7.88498 13.0357C7.96786 12.6945 8.40763 12.5379 8.72441 12.5488H10.5528C10.857 12.5547 11.2852 12.6757 11.3184 13.0357C11.3101 13.418 11.3017 13.8003 11.2934 14.1827ZM11.3486 11.6378C11.302 11.9958 10.8813 12.1182 10.5726 12.1247H8.76912C8.48352 12.1383 8.05258 11.9833 8.06698 11.6378C8.1167 11.2554 8.16645 10.8731 8.21621 10.4908C8.29034 10.1657 8.68346 9.99321 8.9923 10.004H10.6713C10.9688 10.0105 11.3481 10.1478 11.3735 10.4908C11.3652 10.8732 11.3569 11.2555 11.3486 11.6378ZM11.4038 9.09295C11.3654 9.43406 10.9926 9.57259 10.691 9.57981H9.03691C8.75347 9.594 8.37972 9.41997 8.3981 9.09295L8.54736 7.94599C8.6131 7.63855 8.95975 7.44871 9.26016 7.4591H10.7899C11.0779 7.4567 11.4161 7.62266 11.4288 7.94599C11.4204 8.32831 11.4121 8.71063 11.4038 9.09295ZM12.5812 7.94599C12.5939 7.62266 12.9321 7.45665 13.22 7.4591H14.7498C15.0555 7.46846 15.3917 7.62355 15.4626 7.94599L15.6119 9.09295C15.6305 9.43425 15.2589 9.57429 14.973 9.57981H13.3188C13.0223 9.59181 12.6408 9.41945 12.606 9.09295C12.5978 8.71063 12.5895 8.32831 12.5812 7.94599ZM12.6364 10.4908C12.6588 10.1624 13.0457 9.99125 13.3386 10.004H15.0176C15.3331 10.0123 15.7133 10.1511 15.7937 10.4908L15.9429 11.6378C15.9561 11.9971 15.5306 12.1198 15.2407 12.1247H13.4373C13.1352 12.1367 12.7029 11.9814 12.6612 11.6378C12.653 11.2555 12.6447 10.8732 12.6364 10.4908ZM15.5085 14.6695H13.5559C13.2484 14.6813 12.7656 14.5417 12.7164 14.1827C12.7081 13.8003 12.6998 13.418 12.6916 13.0357C12.7204 12.6901 13.1593 12.5363 13.4572 12.5488H15.2854C15.6104 12.5563 16.0342 12.6801 16.1248 13.0357L16.2741 14.1827C16.2807 14.5584 15.8027 14.6652 15.5085 14.6695ZM16.2129 9.09295C16.1548 8.71055 16.0968 8.32823 16.0387 7.94599C16.0044 7.62521 16.3371 7.45373 16.6142 7.4591H18.144C18.4645 7.47009 18.8071 7.62777 18.9201 7.94599C19.0196 8.32831 19.1191 8.71063 19.2186 9.09295C19.2939 9.42845 18.9147 9.58829 18.6432 9.57981H16.9889C16.6787 9.59013 16.2912 9.41625 16.2129 9.09295ZM16.5993 11.6378C16.5412 11.2554 16.4832 10.8731 16.4251 10.4908C16.4015 10.1624 16.782 9.98942 17.064 10.004H18.743C19.0754 10.0138 19.458 10.1563 19.5824 10.4908C19.6819 10.8732 19.7814 11.2556 19.8809 11.6378C19.9474 11.9946 19.5185 12.1211 19.2421 12.1247H17.4386C17.1201 12.1352 16.6867 11.9772 16.5993 11.6378ZM19.841 14.6695H17.8883C17.5619 14.6801 17.0822 14.5368 16.9855 14.1827C16.9275 13.8003 16.8694 13.418 16.8114 13.0357C16.7916 12.6888 17.2298 12.5349 17.5136 12.5488H19.3418C19.6538 12.5569 20.145 12.6823 20.2446 13.0357C20.3441 13.418 20.4436 13.8003 20.5431 14.1827C20.6058 14.5567 20.1185 14.6664 19.841 14.6695Z" fill="currentColor"/>
</svg>
