<svg width="24" height="24" viewBox="0 0 24 24" fill="currentColor" xmlns="http://www.w3.org/2000/svg">
<path fill-rule="evenodd" clip-rule="evenodd" d="M17.9938 4.80254C18.3242 4.80254 18.5947 5.07302 18.5947 5.40374V17.3992C18.5947 17.7297 18.3242 17.9999 17.9938 17.9999H5.99832C5.66784 17.9999 5.39736 17.7297 5.39736 17.3992V15.6109H5.97312V13.2263H5.39736V9.6083H5.98416V7.19222H5.39736V5.4035C5.39736 5.07302 5.66784 4.80254 5.99832 4.80254H17.9938ZM12.0118 8.06078C11.0177 8.06078 10.2118 8.8667 10.2118 9.86078C10.2118 10.5364 10.5842 11.1246 11.1346 11.4325L10.8118 14.6608H13.2118L12.889 11.4325C13.4395 11.1249 13.8118 10.5366 13.8118 9.86078C13.8118 8.8667 13.0061 8.06078 12.0118 8.06078ZM19.5595 2.3999H4.4424C3.64584 2.3999 3 3.04574 3 3.8423V18.9575C3 19.7507 3.6492 20.3999 4.4424 20.3999H4.77096V21.0265C4.77096 21.3347 5.0208 21.5848 5.3292 21.5848H6.61704C6.9252 21.5848 7.17528 21.3347 7.17528 21.0265V20.3999H16.7772V21.0645C16.7772 21.3517 17.0102 21.5848 17.2975 21.5848H18.6612C18.9487 21.5848 19.1815 21.3517 19.1815 21.0645V20.3999H19.5576C20.3508 20.3999 21 19.7507 21 18.9575V3.84062C21 3.04814 20.3518 2.3999 19.5595 2.3999ZM19.1815 17.4383C19.1815 18.082 18.6547 18.6088 18.011 18.6088H5.94144C5.29776 18.6088 4.77096 18.082 4.77096 17.4383V15.6109H4.2V13.2263H4.77096V9.6083H4.18872V7.19222H4.77096V5.36846C4.77096 4.72478 5.29776 4.19798 5.94144 4.19798H18.011C18.6547 4.19798 19.1815 4.72478 19.1815 5.36846V17.4383Z" fill="currentColor"/>
</svg>
