<svg width="24" height="24" viewBox="0 0 24 24" fill="currentColor" xmlns="http://www.w3.org/2000/svg">
<path fill-rule="evenodd" clip-rule="evenodd" d="M22.2001 18.6013V5.99887C22.2001 5.68077 22.0734 5.37575 21.8483 5.15093C21.6233 4.92611 21.3182 4.79989 21 4.80005H3.00005C2.33765 4.79972 1.80039 5.33642 1.80005 5.99883V18.6012C1.80005 18.9193 1.92672 19.2243 2.15176 19.4492C2.3768 19.674 2.68194 19.8002 3.00005 19.8H21C21.6625 19.8004 22.1997 19.2637 22.2001 18.6013ZM3.60005 18V6.60005H20.4V18H3.60005ZM12 11.4L4.20005 17.4H19.8L12 11.4ZM12.312 16.8H11.688V15.6H12.312V16.8ZM12.312 14.4H11.688V13.2H12.312V14.4ZM11.688 12.6V12H12.312V12.6H11.688ZM10.2 9.60005L7.80005 7.80005V9.00005H5.40005V12H6.60005V10.2H7.80005V11.4L10.2 9.60005Z" fill="currentColor"/>
</svg>
