<svg width="24" height="24" viewBox="0 0 24 24" fill="currentColor" xmlns="http://www.w3.org/2000/svg">
<path fill-rule="evenodd" clip-rule="evenodd" d="M15.7848 10.1378C13.6592 12.1406 10.3412 12.1407 8.21546 10.138C6.51737 11.0635 5.444 12.8265 5.40156 14.76H5.40002V19.8C5.40002 21.1255 6.47454 22.2 7.80002 22.2H18.6V14.88C18.6007 12.903 17.5207 11.0838 15.7848 10.1378ZM14.3918 16.4802L14.3906 16.4815L12.012 19.2L9.63346 16.4815L9.63226 16.4802C9.1804 15.9782 9.21069 15.2076 9.70056 14.7426C10.1904 14.2777 10.9615 14.2876 11.4393 14.765L11.443 14.7686L11.8068 15.1145L12.012 15.312L12.2172 15.1145L12.581 14.7685L12.5847 14.7649C12.8179 14.5305 13.1353 14.3991 13.4659 14.4C13.9581 14.4 14.4042 14.6898 14.6044 15.1394C14.8045 15.5891 14.7212 16.1145 14.3918 16.4802ZM16.32 6.11999C16.32 8.50586 14.3859 10.44 12 10.44C9.61415 10.44 7.68002 8.50586 7.68002 6.11999C7.68002 3.73412 9.61415 1.79999 12 1.79999C14.3859 1.79999 16.32 3.73412 16.32 6.11999Z" fill="currentColor"/>
</svg>
