<svg width="24" height="24" viewBox="0 0 24 24" fill="currentColor" xmlns="http://www.w3.org/2000/svg">
<path fill-rule="evenodd" clip-rule="evenodd" d="M19.1691 1.79572H16.2109C15.868 1.79572 15.59 2.0737 15.59 2.4166V14.362C15.59 16.3268 14.029 17.9552 12.0646 17.995C12.0398 17.9955 12.0147 17.9957 11.99 17.9957C11.0352 17.9958 10.1195 17.6165 9.44437 16.9414C8.76923 16.2662 8.38996 15.3505 8.39 14.3957V2.4166C8.39 2.0737 8.11202 1.79572 7.76912 1.79572H4.81088C4.46798 1.79572 4.19 2.0737 4.19 2.4166V14.3957C4.19 18.7036 7.68217 22.1957 11.99 22.1957C16.2978 22.1957 19.79 18.7036 19.79 14.3957V2.4166C19.79 2.0737 19.512 1.79572 19.1691 1.79572ZM19.19 14.3957C19.19 18.3722 15.9665 21.5957 11.99 21.5957C8.01355 21.5957 4.79 18.3722 4.79 14.3957V6.11572C4.79 6.04945 4.84373 5.99572 4.91 5.99572H7.67C7.73628 5.99572 7.79 6.04945 7.79 6.11572V14.3957C7.78917 15.5099 8.23141 16.5787 9.01924 17.3665C9.80707 18.1543 10.8758 18.5965 11.99 18.5957C12.0186 18.5957 12.0478 18.5954 12.0767 18.5948C13.1807 18.5739 14.2309 18.1143 14.9953 17.3174C15.7636 16.5257 16.1923 15.4652 16.19 14.362V6.11572C16.19 6.04945 16.2437 5.99572 16.31 5.99572H19.07C19.1363 5.99572 19.19 6.04945 19.19 6.11572V14.3957ZM10.8133 15.5957L14.99 10.9526H12.6823L13.1439 8.1833L8.99 12.7988H11.2977L10.8133 15.5957Z" fill="currentColor"/>
</svg>
