<svg width="24" height="24" viewBox="0 0 24 24" fill="currentColor" xmlns="http://www.w3.org/2000/svg">
<path fill-rule="evenodd" clip-rule="evenodd" d="M12.0562 1.80022C12.0336 1.8 11.9867 1.8 11.9867 1.8C6.38589 1.80041 1.82669 6.32203 1.78985 11.932C1.752 17.5652 6.2875 22.1621 11.9204 22.1999C11.9435 22.1999 11.9662 22.1999 11.9893 22.1999C17.5901 22.1999 22.1491 17.6776 22.1869 12.0678C22.224 6.4344 17.6885 1.83766 12.0562 1.80022ZM10.944 3.05866V3.62357C10.9368 3.75616 10.8846 3.88233 10.7959 3.98117L9.83575 4.94146C9.73695 5.03007 9.61086 5.08231 9.47834 5.08951H7.59396C7.47846 5.08988 7.38493 5.18342 7.38456 5.29892V6.13651C7.38489 6.25203 7.47845 6.34559 7.59396 6.34591H9.47839C9.59388 6.3463 9.6874 6.43983 9.68777 6.55532V7.39313C9.68745 7.50864 9.5939 7.6022 9.47839 7.60253H8.64079C8.50826 7.60975 8.38217 7.66198 8.28336 7.75059L7.53254 8.5015C7.44393 8.60032 7.3917 8.72642 7.38449 8.85895V9.69656C7.37731 9.82909 7.32508 9.9552 7.23645 10.054L6.48569 10.8048C6.38688 10.8934 6.2608 10.9456 6.12828 10.9529H5.29068C5.15815 10.9456 5.03206 10.8934 4.93325 10.8048L4.18243 10.0539C4.08361 9.96529 3.95752 9.91306 3.825 9.90584H3.2346C4.1052 6.28119 7.17866 3.49781 10.944 3.05866ZM4.872 17.5057V17.0257C4.86479 16.8932 4.81257 16.7671 4.72397 16.6683L3.97315 15.9174C3.88452 15.8185 3.83229 15.6924 3.82509 15.5599V13.6752C3.83231 13.5427 3.88454 13.4166 3.97315 13.3177L4.93334 12.3574C5.03215 12.2688 5.15825 12.2166 5.29077 12.2094H5.91893C6.05145 12.2166 6.17753 12.2688 6.27634 12.3574L8.28345 14.3647C8.38227 14.4534 8.50836 14.5056 8.64089 14.5128H9.47849C9.59397 14.5132 9.68749 14.6067 9.68786 14.7222V16.6905C9.68065 16.823 9.62842 16.9491 9.53981 17.0479L8.66323 17.9244C8.57455 18.0232 8.52231 18.1493 8.5152 18.2819V19.0358C8.50798 19.1683 8.45576 19.2944 8.36717 19.3933L7.79597 19.9646C6.65761 19.3622 5.6608 18.5239 4.872 17.5057ZM16.1821 19.9605L15.6984 19.4771C15.6098 19.3782 15.5576 19.2521 15.5504 19.1196V15.9783C15.5432 15.8458 15.4909 15.7197 15.4023 15.6209L14.4421 14.6606C14.3433 14.572 14.2172 14.5197 14.0847 14.5125H11.991C11.8755 14.5122 11.7819 14.4186 11.7816 14.3031V12.4187C11.7888 12.2862 11.841 12.1601 11.9296 12.0613L12.8898 11.1009C12.9886 11.0123 13.1147 10.9601 13.2473 10.9529H15.3411C15.4736 10.9456 15.5996 10.8934 15.6984 10.8048L16.6586 9.84449C16.7574 9.75588 16.8835 9.70365 17.016 9.69643H17.6442C17.7597 9.69611 17.8533 9.60254 17.8536 9.48703V8.85886C17.8532 8.74337 17.7597 8.64984 17.6442 8.64946H17.0161C16.8836 8.65668 16.7575 8.7089 16.6587 8.79749L15.6984 9.75783C15.5996 9.84642 15.4735 9.89864 15.341 9.90586L13.2586 9.90567C13.1431 9.9054 13.0495 9.8118 13.0493 9.69627V8.85867C13.0564 8.72606 13.1084 8.59981 13.1967 8.50061L14.1467 7.54152C14.2451 7.45256 14.371 7.40007 14.5035 7.39284H16.3879C16.5034 7.39251 16.597 7.29895 16.5973 7.18344V6.55522C16.5969 6.43972 16.5034 6.34619 16.3879 6.34582H15.5503C15.4348 6.34548 15.3412 6.25192 15.3409 6.13642V5.29882C15.3413 5.18333 15.4348 5.0898 15.5503 5.08942L17.7539 5.08964C19.6805 6.70023 20.9219 9.09977 20.986 11.7823L20.3047 11.101C20.2059 11.0124 20.0798 10.9601 19.9473 10.9529H19.3193C19.2038 10.9533 19.1103 11.0468 19.1099 11.1623V12C19.1171 12.1325 19.1693 12.2586 19.258 12.3575L20.0088 13.1081C20.0974 13.2069 20.1496 13.333 20.1568 13.4655V14.3031C20.1496 14.4357 20.0974 14.5618 20.0088 14.6606L19.258 15.4115C19.1694 15.5103 19.1171 15.6364 19.1099 15.7689V17.4921C18.3203 18.5135 17.3222 19.3549 16.1821 19.9605Z" fill="currentColor"/>
</svg>
