<svg width="24" height="24" viewBox="0 0 24 24" fill="currentColor" xmlns="http://www.w3.org/2000/svg">
<path fill-rule="evenodd" clip-rule="evenodd" d="M13.8 22.8H8.99999C8.33725 22.8 7.79999 22.2628 7.79999 21.6V19.2H15V21.6C15 22.2628 14.4627 22.8 13.8 22.8ZM8.99999 1.20001H13.8C14.4627 1.20001 15 1.73727 15 2.40001V4.80001H7.79999V2.40001C7.79999 1.73727 8.33725 1.20001 8.99999 1.20001ZM18.9 9.60001H18V6.60001C18 5.93727 17.4627 5.40001 16.8 5.40001H5.99999C5.33725 5.40001 4.79999 5.93727 4.79999 6.60001V17.4C4.79999 18.0628 5.33725 18.6 5.99999 18.6H16.8C17.4627 18.6 18 18.0628 18 17.4V11.4H18.9C19.0657 11.4 19.2 11.2657 19.2 11.1V9.90001C19.2 9.73433 19.0657 9.60001 18.9 9.60001ZM16.8 17.4H5.99999V6.60001H16.8V17.4ZM14.3798 9.3213C13.5583 8.50075 12.2295 8.49421 11.4 9.30664C10.5763 8.49858 9.25723 8.49903 8.43412 9.30765C7.611 10.1163 7.58712 11.4351 8.38043 12.273L11.4 15.6L14.4196 12.2731C15.2087 11.441 15.191 10.1317 14.3798 9.3213Z" fill="currentColor"/>
</svg>
