<svg width="24" height="24" viewBox="0 0 24 24" fill="currentColor" xmlns="http://www.w3.org/2000/svg">
<path fill-rule="evenodd" clip-rule="evenodd" d="M13.3 2.06703C12.9607 1.71206 12.491 1.51199 12 1.51199C11.5089 1.51199 11.0393 1.71278 10.7 2.06775L4.19995 8.71201V20.112C4.19995 21.4375 5.27447 22.512 6.59995 22.512H17.4C18.7254 22.512 19.8 21.4375 19.8 20.112V8.71201L13.3 2.06703ZM12 4.21201C12.8284 4.21201 13.5 4.88358 13.5 5.71201C13.5 6.54043 12.8284 7.21201 12 7.21201C11.1715 7.21201 10.5 6.54043 10.5 5.71201C10.5 4.88358 11.1715 4.21201 12 4.21201ZM12 18.312C9.04284 18.312 6.59995 15.312 6.59995 15.312C6.59995 15.312 8.91422 12.312 12 12.312C14.957 12.312 17.4 15.312 17.4 15.312C17.4 15.312 15.0857 18.312 12 18.312ZM12 12.912C10.6745 12.912 9.59995 13.9865 9.59995 15.312C9.59995 16.6375 10.6745 17.712 12 17.712C13.3254 17.712 14.4 16.6375 14.4 15.312C14.4 13.9865 13.3254 12.912 12 12.912ZM12.6 15.312C12.2686 15.312 12 15.0434 12 14.712C12 14.3806 12.2686 14.112 12.6 14.112C12.9313 14.112 13.2 14.3806 13.2 14.712C13.2 15.0434 12.9313 15.312 12.6 15.312Z" fill="currentColor"/>
</svg>
