<svg width="24" height="24" viewBox="0 0 24 24" fill="currentColor" xmlns="http://www.w3.org/2000/svg">
<path fill-rule="evenodd" clip-rule="evenodd" d="M20.3751 17.112H3.60092C3.39926 17.112 3.21113 17.2134 3.10015 17.3817C2.98916 17.5501 2.97018 17.763 3.04961 17.9483L4.20001 20.712H4.79979V22.512H19.2V20.712H19.7945L20.9264 17.9483C21.0058 17.763 20.9869 17.5501 20.8759 17.3818C20.7649 17.2134 20.5768 17.112 20.3751 17.112ZM14.894 10.5938L11.9973 12.912L9.10049 10.5938C7.29351 10.9723 5.99941 12.5658 5.99941 14.412V16.512H11.4V15.744C10.9316 15.4726 10.7037 14.9205 10.8442 14.3977C10.9847 13.8749 11.4586 13.5115 12 13.5115C12.5414 13.5115 13.0153 13.8749 13.1558 14.3977C13.2964 14.9205 13.0684 15.4726 12.6 15.744V16.512H18V14.4C18 12.5195 16.6646 10.962 14.894 10.5938ZM15.6 5.08796L12.1954 6.27836L11.9973 6.34772L11.7991 6.27836L8.40001 5.08796V7.51196C8.40001 9.50019 10.0118 11.112 12 11.112C13.9882 11.112 15.6 9.50019 15.6 7.51196V5.08796ZM17.04 3.93596L17.9952 3.61196L11.9973 1.51196L5.99941 3.61196L11.9973 5.71196L16.56 4.10396V8.11196L16.3158 9.31196H17.304L17.04 8.11196V3.93596Z" fill="currentColor"/>
</svg>
