<svg width="24" height="24" viewBox="0 0 24 24" fill="currentColor" xmlns="http://www.w3.org/2000/svg">
<path fill-rule="evenodd" clip-rule="evenodd" d="M11.112 15.912C11.112 17.5688 9.76885 18.912 8.11199 18.912C6.45514 18.912 5.11199 17.5688 5.11199 15.912C5.11199 14.2551 6.45514 12.912 8.11199 12.912C9.76885 12.912 11.112 14.2551 11.112 15.912ZM15.912 1.51196C12.2669 1.51196 9.31199 4.46689 9.31199 8.11196V9.31196H8.11199C4.46692 9.31196 1.51199 12.2669 1.51199 15.912C1.51199 19.557 4.46692 22.512 8.11199 22.512C11.7571 22.512 14.712 19.557 14.712 15.912V14.712H15.912C19.5571 14.712 22.512 11.757 22.512 8.11196C22.512 4.46689 19.5571 1.51196 15.912 1.51196ZM12.912 15.912C12.912 18.5629 10.763 20.712 8.11199 20.712C5.46102 20.712 3.31199 18.5629 3.31199 15.912C3.31199 13.261 5.46102 11.112 8.11199 11.112H12.912V15.912ZM19.7637 9.70741C19.2258 11.006 21.0501 10.6106 19.7305 11.9303C18.4103 13.2503 18.8061 11.4263 17.5077 11.9641C16.2088 12.5021 17.7785 13.512 15.912 13.512H14.712V11.112H15.912C17.5688 11.112 18.912 9.76882 18.912 8.11196C18.912 6.45511 17.5688 5.11196 15.912 5.11196C14.2551 5.11196 12.912 6.45511 12.912 8.11196V9.31196H10.512V8.11196C10.512 6.24553 11.5218 7.81484 12.0598 6.51635C12.5979 5.21785 10.774 5.61332 12.0936 4.29356C13.4132 2.9738 13.0176 4.79783 14.3164 4.25982C15.6148 3.72203 14.0452 2.71213 15.912 2.71194C17.7784 2.71194 16.2085 3.722 17.5072 4.25994C18.8059 4.79787 18.4102 2.97395 19.7303 4.29354C21.05 5.61335 19.2257 5.21778 19.7637 6.51651C20.3016 7.81525 21.312 6.24551 21.312 8.11196C21.3117 9.97859 20.3017 8.40915 19.7637 9.70741Z" fill="currentColor"/>
</svg>
