<svg width="24" height="24" viewBox="0 0 24 24" fill="currentColor" xmlns="http://www.w3.org/2000/svg">
<path fill-rule="evenodd" clip-rule="evenodd" d="M18.6 2.3999H3.6V19.7999C3.6 20.794 4.40589 21.5999 5.4 21.5999H20.4V4.1999C20.4 3.20579 19.5941 2.3999 18.6 2.3999ZM6.6 20.3999H4.8V18.5999H6.6V20.3999ZM6.6 17.3999H4.8V15.5999H6.6V17.3999ZM6.6 14.3999H4.8V12.5999H6.6V14.3999ZM6.6 11.3999H4.8V9.5999H6.6V11.3999ZM6.6 8.3999H4.8V6.5999H6.6V8.3999ZM6.6 5.3999H4.8V3.5999H6.6V5.3999ZM12.6 13.4999L10.2 14.9999V8.9999L12.6 10.4999L15 11.9999L12.6 13.4999ZM19.2 20.3999H17.4V18.5999H19.2V20.3999ZM19.2 17.3999H17.4V15.5999H19.2V17.3999ZM19.2 14.3999H17.4V12.5999H19.2V14.3999ZM19.2 11.3999H17.4V9.5999H19.2V11.3999ZM19.2 8.3999H17.4V6.5999H19.2V8.3999ZM19.2 5.3999H17.4V3.5999H19.2V5.3999Z" fill="currentColor"/>
</svg>
