<svg width="24" height="24" viewBox="0 0 24 24" fill="currentColor" xmlns="http://www.w3.org/2000/svg">
<path fill-rule="evenodd" clip-rule="evenodd" d="M18 21.6C18.001 21.9309 18.269 22.199 18.6 22.2H21.6C21.931 22.199 22.199 21.9309 22.2 21.6V7.19998C22.199 6.869 21.931 6.60094 21.6 6.59998H18.6C18.269 6.60094 18.001 6.869 18 7.19998V21.6ZM12.6 21.6C12.601 21.9309 12.869 22.199 13.2 22.2H16.2C16.531 22.199 16.799 21.9309 16.8 21.6V10.8C16.799 10.469 16.531 10.2009 16.2 10.2H13.2C12.869 10.2009 12.601 10.469 12.6 10.8V21.6ZM7.19999 21.6C7.20095 21.9309 7.46902 22.199 7.79999 22.2H10.8C11.131 22.199 11.399 21.9309 11.4 21.6V14.4C11.399 14.069 11.131 13.8009 10.8 13.8H7.79999C7.46902 13.8009 7.20095 14.069 7.19999 14.4V21.6ZM1.79999 21.6C1.80095 21.9309 2.06902 22.199 2.39999 22.2H5.39999C5.73096 22.199 5.99903 21.9309 5.99999 21.6V18C5.99903 17.669 5.73096 17.4009 5.39999 17.4H2.39999C2.06902 17.4009 1.80095 17.669 1.79999 18V21.6Z" fill="currentColor"/>
</svg>
