<svg width="24" height="24" viewBox="0 0 24 24" fill="currentColor" xmlns="http://www.w3.org/2000/svg">
<path fill-rule="evenodd" clip-rule="evenodd" d="M6.34844 17.3849H5.31119C5.31136 17.377 5.31179 17.3692 5.31179 17.3613C5.30914 16.7499 4.81219 16.2561 4.20085 16.2573V15.227C5.38705 15.227 6.34867 16.1826 6.34867 17.3613C6.34873 17.3692 6.34852 17.377 6.34844 17.3849ZM8.27406 17.3849H7.23726C7.23726 17.377 7.23755 17.3692 7.23755 17.3613C7.23933 16.5596 6.91885 15.7908 6.34816 15.2277C5.77841 14.6593 5.00575 14.3413 4.201 14.3439V13.3135C6.45068 13.3135 8.27444 15.1258 8.27444 17.3613C8.27437 17.3692 8.27411 17.377 8.27406 17.3849ZM10.1998 17.3849H9.16283C9.16283 17.377 9.16312 17.3692 9.16312 17.3613C9.16445 16.0514 8.64099 14.7957 7.70972 13.8746C6.77781 12.9471 5.51573 12.4276 4.20092 12.4304V11.4C7.51412 11.4 10.2 14.069 10.2 17.3613C10.2 17.3692 10.2 17.377 10.1998 17.3849ZM21 4.20001H2.99999C2.33725 4.20001 1.79999 4.73727 1.79999 5.40001V18.6C1.79999 19.2628 2.33725 19.8 2.99999 19.8H21C21.6627 19.8 22.2 19.2628 22.2 18.6V5.40001C22.2 4.73727 21.6627 4.20001 21 4.20001ZM3.59999 5.40001C3.93136 5.40001 4.19999 5.66864 4.19999 6.00001C4.19999 6.33138 3.93136 6.60001 3.59999 6.60001C3.26862 6.60001 2.99999 6.33138 2.99999 6.00001C2.99999 5.66864 3.26862 5.40001 3.59999 5.40001ZM21 18.6H2.99999V7.80001H21V18.6Z" fill="currentColor"/>
</svg>
