<svg width="24" height="24" viewBox="0 0 24 24" fill="currentColor" xmlns="http://www.w3.org/2000/svg">
<path fill-rule="evenodd" clip-rule="evenodd" d="M19.805 3H2.39999V15.6C2.39999 16.5943 3.20627 17.4001 4.20052 17.4H6.59999V21L10.2023 17.4H21.6V4.8C21.6012 4.32312 21.4126 3.86535 21.0759 3.52767C20.7392 3.19 20.2819 3 19.805 3ZM17.4 13.8V16.2L15.0036 13.8H7.79599C7.47813 13.7999 7.17339 13.6733 6.94901 13.4481C6.72463 13.223 6.59906 12.9179 6.59999 12.6L6.59565 10.8V5.4L6.59999 4.2H19.1993C19.5176 4.2 19.8229 4.32636 20.048 4.5514C20.2731 4.77645 20.3996 5.0817 20.3996 5.4V9.39701L20.4052 13.8H17.4Z" fill="currentColor"/>
</svg>
