<svg width="24" height="24" viewBox="0 0 24 24" fill="currentColor" xmlns="http://www.w3.org/2000/svg">
<path fill-rule="evenodd" clip-rule="evenodd" d="M22.1987 3.60005C22.1987 2.60644 21.3936 1.80076 20.4 1.80005H1.8002V19.7958C1.8002 19.7972 1.8002 19.7986 1.8002 19.8C1.8002 20.7941 2.60596 21.5999 3.59999 21.6C3.56079 21.6026 3.63975 21.6 3.59999 21.6H22.2L22.1998 3.60005H22.1987ZM8.09972 18H7.19972V18.9C7.20382 19.2243 7.0332 19.5256 6.75308 19.689C6.47295 19.8523 6.12664 19.8523 5.84651 19.689C5.56639 19.5256 5.39576 19.2243 5.39987 18.9V18H4.49999C4.00293 18 3.59999 17.5971 3.59999 17.1C3.59999 16.603 4.00293 16.2 4.49999 16.2H5.39999V15.3C5.39588 14.9758 5.56651 14.6745 5.84663 14.5111C6.12676 14.3478 6.47307 14.3478 6.7532 14.5111C7.03332 14.6745 7.20394 14.9758 7.19984 15.3V16.2H8.09984C8.5969 16.2001 8.99978 16.6031 8.99978 17.1001C8.99978 17.5972 8.59678 18.0001 8.09972 18ZM16.1991 19.8C15.5364 19.8 14.9991 19.2628 14.9991 18.6C14.9991 17.9373 15.5364 17.4 16.1991 17.4C16.8619 17.4 17.3991 17.9373 17.3991 18.6C17.3991 19.2628 16.8619 19.8 16.1991 19.8ZM19.1989 16.8C18.5362 16.8 17.9989 16.2628 17.9989 15.6C17.9989 14.9373 18.5362 14.4 19.1989 14.4C19.8616 14.4 20.3989 14.9373 20.3989 15.6C20.3989 16.2628 19.8616 16.8 19.1989 16.8ZM20.3989 12.6H4.20435C4.20291 12.6 4.20147 12.6 4.20001 12.6C3.86864 12.6 3.60001 12.3314 3.60001 12V3.60005H19.7945C19.796 3.60005 19.7974 3.60005 19.7988 3.60005C20.1302 3.60005 20.3989 3.86868 20.3989 4.20005V12.6Z" fill="currentColor"/>
</svg>
