<svg width="24" height="24" viewBox="0 0 24 24" fill="currentColor" xmlns="http://www.w3.org/2000/svg">
<path fill-rule="evenodd" clip-rule="evenodd" d="M7.20002 1.80005H16.8C17.7941 1.80005 18.6 2.60594 18.6 3.60005V20.4C18.6 21.3942 17.7941 22.2001 16.8 22.2001H7.20002C6.20591 22.2001 5.40002 21.3942 5.40002 20.4V3.60005C5.40002 2.60594 6.20591 1.80005 7.20002 1.80005ZM7.20002 2.40005H16.8C17.4628 2.40005 18 2.93731 18 3.60005V20.4C18 21.0628 17.4628 21.6 16.8 21.6H7.20002C6.53728 21.6 6.00002 21.0628 6.00002 20.4V3.60005C6.00002 2.93731 6.53728 2.40005 7.20002 2.40005ZM7.20002 3.00005H16.8C17.1314 3.00005 17.4 3.26868 17.4 3.60005V20.4C17.4 20.7314 17.1314 21 16.8 21H7.20002C6.86865 21 6.60002 20.7314 6.60002 20.4V3.60005C6.60002 3.26868 6.86865 3.00005 7.20002 3.00005ZM11.996 15.588C11.3333 15.588 10.796 15.0508 10.796 14.388C10.796 13.7253 11.3333 13.212 11.996 13.212C12.6588 13.212 13.196 13.7253 13.196 14.388C13.196 14.7063 13.0696 15.0115 12.8445 15.2366C12.6195 15.4616 12.3143 15.588 11.996 15.588ZM13.272 13.0319C12.5279 12.4132 11.4454 12.4237 10.7134 13.0567L10.1487 12.43C11.1996 11.5191 12.7558 11.5039 13.8241 12.3943L13.272 13.0319ZM14.3851 11.7618C12.994 10.605 10.9701 10.6247 9.60173 11.8084L9.03533 11.1798C10.7243 9.72012 13.2213 9.6964 14.9376 11.1238L14.3851 11.7618ZM15.5886 10.5556C13.4961 8.81966 10.456 8.84847 8.39674 10.6237L7.83288 9.99778C10.2101 7.94356 13.7244 7.91034 16.14 9.91925L15.5886 10.5556Z" fill="currentColor"/>
</svg>
