<svg width="24" height="24" viewBox="0 0 24 24" fill="currentColor" xmlns="http://www.w3.org/2000/svg">
<path fill-rule="evenodd" clip-rule="evenodd" d="M13.8 3.5999L12.6 2.3999H4.20001V16.7999C4.20001 17.4626 4.73727 17.9999 5.40001 17.9999V3.5999H13.8ZM15.6 5.3999L14.4 4.1999H6.00001V18.5999C6.00001 19.2626 6.53727 19.7999 7.20001 19.7999V5.3999H15.6ZM16.8 10.5599C15.9389 10.5589 15.241 9.86106 15.24 8.9999V5.9999H7.80001V20.3999C7.80001 21.0626 8.33727 21.5999 9.00001 21.5999H19.8V10.5599H16.8ZM16.6348 19.8083C15.3046 20.7787 13.4526 20.4686 12.4984 19.1156C12.4545 19.0534 12.4132 18.99 12.3747 18.9256C12.3511 18.9018 12.3295 18.8762 12.3103 18.8488L9.69757 15.1446C9.50622 14.8713 9.56705 14.4954 9.8348 14.2964C9.96347 14.203 10.1242 14.1652 10.2811 14.1914C10.4379 14.2177 10.5776 14.3058 10.6688 14.436L11.871 16.1406L11.9751 16.2882C11.9994 16.3229 12.0374 16.3455 12.0795 16.3504C12.1215 16.3553 12.1637 16.3419 12.1953 16.3137C12.2528 16.2596 12.2614 16.1713 12.2152 16.1073L12.2117 16.1023L10.9987 14.3824L10.2149 13.2712C10.0235 12.9979 10.0844 12.622 10.3521 12.423C10.4808 12.3296 10.6416 12.2918 10.7984 12.3181C10.9552 12.3443 11.0949 12.4324 11.1861 12.5627L11.9699 13.6739L12.7972 14.8468L13.1891 15.4026C13.2134 15.4373 13.2514 15.4599 13.2935 15.4648C13.3356 15.4696 13.3777 15.4563 13.4093 15.428C13.4669 15.374 13.4754 15.2857 13.4292 15.2216L13.1987 14.8948L12.2127 13.4968L11.0145 11.8111C10.8232 11.5378 10.884 11.1619 11.1518 10.9629C11.2804 10.8695 11.4412 10.8317 11.598 10.8579C11.7548 10.8842 11.8945 10.9723 11.9857 11.1025L13.1839 12.7883L14.3222 14.4022L14.4032 14.517C14.4274 14.5517 14.4654 14.5743 14.5075 14.5792C14.5496 14.584 14.5917 14.5707 14.6233 14.5424C14.6809 14.4884 14.6894 14.4001 14.6433 14.336L14.4556 14.07L13.4267 12.6112L12.8312 11.7712C12.6398 11.4979 12.7007 11.122 12.9684 10.923C13.097 10.8296 13.2578 10.7917 13.4146 10.8179C13.5715 10.8441 13.7112 10.9322 13.8024 11.0625L16.2567 14.5379C16.2788 14.5694 16.3184 14.5833 16.3553 14.5728C16.3922 14.5622 16.4184 14.5294 16.4205 14.491L16.4557 13.109C16.4581 12.6922 16.7907 12.3547 17.2013 12.3539C17.6119 12.3531 17.9456 12.6893 17.9496 13.1061L17.9731 16.9715C18.0055 18.0602 17.5278 19.1568 16.6348 19.8083ZM19.8 9.5999H16.8C16.4686 9.5999 16.2 9.33127 16.2 8.9999V5.9999L19.8 9.5999Z" fill="currentColor"/>
</svg>
