<svg width="24" height="24" viewBox="0 0 24 24" fill="currentColor" xmlns="http://www.w3.org/2000/svg">
<path fill-rule="evenodd" clip-rule="evenodd" d="M19.7538 4.20005C16.8445 4.20005 14.1599 3.30655 12 1.80005C9.84012 3.30655 7.15545 4.19938 4.24615 4.19938L3.6 4.20005V10.8C3.6 15.2376 6.18461 20.4001 12 22.2001C17.8154 20.4001 20.4 15.2376 20.4 10.8V4.20005H19.7538ZM10.5688 12.8424C9.64598 11.9208 8.76396 10.8536 9.18636 10.4317C10.2464 9.37286 10.3176 9.45518 9.24636 8.12362C8.17454 6.79205 8.2176 7.03133 6.87444 8.39976C6.168 9.1596 6.83894 11.5922 9.32937 14.0803C11.8203 16.5679 14.3203 17.208 15.0165 16.5323C16.4475 15.1128 16.56 15.192 15.2928 14.1637C13.9602 13.0931 14.0378 13.1692 12.9825 14.2234C12.5598 14.645 11.4917 13.7642 10.5688 12.8424Z" fill="currentColor"/>
</svg>
