<svg width="24" height="24" viewBox="0 0 24 24" fill="currentColor" xmlns="http://www.w3.org/2000/svg">
<path fill-rule="evenodd" clip-rule="evenodd" d="M19.7539 4.20005C16.8445 4.20005 14.1599 3.30655 12 1.80005C9.84013 3.30655 7.15546 4.19938 4.24616 4.19938L3.60001 4.20005V10.8C3.60001 13.7434 4.73761 17.005 7.20001 19.3934C7.83367 20.0079 8.53622 20.547 9.29367 21C10.1445 21.507 11.0531 21.9099 12 22.2001C12.9469 21.9099 13.8555 21.507 14.7063 21C15.4638 20.547 16.1664 20.0078 16.8 19.3934C19.2624 17.005 20.4 13.7434 20.4 10.8V4.20005H19.7539ZM12 5.40005C13.7352 5.40005 15.1418 6.80669 15.1418 8.54186C15.1418 10.277 13.7352 11.6837 12 11.6837C10.2648 11.6837 8.85819 10.277 8.85819 8.54186C8.85819 6.80669 10.2648 5.40005 12 5.40005ZM12.024 20.9904C9.95489 20.3311 8.35921 19.1604 7.20001 17.7367V14.8255H7.20111C7.23198 13.4193 8.01261 12.1371 9.24759 11.464C10.7936 12.9206 13.2067 12.9205 14.7526 11.4639C16.015 12.1519 16.8005 13.475 16.8 14.9128V17.7738C15.6528 19.1807 14.0751 20.3369 12.024 20.9904Z" fill="currentColor"/>
</svg>
