<svg width="24" height="24" viewBox="0 0 24 24" fill="currentColor" xmlns="http://www.w3.org/2000/svg">
<path fill-rule="evenodd" clip-rule="evenodd" d="M17.976 16.8H3.60005C3.60005 16.8 3.40006 15.292 3.36005 14.952C3.32004 14.612 3.22404 14.532 3.00005 14.4C2.9011 14.3493 2.12436 13.9533 2.12436 13.9533L2.12052 13.9469C1.92341 13.8432 1.80005 13.6388 1.80005 13.416V13.4141V12.6H16.464L17.4 11.4H22.2001L17.976 16.8ZM11.4 10.8H15.6V12H11.4V10.8ZM11.4 8.40001H15.6V10.2H11.4V8.40001ZM6.60005 10.8H10.8V12H6.60005V10.8ZM5.40005 12H3.00005V7.20001H6.00005V7.77601L5.40005 8.40001V12ZM3.60005 8.40001H4.80005V9.00001H3.60005V8.40001ZM3.60005 9.60001H4.80005V10.2H3.60005V9.60001ZM20.1 12C20.2657 12 20.4 12.1343 20.4 12.3C20.4 12.4657 20.2657 12.6 20.1 12.6C19.9344 12.6 19.8 12.4657 19.8 12.3C19.8 12.1343 19.9344 12 20.1 12ZM18.9 12C19.0657 12 19.2001 12.1343 19.2001 12.3C19.2001 12.4657 19.0657 12.6 18.9 12.6C18.7344 12.6 18.6 12.4657 18.6 12.3C18.6 12.1343 18.7344 12 18.9 12Z" fill="currentColor"/>
</svg>
