<svg width="24" height="24" viewBox="0 0 24 24" fill="currentColor" xmlns="http://www.w3.org/2000/svg">
<path fill-rule="evenodd" clip-rule="evenodd" d="M21 3.59996H3C2.33726 3.59996 1.8 4.13722 1.8 4.79996V19.2C1.8 19.8627 2.33726 20.4 3 20.4H21C21.6627 20.4 22.2 19.8627 22.2 19.2V4.79996C22.2 4.13722 21.6627 3.59996 21 3.59996ZM21 19.2H3V4.79996H21V19.2ZM19.2 7.79996C19.2 8.79407 18.3941 9.59996 17.4 9.59996C16.4059 9.59996 15.6 8.79407 15.6 7.79996C15.6 6.80585 16.4059 5.99996 17.4 5.99996C18.3941 5.99996 19.2 6.80585 19.2 7.79996ZM13.8 7.79996C13.8 8.79407 12.9941 9.59996 12 9.59996C11.0059 9.59996 10.2 8.79407 10.2 7.79996C10.2 6.80585 11.0059 5.99996 12 5.99996C12.9941 5.99996 13.8 6.80585 13.8 7.79996ZM8.4 7.79996C8.4 8.79407 7.59412 9.59996 6.6 9.59996C5.60589 9.59996 4.8 8.79407 4.8 7.79996C4.8 6.80585 5.60589 5.99996 6.6 5.99996C7.59412 5.99996 8.4 6.80585 8.4 7.79996ZM7.76247 9.89996C7.03911 10.3 6.1609 10.3 5.43754 9.89996C4.67368 10.3227 4.19972 11.1269 4.2 12V13.8C4.2 14.4627 4.73726 15 5.4 15V17.4C5.4 17.7313 5.66863 18 6 18H7.2C7.53137 18 7.8 17.7313 7.8 17.4V15C8.46274 15 9 14.4627 9 13.8V12C9.00028 11.1269 8.52632 10.3227 7.76247 9.89996ZM13.1625 9.89996C12.4391 10.3 11.5609 10.3 10.8375 9.89996C10.0737 10.3227 9.59972 11.1269 9.6 12V13.8C9.6 14.4627 10.1373 15 10.8 15V17.4C10.8 17.7313 11.0686 18 11.4 18H12.6C12.9314 18 13.2 17.7313 13.2 17.4V15C13.8627 15 14.4 14.4627 14.4 13.8V12C14.4003 11.1269 13.9263 10.3227 13.1625 9.89996ZM18.5625 9.89996C17.8391 10.3 16.9609 10.3 16.2375 9.89996C15.4737 10.3227 14.9997 11.1269 15 12V13.8C15 14.4627 15.5373 15 16.2 15V17.4C16.2 17.7313 16.4686 18 16.8 18H18C18.3314 18 18.6 17.7313 18.6 17.4V15C19.2627 15 19.8 14.4627 19.8 13.8V12C19.8003 11.1269 19.3263 10.3227 18.5625 9.89996ZM14.4 21L12.4351 22.6434C12.1826 22.8521 11.8174 22.8521 11.5649 22.6434L9.6 21H14.4ZM9.6 2.99996L11.5649 1.35649C11.8174 1.14777 12.1826 1.14777 12.4351 1.35649L14.4 2.99996H9.6Z" fill="currentColor"/>
</svg>
