<svg width="24" height="24" viewBox="0 0 24 24" fill="currentColor" xmlns="http://www.w3.org/2000/svg">
<path fill-rule="evenodd" clip-rule="evenodd" d="M7.4 22.4H2.6C2.26863 22.4 2 22.1314 2 21.8V17.6C2 17.2686 2.26863 17 2.6 17H7.4C7.73137 17 8 17.2686 8 17.6V21.8C8 22.1314 7.73137 22.4 7.4 22.4ZM14.6 22.4H9.8C9.46863 22.4 9.2 22.1314 9.2 21.8V17.6C9.2 17.2686 9.46863 17 9.8 17H14.6C14.9314 17 15.2 17.2686 15.2 17.6V21.8C15.2 22.1314 14.9314 22.4 14.6 22.4ZM14.6 7.4H9.8C9.46863 7.4 9.2 7.13137 9.2 6.8V2.6C9.2 2.26863 9.46863 2 9.8 2H14.6C14.9314 2 15.2 2.26863 15.2 2.6V6.8C15.2 7.13137 14.9314 7.4 14.6 7.4ZM21.8 22.4H17C16.6686 22.4 16.4 22.1314 16.4 21.8V17.6C16.4 17.2686 16.6686 17 17 17H21.8C22.1314 17 22.4 17.2686 22.4 17.6V21.8C22.4 22.1314 22.1314 22.4 21.8 22.4ZM18.8 11.6H12.8V8H11.6V11.6H5.6C4.93726 11.6 4.4 12.1373 4.4 12.8V16.4H5.6V12.8H11.6V16.4H12.8V12.8H18.8V16.4H20V12.8C20 12.1373 19.4627 11.6 18.8 11.6Z" fill="currentColor"/>
</svg>
