<svg width="24" height="24" viewBox="0 0 24 24" fill="currentColor" xmlns="http://www.w3.org/2000/svg">
<path fill-rule="evenodd" clip-rule="evenodd" d="M12 1.80005C9.84013 3.30655 7.15549 4.19938 4.24616 4.19938L3.60001 4.20005V10.8C3.60001 15.2376 6.18459 20.4001 12 22.2001C17.8154 20.4001 20.4 15.2376 20.4 10.8V4.20005H19.7539C16.8445 4.20005 14.1599 3.30655 12 1.80005ZM14.712 7.48805C14.712 8.97922 13.5032 10.188 12.012 10.188C10.5208 10.188 9.31201 8.97922 9.31201 7.48805C9.31201 5.99688 10.5208 4.78805 12.012 4.78805C13.5032 4.78805 14.712 5.99688 14.712 7.48805ZM14.1744 9.98078C12.9337 11.0571 11.0903 11.0571 9.84961 9.98078C8.77923 10.556 8.11165 11.6729 8.11201 12.888V15.288C8.11201 17.442 9.8581 19.188 12.012 19.188C14.1659 19.188 15.912 17.442 15.912 15.288V12.888C15.9124 11.6729 15.2448 10.556 14.1744 9.98078ZM12.2796 13.056C12.2776 13.6501 11.7948 14.1304 11.2007 14.1291C10.6066 14.1278 10.1259 13.6455 10.1265 13.0514C10.1272 12.4573 10.609 11.976 11.2031 11.976C11.489 11.9765 11.7631 12.0906 11.965 12.2931C12.1669 12.4956 12.28 12.7701 12.2796 13.056ZM12.1356 14.1495C11.6048 14.6071 10.8204 14.612 10.284 14.161C9.86031 14.4075 9.59985 14.8609 9.60032 15.351V16.3511C9.60032 16.9297 9.90904 17.4645 10.4102 17.7538C10.9114 18.0432 11.5288 18.0432 12.03 17.7538C12.5311 17.4645 12.8398 16.9297 12.8398 16.3511V15.351C12.8403 14.8524 12.5708 14.3927 12.1356 14.1495Z" fill="currentColor"/>
</svg>
