<svg width="24" height="24" viewBox="0 0 24 24" fill="currentColor" xmlns="http://www.w3.org/2000/svg">
<path fill-rule="evenodd" clip-rule="evenodd" d="M9.58798 11.4H4.19998C3.53724 11.4 2.99998 10.8627 2.99998 10.2V4.19998C2.99998 3.53724 3.53724 2.99998 4.19998 2.99998H10.2C10.8627 2.99998 11.4 3.53724 11.4 4.19998V9.59998L9.58798 11.4ZM14.412 12.6H19.8C20.4627 12.6 21 13.1372 21 13.8V19.8C21 20.4627 20.4627 21 19.8 21H13.8C13.1372 21 12.6 20.4627 12.6 19.8V14.4L14.412 12.6ZM12.6 8.39998V4.19998C12.6 3.53724 13.1372 2.99998 13.8 2.99998H17.9965L12.6 8.39998ZM21 5.99998V10.2C20.9999 10.5183 20.8733 10.8236 20.6481 11.0487C20.4229 11.2737 20.1175 11.4001 19.7991 11.4H15.5997L21 5.99998ZM2.99998 18V13.8C2.99998 13.1372 3.53724 12.6 4.19998 12.6H8.39655L2.99998 18ZM11.4 15.6V19.8C11.3999 20.1183 11.2733 20.4236 11.0481 20.6487C10.8229 20.8737 10.5175 21.0001 10.1991 21H5.99967L11.4 15.6ZM2.42472 22.824L1.15198 21.5512L21.5512 1.15198L22.824 2.42472L2.42472 22.824Z" fill="currentColor"/>
</svg>
