<svg width="24" height="24" viewBox="0 0 24 24" fill="currentColor" xmlns="http://www.w3.org/2000/svg">
<path fill-rule="evenodd" clip-rule="evenodd" d="M20.2032 13.5268L17.76 13.0598L14.22 9.2995C14.0302 9.10668 13.7706 8.99861 13.5 8.99975H6.99999C6.6836 8.99949 6.38579 9.14913 6.19719 9.40315L3.20023 13.4058L3.19716 13.4099L3.19529 13.4123C3.06813 13.584 2.99965 13.7921 3 14.0057V17.4999C3 18.0522 3.44779 18.4998 4 18.4999H4.5C4.5 19.8807 5.61929 21 7 21C8.38073 21 9.50002 19.8807 9.50002 18.4999H14C14 19.8807 15.1193 21 16.5 21C17.8807 21 19 19.8807 19 18.4999H20C20.5523 18.4998 21 18.0521 21 17.4999V14.5053C21 14.0315 20.6671 13.6229 20.2032 13.5268ZM9.74 12.9993H4.96675L7.14691 10.0824L7.14917 10.0797H9.74V12.9993ZM11.24 12.9993V10.0797H13.4638C13.4659 10.0796 13.468 10.0798 13.4701 10.0803L16.2133 12.9993H11.24ZM18.8445 5.0773C18.8089 5.00991 18.7558 4.95333 18.6908 4.91345C18.6226 4.87329 18.5472 4.84676 18.4689 4.8353C18.3822 4.82166 18.2945 4.81491 18.2067 4.81512H17.5916V5.89412H18.2067C18.2945 5.89435 18.3822 5.88761 18.4689 5.87395C18.5472 5.86256 18.6226 5.83601 18.6908 5.79578C18.7558 5.75592 18.8089 5.69933 18.8445 5.63194C18.8831 5.56133 18.9025 5.46889 18.9025 5.35462C18.9026 5.24034 18.8832 5.1479 18.8445 5.0773ZM20.2 3H15.8C15.3582 3 15 3.35817 15 3.79999V8.20001C15 8.64183 15.3582 9 15.8 9H20.2C20.6418 9 21 8.64183 21 8.20001V3.79999C21 3.35817 20.6418 3 20.2 3ZM19.6008 5.78066C19.5564 5.91851 19.4824 6.04499 19.384 6.15125C19.2759 6.26491 19.1443 6.35355 18.9983 6.41093C18.8402 6.47653 18.6486 6.50933 18.4235 6.50933H17.5916V7.8H16.8V4.2H18.4235C18.6487 4.2 18.8403 4.2328 18.9983 4.2984C19.1443 4.35582 19.2759 4.44445 19.384 4.55808C19.482 4.6637 19.556 4.78926 19.6008 4.92614C19.6916 5.20376 19.6915 5.50305 19.6008 5.78066Z" fill="currentColor"/>
</svg>
