<svg width="24" height="24" viewBox="0 0 24 24" fill="currentColor" xmlns="http://www.w3.org/2000/svg">
<path fill-rule="evenodd" clip-rule="evenodd" d="M22.2001 9.74818L15 8.56298L12 2.40002L9.00005 8.56298L1.80005 9.74815L7.20005 14.4888L5.40005 21.6L12 18.0445L18.6 21.6L16.8 14.4888L22.2001 9.74818ZM12 16.8C11.503 16.8 11.1 16.3971 11.1 15.9C11.1 15.403 11.503 15 12 15C12.4971 15 12.9 15.403 12.9 15.9C12.9 16.3971 12.4971 16.8 12 16.8ZM12.8974 8.76562L12.6 13.6563C12.5999 13.9876 12.3312 14.112 12 14.112C11.6688 14.112 11.4002 13.9876 11.4 13.6563L11.1018 8.75434C11.1008 8.73636 11.1 8.71834 11.1 8.70002C11.1 8.20297 11.503 7.80002 12 7.80002C12.4971 7.80002 12.9 8.20297 12.9 8.70002C12.9 8.7221 12.899 8.74392 12.8974 8.76562Z" fill="currentColor"/>
</svg>
