<svg width="24" height="24" viewBox="0 0 24 24" fill="currentColor" xmlns="http://www.w3.org/2000/svg">
<path d="M20.8474 11.4412C20.9456 10.9837 20.995 10.5172 20.9949 10.0493C20.9949 6.40463 18.0401 3.45001 14.3952 3.45001C12.3983 3.4482 10.5084 4.35238 9.2568 5.90836C8.50529 5.74927 7.72159 5.91758 7.10167 6.37121C6.48175 6.82483 6.08421 7.52088 6.00847 8.2853C3.63461 8.57483 1.79578 10.5971 1.79578 13.049C1.79578 15.6997 3.94471 17.8485 6.59556 17.8485H6.62218C6.63734 18.0771 6.7089 18.2984 6.83045 18.4926L7.11571 18.9506C7.36922 19.3605 7.81743 19.6093 8.29939 19.6077C8.34182 19.6077 8.38408 19.6058 8.42616 19.6019C8.62236 20.161 9.14997 20.5355 9.74251 20.5362H10.3386C10.9312 20.5355 11.4588 20.161 11.655 19.6019C11.697 19.6058 11.7393 19.6077 11.7817 19.6077C12.2637 19.6093 12.7119 19.3605 12.9654 18.9506L13.2493 18.4949C13.3713 18.3 13.443 18.0779 13.4579 17.8485H18.595C20.1229 17.8487 21.4844 16.8842 21.9911 15.4428C22.4979 14.0014 22.0393 12.3971 20.8474 11.4412ZM12.2308 17.8605L11.9469 18.3162C11.8909 18.4061 11.7732 18.4346 11.6823 18.3803L10.827 17.8698C10.8113 17.8605 10.7945 17.8533 10.7769 17.8486C10.7609 17.8443 10.7443 17.8421 10.7277 17.842C10.6204 17.8428 10.5337 17.9295 10.5329 18.0367V19.1421C10.5329 19.1936 10.5124 19.2431 10.476 19.2795C10.4395 19.316 10.3901 19.3365 10.3385 19.3365H9.74251C9.63515 19.3365 9.54811 19.2494 9.54811 19.1421V18.0365C9.54734 17.9293 9.4606 17.8426 9.35338 17.8418C9.33653 17.8418 9.31976 17.8441 9.3035 17.8485C9.28615 17.8533 9.26952 17.8604 9.25409 17.8696L8.39885 18.3803C8.30789 18.4346 8.1902 18.4061 8.13418 18.3162L7.84894 17.8583C7.84694 17.8551 7.84529 17.8518 7.84351 17.8485C7.7943 17.7586 7.82352 17.6458 7.91023 17.5911L8.84712 17.0004C8.90355 16.9648 8.93777 16.9027 8.93777 16.836C8.93777 16.7693 8.90355 16.7072 8.84712 16.6716L7.91021 16.0807C7.81978 16.0237 7.7924 15.9043 7.84891 15.8136L8.13418 15.3556C8.19019 15.2657 8.30789 15.2371 8.39885 15.2914L9.25409 15.8021C9.28404 15.8203 9.31837 15.8299 9.35338 15.83C9.40502 15.83 9.45456 15.8095 9.49109 15.773C9.52761 15.7365 9.54813 15.6869 9.54811 15.6353V14.5298C9.54811 14.4224 9.63515 14.3354 9.74251 14.3354H10.3386C10.3902 14.3354 10.4396 14.3559 10.4761 14.3923C10.5125 14.4288 10.533 14.4782 10.533 14.5298V15.6352C10.5328 15.7052 10.5703 15.77 10.6313 15.8045C10.6922 15.8391 10.767 15.8382 10.8271 15.802L11.6823 15.2914C11.7733 15.2371 11.8909 15.2656 11.947 15.3556L12.2308 15.8113C12.2582 15.8553 12.2669 15.9084 12.255 15.9588C12.243 16.0092 12.2115 16.0528 12.1673 16.0798L11.2023 16.6702C11.1446 16.7056 11.1094 16.7684 11.1094 16.836C11.1094 16.9037 11.1446 16.9665 11.2023 17.0018L12.1673 17.592C12.2547 17.6456 12.2855 17.7579 12.2375 17.8486C12.2353 17.8525 12.2334 17.8566 12.2308 17.8605ZM7.84891 9.04816L8.13418 8.59022C8.1902 8.50032 8.30788 8.47181 8.39882 8.52611L9.25409 9.03681C9.31415 9.07265 9.38884 9.07347 9.44967 9.03895C9.5105 9.00442 9.54809 8.93988 9.54811 8.86994V7.76445C9.54811 7.65709 9.63515 7.57005 9.74251 7.57005H10.3386C10.3902 7.57005 10.4397 7.59053 10.4761 7.62699C10.5126 7.66345 10.533 7.71289 10.533 7.76445V8.86982C10.5331 8.93977 10.5707 9.00433 10.6315 9.03886C10.6923 9.07339 10.767 9.07257 10.8271 9.03671L11.6823 8.52609C11.7733 8.47179 11.891 8.50031 11.947 8.59022L12.2309 9.04595C12.2582 9.08994 12.2669 9.14304 12.255 9.19347C12.2431 9.24389 12.2115 9.28747 12.1673 9.31451L11.2023 9.90491C11.1446 9.94024 11.1094 10.003 11.1094 10.0707C11.1094 10.1384 11.1446 10.2012 11.2023 10.2365L12.1673 10.8267C12.2115 10.8538 12.2431 10.8973 12.255 10.9478C12.2669 10.9982 12.2582 11.0513 12.2309 11.0953L11.9469 11.5509C11.8909 11.6408 11.7732 11.6693 11.6823 11.615L10.827 11.1044C10.7669 11.0685 10.6922 11.0677 10.6314 11.1022C10.5705 11.1368 10.5329 11.2013 10.5329 11.2713V12.3766C10.5329 12.4282 10.5124 12.4776 10.476 12.5141C10.4395 12.5505 10.3901 12.571 10.3385 12.571H9.74249C9.63512 12.571 9.54809 12.484 9.54809 12.3766V11.2711C9.54808 11.2012 9.51049 11.1366 9.44967 11.1021C9.38884 11.0676 9.31416 11.0684 9.25409 11.1042L8.39882 11.6149C8.30789 11.6692 8.19021 11.6407 8.13418 11.5509L7.84894 11.0929C7.79241 11.0021 7.81979 10.8828 7.91023 10.8257L8.84712 10.235C8.90355 10.1994 8.93777 10.1373 8.93777 10.0706C8.93777 10.0039 8.90355 9.94182 8.84712 9.90621L7.91021 9.31535C7.81977 9.2583 7.79238 9.13893 7.84891 9.04816ZM16.9611 13.6421L17.9262 14.2323C17.9704 14.2594 18.0019 14.3029 18.0139 14.3534C18.0258 14.4038 18.0171 14.4569 17.9897 14.5009L17.7059 14.9566C17.6499 15.0465 17.5322 15.075 17.4412 15.0207L16.586 14.5101C16.5259 14.4741 16.4511 14.4733 16.3903 14.5078C16.3294 14.5424 16.2918 14.607 16.2918 14.677V15.7823C16.2918 15.8897 16.2047 15.9767 16.0974 15.9767H15.5013C15.3939 15.9767 15.3069 15.8897 15.3069 15.7823V14.6768C15.3069 14.6069 15.2693 14.5423 15.2085 14.5078C15.1476 14.4733 15.0729 14.4741 15.0129 14.51L14.1576 15.0207C14.0667 15.075 13.949 15.0465 13.893 14.9566L13.6077 14.4986C13.5512 14.4078 13.5786 14.2885 13.6691 14.2314L14.6059 13.6407C14.6623 13.6051 14.6966 13.543 14.6966 13.4763C14.6966 13.4096 14.6623 13.3475 14.6059 13.3119L13.669 12.721C13.5786 12.664 13.5512 12.5446 13.6077 12.4539L13.893 11.9959C13.949 11.906 14.0667 11.8775 14.1576 11.9318L15.0129 12.4425C15.0729 12.4783 15.1476 12.4792 15.2085 12.4446C15.2693 12.4101 15.3069 12.3456 15.3069 12.2756V11.1701C15.3069 11.1186 15.3274 11.0691 15.3639 11.0327C15.4003 10.9962 15.4498 10.9757 15.5013 10.9757H16.0974C16.1489 10.9757 16.1984 10.9962 16.2348 11.0327C16.2713 11.0691 16.2918 11.1186 16.2918 11.1701V12.2754C16.2918 12.3454 16.3294 12.4099 16.3902 12.4444C16.4511 12.4789 16.5257 12.4781 16.5858 12.4423L17.4411 11.9317C17.532 11.8774 17.6497 11.9059 17.7057 11.9958L17.9896 12.4515C18.017 12.4955 18.0257 12.5486 18.0137 12.599C18.0018 12.6495 17.9702 12.693 17.926 12.7201L16.961 13.3105C16.9033 13.3458 16.8681 13.4086 16.8681 13.4763C16.8681 13.544 16.9034 13.6068 16.9611 13.6421Z" fill="currentColor"/>
</svg>
