<svg width="24" height="24" viewBox="0 0 24 24" fill="currentColor" xmlns="http://www.w3.org/2000/svg">
<path fill-rule="evenodd" clip-rule="evenodd" d="M2.95589 11.528C3.25544 11.201 3.59217 10.9101 3.95923 10.6613C3.93686 10.4832 3.92564 10.3038 3.92563 10.1242C3.92563 7.76644 5.83771 5.85506 8.19638 5.85506C8.95364 5.85393 9.69745 6.05507 10.3509 6.43768C10.6467 6.23821 10.9566 6.06061 11.2783 5.90632C11.4644 5.8173 11.6543 5.73625 11.8479 5.66318L11.4966 4.41834L9.59897 4.89976L8.19643 3.53442L6.79387 4.89976L4.89631 4.41834L4.36459 6.30182L2.48045 6.83334L2.96203 8.73021L1.59619 10.1322L2.95589 11.528ZM21.1683 13.6488C21.2256 13.2917 21.2543 12.9306 21.2543 12.569C21.2536 8.82129 18.2151 5.78367 14.4674 5.78411H14.4614C13.6236 5.78546 12.7931 5.94109 12.0116 6.24323C11.8508 6.30536 11.6927 6.37341 11.5372 6.44738C11.3129 6.5549 11.0948 6.67481 10.8838 6.80654C10.3358 7.1479 9.83881 7.56521 9.40783 8.04602C9.31111 8.03722 9.21475 8.03282 9.11875 8.03284C7.68781 8.03605 6.44062 9.00774 6.08755 10.3944C5.36355 10.5483 4.68208 10.859 4.09106 11.3046C2.80939 12.2676 2.05517 13.7773 2.05478 15.3804C2.05478 18.1914 4.34258 20.4784 7.15459 20.4784H18.4044C20.596 20.4784 22.3791 18.6963 22.3793 16.5055C22.3829 15.4278 21.9453 14.3956 21.1683 13.6488ZM21.1792 16.5049C21.1772 18.0365 19.9359 19.2774 18.4044 19.2788H7.15459C5.00419 19.2788 3.25476 17.53 3.25476 15.3804C3.25476 13.4115 4.72287 11.7517 6.67699 11.5111L7.15409 11.4529L7.20144 10.9748C7.29945 9.98734 8.12917 9.23449 9.12144 9.23262C9.18576 9.23262 9.2504 9.23582 9.31536 9.24222C9.38592 9.24922 9.45604 9.26008 9.52541 9.27474L9.88615 9.35114L10.1173 9.06388C10.5604 8.51503 11.103 8.05463 11.7168 7.7068C11.8277 7.64394 11.9405 7.5844 12.0553 7.52951C12.6257 7.25776 13.2379 7.08427 13.866 7.01637C14.064 6.99477 14.263 6.98387 14.4621 6.98373H14.4671C15.9486 6.98348 17.3696 7.57181 18.4174 8.61928C19.4653 9.66675 20.054 11.0876 20.0543 12.5692C20.0543 12.9653 20.0124 13.3603 19.9293 13.7476L19.8515 14.11L20.141 14.3416C20.7995 14.8659 21.1819 15.6632 21.1792 16.5049Z" fill="currentColor"/>
</svg>
