<svg width="24" height="24" viewBox="0 0 24 24" fill="currentColor" xmlns="http://www.w3.org/2000/svg">
<path fill-rule="evenodd" clip-rule="evenodd" d="M21.1973 11.1939C18.883 8.8259 16.57 6.45657 14.2584 4.08592C12.9943 2.79011 10.8524 2.78404 9.5962 4.09204C7.30828 6.47444 5.02576 8.86191 2.74866 11.2545C2.40066 11.6186 2.30399 12.0421 2.49709 12.501C2.69192 12.9642 3.07182 13.1811 3.57709 13.1812C4.06362 13.1814 4.5502 13.1855 5.0366 13.1788C5.08709 13.1779 5.13581 13.1975 5.17153 13.2332C5.20726 13.2689 5.22692 13.3175 5.22599 13.368C5.21924 13.8882 5.22244 14.4085 5.22359 14.9287C5.22625 16.1028 5.20861 17.2775 5.2388 18.4509C5.27382 19.813 6.455 20.9724 7.81352 21.0075C8.45656 21.0241 9.10038 21.0134 9.74382 21.0099C10.0251 21.0083 10.23 20.8454 10.293 20.5903C10.384 20.2213 10.1212 19.8979 9.71442 19.8933C9.12596 19.8866 8.53741 19.8885 7.94888 19.8894C7.71247 19.8917 7.47907 19.8363 7.26892 19.728C6.63532 19.3989 6.35672 18.87 6.35932 18.1669C6.365 16.5858 6.36558 13.5397 6.3656 12.4573C6.36562 12.24 6.18951 12.0639 5.97224 12.0639L3.83336 12.0635C3.78867 12.0635 3.74827 12.0369 3.73062 11.9958C3.71297 11.9547 3.72147 11.9071 3.75222 11.8747C4.62085 10.9591 8.43383 6.94122 10.4076 4.88106C11.2363 4.01608 12.6224 4.02872 13.4595 4.88881C15.137 6.61249 16.8165 8.33432 18.4978 10.0543C19.0705 10.6412 19.6435 11.2279 20.2528 11.8519C20.2876 11.8875 20.2977 11.9404 20.2785 11.9863C20.2593 12.0322 20.2144 12.0622 20.1646 12.0623C19.6509 12.0627 18.6033 12.0638 18.0298 12.0644C17.9245 12.0645 17.8235 12.1064 17.7491 12.181C17.6747 12.2556 17.633 12.3567 17.6332 12.462C17.6343 13.5512 17.6374 16.6079 17.6373 18.1881C17.6373 19.2179 16.9753 19.883 15.9385 19.8907C15.8287 19.8916 14.579 19.8912 14.3377 19.892C14.3335 19.892 14.3295 19.8922 14.3253 19.8923C13.9399 19.8917 13.5545 19.8907 13.169 19.8891C12.7434 19.8877 12.5291 19.6815 12.5239 19.2547C12.5167 18.6642 12.5233 17.7407 12.5203 17.0757H14.7133V12.6303C14.7124 12.3225 14.4621 12.0737 14.1543 12.0746H13.9307V11.2967C13.9307 10.1936 13.028 9.2962 11.9183 9.2962C10.8087 9.2962 9.90592 10.1936 9.90592 11.2967V12.0746H9.1233V16.5201C9.12423 16.8279 9.3745 17.0767 9.68231 17.0757H11.3917C11.3851 17.9183 11.3872 19.0665 11.3904 19.8544C11.3932 20.548 11.867 21.0148 12.5644 21.0156C13.5793 21.0168 15.8692 21.0111 15.9993 21.011C17.5744 21.0097 18.7702 19.8261 18.7709 18.2664C18.7716 16.8512 18.7663 14.0285 18.7649 13.3446C18.7647 13.2607 18.8324 13.1925 18.9163 13.1921C19.2601 13.1907 20.0985 13.1865 20.4861 13.1792C21.1352 13.1669 21.6 12.6773 21.5945 12.0351C21.5914 11.6921 21.4294 11.4314 21.1973 11.1939ZM10.8003 12.0747V11.2967C10.8032 10.6812 11.3029 10.1838 11.9183 10.1838C12.5338 10.1838 13.0335 10.6812 13.0363 11.2967V12.0746L10.8003 12.0747Z" fill="currentColor"/>
</svg>
