<svg width="24" height="24" viewBox="0 0 24 24" fill="currentColor" xmlns="http://www.w3.org/2000/svg">
<path fill-rule="evenodd" clip-rule="evenodd" d="M10.2553 11.2739C10.2553 11.2739 16.9856 4.58461 16.9667 4.56277C16.9371 4.52965 16.9071 4.49893 16.8774 4.46917L16.8493 4.44229C16.8282 4.42237 16.8073 4.40317 16.7864 4.38469C16.7759 4.37557 16.7653 4.36645 16.7547 4.35781C16.7339 4.34029 16.713 4.32373 16.6921 4.30789L16.6635 4.28605C16.6333 4.26445 16.6033 4.24381 16.5733 4.22509L16.5668 4.22125C16.5383 4.20373 16.5099 4.18765 16.4816 4.17325C16.4715 4.16797 16.4612 4.16317 16.4511 4.15813C16.43 4.14757 16.4089 4.13749 16.3875 4.12813L16.3547 4.11421C16.3328 4.10509 16.3112 4.09693 16.2891 4.09021C16.2795 4.08661 16.2699 4.08301 16.2601 4.07989C16.2291 4.06957 16.1979 4.05997 16.1663 4.05181L16.1574 4.04965C16.1286 4.04245 16.0995 4.03597 16.0705 4.03021L16.0393 4.02349C16.0167 4.01941 15.9944 4.01605 15.9716 4.01269L15.938 4.00837C15.914 4.00549 15.8912 4.00309 15.8672 4.00117C15.8579 4.00117 15.8487 4.00813 15.8394 4.00741C15.8063 4.00501 15.7731 4.01077 15.7398 4.01077H15.7295C15.7009 4.01077 15.6721 4.00117 15.6433 4.00117C15.5912 4.00117 15.5384 3.99853 15.4849 4.00117C15.4729 4.00117 15.4609 4.00117 15.4489 4.00117C15.3949 4.00405 15.3407 4.01053 15.2852 4.01053H4.24522L7.65154 7.32253L2.62666 12.3361C2.1523 12.8135 1.92807 13.4849 2.02042 14.1515C2.07916 14.5977 2.28249 15.0124 2.5993 15.3321L4.3981 17.1311L10.2553 11.2739Z" fill="currentColor"/>
<path fill-rule="evenodd" clip-rule="evenodd" d="M20.5842 8.23573L18.7842 6.43693L6.24729 18.9755C6.27753 19.0093 6.30801 19.0413 6.33825 19.0715C6.34858 19.0816 6.35842 19.0907 6.36849 19.1008C6.38913 19.1207 6.40978 19.1401 6.43042 19.1589C6.44218 19.1694 6.45441 19.1795 6.46569 19.1896C6.48489 19.2059 6.5041 19.222 6.52329 19.2376L6.5593 19.2659C6.57874 19.2805 6.59818 19.2945 6.61737 19.3079C6.62937 19.3163 6.64138 19.3247 6.65314 19.3319C6.67426 19.3461 6.69561 19.359 6.71673 19.3717C6.72681 19.378 6.7369 19.3845 6.74697 19.3902C6.77817 19.408 6.80962 19.4248 6.84105 19.4401L6.8533 19.4457C6.8809 19.4589 6.90873 19.4711 6.93657 19.4826C6.94785 19.4872 6.95914 19.491 6.97018 19.4956C6.9913 19.5035 7.01241 19.5114 7.03354 19.5184C7.04626 19.5227 7.05898 19.5265 7.0717 19.5304C7.09186 19.5366 7.11177 19.5424 7.13217 19.5479C7.14513 19.5515 7.15834 19.5546 7.17154 19.558C7.19194 19.5628 7.21258 19.5673 7.23322 19.5714L7.27114 19.5791C7.29514 19.5832 7.3177 19.5868 7.34098 19.5899C7.3513 19.5913 7.36138 19.5933 7.37146 19.5945C7.40506 19.5985 7.43865 19.6021 7.47273 19.6048H7.49194C7.52002 19.6067 7.54786 19.6084 7.57618 19.6091C7.58865 19.6091 7.60138 19.6091 7.6141 19.6091C7.63498 19.6091 7.6561 19.6091 7.67722 19.6091H7.71274C7.73026 19.6091 7.74778 19.6091 7.7653 19.6079C7.7773 19.6079 7.78929 19.6149 7.80105 19.6144C7.84281 19.6125 7.88506 19.6144 7.92777 19.6144H18.9678L15.5624 16.2241L20.5825 11.1995C20.9767 10.8072 21.1985 10.2741 21.1989 9.71796C21.1992 9.16181 20.978 8.62844 20.5842 8.23573Z" fill="currentColor"/>
</svg>
