<svg width="24" height="24" viewBox="0 0 24 24" fill="currentColor" xmlns="http://www.w3.org/2000/svg">
<path fill-rule="evenodd" clip-rule="evenodd" d="M15.6352 8.68079L12.5808 7.60259L12.2751 7.47993C12.2632 7.47513 12.2512 7.47062 12.2391 7.46639C12.0632 7.40447 11.8708 7.40816 11.6973 7.47678L11.6947 7.47784L11.4 7.59599L8.36472 8.68079C7.90454 8.86707 7.68118 9.39002 7.8648 9.85127C8.051 10.3115 8.57389 10.5349 9.03514 10.3513L11.8643 9.3309C11.952 9.29925 12.0481 9.29925 12.1359 9.3309L14.965 10.3513C15.4262 10.5348 15.949 10.3114 16.1352 9.85127C16.3188 9.39001 16.0954 8.86705 15.6352 8.68079ZM21.981 6.2789C21.6883 5.9879 21.2155 5.9879 20.9228 6.2789L20.2983 6.9034C19.9849 7.21494 19.5047 7.2852 19.1151 7.07651C19.0385 7.03595 18.9598 6.99956 18.8793 6.9675L12.9024 4.58879C12.323 4.35834 11.6774 4.35834 11.098 4.58879L5.1211 6.96743C5.03395 7.00214 4.94891 7.04192 4.86641 7.08657C4.48822 7.29094 4.0207 7.22262 3.71681 6.91857L3.07726 6.27897C2.78454 5.98797 2.31177 5.98797 2.01905 6.27897C1.72805 6.5717 1.72805 7.04449 2.01905 7.33722L3.2736 8.5917C3.47052 8.78612 3.58839 9.04661 3.60444 9.32286C3.60882 9.4096 3.61802 9.49602 3.63202 9.58173L4.4688 14.7017C4.58815 15.4259 5.0319 16.0558 5.6736 16.412L10.8136 19.276C11.5514 19.6866 12.449 19.6866 13.1868 19.276L18.3269 16.412C18.6437 16.2351 18.9168 15.9895 19.1262 15.6933C19.3342 15.3974 19.4728 15.0585 19.5317 14.7017L20.3684 9.58173C20.3823 9.49693 20.3914 9.41143 20.3959 9.32562C20.4122 9.04741 20.5308 8.78506 20.729 8.58914L21.981 7.33715C22.272 7.04442 22.272 6.57163 21.981 6.2789ZM19.1741 9.38973L18.3374 14.5097C18.2776 14.8722 18.0555 15.1875 17.7343 15.3658L12.5941 18.2299C12.2248 18.4354 11.7755 18.4354 11.4061 18.2299L6.26607 15.3658C5.94486 15.1875 5.72274 14.8722 5.66299 14.5097L4.82623 9.38973C4.79379 9.19171 4.81196 8.9887 4.87903 8.79959C4.89485 8.76736 4.90833 8.73404 4.91935 8.69987C5.04899 8.41729 5.28269 8.19565 5.57172 8.08113L11.5486 5.70239C11.8386 5.58703 12.1618 5.58703 12.4518 5.70239L18.4287 8.08106C18.7167 8.19515 18.9498 8.41562 19.0797 8.69682C19.0912 8.73287 19.1054 8.76798 19.1222 8.80187C19.1886 8.99035 19.2064 9.19252 19.1741 9.38973Z" fill="currentColor"/>
</svg>
