<svg width="24" height="24" viewBox="0 0 24 24" fill="currentColor" xmlns="http://www.w3.org/2000/svg">
<path fill-rule="evenodd" clip-rule="evenodd" d="M19.6198 16.2279C20.088 16.6963 20.088 17.4555 19.6198 17.9239L17.9239 19.6198C17.4555 20.088 16.6963 20.088 16.228 19.6198L11.988 15.3798L7.74805 19.6198C7.27967 20.088 6.52049 20.088 6.05211 19.6198L4.35618 17.9239C3.88799 17.4555 3.88799 16.6963 4.35618 16.2279L8.59614 11.988L4.35618 7.74802C3.88799 7.27964 3.88799 6.52046 4.35618 6.05208L6.05211 4.35615C6.52049 3.88796 7.27967 3.88796 7.74805 4.35615L11.988 8.59611L16.228 4.35615C16.6963 3.88796 17.4555 3.88796 17.9239 4.35615L19.6198 6.05208C20.088 6.52046 20.088 7.27964 19.6198 7.74802L15.3799 11.988L19.6198 16.2279Z" fill="currentColor"/>
</svg>
