<svg width="24" height="24" viewBox="0 0 24 24" fill="currentColor" xmlns="http://www.w3.org/2000/svg">
<path fill-rule="evenodd" clip-rule="evenodd" d="M19.8 4.8H17.4V3.888C17.4 3.39096 16.9971 3 16.5 3C16.0029 3 15.6 3.40294 15.6 3.9V4.8H9.00026L9 3.9C9 3.40294 8.59706 3 8.1 3C7.60294 3 7.2 3.40294 7.2 3.9V4.8H3V19.8C3 20.7941 3.80589 21.6 4.8 21.6H21.6V6.6C21.6 5.60589 20.7941 4.8 19.8 4.8ZM15.6 5.7V6.9C15.6 7.39706 16.0029 7.8 16.5 7.8C16.9971 7.8 17.4 7.39706 17.4 6.9L17.3997 6.6L17.4 5.712C17.7774 5.99017 18.0001 6.43116 18 6.9C18 7.60539 17.5085 8.21548 16.8193 8.36562C16.1301 8.51577 15.4293 8.16541 15.1359 7.52394C14.8425 6.88247 15.0357 6.12323 15.6 5.7ZM12.6 10.2H16.2V12.0137C15.323 12.0931 14.5142 12.5203 13.9543 13.2H12.6V10.2ZM12.6 13.8H13.5599C13.08 14.7424 13.08 15.8576 13.5599 16.8H12.6V13.8ZM7.8 20.4H5.1C4.60294 20.4 4.2 19.9971 4.2 19.5V17.4H7.8V20.4ZM7.8 16.8H4.2V13.8H7.8V16.8ZM7.8 13.2H4.2V10.2H7.8V13.2ZM6.6 6.9C6.59962 6.42778 6.82199 5.98303 7.2 5.7V6.9C7.2 7.39706 7.60294 7.8 8.1 7.8C8.59706 7.8 9 7.39706 9 6.9V6.6L9.00026 5.70017C9.56445 6.1235 9.75747 6.88272 9.46399 7.5241C9.1705 8.16549 8.4698 8.51576 7.78062 8.36557C7.09145 8.21539 6.6 7.60535 6.6 6.9ZM12 20.4H8.4V17.4H12V20.4ZM12 16.8H8.4V13.8H12V16.8ZM12 13.2H8.4V10.2H12V13.2ZM16.2 20.4H12.6V17.4H13.9543C14.5142 18.0797 15.323 18.5069 16.2 18.5863V20.4ZM14.9471 17.4071L15.3706 15.7129L14.1 14.5835L15.7941 14.3012L16.5 12.8329L17.2059 14.3012L18.9 14.5835L17.6294 15.7129L18.0529 17.4071L16.5 16.56L14.9471 17.4071ZM20.4 20.4H16.8V18.5863C17.677 18.5069 18.4858 18.0797 19.0457 17.4H20.4V20.4ZM20.4 16.8H19.4401C19.92 15.8576 19.92 14.7424 19.4401 13.8H20.4V16.8ZM20.4 13.2H19.0457C18.4858 12.5203 17.677 12.0931 16.8 12.0137V10.2H19.5C19.9971 10.2 20.4 10.6029 20.4 11.1V13.2Z" fill="currentColor"/>
</svg>
