<svg width="24" height="24" viewBox="0 0 24 24" fill="currentColor" xmlns="http://www.w3.org/2000/svg">
<path fill-rule="evenodd" clip-rule="evenodd" d="M16.1764 2.40002V2.4013C12.9726 2.43108 8.56667 3.07078 5.89441 5.74322C4.24868 7.38905 3.48001 9.5645 3.58801 11.7061C3.64449 13.2105 4.1373 14.666 5.00641 15.8952L11.3789 7.79981L12.6466 10.5788L17.9434 4.81901L11.3789 15.5995L10.1793 12.9872L4.74445 19.6864C4.22596 20.3298 4.32604 21.2717 4.96796 21.7921C5.60988 22.3126 6.55187 22.2155 7.07423 21.5752L9.24011 18.9022C9.93579 19.0999 10.6556 19.1999 11.3788 19.1993C13.3767 19.1993 15.1988 18.4929 16.5785 17.2592C16.6274 17.2154 16.6769 17.1721 16.7294 17.1327C16.8218 17.0632 16.9073 16.9599 16.985 16.8823C19.6572 14.2099 20.345 9.80379 20.3747 6.59976H20.376V2.40002H16.1764Z" fill="currentColor"/>
</svg>
