<svg width="24" height="24" viewBox="0 0 24 24" fill="currentColor" xmlns="http://www.w3.org/2000/svg">
<path fill-rule="evenodd" clip-rule="evenodd" d="M9.98057 5.24107C9.36696 4.89449 8.58868 5.10712 8.23652 5.71755C7.88437 6.32799 8.0899 7.10817 8.6971 7.46587L8.69605 7.46525L16.548 11.9999C17.3789 12.4804 17.79 13.4538 17.5551 14.3844L19.758 13.1122C20.1553 12.8827 20.4 12.4587 20.4 11.9999C20.4 11.5411 20.1553 11.1171 19.758 10.8876L9.98057 5.24107ZM16.1915 15.1719C16.8023 14.8156 17.0102 14.0326 16.6565 13.4202C16.3029 12.8079 15.5208 12.5966 14.9069 12.9476L14.908 12.947L7.05601 17.4815C6.22476 17.961 5.17622 17.8304 4.48801 17.1616V19.7061C4.48788 20.1649 4.73256 20.5889 5.12986 20.8184C5.52716 21.0478 6.0167 21.0479 6.41403 20.8185L16.1915 15.1719ZM4.48801 15.5867C4.48817 16.2959 5.06317 16.8706 5.77231 16.8704C6.48144 16.8703 7.05617 16.2953 7.05601 15.5861V6.5183C7.05637 5.55856 7.69365 4.71562 8.61694 4.45363L6.41408 3.18134C6.01675 2.95191 5.5272 2.95192 5.12988 3.18137C4.73257 3.41082 4.48787 3.83484 4.48801 4.29365V15.5867Z" fill="currentColor"/>
</svg>
