<svg width="24" height="24" viewBox="0 0 24 24" fill="currentColor" xmlns="http://www.w3.org/2000/svg">
<path d="M12.4662 3.19521C12.3412 3.07022 12.1717 3 11.9949 3C11.8182 3 11.6487 3.07022 11.5237 3.19521L8.59567 6.12321H11.0678V9.21362C11.0678 9.4595 11.1655 9.69532 11.3394 9.86919C11.5132 10.0431 11.749 10.1407 11.9949 10.1407C12.2408 10.1407 12.4766 10.0431 12.6505 9.86919C12.8244 9.69532 12.922 9.4595 12.922 9.21362V6.12328H15.3943L12.4662 3.19521ZM11.5237 20.7947C11.6487 20.9197 11.8182 20.9899 11.9949 20.9899C12.1717 20.9899 12.3412 20.9197 12.4662 20.7947L15.3942 17.8667H12.922V14.7762C12.922 14.5304 12.8244 14.2946 12.6505 14.1207C12.4766 13.9468 12.2408 13.8491 11.9949 13.8491C11.4829 13.8491 11.0678 14.2642 11.0678 14.7762V17.8666H8.59557L11.5237 20.7947ZM3.19521 11.5237C3.07022 11.6487 3 11.8182 3 11.9949C3 12.1717 3.07022 12.3412 3.19521 12.4662L6.12321 15.3942V12.922H9.21362C9.4595 12.922 9.69532 12.8244 9.86919 12.6505C10.0431 12.4766 10.1407 12.2408 10.1407 11.9949C10.1407 11.749 10.0431 11.5132 9.86919 11.3394C9.69532 11.1655 9.4595 11.0678 9.21362 11.0678H6.12328V8.59557L3.19521 11.5237ZM20.7947 12.4662C20.9197 12.3412 20.9899 12.1717 20.9899 11.9949C20.9899 11.8182 20.9197 11.6487 20.7947 11.5237L17.8667 8.59567V11.0678H14.7762C14.2642 11.0678 13.8491 11.4829 13.8491 11.9949C13.8491 12.2408 13.9468 12.4766 14.1207 12.6505C14.2946 12.8244 14.5304 12.922 14.7762 12.922H17.8666V15.3943L20.7947 12.4662Z" fill="currentColor"/>
</svg>
