<svg width="24" height="24" viewBox="0 0 24 24" fill="currentColor" xmlns="http://www.w3.org/2000/svg">
<path fill-rule="evenodd" clip-rule="evenodd" d="M20.7211 20.721C20.2713 21.1709 19.5419 21.1709 19.092 20.721L16.7602 18.3892C15.256 19.5403 13.414 20.1627 11.52 20.1599C6.74826 20.1599 2.88 16.2916 2.88 11.5199C2.88 6.74814 6.74826 2.87988 11.52 2.87988C16.2918 2.87988 20.16 6.74814 20.16 11.5199C20.1628 13.4139 19.5404 15.2559 18.3893 16.76L20.7211 19.0919C21.171 19.5417 21.171 20.2711 20.7211 20.721ZM11.5085 4.00884C15.6505 4.00884 19.0083 7.36653 19.0083 11.5084C19.0083 15.6502 15.6505 19.0077 11.5085 19.0077C7.36647 19.0077 4.03173 15.6501 4.03173 11.5084C4.03173 7.36662 7.36647 4.00884 11.5085 4.00884ZM10.1516 11.4984C10.3261 11.4985 10.4993 11.4687 10.6636 11.4102L12.1991 12.9433C11.9757 13.571 12.1861 14.2711 12.7185 14.6718C13.2509 15.0724 13.9818 15.0806 14.5232 14.6921C15.0645 14.3036 15.2906 13.6084 15.0814 12.9758L17.6947 10.3665C17.6088 9.87875 17.4655 9.40284 17.2676 8.94878L14.1786 12.033C13.8391 11.9039 13.4649 11.8998 13.1226 12.0212L11.5872 10.4881C11.8106 9.86039 11.6002 9.16029 11.0678 8.75966C10.5354 8.35903 9.80443 8.35079 9.26312 8.73931C8.7218 9.12783 8.4957 9.823 8.70489 10.4556L5.50657 13.6489C5.66542 14.0807 5.87111 14.4938 6.11996 14.8808L9.60769 11.3985C9.78138 11.4647 9.96574 11.4985 10.1516 11.4984ZM13.6346 12.6938C14.0546 12.6944 14.3946 13.0353 14.3942 13.4553C14.3937 13.8753 14.053 14.2154 13.633 14.2152C13.2131 14.215 12.8727 13.8745 12.8727 13.4545C12.8729 13.2526 12.9532 13.059 13.0961 12.9163C13.239 12.7737 13.4327 12.6936 13.6346 12.6938ZM10.1516 9.21623C10.5716 9.21689 10.9116 9.55776 10.9111 9.97774C10.9107 10.3977 10.57 10.7379 10.15 10.7377C9.73007 10.7374 9.38973 10.3969 9.38973 9.97694C9.38989 9.77503 9.47025 9.58145 9.61313 9.43879C9.75602 9.29613 9.94972 9.21607 10.1516 9.21623Z" fill="currentColor"/>
</svg>
