<svg width="24" height="24" viewBox="0 0 24 24" fill="currentColor" xmlns="http://www.w3.org/2000/svg">
<path fill-rule="evenodd" clip-rule="evenodd" d="M17.4 3H4.2C3.53806 3.00194 3.00194 3.53806 3 4.2V15.6C3.00194 16.2619 3.53806 16.7981 4.2 16.8H6V13.2H4.63783C4.39602 13.2 4.2 13.004 4.2 12.7622V7.03783C4.2 6.79602 4.39602 6.6 4.63783 6.6H18.6V4.2C18.5981 3.53806 18.0619 3.00194 17.4 3ZM4.57786 14.31H5.11214C5.32083 14.31 5.49 14.4792 5.49 14.6879V15.3121C5.49 15.5208 5.32083 15.69 5.11214 15.69H4.57786C4.47764 15.69 4.38153 15.6502 4.31067 15.5793C4.23981 15.5085 4.2 15.4124 4.2 15.3121V14.6879C4.2 14.4792 4.36917 14.31 4.57786 14.31ZM5.62001 5.04427C5.62001 5.14449 5.58021 5.2406 5.50935 5.31147C5.43848 5.38234 5.34237 5.42215 5.24215 5.42215H4.57786C4.47764 5.42215 4.38153 5.38234 4.31066 5.31147C4.2398 5.2406 4.2 5.14449 4.2 5.04427V4.42001C4.2 4.21132 4.36917 4.04215 4.57786 4.04215H5.24215C5.45084 4.04215 5.62001 4.21132 5.62001 4.42001V5.04427ZM7.98 5.02214C7.98 5.23083 7.81083 5.4 7.60214 5.4H6.97786C6.87764 5.4 6.78153 5.36019 6.71067 5.28933C6.63981 5.21847 6.6 5.12236 6.6 5.02214V4.39786C6.6 4.29764 6.63981 4.20153 6.71067 4.13067C6.78153 4.05981 6.87764 4.02 6.97786 4.02H7.60214C7.81083 4.02 7.98 4.18917 7.98 4.39786V5.02214ZM10.38 5.02214C10.38 5.23083 10.2108 5.4 10.0021 5.4H9.37786C9.27764 5.4 9.18153 5.36019 9.11067 5.28933C9.03981 5.21847 9 5.12236 9 5.02214V4.39786C9 4.29764 9.03981 4.20153 9.11067 4.13067C9.18153 4.05981 9.27764 4.02 9.37786 4.02H10.0021C10.2108 4.02 10.38 4.18917 10.38 4.39786V5.02214ZM12.78 5.02214C12.78 5.12236 12.7402 5.21847 12.6693 5.28933C12.5985 5.36019 12.5024 5.4 12.4021 5.4H11.7779C11.6776 5.4 11.5815 5.36019 11.5107 5.28933C11.4398 5.21847 11.4 5.12236 11.4 5.02214V4.39786C11.4 4.29764 11.4398 4.20153 11.5107 4.13067C11.5815 4.05981 11.6776 4.02 11.7779 4.02H12.4021C12.6108 4.02 12.78 4.18917 12.78 4.39786V5.02214ZM15.18 5.02214C15.18 5.23083 15.0108 5.4 14.8021 5.4H14.1779C13.9692 5.4 13.8 5.23083 13.8 5.02214V4.39786C13.8 4.18917 13.9692 4.02 14.1779 4.02H14.8021C15.0108 4.02 15.18 4.18917 15.18 4.39786V5.02214ZM17.58 5.02214C17.58 5.23083 17.4108 5.4 17.2021 5.4H16.5779C16.4776 5.4 16.3815 5.36019 16.3107 5.28933C16.2398 5.21847 16.2 5.12236 16.2 5.02214V4.39786C16.2 4.29764 16.2398 4.20153 16.3107 4.13067C16.3815 4.05981 16.4776 4.02 16.5779 4.02H17.2021C17.4108 4.02 17.58 4.18917 17.58 4.39786V5.02214ZM21.5928 8.27066C21.525 7.66255 21.0119 7.20199 20.4 7.2H7.8C7.13806 7.20194 6.60194 7.73806 6.6 8.4V19.8C6.60083 20.4624 7.1376 20.9992 7.8 21H20.4C21.0619 20.9981 21.5981 20.4619 21.6 19.8V8.42616C21.6 8.37377 21.5972 8.322 21.5928 8.27066ZM20.4 13.2V18L18.5638 15.8916L16.3524 13.3524C16.2722 13.2591 16.1563 13.2041 16.0334 13.2007C15.9104 13.1974 15.7918 13.2461 15.7066 13.3348L13.1214 16.0064L12.961 16.1722C12.8789 16.2582 12.7651 16.3069 12.6462 16.3069C12.5272 16.3069 12.4134 16.2582 12.3313 16.1722L11.484 15.2964C11.322 15.1265 11.0543 15.1158 10.8793 15.2724L9.1547 16.8L7.8 18V8.4H20.4V13.2ZM12.6 11.7C12.6 10.8716 11.9284 10.2 11.1 10.2C10.2716 10.2 9.6 10.8716 9.6 11.7C9.6 12.5284 10.2716 13.2 11.1 13.2C11.4978 13.2 11.8794 13.042 12.1607 12.7607C12.442 12.4794 12.6 12.0978 12.6 11.7Z" fill="currentColor"/>
</svg>
