<svg width="24" height="24" viewBox="0 0 24 24" fill="currentColor" xmlns="http://www.w3.org/2000/svg">
<path fill-rule="evenodd" clip-rule="evenodd" d="M20.6391 5.74258L18.2574 3.36089C18.0264 3.12982 17.713 3 17.3862 3H4.40302C3.62815 3 3 3.62815 3 4.40302V17.2759C3 17.6026 3.12983 17.916 3.36089 18.1471L5.74258 20.6391C5.97363 20.8702 6.28703 21 6.61382 21H19.7679C20.4484 21 21 20.4484 21 19.7679V6.61382C21 6.28704 20.8702 5.97364 20.6391 5.74258ZM19.2504 6.1093C19.2038 6.10582 19.1568 6.10344 19.1093 6.10344H7.0248C7.01059 6.10344 6.99648 6.1039 6.98244 6.10452L5.1192 4.24138H17.3824L19.2504 6.1093ZM14.1159 16.525C13.0638 14.0634 10.6426 12.4686 7.9656 12.4739V11.088C12.4219 11.088 16.0344 14.6779 16.0344 19.1062C16.0344 19.1168 16.0343 19.1273 16.0342 19.1379H14.6394C14.6394 19.1273 14.6399 19.1168 14.6399 19.1062C14.6417 18.2192 14.4634 17.3411 14.1159 16.525ZM10.8535 16.2363C10.0872 15.4719 9.04801 15.0441 7.9656 15.0476V13.6618C10.9915 13.6618 13.4445 16.0993 13.4445 19.1062C13.4445 19.1168 13.4442 19.1273 13.4441 19.1379H12.0494C12.0494 19.1273 12.0498 19.1168 12.0498 19.1062C12.0522 18.0278 11.6211 16.9937 10.8535 16.2363ZM7.9656 17.6213V16.2355C9.56107 16.2355 10.8545 17.5207 10.8545 19.1062C10.8545 19.1168 10.8542 19.1273 10.8541 19.1379H9.45895C9.45917 19.1273 9.45977 19.1168 9.45977 19.1062C9.45977 18.2874 8.78945 17.6213 7.9656 17.6213ZM4.25832 17.2894C4.25272 17.2836 4.24707 17.2778 4.24138 17.272V5.1192L6.10452 6.98234C6.10387 6.99638 6.10344 7.0105 6.10344 7.0247V19.1092C6.10344 19.1478 6.10498 19.186 6.1073 19.224L4.25832 17.2894Z" fill="currentColor"/>
</svg>
