<svg width="24" height="24" viewBox="0 0 24 24" fill="currentColor" xmlns="http://www.w3.org/2000/svg">
<path fill-rule="evenodd" clip-rule="evenodd" d="M20.9319 18.5666L14.9919 2.95571C14.9915 2.95444 14.991 2.95317 14.9905 2.9519C14.8685 2.64321 13.5762 2.39999 12 2.39999C10.4238 2.39999 9.13154 2.64285 9.0096 2.95149C9.0091 2.95276 9.00866 2.95439 9.00821 2.95567L3.06821 18.5665C3.02381 18.6721 3.00063 18.7854 3 18.9C3 20.3912 7.02943 21.6 12 21.6C16.9706 21.6 21 20.3912 21 18.9C20.9994 18.7855 20.9763 18.6722 20.9319 18.5666ZM10.6875 13.4963L12 10.8L13.3125 13.4963L16.4625 14.0148L14.1 16.0889L14.3002 16.8796L14.8875 19.2L12 17.6444L9.11251 19.2L9.9 16.0889L7.53751 14.0148L10.6875 13.4963ZM12 20.4C7.69217 20.4 4.2 19.5941 4.2 18.6C4.2 17.8452 6.21319 17.1991 9.06775 16.9317L8.53085 19.0528C8.47245 19.2834 8.55589 19.5268 8.74354 19.6731C8.93118 19.8195 9.18756 19.8411 9.39706 19.7282L12 18.326L14.6029 19.7282C14.8124 19.8411 15.0688 19.8195 15.2565 19.6731C15.4441 19.5268 15.5276 19.2834 15.4692 19.0528L14.9322 16.9317C17.7868 17.1991 19.8 17.8452 19.8 18.6C19.8 19.5941 16.3078 20.4 12 20.4Z" fill="currentColor"/>
</svg>
