<svg width="24" height="24" viewBox="0 0 24 24" fill="currentColor" xmlns="http://www.w3.org/2000/svg">
<path fill-rule="evenodd" clip-rule="evenodd" d="M15.7848 10.1378C13.6592 12.1406 10.3412 12.1407 8.21546 10.138C6.51737 11.0635 5.444 12.8265 5.40156 14.76H5.40002V19.8C5.40002 21.1255 6.47454 22.2 7.80002 22.2H18.6V14.88C18.6007 12.903 17.5207 11.0838 15.7848 10.1378ZM15.6 13.9666V18.5307C15.5996 19.0668 15.2621 19.5447 14.7571 19.7244C14.252 19.9041 13.6885 19.7469 13.3495 19.3316C13.0105 18.9164 12.9693 18.3328 13.2464 17.874C13.5236 17.4151 14.0593 17.1801 14.5846 17.287V14.8837L11.5385 15.6485V19.5461C11.538 20.082 11.2006 20.5598 10.6956 20.7395C10.1907 20.9192 9.62727 20.762 9.28831 20.3468C8.94935 19.9317 8.90805 19.3482 9.18515 18.8894C9.46225 18.4306 9.99788 18.1956 10.5231 18.3024V14.2154L14.6679 13.2191C14.894 13.1671 15.1314 13.2212 15.3129 13.3657C15.4944 13.5102 15.6001 13.7295 15.6 13.9615C15.6 13.9633 15.6 13.9648 15.6 13.9666ZM12 10.44C14.3859 10.44 16.32 8.50586 16.32 6.11999C16.32 3.73412 14.3859 1.79999 12 1.79999C9.61415 1.79999 7.68002 3.73412 7.68002 6.11999C7.68002 8.50586 9.61415 10.44 12 10.44Z" fill="currentColor"/>
</svg>
