<svg width="24" height="24" viewBox="0 0 24 24" fill="currentColor" xmlns="http://www.w3.org/2000/svg">
<path fill-rule="evenodd" clip-rule="evenodd" d="M9.96739 9.25991L13.3721 12.6666L21.1196 5.51094C21.4085 5.24406 21.5762 4.87101 21.5841 4.4778C21.5919 4.08459 21.4393 3.70514 21.1613 3.42693L21.1506 3.41625C20.6075 2.87269 19.7338 2.8497 19.1629 3.36395L13.3721 8.5785L10.9889 6.19384C10.7181 5.9228 10.3506 5.77051 9.96749 5.77051C9.58433 5.77051 9.21689 5.9228 8.94607 6.19384L2.81738 12.3259C2.25328 12.8905 2.25328 13.8053 2.81738 14.3699C3.08821 14.6409 3.45565 14.7932 3.8388 14.7932C4.22195 14.7932 4.58939 14.6409 4.86021 14.3699L9.96739 9.25991ZM2.99409 18.7137V17.7297L9.95045 10.7212L13.3327 14.1294L20.9847 7.1451V18.7137H2.99409ZM20.9847 19.7937H2.99409C2.66281 19.7938 2.39441 20.0624 2.39441 20.3937C2.39441 20.725 2.66281 20.9936 2.99409 20.9937H20.9847C21.3159 20.9936 21.5844 20.725 21.5844 20.3937C21.5844 20.0624 21.3159 19.7938 20.9847 19.7937Z" fill="currentColor"/>
</svg>
