<svg width="24" height="24" viewBox="0 0 24 24" fill="currentColor" xmlns="http://www.w3.org/2000/svg">
<path fill-rule="evenodd" clip-rule="evenodd" d="M11.4481 21.0184C11.4361 21.0184 11.4241 21.0174 11.4121 21.0164L11.4481 21.0184ZM12 1.7998C6.36671 1.7998 1.79999 6.36652 1.79999 11.9998C1.79999 17.6331 6.36671 22.1998 12 22.1998C17.6333 22.1998 22.2 17.6331 22.2 11.9998C22.2 6.36652 17.6333 1.7998 12 1.7998ZM12 21.007C8.66735 21.007 5.75783 19.1974 4.19999 16.507V13.4429C4.19996 12.9773 3.8225 12.5998 3.35687 12.5998H3.12047C3.07395 12.5953 3.03232 12.569 3.00815 12.529C2.99791 12.3538 2.99279 12.1774 2.99279 11.9998C2.99279 7.23892 6.68615 3.34084 11.3642 3.01468L11.3568 3.0226L10.8 3.5998C10.7717 3.5998 9.62015 3.57964 9.59999 3.5998L8.39999 4.7998C8.37983 4.81996 8.39999 5.41564 8.39999 5.4442V5.4826C8.40001 5.76824 8.63156 5.99978 8.91719 5.9998H10.2C10.3802 5.9998 11.4158 4.7998 11.4444 4.7998H12.6C12.8755 4.79984 13.0989 5.02321 13.0989 5.29876V5.50084C13.0989 5.7764 12.8755 5.99976 12.6 5.9998H12.0444C12.016 5.99976 11.9888 6.01098 11.9688 6.031L10.8 7.1686C10.7798 7.18852 10.8283 7.1998 10.8 7.1998H8.71751C8.51425 7.19976 8.31931 7.28049 8.17559 7.4242L6.81935 8.78044C6.67889 8.92094 6.59999 9.11146 6.59999 9.31012V11.2808C6.59996 11.4715 6.6757 11.6544 6.81055 11.7892C6.94541 11.9241 7.12832 11.9998 7.31903 11.9998H9.28919C9.48823 11.9998 9.67911 12.0789 9.81983 12.2196L11.2056 13.6054C11.3301 13.7298 11.4 13.8986 11.4 14.0746V17.0768C11.4 17.2836 11.4822 17.482 11.6285 17.6283L12.3633 18.3632C12.5149 18.5147 12.7205 18.5998 12.9348 18.5998H13.4117C13.6572 18.5998 13.8893 18.4882 14.0426 18.2964L16.0212 15.8235C16.1369 15.6787 16.2 15.4988 16.2 15.3135V13.8442C16.1999 13.8159 16.2112 13.7887 16.2312 13.7686L17.1727 12.8271C17.3182 12.6815 17.4 12.4841 17.4 12.2782V11.6972C17.4 11.5068 17.3244 11.3242 17.1897 11.1896L15.0312 9.031C15.0112 9.01094 14.9999 8.98375 15 8.9554C15 8.9554 15.0033 8.25076 15.0098 7.61236C15.0137 7.23292 15.4733 7.04692 15.7399 7.31668L17.7456 9.3454C17.8861 9.48578 18.1138 9.48578 18.2544 9.3454L19.2 8.3998L20.7797 9.97948C20.9313 10.6422 21.0076 11.32 21.0072 11.9998C21.0072 16.9745 16.9747 21.007 12 21.007Z" fill="currentColor"/>
</svg>
