<svg width="24" height="24" viewBox="0 0 24 24" fill="currentColor" xmlns="http://www.w3.org/2000/svg">
<path fill-rule="evenodd" clip-rule="evenodd" d="M15.3187 5.09319C15.3199 6.42823 14.5168 7.63257 13.2838 8.14457C12.0509 8.65656 10.6309 8.37537 9.68609 7.43212C8.7413 6.48888 8.45777 5.06936 8.96774 3.83555C9.47771 2.60174 10.6807 1.79665 12.0158 1.79573H12.0227C13.8426 1.79809 15.3171 3.27328 15.3187 5.09319ZM8.48491 3.44273C7.84859 4.80298 8.05025 6.4078 9.00331 7.56833L8.84011 7.65161C8.23949 7.9485 7.71083 8.3728 7.29099 8.89493C7.2489 8.94443 7.18996 8.97658 7.12555 8.98515C5.55117 9.09513 4.16131 7.96519 3.94761 6.4015C3.7339 4.83781 4.76961 3.37637 6.31577 3.05988C7.03482 2.90183 7.78706 3.02297 8.42014 3.39876C8.44088 3.41463 8.46251 3.42931 8.48491 3.44273ZM15.0446 7.57176C16.0036 6.28794 16.1753 4.90889 15.5594 3.43462C15.8698 3.23809 16.2163 3.10558 16.5786 3.04486C18.1846 2.74706 19.7328 3.79194 20.0574 5.39273C20.4137 7.00272 19.2915 8.67168 17.6638 8.94115C17.4144 8.97264 17.1632 8.98733 16.9118 8.98512C16.8578 8.9855 16.8059 8.96377 16.7683 8.92498C16.3208 8.35735 15.7456 7.90325 15.0897 7.59951C15.0758 7.58847 15.0607 7.57915 15.0446 7.57176ZM17.1131 11.6395C17.0678 10.1197 16.3552 8.99093 15.0306 8.24143C14.9757 8.20044 14.8982 8.21071 14.8559 8.26457C13.2408 9.71551 10.7917 9.71551 9.17671 8.26457C9.13204 8.20786 9.0501 8.19755 8.99278 8.24143C7.67971 8.99321 6.96823 10.1232 6.92427 11.6349C6.8965 12.5601 6.90576 13.4854 6.92427 14.4107C6.93814 15.1729 7.31067 15.7269 8.00364 16.0427C8.2371 16.127 8.47696 16.1924 8.72091 16.2382V20.9258C8.72091 21.6811 9.22995 22.1911 9.98424 22.1911H14.0519C14.8142 22.1911 15.3244 21.6834 15.3244 20.9189V16.1988L15.3765 16.1919C16.3623 16.1655 17.1425 15.3493 17.1246 14.3633C17.1199 13.4554 17.1397 12.552 17.1131 11.6395ZM14.8965 12.2918L13.433 13.593C13.4121 13.6083 13.4036 13.6356 13.4122 13.6601C13.5796 14.3255 13.7466 14.9906 13.9131 15.6552C13.9137 15.6664 13.9137 15.6776 13.9131 15.6888L13.875 15.6691L12.0587 14.6733C12.0369 14.6589 12.0087 14.6589 11.9869 14.6733C11.3807 15.0049 10.7733 15.3361 10.1648 15.6669C10.1544 15.6739 10.1429 15.6785 10.1243 15.6889C10.1531 15.5732 10.181 15.4576 10.2088 15.3419C10.3499 14.7775 10.4915 14.2127 10.6334 13.6475C10.6412 13.6259 10.6336 13.6018 10.6149 13.5885C10.1259 13.1598 9.6373 12.728 9.14909 12.2931L9.08892 12.2388L9.25212 12.211L10.5166 12.0005C10.7179 11.9669 10.918 11.9323 11.1193 11.8999C11.1454 11.8983 11.1681 11.8816 11.1772 11.8571C11.4517 11.285 11.7267 10.7132 12.002 10.1419L12.0217 10.1014C12.031 10.1176 12.0367 10.1292 12.0425 10.1407C12.3194 10.7144 12.5947 11.2869 12.8685 11.8583C12.8773 11.8793 12.8968 11.894 12.9194 11.8964L14.3216 12.1278L14.9197 12.2272L14.9544 12.2353L14.8965 12.2918ZM21.9189 11.9876C21.9208 11.3856 21.7716 10.7927 21.485 10.2631C21.1226 9.58511 20.5558 9.03839 19.8652 8.70053C19.166 9.35776 18.2554 9.7441 17.2969 9.79013L17.3478 9.91387C17.5875 10.4695 17.7119 11.068 17.7134 11.6731V11.9414L18.8702 12.1322L19.4695 12.2317L19.5031 12.2398L19.4452 12.2918L17.9818 13.593C17.9601 13.6078 17.9515 13.6356 17.961 13.6601L18.4607 15.6552C18.4603 15.6668 18.4627 15.6784 18.4677 15.6888L18.4295 15.6692L17.5769 15.2065C17.3231 15.9166 16.7488 16.465 16.0278 16.6858C15.9352 16.7146 15.9121 16.7552 15.9121 16.8442V20.8922C15.9268 21.3548 15.7731 21.8069 15.4795 22.1645V22.1957H18.9432C19.7009 22.1957 20.2053 21.6915 20.2053 20.9327V16.5585L20.2725 16.5516C21.193 16.5142 21.9177 15.7529 21.9095 14.8317C21.9172 13.8833 21.9204 12.9353 21.9189 11.9876ZM8.12511 16.8314C8.12511 16.7642 8.12511 16.7158 8.03719 16.6938C7.30619 16.4792 6.72135 15.9288 6.46267 15.2122L5.61699 15.6749L5.57532 15.6969L5.66093 15.3499C5.80208 14.7855 5.94361 14.2207 6.08551 13.6555C6.09336 13.6339 6.08578 13.6098 6.06701 13.5965C5.57803 13.1624 5.08906 12.7279 4.60008 12.293L4.53876 12.2387L4.70196 12.2109L5.96758 12.0004L6.31467 11.9414V11.7206C6.31215 11.0911 6.44179 10.4681 6.69521 9.89189C6.70793 9.86069 6.71717 9.82827 6.72991 9.79589C6.71832 9.79141 6.70623 9.7883 6.69391 9.78663C5.77945 9.73689 4.91022 9.37287 4.23322 8.75611C4.1913 8.71227 4.12264 8.70823 4.07587 8.74685C2.8357 9.45005 2.16355 10.5118 2.12422 11.9402C2.09645 12.9152 2.11495 13.8914 2.11959 14.8652C2.12169 15.5585 2.54954 16.1792 3.19666 16.4278C3.402 16.4928 3.61098 16.5457 3.82253 16.5862V20.9489C3.80909 21.264 3.92138 21.5715 4.13469 21.8038C4.34799 22.0361 4.64485 22.1742 4.95994 22.1876C4.99341 22.189 5.0269 22.189 5.0604 22.1876H8.57746C8.25712 21.8107 8.09173 21.3262 8.11469 20.8321C8.12511 19.4997 8.11817 18.1638 8.12511 16.8314Z" fill="currentColor"/>
</svg>
