<svg width="24" height="24" viewBox="0 0 24 24" fill="currentColor" xmlns="http://www.w3.org/2000/svg">
<path fill-rule="evenodd" clip-rule="evenodd" d="M12 1.80005C6.36674 1.80005 1.80005 6.36674 1.80005 12C1.80005 17.6334 6.36674 22.2001 12 22.2001C17.6334 22.2001 22.2001 17.6334 22.2001 12C22.2001 6.36674 17.6334 1.80005 12 1.80005ZM17.3293 8.15976L11.2179 15.8398C11.0374 16.0674 10.7627 16.2 10.4722 16.2C10.1817 16.2 9.90713 16.0673 9.7267 15.8396L6.67085 11.9997C6.36677 11.6174 6.39712 11.0679 6.74127 10.7212L7.12323 10.3372C7.47514 9.9824 8.04164 9.96062 8.41975 10.2873L10.2812 12.36L15.9305 6.85968C16.2083 6.59774 16.6156 6.52691 16.9657 6.67934C17.3157 6.83177 17.5411 7.17827 17.5386 7.56005C17.5389 7.77788 17.4652 7.9895 17.3293 8.15976Z" fill="currentColor"/>
</svg>
