<svg width="24" height="24" viewBox="0 0 24 24" fill="currentColor" xmlns="http://www.w3.org/2000/svg">
<path fill-rule="evenodd" clip-rule="evenodd" d="M6.01565 9.41775L16.5996 6.58176L18.2652 6.13536L18.8448 5.98006L21.0901 5.37855L21.1631 5.35896L21.0078 4.77943C20.6648 3.49912 19.3488 2.73932 18.0684 3.08237L3 7.11999L3.61567 9.41775H3.6V17.8177C3.6 19.1432 4.67452 20.2177 6 20.2177H21.6V9.41775H6.01565ZM18.8033 3.50669L20.4283 4.93469L18.1101 5.55586L16.485 4.12786L18.8033 3.50669ZM14.1668 4.74903L15.7918 6.17703L13.4736 6.79827L11.8486 5.37027L14.1668 4.74903ZM9.5304 5.99134L11.1554 7.41934L8.83718 8.04051L7.21219 6.61251L9.5304 5.99134ZM4.89394 7.23375L6.51895 8.66175L4.20072 9.28294L3.73486 7.54426L4.89394 7.23375ZM5.4 11.8177H4.2V10.0177H6.6L5.4 11.8177ZM7.8 11.8177L9 10.0177H11.4L10.2 11.8177H7.8ZM14.2326 18.2497L12.66 17.392L11.0874 18.2497L11.5163 16.5342L10.2296 15.3905L11.9452 15.1046L12.66 13.6177L13.3748 15.1046L15.0904 15.3905L13.8037 16.5342L14.2326 18.2497ZM15 11.8177H12.6L13.8 10.0177H16.2L15 11.8177ZM19.8 11.8177H17.4L18.6 10.0177H21L19.8 11.8177Z" fill="currentColor"/>
</svg>
