<svg width="24" height="24" viewBox="0 0 24 24" fill="currentColor" xmlns="http://www.w3.org/2000/svg">
<path fill-rule="evenodd" clip-rule="evenodd" d="M8.93878 8.28007C8.3891 7.80749 7.56796 7.83889 7.05598 8.35207L6.50158 8.90694C6.00145 9.40687 5.95751 10.203 6.39958 10.7549L10.8353 16.3037C11.0981 16.6328 11.4964 16.8245 11.9175 16.8245C12.3387 16.8245 12.737 16.6328 12.9998 16.3037L21.8714 5.20615C22.3267 4.63852 22.2656 3.81552 21.7315 3.32134C21.1974 2.82717 20.3721 2.83004 19.8415 3.32791L11.64 11.2753L8.93878 8.28007ZM20.9851 7.16887L19.307 9.26646C19.634 10.1407 19.8009 11.0667 19.8 12.0001C19.8 16.3078 16.3077 19.8001 12 19.8001C7.69222 19.8001 4.19999 16.3078 4.19999 12.0001C4.19999 7.69231 7.69222 4.20007 12 4.20007C13.6517 4.19761 15.2612 4.72197 16.5945 5.69695L18.3381 4.00807C16.5367 2.57508 14.3019 1.79655 12 1.80006C6.3667 1.80006 1.79999 6.36679 1.79999 12.0001C1.79999 17.6333 6.3667 22.2001 12 22.2001C17.6333 22.2001 22.2 17.6333 22.2 12.0001C22.2025 10.3137 21.785 8.65347 20.9851 7.16887Z" fill="currentColor"/>
</svg>
