<svg width="24" height="24" viewBox="0 0 24 24" fill="currentColor" xmlns="http://www.w3.org/2000/svg">
<path fill-rule="evenodd" clip-rule="evenodd" d="M9.01086 14.5684V13.8072H7.81131V14.5684C7.37472 14.8205 7.1424 15.3187 7.22993 15.8152C7.31746 16.3117 7.70615 16.7004 8.20263 16.788C8.69911 16.8756 9.19737 16.6434 9.44953 16.2068H10.2103V15.0071H9.44948C9.34452 14.8247 9.19319 14.6734 9.01086 14.5684ZM9.01086 11.4077H7.81131V12.6075H9.01086V11.4077ZM11.41 16.2068H12.6096V15.0071H11.41V16.2068ZM20.1029 17.6461C19.6029 17.3584 18.9952 17.3285 18.4694 17.5655L16.7662 15.9206C16.9082 15.3954 16.6792 14.8405 16.2082 14.5684V9.44697C16.6449 9.1949 16.8772 8.69667 16.7897 8.20014C16.7022 7.70361 16.3135 7.31482 15.817 7.2272C15.3205 7.13958 14.8222 7.37185 14.5701 7.80844H9.44953C9.18922 7.35735 8.6674 7.12599 8.15833 7.23594L6.44914 5.58513C6.46417 5.55304 6.47857 5.52049 6.49186 5.48716C6.85977 4.56438 6.41005 3.51806 5.48733 3.14999C4.56462 2.78193 3.51822 3.23146 3.14999 4.15411C2.78176 5.07676 3.2311 6.12324 4.15369 6.49163L4.15575 6.49245C4.62526 6.68012 5.15218 6.66087 5.60674 6.43943L7.26843 8.04443C7.09737 8.58144 7.32329 9.16511 7.81131 9.44701V10.2081H9.01086V9.44701C9.19328 9.342 9.34469 9.19061 9.44972 9.0082H14.5699C14.6749 9.19059 14.8263 9.34197 15.0086 9.44697V14.5686C14.8264 14.6735 14.6751 14.8248 14.5701 15.0071H13.8091V16.2068H14.5699C14.8406 16.6757 15.3919 16.9051 15.9152 16.7665L17.6013 18.395C17.1617 19.2649 17.4948 20.3266 18.3525 20.7895C19.2102 21.2524 20.2805 20.9481 20.7664 20.1032L20.7675 20.1013C21.2619 19.2397 20.9644 18.1406 20.1029 17.6461ZM5.37721 5.04378C5.31856 5.19111 5.20377 5.3091 5.05811 5.37178C4.91245 5.43447 4.74786 5.43672 4.60054 5.37803C4.29375 5.25558 4.14362 4.90736 4.26604 4.60056C4.38846 4.29375 4.7364 4.14426 5.04321 4.26664C5.35003 4.38903 5.49956 4.73695 5.37721 5.04378ZM19.7274 19.5031C19.5594 19.805 19.1782 19.9143 18.8763 19.7464C18.5744 19.5786 18.4656 19.1978 18.6334 18.8958C18.8012 18.5938 19.1819 18.485 19.484 18.6526C19.786 18.8203 19.895 19.2011 19.7274 19.5031Z" fill="currentColor"/>
</svg>
