<svg width="24" height="24" viewBox="0 0 24 24" fill="currentColor" xmlns="http://www.w3.org/2000/svg">
<path fill-rule="evenodd" clip-rule="evenodd" d="M20.0313 16.5993L15.2404 14.7705C15.2162 14.7613 15.1905 14.7566 15.1645 14.7566H14.4028C14.3459 14.7566 14.2914 14.7794 14.2514 14.8199L13.8659 15.2106C13.8154 15.2618 13.7942 15.335 13.8094 15.4052C13.8247 15.4755 13.8743 15.5333 13.9415 15.5589L18.6651 17.362C18.682 17.3685 18.6932 17.3846 18.6934 17.4027C18.6936 17.4207 18.6827 17.4371 18.6659 17.4439L12.5791 19.9036C12.2161 20.0512 11.8098 20.0512 11.4468 19.9036L5.35995 17.4438C5.34319 17.437 5.33228 17.4207 5.33246 17.4026C5.33263 17.3845 5.34385 17.3684 5.36074 17.3619L10.0844 15.5588C10.1516 15.5332 10.2012 15.4754 10.2165 15.4051C10.2317 15.3349 10.2105 15.2617 10.16 15.2105L9.77451 14.8198C9.73452 14.7793 9.67997 14.7565 9.62304 14.7565H8.86133C8.8354 14.7565 8.80969 14.7612 8.78547 14.7705L3.99454 16.5993C3.66841 16.7239 3.45173 17.0353 3.44831 17.3844C3.44497 17.7335 3.65557 18.0491 3.97923 18.1799L10.9974 21.0161C11.6486 21.2807 12.3773 21.2807 13.0285 21.0161L20.0467 18.1798C20.3703 18.049 20.5808 17.7334 20.5775 17.3844C20.5741 17.0353 20.3574 16.7239 20.0313 16.5993ZM7.84359 13.5567H10.0183C10.1432 13.5567 10.263 13.6068 10.3507 13.6957L10.6928 14.0424L11.6132 14.9753L11.8329 15.198C11.8804 15.2461 11.9453 15.2732 12.0129 15.2732C12.0806 15.2732 12.1454 15.2461 12.1929 15.198L12.4127 14.9753L13.3331 14.0424L13.6752 13.6957C13.7629 13.6068 13.8827 13.5567 14.0077 13.5567H16.1823C17.191 13.5537 18.008 12.7366 18.0109 11.7279V4.58746C18.0081 3.57868 17.1911 2.76158 16.1823 2.75854H7.84359C6.83481 2.76158 6.01784 3.57869 6.01498 4.58746V11.7278C6.01784 12.7366 6.83481 13.5537 7.84359 13.5567ZM8.6887 7.9269C8.8145 6.27328 10.1284 4.95904 11.782 4.83284C11.8759 4.82564 11.9707 4.82219 12.0638 4.82219C13.0233 4.82219 13.8959 5.19327 14.5209 5.8671C15.1516 6.54709 15.4585 7.45955 15.3852 8.43639C15.2593 10.0901 13.9452 11.4043 12.2916 11.5304C12.1977 11.5375 12.1029 11.541 12.0099 11.541C11.0503 11.541 10.1778 11.17 9.55284 10.4962C8.92227 9.81632 8.61533 8.90384 8.6887 7.9269ZM12.01 11.1811C12.0135 11.1811 12.0172 11.1809 12.0208 11.1809C12.0262 11.1809 12.0315 11.1811 12.0369 11.1811C12.8324 11.181 13.5952 10.865 14.1576 10.3025C14.7201 9.73995 15.036 8.97705 15.0359 8.18161C15.0359 8.17741 15.0358 8.17326 15.0357 8.16906C15.0429 6.47307 13.7572 5.18214 12.0638 5.18214C12.0602 5.18214 12.0566 5.18233 12.053 5.18233C12.0476 5.18233 12.0423 5.18214 12.0369 5.18214C11.2415 5.1822 10.4787 5.49825 9.91623 6.06076C9.35381 6.62327 9.03788 7.38616 9.03795 8.18161C9.03795 8.18578 9.03809 8.18994 9.03812 8.19411C9.0308 9.89024 10.3165 11.1811 12.01 11.1811ZM12.0868 6.39383L12.7673 6.12159C12.8074 6.10553 12.8389 6.07341 12.8543 6.03302C12.8696 5.99263 12.8674 5.94765 12.8481 5.909L12.8344 5.88164C12.8169 5.84663 12.8188 5.8051 12.8392 5.77174C12.8596 5.73838 12.8958 5.7179 12.9349 5.71753C12.95 5.71759 12.965 5.72066 12.979 5.72655C13.3955 5.90343 13.7644 6.17616 14.0557 6.52256C14.084 6.55604 14.0905 6.60288 14.0723 6.64281C14.0541 6.68274 14.0145 6.70857 13.9706 6.70911C13.9642 6.7091 13.9578 6.70858 13.9515 6.70755L13.9138 6.7015C13.9072 6.70045 13.9005 6.69992 13.8938 6.69992C13.8277 6.70004 13.7731 6.75139 13.769 6.81728L13.7207 7.57489C13.7182 7.61434 13.7309 7.65325 13.7562 7.68363L14.2382 8.26225C14.2606 8.28917 14.2933 8.30547 14.3283 8.3072C14.3633 8.30892 14.3974 8.29591 14.4224 8.27132L14.4947 8.20007C14.5154 8.17912 14.5436 8.16732 14.5731 8.16728C14.6041 8.1671 14.6338 8.17958 14.6553 8.20183C14.6768 8.22408 14.6883 8.25416 14.6871 8.2851C14.6707 8.77678 14.517 9.25405 14.2433 9.66289C14.2229 9.69424 14.188 9.71307 14.1506 9.71288C14.0944 9.71352 14.0462 9.67263 14.0378 9.61702L14.0207 9.50766C14.0153 9.47275 13.9954 9.44175 13.9659 9.42232C13.9364 9.40289 13.9 9.39684 13.8658 9.40566L13.1305 9.59382C13.0922 9.60362 13.0591 9.62773 13.0381 9.66118L12.6537 10.2716C12.6307 10.3082 12.6241 10.3527 12.6354 10.3944C12.6467 10.4361 12.6749 10.4712 12.7133 10.4911L12.7224 10.4959C12.7747 10.5231 12.8049 10.5798 12.7982 10.6384C12.7915 10.6971 12.7493 10.7455 12.6921 10.7601C12.479 10.814 12.2601 10.8412 12.0403 10.841C11.9374 10.841 11.8347 10.8352 11.7326 10.8236C11.6139 10.8101 11.4966 10.7871 11.3816 10.7548C11.3253 10.7387 11.2847 10.6898 11.2792 10.6315C11.2736 10.5732 11.3043 10.5175 11.3566 10.4911C11.3954 10.4714 11.4242 10.4363 11.4357 10.3943C11.4473 10.3523 11.4406 10.3073 11.4173 10.2705L11.0283 9.65638C11.0072 9.62296 10.9741 9.59891 10.9357 9.58919L10.2057 9.40439C10.1717 9.39574 10.1357 9.40175 10.1063 9.42094C10.077 9.44013 10.0571 9.47074 10.0514 9.50533L10.0411 9.56735C10.0335 9.61307 9.99878 9.64954 9.95349 9.65937C9.90819 9.6692 9.86148 9.6504 9.83561 9.61194C9.6072 9.27455 9.45401 8.89273 9.40971 8.50021C9.40171 8.42951 9.3965 8.35932 9.39408 8.28966C9.39297 8.25888 9.4045 8.22898 9.426 8.20693C9.4475 8.18488 9.47709 8.17259 9.50789 8.17292C9.5378 8.17295 9.56642 8.18507 9.58726 8.20652L9.64966 8.26921C9.67457 8.29422 9.70888 8.30756 9.74414 8.30594C9.77941 8.30432 9.81235 8.2879 9.83487 8.26071L10.3193 7.67615C10.3445 7.6457 10.3571 7.60675 10.3544 7.56731L10.3045 6.81582C10.3022 6.78084 10.2854 6.74842 10.2581 6.72644C10.2308 6.70447 10.1955 6.69495 10.1609 6.70021L10.0845 6.7117C10.0786 6.7126 10.0726 6.71306 10.0666 6.71307C10.0233 6.71269 9.984 6.6876 9.96541 6.64847C9.94682 6.60934 9.95221 6.56303 9.97928 6.52921C10.2755 6.16199 10.6643 5.88038 11.1055 5.71335C11.1493 5.69641 11.199 5.70843 11.2302 5.74351C11.2615 5.77859 11.2676 5.82937 11.2457 5.87091L11.227 5.90749C11.2072 5.94625 11.2046 5.99157 11.2199 6.03232C11.2353 6.07307 11.2671 6.10546 11.3076 6.12152L11.994 6.39402C12.0238 6.40584 12.057 6.40577 12.0868 6.39383ZM11.2519 7.75887C11.196 7.79813 11.1725 7.86942 11.1941 7.93422L11.4756 8.77883C11.4966 8.8419 11.5556 8.88442 11.6221 8.88442H12.4587C12.5252 8.88442 12.5842 8.8419 12.6053 8.77883L12.8868 7.93419C12.9084 7.86939 12.8848 7.79811 12.8289 7.75887L12.1124 7.25566C12.0692 7.22533 12.0116 7.22533 11.9684 7.25566L11.2519 7.75887Z" fill="currentColor"/>
</svg>
