<svg width="24" height="24" viewBox="0 0 24 24" fill="currentColor" xmlns="http://www.w3.org/2000/svg">
<path fill-rule="evenodd" clip-rule="evenodd" d="M12.036 22.176C12.6726 22.1761 13.2832 21.9233 13.7335 21.4732C14.1837 21.0231 14.4367 20.4126 14.4368 19.776H9.6352C9.6353 20.4126 9.88831 21.0231 10.3385 21.4732C10.7888 21.9233 11.3994 22.1761 12.036 22.176ZM16.79 4.80196C15.9446 4.04771 14.9329 3.50394 13.8374 3.21496V2.98297C13.8338 1.99109 13.0287 1.18892 12.0368 1.18892C11.0449 1.18892 10.2398 1.99109 10.2362 2.98297V3.21018C7.12976 4.0095 4.83676 6.82811 4.83676 10.183V16.183L3.96373 17.6347L16.79 4.80196ZM6.64576 19.1871H19.9787C20.195 19.1871 20.3945 19.071 20.5011 18.8828C20.6076 18.6947 20.6047 18.4638 20.4934 18.2784L19.2358 16.1871V10.2351C19.2364 9.20203 19.015 8.18095 18.5866 7.24096L6.64576 19.1871ZM21.5993 0.839966L1.20001 21.2392L2.47276 22.512L22.872 2.11271L21.5993 0.839966Z" fill="currentColor"/>
</svg>
