<svg width="24" height="24" viewBox="0 0 24 24" fill="currentColor" xmlns="http://www.w3.org/2000/svg">
<path fill-rule="evenodd" clip-rule="evenodd" d="M21.6 7.20002V18H2.99999V19.2H22.8V7.20002H21.6ZM11.4 7.80002C9.41176 7.80002 7.79999 9.4118 7.79999 11.4C7.79999 13.3882 9.41176 15 11.4 15C13.3882 15 15 13.3882 15 11.4C15 10.4452 14.6207 9.52957 13.9456 8.85444C13.2704 8.17931 12.3548 7.80002 11.4 7.80002ZM13.1688 12.7824C12.9094 13.3906 12.4597 13.6696 11.7107 13.6696C11.2321 13.6696 10.839 13.5386 10.5423 13.2499C10.2672 12.9823 10.0983 12.6377 10.0165 12.229H9.76679C9.5883 12.229 9.47159 12.1087 9.47159 11.9338C9.47159 11.7562 9.58559 11.616 9.76679 11.616H9.97112C9.9704 11.5478 9.97112 11.468 9.97112 11.4343C9.97112 11.3849 9.96858 11.3662 9.97112 11.2754H9.76679C9.5883 11.2754 9.47159 11.1325 9.47159 10.9575C9.47159 10.7825 9.58825 10.617 9.76679 10.617H10.0392C10.1325 10.1856 10.3092 9.80676 10.5843 9.54358C10.8795 9.26112 11.2689 9.13054 11.7107 9.13054C12.4342 9.13054 12.9043 9.42242 13.148 10.0198C13.1725 10.0717 13.1848 10.1285 13.184 10.1858C13.184 10.3234 13.1013 10.4422 12.9572 10.502L12.9519 10.5148H12.9463C12.905 10.5375 12.8507 10.5284 12.7982 10.5284C12.6589 10.5284 12.5468 10.4348 12.4905 10.2996C12.3354 9.92652 12.1312 9.78535 11.7107 9.78535C11.2244 9.78535 10.8753 10.0494 10.7204 10.617H12.2642C12.4454 10.617 12.5521 10.778 12.5521 10.9521C12.5521 11.1304 12.4428 11.2754 12.2642 11.2754H10.6296C10.6269 11.3662 10.6296 11.3814 10.6296 11.4343C10.6296 11.4665 10.6288 11.5478 10.6296 11.616H11.9918C12.1757 11.616 12.2734 11.7536 12.2734 11.9338C12.2734 12.1061 12.1676 12.229 11.9918 12.229H10.6977C10.837 12.7738 11.1955 13.0108 11.7107 13.0108C12.1558 13.0108 12.3511 12.8679 12.4847 12.5351L12.4852 12.5339L12.4857 12.5326C12.5496 12.3845 12.6645 12.3029 12.8089 12.3029C12.85 12.3034 12.8909 12.3102 12.93 12.3228C13.0867 12.3653 13.2 12.5018 13.2 12.6432C13.2006 12.6914 13.1899 12.7391 13.1688 12.7824ZM5.69999 10.5C5.20293 10.5 4.79999 10.903 4.79999 11.4C4.79999 11.8971 5.20293 12.3 5.69999 12.3C6.19704 12.3 6.59999 11.8971 6.59999 11.4C6.59999 11.1613 6.50517 10.9324 6.33638 10.7636C6.1676 10.5948 5.93868 10.5 5.69999 10.5ZM17.1 10.5C16.6029 10.5 16.2 10.903 16.2 11.4C16.2 11.8971 16.6029 12.3 17.1 12.3C17.597 12.3 18 11.8971 18 11.4C18 11.1613 17.9052 10.9324 17.7364 10.7636C17.5676 10.5948 17.3387 10.5 17.1 10.5ZM21 5.40002H1.79999V17.4H21V5.40002ZM19.8 14.4C18.8059 14.4 18 15.2059 18 16.2H4.79999C4.79999 15.7226 4.61035 15.2648 4.27278 14.9272C3.93521 14.5897 3.47738 14.4 2.99999 14.4V8.40002C3.47738 8.40002 3.93521 8.21038 4.27278 7.87282C4.61035 7.53525 4.79999 7.07741 4.79999 6.60002H18C18 7.59414 18.8059 8.40002 19.8 8.40002V14.4Z" fill="currentColor"/>
</svg>
