<svg width="24" height="24" viewBox="0 0 24 24" fill="currentColor" xmlns="http://www.w3.org/2000/svg">
<path fill-rule="evenodd" clip-rule="evenodd" d="M0 0V24H24V0H0ZM8.8032 17.9126C8.8032 18.4451 8.65265 18.894 8.35154 19.2593C8.05044 19.6246 7.62819 19.8072 7.0848 19.8072C6.56338 19.8072 6.14754 19.6236 5.8373 19.2564C5.52706 18.8892 5.37192 18.4412 5.37187 17.9124V7.57994H4.33646C3.85538 7.57994 3.45239 7.44501 3.12751 7.17514C2.80263 6.90526 2.64013 6.53532 2.64 6.0653C2.64 5.59161 2.8016 5.21801 3.1248 4.9445C3.448 4.671 3.85191 4.5341 4.33654 4.5341H6.97469C7.55482 4.5341 8.00462 4.69566 8.32411 5.01878C8.6436 5.3419 8.8033 5.79722 8.8032 6.38474V17.9126ZM20.3817 19.1766C20.0585 19.4466 19.6564 19.5815 19.1755 19.5815H12.3624C11.672 19.5815 11.169 19.4235 10.8533 19.1076C10.5962 18.8542 10.4677 18.485 10.4677 18C10.4848 17.7318 10.5733 17.4731 10.7238 17.2506C10.8762 17.0229 11.0919 16.7621 11.371 16.4682C11.4151 16.4204 11.6639 16.1394 12.1174 15.6251C12.571 15.1107 12.985 14.6396 13.3594 14.2117C13.734 13.7838 14.0415 13.433 14.282 13.1593C14.5225 12.8856 14.7033 12.6789 14.8245 12.5393C15.4855 11.7825 16.0151 11.1185 16.4135 10.5473C16.8119 9.9761 17.0111 9.42048 17.0111 8.88043C17.0128 8.61223 16.9525 8.34727 16.8349 8.10622C16.7228 7.87195 16.5508 7.67143 16.3364 7.52489C16.1235 7.37854 15.8705 7.30155 15.6121 7.30447C14.7565 7.30447 14.1929 7.80784 13.9212 8.81458C13.8001 9.27378 13.6936 9.62098 13.6018 9.85618C13.5063 10.0963 13.3508 10.3078 13.1502 10.4706C12.9408 10.6451 12.6489 10.7324 12.2744 10.7324C11.7897 10.7324 11.4051 10.5727 11.1205 10.2534C10.836 9.93413 10.6937 9.53043 10.6937 9.04234C10.6928 8.39664 10.8338 7.75864 11.1067 7.17346C11.3787 6.5819 11.762 6.04828 12.2358 5.60174C12.7095 5.15271 13.2623 4.7953 13.8662 4.54759C14.463 4.29874 15.1032 4.17044 15.7498 4.17044C16.3715 4.16806 16.9884 4.27913 17.5702 4.49822C18.1364 4.70952 18.6584 5.02426 19.1095 5.4264C19.5568 5.82585 19.9169 6.31337 20.167 6.85843C20.424 7.41291 20.5525 8.0151 20.5525 8.66498C20.5525 9.50586 20.3845 10.2806 20.0485 10.9893C19.7125 11.6979 19.2269 12.4488 18.5917 13.242C17.5893 14.4574 16.5887 15.5553 15.59 16.5356H19.1756C19.6639 16.5356 20.0678 16.6715 20.3873 16.9432C20.7068 17.215 20.8665 17.5913 20.8665 18.0723C20.8665 18.5387 20.7048 18.9068 20.3817 19.1766Z" fill="currentColor"/>
</svg>
