<svg width="24" height="24" viewBox="0 0 24 24" fill="currentColor" xmlns="http://www.w3.org/2000/svg">
<path fill-rule="evenodd" clip-rule="evenodd" d="M11.9957 1.79572C6.36242 1.79572 1.79572 6.36241 1.79572 11.9957C1.79572 17.629 6.36242 22.1957 11.9957 22.1957C17.629 22.1957 22.1957 17.629 22.1957 11.9957C22.1957 6.36241 17.629 1.79572 11.9957 1.79572ZM5.63176 5.63176C6.45164 4.80959 7.42332 4.15439 8.49287 3.70249C8.66116 3.63131 8.83103 3.56549 9.00247 3.50504C8.3639 4.30984 7.82121 5.36471 7.41367 6.59572H4.79443C5.05058 6.25515 5.33038 5.93303 5.63176 5.63176ZM3.7025 8.49287C3.80315 8.2549 3.91356 8.02252 4.0337 7.79572H7.07332C6.80781 8.90425 6.64427 10.1185 6.60503 11.3957H3.01535C3.07972 10.3964 3.31202 9.41502 3.7025 8.49287ZM4.03379 16.1957C3.91402 15.9688 3.80362 15.7364 3.70259 15.4986C3.31207 14.5764 3.07974 13.5951 3.01535 12.5957H6.60501C6.64425 13.873 6.80779 15.0872 7.0733 16.1957H4.03379ZM8.49299 20.2889C7.42343 19.837 6.45175 19.1818 5.63186 18.3597C5.33044 18.0584 5.05061 17.7363 4.79443 17.3957H7.41371C7.82121 18.6267 8.3639 19.6816 9.00252 20.4864C8.83111 20.4259 8.66133 20.3601 8.49299 20.2889ZM11.3957 20.8892C11.1439 20.8002 10.8922 20.6559 10.6428 20.4566C10.1364 20.052 9.65049 19.4261 9.23791 18.6467C9.02562 18.2426 8.84066 17.8246 8.68428 17.3957H11.3957V20.8892ZM11.3957 16.1957H8.31043C8.26843 16.0344 8.22864 15.8704 8.19107 15.7037C7.96578 14.682 7.83679 13.6415 7.8058 12.5957H11.3957V16.1957ZM11.3957 11.3957H7.8058C7.83679 10.3499 7.96578 9.30939 8.19107 8.28772C8.22844 8.12088 8.26822 7.95688 8.31043 7.79572H11.3957V11.3957ZM11.3957 6.59572H8.68428C8.84066 6.16681 9.02562 5.74886 9.23791 5.34469C9.65049 4.56532 10.1363 3.93947 10.6428 3.5348C10.8922 3.3356 11.1439 3.1912 11.3957 3.10225V6.59572ZM13.9457 16.1837C13.5315 16.1837 13.1957 15.8479 13.1957 15.4337V10.7897H14.1957V9.68373C14.1957 8.57916 15.0912 7.68373 16.1957 7.68373C17.3003 7.68373 18.1957 8.57916 18.1957 9.68373V10.7897H18.4457C18.8599 10.7897 19.1957 11.1255 19.1957 11.5397V16.1837H13.9457ZM16.1957 8.43371C15.8642 8.43371 15.5463 8.56541 15.3118 8.79983C15.0774 9.03425 14.9457 9.3522 14.9457 9.68372V10.7897H17.4457V9.68372C17.4457 9.3522 17.314 9.03425 17.0796 8.79983C16.8452 8.56541 16.5272 8.43371 16.1957 8.43371Z" fill="currentColor"/>
</svg>
