<svg width="24" height="24" viewBox="0 0 24 24" fill="currentColor" xmlns="http://www.w3.org/2000/svg">
<path fill-rule="evenodd" clip-rule="evenodd" d="M17.3969 5.0279C17.3443 4.1879 16.662 3.5123 15.8217 3.46862C15.7399 3.4643 15.6585 3.46598 15.5781 3.47366C15.1807 3.12662 14.6712 2.93318 14.1336 2.93318C13.7832 2.93318 13.4345 3.0179 13.1246 3.17798C13.0629 3.2099 13.0029 3.2447 12.9446 3.28214C12.7826 3.10622 12.5973 2.95118 12.3931 2.82206C11.9565 2.54582 11.4518 2.3999 10.9334 2.3999C10.3809 2.3999 9.84838 2.56406 9.39358 2.87462C9.13078 3.05414 8.9035 3.27566 8.71942 3.52934C8.57302 3.48806 8.42086 3.46646 8.26654 3.46646C7.34758 3.46646 6.59998 4.21406 6.59998 5.13302C6.59998 5.32478 6.63286 5.50862 6.69262 5.68022C6.63406 5.7731 6.59998 5.88278 6.59998 6.00086V7.82942C6.59998 8.68214 6.67582 9.53318 6.8263 10.3727C7.04614 11.5986 7.4071 12.7926 7.82398 13.7999C8.14534 14.5763 8.38582 15.3573 8.39998 16.1905C8.41438 17.0284 8.17702 18.9275 7.99654 20.2367C7.89718 20.9574 8.45758 21.5999 9.18526 21.5999H14.8147C15.5424 21.5999 16.1025 20.9577 16.0034 20.2367C15.8229 18.9275 15.5858 17.0284 15.6 16.1905C15.6141 15.3573 15.9026 14.5763 16.224 13.7999C16.6461 12.7797 16.9929 11.529 17.1979 10.2976C17.3328 9.48734 17.4001 8.66726 17.4001 7.84574V6.0011C17.4001 5.88326 17.3659 5.77334 17.3073 5.68046C17.3779 5.4779 17.411 5.25734 17.3969 5.0279ZM15.0002 5.99486V9.58742C15.0002 9.89438 14.7509 10.1761 14.4446 10.198C14.0933 10.2232 13.8002 9.94574 13.8002 9.59966V5.99486C13.8002 5.6663 13.5338 5.39966 13.205 5.39966H12.5952C12.2666 5.39966 12 5.66606 12 5.99486V6.28334C12 6.74918 11.6208 7.1699 11.1559 7.19798C10.6337 7.22942 10.2 6.81518 10.2 6.29966V5.99486C10.2 5.6663 9.93358 5.39966 9.60478 5.39966H7.23358C7.20622 5.29382 7.19494 5.1815 7.20214 5.06558C7.23526 4.52798 7.67398 4.09454 8.21206 4.06766C8.4355 4.05638 8.64454 4.11422 8.82022 4.22126C8.89558 4.2671 8.99398 4.23878 9.0343 4.1603C9.38782 3.47102 10.1054 2.99942 10.9334 2.99942C11.6995 2.99942 12.371 3.40334 12.7473 4.00958C12.797 4.0895 12.9084 4.09958 12.9732 4.03142C13.2648 3.72446 13.6766 3.5327 14.1336 3.5327C14.5905 3.5327 15.0062 3.72614 15.2981 4.03574C15.3465 4.08734 15.419 4.11086 15.4879 4.09454C15.588 4.07078 15.6936 4.06118 15.8023 4.06814C16.3358 4.10198 16.7673 4.53542 16.7983 5.06894C16.805 5.18342 16.7935 5.29454 16.7666 5.39918H15.5954C15.2669 5.39918 15.0002 5.66606 15.0002 5.99486ZM7.20022 8.39966V5.99966H9.60022V6.29966C9.60022 6.50822 9.64318 6.70694 9.72046 6.88766C9.80878 7.09382 9.94198 7.27622 10.1076 7.42286C10.3723 7.6571 10.7198 7.79966 11.1002 7.79966C11.6323 7.79966 12.1001 7.52102 12.3665 7.10222C12.4841 6.91742 12.5623 6.70526 12.5894 6.4775C12.5964 6.41918 12.6005 5.99966 12.6005 5.99966H13.2005V8.39966H7.20022ZM16.8002 8.39966H15.6002V5.99966H16.8002V8.39966Z" fill="currentColor"/>
</svg>
