<svg width="24" height="24" viewBox="0 0 24 24" fill="currentColor" xmlns="http://www.w3.org/2000/svg">
<path fill-rule="evenodd" clip-rule="evenodd" d="M13.8 18C13.8 18.3314 13.5314 18.6 13.2 18.6H10.8C10.4686 18.6 10.2 18.3314 10.2 18H1.79999V19.2C1.79999 19.5314 2.06862 19.8 2.39999 19.8H21.6C21.9314 19.8 22.2 19.5314 22.2 19.2V18H13.8ZM21 6.00005C21 5.33731 20.4627 4.80005 19.8 4.80005H4.19999C3.53725 4.80005 2.99999 5.33731 2.99999 6.00005V15.576C2.99999 15.5841 3.00044 15.592 3.00059 15.6L2.99999 17.4H21V15.6C21.0001 15.592 21 15.5841 21 15.576V6.00005ZM4.19999 6.00005V16.2H19.8V6.00005H4.19999ZM9.29999 10.2C9.79704 10.2 10.2 9.79711 10.2 9.30005C10.2 8.80299 9.79704 8.40005 9.29999 8.40005C8.80293 8.40005 8.39999 8.80299 8.39999 9.30005C8.39999 9.79711 8.80293 10.2 9.29999 10.2ZM14.7 10.2C15.197 10.2 15.6 9.79711 15.6 9.30005C15.6 8.80299 15.197 8.40005 14.7 8.40005C14.2029 8.40005 13.8 8.80299 13.8 9.30005C13.8 9.79711 14.2029 10.2 14.7 10.2ZM9.90572 14.1429C10.5939 14.4678 11.3024 14.6325 12.0117 14.6325H12.017C12.7271 14.6317 13.4365 14.4657 14.1255 14.1392C14.808 13.8158 15.4728 13.3333 16.101 12.705C16.2628 12.5406 16.2618 12.2765 16.0987 12.1134C15.9356 11.9502 15.6714 11.9492 15.507 12.1111C14.3926 13.2254 13.2181 13.7911 12.016 13.7925H12.0116C10.8085 13.7925 9.63268 13.2268 8.51696 12.1111C8.35258 11.9492 8.08842 11.9502 7.9253 12.1134C7.76217 12.2765 7.76115 12.5406 7.92301 12.705C8.55371 13.3357 9.22079 13.8195 9.90572 14.1429Z" fill="currentColor"/>
</svg>
