<svg width="24" height="24" viewBox="0 0 24 24" fill="currentColor" xmlns="http://www.w3.org/2000/svg">
<path fill-rule="evenodd" clip-rule="evenodd" d="M6.58729 14.1C6.58748 13.8506 6.54311 13.6031 6.45628 13.3693C5.76055 12.9729 5.23209 12.3378 4.96883 11.5816L4.78729 11.4L4.18729 12L3.58729 11.4V12H2.98729V12.6H2.38729V13.2H1.78729L2.38729 14.4H1.78729L3.0176 15.6C3.62147 16.1918 4.52139 16.3637 5.30089 16.0362C6.08039 15.7086 6.58741 14.9455 6.58729 14.1ZM3.64398 16.6656C3.60683 17.0981 3.58729 17.544 3.58729 18H5.98729C5.98695 17.4259 6.01732 16.8523 6.07828 16.2815C5.37578 16.7934 4.46999 16.9363 3.64398 16.6656ZM10.6402 12.5911C9.82056 13.5907 8.49328 14.0204 7.24331 13.691C6.8313 14.8924 6.58729 16.384 6.58729 18H9.58729C9.58729 15.9924 9.94993 14.0955 10.6084 12.6588C10.6189 12.636 10.6296 12.6137 10.6402 12.5911ZM18.2873 14.4C17.7806 14.4008 17.2839 14.2582 16.8547 13.9888C17.2016 15.1839 17.3873 16.5635 17.3873 18H20.3873C20.3873 16.4895 20.1739 15.0879 19.8096 13.9301C19.3613 14.237 18.8306 14.4008 18.2873 14.4ZM22.1211 9.8448C21.9697 9.64303 21.8432 9.80462 21.8432 9.80462C21.409 10.3082 21.0824 9.76298 21.0824 9.76298C21.0824 9.76298 20.8271 9.25572 20.1231 9.25572C19.4192 9.25572 19.1925 9.80462 19.1925 9.80462C18.6096 9.52685 17.9314 9.53216 17.3529 9.81902C17.2383 10.6778 16.8402 11.4736 16.2218 12.0804C16.3928 13.0092 17.1627 13.7095 18.1034 13.7922C19.0441 13.8749 19.9243 13.3195 20.2547 12.4348C20.5851 11.5502 20.2843 10.5538 19.5197 9.99962C19.9009 9.49322 20.3858 9.84883 20.4536 10.2639C20.5775 11.0219 21.1995 11.2843 21.662 11.0407C22.2427 10.7348 22.25 10.0166 22.1211 9.8448ZM13.4873 13.2C12.72 13.2012 11.9696 12.9749 11.3309 12.5498C10.6305 13.8701 10.1873 15.8221 10.1873 18H16.7873C16.7873 15.8221 16.3441 13.8701 15.6437 12.5498C15.0049 12.9749 14.2545 13.2012 13.4873 13.2ZM13.4873 12.6C15.3098 12.6 16.7873 11.1225 16.7873 9.3C16.7873 7.47746 15.3098 6 13.4873 6C11.6648 6 10.1873 7.47746 10.1873 9.3C10.1873 11.1225 11.6648 12.6 13.4873 12.6ZM5.54089 11.3995C5.89772 12.4087 6.8169 13.112 7.88429 13.1924C8.95169 13.2728 9.96584 12.7152 10.4698 11.7709C9.68609 10.8126 9.40295 9.53954 9.70665 8.3394C9.03913 7.83925 8.17798 7.67559 7.37353 7.896C6.56908 8.11642 5.91161 8.69616 5.59225 9.4667C5.11508 10.5294 4.18729 9.6 4.18729 9.6C4.18729 11.2858 5.38842 11.3928 5.54089 11.3995Z" fill="currentColor"/>
</svg>
