<svg width="24" height="24" viewBox="0 0 24 24" fill="currentColor" xmlns="http://www.w3.org/2000/svg">
<path fill-rule="evenodd" clip-rule="evenodd" d="M16.2 6.88789H13.3413C13.8147 7.41685 13.933 8.17469 13.6432 8.82274C13.3535 9.4708 12.7099 9.88799 12 9.88789H10.919C10.7611 10.1603 10.5683 10.411 10.3455 10.6335C9.36426 11.6133 7.90806 11.9437 6.59999 11.4833V18.8879C6.59999 19.2062 6.72642 19.5114 6.95146 19.7364C7.1765 19.9615 7.48173 20.0879 7.79999 20.0879H16.2C16.8627 20.0879 17.4 19.5506 17.4 18.8879V8.08789C17.4 7.42515 16.8627 6.88789 16.2 6.88789ZM15.6 2.08789H8.39999C6.41176 2.08789 4.79999 3.69967 4.79999 5.68789V18.8879C4.79999 20.5447 6.14313 21.8879 7.79999 21.8879H16.2C17.8568 21.8879 19.2 20.5447 19.2 18.8879V5.68789C19.2 3.69967 17.5882 2.08789 15.6 2.08789ZM18 8.68789V18.8879C18 19.882 17.1941 20.6879 16.2 20.6879H7.79999C6.80588 20.6879 5.99999 19.882 5.99999 18.8879V10.488C6.64189 10.9694 7.44987 11.1736 8.2434 11.0549C9.03693 10.9363 9.74987 10.5047 10.2229 9.85669C10.2269 9.85124 10.2309 9.84579 10.2349 9.84032C10.2525 9.81589 10.2698 9.79119 10.2867 9.76623C10.2887 9.76328 10.2907 9.7604 10.2927 9.75747C10.3306 9.70101 10.3666 9.6432 10.4007 9.58405C10.4048 9.57685 10.4088 9.56977 10.4127 9.56264C10.425 9.54085 10.4371 9.51889 10.4489 9.49676C10.4537 9.48769 10.4585 9.47859 10.4633 9.46947C10.4745 9.44797 10.4854 9.4263 10.496 9.40446C10.5002 9.39591 10.5045 9.38742 10.5086 9.37883C10.523 9.3488 10.5369 9.31856 10.5502 9.28801H12C12.6627 9.28801 13.2 8.75075 13.2 8.08801C13.2 7.42527 12.6627 6.88801 12 6.88801H10.5501C10.4571 6.67512 10.3396 6.47377 10.2001 6.28801H16.2C17.1941 6.28801 18 7.0939 18 8.08801V8.68789ZM5.99999 8.08789C5.99999 7.09378 6.80588 6.28789 7.79999 6.28789C8.7941 6.28789 9.59999 7.09378 9.59999 8.08789C9.59999 9.082 8.7941 9.88789 7.79999 9.88789C7.3226 9.88789 6.86476 9.69825 6.5272 9.36068C6.18963 9.02312 5.99999 8.56528 5.99999 8.08789ZM16.2 5.08789H7.79999C7.15074 5.08688 6.51884 5.29746 5.99999 5.68775C6.00157 4.36294 7.07518 3.2894 8.39999 3.28789H15.6C16.9249 3.28938 17.9985 4.36303 18 5.68789C17.4812 5.29756 16.8493 5.08692 16.2 5.08789Z" fill="currentColor"/>
</svg>
