<svg width="24" height="24" viewBox="0 0 24 24" fill="currentColor" xmlns="http://www.w3.org/2000/svg">
<path fill-rule="evenodd" clip-rule="evenodd" d="M12 1.79999C17.6333 1.79999 22.2 6.36668 22.2 12C22.2 17.6333 17.6333 22.2 12 22.2C6.3667 22.2 1.8 17.6333 1.8 12C1.8 6.36668 6.3667 1.79999 12 1.79999ZM12 3.59999C16.6392 3.59999 20.4 7.36079 20.4 12C20.4 16.6392 16.6392 20.4 12 20.4C7.3608 20.4 3.6 16.6392 3.6 12C3.6 7.36079 7.3608 3.59999 12 3.59999ZM15.7557 14.6955C15.6426 14.6585 15.5245 14.6389 15.4054 14.6373C14.988 14.6373 14.6562 14.8749 14.4715 15.306L14.4699 15.3097L14.4686 15.3133C14.0823 16.2819 13.518 16.6673 12.2316 16.6673C10.7423 16.6673 9.71664 16.0673 9.31373 14.3936H13.0215C13.5296 14.3936 13.8577 13.982 13.8577 13.4807C13.8577 12.9562 13.5531 12.5679 13.0215 12.5679H9.1056C9.1032 12.4157 9.1032 12.1506 9.1032 12.057C9.1032 11.9028 9.10865 11.8071 9.11616 11.655H13.8268C14.3428 11.655 14.6633 11.2452 14.6633 10.7264C14.6633 10.2196 14.3505 9.82926 13.8268 9.82926H9.37378C9.82169 8.15567 10.826 7.34286 12.2316 7.34286C13.4469 7.34286 14.0369 7.73735 14.4855 8.82316C14.648 9.21676 14.972 9.44747 15.3745 9.44747C15.5264 9.44747 15.6834 9.40907 15.8026 9.3735L15.8188 9.36992L15.8342 9.36397C16.2507 9.18985 16.4895 8.86031 16.4895 8.45958C16.4919 8.29528 16.4564 8.13265 16.3855 7.98438C15.6813 6.24558 14.3227 5.40016 12.2316 5.40016C10.9548 5.40016 9.82877 5.81514 8.97603 6.63721C8.18093 7.40315 7.62281 8.61212 7.35324 9.82921H6.59638C6.0806 9.82921 5.76012 10.233 5.76012 10.7421C5.76012 11.2511 6.0806 11.6549 6.59638 11.6549H7.1666C7.15923 11.8071 7.15407 11.9132 7.15407 12.057C7.15407 12.1551 7.15407 12.4157 7.15599 12.5678H6.59638C6.07277 12.5678 5.76012 12.9636 5.76012 13.4807C5.76012 13.9897 6.0806 14.3935 6.59638 14.3935H7.30056C7.53723 15.6107 8.05966 16.5839 8.85475 17.3629C9.71223 18.2029 10.8483 18.5998 12.2316 18.5998C14.3961 18.5998 15.6962 17.7955 16.4457 16.0252C16.5068 15.9004 16.5378 15.763 16.5361 15.6241C16.5361 15.2125 16.2083 14.8193 15.7557 14.6955Z" fill="currentColor"/>
</svg>
