<svg width="24" height="24" viewBox="0 0 24 24" fill="currentColor" xmlns="http://www.w3.org/2000/svg">
<path fill-rule="evenodd" clip-rule="evenodd" d="M5.60139 15.1586L6.60913 14.1506C7.02654 13.7331 7.02654 13.0562 6.60913 12.6386C6.4087 12.4382 6.13682 12.3255 5.85333 12.3255C5.56984 12.3255 5.29796 12.4382 5.09753 12.6386L4.0898 13.6466C3.67235 14.0642 3.67235 14.7411 4.0898 15.1586C4.29022 15.3591 4.5621 15.4718 4.84559 15.4718C5.12909 15.4718 5.40097 15.3591 5.60139 15.1586ZM7.61684 17.1746L8.62457 16.1666C9.04199 15.7491 9.04199 15.0722 8.62457 14.6546C8.42415 14.4541 8.15227 14.3415 7.86878 14.3415C7.58528 14.3415 7.3134 14.4541 7.11298 14.6546L6.10525 15.6626C5.68783 16.0802 5.68783 16.7571 6.10525 17.1746C6.30567 17.3751 6.57755 17.4878 6.86105 17.4878C7.14454 17.4878 7.41642 17.3751 7.61684 17.1746ZM9.63229 19.1906L10.64 18.1826C11.0574 17.7651 11.0574 17.0882 10.64 16.6706C10.4396 16.4702 10.1677 16.3575 9.88423 16.3575C9.60073 16.3575 9.32886 16.4702 9.12843 16.6706L8.12072 17.6786C7.70327 18.0962 7.70327 18.7731 8.12072 19.1906C8.32115 19.3911 8.59302 19.5038 8.87652 19.5038C9.16001 19.5038 9.43188 19.3912 9.63229 19.1906ZM11.1439 18.6866L10.1362 19.6946C9.71875 20.1122 9.71875 20.7891 10.1362 21.2066C10.3366 21.4071 10.6085 21.5198 10.892 21.5198C11.1755 21.5198 11.4473 21.4071 11.6478 21.2066L12.6555 20.1986C13.0729 19.7811 13.0729 19.1042 12.6555 18.6866C12.4551 18.4861 12.1832 18.3735 11.8997 18.3735C11.6162 18.3735 11.3443 18.4861 11.1439 18.6866ZM10.3881 10.3707C9.98724 10.7717 9.44349 10.997 8.8765 10.997C8.30951 10.997 7.76576 10.7717 7.36491 10.3707L6.3572 9.36274L10.8919 4.82674L10.6802 4.61496C10.0683 4.00281 9.23819 3.65888 8.37262 3.65888C7.50706 3.65888 6.67696 4.00281 6.06502 4.61496L2.61838 8.06256C1.34392 9.33746 1.34392 11.404 2.61838 12.6789L3.35931 13.42C3.39196 13.3707 3.42707 13.3229 3.4645 13.2771C3.46606 13.2751 3.46781 13.2733 3.4693 13.2714C3.4867 13.2502 3.50451 13.2293 3.52301 13.2088C3.54327 13.1864 3.56419 13.1644 3.58577 13.1428L4.59349 12.1348C5.13566 11.5921 5.9644 11.4577 6.65034 11.801C7.33629 12.1444 7.72528 12.8884 7.61581 13.6476C8.17115 13.5676 8.73172 13.7541 9.12842 14.1509C9.52511 14.5477 9.71146 15.1083 9.63125 15.6636C10.1866 15.5836 10.7472 15.7701 11.1439 16.1669C11.5406 16.5637 11.7269 17.1243 11.6467 17.6796C11.8312 17.6534 12.0187 17.656 12.2024 17.6874C12.2358 17.6931 12.2691 17.6998 12.3021 17.7074C12.3352 17.7151 12.3681 17.7236 12.4008 17.7331C12.4172 17.7379 12.4335 17.743 12.4497 17.7482C12.7173 17.8346 12.9606 17.9836 13.1592 18.1827L13.663 18.6867C14.0806 19.1041 14.7574 19.104 15.1748 18.6865C15.5922 18.269 15.5922 17.5921 15.1746 17.1747L14.6708 16.6707L11.1437 13.1427C11.0045 13.0035 11.0045 12.7779 11.1437 12.6387C11.2829 12.4995 11.5085 12.4995 11.6477 12.6387L15.1748 16.1667L15.6786 16.6707C15.9487 16.9407 16.3423 17.0462 16.7112 16.9473C17.0801 16.8484 17.3682 16.5602 17.467 16.1913C17.5658 15.8223 17.4603 15.4287 17.1902 15.1587L16.6863 14.6547L13.1593 11.1267C13.0201 10.9876 13.0201 10.762 13.1592 10.6228C13.2984 10.4836 13.524 10.4836 13.6632 10.6227L17.1902 14.1507L17.6941 14.6547C18.1116 15.0721 18.7884 15.072 19.2058 14.6545C19.6233 14.237 19.6232 13.5601 19.2056 13.1427L17.9058 11.8425L13.4112 7.34681L11.8996 8.85881L10.3881 10.3707ZM19.9615 12.8907L20.2135 12.6387C20.2619 12.5903 20.3084 12.5407 20.3529 12.4899C20.2138 12.6185 20.0702 12.7389 19.9219 12.851L19.9615 12.8907ZM20.6469 4.14514C18.4219 1.92005 14.8143 1.92005 12.5893 4.14509C12.5449 4.18949 12.4045 4.36052 12.3618 4.406C12.3013 4.45816 12.2423 4.51292 12.1848 4.5703L11.9328 4.8223L11.429 5.3263L7.39805 9.3583L7.90191 9.8623C8.16915 10.1296 8.53165 10.2798 8.90965 10.2798C9.28764 10.2798 9.65014 10.1296 9.91738 9.8623L10.8576 8.92191L12.9408 6.83825L13.1928 6.58625L13.4448 6.33425L19.955 12.8464C20.1031 12.7343 20.2468 12.6139 20.386 12.4854C20.4412 12.4343 20.5933 12.2564 20.6469 12.2027C22.872 9.97764 22.872 6.37018 20.6469 4.14514ZM17.9589 8.50952H17.1439C17.1441 8.50332 17.1444 8.49718 17.1444 8.49096C17.1424 8.01054 16.7518 7.62243 16.2714 7.62344V6.81365C17.2036 6.81365 17.9593 7.56456 17.9593 8.49087C17.9592 8.49711 17.9591 8.5033 17.9589 8.50952ZM19.4722 8.50952H18.6574C18.6574 8.50332 18.6577 8.49716 18.6577 8.49096C18.6591 7.86092 18.4072 7.25675 17.9587 6.81423C17.511 6.36759 16.9038 6.11767 16.2714 6.11972V5.30998C18.0393 5.30998 19.4725 6.73414 19.4725 8.49092C19.4725 8.49711 19.4722 8.5033 19.4722 8.50952ZM20.9856 8.50952H20.1707C20.1707 8.50332 20.1709 8.49716 20.1709 8.49096C20.172 7.46163 19.7606 6.47478 19.0288 5.75096C18.2965 5.02206 17.3046 4.61382 16.2714 4.616V3.80626C18.8751 3.80626 20.9858 5.90364 20.9858 8.49092C20.9858 8.49711 20.9856 8.5033 20.9856 8.50952Z" fill="currentColor"/>
</svg>
