<svg width="24" height="24" viewBox="0 0 24 24" fill="currentColor" xmlns="http://www.w3.org/2000/svg">
<path fill-rule="evenodd" clip-rule="evenodd" d="M22.7702 15.5782C22.69 14.6968 22.4328 13.8407 22.0138 13.0611L19.7774 8.88182C19.5163 8.39444 19.1028 8.00601 18.6 7.77595V3.59995C18.5991 2.27416 17.5241 1.19995 16.1983 1.19995H1.8V15.6C1.8 16.2364 2.05277 16.8469 2.5028 17.2969C2.95284 17.747 3.56323 17.9999 4.19971 18H9.64366L10.3411 19.3032C11.8272 22.0784 15.0622 23.4232 18.0777 22.5194C21.0933 21.6157 23.0554 18.7133 22.7702 15.5782ZM7.64278 3.40778C8.75002 2.88444 10.0408 2.93057 11.1841 3.53431C12.4363 4.19549 13.4995 4.25558 13.9936 4.23792V2.99995L16.586 4.69001C16.9084 4.90018 16.9084 5.29973 16.586 5.50992L13.9936 7.19995V6.03706C13.7565 6.04202 13.5194 6.03391 13.2832 6.01277C12.2935 5.9255 11.277 5.6189 10.3437 5.12609C9.70608 4.78937 9.00187 4.75622 8.41171 5.0352C8.22743 5.12152 8.05937 5.23892 7.91492 5.38226C7.437 4.89675 6.74044 4.69569 6.07731 4.85186C6.42365 4.23341 6.96358 3.72883 7.64278 3.40778ZM18.7334 20.9585C16.0943 22.3695 12.8106 21.3749 11.399 18.737L5.3286 7.3931C5.10042 6.96631 5.11726 6.4502 5.37278 6.03919C5.6283 5.62818 6.08368 5.38471 6.56739 5.40049C7.0511 5.41627 7.48964 5.68891 7.71783 6.1157L10.9128 12.0861C10.5627 11.4267 10.8122 10.6083 11.4706 10.2563C12.129 9.90424 12.9482 10.1513 13.3021 10.8088L13.6215 11.4058C13.2688 10.746 13.5177 9.92521 14.1775 9.57247C14.8372 9.21973 15.658 9.46863 16.0108 10.1284L16.3528 10.7676L16.3303 10.7255C15.9776 10.0657 16.2264 9.24489 16.8862 8.89214C17.546 8.5394 18.3668 8.78829 18.7195 9.44806L20.956 13.6274C22.3675 16.2653 21.3725 19.5476 18.7334 20.9585Z" fill="currentColor"/>
</svg>
