<svg width="24" height="24" viewBox="0 0 24 24" fill="currentColor" xmlns="http://www.w3.org/2000/svg">
<path fill-rule="evenodd" clip-rule="evenodd" d="M20.3997 14.9902C20.3997 16.6348 19.0519 17.9926 17.3877 17.9926C15.7243 17.9926 14.3998 16.6347 14.3998 14.9902C14.3986 14.1981 14.7133 13.4382 15.2741 12.8788C15.835 12.3195 16.5957 12.0068 17.3878 12.0101C17.586 12.0112 17.7838 12.0263 17.9798 12.0553V6.69103L9.60067 8.89464V18.5976C9.60067 20.2429 8.25172 21.6002 6.58836 21.6002C4.92499 21.6002 3.59973 20.2429 3.59973 18.5976C3.59973 16.9518 4.92504 15.5947 6.58836 15.5947C6.77882 15.5947 7.01899 15.6383 7.19997 15.672V5.30404L18.0792 2.44015C18.0792 2.44015 18.4 2.39978 18.5686 2.39978C19.5804 2.39978 20.3997 3.18753 20.3997 4.1868V14.9902Z" fill="currentColor"/>
</svg>
