<svg width="24" height="24" viewBox="0 0 24 24" fill="currentColor" xmlns="http://www.w3.org/2000/svg">
<path fill-rule="evenodd" clip-rule="evenodd" d="M14.0723 8.74032C13.8677 8.61988 13.6416 8.54026 13.4067 8.50589C13.1465 8.46499 12.8835 8.44475 12.6202 8.44535H10.7748V11.6824H12.6202C12.8835 11.6831 13.1465 11.6628 13.4067 11.6219C13.6417 11.5877 13.8678 11.508 14.0723 11.3874C14.2673 11.2678 14.4266 11.098 14.5336 10.8958C14.6494 10.684 14.7074 10.4067 14.7076 10.0639C14.7077 9.72104 14.6497 9.44372 14.5336 9.23191C14.4265 9.02976 14.2672 8.86 14.0723 8.74032ZM18.6 3H5.4C4.07452 3 3 4.07452 3 5.4V18.6C3 19.9255 4.07452 21 5.4 21H18.6C19.9255 21 21 19.9255 21 18.6V5.4C21 4.07452 19.9255 3 18.6 3ZM16.8025 11.342C16.6693 11.7555 16.4473 12.135 16.1521 12.4538C15.8545 12.7766 15.4688 13.0363 14.995 13.2328C14.5211 13.4292 13.9463 13.5276 13.2706 13.5277H10.7748V17.4H8.4V6.6H13.2706C13.9461 6.6 14.5208 6.69831 14.995 6.89494C15.4691 7.09156 15.8548 7.35122 16.1521 7.67393C16.446 7.99078 16.6679 8.36746 16.8025 8.77812C17.0748 9.61106 17.0748 10.5091 16.8025 11.342Z" fill="currentColor"/>
</svg>
