<svg width="24" height="24" viewBox="0 0 24 24" fill="currentColor" xmlns="http://www.w3.org/2000/svg">
<path fill-rule="evenodd" clip-rule="evenodd" d="M2.57125 12C2.57125 9.49121 3.56639 7.19794 5.21053 5.44085C5.42776 5.20872 5.25205 4.84771 4.92061 4.84771C4.81025 4.84704 4.70451 4.89194 4.62834 4.97179C2.8664 6.85445 1.79999 9.31174 1.79999 12C1.79999 14.6884 2.8665 17.1456 4.62841 19.0282C4.70458 19.1081 4.81033 19.153 4.92068 19.1523C5.25212 19.1523 5.42783 18.7913 5.2106 18.5592C3.56639 16.8022 2.57125 14.5089 2.57125 12ZM3.96503 12C3.96503 9.38846 5.22383 7.04966 7.20952 5.47558C7.48091 5.26044 7.31368 4.8478 6.95658 4.8478C6.86645 4.84713 6.77872 4.87681 6.70751 4.93205C4.55672 6.63749 3.19333 9.1711 3.19333 12C3.19333 14.829 4.55672 17.3626 6.70751 19.068C6.77871 19.1233 6.86644 19.153 6.95658 19.1524C7.31368 19.1524 7.48091 18.7398 7.20952 18.5246C5.22383 16.9504 3.96503 14.6116 3.96503 12ZM21.4288 12C21.4288 14.5089 20.4338 16.8022 18.7899 18.5592C18.5727 18.7914 18.7484 19.1524 19.0798 19.1524C19.1901 19.153 19.2959 19.1082 19.372 19.0283C21.1337 17.1456 22.2 14.6884 22.2 12C22.2 9.31174 21.1337 6.85445 19.372 4.97189C19.2959 4.89204 19.1901 4.84715 19.0798 4.8478C18.7484 4.8478 18.5727 5.20882 18.7899 5.44094C20.4338 7.19794 21.4288 9.49121 21.4288 12ZM19.9632 12C19.9632 14.6116 18.7046 16.9504 16.7191 18.5245C16.4478 18.7397 16.615 19.1523 16.972 19.1523C17.0622 19.1529 17.1499 19.1232 17.2211 19.068C19.3715 17.3626 20.7347 14.829 20.7347 12C20.7347 9.1709 19.3715 6.63739 17.2211 4.93195C17.1499 4.87668 17.0622 4.84698 16.972 4.84761C16.615 4.84761 16.4478 5.26025 16.7191 5.47538C18.7046 7.04966 19.9632 9.38846 19.9632 12ZM12 4.80005C8.0236 4.80005 4.79999 8.02361 4.79999 12C4.79999 15.9765 8.02369 19.2 12 19.2C15.9763 19.2 19.2 15.9765 19.2 12C19.2 8.02361 15.9765 4.80005 12 4.80005ZM17.616 14.952H15.48C15.6674 14.1696 15.7643 13.3336 15.792 12.432H18.336C18.2916 13.1346 18.1287 13.8245 17.854 14.4726C17.783 14.6406 17.7005 14.7919 17.616 14.952ZM6.14612 14.4726C5.87128 13.8246 5.70826 13.1346 5.66399 12.432H8.20799C8.23568 13.3336 8.33257 14.1696 8.51999 14.952C8.51999 14.952 6.40868 14.9526 6.38399 14.952C6.29975 14.7912 6.21724 14.6405 6.14612 14.4726ZM6.38399 9.02405L8.52548 9.03535C8.33807 9.81782 8.23568 10.6665 8.20799 11.568H5.66399C5.70844 10.8655 5.87146 10.1756 6.14612 9.52745C6.21716 9.35947 6.29944 9.18422 6.38399 9.02405ZM14.6856 9.38258C14.8428 10.1011 14.932 10.8328 14.952 11.568H12.432V9.02405H14.592C14.6216 9.1379 14.6592 9.26482 14.6856 9.38258ZM12.432 8.18405V5.71205C12.6097 5.77486 12.779 5.88701 12.9551 6.02765C13.3127 6.31325 13.6555 6.75506 13.9468 7.30522C14.0934 7.58929 14.2208 7.88289 14.328 8.18405H12.432ZM11.0451 6.02765C11.2211 5.88701 11.3902 5.77486 11.568 5.71205V8.18405H9.67199C9.77927 7.88288 9.9067 7.58927 10.0534 7.30522C10.3447 6.75506 10.6876 6.3133 11.0451 6.02765ZM11.568 9.02405V11.568H9.04799C9.06806 10.8328 9.1573 10.1011 9.31451 9.38258C9.34091 9.26482 9.37835 9.1379 9.40799 9.02405H11.568ZM9.31451 14.6175C9.1573 13.899 9.06806 13.1673 9.04799 12.432H11.568V14.952H9.40799C9.37835 14.8382 9.34079 14.7353 9.31451 14.6175ZM11.568 15.816V18.288C11.3902 18.2253 11.2211 18.1131 11.0451 17.9724C10.6875 17.6868 10.3447 17.245 10.0534 16.6949C9.9067 16.4108 9.77927 16.1172 9.67199 15.816H11.568ZM12.9551 17.9724C12.779 18.1131 12.6097 18.2253 12.432 18.288V15.816H14.328C14.2208 16.1172 14.0934 16.4108 13.9468 16.6949C13.6555 17.245 13.3126 17.6868 12.9551 17.9724ZM12.432 14.952V12.432H14.952C14.932 13.1673 14.8428 13.899 14.6856 14.6175C14.6592 14.7353 14.6215 14.8382 14.592 14.952H12.432ZM15.792 11.568C15.7643 10.6665 15.6674 9.80645 15.48 9.02405H17.616C17.7005 9.18422 17.783 9.35947 17.854 9.52745C18.1287 10.1756 18.2916 10.8655 18.336 11.568H15.792ZM16.4922 7.50785C16.7064 7.719 16.9055 7.94496 17.088 8.18405H15.24C14.9524 7.3151 14.5637 6.57473 14.1129 6.00662C14.2339 6.04934 14.3538 6.09581 14.4726 6.14602C15.2276 6.46498 15.9135 6.92748 16.4922 7.50785ZM9.52744 6.14602C9.64624 6.09576 9.76614 6.0493 9.88715 6.00662C9.43648 6.57473 9.04763 7.3151 8.75999 8.18405H6.91199C7.09454 7.94496 7.29368 7.719 7.50793 7.50785C8.08666 6.92749 8.77245 6.46499 9.52744 6.14602ZM7.50784 16.4922C7.2951 16.2796 7.0976 16.0522 6.91679 15.8118H8.76568C9.05332 16.6808 9.43638 17.4254 9.88715 17.9934C9.76617 17.9507 9.64627 17.9042 9.52744 17.854C8.77249 17.5351 8.08654 17.0726 7.50784 16.4922ZM14.4726 17.8541C14.3539 17.9043 14.234 17.9508 14.1129 17.9935C14.5637 17.4254 14.9524 16.685 15.24 15.816H17.088C16.9055 16.0551 16.7064 16.2811 16.4922 16.4922C15.9135 17.0726 15.2276 17.5351 14.4726 17.8541Z" fill="currentColor"/>
</svg>
