<svg width="24" height="24" viewBox="0 0 24 24" fill="currentColor" xmlns="http://www.w3.org/2000/svg">
<path fill-rule="evenodd" clip-rule="evenodd" d="M21.5845 21.5845C21.1159 22.0531 20.3561 22.0531 19.8875 21.5845L17.4585 19.1556C15.8917 20.3546 13.9729 21.0029 12 21C7.02943 21 3 16.9706 3 12C3 7.02943 7.02943 3 12 3C16.9706 3 21 7.02943 21 12C21.0029 13.9729 20.3546 15.8917 19.1556 17.4585L21.5845 19.8875C22.0531 20.3561 22.0531 21.1159 21.5845 21.5845ZM11.988 4.176C16.3026 4.176 19.8003 7.67359 19.8003 11.988C19.8003 16.3024 16.3026 19.7998 11.988 19.7998C7.6734 19.7998 4.19971 16.3023 4.19971 11.988C4.19971 7.67369 7.6734 4.176 11.988 4.176ZM16.2 14.3748C16.2 13.3097 15.6318 12.385 14.7885 11.8637C14.0929 12.6324 13.1119 13.1874 11.994 13.1874C10.876 13.1874 9.86496 12.6322 9.16944 11.8635C8.29884 12.4003 7.7708 13.352 7.77596 14.3748V17.0538C8.88631 18.1115 10.332 18.5998 11.9698 18.5998C13.6197 18.5998 15.1138 18.1013 16.2 17.0296V14.3748ZM11.9966 6.60017C10.3398 6.60017 8.99664 7.94331 8.99664 9.60017C8.99664 11.257 10.3398 12.6002 11.9966 12.6002C13.6516 12.6002 15 11.2663 15 9.60614C15 7.94599 13.6516 6.60017 11.9966 6.60017Z" fill="currentColor"/>
</svg>
