<svg width="24" height="24" viewBox="0 0 24 24" fill="currentColor" xmlns="http://www.w3.org/2000/svg">
<path fill-rule="evenodd" clip-rule="evenodd" d="M21.0524 12.9919C21.1506 12.5344 21.2001 12.0679 21.2 11.6C21.2 7.95493 18.2451 5 14.6 5C12.601 4.99821 10.7093 5.90429 9.45778 7.46305C8.70344 7.29717 7.91417 7.46207 7.28934 7.9161C6.66451 8.37013 6.26388 9.06988 6.18865 9.83857C3.8264 10.1389 2 12.1562 2 14.6C2 17.251 4.14903 19.4 6.8 19.4H18.8C20.328 19.4 21.6894 18.4353 22.1961 16.9938C22.7028 15.5523 22.2443 13.948 21.0524 12.9919ZM13.2854 14.1152C12.4759 13.306 11.7023 12.3687 12.0728 11.9984C13.0027 11.0686 13.0651 11.1409 12.1254 9.97165C11.1852 8.80242 11.3038 8.95525 10.0448 10.2142C9.452 10.8073 10.0136 13.0174 12.1982 15.2023C14.3832 17.3867 16.5936 17.9488 17.1868 17.3555C18.4456 16.0968 18.5985 16.2153 17.4292 15.2756C16.2604 14.3355 16.3283 14.4023 15.4026 15.328C15.032 15.6981 14.0949 14.9247 13.2854 14.1152Z" fill="currentColor"/>
</svg>
