<svg width="24" height="24" viewBox="0 0 24 24" fill="currentColor" xmlns="http://www.w3.org/2000/svg">
<path fill-rule="evenodd" clip-rule="evenodd" d="M20.7366 10.1562C20.7195 10.1391 20.7017 10.123 20.6835 10.1075L16.8393 6.26321C16.6671 6.09076 16.4323 5.99575 16.1886 6C16.1842 6 16.1798 5.99966 16.1753 5.99966H5.6753C5.17825 5.99966 4.7753 6.40261 4.7753 6.89966C4.7753 7.13836 4.87012 7.36728 5.03891 7.53606C5.20769 7.70484 5.43661 7.79966 5.6753 7.79966H12.7084L10.7647 9.74342L6.74045 13.7676C6.57166 13.9364 6.47683 14.1654 6.47683 14.4041C6.47683 14.6428 6.57166 14.8717 6.74045 15.0405C7.09192 15.3919 7.66177 15.3919 8.01324 15.0405L11.1889 11.8647L11.6132 12.289L3.23901 20.6633C2.88754 21.0148 2.88754 21.5846 3.23901 21.9361C3.59048 22.2875 4.16031 22.2875 4.51178 21.9361L12.886 13.5618L13.7345 12.7132L17.2392 9.20863L18.8254 10.7948L16.494 13.1261C16.1426 13.4776 16.1426 14.0474 16.494 14.3989C16.8455 14.7503 17.4153 14.7503 17.7668 14.3989L20.6835 11.4821C20.7017 11.4666 20.7195 11.4506 20.7366 11.4334C21.088 11.0802 21.088 10.5094 20.7366 10.1562ZM16.272 4.87238C16.7868 4.35759 16.9408 3.58338 16.6622 2.91076C16.3836 2.23814 15.7273 1.79958 14.9992 1.79958C14.2712 1.79958 13.6148 2.23814 13.3362 2.91076C13.0576 3.58338 13.2116 4.35759 13.7264 4.87238C14.4294 5.57531 15.5691 5.57531 16.272 4.87238ZM9.52754 19.1269C9.01274 19.6417 8.85873 20.4159 9.13734 21.0885C9.41594 21.7611 10.0723 22.1997 10.8003 22.1997C11.5284 22.1997 12.1847 21.7611 12.4633 21.0885C12.7419 20.4159 12.5879 19.6417 12.0731 19.1269C11.3702 18.4239 10.2305 18.4239 9.52754 19.1269Z" fill="currentColor"/>
</svg>
