<svg width="24" height="24" viewBox="0 0 24 24" fill="currentColor" xmlns="http://www.w3.org/2000/svg">
<path fill-rule="evenodd" clip-rule="evenodd" d="M9.60003 21C9.60003 21.3313 9.86866 21.6 10.2 21.6H10.961C11.1753 21.9712 11.5714 22.2 12 22.2C12.4287 22.2 12.8248 21.9712 13.0391 21.6H13.8C14.1314 21.6 14.4 21.3313 14.4 21V19.2H9.60003V21ZM12 4.19996C9.0177 4.19996 6.60003 6.61762 6.60003 9.59996C6.59837 10.6893 6.92779 11.7535 7.54462 12.6514C9.20972 15.2102 9.55582 17.4074 9.60226 17.7603C9.63404 18.2328 10.0265 18.6 10.5 18.6H13.5C13.9544 18.6 14.3374 18.2611 14.3931 17.8102C14.3931 17.8102 14.6448 15.3835 16.5297 12.5406C17.0994 11.6657 17.4016 10.6439 17.4 9.59996C17.4 6.61762 14.9824 4.19996 12 4.19996ZM8.90509 3.73836C9.03295 4.04285 9.38282 4.18677 9.68792 4.06038C9.99301 3.934 10.1386 3.58483 10.0137 3.27912L9.55443 2.17049C9.42762 1.86434 9.07663 1.71896 8.77047 1.84577C8.46432 1.97259 8.31894 2.32358 8.44575 2.62973L8.90509 3.73836ZM4.57059 7.2949L5.67922 7.75414C5.87774 7.83868 6.10637 7.81012 6.27798 7.67934C6.4496 7.54856 6.53778 7.3357 6.50892 7.12186C6.48006 6.90803 6.33861 6.72616 6.13846 6.64556L5.02981 6.18632C4.72464 6.06368 4.37763 6.20957 4.25176 6.51342C4.12589 6.81727 4.2681 7.16582 4.57059 7.2949ZM19.3384 12.505L18.2298 12.0458C17.9246 11.9231 17.5776 12.069 17.4517 12.3729C17.3259 12.6767 17.4681 13.0253 17.7706 13.1544L18.8794 13.6136C19.1845 13.7359 19.5312 13.5899 19.6569 13.2862C19.7827 12.9825 19.6407 12.6342 19.3384 12.505ZM5.77023 12.0458L4.66158 12.505C4.4625 12.5864 4.32218 12.768 4.29377 12.9812C4.26536 13.1943 4.35321 13.4064 4.52404 13.537C4.69486 13.6677 4.92254 13.6969 5.12082 13.6136L6.22947 13.1544C6.42962 13.0737 6.57107 12.8919 6.59993 12.678C6.62879 12.4642 6.54061 12.2514 6.36899 12.1206C6.19737 11.9898 5.96875 11.9612 5.77023 12.0458ZM18.3208 7.75414L19.4296 7.2949C19.7357 7.16808 19.8811 6.81709 19.7543 6.51094C19.6275 6.20479 19.2765 6.0594 18.9704 6.18622L17.8616 6.64556C17.6611 6.72594 17.5194 6.90787 17.4904 7.12189C17.4614 7.33591 17.5496 7.549 17.7215 7.67983C17.8933 7.81066 18.1222 7.83904 18.3208 7.75414ZM14.311 4.06316C14.458 4.12405 14.6232 4.12405 14.7702 4.06314C14.9173 4.00224 15.0341 3.88543 15.095 3.73841L15.5542 2.62976C15.639 2.43119 15.6106 2.20237 15.4798 2.03059C15.349 1.8588 15.1359 1.77055 14.922 1.79949C14.708 1.82844 14.5261 1.97013 14.4456 2.17049L13.9864 3.27929C13.8596 3.58539 14.0049 3.93631 14.311 4.06316Z" fill="currentColor"/>
</svg>
