<svg width="24" height="24" viewBox="0 0 24 24" fill="currentColor" xmlns="http://www.w3.org/2000/svg">
<path fill-rule="evenodd" clip-rule="evenodd" d="M19.8 18.6C19.7981 19.2619 19.2619 19.7981 18.6 19.8H17.4C17.0686 19.8 16.8 20.0686 16.8 20.4C16.8 20.7314 17.0686 21 17.4 21H18.6099C19.9245 21 21 19.9245 21 18.6099V17.4C21 17.0686 20.7314 16.8 20.4 16.8C20.0686 16.8 19.8 17.0686 19.8 17.4V18.6ZM18.6 4.2C19.2619 4.20194 19.7981 4.73806 19.8 5.4V6.6C19.8 6.93137 20.0686 7.2 20.4 7.2C20.7314 7.2 21 6.93137 21 6.6V5.39006C21 4.07554 19.9245 3 18.6099 3H17.4C17.0686 3 16.8 3.26863 16.8 3.6C16.8 3.93137 17.0686 4.2 17.4 4.2H18.6ZM5.4 19.8C4.73806 19.7981 4.20194 19.2619 4.2 18.6V17.4C4.2 17.0686 3.93137 16.8 3.6 16.8C3.26863 16.8 3 17.0686 3 17.4V18.6099C3 19.9245 4.07554 21 5.39006 21H6.6C6.93137 21 7.2 20.7314 7.2 20.4C7.2 20.0686 6.93137 19.8 6.6 19.8H5.4ZM4.2 5.4C4.20194 4.73806 4.73806 4.20194 5.4 4.2H6.6C6.93137 4.2 7.2 3.93137 7.2 3.6C7.2 3.26863 6.93137 3 6.6 3H5.39006C4.07554 3 3 4.07554 3 5.39006V6.6C3 6.93137 3.26863 7.2 3.6 7.2C3.93137 7.2 4.2 6.93137 4.2 6.6V5.4ZM11.696 9.86011H12.16V8.96213H12.618V8.51011H12.154V8.95613H11.696V9.86011ZM8.50613 10.7844H8.97012V10.3272H9.42401V9.87521H8.03201V10.3272H8.50613V10.7844ZM8.51213 11.2523V10.8183H8.04811V11.7223H8.50613V12.1743H9.42401V11.7223H8.97012V11.2523H8.51213ZM11.696 7.56401H12.16V6.66H11.264V7.11199H11.696V7.56401ZM12.16 8.05212H11.696V8.50411H12.16V8.05212ZM7.12001 11.2463V10.7943H6.65599V11.2464L7.12001 11.2463ZM13.104 15.3924V14.9404H12.6401V15.3924H13.104ZM14.4639 14.9228H14.928V14.4708H14.464L14.4639 14.9228ZM10.8 15.8624H10.336V16.3144H10.8V15.8624ZM11.72 17.6886H12.184V17.2366H11.72V17.6886ZM13.096 16.7883H12.632V17.2403H13.096V17.6886H13.56V17.2366H13.096V16.7883ZM13.544 16.7755H14.008V16.3235H13.544V16.7755ZM10.32 16.7659H9.85601V17.6877H9.87199L10.8 17.6886V17.2366H10.32V16.7659ZM9.888 10.8003H8.97012V11.2523H9.888V10.8003ZM10.344 14.929H9.88001V15.8559H10.344V14.929ZM7.12001 9.87521H6.192V10.3272H7.12001V9.87521ZM7.12001 10.7844H8.04799V10.3324H7.12001V10.7844ZM7.12001 13.5559V14.0078H6.192V13.5559H7.12001ZM8.496 14.0094H9.42401V13.5574H8.496V14.0094ZM11.728 17.228V16.776H11.72L12.656 16.7755V16.3235H12.644V16.3145H13.104V15.8625H12.1761V16.3145H12.18V16.3235H11.72V15.8625H11.256V16.776H10.8V17.228H11.728ZM13.109 14.0124H12.181V14.0364H12.175V14.9404H12.639V14.4644H13.109V14.0124ZM11.7281 14.0182V14.9405H11.2519V15.8426H10.788V14.4806H9.87696V14.0285H10.3361V13.5598H9.87192L9.87384 13.1035H8.496V13.1078H8.04816V13.5598H7.12008V13.1078H7.56792V12.6432H6.192V11.2524H6.65592V11.7151H7.12008V11.2524H7.584V12.1891H8.496V12.6516H10.344V13.0896H10.8L10.8019 13.0906L10.8 13.5598H11.2639V14.0182H11.7281ZM12.192 13.1078V13.5598H11.2639V13.0906L10.8 13.0896V12.1721H12.1541V12.6242H11.7281V13.1078H12.192ZM10.336 10.3324H9.87199V10.7844H10.336V10.3324ZM14.49 10.3324H14.026V10.7844H14.49V10.3324ZM17.2399 17.2402V16.3145H17.6909V15.8623H17.251V14.9374H16.3229V14.9405H15.8561V14.0078H16.776V14.0011H16.789V13.5598H17.2639V13.1078H16.789V12.6516H16.776V12.6324H17.2399V12.1742H17.6959V11.7223H17.2399V11.2726H16.776V10.8206H16.32V10.3272H16.776V10.7844H17.2399V10.3272H17.6959V9.87528H15.8561V10.3325H15.3919V10.7844H15.8561V11.2726H16.325V11.7223H15.8561V12.1742H16.776V12.6276H15.8561V12.1798H15.3919V12.624H14.928V12.6276H14.0261V12.1742H14.9326V11.7245H15.3919V11.2726H14.49V11.7223H14.0261L14.026 10.7844L13.5533 10.7844L13.554 9.88032H13.109V8.96616H12.6451V10.8206H12.192V10.3325H11.2639V10.8206H10.3361V11.7245H10.8V11.2726H11.725V11.6885H12.1891V11.2726H12.6451V11.6986H13.109V11.2726H13.5619V12.1891H12.6401V13.5662H13.5619V15.8626H13.5864V15.8683H14.004V16.3166H14.49V16.7755H14.9539V16.3166H15.3881V15.8683H16.3229V16.3145H16.776V16.7899H16.321V16.349H15.857V16.7899H14.928V17.2356H14.4761V17.6878H14.94V17.2418H16.32V17.6959H17.7041V17.2402H17.2399ZM15.8561 13.0795H16.325V13.5559H15.8561V13.0795ZM13.5682 13.5559V12.6367H14.0189V13.0795H14.928V13.5559H13.5682ZM15.3919 15.4164H14.0261V14.0078H15.3919V15.4164ZM15.3919 9.86011H14.928V10.3121H15.392L15.3919 9.86011ZM13.5619 9.40812H14.0259V8.95613H13.562L13.5619 9.40812ZM9.42394 9.40812V6.20801H6.192V9.40812H9.42394ZM6.65599 6.66H8.95999V8.95613H6.65599V6.66ZM12.6401 8.50411H14.0081V6.20801H12.6401V6.66H13.544V7.58206H13.104V7.11199H12.6401V7.58206H12.1721V8.03407H12.6401V8.50411ZM7.12006 7.11211V8.50423H8.51218V7.11223L7.12006 7.11211ZM6.65599 14.4884H6.192V17.6886H9.42401V14.4884H6.65599ZM8.95999 17.2366H6.65599V14.9404H8.95999V17.2366ZM8.51213 16.7846V15.3926H7.12001V16.7847L8.51213 16.7846ZM17.696 9.408V6.20801H14.464V9.40812L17.696 9.408ZM14.928 6.66H17.232V8.95613H14.928V6.66ZM15.392 7.11199V8.50411H16.7841V7.11211L15.392 7.11199ZM10.8 7.60013V7.13599H10.336V6.20801H9.87199V8.016H10.336V8.51429H9.87199V9.41827H10.336V8.94401H10.8V10.3324L11.2639 10.3325L11.264 7.60013H10.8Z" fill="currentColor"/>
</svg>
