<svg width="24" height="24" viewBox="0 0 24 24" fill="currentColor" xmlns="http://www.w3.org/2000/svg">
<path fill-rule="evenodd" clip-rule="evenodd" d="M12 1.79999C6.37988 1.79999 1.79999 6.35999 1.79999 12C1.79999 17.64 6.37988 22.2 12 22.2C17.6201 22.2 22.2 17.64 22.2 12C22.2 6.35999 17.62 1.79999 12 1.79999ZM18.6 13.2C18.6 13.5314 18.3314 13.8 18 13.8H13.8V18C13.8 18.3314 13.5314 18.6 13.2 18.6H10.8C10.4686 18.6 10.2 18.3314 10.2 18V13.8H5.99999C5.66862 13.8 5.39999 13.5314 5.39999 13.2V10.8C5.39999 10.4686 5.66862 10.2 5.99999 10.2H10.2V5.99999C10.2 5.66862 10.4686 5.39999 10.8 5.39999H13.2C13.5314 5.39999 13.8 5.66862 13.8 5.99999V10.2H18C18.3314 10.2 18.6 10.4686 18.6 10.8V13.2Z" fill="currentColor"/>
</svg>
