<svg width="24" height="24" viewBox="0 0 24 24" fill="currentColor" xmlns="http://www.w3.org/2000/svg">
<path fill-rule="evenodd" clip-rule="evenodd" d="M4.2 3H10.2C10.8627 3 11.4 3.53726 11.4 4.2V10.2C11.4 10.8627 10.8627 11.4 10.2 11.4H4.2C3.53726 11.4 3 10.8627 3 10.2V4.2C3 3.53726 3.53726 3 4.2 3ZM4.2 12.6H10.2C10.8627 12.6 11.4 13.1373 11.4 13.8V19.8C11.4 20.4627 10.8627 21 10.2 21H4.2C3.53726 21 3 20.4627 3 19.8V13.8C3 13.1373 3.53726 12.6 4.2 12.6ZM13.8 3H19.8C20.4627 3 21 3.53726 21 4.2V10.2C21 10.8627 20.4627 11.4 19.8 11.4H13.8C13.1373 11.4 12.6 10.8627 12.6 10.2V4.2C12.6 3.53726 13.1373 3 13.8 3ZM13.8 12.6H19.8C20.4627 12.6 21 13.1373 21 13.8V19.8C21 20.4627 20.4627 21 19.8 21H13.8C13.1373 21 12.6 20.4627 12.6 19.8V13.8C12.6 13.1373 13.1373 12.6 13.8 12.6Z" fill="currentColor"/>
</svg>
