<svg width="24" height="24" viewBox="0 0 24 24" fill="currentColor" xmlns="http://www.w3.org/2000/svg">
<path fill-rule="evenodd" clip-rule="evenodd" d="M7.84802 11.4394C8.06274 11.4391 8.26095 11.3242 8.36782 11.1379C8.47468 10.9517 8.47392 10.7225 8.36582 10.537C7.59181 9.20261 7.60956 7.55175 8.41209 6.2343C8.52672 6.05138 8.53425 5.82098 8.43181 5.63097C8.32937 5.44095 8.13275 5.32061 7.91693 5.31584C7.70112 5.31107 7.49937 5.4226 7.38863 5.6079C6.3557 7.30196 6.33285 9.4255 7.32909 11.1414C7.43658 11.3261 7.63428 11.4397 7.84802 11.4394ZM15.8475 5.49481C15.561 5.66147 15.4638 6.02876 15.6304 6.31528C16.3902 7.62531 16.3866 9.24274 15.6212 10.5495C15.5126 10.7343 15.5109 10.963 15.6168 11.1495C15.7226 11.3359 15.9198 11.4517 16.1342 11.4533C16.3485 11.4549 16.5475 11.342 16.656 11.1571C17.6404 9.4767 17.6449 7.39671 16.6678 5.71204C16.5878 5.57442 16.4565 5.47421 16.3026 5.43347C16.1488 5.39273 15.9851 5.41479 15.8475 5.49481ZM6.0892 4.26275C5.95199 4.18215 5.78838 4.15938 5.63437 4.19944C5.48036 4.2395 5.34859 4.33911 5.26804 4.47635C3.83823 6.91417 3.83823 9.93453 5.26804 12.3723C5.3761 12.5583 5.57538 12.6721 5.79041 12.6708C6.00544 12.6695 6.20334 12.5533 6.30914 12.3661C6.41494 12.1788 6.41247 11.9493 6.30266 11.7645C5.09296 9.70198 5.09296 7.14663 6.30266 5.08415C6.47044 4.79837 6.37489 4.43068 6.0892 4.26275ZM18.726 4.47635C18.6181 4.29013 18.4187 4.17598 18.2035 4.17718C17.9883 4.1784 17.7902 4.2948 17.6844 4.48222C17.5786 4.66964 17.5812 4.89937 17.6914 5.08427C18.8999 7.14497 18.901 9.69777 17.6942 11.7595C17.5849 11.9444 17.5828 12.1738 17.6887 12.3607C17.7947 12.5476 17.9925 12.6636 18.2074 12.6648C18.4222 12.666 18.6213 12.5522 18.7294 12.3665C20.1558 9.92953 20.1545 6.91209 18.726 4.47635ZM2.9979 8.44129C2.99401 6.8449 3.41469 5.27618 4.21682 3.89593C4.32478 3.71073 4.32573 3.48199 4.21932 3.29589C4.1129 3.10979 3.91529 2.9946 3.70092 2.9937C3.48654 2.99282 3.28798 3.10636 3.18002 3.29157C1.32717 6.47679 1.33481 10.4134 3.19998 13.5914C3.30867 13.7762 3.50768 13.8889 3.72205 13.8872C3.93642 13.8854 4.13357 13.7695 4.23925 13.583C4.34493 13.3964 4.34307 13.1677 4.23439 12.9829C3.42668 11.6055 2.99993 10.038 2.9979 8.44129ZM20.8141 3.29164C20.7064 3.10603 20.5077 2.99211 20.293 2.99288C20.0784 2.99366 19.8806 3.10901 19.7742 3.2954C19.6677 3.48179 19.669 3.71082 19.7774 3.89603C21.4088 6.70147 21.405 10.1676 19.7676 12.9695C19.6592 13.1544 19.6578 13.3831 19.7638 13.5695C19.8698 13.7558 20.0671 13.8714 20.2815 13.8728C20.4958 13.8741 20.6946 13.761 20.803 13.5761C22.659 10.4002 22.6632 6.47152 20.8141 3.29164ZM13.0507 6.02387H10.9018C10.1722 6.02387 9.58065 6.61519 9.58055 7.34478V19.6834C9.58065 20.413 10.1722 21.0043 10.9018 21.0043H13.0507C13.401 21.0043 13.737 20.8652 13.9848 20.6175C14.2325 20.3698 14.3716 20.0338 14.3716 19.6834V7.34478C14.3716 6.99444 14.2325 6.65845 13.9848 6.41072C13.737 6.163 13.401 6.02387 13.0507 6.02387ZM11.9762 18.6078C11.6451 18.6078 11.3767 18.3394 11.3767 18.0083C11.3767 17.6772 11.6451 17.4088 11.9762 17.4088C12.3073 17.4088 12.5757 17.6772 12.5757 18.0083C12.5758 18.1673 12.5126 18.3198 12.4002 18.4322C12.2877 18.5447 12.1352 18.6078 11.9762 18.6078ZM11.9762 16.8307C11.6451 16.8307 11.3767 16.5623 11.3767 16.2312C11.3767 15.9001 11.6451 15.6317 11.9762 15.6317C12.3073 15.6317 12.5757 15.9001 12.5757 16.2312C12.5758 16.3902 12.5126 16.5427 12.4002 16.6551C12.2878 16.7676 12.1352 16.8307 11.9762 16.8307ZM11.9762 15.0538C11.6451 15.0538 11.3766 14.7854 11.3765 14.4543C11.3764 14.1231 11.6448 13.8546 11.976 13.8545C12.3072 13.8545 12.5757 14.1229 12.5757 14.454C12.5758 14.6131 12.5126 14.7656 12.4002 14.8781C12.2878 14.9905 12.1353 15.0537 11.9762 15.0538ZM11.9762 13.2037C11.6451 13.2037 11.3767 12.9353 11.3767 12.6042C11.3767 12.2731 11.6451 12.0047 11.9762 12.0047C12.3073 12.0047 12.5757 12.2731 12.5757 12.6042C12.5758 12.7632 12.5126 12.9157 12.4002 13.0281C12.2877 13.1406 12.1352 13.2037 11.9762 13.2037ZM11.9962 9.599C11.334 9.59897 10.7972 9.06214 10.7972 8.39997C10.7973 7.73779 11.3341 7.20102 11.9962 7.20102C12.6584 7.20102 13.1952 7.73784 13.1952 8.40001C13.1951 9.06219 12.6583 9.59897 11.9962 9.599Z" fill="currentColor"/>
</svg>
