<svg width="24" height="24" viewBox="0 0 24 24" fill="currentColor" xmlns="http://www.w3.org/2000/svg">
<path fill-rule="evenodd" clip-rule="evenodd" d="M20.156 12.8013L17.4612 10.1279L19.1956 8.40005H13.7974C13.4661 8.40018 13.1976 8.66877 13.1976 9.00005V14.4L14.918 12.6735L18.05 15.7806C19.3487 17.0697 19.6645 19.0507 18.8311 20.6797C18.808 20.7237 18.8206 20.7778 18.8606 20.8071C18.9006 20.8364 18.9561 20.832 18.9909 20.7967L20.1863 19.5895C22.0506 17.7066 22.037 14.6675 20.156 12.8013ZM16.7964 15.384V18.264L13.4868 14.9546L13.1477 15.294L16.7964 18.9361V19.8H14.731L12.6 17.664V16.8H11.7339L9 14.064V13.2H8.13737L7.19959 12.264V9.33605L12.5978 14.736V14.064L7.19959 8.66405V5.73605L7.79827 6.33948V7.20005H8.65802L11.4 9.93605V10.8H12.6V9.60005H11.736L9 6.86405V6.00005H8.13737L7.19959 5.06405V3.60005H8.65802L13.0855 8.03177C13.2253 7.92901 13.3858 7.85799 13.5559 7.82366L9.33622 3.60005H12.2546L14.997 6.33605V7.20005H15.8511L16.4505 7.80005H18V3.00005C18 2.33731 17.4523 1.80005 16.7909 1.80005H7.1976C6.53553 1.80072 5.99935 2.33798 6 3.00005V21C5.99935 21.6621 6.53553 22.1994 7.1976 22.2001H16.7909C17.4523 22.2001 18 21.6628 18 21V16.584L16.7964 15.384ZM16.8 7.46405L16.2 6.86405V6.00005H15.3305L12.9329 3.60005H16.8V7.46405ZM11.0952 2.40005H12.8935C13.0592 2.40005 13.1935 2.53436 13.1935 2.70005C13.1935 2.86573 13.0592 3.00005 12.8935 3.00005H11.0952C10.9295 3.00005 10.7952 2.86573 10.7952 2.70005C10.7952 2.53436 10.9295 2.40005 11.0952 2.40005ZM7.19959 19.8V16.536L10.4564 19.8H7.19959ZM11.9942 21.6C11.7515 21.6003 11.5326 21.4542 11.4395 21.2301C11.3465 21.0059 11.3976 20.7477 11.5692 20.576C11.7408 20.4043 11.9989 20.3528 12.2231 20.4457C12.4474 20.5385 12.5937 20.7573 12.5937 21C12.5937 21.1591 12.5306 21.3117 12.4182 21.4242C12.3058 21.5367 12.1533 21.6 11.9942 21.6ZM11.1345 19.8L7.19959 15.864V12.936L7.79827 13.5395V14.4H8.65802L11.3982 17.136V18H12.2546L14.0528 19.8H11.1345Z" fill="currentColor"/>
</svg>
