<svg width="24" height="24" viewBox="0 0 24 24" fill="currentColor" xmlns="http://www.w3.org/2000/svg">
<path fill-rule="evenodd" clip-rule="evenodd" d="M21.8439 10.2324L18.912 9.67207L14.664 5.15976C14.4362 4.92837 14.1247 4.79869 13.8 4.80006H6.00001C5.62035 4.79975 5.26298 4.97932 5.03666 5.28415L1.44033 10.0873L1.43665 10.0922L1.4344 10.0952C1.28182 10.3011 1.19963 10.5507 1.20001 10.8071V15.0001C1.20001 15.6627 1.73735 16.1999 2.40001 16.2001H4.20001C4.20001 17.5256 5.27453 18.6001 6.60001 18.6001C7.9255 18.6001 9.00001 17.5256 9.00001 16.2001H15C15 17.5256 16.0745 18.6001 17.4 18.6001C18.7255 18.6001 19.8 17.5256 19.8 16.2001H21.6C22.2627 16.1999 22.8 15.6627 22.8 15.0001V11.4066C22.7998 10.838 22.4005 10.3478 21.8439 10.2324ZM10.176 6.57607C7.85641 6.57607 5.97601 8.06623 5.97601 9.90444C5.97601 11.3291 7.10557 12.5447 8.69365 13.0195V14.7121L10.176 13.2328C12.4956 13.2328 14.376 11.7426 14.376 9.90444C14.376 8.06623 12.4956 6.57607 10.176 6.57607ZM7.76161 9.08726C7.81667 9.05351 7.88011 9.03592 7.94469 9.0365C8.0274 9.03767 8.1093 9.0531 8.18677 9.0821L8.28517 9.11736C8.31122 9.12532 8.33837 9.1291 8.3656 9.12857C8.43294 9.13031 8.49755 9.10191 8.54181 9.05112C8.58794 8.99972 8.61272 8.93265 8.61109 8.86361C8.61224 8.78199 8.56981 8.70596 8.49976 8.66407C8.42039 8.61269 8.33153 8.57774 8.23842 8.56128C8.14531 8.54275 8.05064 8.53311 7.9557 8.53247C7.8118 8.53178 7.66952 8.56293 7.53906 8.62368C7.41256 8.68107 7.30405 8.77176 7.22512 8.88607C7.14552 9.00312 7.10427 9.14201 7.10706 9.28354C7.10706 9.41889 7.13315 9.52858 7.18533 9.6126C7.23592 9.69515 7.3079 9.76248 7.39365 9.80746C7.50397 9.86252 7.61945 9.90661 7.73841 9.93907C7.84905 9.97237 7.92717 9.99661 7.97279 10.0118C8.02216 10.0288 8.06928 10.0518 8.11309 10.0802C8.17108 10.1176 8.20442 10.1834 8.20034 10.2522C8.20277 10.3232 8.16892 10.3904 8.11053 10.4308C8.05117 10.4739 7.97945 10.4967 7.90607 10.4957C7.81595 10.4947 7.72684 10.4766 7.64346 10.4424L7.45782 10.3728C7.41438 10.3553 7.36784 10.3468 7.32102 10.3479C7.2588 10.3481 7.19977 10.3754 7.15931 10.4227C7.11524 10.4675 7.09038 10.5277 7.09005 10.5905C7.08927 10.6512 7.10851 10.7104 7.14479 10.7591C7.18256 10.8095 7.23223 10.8497 7.28934 10.8761C7.45987 10.9587 7.66433 11 7.90273 11C8.03021 11.0005 8.15691 10.9801 8.27783 10.9398C8.3919 10.9031 8.49458 10.8376 8.57596 10.7496C8.70885 10.6097 8.77528 10.4181 8.77528 10.1749C8.77528 9.97593 8.70912 9.82409 8.5768 9.7194C8.44448 9.61471 8.26539 9.53161 8.03954 9.47011L7.89582 9.43137C7.75093 9.39355 7.67849 9.32645 7.6785 9.23006C7.67737 9.17068 7.70942 9.11561 7.76161 9.08726ZM11.2622 9.26966C11.2106 9.12603 11.1309 8.99413 11.0278 8.88168C10.9253 8.7707 10.8003 8.68284 10.6612 8.62397C10.5113 8.5614 10.3502 8.53023 10.1877 8.53236C9.88601 8.53236 9.62909 8.62871 9.41694 8.82141C9.29003 8.93487 9.19166 9.07666 9.12983 9.23527C9.06578 9.39888 9.03341 9.57317 9.03445 9.74887C9.03445 10.1263 9.14085 10.4279 9.35365 10.6539C9.45916 10.7667 9.58825 10.8548 9.73173 10.912C10.012 11.0228 10.3229 11.0289 10.6073 10.9292C10.7374 10.883 10.8568 10.811 10.9585 10.7176C11.0888 10.5999 11.1884 10.4523 11.2489 10.2874C11.3126 10.1151 11.3446 9.93261 11.3434 9.74887C11.3448 9.58559 11.3174 9.42335 11.2622 9.26966ZM12.2707 9.08726C12.3258 9.05351 12.3892 9.03592 12.4538 9.0365C12.5365 9.03767 12.6184 9.0531 12.6959 9.0821L12.7943 9.11736C12.8203 9.12532 12.8475 9.1291 12.8747 9.12857C12.9421 9.1303 13.0067 9.10191 13.0509 9.05112C13.0971 8.99972 13.1218 8.93265 13.1202 8.86361C13.1214 8.782 13.0789 8.70597 13.0089 8.66407C12.9295 8.6127 12.8407 8.57774 12.7476 8.56128C12.6544 8.54275 12.5598 8.53311 12.4648 8.53247C12.3209 8.53178 12.1787 8.56293 12.0482 8.62368C11.9217 8.68106 11.8132 8.77176 11.7342 8.88607C11.6547 9.00313 11.6134 9.14202 11.6162 9.28354C11.6162 9.41889 11.6423 9.52858 11.6945 9.6126C11.7451 9.69516 11.817 9.76249 11.9028 9.80746C12.0131 9.86253 12.1286 9.90661 12.2476 9.93907C12.3582 9.97237 12.4363 9.99661 12.482 10.0118C12.5313 10.0288 12.5784 10.0518 12.6222 10.0802C12.6802 10.1176 12.7136 10.1834 12.7095 10.2522C12.7119 10.3232 12.678 10.3905 12.6196 10.4308C12.5603 10.4739 12.4886 10.4967 12.4152 10.4957C12.3251 10.4947 12.236 10.4766 12.1526 10.4424L11.9669 10.3728C11.9235 10.3553 11.877 10.3468 11.8301 10.3479C11.7679 10.3481 11.7089 10.3754 11.6684 10.4227C11.6244 10.4675 11.5995 10.5277 11.5991 10.5905C11.5984 10.6512 11.6176 10.7104 11.6539 10.7591C11.6917 10.8095 11.7413 10.8497 11.7985 10.8761C11.969 10.9587 12.1734 11 12.4119 11C12.5393 11.0005 12.666 10.9801 12.787 10.9398C12.901 10.9031 13.0037 10.8376 13.0851 10.7496C13.2179 10.6097 13.2843 10.4181 13.2844 10.1749C13.2844 9.97593 13.2182 9.82409 13.0859 9.7194C12.9536 9.61471 12.7745 9.53161 12.5487 9.47011L12.4049 9.43137C12.2601 9.39355 12.1877 9.32645 12.1877 9.23006C12.1865 9.17071 12.2186 9.11565 12.2707 9.08726ZM10.5219 10.4086C10.4349 10.4809 10.3245 10.5171 10.1907 10.5171C10.0712 10.5212 9.9543 10.4819 9.86162 10.4065C9.77218 10.3303 9.70522 10.2311 9.66796 10.1196C9.62656 10.0016 9.60561 9.87738 9.60601 9.7523C9.60601 9.51859 9.66442 9.33513 9.78122 9.20193C9.83211 9.14457 9.89424 9.09825 9.96376 9.06586C10.0324 9.03264 10.1076 9.01527 10.1839 9.01505C10.3019 9.01108 10.4178 9.04737 10.5125 9.11796C10.6025 9.18838 10.6705 9.28292 10.7087 9.39055C10.7514 9.50635 10.7728 9.62889 10.772 9.7523C10.773 9.87951 10.7528 10.006 10.7122 10.1265C10.6762 10.2364 10.6103 10.3341 10.5219 10.4086Z" fill="currentColor"/>
</svg>
