<svg width="24" height="24" viewBox="0 0 24 24" fill="currentColor" xmlns="http://www.w3.org/2000/svg">
<path fill-rule="evenodd" clip-rule="evenodd" d="M19.7957 8.3959H19.2959C18.1831 4.5391 15.3344 1.7959 11.9957 1.7959C8.657 1.7959 5.8083 4.5391 4.69552 8.3959H4.19572C2.87023 8.3959 1.79572 9.47042 1.79572 10.7959V13.1959C1.79572 14.5214 2.87023 15.5959 4.19572 15.5959H4.69552C5.8083 19.4527 8.657 22.1959 11.9957 22.1959C15.3344 22.1959 18.1831 19.4527 19.2959 15.5959H19.7957C21.1212 15.5959 22.1957 14.5214 22.1957 13.1959V10.7959C22.1957 9.47042 21.1212 8.3959 19.7957 8.3959ZM17.5709 16.7959H13.6929C13.4007 15.9694 12.5555 15.4736 11.6914 15.6218C10.8274 15.7701 10.1958 16.5192 10.1958 17.3959C10.1958 18.2726 10.8274 19.0217 11.6914 19.17C12.5555 19.3182 13.4007 18.8224 13.6929 17.9959H16.9017C16.7919 18.162 16.6773 18.3232 16.5578 18.4795C15.9427 19.2838 15.2339 19.9112 14.4509 20.3442C13.6693 20.7767 12.8432 20.9959 11.9957 20.9959C11.1483 20.9959 10.3222 20.7767 9.54052 20.3442C8.75754 19.9112 8.0487 19.2838 7.4336 18.4795C6.80029 17.6513 6.30133 16.6814 5.95055 15.5969C5.58236 14.4589 5.39572 13.2473 5.39572 11.9959C5.39572 10.7445 5.58236 9.53292 5.95045 8.39489C6.0477 8.09423 6.15631 7.80265 6.27628 7.52014C6.42224 7.1777 6.7803 6.97629 7.14875 7.02936C8.07868 7.16215 9.74795 7.67148 11.9957 9.45161C14.7191 11.6084 17.6128 11.014 18.5041 10.5009C18.5653 10.9969 18.5959 11.4962 18.5957 11.9959C18.5957 13.2473 18.4091 14.4589 18.041 15.5969C17.9091 16.0059 17.7522 16.4063 17.5709 16.7959Z" fill="currentColor"/>
</svg>
