<svg width="24" height="24" viewBox="0 0 24 24" fill="currentColor" xmlns="http://www.w3.org/2000/svg">
<path fill-rule="evenodd" clip-rule="evenodd" d="M19.3882 7.28554C19.2948 7.76633 19.0856 8.15453 18.8529 8.58607L18.8384 8.61305L18.8309 8.62694L18.8227 8.64043L16.8931 11.8084C17.1686 12.3129 17.0476 12.9419 16.6047 13.3083C16.1617 13.6746 15.5212 13.6754 15.0773 13.3101C14.6335 12.9449 14.511 12.3162 14.7853 11.811L12.8483 8.64118L12.8398 8.6273L12.8321 8.6129C12.5782 8.14176 12.3361 7.69229 12.2627 7.1039H3.59998V13.704L4.43998 14.544L3.59998 15.384V18.504C3.59998 19.4981 4.40586 20.304 5.39998 20.304H20.4V8.904C20.4 8.2154 20.0073 7.58709 19.3882 7.28554ZM5.30554 13.7216L4.45702 12.8731L5.30556 12.0246L6.15408 12.8731L5.30554 13.7216ZM6.10234 11.2102L6.95086 10.3617L7.79938 11.2102L6.95086 12.0587L6.10234 11.2102ZM7.79938 12.9072L8.64792 12.0587L9.49642 12.9072L8.6479 13.7558L7.79938 12.9072ZM9.49644 14.6043L10.345 13.7558L11.1936 14.6043L10.3449 15.4528L9.49644 14.6043ZM11.9732 17.064L11.1246 16.2155L11.9732 15.3669L12.8217 16.2155L11.9732 17.064ZM13.6702 15.3669L12.8217 14.5184L13.6702 13.6699L14.5188 14.5184L13.6702 15.3669ZM15.84 3.74399C15.0452 3.74163 14.2821 4.05569 13.7193 4.61683C13.1564 5.17798 12.84 5.94006 12.84 6.73486C12.84 7.35631 13.0597 7.7707 13.3603 8.32831L15.8386 12.384H15.84L18.3102 8.32831C18.6108 7.7707 18.84 7.356 18.84 6.73486C18.84 5.09162 17.4826 3.74399 15.84 3.74399ZM15.84 7.824C15.2435 7.824 14.76 7.34047 14.76 6.744C14.76 6.14753 15.2435 5.664 15.84 5.664C16.4364 5.664 16.92 6.14753 16.92 6.744C16.92 7.34047 16.4364 7.824 15.84 7.824Z" fill="currentColor"/>
</svg>
