<svg width="24" height="24" viewBox="0 0 24 24" fill="currentColor" xmlns="http://www.w3.org/2000/svg">
<path fill-rule="evenodd" clip-rule="evenodd" d="M12 8.112C6.3667 8.112 1.8 9.92978 1.8 12.9123V14.7123C1.8 15.0537 1.94531 15.3789 2.19965 15.6066C2.45399 15.8342 2.79326 15.9428 3.13253 15.9051L6.13253 15.5718C6.74031 15.5042 7.20009 14.9904 7.2 14.3789V13.6528C7.24056 11.865 9.37438 11.6278 12 11.6278C14.6256 11.6278 16.7585 11.8651 16.799 13.6529L16.8 14.3789C16.7999 14.9904 17.2597 15.5042 17.8675 15.5717L20.8675 15.9051C21.2068 15.9428 21.546 15.8342 21.8004 15.6065C22.0547 15.3789 22.2 15.0536 22.2 14.7123V12.9123C22.2 9.92978 17.6333 8.112 12 8.112Z" fill="currentColor"/>
</svg>
