<svg width="24" height="24" viewBox="0 0 24 24" fill="currentColor" xmlns="http://www.w3.org/2000/svg">
<path fill-rule="evenodd" clip-rule="evenodd" d="M19.8 1.79999H12C6.36668 1.79999 1.79999 6.36668 1.79999 12C1.79999 17.6333 6.36668 22.2 12 22.2C17.6333 22.2 22.2 17.6333 22.2 12V4.19999C22.2 2.8745 21.1255 1.79999 19.8 1.79999ZM12.7772 6.76708L14.4886 5.05568L13.6329 4.19999H17.9114L15.7721 6.33923L14.0607 8.05062L13.6329 8.47847L12.7772 7.62277C12.5409 7.38647 12.5409 7.00337 12.7772 6.76708ZM14.8665 18.3148C14.1042 19.0799 11.2638 18.355 8.45605 15.5384C5.64884 12.7212 4.91531 9.98072 5.68885 9.10638C7.22212 7.57696 7.15429 7.28598 8.36245 8.79366C9.56996 10.3013 9.4898 10.2081 8.29487 11.407C7.81871 11.8846 8.81288 13.0932 9.85302 14.1367C10.8932 15.1802 12.0974 16.1777 12.5737 15.7004C13.7632 14.5067 13.6758 14.4206 15.1778 15.6328C16.6806 16.8446 16.484 16.6917 14.8665 18.3148ZM19.6228 6.76708L17.9114 8.47847L18.768 9.33599H14.496L16.6278 7.19492L18.3392 5.48353L18.7671 5.05568L19.6228 5.91138C19.8591 6.14768 19.8591 6.53078 19.6228 6.76708Z" fill="currentColor"/>
</svg>
