<svg width="24" height="24" viewBox="0 0 24 24" fill="currentColor" xmlns="http://www.w3.org/2000/svg">
<path fill-rule="evenodd" clip-rule="evenodd" d="M12.0034 1.99707C14.1602 3.50141 16.841 4.39363 19.7461 4.39363H20.3914V10.9842C20.3914 15.4154 17.8105 20.5704 12.0034 22.3678C6.19638 20.5704 3.61548 15.4154 3.61548 10.9842V4.39363L4.2607 4.39296C7.16583 4.39296 9.84665 3.50141 12.0034 1.99707ZM17.0651 7.00587C16.868 7.00576 16.6771 7.0688 16.5196 7.18411L16.4293 7.25931L10.9291 12.6282L9.11677 10.605C8.7489 10.2862 8.19672 10.3075 7.85448 10.6537L7.48261 11.0285C7.17545 11.3391 7.12517 11.8151 7.34695 12.1799L7.41404 12.2765L10.3892 16.0247C10.5646 16.2469 10.832 16.3765 11.115 16.3765C11.3576 16.3765 11.5888 16.2813 11.7603 16.1142L11.841 16.0249L17.791 8.52831C17.9233 8.36194 17.9952 8.15552 17.9948 7.94293C17.9968 7.42744 17.5806 7.00791 17.0651 7.00587Z" fill="currentColor"/>
</svg>
