<svg width="24" height="24" viewBox="0 0 24 24" fill="currentColor" xmlns="http://www.w3.org/2000/svg">
<path d="M20.2945 11.8945C20.1579 11.451 19.8956 11.0566 19.5395 10.7589L20.8084 6.12103C20.9064 5.73796 20.8103 5.33119 20.5512 5.03251C20.3631 4.81958 19.5048 4.67215 19.2 4.63572C17.7147 4.45807 17.4 3.59998 12 3.59998C7.2 3.59998 6.28526 4.45807 4.8 4.63572C4.49532 4.67215 3.63696 4.81958 3.4488 5.03251C3.18967 5.33118 3.09352 5.73795 3.1915 6.12103L4.49647 10.8908C4.23151 11.1286 4.01605 11.4163 3.86239 11.7375L3.16046 12.4395C3.0577 12.5422 3 12.6816 3 12.827V19.8C3.00194 20.4619 3.53806 20.998 4.2 21H19.8C20.4619 20.998 20.9981 20.4619 21 19.8V12.827C21 12.6816 20.9423 12.5422 20.8395 12.4395L20.2945 11.8945ZM10.2 5.99998V5.40511C10.2 5.0709 10.4709 4.79998 10.8051 4.79998H13.1949C13.5291 4.79998 13.8 5.0709 13.8 5.40511V5.99998C13.8 5.99998 13.2 6.59998 12 6.59998C10.8 6.59998 10.2 5.99998 10.2 5.99998ZM5.43101 7.19998C5.42307 7.12068 5.44905 7.04173 5.50253 6.98263C5.556 6.92354 5.63197 6.88982 5.71166 6.88982H10.4944C10.9445 7.09289 11.4621 7.19998 12 7.19998C12.5379 7.19998 13.0555 7.09289 13.5056 6.88982H18.2883C18.368 6.88982 18.444 6.92356 18.4975 6.98265C18.5509 7.04174 18.5769 7.12068 18.569 7.19998L18.2123 10.2094C18.1423 10.2033 18.0715 10.2 18 10.2C17.7154 10.1996 17.4331 10.25 17.1662 10.3488C16.373 9.59046 15.1999 9.38722 14.1978 9.8345C13.8212 8.97792 12.9813 8.41815 12.0458 8.4003C11.1102 8.38246 10.2496 8.90979 9.84065 9.75139C8.92892 9.41124 7.90204 9.65481 7.2402 10.3682C6.77748 10.1972 6.27687 10.1556 5.79228 10.248C5.62973 8.87645 5.43101 7.19998 5.43101 7.19998ZM4.2 12.6V12.394C4.36223 11.7159 4.84221 11.158 5.48849 10.8964C6.13478 10.6348 6.86767 10.7017 7.45591 11.076C7.54968 10.9194 7.66682 10.778 7.80329 10.6568C8.39135 10.1319 9.25277 10.0514 9.92796 10.4581C10.0269 10.5179 10.1199 10.587 10.2056 10.6645C10.2763 9.70871 11.0839 8.97609 12.0421 8.99849C13.0003 9.0209 13.7727 9.79045 13.7987 10.7485C13.9635 10.5889 14.1526 10.4564 14.3589 10.356C15.1086 9.99239 16.0007 10.0933 16.6502 10.6152C16.8097 10.7433 16.9503 10.8931 17.068 11.0604C17.3491 10.8902 17.6714 10.8002 18 10.8C18.0477 10.8 18.0948 10.8024 18.1416 10.8061C19.0771 10.8812 19.7984 11.6615 19.8 12.6H4.2ZM13.8 16.2C13.7971 17.1929 12.9929 17.9971 12 18C11.0071 17.9971 10.2029 17.1929 10.2 16.2V14.088C10.2005 13.9291 10.3291 13.8004 10.488 13.8H13.512C13.6709 13.8004 13.7995 13.9291 13.8 14.088V16.2ZM11.0958 15.1795C11.0388 15.602 11.286 16.0066 11.688 16.1486V17.112C11.6885 17.2708 11.8171 17.3995 11.976 17.4H12C12.1589 17.3995 12.2875 17.2708 12.288 17.112V16.1486C12.713 15.9986 12.9615 15.5573 12.8695 15.1161C12.7775 14.6749 12.3733 14.3698 11.9238 14.4022C11.4985 14.4325 11.1529 14.757 11.0958 15.1795Z" fill="currentColor"/>
</svg>
