<svg width="24" height="24" viewBox="0 0 24 24" fill="currentColor" xmlns="http://www.w3.org/2000/svg">
<path fill-rule="evenodd" clip-rule="evenodd" d="M18.6099 21H17.4C17.0686 21 16.8 20.7314 16.8 20.4C16.8 20.0686 17.0686 19.8 17.4 19.8H18.6C19.2619 19.7981 19.7981 19.2619 19.8 18.6V17.4C19.8 17.0686 20.0686 16.8 20.4 16.8C20.7314 16.8 21 17.0686 21 17.4V18.6099C21 19.9245 19.9245 21 18.6099 21ZM20.4 7.2C20.0686 7.2 19.8 6.93137 19.8 6.6V5.4C19.7981 4.73806 19.2619 4.20194 18.6 4.2H17.4C17.0686 4.2 16.8 3.93137 16.8 3.6C16.8 3.26863 17.0686 3 17.4 3H18.6099C19.9245 3 21 4.07554 21 5.39006V6.6C21 6.93137 20.7314 7.2 20.4 7.2ZM7.8 13.9254V13.375C10.2551 11.4097 13.7449 11.4097 16.2 13.375V13.9254C13.8085 11.7863 10.1915 11.7863 7.8 13.9254ZM7.8 12.8464V12.3342C10.3427 10.6366 13.6573 10.6366 16.2 12.3342V12.8464C13.6959 11.0259 10.3041 11.0259 7.8 12.8464ZM7.8 11.8346V11.313C10.3995 9.81441 13.6005 9.81441 16.2 11.313V11.8346C13.6261 10.2432 10.3739 10.2432 7.8 11.8346ZM7.8 10.8634V10.3886C10.4389 9.0452 13.5611 9.0452 16.2 10.3886V10.8634C13.5791 9.44694 10.4209 9.44694 7.8 10.8634ZM7.81135 9.91392C7.82353 9.74811 7.84561 9.58317 7.8775 9.42C10.5009 8.24806 13.4991 8.24806 16.1225 9.42C16.1544 9.58317 16.1765 9.74811 16.1886 9.91392C13.5407 8.64343 10.4593 8.64343 7.81135 9.91392ZM8.01283 8.90465C8.074 8.72081 8.14789 8.54146 8.23397 8.36789C10.6659 7.47878 13.3341 7.47878 15.766 8.36789C15.8521 8.54146 15.926 8.72081 15.9872 8.90465C13.4317 7.85985 10.5683 7.85985 8.01283 8.90465ZM8.56601 7.81051C8.712 7.60358 8.87621 7.41011 9.05666 7.23242C10.9876 6.73726 13.0124 6.73726 14.9433 7.23242C15.1238 7.41011 15.288 7.60358 15.434 7.81051C13.1991 7.10456 10.8009 7.10456 8.56601 7.81051ZM9.81914 6.636C10.4753 6.23344 11.2302 6.02058 12 6.02105C12.7698 6.02058 13.5247 6.23344 14.1809 6.636C12.7386 6.37622 11.2614 6.37622 9.81914 6.636ZM6.6 21H5.39006C4.07554 21 3 19.9245 3 18.6099V17.4C3 17.0686 3.26863 16.8 3.6 16.8C3.93137 16.8 4.2 17.0686 4.2 17.4V18.6C4.20194 19.2619 4.73806 19.7981 5.4 19.8H6.6C6.93137 19.8 7.2 20.0686 7.2 20.4C7.2 20.7314 6.93137 21 6.6 21ZM6.6 4.2H5.4C4.73806 4.20194 4.20194 4.73806 4.2 5.4V6.6C4.2 6.93137 3.93137 7.2 3.6 7.2C3.26863 7.2 3 6.93137 3 6.6V5.39006C3 4.07554 4.07554 3 5.39006 3H6.6C6.93137 3 7.2 3.26863 7.2 3.6C7.2 3.93137 6.93137 4.2 6.6 4.2ZM16.1989 14.5049C16.1952 14.6949 16.1786 14.8844 16.1491 15.0721C15.1119 13.8593 13.5959 13.161 12 13.161C10.4041 13.161 8.88814 13.8593 7.8509 15.0721C7.82142 14.8844 7.80478 14.6949 7.80108 14.5049C8.90694 13.3767 10.4202 12.7411 12 12.7411C13.5798 12.7411 15.0931 13.3767 16.1989 14.5049ZM12 13.581C13.5863 13.5798 15.0803 14.3265 16.0314 15.596C15.9833 15.76 15.9251 15.9209 15.8572 16.0778C15.0022 14.7813 13.553 14.001 12 14.001C10.447 14.001 8.9978 14.7813 8.14282 16.0778C8.0749 15.9209 8.01671 15.76 7.96858 15.596C8.91969 14.3265 10.4137 13.5798 12 13.581ZM12 14.421C13.4992 14.4204 14.885 15.2194 15.6357 16.5171C15.5559 16.6545 15.4685 16.7873 15.3738 16.9148C14.73 15.6429 13.4256 14.8411 12 14.8411C10.5744 14.8411 9.26998 15.6429 8.62625 16.9148C8.53154 16.7873 8.4441 16.6545 8.36434 16.5171C9.11502 15.2194 10.5008 14.4204 12 14.421ZM12 15.261C13.3339 15.2609 14.5416 16.0498 15.0776 17.2712C14.975 17.382 14.8665 17.4873 14.7526 17.5866C14.3214 16.4402 13.2248 15.681 12 15.681C10.7752 15.681 9.67858 16.4402 9.24737 17.5866C9.13353 17.4873 9.02505 17.382 8.92238 17.2712C9.45839 16.0498 10.6661 15.2609 12 15.261ZM12 16.101C13.0988 16.1011 14.071 16.8128 14.403 17.8602C14.2837 17.944 14.1602 18.0215 14.0329 18.0924C13.7919 17.167 12.9563 16.521 12 16.521C11.0437 16.521 10.2081 17.167 9.96713 18.0924C9.83983 18.0215 9.71629 17.944 9.597 17.8602C9.92904 16.8128 10.9012 16.1011 12 16.101ZM12 16.941C12.7976 16.9411 13.4852 17.5018 13.646 18.283C13.5152 18.3392 13.3816 18.3887 13.2457 18.4313C13.1519 17.8158 12.6226 17.3611 12 17.3611C11.3774 17.3611 10.8481 17.8158 10.7543 18.4313C10.6184 18.3887 10.4848 18.3392 10.354 18.283C10.5148 17.5018 11.2024 16.9411 12 16.941ZM12 17.781C12.4313 17.781 12.7926 18.1077 12.8358 18.5368C12.6982 18.5649 12.5592 18.586 12.4195 18.6C12.4083 18.3765 12.2238 18.2011 12 18.2011C11.7762 18.2011 11.5917 18.3765 11.5805 18.6C11.4408 18.586 11.3018 18.5649 11.1642 18.5368C11.2074 18.1077 11.5687 17.781 12 17.781Z" fill="currentColor"/>
</svg>
