<svg width="24" height="24" viewBox="0 0 24 24" fill="currentColor" xmlns="http://www.w3.org/2000/svg">
<path fill-rule="evenodd" clip-rule="evenodd" d="M1.80005 4.80005V17.28H5.40005V19.2H18.6V17.28H22.2001V4.80005H1.80005ZM12 18.12C11.6024 18.12 11.28 17.7977 11.28 17.4C11.28 17.0024 11.6024 16.68 12 16.68C12.3977 16.68 12.72 17.0024 12.72 17.4C12.72 17.7977 12.3977 18.12 12 18.12ZM20.76 15.84H3.24005V6.24005H20.76V15.84ZM12.1774 14.736C10.546 14.7357 9.15788 13.5475 8.90587 11.9357C8.8857 11.8079 8.9224 11.6778 9.00634 11.5794C9.09027 11.481 9.21304 11.4242 9.34236 11.424C9.5601 11.4242 9.74516 11.5832 9.77818 11.7984C9.97107 13.0365 11.0744 13.9245 12.3251 13.8482C13.5758 13.7719 14.5631 12.7565 14.604 11.5041C14.6489 10.1289 13.5324 8.99525 12.1569 8.99525H10.4515V10.0992L9.56861 9.22022L8.90645 8.56097L9.56861 7.89545L10.4515 7.00805V8.11205H12.1774C14.0066 8.11205 15.4894 9.59488 15.4894 11.424C15.4894 13.2532 14.0066 14.736 12.1774 14.736Z" fill="currentColor"/>
</svg>
