<svg width="24" height="24" viewBox="0 0 24 24" fill="currentColor" xmlns="http://www.w3.org/2000/svg">
<path fill-rule="evenodd" clip-rule="evenodd" d="M16.0667 6.60005H19.8L15 1.80005V5.40005C15 6.06283 15.4776 6.60005 16.0667 6.60005ZM16.2 7.80005C14.8745 7.80005 13.8 6.72553 13.8 5.40005V1.80005H4.20001V20.9946V21C4.20001 21.6628 4.73727 22.2001 5.40001 22.2001H19.8V7.80005H16.2ZM9.60001 19.2001H7.20001V18H9.60001V19.2001ZM13.2 19.2001H10.8V18H13.2V19.2001ZM13.0243 12.4243L11.3486 14.1L13.0243 15.7758C13.2586 16.0101 13.2586 16.39 13.0243 16.6243C12.79 16.8586 12.4101 16.8586 12.1757 16.6243L10.5 14.9486L8.82428 16.6243C8.58997 16.8586 8.21006 16.8586 7.97574 16.6243C7.74142 16.39 7.74142 16.0101 7.97574 15.7758L9.65147 14.1L7.97574 12.4243C7.74142 12.19 7.74142 11.8101 7.97574 11.5758C8.21006 11.3415 8.58997 11.3415 8.82428 11.5758L10.5 13.2515L12.1757 11.5758C12.4101 11.3415 12.79 11.3415 13.0243 11.5758C13.2586 11.8101 13.2586 12.19 13.0243 12.4243ZM16.8 19.2001H14.4V18H16.8V19.2001ZM16.8 16.8H14.4V15.6H16.8V16.8ZM16.8 14.4H14.4V13.2H16.8V14.4ZM16.8 12H14.4V10.8H16.8V12Z" fill="currentColor"/>
</svg>
