<svg width="24" height="24" viewBox="0 0 24 24" fill="currentColor" xmlns="http://www.w3.org/2000/svg">
<path fill-rule="evenodd" clip-rule="evenodd" d="M15 1.80005V5.40005C15 6.06279 15.4776 6.60005 16.0667 6.60005H19.8L15 1.80005ZM16.2 7.80005C14.8745 7.80005 13.8 6.72553 13.8 5.40005V1.80005H4.2V20.9946V21C4.2 21.6628 4.73726 22.2001 5.4 22.2001H19.8V7.80005H16.2ZM11.2491 16.2H10.1514L9.3 12.9328H9.28598L8.4486 16.2H7.32989L6 11.4H7.10469L7.89979 14.6673H7.9139L8.7864 11.4H9.8208L10.6792 14.7076H10.6932L11.5164 11.4H12.6L11.2491 16.2ZM18 16.8H14.4C14.0686 16.8 13.8 16.5314 13.8 16.2C13.8 15.8687 14.0686 15.6 14.4 15.6H18C18.3314 15.6 18.6 15.8687 18.6 16.2C18.6 16.5314 18.3314 16.8 18 16.8ZM18 14.4H14.4C14.0686 14.4 13.8 14.1314 13.8 13.8C13.8 13.4687 14.0686 13.2 14.4 13.2H18C18.3314 13.2 18.6 13.4687 18.6 13.8C18.6 14.1314 18.3314 14.4 18 14.4ZM18 12H14.4C14.0686 12 13.8 11.7314 13.8 11.4C13.8 11.0687 14.0686 10.8 14.4 10.8H18C18.3314 10.8 18.6 11.0687 18.6 11.4C18.6 11.7314 18.3314 12 18 12Z" fill="currentColor"/>
</svg>
