<svg width="24" height="24" viewBox="0 0 24 24" fill="currentColor" xmlns="http://www.w3.org/2000/svg">
<path fill-rule="evenodd" clip-rule="evenodd" d="M19.2 4.20002H16.8003V3.60002L16.8 3.30002C16.8 2.80297 16.3971 2.40002 15.9 2.40002C15.403 2.40002 15 2.80297 15 3.30002V4.20002L15.0003 5.09983L15 6.30002C15 6.79708 15.403 7.20002 15.9 7.20002C16.3971 7.20002 16.8 6.79708 16.8 6.30002V6.00002L16.8003 5.10022C17.3167 5.4877 17.5272 6.16214 17.323 6.77459C17.1187 7.38704 16.5455 7.80009 15.8999 7.80002C15.2543 7.79995 14.6811 7.38679 14.477 6.77429C14.2728 6.1618 14.4838 5.4872 15.0003 5.09983L15 4.20002H8.40029V3.60002L8.40002 3.30002C8.40002 2.80297 7.99708 2.40002 7.50002 2.40002C7.00297 2.40002 6.60002 2.80297 6.60002 3.30002V4.20002L6.60029 5.09981L6.60002 6.30002C6.60002 6.79708 7.00297 7.20002 7.50002 7.20002C7.99708 7.20002 8.40002 6.79708 8.40002 6.30002V6.00002L8.40029 5.10019C8.9167 5.48767 9.12725 6.16211 8.923 6.77456C8.71875 7.38702 8.14552 7.80007 7.4999 7.80001C6.85429 7.79995 6.28114 7.38679 6.077 6.7743C5.87286 6.1618 6.0838 5.48719 6.60029 5.09981L6.60002 4.20002H2.40002V19.2C2.40002 20.1941 3.20591 21 4.20002 21H21V6.00002C21 5.00591 20.1941 4.20002 19.2 4.20002ZM19.8 10.44C19.7675 9.97255 19.3126 9.59926 18.9012 9.59926C18.8905 9.59926 18.8798 9.59964 18.8691 9.60003H3.60031V18.7955H3.60288C3.60005 18.8302 3.59939 18.865 3.60062 18.8997C3.5988 19.3933 3.99624 19.7955 4.4898 19.7996V19.8008L19.8 19.8V10.44ZM8.77939 13.9866C8.9584 13.974 9.13416 13.9323 9.29976 13.8632C9.45473 13.7997 9.59124 13.6982 9.69672 13.5681C9.80034 13.4394 9.8522 13.2677 9.85231 13.0531C9.85231 12.7312 9.74502 12.4845 9.53045 12.3128C9.32139 12.143 9.05943 12.0519 8.79012 12.0552C8.4039 12.0552 8.11243 12.1822 7.91573 12.4361C7.71902 12.69 7.62425 13.0101 7.6314 13.3964H6.18298C6.19229 13.0348 6.26303 12.6774 6.39218 12.3396C6.50979 12.0331 6.68868 11.7538 6.9179 11.5188C7.14775 11.2869 7.42376 11.106 7.72802 10.9878C8.04268 10.8627 8.39316 10.8001 8.77946 10.8C9.0848 10.8008 9.38839 10.846 9.68071 10.9341C9.97238 11.0193 10.2466 11.1556 10.4908 11.3365C10.728 11.5127 10.927 11.7354 11.0755 11.991C11.2257 12.2485 11.3008 12.5453 11.3008 12.8814C11.3008 13.2462 11.2132 13.568 11.0379 13.8469C10.8627 14.1259 10.5998 14.3154 10.2493 14.4156V14.437C10.6641 14.5301 10.9895 14.7304 11.2257 15.0379C11.4618 15.3454 11.5798 15.7137 11.5797 16.143C11.5797 16.5364 11.5028 16.8869 11.3491 17.1944C11.2019 17.4936 10.9914 17.7572 10.7322 17.9669C10.4673 18.1783 10.1653 18.3384 9.84175 18.439C9.50169 18.5469 9.1469 18.6012 8.79012 18.6C8.36801 18.6 7.98355 18.5392 7.63675 18.4176C7.30689 18.3064 7.00495 18.1253 6.75161 17.8865C6.50357 17.647 6.31127 17.3558 6.18833 17.0336C6.0559 16.6975 5.99331 16.3112 6.00058 15.8748H7.449C7.4551 16.0696 7.48758 16.2627 7.54555 16.4488C7.59706 16.6204 7.68081 16.7807 7.79232 16.9209C7.90147 17.0548 8.03887 17.1629 8.19468 17.2374C8.35559 17.3162 8.54692 17.3555 8.76866 17.3554C9.11201 17.3554 9.4017 17.2499 9.63773 17.0389C9.87376 16.8279 9.99178 16.54 9.99178 16.1753C9.99178 15.8892 9.93634 15.6711 9.82548 15.5208C9.71831 15.3735 9.57127 15.26 9.40169 15.1935C9.2216 15.1238 9.03134 15.084 8.83841 15.0755C8.63455 15.0648 8.43964 15.0594 8.25367 15.0594V13.9866C8.42862 14.001 8.60445 14.001 8.77939 13.9866ZM12.2154 12.8332C12.3589 12.3361 12.5533 11.9374 12.7986 11.6369C13.0439 11.3364 13.3293 11.1218 13.6548 10.9932C13.9843 10.8637 14.3355 10.7981 14.6895 10.8C15.0471 10.7975 15.4018 10.863 15.7349 10.9932C16.0605 11.1219 16.3477 11.3365 16.5963 11.6369C16.845 11.9373 17.0411 12.3361 17.1847 12.8332C17.3281 13.3304 17.3999 13.9437 17.4 14.6732C17.4 15.4242 17.3282 16.0519 17.1847 16.5562C17.0411 17.0604 16.845 17.4628 16.5963 17.7632C16.3476 18.0636 16.0605 18.2782 15.7349 18.4069C15.4018 18.537 15.0471 18.6026 14.6895 18.6001C14.3355 18.6019 13.9843 18.5364 13.6547 18.4069C13.329 18.2782 13.0436 18.0636 12.7985 17.7632C12.5533 17.4628 12.3589 17.0604 12.2153 16.5562C12.0718 16.0519 12 15.4242 12 14.6732C12 13.9436 12.0718 13.3303 12.2154 12.8332ZM13.5129 15.4511C13.5258 15.7481 13.5698 16.043 13.6442 16.3308C13.7178 16.6135 13.8351 16.8549 13.9961 17.055C14.1572 17.2552 14.3883 17.3553 14.6895 17.3555C14.9976 17.3555 15.234 17.2553 15.3987 17.055C15.5693 16.8427 15.6912 16.5955 15.7559 16.3308C15.8302 16.043 15.8742 15.7481 15.8872 15.4511C15.9012 15.1471 15.9082 14.8878 15.9082 14.6732C15.9082 14.5445 15.9065 14.3889 15.903 14.2065C15.8945 13.8232 15.8452 13.442 15.7559 13.0692C15.7143 12.8898 15.6452 12.7179 15.551 12.5596C15.464 12.4137 15.3456 12.2891 15.2043 12.1948C15.0641 12.1019 14.8925 12.0554 14.6895 12.0553C14.4865 12.0552 14.3167 12.1017 14.18 12.1948C14.0418 12.2895 13.9269 12.4142 13.8438 12.5596C13.7524 12.7192 13.6834 12.8907 13.6389 13.0692C13.5901 13.2577 13.555 13.4496 13.5339 13.6432C13.5129 13.8363 13.5006 14.0241 13.4971 14.2065C13.4936 14.3889 13.4918 14.5444 13.4918 14.6732C13.4918 14.8878 13.4988 15.1471 13.5129 15.4511Z" fill="currentColor"/>
</svg>
