<svg width="24" height="24" viewBox="0 0 24 24" fill="currentColor" xmlns="http://www.w3.org/2000/svg">
<path fill-rule="evenodd" clip-rule="evenodd" d="M8.54044 9.45955C8.8077 9.72605 9.03198 10.0324 9.20524 10.3677C9.43321 9.4836 9.84204 8.65634 10.4059 7.93819C9.3075 6.74832 7.73699 6 5.99999 6H1.79999V8.4H5.99999C6.95432 8.39974 7.8691 8.78127 8.54044 9.45955ZM21.896 16.1294L18 12.6V15.6H15.6C14.6457 15.6003 13.7309 15.2187 13.0595 14.5404C12.7923 14.274 12.568 13.9676 12.3947 13.6323C12.1668 14.5164 11.7579 15.3437 11.1941 16.0618C12.2925 17.2517 13.863 18 15.6 18H18V21L21.8961 17.4706C22.0844 17.2961 22.2 17.06 22.2 16.8C22.2 16.54 22.0844 16.3039 21.896 16.1294ZM22.2 7.2C22.2 6.94001 22.0844 6.70387 21.896 6.52939L18 3V6H15.6C12.3 6 9.59999 8.7 9.59999 12C9.59031 13.9842 7.98419 15.5903 5.99999 15.6H1.79999V18H5.99999C9.29999 18 12 15.3 12 12C12.0097 10.0158 13.6158 8.40968 15.6 8.4H18V11.4L21.8961 7.87063C22.0844 7.69613 22.2 7.45999 22.2 7.2Z" fill="currentColor"/>
</svg>
