<svg width="24" height="24" viewBox="0 0 24 24" fill="currentColor" xmlns="http://www.w3.org/2000/svg">
<path fill-rule="evenodd" clip-rule="evenodd" d="M17.3855 2.99578C18.0504 2.99653 18.5892 3.53536 18.59 4.20026V20.9825C18.59 20.9852 18.5898 20.9893 18.5898 20.9893C18.5856 20.9917 18.5811 20.9936 18.5764 20.9949C18.5764 20.9949 18.5734 20.9921 18.5715 20.9902L12.8385 15.2572L11.99 14.4087L11.1415 15.2572L5.40851 20.9902C5.40661 20.9921 5.40356 20.9949 5.40356 20.9949C5.39889 20.9936 5.39439 20.9918 5.39019 20.9893C5.39019 20.9893 5.39 20.9852 5.39 20.9825V4.20026C5.39076 3.53536 5.92958 2.99653 6.59449 2.99578H17.3855ZM17.3855 1.79578H6.59449C5.26653 1.79578 4.19 2.8723 4.19 4.20026V20.9825C4.19 21.7124 4.7871 22.1958 5.40959 22.1958C5.72861 22.1958 6.03409 22.0669 6.25705 21.8387L11.99 16.1057L17.723 21.8387C17.9459 22.0669 18.2514 22.1958 18.5704 22.1958C19.1928 22.1958 19.79 21.7124 19.79 20.9825V4.20026C19.79 3.56255 19.5367 2.95096 19.0857 2.50003C18.6348 2.04911 18.0232 1.79578 17.3855 1.79578Z" fill="currentColor"/>
</svg>
