<svg width="24" height="24" viewBox="0 0 24 24" fill="currentColor" xmlns="http://www.w3.org/2000/svg">
<path fill-rule="evenodd" clip-rule="evenodd" d="M18.8541 14.5552C18.8853 14.3181 18.8446 14.0771 18.7373 13.8633L16.4073 9.20329C16.1576 8.5964 15.5662 8.20027 14.91 8.20026L14.904 8.2004V8.20919C14.8979 8.20614 14.8918 8.20295 14.8857 8.19992C13.245 9.74667 10.683 9.74667 9.04233 8.19992C7.70853 8.85614 6.86376 10.2135 6.86401 11.7V13.8C6.86401 14.2774 7.05366 14.7352 7.39122 15.0728C7.72879 15.4103 8.18662 15.6 8.66401 15.6V21C8.66401 21.6627 9.20127 22.2 9.86401 22.2H14.064C14.7268 22.2 15.264 21.6627 15.264 21V12.2832L16.5907 14.9366C16.7767 15.3086 17.142 15.5578 17.5562 15.5951C17.9705 15.6325 18.3745 15.4527 18.624 15.12C18.7752 15.2332 18.8642 15.4111 18.864 15.6V22.2H19.464V15.6C19.464 15.1672 19.231 14.7679 18.8541 14.5552ZM11.964 8.39999C13.7866 8.39999 15.264 6.92253 15.264 5.09999C15.264 3.27745 13.7866 1.79999 11.964 1.79999C10.1415 1.79999 8.66401 3.27745 8.66401 5.09999C8.66401 6.92253 10.1415 8.39999 11.964 8.39999Z" fill="currentColor"/>
</svg>
