<svg width="24" height="24" viewBox="0 0 24 24" fill="currentColor" xmlns="http://www.w3.org/2000/svg">
<path fill-rule="evenodd" clip-rule="evenodd" d="M16.2 7.79999C14.8745 7.79999 13.8 6.72547 13.8 5.39999V1.79999H4.2V20.9945C4.2 20.9964 4.2 20.9982 4.2 21C4.2 21.6627 4.73726 22.2 5.4 22.2H19.8V7.79999H16.2ZM16.0241 14.7651L11.9989 19.2L7.97371 14.7651C6.91559 13.6483 6.94713 11.8897 8.04462 10.8115C9.1421 9.73331 10.901 9.73299 11.9989 10.8108C13.0968 9.73359 14.8552 9.73419 15.9525 10.8121C17.0497 11.89 17.0816 13.6481 16.0241 14.7651ZM15 1.79999V5.39999C15 6.06272 15.4776 6.59999 16.0666 6.59999H19.8L15 1.79999Z" fill="currentColor"/>
</svg>
