<svg width="24" height="24" viewBox="0 0 24 24" fill="currentColor" xmlns="http://www.w3.org/2000/svg">
<path fill-rule="evenodd" clip-rule="evenodd" d="M20.9978 5.39999H18V7.79999H21V8.39999H18V8.99999H21V9.6H18V15.6C18 16.5941 17.1851 17.4 16.1892 17.4H15.6V18.6C15.6003 18.9185 15.7271 19.2239 15.9526 19.449C16.178 19.674 16.4836 19.8003 16.8022 19.8H20.9978C21.3164 19.8003 21.622 19.674 21.8475 19.449C22.0729 19.2239 22.1997 18.9185 22.2 18.6V6.59999C22.1997 6.28145 22.0729 5.97606 21.8475 5.75102C21.622 5.52598 21.3164 5.39971 20.9978 5.39999ZM20.3968 18.6C20.0655 18.5994 19.7974 18.3305 19.7978 17.9993C19.7982 17.668 20.067 17.3998 20.3982 17.4C20.7294 17.4002 20.9978 17.6688 20.9978 18C20.9975 18.3317 20.7284 18.6003 20.3968 18.6ZM13.8 19.8H4.8V19.2C4.8 18.8686 5.06863 18.6 5.4 18.6H7.8V17.4H11.4V18.6H13.8C14.1314 18.6 14.4 18.8686 14.4 19.2V19.8H13.8ZM17.376 5.37599V15.576C17.376 16.2387 16.8387 16.776 16.176 16.776H3C2.33726 16.776 1.8 16.2387 1.8 15.576V5.37599C1.8 4.71325 2.33726 4.17599 3 4.17599H16.176C16.8387 4.17599 17.376 4.71325 17.376 5.37599ZM3 14.4V5.39999H16.2V14.4H3ZM9.576 14.976C9.90737 14.976 10.176 15.2446 10.176 15.576C10.176 15.9074 9.90737 16.176 9.576 16.176C9.24463 16.176 8.976 15.9074 8.976 15.576C8.976 15.2446 9.24463 14.976 9.576 14.976ZM3.60012 11.4002L3.60036 11.9793C4.75956 12.0223 5.41928 12.8748 5.42079 13.8001H6C5.99846 12.4753 4.9249 11.4018 3.60012 11.4002ZM3.60036 10.2V10.7859C5.19032 10.7887 6.61124 12.2097 6.61395 13.8003H7.2C7.19978 11.8123 5.58841 10.2006 3.60036 10.2ZM3.6 13.2C3.75981 13.1977 3.91374 13.2602 4.02675 13.3732C4.13977 13.4863 4.20226 13.6402 4.2 13.8H4.8C4.79355 13.1428 4.25871 12.6 3.6 12.6V13.2C3.60401 13.2 3.59597 13.2 3.6 13.2Z" fill="currentColor"/>
</svg>
