<svg width="24" height="24" viewBox="0 0 24 24" fill="currentColor" xmlns="http://www.w3.org/2000/svg">
<path fill-rule="evenodd" clip-rule="evenodd" d="M18.6 3H5.4C4.07452 3 3 4.07452 3 5.4V18.6C3 19.9255 4.07452 21 5.4 21H18.6C19.9255 21 21 19.9255 21 18.6V5.4C21 4.07452 19.9255 3 18.6 3ZM18.2175 9.01726L15.6037 10.5264C15.3445 10.6755 15.0152 10.6113 14.8309 10.3758C14.1495 9.50866 13.1082 9.00167 12.0053 9.00008C10.9025 8.99849 9.85971 9.50249 9.1758 10.3677C8.99127 10.6022 8.66263 10.6657 8.40398 10.5169L5.7895 9.00744C5.64421 8.92385 5.54057 8.78323 5.50373 8.61971C5.46688 8.45619 5.5002 8.28472 5.5956 8.1469C7.00478 6.12394 9.34769 4.8 12 4.8C14.6569 4.8 17.0035 6.12852 18.4119 8.15743C18.507 8.29527 18.5401 8.46661 18.5031 8.62995C18.4662 8.79328 18.3626 8.93373 18.2175 9.01726ZM12 8.4C13.1291 8.39864 14.2109 8.85337 15 9.66103V6L11.9492 8.40065C11.9662 8.40043 11.983 8.4 12 8.4Z" fill="currentColor"/>
</svg>
