<svg width="24" height="24" viewBox="0 0 24 24" fill="currentColor" xmlns="http://www.w3.org/2000/svg">
<path fill-rule="evenodd" clip-rule="evenodd" d="M16.2 6.00005C16.2 3.69005 14.31 1.80005 12 1.80005C9.69001 1.80005 7.80001 3.69005 7.80001 6.00005H4.20001V20.4C4.20001 21.3942 5.0059 22.2001 6.00001 22.2001H18C18.9941 22.2001 19.8 21.3942 19.8 20.4V6.00005H16.2ZM9.00001 13.8C8.99883 13.004 9.31452 12.2403 9.87739 11.6774C10.4403 11.1146 11.204 10.7989 12 10.8C13.6426 10.8 15 12.1517 15 13.8C15 14.4231 14.7708 14.839 14.4703 15.3984L12 19.8L11.9986 19.7996L9.52033 15.3984C9.21985 14.839 9.00001 14.4236 9.00001 13.8ZM16.8 8.40005C16.8 8.9824 16.3819 9.48071 15.8084 9.58185C15.2349 9.68298 14.6716 9.35775 14.4724 8.81051C14.2732 8.26328 14.4957 7.65203 15 7.36085V8.40005C15 8.73142 15.2686 9.00005 15.6 9.00005C15.9314 9.00005 16.2 8.73142 16.2 8.40005V7.36085C16.5715 7.57504 16.8002 7.97128 16.8 8.40005ZM9.88225 3.88229C10.7401 3.02729 12.028 2.77201 13.1471 3.23512C14.2663 3.69823 14.9971 4.78887 15 6.00005H9.00001C8.99953 5.20465 9.3172 4.44209 9.88225 3.88229ZM7.80001 7.36085V8.40005C7.80001 8.73142 8.06864 9.00005 8.40001 9.00005C8.73138 9.00005 9.00001 8.73142 9.00001 8.40005V7.36085C9.47037 7.63241 9.69969 8.18604 9.55912 8.71066C9.41855 9.23528 8.94314 9.60008 8.40001 9.60008C7.85689 9.60008 7.38147 9.23528 7.2409 8.71066C7.10033 8.18604 7.32965 7.63241 7.80001 7.36085ZM10.44 14.0024L13.6074 12.6L11.739 15.6L11.5789 14.3219L10.44 14.0024Z" fill="currentColor"/>
</svg>
