<svg width="24" height="24" viewBox="0 0 24 24" fill="currentColor" xmlns="http://www.w3.org/2000/svg">
<path fill-rule="evenodd" clip-rule="evenodd" d="M19.2 4.1999H16.8V3.2879C16.8 2.79086 16.3971 2.3999 15.9 2.3999C15.403 2.3999 15 2.80285 15 3.2999V4.1999H8.40029L8.40002 3.2999C8.40002 2.80285 7.99708 2.3999 7.50002 2.3999C7.00297 2.3999 6.60002 2.80285 6.60002 3.2999V4.1999H2.40002V19.1999C2.40002 20.194 3.20591 20.9999 4.20002 20.9999H21V5.9999C21 5.00579 20.1941 4.1999 19.2 4.1999ZM19.8 19.7999H4.50002C4.00297 19.7999 3.60002 19.397 3.60002 18.8999V9.5999H18.9C19.3971 9.5999 19.8 10.0028 19.8 10.4999V19.7999ZM6.00002 6.2999C5.99965 5.82768 6.22202 5.38293 6.60002 5.0999V6.2999C6.60002 6.79696 7.00297 7.1999 7.50002 7.1999C7.99708 7.1999 8.40002 6.79696 8.40002 6.2999V5.9999L8.40029 5.10007C8.96447 5.5234 9.1575 6.28262 8.86401 6.92401C8.57052 7.56539 7.86982 7.91566 7.18065 7.76548C6.49148 7.6153 6.00002 7.00525 6.00002 6.2999ZM14.4 6.2999C14.3996 5.82768 14.622 5.38293 15 5.0999V6.2999C15 6.79696 15.403 7.1999 15.9 7.1999C16.3971 7.1999 16.8 6.79696 16.8 6.2999L16.7998 5.9999L16.8 5.1119C17.1774 5.39007 17.4002 5.83106 17.4 6.2999C17.4 7.12833 16.7285 7.7999 15.9 7.7999C15.0716 7.7999 14.4 7.12833 14.4 6.2999ZM11.7 10.7999C9.54611 10.7999 7.80002 12.546 7.80002 14.6999C7.80002 16.8538 9.54611 18.5999 11.7 18.5999C13.8539 18.5999 15.6 16.8538 15.6 14.6999C15.6 13.6656 15.1891 12.6736 14.4577 11.9422C13.7263 11.2108 12.7344 10.7999 11.7 10.7999ZM11.3114 11.9506C11.4327 11.8285 11.5977 11.7599 11.7698 11.7599C11.9419 11.7599 12.1069 11.8285 12.2282 11.9506C12.3508 12.0711 12.4188 12.2365 12.4164 12.4084C12.4188 12.5804 12.3498 12.7456 12.2258 12.8648C12.1052 12.9873 11.9398 13.0552 11.7679 13.0529C11.5071 13.0522 11.2723 12.8947 11.1725 12.6538C11.0727 12.4128 11.1275 12.1355 11.3114 11.9506ZM12.912 17.2769H10.8V17.0523L10.845 17.0508C10.919 17.0499 10.9923 17.0357 11.0613 17.009C11.1054 16.991 11.145 16.9637 11.1776 16.929C11.2024 16.9017 11.2526 16.8078 11.2526 16.4926V14.389C11.2526 14.0892 11.2009 13.9761 11.1646 13.934C11.1367 13.9047 11.102 13.8828 11.0636 13.87C10.9924 13.8466 10.9183 13.8334 10.8434 13.8308L10.8 13.8279V13.5702H12.4595V16.4926C12.4595 16.7926 12.5035 16.9057 12.5399 16.9475C12.5911 17.0067 12.6997 17.0415 12.8626 17.0508L12.912 17.0537V17.2769Z" fill="currentColor"/>
</svg>
