<svg width="24" height="24" viewBox="0 0 24 24" fill="currentColor" xmlns="http://www.w3.org/2000/svg">
<path fill-rule="evenodd" clip-rule="evenodd" d="M12 1.79999C17.6333 1.79999 22.2 6.36668 22.2 12C22.2 17.6333 17.6333 22.2 12 22.2C6.36668 22.2 1.79999 17.6333 1.79999 12C1.79999 6.36668 6.36668 1.79999 12 1.79999ZM19.8 12C19.8024 9.15325 18.2532 6.53145 15.7585 5.16018C13.2638 3.78891 10.2201 3.88611 7.81794 5.41376L18.5862 16.182C19.3816 14.9324 19.8028 13.4813 19.8 12ZM4.81199 15.0354C5.70365 17.1505 7.48191 18.7653 9.67293 19.4496C11.8639 20.1338 14.2452 19.818 16.182 18.5862L5.41376 7.81794C4.04415 9.98031 3.81938 12.676 4.81199 15.0354Z" fill="currentColor"/>
</svg>
