<svg width="24" height="24" viewBox="0 0 24 24" fill="currentColor" xmlns="http://www.w3.org/2000/svg">
<path fill-rule="evenodd" clip-rule="evenodd" d="M19.8 4.19995H3.60005V17.7C3.60005 17.8656 3.46573 18 3.30005 18C3.13436 18 3.00005 17.8656 3.00005 17.7V6.83995H1.80005V18C1.80005 18.9941 2.60594 19.8 3.60005 19.8H20.4C21.3942 19.8 22.2001 18.9941 22.2001 18V6.59995C22.2001 5.27447 21.1255 4.19995 19.8 4.19995ZM19.776 17.4H6.60005V18H6.00005V17.4H5.40005V16.8H6.00005V8.99995H6.60005V16.8H19.776V17.4ZM19.776 16.2H7.20005L9.00005 13.8L10.2 15L12.6 12.6L13.8 13.8L19.776 8.99995V16.2ZM19.5 7.79995H6.30005C5.80299 7.79995 5.40005 7.39701 5.40005 6.89995C5.40005 6.4029 5.80299 5.99995 6.30005 5.99995H19.5C19.9971 5.99995 20.4 6.4029 20.4 6.89995C20.4 7.39701 19.9971 7.79995 19.5 7.79995Z" fill="currentColor"/>
</svg>
