<svg width="24" height="24" viewBox="0 0 24 24" fill="currentColor" xmlns="http://www.w3.org/2000/svg">
<path fill-rule="evenodd" clip-rule="evenodd" d="M14.1 1.79999C12.2858 1.80014 10.7111 3.05081 10.3002 4.81789C12.598 5.02045 14.4 6.9496 14.4 9.29999C14.4 9.39719 14.3966 9.49357 14.3904 9.58924C16.4824 9.43357 18.0765 7.65099 17.9983 5.55469C17.9202 3.45838 16.1978 1.79945 14.1 1.79999ZM16.7656 9.764C16.0087 10.2619 15.1272 10.5372 14.2215 10.5584C13.9654 11.4353 13.4487 12.2135 12.74 12.7899C14.7388 13.3698 16.2 15.2141 16.2 17.4V18.6H19.8V13.8C19.7999 11.9291 18.5628 10.2837 16.7656 9.764ZM12.5656 13.364C10.947 14.4253 8.85303 14.4253 7.23445 13.364C5.43724 13.8837 4.20017 15.5291 4.20001 17.4V21C4.20001 21.6627 4.73727 22.2 5.40001 22.2H15.6V17.4C15.5999 15.5291 14.3628 13.8837 12.5656 13.364ZM13.8 9.29999C13.8 11.4539 12.0539 13.2 9.90001 13.2C7.7461 13.2 6.00001 11.4539 6.00001 9.29999C6.00001 7.14608 7.7461 5.39999 9.90001 5.39999C12.0539 5.39999 13.8 7.14608 13.8 9.29999Z" fill="currentColor"/>
</svg>
