<svg width="24" height="24" viewBox="0 0 24 24" fill="currentColor" xmlns="http://www.w3.org/2000/svg">
<path fill-rule="evenodd" clip-rule="evenodd" d="M20.4 6.00001H15V6.60935C14.9996 6.92664 14.8728 7.2307 14.6475 7.45418C14.4223 7.67766 14.1173 7.80213 13.8 7.80001H10.2C9.8827 7.80212 9.57767 7.67765 9.35244 7.45417C9.1272 7.23069 9.00036 6.92664 8.99999 6.60935V6.00001H3.59999C3.12315 5.99881 2.66542 6.18733 2.32775 6.52401C1.99008 6.86068 1.8002 7.31785 1.79999 7.79468V17.9947C1.79956 18.9898 2.60484 19.7975 3.59999 19.8H20.4C21.3951 19.7975 22.2004 18.9898 22.2 17.9947V7.79466C22.1998 7.31783 22.0099 6.86067 21.6722 6.524C21.3345 6.18733 20.8768 5.99881 20.4 6.00001ZM13.8 9.60001H19.2C19.5314 9.60001 19.8 9.86864 19.8 10.2C19.8 10.5314 19.5314 10.8 19.2 10.8H13.8C13.4686 10.8 13.2 10.5314 13.2 10.2C13.2 9.86864 13.4686 9.60001 13.8 9.60001ZM13.8 12H19.2C19.5314 12 19.8 12.2686 19.8 12.6C19.8 12.9314 19.5314 13.2 19.2 13.2H13.8C13.4686 13.2 13.2 12.9314 13.2 12.6C13.2 12.2686 13.4686 12 13.8 12ZM13.8 14.376H16.2021C16.5334 14.376 16.8021 14.6446 16.8021 14.976C16.8021 15.3074 16.5334 15.576 16.2021 15.576H13.8C13.4686 15.576 13.2 15.3074 13.2 14.976C13.2 14.6446 13.4686 14.376 13.8 14.376ZM11.4 10.1554C11.4 10.0081 11.3414 9.8668 11.2372 9.76264C11.133 9.65847 10.9916 9.60001 10.8443 9.60001H4.75568C4.60834 9.60001 4.46701 9.65847 4.3628 9.76264C4.25858 9.8668 4.19999 10.0081 4.19999 10.1554V16.8206C4.19999 17.1273 4.44877 17.4 4.75568 17.4H5.28738V17.1778C5.28712 17.163 5.28738 17.1483 5.28738 17.1334C5.28738 15.7468 6.40691 14.5989 7.78799 14.5989C9.16907 14.5989 10.2886 15.7468 10.2886 17.1334C10.2886 17.1483 10.2883 17.163 10.288 17.1778L10.2886 17.4H10.8443C11.1512 17.4 11.4 17.1273 11.4 16.8206V10.1554ZM7.77688 14.0434C6.85671 14.043 6.1111 13.2968 6.1114 12.3766C6.1117 11.4564 6.8578 10.7107 7.77796 10.7109C8.69813 10.711 9.44399 11.457 9.44399 12.3771C9.44389 12.8192 9.26819 13.2431 8.95554 13.5556C8.64289 13.8681 8.21892 14.0436 7.77688 14.0434ZM10.2 4.20001H13.8C14.1314 4.20001 14.4 4.46864 14.4 4.80001V6.60001C14.4 6.93138 14.1314 7.20001 13.8 7.20001H10.2C9.86862 7.20001 9.59999 6.93138 9.59999 6.60001V4.80001C9.59999 4.46864 9.86862 4.20001 10.2 4.20001Z" fill="currentColor"/>
</svg>
