<svg width="24" height="24" viewBox="0 0 24 24" fill="currentColor" xmlns="http://www.w3.org/2000/svg">
<path fill-rule="evenodd" clip-rule="evenodd" d="M12 8.4C10.0118 8.4 8.40002 10.0118 8.40002 12C8.40002 13.9882 10.0118 15.6 12 15.6C13.9882 15.6 15.6 13.9882 15.6 12C15.6 11.0452 15.2207 10.1295 14.5456 9.45442C13.8705 8.77928 12.9548 8.4 12 8.4ZM13.7688 13.3824C13.5095 13.9906 13.0597 14.2696 12.3108 14.2696C11.8321 14.2696 11.439 14.1385 11.1424 13.8499C10.8673 13.5822 10.6984 13.2376 10.6165 12.829H10.3668C10.1883 12.829 10.0716 12.7087 10.0716 12.5338C10.0716 12.3562 10.1856 12.2159 10.3668 12.2159H10.5712C10.5704 12.1478 10.5712 12.068 10.5712 12.0343C10.5712 11.9849 10.5686 11.9662 10.5712 11.8754H10.3668C10.1883 11.8754 10.0716 11.7325 10.0716 11.5575C10.0716 11.3825 10.1883 11.217 10.3668 11.217H10.6392C10.7325 10.7856 10.9092 10.4067 11.1843 10.1436C11.4795 9.8611 11.869 9.73051 12.3107 9.73051C13.0342 9.73051 13.5043 10.0224 13.748 10.6198C13.7726 10.6716 13.7849 10.7284 13.784 10.7858C13.784 10.9234 13.7013 11.0422 13.5572 11.102L13.5519 11.1148H13.5463C13.505 11.1375 13.4507 11.1284 13.3982 11.1284C13.2589 11.1284 13.1468 11.0348 13.0906 10.8995C12.9354 10.5265 12.7312 10.3853 12.3108 10.3853C11.8244 10.3853 11.4753 10.6493 11.3204 11.217H12.8643C13.0454 11.217 13.1521 11.378 13.1521 11.5521C13.1521 11.7304 13.0428 11.8754 12.8643 11.8754H11.2296C11.227 11.9662 11.2296 11.9813 11.2296 12.0343C11.2296 12.0665 11.2288 12.1478 11.2296 12.2159H12.5919C12.7757 12.2159 12.8735 12.3536 12.8735 12.5338C12.8735 12.706 12.7677 12.829 12.5919 12.829H11.2977C11.4371 13.3738 11.7955 13.6108 12.3108 13.6108C12.7558 13.6108 12.9511 13.4679 13.0848 13.1351L13.0852 13.1338L13.0858 13.1326C13.1497 12.9844 13.2645 12.9028 13.4089 12.9028C13.4501 12.9034 13.4909 12.9101 13.5301 12.9228C13.6867 12.9653 13.8001 13.1018 13.8001 13.2432C13.8007 13.2914 13.79 13.3391 13.7688 13.3824ZM6.30002 11.1C5.93601 11.1 5.60784 11.3193 5.46853 11.6556C5.32923 11.9919 5.40623 12.379 5.66363 12.6364C5.92103 12.8938 6.30813 12.9708 6.64444 12.8315C6.98075 12.6922 7.20002 12.364 7.20002 12C7.20002 11.5029 6.79708 11.1 6.30002 11.1ZM17.7 11.1C17.203 11.1 16.8 11.5029 16.8 12C16.8 12.4971 17.203 12.9 17.7 12.9C18.1971 12.9 18.6 12.4971 18.6 12C18.6 11.5029 18.1971 11.1 17.7 11.1ZM21.6 6H2.40002V18H21.6V6ZM20.4 15C19.4059 15 18.6 15.8059 18.6 16.8H5.40002C5.40002 15.8059 4.59414 15 3.60002 15V9C4.59414 9 5.40002 8.19411 5.40002 7.2H18.6C18.6 8.19411 19.4059 9 20.4 9V15Z" fill="currentColor"/>
</svg>
