<svg width="24" height="24" viewBox="0 0 24 24" fill="currentColor" xmlns="http://www.w3.org/2000/svg">
<path fill-rule="evenodd" clip-rule="evenodd" d="M7.7943 11.4214H4.1943C3.86293 11.4214 3.5943 11.69 3.5943 12.0214V18.0214C3.5943 18.3527 3.86293 18.6214 4.1943 18.6214H7.7943C8.12567 18.6214 8.3943 18.3527 8.3943 18.0214V12.0214C8.3943 11.69 8.12567 11.4214 7.7943 11.4214ZM13.7943 3.02136H10.1943C9.86293 3.02136 9.5943 3.28999 9.5943 3.62136V18.0214C9.5943 18.3527 9.86293 18.6214 10.1943 18.6214H13.7943C14.1257 18.6214 14.3943 18.3527 14.3943 18.0214V3.62136C14.3943 3.28999 14.1257 3.02136 13.7943 3.02136ZM19.7943 7.22136H16.1943C15.8629 7.22136 15.5943 7.48999 15.5943 7.82136V18.0214C15.5943 18.3527 15.8629 18.6214 16.1943 18.6214H19.7943C20.1257 18.6214 20.3943 18.3527 20.3943 18.0214V7.82136C20.3943 7.48999 20.1257 7.22136 19.7943 7.22136ZM20.9943 19.8214H2.9943C2.66293 19.8214 2.3943 20.09 2.3943 20.4214C2.3943 20.7527 2.66293 21.0214 2.9943 21.0214H20.9943C21.3257 21.0214 21.5943 20.7527 21.5943 20.4214C21.5943 20.09 21.3257 19.8214 20.9943 19.8214Z" fill="currentColor"/>
</svg>
