<svg width="24" height="24" viewBox="0 0 24 24" fill="currentColor" xmlns="http://www.w3.org/2000/svg">
<path fill-rule="evenodd" clip-rule="evenodd" d="M1.80005 4.8V16.8L4.20005 19.2H22.2001V4.8H1.80005ZM19.2001 8.4H15.6C15.3216 8.4 15 8.72225 15 9V17.4C15 17.6778 15.3216 18 15.6 18H20.4C20.6784 18 21 17.6778 21 17.4V10.128L19.2001 8.4ZM15.624 12.9706C15.6241 12.8816 15.6596 12.7962 15.7226 12.7333C15.7856 12.6705 15.871 12.6352 15.96 12.6353H16.968V13.9765H15.624V12.9706ZM15.624 14.3118H17.304V12.6353H18.6481V15.6529H15.624V14.3118ZM15.96 17.3294C15.871 17.3295 15.7856 17.2942 15.7226 17.2314C15.6596 17.1685 15.6241 17.0831 15.624 16.9941V15.9882H16.968V17.3294H15.96ZM17.304 17.3294V15.9882H18.6481V17.3294H17.304ZM20.328 16.9941C20.328 17.0831 20.2925 17.1685 20.2295 17.2314C20.1665 17.2942 20.0811 17.3295 19.9921 17.3294H18.984V15.9882H20.328V16.9941ZM20.328 15.6529H18.984V14.3118H20.328V15.6529ZM20.328 12.9706V13.9765H18.984V12.6353H19.9921C20.0811 12.6352 20.1665 12.6705 20.2295 12.7334C20.2925 12.7963 20.328 12.8816 20.328 12.9706ZM18.9181 10.6701C19.0336 10.6701 19.116 10.6429 19.1653 10.5887C19.2147 10.5344 19.2394 10.448 19.2395 10.3295C19.2406 10.1117 19.1847 9.8974 19.0775 9.70786C18.8602 9.31902 18.4488 9.07898 18.0034 9.08122C17.7731 9.07922 17.5468 9.14138 17.3499 9.26074C17.1539 9.37821 16.9926 9.54563 16.8826 9.74587C16.7695 9.94858 16.7109 10.1772 16.7125 10.4093C16.7125 10.7671 16.806 11.059 16.9929 11.2851C17.1203 11.4394 17.2823 11.5616 17.4657 11.6417C17.6513 11.723 17.8518 11.7645 18.0544 11.7635C18.3709 11.7635 18.6517 11.6939 18.8968 11.5549C19.0979 11.4407 19.1984 11.3136 19.1984 11.1738C19.1979 11.1209 19.1823 11.0692 19.1535 11.0248C19.1238 10.977 19.0821 10.9376 19.0326 10.9106C18.9852 10.8833 18.9316 10.8688 18.8769 10.8684C18.8273 10.8715 18.7788 10.8837 18.7336 10.9044L18.5193 11.0109C18.388 11.0775 18.2429 11.1123 18.0956 11.1125C17.9683 11.1136 17.8442 11.0722 17.743 10.9949C17.6458 10.928 17.5711 10.8198 17.5187 10.6703L18.9181 10.6701ZM17.4939 10.1607C17.5969 9.8485 17.7635 9.69238 17.9936 9.69238C18.2544 9.69238 18.4247 9.8485 18.5044 10.1607H17.4939Z" fill="currentColor"/>
</svg>
