<svg width="24" height="24" viewBox="0 0 24 24" fill="currentColor" xmlns="http://www.w3.org/2000/svg">
<path fill-rule="evenodd" clip-rule="evenodd" d="M21.5854 4.45796L19.0567 2.24543C18.3086 1.59081 17.1714 1.66662 16.5168 2.41477L15.024 4.12079C13.0678 3.42643 10.9322 3.42643 8.976 4.12079L7.4832 2.41477C6.82858 1.66662 5.69141 1.59081 4.94326 2.24543L2.41459 4.45796C1.66647 5.11259 1.59066 6.24974 2.24527 6.99788L3.83326 8.81279C2.2606 12.21 2.9532 16.2258 5.57299 18.9L4.3608 20.9998C4.14302 21.3713 4.14098 21.831 4.35546 22.2044C4.56994 22.5778 4.96804 22.8076 5.39866 22.8067C5.82927 22.8057 6.22637 22.5741 6.4392 22.1998L7.4856 20.3873C10.2781 22.004 13.7219 22.004 16.5144 20.3873L17.5608 22.1998C17.8944 22.7689 18.6248 22.962 19.196 22.6321C19.7673 22.3023 19.9652 21.5732 19.6392 20.9998L18.427 18.9C21.0468 16.2258 21.7394 12.21 20.1667 8.81279L21.7547 6.99798C22.0691 6.63871 22.2279 6.16925 22.1961 5.6929C22.1644 5.21655 21.9447 4.77233 21.5854 4.45796ZM12 19.7998C8.02351 19.7998 4.8 16.5763 4.8 12.5998C4.8 8.62333 8.02351 5.39999 12 5.39999C15.9765 5.39999 19.2 8.6235 19.2 12.6C19.2 16.5765 15.9765 19.7998 12 19.7998ZM15.6365 14.9635L12.864 12.1911V7.19999C12.864 6.70956 12.4664 6.31199 11.976 6.31199C11.4856 6.31199 11.088 6.70956 11.088 7.19999V12.6C11.0878 12.8679 11.2088 13.1215 11.4171 13.2899L14.3636 16.2363C14.7152 16.5874 15.2847 16.5872 15.6361 16.2359C15.9874 15.8846 15.9876 15.315 15.6365 14.9635Z" fill="currentColor"/>
</svg>
