<svg width="24" height="24" viewBox="0 0 24 24" fill="currentColor" xmlns="http://www.w3.org/2000/svg">
<path fill-rule="evenodd" clip-rule="evenodd" d="M17.4 18.15C17.3983 18.7292 16.9292 19.1983 16.35 19.2H5.85C5.27081 19.1983 4.8017 18.7292 4.8 18.15V7.65C4.8017 7.07081 5.27081 6.6017 5.85 6.6H12.3088L14.1088 4.8H5.16C3.972 4.8 3 5.772 3 6.96V18.84C3 20.028 3.972 21 5.16 21H17.04C18.228 21 19.2 20.028 19.2 18.84V9.89117L17.4 11.6912V18.15ZM19.6886 3H13.7875L15.756 4.9685L11.7876 8.93686C11.2709 9.45378 11.2709 10.2916 11.7876 10.8086L13.1914 12.2124C13.7084 12.7291 14.5462 12.7291 15.0631 12.2124L19.0315 8.244L21 10.2125V4.31136C21 3.58712 20.4129 3 19.6886 3Z" fill="currentColor"/>
</svg>
