<svg width="24" height="24" viewBox="0 0 24 24" fill="currentColor" xmlns="http://www.w3.org/2000/svg">
<path fill-rule="evenodd" clip-rule="evenodd" d="M5.6988 12.8688C5.69433 12.8875 5.69219 12.9067 5.69244 12.9259C5.69097 13.0094 5.71181 13.0917 5.75282 13.1644C5.79287 13.2341 5.84701 13.2947 5.9118 13.3423C5.9791 13.3919 6.0544 13.4295 6.13442 13.4536C6.21788 13.4791 6.30469 13.492 6.39196 13.4917C6.53891 13.4947 6.68463 13.4643 6.81808 13.4027C6.94193 13.3427 7.05394 13.2609 7.14876 13.1611L7.79112 13.6634C7.60292 13.869 7.37014 14.0289 7.11062 14.1306C6.85244 14.2274 6.57866 14.2759 6.30295 14.2736C6.0948 14.2755 5.88766 14.2444 5.68924 14.1814C5.50827 14.1243 5.34064 14.0314 5.19633 13.9081C5.05455 13.7848 4.94165 13.6318 4.86566 13.46C4.78216 13.2675 4.74095 13.0594 4.74482 12.8497C4.74271 12.5896 4.79131 12.3315 4.88791 12.09C4.97863 11.8621 5.11251 11.6538 5.2822 11.4766C5.45279 11.3007 5.65724 11.1612 5.88321 11.0665C6.12688 10.9649 6.38873 10.9141 6.65272 10.9172C6.8461 10.9149 7.03849 10.945 7.22193 11.0062C7.38537 11.0607 7.53582 11.1484 7.66392 11.2636C7.78918 11.3793 7.88696 11.5216 7.95009 11.68C8.02101 11.8622 8.05558 12.0566 8.05185 12.2521C8.05032 12.3489 8.04289 12.4455 8.0296 12.5413C8.01593 12.6516 7.99576 12.7609 7.9692 12.8688H5.6988ZM7.1424 12.2458C7.14659 12.2249 7.14871 12.2036 7.14873 12.1823V12.1187C7.15177 11.9861 7.09729 11.8586 6.99931 11.7691C6.89961 11.6759 6.75652 11.6293 6.57002 11.6292C6.46412 11.6275 6.35904 11.6481 6.2616 11.6896C6.17498 11.727 6.09456 11.7774 6.02308 11.839C5.89966 11.9462 5.81108 12.0879 5.76868 12.2458H7.1424ZM10.9997 10.8473C10.902 10.7253 10.7766 10.6283 10.634 10.5644C10.4982 10.498 10.3495 10.4621 10.1983 10.4595C10.1248 10.4597 10.0514 10.4661 9.97893 10.4787C9.90813 10.4902 9.84015 10.515 9.7786 10.5518C9.71958 10.5875 9.66868 10.6351 9.62918 10.6917C9.5866 10.7566 9.56546 10.8333 9.56875 10.911C9.56629 10.9778 9.58283 11.0439 9.61644 11.1017C9.65218 11.1564 9.70007 11.2021 9.75638 11.2352C9.82592 11.2772 9.8994 11.3124 9.97579 11.3401C10.0606 11.3719 10.156 11.4047 10.262 11.4386C10.4146 11.4895 10.5735 11.5456 10.7389 11.607C10.9004 11.6665 11.0525 11.7489 11.1905 11.8518C11.3268 11.9543 11.4414 12.0829 11.5275 12.2301C11.6166 12.3806 11.6611 12.5681 11.6611 12.7927C11.6611 13.0512 11.6134 13.2748 11.518 13.4633C11.4271 13.6464 11.2955 13.8063 11.1332 13.9306C10.9677 14.0557 10.7799 14.1484 10.5799 14.2039C10.371 14.2634 10.1548 14.2933 9.9376 14.2929C9.61839 14.2934 9.30169 14.2364 9.00273 14.1245C8.70166 14.0122 8.45151 13.8522 8.25228 13.6445L8.96455 12.9197C9.08401 13.0626 9.23252 13.1786 9.40022 13.2597C9.56597 13.3473 9.75017 13.3941 9.9376 13.3964C10.0167 13.3966 10.0956 13.3881 10.1728 13.371C10.2441 13.3562 10.3121 13.3282 10.3731 13.2884C10.4308 13.2498 10.4778 13.1973 10.5099 13.1358C10.5455 13.0649 10.563 12.9862 10.5608 12.9069C10.5631 12.83 10.5408 12.7544 10.4972 12.6909C10.448 12.6255 10.3864 12.5704 10.316 12.5288C10.2236 12.4738 10.1255 12.429 10.0234 12.3953C9.90677 12.3551 9.77428 12.3117 9.62594 12.265C9.48178 12.2184 9.34055 12.1632 9.20301 12.0997C9.06796 12.038 8.94348 11.9554 8.83413 11.8549C8.72402 11.7526 8.63538 11.6294 8.5734 11.4925C8.50762 11.3506 8.47476 11.1779 8.47483 10.9744C8.47483 10.7244 8.5257 10.5104 8.62744 10.3324C8.72613 10.1578 8.86312 10.0078 9.02812 9.89376C9.19814 9.77725 9.38769 9.69221 9.58776 9.64267C9.79349 9.58996 10.005 9.56326 10.2174 9.56318C10.4831 9.56524 10.7466 9.61253 10.9964 9.70303C11.2542 9.79209 11.4911 9.93269 11.6928 10.1163L10.9997 10.8473ZM12.2688 9.67764H13.3627V14.1783H12.2688V9.67764ZM18.1388 14.1783L18.1642 10.9935H18.1451L16.975 14.1783H16.2118L15.0734 10.9935H15.0544L15.0798 14.1783H14.0558V9.67766H15.6031L16.6283 12.5637H16.6538L17.6344 9.67766H19.2072V14.1783H18.1388ZM19.8234 17.736C19.8233 17.6388 19.8818 17.5511 19.9716 17.5139C20.0613 17.4766 20.1647 17.4971 20.2334 17.5658C20.3022 17.6345 20.3228 17.7379 20.2856 17.8277C20.2484 17.9174 20.1608 17.976 20.0636 17.976C19.9999 17.976 19.9388 17.9508 19.8938 17.9057C19.8487 17.8607 19.8234 17.7997 19.8234 17.736ZM19.0152 17.736C19.0151 17.6388 19.0736 17.5511 19.1633 17.5139C19.2531 17.4766 19.3565 17.4971 19.4252 17.5658C19.4939 17.6345 19.5145 17.7379 19.4774 17.8277C19.4402 17.9174 19.3526 17.976 19.2554 17.976C19.1228 17.976 19.0153 17.8686 19.0152 17.736ZM18.2069 17.736C18.2069 17.6388 18.2653 17.5511 18.3551 17.5139C18.4449 17.4766 18.5482 17.4971 18.617 17.5658C18.6857 17.6345 18.7063 17.7379 18.6691 17.8277C18.6319 17.9174 18.5443 17.976 18.4471 17.976C18.3835 17.976 18.3224 17.9508 18.2773 17.9057C18.2323 17.8607 18.2069 17.7997 18.2069 17.736ZM17.3987 17.736C17.3986 17.6388 17.4571 17.5511 17.5468 17.5139C17.6366 17.4766 17.74 17.4971 17.8087 17.5658C17.8774 17.6345 17.898 17.7378 17.8609 17.8276C17.8237 17.9174 17.7361 17.976 17.6389 17.976C17.5063 17.976 17.3988 17.8686 17.3987 17.736ZM16.5905 17.736C16.5904 17.6388 16.6488 17.5511 16.7386 17.5139C16.8284 17.4766 16.9317 17.4971 17.0005 17.5658C17.0692 17.6345 17.0898 17.7379 17.0526 17.8277C17.0154 17.9174 16.9278 17.976 16.8306 17.976C16.767 17.976 16.7059 17.9508 16.6608 17.9057C16.6158 17.8607 16.5905 17.7997 16.5905 17.736ZM15.7822 17.736C15.7821 17.6388 15.8406 17.5511 15.9303 17.5139C16.0201 17.4766 16.1235 17.4971 16.1922 17.5658C16.261 17.6345 16.2815 17.7379 16.2444 17.8277C16.2072 17.9174 16.1196 17.976 16.0224 17.976C15.9587 17.976 15.8976 17.9508 15.8526 17.9057C15.8075 17.8607 15.7822 17.7997 15.7822 17.736ZM14.9739 17.736C14.9738 17.6388 15.0323 17.5511 15.1221 17.5139C15.2118 17.4766 15.3152 17.4971 15.3839 17.5658C15.4527 17.6345 15.4733 17.7378 15.4361 17.8276C15.3989 17.9174 15.3113 17.976 15.2141 17.976C15.0815 17.976 14.974 17.8686 14.9739 17.736ZM14.1657 17.736C14.1656 17.6388 14.2241 17.5511 14.3138 17.5139C14.4036 17.4766 14.5069 17.4971 14.5757 17.5658C14.6444 17.6345 14.665 17.7378 14.6279 17.8276C14.5907 17.9174 14.5031 17.976 14.4059 17.976C14.2733 17.976 14.1658 17.8686 14.1657 17.736ZM13.3575 17.736C13.3574 17.6388 13.4158 17.5511 13.5056 17.5139C13.5954 17.4766 13.6987 17.4971 13.7675 17.5658C13.8362 17.6345 13.8568 17.7379 13.8196 17.8277C13.7824 17.9174 13.6948 17.976 13.5977 17.976C13.534 17.976 13.4729 17.9508 13.4278 17.9057C13.3828 17.8607 13.3575 17.7997 13.3575 17.736ZM12.5492 17.736C12.5491 17.6388 12.6076 17.5511 12.6973 17.5139C12.7871 17.4766 12.8904 17.4971 12.9592 17.5658C13.0279 17.6345 13.0485 17.7379 13.0113 17.8277C12.9742 17.9174 12.8866 17.976 12.7894 17.976C12.7257 17.976 12.6646 17.9508 12.6196 17.9057C12.5745 17.8607 12.5492 17.7997 12.5492 17.736ZM11.7408 17.736C11.7407 17.6388 11.7992 17.5511 11.8889 17.5139C11.9787 17.4766 12.082 17.4971 12.1508 17.5658C12.2195 17.6345 12.2401 17.7378 12.203 17.8276C12.1658 17.9174 12.0782 17.976 11.981 17.976C11.8484 17.976 11.7409 17.8686 11.7408 17.736ZM10.9325 17.736C10.9325 17.6388 10.9909 17.5511 11.0807 17.5139C11.1704 17.4766 11.2738 17.4971 11.3425 17.5658C11.4113 17.6345 11.4319 17.7378 11.3947 17.8276C11.3575 17.9174 11.2699 17.976 11.1728 17.976C11.0402 17.976 10.9326 17.8686 10.9325 17.736ZM10.1243 17.736C10.1242 17.6388 10.1827 17.5511 10.2724 17.5139C10.3622 17.4766 10.4656 17.4971 10.5343 17.5658C10.6031 17.6345 10.6236 17.7379 10.5865 17.8277C10.5493 17.9174 10.4617 17.976 10.3645 17.976C10.3008 17.976 10.2397 17.9508 10.1947 17.9057C10.1496 17.8607 10.1243 17.7997 10.1243 17.736ZM9.31605 17.736C9.31597 17.6388 9.37444 17.5511 9.4642 17.5139C9.55396 17.4766 9.65731 17.4971 9.72606 17.5658C9.7948 17.6345 9.81539 17.7379 9.77821 17.8277C9.74104 17.9174 9.65342 17.976 9.55624 17.976C9.49256 17.976 9.43146 17.9508 9.38641 17.9057C9.34136 17.8607 9.31605 17.7997 9.31605 17.736ZM8.508 17.736C8.50791 17.6388 8.5664 17.5511 8.65619 17.5139C8.74597 17.4766 8.84934 17.4972 8.91807 17.5659C8.9868 17.6346 9.00734 17.738 8.9701 17.8278C8.93287 17.9176 8.84519 17.9761 8.748 17.976C8.61545 17.976 8.508 17.8685 8.508 17.736ZM7.69975 17.736C7.69966 17.6388 7.75813 17.5511 7.84789 17.5139C7.93764 17.4766 8.041 17.4971 8.10975 17.5658C8.17849 17.6345 8.19908 17.7378 8.16192 17.8276C8.12475 17.9174 8.03714 17.976 7.93996 17.976C7.80736 17.976 7.69983 17.8686 7.69975 17.736ZM21.9358 8.24006C21.8033 8.23996 21.6959 8.13246 21.696 7.99993C21.696 7.86741 21.8035 7.76003 21.936 7.76006C22.0686 7.7601 22.176 7.86754 22.176 8.00006C22.1759 8.13265 22.0684 8.24009 21.9358 8.24006ZM21.9358 9.02309C21.8033 9.02298 21.6959 8.91548 21.696 8.78296C21.696 8.65043 21.8035 8.54305 21.936 8.54308C22.0686 8.54312 22.176 8.65056 22.176 8.78308C22.1759 8.91567 22.0684 9.0231 21.9358 9.02309ZM21.9358 9.80611C21.8033 9.806 21.6959 9.6985 21.696 9.56598C21.696 9.43346 21.8035 9.32607 21.936 9.32611C22.0686 9.32614 22.176 9.43359 22.176 9.56611C22.1759 9.69869 22.0684 9.80612 21.9358 9.80611ZM21.9358 10.5891C21.8033 10.589 21.6959 10.4815 21.696 10.349C21.696 10.2164 21.8035 10.109 21.936 10.1091C22.0686 10.1091 22.176 10.2166 22.176 10.3491C22.1759 10.4817 22.0684 10.5891 21.9358 10.5891ZM21.9358 11.3721C21.8033 11.372 21.6959 11.2645 21.696 11.132C21.696 10.9995 21.8035 10.8921 21.936 10.8921C22.0686 10.8921 22.176 10.9996 22.176 11.1321C22.1759 11.2647 22.0684 11.3721 21.9358 11.3721ZM21.9358 12.1551C21.8033 12.155 21.6959 12.0475 21.696 11.915C21.696 11.7825 21.8035 11.6751 21.936 11.6751C22.0686 11.6751 22.176 11.7826 22.176 11.9151C22.1759 12.0477 22.0684 12.1551 21.9358 12.1551ZM21.9358 12.9381C21.8033 12.938 21.6959 12.8305 21.696 12.698C21.696 12.5655 21.8035 12.4581 21.936 12.4581C22.0686 12.4582 22.176 12.5656 22.176 12.6981C22.1759 12.8307 22.0684 12.9381 21.9358 12.9381ZM21.9358 13.7212C21.8033 13.7211 21.6959 13.6136 21.696 13.481C21.696 13.3485 21.8035 13.2411 21.936 13.2412C22.0686 13.2412 22.176 13.3486 22.176 13.4812C22.1759 13.6137 22.0684 13.7212 21.9358 13.7212ZM21.9358 14.5041C21.8033 14.504 21.6959 14.3965 21.696 14.264C21.696 14.1315 21.8035 14.0241 21.936 14.0241C22.0686 14.0242 22.176 14.1316 22.176 14.2641C22.1759 14.3967 22.0684 14.5042 21.9358 14.5041ZM21.9358 15.2871C21.8033 15.287 21.6959 15.1795 21.696 15.047C21.696 14.9145 21.8035 14.8071 21.936 14.8071C22.0686 14.8072 22.176 14.9146 22.176 15.0471C22.1759 15.1797 22.0684 15.2872 21.9358 15.2871ZM21.9358 16.0702C21.8033 16.0701 21.6959 15.9626 21.696 15.83C21.696 15.6975 21.8035 15.5901 21.936 15.5902C22.0686 15.5902 22.176 15.6976 22.176 15.8302C22.1759 15.9627 22.0684 16.0702 21.9358 16.0702ZM2.052 9.05098C1.93739 9.05161 1.8383 8.97121 1.81532 8.85893C1.79234 8.74665 1.85187 8.63378 1.95751 8.58934C2.06315 8.5449 2.18546 8.58127 2.24966 8.67621C2.31385 8.77115 2.30203 8.89822 2.22144 8.97969C2.17665 9.025 2.1157 9.05064 2.052 9.05098ZM2.55331 8.49101C2.4208 8.49163 2.31286 8.38473 2.31218 8.25222C2.31152 8.11971 2.41837 8.01173 2.55088 8.01101C2.68339 8.01029 2.79141 8.1171 2.79218 8.24961C2.79287 8.38223 2.68593 8.4903 2.55331 8.49101ZM3.08899 7.9589C2.95648 7.95952 2.84854 7.85263 2.84786 7.72012C2.8472 7.58761 2.95405 7.47963 3.08656 7.4789C3.21907 7.47819 3.32709 7.585 3.32786 7.71751C3.32823 7.78121 3.30326 7.84244 3.25846 7.88772C3.21365 7.93299 3.15269 7.9586 3.08899 7.9589ZM3.62467 7.42685C3.49216 7.42747 3.38422 7.32057 3.38354 7.18806C3.38288 7.05555 3.48973 6.94757 3.62224 6.94685C3.75475 6.94613 3.86277 7.05294 3.86354 7.18545C3.86388 7.24914 3.8389 7.31035 3.7941 7.35563C3.7493 7.4009 3.68836 7.42651 3.62467 7.42685ZM4.16037 6.89474C4.02786 6.89536 3.91992 6.78847 3.91925 6.65596C3.91858 6.52345 4.02543 6.41547 4.15794 6.41474C4.29046 6.41403 4.39847 6.52084 4.39925 6.65335C4.39992 6.78596 4.29299 6.89403 4.16037 6.89474ZM2.01624 9.80611C1.88371 9.806 1.77636 9.6985 1.77643 9.56598C1.7765 9.43346 1.88397 9.32607 2.01649 9.32611C2.14902 9.32614 2.25643 9.43359 2.25643 9.56611C2.25632 9.69869 2.14882 9.80611 2.01624 9.80611ZM2.01624 10.5891C1.88371 10.589 1.77636 10.4815 1.77643 10.349C1.7765 10.2164 1.88397 10.109 2.01649 10.1091C2.14902 10.1091 2.25643 10.2166 2.25643 10.3491C2.25635 10.4817 2.14883 10.5891 2.01624 10.5891ZM2.01624 11.3721C1.88371 11.372 1.77636 11.2645 1.77643 11.132C1.7765 10.9995 1.88397 10.8921 2.01649 10.8921C2.14902 10.8921 2.25643 10.9996 2.25643 11.1321C2.25634 11.2647 2.14882 11.3721 2.01624 11.3721ZM2.01624 12.1551C1.88371 12.155 1.77636 12.0475 1.77643 11.915C1.7765 11.7825 1.88397 11.6751 2.01649 11.6751C2.14902 11.6751 2.25643 11.7826 2.25643 11.9151C2.25635 12.0477 2.14883 12.1551 2.01624 12.1551ZM2.01624 12.9381C1.88371 12.938 1.77636 12.8305 1.77643 12.698C1.7765 12.5655 1.88397 12.4581 2.01649 12.4581C2.14902 12.4582 2.25643 12.5656 2.25643 12.6981C2.25632 12.8307 2.14882 12.9381 2.01624 12.9381ZM2.01624 13.7212C1.88371 13.7211 1.77636 13.6136 1.77643 13.481C1.7765 13.3485 1.88397 13.2411 2.01649 13.2412C2.14902 13.2412 2.25643 13.3486 2.25643 13.4812C2.25632 13.6137 2.14882 13.7212 2.01624 13.7212ZM2.01624 14.5041C1.88371 14.504 1.77636 14.3965 1.77643 14.264C1.7765 14.1315 1.88397 14.0241 2.01649 14.0241C2.14902 14.0242 2.25643 14.1316 2.25643 14.2641C2.25635 14.3967 2.14883 14.5042 2.01624 14.5041ZM2.01624 15.2871C1.88371 15.287 1.77636 15.1795 1.77643 15.047C1.7765 14.9145 1.88397 14.8071 2.01649 14.8071C2.14902 14.8072 2.25643 14.9146 2.25643 15.0471C2.25635 15.1797 2.14883 15.2872 2.01624 15.2871ZM2.01624 16.0702C1.88371 16.0701 1.77636 15.9626 1.77643 15.83C1.7765 15.6975 1.88397 15.5901 2.01649 15.5902C2.14902 15.5902 2.25643 15.6976 2.25643 15.8302C2.25635 15.9627 2.14883 16.0702 2.01624 16.0702ZM6.8914 17.736C6.89133 17.6388 6.9498 17.5512 7.03955 17.5139C7.12929 17.4767 7.23264 17.4972 7.30137 17.5659C7.3701 17.6346 7.39069 17.7379 7.35352 17.8277C7.31636 17.9174 7.22876 17.976 7.1316 17.976C7.06791 17.976 7.00682 17.9508 6.96177 17.9057C6.91672 17.8607 6.8914 17.7997 6.8914 17.736ZM6.08313 17.736C6.08305 17.6388 6.14152 17.5511 6.23128 17.5139C6.32104 17.4766 6.42439 17.4971 6.49314 17.5658C6.56188 17.6345 6.58247 17.7379 6.54529 17.8277C6.50812 17.9174 6.4205 17.976 6.32332 17.976C6.25964 17.976 6.19854 17.9508 6.15349 17.9057C6.10844 17.8607 6.08313 17.7997 6.08313 17.736ZM5.27488 17.736C5.2748 17.6388 5.33326 17.5512 5.423 17.5139C5.51275 17.4766 5.61609 17.4971 5.68485 17.5658C5.7536 17.6345 5.77422 17.7378 5.73708 17.8276C5.69994 17.9174 5.61237 17.9759 5.5152 17.976C5.45151 17.976 5.39042 17.9508 5.34537 17.9057C5.30032 17.8607 5.27488 17.7997 5.27488 17.736ZM4.46673 17.736C4.46665 17.6388 4.52512 17.5511 4.61487 17.5139C4.70463 17.4766 4.80798 17.4971 4.87673 17.5658C4.94548 17.6345 4.96607 17.7378 4.9289 17.8276C4.89173 17.9174 4.80413 17.976 4.70695 17.976C4.57434 17.976 4.4668 17.8686 4.46673 17.736ZM3.65848 17.736C3.6584 17.6388 3.71687 17.5511 3.80662 17.5139C3.89638 17.4766 3.99974 17.4971 4.06848 17.5658C4.13723 17.6345 4.15782 17.7378 4.12065 17.8276C4.08348 17.9174 3.99588 17.976 3.8987 17.976C3.7661 17.976 3.65856 17.8686 3.65848 17.736ZM19.8234 6.12026C19.8233 6.02308 19.8818 5.93542 19.9716 5.89817C20.0613 5.86093 20.1647 5.88143 20.2334 5.95012C20.3022 6.01881 20.3228 6.12215 20.2856 6.21194C20.2484 6.30173 20.1608 6.36027 20.0636 6.36026C19.931 6.36029 19.8235 6.25285 19.8234 6.12026ZM19.0151 6.12026C19.0151 6.02308 19.0735 5.93542 19.1633 5.89817C19.2531 5.86093 19.3564 5.88143 19.4252 5.95012C19.4939 6.01881 19.5145 6.12215 19.4773 6.21194C19.4401 6.30173 19.3525 6.36027 19.2553 6.36026C19.1228 6.36027 19.0152 6.25285 19.0151 6.12026ZM18.2069 6.12026C18.2068 6.02308 18.2653 5.93542 18.355 5.89817C18.4448 5.86093 18.5482 5.88143 18.6169 5.95012C18.6857 6.01881 18.7062 6.12215 18.6691 6.21194C18.6319 6.30173 18.5443 6.36027 18.4471 6.36026C18.3145 6.36029 18.207 6.25285 18.2069 6.12026ZM17.3987 6.12026C17.3986 6.02308 17.457 5.93543 17.5468 5.89818C17.6365 5.86093 17.7399 5.88143 17.8087 5.95011C17.8774 6.01879 17.898 6.12213 17.8608 6.21192C17.8237 6.30171 17.736 6.36026 17.6389 6.36026C17.5063 6.3603 17.3987 6.25286 17.3987 6.12026ZM16.5904 6.12026C16.5903 6.02308 16.6488 5.93542 16.7386 5.89817C16.8283 5.86093 16.9317 5.88143 17.0004 5.95012C17.0692 6.01881 17.0897 6.12215 17.0526 6.21194C17.0154 6.30173 16.9278 6.36027 16.8306 6.36026C16.698 6.36029 16.5905 6.25285 16.5904 6.12026ZM15.7822 6.12026C15.7821 6.02308 15.8405 5.93542 15.9303 5.89817C16.0201 5.86093 16.1234 5.88143 16.1922 5.95012C16.2609 6.01881 16.2815 6.12215 16.2443 6.21194C16.2071 6.30173 16.1195 6.36027 16.0223 6.36026C15.8898 6.36029 15.7822 6.25285 15.7822 6.12026ZM14.9739 6.12026C14.9738 6.02308 15.0323 5.93543 15.122 5.89818C15.2118 5.86093 15.3151 5.88143 15.3839 5.95011C15.4526 6.01879 15.4732 6.12213 15.4361 6.21192C15.3989 6.30171 15.3113 6.36026 15.2141 6.36026C15.0815 6.36027 14.974 6.25285 14.9739 6.12026ZM14.1656 6.12026C14.1655 6.02308 14.224 5.93543 14.3138 5.89818C14.4035 5.86093 14.5069 5.88143 14.5756 5.95011C14.6444 6.01879 14.665 6.12213 14.6278 6.21192C14.5906 6.30171 14.503 6.36026 14.4059 6.36026C14.2733 6.3603 14.1657 6.25286 14.1656 6.12026ZM13.3574 6.12026C13.3573 6.02308 13.4158 5.93542 13.5056 5.89817C13.5953 5.86093 13.6987 5.88143 13.7674 5.95012C13.8362 6.01881 13.8567 6.12215 13.8196 6.21194C13.7824 6.30173 13.6948 6.36027 13.5976 6.36026C13.465 6.36029 13.3575 6.25285 13.3574 6.12026ZM12.5491 6.12026C12.5491 6.02308 12.6075 5.93542 12.6973 5.89817C12.787 5.86093 12.8904 5.88143 12.9591 5.95012C13.0279 6.01881 13.0485 6.12215 13.0113 6.21194C12.9741 6.30173 12.8865 6.36027 12.7893 6.36026C12.6567 6.36029 12.5492 6.25285 12.5491 6.12026ZM11.7409 6.12026C11.7408 6.02308 11.7993 5.93543 11.889 5.89818C11.9788 5.86093 12.0821 5.88143 12.1509 5.95011C12.2196 6.01879 12.2402 6.12213 12.2031 6.21192C12.1659 6.30171 12.0783 6.36026 11.9811 6.36026C11.8485 6.3603 11.741 6.25286 11.7409 6.12026ZM10.9326 6.12026C10.9326 6.02308 10.991 5.93543 11.0808 5.89818C11.1705 5.86093 11.2739 5.88143 11.3426 5.95011C11.4114 6.01879 11.432 6.12213 11.3948 6.21192C11.3576 6.30171 11.27 6.36026 11.1729 6.36026C11.0403 6.3603 10.9327 6.25286 10.9326 6.12026ZM10.1244 6.12026C10.1243 6.02308 10.1828 5.93542 10.2725 5.89817C10.3623 5.86093 10.4657 5.88143 10.5344 5.95012C10.6031 6.01881 10.6237 6.12215 10.5866 6.21194C10.5494 6.30173 10.4618 6.36027 10.3646 6.36026C10.232 6.36029 10.1245 6.25285 10.1244 6.12026ZM9.31615 6.12026C9.31606 6.02308 9.37454 5.93542 9.46429 5.89817C9.55405 5.86093 9.65741 5.88143 9.72615 5.95012C9.7949 6.01881 9.81549 6.12215 9.77831 6.21194C9.74113 6.30173 9.65352 6.36027 9.55634 6.36026C9.42375 6.36029 9.31623 6.25285 9.31615 6.12026ZM8.50788 6.12026C8.50779 6.02308 8.56626 5.93542 8.65602 5.89817C8.74578 5.86093 8.84914 5.88143 8.91788 5.95012C8.98663 6.01881 9.00721 6.12215 8.97004 6.21194C8.93286 6.30173 8.84525 6.36027 8.74807 6.36026C8.61548 6.36029 8.50796 6.25285 8.50788 6.12026ZM7.69963 6.12026C7.69954 6.02308 7.75801 5.93543 7.84777 5.89818C7.93752 5.86093 8.04088 5.88143 8.10963 5.95011C8.17837 6.01879 8.19896 6.12213 8.1618 6.21192C8.12463 6.30171 8.03702 6.36026 7.93984 6.36026C7.80725 6.36029 7.69972 6.25286 7.69963 6.12026ZM6.8914 6.12026C6.89133 6.02309 6.9498 5.93545 7.03955 5.89822C7.12929 5.86098 7.23264 5.88148 7.30137 5.95016C7.3701 6.01884 7.39069 6.12216 7.35352 6.21194C7.31636 6.30172 7.22876 6.36026 7.1316 6.36026C6.99901 6.36029 6.89148 6.25285 6.8914 6.12026ZM6.08313 6.12026C6.08305 6.02308 6.14152 5.93542 6.23128 5.89817C6.32104 5.86093 6.42439 5.88143 6.49314 5.95012C6.56188 6.01881 6.58247 6.12215 6.54529 6.21194C6.50812 6.30173 6.4205 6.36027 6.32332 6.36026C6.19073 6.36029 6.08321 6.25285 6.08313 6.12026ZM5.27488 6.12026C5.2748 6.02308 5.33327 5.93542 5.42303 5.89817C5.51279 5.86093 5.61615 5.88143 5.68489 5.95012C5.75363 6.01881 5.77422 6.12215 5.73704 6.21194C5.69987 6.30173 5.61226 6.36027 5.51508 6.36026C5.38249 6.36029 5.27496 6.25285 5.27488 6.12026ZM4.4784 6.15465C4.47831 6.05747 4.53678 5.96982 4.62654 5.93257C4.71629 5.89532 4.81965 5.91582 4.88839 5.9845C4.95714 6.05319 4.97773 6.15652 4.94056 6.24631C4.9034 6.3361 4.81579 6.39465 4.71861 6.39465C4.58601 6.39471 4.47846 6.28726 4.4784 6.15465ZM20.6316 17.7214C20.6316 17.6242 20.69 17.5365 20.7798 17.4993C20.8695 17.462 20.9729 17.4825 21.0416 17.5512C21.1104 17.6199 21.131 17.7233 21.0938 17.813C21.0566 17.9028 20.969 17.9614 20.8719 17.9614C20.7393 17.9614 20.6317 17.854 20.6316 17.7214ZM21.3595 17.3421C21.3595 17.2449 21.4179 17.1572 21.5077 17.12C21.5974 17.0827 21.7008 17.1032 21.7695 17.1719C21.8383 17.2406 21.8589 17.344 21.8217 17.4337C21.7845 17.5235 21.6969 17.5821 21.5997 17.5821C21.4671 17.5821 21.3596 17.4747 21.3595 17.3421ZM21.6863 16.6131C21.6862 16.5159 21.7446 16.4282 21.8344 16.391C21.9242 16.3537 22.0275 16.3742 22.0963 16.4429C22.165 16.5116 22.1856 16.615 22.1484 16.7047C22.1112 16.7945 22.0236 16.8531 21.9264 16.8531C21.7939 16.8531 21.6863 16.7457 21.6863 16.6131ZM20.6316 17.7214C20.6316 17.6242 20.69 17.5365 20.7798 17.4993C20.8695 17.462 20.9729 17.4825 21.0416 17.5512C21.1104 17.6199 21.131 17.7233 21.0938 17.813C21.0566 17.9028 20.969 17.9614 20.8719 17.9614C20.7393 17.9614 20.6317 17.854 20.6316 17.7214ZM21.3595 17.3421C21.3595 17.2449 21.4179 17.1572 21.5077 17.12C21.5974 17.0827 21.7008 17.1032 21.7695 17.1719C21.8383 17.2406 21.8589 17.344 21.8217 17.4337C21.7845 17.5235 21.6969 17.5821 21.5997 17.5821C21.4671 17.5821 21.3596 17.4747 21.3595 17.3421ZM21.6863 16.6131C21.6862 16.5159 21.7446 16.4282 21.8344 16.391C21.9242 16.3537 22.0275 16.3742 22.0963 16.4429C22.165 16.5116 22.1856 16.615 22.1484 16.7047C22.1112 16.7945 22.0236 16.8531 21.9264 16.8531C21.7939 16.8531 21.6863 16.7457 21.6863 16.6131ZM20.6316 6.11997C20.6316 6.21715 20.69 6.30481 20.7798 6.34206C20.8695 6.37931 20.9729 6.35881 21.0416 6.29012C21.1104 6.22144 21.131 6.1181 21.0938 6.02831C21.0566 5.93852 20.969 5.87997 20.8719 5.87997C20.7393 5.87993 20.6317 5.98737 20.6316 6.11997ZM21.3595 6.49932C21.3595 6.5965 21.4179 6.68416 21.5077 6.7214C21.5974 6.75865 21.7008 6.73815 21.7695 6.66946C21.8383 6.60077 21.8589 6.49743 21.8217 6.40764C21.7845 6.31785 21.6969 6.25932 21.5997 6.25932C21.4671 6.25929 21.3596 6.36673 21.3595 6.49932ZM21.6863 7.22824C21.6862 7.32542 21.7446 7.41308 21.8344 7.45033C21.9242 7.48758 22.0275 7.46708 22.0963 7.39839C22.165 7.3297 22.1856 7.22636 22.1484 7.13657C22.1112 7.04678 22.0236 6.98824 21.9264 6.98824C21.8628 6.98819 21.8017 7.01346 21.7566 7.05847C21.7116 7.10349 21.6863 7.16456 21.6863 7.22824ZM3.3144 17.7219C3.31448 17.6247 3.25601 17.5371 3.16625 17.4998C3.07649 17.4626 2.97313 17.4831 2.90439 17.5518C2.83565 17.6205 2.81506 17.7238 2.85224 17.8136C2.88941 17.9034 2.97702 17.9619 3.0742 17.9619C3.13789 17.962 3.19898 17.9367 3.24403 17.8917C3.28908 17.8467 3.3144 17.7856 3.3144 17.7219ZM2.58652 17.3427C2.58661 17.2455 2.52814 17.1579 2.43838 17.1206C2.34863 17.0834 2.24527 17.1039 2.17653 17.1726C2.10778 17.2412 2.08719 17.3446 2.12436 17.4344C2.16153 17.5242 2.24913 17.5827 2.34631 17.5827C2.47891 17.5827 2.58644 17.4753 2.58652 17.3427ZM2.25976 16.6136C2.25985 16.5164 2.20138 16.4288 2.11162 16.3915C2.02187 16.3543 1.91851 16.3748 1.84977 16.4434C1.78102 16.5121 1.76043 16.6155 1.7976 16.7052C1.83477 16.795 1.92237 16.8536 2.01955 16.8536C2.15214 16.8536 2.25967 16.7462 2.25976 16.6136Z" fill="currentColor"/>
</svg>
