<svg width="24" height="24" viewBox="0 0 24 24" fill="currentColor" xmlns="http://www.w3.org/2000/svg">
<path fill-rule="evenodd" clip-rule="evenodd" d="M15 1.80005V5.40005C15 6.06279 15.4776 6.60005 16.0667 6.60005H19.8L15 1.80005ZM16.2 7.80005C14.8745 7.80005 13.8 6.72553 13.8 5.40005V1.80005H11.04V2.76005H12V3.72005H11.04V4.68005H12V5.64005H11.04V6.60005H12V7.56005H11.04V8.52005H12V9.48005H11.04V10.44H12V13.32C12 14.1153 11.3553 14.76 10.56 14.76C9.76472 14.76 9.12001 14.1153 9.12001 13.32V10.44H10.08V9.48005H9.12001V8.52005H10.08V7.56005H9.12001V6.60005H10.08V5.64005H9.12001V4.68005H10.08V3.72005H9.12001V2.76005H10.08V1.80005H4.20001V20.9946V21C4.20001 21.6628 4.73727 22.2001 5.40001 22.2001H19.8V7.80005H16.2ZM9.72001 13.32C9.72001 13.784 10.0961 14.16 10.56 14.16C11.0239 14.16 11.4 13.784 11.4 13.32C11.4 12.8561 11.0239 12.48 10.56 12.48C10.0961 12.48 9.72001 12.8561 9.72001 13.32Z" fill="currentColor"/>
</svg>
