<svg width="24" height="24" viewBox="0 0 24 24" fill="currentColor" xmlns="http://www.w3.org/2000/svg">
<path fill-rule="evenodd" clip-rule="evenodd" d="M14.6 9.2V8.6H9.8V9.2H8.29208V10.7818C8.29221 11.7089 8.94349 12.5083 9.85136 12.6958C10.0403 13.5877 10.7175 14.2958 11.6 14.5244V15.2C11.4409 15.1999 11.2882 15.2631 11.1757 15.3757C11.0631 15.4882 10.9999 15.6409 11 15.8C10.6686 15.8 10.4 16.0686 10.4 16.4H14C14 16.0686 13.7314 15.8 13.4 15.8C13.4 15.4686 13.1314 15.2 12.8 15.2V14.5244C13.6825 14.2958 14.3597 13.5877 14.5486 12.6958C15.4565 12.5083 16.1078 11.7089 16.1079 10.7818V9.2H14.6ZM9.8 12.0598C9.25682 11.8697 8.89286 11.3573 8.89208 10.7818V9.8H9.8V12.0598ZM15.5079 10.7818C15.5071 11.3573 15.1432 11.8697 14.6 12.0598V9.8H15.5079V10.7818ZM14.6 9.2V8.6H9.8V9.2H8.29208V10.7818C8.29221 11.7089 8.94349 12.5083 9.85136 12.6958C10.0403 13.5877 10.7175 14.2958 11.6 14.5244V15.2C11.4409 15.1999 11.2882 15.2631 11.1757 15.3757C11.0631 15.4882 10.9999 15.6409 11 15.8C10.6686 15.8 10.4 16.0686 10.4 16.4H14C14 16.0686 13.7314 15.8 13.4 15.8C13.4 15.4686 13.1314 15.2 12.8 15.2V14.5244C13.6825 14.2958 14.3597 13.5877 14.5486 12.6958C15.4565 12.5083 16.1078 11.7089 16.1079 10.7818V9.2H14.6ZM9.8 12.0598C9.25682 11.8697 8.89286 11.3573 8.89208 10.7818V9.8H9.8V12.0598ZM15.5079 10.7818C15.5071 11.3573 15.1432 11.8697 14.6 12.0598V9.8H15.5079V10.7818ZM14.6 9.2V8.6H9.8V9.2H8.29208V10.7818C8.29221 11.7089 8.94349 12.5083 9.85136 12.6958C10.0403 13.5877 10.7175 14.2958 11.6 14.5244V15.2C11.4409 15.1999 11.2882 15.2631 11.1757 15.3757C11.0631 15.4882 10.9999 15.6409 11 15.8C10.6686 15.8 10.4 16.0686 10.4 16.4H14C14 16.0686 13.7314 15.8 13.4 15.8C13.4 15.4686 13.1314 15.2 12.8 15.2V14.5244C13.6825 14.2958 14.3597 13.5877 14.5486 12.6958C15.4565 12.5083 16.1078 11.7089 16.1079 10.7818V9.2H14.6ZM9.8 12.0598C9.25682 11.8697 8.89286 11.3573 8.89208 10.7818V9.8H9.8V12.0598ZM15.5079 10.7818C15.5071 11.3573 15.1432 11.8697 14.6 12.0598V9.8H15.5079V10.7818ZM12.1998 2C6.56672 2 2 6.56672 2 12.2C2 17.8333 6.56672 22.4 12.1998 22.4C17.8333 22.4 22.4 17.833 22.4 12.2C22.4 6.56696 17.8333 2 12.1998 2ZM19.1293 17.9917L18.8574 16.2548L15.7021 17.0622L13.9803 19.7962L15.542 20.607C13.3842 21.4665 10.9782 21.4615 8.82392 20.593L10.3916 19.7977L8.64872 17.0461L5.51624 16.2536L5.23472 17.9473C3.91645 16.3407 3.19737 14.326 3.20047 12.2478C3.20047 12.0471 3.20704 11.8481 3.22016 11.6506L4.406 12.8408L6.48416 10.333L6.27008 7.10888L4.64624 7.35344C5.86758 5.4696 7.74804 4.10941 9.91952 3.53912L9.17264 4.99856L12.2 6.2L15.2 5L14.4678 3.53552C16.6533 4.10593 18.5451 5.4762 19.7684 7.37504L18.1042 7.1084L17.8969 10.359L19.9652 12.8413L21.1803 11.6446C21.1935 11.8441 21.2003 12.0451 21.2003 12.2478C21.2034 14.3458 20.4705 16.3784 19.1293 17.9917Z" fill="currentColor"/>
</svg>
