<svg width="24" height="24" viewBox="0 0 24 24" fill="currentColor" xmlns="http://www.w3.org/2000/svg">
<path fill-rule="evenodd" clip-rule="evenodd" d="M20.3957 10.1607C20.2715 10.1607 20.1475 10.1735 20.0259 10.1989L17.5539 5.91734C18.029 5.37072 18.1302 4.59254 17.8107 3.94256C17.4912 3.29259 16.8132 2.89746 16.0901 2.93985C15.3671 2.98224 14.7399 3.45388 14.4985 4.13674H9.49291C9.251 3.45142 8.6207 2.97881 7.89504 2.93863C7.16939 2.89846 6.49078 3.29861 6.1747 3.95304C5.85862 4.60747 5.9671 5.38778 6.44971 5.93117L3.98325 10.203C3.27793 10.0476 2.54799 10.3287 2.12922 10.9172C1.71046 11.5056 1.68398 12.2874 2.06196 12.9028C2.43995 13.5183 3.1492 13.8482 3.86342 13.7408L6.40336 18.14C5.95077 18.6931 5.86824 19.4615 6.19306 20.0981C6.51789 20.7347 7.18853 21.1188 7.90195 21.0769C8.61537 21.035 9.23643 20.575 9.48448 19.9047H14.507C14.754 20.5731 15.3721 21.0328 16.0832 21.0772C16.7944 21.1216 17.4648 20.7422 17.793 20.1097C18.1212 19.4773 18.0454 18.7107 17.5997 18.1548L20.1467 13.7432C20.8134 13.837 21.4768 13.5508 21.8661 13.0014C22.2553 12.452 22.3054 11.7313 21.9959 11.1333C21.6864 10.5353 21.069 10.1601 20.3957 10.1607ZM16.5793 17.5221C16.3423 17.4703 16.0973 17.4671 15.8591 17.5127L14.9506 15.9392C14.8606 15.9901 14.759 16.0169 14.6556 16.0167H13.6097L14.8226 18.1175C14.6758 18.2905 14.5631 18.4898 14.4904 18.7047H9.50102C9.42704 18.4859 9.31158 18.2834 9.16094 18.1084L10.3685 16.0167H9.80822C9.55805 16.0169 9.31327 15.9441 9.10392 15.8071L8.12047 17.5105C7.89193 17.4684 7.65741 17.471 7.42984 17.518L4.92312 13.1763C5.07479 13.0107 5.19415 12.8182 5.27503 12.6087H8.51572V11.4087H5.30913C5.24229 11.2015 5.1383 11.0081 5.00224 10.8381L7.49985 6.51211C7.70508 6.54654 7.91474 6.54485 8.11939 6.50714L9.49574 8.89114C9.59821 8.4259 9.83432 8.00071 10.1751 7.66781L9.16022 5.91C9.30569 5.74118 9.4185 5.54679 9.49291 5.33674H14.4985C14.5716 5.54293 14.6817 5.73406 14.8233 5.90074L13.7248 7.80341C14.0616 8.18614 14.2698 8.66481 14.3203 9.17208L15.8601 6.50491C16.0746 6.54588 16.2948 6.54718 16.5097 6.50878L19.0007 10.8234C18.859 10.997 18.751 11.1955 18.6823 11.4087H15.2556V12.6087H18.7164C18.7996 12.8238 18.9233 13.0209 19.0808 13.1893L16.5793 17.5221ZM13.9633 10.5693H13.7324V9.41518C13.7288 8.3979 12.9031 7.57518 11.8858 7.57518C10.8685 7.57518 10.0428 8.3979 10.0391 9.41518V10.5693H9.11572V14.7242C9.11591 15.1066 9.42584 15.4166 9.80822 15.4167H14.6556V11.2618C14.6556 10.8794 14.3457 10.5693 13.9633 10.5693ZM11.8858 8.26104C12.0859 8.26086 12.2824 8.31336 12.4558 8.41327C12.5451 8.46474 12.6273 8.52777 12.7002 8.60074C12.834 8.73378 12.9332 8.89759 12.9891 9.07783C13.0055 9.13101 13.018 9.18533 13.0264 9.24034V10.5694H10.7315V9.41518C10.7313 9.22491 10.7787 9.03761 10.8694 8.87038C10.9732 8.67973 11.1277 8.52152 11.3158 8.41325C11.4891 8.31336 11.6858 8.26086 11.8858 8.26104ZM12.2233 13.0206L12.2953 13.7396L12.3476 14.2626H11.424L11.433 14.1731L11.5482 13.0206C11.2729 12.867 11.1361 12.5467 11.2155 12.2416C11.2949 11.9365 11.5704 11.7235 11.8857 11.7235C12.2009 11.7235 12.4764 11.9365 12.5558 12.2416C12.6352 12.5467 12.4986 12.867 12.2233 13.0206Z" fill="currentColor"/>
</svg>
