<svg width="24" height="24" viewBox="0 0 24 24" fill="currentColor" xmlns="http://www.w3.org/2000/svg">
<path fill-rule="evenodd" clip-rule="evenodd" d="M6.31407 10.5744C6.34178 10.5954 6.37896 10.599 6.41017 10.5836C6.44137 10.5683 6.46125 10.5367 6.46155 10.5019C6.46155 10.4735 6.46075 10.445 6.45915 10.4163C6.41382 9.61816 5.74167 9.00096 4.94257 9.0237C4.14347 9.04645 3.50751 9.70087 3.50765 10.5003V10.5022C3.50796 10.537 3.52789 10.5686 3.55913 10.5839C3.59036 10.5991 3.62755 10.5955 3.6552 10.5744C4.44297 9.9834 5.5263 9.9834 6.31407 10.5744ZM20.2615 3.91199H9.6V5.11199H1.2V13.512C1.19798 15.8987 2.61128 18.0594 4.79876 19.014C6.98624 19.9686 9.53154 19.5354 11.28 17.9108C12.5307 19.3131 14.321 20.1141 16.2 20.112C19.8451 20.112 22.8 17.1571 22.8 13.512V6.45044C22.8 5.7772 22.5326 5.13153 22.0565 4.65548C21.5805 4.17942 20.9348 3.91199 20.2615 3.91199ZM7.2 18.312C4.54903 18.312 2.4 16.163 2.4 13.512V6.31199H9.6V9.03534C9.1793 8.98124 8.75569 9.11105 8.43753 9.39155C8.11936 9.67206 7.9375 10.0761 7.93846 10.5002V10.5021C7.93881 10.5368 7.95872 10.5684 7.9899 10.5837C8.02109 10.5989 8.05822 10.5953 8.08587 10.5743C8.46907 10.2859 8.93585 10.1303 9.41547 10.131C9.47762 10.131 9.53916 10.1335 9.60007 10.1386V13.512C9.60007 13.6506 9.60487 13.788 9.61327 13.9245C9.07829 13.3128 8.19684 12.9132 7.2 12.9132C5.56863 12.9132 4.24615 13.983 4.24615 15.3026V15.3057C4.24635 15.4274 4.41955 15.4963 4.53984 15.4233C5.28065 14.9725 6.2016 14.7053 7.2 14.7053C8.1984 14.7053 9.11935 14.9725 9.86016 15.4232C9.8682 15.428 9.87658 15.4323 9.88522 15.4359C10.0499 15.9768 10.2837 16.494 10.5809 16.975C10.5737 16.9634 10.5663 16.9519 10.5593 16.9402C9.66312 17.8209 8.45646 18.3136 7.2 18.312ZM11.3258 9.59845C11.2878 9.62733 11.2367 9.63231 11.1938 9.61131C11.1509 9.59031 11.1236 9.54693 11.1231 9.49919V9.4966C11.1231 8.95723 11.3377 8.44003 11.7195 8.05906C12.1013 7.67809 12.6189 7.46466 13.1583 7.46583C14.2282 7.46824 15.1215 8.3128 15.1813 9.38104C15.1835 9.42049 15.1846 9.45969 15.1845 9.49864C15.1842 9.54645 15.1568 9.58995 15.1139 9.61105C15.071 9.63214 15.0199 9.62722 14.9818 9.59833C13.8986 8.78574 12.4089 8.78578 11.3258 9.59845ZM20.2615 13.512C20.2615 15.7551 18.4431 17.5735 16.2 17.5735C13.9569 17.5735 12.1385 15.7551 12.1385 13.512V13.5068C12.1391 13.4115 12.1934 13.3248 12.2788 13.2825C12.3642 13.2403 12.4662 13.2498 12.5423 13.3071C14.7094 14.9341 17.6906 14.9341 19.8577 13.3071C19.9338 13.2498 20.0358 13.2403 20.1212 13.2825C20.2066 13.3248 20.2609 13.4115 20.2615 13.5068V13.512ZM21.0742 9.5984C19.9909 8.78574 18.5013 8.78574 17.4181 9.5984C17.3801 9.62729 17.329 9.63226 17.2861 9.61126C17.2433 9.59026 17.2159 9.54688 17.2154 9.49914V9.49655C17.2154 8.95719 17.43 8.43998 17.8118 8.05901C18.1936 7.67804 18.7112 7.46461 19.2506 7.46578C20.3205 7.46819 21.2138 8.31275 21.2736 9.38099C21.2758 9.42044 21.2769 9.45964 21.2769 9.49859C21.2765 9.54639 21.2492 9.5899 21.2063 9.61102C21.1634 9.63214 21.1123 9.62726 21.0742 9.5984Z" fill="currentColor"/>
</svg>
