<svg width="24" height="24" viewBox="0 0 24 24" fill="currentColor" xmlns="http://www.w3.org/2000/svg">
<path fill-rule="evenodd" clip-rule="evenodd" d="M22.1876 11.1931C22.1417 11.0283 22.0079 10.9555 21.8276 10.9081L21.495 10.8253C20.4191 10.5653 19.988 10.3171 17.7433 10.3171C14.9782 10.3171 13.8148 10.8155 13.3474 10.8969C13.3047 10.9044 13.2614 10.9081 13.218 10.9081H10.7821C10.7387 10.9081 10.6954 10.9044 10.6527 10.8969C10.1852 10.8155 9.02184 10.3171 6.25678 10.3171C4.01206 10.3171 3.58094 10.5653 2.50502 10.8253L2.17246 10.908C1.99217 10.9553 1.85832 11.0282 1.81246 11.193C1.79835 11.2465 1.79574 11.3023 1.8048 11.3568C1.83485 11.5536 1.87776 11.8958 1.93085 12.2616C1.95314 12.4152 2.03491 12.8327 2.39911 12.8327C2.6635 12.8327 2.77831 13.024 2.91941 13.5047C3.03629 13.9025 3.46944 15.6362 3.46944 15.6362C3.66977 16.9658 5.22787 17.7362 7.09298 17.7362C8.9581 17.7362 10.5162 16.9658 10.7165 15.6362C10.7165 15.6362 11.1291 13.8948 11.274 13.2722C11.4189 12.6497 11.8315 12.6812 11.8315 12.6812H12.1685C12.1685 12.6812 12.581 12.6496 12.726 13.272C12.871 13.8945 13.2835 15.636 13.2835 15.636C13.4838 16.9656 15.0419 17.736 16.907 17.736C18.7721 17.736 20.3302 16.9656 20.5306 15.636C20.5306 15.636 20.9637 13.9023 21.0806 13.5045C21.2218 13.0238 21.3365 12.8325 21.6009 12.8325C21.9651 12.8325 22.0469 12.4151 22.0692 12.2614C22.1223 11.8956 22.1652 11.5534 22.1952 11.3566C22.2043 11.3022 22.2017 11.2465 22.1876 11.1931ZM4.1904 12.8387C3.89066 13.636 4.13707 15.075 4.13707 15.075C3.90295 14.6849 3.47292 12.881 3.65765 12.0966C3.81874 11.4126 5.73125 11.411 5.73125 11.411C5.02291 11.6646 4.43431 12.1899 4.1904 12.8387ZM14.2692 12.9451C13.9695 13.7424 14.2159 15.1814 14.2159 15.1814C13.9817 14.7913 13.5517 12.9874 13.7364 12.203C13.8975 11.519 15.81 11.5175 15.81 11.5175C15.1017 11.771 14.5131 12.2963 14.2692 12.9451ZM8.0309 5.40002H6.47242C6.42811 5.40002 6.38398 5.40554 6.34102 5.41634C6.09525 5.4664 5.8841 5.62238 5.76403 5.84258L2.9304 9.93886C4.11674 9.41086 5.76401 9.53698 5.76401 9.53698C5.76401 9.53698 6.21737 7.98451 6.62028 7.12978C6.77844 6.79428 7.10566 6.5819 7.46414 6.5819H8.03088C8.34257 6.5819 8.59759 6.31596 8.59759 5.99093C8.59759 5.66597 8.34259 5.40002 8.0309 5.40002ZM15.9649 5.40002H17.5234C17.5677 5.40002 17.6119 5.40554 17.6548 5.41634C17.9006 5.4664 18.1117 5.62238 18.2318 5.84258L21.0654 9.93886C19.8791 9.41086 18.2318 9.53698 18.2318 9.53698C18.2318 9.53698 17.7785 7.98451 17.3755 7.12978C17.2174 6.79428 16.8902 6.5819 16.5317 6.5819H15.9649C15.6533 6.5819 15.3982 6.31596 15.3982 5.99093C15.3982 5.66597 15.6533 5.40002 15.9649 5.40002Z" fill="currentColor"/>
</svg>
