<svg width="24" height="24" viewBox="0 0 24 24" fill="currentColor" xmlns="http://www.w3.org/2000/svg">
<path fill-rule="evenodd" clip-rule="evenodd" d="M20.3929 16.7929C20.0615 16.7929 19.7929 17.0615 19.7929 17.3929V18.5929C19.7909 19.2549 19.2548 19.791 18.5929 19.7929H17.3929C17.0615 19.7929 16.7929 20.0615 16.7929 20.3929C16.7929 20.7243 17.0615 20.9929 17.3929 20.9929H18.6028C19.9173 20.9929 20.9929 19.9174 20.9929 18.6029V17.3929C20.9929 17.0615 20.7242 16.7929 20.3929 16.7929ZM17.3929 4.19292H18.5929C19.2548 4.19486 19.7909 4.73098 19.7929 5.39292V6.59292C19.7929 6.92429 20.0615 7.19292 20.3929 7.19292C20.7242 7.19292 20.9929 6.92429 20.9929 6.59292V5.38298C20.9929 4.06846 19.9173 2.99292 18.6028 2.99292H17.3929C17.0615 2.99292 16.7929 3.26155 16.7929 3.59292C16.7929 3.92429 17.0615 4.19292 17.3929 4.19292ZM6.59286 19.7929H5.39286C4.73092 19.791 4.1948 19.2549 4.19286 18.5929V17.3929C4.19286 17.0615 3.92423 16.7929 3.59286 16.7929C3.26149 16.7929 2.99286 17.0615 2.99286 17.3929V18.6029C2.99286 19.9174 4.06839 20.9929 5.38292 20.9929H6.59286C6.92423 20.9929 7.19286 20.7243 7.19286 20.3929C7.19286 20.0615 6.92423 19.7929 6.59286 19.7929ZM3.59286 7.19292C3.92423 7.19292 4.19286 6.92429 4.19286 6.59292V5.39292C4.1948 4.73098 4.73092 4.19486 5.39286 4.19292H6.59286C6.92423 4.19292 7.19286 3.92429 7.19286 3.59292C7.19286 3.26155 6.92423 2.99292 6.59286 2.99292H5.38292C4.06839 2.99292 2.99286 4.06846 2.99286 5.38298V6.59292C2.99286 6.92429 3.26149 7.19292 3.59286 7.19292ZM17.4169 16.8169V12.6169H20.4169C20.7482 12.6169 21.0169 12.3483 21.0169 12.0169C21.0169 11.6855 20.7482 11.4169 20.4169 11.4169H17.4169V7.21692C17.4159 6.88595 17.1478 6.61788 16.8169 6.61692H7.21686C6.88589 6.61788 6.61782 6.88595 6.61686 7.21692V11.4169H3.61686C3.28549 11.4169 3.01686 11.6855 3.01686 12.0169C3.01686 12.3483 3.28549 12.6169 3.61686 12.6169H6.61686V16.8169C6.61782 17.1479 6.88589 17.416 7.21686 17.4169H16.8169C17.1478 17.416 17.4159 17.1479 17.4169 16.8169ZM16.2169 16.218H7.81686L7.81578 16.2169L7.81621 12.6169H16.2175L16.2179 16.2169L16.2169 16.218Z" fill="currentColor"/>
</svg>
