<svg width="24" height="24" viewBox="0 0 24 24" fill="currentColor" xmlns="http://www.w3.org/2000/svg">
<path fill-rule="evenodd" clip-rule="evenodd" d="M21.8438 11.4324L18.912 10.872L14.664 6.35971C14.4362 6.12833 14.1247 5.99864 13.8 6.00001H6C5.62033 5.9997 5.26297 6.17927 5.03664 6.4841L1.44031 11.2872L1.43664 11.2921L1.43438 11.2951C1.2818 11.5011 1.19962 11.7507 1.2 12.007V16.2C1.2 16.8627 1.73733 17.3998 2.4 17.4H4.2C4.2 18.7255 5.27452 19.8 6.6 19.8C7.92548 19.8 9 18.7255 9 17.4H15C15 18.7255 16.0745 19.8 17.4 19.8C18.7255 19.8 19.8 18.7255 19.8 17.4H21.6C22.2627 17.3998 22.8 16.8627 22.8 16.2V12.6065C22.7998 12.038 22.4005 11.5477 21.8438 11.4324ZM9.61411 15L10.4128 11.8624H8.71764L12.3035 7.38002L11.3622 10.5177H13.2L9.61411 15Z" fill="currentColor"/>
</svg>
