<svg width="24" height="24" viewBox="0 0 24 24" fill="currentColor" xmlns="http://www.w3.org/2000/svg">
<path fill-rule="evenodd" clip-rule="evenodd" d="M15.6069 5.39321H15.555C15.4271 5.0344 15.0878 4.79439 14.7069 4.79321H11.7069C11.326 4.7944 10.9867 5.03441 10.8588 5.39321H9.60689V2.39321C9.60689 2.06184 9.33826 1.79321 9.00689 1.79321C8.67552 1.79321 8.40689 2.06184 8.40689 2.39321V5.39321C7.74496 5.39515 7.20883 5.93128 7.20689 6.59321V20.9932C7.20883 21.6551 7.74496 22.1913 8.40689 22.1932H15.6069C16.2688 22.1913 16.805 21.6551 16.8069 20.9932V6.59321C16.805 5.93128 16.2688 5.39515 15.6069 5.39321ZM15.6069 9.59321C15.6059 9.92418 15.3379 10.1923 15.0069 10.1932H9.00689C8.67592 10.1923 8.40786 9.92418 8.40689 9.59321V7.19321C8.40786 6.86224 8.67592 6.59418 9.00689 6.59321H15.0069C15.3379 6.59418 15.6059 6.86224 15.6069 7.19321V9.59321Z" fill="currentColor"/>
</svg>
