<svg width="24" height="24" viewBox="0 0 24 24" fill="currentColor" xmlns="http://www.w3.org/2000/svg">
<path fill-rule="evenodd" clip-rule="evenodd" d="M16.8012 1.80005H7.19882C6.88072 1.80005 6.5757 1.92672 6.35088 2.15176C6.12606 2.3768 5.99984 2.68194 6 3.00005V21C5.99967 21.6625 6.53637 22.1997 7.19878 22.2001H16.8012C17.1193 22.2001 17.4243 22.0734 17.6491 21.8483C17.8739 21.6233 18.0002 21.3182 18 21V3.00005C18.0003 2.33765 17.4636 1.80039 16.8012 1.80005ZM11.1 2.40005H12.9C13.0657 2.40005 13.2 2.53436 13.2 2.70005C13.2 2.86573 13.0657 3.00005 12.9 3.00005H11.1C10.9343 3.00005 10.8 2.86573 10.8 2.70005C10.8 2.53436 10.9343 2.40005 11.1 2.40005ZM12 21.6C11.6686 21.6 11.4 21.3314 11.4 21C11.4 20.6687 11.6686 20.4 12 20.4C12.3314 20.4 12.6 20.6687 12.6 21C12.6 21.3314 12.3314 21.6 12 21.6ZM16.8 19.8H7.2V3.60005H16.8V19.8ZM13.9501 12.986H14.1142C14.6086 12.986 15 12.7417 15 12.3302C15 11.9187 14.6855 11.6746 14.1911 11.6746H13.8087L13.8177 11.6734C14.2242 11.6477 14.5645 11.4083 14.5645 11.0033C14.5645 10.5947 14.1861 10.3509 13.7111 10.3325L11.7277 10.3316L12.4748 7.8606C12.645 7.37542 12.3229 6.89616 11.9946 6.80645C11.5968 6.69751 11.4619 6.73867 11.4619 6.73867L11.2156 7.70645L10.6458 8.80841C10.5824 8.90117 10.1022 9.80138 9.7596 10.4463C9.39314 11.2211 9 11.1711 9 11.2811V13.983C9 14.8549 9.90809 15.6 10.7943 15.6H13.4996L13.4137 15.5973C13.8629 15.6 14.1505 15.3354 14.1505 14.9443C14.1505 14.5708 13.9165 14.36 13.6578 14.2969H13.9293C14.4235 14.2969 14.7381 14.0527 14.7381 13.6412C14.7381 13.2354 14.349 12.995 13.8643 12.986H13.9501Z" fill="currentColor"/>
</svg>
