<svg width="24" height="24" viewBox="0 0 24 24" fill="currentColor" xmlns="http://www.w3.org/2000/svg">
<path fill-rule="evenodd" clip-rule="evenodd" d="M13.7925 2.31635C13.3516 1.82091 12.7253 1.53006 12.0623 1.51283C11.3993 1.49561 10.7587 1.75356 10.2927 2.22544L10.2911 2.22712C10.2637 2.25489 10.237 2.28332 10.211 2.31239L4.19995 8.71201V20.112C4.19995 21.4375 5.27447 22.512 6.59995 22.512H17.4C18.7254 22.512 19.8 21.4375 19.8 20.112V8.71201L13.7925 2.31635ZM12 4.21201C12.8284 4.21201 13.5 4.88359 13.5 5.71201C13.5 6.54044 12.8284 7.21201 12 7.21201C11.1715 7.21201 10.5 6.54044 10.5 5.71201C10.5 4.88359 11.1715 4.21201 12 4.21201ZM17.4 11.8848C17.4028 11.5108 17.1821 11.1712 16.8392 11.0218C16.4963 10.8723 16.0974 10.9419 15.8253 11.1986L10.2926 16.5888L8.46979 14.5574C8.09957 14.2372 7.54449 14.2588 7.19995 14.6064L6.82589 14.9827C6.48886 15.3226 6.45928 15.8608 6.75706 16.2355L9.74945 19.9989C9.92607 20.222 10.1951 20.3521 10.4797 20.3521C10.7642 20.3521 11.0332 20.222 11.2098 19.9989L17.195 12.4725C17.3281 12.3055 17.4003 12.0983 17.4 11.8848Z" fill="currentColor"/>
</svg>
