<svg width="24" height="24" viewBox="0 0 24 24" fill="currentColor" xmlns="http://www.w3.org/2000/svg">
<path fill-rule="evenodd" clip-rule="evenodd" d="M16.2 5.99999V5.99807C16.1991 3.68903 14.3093 1.79999 12 1.79999C9.69001 1.79999 7.80001 3.68999 7.80001 5.99999H4.20001V20.4C4.20001 21.3941 5.0059 22.2 6.00001 22.2H18C18.9941 22.2 19.8 21.3941 19.8 20.4V5.99999H16.2ZM9.88225 3.88223C10.7401 3.02723 12.028 2.77195 13.1471 3.23506C14.2663 3.69817 14.9971 4.78881 15 5.99999H9.00001C8.99953 5.20459 9.3172 4.44203 9.88225 3.88223ZM7.20001 8.39999C7.1998 7.97122 7.42857 7.57497 7.80001 7.36079V8.39999C7.80001 8.73136 8.06864 8.99999 8.40001 8.99999C8.73138 8.99999 9.00001 8.73136 9.00001 8.39999V7.36079C9.50435 7.65197 9.72682 8.26322 9.52764 8.81045C9.32846 9.35769 8.76512 9.68292 8.19161 9.58178C7.61811 9.48065 7.20001 8.98234 7.20001 8.39999ZM8.16001 18.78C7.79185 18.4483 7.56001 17.9364 7.56001 17.4C7.56001 16.8636 7.79185 16.4117 8.16001 16.08V18.78ZM15.6 18.959C15.24 19.2 14.64 19.2 14.64 19.2C14.3086 19.2 14.04 18.9314 14.04 18.6V16.2C14.0392 16.0406 14.1022 15.8875 14.2149 15.7748C14.3276 15.6621 14.4806 15.5992 14.64 15.6H15V14.4C15.0007 14.0002 14.9202 13.6045 14.7636 13.2367C14.4565 12.5168 13.8832 11.9435 13.1633 11.6364C12.4198 11.3212 11.5802 11.3212 10.8367 11.6364C10.1169 11.9435 9.54349 12.5168 9.23641 13.2367C9.07978 13.6045 8.99936 14.0002 9.00001 14.4V15.6H9.36001C9.69138 15.6 9.96001 15.8686 9.96001 16.2V18.6C9.96001 18.9314 9.69138 19.2 9.36001 19.2C9.36001 19.2 8.76001 19.2 8.40001 18.959V14.4C8.40001 12.42 10.02 10.8 12 10.8C13.98 10.8 15.6 12.42 15.6 14.4V18.959ZM15.84 18.768V16.08C16.2082 16.4102 16.44 16.866 16.44 17.4C16.44 17.934 16.2082 18.4377 15.84 18.768ZM15.6 9.59999C15.0569 9.59996 14.5815 9.23517 14.441 8.71057C14.3004 8.18598 14.5297 7.63236 15 7.36079V8.39999C15 8.73136 15.2686 8.99999 15.6 8.99999C15.9314 8.99999 16.2 8.73136 16.2 8.39999V7.36079C16.6703 7.63236 16.8996 8.18598 16.7591 8.71057C16.6185 9.23517 16.1431 9.59996 15.6 9.59999Z" fill="currentColor"/>
</svg>
