<svg width="24" height="24" viewBox="0 0 24 24" fill="currentColor" xmlns="http://www.w3.org/2000/svg">
<path fill-rule="evenodd" clip-rule="evenodd" d="M5.40001 2.39999H18.6C19.2628 2.39999 19.8 2.93725 19.8 3.59999V5.99999C19.8 6.66274 19.2628 7.19999 18.6 7.19999H5.40001C4.73727 7.19999 4.20001 6.66274 4.20001 5.99999V3.59999C4.20001 2.93725 4.73727 2.39999 5.40001 2.39999ZM5.40001 16.8H18.6C19.2628 16.8 19.8 17.3373 19.8 18V20.4C19.8 21.0627 19.2628 21.6 18.6 21.6H5.40001C4.73727 21.6 4.20001 21.0627 4.20001 20.4V18C4.20001 17.3373 4.73727 16.8 5.40001 16.8ZM5.40001 9.59999H18.6C19.2628 9.59999 19.8 10.1373 19.8 10.8V13.2C19.8 13.8627 19.2628 14.4 18.6 14.4H5.40001C4.73727 14.4 4.20001 13.8627 4.20001 13.2V10.8C4.20001 10.1373 4.73727 9.59999 5.40001 9.59999ZM5.40001 7.79999H18.6V8.99999H5.40001V7.79999ZM5.40001 15H18.6V16.2H5.40001V15ZM6.00001 4.19999C6.33138 4.19999 6.60001 4.46862 6.60001 4.79999C6.60001 5.13137 6.33138 5.39999 6.00001 5.39999C5.66864 5.39999 5.40001 5.13137 5.40001 4.79999C5.40001 4.46862 5.66864 4.19999 6.00001 4.19999ZM6.00001 11.4C6.33138 11.4 6.60001 11.6686 6.60001 12C6.60001 12.3314 6.33138 12.6 6.00001 12.6C5.66864 12.6 5.40001 12.3314 5.40001 12C5.40001 11.6686 5.66864 11.4 6.00001 11.4ZM6.00001 18.6C6.33138 18.6 6.60001 18.8686 6.60001 19.2C6.60001 19.5314 6.33138 19.8 6.00001 19.8C5.66864 19.8 5.40001 19.5314 5.40001 19.2C5.40001 18.8686 5.66864 18.6 6.00001 18.6Z" fill="currentColor"/>
</svg>
