<svg width="24" height="24" viewBox="0 0 24 24" fill="currentColor" xmlns="http://www.w3.org/2000/svg">
<path fill-rule="evenodd" clip-rule="evenodd" d="M20.8525 12.7919C20.9506 12.3345 21.0001 11.8679 21 11.4001C21 7.75501 18.0451 4.80005 14.4 4.80005C12.401 4.79826 10.5093 5.70434 9.25779 7.2631C8.50344 7.09722 7.71417 7.26212 7.08934 7.71615C6.46451 8.17018 6.06388 8.86993 5.98865 9.63862C3.6264 9.93893 1.8 11.9562 1.8 14.4001C1.8 17.051 3.94904 19.2001 6.6 19.2001H18.6C20.128 19.2001 21.4894 18.2354 21.9961 16.7938C22.5028 15.3523 22.0443 13.748 20.8525 12.7919ZM16.333 14.6048C16.3328 14.8193 16.1587 14.993 15.9442 14.9928H12.8722C12.7688 14.993 12.6696 14.952 12.5964 14.879C12.5232 14.806 12.482 14.707 12.4819 14.6036V12.2682C12.4819 10.9512 12.8089 9.92468 13.4629 9.18865C14.1168 8.45271 15.1128 7.96805 16.3305 7.73561V9.0794C15.3774 9.33812 14.6836 9.82045 14.3694 10.5266C14.2174 10.8541 14.1467 11.1462 14.1571 11.4362C14.1598 11.5128 14.2227 11.5735 14.2994 11.5735H15.9429C16.1581 11.5733 16.3328 11.7475 16.333 11.9627V14.6048Z" fill="currentColor"/>
</svg>
