<svg width="24" height="24" viewBox="0 0 24 24" fill="currentColor" xmlns="http://www.w3.org/2000/svg">
<path fill-rule="evenodd" clip-rule="evenodd" d="M3 21V14.4L4.8 11.4L6.6 14.4V16.2H7.2V9.89998C7.2 9.73429 7.33431 9.59998 7.5 9.59998H8.4V8.99998H13.2V9.59998H14.1C14.2657 9.59998 14.4 9.73429 14.4 9.89998V17.4H15.6V14.9283L18.3 14.3283V13.7283L18.6 13.795V12H19.2V13.9283L21 14.3283V21H3ZM9.6 10.8H8.4V12H9.6V10.8ZM9.6 12.6H8.4V13.8H9.6V12.6ZM9.6 14.4H8.4V15.6H9.6V14.4ZM9.6 16.2H8.4V17.4H9.6V16.2ZM11.4 10.8H10.2V12H11.4V10.8ZM11.4 12.6H10.2V13.8H11.4V12.6ZM11.4 14.4H10.2V15.6H11.4V14.4ZM11.4 16.2H10.2V17.4H11.4V16.2ZM13.2 10.8H12V12H13.2V10.8ZM13.2 12.6H12V13.8H13.2V12.6ZM13.2 14.4H12V15.6H13.2V14.4ZM13.2 16.2H12V17.4H13.2V16.2ZM14.4 5.51376C16.65 5.51376 18.4741 7.32631 18.4741 9.56218C18.4741 9.57007 18.4738 9.5779 18.4738 9.58579H17.4367C17.4367 9.57792 17.437 9.57007 17.437 9.56218C17.4388 8.76032 17.1183 7.99138 16.5475 7.42819C15.9777 6.85974 15.2049 6.54166 14.4 6.54427V5.51376ZM14.4 8.45806V7.42757C15.5864 7.42757 16.5481 8.38327 16.5481 9.56218C16.5481 9.57007 16.5479 9.57792 16.5479 9.58579H15.5105C15.5107 9.57792 15.5111 9.5701 15.5111 9.56218C15.5085 8.95073 15.0114 8.45678 14.4 8.45806ZM19.3627 9.58579C19.3627 9.57792 19.363 9.57007 19.363 9.56218C19.3643 8.25215 18.8408 6.99619 17.9094 6.07498C16.9773 5.1473 15.715 4.62773 14.4 4.63049V3.59998C17.7137 3.59998 20.4 6.26935 20.4 9.56218C20.4 9.57005 20.4 9.57792 20.3999 9.58579H19.3627Z" fill="currentColor"/>
</svg>
