<svg width="24" height="24" viewBox="0 0 24 24" fill="currentColor" xmlns="http://www.w3.org/2000/svg">
<path fill-rule="evenodd" clip-rule="evenodd" d="M6.90888 17.0912C6.67417 16.8579 6.29507 16.8579 6.06036 17.0912L4.78757 18.364C4.555 18.5986 4.55583 18.9771 4.78942 19.2107C5.02301 19.4443 5.40148 19.4451 5.63609 19.2125L6.90888 17.9397C7.14223 17.705 7.14223 17.3259 6.90888 17.0912ZM17.0912 6.90888C17.3259 7.14223 17.705 7.14223 17.9397 6.90888L19.2125 5.63609C19.4451 5.40148 19.4443 5.02301 19.2107 4.78942C18.9771 4.55583 18.5986 4.555 18.364 4.78757L17.0912 6.06036C16.8579 6.29507 16.8579 6.67417 17.0912 6.90888ZM17.9397 17.0912C17.705 16.8579 17.3259 16.8579 17.0912 17.0912C16.8579 17.3259 16.8579 17.705 17.0912 17.9397L18.364 19.2125C18.5986 19.4451 18.9771 19.4443 19.2107 19.2107C19.4443 18.9771 19.4451 18.5986 19.2125 18.364L17.9397 17.0912ZM6.06036 6.90888C6.29507 7.14223 6.67417 7.14223 6.90888 6.90888C7.14223 6.67417 7.14223 6.29507 6.90888 6.06036L5.63609 4.78757C5.40148 4.555 5.02301 4.55583 4.78942 4.78942C4.55583 5.02301 4.555 5.40148 4.78757 5.63609L6.06036 6.90888ZM4.80005 12C4.79909 11.6691 4.53102 11.401 4.20005 11.4H2.40005C2.06868 11.4 1.80005 11.6687 1.80005 12C1.80005 12.3314 2.06868 12.6 2.40005 12.6H4.20005C4.53102 12.5991 4.79909 12.331 4.80005 12ZM21.6 11.4H19.8C19.4687 11.4 19.2001 11.6687 19.2001 12C19.2001 12.3314 19.4687 12.6 19.8 12.6H21.6C21.9314 12.6 22.2001 12.3314 22.2001 12C22.2001 11.6687 21.9314 11.4 21.6 11.4ZM12 19.2001C11.6691 19.201 11.401 19.4691 11.4 19.8V21.6C11.4 21.9314 11.6687 22.2001 12 22.2001C12.3314 22.2001 12.6 21.9314 12.6 21.6V19.8C12.5991 19.4691 12.331 19.201 12 19.2001ZM12 4.80005C12.331 4.79909 12.5991 4.53102 12.6 4.20005V2.40005C12.6 2.06868 12.3314 1.80005 12 1.80005C11.6687 1.80005 11.4 2.06868 11.4 2.40005V4.20005C11.401 4.53102 11.6691 4.79909 12 4.80005ZM12 6.00005C8.68634 6.00005 6.00005 8.68634 6.00005 12C6.00005 15.3138 8.68634 18 12 18C15.3138 18 18 15.3138 18 12C18 8.68634 15.3138 6.00005 12 6.00005ZM10.8233 15.8124L11.3077 13.0154H9.00005L13.1539 8.40005L12.6924 11.1693H15L10.8233 15.8124Z" fill="currentColor"/>
</svg>
