<svg width="24" height="24" viewBox="0 0 24 24" fill="currentColor" xmlns="http://www.w3.org/2000/svg">
<path fill-rule="evenodd" clip-rule="evenodd" d="M13.7868 10.5332L13.8004 14.1568H15.6004L15.5867 10.5168C15.7741 10.3567 15.888 10.147 15.888 9.91718C15.888 9.45938 15.4369 8.98858 14.8502 8.90918V8.79922C14.8502 8.7208 14.7866 8.65723 14.7082 8.65723C14.6298 8.65723 14.5662 8.7208 14.5662 8.79922V8.9023C13.9494 8.95534 13.4659 9.44318 13.4659 9.91711C13.4659 10.1549 13.5877 10.3712 13.7868 10.5332ZM14.3864 11.6133C14.3869 11.44 14.5272 11.2995 14.7006 11.2989C14.8595 11.2994 14.9882 11.4282 14.9886 11.5871V12.314H14.3864V11.6133ZM14.6864 13.1001C14.8079 13.1 14.9174 13.1731 14.964 13.2853C15.0105 13.3975 14.9849 13.5266 14.899 13.6125C14.8132 13.6984 14.684 13.7242 14.5718 13.6777C14.4596 13.6312 14.3864 13.5218 14.3864 13.4003C14.3864 13.3207 14.418 13.2443 14.4742 13.188C14.5305 13.1317 14.6068 13.1001 14.6864 13.1001ZM18.3065 11.1812H18.6297C18.7713 11.1812 18.8861 11.0663 18.8861 10.9246V10.0906C18.8861 10.0225 18.8591 9.95729 18.811 9.90917C18.7629 9.86106 18.6977 9.83402 18.6297 9.834H18.2826L18.2768 9.50621L18.7703 9.27324C18.8395 9.24951 18.8861 9.18436 18.8861 9.11112V8.20416C18.8861 8.15873 18.8681 8.11516 18.8359 8.08303C18.8038 8.0509 18.7603 8.03284 18.7148 8.03282H18.2508L18.2402 7.43242H18.4298C18.4929 7.43345 18.5466 7.38675 18.5544 7.32413C18.5577 7.2904 18.5467 7.25683 18.5239 7.23172C18.5012 7.2066 18.4688 7.19227 18.435 7.19227H18.1483L18.1418 6.55421H18.2736C18.3367 6.55524 18.3904 6.50854 18.3982 6.44592C18.4015 6.41219 18.3905 6.37862 18.3677 6.3535C18.3449 6.32838 18.3126 6.31405 18.2787 6.31406H18.1395L18.1072 3.12091C18.1072 3.05413 18.053 3 17.9862 3C17.9195 3 17.8653 3.05413 17.8653 3.12091L17.8238 6.31406H17.7057C17.6427 6.31303 17.5889 6.35971 17.5812 6.42233C17.5778 6.45608 17.5888 6.48969 17.6116 6.51484C17.6343 6.54 17.6667 6.55434 17.7006 6.55433H17.8206L17.8123 7.19239H17.5492C17.4861 7.19136 17.4323 7.23804 17.4246 7.30066C17.4212 7.33441 17.4322 7.36802 17.455 7.39317C17.4777 7.41833 17.5101 7.43267 17.544 7.43266H17.7313L17.7178 8.03306H17.2573C17.2119 8.03308 17.1683 8.05114 17.1362 8.08327C17.1041 8.1154 17.0861 8.15897 17.0861 8.2044V9.11218C17.0861 9.18489 17.1319 9.2497 17.2005 9.27384L17.6843 9.5087L17.677 9.8341H17.3424C17.2744 9.83412 17.2091 9.86116 17.1611 9.90927C17.113 9.95739 17.086 10.0226 17.086 10.0907V10.9247C17.086 11.0663 17.2008 11.1812 17.3424 11.1812H17.6464L17.579 14.1568H18.359L18.3065 11.1812ZM11.76 17.3989V16.2925C11.7601 16.1079 11.9097 15.9582 12.0943 15.9579H13.711C13.8956 15.9582 14.0452 16.1079 14.0454 16.2925V16.5583H15.36V16.1485C15.3608 15.9641 15.51 15.8148 15.6943 15.8139H15.96V15.6922C15.9602 15.5076 16.1097 15.3579 16.2943 15.3576H16.7056C16.8902 15.3579 17.0398 15.5075 17.04 15.6922V15.8139H17.311C17.4954 15.8146 17.6447 15.964 17.6454 16.1484V16.5584H18.9546V16.2925C18.9548 16.1079 19.1044 15.9582 19.289 15.9579H19.6517L18.8861 14.3969H12.6021L12.6103 10.517C12.798 10.357 12.912 10.1471 12.912 9.91704C12.912 9.44162 12.4255 8.95224 11.8059 8.90184V8.79917C11.8059 8.72075 11.7423 8.65718 11.6639 8.65718C11.5855 8.65718 11.5219 8.72075 11.5219 8.79917V8.90983C10.938 8.99143 10.4899 9.46078 10.4899 9.91706C10.4899 10.1547 10.6115 10.3707 10.8103 10.5327L10.797 16.7984H10.488V16.4983C10.488 16.0786 10.1982 15.7145 9.7891 15.6205V15.3476C9.78911 15.2964 9.76877 15.2472 9.73254 15.211C9.69632 15.1747 9.64717 15.1544 9.59592 15.1543H9.58008C9.52883 15.1544 9.47968 15.1747 9.44346 15.211C9.40723 15.2472 9.38688 15.2964 9.3869 15.3476V15.6205C8.97784 15.7145 8.68795 16.0786 8.688 16.4983V16.7985H8.4V13.7965C8.24082 13.7964 8.08818 13.7332 7.97566 13.6206C7.86313 13.508 7.79995 13.3553 7.8 13.1961H7.464V11.8785C7.46401 11.623 7.30236 11.3955 7.06111 11.3114V10.9879C7.06114 10.8812 6.97465 10.7947 6.86794 10.7946H6.852C6.74528 10.7947 6.6588 10.8812 6.65882 10.9879V11.3142C6.4217 11.4007 6.26395 11.6262 6.264 11.8786V13.1962H6C6.00008 13.5276 5.73146 13.7964 5.4 13.7965V16.7985H5.064V16.4983C5.06405 16.0786 4.77416 15.7145 4.3651 15.6205V15.3476C4.36512 15.2964 4.34477 15.2472 4.30854 15.211C4.27232 15.1747 4.22317 15.1544 4.17192 15.1543H4.15608C4.10483 15.1544 4.05568 15.1747 4.01946 15.211C3.98323 15.2472 3.96288 15.2964 3.9629 15.3476V15.6205C3.55384 15.7145 3.26395 16.0786 3.264 16.4983V16.7985H3V21.0013H11.7738C11.7647 20.9706 11.76 20.9388 11.76 20.9069V17.3989ZM6.6 20.4041H5.99784V19.7033C5.99827 19.5299 6.13864 19.3895 6.312 19.3889C6.47092 19.3894 6.59959 19.5182 6.6 19.6771V20.4041ZM6.6 16.2046H5.99784V15.5038C5.99827 15.3304 6.13864 15.19 6.312 15.1894C6.47091 15.1899 6.59958 15.3187 6.6 15.4776V16.2046ZM7.80216 20.4041H7.2V19.7033C7.20042 19.5299 7.34079 19.3895 7.51416 19.3889C7.67308 19.3894 7.80175 19.5182 7.80216 19.6771V20.4041ZM7.80216 16.2046H7.2V15.5038C7.20042 15.3304 7.34079 15.19 7.51416 15.1894C7.67307 15.1899 7.80174 15.3187 7.80216 15.4776V16.2046ZM11.4104 11.6134C11.4109 11.44 11.5512 11.2996 11.7246 11.299C11.8835 11.2995 12.0122 11.4283 12.0126 11.5872V12.3141H11.4104V11.6134ZM11.7104 13.7006C11.589 13.7007 11.4795 13.6276 11.4329 13.5154C11.3864 13.4033 11.412 13.2741 11.4979 13.1882C11.5837 13.1023 11.7129 13.0766 11.8251 13.123C11.9373 13.1695 12.0104 13.279 12.0104 13.4004C12.0105 13.48 11.9789 13.5563 11.9226 13.6126C11.8663 13.6689 11.79 13.7006 11.7104 13.7006ZM20.9057 16.1982H19.289C19.264 16.1982 19.24 16.2081 19.2223 16.2258C19.2046 16.2435 19.1946 16.2675 19.1946 16.2925V16.7041C19.1947 16.7292 19.1847 16.7532 19.167 16.7709C19.1493 16.7886 19.1253 16.7985 19.1003 16.7985H17.4997C17.4747 16.7985 17.4507 16.7886 17.433 16.7709C17.4153 16.7532 17.4053 16.7292 17.4054 16.7041V16.1485C17.4054 16.1235 17.3954 16.0995 17.3777 16.0818C17.36 16.064 17.336 16.0541 17.311 16.0541H16.8943C16.8693 16.0541 16.8453 16.0441 16.8276 16.0264C16.8099 16.0087 16.8 15.9847 16.8 15.9596V15.6922C16.8 15.6671 16.7901 15.6431 16.7724 15.6254C16.7547 15.6077 16.7307 15.5977 16.7057 15.5977H16.2944C16.2694 15.5977 16.2453 15.6077 16.2276 15.6254C16.2099 15.6431 16.2 15.6671 16.2 15.6922V15.9596C16.2 16.0118 16.1578 16.054 16.1056 16.0541H15.6943C15.6567 16.0541 15.6227 16.0764 15.6078 16.111L15.6104 16.7985H13.8104L13.8102 16.7325C13.8071 16.7234 13.8055 16.7138 13.8054 16.7041V16.2925C13.8054 16.2675 13.7954 16.2435 13.7777 16.2258C13.76 16.208 13.736 16.1981 13.711 16.1981H12.0944C12.0693 16.1981 12.0453 16.208 12.0276 16.2258C12.0099 16.2435 12 16.2675 12 16.2925V20.9069C12 20.9319 12.0099 20.9559 12.0276 20.9736C12.0453 20.9913 12.0693 21.0013 12.0943 21.0013H20.9057C20.9307 21.0013 20.9547 20.9913 20.9724 20.9736C20.9901 20.9559 21 20.9319 21 20.9069V16.2925C21 16.2404 20.9578 16.1982 20.9057 16.1982ZM13.2022 20.0199H12.6V19.5145C12.6004 19.3411 12.7408 19.2006 12.9142 19.2001C13.0731 19.2006 13.2017 19.3293 13.2022 19.4883V20.0199ZM13.2022 18.8191H12.6V18.3137C12.6004 18.1403 12.7408 17.9998 12.9142 17.9993C13.0731 17.9998 13.2017 18.1285 13.2022 18.2874V18.8191ZM13.2022 17.6183H12.6V17.1129C12.6004 16.9395 12.7408 16.799 12.9142 16.7985C13.0731 16.799 13.2018 16.9278 13.2022 17.0867V17.6183ZM14.4 20.0199H13.7978V19.5145C13.7979 19.4749 13.8055 19.4357 13.8202 19.3989C13.8677 19.2793 13.9833 19.2005 14.112 19.2001C14.2709 19.2006 14.3996 19.3294 14.4 19.4883V20.0199ZM14.4 18.8191H13.7978V18.3137C13.7979 18.2785 13.804 18.2436 13.8157 18.2105C13.8598 18.0844 13.9785 17.9998 14.112 17.9993C14.2709 17.9998 14.3996 18.1286 14.4 18.2875V18.8191ZM15.6 20.0199H14.9978V19.5145C14.9983 19.3411 15.1386 19.2007 15.312 19.2001C15.4709 19.2006 15.5996 19.3294 15.6 19.4883V20.0199ZM15.6 18.8191H14.9978V18.3137C14.9983 18.1403 15.1386 17.9998 15.312 17.9993C15.4709 17.9998 15.5996 18.1285 15.6 18.2874V18.8191ZM16.8022 20.0199H16.2V19.5145C16.2004 19.3411 16.3408 19.2006 16.5142 19.2001C16.6731 19.2006 16.8017 19.3293 16.8022 19.4883V20.0199ZM16.8022 18.8191H16.2V18.3137C16.2004 18.1403 16.3408 17.9998 16.5142 17.9993C16.6731 17.9998 16.8017 18.1285 16.8022 18.2874V18.8191ZM16.8022 17.6183H16.2V17.1129C16.2004 16.9395 16.3408 16.799 16.5142 16.7985C16.6731 16.799 16.8018 16.9278 16.8022 17.0867V17.6183ZM18 20.0199H17.3978V19.5145C17.3987 19.3413 17.5388 19.2011 17.712 19.2001C17.8709 19.2006 17.9996 19.3294 18 19.4883V20.0199ZM18 18.8191H17.3978V18.3137C17.3983 18.1403 17.5386 17.9999 17.712 17.9993C17.8709 17.9998 17.9996 18.1285 18 18.2874V18.8191ZM19.2022 20.0199H18.6V19.5145C18.6004 19.3411 18.7408 19.2006 18.9142 19.2001C19.0731 19.2006 19.2017 19.3293 19.2022 19.4883V20.0199ZM19.2022 18.8191H18.6V18.3137C18.6004 18.1403 18.7408 17.9998 18.9142 17.9993C19.0731 17.9998 19.2017 18.1285 19.2022 18.2874V18.8191ZM20.4 20.0199H19.7978V19.5145C19.7983 19.3411 19.9386 19.2007 20.112 19.2001C20.2709 19.2006 20.3996 19.3294 20.4 19.4883V20.0199ZM20.4 18.8191H19.7978V18.3137C19.7983 18.1403 19.9386 17.9998 20.112 17.9993C20.2709 17.9998 20.3996 18.1285 20.4 18.2874V18.8191ZM20.4 17.6183H19.7978V17.1129C19.7983 16.9395 19.9386 16.7991 20.112 16.7985C20.2709 16.799 20.3996 16.9278 20.4 17.0867V17.6183Z" fill="currentColor"/>
</svg>
