<svg width="24" height="24" viewBox="0 0 24 24" fill="currentColor" xmlns="http://www.w3.org/2000/svg">
<path fill-rule="evenodd" clip-rule="evenodd" d="M15 1.80005V5.40005C15 6.06279 15.4776 6.60005 16.0667 6.60005H19.8L15 1.80005ZM16.2 7.80005C14.8745 7.80005 13.8 6.72553 13.8 5.40005V1.80005H4.2V20.9946V21C4.2 21.6628 4.73726 22.2001 5.4 22.2001H19.8V7.80005H16.2ZM9.3168 12.1163C9.44545 11.937 9.50979 11.8031 9.5098 11.7144C9.51312 11.5815 9.47192 11.4512 9.39273 11.3442C9.32151 11.2443 9.20534 11.1862 9.08265 11.1892C8.86011 11.1892 8.68924 11.2757 8.57006 11.4487L7.88347 12.4264L7.15889 11.436C7.05132 11.277 6.86992 11.1839 6.67795 11.1892C6.55558 11.1892 6.45275 11.2406 6.36945 11.3435C6.28678 11.4444 6.24251 11.5714 6.24446 11.7018C6.24446 11.783 6.30721 11.9122 6.43272 12.0894L7.32024 13.257L6.16694 14.7994C6.08045 14.9113 6.03717 15.0062 6.03722 15.0842C6.03557 15.2201 6.0759 15.3533 6.15271 15.4655C6.22967 15.5783 6.32933 15.6348 6.4517 15.6348C6.68796 15.6348 6.88255 15.5204 7.03548 15.2916L7.88345 14.0988L8.75198 15.2976C8.91651 15.5223 9.1132 15.6346 9.34207 15.6346C9.46864 15.6346 9.56832 15.5793 9.64108 15.4685C9.71493 15.3541 9.75293 15.2202 9.75024 15.0841C9.75024 15.0113 9.70704 14.9138 9.62064 14.7914L8.46089 13.2569L9.3168 12.1163ZM12.0713 15.1617C12.1209 15.3189 12.1884 15.437 12.2738 15.5161C12.3591 15.5952 12.4772 15.6347 12.6281 15.6347C12.7546 15.6347 12.8542 15.6099 12.9269 15.5603C12.9976 15.5132 13.054 15.4475 13.0899 15.3705C13.136 15.2647 13.1746 15.1558 13.2053 15.0446L13.8142 13.0164L14.1511 15.0509C14.1753 15.2333 14.2185 15.3672 14.2807 15.4527C14.365 15.5698 14.5226 15.6283 14.7535 15.6283C15.0213 15.6283 15.1552 15.4163 15.1552 14.9923L14.5781 11.7018C14.5564 11.5509 14.4727 11.4158 14.3472 11.3292C14.2205 11.2368 14.0674 11.1877 13.9107 11.1892C13.7654 11.188 13.6247 11.2401 13.5153 11.3356C13.4009 11.4323 13.316 11.5592 13.2701 11.7018L12.6027 13.8328L11.8768 11.61C11.8402 11.4781 11.7541 11.3653 11.6364 11.2952C11.5132 11.2232 11.3726 11.1865 11.23 11.1892C11.0679 11.1879 10.911 11.2459 10.7887 11.3522C10.6907 11.4387 10.6258 11.5721 10.5942 11.7524L10.0628 15.0066C10.0628 15.1976 10.0973 15.3489 10.1664 15.4607C10.2293 15.5691 10.3472 15.6337 10.4724 15.6284C10.6284 15.6284 10.7563 15.5875 10.8559 15.5058C10.9556 15.4241 11.0197 15.3094 11.0481 15.1617L11.3849 13.0165L12.0713 15.1617ZM16.5943 11.7334C16.5943 11.5784 16.5505 11.4479 16.463 11.3419C16.3755 11.2359 16.2547 11.1829 16.1007 11.1829C15.9457 11.1829 15.8239 11.2359 15.7353 11.3419C15.6452 11.4521 15.598 11.5912 15.6024 11.7334V14.9481C15.6024 15.1443 15.6575 15.297 15.7677 15.4061C15.8779 15.5153 16.03 15.5699 16.224 15.5699H17.6178C17.7455 15.5742 17.8704 15.5317 17.969 15.4504C18.0629 15.3708 18.1098 15.2635 18.1098 15.1285C18.1098 14.9872 18.0637 14.8775 17.9714 14.7994C17.8791 14.7213 17.7612 14.6823 17.6178 14.6823H16.5943V11.7334Z" fill="currentColor"/>
</svg>
