<svg width="24" height="24" viewBox="0 0 24 24" fill="currentColor" xmlns="http://www.w3.org/2000/svg">
<path fill-rule="evenodd" clip-rule="evenodd" d="M14.8983 12C14.8983 11.0228 15.9647 11.7622 15.4682 10.5635C14.9718 9.36473 14.7403 10.6413 14.0494 9.95047C13.3584 9.25966 14.6353 9.02839 13.4366 8.53181C12.2379 8.03522 12.977 9.10154 12 9.10154C11.023 9.10154 11.7622 8.03537 10.5634 8.53183C9.3647 9.0283 10.6416 9.25947 9.9504 9.95045C9.2592 10.6414 9.02842 9.36485 8.532 10.5635C8.03558 11.7621 9.10169 11.0228 9.10169 12.0001C9.10169 12.9773 8.0352 12.2379 8.532 13.4367C9.0288 14.6354 9.25961 13.3587 9.95062 14.0494C10.6416 14.7402 9.36487 14.9717 10.5636 15.4682C11.7623 15.9647 11.0228 14.8986 12 14.8986C12.9772 14.8986 12.2376 15.9648 13.4366 15.4682C14.6355 14.9716 13.3584 14.7404 14.0494 14.0494C14.7403 13.3585 14.9714 14.6354 15.4682 13.4367C15.965 12.2379 14.8983 12.9774 14.8983 12ZM12 13.752C11.039 13.752 10.26 12.973 10.26 12.012C10.26 11.0511 11.039 10.272 12 10.272C12.961 10.272 13.74 11.0511 13.74 12.012C13.74 12.4735 13.5567 12.9161 13.2304 13.2425C12.9041 13.5688 12.4615 13.7521 12 13.752ZM16.8012 1.80005H7.19882C6.88072 1.80005 6.5757 1.92672 6.35088 2.15176C6.12606 2.3768 5.99984 2.68194 6 3.00005V21C5.99967 21.6625 6.53637 22.1997 7.19878 22.2001H16.8012C17.1193 22.2001 17.4243 22.0734 17.6491 21.8483C17.8739 21.6233 18.0002 21.3182 18 21V3.00005C18.0003 2.33765 17.4636 1.80039 16.8012 1.80005ZM11.1 2.40005H12.9C13.0657 2.40005 13.2 2.53436 13.2 2.70005C13.2 2.86573 13.0657 3.00005 12.9 3.00005H11.1C10.9343 3.00005 10.8 2.86573 10.8 2.70005C10.8 2.53436 10.9343 2.40005 11.1 2.40005ZM12 21.6C11.6686 21.6 11.4 21.3314 11.4 21C11.4 20.6687 11.6686 20.4 12 20.4C12.3314 20.4 12.6 20.6687 12.6 21C12.6 21.3314 12.3314 21.6 12 21.6ZM16.8 19.8H7.2V3.60005H16.8V19.8Z" fill="currentColor"/>
</svg>
