<svg width="24" height="24" viewBox="0 0 24 24" fill="currentColor" xmlns="http://www.w3.org/2000/svg">
<path fill-rule="evenodd" clip-rule="evenodd" d="M20.5481 10.9025L17.7682 6.97901C17.3642 6.41395 16.564 6.29369 15.9807 6.71021C15.5635 7.00353 15.3567 7.51397 15.452 8.01499L15.1284 7.56221C14.6704 6.92179 13.7552 6.79116 13.0841 7.27042C12.5819 7.62907 12.3588 8.22761 12.4702 8.77454C12.4664 8.77656 12.4626 8.77882 12.4588 8.78074L12.3165 8.58154C11.8494 7.92842 10.9156 7.79532 10.2305 8.28454C9.642 8.70506 9.43008 9.44798 9.6784 10.0632L5.06853 3.6156C4.59633 2.95447 3.67758 2.80131 3.01645 3.27352C2.35532 3.74572 2.20216 4.66447 2.67436 5.3256L7.28402 11.7729C6.98377 12.2653 6.98624 12.8848 7.29043 13.3747L9.80217 17.4019C9.92068 17.6173 10.2198 18.062 10.2305 18.0768C10.2386 18.0876 10.2466 18.0985 10.255 18.1092C12.2898 20.8676 16.1695 21.492 18.9687 19.4928C21.7361 17.5164 22.4182 13.7112 20.5481 10.9025Z" fill="currentColor"/>
</svg>
