<svg width="24" height="24" viewBox="0 0 24 24" fill="currentColor" xmlns="http://www.w3.org/2000/svg">
<path fill-rule="evenodd" clip-rule="evenodd" d="M21.2732 5.43764C21.1366 5.40602 20.9946 5.40493 20.8574 5.43442C20.2679 5.55572 17.7013 6.00445 11.9935 6.00445C6.28561 6.00445 3.71903 5.55565 3.12947 5.43442C2.99231 5.40493 2.85034 5.40602 2.71367 5.43764C2.17506 5.56857 1.79528 6.05009 1.79346 6.60437V17.4034C1.79528 17.9577 2.17506 18.4392 2.71367 18.5701C2.85034 18.6017 2.99231 18.6028 3.12947 18.5733C3.71903 18.452 6.28561 18.0033 11.9935 18.0033C18.0355 18.0033 20.2748 18.4257 20.8388 18.5617C21.0176 18.6057 21.2051 18.5979 21.3796 18.5391C21.8652 18.3726 22.1919 17.9167 22.1935 17.4034V6.60437C22.1916 6.05009 21.8119 5.56857 21.2732 5.43764ZM15.5935 13.8725C15.5935 14.0471 15.5003 14.2083 15.3491 14.2956L12.2378 16.0913C12.0866 16.1786 11.9003 16.1786 11.7491 16.0913L8.63778 14.2956C8.48661 14.2083 8.39346 14.0471 8.39346 13.8725V10.281C8.39346 10.1065 8.4866 9.94522 8.63778 9.85798L11.7491 8.06221C11.9003 7.97497 12.0866 7.97497 12.2378 8.06221L15.3491 9.85798C15.5003 9.94522 15.5935 10.1065 15.5935 10.281V13.8725ZM13.0137 11.4908C12.9595 11.3977 12.8402 11.3657 12.7467 11.4193L11.9983 11.8513L11.2499 11.4193C11.1564 11.3657 11.0371 11.3977 10.9829 11.4908C10.9293 11.5843 10.9612 11.7036 11.0544 11.7578L11.8028 12.1898V13.0538C11.804 13.1608 11.8912 13.247 11.9983 13.247C12.1054 13.247 12.1926 13.1608 12.1937 13.0538V12.1898L12.9422 11.7578C13.0354 11.7036 13.0673 11.5843 13.0137 11.4908ZM13.0137 14.5717C12.9593 14.4787 12.8402 14.4469 12.7467 14.5004L12.1937 14.8185V14.182C12.1926 14.0749 12.1054 13.9887 11.9983 13.9887C11.8912 13.9887 11.804 14.0749 11.8028 14.182V14.8185L11.2499 14.5004C11.1567 14.4464 11.0375 14.4782 10.9835 14.5713C10.9295 14.6644 10.9613 14.7837 11.0544 14.8377L11.9007 15.3246C11.9028 15.3257 11.9049 15.3266 11.907 15.3277C11.9096 15.3291 11.9121 15.3305 11.9147 15.3317C11.9173 15.3329 11.9198 15.3341 11.9224 15.3351C11.9237 15.3356 11.9252 15.3361 11.9265 15.3366C11.9279 15.3372 11.9298 15.338 11.9315 15.3386C11.9343 15.3396 11.9372 15.3406 11.94 15.3415L11.9419 15.342L11.9453 15.3429L11.9493 15.344C11.9522 15.3448 11.9552 15.3456 11.9582 15.3462C11.9597 15.3465 11.9612 15.3467 11.9627 15.347L11.9682 15.3479C11.9711 15.3484 11.9739 15.3488 11.9768 15.3492C11.9785 15.3493 11.9802 15.3494 11.9819 15.3496C11.9839 15.3497 11.986 15.3499 11.9881 15.35C11.9907 15.3501 11.9932 15.3502 11.9958 15.3503C11.9966 15.3503 11.9974 15.3503 11.9982 15.3503C11.999 15.3503 11.9998 15.3503 12.0006 15.3503C12.0032 15.3503 12.0057 15.3501 12.0083 15.35C12.0104 15.35 12.0125 15.3497 12.0146 15.3496C12.0162 15.3494 12.0179 15.3493 12.0196 15.3492C12.0225 15.3488 12.0254 15.3484 12.0283 15.3479L12.0331 15.3471C12.0345 15.3468 12.0367 15.3465 12.0382 15.3462C12.0412 15.3456 12.0442 15.3448 12.0471 15.344L12.0511 15.3429L12.0545 15.342L12.0564 15.3415C12.0593 15.3406 12.0621 15.3396 12.0649 15.3386C12.0666 15.338 12.0682 15.3373 12.0699 15.3366C12.0715 15.336 12.0725 15.3356 12.0738 15.3351C12.0764 15.334 12.0792 15.3329 12.0817 15.3317C12.0842 15.3305 12.0869 15.3291 12.0894 15.3277C12.0915 15.3266 12.0937 15.3257 12.0957 15.3246L12.942 14.8377C13.0351 14.7839 13.0673 14.6649 13.0137 14.5717ZM14.6882 12.4628C14.5803 12.4624 14.4923 12.5492 14.4913 12.6572L14.4877 13.2955L13.935 12.9731C13.8747 12.9377 13.8001 12.9372 13.7394 12.9717C13.6786 13.0062 13.6409 13.0705 13.6404 13.1404C13.64 13.2103 13.6769 13.2751 13.7372 13.3104L14.2899 13.6328L13.7339 13.9488C13.6714 13.9825 13.6321 14.0474 13.6313 14.1184C13.6304 14.1894 13.6681 14.2552 13.7296 14.2905C13.7912 14.3257 13.8671 14.3248 13.9279 14.2881L14.7789 13.8044C14.781 13.8032 14.7828 13.8019 14.7848 13.8007C14.7872 13.7991 14.7898 13.7976 14.7922 13.796C14.7946 13.7943 14.7968 13.7928 14.799 13.7912C14.7989 13.7912 14.7991 13.7911 14.799 13.7912C14.8001 13.7903 14.8014 13.7893 14.8025 13.7884C14.8036 13.7875 14.8053 13.7862 14.8067 13.7851C14.8091 13.7832 14.8113 13.7812 14.8136 13.7792C14.814 13.7788 14.8145 13.7783 14.815 13.7779C14.8158 13.7771 14.8166 13.7762 14.8175 13.7755C14.8183 13.7747 14.8195 13.7736 14.8205 13.7726C14.8226 13.7704 14.8248 13.7682 14.8269 13.766C14.8279 13.7648 14.8288 13.7636 14.8298 13.7625C14.8309 13.7612 14.8324 13.7596 14.8334 13.7582C14.8352 13.7559 14.8371 13.7537 14.8389 13.7514C14.8399 13.75 14.8408 13.7486 14.8418 13.7472C14.8427 13.7459 14.8442 13.7438 14.8453 13.742C14.8467 13.7399 14.8481 13.7378 14.8494 13.7355C14.8499 13.7348 14.8504 13.7342 14.8508 13.7335C14.8512 13.7328 14.8515 13.732 14.8519 13.7313C14.8532 13.7291 14.8543 13.7268 14.8556 13.7245C14.8565 13.7227 14.8575 13.7208 14.8584 13.7189C14.8592 13.717 14.8599 13.7159 14.8605 13.7144C14.8617 13.7117 14.8628 13.709 14.8639 13.7063C14.8645 13.7048 14.865 13.7032 14.8656 13.7017C14.8661 13.7002 14.867 13.6982 14.8674 13.6968C14.8684 13.6939 14.8692 13.6909 14.8701 13.688C14.8705 13.6867 14.8708 13.6853 14.8711 13.684C14.8715 13.6827 14.8718 13.6816 14.872 13.6806C14.8722 13.6799 14.8724 13.6793 14.8725 13.6787C14.8732 13.6758 14.8737 13.6728 14.8743 13.6699C14.8746 13.6681 14.8749 13.6664 14.8751 13.6646C14.8754 13.6628 14.8756 13.6619 14.8758 13.6605C14.8758 13.6606 14.8758 13.6604 14.8758 13.6605C14.8761 13.6577 14.8765 13.6546 14.8767 13.6519C14.8769 13.6491 14.8771 13.6461 14.8772 13.6432C14.8772 13.6408 14.8776 13.6385 14.8776 13.6362L14.883 12.6594C14.8832 12.5514 14.7962 12.4636 14.6882 12.4628ZM10.2503 13.9564L9.69572 13.6404L10.247 13.3181C10.3401 13.2637 10.3714 13.144 10.3169 13.0509C10.2625 12.9578 10.1428 12.9264 10.0497 12.9809L9.49847 13.3032L9.49506 12.665C9.49446 12.5571 9.4065 12.4701 9.29859 12.4707C9.19069 12.4713 9.10369 12.5593 9.10429 12.6672L9.10971 13.6438C9.10971 13.6462 9.11 13.6484 9.1101 13.6508C9.11024 13.6537 9.11034 13.6566 9.1106 13.6595C9.11087 13.6624 9.11113 13.665 9.11149 13.6678C9.11148 13.6677 9.11148 13.6679 9.11149 13.6678C9.11168 13.6692 9.11192 13.6708 9.11214 13.6722C9.11242 13.674 9.11267 13.6757 9.11298 13.6775C9.11353 13.6804 9.11408 13.6834 9.11475 13.6863C9.1149 13.6869 9.11509 13.6876 9.11523 13.6882C9.11552 13.6893 9.11583 13.6904 9.11615 13.6916C9.11646 13.6928 9.11682 13.6943 9.1172 13.6956C9.11804 13.6985 9.11886 13.7015 9.11984 13.7044C9.12032 13.7058 9.12092 13.7072 9.12143 13.7087C9.12134 13.7085 9.1215 13.7089 9.12143 13.7087C9.12198 13.7102 9.12277 13.7124 9.12339 13.7139C9.12445 13.7166 9.1255 13.7193 9.12671 13.722C9.12738 13.7235 9.12815 13.725 9.12887 13.7265C9.12978 13.7284 9.13071 13.7303 9.13167 13.7321C9.13285 13.7345 9.13407 13.7367 9.1353 13.7389C9.1357 13.7396 9.13602 13.7404 9.13643 13.7411C9.13686 13.7418 9.13736 13.7424 9.13777 13.7432C9.13909 13.7454 9.14053 13.7475 9.14192 13.7497C9.14307 13.7514 9.14432 13.7531 9.14542 13.7548C9.14653 13.7565 9.14732 13.7576 9.14833 13.7589C9.15006 13.7613 9.15191 13.7636 9.15375 13.7658C9.15479 13.7671 9.15587 13.7683 9.15692 13.7696C9.15791 13.7707 9.15927 13.7725 9.16028 13.7735C9.16232 13.7759 9.16451 13.778 9.16667 13.7802C9.16765 13.7811 9.16863 13.7821 9.16964 13.783C9.17065 13.784 9.1713 13.7847 9.17204 13.7854C9.17252 13.7859 9.17295 13.7864 9.17343 13.7868C9.17564 13.7888 9.17795 13.7907 9.18027 13.7927C9.18164 13.7938 9.18306 13.7949 9.18445 13.796C9.18584 13.7971 9.18661 13.7978 9.18774 13.7986C9.18997 13.8003 9.19246 13.802 9.19477 13.8036C9.19707 13.8051 9.19957 13.8067 9.20209 13.8084C9.20411 13.8096 9.20595 13.811 9.20802 13.8121L10.0567 14.2957C10.1174 14.3303 10.1918 14.3299 10.2521 14.2947C10.3123 14.2595 10.3492 14.1948 10.3488 14.125C10.3485 14.0552 10.3109 13.9909 10.2503 13.9564ZM10.058 9.86458L9.20924 10.3482C9.20718 10.3494 9.20531 10.3507 9.20331 10.352C9.20091 10.3535 9.19837 10.355 9.19599 10.3567C9.19362 10.3583 9.19141 10.3598 9.18918 10.3615C9.18805 10.3623 9.18678 10.3634 9.18567 10.3642C9.18457 10.3651 9.18287 10.3664 9.1815 10.3676C9.1791 10.3695 9.17687 10.3714 9.17466 10.3734C9.17418 10.3738 9.17372 10.3743 9.17324 10.3748L9.17084 10.3772C9.16986 10.3781 9.16887 10.3791 9.16789 10.3801C9.16573 10.3822 9.16355 10.3844 9.16148 10.3867C9.16047 10.3878 9.15956 10.3891 9.15858 10.3901C9.15749 10.3914 9.156 10.3931 9.15498 10.3944C9.15313 10.3967 9.15128 10.3989 9.14953 10.4013C9.14855 10.4026 9.14761 10.404 9.14665 10.4054C9.14569 10.4067 9.14425 10.4088 9.14315 10.4106C9.14173 10.4127 9.14031 10.4149 9.13899 10.4171C9.13856 10.4178 9.13806 10.4184 9.13765 10.4191C9.13724 10.4198 9.13693 10.4206 9.13652 10.4213C9.13525 10.4235 9.13412 10.4258 9.1329 10.4281C9.13194 10.43 9.13098 10.4318 9.13009 10.4337C9.12937 10.4352 9.1286 10.4367 9.1279 10.4382C9.12673 10.4409 9.12567 10.4436 9.12459 10.4463C9.12399 10.4479 9.12344 10.4494 9.12287 10.451C9.12234 10.4524 9.12152 10.4544 9.12104 10.4558C9.12008 10.4587 9.11927 10.4617 9.11843 10.4646C9.11804 10.466 9.11771 10.4673 9.11737 10.4686C9.11703 10.4699 9.11672 10.4709 9.11646 10.472C9.11631 10.4726 9.1161 10.4733 9.11595 10.4739C9.11528 10.4768 9.11475 10.4798 9.1142 10.4827C9.11389 10.4845 9.11365 10.4862 9.11336 10.488C9.11315 10.4894 9.11288 10.4907 9.11271 10.4921C9.1127 10.492 9.1127 10.4922 9.11271 10.4921C9.11235 10.4949 9.11207 10.4979 9.1118 10.5007C9.11154 10.5035 9.11144 10.5065 9.11132 10.5094C9.11132 10.5118 9.11094 10.5141 9.11094 10.5164L9.10551 11.493C9.10525 11.6008 9.19212 11.6886 9.29991 11.6894C9.40767 11.6897 9.49544 11.6029 9.49638 11.4952L9.49991 10.8571L10.0511 11.1793C10.1114 11.2145 10.1858 11.215 10.2465 11.1804C10.3071 11.1459 10.3447 11.0816 10.3451 11.0118C10.3455 10.942 10.3086 10.8773 10.2484 10.8421L9.6969 10.52L10.2515 10.204C10.3121 10.1694 10.3497 10.1051 10.35 10.0353C10.3504 9.96554 10.3135 9.90085 10.2533 9.86564C10.193 9.83042 10.1186 9.83002 10.058 9.86458ZM14.8772 10.5011C14.8772 10.4982 14.8769 10.4953 14.8767 10.4924C14.8764 10.4895 14.8761 10.4868 14.8758 10.4841C14.8758 10.4842 14.8758 10.484 14.8758 10.4841C14.8756 10.4827 14.8753 10.481 14.8751 10.4797C14.8749 10.4783 14.8746 10.4761 14.8743 10.4744C14.8737 10.4714 14.8732 10.4685 14.8725 10.4656C14.8725 10.4649 14.8722 10.4643 14.872 10.4637C14.8717 10.4625 14.8714 10.4614 14.8711 10.4603C14.8708 10.4591 14.8704 10.4576 14.87 10.4563C14.8692 10.4533 14.8684 10.4504 14.8674 10.4475C14.8669 10.446 14.8663 10.4446 14.8658 10.4432C14.8652 10.4416 14.8645 10.4395 14.8639 10.438C14.8628 10.4353 14.8617 10.4325 14.8605 10.4299C14.8598 10.4283 14.8591 10.4269 14.8583 10.4253C14.8576 10.4238 14.8565 10.4216 14.8555 10.4198C14.8544 10.4174 14.8531 10.4152 14.8519 10.4129C14.8515 10.4122 14.8512 10.4115 14.8508 10.4107C14.8503 10.41 14.8498 10.4094 14.8494 10.4087C14.8481 10.4065 14.8467 10.4043 14.8453 10.4022C14.8441 10.4005 14.8429 10.3987 14.8417 10.397C14.8406 10.3953 14.8398 10.3942 14.8388 10.3929C14.8371 10.3905 14.8352 10.3883 14.8334 10.386C14.8323 10.3848 14.8313 10.3836 14.8302 10.3823C14.8292 10.3812 14.8279 10.3794 14.8268 10.3783C14.8248 10.3759 14.8226 10.3739 14.8204 10.3717C14.8195 10.3707 14.8185 10.3698 14.8175 10.3688C14.8165 10.3678 14.8158 10.3671 14.8149 10.3664C14.8145 10.366 14.814 10.3655 14.8135 10.365C14.8113 10.363 14.809 10.3611 14.8067 10.3592C14.8053 10.358 14.8039 10.357 14.8025 10.3559C14.8011 10.3548 14.8003 10.3541 14.7992 10.3532C14.7993 10.3533 14.7991 10.3532 14.7992 10.3532C14.7969 10.3516 14.7945 10.3498 14.7921 10.3483C14.7898 10.3468 14.7873 10.3451 14.7848 10.3436C14.7828 10.3424 14.7809 10.341 14.7789 10.3398L13.9279 9.85599C13.8672 9.82051 13.7921 9.82035 13.7312 9.85556C13.6704 9.89078 13.6332 9.95596 13.6337 10.0263C13.6342 10.0966 13.6725 10.1612 13.7338 10.1954L14.2899 10.5115L13.7372 10.8338C13.6768 10.8691 13.64 10.9339 13.6404 11.0038C13.6408 11.0737 13.6786 11.1381 13.7393 11.1726C13.8001 11.2071 13.8747 11.2065 13.935 11.1711L14.4877 10.8488L14.4912 11.4871C14.4918 11.5953 14.58 11.6825 14.6882 11.6819C14.7964 11.6813 14.8837 11.5931 14.8831 11.4849L14.8776 10.5081C14.8776 10.5057 14.8772 10.5034 14.8772 10.5011ZM10.9826 9.58208C11.037 9.67502 11.1561 9.70682 11.2496 9.65336L11.8027 9.33524V9.97172C11.8039 10.0788 11.891 10.165 11.9981 10.165C12.1053 10.165 12.1924 10.0788 12.1936 9.97172V9.33524L12.7467 9.65336C12.807 9.68914 12.8819 9.68977 12.9427 9.65501C13.0036 9.62026 13.0412 9.55548 13.0411 9.48536C13.0409 9.41524 13.0032 9.35059 12.9421 9.31606L12.0957 8.82917C12.0937 8.828 12.0915 8.82709 12.0895 8.82601C12.0869 8.82464 12.0843 8.82327 12.0817 8.82205C12.0791 8.82082 12.0766 8.81965 12.0741 8.81864C12.0728 8.81809 12.0712 8.81763 12.0699 8.8171C12.0686 8.81657 12.0666 8.81578 12.0649 8.81518C12.0621 8.81415 12.0593 8.81314 12.0564 8.81225L12.0545 8.81173C12.0534 8.81139 12.0523 8.8111 12.0512 8.81079L12.0472 8.80969C12.0442 8.80892 12.0412 8.80815 12.0382 8.80753C12.0368 8.80721 12.0352 8.80702 12.0337 8.80676L12.0283 8.80592C12.0254 8.80549 12.0225 8.80501 12.0196 8.80469C12.0179 8.80453 12.0163 8.80443 12.0146 8.80429C12.0125 8.80412 12.0104 8.804 12.0083 8.80388C12.0058 8.80388 12.0032 8.80361 12.0006 8.80359C11.9998 8.80359 11.999 8.80345 11.9982 8.80345C11.9975 8.80345 11.9966 8.80357 11.9958 8.80359C11.9933 8.80359 11.9907 8.80376 11.9881 8.80388C11.986 8.80388 11.984 8.80412 11.9819 8.80429C11.9802 8.80443 11.9785 8.80453 11.9768 8.80469C11.974 8.80501 11.9711 8.80549 11.9682 8.80592L11.9634 8.80676C11.9619 8.80702 11.9597 8.80721 11.9582 8.80753C11.9552 8.80815 11.9523 8.80892 11.9493 8.80969L11.9453 8.81079C11.9442 8.8111 11.9429 8.81139 11.942 8.81173L11.9401 8.81225C11.9372 8.81314 11.9344 8.81415 11.9315 8.81518C11.9299 8.81578 11.9282 8.81645 11.9266 8.8171C11.9253 8.81763 11.924 8.81809 11.9226 8.81864C11.9201 8.81972 11.9173 8.82085 11.9147 8.82205C11.9122 8.82325 11.9096 8.82464 11.907 8.82601C11.9049 8.82709 11.9028 8.828 11.9007 8.82917L11.0541 9.31606C10.961 9.36981 10.929 9.48885 10.9826 9.58208Z" fill="currentColor"/>
</svg>
