<svg width="24" height="24" viewBox="0 0 24 24" fill="currentColor" xmlns="http://www.w3.org/2000/svg">
<path fill-rule="evenodd" clip-rule="evenodd" d="M6.57056 20.4H17.4295C17.7446 20.4 18 20.1446 18 19.8295V4.1706C18 3.8555 17.7446 3.60006 17.4295 3.60005H6.57056C6.25546 3.60006 6.00003 3.8555 6.00001 4.1706V5.4295C6 5.7446 5.74456 6.00004 5.42946 6.00005H4.77056C4.45546 6.00004 4.20001 5.7446 4.20001 5.4295V3.0535C4.20001 2.36122 4.76126 1.80005 5.45353 1.80005H18.6183C19.2709 1.80005 19.8 2.32912 19.8 2.98176V20.8987C19.8 21.2438 19.6629 21.5748 19.4189 21.8189C19.1748 22.063 18.8438 22.2001 18.4987 22.2001H5.45636C4.7625 22.2001 4.20001 21.6376 4.20001 20.9437V18.5706C4.20001 18.2555 4.45546 18.0001 4.77056 18H5.42946C5.74456 18.0001 6 18.2555 6.00001 18.5706V19.8295C6.00003 20.1446 6.25546 20.4 6.57056 20.4ZM9.60001 9.00005H5.40001C4.79663 9.00005 4.20001 9.61654 4.20001 10.2V13.8C4.20001 14.3836 4.79663 15 5.40001 15H9.60001V18L15.2031 12.948C15.4569 12.693 15.5996 12.3479 15.6 11.988C15.5995 11.6282 15.4568 11.2831 15.203 11.028L9.60001 6.00005V9.00005Z" fill="currentColor"/>
</svg>
