<svg width="24" height="24" viewBox="0 0 24 24" fill="currentColor" xmlns="http://www.w3.org/2000/svg">
<path fill-rule="evenodd" clip-rule="evenodd" d="M16.5 6.00001C16.9506 5.3996 16.8879 4.55854 16.3533 4.03161C15.8186 3.50467 14.9767 3.45417 14.3829 3.91342C14.2561 2.85996 13.4526 2.01479 12.4069 1.83486C11.3612 1.65494 10.3214 2.18295 9.84972 3.13342C9.38881 2.50693 8.57763 2.24737 7.83864 2.48992C7.09966 2.73246 6.60006 3.42224 6.60005 4.20001C6.60005 4.2349 6.6013 4.26961 6.60324 4.30393C5.96199 4.07577 5.24689 4.22882 4.7552 4.69946C4.26351 5.1701 4.07934 5.87783 4.27924 6.52844C4.47914 7.17906 5.02892 7.66127 5.70005 7.77464V7.80001H10.8H11.5327L11.6348 8.88793C11.6355 8.89578 11.6749 9.31232 11.7712 10.1999H16.5C17.655 10.1932 18.5878 9.25497 18.5878 8.09997C18.5878 6.94497 17.655 6.00677 16.5 6.00001ZM21 16.2V11.4H19.8V16.2H16.974C16.9648 16.1254 16.2 11.4 16.2 11.4H11.9044C11.9841 12.1038 12.084 12.9642 12.2075 13.993C12.6294 17.5085 13.3409 21.367 13.348 21.4056L13.384 21.6H12.1636C12.1029 21.2694 11.428 17.5686 11.016 14.136C10.5837 10.5327 10.44 9.00001 10.44 9.00001H3.52805C3.52805 9.00001 3.37222 10.6345 2.95205 14.136C2.52934 17.6586 1.86504 21.2733 1.80451 21.6H1.80005V22.8H22.2001V16.2H21ZM19.8 18H21V19.2H19.8V18ZM17.4 18H18.6V19.2H17.4V18ZM15 18H16.2V19.2H15V18ZM15 21.6V20.4H16.2V21.6H15ZM17.4 21.6V20.4H18.6V21.6H17.4ZM19.8 21.6V20.4H21V21.6H19.8Z" fill="currentColor"/>
</svg>
