<svg width="24" height="24" viewBox="0 0 24 24" fill="currentColor" xmlns="http://www.w3.org/2000/svg">
<path fill-rule="evenodd" clip-rule="evenodd" d="M19.2945 12.5654C19.1621 12.2817 18.8928 12.0863 18.5821 12.0483C17.6053 11.9285 17.0415 11.8026 16.649 11.4512C16.2854 11.1257 16.1899 10.6944 16.1498 10.3982C16.1017 10.043 16.1036 9.62276 16.1063 9.04114C16.107 8.89973 16.1077 8.75352 16.1077 8.5963C16.1077 8.55022 15.9253 8.32539 15.0829 8.14661C14.3487 7.99083 13.3062 7.91185 11.984 7.91185H11.9784C10.6543 7.91185 9.61037 7.99105 8.87554 8.14664C8.03122 8.32553 7.84834 8.55082 7.84834 8.59666C7.84834 8.75326 7.84901 8.89906 7.84966 9.03997C7.85235 9.61973 7.85429 10.0386 7.80608 10.3937C7.76592 10.6895 7.6706 11.1204 7.30788 11.4466C6.9134 11.8015 6.35156 11.9282 5.38025 12.0475C5.06953 12.0856 4.80032 12.281 4.66781 12.5646L3.23261 15.6398C3.06755 15.9935 2.982 16.3791 2.982 16.7694V18.5915C2.98393 19.2449 3.51305 19.774 4.16638 19.776H19.7954C20.4489 19.7742 20.9782 19.245 20.9801 18.5915V16.7694C20.9801 16.3791 20.8945 15.9935 20.7295 15.6398L19.2945 12.5654ZM15.0157 15.9456L13.6704 15.5907C13.3091 15.4955 13.0346 15.9147 13.2664 16.2078L14.0691 17.222C12.7848 18.2797 10.9132 18.2131 9.70729 17.0669C8.50135 15.9207 8.33991 14.055 9.33105 12.7186C10.3222 11.3823 12.1545 10.9953 13.6014 11.8166C15.0483 12.638 15.6551 14.4096 15.0157 15.9456ZM22.1519 9.96149C22.1519 9.95302 22.1519 9.94469 22.1519 9.9361C22.1517 9.90425 22.1514 9.87195 22.1511 9.83902C22.1511 9.83501 22.1511 9.83086 22.1509 9.82683C22.1506 9.79779 22.1502 9.76833 22.1498 9.73846C22.1497 9.72706 22.1495 9.71547 22.1493 9.70395C22.1489 9.68026 22.1485 9.65638 22.1481 9.63217C22.1479 9.62017 22.1477 9.60817 22.1475 9.59602C22.147 9.56989 22.1465 9.54344 22.146 9.51665C22.1458 9.50705 22.1456 9.49745 22.1454 9.48785C22.1447 9.45154 22.144 9.4148 22.1432 9.37745C22.143 9.36946 22.1428 9.36123 22.1426 9.35321C22.142 9.3218 22.1413 9.29016 22.1406 9.25796C22.1399 9.22354 22.1391 9.18866 22.1382 9.15332C22.1379 9.13791 22.1375 9.1226 22.1372 9.107C22.1366 9.07738 22.1359 9.04744 22.1353 9.01716C22.135 9.00408 22.1347 8.9912 22.1345 8.978C22.1336 8.93533 22.1327 8.89217 22.1318 8.84825C22.1318 8.84739 22.1318 8.84648 22.1318 8.84561C22.131 8.80373 22.1302 8.76116 22.1294 8.71812C22.1292 8.7055 22.129 8.69269 22.1288 8.67997C22.1282 8.64761 22.1276 8.61495 22.1271 8.58197C22.1269 8.56693 22.1266 8.55181 22.1264 8.53661C22.1259 8.50383 22.1255 8.4707 22.125 8.43723C22.1248 8.42297 22.1246 8.40886 22.1244 8.39448C22.1238 8.34699 22.1233 8.29904 22.1228 8.25027C22.1145 8.07076 22.0745 7.89414 22.0047 7.72856C21.9323 7.5562 21.8389 7.39345 21.7265 7.24402C21.6099 7.08792 21.4801 6.94205 21.3386 6.80799L21.3348 6.80429C21.2299 6.70407 21.115 6.60487 20.9901 6.50669C20.9002 6.43607 20.8053 6.36614 20.7053 6.29691C20.5652 6.20008 20.4155 6.10497 20.256 6.0116C20.1877 5.9716 20.1176 5.93202 20.0457 5.89287C19.9739 5.85372 19.9003 5.81495 19.8249 5.77657C19.7748 5.75097 19.7238 5.7256 19.6721 5.70046C19.6462 5.68789 19.6201 5.67536 19.5939 5.66288C19.5152 5.62544 19.4347 5.58848 19.3526 5.552C19.2431 5.50337 19.1307 5.45566 19.0152 5.40886C18.9864 5.39718 18.9574 5.38556 18.9281 5.37399C18.8404 5.33929 18.7511 5.30515 18.6601 5.27158C18.5994 5.24918 18.5381 5.22707 18.4759 5.20525C18.4449 5.19435 18.4137 5.1835 18.3823 5.1727C18.3195 5.15115 18.256 5.12987 18.1918 5.10886C18.1596 5.09835 18.1273 5.08795 18.0949 5.07766C18.0299 5.05697 17.9642 5.03657 17.8978 5.01644C17.6987 4.95609 17.4933 4.89853 17.2816 4.84378C17.2463 4.83466 17.2108 4.82564 17.1752 4.81671C16.9615 4.76305 16.7417 4.71249 16.5157 4.66505C16.4404 4.64926 16.3644 4.63385 16.2877 4.61881C16.1728 4.59625 16.0563 4.57453 15.9384 4.55367C15.7812 4.52588 15.6214 4.49967 15.459 4.47505C15.2965 4.45042 15.1316 4.42749 14.9641 4.40624C14.8803 4.3956 14.7959 4.38541 14.7109 4.37566C14.5449 4.35661 14.3765 4.33925 14.2057 4.32361C14.1579 4.31924 14.1099 4.31499 14.0617 4.31086C13.9705 4.30309 13.8786 4.29582 13.786 4.28907C13.6576 4.27968 13.528 4.27128 13.3971 4.26387L13.3821 4.26303C13.2498 4.25564 13.1161 4.24924 12.9812 4.24383C12.9314 4.24186 12.8814 4.24005 12.8312 4.23838C12.6933 4.23377 12.5541 4.23028 12.4136 4.22789H12.4088C12.2667 4.22532 12.1232 4.22401 11.9784 4.22401C11.1507 4.22307 10.3235 4.26634 9.50045 4.35363C9.32765 4.37221 9.15731 4.39261 8.98942 4.41483C8.45129 4.48601 7.93901 4.57544 7.45402 4.68008L7.40914 4.68985C7.16356 4.74349 6.92516 4.80093 6.69394 4.86217C6.63932 4.87657 6.58509 4.8912 6.53127 4.90606C6.40116 4.94192 6.27342 4.97885 6.14806 5.01687C6.04712 5.04749 5.94775 5.0788 5.84996 5.11078C5.79585 5.12849 5.74224 5.14641 5.68916 5.16452C5.66719 5.17201 5.64532 5.17951 5.62354 5.18703C5.51941 5.22308 5.41721 5.25983 5.31694 5.29729C5.23222 5.32895 5.14892 5.36108 5.06703 5.39367C4.94397 5.44265 4.82415 5.49263 4.70756 5.54362C4.68284 5.55442 4.65826 5.56527 4.63383 5.57617C4.57609 5.60189 4.51917 5.62785 4.46307 5.65405C4.43773 5.66587 4.41254 5.67775 4.38752 5.68969C4.36006 5.70277 4.3328 5.71591 4.30575 5.72909C4.28 5.74167 4.25441 5.75428 4.22895 5.76692C4.14196 5.81026 4.05716 5.85412 3.97455 5.89849C3.90876 5.93381 3.84441 5.96944 3.78152 6.00536C3.76526 6.01462 3.74911 6.02389 3.73306 6.03317C3.63197 6.09173 3.53468 6.15093 3.4412 6.21077C3.42896 6.2186 3.41679 6.22642 3.40469 6.23425C3.28789 6.31004 3.17724 6.38666 3.07275 6.46412C3.06512 6.46977 3.05752 6.47541 3.04995 6.48104C3.01748 6.50533 2.98564 6.52969 2.9544 6.55412C2.94744 6.55954 2.94058 6.56499 2.93372 6.57041C2.22408 7.13077 1.84145 7.72001 1.83382 8.25111C1.83365 8.30254 1.83339 8.35304 1.83312 8.40303C1.83312 8.4164 1.83298 8.42943 1.83288 8.44277C1.83268 8.48057 1.83244 8.51795 1.83219 8.55493C1.83209 8.5676 1.832 8.58022 1.83192 8.5928C1.83162 8.63489 1.8313 8.67649 1.83096 8.7176C1.83096 8.7224 1.83096 8.72741 1.83096 8.73226C1.82873 9.00519 1.82602 9.25402 1.8248 9.4808C1.8248 9.49133 1.8248 9.50192 1.82463 9.51236C1.82434 9.53676 1.82434 9.56091 1.82434 9.58481C1.82434 9.59667 1.82434 9.60836 1.82434 9.62009C1.82434 9.64368 1.82434 9.66725 1.82434 9.69034C1.82434 9.69725 1.82434 9.70395 1.82434 9.71079C1.82434 9.7569 1.82434 9.80197 1.82475 9.84598C1.82475 9.85635 1.82475 9.86686 1.82492 9.87718C1.82506 9.89777 1.82525 9.91798 1.82547 9.93819C1.82558 9.94981 1.82571 9.96136 1.82585 9.97284C1.82609 9.99286 1.82637 10.0127 1.82669 10.0323C1.82686 10.0427 1.82705 10.0528 1.82724 10.0631C1.82844 10.1288 1.8301 10.1921 1.83221 10.2529C1.83257 10.2631 1.83293 10.2734 1.83332 10.2835C1.83399 10.3007 1.83471 10.3177 1.83545 10.3345C1.83591 10.3447 1.83639 10.3548 1.83689 10.3648C1.83771 10.3816 1.83852 10.3984 1.83944 10.4148C1.83989 10.4231 1.84042 10.4311 1.84092 10.4393C1.84281 10.4709 1.8449 10.5019 1.84719 10.532C1.84779 10.5399 1.84834 10.5479 1.84896 10.5557C1.85016 10.5706 1.85136 10.5852 1.8528 10.5997C1.85364 10.6089 1.85448 10.6181 1.85535 10.6272C1.85672 10.6414 1.85815 10.6554 1.85962 10.6692C1.86056 10.678 1.86156 10.6866 1.86255 10.6952C1.86413 10.7091 1.86572 10.723 1.86735 10.7365C1.86766 10.7389 1.86802 10.7413 1.86836 10.7439C1.8722 10.7735 1.87637 10.8021 1.88086 10.83C1.88213 10.838 1.8834 10.846 1.88472 10.854C1.88676 10.866 1.8889 10.8776 1.89106 10.8892C1.89256 10.8972 1.8941 10.9052 1.89567 10.9132C1.8979 10.9245 1.90018 10.9358 1.90256 10.9468C1.90419 10.9544 1.90594 10.9618 1.90764 10.9692C1.9122 10.9892 1.917 11.0086 1.92204 11.0275C1.92384 11.0342 1.92557 11.0411 1.92742 11.0477C1.93018 11.0575 1.93311 11.0669 1.93601 11.0765C1.93822 11.0837 1.9404 11.0909 1.94271 11.0981C1.94568 11.1073 1.94873 11.1163 1.95185 11.1252C1.95425 11.1322 1.95684 11.1391 1.95939 11.1459C1.96258 11.1545 1.96575 11.1632 1.96899 11.1715C1.97189 11.1787 1.97494 11.1857 1.97794 11.1927C1.98373 11.2063 1.98974 11.2195 1.99596 11.2324C1.9992 11.2391 2.0024 11.2458 2.00573 11.2523C2.00943 11.2595 2.01329 11.2665 2.01713 11.2735C2.02057 11.2797 2.02407 11.2859 2.02762 11.2919C2.03158 11.2986 2.03556 11.3053 2.03962 11.3118C2.04368 11.3183 2.04756 11.3239 2.05162 11.3299C2.05568 11.3359 2.05956 11.3419 2.06362 11.3478C2.07117 11.3583 2.07896 11.3684 2.087 11.3783C2.09124 11.3836 2.09571 11.3886 2.1001 11.3936C2.1049 11.3992 2.1097 11.4048 2.11476 11.4101C2.11983 11.4155 2.1242 11.4201 2.12902 11.4249C2.13384 11.4298 2.13941 11.4352 2.14474 11.4402C2.14954 11.4447 2.15434 11.4493 2.15928 11.4536C2.16591 11.4595 2.17275 11.465 2.17961 11.4706C2.18601 11.4758 2.19257 11.4809 2.19929 11.4859C2.20709 11.4917 2.21494 11.4974 2.22305 11.5028C2.22824 11.5063 2.23359 11.5097 2.23889 11.513C2.24573 11.5173 2.25262 11.5216 2.25968 11.5257C2.26521 11.5289 2.27081 11.5321 2.27648 11.5353C2.28411 11.5394 2.29193 11.5435 2.29983 11.5473C2.30506 11.5499 2.31022 11.5526 2.31555 11.5551C2.32827 11.5611 2.34128 11.5668 2.35464 11.5723C2.35944 11.5741 2.36424 11.5759 2.36904 11.5777C2.37864 11.5814 2.38851 11.5851 2.39852 11.5885C2.40454 11.5906 2.41071 11.5926 2.41685 11.5946C2.42631 11.5976 2.43591 11.6005 2.44565 11.6034C2.45177 11.6052 2.45789 11.6069 2.46413 11.6086C2.47613 11.6118 2.48813 11.6148 2.50049 11.6177C2.50472 11.6187 2.50882 11.6198 2.51309 11.6208C2.52944 11.6244 2.54624 11.6278 2.56335 11.6309C2.56918 11.632 2.5752 11.6329 2.58113 11.634C2.59335 11.636 2.60571 11.638 2.61833 11.6399C2.6251 11.6409 2.63194 11.6418 2.63885 11.6427C2.65176 11.6445 2.66494 11.6461 2.67826 11.6475C2.68448 11.6482 2.69062 11.649 2.69693 11.6496C2.71637 11.6516 2.73612 11.6534 2.7564 11.6549L2.76461 11.6554C2.78268 11.6567 2.80108 11.6578 2.81981 11.6587C2.8268 11.6591 2.83392 11.6593 2.841 11.6597C2.85622 11.6603 2.87164 11.6608 2.88728 11.6612C2.89484 11.6614 2.90237 11.6617 2.91003 11.6618C2.92762 11.6621 2.94555 11.6623 2.96369 11.6624C2.96909 11.6624 2.97435 11.6626 2.97977 11.6626C3.00432 11.6626 3.02936 11.6624 3.05489 11.662L3.06716 11.6617C3.08876 11.6613 3.11079 11.6608 3.1332 11.6601C3.14256 11.6598 3.15221 11.6594 3.16172 11.6591C3.17931 11.6585 3.19697 11.6578 3.21502 11.657C3.22584 11.6565 3.23686 11.656 3.24785 11.6555C3.26531 11.6546 3.28291 11.6537 3.30065 11.6527L3.33492 11.6508C3.35321 11.6497 3.37172 11.6485 3.39046 11.6473L3.42512 11.6449C3.44513 11.6435 3.46551 11.642 3.486 11.6405C3.49666 11.6397 3.50715 11.639 3.51795 11.6381C3.54341 11.6362 3.56938 11.6341 3.59564 11.6319C3.60183 11.6314 3.60785 11.631 3.61409 11.6305C3.64697 11.6277 3.68046 11.6248 3.71456 11.6218L3.74052 11.6194C3.76625 11.617 3.79215 11.6148 3.81855 11.6122L3.8576 11.6085C3.8803 11.6064 3.9032 11.6042 3.92636 11.602L3.9702 11.5977C3.99304 11.5954 4.01609 11.5932 4.03937 11.5909L4.08435 11.5864L4.15755 11.579L4.20132 11.5745L4.28484 11.5659L4.32207 11.5621L4.4438 11.5495C4.58421 11.5343 4.71776 11.5197 4.84443 11.5057C4.92893 11.4963 5.01053 11.487 5.08923 11.478C5.11995 11.4744 5.14988 11.4708 5.17973 11.4673C5.22636 11.4618 5.2723 11.4563 5.31687 11.4508C5.35341 11.4463 5.38928 11.4417 5.42446 11.4372C5.5652 11.4191 5.69513 11.4009 5.81508 11.3817C5.84505 11.3769 5.87442 11.3721 5.90319 11.3672C6.01822 11.3475 6.12346 11.3268 6.21977 11.3043C6.29201 11.2874 6.35932 11.2694 6.42171 11.2503C6.44251 11.2439 6.46284 11.2374 6.48269 11.2307C6.58942 11.1963 6.69167 11.1493 6.78725 11.0906C6.84165 11.0565 6.89209 11.0164 6.93764 10.9711C7.02661 10.8803 7.09389 10.7706 7.13444 10.6501C7.22592 10.3938 7.24688 10.0453 7.25012 9.55827C7.25194 9.28433 7.24815 8.9666 7.24817 8.59683C7.24856 7.93716 8.20361 7.59982 9.48281 7.43984C9.53904 7.4328 9.59589 7.4261 9.65338 7.41975C9.75754 7.4082 9.86347 7.39772 9.97116 7.38831C10.0329 7.3829 10.0952 7.37782 10.158 7.37307C10.1948 7.37027 10.2318 7.36757 10.269 7.36498C10.4068 7.35538 10.5464 7.34725 10.6877 7.3406C10.7583 7.33724 10.8292 7.3342 10.9004 7.33148C10.936 7.3301 10.9716 7.32881 11.0074 7.32761C11.3288 7.31679 11.6548 7.31218 11.9782 7.31213H11.9836C12.0072 7.31213 12.0309 7.31213 12.0546 7.31213H12.0876L12.163 7.31249L12.1956 7.31266C12.2222 7.31282 12.2487 7.31304 12.2753 7.31331L12.3033 7.31353C12.3327 7.31385 12.3621 7.31419 12.3914 7.31456L12.411 7.3148C12.443 7.31523 12.475 7.31572 12.507 7.31626L12.5187 7.31645C12.5533 7.31703 12.5879 7.31769 12.6225 7.31842H12.6263C12.6606 7.31914 12.6949 7.31994 12.7291 7.32082H12.7341C14.5286 7.36577 16.2319 7.59202 16.6235 8.27928C16.6311 8.29258 16.6383 8.30636 16.6448 8.32004C16.6451 8.32049 16.6453 8.32093 16.6455 8.32138C16.6515 8.33389 16.657 8.34661 16.6621 8.3594C16.6628 8.36105 16.6636 8.36266 16.6642 8.3642C16.669 8.37644 16.6732 8.38887 16.6772 8.40137C16.678 8.40377 16.6789 8.40593 16.6796 8.40826C16.6829 8.41882 16.6855 8.4296 16.6882 8.44035C16.6893 8.44474 16.6906 8.44906 16.6917 8.4535C16.6938 8.46269 16.6953 8.47213 16.697 8.48146C16.6981 8.48761 16.6995 8.49365 16.7004 8.49987C16.7016 8.50752 16.7021 8.51535 16.703 8.5231C16.7039 8.53085 16.7051 8.53921 16.7057 8.54741C16.7057 8.54876 16.7057 8.55017 16.7059 8.55152C16.7068 8.56623 16.7075 8.58106 16.7075 8.59611C16.7075 11.0011 16.5491 11.2046 18.7824 11.4679C19.0017 11.4938 19.2438 11.5202 19.5117 11.5494C19.5543 11.554 19.596 11.5585 19.6373 11.5628L19.6733 11.5667C19.7027 11.5698 19.7317 11.5728 19.7605 11.5758L19.8009 11.5799C19.8297 11.5829 19.8581 11.5857 19.8863 11.5885L19.9193 11.5919C19.9577 11.5957 19.9955 11.5993 20.0325 11.6028L20.0478 11.6042C20.0794 11.6072 20.1105 11.61 20.1412 11.6127L20.1753 11.616C20.2001 11.6182 20.2247 11.6203 20.2489 11.6223C20.2603 11.6232 20.2718 11.6242 20.2832 11.6251C20.3094 11.6272 20.3352 11.6292 20.3607 11.6311L20.3844 11.6329C20.4172 11.6353 20.4494 11.6375 20.481 11.6396C20.4882 11.6401 20.4952 11.6405 20.5024 11.6409C20.5268 11.6425 20.5508 11.6439 20.5744 11.6452L20.6046 11.6468C20.6255 11.6478 20.6462 11.6488 20.6665 11.6497C20.6761 11.6502 20.686 11.6506 20.6955 11.651C20.7194 11.6519 20.7428 11.6527 20.7659 11.6534L20.7811 11.6539C20.8087 11.6546 20.8358 11.6551 20.8624 11.6555C20.8698 11.6555 20.877 11.6555 20.8843 11.6556C20.9035 11.6558 20.9227 11.6558 20.9413 11.6558C20.9503 11.6558 20.9592 11.6558 20.9681 11.6556C20.9854 11.6554 21.0026 11.6551 21.0194 11.6547C21.0276 11.6545 21.0359 11.6544 21.044 11.6541C21.0645 11.6535 21.0846 11.6527 21.1044 11.6517C21.1081 11.6515 21.1119 11.6514 21.1156 11.6512C21.1388 11.6501 21.1614 11.6486 21.1836 11.6469C21.19 11.6464 21.1962 11.6458 21.2025 11.6453C21.2184 11.644 21.234 11.6426 21.2493 11.641C21.2568 11.6402 21.2641 11.6394 21.2714 11.6386C21.2858 11.637 21.2997 11.6352 21.3136 11.6334C21.3204 11.6324 21.3273 11.6316 21.334 11.6306C21.3503 11.6282 21.3662 11.6256 21.382 11.6229C21.3855 11.6223 21.3892 11.6218 21.3927 11.6211C21.4117 11.6177 21.4302 11.614 21.4482 11.61C21.4532 11.6089 21.458 11.6076 21.4629 11.6065C21.476 11.6035 21.4889 11.6003 21.5015 11.5969C21.5074 11.5953 21.5133 11.5937 21.5191 11.5921C21.5307 11.5889 21.5421 11.5855 21.5533 11.5819C21.5587 11.5802 21.5642 11.5785 21.5696 11.5767C21.5825 11.5724 21.5951 11.5678 21.6074 11.5631C21.6105 11.562 21.6136 11.5609 21.6166 11.5597C21.6318 11.5537 21.6466 11.5475 21.6609 11.5409C21.6647 11.5391 21.6681 11.5373 21.6719 11.5355C21.6825 11.5305 21.6929 11.5253 21.7031 11.5199C21.7078 11.5175 21.7123 11.5149 21.7168 11.5124C21.726 11.5073 21.7349 11.502 21.7437 11.4965C21.748 11.4939 21.7523 11.4913 21.7565 11.4886C21.7663 11.4822 21.7759 11.4755 21.7853 11.4687C21.7878 11.4668 21.7905 11.4651 21.793 11.4632C21.8048 11.4544 21.8162 11.4452 21.8272 11.4358C21.8299 11.4334 21.8324 11.431 21.8351 11.4287C21.8433 11.4213 21.8515 11.4138 21.8593 11.406C21.8628 11.4026 21.8662 11.3991 21.8696 11.3956C21.8766 11.3884 21.8834 11.381 21.89 11.3735C21.8933 11.3698 21.8965 11.3663 21.8996 11.3625C21.907 11.3538 21.914 11.3448 21.921 11.3357C21.923 11.333 21.9251 11.3305 21.927 11.3279C21.9358 11.3159 21.9443 11.3036 21.9524 11.2909C21.9542 11.2881 21.9559 11.2851 21.9577 11.2822C21.9639 11.2722 21.97 11.262 21.9758 11.2515C21.9782 11.2471 21.9806 11.2425 21.983 11.238C21.9881 11.2285 21.993 11.2188 21.9978 11.209C22.0002 11.2042 22.0024 11.1995 22.0047 11.1946C22.0098 11.1835 22.0147 11.172 22.0196 11.1604C22.0211 11.1569 22.0226 11.1534 22.0241 11.1498C22.0302 11.1344 22.0361 11.1187 22.0417 11.1025C22.0429 11.0992 22.044 11.0957 22.0451 11.0923C22.0495 11.0793 22.0537 11.0661 22.0578 11.0526C22.0594 11.047 22.061 11.0413 22.0626 11.0357C22.066 11.0237 22.0693 11.0115 22.0724 10.9992C22.074 10.9932 22.0755 10.9872 22.077 10.9813C22.0803 10.9675 22.0835 10.9534 22.0866 10.9392C22.0876 10.9345 22.0886 10.9301 22.0896 10.9254C22.0936 10.9064 22.0973 10.8869 22.1008 10.8669C22.1015 10.8632 22.1021 10.8594 22.1027 10.8557C22.1055 10.8393 22.1082 10.8226 22.1107 10.8056C22.1117 10.7989 22.1126 10.792 22.1136 10.7851C22.1156 10.7704 22.1176 10.7556 22.1194 10.7405C22.1203 10.7333 22.1212 10.7259 22.1221 10.7186C22.124 10.702 22.1257 10.6851 22.1274 10.6681C22.128 10.6623 22.1286 10.6567 22.1292 10.6509C22.1313 10.6278 22.1334 10.6043 22.1352 10.5803C22.1355 10.5764 22.1357 10.5723 22.136 10.5683C22.1375 10.5481 22.1388 10.5276 22.1401 10.5067C22.1405 10.4987 22.141 10.4906 22.1414 10.4825C22.1424 10.4649 22.1433 10.4471 22.1441 10.4289C22.1445 10.4203 22.1449 10.4116 22.1452 10.4028C22.146 10.3834 22.1467 10.3636 22.1473 10.3436C22.1476 10.3364 22.1478 10.3295 22.148 10.3223C22.1488 10.2949 22.1495 10.2672 22.15 10.2389C22.15 10.2349 22.15 10.2308 22.1502 10.2269C22.1506 10.2023 22.151 10.1774 22.1512 10.1521C22.1512 10.1427 22.1514 10.1329 22.1515 10.1235C22.1516 10.1029 22.1519 10.0821 22.1519 10.0611C22.1519 10.0507 22.1519 10.0403 22.1519 10.0299C22.1519 10.0074 22.1519 9.98461 22.1519 9.96149Z" fill="currentColor"/>
</svg>
