<svg width="24" height="24" viewBox="0 0 24 24" fill="currentColor" xmlns="http://www.w3.org/2000/svg">
<path fill-rule="evenodd" clip-rule="evenodd" d="M19.2 4.1999H16.8V3.2879C16.8 2.79086 16.3971 2.3999 15.9 2.3999C15.403 2.3999 15 2.80285 15 3.2999V4.1999H8.40029L8.40002 3.2999C8.40002 2.80285 7.99708 2.3999 7.50002 2.3999C7.00297 2.3999 6.60002 2.80285 6.60002 3.2999V4.1999H2.40002V19.1999C2.40002 20.194 3.20591 20.9999 4.20002 20.9999H21V5.9999C21 5.00579 20.1941 4.1999 19.2 4.1999ZM7.20002 19.7999H4.50002C4.00297 19.7999 3.60002 19.397 3.60002 18.8999V9.5999H7.20002V19.7999ZM6.00002 6.2999C5.99965 5.82768 6.22202 5.38293 6.60002 5.0999V6.2999C6.60002 6.79696 7.00297 7.1999 7.50002 7.1999C7.99708 7.1999 8.40002 6.79696 8.40002 6.2999V5.9999L8.40029 5.10007C8.96447 5.5234 9.1575 6.28262 8.86401 6.92401C8.57052 7.56539 7.86982 7.91566 7.18065 7.76548C6.49148 7.6153 6.00002 7.00525 6.00002 6.2999ZM11.4 19.7999H7.80002V9.5999H11.4V19.7999ZM15.6 19.7999H12V9.5999H15.6V19.7999ZM14.4 6.2999C14.3996 5.82768 14.622 5.38293 15 5.0999V6.2999C15 6.79696 15.403 7.1999 15.9 7.1999C16.3971 7.1999 16.8 6.79696 16.8 6.2999L16.7998 5.9999L16.8 5.1119C17.1774 5.39007 17.4002 5.83106 17.4 6.2999C17.4 7.12833 16.7285 7.7999 15.9 7.7999C15.0716 7.7999 14.4 7.12833 14.4 6.2999ZM19.8 19.7999H16.2V9.5999H18.9C19.3971 9.5999 19.8 10.0028 19.8 10.4999V19.7999Z" fill="currentColor"/>
</svg>
