<svg width="24" height="24" viewBox="0 0 24 24" fill="currentColor" xmlns="http://www.w3.org/2000/svg">
<path fill-rule="evenodd" clip-rule="evenodd" d="M21.6 2.40002H2.40005C2.06868 2.40002 1.80005 2.66865 1.80005 3.00002V3.60002C1.80005 3.9314 2.06868 4.20002 2.40005 4.20002V16.8C2.40005 17.1314 2.66868 17.4 3.00005 17.4H21C21.3314 17.4 21.6 17.1314 21.6 16.8V4.20002C21.9314 4.20002 22.2001 3.9314 22.2001 3.60002V3.00002C22.2001 2.66865 21.9314 2.40002 21.6 2.40002ZM20.4 16.2H3.60005V4.20002H20.4V16.2ZM14.4 21H12.6V18H11.4V21H9.60005C9.26868 21 9.00005 21.2687 9.00005 21.6V22.2H15V21.6C15 21.2687 14.7314 21 14.4 21ZM12 8.40002V7.20002H18V8.40002H12ZM12 10.2V9.00002H19.2001V10.2H12ZM12 12V10.8H18V12H12ZM9.92136 7.47871C8.90933 6.46669 7.32334 6.31049 6.13333 7.10564C4.94331 7.90079 4.4807 9.42583 5.02842 10.7481C5.57613 12.0704 6.98161 12.8216 8.38533 12.5424C9.78906 12.2632 10.8001 11.0312 10.8001 9.60003C10.8022 8.80394 10.4858 8.04008 9.92136 7.47871ZM7.80005 9.60003V7.20002C8.81436 7.20006 9.71922 7.83753 10.0607 8.79264L7.80005 9.60003Z" fill="currentColor"/>
</svg>
