<svg width="24" height="24" viewBox="0 0 24 24" fill="currentColor" xmlns="http://www.w3.org/2000/svg">
<path fill-rule="evenodd" clip-rule="evenodd" d="M17.4 10.2H13.8V6.60005C13.8 6.2245 13.5757 6.00005 13.2 6.00005H10.8C10.4243 6.00005 10.2 6.2245 10.2 6.60005V10.2H6.59999C6.22432 10.2 5.99999 10.4245 5.99999 10.8V13.2C5.99999 13.5756 6.22432 13.8 6.59999 13.8H10.2V17.4C10.2 17.7756 10.4243 18 10.8 18H13.2C13.5757 18 13.8 17.7756 13.8 17.4V13.8H17.4C17.7757 13.8 18 13.5756 18 13.2V10.8C18 10.4245 17.7757 10.2 17.4 10.2ZM12 1.80005C6.36671 1.80005 1.79999 6.36677 1.79999 12C1.79999 17.6333 6.36671 22.2001 12 22.2001C17.6333 22.2001 22.2 17.6333 22.2 12C22.2 6.36677 17.6333 1.80005 12 1.80005ZM19.8 12C19.8 16.3078 16.3077 19.8 12 19.8C7.69223 19.8 4.19999 16.3078 4.19999 12C4.19999 7.69229 7.69223 4.20005 12 4.20005C16.3077 4.20005 19.8 7.69229 19.8 12Z" fill="currentColor"/>
</svg>
