<svg width="24" height="24" viewBox="0 0 24 24" fill="currentColor" xmlns="http://www.w3.org/2000/svg">
<path fill-rule="evenodd" clip-rule="evenodd" d="M12 1.79999C6.36674 1.79999 1.80005 6.36668 1.80005 12C1.80005 17.6333 6.36674 22.2 12 22.2C17.6334 22.2 22.2001 17.6333 22.2001 12C22.2001 6.36668 17.6334 1.79999 12 1.79999ZM12 21C7.02948 21 3.00005 16.9706 3.00005 12C3.00005 7.02942 7.02948 2.99999 12 2.99999C16.9706 2.99999 21 7.02942 21 12C21 16.9706 16.9706 21 12 21ZM8.58564 10.0632C8.96209 9.17497 9.66914 8.46791 10.5574 8.09147C10.6152 8.067 10.6735 8.04408 10.7322 8.02268C10.3032 6.63763 8.89478 5.80271 7.47378 6.09106C6.05277 6.37941 5.08121 7.69727 5.22602 9.13999C5.37084 10.5827 6.58495 11.6812 8.03491 11.6813C8.12359 11.6813 8.21129 11.677 8.29788 11.669C8.29548 11.6148 8.29416 11.5605 8.29416 11.5058C8.29327 11.0102 8.39241 10.5196 8.58564 10.0632ZM14.6205 8.88541C15.3164 9.5798 15.707 10.5228 15.7059 11.5059C15.7059 11.5588 15.7046 11.6116 15.7024 11.6643C15.8056 11.6756 15.9094 11.6814 16.0132 11.6814C17.4651 11.6811 18.68 10.5795 18.8221 9.13462C18.9641 7.6897 17.9871 6.37263 16.563 6.08953C15.139 5.80642 13.7325 6.64962 13.3111 8.039C13.3552 8.0558 13.3991 8.07301 13.4427 8.09147C13.883 8.2774 14.283 8.54704 14.6205 8.88541ZM7.19119 15.2153C7.61297 14.5511 8.09165 14.0876 8.76898 13.6933L8.89255 13.6083C8.8027 13.4229 8.71879 13.2978 8.58564 12.9486C8.5266 12.7937 8.46742 12.6401 8.42422 12.4818C8.29491 12.4956 8.16496 12.5025 8.03491 12.5026C7.10548 12.5038 6.21094 12.1486 5.53551 11.5102C4.65518 11.9442 4.01006 12.7432 3.77119 13.6952C4.15308 15.5486 5.14993 17.2186 6.60005 18.4344V17.7176C6.60005 16.9051 6.75737 15.8985 7.19119 15.2153ZM20.2493 13.5922C19.9903 12.6841 19.3595 11.9279 18.5126 11.5102C17.8372 12.1486 16.9426 12.5038 16.0132 12.5026C15.8675 12.5026 15.7219 12.4939 15.5773 12.4767C15.5337 12.6374 15.4793 12.7951 15.4145 12.9486C15.2806 13.265 15.2772 13.3241 15.1315 13.5603L15.0871 13.6453C15.7918 13.9925 16.3391 14.6231 16.7609 15.2873C17.1947 15.9705 17.4 16.9051 17.4 17.7176V18.4344C18.8779 17.1955 19.884 15.4856 20.2493 13.5922ZM13.1985 8.63977C12.2397 8.23873 11.1438 8.34388 10.2787 8.91992C9.41356 9.49596 8.89392 10.4665 8.89416 11.5059C8.89416 11.5199 8.89452 11.5338 8.89469 11.5478C8.9148 13.2516 10.304 14.621 12.0079 14.6168C13.7118 14.6125 15.094 13.2361 15.1056 11.5323C15.1056 11.5234 15.1059 11.5147 15.1059 11.5059C15.106 10.2533 14.3539 9.12328 13.1985 8.63977ZM14.7499 14.1115C14.1225 14.7029 13.3045 15.1664 12.3979 15.2558C12.267 15.2686 12.1345 15.2751 12.0002 15.2753C11.8823 15.2753 11.7657 15.2699 11.6505 15.2599C10.7246 15.1799 9.88872 14.7134 9.25046 14.1115C7.99502 14.729 7.19982 16.0065 7.20005 17.4056V18.8942C8.28848 19.6544 9.54243 20.1441 10.8579 20.3229C11.632 20.4279 12.4168 20.4256 13.1902 20.3163C14.4884 20.1322 15.725 19.645 16.8 18.8942V17.4056C16.8003 16.0066 16.0052 14.729 14.7499 14.1115Z" fill="currentColor"/>
</svg>
