<svg width="24" height="24" viewBox="0 0 24 24" fill="currentColor" xmlns="http://www.w3.org/2000/svg">
<path fill-rule="evenodd" clip-rule="evenodd" d="M13.8 18C13.8 18.3314 13.5314 18.6 13.2 18.6H10.8C10.4686 18.6 10.2 18.3314 10.2 18H1.79999V19.2C1.79999 19.5314 2.06862 19.8 2.39999 19.8H21.6C21.9314 19.8 22.2 19.5314 22.2 19.2V18H13.8ZM21 17.4H2.99999V15.6C2.99984 15.592 2.99999 15.584 2.99999 15.576V5.99999C2.99999 5.33725 3.53725 4.79999 4.19999 4.79999H19.8C20.4627 4.79999 21 5.33725 21 5.99999V15.576C21 15.584 20.9995 15.592 20.9994 15.6L21 17.4ZM4.19999 5.99999H19.8V16.2H4.19999V5.99999ZM4.79999 13.2002L4.80023 13.7793C5.95943 13.8223 6.61914 14.6748 6.62065 15.6001H7.19999C7.19844 14.2753 6.12477 13.2018 4.79999 13.2002ZM4.80035 12V12.5859C6.3903 12.5887 7.81122 14.0097 7.81393 15.6003H8.39999C8.39976 13.6123 6.78839 12.0006 4.80035 12ZM4.79999 15C4.9598 14.9977 5.11372 15.0602 5.22674 15.1732C5.33975 15.2863 5.40224 15.4402 5.39999 15.6H5.99999C5.99353 14.9428 5.45869 14.4 4.79999 14.4V15C4.804 15 4.79596 15 4.79999 15Z" fill="currentColor"/>
</svg>
