<svg width="24" height="24" viewBox="0 0 24 24" fill="currentColor" xmlns="http://www.w3.org/2000/svg">
<path fill-rule="evenodd" clip-rule="evenodd" d="M16.0164 12.9808L14.5271 10.8751V9.40276H14.523C14.4115 6.17447 11.7594 3.59145 8.50342 3.59145C5.17673 3.59145 2.47987 6.28789 2.47987 9.61408C2.47795 10.8545 2.86092 12.065 3.57598 13.0786C3.82961 13.6625 3.96012 14.2924 3.95935 14.929C3.95935 14.9818 3.95815 15.0345 3.9564 15.0869H3.95935V19.3349C3.95946 19.9185 4.43257 20.3914 5.01612 20.3914H10.934V17.7499H13.4702C13.7504 17.75 14.0192 17.6387 14.2174 17.4405C14.4156 17.2423 14.5269 16.9736 14.527 16.6933V13.8405H15.6049C15.8083 13.8405 15.9937 13.7238 16.0815 13.5403C16.1693 13.3568 16.144 13.1392 16.0164 12.9808ZM16.8612 13.952L16.8578 13.9553C16.7095 14.1038 16.6913 14.3382 16.815 14.5078C17.394 15.3077 17.394 16.3889 16.815 17.1887C16.6913 17.3583 16.7095 17.5927 16.8578 17.7412L16.8612 17.7445C16.9489 17.8325 17.0708 17.8777 17.1947 17.8683C17.3186 17.8589 17.4323 17.7958 17.5058 17.6956C18.3063 16.5941 18.3063 15.1024 17.5058 14.0009C17.4323 13.9007 17.3186 13.8376 17.1947 13.8282C17.0708 13.8188 16.9489 13.864 16.8612 13.952ZM19.8201 15.8482C19.8218 14.7208 19.4293 13.6283 18.7104 12.7597C18.6338 12.6677 18.5221 12.6123 18.4025 12.6069C18.2829 12.6016 18.1667 12.6468 18.0822 12.7316L18.078 12.7357C17.923 12.8914 17.912 13.1395 18.0526 13.3083C19.269 14.7832 19.269 16.9134 18.0526 18.3882C17.912 18.557 17.923 18.8051 18.078 18.9608L18.0821 18.965C18.1666 19.0497 18.2829 19.095 18.4024 19.0896C18.522 19.0843 18.6338 19.0288 18.7104 18.9369C19.4292 18.0683 19.8218 16.9757 19.8201 15.8482ZM19.298 11.5162L19.2949 11.5194C19.1364 11.6777 19.1277 11.9317 19.2749 12.1005C21.1475 14.2482 21.1475 17.4484 19.2749 19.5961C19.1277 19.7649 19.1365 20.0189 19.2949 20.1772L19.298 20.1803C19.3815 20.2638 19.4959 20.3089 19.614 20.3049C19.732 20.3008 19.843 20.248 19.9206 20.159C22.0717 17.6877 22.0717 14.0089 19.9206 11.5376C19.843 11.4486 19.732 11.3958 19.614 11.3917C19.4959 11.3877 19.3815 11.4328 19.298 11.5162Z" fill="currentColor"/>
</svg>
