<svg width="24" height="24" viewBox="0 0 24 24" fill="currentColor" xmlns="http://www.w3.org/2000/svg">
<path fill-rule="evenodd" clip-rule="evenodd" d="M13.7986 4.79962C12.8512 4.79973 12.0661 5.5343 12.0031 6.47962H11.9942C11.9311 5.53431 11.146 4.79974 10.1986 4.79962H9.23864V4.55962C9.23788 3.89719 8.70106 3.36037 8.03864 3.35962H5.39864C4.73621 3.36037 4.19939 3.89719 4.19864 4.55962V4.79962H1.80164V19.1996C1.80164 19.9196 2.27866 20.3996 2.99864 20.3996H20.9986C21.6614 20.3996 22.1986 19.8624 22.1986 19.1996V4.79962H13.7986ZM4.79864 4.55962C4.7996 4.22865 5.06766 3.96058 5.39864 3.95962H8.03864C8.37019 3.96035 8.63925 4.22807 8.64164 4.55962V17.1596L6.71864 15.4796L4.79864 17.1596V4.55962ZM20.2584 10.5421L16.4516 15.3487C16.4516 15.3487 16.0166 15.944 15.4028 15.302C14.8488 14.7227 13.315 12.8936 13.315 12.8936C13.315 12.8936 12.9656 12.4496 13.485 11.9588C13.9232 11.5448 14.2595 11.7132 14.3636 11.8171C14.5338 11.9869 15.6295 13.0918 15.6295 13.0918C15.6295 13.0918 15.7615 13.2241 15.9599 13.0069L19.3042 9.66401C19.3042 9.66401 19.7108 9.28592 20.1641 9.69207C20.6328 10.1118 20.2584 10.5421 20.2584 10.5421Z" fill="currentColor"/>
</svg>
