<svg width="24" height="24" viewBox="0 0 24 24" fill="currentColor" xmlns="http://www.w3.org/2000/svg">
<path fill-rule="evenodd" clip-rule="evenodd" d="M19.2 4.20002H16.8V3.30002C16.8 2.80297 16.3971 2.40002 15.9 2.40002C15.403 2.40002 15 2.80297 15 3.30002V4.20002H8.40002V3.30002C8.40002 2.80297 7.99708 2.40002 7.50002 2.40002C7.00297 2.40002 6.60002 2.80297 6.60002 3.30002V4.20002H2.40002V19.2C2.40002 20.1941 3.20591 21 4.20002 21H21V6.00002C21 5.00591 20.1941 4.20002 19.2 4.20002ZM7.20026 19.7979H4.49882C4.00177 19.7979 3.59882 19.3949 3.59882 18.8979V16.8H7.20026V19.7979ZM7.20026 16.2H3.59882V13.2H7.20026V16.2ZM7.20026 12.6H3.59882V9.59787H7.20026V12.6ZM6.00002 6.30002C5.99961 5.82779 6.22199 5.38303 6.60002 5.10002V6.30002C6.60002 6.79708 7.00297 7.20002 7.50002 7.20002C7.99708 7.20002 8.40002 6.79708 8.40002 6.30002V5.10002C8.96423 5.52335 9.1575 6.28283 8.86401 6.92423C8.57051 7.56563 7.86978 7.91589 7.1806 7.76568C6.49142 7.61547 6.00002 7.00539 6.00002 6.30002ZM11.4003 19.7979H7.80026V16.8H11.4003V19.7979ZM11.4003 16.2H7.80026V13.2H11.4003V16.2ZM11.4003 12.6H7.80026V9.59787H11.4003V12.6ZM15.6003 19.7979H12.0003V16.8H15.6003V19.7979ZM15.6003 16.2H12.0003V13.2H15.6003V16.2ZM15.6003 12.6H12.0003V9.59787H15.6003V12.6ZM14.4 6.30002C14.3996 5.82779 14.622 5.38303 15 5.10002V6.30002C15 6.79708 15.403 7.20002 15.9 7.20002C16.3971 7.20002 16.8 6.79708 16.8 6.30002V5.10002C17.3642 5.52335 17.5575 6.28283 17.264 6.92423C16.9705 7.56563 16.2698 7.91589 15.5806 7.76568C14.8914 7.61547 14.4 7.00539 14.4 6.30002ZM19.7988 16.2H16.2003V13.2H19.7988V16.2ZM19.7988 12.6H16.2003V9.59787H18.8988C19.3959 9.59787 19.7988 10.0008 19.7988 10.4979V12.6Z" fill="currentColor"/>
</svg>
