<svg width="24" height="24" viewBox="0 0 24 24" fill="currentColor" xmlns="http://www.w3.org/2000/svg">
<path fill-rule="evenodd" clip-rule="evenodd" d="M18.8419 5.07881C18.8062 5.01138 18.7531 4.95476 18.6881 4.91482C18.6199 4.87466 18.5445 4.8481 18.4662 4.83662C18.3795 4.82298 18.2918 4.81623 18.204 4.81644H17.5888V5.89621H18.204C18.2918 5.89645 18.3795 5.8897 18.4662 5.87602C18.5445 5.86463 18.6199 5.83806 18.6881 5.7978C18.7531 5.7579 18.8062 5.70127 18.8419 5.63383C18.8805 5.56318 18.8998 5.47067 18.8999 5.35632C18.8999 5.24197 18.8806 5.14946 18.8419 5.07881ZM20.1974 3H15.7971C15.5849 3.00007 15.3813 3.08445 15.2313 3.23459C15.0813 3.38473 14.997 3.58831 14.9971 3.80057V8.20373C14.997 8.41598 15.0813 8.61957 15.2313 8.76971C15.3813 8.91984 15.5849 9.00423 15.7971 9.0043H20.1974C20.4097 9.0043 20.6133 8.9199 20.7633 8.76976C20.9134 8.61962 20.9977 8.41601 20.9976 8.20373V3.80059C20.9977 3.58831 20.9134 3.38469 20.7633 3.23455C20.6133 3.0844 20.4097 3 20.1974 3ZM19.5982 5.78268C19.5538 5.92061 19.4798 6.04717 19.3814 6.15353C19.2733 6.26725 19.1417 6.35594 18.9957 6.41338C18.8376 6.47898 18.646 6.51178 18.4208 6.51178H17.5888V7.80346H16.7972V4.20086H18.4208C18.646 4.20086 18.8376 4.23366 18.9957 4.29926C19.1416 4.35673 19.2733 4.44541 19.3814 4.55911C19.4794 4.66482 19.5534 4.79047 19.5982 4.92744C19.689 5.2053 19.689 5.50482 19.5982 5.78268ZM12.5422 19.1819L12.1585 19.5659C12.1556 19.5629 12.1529 19.5598 12.15 19.5569C11.9228 19.331 11.5557 19.3317 11.3295 19.5585L10.9474 19.1761C11.1572 18.9652 11.4423 18.8464 11.7398 18.8458C12.0373 18.8452 12.3229 18.9629 12.5336 19.173C12.5365 19.176 12.5394 19.1789 12.5422 19.1819ZM13.2547 18.4689L12.8711 18.8529C12.8682 18.85 12.8653 18.847 12.8624 18.8441C12.5645 18.5471 12.1608 18.3807 11.7402 18.3815C11.3196 18.3824 10.9165 18.5503 10.6198 18.8485L10.2377 18.4661C11.0701 17.6332 12.4169 17.6306 13.2461 18.4602C13.249 18.463 13.2518 18.466 13.2547 18.4689ZM13.9672 17.756L13.5835 18.14C13.5806 18.137 13.5778 18.134 13.5749 18.1311C13.0901 17.6447 12.4308 17.3725 11.744 17.3752C11.0556 17.3759 10.3958 17.6505 9.91018 18.1384L9.528 17.7559C10.7539 16.5292 12.7375 16.5253 13.9584 17.7471C13.9615 17.75 13.9643 17.753 13.9672 17.756ZM20.2032 13.5102L17.76 13.0429L14.22 9.30432C14.0302 9.11137 13.7706 9.0032 13.5 9.00431H7C6.68356 9.00407 6.38573 9.15383 6.19721 9.408L3.20026 13.3891L3.19719 13.3932L3.19531 13.3956C3.06814 13.5674 2.99965 13.7756 3 13.9894V17.5818C3 18.1342 3.44762 18.5821 4 18.5825H4.5C4.5 19.9629 5.61929 20.988 7 20.988C8.38073 20.988 9.5 19.9629 9.5 18.5825H9.50765C9.50045 18.5759 9.49289 18.5698 9.48591 18.5628L9.10378 18.1804C8.86947 17.9459 8.86947 17.5659 9.10378 17.3313C9.80503 16.6276 10.7578 16.2323 11.7513 16.2329C12.7389 16.23 13.6866 16.6224 14.3829 17.3227L14.3918 17.3317L14.3937 17.3336C14.6259 17.5685 14.625 17.9468 14.3915 18.1805L14.0078 18.5645C14.0014 18.5709 13.9945 18.5765 13.9879 18.5825H13.9999C13.9999 19.9629 15.1192 20.988 16.4999 20.988C17.8806 20.988 18.9999 19.9629 18.9999 18.5825H19.9999C20.5524 18.5823 21 18.1343 21 17.5818V14.4893C21 14.0153 20.6672 13.6065 20.2032 13.5102ZM10.2064 13.2168H4.80399L7.05852 10.1989L7.06078 10.1962H10.2064V13.2168ZM11.396 13.2168V10.196H13.5264C13.5285 10.196 13.5306 10.1962 13.5327 10.1967L16.3747 13.2168H11.396ZM11.712 20.4116C11.0493 20.4116 10.512 20.675 10.512 21H12.912C12.912 20.675 12.3748 20.4116 11.712 20.4116Z" fill="currentColor"/>
</svg>
