<svg width="24" height="24" viewBox="0 0 24 24" fill="currentColor" xmlns="http://www.w3.org/2000/svg">
<path fill-rule="evenodd" clip-rule="evenodd" d="M22.2001 9.72L15 8.52L12 2.28L9.00005 8.52L1.80005 9.72L7.20005 14.52L5.40005 21.72L12 18.12L18.6 21.72L16.8 14.52L22.2001 9.72ZM11.974 9.10982C13.3494 9.11033 14.464 10.2256 14.4636 11.601C14.4633 12.9764 13.3481 14.0912 11.9727 14.091C10.5973 14.0909 9.48245 12.9758 9.48245 11.6004C9.48257 10.9398 9.74514 10.3062 10.2124 9.83911C10.6796 9.37204 11.3133 9.1097 11.974 9.10982ZM15.7113 18.9009L12.0009 16.8016L8.23668 18.8968V17.2043C8.23668 15.8586 8.84102 14.7868 9.90874 14.1291C10.4436 14.5619 11.2322 14.875 11.974 14.875C12.7157 14.875 13.5043 14.5619 14.0393 14.1291C15.107 14.7867 15.7113 15.8586 15.7113 17.2043V18.9009Z" fill="currentColor"/>
</svg>
