<svg width="24" height="24" viewBox="0 0 24 24" fill="currentColor" xmlns="http://www.w3.org/2000/svg">
<path fill-rule="evenodd" clip-rule="evenodd" d="M16.8012 1.79999H7.19882C6.88072 1.79999 6.5757 1.92666 6.35088 2.1517C6.12606 2.37674 5.99984 2.68188 6 2.99999V21C5.99967 21.6624 6.53637 22.1996 7.19878 22.2H16.8012C17.1193 22.2 17.4243 22.0733 17.6491 21.8483C17.8739 21.6232 18.0002 21.3181 18 21V2.99999C18.0003 2.33759 17.4636 1.80033 16.8012 1.79999ZM11.1 2.39999H12.9C13.0657 2.39999 13.2 2.5343 13.2 2.69999C13.2 2.86567 13.0657 2.99999 12.9 2.99999H11.1C10.9343 2.99999 10.8 2.86567 10.8 2.69999C10.8 2.5343 10.9343 2.39999 11.1 2.39999ZM12 21.6C11.6686 21.6 11.4 21.3314 11.4 21C11.4 20.6686 11.6686 20.4 12 20.4C12.3314 20.4 12.6 20.6686 12.6 21C12.6 21.3314 12.3314 21.6 12 21.6ZM16.8 19.8H7.2V3.59999H16.8V19.8ZM8.74817 14.1223C8.74279 14.1164 8.73732 14.1105 8.73163 14.1049C8.5558 13.9289 8.28254 13.8958 8.06974 14.0246C7.85695 14.1534 7.75965 14.4109 7.83407 14.6483C7.90848 14.8857 8.13537 15.0415 8.38363 15.0258C8.368 15.274 8.52386 15.5008 8.76116 15.5752C8.99846 15.6495 9.25587 15.5523 9.38469 15.3395C9.51351 15.1268 9.48044 14.8536 9.30458 14.6778C9.2989 14.6721 9.29306 14.6667 9.28718 14.6613C9.32906 14.6417 9.36723 14.615 9.39998 14.5823L10.023 13.9593C10.0926 13.9904 10.1655 14.0138 10.2402 14.0289V14.0382C10.2419 14.6154 10.7094 15.0829 11.2866 15.0846H12.705C13.2822 15.0829 13.7497 14.6154 13.7514 14.0382V14.0361C13.8201 14.0251 13.8875 14.0071 13.9526 13.9825L14.593 14.6229C14.6257 14.6555 14.6639 14.6822 14.7058 14.7018C14.6999 14.7072 14.6941 14.7127 14.6884 14.7183C14.5124 14.8942 14.4793 15.1674 14.6081 15.3802C14.7369 15.593 14.9944 15.6904 15.2318 15.6159C15.4692 15.5415 15.625 15.3146 15.6093 15.0663C15.8576 15.0822 16.0845 14.9264 16.159 14.6891C16.2335 14.4517 16.1363 14.1942 15.9235 14.0653C15.7107 13.9365 15.4374 13.9696 15.2616 14.1456C15.2559 14.1513 15.2504 14.1571 15.2451 14.163C15.2255 14.1211 15.1988 14.083 15.1661 14.0502L14.5421 13.4262C14.6015 13.2932 14.6322 13.1492 14.6322 13.0035V12.4861C14.9466 11.6928 14.8878 10.8001 14.472 10.0548L15.1649 9.36188C15.1975 9.32912 15.2242 9.29096 15.2438 9.24908C15.2492 9.25496 15.2547 9.2608 15.2604 9.26648C15.4362 9.44244 15.7094 9.47558 15.9222 9.34674C16.135 9.2179 16.2323 8.96041 16.1579 8.72305C16.0835 8.48568 15.8566 8.32982 15.6084 8.34553C15.624 8.09734 15.4681 7.87056 15.2308 7.79619C14.9935 7.72182 14.7361 7.81908 14.6073 8.0318C14.4785 8.24452 14.5115 8.5177 14.6874 8.69353C14.6931 8.69922 14.6989 8.70469 14.7048 8.71007C14.6629 8.72969 14.6248 8.7564 14.592 8.78903L13.9743 9.40669C12.8735 8.33456 11.1189 8.33456 10.018 9.40669L9.40008 8.78893C9.36731 8.75631 9.32915 8.72959 9.28728 8.70997C9.29316 8.7046 9.29899 8.69912 9.30468 8.69344C9.4806 8.5176 9.51372 8.24437 9.38489 8.0316C9.25606 7.81883 8.99859 7.72154 8.76125 7.79595C8.5239 7.87035 8.36805 8.0972 8.38373 8.34544C8.13554 8.32981 7.90875 8.48566 7.83438 8.72296C7.76001 8.96026 7.85728 9.21767 8.07 9.34649C8.28271 9.47531 8.55589 9.44224 8.73173 9.26639C8.73742 9.2607 8.74289 9.25487 8.74829 9.24899C8.7679 9.29086 8.7946 9.32902 8.82722 9.36179L9.52013 10.0547C9.08649 10.8317 9.04207 11.7669 9.40013 12.5815V13.0032C9.40008 13.1284 9.42271 13.2526 9.46692 13.3697L8.8272 14.0094C8.79454 14.0422 8.7678 14.0804 8.74817 14.1223ZM11.9959 9.14267C12.7671 9.14302 13.4867 9.53042 13.9116 10.1741C14.3365 10.8177 14.4101 11.6316 14.1073 12.341V13.0032C14.1065 13.2918 13.8727 13.5255 13.5841 13.5264H13.2113V14.0631C13.2105 14.3517 12.9767 14.5855 12.6881 14.5863H11.3037C11.0151 14.5855 10.7813 14.3517 10.7805 14.0631V13.5264H10.4464C10.1578 13.5255 9.92403 13.2918 9.92318 13.0032V12.4266C9.58446 11.7152 9.63407 10.8798 10.0546 10.2135C10.4752 9.54719 11.208 9.14297 11.9959 9.14267ZM11.8507 13.7342H12.1411C12.2013 13.7342 12.2579 13.7052 12.2931 13.6564C12.3283 13.6075 12.3379 13.5447 12.3188 13.4876L12.1737 13.0521C12.1482 12.9755 12.0766 12.9239 11.9959 12.9239C11.9153 12.9239 11.8437 12.9755 11.8182 13.0521L11.673 13.4876C11.6539 13.5447 11.6635 13.6075 11.6987 13.6564C11.7339 13.7052 11.7905 13.7342 11.8507 13.7342ZM13.0763 12.924C13.4492 12.924 13.7514 12.6217 13.7514 12.2488C13.7514 11.8758 13.4491 11.5736 13.0762 11.5736C12.7033 11.5736 12.401 11.8759 12.401 12.2488C12.401 12.4279 12.4722 12.5996 12.5988 12.7262C12.7254 12.8529 12.8972 12.924 13.0763 12.924ZM10.9155 12.924C11.2884 12.924 11.5907 12.6217 11.5907 12.2488C11.5907 11.8758 11.2884 11.5736 10.9155 11.5736C10.5426 11.5736 10.2403 11.8759 10.2403 12.2488C10.2403 12.4279 10.3114 12.5996 10.4381 12.7262C10.5647 12.8529 10.7365 12.924 10.9155 12.924Z" fill="currentColor"/>
</svg>
