<svg width="24" height="24" viewBox="0 0 24 24" fill="currentColor" xmlns="http://www.w3.org/2000/svg">
<path fill-rule="evenodd" clip-rule="evenodd" d="M5.39999 9.5998H5.99999V8.3998C6.00192 7.73787 6.53805 7.20174 7.19999 7.1998H10.2C10.8619 7.20174 11.398 7.73787 11.4 8.3998V9.5998H12.6V8.3998C12.6019 7.73787 13.1381 7.20174 13.8 7.1998H16.8C17.4619 7.20174 17.9981 7.73787 18 8.3998V9.5998H18.6C18.9314 9.5998 19.2 9.33118 19.2 8.9998V5.9998C19.1981 5.33787 18.6619 4.80174 18 4.7998H5.99999C5.33805 4.80174 4.80193 5.33787 4.79999 5.9998V8.9998C4.79999 9.33118 5.06862 9.5998 5.39999 9.5998ZM1.79999 16.7998C1.80095 17.1308 2.06902 17.3988 2.39999 17.3998H2.99999V18.5998C3.00095 18.9308 3.26902 19.1988 3.59999 19.1998H4.19999C4.53096 19.1988 4.79903 18.9308 4.79999 18.5998V17.3998H19.2V18.5998C19.201 18.9308 19.469 19.1988 19.8 19.1998H20.4C20.731 19.1988 20.999 18.9308 21 18.5998V17.3998H21.6C21.931 17.3988 22.199 17.1308 22.2 16.7998V15.5998H1.79999V16.7998ZM19.2 10.1998H17.8377C17.6233 10.5703 17.228 10.7988 16.8 10.7998H13.8C13.3719 10.7988 12.9767 10.5703 12.7622 10.1998H11.2377C11.0233 10.5703 10.628 10.7988 10.2 10.7998H7.19999C6.77193 10.7988 6.37668 10.5703 6.16223 10.1998H4.79999C3.14999 10.1998 1.79999 11.5498 1.79999 13.1998V14.9998H22.2V13.1998C22.2 11.5498 20.85 10.1998 19.2 10.1998Z" fill="currentColor"/>
</svg>
