<svg width="24" height="24" viewBox="0 0 24 24" fill="currentColor" xmlns="http://www.w3.org/2000/svg">
<path fill-rule="evenodd" clip-rule="evenodd" d="M19.9454 11.2148L4.98404 2.52677C4.37127 2.17097 3.60001 2.60873 3.60001 3.31233V20.6883C3.60001 21.392 4.37129 21.8297 4.98406 21.4739L19.9454 12.7859C20.2265 12.6242 20.3998 12.3246 20.3998 12.0003C20.3998 11.676 20.2265 11.3764 19.9454 11.2148ZM8.66705 10.3235C8.83131 10.3235 8.96987 10.2762 9.08273 10.1815C9.1956 10.0868 9.25201 9.95987 9.25201 9.80064C9.25201 9.63389 9.19652 9.50349 9.08554 9.40944C8.97457 9.31539 8.83507 9.26837 8.66705 9.26837H6.10145C5.93467 9.26837 5.79517 9.31601 5.68297 9.41131C5.57076 9.50661 5.51461 9.63639 5.51461 9.80066C5.51461 9.96239 5.57104 10.09 5.6839 10.1834C5.79677 10.2769 5.93597 10.3236 6.1015 10.3235H6.80117V13.8294C6.80117 14.0138 6.85477 14.169 6.96197 14.295C7.06917 14.4211 7.21372 14.4841 7.39561 14.4839C7.58121 14.4839 7.72634 14.4215 7.83101 14.2967C7.93569 14.1719 7.98804 14.0161 7.98807 13.8293V10.3235H8.66705ZM10.8928 9.63888C10.849 9.51868 10.7767 9.4109 10.6821 9.32477C10.5855 9.23574 10.4814 9.19123 10.3699 9.19123C10.2092 9.18895 10.052 9.23732 9.92036 9.32947C9.78869 9.42163 9.72286 9.54483 9.72286 9.69907C9.7247 9.82485 9.74498 9.94969 9.78305 10.0696L11.3856 14.1059C11.429 14.2245 11.5078 14.327 11.6113 14.3993C11.7151 14.4711 11.8388 14.5086 11.9649 14.5065C12.2207 14.5065 12.4082 14.3473 12.5273 14.0288L14.0978 10.0696C14.139 9.9504 14.16 9.82517 14.1599 9.69907C14.1611 9.60099 14.1274 9.50566 14.0649 9.4301C14 9.35123 13.9162 9.29008 13.8213 9.25236C13.7235 9.21187 13.6187 9.1911 13.5129 9.19123C13.4 9.19123 13.2959 9.23481 13.2006 9.32196C13.1054 9.40898 13.0325 9.51764 12.9881 9.63876L11.9404 12.4338L10.8928 9.63888Z" fill="currentColor"/>
</svg>
