<svg width="24" height="24" viewBox="0 0 24 24" fill="currentColor" xmlns="http://www.w3.org/2000/svg">
<path fill-rule="evenodd" clip-rule="evenodd" d="M18.6368 16.5593H15.8394V15.0761L12.9626 17.5767L12.1157 18.3057C11.8779 18.5102 11.8779 18.8452 12.1157 19.0497L12.9626 19.7787L15.8394 22.29V20.8076H18.6368C19.0072 20.8074 19.3622 20.6597 19.6233 20.3971C19.8844 20.1345 20.0302 19.7787 20.0283 19.4084C20.0281 19.163 19.9622 18.9223 19.8373 18.7111C19.8373 18.7078 18.6368 16.5593 18.6368 16.5593ZM22.5238 13.2898L22.5275 13.2874L20.4188 10.0069L16.6489 12.0504L20.6097 18.6681L22.4036 15.6773C22.9009 14.9713 22.9477 14.0422 22.5238 13.2898ZM5.16938 15.8376L6.50721 13.3968L7.76649 14.0727L6.94963 10.4476L6.70557 9.36411C6.63712 9.06005 6.33921 8.90014 6.04377 9.0089L4.99132 9.39643L1.46906 10.6932L2.7286 11.3692L1.43037 13.7314L1.42771 13.7364C1.41885 13.7525 1.41331 13.7691 1.40512 13.7854C1.39792 13.7974 1.38993 13.8088 1.38307 13.8211C1.20509 14.1459 1.16475 14.5284 1.27107 14.8832C1.3774 15.238 1.6215 15.5353 1.94877 15.7087C2.175 15.8301 2.40506 15.8445 2.64494 15.8375C2.6477 15.8391 5.16938 15.8376 5.16938 15.8376ZM6.19795 20.8086H10.1994L10.1989 16.56L2.29941 16.5609L4.11729 19.5516C4.32784 19.9644 4.65983 20.3029 5.06858 20.5213C5.41535 20.7093 5.80349 20.8081 6.19795 20.8086ZM12.3222 4.74586L13.7778 7.16746L12.5456 7.89058L16.1156 9.05282L17.1824 9.40008C17.482 9.49759 17.7733 9.32666 17.8298 9.0203L18.0317 7.9283L18.7072 4.27476L17.4746 4.99795L16.0854 2.68675L16.0826 2.68195C16.073 2.66633 16.0616 2.65296 16.0517 2.6377C16.0447 2.62553 16.0391 2.61281 16.0318 2.60062C15.6345 1.93985 14.7701 1.72222 14.1012 2.11478C13.8886 2.23936 13.7128 2.41821 13.592 2.63302C13.5891 2.63462 12.3222 4.74586 12.3222 4.74586ZM7.49822 3.03996L7.49428 3.03826L5.40237 6.44777L9.10557 8.60695L13.1555 1.91988L9.60439 1.91748C9.12679 1.91748 8.72498 2.01005 8.308 2.25458C7.96096 2.4582 7.68806 2.71814 7.49822 3.03996ZM14.1421 14.2754C13.7827 15.1182 13.1595 15.5048 12.1217 15.5048C11.4585 15.5048 10.9138 15.3232 10.5027 14.9232C10.1215 14.5524 9.88754 14.0748 9.77404 13.5086H9.42799C9.18067 13.5086 9.019 13.3419 9.019 13.0996C9.019 12.8534 9.177 12.6591 9.42799 12.6591H9.71119C9.71018 12.5647 9.71119 12.4541 9.71119 12.4074C9.71119 12.339 9.70764 12.3131 9.71119 12.1872H9.42799C9.18067 12.1872 9.019 11.9893 9.019 11.7468C9.019 11.5043 9.18067 11.2749 9.42799 11.2749H9.80553C9.93477 10.6771 10.1796 10.1521 10.5608 9.78749C10.9697 9.39607 11.5095 9.21514 12.1217 9.21514C13.1242 9.21514 13.7756 9.61961 14.1132 10.4474C14.1473 10.5192 14.1643 10.5979 14.1631 10.6774C14.1631 10.8681 14.0486 11.0326 13.8489 11.1156L13.8415 11.1333H13.8337C13.7766 11.1648 13.7013 11.1521 13.6285 11.1521C13.4355 11.1521 13.2802 11.0224 13.2023 10.835C12.9872 10.3181 12.7043 10.1225 12.1217 10.1225C11.4477 10.1225 10.9641 10.4884 10.7493 11.2749H12.8886C13.1397 11.2749 13.2875 11.4981 13.2875 11.7392C13.2875 11.9864 13.136 12.1872 12.8886 12.1872H10.6235C10.6198 12.3131 10.6235 12.3341 10.6235 12.4074C10.6235 12.452 10.6223 12.5647 10.6235 12.6591H12.5112C12.766 12.6591 12.9014 12.8499 12.9014 13.0996C12.9014 13.3382 12.7548 13.5086 12.5112 13.5086H10.7179C10.911 14.2636 11.4077 14.592 12.1217 14.592C12.7385 14.592 13.009 14.394 13.1942 13.9328L13.1948 13.9311L13.1956 13.9294C13.2841 13.7241 13.4432 13.611 13.6433 13.611C13.7004 13.6118 13.757 13.6211 13.8113 13.6386C14.0284 13.6976 14.1854 13.8867 14.1854 14.0826C14.1862 14.1494 14.1714 14.2154 14.1421 14.2754Z" fill="currentColor"/>
</svg>
