<svg width="24" height="24" viewBox="0 0 24 24" fill="currentColor" xmlns="http://www.w3.org/2000/svg">
<path fill-rule="evenodd" clip-rule="evenodd" d="M18.312 3.60005H16.4356C16.1674 2.5679 15.225 1.80005 14.112 1.80005C13.7806 1.80005 13.512 2.06868 13.512 2.40005V3.60005H5.712C5.38103 3.60101 5.11296 3.86908 5.112 4.20005V21.6C5.11296 21.931 5.38103 22.1991 5.712 22.2001H18.312C18.643 22.1991 18.911 21.931 18.912 21.6V4.20005C18.911 3.86908 18.643 3.60101 18.312 3.60005ZM13.512 12.0306V16.474C13.056 16.694 12.5562 16.8079 12.0499 16.8071C10.2064 16.8071 8.712 15.3281 8.712 13.5036C8.712 11.6791 10.2064 10.2 12.0499 10.2C12.5562 10.1993 13.056 10.3132 13.512 10.5332V12.0306ZM8.112 6.00005H10.5C10.791 6.00005 11.0707 6.23458 11.1072 6.52325C11.1288 6.69427 11.0759 6.86633 10.9621 6.99577C10.8483 7.12521 10.6844 7.1996 10.512 7.20005H8.124C7.83305 7.20005 7.55328 6.96552 7.5168 6.67685C7.49522 6.50583 7.54806 6.33377 7.66189 6.20433C7.77573 6.07489 7.93962 6.0005 8.112 6.00005ZM8.112 7.80005H13.512V9.00005H8.124C7.83305 9.00005 7.55328 8.76552 7.5168 8.47685C7.49522 8.30583 7.54806 8.13377 7.66189 8.00433C7.77573 7.87489 7.93962 7.8005 8.112 7.80005ZM15.312 19.8C15.312 19.881 15.3038 19.9618 15.2875 20.0411C15.2795 20.0801 15.2696 20.1183 15.2578 20.1559C15.249 20.184 15.2392 20.2117 15.2284 20.2389C15.2176 20.2662 15.2059 20.2929 15.1932 20.3191C15.1763 20.3541 15.1578 20.3881 15.1376 20.4211C15.1276 20.4376 15.1172 20.4538 15.1064 20.4698C15.0848 20.5018 15.0617 20.5326 15.0372 20.5622C14.9882 20.6216 14.9336 20.6761 14.8743 20.7251C14.8446 20.7497 14.8138 20.7727 14.7818 20.7944C14.7658 20.8052 14.7496 20.8156 14.7331 20.8256C14.7001 20.8457 14.6662 20.8642 14.6311 20.8812C14.6049 20.8938 14.5782 20.9056 14.551 20.9164C14.5238 20.9272 14.4961 20.937 14.4679 20.9458C14.4304 20.9575 14.3922 20.9674 14.3532 20.9755C14.3337 20.9795 14.314 20.983 14.2942 20.9861C14.2339 20.9954 14.173 21 14.112 21H6.912V20.1106C6.92311 19.6408 7.0213 19.1771 7.20156 18.7431C7.584 17.8153 8.30942 17.0467 9.17086 16.5762C10.3329 17.6701 12.0123 18.0158 13.512 17.4698V18C13.512 18.3314 13.7806 18.6 14.112 18.6C14.1702 18.6001 14.2282 18.6044 14.2858 18.6129C14.3009 18.6151 14.3159 18.6177 14.3309 18.6205C14.3345 18.6212 14.3381 18.6218 14.3418 18.6225C14.3555 18.6252 14.3691 18.6283 14.3826 18.6314C14.3874 18.6325 14.392 18.6336 14.3967 18.6347C14.4097 18.6379 14.4225 18.6414 14.4353 18.645C14.4405 18.6464 14.4456 18.6479 14.4508 18.6494C14.4632 18.6531 14.4756 18.657 14.4879 18.6611C14.4931 18.6628 14.4984 18.6646 14.5036 18.6664C14.5158 18.6707 14.5279 18.6751 14.5398 18.6797C14.5449 18.6817 14.55 18.6837 14.555 18.6857C14.567 18.6905 14.579 18.6954 14.5908 18.7006C14.5955 18.7027 14.6002 18.7049 14.6048 18.707C14.6168 18.7125 14.6288 18.718 14.6408 18.7238C14.6447 18.7257 14.6484 18.7277 14.6523 18.7297C14.6648 18.7361 14.6773 18.7425 14.6896 18.7493C14.691 18.7501 14.6924 18.7509 14.6938 18.7517C14.737 18.7759 14.7787 18.8027 14.8186 18.8319C14.8202 18.8331 14.8218 18.8342 14.8234 18.8353C14.8337 18.8429 14.8437 18.8508 14.8538 18.8588C14.8582 18.8623 14.8626 18.8657 14.867 18.8692C14.876 18.8766 14.8848 18.8841 14.8936 18.8917C14.8987 18.8961 14.9039 18.9005 14.909 18.905C14.9172 18.9124 14.9252 18.9199 14.9333 18.9274C14.9387 18.9325 14.944 18.9376 14.9493 18.9428C14.9569 18.9502 14.9644 18.9577 14.9718 18.9653C14.9772 18.9709 14.9826 18.9766 14.988 18.9823C14.995 18.9898 15.002 18.9975 15.0088 19.0052C15.0142 19.0113 15.0195 19.0174 15.0248 19.0236C15.0313 19.0313 15.0378 19.039 15.0442 19.0468C15.0495 19.0534 15.0547 19.06 15.0598 19.0667C15.0659 19.0745 15.0718 19.0822 15.0778 19.0902C15.083 19.0972 15.088 19.1046 15.093 19.1116C15.0985 19.1194 15.1041 19.1272 15.1094 19.1351C15.1147 19.143 15.1197 19.151 15.1248 19.1589C15.1296 19.1664 15.1344 19.1739 15.1392 19.1815C15.1464 19.1935 15.1534 19.2059 15.1603 19.2182C15.1654 19.2273 15.1703 19.2364 15.1751 19.2456C15.1806 19.2562 15.1863 19.2668 15.1915 19.2776C15.195 19.2848 15.1982 19.292 15.2015 19.2992C15.206 19.3089 15.2106 19.3186 15.2148 19.3285C15.2181 19.3361 15.2211 19.3437 15.2242 19.3513C15.2282 19.3611 15.2321 19.3708 15.2358 19.3806C15.2388 19.3885 15.2415 19.3964 15.2443 19.4043C15.2478 19.4142 15.2512 19.424 15.2544 19.434C15.257 19.442 15.2594 19.4501 15.2618 19.4582C15.2649 19.4682 15.2678 19.4783 15.2705 19.4885C15.2727 19.4966 15.2748 19.5048 15.2769 19.513C15.2794 19.5234 15.2818 19.5338 15.2841 19.5442C15.2858 19.5523 15.2876 19.5604 15.2892 19.5686C15.2914 19.5794 15.2933 19.5902 15.2951 19.6012C15.2964 19.6092 15.2978 19.6172 15.299 19.6252C15.3007 19.6367 15.3021 19.6482 15.3035 19.6598C15.3043 19.6674 15.3054 19.675 15.3061 19.6827C15.3074 19.6955 15.3083 19.7085 15.3091 19.7214C15.3095 19.7279 15.3101 19.7344 15.3104 19.7409C15.3114 19.7604 15.312 19.7803 15.312 19.8ZM15.312 4.20005V17.7238C15.1242 17.6145 14.9223 17.5312 14.712 17.4765V3.16229C15.0825 3.37675 15.311 3.77199 15.312 4.20005ZM17.712 21H16.512V19.8V4.80005H17.712V21Z" fill="currentColor"/>
</svg>
