<svg width="24" height="24" viewBox="0 0 24 24" fill="currentColor" xmlns="http://www.w3.org/2000/svg">
<path fill-rule="evenodd" clip-rule="evenodd" d="M4.2 21C3.53726 21 3 20.4627 3 19.8V3H19.8C20.4627 3 21 3.53726 21 4.2V21H4.2ZM19.1664 17.5879C19.103 17.4486 18.5244 16.2235 17.5571 16.1959C17.0142 16.1988 16.5147 16.5393 16.0506 17.2774C15.6296 16.6311 15.1784 16.315 14.713 16.3207C14.1368 16.3367 13.6954 16.8585 13.4485 17.2401C13.1948 16.8249 12.7067 16.2114 12.0277 16.1911C11.4816 16.1853 10.9861 16.5319 10.5235 17.2722C10.1039 16.6204 9.65537 16.2903 9.18857 16.3158C8.61586 16.3327 8.17668 16.8542 7.92912 17.2398C7.67659 16.8296 7.18594 16.2155 6.50297 16.1965C5.89267 16.1759 5.33285 16.6322 4.81942 17.5803C4.7521 17.7051 4.81442 17.8529 4.95924 17.9113C4.98996 17.9234 5.02232 17.9307 5.05524 17.9332C5.49612 18.6756 5.96945 19.0516 6.46493 19.0516C6.47405 19.0516 6.48341 19.0516 6.49286 19.051C7.07645 19.0344 7.52088 18.4974 7.76448 18.1147C8.01554 18.5251 8.50656 19.1443 9.19162 19.1638C9.73294 19.1624 10.2274 18.8261 10.688 18.0986C11.097 18.7238 11.5328 19.0397 11.9872 19.0397H12.0151C12.5931 19.0232 13.0351 18.4963 13.2807 18.1143C13.5289 18.5241 14.0223 19.1555 14.7135 19.1752C14.7255 19.1757 14.7367 19.1757 14.7486 19.1757C15.2814 19.1757 15.7636 18.8237 16.2158 18.1035C16.6266 18.7336 17.0647 19.0521 17.5214 19.0521C17.5302 19.0521 17.5396 19.0521 17.5489 19.0516C18.2411 19.0324 18.7383 18.2825 18.9369 17.9245C18.9589 17.9218 18.9805 17.9168 19.0014 17.9096C19.1501 17.86 19.224 17.7164 19.1664 17.5879ZM17.5396 18.8033H17.522C17.1487 18.8033 16.7547 18.4694 16.3748 17.833C16.3826 17.8189 16.3903 17.8051 16.398 17.7909C16.786 17.0728 17.1892 16.7024 17.5377 16.6932C18.0361 16.7073 18.5031 17.4939 18.6279 17.7682C18.6384 17.7911 18.6524 17.8123 18.6693 17.8309C18.4608 18.2039 18.0307 18.7892 17.5396 18.8033ZM14.7455 18.6785C14.7413 18.6786 14.7372 18.6784 14.733 18.6779C14.234 18.6644 13.7663 17.8767 13.6422 17.6029C13.6353 17.5875 13.6223 17.5589 13.6032 17.5201C13.8168 17.1462 14.2405 16.5829 14.7223 16.5696C14.728 16.5696 14.7336 16.569 14.7399 16.569C15.1145 16.569 15.5105 16.9063 15.8917 17.5481C15.8858 17.5589 15.8797 17.5693 15.8739 17.5803C15.4903 18.2893 15.0902 18.6785 14.7455 18.6785ZM12.0057 18.7908H11.9878C11.617 18.7908 11.2254 18.4598 10.8472 17.8289C10.8562 17.8127 10.8652 17.7966 10.8742 17.78C11.2556 17.0749 11.6528 16.6883 11.9945 16.6883H12.0072C12.5081 16.7029 12.9779 17.5026 13.1033 17.7822C13.1081 17.7928 13.1159 17.8097 13.1265 17.8318C12.9151 18.2058 12.4899 18.7769 12.0057 18.7908ZM9.2232 18.6667H9.2107C8.71102 18.6526 8.24246 17.8644 8.11766 17.5895C8.11152 17.5759 8.10038 17.552 8.08454 17.5199C8.30016 17.1406 8.72131 16.5783 9.19874 16.5642H9.21691C9.5899 16.5642 9.98395 16.902 10.3643 17.5448C10.3598 17.5531 10.3552 17.5612 10.3506 17.5696C9.96739 18.2779 9.56772 18.6667 9.2232 18.6667ZM6.48336 18.8027C6.10759 18.8013 5.70444 18.4751 5.31744 17.8283C5.32702 17.8167 5.3355 17.8042 5.34278 17.791C5.7305 17.074 6.13512 16.6896 6.4837 16.6939C6.9846 16.7074 7.45411 17.4951 7.57922 17.77C7.58491 17.7826 7.5949 17.8043 7.60896 17.833C7.40021 18.2061 6.97212 18.7887 6.48336 18.8027ZM19.1965 13.8395C19.1827 13.7488 19.1334 13.6672 19.0595 13.6128L12.7419 8.664C12.6525 8.59635 12.6 8.49072 12.6 8.37862V7.19846H14.4L12.2793 4.93104C12.2115 4.84616 12.1087 4.79674 12 4.79674C11.8913 4.79674 11.7885 4.84616 11.7207 4.93104L9.6 7.19846H11.4V8.37862C11.4 8.49071 11.3475 8.59634 11.2581 8.664L4.9405 13.6128C4.86653 13.6672 4.81721 13.7487 4.80341 13.8395C4.80114 13.8563 4.8 13.8733 4.8 13.8902V14.6422C4.8 14.7371 4.83761 14.8281 4.90468 14.8952C4.97175 14.9623 5.06273 15 5.1576 15H5.6424C5.73727 15 5.82825 14.9623 5.89532 14.8952C5.96239 14.8281 6.00004 14.7371 6 14.6422V14.3701C6 14.3616 6.00029 14.3531 6.00086 14.3447C6.00956 14.2422 6.06327 14.1489 6.1475 14.0899L10.833 10.5399C10.9419 10.4612 11.0857 10.4502 11.2053 10.5114C11.3249 10.5726 11.4001 10.6956 11.4 10.83V14.6422C11.4 14.7371 11.4376 14.8281 11.5047 14.8952C11.5717 14.9623 11.6627 15 11.7576 15H12.2424C12.3373 15 12.4283 14.9623 12.4953 14.8952C12.5624 14.8281 12.6 14.7371 12.6 14.6422V10.83C12.5999 10.6956 12.6751 10.5726 12.7947 10.5114C12.9143 10.4502 13.0581 10.4612 13.167 10.5399L17.8525 14.0899C17.9368 14.1489 17.9905 14.2422 17.9992 14.3447C17.9997 14.3531 18 14.3616 18 14.3701V14.6422C18 14.7371 18.0376 14.8281 18.1047 14.8952C18.1718 14.9623 18.2627 15 18.3576 15H18.8424C18.9373 15 19.0283 14.9623 19.0953 14.8952C19.1624 14.8281 19.2 14.7371 19.2 14.6422V13.8902C19.2 13.8733 19.1988 13.8563 19.1965 13.8395Z" fill="currentColor"/>
</svg>
