<svg width="24" height="24" viewBox="0 0 24 24" fill="currentColor" xmlns="http://www.w3.org/2000/svg">
<path fill-rule="evenodd" clip-rule="evenodd" d="M3.59999 13.8002H2.99999C2.33805 13.7983 1.80193 13.2621 1.79999 12.6002V9.6002C1.80193 8.93826 2.33805 8.40213 2.99999 8.4002H3.59999V13.8002ZM18 4.2002H5.99999C5.00708 4.2031 4.20289 5.00729 4.19999 6.0002V16.2002C4.20289 17.1931 5.00708 17.9973 5.99999 18.0002H15.3C15.5833 17.6225 16.0279 17.4002 16.5 17.4002C16.9721 17.4002 17.4167 17.6225 17.7 18.0002H18C18.9929 17.9973 19.7971 17.1931 19.8 16.2002V6.0002C19.7971 5.00729 18.9929 4.2031 18 4.2002ZM7.19999 9.6002C7.19999 8.93745 7.73725 8.4002 8.39999 8.4002C9.06273 8.4002 9.59999 8.93745 9.59999 9.6002C9.59999 10.2629 9.06273 10.8002 8.39999 10.8002C7.73725 10.8002 7.19999 10.2629 7.19999 9.6002ZM15 14.1002V14.4002C15 15.0629 13.6569 15.6002 12 15.6002C10.3431 15.6002 8.99999 15.0629 8.99999 14.4002V14.1002C9.00144 13.6037 9.40353 13.2016 9.89999 13.2002H14.1C14.5964 13.2016 14.9985 13.6037 15 14.1002ZM15.6 10.8002C14.9372 10.8002 14.4 10.2629 14.4 9.6002C14.4 8.93745 14.9372 8.4002 15.6 8.4002C16.2627 8.4002 16.8 8.93745 16.8 9.6002C16.8 10.2629 16.2627 10.8002 15.6 10.8002ZM21 8.4002H20.4V16.2002C20.4 17.5202 19.32 18.6002 18 18.6002H17.3486C17.2025 18.1869 16.7799 17.939 16.3479 18.0132C15.9158 18.0873 15.6001 18.4619 15.6001 18.9002C15.6001 19.3385 15.9158 19.7131 16.3479 19.7872C16.7799 19.8614 17.2025 19.6135 17.3486 19.2002H18C19.65 19.2002 21 17.8502 21 16.2002V13.8002C21.6619 13.7983 22.1981 13.2621 22.2 12.6002V9.6002C22.1981 8.93826 21.6619 8.40213 21 8.4002Z" fill="currentColor"/>
</svg>
