<svg width="24" height="24" viewBox="0 0 24 24" fill="currentColor" xmlns="http://www.w3.org/2000/svg">
<path fill-rule="evenodd" clip-rule="evenodd" d="M21.6 3H2.40005C2.06868 3 1.80005 3.26863 1.80005 3.6V20.4C1.80005 20.7314 2.06868 21 2.40005 21H21.6C21.9314 21 22.2001 20.7314 22.2001 20.4V3.6C22.2001 3.26863 21.9314 3 21.6 3ZM13.4724 14.4893C13.0705 14.8888 12.5143 15.0933 11.9493 15.0492C10.8003 15.0492 9.69838 15.5056 8.88593 16.3181L5.40401 19.8H3.00005V16.6885L6.12821 13.5604C6.94066 12.7479 7.3971 11.646 7.39711 10.497C7.35299 9.93196 7.55744 9.3758 7.95701 8.97389C8.70396 8.2211 9.93096 8.20692 10.6943 8.94305C10.9561 9.19458 11.1421 9.51447 11.2313 9.8664C11.4153 10.5201 11.9262 11.0309 12.5799 11.215C12.9318 11.3042 13.2517 11.4902 13.5032 11.752C14.2392 12.5153 14.2252 13.7424 13.4724 14.4893ZM20.4 19.2H16.2V18H20.4V19.2ZM20.4 16.8H16.2V15.6H20.4V16.8ZM17.3642 7.83977C16.5518 8.65224 16.0953 9.75419 16.0953 10.9032C16.1509 11.6124 15.8147 12.2954 15.2188 12.684C15.0496 11.4174 14.1309 10.3791 12.8944 10.057C12.6517 9.98462 12.4618 9.79474 12.3894 9.552C12.0673 8.31542 11.0288 7.39677 9.76217 7.22789C10.1508 6.63187 10.8338 6.29559 11.5431 6.35105C12.6921 6.35101 13.794 5.89454 14.6064 5.08205L15.4886 4.2H21.004L17.3642 7.83977Z" fill="currentColor"/>
</svg>
