<svg width="24" height="24" viewBox="0 0 24 24" fill="currentColor" xmlns="http://www.w3.org/2000/svg">
<path fill-rule="evenodd" clip-rule="evenodd" d="M10.3654 3.71636C8.77421 4.0272 8.26625 4.44656 7.33255 5.38023L5.39247 7.32034C5.29784 7.41616 5.27661 7.56241 5.34007 7.68118C5.54962 8.0822 5.47335 8.7246 5.10279 9.08079C4.8828 9.29223 4.71372 9.4724 4.52508 9.55136C4.28988 9.64976 3.97548 9.58832 3.73898 9.49287C3.51543 9.40255 3.25956 9.45424 3.08859 9.62424L2.52123 10.1916C2.36646 10.3473 2.36646 10.5987 2.52123 10.7544L4.50713 12.7403C4.66114 12.8935 4.90992 12.8935 5.06393 12.7403L5.63431 12.1699C5.81333 11.9899 5.86025 11.7169 5.75163 11.4874C5.62512 11.2204 5.63342 10.7996 5.79017 10.5491C5.86306 10.4326 5.97082 10.3061 6.14383 10.133C6.60317 9.67371 7.16179 9.56232 7.57776 9.5568C7.63863 9.55914 7.69902 9.56847 7.75776 9.5846C8.08295 9.66568 8.38027 9.83294 8.6184 10.0688L9.02897 10.472L10.7267 8.7744L10.3872 8.43485C9.93444 7.98305 9.80185 7.30137 10.0523 6.7128C10.9122 4.70052 14.143 4.37789 14.6651 4.6776L14.6707 4.3272C14.674 4.10868 14.5221 3.9184 14.3082 3.87344C13.0418 3.6072 11.7615 3.44362 10.3654 3.71636ZM20.9073 19.8069L20.0588 20.6554C19.5894 21.1221 18.8312 21.1221 18.3618 20.6554L9.45221 10.8973L11.1493 9.20028L20.9073 18.1098C21.374 18.5792 21.374 19.3375 20.9073 19.8069Z" fill="currentColor"/>
</svg>
