<svg width="24" height="24" viewBox="0 0 24 24" fill="currentColor" xmlns="http://www.w3.org/2000/svg">
<path fill-rule="evenodd" clip-rule="evenodd" d="M10.3333 16.8552L10.9647 13.2093H7.95657L13.3713 7.19278L12.7697 10.8027H15.7778L10.3333 16.8552ZM21.8795 20.3322L18.799 17.2517C19.9427 15.7703 20.5617 13.9509 20.5588 12.0794C20.5588 7.39634 16.7625 3.59998 12.0794 3.59998C7.39637 3.59998 3.6 7.39634 3.6 12.0794C3.6 16.7624 7.39637 20.5588 12.0794 20.5588C13.9509 20.5617 15.7703 19.9427 17.2517 18.799L20.3322 21.8795C20.6086 22.1559 21.0115 22.2639 21.3891 22.1627C21.7666 22.0615 22.0615 21.7666 22.1627 21.389C22.2639 21.0115 22.1559 20.6086 21.8795 20.3322ZM14.7407 18.381C11.4836 19.7628 7.70969 18.4442 6.0219 15.3347C4.33411 12.2251 5.28475 8.34216 8.21813 6.36397C11.1515 4.38578 15.1077 4.95968 17.3581 7.68986C19.6085 10.42 19.4166 14.413 16.9148 16.9148C16.2921 17.5401 15.5537 18.0381 14.7407 18.381Z" fill="currentColor"/>
</svg>
