<svg width="24" height="24" viewBox="0 0 24 24" fill="currentColor" xmlns="http://www.w3.org/2000/svg">
<path fill-rule="evenodd" clip-rule="evenodd" d="M21.6 16.2H20.4C20.4 17.8569 19.0569 19.2 17.4 19.2C15.7432 19.2 14.4 17.8569 14.4 16.2H9.00001C9.00001 17.8569 7.65687 19.2 6.00001 19.2C4.34316 19.2 3.00001 17.8569 3.00001 16.2H2.40001C1.73735 16.1998 1.20001 15.6627 1.20001 15V10.807C1.19965 10.5507 1.28187 10.3011 1.43449 10.0951L1.43675 10.0921C1.43797 10.0905 1.43915 10.0888 1.44042 10.0872L5.03665 5.28409C5.26298 4.97926 5.62035 4.79968 6.00001 4.8H13.8C14.1247 4.79863 14.4362 4.92831 14.664 5.1597L18.912 9.67201L21.8437 10.2321C22.4004 10.3475 22.7998 10.838 22.8 11.4065V15C22.8 15.6627 22.2627 16.1998 21.6 16.2ZM9.90001 6.60001C9.18361 6.59898 8.49626 6.88312 7.98969 7.38969C7.48312 7.89626 7.19899 8.58361 7.20001 9.30001C7.20001 9.86106 7.39777 10.2351 7.66828 10.7386L9.89877 14.4H9.90001L12.1232 10.7386C12.3938 10.2352 12.6 9.86089 12.6 9.30001C12.6 7.81662 11.3784 6.60001 9.90001 6.60001ZM9.90001 10.44C9.33668 10.44 8.88001 9.98334 8.88001 9.42001C8.88001 8.85668 9.33668 8.40001 9.90001 8.40001C10.4633 8.40001 10.92 8.85668 10.92 9.42001C10.92 9.98334 10.4633 10.44 9.90001 10.44Z" fill="currentColor"/>
</svg>
