<svg width="24" height="24" viewBox="0 0 24 24" fill="currentColor" xmlns="http://www.w3.org/2000/svg">
<path fill-rule="evenodd" clip-rule="evenodd" d="M17.34 4.74858C16.9012 4.74797 16.4686 4.85146 16.0776 5.05053C16.5835 6.49007 16.2911 8.0898 15.3087 9.2573C15.7794 9.52138 16.2152 9.84333 16.606 10.2157C16.6093 10.2186 16.6125 10.2218 16.6158 10.2247C17.6616 10.5062 18.7758 10.1561 19.4727 9.32692C20.1695 8.49778 20.3226 7.33993 19.8653 6.35816C19.4079 5.37639 18.4231 4.74864 17.34 4.74858ZM5.52 14.16C5.51997 14.1193 5.52511 14.0788 5.53529 14.0394C5.60166 13.0957 5.90037 12.183 6.40481 11.3826C6.4988 11.2343 6.59991 11.0915 6.70661 10.9538C6.69108 10.954 6.67558 10.9543 6.66 10.9543C5.76296 10.9556 4.89725 10.6245 4.22991 10.0251C3.03461 10.5976 2.24443 11.774 2.16646 13.0971H2.16V16.74C2.16 17.5684 2.83158 18.24 3.66 18.24H5.52V14.16ZM7.3842 10.2247C7.38752 10.2218 7.39068 10.2186 7.39402 10.2157C7.78478 9.84333 8.22061 9.52138 8.69134 9.2573C7.71102 8.08879 7.41888 6.49021 7.92255 5.0505C6.81472 4.48825 5.46847 4.72758 4.62231 5.63722C3.77615 6.54685 3.63465 7.90687 4.27543 8.97121C4.91621 10.0355 6.18436 10.5469 7.3842 10.2247ZM21.8335 13.0972C21.7556 11.7741 20.9654 10.5977 19.7701 10.0252C19.1028 10.6246 18.237 10.9556 17.34 10.9543C17.3244 10.9543 17.3089 10.954 17.2934 10.9538C17.4001 11.0915 17.5012 11.2343 17.5952 11.3826C18.0996 12.183 18.3983 13.0957 18.4647 14.0394C18.4749 14.0788 18.48 14.1193 18.48 14.16V18.24H21.84V13.0972H21.8335ZM17.9914 14.16C17.8888 12.3024 16.8392 10.7121 15.3422 9.91225C14.4462 10.6919 13.3053 11.1329 12.1179 11.1586C12.0787 11.1595 12.0394 11.16 12 11.16C11.9607 11.16 11.9211 11.1595 11.8821 11.1586C10.6947 11.1329 9.55378 10.6919 8.65776 9.91225C7.16076 10.7121 6.11124 12.3024 6.00857 14.16H6V19.26C6 20.4198 6.89544 21.36 8.00002 21.36H18V14.16H17.9914ZM15.84 6.48001C15.84 8.60079 14.1208 10.32 12 10.32C9.87923 10.32 8.16 8.60079 8.16 6.48001C8.16 4.35924 9.87923 2.64001 12 2.64001C14.1208 2.64001 15.84 4.35924 15.84 6.48001Z" fill="currentColor"/>
</svg>
