<svg width="24" height="24" viewBox="0 0 24 24" fill="currentColor" xmlns="http://www.w3.org/2000/svg">
<path fill-rule="evenodd" clip-rule="evenodd" d="M17.9405 13.1718L12.7842 11.4405C12.4858 11.3404 12.2867 11.0586 12.2922 10.7439L12.3198 9.17396C12.321 9.10906 12.3578 9.05012 12.4156 9.02061C12.4735 8.99111 12.5428 8.99584 12.5961 9.03293L18.0971 12.8612C18.2639 12.9773 18.1332 13.2365 17.9405 13.1718ZM13.2573 1.95101L14.3339 7.27709C14.3962 7.58554 14.2513 7.89876 13.9759 8.05102L12.6009 8.81204C12.5441 8.8435 12.4746 8.84112 12.4202 8.80585C12.3657 8.77058 12.335 8.70816 12.3405 8.64348L12.9097 1.97086C12.927 1.76854 13.217 1.75198 13.2573 1.95101ZM5.91218 11.6326L9.98738 8.03328C10.2234 7.8249 10.5671 7.79322 10.8373 7.95495L12.1856 8.76224C12.2413 8.79554 12.2741 8.85687 12.2708 8.9217C12.2676 8.98653 12.2288 9.04427 12.1701 9.07184L6.10354 11.9232C5.9196 12.0096 5.75988 11.7672 5.91218 11.6326ZM17.2369 21.2265C16.5333 21.1435 15.9056 21.079 15.1977 20.9616L14.0636 20.7779C13.8446 20.7424 13.6902 20.6096 13.6902 20.4569L12.9993 11.988L12.6405 11.8675C12.4373 11.7986 12.257 11.6751 12.1193 11.5105L11.3894 20.4597C11.3894 20.6112 11.2375 20.7432 11.0211 20.7799L10.2597 20.9091C9.44714 21.0499 8.81882 21.1183 7.92509 21.2303C7.48543 21.2674 7.1538 21.3777 7.1538 21.7058V22.2H17.9498V21.7058C17.9498 21.3655 17.6605 21.2595 17.2369 21.2265Z" fill="currentColor"/>
</svg>
