<svg width="24" height="24" viewBox="0 0 24 24" fill="currentColor" xmlns="http://www.w3.org/2000/svg">
<path fill-rule="evenodd" clip-rule="evenodd" d="M16.8012 1.80005H7.19882C6.88072 1.80005 6.5757 1.92672 6.35088 2.15176C6.12606 2.3768 5.99984 2.68194 6 3.00005V21C5.99967 21.6625 6.53637 22.1997 7.19878 22.2001H16.8012C17.1193 22.2001 17.4243 22.0734 17.6491 21.8483C17.8739 21.6233 18.0002 21.3182 18 21V3.00005C18.0003 2.33765 17.4636 1.80039 16.8012 1.80005ZM11.1 2.40005H12.9C13.0657 2.40005 13.2 2.53436 13.2 2.70005C13.2 2.86573 13.0657 3.00005 12.9 3.00005H11.1C10.9343 3.00005 10.8 2.86573 10.8 2.70005C10.8 2.53436 10.9343 2.40005 11.1 2.40005ZM12 21.6C11.6686 21.6 11.4 21.3314 11.4 21C11.4 20.6687 11.6686 20.4 12 20.4C12.3314 20.4 12.6 20.6687 12.6 21C12.6 21.3314 12.3314 21.6 12 21.6ZM16.8 19.8H7.2V3.60005H16.8V19.8ZM14.7833 14.7832C14.6445 14.922 14.4562 15 14.2599 15C14.0636 15 13.8753 14.922 13.7365 14.7832L12 13.0458L10.2634 14.7832C10.0766 14.9713 9.80338 15.0452 9.54718 14.9768C9.29098 14.9084 9.09093 14.7082 9.02272 14.452C8.95451 14.1957 9.02857 13.9226 9.21686 13.7359L10.9534 11.9986L9.27859 10.3231C9.09094 10.1362 9.0174 9.86336 9.08573 9.6075C9.15406 9.35163 9.35385 9.15174 9.60969 9.0833C9.86552 9.01485 10.1384 9.08827 10.3254 9.27583L12 10.9514L13.6747 9.27583C13.8618 9.08883 14.1344 9.01583 14.3899 9.08434C14.6454 9.15285 14.845 9.35247 14.9134 9.60799C14.9818 9.86351 14.9087 10.1361 14.7216 10.3231L13.0469 11.9986L14.7834 13.7359C15.0723 14.0252 15.0723 14.4939 14.7833 14.7832Z" fill="currentColor"/>
</svg>
