<svg width="24" height="24" viewBox="0 0 24 24" fill="currentColor" xmlns="http://www.w3.org/2000/svg">
<path fill-rule="evenodd" clip-rule="evenodd" d="M20.8517 11.167C20.9498 10.7092 20.9993 10.2423 20.9992 9.77412C20.9992 6.12679 18.0444 3.17002 14.3995 3.17002C12.4022 3.16838 10.5122 4.07329 9.26107 5.63016C8.50927 5.47087 7.72521 5.63933 7.10518 6.09336C6.48515 6.54739 6.08785 7.24401 6.01274 8.00883C3.60645 8.30662 1.79955 10.3513 1.80005 12.776C1.80005 15.4286 3.94899 17.579 6.59983 17.579H9.87343L9.54919 19.0553C9.45248 19.4866 9.55742 19.9385 9.83431 20.2831C10.1144 20.6287 10.5348 20.8303 10.9797 20.8322C11.4228 20.8322 11.8417 20.6298 12.1168 20.2824L14.2782 17.579H18.5993C20.1277 17.5779 21.489 16.6125 21.9956 15.1704C22.5021 13.7284 22.0436 12.1237 20.8517 11.167ZM10.9797 19.6315C10.8997 19.6327 10.8236 19.5971 10.7731 19.535C10.7227 19.4729 10.7035 19.3911 10.7211 19.313L11.102 17.5789L11.3344 16.5209C11.3514 16.4437 11.3325 16.3629 11.2829 16.3012C11.2334 16.2396 11.1586 16.2037 11.0795 16.2037H8.62414C8.52378 16.2036 8.43234 16.146 8.38889 16.0556C8.34544 15.9651 8.35767 15.8578 8.42035 15.7794L12.1823 11.0741C12.23 11.0117 12.3039 10.975 12.3824 10.9749C12.4624 10.9737 12.5385 11.0092 12.589 11.0713C12.6394 11.1334 12.6586 11.2152 12.641 11.2933L12.0277 14.0854C12.0107 14.1626 12.0297 14.2434 12.0792 14.305C12.1287 14.3667 12.2035 14.4026 12.2826 14.4026H14.738C14.8383 14.4027 14.9298 14.4602 14.9732 14.5507C15.0167 14.6412 15.0045 14.7485 14.9418 14.8269L12.7415 17.579L11.1798 19.5323C11.1322 19.5947 11.0582 19.6313 10.9797 19.6315Z" fill="currentColor"/>
</svg>
