<svg width="24" height="24" viewBox="0 0 24 24" fill="currentColor" xmlns="http://www.w3.org/2000/svg">
<path fill-rule="evenodd" clip-rule="evenodd" d="M21.6 7.20002V18H2.99999V19.2H22.8V7.20002H21.6ZM11.4 7.80002C9.41176 7.80002 7.79999 9.4118 7.79999 11.4C7.79999 13.3882 9.41176 15 11.4 15C13.3882 15 15 13.3882 15 11.4C15 10.4452 14.6207 9.52957 13.9456 8.85444C13.2704 8.17931 12.3548 7.80002 11.4 7.80002ZM5.69999 10.5C5.20293 10.5 4.79999 10.903 4.79999 11.4C4.79999 11.8971 5.20293 12.3 5.69999 12.3C6.19704 12.3 6.59999 11.8971 6.59999 11.4C6.59999 11.1613 6.50517 10.9324 6.33638 10.7636C6.1676 10.5948 5.93868 10.5 5.69999 10.5ZM17.1 10.5C16.6029 10.5 16.2 10.903 16.2 11.4C16.2 11.8971 16.6029 12.3 17.1 12.3C17.597 12.3 18 11.8971 18 11.4C18 11.1613 17.9052 10.9324 17.7364 10.7636C17.5676 10.5948 17.3387 10.5 17.1 10.5ZM21 5.40002H1.79999V17.4H21V5.40002ZM19.8 14.4C18.8059 14.4 18 15.2059 18 16.2H4.79999C4.79999 15.7226 4.61035 15.2648 4.27278 14.9272C3.93521 14.5897 3.47738 14.4 2.99999 14.4V8.40002C3.47738 8.40002 3.93521 8.21038 4.27278 7.87282C4.61035 7.53525 4.79999 7.07741 4.79999 6.60002H18C18 7.59414 18.8059 8.40002 19.8 8.40002V14.4Z" fill="currentColor"/>
</svg>
