<svg width="24" height="24" viewBox="0 0 24 24" fill="currentColor" xmlns="http://www.w3.org/2000/svg">
<path fill-rule="evenodd" clip-rule="evenodd" d="M16.08 6.4799C16.08 8.73322 14.2533 10.5599 12 10.5599C9.74668 10.5599 7.92 8.73322 7.92 6.4799C7.92 4.22658 9.74668 2.3999 12 2.3999C14.2533 2.3999 16.08 4.22658 16.08 6.4799ZM15.4462 10.1572C13.508 11.9741 10.492 11.9741 8.55384 10.1572C6.98228 10.9891 5.99951 12.6217 6 14.3999V14.5601V19.4399C6.01192 20.6363 6.98539 21.5999 8.18184 21.5999H18V14.3999C18.0005 12.6217 17.0177 10.9891 15.4462 10.1572ZM12 19.4399L10.8 17.8775L11.5421 12.35C11.6938 12.3618 11.8464 12.3678 12 12.368C12.162 12.368 12.3231 12.3614 12.4832 12.3482L13.2 17.8775L12 19.4399Z" fill="currentColor"/>
</svg>
