<svg width="24" height="24" viewBox="0 0 24 24" fill="currentColor" xmlns="http://www.w3.org/2000/svg">
<path fill-rule="evenodd" clip-rule="evenodd" d="M13.5 14.1C13.4999 13.6606 13.1826 13.2855 12.7493 13.2126C12.316 13.1397 11.8934 13.3904 11.7496 13.8056C11.6058 14.2208 11.7828 14.6791 12.1684 14.8899L12 16.2H13.2L13.0316 14.8899C13.3205 14.732 13.5001 14.4291 13.5 14.1ZM12.6 9.96C11.9373 9.96 11.4 10.4973 11.4 11.16V12H13.8V11.16C13.8 10.4973 13.2627 9.96 12.6 9.96ZM20.1 6.6H10.8L9 4.2H2.4V18.3C2.4 19.1284 3.07157 19.8 3.9 19.8H21.6V8.1C21.6 7.27157 20.9284 6.6 20.1 6.6ZM15.6 17.4H10.2C9.86863 17.4 9.6 17.1314 9.6 16.8V12H10.44V11.16C10.44 9.96706 11.4071 9 12.6 9C13.7929 9 14.76 9.96706 14.76 11.16V12H15C15.3314 12 15.6 12.2686 15.6 12.6V17.4Z" fill="currentColor"/>
</svg>
