<svg width="24" height="24" viewBox="0 0 24 24" fill="currentColor" xmlns="http://www.w3.org/2000/svg">
<path fill-rule="evenodd" clip-rule="evenodd" d="M20.8483 12.7796C20.9465 12.3222 20.996 11.8556 20.9959 11.3878C20.9959 7.74318 18.0409 4.78861 14.3959 4.78861C12.3989 4.78675 10.5089 5.69086 9.25712 7.24681C8.50559 7.0876 7.72181 7.25586 7.10183 7.7095C6.48185 8.16313 6.08431 8.85924 6.00863 9.62372C3.63464 9.91321 1.79572 11.9355 1.79572 14.3874C1.79572 17.038 3.94477 19.1868 6.59572 19.1868H18.5957C20.1236 19.187 21.485 18.2226 21.9918 16.7812C22.4985 15.3398 22.0401 13.7356 20.8483 12.7796ZM7.79557 16.1872C7.13293 16.1871 6.59581 15.6499 6.59586 14.9872C6.59591 14.3246 7.13312 13.7875 7.79576 13.7875C8.45841 13.7875 8.99557 14.3247 8.99557 14.9873C8.99549 15.65 8.45826 16.1872 7.79557 16.1872ZM11.9956 16.1872C11.3329 16.1871 10.7958 15.6499 10.7959 14.9872C10.7959 14.3246 11.3331 13.7875 11.9958 13.7875C12.6584 13.7875 13.1956 14.3247 13.1956 14.9873C13.1955 15.65 12.6582 16.1871 11.9956 16.1872ZM16.1956 16.1872C15.5329 16.1871 14.9958 15.6499 14.9959 14.9872C14.9959 14.3246 15.5331 13.7875 16.1958 13.7875C16.8584 13.7875 17.3956 14.3247 17.3956 14.9873C17.3955 15.65 16.8582 16.1871 16.1956 16.1872Z" fill="currentColor"/>
</svg>
