<svg width="24" height="24" viewBox="0 0 24 24" fill="currentColor" xmlns="http://www.w3.org/2000/svg">
<path fill-rule="evenodd" clip-rule="evenodd" d="M22.2 12C22.2 17.6334 17.6333 22.2001 12 22.2001C11.9274 22.2001 11.8552 22.1988 11.783 22.1973C11.7554 22.1988 11.7278 22.2001 11.7 22.2001C11.6379 22.2001 11.5759 22.196 11.5143 22.1883C6.10655 21.9347 1.79999 17.4705 1.79999 12C1.79999 11.9275 1.80124 11.8552 1.80272 11.783C1.80121 11.7554 1.79999 11.7278 1.79999 11.7C1.79999 11.638 1.80406 11.5759 1.81177 11.5143C2.05784 6.26678 6.26879 2.05639 11.5167 1.81159C11.5775 1.80407 11.6387 1.80005 11.7 1.80005C11.7272 1.80005 11.7542 1.8013 11.7812 1.80274C11.854 1.8012 11.9269 1.80005 12 1.80005C17.4704 1.80005 21.9346 6.10661 22.1882 11.5143C22.1959 11.5759 22.2 11.638 22.2 11.7C22.2 11.7278 22.1987 11.7554 22.1973 11.783C22.1987 11.8552 22.2 11.9275 22.2 12ZM20.8504 13.64C19.6413 14.4448 17.703 15.0689 15.3804 15.3808C15.0684 17.7033 14.4445 19.6417 13.6398 20.8507C17.2954 20.1777 20.1773 17.2957 20.8504 13.64ZM14.4 12C14.4012 11.0268 14.3529 10.0541 14.2552 9.0857C13.5344 9.0299 12.7789 9.00005 12 9.00005C10.9999 9.00005 10.0381 9.04913 9.13933 9.13946C9.049 10.0382 8.99999 11 8.99999 12C8.99999 12.7788 9.02968 13.5345 9.08548 14.2551C10.0539 14.3529 11.0267 14.4012 12 14.4001C12.7987 14.4001 13.5728 14.3687 14.3101 14.3101C14.3686 13.5728 14.4 12.7987 14.4 12ZM11.7713 3.00319C11.7046 3.00479 11.6382 3.00719 11.5719 3.01039C10.5735 3.16589 9.71699 5.12854 9.28991 7.93934C10.1902 7.84575 11.0948 7.79926 12 7.80005C12.7204 7.80005 13.4232 7.82873 14.1015 7.88307C13.6634 5.04934 12.7872 3.09101 11.7713 3.00319ZM12 15.6C11.0666 15.6009 10.1339 15.5514 9.20586 15.4518C9.59682 18.587 10.5043 20.8264 11.5742 20.99C11.6396 20.993 11.7051 20.9954 11.7709 20.997C12.8581 20.9036 13.7853 18.6682 14.1869 15.5101C13.4824 15.5688 12.7507 15.6 12 15.6ZM9.65848 20.692C8.89268 19.459 8.30214 17.5536 8.00728 15.2899C5.95681 14.9561 4.2507 14.373 3.14944 13.64C3.77896 17.0584 6.33978 19.8001 9.65848 20.692ZM3.00292 11.7693C3.08821 12.786 5.04745 13.6629 7.88303 14.1014C7.82879 13.4232 7.79999 12.7205 7.79999 12C7.79924 11.0949 7.84577 10.1903 7.9394 9.29004C5.12915 9.71707 3.1664 10.5733 3.01038 11.5715C3.00731 11.6373 3.00457 11.7031 3.00292 11.7693ZM3.30834 9.65834C4.42813 8.96294 6.10264 8.4121 8.09612 8.09594C8.4122 6.10236 8.96298 4.4279 9.65852 3.30816C6.56324 4.14518 4.14536 6.56306 3.30834 9.65834ZM13.64 3.14954C14.3729 4.25078 14.9559 5.95692 15.2898 8.00734C17.5531 8.3021 19.4586 8.89258 20.6916 9.65827C19.7997 6.33967 17.0581 3.77902 13.64 3.14954ZM20.9896 11.5715C20.8225 10.5027 18.5842 9.59657 15.4518 9.20592C15.5515 10.134 15.6009 11.0667 15.6 12C15.6 12.7508 15.5688 13.4823 15.5098 14.1869C18.6696 13.785 20.9058 12.8571 20.9971 11.7693C20.9954 11.7031 20.9928 11.6373 20.9896 11.5715Z" fill="currentColor"/>
</svg>
