<svg width="24" height="24" viewBox="0 0 24 24" fill="currentColor" xmlns="http://www.w3.org/2000/svg">
<path d="M2 5V17.48H5.6V19.4H18.8V17.48H22.4V5H2ZM12.2 18.32C11.8023 18.32 11.48 17.9977 11.48 17.6C11.48 17.2023 11.8023 16.88 12.2 16.88C12.5977 16.88 12.92 17.2023 12.92 17.6C12.92 17.9977 12.5977 18.32 12.2 18.32ZM20.96 6.44V16.04H3.44V6.44H20.96ZM12.2019 12.8142C11.6389 12.8142 11.1824 13.2706 11.1824 13.8337C11.1824 14.397 11.6389 14.8534 12.2019 14.8534C12.765 14.8534 13.2212 14.397 13.2212 13.8337C13.2212 13.2706 12.765 12.8142 12.2019 12.8142ZM12.2019 11.0991C11.4058 11.0991 10.6098 11.403 10.0023 12.0104L10.6021 12.6106C11.0295 12.1832 11.5976 11.9478 12.2019 11.9478C12.8062 11.9478 13.3743 12.1832 13.8015 12.6106L14.4015 12.0104C13.7941 11.403 12.998 11.0991 12.2019 11.0991ZM12.2019 9.40184C10.8742 9.40184 9.67232 9.94016 8.80256 10.8104L9.40232 11.4104C9.76616 11.0466 10.1898 10.7607 10.6611 10.5615C11.1486 10.3551 11.667 10.2505 12.2019 10.2505C12.7366 10.2505 13.255 10.3551 13.7427 10.5615C14.2141 10.7607 14.6374 11.0466 15.0015 11.4104L15.6013 10.8104C14.7313 9.94016 13.5294 9.40184 12.2019 9.40184ZM12.2019 7.7048C10.4058 7.7048 8.77976 8.43296 7.60256 9.6104L8.20256 10.2104C8.72216 9.69056 9.3272 9.28256 10.0006 8.99768C10.6974 8.70272 11.438 8.55344 12.2019 8.55344C12.9658 8.55344 13.7065 8.70272 14.4032 8.99768C15.0766 9.28256 15.6814 9.69056 16.2013 10.2104L16.801 9.6104C15.6241 8.43296 13.9981 7.7048 12.2019 7.7048Z" fill="currentColor"/>
</svg>
