<svg width="24" height="24" viewBox="0 0 24 24" fill="currentColor" xmlns="http://www.w3.org/2000/svg">
<path fill-rule="evenodd" clip-rule="evenodd" d="M8.62008 14.539H9.60195L9.111 12.9991L8.62008 14.539ZM21.8438 11.4323L18.912 10.872L14.664 6.3597C14.4362 6.12832 14.1246 5.99863 13.8 6.00001H12L10.8 4.20001H9.59995L8.39995 6.00001H5.99995C5.62029 5.99969 5.26292 6.17926 5.03659 6.48409L1.44027 11.2872L1.43659 11.2921L1.43434 11.2951C1.28176 11.5011 1.19957 11.7507 1.19995 12.007V16.2C1.19995 16.8627 1.73729 17.3998 2.39995 17.4H2.99995C2.99995 19.0569 4.3431 20.4 5.99995 20.4C7.65681 20.4 8.99995 19.0569 8.99995 17.4H14.4C14.4 19.0569 15.7431 20.4 17.4 20.4C19.0568 20.4 20.4 19.0569 20.4 17.4H21.6C22.2626 17.3998 22.8 16.8627 22.8 16.2V12.6065C22.7997 12.038 22.4005 11.5477 21.8438 11.4323ZM3.56007 10.7993L6.17626 7.29913L6.17897 7.29589H9.28795V10.7993H3.56007ZM6.9595 12.9266H6.42545V15.684C6.42545 15.831 6.38427 15.9535 6.30192 16.0516C6.21957 16.1497 6.10542 16.1988 5.95947 16.1988C5.81647 16.1988 5.70282 16.1492 5.6185 16.05C5.53296 15.9476 5.48795 15.8173 5.49199 15.6839V12.9266H4.94167C4.82255 12.9303 4.70602 12.8912 4.61328 12.8163C4.5245 12.7429 4.48013 12.6425 4.48013 12.5153C4.48013 12.3861 4.52426 12.284 4.61251 12.2091C4.70484 12.1327 4.82191 12.0927 4.94167 12.0967H6.9595C7.09161 12.0967 7.20132 12.1336 7.28863 12.2076C7.37595 12.2816 7.41959 12.3841 7.41955 12.5153C7.42409 12.6304 7.3749 12.7411 7.28643 12.8149C7.19455 12.8904 7.0784 12.9301 6.9595 12.9266ZM10.7428 16.1027C10.6364 16.168 10.5134 16.2014 10.3886 16.1988C10.3009 16.1988 10.2225 16.1604 10.1534 16.0835C10.0847 16.0071 10.0346 15.916 10.007 15.8171L9.87982 15.3688H8.33035L8.23272 15.7195C8.14792 16.039 8.01041 16.1987 7.82019 16.1987C7.6976 16.2008 7.57699 16.1677 7.47267 16.1033C7.37404 16.0442 7.30807 15.943 7.29375 15.8289C7.29375 15.7027 7.30607 15.6055 7.33071 15.5375L8.42055 12.5389C8.47146 12.3905 8.56351 12.2597 8.68596 12.1617C8.9327 11.9709 9.27699 11.9703 9.5244 12.1602C9.64751 12.2582 9.73969 12.3897 9.78984 12.5389L10.8796 15.5376C10.9074 15.6321 10.9199 15.7305 10.9165 15.829C10.9056 15.9428 10.8411 16.0445 10.7428 16.1027ZM14.7811 16.0435C14.7225 16.1418 14.6158 16.2011 14.5014 16.1988C14.2874 16.1988 14.1035 16.0938 13.9496 15.8837L13.1376 14.7624L12.3446 15.8778C12.2016 16.0918 12.0197 16.1989 11.7988 16.1988C11.6844 16.1988 11.5912 16.146 11.5192 16.0404C11.4473 15.9355 11.4096 15.811 11.4112 15.6839C11.4112 15.6109 11.4516 15.5221 11.5325 15.4175L12.6109 13.9751L11.781 12.8834C11.6636 12.7177 11.6049 12.5969 11.6049 12.521C11.6031 12.399 11.6445 12.2803 11.7218 12.1859C11.7896 12.0947 11.8967 12.0412 12.0103 12.0417C12.1898 12.0366 12.3594 12.1237 12.46 12.2724L13.1375 13.1985L13.7796 12.2843C13.891 12.1225 14.0508 12.0417 14.2589 12.0417C14.3736 12.0388 14.4822 12.0932 14.5488 12.1866C14.6229 12.2866 14.6614 12.4084 14.6583 12.5328C14.6583 12.6156 14.5981 12.7409 14.4778 12.9086L13.6776 13.9754L14.7619 15.4104C14.8427 15.5248 14.8832 15.616 14.8832 15.684C14.8857 15.8113 14.8501 15.9365 14.7811 16.0435ZM16.3987 15.684C16.3987 15.83 16.358 15.9523 16.2766 16.0509C16.1952 16.1495 16.0821 16.1988 15.9371 16.1988C15.7941 16.1988 15.6807 16.1492 15.5969 16.05C15.5118 15.9474 15.467 15.8173 15.4711 15.684V12.5508C15.467 12.4178 15.5111 12.2877 15.5953 12.1847C15.6782 12.0856 15.7921 12.036 15.9371 12.036C16.0811 12.036 16.194 12.0856 16.2758 12.1847C16.3592 12.2881 16.4027 12.418 16.3986 12.5508L16.3987 15.684ZM11.088 10.7993V7.29601H13.7566C13.7591 7.29597 13.7616 7.29622 13.7641 7.29678L17.0558 10.7993H11.088Z" fill="currentColor"/>
</svg>
