<svg width="24" height="24" viewBox="0 0 24 24" fill="currentColor" xmlns="http://www.w3.org/2000/svg">
<path fill-rule="evenodd" clip-rule="evenodd" d="M20.9036 10.9215C20.8709 10.4036 20.8106 9.24031 20.6848 8.07528C20.579 7.09539 20.334 5.92901 20.1676 5.21866C20.1092 4.96889 19.8636 4.79991 19.5964 4.79991H4.40355C4.13634 4.79991 3.89082 4.96889 3.83235 5.21866C3.66599 5.92906 3.42107 7.09546 3.31525 8.07528C3.18944 9.24031 3.12913 10.4036 3.09639 10.9215C2.92799 13.5852 2.97822 14.8657 3.18066 16.5976C3.2118 16.885 3.27091 17.1687 3.35715 17.4446C3.57123 18.096 4.25067 18.6487 4.89733 18.9131C5.4554 19.1411 5.95573 19.5961 6.04952 20.1131C6.15143 20.6739 6.06342 21.0001 6.64967 21.0001C8.02587 21.0001 10.7326 20.9984 11.6699 20.9977C12.7831 20.9984 15.9741 21.0001 17.3503 21.0001C17.9366 21.0001 17.8485 20.6739 17.9504 20.1131C18.0443 19.5961 18.5446 19.1412 19.1026 18.9131C19.7493 18.6487 20.4287 18.096 20.6428 17.4446C20.7291 17.1687 20.7882 16.885 20.8193 16.5976C21.0217 14.8657 21.072 13.5852 20.9036 10.9215ZM13.2 15.6001H10.8V13.2001H13.2V15.6001ZM18.3035 4.2001H5.69646C5.53092 4.19968 5.39679 4.06564 5.39627 3.9001C5.39679 3.73456 5.53092 3.60052 5.69646 3.6001H18.3035C18.4691 3.60052 18.6032 3.73456 18.6037 3.9001C18.6032 4.06564 18.4691 4.19968 18.3035 4.2001Z" fill="currentColor"/>
</svg>
