<svg width="24" height="24" viewBox="0 0 24 24" fill="currentColor" xmlns="http://www.w3.org/2000/svg">
<path fill-rule="evenodd" clip-rule="evenodd" d="M12 7.57029C8.99838 7.56645 6.11906 8.75941 3.99967 10.885L5.4115 12.2972C7.15742 10.547 9.52794 9.56346 12 9.56346C14.4721 9.56346 16.8426 10.547 18.5886 12.2972L20.0004 10.885C17.881 8.75941 15.0017 7.56646 12 7.57029ZM1.17603 8.06062L2.58785 9.47285C5.08213 6.97285 8.46853 5.56788 12 5.56788C15.5315 5.56788 18.9179 6.97285 21.4122 9.47285L22.824 8.06062C20.0539 5.28982 16.2271 3.57605 12 3.57605C7.77298 3.57605 3.94613 5.28982 1.17603 8.06062ZM14.3992 18.0003C14.3988 19.3253 13.3245 20.3991 11.9996 20.3989C10.6746 20.3986 9.60072 19.3244 9.60084 17.9995C9.60096 16.6746 10.6751 15.6006 12 15.6006C12.6364 15.6006 13.2467 15.8535 13.6966 16.3035C14.1465 16.7536 14.3993 17.3639 14.3992 18.0003ZM6.82323 13.7093L8.23505 15.1215C9.23343 14.1228 10.5877 13.5617 11.9999 13.5617C13.4121 13.5617 14.7664 14.1228 15.7648 15.1215L17.1768 13.7093C15.804 12.336 13.9418 11.5645 12 11.5645C10.0582 11.5645 8.19602 12.336 6.82323 13.7093Z" fill="currentColor"/>
</svg>
