<svg width="24" height="24" viewBox="0 0 24 24" fill="currentColor" xmlns="http://www.w3.org/2000/svg">
<path fill-rule="evenodd" clip-rule="evenodd" d="M12.012 1.79401C6.36212 1.79401 1.78198 6.37417 1.78198 12.024C1.78198 17.6738 6.36212 22.254 12.012 22.254C17.6619 22.254 22.242 17.6739 22.242 12.024C22.242 6.37412 17.6619 1.79401 12.012 1.79401ZM11.0539 5.69041C11.2989 5.42866 11.62 5.29486 12.012 5.28145C12.4036 5.29486 12.7248 5.42866 12.9697 5.69041C13.2279 5.9665 13.3571 6.35113 13.3573 6.8443C13.3573 7.20641 12.8493 13.8674 12.7247 14.1375C12.6002 14.4077 12.377 14.543 12.0562 14.543C12.0402 14.543 12.0274 14.5383 12.012 14.5375C11.9964 14.5383 11.9832 14.543 11.9674 14.543C11.6466 14.543 11.4238 14.4078 11.2992 14.1375C11.1744 13.8674 10.6666 7.20634 10.6666 6.8443C10.6666 6.35115 10.7957 5.96652 11.0539 5.69041ZM12.9564 18.4101C12.7009 18.6431 12.3665 18.7705 12.0207 18.7665C11.6716 18.7714 11.3332 18.6458 11.0718 18.4143C10.8017 18.1798 10.6666 17.8517 10.6666 17.4301C10.6666 17.0617 10.7957 16.7482 11.0539 16.4898C11.3121 16.2313 11.6285 16.1021 12.003 16.1023C12.377 16.1023 12.6964 16.2314 12.9609 16.4898C13.2191 16.7337 13.363 17.0749 13.3574 17.4301C13.3574 17.8457 13.2238 18.1724 12.9564 18.4101Z" fill="currentColor"/>
</svg>
