<svg width="24" height="24" viewBox="0 0 24 24" fill="currentColor" xmlns="http://www.w3.org/2000/svg">
<path fill-rule="evenodd" clip-rule="evenodd" d="M18.6 4.20005V1.80005H6.00001C5.0071 1.80295 4.20291 2.60714 4.20001 3.60005V20.4C4.20291 21.393 5.0071 22.1972 6.00001 22.2001H19.8V4.20005H18.6ZM16.4213 13.4204H16.0587C15.9844 13.4204 15.9227 13.4774 15.9168 13.5514L15.7294 15.9274C15.7291 15.9305 15.7291 15.9339 15.7291 15.937C15.7267 16.747 15.1131 17.4029 14.3566 17.4029H9.66745C8.91097 17.4029 8.29729 16.747 8.29489 15.937C8.29489 15.9339 8.29489 15.9305 8.29465 15.9274L8.10721 13.5514C8.10134 13.4774 8.03959 13.4204 7.96537 13.4204H7.60273C7.36706 13.4204 7.17601 13.2293 7.17601 12.9936C7.17601 12.758 7.36706 12.5669 7.60273 12.5669H16.4213C16.657 12.5669 16.848 12.758 16.848 12.9936C16.848 13.2293 16.657 13.4204 16.4213 13.4204ZM11.5985 9.65429C11.5559 9.65419 11.5155 9.63532 11.4881 9.6027C11.4607 9.57009 11.4491 9.52705 11.4564 9.48509C11.4699 9.41525 11.5315 9.3651 11.6026 9.36604H12.463C12.5055 9.36609 12.5459 9.38491 12.5733 9.41749C12.6007 9.45007 12.6123 9.49307 12.6051 9.53501C12.5916 9.60489 12.5301 9.65513 12.4589 9.65429C12.3816 9.65429 12.319 9.71693 12.319 9.79421V9.93629C13.6123 9.97277 14.8239 10.2536 15.876 10.7201C15.9657 10.7587 16.0575 10.792 16.1511 10.82C16.2871 10.8622 16.3719 10.9976 16.3506 11.1385C16.3292 11.2793 16.2081 11.3835 16.0656 11.3835H7.99585C7.85335 11.3835 7.73225 11.2793 7.71089 11.1385C7.68953 10.9976 7.77432 10.8622 7.91041 10.82C8.00393 10.792 8.09577 10.7587 8.18545 10.7201C9.23761 10.2536 10.4491 9.97277 11.7425 9.93629V9.79829C11.7425 9.71876 11.678 9.65429 11.5985 9.65429ZM17.4 4.20005H6.00001C5.66864 4.20005 5.40001 3.93142 5.40001 3.60005C5.40001 3.26868 5.66864 3.00005 6.00001 3.00005H17.4V4.20005Z" fill="currentColor"/>
</svg>
