<svg width="24" height="24" viewBox="0 0 24 24" fill="currentColor" xmlns="http://www.w3.org/2000/svg">
<path fill-rule="evenodd" clip-rule="evenodd" d="M19.2 4.19995H4.79999C4.00432 4.19995 3.24124 4.51604 2.67863 5.07867C2.11601 5.64131 1.79999 6.4044 1.79999 7.20007V19.8H22.2V7.20007C22.2 6.4044 21.884 5.64131 21.3214 5.07867C20.7587 4.51604 19.9957 4.19995 19.2 4.19995ZM10.395 7.23274C10.5518 6.58488 11.105 6.11323 11.7896 6.01481C12.6523 5.89097 13.495 6.53544 13.6126 7.39402C13.7022 8.04859 13.4775 8.56296 12.9571 8.95781C12.8445 9.04327 12.7924 9.14261 12.808 9.28546C12.8757 9.91505 13.0541 11.7141 13.0807 11.9999H10.8984L11.1749 9.2856C11.1905 9.14326 11.1495 9.04942 11.0295 8.964C10.4243 8.53296 10.2417 7.86737 10.395 7.23274ZM7.01442 16.2881L7.82862 17.4683C8.05364 17.798 7.97 18.2475 7.64147 18.4742C7.31295 18.7008 6.86302 18.6195 6.63469 18.2921L6.07014 17.4737L5.50535 18.2921C5.27787 18.6218 4.8262 18.7046 4.49651 18.4771C4.16682 18.2497 4.08396 17.798 4.31144 17.4683L5.12562 16.2881C5.16378 16.2329 5.16378 16.1599 5.12562 16.1047L4.31144 14.9245C4.08396 14.5948 4.16682 14.1431 4.49651 13.9156C4.8262 13.6882 5.27787 13.771 5.50535 14.1007L6.07014 14.9191L6.63469 14.1007C6.86302 13.7733 7.31295 13.6919 7.64147 13.9186C7.97 14.1453 8.05364 14.5948 7.82862 14.9245L7.01442 16.1047C6.97626 16.1599 6.97626 16.2329 7.01442 16.2881ZM12.9319 16.2881L13.7463 17.4683C13.9738 17.798 13.8909 18.2497 13.5613 18.4771C13.2316 18.7046 12.7799 18.6218 12.5524 18.2921L11.9879 17.4737L11.4231 18.2921C11.1948 18.6195 10.7448 18.7008 10.4163 18.4742C10.0878 18.2475 10.0041 17.798 10.2291 17.4683L11.0433 16.2881C11.0815 16.2329 11.0815 16.1599 11.0433 16.1047L10.2291 14.9245C10.0041 14.5948 10.0878 14.1453 10.4163 13.9186C10.7448 13.6919 11.1948 13.7733 11.4231 14.1007L11.9879 14.9191L12.5524 14.1007C12.7799 13.771 13.2316 13.6882 13.5613 13.9156C13.8909 14.1431 13.9738 14.5948 13.7463 14.9245L12.9319 16.1047C12.894 16.1599 12.894 16.2328 12.9319 16.2881ZM18.8482 16.2881L19.6626 17.4683C19.8901 17.798 19.8072 18.2497 19.4775 18.4771C19.1479 18.7046 18.6962 18.6218 18.4687 18.2921L17.9042 17.4737L17.3394 18.2921C17.111 18.6195 16.6611 18.7008 16.3326 18.4742C16.0041 18.2475 15.9204 17.798 16.1454 17.4683L16.9596 16.2881C16.9978 16.2329 16.9978 16.1599 16.9596 16.1047L16.1454 14.9245C15.9204 14.5948 16.0041 14.1453 16.3326 13.9186C16.6611 13.6919 17.111 13.7733 17.3394 14.1007L17.9042 14.9191L18.4687 14.1007C18.6962 13.771 19.1479 13.6882 19.4775 13.9156C19.8072 14.1431 19.8901 14.5948 19.6626 14.9245L18.8482 16.1047C18.8103 16.1599 18.8103 16.2328 18.8482 16.2881Z" fill="currentColor"/>
</svg>
