<svg width="24" height="24" viewBox="0 0 24 24" fill="currentColor" xmlns="http://www.w3.org/2000/svg">
<path d="M15.134 0C14.8356 0 14.5496 0.118601 14.3387 0.329579C14.1277 0.540558 14.0093 0.826679 14.0093 1.125C14.0093 1.42332 14.1277 1.70944 14.3387 1.92042C14.5496 2.1314 14.8356 2.24995 15.134 2.25H16.2544C16.3225 2.24991 16.3839 2.29087 16.4099 2.35373C16.4359 2.41659 16.4215 2.48895 16.3733 2.53698L14.3726 4.53822C14.2782 4.63323 14.1323 4.65435 14.0148 4.59C11.9256 3.43706 9.3829 3.47304 7.32717 4.68463C5.27143 5.89621 4.00829 8.10329 4.00495 10.4895C4.00001 13.7493 6.30533 16.4711 9.37406 17.1085C9.51369 17.1379 9.61356 17.2612 9.61328 17.4039V19.2069C9.61323 19.3688 9.482 19.5 9.32012 19.5H8.48861C8.19028 19.5 7.90419 19.6186 7.69328 19.8296C7.48236 20.0405 7.36389 20.3267 7.36394 20.625C7.36389 20.9233 7.48236 21.2095 7.69328 21.4204C7.90419 21.6314 8.19028 21.75 8.48861 21.75H9.32012C9.39788 21.75 9.47246 21.7809 9.52744 21.8359C9.58242 21.8909 9.6133 21.9655 9.61328 22.0432V22.875C9.61323 23.1733 9.73171 23.4595 9.94264 23.6705C10.1536 23.8814 10.4397 24 10.738 24C11.0363 24 11.3224 23.8814 11.5333 23.6704C11.7442 23.4594 11.8627 23.1733 11.8626 22.875V22.0432C11.8626 21.8813 11.9939 21.75 12.1558 21.75H12.9873C13.2856 21.75 13.5717 21.6314 13.7826 21.4204C13.9935 21.2095 14.112 20.9233 14.1119 20.625C14.112 20.3267 13.9935 20.0405 13.7826 19.8296C13.5717 19.6186 13.2856 19.5 12.9873 19.5H12.1558C12.078 19.5 12.0034 19.4691 11.9485 19.4141C11.8935 19.3591 11.8626 19.2845 11.8626 19.2068V17.4101C11.8621 17.2673 11.9621 17.1437 12.102 17.1145C15.1823 16.4893 17.5009 13.7657 17.5009 10.5C17.5032 9.00573 17.0075 7.55332 16.092 6.37227C15.9993 6.25212 16.0103 6.08178 16.1178 5.97456L17.9638 4.128C18.0119 4.07987 18.0842 4.06546 18.147 4.09149C18.2098 4.11752 18.2508 4.17886 18.2507 4.24686V5.36766C18.2507 5.66598 18.3691 5.9521 18.58 6.16308C18.7909 6.37406 19.077 6.49261 19.3753 6.49266C19.6737 6.49262 19.9598 6.37407 20.1707 6.16308C20.3816 5.9521 20.5 5.66596 20.5 5.36763V0H15.134ZM10.753 15C8.9328 15.0006 7.29151 13.9045 6.59455 12.2231C5.89759 10.5416 6.28224 8.6058 7.56912 7.31852C8.856 6.03123 10.7916 5.64598 12.4733 6.34241C14.1551 7.03884 15.2516 8.67979 15.2516 10.5C15.252 12.9849 13.2379 14.9996 10.753 15ZM12.661 8.55H8.83001C8.44315 8.55119 8.12986 8.86457 8.12879 9.25143V9.34857C8.12986 9.73543 8.44315 10.0488 8.83001 10.05H12.661C13.0479 10.0488 13.3612 9.73543 13.3622 9.34857V9.25143C13.3612 8.86457 13.0479 8.55119 12.661 8.55ZM12.661 10.95H8.83001C8.44315 10.9512 8.12988 11.2646 8.12879 11.6514V11.7486C8.12988 12.1354 8.44315 12.4488 8.83001 12.45H12.661C13.0479 12.4488 13.3612 12.1354 13.3622 11.7486V11.6514C13.3612 11.2646 13.0479 10.9512 12.661 10.95Z" fill="currentColor"/>
</svg>
