<svg width="24" height="24" viewBox="0 0 24 24" fill="currentColor" xmlns="http://www.w3.org/2000/svg">
<path fill-rule="evenodd" clip-rule="evenodd" d="M15.9963 15.609C15.7499 16.6924 15.5035 17.7758 15.2571 18.8592C15.0198 19.9037 14.7797 20.9475 14.5498 21.9936C14.5151 22.1518 14.4486 22.1904 14.293 22.1896C12.7654 22.1834 11.2378 22.1859 9.71018 22.1859H9.498C9.00005 19.9983 8.50313 17.8153 8.00724 15.6368L7.96704 15.6396V15.8356C7.96704 17.8818 7.96825 19.928 7.97066 21.9742C7.97112 22.14 7.9308 22.1946 7.75932 22.1898C7.32235 22.1779 6.88483 22.1876 6.44755 22.1854C5.72688 22.1817 5.25065 21.7069 5.2505 20.9908C5.24983 17.9827 5.24983 14.9746 5.2505 11.9665C5.2505 11.2502 5.72827 10.7683 6.44287 10.7673C7.83055 10.7653 9.21826 10.77 10.6059 10.7625C10.7778 10.7616 10.8429 10.812 10.8834 10.9793C11.2299 12.4106 11.5866 13.8395 11.9406 15.2689C11.9523 15.3246 11.9791 15.3759 12.018 15.4174C12.4016 13.8735 12.7852 12.3297 13.1735 10.7667H13.3655C14.7532 10.7667 16.1409 10.7668 17.5286 10.767C18.277 10.7675 18.7511 11.2428 18.7512 11.9924C18.7515 14.983 18.7515 17.9736 18.7512 20.9642C18.751 21.7126 18.2772 22.184 17.5248 22.1858C17.036 22.1869 16.5471 22.186 16.0388 22.186V15.6059L15.9963 15.609ZM9.66725 9.63211H8.91434C8.27873 9.63211 7.64309 9.6301 7.0075 9.63401C6.8995 9.63468 6.84091 9.61416 6.8155 9.49325C6.3024 7.05439 6.7795 4.87947 8.63093 3.13781C10.6085 1.27733 13.6153 1.36687 15.5438 3.2887C16.6611 4.40213 17.2258 5.76771 17.3601 7.32751C17.4233 8.06151 17.3496 8.78112 17.1846 9.49529C17.1638 9.58534 17.1352 9.63507 17.0268 9.63449C16.1522 9.62995 15.2775 9.63171 14.4028 9.63101C14.3855 9.62925 14.3684 9.62574 14.3518 9.62054C14.4391 9.34291 14.5502 9.07248 14.6081 8.79113C14.8796 7.47089 14.6686 6.25373 13.7254 5.24393C12.6953 4.14103 11.0974 4.20662 10.1452 5.38428C9.25018 6.49102 9.08966 7.74814 9.47318 9.09384C9.52224 9.26602 9.59429 9.43164 9.66725 9.63211Z" fill="currentColor"/>
</svg>
