<svg width="24" height="24" viewBox="0 0 24 24" fill="currentColor" xmlns="http://www.w3.org/2000/svg">
<path fill-rule="evenodd" clip-rule="evenodd" d="M2.6 12.1995V19.9995C2.6 20.6623 3.13726 21.1995 3.8 21.1995H11V12.1995H2.6ZM12.2 12.1995V21.1995H19.4C20.0627 21.1995 20.6 20.6623 20.6 19.9995V12.1995H12.2ZM20 6.79952H15.272C15.6459 6.77682 16.0606 6.67211 16.3912 6.48299C17.1355 6.05737 17.5962 5.26702 17.5997 4.40967C17.6032 3.55232 17.1491 2.7582 16.4084 2.32647C15.6676 1.89473 14.7528 1.89097 14.0086 2.31659C13.6177 2.54017 13.3321 2.82491 13.1266 3.19093L11.6 5.78451L10.0734 3.19105C9.86797 2.82503 9.58234 2.54029 9.19148 2.31671C8.44723 1.89109 7.53244 1.89485 6.79171 2.32659C6.05099 2.75832 5.59686 3.55244 5.60039 4.40979C5.60392 5.26714 6.06458 6.05749 6.80883 6.48311C7.13943 6.67213 7.5541 6.77684 7.928 6.79952H3.2C2.53726 6.79952 2 7.33678 2 7.99952V10.9995H11V6.80384H12.2V10.9995H21.2V7.99952C21.2 7.33678 20.6627 6.79952 20 6.79952ZM6.95869 3.80394C7.17333 3.4303 7.57125 3.19981 8.00216 3.19952C8.2105 3.19919 8.41522 3.25397 8.59556 3.35831C8.79476 3.47228 8.92784 3.60183 9.02694 3.77831L9.03296 3.78906L9.0392 3.79967L10.1011 5.60375H8.11575L8.10375 5.60399C8.09619 5.60415 8.08854 5.60423 8.08088 5.60423C7.84678 5.60423 7.57508 5.53875 7.40473 5.44131C6.83013 5.11178 6.63061 4.37937 6.95869 3.80394ZM14.1608 3.79976L14.167 3.78915L14.1731 3.7784C14.2722 3.60186 14.4052 3.47231 14.6044 3.3584C14.7848 3.25404 14.9895 3.19922 15.1979 3.19952C15.7424 3.19862 16.2192 3.56441 16.3594 4.09053C16.4996 4.61665 16.2681 5.17123 15.7953 5.44139C15.6249 5.53883 15.3533 5.6043 15.1192 5.6043C15.1115 5.6043 15.1039 5.6043 15.0963 5.60406L15.0843 5.60382H13.0988L14.1608 3.79976ZM16.388 7.07072C16.4652 7.07072 16.4654 6.95072 16.388 6.95072C16.3106 6.95072 16.3106 7.07072 16.388 7.07072Z" fill="currentColor"/>
</svg>
