<svg width="24" height="24" viewBox="0 0 24 24" fill="currentColor" xmlns="http://www.w3.org/2000/svg">
<path fill-rule="evenodd" clip-rule="evenodd" d="M12 10.44C14.3859 10.44 16.32 8.50586 16.32 6.11999C16.32 3.73412 14.3859 1.79999 12 1.79999C9.61415 1.79999 7.68002 3.73412 7.68002 6.11999C7.68002 8.50586 9.61415 10.44 12 10.44ZM15.7848 10.1378C13.6592 12.1406 10.3412 12.1407 8.21546 10.138C6.51737 11.0635 5.444 12.8265 5.40156 14.76H5.40002V19.8C5.40002 21.1255 6.47454 22.2 7.80002 22.2H18.6V14.88C18.6007 12.903 17.5207 11.0838 15.7848 10.1378ZM16.275 21L14.3633 19.5294L12.525 21L13.2518 18.6744L11.4 17.25H13.6968L14.4 15L15.1032 17.25H17.4L15.5625 18.72L16.275 21Z" fill="currentColor"/>
</svg>
