<svg width="24" height="24" viewBox="0 0 24 24" fill="currentColor" xmlns="http://www.w3.org/2000/svg">
<path fill-rule="evenodd" clip-rule="evenodd" d="M16.8012 1.7998H7.19882C6.88072 1.7998 6.5757 1.92647 6.35088 2.15152C6.12606 2.37656 5.99984 2.6817 6 2.9998V20.9998C5.99967 21.6622 6.53637 22.1995 7.19878 22.1998H16.8012C17.1193 22.1998 17.4243 22.0731 17.6491 21.8481C17.8739 21.623 18.0002 21.3179 18 20.9998V2.9998C18.0003 2.3374 17.4636 1.80015 16.8012 1.7998ZM11.1 2.3998H12.9C13.0657 2.3998 13.2 2.53412 13.2 2.6998C13.2 2.86549 13.0657 2.9998 12.9 2.9998H11.1C10.9343 2.9998 10.8 2.86549 10.8 2.6998C10.8 2.53412 10.9343 2.3998 11.1 2.3998ZM12 21.5998C11.6686 21.5998 11.4 21.3312 11.4 20.9998C11.4 20.6684 11.6686 20.3998 12 20.3998C12.3314 20.3998 12.6 20.6684 12.6 20.9998C12.6 21.3312 12.3314 21.5998 12 21.5998ZM16.8 19.7998H7.2V3.5998H16.8V19.7998ZM14.28 13.8478H13.296V13.3198L12.2841 14.21L11.9862 14.4694C11.9465 14.5019 11.9235 14.5505 11.9235 14.6018C11.9235 14.6532 11.9465 14.7018 11.9862 14.7343L12.2841 14.9938L13.296 15.8878V15.3598H14.28C14.4564 15.3572 14.6181 15.2613 14.705 15.1078C14.7919 14.9543 14.7909 14.7663 14.7024 14.6137C14.7024 14.6126 14.28 13.8478 14.28 13.8478ZM15.6564 12.6874L15.6576 12.6866L14.916 11.5188L13.59 12.2462L14.9832 14.602L15.6142 13.5373C15.7891 13.2852 15.8055 12.9556 15.6564 12.6874ZM9.552 13.5838L10.0226 12.715L10.4655 12.9556L10.1782 11.6651L10.0923 11.2794C10.0827 11.229 10.051 11.1856 10.0058 11.1611C9.96075 11.1366 9.90704 11.1336 9.85951 11.153L9.48931 11.291L8.25043 11.7526L8.69345 11.9933L8.2368 12.8341L8.23586 12.8359C8.23274 12.8416 8.2308 12.8475 8.22792 12.8533C8.22552 12.8576 8.22257 12.8616 8.22017 12.866C8.15743 12.9815 8.14315 13.1172 8.18047 13.2432C8.21779 13.3693 8.30364 13.4753 8.41915 13.538C8.49871 13.5812 8.57964 13.5863 8.66395 13.5839C8.66501 13.5844 9.552 13.5838 9.552 13.5838ZM9.912 15.3598H11.328L11.3247 13.8478H8.54069L9.18012 14.9124C9.25376 15.0589 9.37054 15.1794 9.51473 15.2576C9.63648 15.3245 9.7731 15.3596 9.912 15.3598ZM12.068 9.64598L12.58 10.508L12.1465 10.7654L13.4023 11.1791L13.7775 11.3027C13.8258 11.3203 13.8793 11.3153 13.9234 11.2891C13.9676 11.2629 13.9976 11.2183 14.0053 11.1675L14.0763 10.7789L14.3139 9.47834L13.8804 9.73576L13.3917 8.91304L13.3907 8.91132C13.3874 8.90575 13.3833 8.901 13.3798 8.89555C13.3774 8.89123 13.3754 8.88669 13.3728 8.88235C13.2825 8.72988 13.1176 8.63733 12.9404 8.63971C12.7632 8.6421 12.6008 8.73905 12.5146 8.89389C12.5136 8.89442 12.068 9.64598 12.068 9.64598ZM10.3712 9.0394L10.3698 9.0388L9.63394 10.2526L10.9365 11.0212L12.3611 8.64079L11.112 8.6398C10.9517 8.63566 10.7935 8.67729 10.656 8.7598C10.5385 8.82691 10.4405 8.92322 10.3712 9.0394Z" fill="currentColor"/>
</svg>
