<svg width="24" height="24" viewBox="0 0 24 24" fill="currentColor" xmlns="http://www.w3.org/2000/svg">
<path fill-rule="evenodd" clip-rule="evenodd" d="M21.2465 9.58182C21.274 9.58972 21.2867 9.56075 21.2595 9.5103C21.2453 9.48792 21.2276 9.46797 21.207 9.45124C21.1911 9.4334 21.1693 9.42184 21.1456 9.41867C21.1177 9.4145 21.1146 9.43113 21.1235 9.45904C21.1465 9.5147 21.1908 9.55889 21.2465 9.58182ZM21.144 9.93177C21.1517 9.97615 21.1662 10.0191 21.1868 10.0591C21.2149 10.108 21.2505 10.1522 21.2922 10.1901C21.3801 10.2597 21.4286 10.22 21.4245 10.164C21.419 10.0938 21.3612 9.98615 21.2989 9.9292C21.2721 9.9062 21.2403 9.88976 21.2061 9.8812C21.1486 9.87052 21.1426 9.91329 21.144 9.93177ZM20.502 9.16278C20.5452 9.19842 20.6025 9.23495 20.6497 9.24064C20.6611 9.24303 20.673 9.24059 20.6826 9.23391C20.6921 9.22722 20.6985 9.21688 20.7001 9.20534C20.6949 9.15076 20.6083 9.05776 20.5112 9.0292C20.5003 9.02618 20.484 9.01799 20.4742 9.01648C20.4509 9.01499 20.429 9.02735 20.4182 9.04802C20.4194 9.09162 20.467 9.13403 20.502 9.16278ZM21.4725 10.4709C21.4781 10.5198 21.4898 10.5678 21.5075 10.6137C21.5288 10.6632 21.5584 10.7087 21.5949 10.7482C21.6684 10.813 21.7122 10.7594 21.7101 10.6961C21.7017 10.6038 21.6655 10.5162 21.6061 10.445C21.5845 10.4229 21.5566 10.4081 21.5262 10.4025C21.4768 10.3981 21.4714 10.4494 21.4725 10.4709ZM20.5257 9.43859C20.4746 9.4253 20.4534 9.42832 20.4325 9.43588C20.417 9.43987 20.4049 9.45193 20.4008 9.46739C20.3792 9.52098 20.434 9.61658 20.4998 9.68754C20.5227 9.71309 20.5485 9.73593 20.5766 9.75561C20.6596 9.81801 20.7419 9.84489 20.7851 9.83255C20.8261 9.82142 20.8475 9.77277 20.8202 9.70055C20.7976 9.65147 20.7673 9.60635 20.7304 9.56692C20.7098 9.54323 20.6863 9.52235 20.6603 9.50483C20.6198 9.47486 20.5742 9.45242 20.5257 9.43859ZM20.3761 14.275C20.3785 14.2726 20.3975 14.2473 20.4059 14.2366C20.4219 14.2151 20.4357 14.1922 20.4472 14.1681C20.3493 14.2359 20.2328 14.2721 20.1136 14.2715C20.037 14.2715 19.9611 14.256 19.8907 14.2258C19.8897 14.2273 19.8881 14.2294 19.8876 14.2306C19.8551 14.2938 19.8607 14.3919 19.8793 14.4151C19.9002 14.4415 19.9793 14.4685 20.0653 14.4514C20.1887 14.4274 20.321 14.3355 20.3761 14.275ZM20.9199 9.11315C20.8983 9.0774 20.8638 9.05122 20.8236 9.03995C20.7812 9.03009 20.7858 9.05025 20.7939 9.06705C20.8279 9.13933 20.9613 9.19031 20.9199 9.11315ZM21.5693 9.94662C21.557 9.92565 21.5419 9.90653 21.5242 9.88984C21.5084 9.86909 21.4849 9.85567 21.459 9.85266C21.4512 9.85129 21.4433 9.85404 21.4381 9.85992C21.4329 9.86579 21.4311 9.87395 21.4334 9.88146C21.4589 10.0388 21.661 10.1344 21.5693 9.94662ZM21.4718 11.9324C21.5027 11.8681 21.5228 11.7462 21.5038 11.6212C21.4961 11.5816 21.4841 11.543 21.4682 11.506C21.4217 11.3962 21.3565 11.3308 21.2727 11.3453C21.2091 11.3571 21.1641 11.4474 21.156 11.5357C21.1413 11.7013 21.1879 11.8642 21.22 11.9251C21.2374 11.9585 21.2613 11.9882 21.2903 12.0122C21.3651 12.056 21.4408 11.9957 21.4718 11.9324ZM21.1755 13.0508C21.2106 13.0199 21.2399 12.983 21.2622 12.9419C21.2844 12.9104 21.3035 12.8769 21.3193 12.8418C21.3492 12.7472 21.3611 12.6478 21.3545 12.5488C21.3479 12.5185 21.3364 12.4896 21.3204 12.463C21.2826 12.384 21.2354 12.3477 21.1471 12.3907C21.1427 12.3931 21.138 12.3902 21.1334 12.3923C21.078 12.4231 20.9971 12.5624 20.9786 12.616C20.9482 12.7216 20.9334 12.831 20.9346 12.9408C20.9405 12.9901 20.9898 13.0761 21.0166 13.0869C21.0572 13.1043 21.1413 13.0754 21.1755 13.0508ZM20.8644 13.9011C20.9177 13.8468 20.9613 13.7838 20.9933 13.7149C21.044 13.5868 21.0249 13.4764 20.973 13.4463C20.9388 13.4276 20.8829 13.435 20.8181 13.4696C20.7703 13.4952 20.7274 13.529 20.6915 13.5695V13.6948C20.6921 13.8106 20.658 13.9239 20.5936 14.0201C20.6711 14.0383 20.7914 13.9727 20.8644 13.9011ZM21.7956 12.2044C21.8493 12.2008 21.9029 12.1003 21.9025 11.9644C21.9019 11.8796 21.8735 11.7998 21.8521 11.7761C21.8504 11.7744 21.849 11.7583 21.847 11.756C21.8328 11.7361 21.8086 11.7259 21.7844 11.7296C21.7397 11.7345 21.7146 11.7787 21.7008 11.8451C21.6684 12.001 21.7112 12.2103 21.7956 12.2044ZM21.8414 10.4248C21.8315 10.4035 21.8184 10.3838 21.8027 10.3664C21.7844 10.3449 21.7692 10.3309 21.7461 10.333C21.7381 10.3347 21.7311 10.3396 21.7269 10.3466C21.7226 10.3536 21.7215 10.362 21.7236 10.3699C21.7446 10.5477 21.9186 10.6243 21.8414 10.4248ZM21.5708 11.5984C21.6167 11.6555 21.6682 11.655 21.7002 11.6176C21.73 11.5819 21.7525 11.5013 21.7431 11.4063C21.7361 11.3492 21.7205 11.2935 21.6969 11.241C21.687 11.2158 21.6728 11.1926 21.6551 11.1722C21.6351 11.1434 21.6042 11.124 21.5696 11.1185C21.5446 11.1149 21.52 11.1272 21.5079 11.1494C21.4953 11.1687 21.4876 11.1907 21.4853 11.2137C21.468 11.3106 21.4944 11.4441 21.5292 11.5274C21.5386 11.5534 21.5528 11.5774 21.5708 11.5984ZM20.9845 9.69278C21.0679 9.73041 21.0976 9.68982 21.0709 9.61838C21.0495 9.56612 21.0159 9.51968 20.9731 9.48285C20.9397 9.45326 20.9001 9.43149 20.8572 9.4191C20.8082 9.40694 20.7976 9.42074 20.7905 9.44114C20.7853 9.45558 20.7854 9.47142 20.791 9.48575C20.8281 9.57601 20.897 9.64964 20.9845 9.69278ZM17.9898 8.28297C17.9898 8.24803 17.9373 8.24447 17.8951 8.25569C17.8343 8.272 17.8234 8.29444 17.8204 8.31043C17.8083 8.37928 17.9892 8.35065 17.9898 8.28297ZM18.0209 8.51461C18.0749 8.53225 18.1324 8.53572 18.1881 8.5247C18.2276 8.51807 18.2648 8.502 18.2967 8.47787C18.3314 8.43501 18.2661 8.38732 18.1405 8.3979C18.1266 8.39942 18.1088 8.39776 18.0954 8.4003C18.0572 8.40987 18.0209 8.42605 17.9883 8.44811C17.9556 8.48555 17.9915 8.50333 18.0209 8.51461ZM17.5392 8.73525C17.6808 8.72234 17.7956 8.65401 17.7894 8.59996C17.7863 8.57219 17.7222 8.54838 17.6694 8.55026C17.6384 8.55358 17.6077 8.55919 17.5776 8.56706C17.5295 8.5766 17.4843 8.59744 17.4458 8.62785C17.3555 8.70294 17.4491 8.74355 17.5392 8.73525ZM16.9524 9.19242C16.9465 9.2205 16.9501 9.24975 16.9627 9.27556C16.9855 9.29279 17.013 9.30262 17.0416 9.30374C17.1557 9.31022 17.3392 9.23747 17.4145 9.17764C17.4362 9.15851 17.4564 9.13764 17.4748 9.11524C17.5429 9.01756 17.4534 8.95705 17.3421 8.96238C17.3156 8.96543 17.2894 8.97057 17.2637 8.97777C17.1191 9.01168 16.9843 9.10422 16.9524 9.19242ZM16.8472 8.96982C16.8499 8.99282 16.8925 9.00822 16.9232 9.00712C17.0298 9.00105 17.1626 8.92878 17.204 8.88314C17.2555 8.82592 17.2357 8.77468 17.1676 8.76935C17.1237 8.77117 17.0803 8.77962 17.0389 8.79443C16.9809 8.8122 16.9281 8.84367 16.8848 8.88618C16.8635 8.90924 16.8503 8.93861 16.8472 8.96982ZM17.4028 8.50423C17.4488 8.4921 17.5022 8.45945 17.5008 8.43255C17.4998 8.4198 17.474 8.41636 17.4605 8.41405C17.4331 8.40989 17.405 8.4135 17.3795 8.42449C17.3332 8.43905 17.3104 8.45626 17.2982 8.47547C17.2737 8.51574 17.3438 8.51916 17.4028 8.50423ZM18.4308 8.78906C18.5611 8.7887 18.6824 8.74662 18.6782 8.68283C18.6753 8.64443 18.6124 8.60774 18.5637 8.59749C18.5601 8.5971 18.5579 8.59007 18.5537 8.58894C18.5084 8.57971 18.462 8.57664 18.4159 8.5798C18.3184 8.58398 18.2599 8.60589 18.2242 8.63454C18.1411 8.70374 18.2353 8.78944 18.4308 8.78906ZM19.732 8.84975C19.7408 8.85426 19.7519 8.86091 19.7632 8.86583C19.9392 8.941 20.0287 8.88232 19.9387 8.79196C19.917 8.77024 19.8916 8.75256 19.8637 8.73976C19.8219 8.71748 19.7765 8.70296 19.7295 8.6969C19.6705 8.6897 19.6505 8.69901 19.6381 8.71129C19.6333 8.71396 19.629 8.71741 19.6253 8.7215C19.602 8.76102 19.6698 8.81985 19.732 8.84975ZM20.2925 8.79107C20.2691 8.74811 20.1931 8.70649 20.1376 8.69783C20.0811 8.68823 20.0634 8.69848 20.079 8.73318C20.1221 8.82717 20.3423 8.88366 20.2925 8.79107ZM18.7694 8.34225C18.7617 8.31012 18.6838 8.28956 18.6168 8.29378C18.5493 8.29768 18.521 8.31071 18.5213 8.33773C18.5227 8.41065 18.7849 8.41126 18.7694 8.34225ZM19.4722 9.10766C19.4712 9.11282 19.4674 9.12232 19.467 9.12369C19.4597 9.19809 19.5305 9.25506 19.6036 9.30481C19.6389 9.33118 19.6766 9.35404 19.7163 9.37307C19.7748 9.39584 19.8355 9.41221 19.8975 9.42191C19.9332 9.42799 19.9697 9.41885 19.9983 9.39671C20.0185 9.38533 20.0427 9.37053 20.0436 9.35327C20.047 9.29834 19.9993 9.22098 19.9419 9.17584C19.9191 9.15785 19.8954 9.14103 19.871 9.12544C19.8164 9.0937 19.7571 9.07108 19.6952 9.05848C19.6181 9.04441 19.5862 9.04581 19.5544 9.05673C19.5168 9.06885 19.4774 9.09004 19.4722 9.10766ZM20.201 9.2926C20.2425 9.3046 20.2832 9.31758 20.3234 9.33047C20.3759 9.32785 20.4061 9.30856 20.4146 9.27191C20.3863 9.17138 20.3042 9.10665 20.2065 9.05267C20.1715 9.04547 20.1081 9.01821 20.0901 9.02387C20.0189 9.01247 20.0026 9.04194 19.9834 9.06981C20.0052 9.16753 20.0961 9.23202 20.201 9.2926ZM19.4777 8.56398C19.5375 8.57039 19.5804 8.54908 19.5547 8.50919C19.5402 8.48639 19.4833 8.45529 19.4452 8.44622C19.4233 8.44174 19.401 8.43941 19.3787 8.43926C19.3133 8.43623 19.2962 8.4525 19.298 8.47134C19.3026 8.51886 19.4028 8.55602 19.4777 8.56398ZM18.9716 8.64916C19.0928 8.66116 19.1632 8.63301 19.1556 8.58882C19.1488 8.55042 19.0942 8.52148 19.0651 8.51128C19.0169 8.49445 18.9662 8.48596 18.9151 8.48617C18.8455 8.48617 18.8214 8.49789 18.7985 8.51325C18.7862 8.51928 18.7771 8.53038 18.7737 8.54366C18.7703 8.5971 18.8675 8.63862 18.9716 8.64916ZM19.2444 8.94285C19.318 8.9721 19.3962 8.98784 19.4753 8.98931C19.5091 8.98653 19.541 8.97268 19.5661 8.9499C19.5832 8.93334 19.5973 8.8929 19.5469 8.84003C19.5325 8.82803 19.517 8.81745 19.5005 8.80845C19.4763 8.79296 19.4509 8.7795 19.4244 8.76822C19.3829 8.75194 19.3395 8.74074 19.2953 8.73486C19.1853 8.72231 19.1423 8.74235 19.1121 8.7657C19.0391 8.82234 19.1436 8.90061 19.2444 8.94285ZM22.0662 11.023C22.0794 10.9863 22.0566 10.9041 22.041 10.8761C22.0301 10.8563 22.0085 10.8337 21.987 10.8395C21.9704 10.8439 21.9688 10.855 21.9682 10.8779C21.9654 10.997 22.0491 11.0701 22.0662 11.023ZM17.304 9.89968C17.3439 9.93846 17.3786 9.98213 17.4074 10.0296L18.4493 11.7236L19.4973 10.0232C19.6069 9.84539 19.764 9.75002 19.9634 9.73703C19.9498 9.71919 19.9347 9.70256 19.9182 9.68735C19.8936 9.6698 19.8682 9.65349 19.8419 9.63849C19.8135 9.62033 19.7841 9.60363 19.7539 9.58845C19.6799 9.55987 19.6016 9.54384 19.5224 9.54102C19.5007 9.54557 19.4794 9.55168 19.4586 9.55931C19.4321 9.56264 19.4059 9.56839 19.3805 9.57649C19.3293 9.60799 19.2996 9.66508 19.3032 9.72508C19.3088 9.76025 19.3204 9.79419 19.3375 9.82545C19.3068 9.81121 19.284 9.78789 19.2474 9.7684C19.2149 9.74988 19.1809 9.734 19.1459 9.7209C19.0619 9.69254 18.9739 9.69186 18.895 9.67902C18.9422 9.64101 18.9724 9.6015 18.9733 9.5559C18.9746 9.4767 18.9082 9.40658 18.8584 9.36933C18.8299 9.3486 18.7983 9.33262 18.7648 9.322C18.7436 9.31054 18.7218 9.30043 18.6993 9.29174C18.5592 9.25939 18.4126 9.27007 18.2786 9.32238C18.2485 9.33409 18.2209 9.3516 18.1975 9.37391C18.1783 9.38569 18.1598 9.39851 18.142 9.41231C18.0997 9.4631 18.0993 9.52408 18.1105 9.58108C18.0276 9.52108 17.7886 9.49996 17.617 9.57592C17.6175 9.57325 17.6181 9.57059 17.6188 9.56793C17.6266 9.56606 17.6342 9.56459 17.6334 9.55821C17.7295 9.4984 17.7746 9.46898 17.8018 9.40461C17.8612 9.26171 17.7101 9.19518 17.5626 9.20699C17.3259 9.22681 17.1127 9.38584 17.0942 9.53356C17.0828 9.63057 17.2571 9.72676 17.5352 9.61153C17.433 9.67782 17.3268 9.78052 17.304 9.89968ZM18.8628 9.20402C18.8308 9.24825 18.8596 9.34838 18.8847 9.37828C18.9132 9.41159 19.0393 9.48779 19.0945 9.50704C19.1895 9.53575 19.2879 9.55181 19.3871 9.5548C19.429 9.55327 19.4696 9.53972 19.5041 9.51575C19.5326 9.50027 19.5622 9.48695 19.5691 9.4708C19.586 9.43077 19.5635 9.34206 19.5157 9.28794C19.4874 9.26258 19.4563 9.24047 19.423 9.22204C19.3259 9.15737 19.211 9.1245 19.0944 9.12796C19.0872 9.12834 19.0785 9.12508 19.0714 9.12544C18.9842 9.12695 18.8805 9.18033 18.8628 9.20402ZM19.016 8.89058C18.9937 8.87711 18.9705 8.86498 18.9467 8.85424C18.8877 8.83186 18.8255 8.81923 18.7625 8.81685C18.7087 8.81171 18.6544 8.81787 18.6031 8.83494C18.5573 8.85174 18.5058 8.87656 18.4951 8.8936C18.4911 8.89856 18.4874 8.90372 18.484 8.90906C18.4515 8.97837 18.5112 9.01861 18.5776 9.05243C18.6115 9.07174 18.6478 9.08658 18.6856 9.09659C18.7519 9.10845 18.8191 9.11438 18.8865 9.1143C18.9324 9.11271 18.9773 9.1007 19.0179 9.07919C19.0459 9.06637 19.0805 9.05089 19.0869 9.03561C19.1074 8.98677 19.0717 8.92394 19.016 8.89058ZM21.5096 10.9664C21.5135 10.9395 21.5153 10.9123 21.5151 10.8851C21.5073 10.7427 21.414 10.5841 21.3383 10.5292C21.3235 10.5198 21.3071 10.5133 21.2898 10.51C21.1978 10.4812 21.1508 10.5622 21.1866 10.7135C21.2039 10.771 21.2255 10.8271 21.2511 10.8814C21.2723 10.9195 21.2984 10.9547 21.3287 10.986C21.4123 11.0658 21.4936 11.0361 21.5096 10.9664ZM20.7353 13.4966C20.7596 13.4775 20.7826 13.4568 20.8042 13.4345C20.8215 13.41 20.8375 13.3847 20.8522 13.3585C20.8682 13.3314 20.8933 13.2901 20.9013 13.2708C20.9292 13.1971 20.9447 13.1193 20.9471 13.0405C20.9427 13.019 20.9365 12.9978 20.9287 12.9772C20.9257 12.9508 20.9199 12.9248 20.9114 12.8996C20.8803 12.849 20.824 12.8195 20.7647 12.8229C20.7392 12.8267 20.7145 12.8344 20.6915 12.8457V13.5402C20.7058 13.5262 20.7223 13.508 20.7353 13.4966ZM21.0756 11.3393C21.2159 11.3967 21.2829 11.2508 21.2712 11.1034C21.255 10.9051 21.1412 10.7262 21.0301 10.669C20.8384 10.5717 20.7629 10.7598 20.8714 11.0763C20.8254 11.0021 20.764 10.9387 20.6914 10.8904V12.8154C20.7026 12.8002 20.7128 12.7842 20.7218 12.7676C20.7395 12.735 20.755 12.7014 20.7681 12.6668C20.7952 12.5834 20.7963 12.4964 20.8084 12.4182C20.8458 12.4662 20.8889 12.495 20.9299 12.4958C21.0086 12.4969 21.0769 12.4315 21.1135 12.3821C21.1339 12.354 21.1495 12.3228 21.1598 12.2897C21.1709 12.2687 21.1808 12.247 21.1895 12.2249C21.2211 12.0863 21.21 11.9415 21.1577 11.8094C21.1463 11.7795 21.1289 11.7522 21.1066 11.7292C21.0943 11.7133 21.0787 11.6834 21.0687 11.6745C21.0188 11.633 20.958 11.6319 20.9023 11.6433C20.9613 11.5617 20.9806 11.3265 20.9066 11.1567C20.9699 11.2422 21.007 11.3101 21.0756 11.3393ZM18.0657 8.76359C18.0451 8.75115 18.0222 8.74331 17.9983 8.7406C17.9455 8.73268 17.8919 8.73289 17.8391 8.74122C17.7922 8.74763 17.7463 8.76062 17.703 8.77982C17.6778 8.79024 17.6543 8.80439 17.6334 8.82179C17.5614 8.87874 17.5659 8.93891 17.6099 8.96905C17.6289 8.98265 17.6515 8.9905 17.6749 8.99169C17.7703 9.00298 17.867 8.99251 17.9578 8.96104C18.0374 8.93349 18.111 8.88537 18.1176 8.83718C18.1221 8.80422 18.0873 8.77686 18.0657 8.76359ZM18.3352 8.98475C18.2537 8.96604 18.1693 8.96389 18.087 8.97844C17.9684 8.99778 17.9092 9.03577 17.8708 9.06805C17.8567 9.07813 17.8432 9.08911 17.8305 9.10094C17.7918 9.14464 17.7927 9.21067 17.8327 9.25324C17.8701 9.2921 17.9722 9.32524 18.0378 9.32764C18.3006 9.3345 18.5498 9.23118 18.4957 9.08598C18.4829 9.0679 18.467 9.05219 18.4488 9.03957C18.4152 9.01355 18.3765 8.99487 18.3352 8.98475ZM21.8299 10.9621C21.8167 10.9549 21.8015 10.9524 21.7867 10.9551C21.7567 10.9579 21.7463 10.9867 21.7424 11.026C21.7301 11.152 21.8029 11.2945 21.8472 11.3181C21.913 11.3526 21.9423 11.2462 21.9166 11.1265C21.9026 11.0635 21.8576 10.9824 21.8299 10.9621ZM19.5745 15.0369C19.6844 15.043 19.8487 14.9778 19.9162 14.9207C19.9368 14.9012 19.9561 14.8803 19.974 14.8583C20.0481 14.7521 19.9769 14.688 19.8689 14.6956C19.8415 14.6998 19.8143 14.7061 19.7879 14.7146C19.6316 14.7557 19.4855 14.8483 19.4637 14.9357C19.4628 14.9632 19.4718 14.9901 19.489 15.0115C19.5151 15.0266 19.5444 15.0353 19.5745 15.0369ZM17.0048 8.6393C17.004 8.6285 16.9791 8.62619 16.9688 8.62506C16.9479 8.62266 16.9271 8.62403 16.8767 8.64486C16.8481 8.65542 16.822 8.67165 16.7999 8.69258C16.6947 8.81723 17.0089 8.73429 17.0048 8.6393ZM18.5724 15.006C18.6117 15.0225 18.6529 15.0341 18.6951 15.0402C18.816 15.0507 18.9375 15.0287 19.0471 14.9765C19.1189 14.9367 19.1798 14.8652 19.1721 14.7989C19.1635 14.7755 19.1477 14.7554 19.127 14.7415C19.0581 14.6891 18.9401 14.6711 18.7586 14.701C18.6278 14.7226 18.5214 14.7786 18.493 14.8255C18.4442 14.9076 18.5179 14.9804 18.5724 15.006ZM18.9064 15.2431C18.9266 15.2556 18.9494 15.2632 18.9731 15.2654C19.0607 15.2775 19.1499 15.2677 19.2327 15.2368C19.3059 15.2087 19.3778 15.1574 19.3924 15.1088C19.4028 15.0736 19.375 15.0466 19.356 15.0334C19.337 15.0203 19.3148 15.0127 19.2918 15.0114C19.2362 15.0047 19.1798 15.0066 19.1247 15.0171C19.0742 15.0246 19.025 15.0386 18.978 15.0586C18.9522 15.0688 18.9282 15.0831 18.907 15.101C18.8401 15.1557 18.8561 15.2132 18.9064 15.2431ZM19.8618 14.4691C19.8741 14.3635 19.6992 14.2836 19.4296 14.3957C19.5467 14.3177 19.6705 14.1917 19.6617 14.0489C19.6629 14.0499 19.6643 14.0503 19.6655 14.0512C19.5856 13.9495 19.5423 13.824 19.5423 13.6948V11.9354L18.9181 12.8954C18.7891 13.0886 18.632 13.1819 18.4371 13.1819C18.2423 13.1819 18.0852 13.0886 17.9569 12.8965L17.3441 11.9537V13.7069C17.3428 13.951 17.1851 14.1668 16.9529 14.2421C16.9668 14.2562 16.9844 14.2721 16.9958 14.2845C17.0152 14.3088 17.0362 14.3317 17.0587 14.3531C17.1455 14.4212 17.3239 14.4953 17.4577 14.4929C17.4796 14.4884 17.5011 14.482 17.5219 14.474C17.5487 14.4708 17.575 14.4647 17.6005 14.456C17.6517 14.4248 17.6817 14.3681 17.6788 14.3083C17.6732 14.2738 17.6617 14.2405 17.6448 14.2099C17.6755 14.2237 17.6984 14.246 17.7349 14.2648C17.7678 14.2821 17.8017 14.2973 17.8365 14.3102C17.9205 14.3363 18.0083 14.3365 18.087 14.3478C18.0387 14.3862 18.009 14.4294 18.008 14.4704C18.0061 14.5492 18.072 14.6168 18.1217 14.6528C18.15 14.6729 18.1813 14.6882 18.2146 14.6982C18.2711 14.7229 18.3315 14.7378 18.393 14.7424C18.4968 14.7475 18.6005 14.7298 18.6966 14.6905C18.7265 14.6785 18.7538 14.6608 18.777 14.6385C18.7928 14.6258 18.823 14.61 18.8321 14.5998C18.8736 14.5494 18.8746 14.4886 18.864 14.4328C18.9452 14.4911 19.18 14.5079 19.3493 14.4317C19.2813 14.4852 19.2173 14.5207 19.1868 14.5653C19.0843 14.7169 19.2326 14.8114 19.4019 14.7963C19.643 14.7739 19.8447 14.6093 19.8618 14.4691ZM17.9196 14.8985C17.9619 14.8949 18.0029 14.8819 18.0395 14.8605C18.0717 14.8454 18.1055 14.8311 18.1163 14.8164C18.1437 14.7783 18.1387 14.6954 18.0953 14.6444C18.0771 14.6231 18.0333 14.6023 17.998 14.5812C17.8873 14.5146 17.7601 14.4805 17.6309 14.4828C17.6233 14.4832 17.6136 14.4793 17.606 14.4793C17.5148 14.4801 17.4219 14.5369 17.4104 14.563C17.3906 14.6092 17.4365 14.7133 17.4637 14.743C17.5218 14.7927 17.5872 14.8332 17.6576 14.863C17.7427 14.8877 17.831 14.8997 17.9196 14.8985ZM17.9977 15.1474C18.0294 15.1653 18.0633 15.1792 18.0985 15.1886C18.158 15.1994 18.2186 15.2037 18.279 15.2014C18.3234 15.1983 18.3665 15.1857 18.4055 15.1644C18.4347 15.1509 18.4716 15.1336 18.481 15.1189C18.5125 15.0698 18.4879 15.0101 18.4345 14.9794C18.4117 14.9664 18.3881 14.9548 18.3638 14.9447C18.299 14.9225 18.231 14.9105 18.1625 14.9094C18.0711 14.907 18.0326 14.9128 17.9926 14.9278C17.9474 14.9446 17.9002 14.9691 17.8924 14.9867C17.8904 14.9917 17.8849 15.0011 17.8847 15.0024C17.8685 15.07 17.9319 15.1138 17.9977 15.1474ZM21.0679 10.0229C21.0664 10.0206 21.0465 10.0045 21.0352 9.99518C21.0042 9.97026 20.969 9.95116 20.9312 9.9388C20.8906 9.92625 20.883 9.92262 20.8636 9.92622C20.8328 9.93418 20.8101 9.96043 20.8067 9.9921C20.7999 10.0436 20.8375 10.1463 20.8747 10.2069C20.9089 10.261 20.9499 10.3105 20.9969 10.354C21.0585 10.4074 21.1323 10.4292 21.1628 10.4178C21.1913 10.4071 21.2081 10.3691 21.2105 10.3384C21.2145 10.2864 21.1841 10.1889 21.148 10.1285C21.1245 10.091 21.0977 10.0556 21.0679 10.0229ZM15.5017 13.3941C15.5232 13.4297 15.549 13.4624 15.5785 13.4917C15.6671 13.5735 15.757 13.5595 15.7729 13.497C15.7768 13.4706 15.7782 13.4438 15.777 13.4171C15.7635 13.2643 15.6608 13.0888 15.5824 13.0334C15.5679 13.0249 15.5516 13.0199 15.5348 13.0188C15.4516 13.0018 15.4073 13.0954 15.441 13.2408C15.457 13.2935 15.4773 13.3448 15.5017 13.3941ZM15.7754 10.9649C15.771 10.9681 15.7664 10.9657 15.7618 10.969C15.7069 11.0054 15.627 11.1358 15.6099 11.1838C15.5825 11.2807 15.5709 11.3814 15.5754 11.482C15.582 11.5318 15.6304 11.629 15.6549 11.647C15.6945 11.6752 15.7744 11.6623 15.8078 11.6411C15.8436 11.6177 15.8674 11.5726 15.8946 11.5274C15.9189 11.4919 15.9398 11.4541 15.957 11.4146C15.9858 11.3291 16.0101 11.1665 16.0002 11.0836C15.9933 11.0534 15.9803 11.025 15.9619 11.0002C15.9226 10.9309 15.8724 10.9064 15.7754 10.9649ZM15.4267 12.2318C15.4155 12.354 15.4377 12.4771 15.491 12.5877C15.5107 12.6219 15.5353 12.6529 15.5641 12.6799C15.5927 12.7046 15.6314 12.7143 15.6684 12.7061C15.7053 12.6979 15.7362 12.6726 15.7517 12.6381C15.7838 12.5741 15.7988 12.4408 15.7772 12.2973C15.7686 12.2529 15.7554 12.2095 15.738 12.1678C15.6905 12.0511 15.6272 11.9912 15.5407 12.0275C15.4812 12.0521 15.4356 12.148 15.4267 12.2318ZM15.9264 14.055C15.9878 14.1047 16.0666 14.1296 16.1004 14.1231C16.1314 14.1153 16.1541 14.089 16.1574 14.0573C16.1635 14.0083 16.1276 13.9091 16.0864 13.8437C16.0592 13.8028 16.0291 13.7639 15.9964 13.7273C15.9941 13.7257 15.9707 13.7054 15.961 13.6973C15.9295 13.672 15.8936 13.6529 15.8551 13.6407C15.8166 13.6311 15.8095 13.6267 15.7922 13.6335C15.7648 13.6437 15.7473 13.681 15.745 13.7128C15.7416 13.767 15.7767 13.8664 15.8109 13.9221C15.8427 13.9718 15.8816 14.0165 15.9264 14.055ZM16.6548 14.4694C16.6585 14.4714 16.6655 14.4841 16.6698 14.487C16.7956 14.5699 16.9317 14.585 16.9948 14.5627C17.0322 14.5497 17.071 14.5075 17.0657 14.464C17.0576 14.3973 16.9995 14.3166 16.9286 14.2494C16.8778 14.2639 16.8252 14.2713 16.7724 14.2714C16.6626 14.2719 16.5549 14.2406 16.4625 14.1812C16.4598 14.1896 16.4592 14.1984 16.4605 14.2071C16.4802 14.3054 16.5785 14.4246 16.6548 14.4694ZM16.2051 13.927C16.2076 13.9293 16.233 13.9488 16.2442 13.9569C16.2535 13.9639 16.2634 13.9705 16.2735 13.9767C16.2294 13.8936 16.2066 13.801 16.2069 13.7069V13.4215C16.1477 13.407 16.0805 13.4133 16.0616 13.4283C16.035 13.4495 16.0077 13.5287 16.0252 13.6151C16.0503 13.739 16.1436 13.8717 16.2051 13.927ZM15.3653 12.446C15.3464 12.4182 15.315 12.4016 15.2815 12.4017C15.2556 12.4047 15.2332 12.4211 15.2224 12.4449C15.2106 12.4656 15.2031 12.4884 15.2002 12.5121C15.1873 12.6123 15.2021 12.7141 15.243 12.8065C15.2533 12.8319 15.2678 12.8554 15.286 12.8759C15.3355 12.9365 15.3896 12.9461 15.4211 12.9154C15.4525 12.8846 15.4722 12.8037 15.4596 12.7C15.4505 12.6373 15.4331 12.5761 15.408 12.5179C15.3984 12.4915 15.3839 12.467 15.3653 12.446ZM20.2942 9.55302C20.2319 9.51166 20.1616 9.48408 20.0878 9.47214C19.9752 9.45534 19.9542 9.48465 19.9329 9.52439C19.9209 9.53881 19.9134 9.5564 19.9113 9.57501C19.9233 9.63451 19.9508 9.68982 19.9908 9.73542C19.9974 9.73525 20.0035 9.73434 20.01 9.73434H20.1137C20.2589 9.73345 20.3991 9.78739 20.5062 9.88538C20.5103 9.87051 20.511 9.85496 20.5085 9.83977C20.4899 9.74022 20.3892 9.61681 20.2942 9.55302ZM16.207 13.1178V11.2841C16.1937 11.31 16.1819 11.3367 16.1718 11.3639C16.1448 11.4489 16.144 11.5376 16.1324 11.6172C16.0932 11.5697 16.0535 11.5382 16.0076 11.5374C15.928 11.5361 15.8582 11.6024 15.8212 11.6523C15.8007 11.6809 15.785 11.7126 15.7747 11.7462C15.7657 11.7693 15.7503 11.7916 15.7451 11.812C15.7143 11.953 15.7269 12.1001 15.7811 12.2339C15.7932 12.2642 15.8112 12.2918 15.8339 12.3152C15.8459 12.3345 15.859 12.3531 15.8732 12.3708C15.9249 12.4134 15.9862 12.4139 16.0434 12.4032C15.984 12.4856 15.9665 12.7227 16.0441 12.8937C15.9896 12.825 15.9536 12.7603 15.9081 12.7296C15.7249 12.6068 15.6294 12.8248 15.6952 13.0678C15.7291 13.1917 15.8287 13.3347 15.9236 13.3827C16.1258 13.4833 16.1928 13.2791 16.0809 12.9747C16.1162 13.0279 16.1587 13.076 16.207 13.1178ZM20.7201 10.0926C20.6908 10.0705 20.6588 10.0522 20.6248 10.0383C20.6689 10.1223 20.6918 10.2159 20.6915 10.3109V10.6019C20.6975 10.6067 20.7039 10.6112 20.7105 10.6152C20.7735 10.6483 20.8715 10.6421 20.8949 10.6234C20.9213 10.6021 20.9491 10.5228 20.9327 10.4362C20.9044 10.3177 20.8442 10.2092 20.7584 10.1227C20.7559 10.1206 20.731 10.1008 20.7201 10.0926ZM15.9928 10.209C15.9733 10.2365 15.9559 10.2653 15.9407 10.2954C15.8892 10.4248 15.9052 10.5372 15.9507 10.5525C15.9526 10.5536 15.9507 10.5691 15.9531 10.5709C16.0163 10.6108 16.1248 10.5549 16.2071 10.4821V10.3109C16.2064 10.1959 16.2401 10.0833 16.3037 9.98742C16.2608 9.99184 16.2192 10.005 16.1815 10.0262C16.08 10.081 16.0396 10.1369 15.9928 10.209ZM16.8197 9.27311C16.8179 9.27311 16.7969 9.27134 16.7882 9.27057C16.7138 9.2766 16.6415 9.29847 16.5763 9.33472C16.5261 9.36626 16.4807 9.40477 16.4414 9.4491C16.3919 9.50855 16.3651 9.58809 16.3714 9.62234C16.3797 9.6532 16.406 9.67586 16.4377 9.67941C16.4909 9.68625 16.5942 9.64732 16.6546 9.60966C16.7094 9.57502 16.7594 9.53333 16.8034 9.48568C16.8541 9.42741 16.881 9.35162 16.8684 9.31806C16.8579 9.29787 16.8407 9.28189 16.8197 9.27311ZM16.8866 9.55026C16.7666 9.57899 16.6569 9.64037 16.5696 9.7276C16.5673 9.73012 16.5473 9.75532 16.5391 9.76648C16.5314 9.77661 16.5242 9.78714 16.5175 9.79802C16.6003 9.75589 16.6918 9.73405 16.7847 9.7343H16.8883C16.951 9.73437 17.0132 9.74395 17.073 9.76271C17.1001 9.69909 17.094 9.61019 17.0761 9.58797C17.0547 9.56123 16.9741 9.5331 16.8866 9.55026ZM16.1321 10.5805C16.0625 10.6678 15.9855 10.8472 15.9873 10.9818C15.9917 11.0039 15.998 11.0256 16.0062 11.0465C16.0092 11.0735 16.0153 11.1001 16.0242 11.1257C16.0562 11.1774 16.1137 11.2077 16.1745 11.2047C16.1855 11.2031 16.1964 11.2004 16.207 11.1969V10.513C16.2054 10.5145 16.2037 10.5163 16.2022 10.5176C16.1774 10.537 16.154 10.5579 16.1321 10.5805ZM20.1636 14.7287C20.2188 14.7329 20.3176 14.6982 20.3723 14.6648C20.4216 14.6336 20.466 14.5953 20.5043 14.5513C20.5505 14.4948 20.579 14.416 20.5719 14.3793C20.5666 14.3575 20.5531 14.3385 20.5342 14.3265C20.5327 14.3261 20.514 14.3235 20.5061 14.3226C20.4661 14.3239 20.4266 14.3324 20.3896 14.3476C20.3558 14.3585 20.3234 14.3733 20.293 14.3918C20.2393 14.4264 20.1903 14.4678 20.1472 14.515C20.0956 14.5756 20.0726 14.6508 20.0842 14.6817C20.1005 14.7103 20.1307 14.7281 20.1636 14.7287ZM19.659 15.4926C19.6235 15.4875 19.5873 15.4918 19.554 15.505C19.529 15.5103 19.5058 15.522 19.4868 15.539C19.4124 15.6069 19.567 15.5996 19.6314 15.5637C19.6829 15.5342 19.6785 15.4995 19.659 15.4926ZM18.8334 15.481C18.8188 15.4826 18.8002 15.4813 18.7862 15.4839C18.7477 15.4931 18.7113 15.5094 18.6788 15.5321C18.6507 15.5681 18.689 15.5873 18.7192 15.5986C18.7706 15.6161 18.8258 15.6193 18.8789 15.6078C18.9175 15.5999 18.9537 15.5831 18.9847 15.5587C19.0238 15.5129 18.9643 15.468 18.8334 15.481ZM19.0594 15.6976C18.9979 15.7154 18.9874 15.7369 18.9854 15.7531C18.977 15.8198 19.1503 15.7907 19.1534 15.7233C19.1548 15.6868 19.1023 15.6857 19.0594 15.6976ZM19.5582 15.3133C19.5588 15.2836 19.4992 15.26 19.4454 15.2637C19.4131 15.2679 19.3811 15.2745 19.3497 15.2833C19.3 15.2931 19.2534 15.3145 19.2136 15.3457C19.1298 15.4167 19.231 15.4581 19.3174 15.451C19.4479 15.4397 19.5567 15.368 19.5582 15.3133ZM20.048 14.9929C20.0034 14.996 19.9594 15.0057 19.9176 15.0217C19.8575 15.0409 19.8025 15.0734 19.7567 15.1169C19.7364 15.1386 19.7254 15.1674 19.7261 15.1971C19.7321 15.2181 19.7783 15.2329 19.8092 15.2317C19.9112 15.2275 20.0331 15.1586 20.0722 15.1133C20.1236 15.0533 20.1116 14.998 20.048 14.9929ZM20.585 14.8004C20.6375 14.731 20.6344 14.6668 20.5812 14.6607C20.5559 14.6581 20.4942 14.682 20.466 14.6952C20.4072 14.722 20.3546 14.761 20.3119 14.8096C20.29 14.8367 20.276 14.8694 20.2716 14.904C20.2732 14.9282 20.3114 14.9442 20.3388 14.9418C20.4287 14.9341 20.5449 14.8531 20.585 14.8004ZM20.1467 15.2473C20.1261 15.2452 20.1057 15.2467 20.0542 15.2685C20.0253 15.2794 19.9987 15.2959 19.976 15.317C19.8802 15.4338 20.1783 15.3568 20.18 15.2623C20.18 15.2506 20.1563 15.2487 20.1467 15.2473ZM18.303 15.6282C18.2342 15.6327 18.2066 15.6454 18.2098 15.6742C18.2184 15.7468 18.4656 15.7435 18.4567 15.6756C18.4519 15.6417 18.3726 15.6238 18.303 15.6282ZM17.2474 15.181C17.2029 15.1587 17.1551 15.1438 17.1058 15.137C17.0462 15.1298 17.0279 15.1394 17.0174 15.1527C17.0133 15.1558 17.0097 15.1595 17.0066 15.1636C16.9907 15.2046 17.0574 15.2642 17.1161 15.2924C17.1245 15.2965 17.1349 15.3028 17.1456 15.3071C17.3112 15.3752 17.4138 15.316 17.3265 15.2325C17.3034 15.2108 17.2766 15.1933 17.2474 15.181ZM17.5647 15.4714C17.542 15.4668 17.5189 15.4646 17.4958 15.4648C17.4301 15.4619 17.4153 15.4783 17.419 15.4979C17.428 15.5455 17.5238 15.5824 17.5956 15.5879C17.6543 15.5921 17.6999 15.5702 17.6772 15.5327C17.6632 15.5104 17.6045 15.4808 17.5647 15.4714ZM17.1738 14.945C17.2286 14.9646 17.2854 14.9779 17.3433 14.9845C17.3805 14.9882 17.4179 14.98 17.4501 14.961C17.4736 14.9502 17.5029 14.9362 17.5071 14.921C17.5209 14.8699 17.4754 14.7973 17.4145 14.7532C17.3894 14.7345 17.3633 14.7173 17.3363 14.7015C17.2757 14.6678 17.2103 14.6436 17.1424 14.6297C17.0615 14.614 17.0303 14.6158 17.0004 14.6283C16.9671 14.6425 16.9338 14.6654 16.9326 14.6851C16.9321 14.6907 16.9307 14.7011 16.9307 14.7026C16.9367 14.7796 17.0034 14.8378 17.0713 14.8846C17.1032 14.9083 17.1376 14.9285 17.1738 14.945ZM20.6484 14.9528C20.6446 14.9524 20.6408 14.9523 20.637 14.9525C20.6175 14.9497 20.6089 14.9503 20.5709 14.967C20.5402 14.9784 20.5127 14.9971 20.4908 15.0215C20.4887 15.0239 20.4766 15.029 20.4737 15.0317C20.4655 15.0423 20.4582 15.0535 20.4518 15.0653C20.4318 15.1082 20.4716 15.1189 20.5194 15.1025C20.5647 15.0871 20.6352 15.0358 20.6538 14.9908C20.6581 14.9824 20.6557 14.972 20.6479 14.9664C20.6486 14.9619 20.6488 14.9573 20.6484 14.9528ZM18.7847 15.3241C18.7889 15.2844 18.7299 15.2506 18.68 15.2422C18.6763 15.2415 18.6746 15.2342 18.6702 15.2331C18.6217 15.225 18.5724 15.2231 18.5234 15.2273C18.4192 15.2333 18.3593 15.2534 18.3266 15.2827C18.2561 15.3478 18.3615 15.4382 18.5404 15.4357C18.6593 15.4337 18.7775 15.3854 18.7847 15.3241ZM18.1178 15.3937C18.0665 15.3779 18.0131 15.37 17.9594 15.3701C17.8874 15.3704 17.864 15.3816 17.8432 15.3974C17.8317 15.4037 17.8242 15.4153 17.8232 15.4283C17.8279 15.4811 17.9219 15.5243 18.0189 15.5325C18.1329 15.5421 18.2055 15.5098 18.2042 15.4681C18.203 15.4297 18.1482 15.4028 18.1178 15.3937ZM17.8638 15.1506C17.849 15.1389 17.833 15.1289 17.8161 15.1208C17.7903 15.1051 17.7632 15.0919 17.735 15.0812C17.6897 15.0648 17.6427 15.0534 17.595 15.0472C17.4792 15.0342 17.4386 15.0537 17.4132 15.079C17.3556 15.1353 17.4608 15.2184 17.5554 15.2577C17.624 15.2841 17.6971 15.2968 17.7706 15.295C17.8057 15.2904 17.839 15.2768 17.8672 15.2555C17.8881 15.2392 17.9108 15.1994 17.8638 15.1506ZM22.003 11.5166C21.9968 11.5142 21.9901 11.5129 21.9834 11.5127C21.9682 11.5211 21.9481 11.5897 21.9468 11.6069C21.9413 11.6655 21.9511 11.7246 21.9753 11.7783C21.9931 11.8191 22.0192 11.8489 22.0464 11.8305C22.0622 11.8194 22.0811 11.7677 22.084 11.7349C22.0921 11.6381 22.0552 11.5166 22.003 11.5166ZM21.7148 12.9436C21.7429 12.876 21.7562 12.8032 21.7539 12.73C21.7518 12.7147 21.7476 12.6999 21.7412 12.6858C21.736 12.667 21.7271 12.6493 21.715 12.634C21.7 12.6174 21.6769 12.6109 21.6555 12.6173C21.5976 12.6369 21.5659 12.6991 21.5387 12.765C21.4741 12.921 21.4957 13.0449 21.534 13.0842C21.5551 13.1051 21.6029 13.1048 21.6437 13.0653C21.6731 13.0283 21.6969 12.9873 21.7148 12.9436ZM21.7404 13.6086C21.6995 13.6396 21.671 13.684 21.6599 13.7341C21.6164 13.8854 21.7586 13.8031 21.793 13.666C21.8097 13.5982 21.7796 13.5796 21.7404 13.6086ZM21.7916 13.2139C21.7906 13.1748 21.783 13.1659 21.7737 13.1558C21.7557 13.136 21.7363 13.1364 21.7089 13.1547C21.6763 13.1788 21.651 13.2115 21.6357 13.249C21.6317 13.258 21.6245 13.2687 21.6199 13.28C21.5773 13.381 21.5831 13.4588 21.6063 13.4771C21.6096 13.481 21.6132 13.4846 21.6172 13.4879C21.688 13.5159 21.7948 13.3334 21.7916 13.2139ZM21.9949 12.484C22.0031 12.3978 21.9848 12.3473 21.9739 12.3318C21.9563 12.3064 21.9355 12.2976 21.9106 12.3111C21.878 12.3279 21.8645 12.3622 21.8505 12.4051C21.8413 12.431 21.835 12.4578 21.8316 12.4851C21.8172 12.6128 21.848 12.6844 21.8927 12.6771C21.9435 12.6684 21.9857 12.5796 21.9949 12.484ZM22.1328 12.0579C22.1048 12.0736 22.0926 12.1068 22.0907 12.1752C22.0857 12.353 22.1893 12.3199 22.1906 12.1605C22.191 12.0832 22.1605 12.043 22.1328 12.0579ZM16.7742 14.7471C16.737 14.7401 16.6708 14.7098 16.6534 14.7172C16.5844 14.706 16.5731 14.7394 16.5591 14.7699C16.5882 14.8694 16.6713 14.9331 16.77 14.9854C16.8094 14.9963 16.8492 15.0075 16.8894 15.018C16.9451 15.0156 16.98 14.9984 16.9941 14.9656C16.9721 14.869 16.8804 14.8057 16.7742 14.7471ZM22.0201 12.8162C22.0073 12.8177 21.9956 12.8242 21.9876 12.8342C21.9534 12.8606 21.9363 12.9082 21.9275 12.9531C21.9057 13.063 21.9391 13.0964 21.9765 13.0732C22.0059 13.054 22.0417 12.982 22.048 12.9057C22.0518 12.8608 22.0361 12.8187 22.0201 12.8162ZM21.0534 14.0613C21.0675 14.0247 21.0687 13.9843 21.0569 13.9469C21.0537 13.9309 21.0412 13.9184 21.0252 13.9154C20.9985 13.9047 20.9547 13.916 20.9193 13.9343C20.8778 13.955 20.84 13.9821 20.8071 14.0147C20.7822 14.038 20.7597 14.0637 20.7399 14.0915C20.6679 14.1894 20.65 14.2779 20.6719 14.3173C20.6785 14.3321 20.6931 14.3419 20.7094 14.3422C20.7592 14.3537 20.8395 14.319 20.902 14.268C20.9688 14.2128 21.0209 14.1417 21.0534 14.0613ZM21.6076 12.5043C21.6257 12.4727 21.6399 12.439 21.6499 12.404C21.6705 12.3038 21.6641 12.1873 21.6429 12.1302C21.6351 12.1082 21.6255 12.087 21.6141 12.0666C21.5975 12.0335 21.5635 12.0125 21.5264 12.0124C21.4902 12.0144 21.4582 12.0366 21.4437 12.0699C21.4167 12.114 21.3962 12.1617 21.3828 12.2117C21.3805 12.2228 21.376 12.2442 21.3756 12.2472C21.352 12.4014 21.3743 12.4815 21.4018 12.5404C21.4146 12.5691 21.4299 12.6028 21.4455 12.6088C21.4758 12.6193 21.5092 12.6164 21.5374 12.6009C21.5682 12.5818 21.5851 12.5472 21.6076 12.5043ZM21.3369 13.4224C21.3608 13.3909 21.3813 13.357 21.3981 13.3212C21.4349 13.2246 21.4432 13.1191 21.4275 13.0725C21.422 13.0547 21.4141 13.0377 21.404 13.022C21.3851 12.9911 21.3412 12.9889 21.3118 13C21.2687 13.0152 21.2319 13.0443 21.2071 13.0827C21.1709 13.1295 21.1398 13.1799 21.1142 13.2333C21.1103 13.244 21.1015 13.2648 21.1004 13.2676C21.0513 13.4111 21.0673 13.4721 21.0926 13.5141C21.1046 13.5343 21.1188 13.558 21.1361 13.5591C21.1743 13.5579 21.2116 13.5466 21.2441 13.5263C21.2814 13.498 21.3129 13.4627 21.3369 13.4224ZM21.084 14.3682C21.0955 14.3232 21.0659 14.289 21.0302 14.2966C21.0058 14.3057 20.9823 14.3174 20.9603 14.3314C20.914 14.3587 20.8737 14.3952 20.8419 14.4385C20.7509 14.558 20.8029 14.6087 20.8669 14.5906C20.962 14.563 21.0628 14.4509 21.084 14.3682ZM21.0065 14.6568C20.9827 14.6703 20.962 14.6889 20.9462 14.7113C20.865 14.8182 20.9767 14.7975 21.0354 14.7411C21.0821 14.696 21.0923 14.6447 21.082 14.6348C21.0748 14.6277 21.0502 14.6292 21.0065 14.6568ZM21.4055 13.9498C21.3957 13.9531 21.3863 13.9573 21.3773 13.9624C21.3423 13.9961 21.3114 14.0337 21.2853 14.0747C21.2451 14.1504 21.2565 14.1783 21.2677 14.194C21.2813 14.213 21.3115 14.2177 21.3583 14.1827C21.3934 14.1523 21.4232 14.1163 21.4467 14.0763C21.4929 13.9871 21.4843 13.9068 21.4055 13.9498ZM21.4164 14.3192C21.3865 14.3377 21.3633 14.3652 21.3502 14.3979C21.317 14.4823 21.4326 14.4243 21.4599 14.3412C21.4746 14.2961 21.4456 14.2993 21.4164 14.3192ZM21.4373 13.7216C21.4919 13.5691 21.464 13.5211 21.4179 13.4993C21.3915 13.5153 21.3555 13.5136 21.3339 13.5411C21.2775 13.5774 21.2391 13.6484 21.1976 13.716C21.14 13.874 21.1684 13.9153 21.2201 13.9292C21.2489 13.9169 21.2772 13.9046 21.3053 13.8927C21.3591 13.8439 21.4038 13.786 21.4373 13.7216ZM15.7784 14.504C15.7625 14.4859 15.7404 14.4742 15.7165 14.4713C15.6899 14.4682 15.6873 14.4855 15.697 14.5138C15.7203 14.5684 15.7646 14.6113 15.8198 14.6329C15.8489 14.6407 15.8626 14.6141 15.8338 14.5642C15.8187 14.5413 15.8 14.5209 15.7784 14.504ZM14.7371 12.529C14.7052 12.5383 14.7055 12.5722 14.7091 12.5986C14.7247 12.709 14.8263 12.7224 14.8044 12.6061C14.7927 12.5445 14.7597 12.5229 14.7371 12.529ZM15.2128 11.0808C15.1525 11.2242 15.177 11.3491 15.2128 11.3952C15.2335 11.4212 15.2794 11.4291 15.3184 11.3918C15.3426 11.3684 15.3756 11.2942 15.3891 11.2618C15.4189 11.1879 15.4341 11.1088 15.4338 11.029C15.432 11.0137 15.4276 10.9988 15.4206 10.985C15.4159 10.9671 15.4066 10.9508 15.3937 10.9375C15.3755 10.9241 15.3514 10.9219 15.3311 10.9316C15.2726 10.9589 15.2392 11.0185 15.2128 11.0808ZM15.3388 11.492C15.3127 11.5347 15.2925 11.5807 15.2788 11.6288C15.2768 11.6391 15.2724 11.6588 15.272 11.6615C15.2501 11.8013 15.2748 11.8786 15.3021 11.9389C15.3158 11.9691 15.3327 12.0056 15.3477 12.0154C15.3748 12.0323 15.408 12.0365 15.4384 12.0268C15.4696 12.0128 15.4842 11.9771 15.5061 11.933C15.525 11.8989 15.5394 11.8625 15.5492 11.8248C15.5695 11.7112 15.5644 11.5821 15.5427 11.522C15.5349 11.5002 15.5252 11.4792 15.5136 11.4592C15.4954 11.4279 15.4585 11.4126 15.4235 11.4221C15.3864 11.4321 15.3555 11.4575 15.3388 11.492ZM15.1822 10.6386C15.1782 10.6471 15.1714 10.6575 15.1671 10.6683C15.1265 10.7643 15.1339 10.8441 15.1548 10.8659C15.1578 10.8705 15.1613 10.8747 15.165 10.8787C15.2346 10.9197 15.3426 10.7206 15.3416 10.5945C15.3411 10.5558 15.3331 10.548 15.3232 10.5393C15.3045 10.5229 15.2842 10.5258 15.2554 10.5457C15.2234 10.5699 15.1982 10.6019 15.1822 10.6386ZM15.2746 10.2722C15.2929 10.2036 15.2618 10.1887 15.2211 10.2189C15.181 10.2494 15.1529 10.2932 15.1419 10.3424C15.0985 10.4977 15.2356 10.4182 15.2746 10.2722ZM14.9368 11.2034C14.9658 11.1854 15.0005 11.1091 15.0087 11.0282C15.0131 10.9818 14.9981 10.9414 14.9817 10.9404C14.9685 10.9434 14.9566 10.9507 14.9481 10.9611C14.9156 10.9925 14.8947 11.034 14.8887 11.0787C14.8681 11.1863 14.9018 11.2251 14.9368 11.2034ZM15.0417 11.9663C15.0105 12.1115 15.0611 12.3126 15.1411 12.3218C15.197 12.3285 15.2455 12.2288 15.2436 12.0796C15.2419 11.9861 15.2148 11.9012 15.1922 11.8795C15.1908 11.8775 15.1898 11.8612 15.188 11.8588C15.1728 11.8403 15.1475 11.8337 15.1252 11.8424C15.0819 11.8555 15.0558 11.9014 15.0417 11.9663ZM15.5563 10.0471C15.593 10.0141 15.6245 9.97567 15.6497 9.93321C15.6996 9.84064 15.6907 9.76578 15.6067 9.81189C15.5969 9.81566 15.5874 9.82009 15.5783 9.82516C15.5443 9.85754 15.5142 9.89379 15.4887 9.93316C15.4498 10.0076 15.4599 10.0373 15.4695 10.0548C15.4814 10.0767 15.5098 10.0836 15.5563 10.0471ZM16.0096 9.75942C15.9862 9.78071 15.9653 9.80456 15.9472 9.83054C15.8795 9.92303 15.8616 10.0159 15.8778 10.0607C15.8807 10.0768 15.8933 10.0895 15.9095 10.0924C15.9549 10.1111 16.0348 10.0738 16.1015 10.0175C16.1671 9.96201 16.2414 9.87215 16.2707 9.79357C16.2864 9.75906 16.2861 9.71938 16.2699 9.68512C16.2637 9.66975 16.2487 9.65976 16.2321 9.66001C16.1928 9.65684 16.1535 9.66518 16.1189 9.68401C16.0788 9.70348 16.042 9.7289 16.0096 9.75942ZM15.9282 9.35517C15.9644 9.33465 16.0156 9.28163 16.0268 9.2416C16.0286 9.23555 16.0272 9.22904 16.0233 9.22415C16.0193 9.21927 16.0132 9.21664 16.0069 9.21712C15.9915 9.21409 15.9857 9.21354 15.9463 9.23786C15.9142 9.25704 15.8879 9.28448 15.87 9.31732C15.8375 9.3773 15.8825 9.38085 15.9282 9.35517ZM16.506 8.91182C16.5073 8.89931 16.4857 8.89694 16.4768 8.89617C16.4588 8.89391 16.4403 8.89557 16.3931 8.92053C16.3651 8.93412 16.3399 8.95306 16.3192 8.9763C16.2102 9.12023 16.494 9.02152 16.506 8.91182ZM15.494 10.2909C15.4378 10.4456 15.4658 10.4937 15.5116 10.5159C15.5385 10.5047 15.5659 10.4938 15.5936 10.4824C15.6498 10.4275 15.6972 10.3644 15.7342 10.2952C15.7933 10.1349 15.7648 10.094 15.7133 10.0796C15.6845 10.0967 15.6474 10.0994 15.6249 10.1253C15.5698 10.1621 15.5312 10.2265 15.494 10.2909ZM15.5924 9.60278C15.6078 9.55847 15.578 9.5631 15.5479 9.58278C15.5183 9.60116 15.4953 9.62854 15.4823 9.66093C15.4479 9.74834 15.5622 9.6887 15.5924 9.60278ZM16.7379 15.2045C16.6821 15.1955 16.6659 15.2058 16.6836 15.242C16.7282 15.3328 16.944 15.382 16.8982 15.2972C16.8749 15.2547 16.7947 15.2137 16.7379 15.2045ZM15.935 9.69652C16.0227 9.65733 16.094 9.58887 16.1368 9.50286C16.1654 9.43866 16.144 9.41567 16.1279 9.41224C16.1024 9.40624 16.0692 9.41378 16.0255 9.43737C15.9819 9.46078 15.9438 9.49327 15.9139 9.53265C15.8974 9.55162 15.8833 9.57259 15.872 9.59505C15.8281 9.68846 15.8657 9.72323 15.935 9.69652ZM15.618 10.5574C15.5837 10.6002 15.5544 10.6468 15.5308 10.6964C15.5271 10.7063 15.5191 10.7252 15.5184 10.7279C15.4734 10.8622 15.4906 10.9267 15.5124 10.9747C15.5233 10.9987 15.5369 11.0279 15.5524 11.0321C15.5879 11.0377 15.6243 11.0304 15.6549 11.0115C15.6933 10.987 15.7165 10.9481 15.7493 10.8993C15.7757 10.8637 15.7984 10.8255 15.8171 10.7853C15.8581 10.6773 15.8713 10.5667 15.8527 10.5221C15.8463 10.5059 15.8374 10.4909 15.8263 10.4776C15.8057 10.4527 15.7567 10.4581 15.725 10.4725C15.6822 10.4904 15.6452 10.5198 15.618 10.5574ZM15.454 14.0388C15.4387 14.0177 15.415 14.0043 15.389 14.002C15.3813 14.002 15.374 14.0056 15.3694 14.0118C15.3648 14.0181 15.3635 14.0261 15.3659 14.0335C15.3917 14.1836 15.5979 14.2852 15.5016 14.0976C15.4886 14.0759 15.4726 14.0561 15.454 14.0388ZM16.3632 9.19979C16.3411 9.22843 16.326 9.26183 16.3191 9.29733C16.3183 9.32401 16.3517 9.34233 16.3779 9.34053C16.4691 9.33292 16.595 9.24453 16.6389 9.18971C16.6939 9.1211 16.6861 9.06198 16.6269 9.05817C16.5865 9.06236 16.5471 9.0734 16.5104 9.09081C16.4538 9.11569 16.4035 9.15293 16.3632 9.19979ZM15.8175 14.1185C15.8114 14.049 15.7458 13.9365 15.6796 13.8747C15.6532 13.8514 15.6213 13.8352 15.587 13.8278C15.5344 13.821 15.5305 13.868 15.5322 13.8873C15.54 13.9308 15.5542 13.9728 15.5741 14.0122C15.6013 14.0582 15.6358 14.0994 15.6764 14.1341C15.7674 14.2026 15.822 14.1708 15.8175 14.1185ZM14.7852 11.7504C14.7576 11.7685 14.7447 11.8016 14.7432 11.868C14.7395 12.0415 14.8421 12.0216 14.8431 11.8525C14.8433 11.7712 14.8137 11.7329 14.7852 11.7504ZM16.3602 14.8162C16.3491 14.813 16.3327 14.8044 16.3231 14.8031C16.3003 14.8024 16.2798 14.8169 16.2729 14.8386C16.2777 14.8836 16.323 14.9252 16.3565 14.9526C16.3979 14.9886 16.448 15.0133 16.5017 15.0244C16.5308 15.0277 16.5581 15.0095 16.5576 14.9923C16.5556 14.9397 16.4621 14.8461 16.3602 14.8162ZM16.0785 14.8983C16.0373 14.8894 16.0425 14.9097 16.0509 14.9268C16.0851 14.9969 16.2192 15.0452 16.1778 14.9717C16.1551 14.9356 16.1197 14.9094 16.0785 14.8983ZM16.5204 14.6126C16.5679 14.6044 16.5968 14.5627 16.5698 14.4947C16.5444 14.444 16.5108 14.3978 16.4704 14.3581C16.4098 14.2948 16.3344 14.2476 16.251 14.2208C16.2014 14.2088 16.1819 14.2129 16.1636 14.223C16.1496 14.2306 16.1402 14.2446 16.1386 14.2605C16.1255 14.3188 16.1772 14.4144 16.2387 14.4795C16.2597 14.5029 16.2836 14.5235 16.31 14.5407C16.3886 14.5969 16.4727 14.6205 16.5204 14.6126ZM16.1759 14.5539C16.1517 14.5 16.1153 14.4524 16.0696 14.4149C16.0351 14.3844 15.9943 14.3619 15.9502 14.349C15.9036 14.338 15.895 14.3542 15.8896 14.3766C15.8858 14.3922 15.8869 14.4085 15.8927 14.4235C15.9287 14.5103 15.9959 14.5805 16.0811 14.6201C16.1684 14.6571 16.2026 14.6218 16.1759 14.5539ZM15.0976 11.537C15.1062 11.4442 15.0893 11.3932 15.0782 11.3787C15.072 11.3678 15.0613 11.3601 15.0489 11.3578C15.0365 11.3555 15.0237 11.3587 15.014 11.3667C14.9819 11.3877 14.9676 11.421 14.9534 11.4627C14.9447 11.4875 14.9387 11.5131 14.9355 11.5391C14.9224 11.6611 14.9562 11.7366 14.9982 11.7354C15.0489 11.7337 15.0879 11.6407 15.0976 11.537ZM14.9065 12.2119C14.9004 12.2102 14.894 12.2097 14.8877 12.2104C14.873 12.2205 14.8528 12.2903 14.8514 12.3071C14.8462 12.3639 14.8563 12.4211 14.8806 12.4727C14.8994 12.5138 14.927 12.546 14.9535 12.5315C14.9692 12.5219 14.9871 12.4708 14.9888 12.4365C14.9946 12.333 14.9596 12.205 14.9065 12.2119ZM14.9342 13.0379C14.9186 13.016 14.913 13.0091 14.8942 13.0155C14.8763 13.0221 14.8735 13.0491 14.8785 13.0871C14.8886 13.1632 14.9327 13.2158 14.9571 13.2166C14.9765 13.2172 14.9858 13.1708 14.9687 13.1059C14.9614 13.0814 14.9497 13.0583 14.9342 13.0379ZM15.4792 13.5803C15.4666 13.4831 15.4269 13.3913 15.3646 13.3155C15.3441 13.2934 15.3163 13.2796 15.2863 13.2768C15.2413 13.2783 15.2365 13.3325 15.2374 13.3544C15.2427 13.4015 15.254 13.4477 15.271 13.4919C15.2924 13.5391 15.3218 13.5821 15.3581 13.6191C15.4363 13.6867 15.483 13.6418 15.4792 13.5803ZM15.1668 13.5413C15.1483 13.5192 15.1332 13.505 15.1111 13.5091C15.0947 13.5146 15.0856 13.532 15.0905 13.5486C15.1107 13.7173 15.2894 13.8064 15.2074 13.602C15.1968 13.58 15.1831 13.5595 15.1668 13.5413ZM15.1228 13.0901C15.1945 13.1329 15.2188 13.0307 15.1892 12.9028C15.1734 12.8348 15.1278 12.7495 15.1002 12.7306C15.0869 12.7249 15.072 12.7242 15.0583 12.7288C15.0304 12.7361 15.0199 12.7664 15.0161 12.8063C15.0047 12.9271 15.078 13.0631 15.1228 13.0901ZM2.40377 14.2349C2.25021 14.2367 2.10241 14.1766 1.99372 14.0681C1.88503 13.9596 1.82462 13.8119 1.82611 13.6584V10.299C1.82818 9.98146 2.08619 9.72511 2.40375 9.72511C2.72132 9.72511 2.97933 9.98146 2.98137 10.299V13.167H4.61097C4.90589 13.167 5.14497 13.4061 5.14497 13.701C5.14497 13.9959 4.90589 14.235 4.61097 14.235L2.40377 14.2349ZM6.20006 14.2715C6.0465 14.2732 5.89869 14.2131 5.79 14.1046C5.6813 13.9961 5.6209 13.8484 5.62243 13.6948V10.839H4.82822C4.52999 10.839 4.28822 10.5972 4.28822 10.299C4.28822 10.0008 4.52999 9.75901 4.82822 9.75901H7.57188C7.87011 9.75901 8.11188 10.0008 8.11188 10.299C8.11188 10.5972 7.87011 10.839 7.57188 10.839H6.77769V13.6948C6.77925 13.8483 6.71886 13.9961 6.61017 14.1046C6.50147 14.2131 6.35364 14.2732 6.20006 14.2715ZM9.12298 14.2349C8.96939 14.2367 8.82154 14.1766 8.71283 14.0681C8.60411 13.9596 8.54371 13.8119 8.54522 13.6583V10.3355C8.54372 10.182 8.60412 10.0343 8.71281 9.92578C8.8215 9.81729 8.96932 9.75716 9.12288 9.75893H11.4886C11.677 9.75769 11.8516 9.85745 11.9461 10.0204C12.0406 10.1833 12.0406 10.3844 11.9461 10.5473C11.8516 10.7102 11.677 10.8099 11.4886 10.8087H9.69449V11.4569H11.2143C11.4026 11.4556 11.5772 11.5553 11.6717 11.7183C11.7663 11.8812 11.7663 12.0822 11.6717 12.2451C11.5772 12.408 11.4026 12.5078 11.2143 12.5065H9.69449V13.1852H11.5191C11.7074 13.1839 11.882 13.2836 11.9766 13.4465C12.0711 13.6094 12.0711 13.8105 11.9766 13.9734C11.882 14.1363 11.7074 14.2361 11.5191 14.2348L9.12298 14.2349ZM12.7134 12.5045C12.4084 12.5045 12.1602 12.2699 12.1602 11.9816C12.1602 11.6932 12.4084 11.4587 12.7134 11.4587H13.7742C14.0793 11.4587 14.3274 11.6933 14.3274 11.9816C14.3274 12.2699 14.0793 12.5045 13.7742 12.5045H12.7134Z" fill="currentColor"/>
</svg>
