<svg width="24" height="24" viewBox="0 0 24 24" fill="currentColor" xmlns="http://www.w3.org/2000/svg">
<path fill-rule="evenodd" clip-rule="evenodd" d="M16.8012 1.80005H7.19882C6.88072 1.80005 6.5757 1.92672 6.35088 2.15176C6.12606 2.3768 5.99984 2.68194 6 3.00005V21C5.99967 21.6625 6.53637 22.1997 7.19878 22.2001H16.8012C17.1193 22.2001 17.4243 22.0734 17.6491 21.8483C17.8739 21.6233 18.0002 21.3182 18 21V3.00005C18.0003 2.33765 17.4636 1.80039 16.8012 1.80005ZM11.1 2.40005H12.9C13.0657 2.40005 13.2 2.53436 13.2 2.70005C13.2 2.86573 13.0657 3.00005 12.9 3.00005H11.1C10.9343 3.00005 10.8 2.86573 10.8 2.70005C10.8 2.53436 10.9343 2.40005 11.1 2.40005ZM12 21.6C11.6686 21.6 11.4 21.3314 11.4 21C11.4 20.6687 11.6686 20.4 12 20.4C12.3314 20.4 12.6 20.6687 12.6 21C12.6 21.3314 12.3314 21.6 12 21.6ZM16.8 19.8H7.2V3.60005H16.8V19.8ZM15.6378 9.74436C15.4113 9.83263 15.3524 9.81411 15.2428 9.62045C14.9874 9.16956 14.6332 8.84227 14.1148 8.72693C13.9693 8.69455 13.8183 8.68728 13.6557 8.66674V9.48336C13.6557 10.7266 13.6578 11.9698 13.6547 13.2131C13.653 13.9001 13.2477 14.4092 12.623 14.5226C11.9579 14.6436 11.3168 14.2154 11.1739 13.5547C10.9971 12.7486 11.6307 11.9901 12.4526 12.0281C12.5709 12.0336 12.6881 12.0599 12.8176 12.0783V7.53881C12.9627 7.53881 13.0977 7.5294 13.231 7.54068C13.5606 7.56857 13.8972 7.57231 14.2169 7.6464C14.9195 7.80924 15.327 8.29154 15.504 8.97276C15.5698 9.22579 15.5948 9.48936 15.6378 9.74436ZM8.33822 13.2008C8.39328 12.4358 8.64139 11.7567 9.16951 11.1922C9.21218 11.1466 9.26398 11.0915 9.31939 11.0806C9.38419 11.0677 9.4855 11.0753 9.51962 11.1166C9.5549 11.1592 9.55231 11.2648 9.52373 11.3214C9.47798 11.4118 9.39758 11.4848 9.33101 11.5645C8.47555 12.5881 8.51818 14.1407 9.4255 15.1206C9.47893 15.1784 9.51771 15.2481 9.53858 15.324C9.56959 15.4458 9.46346 15.536 9.34447 15.4949C9.29232 15.4756 9.24519 15.4448 9.20659 15.4047C8.74492 14.9379 8.45459 14.3287 8.38274 13.6761C8.36386 13.5181 8.35286 13.3592 8.33822 13.2008ZM9.89412 11.5557C10.0541 11.5559 10.1405 11.7028 10.0706 11.8216C10.0317 11.882 9.98743 11.9387 9.93828 11.9911C9.30295 12.724 9.30269 13.8414 9.93814 14.5735C9.97214 14.6127 10.0067 14.6517 10.0372 14.6935C10.1151 14.8004 10.1126 14.8938 10.033 14.9594C9.95165 15.0263 9.84523 15.0238 9.76913 14.9245C9.61706 14.7259 9.44611 14.5318 9.34262 14.3082C9.099 13.7819 9.02626 13.2186 9.15331 12.6503C9.24418 12.2438 9.49651 11.9169 9.78377 11.6215C9.81758 11.5868 9.86969 11.5698 9.89412 11.5557ZM9.8472 13.2351C9.8502 12.8439 9.99984 12.4758 10.2897 12.1647C10.4052 12.0408 10.545 12.0403 10.6097 12.16C10.6623 12.2574 10.6185 12.3376 10.5552 12.41C10.3891 12.6003 10.2738 12.8153 10.2306 13.0662C10.1649 13.4482 10.2719 13.7836 10.5066 14.0844C10.5407 14.1234 10.5717 14.1651 10.5994 14.209C10.6467 14.2944 10.6455 14.3796 10.5653 14.4464C10.4844 14.5138 10.3979 14.5007 10.3275 14.4328C10.259 14.3658 10.1967 14.2928 10.1412 14.2147C9.93809 13.9334 9.85318 13.6139 9.8472 13.2351Z" fill="currentColor"/>
</svg>
