<svg width="24" height="24" viewBox="0 0 24 24" fill="currentColor" xmlns="http://www.w3.org/2000/svg">
<path fill-rule="evenodd" clip-rule="evenodd" d="M21 6H3C2.3376 5.99968 1.80035 6.5364 1.8 7.1988V16.8012C1.80035 17.4636 2.3376 18.0003 3 18H21C21.6624 18.0003 22.1997 17.4636 22.2 16.8012V7.1988C22.1997 6.5364 21.6624 5.99968 21 6ZM3 12.9C3 13.0657 2.86569 13.2 2.7 13.2C2.53432 13.2 2.4 13.0657 2.4 12.9V11.1C2.4 10.9343 2.53432 10.8 2.7 10.8C2.86569 10.8 3 10.9343 3 11.1V12.9ZM19.8 16.8H3.6V7.2H19.8V16.8ZM21 12.6C20.6686 12.6 20.4 12.3314 20.4 12C20.4 11.6686 20.6686 11.4 21 11.4C21.3314 11.4 21.6 11.6686 21.6 12C21.6 12.3314 21.3314 12.6 21 12.6ZM5.707 12.9374C5.724 12.9384 5.74 12.9384 5.757 12.9384H5.707V12.9374ZM5.757 11.1376C5.74 11.1376 5.724 11.1376 5.707 11.1386V11.1376H5.757ZM10.2 12C10.2 12.4971 9.79706 12.9 9.3 12.9C9.29592 12.9 9.29208 12.9 9.288 12.8998L8.4 12.9V13.788C8.40024 13.7921 8.4 13.7959 8.4 13.8C8.4 14.2971 7.99706 14.7 7.5 14.7C7.00295 14.7 6.6 14.2971 6.6 13.8C6.6 13.7959 6.6 13.7921 6.60024 13.788L6.6 12.9H5.7C5.69592 12.9 5.69208 12.9 5.688 12.8998C5.19552 12.8935 4.79955 12.4925 4.79955 12C4.79955 11.5075 5.19552 11.1065 5.688 11.1002C5.69208 11.1 5.69592 11.1 5.7 11.1H6.6V10.2C6.6 10.1959 6.6 10.1921 6.60024 10.188C6.60647 9.69552 7.00748 9.29955 7.5 9.29955C7.99253 9.29955 8.39353 9.69552 8.39976 10.188C8.4 10.1921 8.4 10.1959 8.4 10.2V11.1H9.288C9.29208 11.0998 9.29592 11.1 9.3 11.1C9.79706 11.1 10.2 11.5029 10.2 12ZM15 12C15 12.4971 14.5971 12.9 14.1 12.9C13.6029 12.9 13.2 12.4971 13.2 12C13.2 11.5029 13.6029 11.1 14.1 11.1C14.5971 11.1 15 11.5029 15 12ZM18.6 12C18.6 12.4971 18.1971 12.9 17.7 12.9C17.2029 12.9 16.8 12.4971 16.8 12C16.8 11.5029 17.2029 11.1 17.7 11.1C18.1971 11.1 18.6 11.5029 18.6 12ZM15.9 11.1C15.4029 11.1 15 10.6971 15 10.2C15 9.70294 15.4029 9.3 15.9 9.3C16.3971 9.3 16.8 9.70294 16.8 10.2C16.8 10.6971 16.3971 11.1 15.9 11.1ZM15.9 14.7C15.4029 14.7 15 14.2971 15 13.8C15 13.3029 15.4029 12.9 15.9 12.9C16.3971 12.9 16.8 13.3029 16.8 13.8C16.8 14.0387 16.7052 14.2676 16.5364 14.4364C16.3676 14.6052 16.1387 14.7 15.9 14.7ZM6.63762 10.207H6.63862C6.63762 10.224 6.63762 10.24 6.63762 10.257V10.207ZM8.43838 10.207V10.257C8.43838 10.24 8.43838 10.224 8.43738 10.207H8.43838Z" fill="currentColor"/>
</svg>
