<svg width="24" height="24" viewBox="0 0 24 24" fill="currentColor" xmlns="http://www.w3.org/2000/svg">
<path fill-rule="evenodd" clip-rule="evenodd" d="M12 2.08801C6.36668 2.08801 1.79999 5.71681 1.79999 10.1928C1.79999 13.662 4.54319 16.6221 8.39999 17.7783V21.9L8.4231 21.8769L8.40491 21.912C8.40491 21.912 12.8088 19.6111 13.2755 19.1441L14.3346 18.0844C18.8428 17.2455 22.2 14.0308 22.2 10.1928C22.2 5.71681 17.6333 2.08801 12 2.08801ZM19.6394 11.9273L18.8055 12.7617L17.5327 11.4882L18.3666 10.6537C18.6013 10.4203 18.9805 10.4203 19.2152 10.6537L19.6394 11.0783C19.8728 11.3132 19.8728 11.6924 19.6394 11.9273ZM12.5229 9.20776C12.6921 8.74721 12.9103 8.34589 13.1778 8.0038C13.4454 7.6614 13.7331 7.39032 14.041 7.19058C14.3491 6.99116 14.6251 6.89127 14.869 6.89092C15.0919 6.89092 15.2628 6.95358 15.3816 7.07891C15.5 7.20462 15.5592 7.37222 15.5594 7.58171C15.5594 7.88675 15.4273 8.10692 15.1632 8.24224C14.7909 8.45243 14.5099 8.68449 14.3204 8.93843C14.1309 9.19236 14.0158 9.52271 13.9752 9.92946H14.1069C14.4861 9.92946 14.8299 10.0767 15.1381 10.3711C15.446 10.6658 15.6 11.0333 15.6 11.4736C15.6 11.9006 15.446 12.2597 15.1381 12.5508C14.8296 12.8423 14.4488 12.9879 13.9957 12.9876C13.4943 12.9876 13.0813 12.7844 12.7567 12.378C12.4318 11.9716 12.2694 11.4059 12.2694 10.681C12.2659 10.1788 12.3518 9.67992 12.5229 9.20776ZM8.29336 12.3731C7.9648 11.9765 7.80059 11.4124 7.80073 10.6809C7.79682 10.0277 7.9446 9.38245 8.23242 8.79601C8.52021 8.21041 8.87221 7.74641 9.28842 7.40401C9.70498 7.06211 10.0756 6.89108 10.4004 6.89092C10.6169 6.89092 10.7863 6.9552 10.9084 7.08378C11.0303 7.21276 11.0912 7.37873 11.091 7.58171C11.091 7.88027 10.959 8.10044 10.695 8.24224C10.336 8.43889 10.0515 8.66935 9.84174 8.9336C9.63214 9.19743 9.51368 9.52938 9.48635 9.92946H9.62886C10.0145 9.92946 10.3614 10.0767 10.6696 10.3711C10.9775 10.6658 11.1316 11.0333 11.1318 11.4737C11.1318 11.9071 10.9777 12.2646 10.6696 12.5459C10.3615 12.8273 9.98063 12.9678 9.52703 12.9674C9.03301 12.9674 8.62179 12.7693 8.29336 12.3731ZM13.3425 18.228L12.8512 18.7196C12.6178 18.9531 9.88134 20.4346 9.88134 20.4346L9.90068 20.3983C10.0733 20.0743 11.3608 17.6637 11.5784 17.446L17.0938 11.9273L18.3666 13.2009L13.3425 18.228Z" fill="currentColor"/>
</svg>
