<svg width="24" height="24" viewBox="0 0 24 24" fill="currentColor" xmlns="http://www.w3.org/2000/svg">
<path fill-rule="evenodd" clip-rule="evenodd" d="M3.11999 16.9201H1.67999V14.7601H3.11999V16.9201ZM5.75999 16.9201H4.31999V12.1201H5.75999V16.9201ZM8.39999 16.9201H6.95999V9.4801H8.39999V16.9201ZM11.04 16.9201H9.59999V6.8401H11.04V16.9201ZM14.16 16.0801C14.16 16.6766 13.6765 17.1601 13.08 17.1601C12.4835 17.1601 12 16.6766 12 16.0801C12 15.4836 12.4835 15.0001 13.08 15.0001C13.6765 15.0001 14.16 15.4836 14.16 16.0801ZM17.5008 11.6593C16.1067 10.2623 14.2136 9.47807 12.24 9.4801V10.9201C15.5537 10.9201 18.24 13.6064 18.24 16.9201H19.68C19.682 14.9465 18.8978 13.0534 17.5008 11.6593ZM12.24 12.1201V13.5601C14.0957 13.5601 15.6 15.0644 15.6 16.9201H17.04C17.04 14.2691 14.891 12.1201 12.24 12.1201ZM19.3676 9.79246C17.479 7.89957 14.914 6.83712 12.24 6.84009V8.2801C17.0117 8.2801 20.88 12.1483 20.88 16.9201H22.32C22.323 14.2461 21.2605 11.6811 19.3676 9.79246Z" fill="currentColor"/>
</svg>
