<svg width="24" height="24" viewBox="0 0 24 24" fill="currentColor" xmlns="http://www.w3.org/2000/svg">
<path fill-rule="evenodd" clip-rule="evenodd" d="M9.23009 18.6933L8.37485 19.204C8.28389 19.2583 8.16619 19.2298 8.11018 19.1399L7.82494 18.682C7.76841 18.5912 7.79579 18.4718 7.88623 18.4148L8.82312 17.8241C8.87955 17.7884 8.91377 17.7264 8.91377 17.6597C8.91377 17.5929 8.87955 17.5309 8.82312 17.4953L7.88621 16.9044C7.79578 16.8474 7.7684 16.728 7.82491 16.6372L8.11018 16.1793C8.16619 16.0893 8.28389 16.0608 8.37485 16.1151L9.23009 16.6259C9.29015 16.6617 9.36484 16.6625 9.42567 16.628C9.4865 16.5935 9.52409 16.5289 9.52411 16.459V15.3535C9.52411 15.3019 9.54459 15.2525 9.58105 15.216C9.61751 15.1796 9.66695 15.1591 9.71851 15.1591H10.3146C10.3662 15.1591 10.4156 15.1796 10.4521 15.216C10.4885 15.2525 10.509 15.3019 10.509 15.3535V16.4588C10.509 16.5288 10.5466 16.5933 10.6075 16.6279C10.6683 16.6624 10.743 16.6616 10.803 16.6257L11.6583 16.1151C11.7493 16.0608 11.8669 16.0893 11.9229 16.1792L12.2068 16.635C12.2342 16.6789 12.2429 16.7321 12.231 16.7825C12.219 16.8329 12.1875 16.8765 12.1433 16.9035L11.1783 17.4939C11.1205 17.5293 11.0854 17.5921 11.0854 17.6597C11.0854 17.7274 11.1205 17.7902 11.1783 17.8255L12.1432 18.4157C12.1874 18.4428 12.219 18.4863 12.2309 18.5368C12.2429 18.5872 12.2342 18.6403 12.2068 18.6843L11.9229 19.14C11.8669 19.2299 11.7493 19.2584 11.6583 19.2042L10.803 18.6934C10.7429 18.6576 10.6682 18.6568 10.6074 18.6913C10.5466 18.7258 10.509 18.7904 10.509 18.8603V19.9656C10.509 20.0172 10.4885 20.0666 10.452 20.1031C10.4156 20.1395 10.3661 20.16 10.3146 20.16H9.71851C9.61115 20.16 9.52411 20.073 9.52411 19.9656V18.8602C9.5241 18.7902 9.48651 18.7257 9.42568 18.6912C9.36485 18.6566 9.29015 18.6574 9.23009 18.6933ZM9.23009 11.928L8.37485 12.4387C8.28389 12.493 8.16619 12.4645 8.11018 12.3745L7.82494 11.9166C7.76841 11.8259 7.79579 11.7065 7.88623 11.6494L8.82312 11.0587C8.87955 11.0231 8.91377 10.961 8.91377 10.8943C8.91377 10.8276 8.87955 10.7655 8.82312 10.7299L7.88621 10.1391C7.79578 10.082 7.7684 9.96266 7.82491 9.8719L8.11018 9.41393C8.1662 9.32402 8.2839 9.29551 8.37485 9.34983L9.23009 9.86052C9.29015 9.89637 9.36484 9.89718 9.42567 9.86266C9.4865 9.82814 9.52409 9.76359 9.52411 9.69365V8.58816C9.52411 8.4808 9.61115 8.39376 9.71851 8.39376H10.3146C10.3662 8.39376 10.4156 8.41424 10.4521 8.4507C10.4885 8.48716 10.509 8.5366 10.509 8.58816V9.69363C10.509 9.76357 10.5466 9.82812 10.6075 9.86265C10.6683 9.89718 10.743 9.89637 10.803 9.86052L11.6583 9.34992C11.7493 9.29564 11.8669 9.32414 11.9229 9.41403L12.2068 9.86974C12.2342 9.91373 12.2429 9.96684 12.231 10.0173C12.219 10.0677 12.1875 10.1113 12.1433 10.1383L11.1783 10.7287C11.1205 10.7641 11.0854 10.8269 11.0854 10.8945C11.0854 10.9622 11.1205 11.025 11.1783 11.0603L12.1432 11.6505C12.1874 11.6776 12.219 11.7211 12.2309 11.7716C12.2429 11.822 12.2342 11.8751 12.2068 11.9191L11.9229 12.3748C11.8669 12.4647 11.7492 12.4932 11.6583 12.4389L10.803 11.928C10.7429 11.8922 10.6682 11.8914 10.6074 11.9259C10.5466 11.9604 10.509 12.025 10.509 12.0949V13.2003C10.509 13.2518 10.4885 13.3013 10.452 13.3378C10.4156 13.3742 10.3661 13.3947 10.3146 13.3947H9.71851C9.61115 13.3947 9.52411 13.3077 9.52411 13.2003V12.0949C9.52407 12.0249 9.48647 11.9604 9.42565 11.9259C9.36482 11.8914 9.29014 11.8921 9.23009 11.928ZM14.9889 15.3336L14.1336 15.8443C14.0427 15.8986 13.925 15.8701 13.869 15.7802L13.5838 15.3223C13.5273 15.2315 13.5547 15.1123 13.6451 15.0552L14.5819 14.4645C14.6384 14.4289 14.6726 14.3668 14.6726 14.3001C14.6726 14.2334 14.6384 14.1713 14.5819 14.1357L13.645 13.5449C13.5546 13.4878 13.5272 13.3685 13.5837 13.2777L13.869 12.8197C13.925 12.7298 14.0427 12.7013 14.1336 12.7556L14.9889 13.2663C15.049 13.3022 15.1236 13.303 15.1845 13.2685C15.2453 13.234 15.2829 13.1694 15.2829 13.0995V11.9939C15.2829 11.8865 15.37 11.7995 15.4773 11.7995H16.0734C16.1807 11.7995 16.2678 11.8865 16.2678 11.9939V13.0992C16.2678 13.1692 16.3054 13.2337 16.3662 13.2683C16.4271 13.3028 16.5018 13.302 16.5618 13.2661L17.4171 12.7555C17.508 12.7012 17.6257 12.7297 17.6817 12.8196L17.9656 13.2753C17.993 13.3193 18.0017 13.3724 17.9897 13.4229C17.9778 13.4733 17.9462 13.5169 17.902 13.5439L16.937 14.1343C16.8793 14.1697 16.8441 14.2325 16.8441 14.3001C16.8441 14.3678 16.8793 14.4306 16.937 14.4659L17.9022 15.056C17.9464 15.083 17.978 15.1266 17.9899 15.177C18.0018 15.2275 17.9931 15.2806 17.9658 15.3246L17.6818 15.7803C17.6258 15.8702 17.5081 15.8987 17.4171 15.8444L16.5619 15.3338C16.5018 15.2979 16.4271 15.2971 16.3662 15.3316C16.3054 15.3661 16.2678 15.4307 16.2678 15.5007V16.606C16.2678 16.7134 16.1807 16.8004 16.0734 16.8004H15.4773C15.3699 16.8004 15.2829 16.7134 15.2829 16.606V15.5005C15.2829 15.4306 15.2453 15.366 15.1845 15.3315C15.1237 15.297 15.049 15.2977 14.9889 15.3336ZM20.9795 11.736C21.037 11.3775 21.0658 11.015 21.0659 10.6519C21.0659 6.99633 18.1803 3.99249 14.5276 3.84586C14.4367 3.84231 14.3456 3.84003 14.254 3.84003H14.248C14.0925 3.84003 13.9368 3.84615 13.7814 3.85699C12.0107 3.97774 10.3575 4.78676 9.17578 6.11093C9.07872 6.10207 8.98202 6.09765 8.88566 6.09768C7.44932 6.10105 6.19752 7.07657 5.84333 8.46857C4.87276 8.67533 3.98367 9.16097 3.28522 9.8659C2.33145 10.8247 1.79578 12.122 1.79578 13.4744C1.79578 15.9403 3.54881 18.0042 5.8741 18.4861C6.0512 18.5221 6.23513 18.4766 6.375 18.3621C6.51487 18.2477 6.59586 18.0764 6.59556 17.8957C6.59467 17.6091 6.39264 17.3625 6.11182 17.3053C4.33718 16.934 3.00022 15.3574 3.00022 13.4742C3.00076 11.4981 4.47381 9.83221 6.43498 9.58973L6.91385 9.53134L6.95897 9.07553C7.00813 8.54899 7.26674 8.06426 7.67671 7.73021C8.01966 7.45296 8.4474 7.30188 8.8884 7.30224C8.95296 7.30224 9.01784 7.30544 9.08304 7.31184C9.15385 7.31887 9.22422 7.32977 9.29383 7.34448L9.65592 7.42116L9.88788 7.13278C10.8608 5.92276 12.2931 5.17185 13.8417 5.05995C13.9772 5.04996 14.1129 5.04439 14.2486 5.04439H14.2535C14.3341 5.04439 14.4143 5.04641 14.4943 5.04977C14.7162 5.05907 14.9373 5.08141 15.1565 5.11668C17.8691 5.56002 19.8609 7.90346 19.8613 10.652C19.8613 11.0497 19.8193 11.4463 19.7359 11.8352L19.6578 12.1991L19.9465 12.4302C20.6063 12.9584 20.9904 13.7578 20.9905 14.603C20.9904 15.3416 20.697 16.0505 20.1747 16.5727C19.6523 17.095 18.944 17.3884 18.2053 17.3883H14.3975C14.0649 17.3883 13.7953 17.6579 13.7952 17.9904C13.7952 18.1501 13.8587 18.3033 13.9716 18.4162C14.0846 18.5292 14.2377 18.5926 14.3975 18.5926H18.2053C20.405 18.5926 22.1946 16.8034 22.1949 14.6038C22.1984 13.522 21.7593 12.4858 20.9795 11.736Z" fill="currentColor"/>
</svg>
