<svg width="24" height="24" viewBox="0 0 24 24" fill="currentColor" xmlns="http://www.w3.org/2000/svg">
<path fill-rule="evenodd" clip-rule="evenodd" d="M12 1.79999C6.36668 1.79999 1.79999 6.36668 1.79999 12C1.79999 17.6333 6.36668 22.2 12 22.2C17.6333 22.2 22.2 17.6333 22.2 12C22.2 6.36668 17.6333 1.79999 12 1.79999ZM3.81599 14.1955L4.96163 12.947L4.61864 11.3767L6.05927 12.0895L7.54799 11.28L7.24607 12.9298L8.60435 13.9897L6.88247 14.2744L6.18959 15.8763L5.48989 14.3019L3.81599 14.1955ZM12.437 9.59999L12.0296 9.37777L11.6222 9.59999L11.7333 9.15553L11.4 8.85925L11.8444 8.78516L12.0296 8.39999L12.2148 8.78516L12.6592 8.85925L12.3259 9.15553L12.437 9.59999ZM11.5495 14.3653L12.5355 14.2636L12.0009 15.0864L12.4955 15.9645L11.5017 15.7304L10.7669 16.4391L10.7437 15.4315L9.86399 14.997L10.7637 14.581L10.9323 13.656L11.5495 14.3653ZM10.3296 11.9333L10.4963 12.6L9.88518 12.2667L9.27407 12.6L9.44073 11.9333L8.94073 11.4888L9.6074 11.3777L9.88518 10.8L10.163 11.3778L10.8296 11.4889L10.3296 11.9333ZM8.63704 9.2222L8.88148 10.2L7.98517 9.71111L7.08887 10.2L7.33333 9.2222L6.59999 8.57039L7.57777 8.40743L7.98517 7.55999L8.39257 8.4074L9.37036 8.57036L8.63704 9.2222ZM12 20.4C9.48558 20.4025 7.10285 19.2762 5.50876 17.3317C6.60032 18.1567 7.93173 18.6021 9.29999 18.6C12.7794 18.6 15.6 15.7794 15.6 12.3C15.6 8.82059 12.7794 5.99999 9.29999 5.99999C7.44696 5.99814 5.68753 6.814 4.49178 8.22959C5.87332 5.48399 8.71657 3.59999 12 3.59999C16.6392 3.59999 20.4 7.36079 20.4 12C20.4 16.6392 16.6392 20.4 12 20.4Z" fill="currentColor"/>
</svg>
