<svg width="24" height="24" viewBox="0 0 24 24" fill="currentColor" xmlns="http://www.w3.org/2000/svg">
<path fill-rule="evenodd" clip-rule="evenodd" d="M20.16 12.072C20.2695 12.072 20.3293 11.9303 20.2528 11.8519C19.6435 11.2279 19.0705 10.6412 18.4978 10.0543C16.8181 8.3328 15.1387 6.61097 13.4595 4.88884C12.6224 4.02875 11.2363 4.0161 10.4075 4.88109C8.4338 6.94117 4.62082 10.959 3.75219 11.8747C3.68458 11.9459 3.74177 12.072 3.84001 12.072H5.976C6.07838 12.0703 6.17708 12.1102 6.24948 12.1826C6.32188 12.255 6.36177 12.3537 6.36001 12.456C6.36001 13.5384 6.36497 16.5858 6.35929 18.1669C6.35674 18.8701 6.63529 19.3989 7.26889 19.728C7.47688 19.8382 7.70864 19.8959 7.94401 19.896C8.53268 19.8962 9.13018 19.896 9.72001 19.896C10.1268 19.896 10.3841 20.2212 10.293 20.5901C10.2301 20.8452 10.0254 21.0002 9.74401 21C9.10028 20.9996 8.46567 21.0005 7.82401 21C6.46503 20.999 5.23284 19.8185 5.232 18.456C5.23128 17.2864 5.23244 16.1021 5.232 14.928C5.23181 14.4078 5.23181 13.8878 5.232 13.368C5.23179 13.2621 5.14596 13.1762 5.04 13.176C4.55352 13.1754 4.06251 13.1762 3.57601 13.176C3.07061 13.1759 2.69194 12.9641 2.49711 12.501C2.30401 12.0421 2.40061 11.6186 2.74868 11.2545C5.03093 8.86671 7.31345 6.47924 9.59621 4.09204C10.8524 2.78404 12.9943 2.79011 14.2584 4.08592C16.5706 6.45601 18.8835 8.82534 21.1973 11.1939C21.4294 11.4315 21.597 11.6811 21.6001 12.024C21.6056 12.6663 21.1453 13.1998 20.496 13.2C20.1082 13.2002 19.2552 13.1995 18.912 13.2C18.8734 13.1986 18.8359 13.2133 18.8086 13.2406C18.7813 13.2679 18.7666 13.3054 18.768 13.344C18.7673 14.028 18.7687 16.8489 18.768 18.264C18.7673 19.8238 17.5831 20.9987 16.008 21C15.4509 21.0005 14.8851 21.0013 14.328 21C13.9401 20.9992 13.6757 20.7836 13.68 20.448C13.6843 20.1125 13.94 19.896 14.328 19.896C14.8616 19.8962 15.4019 19.8963 15.936 19.896C16.9728 19.8956 17.64 19.2218 17.64 18.192C17.6402 16.6119 17.6412 13.5451 17.64 12.456C17.6375 12.3534 17.6772 12.2543 17.7497 12.1818C17.8223 12.1092 17.9214 12.0695 18.024 12.072C18.5976 12.0715 19.6464 12.0725 20.16 12.072ZM11.9241 16.5363C10.3383 16.536 8.83976 15.5056 8.29628 13.9927C8.15607 13.6025 8.3388 13.2525 8.71568 13.1894C8.99568 13.1425 9.23362 13.2857 9.35206 13.5859C9.6234 14.2734 10.0817 14.7952 10.7491 15.1254C11.4455 15.4694 12.2527 15.5119 12.9814 15.243C13.7101 14.9741 14.2962 14.4174 14.6023 13.7036C14.6206 13.6607 14.6363 13.6168 14.6543 13.5737C14.7891 13.2507 15.086 13.1061 15.3908 13.2145C15.699 13.3242 15.8363 13.6428 15.7094 13.9819C15.381 14.86 14.8042 15.5359 13.9916 16.0105C13.3771 16.3694 12.7105 16.5465 11.9241 16.5363Z" fill="currentColor"/>
</svg>
