<svg width="24" height="24" viewBox="0 0 24 24" fill="currentColor" xmlns="http://www.w3.org/2000/svg">
<path fill-rule="evenodd" clip-rule="evenodd" d="M16.6302 6.12005C16.6302 3.73421 14.6945 1.80005 12.3067 1.80005C9.96376 1.80005 8.05634 3.66245 7.98557 5.98637L15.2612 9.27365C16.1356 8.45808 16.6315 7.31571 16.6302 6.12005ZM16.622 10.704L16.5238 10.6434L15.6571 10.2519L14.4233 9.69444L7.70474 6.65895L6.67941 6.19574L6.66153 6.18694C5.99261 5.82951 5.20543 5.99287 4.90673 6.55102C4.60802 7.10916 4.90913 7.85405 5.57801 8.21146L5.59529 8.22142L10.9131 11.5341L14.8424 13.9819L14.8499 13.9866C15.0047 14.0831 15.0483 14.2956 14.933 14.437C14.8374 14.5538 14.6699 14.5815 14.5418 14.5018L7.86521 10.3426H7.86403C6.35701 11.3128 5.4303 12.9682 5.39102 14.76H5.38951V19.799C5.39004 21.1256 6.46588 22.2006 7.79249 22.2001H18.5989L18.6 22.199V14.88C18.6014 13.2616 17.8751 11.7283 16.622 10.704Z" fill="currentColor"/>
</svg>
