<svg width="24" height="24" viewBox="0 0 24 24" fill="currentColor" xmlns="http://www.w3.org/2000/svg">
<path fill-rule="evenodd" clip-rule="evenodd" d="M5.61359 9.51415C5.92699 10.5954 6.85953 11.3824 7.97809 11.5096C9.33313 11.6637 10.6007 10.8146 10.9737 9.50282C11.0419 9.26216 11.0774 9.01343 11.0792 8.76331C11.0792 8.75542 11.0795 8.74757 11.0795 8.73965C11.0824 7.74182 10.5518 6.81853 9.6881 6.31876C8.82444 5.819 7.75951 5.819 6.89585 6.31876C6.03219 6.81853 5.50153 7.74182 5.50445 8.73965C5.50445 8.75222 5.50477 8.76475 5.50494 8.7773C5.50802 9.02668 5.54456 9.2745 5.61359 9.51415ZM18.176 11.0782C17.6129 11.6091 16.8788 12.0251 16.065 12.1053C15.9475 12.1168 15.8285 12.1226 15.708 12.1228C15.6022 12.1228 15.4976 12.118 15.3941 12.109C14.5632 12.0372 13.813 11.6184 13.24 11.0782C12.7445 11.323 12.3182 11.6879 12 12.1398C11.6818 11.6879 11.2555 11.323 10.7599 11.0782C10.1969 11.6091 9.46276 12.0251 8.64892 12.1053C8.53151 12.1168 8.41252 12.1226 8.29196 12.1228C8.1862 12.1228 8.08156 12.118 7.97809 12.109C7.14714 12.0372 6.39697 11.6184 5.824 11.0782C4.69732 11.6325 3.98374 12.7792 3.98399 14.0348V14.4684C4.75584 16.9173 6.60275 18.8804 9.00016 19.8V18.7802C8.99999 17.9059 9.49689 17.1074 10.2814 16.7214C10.5906 17.0129 10.9739 17.2536 11.4 17.3704C11.5248 17.4049 11.6524 17.4279 11.7814 17.4392C11.8534 17.4455 11.9263 17.4488 12 17.4488C12.0839 17.4488 12.1667 17.4447 12.2485 17.4366C12.3673 17.4248 12.4849 17.4029 12.6 17.3712C13.0261 17.2547 13.4094 17.013 13.7186 16.7215C14.5031 17.1075 15 17.9059 14.9998 18.7803V19.8C17.3972 18.8804 19.2441 16.9173 20.016 14.4684V14.0348C20.0162 12.7792 19.3027 11.6325 18.176 11.0782ZM13.9408 15.1095C13.9328 16.1754 13.0659 17.035 12 17.0341C11.927 17.0341 11.854 17.03 11.7814 17.0218C10.8096 16.9128 10.0712 16.097 10.0593 15.1192C10.0591 15.1105 10.0589 15.1018 10.0589 15.093C10.0589 14.021 10.928 13.1519 12 13.1519C13.072 13.1519 13.9411 14.021 13.9411 15.093C13.9411 15.0984 13.9409 15.104 13.9408 15.1095ZM13.0296 9.51415C13.4127 10.8452 14.7152 11.693 16.0874 11.5045C17.4596 11.316 18.4852 10.1484 18.4952 8.76331C18.4952 8.75542 18.4955 8.74757 18.4955 8.73965C18.4984 7.74182 17.9678 6.81853 17.1041 6.31876C16.2404 5.819 15.1755 5.819 14.3119 6.31876C13.4482 6.81853 12.9175 7.74182 12.9204 8.73965C12.9204 8.75222 12.9208 8.76475 12.9209 8.7773C12.924 9.02668 12.9606 9.2745 13.0296 9.51415ZM12 1.80005C6.36668 1.80005 1.79999 6.36674 1.79999 12C1.79999 15.6442 3.7441 19.0115 6.89999 20.8335C10.0559 22.6556 13.9441 22.6556 17.1 20.8335C20.2559 19.0115 22.2 15.6442 22.2 12C22.2 6.36674 17.6333 1.80005 12 1.80005ZM15 20.4879C14.7505 20.576 14.4962 20.6533 14.237 20.7198C12.769 21.0935 11.2307 21.0935 9.76273 20.7198C9.5038 20.6535 9.24956 20.5763 8.99999 20.4879C5.40251 19.2171 2.99785 15.8154 2.99999 12C2.99999 7.02948 7.02942 3.00005 12 3.00005C16.9706 3.00005 21 7.02948 21 12C21.0021 15.8154 18.5974 19.2171 15 20.4879Z" fill="currentColor"/>
</svg>
