<svg width="24" height="24" viewBox="0 0 24 24" fill="currentColor" xmlns="http://www.w3.org/2000/svg">
<path fill-rule="evenodd" clip-rule="evenodd" d="M8.33354 19.3521C9.40286 18.9934 10.1332 18.051 10.1981 16.9214L10.202 16.8547H14.9804C15.0171 17.0627 15.0401 17.2731 15.0924 17.4759C15.37 18.5433 16.2726 19.3322 17.3676 19.4645C17.3676 19.4645 17.5365 19.497 17.9593 19.4838C18.1557 19.4777 18.3474 19.4124 18.5334 19.3521C19.6061 19.0041 20.333 18.0513 20.398 16.9214C20.3991 16.9017 20.4016 16.8821 20.405 16.846H22.8V12.1187C22.7819 12.0537 22.7657 11.988 22.7454 11.9237C22.5879 11.4274 22.1282 11.0895 21.6076 11.0873C21.0478 11.0857 20.488 11.0842 19.9282 11.0895C19.8307 11.0904 19.7801 11.0569 19.7317 10.9762C18.5748 9.04325 17.417 7.11083 16.2584 5.17893C16.0397 4.81261 15.7414 4.57809 15.32 4.504L15.3133 4.5028C15.2592 4.49383 15.2045 4.48889 15.1497 4.48804H1.2V4.56743C1.2 4.66007 1.2109 4.75239 1.23221 4.84254C1.24037 4.8772 1.24879 4.91178 1.25791 4.94617C1.46203 5.73311 2.17094 6.28359 2.98392 6.28643C5.17592 6.2908 7.36784 6.2916 9.55968 6.28883C9.91094 6.28883 10.1735 6.51786 10.1979 6.84244C10.209 7.0019 10.1563 7.15925 10.0514 7.27983C9.94643 7.40041 9.79787 7.47433 9.6384 7.48533C9.58661 7.48888 9.53445 7.48746 9.4824 7.48746C6.97449 7.48746 4.46658 7.48746 1.95866 7.48746H1.7873C1.8113 7.64541 1.82126 7.79569 1.85781 7.93924C2.05746 8.72743 2.76463 9.28103 3.5777 9.28564C5.57361 9.29044 7.56955 9.28739 9.56549 9.28804C9.90919 9.28804 10.1695 9.51503 10.1976 9.83541C10.2105 9.99685 10.1579 10.1567 10.0515 10.2789C9.94523 10.4011 9.79422 10.4753 9.63254 10.4849C9.58072 10.488 9.5286 10.4867 9.47654 10.4867C7.16862 10.4867 4.8607 10.4867 2.55278 10.4867H2.40288C2.39775 10.6975 2.4337 10.9072 2.50872 11.1041C2.76281 11.8111 3.43229 12.2834 4.18353 12.2856C5.97545 12.2899 7.76741 12.2873 9.55934 12.2878C9.85238 12.2878 10.0767 12.4375 10.1649 12.6892C10.2263 12.8659 10.2018 13.0611 10.0986 13.217C9.99537 13.373 9.82529 13.4719 9.63869 13.4844C9.58692 13.488 9.53474 13.4865 9.48269 13.4865C7.97473 13.4866 6.46678 13.4866 4.95883 13.4865H4.8V13.62C4.8 14.6758 4.80005 15.7316 4.80017 16.7873C4.79931 18.1498 5.81531 19.2987 7.16767 19.4645C7.5598 19.5154 7.95836 19.477 8.33354 19.3521Z" fill="currentColor"/>
</svg>
