<svg width="24" height="24" viewBox="0 0 24 24" fill="currentColor" xmlns="http://www.w3.org/2000/svg">
<path fill-rule="evenodd" clip-rule="evenodd" d="M2.15463 18.8515L16.2062 4.79998H2.99998C2.33724 4.79998 1.79998 5.33724 1.79998 5.99998V18C1.79958 18.3198 1.92731 18.6265 2.15463 18.8515ZM21.3565 6.73462L18.9103 8.99542L18 9.83681V8.94579L7.74579 19.2H16.8C17.4627 19.2 18 18.6627 18 18V14.2348L18.9103 15.0762L21.3564 17.2653C21.6668 17.5521 22.2 17.3504 22.2 16.9461V7.05377C22.2 6.64954 21.6669 6.44782 21.3565 6.73462ZM2.42472 22.824L1.15198 21.5512L21.5512 1.15198L22.824 2.42472L2.42472 22.824Z" fill="currentColor"/>
</svg>
