<svg width="24" height="24" viewBox="0 0 24 24" fill="currentColor" xmlns="http://www.w3.org/2000/svg">
<path fill-rule="evenodd" clip-rule="evenodd" d="M18.6 17.4H15V18.6C15 19.5941 14.1941 20.4 13.2 20.4H8.37595C7.38184 20.4 6.57595 19.5941 6.57595 18.6V17.4H5.39995C4.73721 17.4 4.19995 17.9372 4.19995 18.6V22.2H19.8V18.6C19.8 17.9372 19.2627 17.4 18.6 17.4ZM18 19.8C17.6686 19.8 17.4 19.5314 17.4 19.2C17.4 18.8686 17.6686 18.6 18 18.6C18.3313 18.6 18.6 18.8686 18.6 19.2C18.6 19.5314 18.3313 19.8 18 19.8ZM13.2 19.8H8.39995C7.73721 19.8 7.19995 19.2627 7.19995 18.6V2.39999C7.19995 2.06862 7.46858 1.79999 7.79995 1.79999C8.13132 1.79999 8.39995 2.06862 8.39995 2.39999V3.59999H13.2C13.8627 3.59999 14.4 4.13725 14.4 4.79999V18.6C14.4 19.2627 13.8627 19.8 13.2 19.8ZM8.39995 4.79999H13.2V10.2H8.39995V4.79999ZM10.8 11.4C11.1313 11.4 11.4 11.6686 11.4 12C11.4 12.3314 11.1313 12.6 10.8 12.6C10.4686 12.6 10.2 12.3314 10.2 12C10.2 11.6686 10.4686 11.4 10.8 11.4ZM10.8 13.2C11.1313 13.2 11.4 13.4686 11.4 13.8C11.4 14.1314 11.1313 14.4 10.8 14.4C10.4686 14.4 10.2 14.1314 10.2 13.8C10.2 13.4686 10.4686 13.2 10.8 13.2ZM10.8 15C11.1313 15 11.4 15.2686 11.4 15.6C11.4 15.9314 11.1313 16.2 10.8 16.2C10.4686 16.2 10.2 15.9314 10.2 15.6C10.2 15.2686 10.4686 15 10.8 15ZM12.6 15C12.9313 15 13.2 15.2686 13.2 15.6C13.2 15.9314 12.9313 16.2 12.6 16.2C12.2686 16.2 12 15.9314 12 15.6C12 15.2686 12.2686 15 12.6 15ZM12.6 11.4C12.9313 11.4 13.2 11.6686 13.2 12C13.2 12.3314 12.9313 12.6 12.6 12.6C12.2686 12.6 12 12.3314 12 12C12 11.6686 12.2686 11.4 12.6 11.4ZM12.6 13.2C12.9313 13.2 13.2 13.4686 13.2 13.8C13.2 14.1314 12.9313 14.4 12.6 14.4C12.2686 14.4 12 14.1314 12 13.8C12 13.4686 12.2686 13.2 12.6 13.2ZM8.99995 11.4C9.33132 11.4 9.59995 11.6686 9.59995 12C9.59995 12.3314 9.33132 12.6 8.99995 12.6C8.66858 12.6 8.39995 12.3314 8.39995 12C8.39995 11.6686 8.66858 11.4 8.99995 11.4ZM8.99995 13.2C9.33132 13.2 9.59995 13.4686 9.59995 13.8C9.59995 14.1314 9.33132 14.4 8.99995 14.4C8.66858 14.4 8.39995 14.1314 8.39995 13.8C8.39995 13.4686 8.66858 13.2 8.99995 13.2ZM8.99995 15C9.33132 15 9.59995 15.2686 9.59995 15.6C9.59995 15.9314 9.33132 16.2 8.99995 16.2C8.66858 16.2 8.39995 15.9314 8.39995 15.6C8.39995 15.2686 8.66858 15 8.99995 15ZM9.89995 18H11.7C11.8656 18 12 18.1343 12 18.3C12 18.4657 11.8656 18.6 11.7 18.6H9.89995C9.73427 18.6 9.59995 18.4657 9.59995 18.3C9.59995 18.1343 9.73427 18 9.89995 18Z" fill="currentColor"/>
</svg>
