<svg width="24" height="24" viewBox="0 0 24 24" fill="currentColor" xmlns="http://www.w3.org/2000/svg">
<path fill-rule="evenodd" clip-rule="evenodd" d="M15.3479 7.79999H14.3105C14.3107 7.79209 14.3111 7.78429 14.3111 7.77637C14.3085 7.16494 13.8114 6.67104 13.1999 6.67237V5.64176C14.3863 5.64176 15.3481 6.59744 15.3481 7.77637C15.3482 7.78427 15.348 7.79212 15.3479 7.79999ZM17.2738 7.79999H16.2368C16.2368 7.79212 16.237 7.78427 16.237 7.77637C16.2388 6.97451 15.9183 6.20558 15.3475 5.64239C14.7777 5.07394 14.0049 4.75586 13.2 4.75847V3.72796C15.4501 3.72796 17.2741 5.54048 17.2741 7.77637C17.2741 7.78427 17.2738 7.79209 17.2738 7.79999ZM19.1999 7.79999H18.1627C18.1627 7.79209 18.163 7.78427 18.163 7.77637C18.1643 6.46635 17.6408 5.21039 16.7094 4.28917C15.7773 3.3615 14.515 2.84193 13.2 2.84468V1.81417C16.5137 1.81417 19.2 4.48355 19.2 7.77637C19.2 7.78424 19.2 7.79212 19.1999 7.79999ZM19.2 21.6V8.99999H12V1.79999L4.80001 4.79999V21.6H4.20001V22.2H19.8V21.6H19.2ZM6.00001 5.99999H7.80001V7.79999H6.00001V5.99999ZM7.80018 8.99999V10.8H6.02401V8.99999H7.80018ZM7.80018 19.8H6.00001V18H7.8002L7.80018 19.8ZM7.80018 16.8H6.00001V15H7.8002L7.80018 16.8ZM7.80018 13.8H6.00001V12H7.8002L7.80018 13.8ZM9.00001 8.99999H10.8V10.8H9.00001V8.99999ZM9.00001 12H10.8V13.8H9.00001V12ZM9.00001 15H10.8V16.8H9.00001V15ZM10.8 19.8H9.00001V18H10.8V19.8ZM10.8 7.79999H9.00001V5.99999H10.8V7.79999ZM13.2 12H15V13.8H13.2V12ZM13.2 15H15V16.8H13.2V15ZM15 21.6H13.2V18H15V21.6ZM18 19.8H16.2V18H18V19.8ZM18 16.8H16.2V15H18V16.8ZM18 13.8H16.2V12H18V13.8Z" fill="currentColor"/>
</svg>
