<svg width="24" height="24" viewBox="0 0 24 24" fill="currentColor" xmlns="http://www.w3.org/2000/svg">
<path fill-rule="evenodd" clip-rule="evenodd" d="M15.6 5.40005H12.6C12.2686 5.40005 12 5.13142 12 4.80005V1.80005L15.6 5.40005ZM7.80001 14.4H6.00001C5.66864 14.4 5.40001 14.1314 5.40001 13.8C5.40001 13.4687 5.66864 13.2 6.00001 13.2H7.80001V12H6.00001C5.66864 12 5.40001 11.7314 5.40001 11.4C5.40001 11.0687 5.66864 10.8 6.00001 10.8H7.80001V9.60005H6.00001C5.66864 9.60005 5.40001 9.33142 5.40001 9.00005C5.40001 8.66868 5.66864 8.40005 6.00001 8.40005H7.80001V6.00005H11.2587C10.9628 5.67044 10.7994 5.24298 10.8 4.80005V1.80005H3.60001V15.6C3.60001 16.5942 4.40589 17.4 5.40001 17.4H7.80001V14.4ZM20.4 10.2H17.4C17.0686 10.2 16.8 9.93142 16.8 9.60005V6.60005L20.4 10.2ZM17.4 11.4C16.4059 11.4 15.6 10.5942 15.6 9.60005V6.60005H8.40001V20.4C8.40001 21.3942 9.20589 22.2001 10.2 22.2001H20.4V11.4H17.4ZM18.6 18.6C18.6 18.9314 18.3314 19.2001 18 19.2001H10.8C10.4686 19.2001 10.2 18.9314 10.2 18.6C10.2 18.2687 10.4686 18 10.8 18H18C18.3314 18 18.6 18.2687 18.6 18.6ZM18.6 16.2C18.6 16.5314 18.3314 16.8 18 16.8H10.8C10.4686 16.8 10.2 16.5314 10.2 16.2C10.2 15.8687 10.4686 15.6 10.8 15.6H18C18.3314 15.6 18.6 15.8687 18.6 16.2ZM18.6 13.8C18.6 14.1314 18.3314 14.4 18 14.4H10.8C10.4686 14.4 10.2 14.1314 10.2 13.8C10.2 13.4687 10.4686 13.2 10.8 13.2H18C18.3314 13.2 18.6 13.4687 18.6 13.8Z" fill="currentColor"/>
</svg>
