<svg width="24" height="24" viewBox="0 0 24 24" fill="currentColor" xmlns="http://www.w3.org/2000/svg">
<path fill-rule="evenodd" clip-rule="evenodd" d="M22.5069 16.5021V11.7018C22.5071 10.3764 21.4328 9.30194 20.1075 9.30175H16.5082V15.3019H9.09717C9.61435 15.7571 9.91043 16.413 9.90971 17.1019C9.90971 17.1017 9.90971 17.1023 9.90971 17.1019L16.5082 17.1029C16.5055 16.2438 16.9622 15.4481 17.7058 15.0178C18.4493 14.5875 19.3661 14.5875 20.1096 15.0178C20.8531 15.4481 21.3099 16.2431 21.3071 17.1021L21.9071 17.103C22.2385 17.103 22.5069 16.8335 22.5069 16.5021C22.5067 16.5017 22.5069 16.5023 22.5069 16.5021ZM21.3071 11.7018V12.9018H17.708V10.5017H20.1074C20.7701 10.5019 21.3071 11.0391 21.3071 11.7018ZM18.9077 15.3019C18.1796 15.3018 17.5232 15.7402 17.2444 16.4128C16.9657 17.0854 17.1196 17.8597 17.6343 18.3746C18.1491 18.8895 18.9234 19.0435 19.596 18.765C20.2687 18.4864 20.7073 17.83 20.7073 17.1019C20.7074 16.108 19.9017 15.3021 18.9077 15.3019ZM7.51024 15.3019C6.78217 15.3018 6.12571 15.7402 5.84698 16.4128C5.56825 17.0855 5.72216 17.8597 6.23693 18.3746C6.75169 18.8895 7.52593 19.0435 8.1986 18.765C8.87126 18.4864 9.30985 17.83 9.30985 17.1019C9.3099 16.6246 9.12033 16.1668 8.78284 15.8292C8.44534 15.4917 7.98758 15.302 7.51024 15.3019ZM3.31115 15.3019C2.58308 15.3018 1.92661 15.7402 1.64788 16.4128C1.36914 17.0854 1.52304 17.8597 2.0378 18.3746C2.55257 18.8895 3.32681 19.0435 3.99948 18.765C4.67214 18.4864 5.11074 17.83 5.11074 17.1019C5.11085 16.1079 4.30515 15.3021 3.31115 15.3019ZM15.8959 13.5087H9.30985V12.615C9.31004 12.3893 9.27404 12.1651 9.20322 11.9508L14.2757 9.80239C14.8141 10.0039 15.4198 9.79525 15.7199 9.30495C16.02 8.81464 15.9303 8.18037 15.506 7.79252C15.0817 7.40467 14.4419 7.37219 13.9805 7.71506L5.43961 6.36902L5.58527 5.4949C5.60158 5.39711 5.57405 5.29711 5.50999 5.22145C5.44593 5.1458 5.35183 5.10211 5.2527 5.10211H1.84979C1.75064 5.10211 1.65653 5.14577 1.59245 5.22143C1.52838 5.29708 1.50084 5.3971 1.51715 5.4949L2.00461 8.4205C2.03173 8.58312 2.17243 8.70231 2.3373 8.7023H4.76524C4.93011 8.70228 5.0708 8.58306 5.09788 8.42042L5.21109 7.74098L3.71195 7.50473L3.75779 7.2138L13.4988 8.7505C13.5023 8.81053 13.5103 8.87022 13.5228 8.92906L8.58383 11.021C8.19987 10.6859 7.70736 10.5017 7.19778 10.5024H6.55571C6.42027 10.5024 6.31049 10.6122 6.3105 10.7477V13.5087H1.51252V14.6885H15.8959V13.5087Z" fill="currentColor"/>
</svg>
