<svg width="24" height="24" viewBox="0 0 24 24" fill="currentColor" xmlns="http://www.w3.org/2000/svg">
<path fill-rule="evenodd" clip-rule="evenodd" d="M9.60003 14.4H10.8V7.2H6.00003C4.97544 7.1989 3.99918 7.63554 3.317 8.4H5.70003C5.86571 8.4 6.00003 8.53432 6.00003 8.7C6.00003 8.86569 5.86571 9 5.70003 9H2.88176C2.66712 9.3709 2.52091 9.77737 2.45009 10.2H5.10003C5.26571 10.2 5.40003 10.3343 5.40003 10.5C5.40003 10.6657 5.26571 10.8 5.10003 10.8H2.40003C2.39967 11.2088 2.46904 11.6146 2.60516 12H5.70003C5.86571 12 6.00003 12.1343 6.00003 12.3C6.00003 12.4657 5.86571 12.6 5.70003 12.6H2.88176C3.52471 13.7143 4.71358 14.4005 6.00003 14.4L7.68641 21.1455C7.75318 21.4126 7.99316 21.6 8.26848 21.6H10.6316C10.8163 21.6 10.9908 21.5149 11.1045 21.3692C11.2182 21.2236 11.2585 21.0337 11.2136 20.8545L9.60003 14.4ZM19.8 9V3C19.8 2.66863 19.5314 2.4 19.2 2.4H18.6L15.9213 5.07869C14.7096 6.29018 13.1076 7.03282 11.4 7.17463V14.4254C13.1076 14.5672 14.7096 15.3098 15.9213 16.5213L18.6 19.2H19.2C19.5314 19.2 19.8 18.9314 19.8 18.6V12.6C20.7941 12.6 21.6 11.7941 21.6 10.8C21.6 9.80589 20.7941 9 19.8 9Z" fill="currentColor"/>
</svg>
