<svg width="24" height="24" viewBox="0 0 24 24" fill="currentColor" xmlns="http://www.w3.org/2000/svg">
<path fill-rule="evenodd" clip-rule="evenodd" d="M0 0V24H24V0H0ZM16.8581 7.2384L11.9592 18.4524C11.5587 19.3997 10.9874 19.8734 10.2453 19.8734C9.95002 19.8721 9.65952 19.7984 9.39938 19.6586C9.12853 19.5179 8.89735 19.3115 8.72707 19.0582C8.55222 18.8 8.4609 18.4943 8.46547 18.1825C8.4948 17.852 8.55357 17.5968 8.64178 17.4169L13.1328 7.57994H8.53135C8.0501 7.57994 7.64783 7.44314 7.32454 7.16954C7.00124 6.89594 6.83957 6.5205 6.83957 6.0432C6.83957 5.57323 7.0003 5.20421 7.32178 4.93613C7.64325 4.66805 8.04645 4.53406 8.53138 4.53406H15.282C15.8846 4.53406 16.342 4.69194 16.6542 5.00772C16.9849 5.33092 17.1502 5.72932 17.1502 6.20292C17.1502 6.48575 17.0528 6.83091 16.8581 7.2384Z" fill="currentColor"/>
</svg>
