<svg width="24" height="24" viewBox="0 0 24 24" fill="currentColor" xmlns="http://www.w3.org/2000/svg">
<path d="M19.5844 13.1051L17.8957 10.7171V9.04732H17.8911C17.7647 5.38615 14.7575 2.45679 11.0655 2.45679C7.29331 2.45679 4.2353 5.51479 4.2353 9.28697C4.23312 10.6937 4.66737 12.0664 5.47819 13.216C5.76579 13.8782 5.91378 14.5926 5.9129 15.3145C5.9129 15.3744 5.91153 15.4341 5.90954 15.4936H5.9129V20.3111C5.9129 20.9729 6.44938 21.5094 7.11117 21.5094H13.8215V18.5137H16.6974C17.3592 18.5137 17.8957 17.9772 17.8957 17.3154V14.0801H19.1179C19.3486 14.08 19.5587 13.9476 19.6583 13.7395C19.7578 13.5315 19.7291 13.2847 19.5844 13.1051ZM16.2405 8.10449C16.2401 8.80612 15.8878 9.46079 15.3024 9.84756C14.717 10.2343 13.9766 10.3016 13.3311 10.0267C12.4708 9.77756 11.5474 10.1041 11.0349 10.8386L11.0339 10.838C10.3879 11.9105 9.1254 12.446 7.90524 12.165C6.68509 11.8841 5.78395 10.8504 5.67199 9.60332C5.63681 9.34749 5.61969 9.0895 5.62071 8.83127C5.62071 8.59643 5.64419 8.36219 5.69105 8.13207C6.09825 6.014 7.7692 4.31584 9.87817 3.91893C10.2818 3.82302 10.6952 3.7747 11.11 3.77494C13.2754 3.77494 15.14 5.07354 15.9803 6.94079C16.0176 7.01835 16.0511 7.09793 16.081 7.17956C16.1812 7.45586 16.2347 7.7469 16.2394 8.04076C16.2397 8.04961 16.2398 8.0585 16.24 8.06739C16.24 8.07458 16.2405 8.08158 16.2405 8.08874C16.2405 8.09114 16.2405 8.09334 16.2405 8.09567C16.2405 8.09859 16.2405 8.10152 16.2405 8.10449Z" fill="currentColor"/>
</svg>
