<svg width="24" height="24" viewBox="0 0 24 24" fill="currentColor" xmlns="http://www.w3.org/2000/svg">
<path fill-rule="evenodd" clip-rule="evenodd" d="M19.2 2.40043L4.79998 2.40002V5.40019H4.19998C3.53757 5.40019 3.00058 5.93718 3.00058 6.59959C3.00058 7.262 3.53757 7.79899 4.19998 7.79899H4.79998V10.8002H4.19998C3.7679 10.7951 3.36645 11.0227 3.14892 11.396C2.9314 11.7694 2.9314 12.2308 3.14892 12.6042C3.36645 12.9776 3.7679 13.2051 4.19998 13.2H4.79998V16.1997H4.19998C3.53702 16.1997 2.99959 16.7371 2.99959 17.4C2.99959 18.063 3.53702 18.6004 4.19998 18.6004H4.79998V19.8043C4.80027 20.2809 4.99026 20.7378 5.32798 21.074C5.66571 21.4103 6.12339 21.5983 6.59998 21.5965L21 21.6L20.9971 4.19762C20.9976 3.72082 20.8085 3.26338 20.4714 2.92622C20.1342 2.58906 19.6768 2.40002 19.2 2.40043ZM12.9 5.99602C14.0598 5.99602 15 6.93622 15 8.09602C15 9.25582 14.0598 10.196 12.9 10.196C11.7402 10.196 10.8 9.25582 10.8 8.09602C10.8 6.93622 11.7402 5.99602 12.9 5.99602ZM16.2 17.9998H10.7976C10.4796 17.9997 10.1746 17.8732 9.95 17.6481C9.72535 17.423 9.59943 17.1178 9.59998 16.7998V14.113C9.59998 12.2904 11.0774 10.7986 12.9 10.7986C14.7225 10.7986 16.2 12.2895 16.2 14.112V17.9998Z" fill="currentColor"/>
</svg>
