<svg width="24" height="24" viewBox="0 0 24 24" fill="currentColor" xmlns="http://www.w3.org/2000/svg">
<path fill-rule="evenodd" clip-rule="evenodd" d="M16.8 19.8H13.8V18H10.2V19.8H7.19999C6.86862 19.8 6.59999 20.0686 6.59999 20.4V21H17.4V20.4C17.4 20.0686 17.1314 19.8 16.8 19.8ZM20.4 3H3.59999C2.93725 3 2.39999 3.53726 2.39999 4.2V16.2C2.39999 16.8627 2.93725 17.4 3.59999 17.4H20.4C21.0627 17.4 21.6 16.8627 21.6 16.2V4.2C21.6 3.53726 21.0627 3 20.4 3ZM3.59999 4.2V15H20.4V4.2H3.59999ZM12 15.6C11.6686 15.6 11.4 15.8686 11.4 16.2C11.4 16.5314 11.6686 16.8 12 16.8C12.3314 16.8 12.6 16.5314 12.6 16.2C12.6 15.8686 12.3314 15.6 12 15.6ZM14.1 8.4H13.8V7.2C13.8 6.20589 12.9941 5.4 12 5.4C11.0059 5.4 10.2 6.20589 10.2 7.2V8.4H8.99999V12.9C8.99999 13.3971 9.40294 13.8 9.89999 13.8H15V9.3C15 8.80294 14.5971 8.4 14.1 8.4ZM12.3281 11.0808L12.48 12.6H11.52L11.6719 11.0808C11.3758 10.9292 11.2221 10.5945 11.3 10.2712C11.378 9.94777 11.6673 9.71989 12 9.71989C12.3326 9.71989 12.622 9.94777 12.6999 10.2712C12.7779 10.5945 12.6242 10.9292 12.3281 11.0808ZM13.08 8.4H10.92V7.2C10.92 6.60353 11.4035 6.12 12 6.12C12.5965 6.12 13.08 6.60353 13.08 7.2V8.4Z" fill="currentColor"/>
</svg>
