<svg width="24" height="24" viewBox="0 0 24 24" fill="currentColor" xmlns="http://www.w3.org/2000/svg">
<path fill-rule="evenodd" clip-rule="evenodd" d="M17.4 17.1121C17.4 18.1062 18.2059 18.9121 19.2 18.9121C20.1941 18.9121 21 18.1062 21 17.1121C21 16.1179 20.1941 15.3121 19.2 15.3121C18.7226 15.3121 18.2648 15.5017 17.9272 15.8393C17.5897 16.1768 17.4 16.6347 17.4 17.1121ZM10.2 17.1121C10.2 17.1117 10.2 17.1124 10.2 17.1121L16.8 17.113C16.8 17.1133 16.8 17.1127 16.8 17.113C16.8 15.7875 17.8745 14.7121 19.2 14.7121C20.5255 14.7121 21.6 15.7866 21.6 17.1121L22.2 17.113C22.5314 17.113 22.8 16.8444 22.8 16.513C22.8 16.5133 22.8 16.5127 22.8 16.513V11.7121C22.8 10.3866 21.7255 9.31206 20.4 9.31206H16.8V15.3121H9.3873C9.9046 15.7672 10.2007 16.4231 10.2 17.1121ZM18 10.5121H20.4C21.0628 10.5121 21.6 11.0493 21.6 11.7121V12.9121H18V10.5121ZM1.20066 6.28806C1.2136 5.63491 1.74673 5.11206 2.40001 5.11206H15C15.6533 5.11206 16.1865 5.63488 16.1994 6.28806L16.2 14.7121H1.20001L1.20066 6.28806ZM6.00001 17.1121C6.00001 18.1062 6.8059 18.9121 7.80001 18.9121C8.79413 18.9121 9.60001 18.1062 9.60001 17.1121C9.60001 16.1179 8.79413 15.3121 7.80001 15.3121C6.8059 15.3121 6.00001 16.1179 6.00001 17.1121ZM1.80001 17.1121C1.80001 18.1062 2.6059 18.9121 3.60001 18.9121C4.59412 18.9121 5.40001 18.1062 5.40001 17.1121C5.40001 16.1179 4.59412 15.3121 3.60001 15.3121C2.6059 15.3121 1.80001 16.1179 1.80001 17.1121ZM4.76264 13.5121H3.62161C3.6218 13.5034 3.62228 13.4948 3.62228 13.4861C3.61939 12.8135 3.0726 12.2702 2.40001 12.2715V11.138C3.70504 11.138 4.76298 12.1892 4.76298 13.4861C4.76298 13.4948 4.76274 13.5034 4.76264 13.5121ZM6.88117 13.5121H5.74043C5.74043 13.5034 5.74076 13.4948 5.74076 13.4861C5.74271 12.604 5.39012 11.7582 4.76226 11.1387C4.13543 10.5134 3.28538 10.1636 2.40001 10.1665V9.03282C4.87506 9.03282 6.88148 11.0266 6.88148 13.4861C6.88148 13.4948 6.88122 13.5034 6.88117 13.5121ZM8.99984 13.5121H7.85896C7.85896 13.5034 7.85927 13.4948 7.85927 13.4861C7.86077 12.7606 7.71497 12.0423 7.43072 11.3748C7.15615 10.7294 6.75861 10.1437 6.26029 9.65012C5.23504 8.6297 3.84653 8.05817 2.40001 8.0612V6.92766C6.04511 6.92766 9.00001 9.86397 9.00001 13.4861C9.00001 13.4948 9.00001 13.5034 8.99984 13.5121Z" fill="currentColor"/>
</svg>
