<svg width="24" height="24" viewBox="0 0 24 24" fill="currentColor" xmlns="http://www.w3.org/2000/svg">
<path fill-rule="evenodd" clip-rule="evenodd" d="M10.342 2.32764L21.6244 13.61C22.3276 14.3132 22.3276 15.4532 21.6244 16.1563L16.1075 21.673C15.4043 22.3761 14.2644 22.3761 13.5612 21.673L2.27884 10.3906C1.94119 10.053 1.7515 9.59503 1.7515 9.11751C1.7515 8.64 1.94119 8.18205 2.27884 7.8444L7.79579 2.32764C8.49892 1.62451 9.63892 1.62451 10.342 2.32764ZM18.432 14.3159L16.9751 15.0026L17.8693 16.2779L16.2401 16.192L16.332 17.714L14.967 16.8786L14.232 18.2397L13.497 16.8786L12.132 17.714L12.224 16.192L10.5947 16.2779L11.489 15.0026L10.032 14.3159L11.4889 13.6293L10.5947 12.3541L12.2239 12.44L12.132 10.9179L13.497 11.7533L14.232 10.3922L14.967 11.7533L16.332 10.9179L16.24 12.44L17.8693 12.3541L16.975 13.6293L18.432 14.3159ZM12.5003 6.18341C12.6174 6.30058 12.6174 6.4905 12.5002 6.60763C12.3831 6.72476 12.1932 6.72476 12.076 6.60763C11.9589 6.4905 11.9588 6.30058 12.0759 6.18341C12.1322 6.12711 12.2085 6.09547 12.2881 6.09547C12.3677 6.09547 12.4441 6.12711 12.5003 6.18341ZM11.6516 7.03214C11.7687 7.14931 11.7686 7.33924 11.6515 7.45637C11.5343 7.57351 11.3444 7.57351 11.2273 7.45637C11.1101 7.33924 11.1101 7.14931 11.2272 7.03214C11.2835 6.97585 11.3598 6.94422 11.4394 6.94422C11.519 6.94422 11.5953 6.97585 11.6516 7.03214ZM10.8028 7.88088C10.9199 7.99805 10.9199 8.18797 10.8027 8.3051C10.6856 8.42223 10.4957 8.42223 10.3785 8.3051C10.2614 8.18797 10.2613 7.99805 10.3784 7.88088C10.4347 7.82458 10.511 7.79295 10.5906 7.79295C10.6702 7.79295 10.7466 7.82458 10.8028 7.88088ZM9.95406 8.72964C10.0712 8.84681 10.0711 9.03673 9.95399 9.15387C9.83684 9.271 9.64692 9.271 9.52976 9.15387C9.41261 9.03673 9.41258 8.84681 9.52969 8.72964C9.58596 8.67335 9.66229 8.64172 9.74188 8.64172C9.82147 8.64172 9.8978 8.67335 9.95406 8.72964ZM9.10533 9.57835C9.22244 9.69552 9.22241 9.88544 9.10526 10.0026C8.9881 10.1197 8.79818 10.1197 8.68103 10.0026C8.56387 9.88544 8.56384 9.69552 8.68096 9.57835C8.73722 9.52206 8.81355 9.49043 8.89314 9.49043C8.97273 9.49043 9.04906 9.52206 9.10533 9.57835ZM8.25657 10.4271C8.37368 10.5443 8.37365 10.7342 8.2565 10.8513C8.13934 10.9685 7.94942 10.9685 7.83227 10.8513C7.71511 10.7342 7.71508 10.5443 7.8322 10.4271C7.88847 10.3708 7.9648 10.3392 8.04439 10.3392C8.12398 10.3392 8.2003 10.3708 8.25657 10.4271ZM7.40783 11.2759C7.52495 11.393 7.52491 11.583 7.40776 11.7001C7.29061 11.8172 7.10068 11.8172 6.98353 11.7001C6.86638 11.583 6.86635 11.393 6.98346 11.2759C7.03973 11.2196 7.11606 11.1879 7.19565 11.1879C7.27524 11.1879 7.35156 11.2196 7.40783 11.2759ZM6.55921 12.1247C6.67632 12.2419 6.67628 12.4318 6.55913 12.549C6.44198 12.6661 6.25206 12.6661 6.13491 12.549C6.01776 12.4318 6.01772 12.2419 6.13482 12.1247C6.19109 12.0684 6.26742 12.0368 6.34702 12.0368C6.42661 12.0368 6.50295 12.0684 6.55921 12.1247Z" fill="currentColor"/>
</svg>
