<svg width="24" height="24" viewBox="0 0 24 24" fill="currentColor" xmlns="http://www.w3.org/2000/svg">
<path fill-rule="evenodd" clip-rule="evenodd" d="M19.421 8.41355L18.3849 9.44963C19.5144 10.2052 20.4777 11.1065 21.11 11.9931C20.3952 12.9915 19.2524 14.011 17.92 14.8207C17.4544 15.1038 16.9716 15.3576 16.4743 15.5804C17.6462 14.106 18.0245 12.1523 17.4875 10.347L16.266 11.5685C16.2797 11.7085 16.2867 11.8502 16.2869 11.9938C16.2869 13.1396 15.8318 14.2384 15.0216 15.0486C14.2115 15.8588 13.1126 16.3139 11.9669 16.3138C11.8233 16.3138 11.6816 16.3069 11.5415 16.293L9.98825 17.8463C10.5492 17.9413 11.1171 17.9896 11.6861 17.9908C11.7825 17.9908 11.879 17.9939 11.976 17.9939C12.073 17.9939 12.1695 17.9908 12.2659 17.9908C16.768 17.9908 21.3242 14.8177 22.8 11.9939C22.1606 10.7705 20.9517 9.48167 19.421 8.41355ZM2.89 11.9947C3.6048 10.9965 4.74768 9.97672 6.07999 9.16715C6.51315 8.9038 6.96125 8.66585 7.42202 8.45449C6.23823 9.97657 5.89316 11.9894 6.50239 13.8189L7.69332 12.628C7.49335 11.2749 7.94565 9.90697 8.91283 8.9398C9.88001 7.97262 11.2479 7.52032 12.601 7.72028L14.1547 6.16662C13.5473 6.05542 12.9313 5.99866 12.3139 5.99704C12.2175 5.99704 12.1209 5.99392 12.0239 5.99392C11.927 5.99392 11.8304 5.99704 11.734 5.99704C7.23204 5.99704 2.67578 9.17015 1.2 11.9939C1.85316 13.2437 3.10061 14.5617 4.67837 15.6429L5.71613 14.6052C4.5432 13.8363 3.54098 12.9076 2.89 11.9947ZM19.7572 3.26392L12.107 10.9142L9.69403 13.3271L3.198 19.8232L4.47074 21.0959L11.0883 14.4784L14.4514 11.1153L21.03 4.53666L19.7572 3.26392Z" fill="currentColor"/>
</svg>
