<svg width="24" height="24" viewBox="0 0 24 24" fill="currentColor" xmlns="http://www.w3.org/2000/svg">
<path fill-rule="evenodd" clip-rule="evenodd" d="M17.3996 9.60005H16.7996V6.60005C16.7996 3.96005 14.6396 1.80005 11.9996 1.80005C9.35959 1.80005 7.19959 3.96005 7.19959 6.60005V9.60005H4.79959V20.4C4.79959 21.3942 5.60548 22.2001 6.59959 22.2001H19.1996V11.4C19.1996 10.4059 18.3937 9.60005 17.3996 9.60005ZM12.8768 15.9718L13.1996 19.2001H10.7996L11.1224 15.9718C10.4068 15.5724 10.0512 14.7399 10.2576 13.9468C10.4639 13.1536 11.18 12.6 11.9996 12.6C12.8192 12.6 13.5353 13.1536 13.7416 13.9468C13.948 14.7399 13.5924 15.5724 12.8768 15.9718ZM14.9996 9.60005H8.99959V6.60005C8.99959 4.94319 10.3427 3.60005 11.9996 3.60005C13.6564 3.60005 14.9996 4.94319 14.9996 6.60005V9.60005Z" fill="currentColor"/>
</svg>
