<svg width="24" height="24" viewBox="0 0 24 24" fill="currentColor" xmlns="http://www.w3.org/2000/svg">
<path fill-rule="evenodd" clip-rule="evenodd" d="M11.988 8.3998C13.8106 8.3998 15.288 6.92234 15.288 5.0998C15.288 3.27726 13.8106 1.7998 11.988 1.7998C10.1655 1.7998 8.68803 3.27726 8.68803 5.0998C8.68803 6.92234 10.1655 8.3998 11.988 8.3998ZM14.9097 8.19974C13.269 9.74649 10.7071 9.74649 9.06634 8.19974C7.73255 8.85596 6.88778 10.2133 6.88803 11.6998V14.3998C6.88803 14.4464 6.89043 14.4924 6.89384 14.5381V15.1909C6.49059 15.2009 6.16803 15.3502 6.16803 15.9474V16.1998H6.68233V15.9474C6.68407 15.8069 6.79894 15.6942 6.93946 15.6951H6.986C7.13737 16.0033 7.45048 16.1989 7.79384 16.1998H8.10221C8.18377 16.1998 8.26495 16.1886 8.34346 16.1665C8.59054 16.0966 8.79643 15.9253 8.91005 15.6951H8.9966C9.13712 15.6942 9.252 15.8069 9.25373 15.9474V16.1998H9.76803V15.9474C9.76803 15.5328 9.42394 15.1934 9.00221 15.1904V14.6398H9.16803C9.82997 14.6417 10.3661 15.1779 10.368 15.8398V16.1998H11.4852C12.0207 16.2014 12.4545 16.6351 12.456 17.1707V22.1998H14.088C14.7508 22.1998 15.288 21.6625 15.288 20.9998V16.1998C16.2821 16.1998 17.088 15.3939 17.088 14.3998V11.6998C17.0883 10.2133 16.2435 8.85596 14.9097 8.19974ZM11.988 15.5998L11.088 14.4207L11.64 10.1998H12.36L12.888 14.4207L11.988 15.5998ZM11.3998 16.794H4.51501C4.26418 16.7924 4.05914 16.9937 4.05603 17.2445V21.7493C4.05913 22.0001 4.26417 22.2014 4.51501 22.1998H11.3998C11.6507 22.2014 11.8557 22.0001 11.8588 21.7493V17.2445C11.8557 16.9937 11.6506 16.7924 11.3998 16.794ZM8.18691 19.9474V20.3979C8.18539 20.5233 8.08285 20.624 7.95742 20.6231C7.83203 20.6239 7.72955 20.5233 7.72803 20.3979V19.9474C7.72955 19.822 7.83209 19.7213 7.95752 19.7222C8.08291 19.7214 8.1854 19.822 8.18691 19.9474ZM11.3998 21.5242C11.3983 21.6496 11.2958 21.7503 11.1703 21.7495H4.74452C4.61908 21.7503 4.51652 21.6496 4.51501 21.5242V19.5532L7.49842 20.2852V20.3979C7.50153 20.6487 7.70659 20.8499 7.95742 20.8483C8.20825 20.8499 8.41329 20.6487 8.4164 20.3979V20.2852L8.68803 20.2186L11.3998 19.5532V21.5242Z" fill="currentColor"/>
</svg>
