<svg width="24" height="24" viewBox="0 0 24 24" fill="currentColor" xmlns="http://www.w3.org/2000/svg">
<path fill-rule="evenodd" clip-rule="evenodd" d="M15 1.79999V5.39999C15 6.06272 15.4776 6.59999 16.0667 6.59999H19.8L15 1.79999ZM16.2 7.79999C14.8745 7.79999 13.8 6.72547 13.8 5.39999V1.79999H4.2V20.9945C4.2 20.9964 4.2 20.9982 4.2 21C4.2 21.6627 4.73726 22.2 5.4 22.2H19.8V7.79999H16.2ZM9.6336 15.4526C9.75313 15.6108 9.93771 15.6899 10.1873 15.6899C10.3092 15.6899 10.4152 15.6365 10.5055 15.5299C10.5928 15.4309 10.641 15.3034 10.6408 15.1713C10.6389 15.13 10.6342 15.0889 10.6268 15.0483C10.601 14.9428 10.5172 14.8133 10.3754 14.6598L9.43848 13.6315C9.77832 13.553 10.0303 13.4352 10.1945 13.2782C10.4441 13.0344 10.5689 12.6957 10.5689 12.2621C10.5691 12.0593 10.5247 11.8588 10.4388 11.675C10.3542 11.4903 10.2293 11.3269 10.0732 11.1969C9.77078 10.9473 9.37469 10.8225 8.88489 10.8225H7.77564C7.56471 10.8225 7.40036 10.8808 7.28258 10.9974C7.16481 11.114 7.10592 11.2766 7.10592 11.4852V15.0782C7.10592 15.2504 7.15573 15.3954 7.25534 15.5132C7.35496 15.631 7.48972 15.6899 7.65962 15.6899C7.83189 15.6899 7.96636 15.6313 8.06304 15.5141C8.15971 15.3969 8.20803 15.2516 8.208 15.0782V13.6666L9.6336 15.4526ZM8.208 11.7806H8.86893C9.02857 11.7789 9.18308 11.8369 9.30223 11.9431C9.42296 12.0427 9.49185 12.1918 9.48943 12.3483C9.48943 12.5124 9.4323 12.6448 9.31804 12.7456C9.20379 12.8463 9.0617 12.8967 8.89178 12.8968H8.208V11.7806ZM11.569 15.5132C11.6686 15.631 11.8034 15.6899 11.9733 15.6899C12.1456 15.6899 12.28 15.6313 12.3767 15.5141C12.4734 15.3969 12.5217 15.2516 12.5217 15.0782V11.3551C12.5217 11.1828 12.4731 11.0378 12.3758 10.92C12.2786 10.8023 12.1444 10.7434 11.9733 10.7434C11.801 10.7434 11.6657 10.8023 11.5673 10.92C11.4688 11.0378 11.4196 11.1828 11.4196 11.3551V15.0782C11.4196 15.2504 11.4694 15.3954 11.569 15.5132ZM16.4346 12.5557C16.5225 12.4034 16.5665 12.2047 16.5665 11.9598C16.566 11.7997 16.5287 11.6418 16.4575 11.4984C16.3874 11.3523 16.2874 11.2227 16.164 11.1178C15.9249 10.9162 15.5933 10.8154 15.1691 10.8154H14.0756C13.8647 10.8154 13.7004 10.8749 13.5826 10.9938C13.4648 11.1128 13.4059 11.2765 13.4059 11.4852V14.9481C13.4059 15.1602 13.4645 15.3248 13.5817 15.442C13.6989 15.5592 13.8635 15.6178 14.0756 15.6178H15.5223C15.7841 15.621 16.042 15.5552 16.2703 15.4271C16.4919 15.3027 16.675 15.1196 16.7994 14.898C16.9285 14.6694 16.9949 14.4108 16.9919 14.1483C16.9919 13.7932 16.8624 13.5008 16.6034 13.2711C16.4592 13.1457 16.2576 13.0449 15.9986 12.9687C16.2014 12.8457 16.3467 12.708 16.4346 12.5557ZM14.508 13.6227H15.241C15.6254 13.6227 15.827 13.7862 15.8458 14.1131C15.8458 14.2854 15.8077 14.4125 15.7315 14.4945C15.6378 14.6047 15.4843 14.6598 15.271 14.6598H14.508V13.6227ZM14.508 11.7805H15.0108C15.1394 11.778 15.2657 11.8148 15.3729 11.886C15.474 11.9503 15.5336 12.0633 15.5294 12.183C15.5333 12.3071 15.4848 12.4271 15.3958 12.5136C15.3066 12.6004 15.1861 12.6473 15.0618 12.6437H14.508V11.7805Z" fill="currentColor"/>
</svg>
