<svg width="24" height="24" viewBox="0 0 24 24" fill="currentColor" xmlns="http://www.w3.org/2000/svg">
<path fill-rule="evenodd" clip-rule="evenodd" d="M23.4 14.4V10.2L22.2 8.99999H18V15.6H22.2L23.4 14.4ZM20.4 14.4H19.2V13.2H20.4V14.4ZM19.2 11.4V10.2H20.4V11.4H19.2ZM16.8 7.79999H2.40001C1.40589 7.79999 0.600006 8.60588 0.600006 9.59999V15C0.600006 15.4774 0.789648 15.9352 1.12721 16.2728C1.46478 16.6103 1.92262 16.8 2.40001 16.8H16.8C17.1314 16.8 17.4 16.5314 17.4 16.2V8.39999C17.4 8.06862 17.1314 7.79999 16.8 7.79999ZM4.50001 14.4C3.34021 14.4 2.40001 13.4598 2.40001 12.3C2.40001 11.1402 3.34021 10.2 4.50001 10.2C5.6598 10.2 6.60001 11.1402 6.60001 12.3C6.60001 13.4598 5.6598 14.4 4.50001 14.4Z" fill="currentColor"/>
</svg>
