<svg width="24" height="24" viewBox="0 0 24 24" fill="currentColor" xmlns="http://www.w3.org/2000/svg">
<path fill-rule="evenodd" clip-rule="evenodd" d="M12.2 2C6.5667 2 2 5.6264 2 10.1C2 13.5671 4.7432 16.5254 8.6 17.681V21.8L12.2 18.2C17.8333 18.2 22.4 14.5736 22.4 10.1C22.4 5.6264 17.8333 2 12.2 2ZM7.25713 12.8C7.56078 13.0897 7.9201 13.3147 8.3133 13.4614C8.71183 13.6128 9.1347 13.6901 9.56103 13.6894C10.2467 13.6894 10.8071 13.5584 11.2423 13.2963C11.5666 13.1048 11.7288 12.8604 11.7288 12.5631C11.7323 12.3733 11.668 12.1883 11.5474 12.0416C11.4265 11.8938 11.2602 11.8199 11.0486 11.8199C10.9662 11.8199 10.8629 11.8442 10.7386 11.8929L10.2725 12.1096C10.1113 12.1784 9.90215 12.2128 9.64518 12.2128C9.17654 12.2128 8.78769 12.0684 8.47863 11.7795C8.08558 11.4133 7.88905 10.8355 7.88905 10.046C7.88905 9.65134 7.95288 9.29525 8.08054 8.97776C8.19785 8.67373 8.40146 8.41062 8.66634 8.2208C8.92918 8.0336 9.25878 7.94 9.65514 7.94C9.89866 7.94 10.1666 7.99879 10.4589 8.11638C10.7293 8.21878 10.9258 8.26998 11.0484 8.26998C11.2483 8.26998 11.4012 8.19942 11.507 8.05832C11.6128 7.91722 11.6657 7.74001 11.6657 7.5267C11.6657 7.27308 11.5493 7.06648 11.3166 6.9069C11.0839 6.74731 10.8087 6.63351 10.491 6.5655C10.2022 6.50074 9.90731 6.46655 9.61131 6.46347C9.11891 6.46347 8.6635 6.54703 8.24509 6.71415C7.83731 6.8743 7.46732 7.11755 7.15866 7.42844C6.85121 7.73996 6.61099 8.11128 6.45286 8.51941C6.28589 8.9499 6.20207 9.40814 6.20583 9.86986C6.20583 11.1582 6.55633 12.1349 7.25713 12.8ZM13.8571 12.8C14.1608 13.0897 14.5201 13.3147 14.9133 13.4614C15.3118 13.6128 15.7347 13.6901 16.161 13.6894C16.8467 13.6894 17.4071 13.5584 17.8423 13.2963C18.1666 13.1048 18.3288 12.8604 18.3288 12.5631C18.3323 12.3733 18.268 12.1883 18.1474 12.0416C18.0265 11.8938 17.8602 11.8199 17.6486 11.8199C17.5662 11.8199 17.4629 11.8442 17.3386 11.8929L16.8725 12.1096C16.7113 12.1784 16.5022 12.2128 16.2452 12.2128C15.7765 12.2128 15.3877 12.0684 15.0786 11.7795C14.6856 11.4133 14.4891 10.8355 14.489 10.046C14.489 9.65134 14.5529 9.29525 14.6805 8.97776C14.7978 8.67373 15.0015 8.41062 15.2663 8.2208C15.5292 8.0336 15.8588 7.94 16.2553 7.94C16.4988 7.94 16.7667 7.99879 17.059 8.11638C17.3294 8.21878 17.5259 8.26998 17.6486 8.26998C17.8484 8.26998 18.0013 8.19942 18.1071 8.05832C18.2129 7.91722 18.2658 7.74001 18.2658 7.5267C18.2658 7.27308 18.1495 7.06648 17.9167 6.9069C17.684 6.74731 17.4088 6.63351 17.0911 6.5655C16.8023 6.50074 16.5074 6.46655 16.2114 6.46347C15.719 6.46347 15.2636 6.54703 14.8452 6.71415C14.4374 6.8743 14.0674 7.11755 13.7588 7.42844C13.4513 7.73996 13.2111 8.11128 13.053 8.51941C12.886 8.94989 12.8022 9.40814 12.806 9.86986C12.806 11.1582 13.1563 12.1349 13.8571 12.8Z" fill="currentColor"/>
</svg>
