<svg width="24" height="24" viewBox="0 0 24 24" fill="currentColor" xmlns="http://www.w3.org/2000/svg">
<path fill-rule="evenodd" clip-rule="evenodd" d="M8.112 21V16.7241C7.05314 16.4492 6.31339 15.494 6.312 14.4V11.7C6.31151 11.0413 6.45593 10.3904 6.73502 9.79366C5.77446 9.75249 4.86097 9.36626 4.16222 8.70586C2.90685 9.32345 2.11175 10.601 2.112 12V14.8589C2.112 15.7944 2.88036 16.56 3.816 16.56V21C3.81376 21.3173 3.93811 21.6223 4.1615 21.8475C4.38489 22.0728 4.68888 22.1997 5.00611 22.2001H8.57179C8.27549 21.8706 8.1117 21.4431 8.112 21ZM19.8618 8.70586C19.1631 9.36626 18.2496 9.75249 17.289 9.79366C17.5681 10.3904 17.7125 11.0413 17.712 11.7V14.4C17.7106 15.494 16.9709 16.4492 15.912 16.7241V21C15.9123 21.4431 15.7485 21.8706 15.4522 22.2001H19.0179C19.3351 22.1997 19.6391 22.0728 19.8625 21.8475C20.0859 21.6223 20.2102 21.3173 20.208 21V16.56C21.1436 16.56 21.912 15.7944 21.912 14.8589V12C21.9123 10.601 21.1172 9.32346 19.8618 8.70586ZM17.112 3.00005C16.558 2.9992 16.0148 3.15248 15.543 3.44275C15.5646 3.48866 15.5854 3.53491 15.6054 3.58181C16.1703 4.91747 15.9469 6.45638 15.0255 7.57625L15.199 7.66179C15.828 7.97206 16.3759 8.42473 16.7993 8.98385C17.9021 9.09893 18.9785 8.59627 19.5983 7.67677C20.218 6.75727 20.28 5.57089 19.7595 4.59179C19.239 3.6127 18.2209 3.00057 17.112 3.00005ZM15.312 5.10005C15.312 6.92259 13.8345 8.40005 12.012 8.40005C10.1895 8.40005 8.712 6.92259 8.712 5.10005C8.712 3.27751 10.1895 1.80005 12.012 1.80005C13.8345 1.80005 15.312 3.27751 15.312 5.10005ZM14.9337 8.19998C13.293 9.74673 10.731 9.74673 9.09031 8.19998C7.75652 8.8562 6.91175 10.2136 6.912 11.7V14.4C6.912 15.3942 7.71789 16.2 8.712 16.2V21C8.712 21.6628 9.24926 22.2001 9.912 22.2001H14.112C14.7747 22.2001 15.312 21.6628 15.312 21V16.2C16.3061 16.2 17.112 15.3942 17.112 14.4V11.7C17.1123 10.2136 16.2675 8.8562 14.9337 8.19998ZM7.22489 8.98385C7.64825 8.42473 8.19617 7.97206 8.82511 7.66179L8.99866 7.57625C8.07881 6.45567 7.85552 4.91771 8.41872 3.58181C8.43857 3.53491 8.45952 3.48866 8.48112 3.44275C7.39779 2.77829 6.01334 2.86853 5.02542 3.66798C4.0375 4.46744 3.66051 5.80263 4.08441 7.00071C4.50832 8.1988 5.64113 8.99979 6.912 9.00005C7.01649 9.00005 7.12096 8.99464 7.22489 8.98385Z" fill="currentColor"/>
</svg>
