<svg width="24" height="24" viewBox="0 0 24 24" fill="currentColor" xmlns="http://www.w3.org/2000/svg">
<path fill-rule="evenodd" clip-rule="evenodd" d="M12.2095 14.6596C12.3686 14.7474 12.5157 14.8555 12.6471 14.9812L17.5056 14.2253C17.2324 13.9018 16.8089 13.7464 16.3914 13.8163L11.9114 14.4892L12.2095 14.6596ZM13.2574 16.0937L19.4788 15.1121C19.2056 14.7885 18.782 14.6329 18.3643 14.7029L13.0449 15.5019C13.1452 15.6873 13.2169 15.8868 13.2574 16.0937ZM21.6821 16.3571C21.6394 16.1011 21.4966 15.8725 21.2853 15.7217C21.074 15.5709 20.8115 15.5103 20.5555 15.5531L13.2884 16.6876C13.2238 17.4069 12.794 18.0425 12.1505 18.3705C11.5071 18.6985 10.7402 18.6728 10.1202 18.3025L7.4565 16.7643C7.4541 16.763 7.4517 16.7615 7.4493 16.7601L7.4433 16.7566C7.30481 16.6739 7.25668 16.4964 7.33441 16.355C7.41214 16.2136 7.58783 16.1591 7.7319 16.2318L10.4531 17.8021C10.9183 18.068 11.49 18.0652 11.9528 17.7952C12.4156 17.5252 12.6992 17.0288 12.6968 16.493C12.6944 15.9572 12.4063 15.4634 11.9411 15.1976L7.74169 12.7975C7.51526 12.6676 7.25873 12.5996 6.99769 12.5998H2.39999C2.06862 12.5998 1.79999 12.8685 1.79999 13.1998V17.3995C1.79999 17.5758 1.87759 17.7433 2.01214 17.8573C2.14669 17.9712 2.32458 18.0203 2.49853 17.9913L4.89817 17.3996L10.5242 20.7065C11.1415 21.0433 11.8755 21.0923 12.5321 20.8406L21.0436 17.4412C21.4912 17.2826 21.7605 16.8255 21.6821 16.3571ZM8.51898 7.58143C9.51627 6.56956 10.8777 5.99984 12.2984 5.99984C13.7191 5.99984 15.0805 6.56956 16.0778 7.58143L16.9178 6.73291C15.6989 5.49617 14.035 4.79986 12.2985 4.79986C10.5621 4.79986 8.89813 5.49617 7.67922 6.73291L8.51898 7.58143ZM10.1987 9.27847C10.7528 8.71631 11.5091 8.3998 12.2984 8.3998C13.0877 8.3998 13.844 8.71631 14.3981 9.27847L15.2379 8.42995C14.4623 7.64293 13.4034 7.19982 12.2984 7.19982C11.1934 7.19982 10.1345 7.64293 9.35884 8.42995L10.1987 9.27847ZM6.83922 5.88442C8.27975 4.42281 10.2462 3.5999 12.2984 3.5999C14.3506 3.5999 16.3171 4.42281 17.7576 5.88442L18.5974 5.0359C16.9353 3.34942 14.6663 2.3999 12.2984 2.3999C9.93051 2.3999 7.66151 3.34942 5.99936 5.0359L6.83922 5.88442ZM14.0942 11.3998C14.0941 12.3937 13.2882 13.1993 12.2943 13.1992C11.3003 13.1991 10.4947 12.3933 10.4947 11.3994C10.4948 10.4055 11.3006 9.59976 12.2945 9.59976C12.7718 9.59976 13.2296 9.78946 13.5671 10.127C13.9047 10.4646 14.0942 10.9224 14.0942 11.3998Z" fill="currentColor"/>
</svg>
