<svg width="24" height="24" viewBox="0 0 24 24" fill="currentColor" xmlns="http://www.w3.org/2000/svg">
<g clip-path="url(#clip0_97_650)">
<path fill-rule="evenodd" clip-rule="evenodd" d="M23.9935 12.0964C23.9159 10.6943 23.134 9.55922 22.0193 8.84894C21.6759 8.63258 21.3081 8.45757 20.9236 8.32754L20.7119 8.68C20.445 9.12389 19.9765 9.41635 19.4588 9.43804C18.8995 9.46489 18.371 9.1811 18.0845 8.70005L17.8699 8.34318C17.4451 8.49791 17.1568 8.67136 16.6956 8.98181C16.2037 9.3413 15.7601 9.73084 15.4458 10.2508C15.454 10.2548 15.4622 10.2586 15.4703 10.263C15.4881 10.2724 15.5055 10.2827 15.5232 10.2924C16.3168 10.7313 16.9866 11.3635 17.4706 12.1305C17.9634 12.9118 18.2569 13.8021 18.3252 14.7233C18.3363 14.7735 18.3418 14.8246 18.3418 14.876V18.3012C18.7019 18.3446 19.0644 18.3664 19.4272 18.3664C21.3039 18.3664 22.7552 18.0448 23.4833 17.8422C23.7888 17.7571 24 17.4788 24 17.1617V12.0964H23.9935ZM8.46435 10.2947C8.48341 10.2842 8.50221 10.2732 8.52141 10.263C8.53163 10.2575 8.54197 10.2525 8.55247 10.2477C8.22268 9.70339 7.87056 9.32436 7.2179 8.88954C6.89156 8.64798 6.68214 8.58129 6.38095 8.44938L5.57907 9.25086C5.33381 9.50023 5.00735 9.6535 4.65882 9.68292C4.24041 9.71626 3.82847 9.56407 3.53224 9.2667L2.72646 8.46135C2.44529 8.58669 2.14117 8.70612 1.8938 8.88355C0.963134 9.44518 0.0826447 10.7217 0.00663529 12.0964H0V16.7167C0 16.9799 0.14629 17.2213 0.379624 17.3431C1.04778 17.6921 2.55481 18.3383 4.55461 18.3383C4.93832 18.3383 5.30425 18.3253 5.64985 18.3032V14.876C5.64983 14.8247 5.65538 14.7735 5.66643 14.7234C5.73478 13.8021 6.02828 12.9117 6.52114 12.1304C7.00424 11.3649 7.67258 10.7335 8.46435 10.2947ZM15.1376 10.8852C14.2951 11.6177 13.2227 12.032 12.1066 12.0561C12.0698 12.057 12.0329 12.0574 11.9958 12.0575C11.9589 12.0575 11.9217 12.057 11.8851 12.0561C10.769 12.032 9.69672 11.6177 8.85439 10.8852C7.4472 11.6367 6.46035 13.1309 6.36376 14.8761H6.35576V20.0329C6.35576 20.2969 6.50297 20.5388 6.73742 20.6602C7.51341 21.0623 9.42153 21.8894 11.9846 21.8894C14.5424 21.8894 16.4608 21.0847 17.2462 20.6914C17.4851 20.5716 17.6358 20.3271 17.6358 20.0599V14.876H17.6277C17.5313 13.1308 16.5448 11.6367 15.1376 10.8852ZM3.46859 8.20568L4.03129 8.76807C4.31652 9.05306 4.77871 9.05306 5.06394 8.76807L5.6343 8.19794L7.32621 6.50685C7.46314 6.37001 7.54007 6.18436 7.54007 5.99078C7.54007 5.79719 7.46314 5.61154 7.32621 5.4747L5.06394 3.21376C4.77873 2.92875 4.31651 2.92875 4.03129 3.21376L1.76905 5.47479C1.63211 5.61162 1.55517 5.79727 1.55517 5.99086C1.55517 6.18445 1.63211 6.3701 1.76905 6.50693L3.46859 8.20568ZM18.5768 8.14943L18.6895 8.33689C18.8378 8.5834 19.1044 8.73416 19.392 8.73416C19.6797 8.73416 19.9463 8.5834 20.0946 8.33689L20.2126 8.14062L22.157 4.90636C22.3091 4.65324 22.3132 4.33787 22.1677 4.08089C22.0223 3.82391 21.7498 3.66511 21.4545 3.66525H17.3298C17.0345 3.66506 16.7619 3.82383 16.6164 4.08082C16.4709 4.3378 16.475 4.65321 16.6271 4.90636L18.5768 8.14943ZM12.0089 11.2009C14.0545 11.1998 15.7121 9.54081 15.7114 7.49515C15.7106 5.44948 14.0519 3.79163 12.0062 3.79199C9.96057 3.79236 8.30242 5.4508 8.30242 7.49646C8.30298 9.54293 9.9624 11.2015 12.0089 11.2009Z" fill="currentColor"/>
</g>
<defs>
<clipPath id="clip0_97_650">
<rect width="24" height="24" fill="currentColor"/>
</clipPath>
</defs>
</svg>
