<svg width="24" height="24" viewBox="0 0 24 24" fill="currentColor" xmlns="http://www.w3.org/2000/svg">
<path fill-rule="evenodd" clip-rule="evenodd" d="M16.8012 1.80005H7.19882C6.88072 1.80005 6.5757 1.92672 6.35088 2.15176C6.12606 2.3768 5.99984 2.68194 6 3.00005V21C5.99967 21.6625 6.53637 22.1997 7.19878 22.2001H16.8012C17.1193 22.2001 17.4243 22.0734 17.6491 21.8483C17.8739 21.6233 18.0002 21.3182 18 21V3.00005C18.0003 2.33765 17.4636 1.80039 16.8012 1.80005ZM11.1 2.40005H12.9C13.0657 2.40005 13.2 2.53436 13.2 2.70005C13.2 2.86573 13.0657 3.00005 12.9 3.00005H11.1C10.9343 3.00005 10.8 2.86573 10.8 2.70005C10.8 2.53436 10.9343 2.40005 11.1 2.40005ZM12 21.6C11.6686 21.6 11.4 21.3314 11.4 21C11.4 20.6687 11.6686 20.4 12 20.4C12.3314 20.4 12.6 20.6687 12.6 21C12.6 21.3314 12.3314 21.6 12 21.6ZM16.8 19.8H7.2V3.60005H16.8V19.8ZM9.48 11.8545C10.145 11.1799 11.0527 10.8 12 10.8C12.9473 10.8 13.855 11.1799 14.52 11.8545L15.08 11.2888C14.2672 10.4642 13.1578 10 12 10C10.8422 10 9.73278 10.4642 8.92001 11.2888L9.48 11.8545ZM10.6 12.9858C10.9694 12.6111 11.4737 12.4001 12 12.4001C12.5263 12.4001 13.0306 12.6111 13.4 12.9858L13.96 12.42C13.4428 11.8954 12.7368 11.5999 12 11.5999C11.2632 11.5999 10.5572 11.8954 10.04 12.42L10.6 12.9858ZM8.35999 10.7231C9.32056 9.74866 10.6317 9.20005 12 9.20005C13.3683 9.20005 14.6794 9.74866 15.64 10.7231L16.2 10.1574C15.0917 9.03305 13.5788 8.40004 12 8.40004C10.4212 8.40004 8.90834 9.03305 7.8 10.1574L8.35999 10.7231ZM13.1974 14.4C13.1974 15.0628 12.6601 15.6 11.9974 15.6C11.3346 15.6 10.7974 15.0628 10.7974 14.4C10.7974 13.7373 11.3346 13.2 11.9974 13.2C12.6601 13.2 13.1974 13.7373 13.1974 14.4Z" fill="currentColor"/>
</svg>
