<svg width="24" height="24" viewBox="0 0 24 24" fill="currentColor" xmlns="http://www.w3.org/2000/svg">
<path fill-rule="evenodd" clip-rule="evenodd" d="M12.1136 14.4917C11.8475 14.4917 11.61 14.6027 11.4013 14.8248C11.1992 15.035 11.0544 15.2934 10.9807 15.5755C10.9418 15.7145 10.9211 15.8579 10.9193 16.0023C10.9193 16.4403 11.1199 16.6705 11.521 16.693C11.7993 16.693 12.0501 16.5866 12.2733 16.3738C12.4898 16.172 12.6433 15.9119 12.7153 15.6247C12.7556 15.4818 12.7773 15.3342 12.7798 15.1857C12.7798 14.723 12.5577 14.4917 12.1136 14.4917ZM17.4 9.00005H16.8V6.60005C16.8 3.96005 14.64 1.80005 12 1.80005C9.35999 1.80005 7.19999 3.96005 7.19999 6.60005V9.00005H4.79999V20.4C4.79999 21.3942 5.60587 22.2001 6.59999 22.2001H19.2V10.8C19.2 9.80594 18.3941 9.00005 17.4 9.00005ZM8.99999 6.60005C8.99999 4.94319 10.3431 3.60005 12 3.60005C13.6568 3.60005 15 4.94319 15 6.60005V9.00005H8.99999V6.60005ZM14.1092 16.7806C14.2818 16.6781 14.4355 16.5467 14.5636 16.3922C14.6628 16.2706 14.755 16.1435 14.8399 16.0115C14.9033 15.9091 14.9591 15.7709 15.0072 15.597C15.0554 15.423 15.0794 15.2102 15.0794 14.9584C15.0794 14.4283 14.9484 13.9524 14.6864 13.5307C14.4272 13.1117 14.0589 12.7711 13.621 12.5452C13.1754 12.3105 12.6787 12.1892 12.175 12.1922C11.5928 12.1908 11.0207 12.3438 10.5171 12.6358C10.0079 12.9231 9.58174 13.3372 9.27983 13.8378C8.97549 14.3336 8.81597 14.9048 8.81929 15.4866C8.81929 16.5039 9.12528 17.3297 9.73727 17.9642C10.0403 18.2973 10.4108 18.5621 10.8241 18.741C11.2377 18.9251 11.6854 19.0203 12.1382 19.0203C12.5253 19.0228 12.9099 18.9568 13.2741 18.8254C13.6028 18.7091 13.9162 18.5535 14.2074 18.3618C14.4406 18.2088 14.6599 18.0357 14.8629 17.8445C15.0338 17.6787 15.1356 17.5804 15.1684 17.5497C15.3587 17.3819 15.5266 17.298 15.6719 17.298C15.8131 17.298 15.8837 17.386 15.8837 17.562C15.8121 17.8874 15.5022 18.2814 14.9539 18.744C14.1211 19.448 13.1656 19.8 12.0874 19.8C11.4716 19.8 10.8772 19.6537 10.3043 19.361C9.74669 19.0808 9.25742 18.6815 8.87116 18.1913C8.28396 17.4381 7.99036 16.5109 7.99036 15.4097C7.99036 14.8612 8.11822 14.3239 8.37395 13.7979C8.85177 12.8198 9.68329 12.0599 10.7002 11.6718C11.1759 11.4919 11.6802 11.3999 12.1887 11.4C12.6841 11.3983 13.1758 11.4856 13.6403 11.658C14.091 11.8229 14.5069 12.0707 14.8664 12.3886C15.2204 12.7025 15.5056 13.0861 15.7042 13.5154C15.9078 13.9514 16.0097 14.4283 16.0097 14.9461C16.0111 15.3954 15.918 15.84 15.7364 16.2509C15.5642 16.6514 15.2952 17.0027 14.9535 17.2733C14.6301 17.5271 14.3405 17.7037 14.0847 17.8029C13.8289 17.9022 13.4943 17.9518 13.0807 17.9517C12.9272 17.9517 12.7604 17.8832 12.5803 17.7461C12.4002 17.6089 12.3071 17.4759 12.3009 17.3469C11.9141 17.6989 11.5119 17.8749 11.0944 17.8749C10.6317 17.8749 10.2582 17.7112 9.97374 17.3837C9.72198 17.1094 9.5961 16.7451 9.5961 16.2907C9.5961 16.086 9.62987 15.8517 9.6974 15.5876C9.8878 14.8917 10.2613 14.3258 10.818 13.8898C11.299 13.503 11.7892 13.3095 12.2887 13.3095C12.524 13.3095 12.7138 13.3494 12.8582 13.4293C13.0025 13.5091 13.135 13.637 13.2558 13.813C13.4543 13.504 13.6978 13.3495 13.9864 13.3494C14.1379 13.3494 14.2597 13.3914 14.3518 13.4753C14.4439 13.5592 14.49 13.6718 14.49 13.813C14.4865 13.8729 14.4783 13.9325 14.4654 13.9911L13.6734 16.9569C13.7736 16.957 13.9188 16.8982 14.1092 16.7806Z" fill="currentColor"/>
</svg>
