<svg width="24" height="24" viewBox="0 0 24 24" fill="currentColor" xmlns="http://www.w3.org/2000/svg">
<path fill-rule="evenodd" clip-rule="evenodd" d="M11.4 1.79999H5.10001C4.60296 1.79999 4.20001 2.20293 4.20001 2.69999V18.3C4.20001 18.797 4.60296 19.2 5.10001 19.2H7.80001V18H6.00001C5.66864 18 5.40001 17.7314 5.40001 17.4V15.6H7.80001V15H5.40001V12.6H7.80001V12H5.40001V10.2C5.40001 9.86862 5.66864 9.59999 6.00001 9.59999H7.80001V5.69999C7.80096 4.87196 8.47198 4.20094 9.30001 4.19999H13.8L11.4 1.79999ZM15.6 4.79999H9.30001C8.80296 4.79999 8.40001 5.20293 8.40001 5.69999V21.3C8.40001 21.797 8.80296 22.2 9.30001 22.2H18.3C18.7971 22.2 19.2 21.797 19.2 21.3V8.39999L15.6 4.79999ZM9.60001 13.2C9.60001 12.8686 9.86864 12.6 10.2 12.6H12V15H9.60001V13.2ZM9.60001 15.6H12.6V12.6H15V18H9.60001V15.6ZM10.2 21C9.86864 21 9.60001 20.7314 9.60001 20.4V18.6H12V21H10.2ZM12.6 21V18.6H15V21H12.6ZM18 20.4C18 20.7314 17.7314 21 17.4 21H15.6V18.6H18V20.4ZM18 18H15.6V15.6H18V18ZM18 13.2V15H15.6V12.6H17.4C17.7314 12.6 18 12.8686 18 13.2Z" fill="currentColor"/>
</svg>
