<svg width="24" height="24" viewBox="0 0 24 24" fill="currentColor" xmlns="http://www.w3.org/2000/svg">
<path fill-rule="evenodd" clip-rule="evenodd" d="M19.0099 4.02699C16.7513 4.02699 14.6524 3.31899 12.6954 2.10102C12.2549 1.82704 11.6969 1.82718 11.2566 2.10138C9.29959 3.32058 7.20077 4.03405 4.94218 4.02632C4.18786 4.02681 3.57605 4.63849 3.57605 5.39281V10.6289C3.57605 14.9509 6.02623 19.9601 11.5231 21.8829C11.8163 21.9855 12.1358 21.9855 12.429 21.8829C17.9258 19.96 20.376 14.9509 20.376 10.6289V5.39353C20.376 5.03115 20.2322 4.6836 19.976 4.42732C19.7198 4.17105 19.3723 4.02704 19.0099 4.02699ZM19.1761 11.0576C19.1761 14.1933 17.0934 18.9294 12.4234 20.6105C12.1342 20.7145 11.8179 20.7145 11.5287 20.6105C6.85865 18.9294 4.77605 14.1933 4.77605 11.0576V5.78072C4.77605 5.47503 5.02361 5.22709 5.3293 5.22673C7.68907 5.22673 9.87701 4.54124 11.6739 3.37306C11.8576 3.25354 12.0945 3.25354 12.2782 3.37306C14.0751 4.54131 16.2625 5.22721 18.6222 5.22721C18.7691 5.22723 18.91 5.28563 19.0139 5.38955C19.1178 5.49347 19.1761 5.63439 19.1761 5.78132V11.0576ZM11.988 17.712C11.3584 17.712 10.848 17.2016 10.848 16.572C10.848 15.9424 11.3584 15.432 11.988 15.432C12.6177 15.432 13.128 15.9424 13.128 16.572C13.128 17.2016 12.6177 17.712 11.988 17.712ZM13.1247 7.5351L12.7479 13.73C12.7477 14.1496 12.4075 14.3072 11.9879 14.3072C11.5683 14.3072 11.2282 14.1496 11.2279 13.73L10.8502 7.52082C10.8488 7.49804 10.8479 7.47522 10.8479 7.45201C10.8479 6.8224 11.3583 6.31201 11.9879 6.31201C12.6175 6.31201 13.1279 6.8224 13.1279 7.45201C13.128 7.47997 13.1267 7.50762 13.1247 7.5351Z" fill="currentColor"/>
</svg>
