<svg width="24" height="24" viewBox="0 0 24 24" fill="currentColor" xmlns="http://www.w3.org/2000/svg">
<path fill-rule="evenodd" clip-rule="evenodd" d="M19.8 22.1998V21.5998H19.2V4.7998L15.6 1.7998L12 4.7998L8.40001 1.7998L4.80001 4.7998V21.5998H4.20001V22.1998H19.8ZM12.6 13.7998V11.9998H14.4V13.7998H12.6ZM14.4 14.9998V16.7998H12.6V14.9998H14.4ZM12.6 10.7998V8.9998H14.4V10.7998H12.6ZM12.6 7.7998V5.9998H14.4V7.7998H12.6ZM17.4 8.9998V10.7998H15.6V8.9998H17.4ZM15.6 7.7998V5.9998H17.394V7.7998H15.6ZM17.4 11.9998V13.7998H15.6V11.9998H17.4ZM17.4 14.9998V16.7998H15.6V14.9998H17.4ZM17.4 17.9998V19.7998H15.6V17.9998H17.4ZM9.60001 13.7998V11.9998H11.4V13.7998H9.60001ZM11.4 14.9998V16.7998H9.60001V14.9998H11.4ZM9.60001 10.7998V8.9998H11.4V10.7998H9.60001ZM9.60001 7.7998V5.9998H11.4V7.7998H9.60001ZM6.60001 16.7998V14.9998H8.4002V16.7998H6.60001ZM8.4002 17.9998V19.7998H6.60001V17.9998H8.4002ZM6.60001 13.7998V11.9998H8.4002V13.7998H6.60001ZM8.40001 7.7998H6.60001V5.9998H8.40001V7.7998ZM8.40018 8.9998V10.7998H6.62401V8.9998H8.40018ZM9.60001 21.5998V17.9998H11.76V21.5998H9.60001ZM12.216 21.5998V17.9998H14.4V21.5998H12.216Z" fill="currentColor"/>
</svg>
