<svg width="24" height="24" viewBox="0 0 24 24" fill="currentColor" xmlns="http://www.w3.org/2000/svg">
<path fill-rule="evenodd" clip-rule="evenodd" d="M22.2 15.6C22.2 17.5882 20.5882 19.2 18.6 19.2H6.59999C3.94902 19.2 1.79999 17.051 1.79999 14.4C1.79999 11.9478 3.63889 9.92534 6.01288 9.63578C6.08854 8.87128 6.48607 8.17513 7.10603 7.72145C7.726 7.26777 8.50978 7.09946 9.26135 7.2586C10.513 5.70248 12.403 4.79819 14.4 4.79999C18.0451 4.79999 21 7.75492 21 11.4C21.0001 11.8679 20.9507 12.3345 20.8525 12.792C21.7051 13.4746 22.2009 14.5078 22.2 15.6ZM18 7.83119C17.9989 7.64616 17.8884 7.47929 17.7185 7.40605C17.5486 7.33281 17.3514 7.36707 17.2162 7.49335L14.4621 10.1472L13.5547 9.14702C13.3698 8.9894 13.095 8.99984 12.9226 9.17102L12.7364 9.3563C12.5687 9.52277 12.5539 9.78908 12.7022 9.9731L14.1918 11.8259C14.2804 11.9359 14.414 11.9998 14.5552 11.9998C14.6965 11.9998 14.8301 11.9359 14.9187 11.8259L17.898 8.1203C17.9641 8.03844 18.0001 7.9364 18 7.83119Z" fill="currentColor"/>
</svg>
