<svg width="24" height="24" viewBox="0 0 24 24" fill="currentColor" xmlns="http://www.w3.org/2000/svg">
<path fill-rule="evenodd" clip-rule="evenodd" d="M19.8 11.4H19.2V7.80005C19.2 7.46868 18.9314 7.20005 18.6 7.20005H17.4C17.0686 7.20005 16.8 7.46868 16.8 7.80005V11.4H13.2V7.80005C13.2 7.46868 12.9314 7.20005 12.6 7.20005H11.4C11.0686 7.20005 10.8 7.46868 10.8 7.80005V11.4H7.19999V7.80005C7.19999 7.46868 6.93136 7.20005 6.59999 7.20005H5.39999C5.06862 7.20005 4.79999 7.46868 4.79999 7.80005V11.4H4.19999C2.8745 11.4 1.79999 12.4746 1.79999 13.8V16.2C1.79999 16.5314 2.06862 16.8 2.39999 16.8V22.2001H21.6V16.8C21.9314 16.8 22.2 16.5314 22.2 16.2V13.8C22.2 12.4746 21.1255 11.4 19.8 11.4ZM20.4 21H3.59999V18C3.60018 16.5597 4.53328 15.6 6.02653 15.6C7.51979 15.6 7.51984 16.8 9.01312 16.8C10.5064 16.8 10.5064 15.6 11.9997 15.6C13.4931 15.6 13.4935 16.8 14.9869 16.8C16.4802 16.8 16.4801 15.6 17.9734 15.6C19.4667 15.6 20.3998 16.5597 20.4 18V21ZM5.99999 1.80005C5.99999 1.80005 4.19999 3.61205 4.19999 4.80005C4.2001 5.77598 4.97806 6.57396 5.95367 6.59887C5.47524 6.57422 5.09998 6.17911 5.09999 5.70005C5.09999 5.10605 5.99999 4.20005 5.99999 4.20005C5.99999 4.20005 6.89999 5.10605 6.89999 5.70005C6.9 6.17911 6.52473 6.57422 6.04631 6.59887C7.02192 6.57396 7.79988 5.77598 7.79999 4.80005C7.79999 3.61205 5.99999 1.80005 5.99999 1.80005ZM12 1.80005C12 1.80005 10.2 3.61205 10.2 4.80005C10.2001 5.77598 10.9781 6.57396 11.9537 6.59887C11.4752 6.57422 11.1 6.17911 11.1 5.70005C11.1 5.10605 12 4.20005 12 4.20005C12 4.20005 12.9 5.10605 12.9 5.70005C12.9 6.17911 12.5247 6.57422 12.0463 6.59887C13.0219 6.57396 13.7999 5.77598 13.8 4.80005C13.8 3.61205 12 1.80005 12 1.80005ZM18 1.80005C18 1.80005 16.2 3.61205 16.2 4.80005C16.2001 5.77598 16.9781 6.57396 17.9537 6.59887C17.4752 6.57422 17.1 6.17911 17.1 5.70005C17.1 5.10605 18 4.20005 18 4.20005C18 4.20005 18.9 5.10605 18.9 5.70005C18.9 6.17911 18.5247 6.57422 18.0463 6.59887C19.0219 6.57396 19.7999 5.77598 19.8 4.80005C19.8 3.61205 18 1.80005 18 1.80005Z" fill="currentColor"/>
</svg>
