<svg width="24" height="24" viewBox="0 0 24 24" fill="currentColor" xmlns="http://www.w3.org/2000/svg">
<path fill-rule="evenodd" clip-rule="evenodd" d="M18.6 1.79999H7.19998L3.59998 5.39999V21C3.59998 21.6627 4.13723 22.2 4.79998 22.2H18.6C19.2627 22.2 19.8 21.6627 19.8 21V2.99999C19.8 2.33725 19.2627 1.79999 18.6 1.79999ZM6.59998 8.99999H4.79998V5.39999H6.59998V8.99999ZM8.99998 6.59999H7.19998V2.99999H8.99998V6.59999ZM11.4 6.59999H9.59998V2.99999H11.4V6.59999ZM13.8 6.59999H12V2.99999H13.8V6.59999ZM16.2 6.59999H14.4V2.99999H16.2V6.59999ZM18.6 6.59999H16.8V2.99999H18.6V6.59999Z" fill="currentColor"/>
</svg>
