<svg width="24" height="24" viewBox="0 0 24 24" fill="currentColor" xmlns="http://www.w3.org/2000/svg">
<path fill-rule="evenodd" clip-rule="evenodd" d="M16.2 14.4V11.4L10.8 14.4V11.4L5.4 14.4L4.8 5.99998H3L2.4 14.4V22.2H21.6V11.4L16.2 14.4ZM7.2 20.4H6V19.2H7.2V20.4ZM7.2 18H6V16.8H7.2V18ZM9.6 20.4H8.4V19.2H9.6V20.4ZM9.6 18H8.4V16.8H9.6V18ZM12 20.4H10.8V19.2H12V20.4ZM12 18H10.8V16.8H12V18ZM14.4 20.4H13.2V19.2H14.4V20.4ZM14.4 18H13.2V16.8H14.4V18ZM16.8 20.4H15.6V19.2H16.8V20.4ZM16.8 18H15.6V16.8H16.8V18ZM19.2 20.4H18V19.2H19.2V20.4ZM19.2 18H18V16.8H19.2V18ZM12.6 1.79998C12.0666 1.79949 11.5605 2.03617 11.2189 2.44589C10.9113 1.75518 10.2562 1.28311 9.50366 1.20986C8.7511 1.1366 8.01725 1.47348 7.5822 2.09189C7.09064 1.77152 6.47374 1.71094 5.92925 1.92956C5.38475 2.14818 4.98103 2.61854 4.8475 3.18989C4.41705 2.91381 3.85893 2.94084 3.45719 3.25724C3.05544 3.57363 2.89834 4.10986 3.06583 4.59303C3.23333 5.0762 3.68862 5.40013 4.2 5.39998H12.6C13.5941 5.39998 14.4 4.59409 14.4 3.59998C14.4 2.60587 13.5941 1.79998 12.6 1.79998Z" fill="currentColor"/>
</svg>
