<svg width="24" height="24" viewBox="0 0 24 24" fill="currentColor" xmlns="http://www.w3.org/2000/svg">
<path fill-rule="evenodd" clip-rule="evenodd" d="M7.2 16.752V19.8H16.7996V3.59999H7.2V12.528C6.97601 12.7136 6.4603 12.8094 6 12.6V2.99999C5.9989 2.6823 6.12425 2.37722 6.3484 2.15209C6.57255 1.92695 6.87708 1.80027 7.19477 1.79999H16.8008C17.1189 1.79999 17.424 1.92658 17.6489 2.15162C17.8738 2.37666 18 2.68183 18 2.99999V21C18 21.3181 17.8738 21.6233 17.6489 21.8484C17.424 22.0734 17.1189 22.2 16.8008 22.2H7.19477C6.87708 22.1997 6.57255 22.073 6.3484 21.8479C6.12425 21.6228 5.9989 21.3177 6 21V16.2C6.37736 16.5054 6.9798 16.704 7.2 16.752ZM12.8981 2.39999H11.0975C10.9318 2.39999 10.7975 2.5343 10.7975 2.69999C10.7975 2.86567 10.9318 2.99999 11.0975 2.99999H12.8981C13.0638 2.99999 13.1981 2.86567 13.1981 2.69999C13.1981 2.5343 13.0638 2.39999 12.8981 2.39999ZM11.9978 21.6C12.3291 21.5999 12.5977 21.3312 12.5976 20.9999C12.5975 20.6685 12.3289 20.4 11.9975 20.4C11.6662 20.4 11.3976 20.6686 11.3976 21C11.3977 21.3314 11.6664 21.6 11.9978 21.6ZM10.9845 15.2361L12.7927 13.4256L14.4 15.035V9.85336C14.4003 9.38233 14.0186 9.00028 13.5476 8.99999H8.37269L9.97997 10.6093L8.17176 12.4198L7.76996 12.8221C7.45045 13.1422 7.01676 13.3221 6.5645 13.3221C6.11224 13.3221 5.67855 13.1422 5.35904 12.8221L4.70677 12.169C4.51255 13.7345 5.33378 15.2505 6.75109 15.9429C8.1684 16.6354 9.86903 16.3514 10.9845 15.2361Z" fill="currentColor"/>
</svg>
