<svg width="24" height="24" viewBox="0 0 24 24" fill="currentColor" xmlns="http://www.w3.org/2000/svg">
<path fill-rule="evenodd" clip-rule="evenodd" d="M13.4315 3H10.5685C9.37087 3 8.4 3.97087 8.4 5.1685V6.6C8.4 6.93137 8.66863 7.2 9 7.2C9.33137 7.2 9.6 6.93137 9.6 6.6V5.4C9.6 5.06863 9.86863 4.8 10.2 4.8H13.8C14.1314 4.8 14.4 5.06863 14.4 5.4V6.6C14.4 6.93137 14.6686 7.2 15 7.2C15.3314 7.2 15.6 6.93137 15.6 6.6V5.1685C15.6 4.59338 15.3715 4.04181 14.9649 3.63514C14.5582 3.22847 14.0066 3 13.4315 3ZM18 7.8H6C4.01178 7.8 2.4 9.41177 2.4 11.4V20.4C2.4 20.7314 2.66863 21 3 21H21C21.3314 21 21.6 20.7314 21.6 20.4V11.4C21.6 9.41177 19.9882 7.8 18 7.8ZM12 18.6C9.68041 18.6 7.8 16.7196 7.8 14.4C7.8 12.0804 9.68041 10.2 12 10.2C14.3196 10.2 16.2 12.0804 16.2 14.4C16.2 15.5139 15.7575 16.5822 14.9699 17.3698C14.1822 18.1575 13.1139 18.6 12 18.6ZM15 13.2H13.2V11.4H10.8V13.2H9V15.6H10.8V17.4H13.2V15.6H15V13.2Z" fill="currentColor"/>
</svg>
