<svg width="24" height="24" viewBox="0 0 24 24" fill="currentColor" xmlns="http://www.w3.org/2000/svg">
<path fill-rule="evenodd" clip-rule="evenodd" d="M20.8973 13.8124C20.9896 13.3836 21.036 12.9461 21.0359 12.5075C21.0359 9.08987 18.2599 6.31952 14.8355 6.31952C12.9603 6.3174 11.1852 7.16502 10.008 8.62463C9.30264 8.47542 8.56712 8.63307 7.98491 9.05827C7.40269 9.48347 7.02867 10.1361 6.95614 10.8534C4.72587 11.1249 2.9983 13.0211 2.9983 15.3202C2.9983 17.8056 5.01723 19.8205 7.50771 19.8205H18.7812C20.6491 19.8205 22.1633 18.3093 22.1633 16.4452C22.1639 15.4207 21.698 14.4517 20.8973 13.8124ZM4.25571 11.2443C4.25391 11.1919 4.25266 11.1394 4.25266 11.0865C4.25266 8.60255 6.2672 6.5888 8.75228 6.5888C9.41591 6.58794 10.0715 6.73441 10.6716 7.01766C11.1937 6.61499 11.7723 6.29159 12.3888 6.05792L12.1819 5.11218L10.1646 5.75427L8.73884 4.19L7.31305 5.75427L5.2958 5.11218L4.84349 7.17949L2.77534 7.6316L3.4177 9.64801L1.85278 11.0732L3.22839 12.326C3.51594 11.917 3.86214 11.5526 4.25571 11.2443Z" fill="currentColor"/>
</svg>
