<svg width="24" height="24" viewBox="0 0 24 24" fill="currentColor" xmlns="http://www.w3.org/2000/svg">
<path fill-rule="evenodd" clip-rule="evenodd" d="M21.6 2.4H2.39999C2.06862 2.4 1.79999 2.66863 1.79999 3V6C1.79999 6.33137 2.06862 6.6 2.39999 6.6H21.6C21.9314 6.6 22.2 6.33137 22.2 6V3C22.2 2.66863 21.9314 2.4 21.6 2.4ZM3.89999 5.4C3.40293 5.4 2.99999 4.99706 2.99999 4.5C2.99999 4.00295 3.40293 3.6 3.89999 3.6C4.39704 3.6 4.79999 4.00295 4.79999 4.5C4.79999 4.99706 4.39704 5.4 3.89999 5.4ZM21.6 7.2H2.39999C2.06862 7.2 1.79999 7.46863 1.79999 7.8V10.8C1.79999 11.1314 2.06862 11.4 2.39999 11.4H21.6C21.9314 11.4 22.2 11.1314 22.2 10.8V7.8C22.2 7.46863 21.9314 7.2 21.6 7.2ZM3.89999 10.2C3.40293 10.2 2.99999 9.79706 2.99999 9.3C2.99999 8.80295 3.40293 8.4 3.89999 8.4C4.39704 8.4 4.79999 8.80295 4.79999 9.3C4.79999 9.79706 4.39704 10.2 3.89999 10.2ZM8.39999 21.6H1.79999V19.8H8.39999V21.6ZM22.2 21.6H15.6V19.8H22.2V21.6ZM21.6 12H2.39999C2.06862 12 1.79999 12.2686 1.79999 12.6V15.6C1.79999 15.9314 2.06862 16.2 2.39999 16.2H9.59999V15.6C9.59999 14.2745 10.6745 13.2 12 13.2C13.3255 13.2 14.4 14.2745 14.4 15.6V16.2H21.6C21.9314 16.2 22.2 15.9314 22.2 15.6V12.6C22.2 12.2686 21.9314 12 21.6 12ZM3.89999 15C3.40293 15 2.99999 14.5971 2.99999 14.1C2.99999 13.6029 3.40293 13.2 3.89999 13.2C4.39704 13.2 4.79999 13.6029 4.79999 14.1C4.79999 14.5971 4.39704 15 3.89999 15ZM14.1 16.8H13.8V15.6C13.8 14.6059 12.9941 13.8 12 13.8C11.0059 13.8 10.2 14.6059 10.2 15.6V16.8H8.99999V21.3C8.99999 21.7971 9.40293 22.2 9.89999 22.2H15V17.7C15 17.2029 14.597 16.8 14.1 16.8ZM12.3281 19.4808L12.48 21H11.52L11.6719 19.4808C11.3758 19.3292 11.2221 18.9945 11.3 18.6712C11.378 18.3478 11.6673 18.1199 12 18.1199C12.3326 18.1199 12.622 18.3478 12.6999 18.6712C12.7779 18.9945 12.6242 19.3292 12.3281 19.4808ZM13.08 16.8H10.92V15.6C10.92 15.0035 11.4035 14.52 12 14.52C12.5965 14.52 13.08 15.0035 13.08 15.6V16.8Z" fill="currentColor"/>
</svg>
