<svg width="24" height="24" viewBox="0 0 24 24" fill="currentColor" xmlns="http://www.w3.org/2000/svg">
<path fill-rule="evenodd" clip-rule="evenodd" d="M21.0524 12.9919C21.1506 12.5344 21.2001 12.0679 21.2 11.6C21.2 7.95493 18.2451 5 14.6 5C12.601 4.99821 10.7093 5.90429 9.45778 7.46305C8.70344 7.29717 7.91417 7.46207 7.28934 7.9161C6.66451 8.37013 6.26388 9.06988 6.18865 9.83857C3.8264 10.1389 2 12.1562 2 14.6C2 17.251 4.14903 19.4 6.8 19.4H18.8C20.328 19.4 21.6894 18.4353 22.1961 16.9938C22.7028 15.5523 22.2443 13.948 21.0524 12.9919ZM13.2853 13.5392C12.4759 12.73 11.7022 11.7927 12.0728 11.4224C13.0026 10.4926 13.065 10.5649 12.1253 9.39565C11.1851 8.22642 11.3037 8.37925 10.0447 9.6382C9.45193 10.2313 10.0135 12.4415 12.1981 14.6263C14.3832 16.8107 16.5935 17.3728 17.1867 16.7795C18.4455 15.5208 18.5984 15.6393 17.4291 14.6996C16.2603 13.7595 16.3283 13.8263 15.4025 14.752C15.0318 15.1221 14.0948 14.3486 13.2853 13.5392ZM17.3165 11.0016L15.6434 12.6707C15.4761 12.8376 15.2089 12.8441 15.0495 12.6851L14.1392 11.7769C13.9799 11.618 13.9864 11.3513 14.1537 11.1844L15.8268 9.51529L14.886 8.59821L17.5934 8.60046C17.7635 8.58904 17.9303 8.65156 18.051 8.772C18.1718 8.89244 18.2347 9.05909 18.2236 9.22926L18.2255 11.9067L17.3165 11.0016Z" fill="currentColor"/>
</svg>
