<svg width="24" height="24" viewBox="0 0 24 24" fill="currentColor" xmlns="http://www.w3.org/2000/svg">
<path fill-rule="evenodd" clip-rule="evenodd" d="M19.8 5.4V15.5993C19.8 16.2624 19.2624 16.8 18.5993 16.8H9.864L8.064 18.6H14.4L17.4 21.6V18.6H19.8C20.7929 18.5971 21.5971 17.7929 21.6 16.8V7.2C21.5971 6.20709 20.7929 5.4029 19.8 5.4ZM9.46819 16.3318C9.55258 16.2474 9.66705 16.2 9.78641 16.2H18.6131C18.7688 16.2 18.918 16.1382 19.0281 16.0281C19.1382 15.918 19.2 15.7688 19.2 15.6131V5.55C19.2 4.8737 18.9313 4.2251 18.4531 3.74688C17.9749 3.26866 17.3263 3 16.65 3H3.6024C3.44263 3 3.28941 3.06347 3.17644 3.17644C3.06347 3.28941 3 3.44263 3 3.6024V13.65C3 15.0583 4.14167 16.2 5.55 16.2H6V19.8L9.46819 16.3318ZM6.6 6H15.6C15.9314 6 16.2 6.26863 16.2 6.6C16.2 6.93137 15.9314 7.2 15.6 7.2H6.6C6.26863 7.2 6 6.93137 6 6.6C6 6.26863 6.26863 6 6.6 6ZM6.6 9H15.6C15.9314 9 16.2 9.26863 16.2 9.6C16.2 9.93137 15.9314 10.2 15.6 10.2H6.6C6.26863 10.2 6 9.93137 6 9.6C6 9.26863 6.26863 9 6.6 9ZM6.6 12H10.8C11.1314 12 11.4 12.2686 11.4 12.6C11.4 12.9314 11.1314 13.2 10.8 13.2H6.6C6.26863 13.2 6 12.9314 6 12.6C6 12.2686 6.26863 12 6.6 12Z" fill="currentColor"/>
</svg>
