<svg width="24" height="24" viewBox="0 0 24 24" fill="currentColor" xmlns="http://www.w3.org/2000/svg">
<path fill-rule="evenodd" clip-rule="evenodd" d="M14.5035 18.0002C14.5033 19.3253 13.429 20.3995 12.1039 20.3993C10.7787 20.3992 9.70456 19.3249 9.70462 17.9998C9.70468 16.6747 10.7789 15.6004 12.1041 15.6004C12.7405 15.6004 13.3508 15.8533 13.8008 16.3034C14.2508 16.7534 14.5035 17.3638 14.5035 18.0002ZM6.92287 6.61854C11.604 4.63801 17.0046 5.49931 20.8374 8.83765C21.233 9.18242 21.8281 9.16199 22.1991 8.7909C22.3948 8.59528 22.5005 8.32723 22.491 8.05071C22.4815 7.77419 22.3576 7.51402 22.149 7.3323C16.2329 2.1881 7.3865 2.34488 1.65639 7.69549C1.55572 7.7892 1.49745 7.91978 1.49483 8.05729C1.49239 8.1948 1.54582 8.32743 1.64297 8.42478L2.69074 9.47274L4.1029 10.8847L5.11339 11.8959C5.33166 12.1147 5.68266 12.1254 5.91384 11.9203C8.98498 9.18577 13.4865 8.7902 16.9874 10.9472C17.06 10.9923 17.108 11.068 17.1178 11.1529C17.1275 11.2377 17.0979 11.3224 17.0374 11.3827L16.075 12.3451C15.9348 12.4845 15.7198 12.5157 15.5457 12.4219C13.0736 11.1082 10.0692 11.3169 7.80262 12.9599C7.56767 13.1321 7.41973 13.3984 7.39768 13.6888C7.37563 13.9792 7.48166 14.2648 7.68792 14.4704C8.03608 14.818 8.58536 14.8605 8.98289 14.5708C10.943 13.1547 13.6108 13.236 15.481 14.7687C15.7099 14.9588 16.0458 14.9438 16.2567 14.7339L17.2814 13.7091L18.6931 12.2966L19.7684 11.2218C19.8584 11.1319 19.9077 11.0093 19.9051 10.8822C19.9025 10.7551 19.8481 10.6346 19.7545 10.5485C15.897 7.0089 10.1152 6.57726 5.77481 9.50483C5.60205 9.62173 5.37065 9.59965 5.22312 9.45217L4.24011 8.46928C4.19279 8.4221 4.16845 8.35661 4.17345 8.28999C4.17846 8.22336 4.21232 8.16225 4.26615 8.12267C5.09079 7.52058 5.98229 7.01585 6.92287 6.61854Z" fill="currentColor"/>
</svg>
