<svg width="24" height="24" viewBox="0 0 24 24" fill="currentColor" xmlns="http://www.w3.org/2000/svg">
<path fill-rule="evenodd" clip-rule="evenodd" d="M14.0018 11.2093L17.5891 18.8475C15.1625 20.3028 8.51554 20.442 6.28474 18.8446L9.87704 11.195C5.90358 10.4229 3.03118 7.73312 2.97644 7.68145C3.04035 7.62121 6.94467 3.96063 11.96 3.96063H11.992C17.0075 3.96063 20.9117 7.62121 20.9755 7.68145C20.9204 7.73343 18.0133 10.4564 14.0018 11.2093ZM9.93234 15.1298L11.088 16.296V18.888C11.088 19.0634 11.2374 19.2 11.4117 19.2H12.5163C12.6906 19.2 12.84 19.0634 12.84 18.888V16.296L13.9955 15.1292C14.1187 15.0048 14.1187 14.8044 13.9955 14.68C13.9365 14.6204 13.8562 14.5869 13.7723 14.5869C13.6885 14.5869 13.6081 14.6204 13.5491 14.68L12.7392 15.4954L12.7389 15.4942H12.7373V15.4966L12.7325 15.4942C12.5253 15.6915 12.2501 15.8015 11.964 15.8012C11.6665 15.8012 11.1956 15.4941 11.1956 15.4941L11.1937 15.5013L10.3785 14.6808C10.3195 14.6213 10.2392 14.5878 10.1554 14.5878C10.0716 14.5878 9.99131 14.6213 9.93234 14.6808C9.80916 14.8051 9.80916 15.0055 9.93234 15.1298ZM12.8319 14.6736C12.8288 14.195 12.4388 13.8093 11.9602 13.8113C11.4816 13.8134 11.095 14.2026 11.096 14.6812C11.0971 15.1598 11.4854 15.5472 11.964 15.5472C12.1949 15.5465 12.4161 15.454 12.5789 15.2902C12.7416 15.1263 12.8327 14.9046 12.8319 14.6736ZM10.2279 10.4478L10.6251 9.60186L10.6256 9.60474L10.6262 9.6109H10.6306C11.0157 9.45138 11.4618 9.38502 11.9377 9.38502C12.4136 9.38502 12.8597 9.45138 13.2448 9.6109H13.2476L13.2482 9.60474L13.6527 10.4663C14.3221 10.3007 14.7566 9.99169 14.7566 9.69807C14.7566 9.19969 13.5116 8.79567 11.9759 8.79567C10.4402 8.79567 9.1952 9.19957 9.1952 9.69807C9.19527 9.98098 9.59934 10.2783 10.2279 10.4478ZM12.0746 5.18314H12.003C8.5981 5.18314 5.78658 6.56125 4.71949 7.16406C5.78658 6.89286 8.5981 6.27322 12.003 6.27322H12.0746C15.4791 6.27322 18.2909 6.8929 19.3581 7.16406C18.291 6.56118 15.4791 5.18314 12.0746 5.18314ZM12.072 19.2H11.928V17.784H12.072V19.2Z" fill="currentColor"/>
</svg>
