<svg width="24" height="24" viewBox="0 0 24 24" fill="currentColor" xmlns="http://www.w3.org/2000/svg">
<path fill-rule="evenodd" clip-rule="evenodd" d="M10.3029 7.91014C9.7758 8.4377 9.5239 9.18033 9.62128 9.91971C9.71866 10.6591 10.1542 11.3112 10.8 11.6843V21.0007C10.8 21.6634 11.3372 22.2007 12 22.2007C12.6627 22.2007 13.2 21.6634 13.2 21.0007V11.6843C14.0075 11.2179 14.4716 10.3259 14.3902 9.39694C14.3088 8.46799 13.6965 7.67036 12.8202 7.35159C11.9438 7.03281 10.9622 7.25063 10.3029 7.91014ZM9.03015 5.71472C8.79578 5.48054 8.41599 5.48054 8.18161 5.71472C7.16895 6.72667 6.59999 8.09959 6.59999 9.5312C6.59999 10.9628 7.16895 12.3357 8.18161 13.3477C8.41581 13.582 8.79562 13.5821 9.02994 13.3479C9.26426 13.1137 9.26435 12.7339 9.03015 12.4996C8.24252 11.7125 7.79998 10.6447 7.79998 9.5312C7.79998 8.41772 8.24252 7.34989 9.03015 6.56283C9.14267 6.45039 9.20589 6.29785 9.20589 6.13878C9.20589 5.97971 9.14267 5.82716 9.03015 5.71472ZM15.8184 5.71472C15.5842 5.4804 15.2044 5.48031 14.97 5.7145C14.7357 5.9487 14.7356 6.32851 14.9698 6.56283C15.7575 7.34989 16.2 8.41772 16.2 9.5312C16.2 10.6447 15.7575 11.7125 14.9698 12.4996C14.7356 12.7339 14.7357 13.1137 14.97 13.3479C15.2044 13.5821 15.5842 13.582 15.8184 13.3477C16.831 12.3357 17.4 10.9628 17.4 9.5312C17.4 8.09959 16.831 6.72667 15.8184 5.71472ZM5.39999 9.53113C5.39531 7.78047 6.09143 6.10075 7.33309 4.86661C7.48459 4.71503 7.54372 4.49414 7.4882 4.28715C7.43268 4.08016 7.27095 3.91851 7.06393 3.86309C6.85691 3.80768 6.63605 3.86692 6.48455 4.0185C5.02184 5.4802 4.20002 7.46329 4.20002 9.53115C4.20002 11.599 5.02184 13.5821 6.48455 15.0438C6.63582 15.1965 6.85723 15.2566 7.06495 15.2013C7.27267 15.1461 7.43494 14.9839 7.49032 14.7762C7.5457 14.5685 7.48572 14.3471 7.33309 14.1957C6.09141 12.9616 5.39529 11.2818 5.39999 9.53113ZM17.5154 4.0185C17.2812 3.78418 16.9014 3.78408 16.6671 4.01828C16.4328 4.25248 16.4327 4.63229 16.6669 4.86661C17.9046 6.10343 18.6 7.78144 18.6 9.53119C18.6 11.2809 17.9046 12.959 16.6669 14.1958C16.4345 14.4304 16.4354 14.8087 16.669 15.0422C16.9026 15.2757 17.2809 15.2764 17.5154 15.0439C18.9782 13.5822 19.8 11.5991 19.8 9.53118C19.8 7.4633 18.9782 5.4802 17.5154 4.0185ZM2.99999 9.53118C2.99359 7.14392 3.94285 4.85339 5.63603 3.17048C5.87025 2.93617 5.87018 2.55634 5.63587 2.32212C5.40156 2.08789 5.02173 2.08796 4.78751 2.32227C2.87279 4.23271 1.79675 6.82639 1.79675 9.53118C1.79675 12.236 2.87279 14.8296 4.78751 16.7401C5.02201 16.9726 5.40036 16.9719 5.63393 16.7384C5.86751 16.5049 5.86844 16.1266 5.63603 15.892C3.94282 14.209 2.99357 11.9185 2.99999 9.53118ZM21.4531 5.69514C20.9408 4.43153 20.1787 3.28434 19.2125 2.32227C18.9783 2.08795 18.5984 2.08788 18.3641 2.3221C18.1298 2.55633 18.1297 2.93616 18.3639 3.17048C20.0517 4.85705 21 7.14526 21 9.53127C21 11.9173 20.0517 14.2055 18.3639 15.8921C18.1338 16.1271 18.1359 16.5035 18.3685 16.736C18.6012 16.9685 18.9776 16.9703 19.2125 16.7401C22.1096 13.8425 22.9921 9.49267 21.4531 5.69514Z" fill="currentColor"/>
</svg>
