<svg width="24" height="24" viewBox="0 0 24 24" fill="currentColor" xmlns="http://www.w3.org/2000/svg">
<path fill-rule="evenodd" clip-rule="evenodd" d="M20.1 6.60001H10.8L9.00002 4.20001H2.40002V18.3C2.40002 19.1284 3.0716 19.8 3.90002 19.8H21.6V8.10001C21.6 7.27159 20.9285 6.60001 20.1 6.60001ZM15.72 16.8C15.72 17.4628 15.1828 18 14.52 18H9.12002C8.45728 18 7.92002 17.4628 7.92002 16.8V13.8L8.88002 12.84V9.00001C8.88002 8.66864 9.14865 8.40001 9.48002 8.40001H15.12C15.4514 8.40001 15.72 8.66864 15.72 9.00001V16.8ZM10.608 11.4H9.64802V9.36001H10.608V11.4ZM12.048 11.4H11.088V9.36001H12.048V11.4ZM13.488 11.4H12.528V9.36001H13.488V11.4ZM14.928 11.4H13.968V9.36001H14.928V11.4Z" fill="currentColor"/>
</svg>
