<svg width="24" height="24" viewBox="0 0 24 24" fill="currentColor" xmlns="http://www.w3.org/2000/svg">
<path fill-rule="evenodd" clip-rule="evenodd" d="M19.2 4.20002H16.8V3.28802C16.8 2.79098 16.3971 2.40002 15.9 2.40002C15.403 2.40002 15 2.80297 15 3.30002V4.20002H8.40029L8.40002 3.30002C8.40002 2.80297 7.99708 2.40002 7.50002 2.40002C7.00297 2.40002 6.60002 2.80297 6.60002 3.30002V4.20002H2.40002V19.2C2.40002 20.1941 3.20591 21 4.20002 21H21V6.00002C21 5.00591 20.1941 4.20002 19.2 4.20002ZM19.8 19.8H4.50002C4.00297 19.8 3.60002 19.3971 3.60002 18.9V9.60003H18.9C19.3971 9.60003 19.8 10.003 19.8 10.5V19.8ZM6.00002 6.30002C5.99965 5.8278 6.22202 5.38306 6.60002 5.10002V6.30002C6.60002 6.79708 7.00297 7.20002 7.50002 7.20002C7.99708 7.20002 8.40002 6.79708 8.40002 6.30002V6.00002L8.40029 5.10019C8.96447 5.52352 9.1575 6.28274 8.86401 6.92413C8.57052 7.56552 7.86982 7.91578 7.18065 7.7656C6.49148 7.61542 6.00002 7.00537 6.00002 6.30002ZM14.4 6.30002C14.3996 5.8278 14.622 5.38306 15 5.10002V6.30002C15 6.79708 15.403 7.20002 15.9 7.20002C16.3971 7.20002 16.8 6.79708 16.8 6.30002L16.7998 6.00002L16.8 5.11202C17.1774 5.39019 17.4002 5.83118 17.4 6.30002C17.4 7.12845 16.7285 7.80002 15.9 7.80002C15.0716 7.80002 14.4 7.12845 14.4 6.30002Z" fill="currentColor"/>
</svg>
