<svg width="24" height="24" viewBox="0 0 24 24" fill="currentColor" xmlns="http://www.w3.org/2000/svg">
<path fill-rule="evenodd" clip-rule="evenodd" d="M11.0208 15.36V13.2C11.0202 11.8058 11.7996 10.5285 13.0397 9.89129C12.7712 9.50752 12.5902 9.06957 12.5093 8.60827C12.5039 8.60556 12.4986 8.60266 12.4932 8.59999C11.1816 9.8374 9.1326 9.8374 7.82097 8.59999C6.75434 9.12526 6.07895 10.2111 6.07934 11.4V13.56C6.07924 13.9419 6.23082 14.3081 6.50073 14.5781C6.77063 14.8482 7.13677 14.9999 7.51858 15V18.6H6.02302C5.36126 18.5979 4.82543 18.0618 4.82366 17.4V3.60005C4.82543 2.93829 5.36126 2.40217 6.02302 2.40005H14.187C14.8488 2.40215 15.3846 2.93827 15.3864 3.60005V4.81488C15.4894 4.80509 15.5934 4.80015 15.6982 4.80005C15.7949 4.80005 15.8909 4.80449 15.9861 4.81284V3.60005C15.9852 2.60667 15.1804 1.80144 14.187 1.80005H6.02302C5.02964 1.80145 4.22486 2.60668 4.224 3.60005V17.4C4.22486 18.3934 5.02966 19.1987 6.02304 19.2001H7.5186V19.2043H12.4599V17.31C11.6049 17.0453 11.0217 16.2551 11.0208 15.36ZM18.0343 10.3999C17.4752 10.9287 16.7529 11.2516 15.986 11.3158C15.8911 11.3238 15.7952 11.328 15.6982 11.328C15.593 11.328 15.4891 11.3231 15.3864 11.3136C14.6282 11.2448 13.9152 10.9229 13.3621 10.3999C12.2954 10.9252 11.6199 12.011 11.6204 13.2V15.36C11.6205 16.155 12.2647 16.7995 13.0596 16.8V21.24C13.0595 21.7701 13.489 22.1999 14.0191 22.2001H17.3773C17.6318 22.2001 17.8759 22.0988 18.0559 21.9188C18.2358 21.7387 18.3368 21.4946 18.3368 21.24V16.8C18.7186 16.7999 19.0847 16.6482 19.3546 16.3781C19.6245 16.1081 19.7761 15.7419 19.776 15.36V13.2C19.7764 12.0111 19.101 10.9252 18.0343 10.3999ZM15.6982 5.40005C14.9981 5.39991 14.3267 5.67805 13.8318 6.17322C13.3369 6.66839 13.0591 7.33996 13.0596 8.04005C13.0593 9.37709 14.0588 10.5032 15.3864 10.6616C16.36 10.7773 17.3174 10.3439 17.873 9.53608C18.4286 8.72828 18.4908 7.67913 18.0345 6.81137C17.5782 5.94362 16.6786 5.40019 15.6982 5.40005ZM7.51857 6.24005C7.51936 7.69711 8.70104 8.87774 10.1581 8.87722C11.6152 8.8767 12.796 7.69523 12.7957 6.23816C12.7955 4.7811 11.6142 3.60005 10.1572 3.60005C8.69952 3.60045 7.51819 4.78241 7.51857 6.24005Z" fill="currentColor"/>
</svg>
