<svg width="24" height="24" viewBox="0 0 24 24" fill="currentColor" xmlns="http://www.w3.org/2000/svg">
<path fill-rule="evenodd" clip-rule="evenodd" d="M12 10.44C14.3859 10.44 16.32 8.50592 16.32 6.12005C16.32 3.73418 14.3859 1.80005 12 1.80005C9.61415 1.80005 7.68002 3.73418 7.68002 6.12005C7.68002 8.50592 9.61415 10.44 12 10.44ZM14.7044 17.0198C13.9974 17.0198 13.4242 17.593 13.4242 18.3C13.4242 19.0071 13.9974 19.5803 14.7044 19.5803C15.4114 19.5803 15.9846 19.0071 15.9846 18.3C15.9846 17.593 15.4114 17.0198 14.7044 17.0198ZM15.7848 10.1379C13.6592 12.1407 10.3412 12.1408 8.21546 10.1381C6.51737 11.0635 5.444 12.8266 5.40156 14.76H5.40002V19.8C5.40002 21.1255 6.47454 22.2001 7.80002 22.2001H18.6V14.88C18.6007 12.9031 17.5207 11.0839 15.7848 10.1379ZM17.3012 19.3775C16.9286 20.2765 16.7553 19.319 16.2371 19.8371C15.7188 20.3551 16.6765 20.5288 15.7776 20.9012C14.8786 21.2735 15.4328 20.474 14.7001 20.474C13.9674 20.474 14.5217 21.2736 13.6227 20.9012C12.7236 20.5287 13.6811 20.3553 13.1629 19.8371C12.6447 19.3188 12.4713 20.2765 12.099 19.3775C11.7266 18.4784 12.5262 19.033 12.5262 18.3C12.5262 17.5671 11.7264 18.1217 12.099 17.2226C12.4716 16.3235 12.6447 17.281 13.1629 16.7628C13.6811 16.2447 12.7237 16.0713 13.6227 15.6989C14.5216 15.3265 13.9671 16.1261 14.7001 16.1261C15.4331 16.1261 14.8783 15.3265 15.7776 15.6989C16.6768 16.0713 15.7188 16.2446 16.2371 16.7628C16.7553 17.2811 16.9286 16.3236 17.3012 17.2226C17.6738 18.1215 16.8738 17.5671 16.8738 18.3C16.8738 19.033 17.6736 18.4784 17.3012 19.3775Z" fill="currentColor"/>
</svg>
