<svg width="24" height="24" viewBox="0 0 24 24" fill="currentColor" xmlns="http://www.w3.org/2000/svg">
<path fill-rule="evenodd" clip-rule="evenodd" d="M11.35 3.58622C11.4112 3.58622 11.472 3.59212 11.5326 3.60082C11.5798 3.59128 11.6273 3.58642 11.675 3.58622H11.35ZM19.2772 6.84438C18.2529 4.45313 15.9014 2.90298 13.3 2.90406H10.7C8.97599 2.90208 7.32197 3.58587 6.10264 4.80467C4.88331 6.02346 4.19879 7.67718 4.20001 9.4012V19.1147C4.20938 19.1156 4.21881 19.1162 4.22817 19.1171C4.40485 20.2568 5.38663 21.0973 6.54002 21.0961C6.61901 21.0961 6.69701 21.0922 6.77402 21.0845V18.8574C9.49536 18.0152 11.3506 15.4984 11.35 12.6498V10.0509H19.1511C19.5077 10.0519 19.7979 9.76432 19.8 9.40777V9.4012C19.8011 8.52227 19.6233 7.65232 19.2772 6.84438ZM16.6152 9.4012H11.675C11.5664 9.4012 11.4579 9.39512 11.35 9.38315C9.86973 9.21829 8.74999 7.96693 8.74999 6.47748C8.74999 4.98803 9.86973 3.73667 11.35 3.57181C11.4104 3.56514 11.4712 3.56029 11.5326 3.55727C11.6028 3.55446 11.675 3.55377 11.675 3.55377H13.3C14.6 3.55377 15.3516 3.81201 16.1331 4.26316C17.1891 4.87276 18.172 5.83485 18.7138 6.98845C17.6401 7.36988 16.8441 8.28503 16.6152 9.4012ZM11.3501 4.8532C10.6326 4.8535 10.0511 5.43541 10.0513 6.153C10.0515 6.87058 10.6333 7.45216 11.3509 7.45206C12.0685 7.45196 12.6501 6.87021 12.6501 6.15263C12.6501 5.8079 12.513 5.47733 12.2692 5.23363C12.0254 4.98994 11.6949 4.85309 11.3501 4.8532ZM11.0251 6.15263C10.8457 6.15255 10.7004 6.00707 10.7004 5.82767C10.7005 5.64827 10.8459 5.50287 11.0253 5.5029C11.2047 5.50293 11.3501 5.64837 11.3501 5.82777C11.3501 5.91396 11.3159 5.99662 11.2549 6.05755C11.1939 6.11848 11.1113 6.15268 11.0251 6.15263Z" fill="currentColor"/>
</svg>
