<svg width="24" height="24" viewBox="0 0 24 24" fill="currentColor" xmlns="http://www.w3.org/2000/svg">
<path fill-rule="evenodd" clip-rule="evenodd" d="M13.8 18C13.8 18.3314 13.5314 18.6 13.2 18.6H10.8C10.4686 18.6 10.2 18.3314 10.2 18H1.79999V19.2C1.79999 19.5314 2.06862 19.8 2.39999 19.8H21.6C21.9314 19.8 22.2 19.5314 22.2 19.2V18H13.8ZM21 5.99999C21 5.33725 20.4627 4.79999 19.8 4.79999H4.19999C3.53725 4.79999 2.99999 5.33725 2.99999 5.99999V15.576C2.99999 15.584 3.00044 15.592 3.00059 15.6L2.99999 17.4H21V15.6C21.0001 15.592 21 15.584 21 15.576V5.99999ZM4.19999 5.99999V16.2H19.8V5.99999H4.19999ZM14.8983 11.088C14.8983 10.1108 15.9647 10.8501 15.4682 9.6514C14.9718 8.45267 14.7403 9.72923 14.0493 9.03841C13.3584 8.3476 14.6353 8.11633 13.4366 7.61975C12.2379 7.12316 12.977 8.18948 12 8.18948C11.023 8.18948 11.7621 7.12331 10.5634 7.61977C9.36469 8.11624 10.6416 8.3474 9.95039 9.03839C9.25919 9.72937 9.0284 8.45279 8.53199 9.65142C8.03557 10.8501 9.10168 10.1108 9.10168 11.088C9.10168 12.0652 8.03519 11.3258 8.53199 12.5246C9.02879 13.7234 9.2596 12.4467 9.9506 13.1374C10.6416 13.8281 9.36486 14.0596 10.5636 14.5561C11.7623 15.0526 11.0228 13.9865 12 13.9865C12.9772 13.9865 12.2376 15.0527 13.4366 14.5561C14.6355 14.0595 13.3584 13.8283 14.0493 13.1374C14.7403 12.4464 14.9714 13.7234 15.4682 12.5246C15.965 11.3259 14.8983 12.0653 14.8983 11.088ZM12 12.84C11.039 12.84 10.26 12.061 10.26 11.1C10.26 10.139 11.039 9.35999 12 9.35999C12.961 9.35999 13.74 10.139 13.74 11.1C13.74 11.5615 13.5567 12.0041 13.2304 12.3304C12.9041 12.6567 12.4615 12.84 12 12.84Z" fill="currentColor"/>
</svg>
