<svg width="24" height="24" viewBox="0 0 24 24" fill="currentColor" xmlns="http://www.w3.org/2000/svg">
<path fill-rule="evenodd" clip-rule="evenodd" d="M21.5945 6.58936H20.845C20.8445 6.58936 20.8441 6.58963 20.8439 6.59006C20.7963 6.69562 20.7378 6.79596 20.6695 6.88948C20.5889 6.99961 20.4954 7.09966 20.3909 7.18752C20.3905 7.18782 20.3903 7.18836 20.3905 7.18884C20.3907 7.18932 20.3911 7.18964 20.3917 7.18963H21.5944C21.5942 7.1894 21.5947 7.18962 21.5944 7.18963C21.5947 7.18985 21.5956 7.1905 21.5956 7.19083V17.3929C21.5959 17.3927 21.5956 17.3932 21.5956 17.3929C21.5954 17.3931 21.5947 17.3941 21.5944 17.3941H5.39682C5.39705 17.3943 5.3965 17.3941 5.39682 17.3941C5.39659 17.3939 5.3956 17.3932 5.3956 17.3929V7.19083C5.39537 7.19105 5.3956 7.1905 5.3956 7.19083C5.39583 7.1906 5.3965 7.18962 5.39682 7.18963H14.244C14.2445 7.18963 14.2449 7.18931 14.2451 7.18883C14.284 7.08445 14.3331 6.98417 14.3918 6.88948C14.4585 6.78143 14.5375 6.68141 14.6271 6.59138C14.6274 6.59104 14.6275 6.59053 14.6274 6.59009C14.6272 6.58964 14.6267 6.58936 14.6263 6.58936H5.39692C5.39625 6.58936 5.39572 6.58883 5.39572 6.58816C5.39415 5.60737 4.60868 4.80783 3.62807 4.78886C2.61752 4.77093 1.79572 5.60301 1.79572 6.61413V17.3941C1.79572 17.4045 1.79632 17.4147 1.79651 17.4251C1.81399 18.3945 2.5954 19.1762 3.56478 19.1941C3.57512 19.1943 3.58535 19.1949 3.59572 19.1949H20.3945C20.554 19.1949 20.7069 19.1315 20.8197 19.0187C20.9324 18.9059 20.9957 18.7529 20.9957 18.5934V17.9956C20.9957 17.9949 20.9963 17.9944 20.9969 17.9944H21.5945C21.9266 17.9943 22.1957 17.725 22.1957 17.3929V7.19083C22.1957 7.03134 22.1324 6.87837 22.0197 6.76558C21.9069 6.65278 21.754 6.58939 21.5945 6.58936ZM20.3957 18.5934C20.3961 18.5932 20.3957 18.5938 20.3957 18.5934C20.3955 18.5937 20.3948 18.5946 20.3945 18.5946H3.59572C3.05129 18.5955 2.57419 18.2305 2.43256 17.7048C2.29093 17.1792 2.5201 16.6239 2.99127 16.3511C3.46244 16.0784 4.05808 16.1562 4.44341 16.5408C4.82875 16.9254 4.90766 17.5208 4.6358 17.9925C4.63559 17.9929 4.63558 17.9934 4.6358 17.9937C4.63601 17.9941 4.63641 17.9943 4.63684 17.9943H20.3945C20.3943 17.9941 20.3948 17.9943 20.3945 17.9943C20.3948 17.9945 20.3957 17.9952 20.3957 17.9955V18.5934ZM3.61506 5.38898C4.27369 5.39937 4.79572 5.9513 4.79572 6.61029V16.0507C4.79572 16.0511 4.79543 16.0516 4.795 16.0519C4.79458 16.0519 4.79408 16.0519 4.79372 16.0516C4.11189 15.4406 3.07954 15.4406 2.39771 16.0516C2.39736 16.0519 2.39685 16.0519 2.39643 16.0519C2.396 16.0516 2.39572 16.0511 2.39572 16.0507V6.58936C2.39564 6.26768 2.5247 5.95943 2.75394 5.73375C2.98318 5.50808 3.29342 5.38386 3.61506 5.38898ZM15.2573 7.63187L15.6996 7.18963L15.9997 6.88948L16.1629 6.72643L16.3 6.58936L17.3342 5.55525C17.5443 5.34545 17.8848 5.34575 18.0946 5.55592L18.1118 5.57313L17.0955 6.58936L16.9585 6.72643L16.7954 6.88948L16.4953 7.18963L16.2529 7.43203L16.4527 7.63185L17.7751 8.95425L19.0922 7.63718L19.5398 7.18963L19.7754 6.95404L19.8399 6.88948L19.9848 6.74467C20.228 6.54902 20.3767 6.25936 20.3941 5.94771C20.4114 5.63605 20.2957 5.33168 20.0757 5.11027C19.8744 4.90623 19.6002 4.79055 19.3136 4.78869C19.027 4.78686 18.7514 4.899 18.5475 5.10043C18.5442 5.10369 18.5409 5.10695 18.5377 5.11027C18.5263 5.12176 18.5154 5.13364 18.5046 5.14555L18.4744 5.11533C18.0547 4.69499 17.3738 4.6944 16.9534 5.11401L15.4779 6.58948L15.3408 6.72657L15.1777 6.8896L15.0539 7.01342C14.8868 7.1803 14.7796 7.3978 14.749 7.63199C14.7285 7.78881 14.7426 7.9482 14.7904 8.09896L15.2573 7.63187ZM7.39732 14.775C7.4216 14.9013 7.53196 14.9928 7.66052 14.9931C7.67765 14.9931 7.69473 14.9915 7.71155 14.9883C7.96537 14.9393 8.21826 14.8041 8.45022 14.5964C8.50353 14.6226 8.55857 14.6451 8.61493 14.6639C8.63975 14.6726 8.66312 14.6809 8.68453 14.6894C8.69568 14.6939 8.70711 14.6976 8.71876 14.7005C8.81445 14.7243 8.9127 14.7363 9.01132 14.7363H9.01312C9.31117 14.7363 9.61729 14.6304 9.88559 14.4293C9.89048 14.4256 9.89528 14.4217 9.89999 14.4177C9.91383 14.4057 9.92681 14.3938 9.93894 14.3819C10.0768 14.4584 10.2575 14.5475 10.3887 14.5475C10.3916 14.5475 10.3945 14.5475 10.3973 14.5473C10.5895 14.5442 10.8182 14.5026 10.9356 14.4439C11.0666 14.3777 11.1202 14.2187 11.056 14.0868C10.9919 13.9548 10.8337 13.8988 10.7008 13.961C10.6917 13.9634 10.5153 14.0107 10.4198 14.0107H10.4131C10.4125 14.0105 10.4551 13.9888 10.4545 13.9887C10.9727 13.5369 11.0508 13.0663 10.9793 12.7451C10.9234 12.494 10.7472 12.3211 10.5193 12.2939C10.5161 12.2935 10.513 12.2932 10.5097 12.2929C10.4825 12.2906 10.4556 12.2895 10.429 12.2895H10.4254C10.1925 12.2895 9.96916 12.3824 9.80497 12.5476C9.53617 12.8104 9.39868 13.236 9.42791 13.7154C9.43537 13.8256 9.46774 13.9327 9.52259 14.0287C9.35939 14.1404 9.18193 14.1992 9.01379 14.1992H9.01252C8.96281 14.1992 8.91326 14.1938 8.86475 14.1829C8.85181 14.178 8.83904 14.1733 8.82654 14.1688C9.09092 13.7935 9.27155 13.3432 9.31134 12.9583C9.35992 12.4881 9.19672 12.1385 8.86494 11.9998C8.77272 11.9598 8.67335 11.9388 8.57281 11.9381C8.32146 11.9381 8.08578 12.0764 7.91922 12.3341C7.91389 12.3424 7.90901 12.3509 7.9046 12.3597C7.70029 12.7681 7.63657 13.1395 7.70984 13.4951C7.71121 13.5018 7.71287 13.5085 7.71464 13.515C7.78424 13.7574 7.9268 14.006 8.0751 14.2099C7.92805 14.3389 7.7692 14.4301 7.61039 14.4607C7.54045 14.4741 7.47871 14.5148 7.43875 14.5737C7.39879 14.6327 7.38389 14.7051 7.39732 14.775ZM10.1806 12.9316C10.2454 12.8645 10.3347 12.8266 10.428 12.8266H10.4302C10.4344 12.8266 10.4386 12.8266 10.4428 12.8267C10.4525 12.8451 10.4679 12.8933 10.4574 12.977C10.4459 13.0688 10.3764 13.3641 9.96416 13.6823C9.94518 13.3684 10.028 13.0807 10.1806 12.9316ZM8.3782 12.614C8.45348 12.5025 8.522 12.4749 8.57488 12.4749C8.60302 12.4758 8.63067 12.4825 8.65604 12.4947C8.79196 12.5515 8.78999 12.7751 8.77674 12.9033C8.74806 13.1808 8.61925 13.5049 8.43546 13.7863C8.35025 13.6595 8.28249 13.5218 8.234 13.3769C8.19008 13.1502 8.23732 12.9004 8.3782 12.614ZM11.2192 13.8151L12.6547 12.3797C12.6144 12.2773 12.6456 12.1606 12.7316 12.0919C12.8176 12.0232 12.9384 12.0187 13.0293 12.0806C13.1203 12.1426 13.1603 12.2566 13.1279 12.3618C13.0955 12.4669 12.9983 12.5387 12.8882 12.5387C12.8569 12.5387 12.8257 12.5329 12.7966 12.5215L11.3611 13.957L11.474 14.0699C11.9908 13.6241 12.5854 13.3848 13.0964 13.3848H13.1055C13.231 13.3848 13.356 13.4015 13.477 13.4345L14.486 11.7545L13.9851 11.2536L13.422 10.6904L12.4842 11.2536L11.7418 11.6994C11.9023 12.2746 11.6688 13.0503 11.1062 13.7022L11.2192 13.8151ZM14.3976 9.59068L13.8018 10.309L14.7464 11.2535L14.8675 11.3746L15.0174 11.2535L17.0774 9.59068L17.2607 9.44265L17.3945 9.33465L17.3503 9.29049L17.0502 8.99049L15.8722 7.81255L14.8954 8.99049L14.6465 9.29049L14.5204 9.44263L14.3976 9.59068ZM19.0261 12.6102C19.4127 12.6102 19.6005 12.7357 19.7433 13.0814C19.7949 13.2067 19.898 13.2801 20.0261 13.2801C20.0724 13.2787 20.1182 13.2708 20.1623 13.2566L20.1675 13.2554L20.1723 13.2535C20.3048 13.1981 20.3808 13.0932 20.3808 12.9655C20.3816 12.9133 20.3703 12.8615 20.3477 12.8143C20.1237 12.2608 19.6914 11.9917 19.026 11.9917C18.6197 11.9917 18.2614 12.1237 17.9901 12.3855C17.7371 12.6293 17.5595 13.0143 17.4738 13.4016H17.233C17.0689 13.4016 16.9669 13.5301 16.9669 13.6922C16.9669 13.8542 17.0689 13.9828 17.233 13.9828H17.4144C17.412 14.0312 17.4105 14.065 17.4105 14.1108C17.4105 14.142 17.4105 14.2249 17.4111 14.2734H17.233C17.0664 14.2734 16.9669 14.3994 16.9669 14.564C16.9669 14.726 17.0689 14.8546 17.233 14.8546H17.4571C17.5324 15.242 17.6986 15.5518 17.9516 15.7998C18.2244 16.0672 18.5859 16.1935 19.0261 16.1935C19.7149 16.1935 20.1285 15.9375 20.367 15.374C20.3864 15.3343 20.3963 15.2905 20.3958 15.2463C20.3958 15.1153 20.2915 14.9901 20.1475 14.9507C20.1115 14.9389 20.0739 14.9327 20.036 14.9321C19.9032 14.9321 19.7976 15.0078 19.7389 15.145L19.7384 15.1462L19.7379 15.1474C19.615 15.4557 19.4355 15.5784 19.0261 15.5784C18.5523 15.5784 18.2259 15.3874 18.0977 14.8546H19.2773C19.439 14.8546 19.5434 14.7236 19.5434 14.564C19.5434 14.397 19.4465 14.2734 19.2773 14.2734H18.0314C18.0307 14.225 18.0307 14.1406 18.0307 14.1108C18.0307 14.0617 18.0324 14.0312 18.0348 13.9828H19.5336C19.6978 13.9828 19.7998 13.8524 19.7998 13.6872C19.7998 13.5259 19.7003 13.4016 19.5336 13.4016H18.1167C18.2593 12.8689 18.5789 12.6102 19.0261 12.6102ZM7.19572 16.1936H15.5957V15.5933H7.19572V16.1936Z" fill="currentColor"/>
</svg>
