<svg width="24" height="24" viewBox="0 0 24 24" fill="currentColor" xmlns="http://www.w3.org/2000/svg">
<path fill-rule="evenodd" clip-rule="evenodd" d="M12.7076 4.46146H11.6858C11.2883 4.4605 10.9661 4.13867 10.9648 3.74113V2.72034C10.9661 2.3228 11.2883 2.00097 11.6858 2H12.7076C13.1051 2.00097 13.4272 2.3228 13.4286 2.72034V3.74113C13.4273 4.13867 13.1051 4.4605 12.7076 4.46146ZM21.679 13.4567H20.6572C20.2597 13.4557 19.9375 13.1339 19.9362 12.7363V11.7154C19.9376 11.3179 20.2597 10.9962 20.6572 10.9952H21.679C22.0765 10.9962 22.3986 11.3179 22.4 11.7154V12.7362C22.3986 13.1338 22.0765 13.4557 21.679 13.4567ZM3.74281 13.4567H2.72101C2.32344 13.4557 2.00129 13.1338 2 12.7362V11.7154C2.00142 11.3179 2.32352 10.9962 2.72101 10.9952H3.74281C4.14034 10.9962 4.46246 11.318 4.46382 11.7155V12.7364C4.4624 13.1338 4.1403 13.4557 3.74281 13.4567ZM12.7076 22.4H11.6858C11.2883 22.399 10.9661 22.0772 10.9648 21.6797V20.6589C10.9661 20.2613 11.2883 19.9395 11.6858 19.9385H12.7076C13.1051 19.9395 13.4273 20.2613 13.4286 20.6589V21.6797C13.4273 22.0772 13.1051 22.399 12.7076 22.4ZM18.0361 7.08661L17.3137 6.36478C17.0333 6.08311 17.0333 5.62775 17.3137 5.34608L18.0361 4.62426C18.3183 4.3441 18.7736 4.3441 19.0558 4.62426L19.7783 5.34608C20.0588 5.62775 20.0588 6.08311 19.7783 6.36478L19.0558 7.08661C18.7736 7.36674 18.3183 7.36674 18.0361 7.08661ZM17.8264 19.9714L17.104 19.2496C16.8236 18.9679 16.8236 18.5126 17.104 18.2309L17.8264 17.5091C18.1086 17.2289 18.5639 17.2289 18.8461 17.5091L19.5685 18.2309C19.8489 18.5126 19.8489 18.9679 19.5685 19.2496L18.8461 19.9714C18.5639 20.2516 18.1086 20.2516 17.8264 19.9714ZM5.14362 7.30078L4.42122 6.57898C4.14081 6.2973 4.14081 5.84194 4.42122 5.56026L5.14362 4.83846C5.42578 4.5583 5.88114 4.5583 6.1633 4.83846L6.88582 5.56026C7.16623 5.84194 7.16623 6.2973 6.88582 6.57898L6.1633 7.30078C5.88114 7.58094 5.42578 7.58094 5.14362 7.30078ZM5.3395 19.7712L4.6171 19.0494C4.33668 18.7677 4.33668 18.3123 4.6171 18.0307L5.3395 17.3088C5.62168 17.0287 6.07701 17.0287 6.35919 17.3088L7.08159 18.0307C7.36201 18.3123 7.36201 18.7677 7.08159 19.0494L6.35919 19.7712C6.07699 20.0513 5.62164 20.0514 5.3395 19.7712ZM15.0422 6.2H9.35773C8.96683 6.19894 8.64907 6.51496 8.648 6.90586V17.4941C8.64909 17.885 8.96683 18.201 9.35773 18.2H15.0422C15.23 18.2005 15.4102 18.1264 15.5433 17.9941C15.6764 17.8617 15.7515 17.6819 15.752 17.4941V6.90586C15.7515 6.71814 15.6764 6.53831 15.5433 6.40593C15.4102 6.27355 15.23 6.19948 15.0422 6.2ZM12.7358 6.55294H11.6713C11.5738 6.55294 11.4948 6.63195 11.4948 6.72942C11.4948 6.82688 11.5738 6.90589 11.6713 6.90589H12.7358C12.8333 6.90589 12.9123 6.82687 12.9123 6.7294C12.9123 6.63194 12.8333 6.55294 12.7358 6.55294ZM12.2035 17.1412C12.0089 17.1422 11.8518 17.3007 11.8525 17.4954C11.8532 17.6901 12.0114 17.8474 12.2061 17.8471C12.4007 17.8467 12.5584 17.6888 12.5584 17.4941C12.5578 17.2987 12.399 17.1407 12.2035 17.1412ZM9.36481 7.25878V16.7882H15.0422V7.25878H9.36481Z" fill="currentColor"/>
</svg>
