<svg width="24" height="24" viewBox="0 0 24 24" fill="currentColor" xmlns="http://www.w3.org/2000/svg">
<path fill-rule="evenodd" clip-rule="evenodd" d="M19.8 11.064H18L14.418 5.09397C14.2084 4.71823 13.7808 4.464 13.32 4.464H4.2C3.53726 4.464 3 5.00126 3 5.664V16.824C3.03497 18.2897 4.23392 19.4596 5.7 19.4596C7.16608 19.4596 8.36427 18.2897 8.39923 16.824H13.2007C13.2352 18.2901 14.4335 19.4606 15.9 19.4606C17.3665 19.4606 18.5648 18.2901 18.5993 16.824H21V12.264C21 11.6013 20.4627 11.064 19.8 11.064ZM11.5232 11.0026L9.3 14.664H9.2987L7.06826 11.0026C6.79776 10.4992 6.6 10.1251 6.6 9.564C6.59897 8.8476 6.88311 8.16025 7.38968 7.65367C7.89625 7.1471 8.5836 6.86297 9.3 6.86399C10.7784 6.86399 12 8.08061 12 9.564C12 10.1249 11.7938 10.4992 11.5232 11.0026ZM10.32 9.684C10.32 10.2473 9.86333 10.704 9.3 10.704C8.73667 10.704 8.28 10.2473 8.28 9.684C8.28 9.12067 8.73667 8.664 9.3 8.664C9.86333 8.664 10.32 9.12067 10.32 9.684Z" fill="currentColor"/>
</svg>
