<svg width="24" height="24" viewBox="0 0 24 24" fill="currentColor" xmlns="http://www.w3.org/2000/svg">
<path fill-rule="evenodd" clip-rule="evenodd" d="M16.488 5.39999H7.48796C6.82522 5.39999 6.28796 5.93725 6.28796 6.59999V12L7.48796 13.2V21C7.48796 21.6627 8.02522 22.2 8.68796 22.2H15.288C15.9507 22.2 16.488 21.6627 16.488 21V13.2L17.688 12V6.59999C17.688 5.93725 17.1507 5.39999 16.488 5.39999ZM10.488 20.1C10.488 20.2657 10.3536 20.4 10.188 20.4H8.98796C8.82228 20.4 8.68796 20.2657 8.68796 20.1V19.5C8.68796 19.3343 8.82228 19.2 8.98796 19.2H10.188C10.3536 19.2 10.488 19.3343 10.488 19.5V20.1ZM10.488 18.3C10.488 18.4657 10.3536 18.6 10.188 18.6H8.98796C8.82228 18.6 8.68796 18.4657 8.68796 18.3V17.7C8.68796 17.5343 8.82228 17.4 8.98796 17.4H10.188C10.3536 17.4 10.488 17.5343 10.488 17.7V18.3ZM10.488 16.5C10.488 16.6657 10.3536 16.8 10.188 16.8H8.98796C8.82228 16.8 8.68796 16.6657 8.68796 16.5V15.9C8.68796 15.7343 8.82228 15.6 8.98796 15.6H10.188C10.3536 15.6 10.488 15.7343 10.488 15.9V16.5ZM10.488 14.7C10.488 14.8657 10.3536 15 10.188 15H8.98796C8.82228 15 8.68796 14.8657 8.68796 14.7V14.1C8.68796 13.9343 8.82228 13.8 8.98796 13.8H10.188C10.3536 13.8 10.488 13.9343 10.488 14.1V14.7ZM12.888 20.1C12.888 20.2657 12.7536 20.4 12.588 20.4H11.388C11.2223 20.4 11.088 20.2657 11.088 20.1V19.5C11.088 19.3343 11.2223 19.2 11.388 19.2H12.588C12.7536 19.2 12.888 19.3343 12.888 19.5V20.1ZM12.888 18.3C12.888 18.4657 12.7536 18.6 12.588 18.6H11.388C11.2223 18.6 11.088 18.4657 11.088 18.3V17.7C11.088 17.5343 11.2223 17.4 11.388 17.4H12.588C12.7536 17.4 12.888 17.5343 12.888 17.7V18.3ZM12.888 16.5C12.888 16.6657 12.7536 16.8 12.588 16.8H11.388C11.2223 16.8 11.088 16.6657 11.088 16.5V15.9C11.088 15.7343 11.2223 15.6 11.388 15.6H12.588C12.7536 15.6 12.888 15.7343 12.888 15.9V16.5ZM12.888 14.7C12.888 14.8657 12.7536 15 12.588 15H11.388C11.2223 15 11.088 14.8657 11.088 14.7V14.1C11.088 13.9343 11.2223 13.8 11.388 13.8H12.588C12.7536 13.8 12.888 13.9343 12.888 14.1V14.7ZM15.288 20.1C15.288 20.2657 15.1536 20.4 14.988 20.4H13.788C13.6223 20.4 13.488 20.2657 13.488 20.1V19.5C13.488 19.3343 13.6223 19.2 13.788 19.2H14.988C15.1536 19.2 15.288 19.3343 15.288 19.5V20.1ZM15.288 18.3C15.288 18.4657 15.1536 18.6 14.988 18.6H13.788C13.6223 18.6 13.488 18.4657 13.488 18.3V17.7C13.488 17.5343 13.6223 17.4 13.788 17.4H14.988C15.1536 17.4 15.288 17.5343 15.288 17.7V18.3ZM15.288 16.5C15.288 16.6657 15.1536 16.8 14.988 16.8H13.788C13.6223 16.8 13.488 16.6657 13.488 16.5V15.9C13.488 15.7343 13.6223 15.6 13.788 15.6H14.988C15.1536 15.6 15.288 15.7343 15.288 15.9V16.5ZM15.288 14.7C15.288 14.8657 15.1536 15 14.988 15H13.788C13.6223 15 13.488 14.8657 13.488 14.7V14.1C13.488 13.9343 13.6223 13.8 13.788 13.8H14.988C15.1536 13.8 15.288 13.9343 15.288 14.1V14.7ZM15.888 11.4H8.08796V7.19999H15.888V11.4ZM8.68796 2.69999C8.68796 2.5343 8.82228 2.39999 8.98796 2.39999H9.88796V4.79999H11.088V2.39999H14.988C15.1536 2.39999 15.288 2.5343 15.288 2.69999V4.79999H15.888V2.39999C15.888 2.06862 15.6193 1.79999 15.288 1.79999H8.68796C8.35659 1.79999 8.08796 2.06862 8.08796 2.39999V4.79999H8.68796V2.69999ZM12.888 3.59999V4.79999H14.088V3.59999C14.088 3.26862 13.8193 2.99999 13.488 2.99999C13.1566 2.99999 12.888 3.26862 12.888 3.59999Z" fill="currentColor"/>
</svg>
