<svg width="24" height="24" viewBox="0 0 24 24" fill="currentColor" xmlns="http://www.w3.org/2000/svg">
<path fill-rule="evenodd" clip-rule="evenodd" d="M21.0288 5.71954L19.803 4.49295L18.2707 2.95974C17.8409 2.529 17.2344 2.32407 16.6315 2.40586C16.6144 2.40814 16.5974 2.41066 16.5803 2.41354C16.5244 2.42254 16.4687 2.43378 16.4136 2.44767C16.358 2.46166 16.3029 2.47791 16.2485 2.49685L16.2463 2.49757C15.97 2.59433 15.7191 2.75233 15.5125 2.95974L4.47994 13.999L3.19531 18.2331L2.87724 19.2814L2.42882 20.7596C2.42438 20.7742 2.42057 20.7889 2.41718 20.8034C2.4161 20.808 2.41531 20.8126 2.41433 20.8172C2.41224 20.8272 2.41025 20.8371 2.40862 20.847C2.40773 20.8525 2.40703 20.8579 2.40622 20.8634C2.40497 20.8724 2.40382 20.8815 2.40298 20.8905C2.40245 20.8961 2.40202 20.9017 2.40161 20.9073C2.40101 20.9162 2.40058 20.925 2.40034 20.9337C2.40002 20.9392 2.40002 20.9447 2.40002 20.9502C2.40002 20.9593 2.40026 20.9682 2.40062 20.9772C2.40082 20.9822 2.40094 20.9873 2.40127 20.9924C2.40192 21.0026 2.40293 21.0127 2.40406 21.0228C2.40449 21.0264 2.40473 21.0301 2.40521 21.0337C2.40698 21.0474 2.40919 21.0609 2.41183 21.0743C2.41234 21.0769 2.41303 21.0795 2.41356 21.0821C2.41584 21.0928 2.41836 21.1035 2.42107 21.1141C2.4223 21.1187 2.42371 21.1232 2.42503 21.1277C2.42743 21.1362 2.43 21.1446 2.43278 21.153C2.43446 21.158 2.43626 21.1629 2.43804 21.1678C2.44087 21.1756 2.4438 21.1834 2.44692 21.191C2.44894 21.196 2.45102 21.2009 2.45314 21.2059C2.45645 21.2134 2.4599 21.2209 2.46348 21.2283C2.46576 21.2331 2.46799 21.2377 2.47039 21.2424C2.47433 21.2501 2.47853 21.2577 2.48278 21.2652C2.48506 21.2693 2.48729 21.2735 2.48966 21.2775C2.49511 21.2867 2.50087 21.2958 2.50678 21.3047C2.50819 21.3069 2.50951 21.3091 2.51098 21.3113C2.5184 21.3222 2.52615 21.333 2.53423 21.3434C2.53663 21.3465 2.53903 21.3494 2.54143 21.3524C2.54734 21.3598 2.55326 21.3671 2.55948 21.3743C2.56272 21.378 2.56613 21.3816 2.56944 21.3853C2.57506 21.3915 2.58072 21.3976 2.58655 21.4035C2.59027 21.4073 2.59406 21.411 2.59788 21.4148C2.60366 21.4204 2.60954 21.4259 2.61554 21.4313C2.6195 21.4349 2.62346 21.4385 2.62754 21.4419C2.63376 21.4473 2.64012 21.4525 2.64655 21.4577C2.65056 21.4608 2.6545 21.464 2.65855 21.4671C2.66575 21.4726 2.67295 21.4778 2.68044 21.483C2.68397 21.4854 2.6874 21.488 2.69095 21.4904C2.70197 21.4978 2.71318 21.5049 2.72467 21.5116L2.72623 21.5125C2.73722 21.5189 2.74842 21.525 2.75983 21.5307C2.76372 21.5327 2.76773 21.5345 2.77169 21.5364C2.77978 21.5403 2.78794 21.5441 2.79622 21.5477C2.80102 21.5497 2.8057 21.5516 2.81042 21.5535C2.8182 21.5566 2.82602 21.5596 2.83392 21.5625C2.83894 21.5643 2.84398 21.566 2.84906 21.5677C2.85695 21.5702 2.86491 21.5727 2.87294 21.575C2.87803 21.5765 2.88312 21.5779 2.88826 21.5792C2.8967 21.5815 2.9052 21.5834 2.91374 21.5852C2.91854 21.5863 2.92334 21.5874 2.92814 21.5883C2.9381 21.5902 2.94818 21.5918 2.95829 21.5933C2.96182 21.5938 2.96527 21.5944 2.9688 21.5949C2.9825 21.5966 2.9963 21.5978 3.01022 21.5987C3.01303 21.5989 3.01589 21.5988 3.0187 21.599C3.0283 21.5994 3.0379 21.5998 3.04769 21.5998H3.05174C3.06034 21.5998 3.069 21.5991 3.07766 21.5987C3.08446 21.5984 3.09122 21.5983 3.09806 21.5978C3.10711 21.597 3.11626 21.5958 3.12535 21.5947C3.13188 21.5939 3.13836 21.5934 3.14489 21.5923C3.15499 21.5908 3.16517 21.5886 3.17534 21.5866C3.18094 21.5855 3.18653 21.5846 3.19214 21.5834C3.20755 21.5799 3.22299 21.5758 3.23846 21.5711L3.23969 21.5708L3.75852 21.4132L5.76461 20.8038L9.99622 19.5184L16.3005 13.2103L21.0288 8.47935C21.2999 8.20879 21.485 7.86411 21.5607 7.48866C21.5629 7.47795 21.565 7.46725 21.567 7.45654C21.5768 7.40384 21.5844 7.35088 21.5898 7.29766C21.5904 7.29171 21.591 7.28566 21.5916 7.27981C21.5971 7.22061 21.6 7.16123 21.6 7.10168V7.09945C21.6007 6.58182 21.3952 6.08524 21.0288 5.71954ZM8.61715 18.1387L9.51521 19.0373L5.28358 20.3227L3.67632 18.7144L4.96097 14.4803L5.85902 15.3788L16.8916 4.33964L17.3513 4.7996L6.3187 15.8388L8.15746 17.6787L19.19 6.63946L19.6497 7.09945L8.61715 18.1387Z" fill="currentColor"/>
</svg>
