<svg width="24" height="24" viewBox="0 0 24 24" fill="currentColor" xmlns="http://www.w3.org/2000/svg">
<path fill-rule="evenodd" clip-rule="evenodd" d="M18.6048 13.6297C18.5998 13.6353 18.5019 13.7438 18.5019 13.7438L16.3182 16.1292L15.0688 17.5092C14.4245 18.2215 13.4308 18.5045 12.508 18.2386C11.5852 17.9727 10.8944 17.2043 10.728 16.2584C10.7169 16.2309 10.7099 16.2018 10.7073 16.1722L10.35 12.0562C10.3332 11.5335 10.8671 11.5424 10.9499 12.0297L11.1525 14.3642L11.1975 14.8818L11.2888 15.9338L11.2927 15.9309C11.3365 16.7016 11.839 17.3707 12.567 17.6276C13.295 17.8845 14.1061 17.679 14.6239 17.1064L16.3182 15.2352L18.1212 13.2438C18.1778 13.1811 18.2302 13.1147 18.278 13.0451C18.3793 12.8985 18.4594 12.7382 18.5158 12.5691C18.5915 12.3418 18.6241 12.1024 18.612 11.8632C18.5644 10.8434 17.7231 10.0415 16.7022 10.0427C16.6431 10.0427 16.584 10.0458 16.5251 10.0513C16.0474 10.0948 15.6034 10.3163 15.2813 10.6718L14.272 11.7864L14.4462 12.5693L14.6646 13.5512C14.6979 13.7117 14.5961 13.8693 14.4361 13.9049C14.276 13.9405 14.117 13.841 14.079 13.6815L13.8317 12.5692L13.7787 12.3312L13.708 12.0133C13.7109 12.008 13.7139 12.0028 13.7168 11.9975C13.7357 11.9629 13.7537 11.9279 13.7713 11.8924C13.825 11.7841 13.8727 11.6729 13.9142 11.5593C13.9497 11.4622 13.9808 11.3633 14.0074 11.2625C14.0168 11.227 14.0257 11.1913 14.0339 11.1554C14.0517 11.0782 14.0669 11.0002 14.0795 10.9215C14.1089 10.7374 14.1237 10.5512 14.1237 10.3647V9.8816C14.2293 9.8218 14.332 9.7578 14.4319 9.6896C15.6128 8.88534 16.3191 7.54874 16.3182 6.11999C16.3182 3.73415 14.3843 1.79999 11.9989 1.79999C9.61343 1.79999 7.67961 3.73415 7.67961 6.11999C7.67826 7.37605 8.22487 8.57022 9.17644 9.39011L9.17563 10.8634C8.83001 10.6572 8.50788 10.4139 8.21493 10.138C6.51705 11.0636 5.44389 12.8266 5.40151 14.76H5.39999V19.8C5.39999 20.4365 5.65271 21.0469 6.10272 21.497C6.55274 21.9471 7.16312 22.2 7.79959 22.2H18.5978L18.6048 13.6297ZM9.77536 11.1732L9.77611 9.82456L9.77721 7.87002C9.78566 7.84804 9.79151 7.82515 9.79463 7.80181C9.92026 6.87296 10.7132 6.18002 11.6505 6.18002C12.5878 6.18002 13.3808 6.87296 13.5064 7.80181C13.5095 7.82509 13.5154 7.84792 13.5238 7.86983V10.3648C13.5238 10.5561 13.5051 10.7469 13.468 10.9345C13.4456 11.0477 13.4163 11.1593 13.3802 11.2688C13.356 11.3424 13.3288 11.4147 13.2986 11.4857C13.2658 11.5625 13.2296 11.6375 13.1899 11.7106C12.9895 12.0788 12.7075 12.243 12.2755 12.243C11.7887 12.243 11.6351 11.9958 11.4406 11.6827C11.4251 11.6578 11.4093 11.6323 11.393 11.6067C11.2687 11.4105 11.1166 11.2002 10.8688 11.0956C10.7714 11.0552 10.6674 11.0328 10.562 11.0296C10.5481 11.029 10.534 11.0286 10.5197 11.0286C10.5142 11.0286 10.5086 11.0286 10.503 11.0288C10.42 11.0297 10.3386 11.0518 10.2664 11.0928C10.1828 11.1421 10.1104 11.2083 10.0537 11.2872C9.93263 11.448 9.84407 11.6658 9.77488 11.8889L9.77536 11.1732ZM12.4217 11.1512C12.256 11.1512 12.1217 11.0168 12.1217 10.8512V8.47633C12.1217 8.31065 12.256 8.17633 12.4217 8.17633C12.5874 8.17633 12.7217 8.31065 12.7217 8.47633V10.8512C12.7217 10.9307 12.6901 11.007 12.6338 11.0633C12.5775 11.1195 12.5012 11.1512 12.4217 11.1512Z" fill="currentColor"/>
</svg>
