<svg width="24" height="24" viewBox="0 0 24 24" fill="currentColor" xmlns="http://www.w3.org/2000/svg">
<path fill-rule="evenodd" clip-rule="evenodd" d="M8.03842 10.4965C8.03822 11.0593 7.58181 11.5154 7.01897 11.5153C6.45612 11.5152 5.99993 11.0588 6 10.496C6.00007 9.93313 6.45636 9.47689 7.01921 9.47689C7.5822 9.47699 8.03851 9.93347 8.03842 10.4965ZM17.4512 9.7958L17.551 8.79716C17.551 5.0432 13.9653 2 10.2127 2H9.66914C8.99789 2.00053 8.33018 2.09722 7.68636 2.28714C7.58053 2.31769 7.49875 2.40195 7.4714 2.50866C7.44404 2.61536 7.47518 2.72858 7.55326 2.80628C9.06792 4.29858 9.98206 6.43868 10.0645 8.83045H10.0703V10.3555C10.0703 10.464 10.0978 10.5708 10.1504 10.6658L11.9235 13.873L11.9506 13.908C12.0702 14.056 12.1283 14.2442 12.1132 14.4338C12.0832 14.8238 11.7474 15.1196 11.3565 15.1196H10.0703V17.3946C10.7513 17.3924 11.4201 17.3349 11.9911 17.0496C12.3509 16.8698 12.7738 17.1357 12.7738 17.5381C12.7739 17.7444 12.6572 17.933 12.4725 18.025C11.7562 18.3811 10.924 18.4791 10.0703 18.4822V19.543C10.0704 20.3652 9.40398 21.0319 8.58175 21.032H7.25722C6.88546 21.032 6.76584 21.5357 7.09946 21.6997C8.02573 22.1556 9.04446 22.3923 10.0768 22.3914C13.8139 22.3914 16.3636 19.2941 16.8715 15.5943L16.8878 15.4317H17.1162C17.6767 15.4317 17.7024 14.6684 17.782 14.2197L18.2849 10.988C18.3709 10.3927 17.9414 9.89833 17.4512 9.7958ZM13.1346 11.516C12.7222 11.5162 12.3503 11.2678 12.1924 10.8869C12.0344 10.5059 12.1216 10.0673 12.4131 9.77558C12.7047 9.4839 13.1433 9.3966 13.5243 9.55439C13.9054 9.71218 14.1538 10.084 14.1538 10.4964C14.1539 10.7668 14.0465 11.0261 13.8554 11.2173C13.6643 11.4085 13.405 11.5159 13.1346 11.516Z" fill="currentColor"/>
</svg>
