<svg width="24" height="24" viewBox="0 0 24 24" fill="currentColor" xmlns="http://www.w3.org/2000/svg">
<path fill-rule="evenodd" clip-rule="evenodd" d="M21 15H14.2803C13.1878 17.137 10.9648 18.6 8.39999 18.6C4.75492 18.6 1.79999 15.6451 1.79999 12C1.79999 8.35492 4.75492 5.39999 8.39999 5.39999C10.9648 5.39999 13.1878 6.86301 14.2803 8.99999H21C21.6627 8.99999 22.2 9.53725 22.2 10.2V13.8C22.2 14.4627 21.6627 15 21 15ZM7.79999 10.2H20.4C20.7314 10.2 21 10.4686 21 10.8V13.2C21 13.5314 20.7314 13.8 20.4 13.8H7.79999C7.46862 13.8 7.19999 13.5314 7.19999 13.2V10.8C7.19999 10.4686 7.46862 10.2 7.79999 10.2ZM20.2241 13.0296C19.9865 13.2571 19.6119 13.2571 19.3743 13.0296L18.5244 12.2058L17.6745 13.0296C17.4369 13.2571 17.0623 13.2571 16.8247 13.0296L15.9748 12.2058L15.1249 13.0296C14.8873 13.2571 14.5127 13.2571 14.275 13.0296L13.4252 12.2058L12.5753 13.0296C12.3377 13.2571 11.9631 13.2571 11.7255 13.0296L10.8756 12.2058L10.0257 13.0296C9.7881 13.2571 9.41344 13.2571 9.17584 13.0296C9.15371 13.0081 9.13329 12.985 9.11476 12.9604C9.09988 12.9472 9.08519 12.9337 9.07091 12.9196L8.01275 11.8614C7.72052 11.5692 7.6736 11.1424 7.90792 10.908C8.14223 10.6737 8.56907 10.7207 8.86127 11.0129L9.6219 11.7735L10.4506 10.9702C10.6882 10.7426 11.0629 10.7426 11.3005 10.9702L12.1504 11.794L13.0002 10.9702C13.2378 10.7426 13.6125 10.7426 13.8501 10.9702L14.7 11.7938L15.5499 10.97C15.7875 10.7425 16.1621 10.7425 16.3997 10.97L17.2496 11.7938L18.0995 10.97C18.3371 10.7425 18.7117 10.7425 18.9493 10.97L20.2241 12.2057C20.3366 12.3133 20.4002 12.4621 20.4002 12.6177C20.4002 12.7732 20.3366 12.9221 20.2241 13.0296Z" fill="currentColor"/>
</svg>
