<svg width="24" height="24" viewBox="0 0 24 24" fill="currentColor" xmlns="http://www.w3.org/2000/svg">
<path fill-rule="evenodd" clip-rule="evenodd" d="M3.4326 11.988C3.42969 10.0971 3.89311 8.23468 4.78183 6.56566C5.03731 6.08607 4.69327 5.50682 4.15041 5.50682C3.88603 5.50667 3.64303 5.65208 3.5182 5.88514C1.48456 9.70596 1.4832 14.2877 3.51456 18.1098C3.63932 18.343 3.88243 18.4886 4.14696 18.4884H4.16073C4.70414 18.4884 5.04818 17.9081 4.7916 17.4285C3.89655 15.755 3.42967 13.8859 3.4326 11.988ZM6.31377 12.0008C6.31068 10.0696 6.956 8.19334 8.14629 6.6726C8.51637 6.19908 8.17951 5.50682 7.579 5.50682C7.35726 5.50682 7.14787 5.6089 7.01131 5.78359C4.16245 9.43565 4.16025 14.5567 7.00598 18.2112C7.14252 18.3862 7.35208 18.4884 7.57401 18.4884C8.17423 18.4884 8.51116 17.7967 8.14168 17.3231C6.95429 15.8034 6.31069 13.9294 6.31377 12.0008ZM22.152 11.988C22.152 15.9711 18.9271 19.2 14.949 19.2C10.971 19.2 7.74609 15.9711 7.74609 11.988C7.74609 8.00491 10.9709 4.776 14.949 4.776C18.9271 4.776 22.152 8.00491 22.152 11.988Z" fill="currentColor"/>
</svg>
