<svg width="24" height="24" viewBox="0 0 24 24" fill="currentColor" xmlns="http://www.w3.org/2000/svg">
<path fill-rule="evenodd" clip-rule="evenodd" d="M21.6 16.2H20.4C20.4 17.8569 19.0569 19.2 17.4 19.2C15.7432 19.2 14.4 17.8569 14.4 16.2H9.00001C9.00001 17.8569 7.65687 19.2 6.00001 19.2C4.34316 19.2 3.00001 17.8569 3.00001 16.2H2.40001C1.73735 16.1998 1.20001 15.6627 1.20001 15V10.807C1.19965 10.5507 1.28187 10.3011 1.43449 10.0951L1.43675 10.0921C1.43797 10.0905 1.43915 10.0888 1.44042 10.0872L5.03665 5.28409C5.26298 4.97926 5.62035 4.79968 6.00001 4.8H13.8C14.1247 4.79863 14.4362 4.92831 14.664 5.1597L18.912 9.67201L21.8437 10.2321C22.4004 10.3475 22.7998 10.838 22.8 11.4065V15C22.8 15.6627 22.2627 16.1998 21.6 16.2ZM6.24001 13.095C6.23982 13.045 6.2273 12.9958 6.20356 12.9517C5.45217 11.5389 5.45217 9.84508 6.20356 8.43229C6.2273 8.38824 6.23982 8.33902 6.24001 8.28899C6.24001 7.97634 5.82241 7.87203 5.67505 8.14772C4.82834 9.73825 4.82834 11.6458 5.67505 13.2363C5.82241 13.512 6.24001 13.4077 6.24001 13.095ZM9.87601 7.08001C7.88116 7.08001 6.26401 8.6864 6.26401 10.668C6.26401 12.6496 7.88116 14.256 9.87601 14.256C11.8709 14.256 13.488 12.6496 13.488 10.668C13.488 8.6864 11.8709 7.08001 9.87601 7.08001ZM14.053 8.15125C13.9056 7.87595 13.488 7.98001 13.488 8.29232C13.4882 8.3423 13.5007 8.39145 13.5245 8.43543C14.2759 9.84599 14.2759 11.538 13.5245 12.9486C13.5007 12.9926 13.4882 13.0417 13.488 13.0917C13.488 13.4039 13.9056 13.5081 14.053 13.2328C14.8997 11.6447 14.8997 9.73927 14.053 8.15125ZM9.90001 13.68C8.2498 13.68 6.91201 12.3369 6.91201 10.68C6.91201 9.02315 8.2498 7.68001 9.90001 7.68001C11.5502 7.68001 12.888 9.02315 12.888 10.68C12.888 12.3369 11.5502 13.68 9.90001 13.68ZM9.89761 8.52001C9.64577 8.52001 9.44161 8.72417 9.44161 8.97601C9.44161 8.98525 9.44197 8.99442 9.44253 9.00354L9.59373 11.4872C9.59373 11.655 9.7299 11.7181 9.89776 11.7181C10.0656 11.7181 10.2017 11.655 10.2018 11.4872L10.3525 9.00925C10.3533 8.99826 10.3539 8.98719 10.3539 8.97601C10.3539 8.85503 10.3058 8.73901 10.2202 8.65348C10.1346 8.56796 10.0186 8.51995 9.89761 8.52001ZM9.89761 12.168C9.64577 12.168 9.44161 12.3722 9.44161 12.624C9.44161 12.8759 9.64577 13.08 9.89761 13.08C10.1495 13.08 10.3536 12.8759 10.3536 12.624C10.3536 12.3722 10.1495 12.168 9.89761 12.168Z" fill="currentColor"/>
</svg>
