<svg width="24" height="24" viewBox="0 0 24 24" fill="currentColor" xmlns="http://www.w3.org/2000/svg">
<path fill-rule="evenodd" clip-rule="evenodd" d="M12 1.80005C6.36668 1.80005 1.79999 6.36674 1.79999 12C1.79999 17.6334 6.36668 22.2001 12 22.2001C17.6333 22.2001 22.2 17.6334 22.2 12C22.2 6.36674 17.6333 1.80005 12 1.80005ZM12 21C7.02942 21 2.99999 16.9706 2.99999 12C2.99999 7.02948 7.02942 3.00005 12 3.00005C16.9706 3.00005 21 7.02948 21 12C21 16.9706 16.9706 21 12 21ZM13.4304 5.08925C12.274 4.60558 10.9523 4.73238 9.90895 5.4271C8.8656 6.12182 8.2389 7.29237 8.23919 8.54585C8.23919 8.56265 8.2396 8.57959 8.23981 8.59644C8.2664 10.6496 9.94106 12.2985 11.9944 12.2934C14.0477 12.2882 15.714 10.6309 15.7303 8.57765C15.7303 8.56704 15.7307 8.55648 15.7307 8.54585C15.7308 7.03529 14.8238 5.6724 13.4304 5.08925ZM15.3014 11.6883C14.5448 12.4016 13.5582 12.9606 12.4646 13.0683C12.3068 13.0838 12.1469 13.0916 11.9849 13.0918C11.8428 13.0918 11.7022 13.0853 11.5632 13.0733C10.4465 12.9768 9.43847 12.4141 8.66855 11.6882C7.15451 12.433 6.19559 13.9738 6.19595 15.6612V17.4727C9.4313 20.5653 14.5233 20.5779 17.7739 17.5013V15.6612C17.7742 13.9739 16.8154 12.4331 15.3014 11.6883Z" fill="currentColor"/>
</svg>
