<svg width="24" height="24" viewBox="0 0 24 24" fill="currentColor" xmlns="http://www.w3.org/2000/svg">
<path fill-rule="evenodd" clip-rule="evenodd" d="M4.57509 15.2487C5.31281 15.2487 6.02033 14.9557 6.54198 14.4341C7.06364 13.9124 7.3567 13.2049 7.35669 12.4672V5.99542C7.35669 5.47553 7.78216 5.04022 8.302 5.05011C8.80703 5.05988 9.21133 5.4721 9.21129 5.97723V18.0303C9.21129 19.5665 10.4567 20.8119 11.993 20.8119C13.5292 20.8119 14.7746 19.5665 14.7746 18.0303V9.70404C14.7746 9.18416 15.2001 8.74884 15.7199 8.75876C16.2249 8.76857 16.6291 9.1807 16.6291 9.68573V12.9729C16.6291 13.714 16.9247 14.4243 17.4505 14.9465C17.9763 15.4687 18.6887 15.7595 19.4297 15.7543C20.9508 15.7442 22.1908 14.497 22.1924 12.976C22.1939 12.0189 21.7028 11.1285 20.8924 10.6192C20.7811 10.5489 20.6404 10.5447 20.5251 10.6082C20.4098 10.6717 20.3381 10.7929 20.338 10.9246V12.9547C20.338 13.4746 19.9126 13.9099 19.3927 13.9C18.8878 13.8902 18.4836 13.4781 18.4836 12.973V9.68573C18.4836 8.14946 17.2382 6.90406 15.7019 6.90406C14.1656 6.90406 12.9202 8.14946 12.9202 9.68573V18.0118C12.9202 18.5317 12.4948 18.967 11.9749 18.9571C11.47 18.9473 11.0658 18.5352 11.0658 18.0301V5.97723C11.0658 4.44095 9.82039 3.19556 8.28412 3.19556C6.74784 3.19556 5.50245 4.44095 5.50245 5.97723V12.4489C5.50245 12.9688 5.07698 13.4041 4.55714 13.3942C4.05221 13.3844 3.64802 12.9722 3.64802 12.4672V10.727C3.648 10.6404 3.60465 10.5595 3.53251 10.5115C3.46037 10.4635 3.369 10.4547 3.28907 10.4882C2.40026 10.8615 1.79349 11.3951 1.79349 12.4672C1.79349 14.0034 3.0389 15.2487 4.57509 15.2487Z" fill="currentColor"/>
</svg>
