<svg width="24" height="24" viewBox="0 0 24 24" fill="currentColor" xmlns="http://www.w3.org/2000/svg">
<path fill-rule="evenodd" clip-rule="evenodd" d="M12 19.8C8.01104 19.7932 4.67554 16.7663 4.28274 12.7968C3.88995 8.82722 6.56754 5.20533 10.4778 4.41693C14.3881 3.62854 18.2599 5.92991 19.436 9.74155C20.6121 13.5532 18.71 17.6361 15.0354 19.188C14.0751 19.5941 13.0426 19.8023 12 19.8ZM12 22.2C17.6333 22.2 22.2 17.6333 22.2 12C22.2 6.36668 17.6333 1.79999 12 1.79999C6.36668 1.79999 1.79999 6.36668 1.79999 12C1.79999 17.6333 6.36668 22.2 12 22.2ZM14.4 11.712V15.912C14.4015 16.148 14.3085 16.3747 14.1416 16.5416C13.9747 16.7085 13.748 16.8015 13.512 16.8H10.488C10.252 16.8015 10.0252 16.7085 9.85836 16.5416C9.69149 16.3747 9.59844 16.148 9.59999 15.912V11.712H6.91199L11.1976 7.52564C11.4096 7.32388 11.6603 7.19999 11.976 7.19999H12.024C12.3237 7.19963 12.6116 7.31653 12.8263 7.52569L17.112 11.712H14.4Z" fill="currentColor"/>
</svg>
