<svg width="24" height="24" viewBox="0 0 24 24" fill="currentColor" xmlns="http://www.w3.org/2000/svg">
<path fill-rule="evenodd" clip-rule="evenodd" d="M17.4 6.2V7.4C16.1147 7.40008 15.0576 6.38751 15.0024 5.10344H14.9942C14.9981 5.16848 15 5.234 15 5.3C15 7.12254 13.5225 8.6 11.7 8.6C9.87746 8.6 8.4 7.12254 8.4 5.3C8.4 5.19896 8.40448 5.09896 8.41344 5H8.4C8.4 6.32548 7.32548 7.4 6 7.4V6.2C6 4.87452 7.07452 3.8 8.4 3.8H8.75976C9.32387 2.69529 10.4596 2 11.7 2C12.9404 2 14.0761 2.69529 14.6402 3.8H15C15.0079 3.8 15.0161 3.8 15.024 3.80024C16.34 3.81332 17.4 4.88389 17.4 6.2ZM14.6217 8.39994C12.981 9.94669 10.419 9.94669 8.77831 8.39994C7.44452 9.05616 6.59975 10.4135 6.6 11.9V14C6.6 14.9941 7.40589 15.8 8.4 15.8V20.6C8.4 21.2627 8.93726 21.8 9.6 21.8H13.8C14.4627 21.8 15 21.2627 15 20.6V15.8C15.9941 15.8 16.8 14.9941 16.8 14V11.9C16.8003 10.4135 15.9555 9.05616 14.6217 8.39994ZM15.1 3.83762C15.067 3.83662 15.033 3.83762 15 3.83762H15.1Z" fill="currentColor"/>
</svg>
