<svg width="24" height="24" viewBox="0 0 24 24" fill="currentColor" xmlns="http://www.w3.org/2000/svg">
<path fill-rule="evenodd" clip-rule="evenodd" d="M21.5854 4.45796L19.0567 2.24543C18.3086 1.59081 17.1714 1.66662 16.5168 2.41477L15.024 4.12079C13.0678 3.42643 10.9322 3.42643 8.97597 4.12079L7.48317 2.41477C6.82855 1.66662 5.69138 1.59081 4.94323 2.24543L2.41456 4.45796C1.66644 5.11259 1.59063 6.24974 2.24524 6.99788L3.83323 8.81279C2.26057 12.21 2.95318 16.2258 5.57296 18.9L4.36077 20.9998C4.14299 21.3713 4.14095 21.831 4.35543 22.2044C4.56991 22.5778 4.96802 22.8076 5.39863 22.8067C5.82924 22.8057 6.22634 22.5741 6.43917 22.1998L7.48557 20.3873C10.2781 22.004 13.7219 22.004 16.5144 20.3873L17.5608 22.1998C17.8944 22.7689 18.6247 22.962 19.196 22.6321C19.7673 22.3023 19.9652 21.5732 19.6392 20.9998L18.427 18.9C21.0468 16.2258 21.7394 12.21 20.1667 8.81279L21.7547 6.99798C22.0691 6.63871 22.2279 6.16925 22.1961 5.6929C22.1644 5.21655 21.9447 4.77233 21.5854 4.45796ZM12 19.7998C8.02348 19.7998 4.79997 16.5763 4.79997 12.5998C4.79997 8.62333 8.02348 5.39999 12 5.39999C15.9765 5.39999 19.2 8.6235 19.2 12.6C19.2 16.5765 15.9765 19.7998 12 19.7998ZM15.6364 14.9635L12.864 12.1911V7.19999C12.864 6.70956 12.4664 6.31199 11.976 6.31199C11.4855 6.31199 11.088 6.70956 11.088 7.19999V12.6C11.0877 12.8679 11.2087 13.1215 11.4171 13.2899L14.3636 16.2363C14.7151 16.5874 15.2847 16.5872 15.636 16.2359C15.9874 15.8846 15.9876 15.315 15.6364 14.9635Z" fill="currentColor"/>
</svg>
