<svg width="24" height="24" viewBox="0 0 24 24" fill="currentColor" xmlns="http://www.w3.org/2000/svg">
<path fill-rule="evenodd" clip-rule="evenodd" d="M10.6587 5.39995C10.323 9.29047 9.40372 12.8038 8.07871 15.6H10.0539C10.5546 14.4299 10.9749 13.2272 11.312 12H12.6879C13.0249 13.2272 13.4452 14.4299 13.9459 15.6H15.9211C14.5961 12.8038 13.6768 9.29047 13.3411 5.39995L13.8 4.79995V3.89995C13.8 3.73427 13.6657 3.59995 13.5 3.59995H13.2V2.99995C13.2 2.66858 12.9314 2.39995 12.6 2.39995H12.288V1.48795C12.288 1.32889 12.1591 1.19995 12 1.19995C11.8409 1.19995 11.712 1.32889 11.712 1.48795V2.39995H11.4C11.0686 2.39995 10.8 2.66858 10.8 2.99995V3.59995H10.5C10.3343 3.59995 10.2 3.73427 10.2 3.89995V4.79995L10.6587 5.39995ZM16.2171 16.2H7.78286L4.2 22.7999H7.8C7.8 20.4804 9.6804 18.6 12 18.6C14.3196 18.6 16.2 20.4804 16.2 22.7999H19.8L16.2171 16.2Z" fill="currentColor"/>
</svg>
