<svg width="24" height="24" viewBox="0 0 24 24" fill="currentColor" xmlns="http://www.w3.org/2000/svg">
<path fill-rule="evenodd" clip-rule="evenodd" d="M10.4793 5.99252H13.4902C13.6445 5.99252 13.7926 5.93116 13.9017 5.822C14.0108 5.71283 14.0721 5.56478 14.0721 5.41042V4.19002C14.0721 3.86013 13.8047 3.59268 13.4749 3.59264H13.0652C13.0393 3.59243 13.0154 3.57892 13.0019 3.55688C12.7829 3.20593 12.3984 2.99268 11.9847 2.99268C11.571 2.99268 11.1865 3.20593 10.9675 3.55688C10.954 3.57891 10.9301 3.59243 10.9042 3.59264H10.513C10.3497 3.59266 10.1931 3.65755 10.0777 3.77304C9.9622 3.88852 9.89736 4.04515 9.89736 4.20845V5.41042C9.89736 5.56478 9.95862 5.71283 10.0678 5.82199C10.1769 5.93116 10.3249 5.99252 10.4793 5.99252ZM14.1058 15.6873C14.4069 15.6873 14.6064 15.3705 14.6064 14.7993C14.6064 14.2281 14.403 13.9153 14.1058 13.9153C13.8086 13.9153 13.6052 14.2282 13.6052 14.7993C13.6052 15.3704 13.8047 15.6873 14.1058 15.6873ZM16.4653 12.5409C14.8008 9.98221 14.4547 7.7851 14.4083 7.43213C14.3766 6.95971 13.9842 6.59257 13.5107 6.59257H10.5117C10.0574 6.59257 9.67449 6.93143 9.61891 7.38231C9.61891 7.38231 9.36725 9.80888 7.48289 12.6517C6.91343 13.5266 6.61126 14.5483 6.61286 15.5922C6.61286 18.5743 9.02983 20.9918 12.0113 20.9918C14.9928 20.9918 17.4097 18.5743 17.4097 15.5921C17.4113 14.5028 17.082 13.4388 16.4653 12.5409ZM14.1019 13.3325C14.7941 13.3325 15.2635 13.8801 15.2635 14.8033C15.2635 15.7264 14.7942 16.274 14.1019 16.274C13.4096 16.274 12.9443 15.7264 12.9443 14.8033C12.9443 13.8801 13.4097 13.3325 14.1019 13.3325ZM11.8531 13.9231C11.7319 13.9231 11.6224 14.017 11.552 14.2087C11.4738 14.4239 11.4112 14.5295 11.243 14.5295C11.0592 14.5295 10.9302 14.4004 10.9302 14.2048C10.9302 14.0601 11.0006 13.8488 11.1257 13.6924C11.3048 13.4624 11.5811 13.3292 11.8727 13.3325C12.4162 13.3325 12.7643 13.6924 12.7643 14.1579C12.7643 14.6038 12.4084 15.0027 11.8023 15.6051H12.385C12.6861 15.6051 12.8347 15.699 12.8347 15.8985C12.8347 16.098 12.6862 16.1918 12.3851 16.1918H11.2627C11.0085 16.1918 10.8833 16.098 10.8833 15.8985C10.8833 15.7421 11.0749 15.5582 11.3878 15.214C11.8336 14.7211 12.0917 14.4082 12.0917 14.1892C12.0918 14.0287 11.9861 13.9231 11.8531 13.9231ZM9.72955 13.9231C9.60833 13.9231 9.49884 14.017 9.42843 14.2087C9.35023 14.4239 9.28764 14.5295 9.1195 14.5295C8.93568 14.5295 8.80663 14.4004 8.80663 14.2048C8.80663 14.0601 8.87703 13.8488 9.00219 13.6924C9.18129 13.4624 9.4576 13.3292 9.74911 13.3325C10.2927 13.3325 10.6408 13.6924 10.6408 14.1579C10.6408 14.6038 10.2849 15.0027 9.67872 15.6051H10.2614C10.5625 15.6051 10.7112 15.699 10.7112 15.8985C10.7112 16.098 10.5626 16.1918 10.2615 16.1918H9.13913C8.88495 16.1918 8.75981 16.098 8.75981 15.8985C8.75981 15.742 8.95143 15.5581 9.26429 15.2139C9.71011 14.721 9.96821 14.4081 9.96821 14.1891C9.96821 14.0287 9.86251 13.9231 9.72955 13.9231ZM15.4137 18.0527L15.1861 19.1918L14.7606 18.7663C13.1827 20.1337 10.8398 20.1337 9.26194 18.7663L8.83649 19.1918L8.60873 18.0528L8.41234 17.0706L9.54353 17.2969L10.533 17.4949L10.1133 17.9147C11.2175 18.8176 12.805 18.8176 13.9092 17.9147L13.4895 17.4949L14.479 17.2969L15.6102 17.0706L15.4137 18.0527ZM16.0103 14.5568C15.8569 14.5577 15.7095 14.4968 15.6014 14.3879C15.4933 14.2791 15.4335 14.1313 15.4354 13.9779C15.4355 13.7435 15.5769 13.5322 15.7937 13.4429C16.0104 13.3536 16.2597 13.4039 16.4249 13.5702C16.5901 13.7365 16.6386 13.9861 16.5478 14.2022C16.457 14.4184 16.2447 14.5584 16.0103 14.5568ZM16.0142 13.6415C15.8786 13.6407 15.7558 13.7218 15.7036 13.847C15.6513 13.9721 15.6797 14.1165 15.7756 14.2124C15.8715 14.3083 16.0159 14.3368 16.141 14.2846C16.2662 14.2323 16.3474 14.1096 16.3466 13.974C16.345 13.7911 16.1971 13.6432 16.0142 13.6415Z" fill="currentColor"/>
</svg>
