<svg width="24" height="24" viewBox="0 0 24 24" fill="currentColor" xmlns="http://www.w3.org/2000/svg">
<path fill-rule="evenodd" clip-rule="evenodd" d="M9.94947 15.6H3.60214L3.6 15.5978V4.20216L3.60216 4.2H19.7978L19.8 4.20216V13.6527C19.9377 13.7632 20.0693 13.8811 20.1941 14.0059C20.5114 14.3227 20.7827 14.6825 21 15.0747V4.2C20.9981 3.53806 20.4619 3.00194 19.8 3H3.6C2.93806 3.00194 2.40194 3.53806 2.4 4.2V15.6C2.40194 16.2619 2.93806 16.7981 3.6 16.8H9.63696C9.68827 16.3881 9.79334 15.9846 9.94947 15.6ZM10.8 8.4C10.8 9.72548 9.72548 10.8 8.4 10.8C7.07452 10.8 6 9.72548 6 8.4C6 7.07452 7.07452 6 8.4 6C9.72548 6 10.8 7.07452 10.8 8.4ZM21 17.4018V17.4C21.0002 15.7625 20.0488 14.2742 18.5626 13.5869C16.8663 15.071 14.3337 15.071 12.6375 13.5869C11.1512 14.2742 10.1998 15.7625 10.2 17.4V19.8C10.2 20.4627 10.7373 21 11.4 21H12.2362H18.9641H19.7981H19.8C20.4627 21 21 20.4627 21 19.8V19.7982V17.4018ZM11.2699 11.429C10.9776 11.2157 10.6519 11.0523 10.3061 10.9457C9.17609 11.7915 7.62391 11.7915 6.49395 10.9457C5.1648 11.3551 4.2 12.5815 4.2 14.0308V14.0322V15H10.2421C10.7014 14.2064 11.3776 13.5603 12.1913 13.1376C11.7633 12.6421 11.4488 12.0589 11.2699 11.429ZM19.2 10.2C19.2 12.1882 17.5882 13.8 15.6 13.8C13.6118 13.8 12 12.1882 12 10.2C12 8.21177 13.6118 6.6 15.6 6.6C17.5882 6.6 19.2 8.21177 19.2 10.2Z" fill="currentColor"/>
</svg>
