<svg width="24" height="24" viewBox="0 0 24 24" fill="currentColor" xmlns="http://www.w3.org/2000/svg">
<path fill-rule="evenodd" clip-rule="evenodd" d="M20.7415 12.242L19.8075 17.6018C19.6992 18.827 18.6533 19.7998 17.4 19.7998C16.0745 19.7998 15 18.7253 15 17.3998C15.0031 16.9761 15.1204 16.5611 15.3394 16.1983L12 16.1998V15.9118C12 13.4265 9.97325 11.3998 7.48798 11.3998C6.40022 11.3998 5.57174 11.6958 4.79374 12.3382L4.50878 12.5023C4.22208 12.6663 3.85679 12.5682 3.69072 12.2827C3.52465 11.9972 3.62002 11.6312 3.9043 11.4631L4.79998 10.9438V5.39982C4.81126 4.7492 5.34756 4.20359 5.99998 4.19976H10.536C11.1021 4.19429 11.5926 4.5911 11.7054 5.1459L13.2 10.1998L16.8 10.4517V7.19982C16.8 6.53708 17.3372 5.99982 18 5.99982H18.6V7.19982C18.4404 7.19835 18.2869 7.26109 18.1741 7.37394C18.0612 7.48678 17.9985 7.64024 18 7.79982V10.5406L19.6975 10.6664L19.701 10.6708C20.0671 10.7014 20.3991 10.898 20.6019 11.2043C20.8048 11.5106 20.8562 11.8929 20.7415 12.242ZM7.49998 11.9998C9.65389 11.9998 11.4 13.7459 11.4 15.8998C11.4 18.0537 9.65389 19.7998 7.49998 19.7998C5.34607 19.7998 3.59998 18.0537 3.59998 15.8998C3.59998 13.7459 5.34607 11.9998 7.49998 11.9998ZM7.47598 18.5998C8.98039 18.5998 10.2 17.391 10.2 15.8998C10.2 14.4087 8.98039 13.1998 7.47598 13.1998C5.97156 13.1998 4.75198 14.4087 4.75198 15.8998C4.75198 17.391 5.97156 18.5998 7.47598 18.5998ZM5.99998 10.1998V5.39982H10.584L12 10.1998H5.99998Z" fill="currentColor"/>
</svg>
