<svg width="24" height="24" viewBox="0 0 24 24" fill="currentColor" xmlns="http://www.w3.org/2000/svg">
<path fill-rule="evenodd" clip-rule="evenodd" d="M14.9035 6.38401C15.119 6.36397 15.3475 6.29725 15.3475 6.07549C15.3974 6.02989 15.419 6.05989 15.419 5.98758C15.2516 5.88534 15.122 5.87776 14.9932 6.02447C14.845 6.05188 14.8876 6.06128 14.8876 6.191C14.8233 6.28561 14.7631 6.34168 14.9035 6.38401ZM15.5215 5.97349C15.5746 5.97671 15.6388 5.97709 15.6858 6.00585C15.7 6.01451 15.7788 6.1191 15.7388 6.12899C15.6935 6.14022 15.6253 6.12263 15.6012 6.17567C15.5894 6.20207 15.606 6.23286 15.5885 6.26022C15.5759 6.28014 15.5333 6.28948 15.528 6.31283C15.5154 6.37175 15.6149 6.32788 15.6237 6.37319C15.6333 6.42342 15.4845 6.46628 15.4806 6.54119C15.4775 6.60251 15.4746 6.66162 15.5524 6.64249C15.6436 6.62017 15.7053 6.539 15.7902 6.50329C15.8166 6.49232 15.8735 6.49631 15.8927 6.48369C15.9902 6.42011 16.1175 6.48129 16.2226 6.46864C16.3167 6.45724 16.3796 6.35423 16.3639 6.26147C16.3557 6.21347 16.3371 6.21827 16.2895 6.21176C16.1907 6.19842 16.1717 6.1628 16.1274 6.08216C16.078 5.99293 15.9602 5.94822 15.8936 5.87274C15.8667 5.84252 15.8373 5.79872 15.8475 5.75648C15.8578 5.71424 15.9473 5.65432 15.8665 5.62004C15.8223 5.60118 15.7749 5.62472 15.7297 5.61791C15.6681 5.60831 15.7116 5.55184 15.6697 5.52764C15.6365 5.50859 15.5565 5.53456 15.525 5.54632C15.4756 5.56489 15.4185 5.59571 15.3893 5.6414C15.3506 5.70205 15.385 5.72699 15.3974 5.78428C15.4287 5.92856 15.4988 5.78044 15.5215 5.97349ZM12.0624 1.8C8.17335 1.79394 4.62322 4.01203 2.92345 7.50997C2.18323 8.93529 1.79785 10.5182 1.8 12.1242C1.8 17.689 6.33857 22.2 11.9374 22.2C15.8265 22.2061 19.3768 19.988 21.0766 16.49C21.8168 15.0646 22.2022 13.4818 22.2 11.8757C22.2 6.31105 17.6613 1.8 12.0624 1.8ZM11.9374 21.2544C6.87212 21.2544 2.7512 17.1586 2.7512 12.1242C2.7512 11.5547 2.80467 10.9864 2.91099 10.4269C2.9627 10.4395 3.01286 10.4578 3.06056 10.4814C3.09207 10.5394 3.12245 10.5341 3.19361 10.5408C3.33207 10.596 3.47055 10.6811 3.62204 10.6811C3.81615 10.6324 3.88604 10.5591 4.01026 10.7166C4.1221 10.8584 4.40729 10.9263 4.57491 10.9582C4.67149 10.9766 4.7605 10.9711 4.83778 11.0355C4.90649 11.0931 4.94523 11.1821 5.00259 11.2497C5.1182 11.3858 5.23796 11.4841 5.41501 11.5275C5.61437 11.5764 5.83633 11.5709 6.01275 11.6891C6.28097 11.8696 6.10138 12.1179 5.98186 12.3098C5.84194 12.5347 5.74561 12.7519 5.72926 13.0221C5.69566 13.5733 6.07208 14.0669 6.48718 14.3942C6.70997 14.5698 6.97868 14.7516 7.05428 15.0405C7.12825 15.3227 7.03241 15.6039 6.97625 15.8793C6.92362 16.138 6.95149 16.3929 6.90812 16.6488C6.86686 16.8926 6.7417 17.1098 6.65089 17.3371C6.62449 17.4032 6.58849 17.4876 6.60413 17.5603C6.62893 17.6764 6.75257 17.6931 6.68655 17.8264C6.63917 17.9224 6.56593 18.0081 6.50559 18.0964C6.47228 18.145 6.44101 18.1992 6.44187 18.2601C6.44247 18.305 6.46995 18.3447 6.46457 18.3894C6.45737 18.4509 6.40109 18.4926 6.38876 18.5526C6.374 18.6256 6.41293 18.7169 6.44297 18.782C6.57065 19.057 7.0964 19.5114 7.43249 19.4112C7.55557 19.3744 7.62769 19.1784 7.61684 19.0638C7.60205 18.906 7.50831 18.9895 7.39916 18.9518C7.19756 18.8816 7.55348 18.4651 7.53836 18.331C7.53188 18.2748 7.48585 18.2283 7.48376 18.1679C7.47802 18.0043 7.79888 17.7256 7.93695 17.6674C8.11253 17.5934 8.22848 17.4514 8.38904 17.3582C8.53467 17.2734 8.63223 17.1341 8.7475 17.0158C8.86421 16.896 9.00361 16.8086 9.14696 16.723C9.34669 16.6038 9.49333 16.5123 9.61822 16.3102C9.68583 16.2021 9.76585 16.1022 9.85664 16.0126L8.13802 11.3079C8.13529 11.307 8.13291 11.3058 8.13022 11.305C7.96491 11.2584 7.77579 11.2567 7.60599 11.2389C7.37645 11.2149 7.15342 11.1741 6.9218 11.1889C6.82438 11.042 6.605 11.1797 6.51195 11.2397C6.36075 11.3373 6.22957 11.3797 6.04863 11.3534C5.70286 11.3033 5.45921 11.0556 5.19903 10.8453C5.05645 10.7301 4.91264 10.6167 4.73559 10.5583C4.73938 10.5595 4.79559 10.0946 4.71716 10.0282C4.51971 9.86075 4.29068 10.2258 4.12527 10.2915C3.72265 10.4516 3.48809 10.142 3.45327 9.75925C3.37124 8.86165 4.76705 8.65842 5.34207 9.09829C5.39981 9.14245 5.59957 9.4389 5.66972 9.41766C5.78439 9.38301 5.70296 9.02694 5.70783 8.9534C5.72163 8.73021 5.73569 8.63373 5.95544 8.50528C6.07875 8.43328 6.16347 8.32266 6.22424 8.19568C6.27565 8.08806 6.29175 7.99168 6.40784 7.93544C6.51584 7.88305 6.59161 7.78816 6.68561 7.71668C6.72186 7.68966 6.75997 7.66521 6.79964 7.64351L6.62873 7.17568C6.50611 6.8395 6.60278 6.46252 6.87205 6.22684C7.14226 5.99023 7.52921 5.94171 7.84947 6.10429L8.46442 6.41656C8.47174 6.41473 8.47882 6.41255 8.48629 6.41084C8.53084 6.40009 8.57644 6.39425 8.62227 6.39345C8.64151 6.39336 8.66074 6.39437 8.67987 6.39647C8.69684 6.39836 8.72626 6.39786 8.73958 6.40993C8.7547 6.42385 8.73653 6.44308 8.72737 6.45448C8.7132 6.47179 8.7005 6.49026 8.6894 6.50968C8.68642 6.51515 8.68383 6.52091 8.68097 6.52648L9.32456 6.85333C9.32674 6.84976 9.32936 6.84695 9.33147 6.84318C9.42569 6.67458 9.09867 6.61252 9.01976 6.46813C8.95445 6.34787 9.00634 6.19595 8.91245 6.07854C8.81405 5.95556 8.65191 5.95614 8.52545 5.88095C8.34464 5.77338 8.24977 5.56544 8.07457 5.45212C7.81013 5.28102 7.68315 5.45212 7.40381 5.4296C7.23229 5.41607 7.1372 5.28884 7.00781 5.19493C6.78392 5.03221 6.51274 4.94065 6.23948 4.96765C6.3318 4.89487 6.42562 4.82388 6.52095 4.7547C6.76714 4.79291 6.98439 4.92287 7.21954 4.99684C7.26994 5.01272 7.63841 5.04318 7.60834 5.02324C7.54561 4.98107 7.27993 4.92203 7.47721 4.8999C7.56416 4.91828 7.77841 4.99151 7.81685 4.90244C7.93834 4.81076 7.99537 4.81307 8.15235 4.81307C8.30081 4.70956 8.44376 4.63216 8.47088 4.459C8.4295 4.36338 8.47517 4.29244 8.44928 4.21115C8.25063 4.15988 8.28519 4.06136 8.3095 3.93431C8.2855 3.90368 8.19778 3.86195 8.1031 3.82832C8.33174 3.72346 8.56521 3.6278 8.80352 3.54133C8.95952 3.6286 9.07851 3.74824 9.04009 3.89269C9.1213 3.90676 9.2125 3.91307 9.2911 3.88324C9.30893 3.87644 9.3253 3.85124 9.3463 3.8547C9.36961 3.85871 9.3775 3.8955 9.3871 3.91283C9.39209 3.92094 9.39658 3.92935 9.40054 3.938C9.40076 3.93851 9.45901 3.928 9.46486 3.92752C9.48522 3.92592 9.5057 3.92656 9.52592 3.92944C9.56331 3.93298 9.59884 3.94742 9.62811 3.97096C9.63836 3.97993 9.67901 4.00638 9.66874 4.02452C9.66082 4.03782 9.63017 4.03588 9.61736 4.03636C9.60185 4.03715 9.58647 4.03734 9.57121 4.03952C9.54519 4.04341 9.51908 4.04728 9.49282 4.05044C9.47 4.05557 9.44659 4.05765 9.42322 4.05664C9.38761 4.079 9.50456 4.08289 9.54106 4.10104C9.57109 4.1162 9.60721 4.11997 9.63555 4.13824C9.68439 4.16944 9.58121 4.18864 9.56523 4.19634C9.53177 4.21206 9.4993 4.22929 9.46731 4.24811C9.42633 4.2705 9.38953 4.29981 9.35854 4.33475C9.33427 4.36251 9.31895 4.39694 9.31457 4.43356C9.31243 4.47741 9.3224 4.52101 9.34337 4.55958C9.37241 4.61506 9.4064 4.66779 9.44494 4.71714C9.44974 4.72384 9.45435 4.73094 9.45958 4.73725C9.66812 4.98961 10.1635 5.35117 10.5133 5.31143C10.8981 5.26744 10.8661 4.78177 11.2324 4.64526C11.5988 4.50875 11.9795 4.41277 12.362 4.33376C12.4679 4.3087 12.5723 4.27779 12.6747 4.2412C12.8193 4.19648 12.9663 4.16029 13.1151 4.13284C13.1403 4.12775 13.1659 4.1264 13.1913 4.12268C13.1992 4.12144 13.2598 4.11124 13.2338 4.09628C13.2143 4.08783 13.1935 4.08267 13.1723 4.081C13.1491 4.07692 13.1259 4.0738 13.1028 4.07039C13.0593 4.06661 13.0165 4.05669 12.9758 4.04094C12.9659 4.03628 12.9457 4.03187 12.9488 4.01797C12.9524 4.00079 12.9795 4.00468 12.9917 4.00564C13.0422 4.00904 13.0941 4.0034 13.1449 4.0034C13.1982 4.00466 13.2515 4.00215 13.3045 3.99589C13.33 3.99224 13.3551 3.9909 13.3806 3.98557C13.3929 3.98317 13.4124 3.98653 13.4111 3.96858C13.408 3.9434 13.3964 3.92003 13.3782 3.90234C13.3694 3.89384 13.3578 3.88885 13.3499 3.87964C13.3379 3.86598 13.344 3.85724 13.3521 3.84299C13.3663 3.82224 13.3778 3.79972 13.3861 3.776C13.3913 3.74897 13.3949 3.72168 13.397 3.69424C13.4062 3.63198 13.5198 3.6213 13.5645 3.61158C13.6257 3.59824 13.7284 3.56912 13.7496 3.50044C13.7738 3.42301 13.6908 3.39124 13.6902 3.32322C13.6897 3.27342 13.7725 3.27061 13.8074 3.25314C13.8376 3.23809 13.8666 3.24491 13.8981 3.20795C13.8977 3.20636 13.8972 3.20514 13.8967 3.20363C15.1867 3.48359 16.4012 4.03859 17.4572 4.83073C17.1926 4.91288 16.6861 5.3133 17.3 5.55606C17.522 5.64378 17.6956 5.26172 17.9074 5.54348C17.9511 5.60144 17.9974 5.6859 17.9511 5.75384C17.922 5.79685 17.838 5.85757 17.7841 5.82104C17.7163 5.7753 17.8061 5.62398 17.6789 5.60298C17.5891 5.59159 17.5008 5.63253 17.4514 5.70836C17.3912 5.80381 17.543 5.94068 17.4802 6.03476C17.3986 6.15745 17.1964 6.06263 17.0817 6.11281C16.8495 6.21448 16.6477 6.43386 16.3994 6.54481C16.2868 6.59521 16.1526 6.58516 16.0325 6.59936C15.954 6.60848 15.8237 6.61823 15.7798 6.69536C15.728 6.78637 16.0137 6.90232 16.0672 6.93906C16.2131 7.03955 16.2821 7.1678 16.1167 7.29388C15.9102 7.45088 15.5322 7.14827 15.3042 7.2968C15.1603 7.3904 15.0762 7.86697 15.2149 8.02624C15.2701 8.08928 15.3577 8.11984 15.4357 8.15344C15.5435 8.20024 15.7783 8.30586 15.8919 8.23984C15.925 8.22064 15.9423 8.18725 15.9794 8.16909C16.0132 8.1526 16.0514 8.1441 16.08 8.11789C16.1272 8.07433 16.1071 8.00044 16.1264 7.94413C16.1459 7.88672 16.1917 7.85615 16.2325 7.81492C16.2604 7.78674 16.2808 7.74683 16.3135 7.724C16.3657 7.68772 16.4384 7.70037 16.4959 7.67461C16.5895 7.63235 16.5374 7.51165 16.6209 7.45645C16.6798 7.4175 16.75 7.44102 16.8111 7.45948C16.9783 7.50966 17.0856 7.40932 17.2449 7.39686C17.2609 7.39566 17.2879 7.36859 17.3046 7.36194C17.3572 7.34034 17.4282 7.33633 17.4735 7.37466C17.5106 7.40586 17.523 7.459 17.5536 7.49588C17.6005 7.55262 17.678 7.58063 17.7386 7.62016C17.807 7.66504 17.8511 7.67589 17.9263 7.69581C18.0082 7.71769 18.0784 7.79368 18.1548 7.83237C18.2146 7.86265 18.3094 7.90614 18.3082 7.98563C18.306 8.12505 18.0717 8.08811 17.9898 8.0918C17.9605 8.09301 17.839 8.10141 17.8285 8.13172C17.8129 8.17703 18.0215 8.25076 18.0536 8.25611C18.144 8.27132 18.1819 8.20811 18.2432 8.15478C18.2947 8.11 18.3639 8.08208 18.4024 8.02386C18.4346 7.97519 18.4007 7.92215 18.4078 7.87072C18.4136 7.8274 18.4495 7.82776 18.4628 7.79317C18.4872 7.72856 18.3439 7.672 18.3032 7.6569C18.2646 7.64283 18.2249 7.63172 18.1846 7.62366C18.1591 7.61845 18.103 7.62088 18.0818 7.60686C18.0046 7.5556 17.9946 7.47296 17.92 7.414C17.6505 7.28262 17.872 7.10828 17.9933 7.26299C18.1815 7.27098 18.2273 7.46752 18.4343 7.4834C18.533 7.60784 18.6529 7.54115 18.7242 7.69878C18.7368 7.90465 18.7784 7.9018 18.9629 8.03053C19.026 8.07465 18.9999 8.29537 19.1333 8.25944C19.1756 8.24792 19.2252 8.19611 19.2594 8.16954C19.2792 8.15411 19.3258 8.13114 19.3384 8.10971C19.3775 8.04309 19.2547 8.03848 19.2309 7.9977C19.1205 7.80733 19.3897 7.75206 19.5231 7.75866C19.6487 7.76504 19.6584 7.92153 19.6837 8.01306C19.6963 8.06585 19.7221 8.11456 19.7587 8.15466C19.7804 8.17674 19.8055 8.19512 19.8331 8.20907C19.8784 8.23218 19.9258 8.23787 19.9685 8.26746C20.01 8.29662 20.0459 8.3314 20.1005 8.32854C20.1561 8.32561 20.2037 8.29026 20.258 8.282C20.2618 8.2814 20.2654 8.2814 20.2691 8.28104C20.3672 8.49042 20.4575 8.70392 20.5399 8.92153C20.4523 8.91764 20.3592 8.89842 20.3005 8.90128C20.1553 8.90848 20.0224 8.99673 19.8746 8.94873C19.8121 8.92524 19.7463 8.912 19.6796 8.90953C19.5531 8.90771 19.4656 8.85085 19.3476 8.81992C19.2562 8.79592 19.1522 8.74268 19.0585 8.73661C18.9396 8.72908 18.8329 8.7866 18.8032 8.90286C18.7914 8.94909 18.787 9.00654 18.7378 9.02965C18.6554 9.06824 18.5602 8.99022 18.481 8.97481C18.4175 8.9666 18.355 8.95186 18.2946 8.93082C18.2676 8.91985 18.243 8.90399 18.2218 8.88405C18.205 8.86744 18.1858 8.81884 18.1671 8.80965C18.0732 8.76304 17.9701 8.73776 17.8653 8.73563C17.7687 8.73047 17.6811 8.71328 17.6018 8.65499C17.4739 8.5606 17.6267 8.52837 17.6037 8.41845C17.6003 8.40165 17.5605 8.35631 17.5634 8.34496C17.606 8.17216 17.4162 8.21274 17.2821 8.24416C17.0322 8.26794 16.7179 8.18111 16.5025 8.27977C16.3204 8.28803 16.1225 8.32655 15.9721 8.4338C15.8973 8.48697 15.7096 8.50581 15.6246 8.47689C15.593 8.47049 15.5608 8.46718 15.5286 8.467C15.4368 8.53076 15.2722 8.56079 15.2127 8.62513C15.117 8.72845 15.0805 8.85486 15.0059 8.97428C14.8819 9.1731 14.6333 9.28456 14.4674 9.44387C14.4624 9.44867 14.4581 9.4532 14.453 9.458L17.6616 11.0871C17.9626 11.2388 18.1485 11.5511 18.1382 11.888C18.1279 12.2248 17.9233 12.5252 17.6136 12.6582C17.6256 12.8551 17.6756 12.9564 17.7912 13.1187C17.9797 13.3832 18.2194 13.6583 18.1631 14.0052C18.1155 14.2989 17.8244 14.4888 17.9354 14.8098C18.0321 15.0893 18.233 15.2576 18.3029 15.5663C18.3601 15.8191 18.4207 15.8827 18.5498 16.0745C18.6912 16.2839 18.8824 17.1871 19.3249 16.6996C19.4435 16.6601 19.5331 16.7413 19.6503 16.7413C19.7074 16.7062 19.7647 16.6891 19.8075 16.6629C19.8367 16.6759 19.8692 16.6794 19.9005 16.6728C18.2529 19.5106 15.2188 21.2562 11.9374 21.2544ZM6.00543 5.15891C6.04047 5.32228 6.11981 5.57819 6.12493 5.59924C6.21284 5.95405 6.00286 5.72884 5.86561 5.9409C5.80786 6.02989 5.92412 6.1113 5.88661 6.18522C5.72789 6.4976 5.51609 5.99281 5.33564 5.88042C5.31537 5.86794 5.29417 5.85703 5.27223 5.84778C5.50393 5.60501 5.74869 5.37504 6.00543 5.15891ZM14.3867 12.7529L14.7967 12.6254L17.0277 11.9347L17.2634 11.8617L14.1489 10.2801L8.05292 7.18439L7.45129 6.87892L7.55305 7.15758L9.32833 12.0177L10.5807 15.4464L11.211 17.1715L12.4576 14.4475L15.1787 17.4984C15.1936 17.516 15.2086 17.5329 15.2236 17.5492C15.2287 17.5546 15.2337 17.5596 15.2387 17.5648C15.2489 17.5755 15.2589 17.586 15.2691 17.596C15.2754 17.6021 15.2816 17.6079 15.2879 17.6138C15.2969 17.6223 15.3059 17.6309 15.315 17.6391C15.3219 17.6451 15.3288 17.6508 15.3357 17.6566C15.3443 17.664 15.3529 17.6714 15.3616 17.6782C15.3688 17.6839 15.3758 17.6894 15.383 17.6948C15.3915 17.7013 15.4 17.7078 15.4085 17.714C15.4159 17.7193 15.4233 17.7242 15.4307 17.7293C15.4391 17.735 15.4475 17.7406 15.4558 17.7459C15.4634 17.7507 15.4711 17.7554 15.4788 17.76C15.4871 17.765 15.4952 17.7697 15.5035 17.7744C15.5113 17.7787 15.5192 17.7829 15.527 17.787C15.5352 17.7913 15.5435 17.7955 15.5518 17.7994C15.5596 17.8033 15.5675 17.8069 15.5754 17.8105C15.5837 17.8142 15.5919 17.8177 15.6002 17.8211C15.6082 17.8243 15.6162 17.8275 15.6241 17.8306C15.6325 17.8338 15.6409 17.8367 15.6492 17.8395C15.6575 17.8424 15.6651 17.8449 15.6732 17.8474C15.6817 17.85 15.69 17.8524 15.6986 17.8546C15.7065 17.8568 15.7144 17.859 15.7224 17.861C15.731 17.8631 15.7396 17.8648 15.7482 17.8666C15.7561 17.8683 15.764 17.87 15.7718 17.8714C15.7807 17.873 15.7895 17.8742 15.7984 17.8756C15.8061 17.8766 15.8138 17.878 15.8215 17.8788C15.8307 17.8799 15.8399 17.8806 15.8491 17.8814C15.8565 17.882 15.8639 17.8828 15.8713 17.8833C15.8815 17.8839 15.8918 17.884 15.902 17.8842C15.9084 17.8842 15.9148 17.8848 15.9212 17.8848C15.9217 17.8848 15.9221 17.8848 15.9226 17.8848C15.9583 17.8848 15.9939 17.8826 16.0292 17.8783C16.0313 17.878 16.0334 17.8777 16.0355 17.8774C16.0697 17.8731 16.1037 17.8671 16.1373 17.8593C16.1404 17.8586 16.1436 17.8577 16.1467 17.8569C16.1797 17.849 16.2126 17.8395 16.2455 17.8284C16.2492 17.8272 16.2529 17.8258 16.2566 17.8245C16.289 17.8133 16.3213 17.8005 16.3537 17.7863L16.3651 17.7812C16.3974 17.7667 16.4296 17.7508 16.4616 17.7335C16.4652 17.7316 16.4688 17.7297 16.4723 17.7278C16.5048 17.71 16.5371 17.6909 16.5693 17.6705C16.5721 17.6686 16.5751 17.6669 16.5779 17.6651C16.6111 17.6438 16.644 17.6212 16.6766 17.5974C16.6784 17.5961 16.6802 17.5949 16.6819 17.5936C16.7162 17.5685 16.7502 17.542 16.7839 17.5143C17.4148 16.9951 17.729 16.4912 17.1306 15.8038L14.3867 12.7529Z" fill="currentColor"/>
</svg>
