<svg width="24" height="24" viewBox="0 0 24 24" fill="currentColor" xmlns="http://www.w3.org/2000/svg">
<path fill-rule="evenodd" clip-rule="evenodd" d="M14.2888 11.1903C14.6454 11.3662 15.0771 11.2198 15.2531 10.8632C15.5014 10.3613 15.6299 9.80871 15.6284 9.24879C15.6284 7.23466 13.9898 5.59599 11.9756 5.59599C9.96144 5.59599 8.32283 7.23458 8.32283 9.24879C8.32246 9.6742 8.39654 10.0964 8.54174 10.4963L8.53747 10.4979C8.80352 11.1026 8.80288 11.7913 8.53572 12.3955L8.53915 12.3966C8.1237 13.4111 8.60188 14.5711 9.61163 14.9982C10.6214 15.4253 11.7868 14.9605 12.2255 13.9557C12.6641 12.951 12.2128 11.7803 11.2131 11.3301C11.2011 11.3242 11.1888 11.3187 11.1763 11.3135L11.1651 11.3087L11.1627 11.3076C10.1253 10.8981 9.55477 9.78067 9.83135 8.70026C10.1079 7.61985 11.1452 6.91405 12.2517 7.05336C13.3583 7.19267 14.1882 8.13356 14.1884 9.24881C14.1895 9.58772 14.1118 9.92226 13.9616 10.2261C13.8771 10.3973 13.8641 10.5951 13.9255 10.776C13.9869 10.9568 14.1176 11.1058 14.2888 11.1903ZM16.3746 4.6644C14.8925 3.18244 12.7804 2.51707 10.7165 2.88196C8.65255 3.24684 6.89659 4.59604 6.01243 6.49634C5.84663 6.85643 6.0031 7.2828 6.36246 7.45016C6.72182 7.61752 7.14886 7.46291 7.31779 7.10429C8.13502 5.34721 9.89717 4.22363 11.835 4.22402C14.581 4.22402 16.815 6.45804 16.815 9.20402C16.8163 10.1496 16.5473 11.0758 16.0398 11.8736L10.4523 19.1195C10.4491 19.1236 10.4462 19.1278 10.4432 19.1319C9.93753 19.7191 9.11998 19.9298 8.39351 19.6602C7.66705 19.3905 7.185 18.6974 7.185 17.9225V16.5262C7.185 16.1285 6.86264 15.8062 6.465 15.8062C6.06735 15.8062 5.745 16.1285 5.745 16.5262V17.9225C5.745 19.7385 7.22248 21.216 9.03854 21.216C10.0283 21.2176 10.9659 20.7725 11.5904 20.0047C11.6065 19.985 11.6216 19.9644 11.6356 19.9431L17.2004 12.7263C17.2019 12.7245 17.2031 12.7225 17.2046 12.7207C17.2077 12.7165 17.2108 12.7122 17.2139 12.7079C17.2199 12.6996 17.2257 12.6912 17.2313 12.6828C17.2326 12.6807 17.2342 12.6787 17.2355 12.6766C17.2374 12.6738 17.2391 12.6709 17.2409 12.6681L17.2433 12.6645C18.8677 10.1245 18.5063 6.7965 16.3746 4.6644Z" fill="currentColor"/>
</svg>
