<svg width="24" height="24" viewBox="0 0 24 24" fill="currentColor" xmlns="http://www.w3.org/2000/svg">
<path fill-rule="evenodd" clip-rule="evenodd" d="M9.21207 8.06953L9.98439 8.84219L10.4841 9.34208C10.6014 9.45873 10.7908 9.45873 10.9081 9.34208C11.0247 9.22473 11.0247 9.03526 10.9081 8.91791L10.4272 8.43676L9.63608 7.64536C9.51881 7.52871 9.32934 7.52871 9.21207 7.64536C9.09547 7.76271 9.09547 7.95218 9.21207 8.06953ZM8.36406 8.91791L9.12898 9.68315L9.63608 10.1904C9.75334 10.3071 9.94283 10.3071 10.0601 10.1904C10.1767 10.0731 10.1767 9.88359 10.0601 9.76624L9.55167 9.25763L8.78806 8.49361C8.67079 8.37697 8.48133 8.37697 8.36406 8.49361C8.24738 8.61098 8.24738 8.80054 8.36406 8.91791ZM7.51604 9.76626L8.31306 10.5636L8.78806 11.0388C8.90533 11.1555 9.0948 11.1555 9.21207 11.0388C9.32867 10.9215 9.32867 10.732 9.21207 10.6146L8.71604 10.1184L7.94005 9.34211C7.82279 9.22544 7.6333 9.22544 7.51604 9.34211C7.39945 9.45945 7.39945 9.64891 7.51604 9.76626ZM19.215 4.79936C16.6391 2.22241 11.3237 3.36188 7.34286 7.34444C3.53406 11.1547 2.32686 16.1867 4.4852 18.8718C4.5833 18.994 4.68794 19.1107 4.79866 19.2216C4.8429 19.2658 4.88796 19.3089 4.93383 19.3509C7.55679 21.7584 12.7583 20.5906 16.6709 16.6764C20.6519 12.6939 21.7909 7.37632 19.215 4.79936ZM8.19075 8.19282C10.3847 5.99795 12.9857 4.72962 15.143 4.60015C15.1614 4.59917 15.1778 4.61164 15.1818 4.62964C15.1857 4.64764 15.1761 4.66587 15.1589 4.67267C13.8557 5.18161 12.3927 6.05603 10.9309 7.22881C10.9261 7.23262 10.9192 7.23225 10.9149 7.22795L10.4841 6.797C10.3669 6.68033 10.1774 6.68033 10.0601 6.797C9.94351 6.91436 9.94351 7.10383 10.0601 7.22118L10.4576 7.61884L10.88 8.04124L11.3322 8.49364C11.4495 8.61031 11.639 8.61031 11.7562 8.49364C11.8728 8.37629 11.8728 8.18681 11.7562 8.06946L11.3528 7.66604C11.3503 7.66363 11.3491 7.66029 11.3493 7.65687C11.3494 7.65345 11.3511 7.65027 11.3538 7.64814C13.1749 6.17857 14.9677 5.19155 16.3798 4.84729C16.678 4.77476 16.9915 4.79995 17.2743 4.91915C17.6825 5.08845 18.0537 5.33596 18.3669 5.64774C18.5958 5.87706 18.79 6.1385 18.9435 6.42383C19.1023 6.72138 19.1489 7.06612 19.0746 7.39513C18.6479 9.32658 16.9729 12.0122 14.4786 14.5073C12.0123 16.9745 9.35998 18.6406 7.43434 19.0903C7.10471 19.1685 6.75795 19.1253 6.45754 18.9687C6.15875 18.8123 5.88537 18.6115 5.6467 18.3732C5.3183 18.0426 5.06128 17.6481 4.89154 17.2141C4.7826 16.937 4.76421 16.6325 4.83901 16.3443C5.18955 14.9718 6.13446 13.2507 7.53039 11.4963C7.53252 11.4936 7.5357 11.492 7.53912 11.4918C7.54255 11.4916 7.5459 11.4928 7.54832 11.4953L7.94005 11.8872C8.05731 12.0039 8.2468 12.0039 8.36406 11.8872C8.48065 11.7699 8.48065 11.5804 8.36406 11.463L7.92032 11.019L7.49857 10.5971L7.09203 10.1904C6.97476 10.0738 6.78529 10.0738 6.66802 10.1904C6.55141 10.3078 6.55141 10.4973 6.66802 10.6146L7.11039 11.0571C7.11466 11.0615 7.11504 11.0683 7.11128 11.073C6.00512 12.4717 5.1734 13.8675 4.67475 15.1197C4.66791 15.1368 4.64959 15.1464 4.63158 15.1423C4.61357 15.1382 4.60123 15.1216 4.6024 15.1032C4.74639 12.954 6.01186 10.3726 8.19075 8.19282ZM8.75365 19.4267C8.70896 19.4285 8.66947 19.3978 8.66019 19.3541C8.65092 19.3103 8.67457 19.2662 8.71616 19.2498C10.6064 18.5104 12.8323 17.0028 14.9027 14.9315C16.9969 12.8365 18.5147 10.5823 19.2443 8.67743C19.2605 8.63571 19.3044 8.61175 19.3482 8.62075C19.392 8.62976 19.4229 8.66908 19.4214 8.71379C19.3467 10.9022 18.071 13.5789 15.8228 15.8281C13.5891 18.0628 10.9333 19.3372 8.75365 19.4267Z" fill="currentColor"/>
</svg>
