<svg width="24" height="24" viewBox="0 0 24 24" fill="currentColor" xmlns="http://www.w3.org/2000/svg">
<path fill-rule="evenodd" clip-rule="evenodd" d="M21.6 2.39999H2.40005C2.06868 2.39999 1.80005 2.66862 1.80005 2.99999V3.59999C1.80005 3.93136 2.06868 4.19999 2.40005 4.19999V16.8C2.40005 17.1314 2.66868 17.4 3.00005 17.4H21C21.3314 17.4 21.6 17.1314 21.6 16.8V4.19999C21.9314 4.19999 22.2001 3.93136 22.2001 3.59999V2.99999C22.2001 2.66862 21.9314 2.39999 21.6 2.39999ZM20.4 16.2H3.60005V4.19999H20.4V16.2ZM14.4 21H12.6V18H11.4V21H9.60005C9.26868 21 9.00005 21.2686 9.00005 21.6V22.2H15V21.6C15 21.2686 14.7314 21 14.4 21ZM12 8.39999V7.19999H18V8.39999H12ZM12 10.2V8.99999H19.2001V10.2H12ZM12 12V10.8H18V12H12ZM9.92136 7.47868C8.90933 6.46666 7.32334 6.31046 6.13333 7.10561C4.94331 7.90076 4.4807 9.4258 5.02842 10.7481C5.57613 12.0703 6.98161 12.8216 8.38533 12.5424C9.78906 12.2631 10.8001 11.0312 10.8001 9.59999C10.8022 8.80391 10.4858 8.04005 9.92136 7.47868ZM7.80005 9.59999V7.19999C8.81436 7.20003 9.71922 7.8375 10.0607 8.79261L7.80005 9.59999Z" fill="currentColor"/>
</svg>
