<svg width="24" height="24" viewBox="0 0 24 24" fill="currentColor" xmlns="http://www.w3.org/2000/svg">
<path fill-rule="evenodd" clip-rule="evenodd" d="M16.8012 1.8H7.19882C6.88072 1.8 6.5757 1.92667 6.35088 2.15171C6.12606 2.37676 5.99984 2.6819 6 3V21C5.99967 21.6624 6.53637 22.1997 7.19878 22.2H16.8012C17.1193 22.2 17.4243 22.0733 17.6491 21.8483C17.8739 21.6232 18.0002 21.3181 18 21V3C18.0003 2.3376 17.4636 1.80034 16.8012 1.8ZM11.1 2.4H12.9C13.0657 2.4 13.2 2.53431 13.2 2.7C13.2 2.86569 13.0657 3 12.9 3H11.1C10.9343 3 10.8 2.86569 10.8 2.7C10.8 2.53431 10.9343 2.4 11.1 2.4ZM12 21.6C11.6686 21.6 11.4 21.3314 11.4 21C11.4 20.6686 11.6686 20.4 12 20.4C12.3314 20.4 12.6 20.6686 12.6 21C12.6 21.3314 12.3314 21.6 12 21.6ZM16.8 19.8H7.2V3.6H16.8V19.8ZM14.1 10.2H13.8V9C13.8 8.00589 12.9941 7.2 12 7.2C11.0059 7.2 10.2 8.00589 10.2 9V10.2H9V14.7C9 15.1971 9.40294 15.6 9.9 15.6H15V11.1C15 10.6029 14.5971 10.2 14.1 10.2ZM12.3281 12.8808L12.48 14.4H11.52L11.6719 12.8808C11.3758 12.7292 11.2221 12.3945 11.3001 12.0712C11.378 11.7478 11.6674 11.5199 12 11.5199C12.3326 11.5199 12.622 11.7478 12.6999 12.0712C12.7779 12.3945 12.6242 12.7292 12.3281 12.8808ZM13.08 10.2H10.92V9C10.92 8.40353 11.4035 7.92 12 7.92C12.5965 7.92 13.08 8.40353 13.08 9V10.2Z" fill="currentColor"/>
</svg>
