<svg width="24" height="24" viewBox="0 0 24 24" fill="currentColor" xmlns="http://www.w3.org/2000/svg">
<path fill-rule="evenodd" clip-rule="evenodd" d="M19.7957 7.21143H4.19572C2.87572 7.21143 1.79572 8.29143 1.79572 9.61143V14.4114C1.79572 15.7314 2.87572 16.8114 4.19572 16.8114H6.59572V19.8114L9.59572 16.8114H19.7957C21.1157 16.8114 22.1957 15.7314 22.1957 14.4114V9.61143C22.1957 8.29143 21.1157 7.21143 19.7957 7.21143ZM6.10681 13.4265L4.81192 14.3697C4.73739 14.424 4.63637 14.424 4.56177 14.3699C4.48717 14.3157 4.45597 14.2196 4.48451 14.1319L4.98085 12.6079L3.68387 11.6667C3.60927 11.6126 3.57805 11.5165 3.60655 11.4289C3.63505 11.3412 3.71678 11.2819 3.80896 11.2819L5.41093 11.2834L5.90452 9.75859C5.93292 9.67087 6.01463 9.61145 6.10684 9.61145C6.19904 9.61145 6.28075 9.67087 6.30916 9.75859L6.80272 11.2833L8.40469 11.2818C8.49687 11.2818 8.5786 11.3411 8.6071 11.4288C8.6356 11.5164 8.60438 11.6125 8.52978 11.6666L7.2328 12.6078L7.72914 14.1318C7.75768 14.2195 7.72648 14.3156 7.65188 14.3698C7.57727 14.4239 7.47626 14.4239 7.40173 14.3696L6.10681 13.4265ZM14.4036 11.6666L13.1066 12.6078L13.603 14.1318C13.6315 14.2195 13.6003 14.3156 13.5257 14.3698C13.4511 14.4239 13.3501 14.4239 13.2756 14.3696L11.9807 13.4264L10.6858 14.3696C10.6112 14.4239 10.5102 14.4239 10.4356 14.3698C10.361 14.3156 10.3298 14.2195 10.3584 14.1318L10.8547 12.6078L9.55772 11.6666C9.48313 11.6125 9.4519 11.5164 9.4804 11.4288C9.5089 11.3411 9.59063 11.2818 9.68281 11.2818L11.2848 11.2833L11.7783 9.75859C11.8068 9.67087 11.8885 9.61145 11.9807 9.61145C12.0729 9.61145 12.1546 9.67087 12.183 9.75859L12.6765 11.2833L14.2785 11.2818C14.3707 11.2818 14.4524 11.3411 14.4809 11.4288C14.5094 11.5164 14.4782 11.6125 14.4036 11.6666ZM20.3076 11.6666L19.0106 12.6078L19.507 14.1318C19.5355 14.2195 19.5043 14.3156 19.4297 14.3698C19.3551 14.4239 19.2541 14.4239 19.1796 14.3696L17.8847 13.4264L16.5898 14.3696C16.5152 14.4239 16.4142 14.4239 16.3396 14.3698C16.265 14.3156 16.2338 14.2195 16.2624 14.1318L16.7587 12.6078L15.4617 11.6666C15.3871 11.6125 15.3559 11.5164 15.3844 11.4288C15.4129 11.3411 15.4946 11.2818 15.5868 11.2818L17.1888 11.2833L17.6823 9.75859C17.7108 9.67087 17.7925 9.61145 17.8847 9.61145C17.9769 9.61145 18.0586 9.67087 18.087 9.75859L18.5805 11.2833L20.1825 11.2818C20.2747 11.2818 20.3564 11.3411 20.3849 11.4288C20.4134 11.5164 20.3822 11.6125 20.3076 11.6666Z" fill="currentColor"/>
</svg>
