<svg width="24" height="24" viewBox="0 0 24 24" fill="currentColor" xmlns="http://www.w3.org/2000/svg">
<path fill-rule="evenodd" clip-rule="evenodd" d="M20.4 2.3999H3.6C2.93726 2.3999 2.4 2.93716 2.4 3.5999V20.3999C2.4 21.0626 2.93726 21.5999 3.6 21.5999H20.4C21.0627 21.5999 21.6 21.0626 21.6 20.3999V3.5999C21.6 2.93716 21.0627 2.3999 20.4 2.3999ZM12 19.7999C7.69217 19.7999 4.2 16.3078 4.2 11.9999C4.2 7.69205 7.69219 4.1999 12 4.1999C16.3078 4.1999 19.8 7.69209 19.8 11.9999C19.8 16.3077 16.308 19.7999 12 19.7999ZM9.6 11.9999C9.6 12.994 8.79411 13.7999 7.8 13.7999C6.80589 13.7999 6 12.994 6 11.9999C6 11.0058 6.80589 10.1999 7.8 10.1999C8.79411 10.1999 9.6 11.0058 9.6 11.9999ZM18 11.9999C18 12.994 17.1941 13.7999 16.2 13.7999C15.2059 13.7999 14.4 12.994 14.4 11.9999C14.4 11.0058 15.2059 10.1999 16.2 10.1999C17.1941 10.1999 18 11.0058 18 11.9999ZM12 5.9999C12.6627 5.9999 13.2 6.53716 13.2 7.1999C13.2 7.86264 12.6627 8.3999 12 8.3999C11.3373 8.3999 10.8 7.86264 10.8 7.1999C10.8008 6.53747 11.3376 6.00066 12 5.9999ZM12 5.3999C11.0059 5.3999 10.2 6.20579 10.2 7.1999C10.2 8.19402 11.0059 8.9999 12 8.9999C12.9941 8.9999 13.8 8.19402 13.8 7.1999C13.8 6.20579 12.9941 5.3999 12 5.3999Z" fill="currentColor"/>
</svg>
