<svg width="24" height="24" viewBox="0 0 24 24" fill="currentColor" xmlns="http://www.w3.org/2000/svg">
<path fill-rule="evenodd" clip-rule="evenodd" d="M20.8752 17.7567C20.5749 17.5307 20.3988 17.1763 20.4 16.8004V7.79952C20.3988 7.42365 20.5749 7.06922 20.8752 6.84323C21.4413 6.42173 21.7087 5.70831 21.5593 5.01858C21.4099 4.32885 20.8711 3.79011 20.1814 3.64069C19.4916 3.49127 18.7782 3.75875 18.3567 4.3248C18.1308 4.62514 17.7763 4.80127 17.4005 4.8H16.5499C16.0737 4.80073 15.6423 4.51908 15.4515 4.08278C15.1115 3.30046 14.2692 2.8641 13.4341 3.03765C12.5989 3.2112 12.0002 3.94701 12 4.8C11.9999 3.94701 11.4012 3.2112 10.566 3.03765C9.73089 2.8641 8.88859 3.30046 8.54863 4.08278C8.35778 4.51908 7.92643 4.80073 7.45022 4.8H6.59964C6.22377 4.80127 5.86934 4.62514 5.64336 4.3248C5.22187 3.75875 4.50845 3.49127 3.81872 3.64069C3.12899 3.79011 2.59023 4.32885 2.44079 5.01858C2.29135 5.70831 2.55881 6.42173 3.12484 6.84323C3.42519 7.06922 3.60132 7.42365 3.60004 7.79952V16.8004C3.60132 17.1763 3.42519 17.5307 3.12484 17.7567C2.55888 18.1782 2.29147 18.8916 2.44091 19.5813C2.59036 20.271 3.12907 20.8097 3.81876 20.9591C4.50844 21.1086 5.22183 20.8412 5.64336 20.2752C5.86933 19.9749 6.22376 19.7987 6.59961 19.8H17.4005C17.7763 19.7987 18.1308 19.9749 18.3567 20.2752C18.7783 20.8412 19.4916 21.1086 20.1813 20.9591C20.871 20.8097 21.4097 20.271 21.5592 19.5813C21.7086 18.8916 21.4412 18.1782 20.8752 17.7567ZM13.3498 17.9044C13.081 18.1598 12.1491 17.9178 11.2133 16.9791C10.2775 16.0403 10.0332 15.1268 10.291 14.8354C10.802 14.3256 10.7795 14.2287 11.1821 14.7311C11.5847 15.2336 11.5578 15.2026 11.1596 15.6022C11.0009 15.7614 11.3322 16.1642 11.6789 16.5119C12.0256 16.8597 12.4269 17.1922 12.5856 17.0331C12.9821 16.6353 12.953 16.6066 13.4536 17.0106C13.9542 17.4146 13.9034 17.3783 13.3498 17.9044ZM18.6 16.8C18.6 17.4627 18.0628 18 17.4 18H16.2V15.6H16.1863C16.0785 14.42 15.3467 13.3883 14.2687 12.8965C12.9962 14.1012 11.004 14.1012 9.73152 12.8965C8.65352 13.3883 7.92168 14.42 7.8138 15.6H7.80004V18H5.40004V7.8C5.40004 7.13725 5.9373 6.59999 6.60004 6.59999H18.6V16.8ZM14.7 10.5C14.7 11.9912 13.4912 13.2 12 13.2C10.5089 13.2 9.30004 11.9912 9.30004 10.5C9.30004 9.00883 10.5089 7.8 12 7.8C13.4912 7.8 14.7 9.00883 14.7 10.5Z" fill="currentColor"/>
</svg>
