<svg width="24" height="24" viewBox="0 0 24 24" fill="currentColor" xmlns="http://www.w3.org/2000/svg">
<path fill-rule="evenodd" clip-rule="evenodd" d="M19.8 18.6C19.7981 19.2619 19.2619 19.7981 18.6 19.8H17.4C17.0686 19.8 16.8 20.0686 16.8 20.4C16.8 20.7314 17.0686 21 17.4 21H18.6099C19.9245 21 21 19.9245 21 18.6099V17.4C21 17.0686 20.7314 16.8 20.4 16.8C20.0686 16.8 19.8 17.0686 19.8 17.4V18.6ZM12 16.44C11.7655 16.44 11.5525 16.3034 11.4547 16.0903L11.1747 15.4805C9.25034 15.6243 7.8 16.2611 7.8 17.025C7.8 17.8949 9.6804 18.6 12 18.6C14.3196 18.6 16.2 17.8949 16.2 17.025C16.2 16.2611 14.7497 15.6243 12.8253 15.4805L12.5453 16.0903C12.4475 16.3034 12.2345 16.44 12 16.44ZM15.36 6.6H8.64C8.17663 6.60132 7.80132 6.97663 7.8 7.44V12.36C7.80132 12.8234 8.17663 13.1987 8.64 13.2H10.788L11.8217 15.4515L12 15.84L12.1783 15.4515L13.212 13.2H15.36C15.8234 13.1987 16.1987 12.8234 16.2 12.36V7.44C16.1987 6.97663 15.8234 6.60132 15.36 6.6ZM18.6 4.2C19.2619 4.20194 19.7981 4.73806 19.8 5.4V6.6C19.8 6.93137 20.0686 7.2 20.4 7.2C20.7314 7.2 21 6.93137 21 6.6V5.39006C21 4.07554 19.9245 3 18.6099 3H17.4C17.0686 3 16.8 3.26863 16.8 3.6C16.8 3.93137 17.0686 4.2 17.4 4.2H18.6ZM5.4 19.8C4.73806 19.7981 4.20194 19.2619 4.2 18.6V17.4C4.2 17.0686 3.93137 16.8 3.6 16.8C3.26863 16.8 3 17.0686 3 17.4V18.6099C3 19.9245 4.07554 21 5.39006 21H6.6C6.93137 21 7.2 20.7314 7.2 20.4C7.2 20.0686 6.93137 19.8 6.6 19.8H5.4ZM4.2 5.4C4.20194 4.73806 4.73806 4.20194 5.4 4.2H6.6C6.93137 4.2 7.2 3.93137 7.2 3.6C7.2 3.26863 6.93137 3 6.6 3H5.39006C4.07554 3 3 4.07554 3 5.39006V6.6C3 6.93137 3.26863 7.2 3.6 7.2C3.93137 7.2 4.2 6.93137 4.2 6.6V5.4Z" fill="currentColor"/>
</svg>
