<svg width="24" height="24" viewBox="0 0 24 24" fill="currentColor" xmlns="http://www.w3.org/2000/svg">
<path fill-rule="evenodd" clip-rule="evenodd" d="M12 1.79999C6.36668 1.79999 1.79999 6.36668 1.79999 12C1.79999 17.6333 6.36668 22.2 12 22.2C17.6333 22.2 22.2 17.6333 22.2 12C22.2 6.36668 17.6333 1.79999 12 1.79999ZM12 19.8C7.69216 19.8 4.19999 16.3078 4.19999 12C4.19999 7.69218 7.69216 4.19999 12 4.19999C16.3078 4.19999 19.8 7.69216 19.8 12C19.8 16.3078 16.3078 19.8 12 19.8ZM6.62399 10.7929L9.48282 13.3341L8.52988 17.1459L12.024 15.24L15.5181 17.1459L14.5652 13.3341L17.424 10.7929L13.6122 10.1576L12.024 6.8541L10.4358 10.1576L6.62399 10.7929Z" fill="currentColor"/>
</svg>
