<svg width="24" height="24" viewBox="0 0 24 24" fill="currentColor" xmlns="http://www.w3.org/2000/svg">
<path d="M12.5929 7.79429V4.19429C12.5929 3.86292 12.3242 3.59429 11.9929 3.59429H5.99287C5.6615 3.59429 5.39287 3.86292 5.39287 4.19429V7.79429C5.39287 8.12566 5.6615 8.39429 5.99287 8.39429H11.9929C12.3242 8.39429 12.5929 8.12566 12.5929 7.79429ZM20.9929 13.7943V10.1943C20.9929 9.86292 20.7242 9.59429 20.3929 9.59429H5.99287C5.6615 9.59429 5.39287 9.86292 5.39287 10.1943V13.7943C5.39287 14.1257 5.6615 14.3943 5.99287 14.3943H20.3929C20.7242 14.3943 20.9929 14.1257 20.9929 13.7943ZM16.7929 19.7943V16.1943C16.7929 15.8629 16.5242 15.5943 16.1929 15.5943H5.99287C5.6615 15.5943 5.39287 15.8629 5.39287 16.1943V19.7943C5.39287 20.1257 5.6615 20.3943 5.99287 20.3943H16.1929C16.5242 20.3943 16.7929 20.1257 16.7929 19.7943ZM4.19287 20.9943V2.99429C4.19287 2.66292 3.92424 2.39429 3.59287 2.39429C3.2615 2.39429 2.99287 2.66292 2.99287 2.99429V20.9943C2.99287 21.3257 3.2615 21.5943 3.59287 21.5943C3.92424 21.5943 4.19287 21.3257 4.19287 20.9943Z" fill="currentColor"/>
</svg>
