<svg width="24" height="24" viewBox="0 0 24 24" fill="currentColor" xmlns="http://www.w3.org/2000/svg">
<path fill-rule="evenodd" clip-rule="evenodd" d="M15 1.80005V5.40005C15 6.06279 15.4776 6.60005 16.0666 6.60005H19.8L15 1.80005ZM12.3 17.4H12.6V18.6H11.4V17.4H12.3ZM11.7 16.8H7.8V13.2H11.7V16.8ZM9 18.6H7.8V17.4H9V18.6ZM10.8 18.6H9.6V17.4H10.8V18.6ZM14.4 18.6H13.2V17.4H14.4V18.6ZM16.2 18.6H15V17.4H16.2V18.6ZM12.3 13.2H16.2V16.8H12.3V13.2ZM16.2 12.6H15V11.4H16.2V12.6ZM16.2 7.80005C14.8745 7.80005 13.8 6.72553 13.8 5.40005V1.80005H4.2V21C4.2 21.6628 4.73728 22.2001 5.4 22.2001H19.8V7.80005H16.2ZM16.8 19.2001H7.8C7.46863 19.2001 7.2 18.9314 7.2 18.6V10.8H16.2C16.5314 10.8 16.8 11.0687 16.8 11.4V19.2001ZM13.2 11.4H14.4V12.6H13.2V11.4ZM11.7 12.6H11.4V11.4H12.6V12.6H11.7ZM9.6 11.4H10.8V12.6H9.6V11.4ZM7.8 11.4H9V12.6H7.8V11.4Z" fill="currentColor"/>
</svg>
