<svg width="24" height="24" viewBox="0 0 24 24" fill="currentColor" xmlns="http://www.w3.org/2000/svg">
<path fill-rule="evenodd" clip-rule="evenodd" d="M21 4.2H3C2.34 4.2 1.8 4.752 1.8 5.412V16.812C1.8 17.472 2.34 18 3 18H4.8V19.8H19.2V18H21C21.66 18 22.2 17.472 22.2 16.812V5.412C22.2 4.752 21.66 4.2 21 4.2ZM12 18.9C11.6686 18.9 11.4 18.6314 11.4 18.3C11.4 17.9686 11.6686 17.7 12 17.7C12.3314 17.7 12.6 17.9686 12.6 18.3C12.6 18.6314 12.3314 18.9 12 18.9ZM21 16.8H3V5.4H21V16.8Z" fill="currentColor"/>
</svg>
