<svg width="24" height="24" viewBox="0 0 24 24" fill="currentColor" xmlns="http://www.w3.org/2000/svg">
<path fill-rule="evenodd" clip-rule="evenodd" d="M5.49067 9.81284C5.85361 8.33826 7.17529 7.3012 8.69388 7.29942C8.80049 7.29942 8.90861 7.30465 9.01534 7.315C10.1676 6.01657 11.7513 5.17967 13.4732 4.95928C12.7106 3.84449 11.4656 3.15619 10.1159 3.10326C8.7663 3.05034 7.47118 3.63902 6.62362 4.69067C6.13734 4.58769 5.63021 4.69659 5.22908 4.99013C4.82794 5.28367 4.57073 5.73409 4.52177 6.22873C3.36224 6.37161 2.38099 7.15314 1.98234 8.25133C1.5837 9.34951 1.8351 10.5785 2.63297 11.4319C3.39342 10.6075 4.39259 10.0414 5.49067 9.81284ZM20.8474 13.4912C20.9456 13.0337 20.995 12.5671 20.9949 12.0992C20.9949 8.45437 18.0401 5.49964 14.3952 5.49964H14.3892C14.192 5.49964 13.996 5.50852 13.8012 5.5263C12.019 5.68602 10.3784 6.56394 9.2568 7.95817C9.15984 7.93764 9.06183 7.92247 8.96321 7.91272C8.87266 7.90374 8.78289 7.89929 8.69388 7.89937C7.30606 7.90125 6.1453 8.95412 6.00847 10.3352C3.60298 10.632 1.79606 12.6753 1.79578 15.0991C1.79578 17.7499 3.94471 19.8987 6.59556 19.8987H18.595C20.1229 19.8987 21.4844 18.9343 21.9911 17.4929C22.4978 16.0514 22.0393 14.4471 20.8474 13.4912Z" fill="currentColor"/>
</svg>
