<svg width="24" height="24" viewBox="0 0 24 24" fill="currentColor" xmlns="http://www.w3.org/2000/svg">
<path fill-rule="evenodd" clip-rule="evenodd" d="M12 1.8C6.36668 1.8 1.79999 6.36669 1.79999 12C1.79999 17.6333 6.36668 22.2 12 22.2C17.6333 22.2 22.2 17.6333 22.2 12C22.2 6.36669 17.6333 1.8 12 1.8ZM19.9619 16.2H16.9224C17.1879 15.0915 17.3514 13.8773 17.3907 12.6H20.9804C20.916 13.5993 20.6837 14.5807 20.2932 15.5028C20.1926 15.7408 20.0821 15.9732 19.9619 16.2ZM3.70672 15.5028C3.31624 14.5807 3.08396 13.5993 3.01962 12.6H6.60928C6.64852 13.8773 6.81205 15.0915 7.07756 16.2H4.03806C3.91828 15.9731 3.8078 15.7407 3.70672 15.5028ZM4.03806 7.8H7.07759C6.81208 8.90854 6.64854 10.1228 6.6093 11.4H3.01962C3.08398 10.4007 3.31628 9.4193 3.70676 8.49715C3.80742 8.25918 3.91785 8.0268 4.03806 7.8ZM15.8046 8.292C16.0299 9.31368 16.1589 10.3542 16.1899 11.4H12.6V7.8H15.6853C15.7273 7.96131 15.7671 8.12531 15.8046 8.292ZM12.6 6.6V3.10654C12.8518 3.19548 13.1035 3.33986 13.3529 3.53909C13.8593 3.94375 14.3452 4.56962 14.7578 5.34898C14.9701 5.75315 15.1551 6.17109 15.3114 6.6H12.6ZM10.6471 3.53909C10.8965 3.33989 11.1482 3.19548 11.4 3.10654V6.6H8.68854C8.84492 6.17109 9.02988 5.75315 9.24217 5.34898C9.65476 4.5696 10.1406 3.94375 10.6471 3.53909ZM11.4 7.8V11.4H7.81007C7.84105 10.3542 7.97004 9.31368 8.19534 8.292C8.2327 8.12518 8.27248 7.96118 8.31469 7.8H11.4ZM8.19534 15.708C7.97004 14.6863 7.84105 13.6458 7.81007 12.6H11.4V16.2H8.31469C8.27269 16.0387 8.23291 15.8747 8.19534 15.708ZM11.4 17.4V20.8935C11.1482 20.8045 10.8965 20.6601 10.6471 20.4609C10.1407 20.0562 9.65476 19.4304 9.24217 18.651C9.02988 18.2469 8.84492 17.8289 8.68854 17.4H11.4ZM13.3529 20.4609C13.1035 20.6601 12.8518 20.8045 12.6 20.8935V17.4H15.3114C15.1551 17.8289 14.9701 18.2469 14.7578 18.651C14.3452 19.4304 13.8594 20.0562 13.3529 20.4609ZM12.6 16.2V12.6H16.1899C16.1589 13.6458 16.0299 14.6863 15.8046 15.708C15.7673 15.8748 15.7275 16.0388 15.6853 16.2H12.6ZM17.3907 11.4C17.3515 10.1228 17.1879 8.90854 16.9224 7.8H19.9619C20.0817 8.02693 20.1921 8.25931 20.2931 8.49715C20.6836 9.41929 20.916 10.4006 20.9804 11.4H17.3907ZM18.3639 5.63604C18.6653 5.93731 18.9451 6.25943 19.2013 6.6H16.582C16.1745 5.36899 15.6318 4.31412 14.9932 3.50933C15.1646 3.56982 15.3344 3.63564 15.5028 3.70678C16.5724 4.15866 17.5441 4.81386 18.3639 5.63604ZM8.49714 3.70678C8.66543 3.63559 8.83529 3.56978 9.00673 3.50933C8.36816 4.31412 7.82548 5.36899 7.41793 6.6H4.79869C5.05484 6.25943 5.33464 5.93731 5.63603 5.63604C6.4559 4.81387 7.42758 4.15866 8.49714 3.70678ZM5.63603 18.364C5.33464 18.0627 5.05484 17.7406 4.79869 17.4H7.41798C7.82548 18.631 8.36816 19.6859 9.00678 20.4907C8.83537 20.4302 8.6655 20.3643 8.49716 20.2932C7.42759 19.8413 6.45591 19.1861 5.63603 18.364ZM15.5028 20.2932C15.3345 20.3644 15.1647 20.4302 14.9932 20.4907C15.6318 19.6859 16.1745 18.631 16.582 17.4H19.2013C18.9451 17.7406 18.6653 18.0627 18.3639 18.364C17.5441 19.1861 16.5724 19.8413 15.5028 20.2932Z" fill="currentColor"/>
</svg>
