<svg width="24" height="24" viewBox="0 0 24 24" fill="currentColor" xmlns="http://www.w3.org/2000/svg">
<path fill-rule="evenodd" clip-rule="evenodd" d="M22.2 7.79998C22.5313 7.79998 22.7999 7.53135 22.7999 7.19998C22.7999 6.8686 22.5313 6.59998 22.2 6.59998H1.79995C1.46858 6.59998 1.19995 6.8686 1.19995 7.19998C1.19995 7.53135 1.46858 7.79998 1.79995 7.79998H3.59995V16.8H1.79995C1.46858 16.8 1.19995 17.0686 1.19995 17.4C1.19995 17.7313 1.46858 18 1.79995 18H22.2C22.5313 18 22.7999 17.7313 22.7999 17.4C22.7999 17.0686 22.5313 16.8 22.2 16.8H20.4V7.79998H22.2ZM6.29995 13.8C5.47152 13.8 4.79995 13.1284 4.79995 12.3C4.79995 11.4715 5.47152 10.8 6.29995 10.8C7.12838 10.8 7.79995 11.4715 7.79995 12.3C7.79995 13.1284 7.12838 13.8 6.29995 13.8ZM19.2 11.1C19.2 11.597 18.797 12 18.2999 12H14.088C13.9223 12 13.788 12.1343 13.788 12.3C13.788 12.4657 13.9223 12.6 14.088 12.6H18.2999C18.797 12.6 19.2 13.0029 19.2 13.5C19.2 13.997 18.797 14.4 18.2999 14.4H11.112C10.9463 14.4 10.812 14.5343 10.812 14.7C10.812 14.8657 10.9463 15 11.112 15H14.388C14.7193 15 14.988 15.2686 14.988 15.6C14.988 15.9313 14.7193 16.2 14.388 16.2H10.212C9.21785 16.2 8.39995 15.3941 8.39995 14.4V10.2C8.39995 9.20587 9.21785 8.39998 10.212 8.39998H14.388C14.7193 8.39998 14.988 8.6686 14.988 8.99998C14.988 9.33135 14.7193 9.59998 14.388 9.59998H11.112C10.9463 9.59998 10.812 9.73429 10.812 9.89998C10.812 10.0657 10.9463 10.2 11.112 10.2H18.2999C18.797 10.2 19.2 10.6029 19.2 11.1Z" fill="currentColor"/>
</svg>
