<svg width="24" height="24" viewBox="0 0 24 24" fill="currentColor" xmlns="http://www.w3.org/2000/svg">
<path fill-rule="evenodd" clip-rule="evenodd" d="M18.0707 11.7624L16.6996 10.6134C16.3829 10.3479 15.9821 10.2035 15.5688 10.2061C13.5741 10.2188 7.42244 10.2025 5.42989 10.1967C5.02268 10.1955 4.62791 10.337 4.31408 10.5964L2.78233 11.8626C2.16581 12.3144 1.80107 13.0327 1.79999 13.797C1.79999 14.3592 1.99813 14.9034 2.35967 15.334H2.35199L2.40848 15.3905C2.47092 15.4607 2.53738 15.5272 2.60752 15.5897L4.80851 17.792C5.2626 18.3052 5.91474 18.5993 6.59999 18.6H14.4C15.148 18.5989 15.8527 18.249 16.3057 17.6537L18.2543 15.7039C18.8494 15.2503 19.199 14.5453 19.1999 13.7971C19.1984 12.9698 18.7719 12.2013 18.0707 11.7624ZM4.19999 14.9978C3.71426 14.9981 3.2762 14.7057 3.09011 14.257C2.90403 13.8084 3.00657 13.2918 3.34993 12.9482C3.69328 12.6047 4.2098 12.5018 4.65858 12.6876C5.10736 12.8734 5.39999 13.3113 5.39999 13.797C5.40019 14.46 4.86293 14.9976 4.19999 14.9978ZM6.89999 17.3992C6.29283 17.3996 5.74524 17.0342 5.51263 16.4733C5.28002 15.9125 5.40821 15.2668 5.83741 14.8373C6.2666 14.4078 6.91226 14.2793 7.47324 14.5115C8.03421 14.7438 8.39999 15.2912 8.39999 15.8983C8.40023 16.727 7.72866 17.399 6.89999 17.3992ZM10.5 17.3992C9.89283 17.3996 9.34524 17.0342 9.11263 16.4733C8.88002 15.9125 9.00821 15.2668 9.43741 14.8373C9.8666 14.4078 10.5123 14.2793 11.0732 14.5115C11.6342 14.7438 12 15.2912 12 15.8983C12.0002 16.727 11.3286 17.3989 10.5 17.3992ZM14.1 17.3992C13.4928 17.3996 12.9452 17.0342 12.7126 16.4733C12.48 15.9125 12.6082 15.2668 13.0374 14.8373C13.4666 14.4078 14.1123 14.2793 14.6732 14.5115C15.2342 14.7438 15.6 15.2912 15.6 15.8983C15.6002 16.7269 14.9286 17.3989 14.1 17.3992ZM16.8 14.9978C16.3143 14.9981 15.8762 14.7057 15.6901 14.257C15.504 13.8084 15.6066 13.2918 15.9499 12.9482C16.2933 12.6047 16.8098 12.5018 17.2586 12.6876C17.7074 12.8734 18 13.3113 18 13.797C18.0002 14.4599 17.4628 14.9974 16.8 14.9978ZM21.8348 7.48714H20.1541C19.9763 7.4878 19.8288 7.62506 19.8154 7.80241C19.8124 7.79683 19.8066 7.79334 19.8002 7.79326H13.8014C13.8007 7.79326 13.8002 7.79269 13.8002 7.79199V7.67775C13.8015 7.38426 13.6334 7.11633 13.3687 6.98972L11.3983 6.0619C11.3009 6.01601 11.1946 5.9922 11.087 5.99216H8.00125C7.94787 5.99216 7.89668 5.97095 7.85894 5.93321C7.82119 5.89546 7.79999 5.84427 7.79999 5.79089V5.10209C7.80214 4.94476 7.68506 4.81123 7.52879 4.7928C7.44462 4.78496 7.36104 4.81287 7.29849 4.86973C7.23594 4.92658 7.20019 5.00713 7.19999 5.09165V5.79413C7.20001 5.90349 7.11139 5.99217 7.00204 5.9922H6.74279C6.33258 5.9922 6.00004 6.33147 6.00004 6.74998V9.20245C6.00004 9.30638 6.04126 9.40606 6.11473 9.47958C6.1882 9.55309 6.28786 9.59444 6.39179 9.59444H13.3477C13.4677 9.59444 13.5828 9.54668 13.6677 9.46175C13.7526 9.37682 13.8002 9.26166 13.8002 9.1416V8.9952C13.8002 8.9945 13.8007 8.99393 13.8014 8.99393H19.8002C19.8057 8.99388 19.8109 8.9912 19.8141 8.98673V8.9928C19.8146 9.18109 19.9671 9.33365 20.1554 9.33425H21.8348C22.023 9.33365 22.1755 9.18109 22.176 8.9928V7.82856C22.1755 7.64028 22.023 7.48775 21.8348 7.48714Z" fill="currentColor"/>
</svg>
