<svg width="24" height="24" viewBox="0 0 24 24" fill="currentColor" xmlns="http://www.w3.org/2000/svg">
<path fill-rule="evenodd" clip-rule="evenodd" d="M20.8483 12.7795C20.9465 12.3221 20.9959 11.8556 20.9957 11.3878C20.9957 7.74319 18.0408 4.7886 14.3957 4.7886C12.3968 4.78683 10.5052 5.69279 9.25364 7.25136C8.49933 7.08543 7.71007 7.25028 7.08524 7.70425C6.4604 8.15823 6.05974 8.85793 5.98446 9.62659C3.62212 9.92686 1.79572 11.9439 1.79572 14.3875C1.79572 17.0381 3.94475 19.1869 6.59572 19.1869H18.5957C20.1236 19.1871 21.4852 18.2226 21.992 16.7812C22.4987 15.3398 22.0402 13.7355 20.8483 12.7795ZM19.5149 13.6551C18.8178 15.337 18.4935 13.5457 17.5238 14.5148C16.5542 15.4844 18.3461 15.809 16.6638 16.5056C14.9815 17.2023 16.0189 15.7063 14.6478 15.7063C13.2764 15.7063 14.3141 17.2023 12.6318 16.5056C10.9496 15.809 12.7413 15.4843 11.7716 14.5148C10.8018 13.5457 10.4775 15.337 9.78076 13.6551C9.08363 11.9731 10.5802 13.0106 10.5802 11.6395C10.5802 10.2683 9.08363 11.3059 9.78076 9.62381C10.4779 7.94177 10.8018 9.73325 11.7716 8.7637C12.7413 7.79415 10.9496 7.4701 12.6318 6.77333C14.3141 6.07656 13.2765 7.57265 14.6478 7.57265C16.0189 7.57265 14.9812 6.07666 16.6638 6.77333C18.3465 7.47 16.5541 7.79424 17.5238 8.7637C18.4935 9.73315 18.8178 7.94187 19.5149 9.62381C20.2117 11.3057 18.7151 10.2683 18.7151 11.6395C18.7151 13.0106 20.2117 11.9731 19.5149 13.6551ZM14.654 9.16656C13.2848 9.16676 12.175 10.2768 12.1752 11.646C12.1753 13.0152 13.2853 14.125 14.6545 14.125C16.0237 14.1249 17.1336 13.0149 17.1336 11.6458C17.1336 10.9882 16.8723 10.3575 16.4073 9.89258C15.9423 9.42763 15.3116 9.16647 14.654 9.16656Z" fill="currentColor"/>
</svg>
