<svg width="24" height="24" viewBox="0 0 24 24" fill="currentColor" xmlns="http://www.w3.org/2000/svg">
<path fill-rule="evenodd" clip-rule="evenodd" d="M6.00001 22.1998C5.0071 22.1969 4.20291 21.3927 4.20001 20.3998V3.5998C4.20291 2.6069 5.0071 1.8027 6.00001 1.7998H18.6V4.1998H19.8V22.1998H6.00001ZM17.4 2.9998H6.00001C5.66904 3.00077 5.40097 3.26883 5.40001 3.5998C5.40097 3.93078 5.66904 4.19884 6.00001 4.1998H17.4V2.9998ZM9.00001 18.5878L8.70001 17.3878L7.50001 17.6878L9.11041 15.3378L9.18071 15.6002C9.24241 15.8308 9.39324 16.0275 9.59998 16.1468C9.80672 16.2662 10.0524 16.2985 10.283 16.2366L10.6952 16.1262L9.00001 18.5878ZM15.3 17.3878L15 18.5878L13.305 16.1262L13.7171 16.2366C13.9476 16.2984 14.1933 16.2661 14.4001 16.1468C14.6068 16.0274 14.7576 15.8308 14.8193 15.6002L14.8897 15.3377L16.5 17.6878L15.3 17.3878ZM16.1121 12.2019L15.4109 12.9031L15.6672 13.8601C15.7101 14.0207 15.6153 14.1857 15.455 14.2295L14.4965 14.4863L14.2397 15.4449C14.1968 15.6049 14.0323 15.6999 13.8723 15.657L12.9137 15.4002L12.212 16.1019C12.0949 16.2191 11.9049 16.2191 11.7878 16.1019L11.0861 15.4002L10.1275 15.657C9.96749 15.6999 9.803 15.6049 9.76012 15.4449L9.50332 14.4863L8.54478 14.2295C8.38448 14.1857 8.2897 14.0206 8.33269 13.8601L8.58908 12.9032L7.88785 12.2019C7.77068 12.084 7.77068 11.8936 7.88785 11.7756L8.58911 11.0744L8.33281 10.1174C8.28989 9.95685 8.3847 9.79179 8.545 9.74798L9.50353 9.49118L9.76033 8.53264C9.80321 8.37261 9.96771 8.27763 10.1277 8.32051L11.0863 8.57731L11.788 7.87562C11.9052 7.75847 12.0951 7.75847 12.2122 7.87562L12.9139 8.5774L13.8724 8.3206C14.0324 8.27773 14.1969 8.3727 14.2398 8.53274L14.4966 9.49128L15.4551 9.74808C15.6154 9.79188 15.7102 9.95697 15.6672 10.1175L15.4109 11.0743L16.1122 11.7756C16.2293 11.8936 16.2293 12.084 16.1121 12.2019ZM12 9.8878C10.8402 9.8878 9.90001 10.828 9.90001 11.9878C9.90001 13.1476 10.8402 14.0878 12 14.0878C13.1598 14.0878 14.1 13.1476 14.1 11.9878C14.0987 10.8286 13.1593 9.88913 12 9.8878ZM12 13.4878C11.1716 13.4878 10.5 12.8162 10.5 11.9878C10.5 11.1594 11.1716 10.4878 12 10.4878C12.8284 10.4878 13.5 11.1594 13.5 11.9878C13.5 12.3856 13.342 12.7672 13.0607 13.0485C12.7794 13.3298 12.3978 13.4878 12 13.4878Z" fill="currentColor"/>
</svg>
