<svg width="24" height="24" viewBox="0 0 24 24" fill="currentColor" xmlns="http://www.w3.org/2000/svg">
<path fill-rule="evenodd" clip-rule="evenodd" d="M12.383 11.801C12.463 11.7998 12.5391 11.8354 12.5895 11.8974C12.6399 11.9595 12.6591 12.0412 12.6416 12.1193L12.0283 14.9103C12.0113 14.9875 12.0302 15.0683 12.0798 15.1299C12.1293 15.1915 12.2041 15.2274 12.2832 15.2274H14.7386C14.839 15.2274 14.9304 15.2849 14.9739 15.3754C15.0174 15.4658 15.0051 15.5732 14.9424 15.6515L11.1804 20.355C11.1327 20.4174 11.0587 20.454 10.9802 20.4542C10.9002 20.4554 10.8241 20.4199 10.7737 20.3578C10.7233 20.2957 10.7041 20.214 10.7216 20.1359L11.3349 17.3449C11.3519 17.2677 11.333 17.1869 11.2834 17.1253C11.2339 17.0637 11.1591 17.0278 11.08 17.0278H8.62457C8.52423 17.0278 8.43278 16.9703 8.38933 16.8798C8.34587 16.7894 8.3581 16.682 8.42079 16.6037L12.1829 11.9002C12.2305 11.8378 12.3045 11.8012 12.383 11.801ZM20.937 11.4035C20.9942 11.0462 21.023 10.6849 21.0229 10.3231C21.0234 6.57448 17.985 3.5352 14.2364 3.53445H14.2305C12.3005 3.53445 10.4621 4.35772 9.177 5.79765C7.64339 5.65897 6.23619 6.65483 5.85689 8.14725C3.49359 8.64974 1.77278 10.7758 1.82539 13.2462C1.87973 15.7977 3.82313 17.8679 6.29112 18.1926C6.46266 18.2144 6.6352 18.1608 6.76431 18.0458C6.89341 17.9308 6.96646 17.7655 6.96463 17.5926C6.96216 17.2934 6.73946 17.0418 6.44275 17.0031C4.53209 16.7526 3.03552 15.1348 3.02426 13.1587C3.01301 11.1798 4.48788 9.50347 6.44616 9.26469L6.92323 9.20649L6.96818 8.75225C7.01712 8.2275 7.27477 7.7444 7.68327 7.41141C8.0249 7.13511 8.45108 6.98453 8.89047 6.98489C8.95479 6.98489 9.01943 6.98809 9.08439 6.99449C9.15494 7.00148 9.22505 7.01235 9.29441 7.02703L9.65515 7.10345L9.88625 6.81605C10.9444 5.49997 12.5422 4.73457 14.2309 4.73474H14.236C15.7179 4.73495 17.1391 5.32385 18.1869 6.3719C19.2346 7.41995 19.8232 8.8413 19.8229 10.3233C19.823 10.7196 19.7811 11.1149 19.698 11.5025L19.6202 11.8651L19.9078 12.0955C20.5652 12.622 20.9479 13.4186 20.9479 14.2609C20.9479 15.7935 19.7057 17.0365 18.1731 17.0366H15.6241C15.465 17.0366 15.3123 17.0999 15.1998 17.2124C15.0873 17.325 15.0241 17.4776 15.0241 17.6368C15.0241 17.7959 15.0873 17.9486 15.1998 18.0611C15.3123 18.1737 15.465 18.2369 15.6241 18.2369H18.1731C20.3647 18.2369 22.1477 16.4537 22.1479 14.2617C22.1515 13.1836 21.714 12.1509 20.937 11.4035Z" fill="currentColor"/>
</svg>
