<svg width="24" height="24" viewBox="0 0 24 24" fill="currentColor" xmlns="http://www.w3.org/2000/svg">
<path fill-rule="evenodd" clip-rule="evenodd" d="M2.40002 11.4V22.2H21.5993V14.4L20.9993 6H19.1993L18.5993 14.4L13.1996 11.4V14.4L7.79983 11.4V14.4L2.40002 11.4ZM17.3995 19.8H18.5995V21H17.3995V19.8ZM17.3995 17.4H18.5995V18.6H17.3995V17.4ZM14.9995 19.8H16.1995V21H14.9995V19.8ZM14.9995 17.4H16.1995V18.6H14.9995V17.4ZM12.5995 19.8H13.7995V21H12.5995V19.8ZM12.5995 17.4H13.7995V18.6H12.5995V17.4ZM10.1995 19.8H11.3995V21H10.1995V19.8ZM10.1995 17.4H11.3995V18.6H10.1995V17.4ZM11.9904 1.8C12.5271 1.79674 13.0371 2.03366 13.3808 2.44589C13.6884 1.75519 14.3434 1.28311 15.096 1.20986C15.8485 1.1366 16.5823 1.47348 17.0174 2.09189C17.5089 1.7715 18.1258 1.71092 18.6703 1.92954C19.2148 2.14817 19.6185 2.61855 19.752 3.18991C20.1825 2.91382 20.7406 2.94087 21.1424 3.25729C21.5441 3.57371 21.7012 4.10997 21.5337 4.59314C21.3661 5.07631 20.9108 5.40022 20.3994 5.40001H11.9997C11.3566 5.40165 10.7615 5.06011 10.4385 4.50401C10.1156 3.94792 10.1138 3.26176 10.4339 2.70401C10.754 2.14626 11.3473 1.80165 11.9904 1.8ZM5.33539 21H4.49724C4.49738 20.9937 4.49774 20.9874 4.49774 20.9811C4.49774 20.4929 4.095 20.0957 3.59998 20.0957V19.2693C4.55856 19.2693 5.33563 20.0357 5.33563 20.9811C5.33563 20.9874 5.33544 20.9937 5.33539 21ZM6.89148 21H6.05359C6.05359 20.9937 6.05383 20.9874 6.05383 20.9811C6.05484 20.3371 5.79565 19.72 5.3351 19.2699C4.87324 18.8134 4.24936 18.5586 3.60002 18.561V17.7347C5.418 17.7347 6.89177 19.1881 6.89177 20.9811C6.89172 20.9874 6.8915 20.9937 6.89148 21ZM8.44769 21H7.60968C7.60968 20.9937 7.60992 20.9874 7.60992 20.9811C7.61097 20.4519 7.50385 19.9282 7.29514 19.442C7.09308 18.9709 6.80105 18.5438 6.43543 18.1847C5.67999 17.4398 4.66091 17.0235 3.60002 17.0264V16.2C6.27742 16.2 8.44786 18.3406 8.44786 20.9811C8.44786 20.9874 8.44771 20.9937 8.44769 21Z" fill="currentColor"/>
</svg>
