<svg width="24" height="24" viewBox="0 0 24 24" fill="currentColor" xmlns="http://www.w3.org/2000/svg">
<path fill-rule="evenodd" clip-rule="evenodd" d="M16.8012 1.80005H7.19882C6.88072 1.80005 6.5757 1.92672 6.35088 2.15176C6.12606 2.3768 5.99984 2.68194 6 3.00005V21C5.99967 21.6625 6.53637 22.1997 7.19878 22.2001H16.8012C17.1193 22.2001 17.4243 22.0734 17.6491 21.8483C17.8739 21.6233 18.0002 21.3182 18 21V3.00005C18.0003 2.33765 17.4636 1.80039 16.8012 1.80005ZM11.1 2.40005H12.9C13.0657 2.40005 13.2 2.53436 13.2 2.70005C13.2 2.86573 13.0657 3.00005 12.9 3.00005H11.1C10.9343 3.00005 10.8 2.86573 10.8 2.70005C10.8 2.53436 10.9343 2.40005 11.1 2.40005ZM7.2 19.8V16.5395L10.4606 19.8H7.2ZM12 21.6C11.6686 21.6 11.4 21.3314 11.4 21C11.4 20.6687 11.6686 20.4 12 20.4C12.3314 20.4 12.6 20.6687 12.6 21C12.6 21.3314 12.3314 21.6 12 21.6ZM11.1394 19.8L7.2 15.8606V12.9395L7.8 13.5395V14.4H8.66057L11.4 17.1395V18H12.2606L14.0606 19.8H11.1394ZM16.8 19.8H14.7394L12.6 17.6606V16.8H11.7394L9 14.0606V13.2H8.13943L7.2 12.2606V9.33948L16.8 18.9395V19.8ZM16.8 18.2606L7.2 8.66062V5.73948L7.8 6.33948V7.20005H8.66057L11.4 9.93948V10.8H12.2606L15 13.5395V14.4H15.8606L16.8 15.3395V18.2606ZM16.8 14.6606L16.2 14.0606V13.2H15.3394L12.6 10.4606V9.60005H11.7394L9 6.86062V6.00005H8.13943L7.2 5.06062V3.60005H8.66057L16.8 11.7395V14.6606ZM16.8 11.0606L9.33943 3.60005H12.2606L15 6.33948V7.20005H15.8606L16.8 8.13948V11.0606ZM16.8 7.46062L16.2 6.86062V6.00005H15.3394L12.9394 3.60005H16.8V7.46062Z" fill="currentColor"/>
</svg>
