<svg width="24" height="24" viewBox="0 0 24 24" fill="currentColor" xmlns="http://www.w3.org/2000/svg">
<path fill-rule="evenodd" clip-rule="evenodd" d="M19.8351 14.8868L19.8033 7.2565C19.7967 6.43244 19.1265 5.76788 18.3024 5.76788C17.4783 5.76788 16.8084 6.43244 16.8018 7.2565L16.7254 9.98442C16.7196 10.0607 16.6667 10.1252 16.593 10.1458C16.5193 10.1664 16.4406 10.1387 16.3961 10.0764L11.4787 3.20643C11.0919 2.66896 10.3438 2.54442 9.80369 2.92758C9.26594 3.31365 9.14123 4.06169 9.52467 4.60134L10.7179 6.26185L12.7793 9.14535L13.1553 9.67131C13.248 9.79758 13.2304 9.97341 13.1145 10.0788C13.0507 10.1345 12.9663 10.1606 12.8821 10.1509C12.798 10.1412 12.7218 10.0964 12.6723 10.0277L12.5101 9.80077L10.2294 6.61064L7.82881 3.27843C7.44196 2.74085 6.69372 2.61631 6.15361 2.99962C5.61586 3.38571 5.49116 4.13376 5.87458 4.67341L8.2754 8.00559L10.251 10.769L10.7128 11.4151C10.8055 11.5413 10.7879 11.7172 10.672 11.8226C10.6082 11.8782 10.5238 11.9044 10.4396 11.8947C10.3555 11.8849 10.2793 11.8402 10.2298 11.7714L9.44449 10.6728L7.7869 8.35443L6.21649 6.15762C5.82966 5.62017 5.0816 5.49564 4.54153 5.87878C4.00373 6.26484 3.87899 7.01289 4.26241 7.55257L5.83282 9.74926L8.26335 13.149L8.27033 13.1587C8.36297 13.285 8.34537 13.4608 8.22953 13.5662C8.16566 13.6219 8.08129 13.6481 7.99713 13.6383C7.91298 13.6286 7.83681 13.5838 7.78733 13.5151L7.57873 13.2233L5.16992 9.85393C4.7831 9.31646 4.03502 9.19192 3.49493 9.57507C2.95723 9.96119 2.83258 10.7092 3.21601 11.2488L8.45065 18.5712C8.48939 18.6253 8.53257 18.676 8.57974 18.7229C8.65705 18.8501 8.73965 18.9753 8.82754 19.0984C10.7395 21.7728 14.459 22.392 17.1354 20.4814C18.9319 19.199 19.896 17.0361 19.8351 14.8868Z" fill="currentColor"/>
</svg>
