<svg width="24" height="24" viewBox="0 0 24 24" fill="currentColor" xmlns="http://www.w3.org/2000/svg">
<path fill-rule="evenodd" clip-rule="evenodd" d="M15 1.80005V5.40005C15 6.06279 15.4776 6.60005 16.0667 6.60005H19.8L15 1.80005ZM16.2 7.80005C14.8745 7.80005 13.8 6.72553 13.8 5.40005V1.80005H4.20001V20.9946C4.20001 20.9964 4.20001 20.9982 4.20001 21C4.20001 21.6628 4.73727 22.2001 5.40001 22.2001H19.8V7.80005H16.2ZM7.80001 15.6H16.2C16.5314 15.6 16.8 15.8687 16.8 16.2C16.8 16.5314 16.5314 16.8 16.2 16.8H7.80001C7.46864 16.8 7.20001 16.5314 7.20001 16.2C7.20001 15.8687 7.46864 15.6 7.80001 15.6ZM7.80001 12.6H16.2C16.5314 12.6 16.8 12.8687 16.8 13.2C16.8 13.5314 16.5314 13.8 16.2 13.8H7.80001C7.46864 13.8 7.20001 13.5314 7.20001 13.2C7.20001 12.8687 7.46864 12.6 7.80001 12.6ZM7.80001 18.6H12C12.3314 18.6 12.6 18.8687 12.6 19.2001C12.6 19.5314 12.3314 19.8 12 19.8H7.80001C7.46864 19.8 7.20001 19.5314 7.20001 19.2001C7.20001 18.8687 7.46864 18.6 7.80001 18.6ZM9.60913 3.18185C9.61257 3.06055 9.57189 2.94212 9.49463 2.84854C9.42092 2.75873 9.30966 2.7083 9.19355 2.71205C9.07428 2.70725 8.95954 2.75806 8.88294 2.84959C8.8054 2.94266 8.76433 3.06075 8.76738 3.18185V3.68345C8.32072 3.78079 7.96452 3.95432 7.69878 4.20403C7.58385 4.31664 7.48439 4.44402 7.40303 4.58282C7.3229 4.7203 7.26191 4.86806 7.22173 5.02202C7.18093 5.17637 7.16026 5.33535 7.16024 5.49499C7.16064 5.69312 7.20062 5.88918 7.27784 6.07164C7.35385 6.2564 7.46759 6.42325 7.61178 6.56153C7.73861 6.68607 7.88887 6.78425 8.05386 6.85039C8.21144 6.91177 8.44644 6.98617 8.75884 7.07359C9.16167 7.19071 9.42812 7.28312 9.55818 7.35082C9.74336 7.4495 9.83596 7.59125 9.83598 7.77605C9.83598 7.96512 9.76249 8.11184 9.61549 8.21621C9.46404 8.322 9.28285 8.37685 9.09815 8.37281C8.94549 8.37281 8.73417 8.3326 8.46419 8.25218L8.002 8.09558C7.90684 8.06497 7.8072 8.05066 7.70728 8.05327C7.55036 8.05327 7.41856 8.12099 7.31185 8.25643C7.20855 8.38228 7.15199 8.54001 7.15177 8.70283C7.15177 9.00619 7.3744 9.24321 7.81964 9.41388C8.12488 9.52356 8.44381 9.5905 8.76738 9.61279V10.1144C8.76433 10.2355 8.8054 10.3536 8.88294 10.4466C8.95954 10.5382 9.07428 10.589 9.19355 10.5842C9.32358 10.5842 9.42536 10.539 9.49888 10.4488C9.57396 10.3538 9.61301 10.2354 9.60913 10.1144V9.55999C10.1278 9.43868 10.5158 9.23058 10.7731 8.9357C11.0629 8.60559 11.2078 8.19858 11.2078 7.71468C11.2078 7.40428 11.1516 7.14364 11.0392 6.93276C10.9266 6.72158 10.763 6.5419 10.5632 6.41006C10.3583 6.27246 10.1039 6.15219 9.80003 6.04925C9.58376 5.96885 9.34064 5.89125 9.07067 5.81645C8.91376 5.77415 8.7876 5.71913 8.69219 5.6514C8.59678 5.58367 8.54908 5.4828 8.54908 5.34878C8.56319 5.20488 8.63599 5.09237 8.76748 5.01125C8.89517 4.9312 9.04294 4.88901 9.19364 4.88957C9.35351 4.8929 9.51176 4.9222 9.66222 4.97633C9.7004 4.98764 9.76048 5.00634 9.84246 5.03242C9.92444 5.0585 9.99123 5.07718 10.0428 5.08848C10.0947 5.09981 10.1477 5.1055 10.2008 5.10542C10.3684 5.10796 10.5299 5.04228 10.6481 4.92343C10.7697 4.80876 10.8374 4.64823 10.8347 4.48114C10.8347 4.07485 10.4262 3.8061 9.60923 3.67488L9.60913 3.18185Z" fill="currentColor"/>
</svg>
