<svg width="24" height="24" viewBox="0 0 24 24" fill="currentColor" xmlns="http://www.w3.org/2000/svg">
<path fill-rule="evenodd" clip-rule="evenodd" d="M3.00002 4.80002H21V3.00002C21 2.66865 20.7314 2.40002 20.4 2.40002H3.60002C3.26865 2.40002 3.00002 2.66865 3.00002 3.00002V4.80002ZM20.4 12.6C19.957 12.6004 19.5295 12.4367 19.2 12.1406C18.5173 12.7532 17.4827 12.7532 16.8 12.1406C16.1173 12.7532 15.0827 12.7532 14.4 12.1406C13.7173 12.7532 12.6827 12.7532 12 12.1406C11.3173 12.7532 10.2827 12.7532 9.60003 12.1406C8.9173 12.7532 7.88275 12.7532 7.20002 12.1406C6.5173 12.7532 5.48275 12.7532 4.80002 12.1406C4.31049 12.5799 3.62 12.7165 3.00002 12.4968V21.6H15.6V14.4H19.2V21.6H21V12.4968C20.8074 12.5652 20.6044 12.6001 20.4 12.6ZM13.8 20.424H4.80002V14.4H13.8V20.424ZM21 5.40002H3.00002L2.40002 10.8C2.40002 11.4628 2.93728 12 3.60002 12C4.26277 12 4.80002 11.4628 4.80002 10.8C4.80002 11.4628 5.33728 12 6.00002 12C6.66277 12 7.20002 11.4628 7.20002 10.8C7.20002 11.4628 7.73728 12 8.40002 12C9.06277 12 9.60003 11.4628 9.60003 10.8C9.60003 11.4628 10.1373 12 10.8 12C11.4628 12 12 11.4628 12 10.8C12 11.4628 12.5373 12 13.2 12C13.8628 12 14.4 11.4628 14.4 10.8C14.4 11.4628 14.9373 12 15.6 12C16.2628 12 16.8 11.4628 16.8 10.8C16.8 11.4628 17.3373 12 18 12C18.6628 12 19.2 11.4628 19.2 10.8C19.2 11.4628 19.7373 12 20.4 12C21.0628 12 21.6 11.4628 21.6 10.8L21 5.40002ZM7.10302 19.8H6.26926C6.26926 19.7937 6.26926 19.7827 6.26926 19.7763C6.26751 19.2844 5.86793 18.8868 5.37602 18.8874V18.0576C6.32753 18.0553 7.10077 18.8247 7.10311 19.7762C7.10302 19.7826 7.10309 19.7936 7.10302 19.8ZM8.65145 19.8H7.81769C7.81769 19.7937 7.81769 19.7827 7.81769 19.7763C7.81441 18.4311 6.72124 17.3433 5.37602 17.3465V16.5168C7.18505 16.5168 8.65154 17.976 8.65154 19.7763C8.65145 19.7826 8.6515 19.7936 8.65145 19.8ZM10.1999 19.8H9.36612C9.36612 19.7937 9.36612 19.7827 9.36612 19.7763C9.36732 18.7219 8.94642 17.7108 8.19732 16.9687C7.44845 16.2221 6.43351 15.8037 5.37602 15.8057V14.976C8.04022 14.976 10.2 17.1252 10.2 19.7763C10.1999 19.7826 10.2 19.7936 10.1999 19.8Z" fill="currentColor"/>
</svg>
