<svg width="24" height="24" viewBox="0 0 24 24" fill="currentColor" xmlns="http://www.w3.org/2000/svg">
<path fill-rule="evenodd" clip-rule="evenodd" d="M7.35729 13.0752C7.32302 13.2783 7.2443 13.4713 7.12674 13.6404C7.00665 13.8157 6.83374 13.9621 6.60803 14.0796C6.38232 14.1972 6.07733 14.256 5.69306 14.256C5.48087 14.2566 5.26973 14.2262 5.06627 14.166C4.86953 14.1086 4.68595 14.0132 4.52594 13.8852C4.36332 13.7529 4.23275 13.5855 4.144 13.3956C4.048 13.1965 4 12.9553 4 12.672V12.2256H5.02305V12.456C5.02226 12.5718 5.03189 12.6875 5.05185 12.8016C5.06724 12.8974 5.10151 12.9892 5.15265 13.0716C5.20175 13.147 5.27016 13.208 5.35077 13.248C5.43475 13.2912 5.54402 13.3128 5.67858 13.3128C5.82738 13.3128 5.94266 13.2864 6.0244 13.2336C6.1027 13.1847 6.16426 13.1132 6.2009 13.0284C6.23762 12.9415 6.25953 12.849 6.2657 12.7548C6.2729 12.6565 6.2765 12.5617 6.2765 12.4704V9H7.40759V12.5208C7.40601 12.7067 7.38919 12.8921 7.35729 13.0752ZM8.0272 11.4732C8.19483 11.0061 8.55791 10.6353 9.02142 10.458C9.27425 10.3612 9.54322 10.3136 9.8139 10.3176C10.0857 10.3138 10.3559 10.3614 10.61 10.458C11.0755 10.6336 11.4404 11.0048 11.608 11.4732C11.7021 11.7327 11.7485 12.0072 11.7448 12.2832C11.7487 12.5581 11.7024 12.8314 11.608 13.0896C11.523 13.3198 11.3904 13.5296 11.219 13.7052C11.0467 13.8783 10.839 14.0122 10.6102 14.0976C10.3555 14.1917 10.0856 14.2381 9.8141 14.2344C9.54374 14.2384 9.275 14.192 9.02162 14.0976C8.79414 14.0116 8.58776 13.8778 8.41643 13.7052C8.24486 13.5296 8.11223 13.3199 8.0272 13.0896C7.93278 12.8314 7.88642 12.5581 7.8904 12.2832C7.88666 12.0072 7.93301 11.7327 8.0272 11.4732ZM8.95658 12.7188C8.98278 12.8538 9.0328 12.983 9.10427 13.1004C9.17275 13.2121 9.2681 13.305 9.38164 13.3704C9.49684 13.4376 9.64093 13.4712 9.8139 13.4712C9.98688 13.4712 10.1322 13.4376 10.2498 13.3704C10.3648 13.3057 10.4615 13.2128 10.5308 13.1004C10.6022 12.9829 10.6522 12.8537 10.6785 12.7188C10.7074 12.5754 10.7219 12.4295 10.7217 12.2832C10.7218 12.1357 10.7073 11.9886 10.6785 11.844C10.653 11.7088 10.603 11.5795 10.5308 11.4624C10.4601 11.3511 10.3638 11.2585 10.2498 11.1924C10.1321 11.1228 9.98683 11.088 9.814 11.088C9.64117 11.088 9.49708 11.1228 9.38174 11.1924C9.26928 11.2593 9.17423 11.3518 9.10437 11.4624C9.03213 11.5795 8.98206 11.7088 8.95667 11.844C8.92782 11.9886 8.91335 12.1357 8.91347 12.2832C8.91322 12.4295 8.92759 12.5754 8.95658 12.7188ZM13.1424 9V10.872H13.1568C13.2787 10.6826 13.4561 10.5355 13.6648 10.4508C13.8759 10.3625 14.1024 10.3173 14.3312 10.3176C14.7309 10.3192 15.1114 10.4891 15.3794 10.7856C15.5259 10.944 15.6448 11.1468 15.7361 11.394C15.8274 11.6412 15.873 11.9352 15.8729 12.276C15.8729 12.6168 15.8273 12.9108 15.7361 13.158C15.6449 13.4052 15.526 13.608 15.3794 13.7664C15.1114 14.0629 14.7308 14.2328 14.3312 14.2344C14.0574 14.2344 13.8124 14.1912 13.5963 14.1048C13.385 14.0228 13.2109 13.8667 13.1064 13.6656H13.092V14.1408H12.1194V9H13.1424ZM14.7994 11.8296C14.7693 11.6941 14.7157 11.5649 14.6409 11.448C14.5722 11.3409 14.4798 11.2509 14.3708 11.1852C14.2627 11.1204 14.1318 11.088 13.9781 11.088C13.8421 11.0847 13.7076 11.1183 13.5891 11.1852C13.4785 11.2501 13.3847 11.3401 13.3153 11.448C13.2405 11.5649 13.1869 11.6941 13.1569 11.8296C13.1228 11.9784 13.1058 12.1306 13.1065 12.2832C13.1061 12.4334 13.123 12.5832 13.1569 12.7296C13.1869 12.8651 13.2405 12.9943 13.3153 13.1112C13.3847 13.2191 13.4785 13.3091 13.5891 13.374C13.7076 13.4409 13.8421 13.4745 13.9781 13.4712C14.1317 13.4712 14.2626 13.4388 14.3708 13.374C14.4798 13.3083 14.5722 13.2184 14.6409 13.1112C14.7157 12.9943 14.7694 12.8651 14.7994 12.7296C14.8333 12.5832 14.8502 12.4334 14.8499 12.2832C14.8505 12.1306 14.8335 11.9784 14.7994 11.8296ZM17.2381 13.2156C17.2818 13.2927 17.3421 13.3591 17.4146 13.41C17.49 13.4619 17.5743 13.4998 17.6632 13.5216C17.7586 13.5458 17.8566 13.5579 17.955 13.5576C18.0313 13.5572 18.1074 13.5487 18.1819 13.5324C18.2575 13.517 18.3303 13.4903 18.3979 13.4532C18.462 13.4179 18.5174 13.3687 18.56 13.3092C18.6053 13.2425 18.628 13.163 18.6248 13.0824C18.6248 12.9288 18.5228 12.8136 18.3186 12.7368C18.1145 12.66 17.8299 12.5832 17.4649 12.5064C17.316 12.4728 17.1707 12.4332 17.0291 12.3876C16.8951 12.3458 16.7678 12.2852 16.6508 12.2076C16.5421 12.1352 16.451 12.0392 16.3843 11.9268C16.317 11.8141 16.2834 11.6761 16.2835 11.5128C16.2835 11.2728 16.3303 11.076 16.424 10.9224C16.5147 10.7717 16.6424 10.6466 16.795 10.5588C16.956 10.4674 17.1314 10.4041 17.3137 10.3716C17.5085 10.3354 17.7063 10.3173 17.9045 10.3176C18.1016 10.3172 18.2983 10.3365 18.4916 10.3752C18.671 10.4098 18.843 10.4756 18.9995 10.5696C19.149 10.6614 19.2758 10.7857 19.3706 10.9332C19.469 11.0844 19.5278 11.2752 19.5471 11.5056H18.5745C18.5601 11.3088 18.4857 11.1756 18.3513 11.106C18.2035 11.0335 18.0404 10.9977 17.8758 11.0016C17.8132 11.0019 17.7507 11.0055 17.6885 11.0124C17.6252 11.0186 17.5633 11.0344 17.5048 11.0592C17.4504 11.0826 17.4023 11.1184 17.3643 11.1636C17.3236 11.2159 17.3032 11.2811 17.3067 11.3472C17.3042 11.4332 17.3414 11.5155 17.4075 11.5704C17.4852 11.6338 17.5745 11.6815 17.6704 11.7108C17.7921 11.7504 17.916 11.7829 18.0415 11.808C18.1807 11.8368 18.3224 11.868 18.4665 11.9016C18.6138 11.9349 18.7593 11.9757 18.9023 12.024C19.0371 12.0686 19.1646 12.1329 19.2806 12.2148C19.3898 12.2927 19.4807 12.3934 19.5471 12.51C19.6144 12.6276 19.648 12.7728 19.648 12.9456C19.648 13.1904 19.5988 13.3956 19.5003 13.5612C19.4054 13.7231 19.2733 13.8601 19.1149 13.9608C18.9483 14.0648 18.7639 14.1368 18.5709 14.1732C18.3657 14.2141 18.157 14.2346 17.9478 14.2344C17.7348 14.2347 17.5223 14.213 17.3138 14.1696C17.1187 14.131 16.932 14.0578 16.7626 13.9536C16.6015 13.8527 16.4659 13.7159 16.3664 13.554C16.263 13.3884 16.2066 13.1808 16.1971 12.9312H17.1697C17.1669 13.0304 17.1905 13.1286 17.2381 13.2156Z" fill="currentColor"/>
</svg>
