<svg width="24" height="24" viewBox="0 0 24 24" fill="currentColor" xmlns="http://www.w3.org/2000/svg">
<path fill-rule="evenodd" clip-rule="evenodd" d="M2.11206 3.29975V11.6135L11.715 21.2168C12.1605 21.6623 12.7646 21.9125 13.3946 21.9125C14.0246 21.9125 14.6287 21.6623 15.0742 21.2168L21.2161 15.0747C22.1437 14.147 22.1437 12.643 21.2161 11.7154L11.6132 2.11206H3.2997C2.98471 2.11206 2.68263 2.2372 2.4599 2.45994C2.23718 2.68267 2.11206 2.98476 2.11206 3.29975ZM14.4031 7.05095L14.8194 8.60473L16.3731 9.02106L15.9568 10.5748L17.0942 11.7123L15.9568 12.8497L16.3731 14.4034L14.8194 14.8198L14.4031 16.3736L12.8493 15.9572L11.7121 17.0948L10.5745 15.9573L9.02075 16.3737L8.60442 14.8199L7.05068 14.4035L7.46708 12.8497L6.32968 11.7123L7.46708 10.5748L7.05076 9.02106L8.60449 8.60473L9.02082 7.05095L10.5745 7.46728L11.7121 6.32984L12.8495 7.46728L14.4031 7.05095ZM6.18846 5.02391C6.18848 5.49499 5.90472 5.9197 5.4695 6.09999C5.03428 6.28027 4.53331 6.18063 4.2002 5.84752C3.86709 5.51441 3.76745 5.01345 3.94773 4.57822C4.12802 4.143 4.55273 3.85926 5.02381 3.85926C5.66702 3.85929 6.18842 4.3807 6.18846 5.02391Z" fill="currentColor"/>
</svg>
