<svg width="24" height="24" viewBox="0 0 24 24" fill="currentColor" xmlns="http://www.w3.org/2000/svg">
<path fill-rule="evenodd" clip-rule="evenodd" d="M14.04 1.68005C18.5466 1.68005 22.2 5.33341 22.2 9.84005H14.04V1.68005ZM17.4 10.3201H22.2C22.2 12.971 20.051 15.1201 17.4 15.1201H10.2C7.8711 15.1201 5.92986 13.4614 5.49246 11.261L1.97572 7.74433C1.74141 7.51001 1.74141 7.13011 1.97573 6.89579C2.21005 6.66148 2.58995 6.66149 2.82426 6.89581L6.24851 10.3201H17.4ZM9.29999 15.7201C11.1225 15.7201 12.6 17.1975 12.6 19.0201C12.6 20.8426 11.1225 22.3201 9.29999 22.3201C7.47745 22.3201 5.99999 20.8426 5.99999 19.0201C5.99999 17.1975 7.47745 15.7201 9.29999 15.7201ZM9.29999 21.1201C10.4598 21.1201 11.4 20.1799 11.4 19.0201C11.4 17.8603 10.4598 16.9201 9.29999 16.9201C8.14019 16.9201 7.19999 17.8603 7.19999 19.0201C7.20131 20.1793 8.14074 21.1187 9.29999 21.1201ZM17.7 15.7201C19.5225 15.7201 21 17.1975 21 19.0201C21 20.8426 19.5225 22.3201 17.7 22.3201C15.8775 22.3201 14.4 20.8426 14.4 19.0201C14.4 17.1975 15.8775 15.7201 17.7 15.7201ZM17.7 21.1201C18.8598 21.1201 19.8 20.1799 19.8 19.0201C19.8 17.8603 18.8598 16.9201 17.7 16.9201C16.5402 16.9201 15.6 17.8603 15.6 19.0201C15.6013 20.1793 16.5407 21.1187 17.7 21.1201Z" fill="currentColor"/>
</svg>
