<svg width="24" height="24" viewBox="0 0 24 24" fill="currentColor" xmlns="http://www.w3.org/2000/svg">
<path fill-rule="evenodd" clip-rule="evenodd" d="M22.2867 16.6997C22.1844 17.0967 22.0147 17.4732 21.7851 17.8128C21.7204 17.9085 21.6513 18.0009 21.5778 18.0899C21.5412 18.1344 21.5034 18.1779 21.4647 18.2206C21.4066 18.2845 21.3462 18.3463 21.2837 18.4059C21.2211 18.4656 21.1565 18.5229 21.0898 18.5779C21.0232 18.633 20.9545 18.6856 20.8839 18.7358C20.8604 18.7525 20.8366 18.769 20.8127 18.7852C20.7648 18.8175 20.7161 18.8487 20.6666 18.8788C20.5924 18.9239 20.5165 18.9663 20.4388 19.0061C20.3612 19.0459 20.282 19.0829 20.2012 19.117C20.1743 19.1285 20.1472 19.1395 20.12 19.1502C20.0656 19.1717 20.0104 19.1919 19.9545 19.2108C19.9267 19.2202 19.8987 19.2293 19.8705 19.2381C19.8142 19.2557 19.7572 19.2719 19.6997 19.2866C19.6422 19.3014 19.5841 19.3148 19.5255 19.3268C19.2868 19.3756 19.0437 19.4 18.8 19.4H6.8C6.60999 19.4 6.42014 19.3887 6.23144 19.3664C3.8485 19.0851 2 17.0586 2 14.6C2 14.3371 2.02127 14.0746 2.06386 13.8152C2.07586 13.7422 2.08946 13.6698 2.10466 13.598C2.14254 13.4198 2.19062 13.2438 2.24866 13.0711C2.26856 13.0118 2.28982 12.9532 2.31195 12.8949C2.3191 12.8761 2.32637 12.8574 2.33374 12.8387C2.35245 12.7913 2.37188 12.7443 2.39204 12.6977C2.40074 12.6776 2.40958 12.6575 2.41856 12.6375C2.45312 12.5605 2.4896 12.4847 2.528 12.41C2.54229 12.3821 2.55684 12.3545 2.57166 12.327C2.5964 12.2811 2.62162 12.2354 2.64781 12.1904C2.66571 12.1596 2.68395 12.129 2.70253 12.0987C2.78728 11.9603 2.87898 11.8263 2.97728 11.6973C2.99603 11.6726 3.01501 11.6481 3.03421 11.6239C3.06848 11.5807 3.10323 11.5377 3.13892 11.4957C3.16185 11.4687 3.18505 11.4419 3.20852 11.4155C3.36946 11.2342 3.54383 11.0652 3.73014 10.9101C3.73953 10.9023 3.74896 10.8945 3.75843 10.8868C3.92191 10.7526 4.09406 10.6294 4.27374 10.5179C4.29946 10.5019 4.32535 10.4861 4.3514 10.4707C4.4126 10.4343 4.47468 10.3993 4.53764 10.3656C4.63204 10.315 4.72827 10.2676 4.82634 10.2233C4.8917 10.1938 4.95782 10.1657 5.0247 10.139C5.36382 10.004 5.71734 9.90829 6.0783 9.85391C6.11494 9.84839 6.15174 9.84328 6.1887 9.8386C6.19641 9.75847 6.20756 9.67941 6.22215 9.60143C6.25091 9.4473 6.29314 9.29599 6.34834 9.14924C6.37569 9.07667 6.40599 9.00562 6.43926 8.9361C6.52193 8.76331 6.62274 8.59979 6.74 8.44832C6.78669 8.38804 6.83582 8.32984 6.88738 8.27372C6.91314 8.24569 6.93948 8.21821 6.96639 8.19128L6.9673 8.19032C6.9817 8.17592 6.99623 8.16172 7.01089 8.14772C7.16447 8.001 7.33476 7.87284 7.51827 7.76588C7.54621 7.74961 7.57434 7.73368 7.6029 7.71839C7.66725 7.68389 7.73314 7.65204 7.80058 7.62284C7.83495 7.60788 7.86969 7.59364 7.90479 7.5801C7.92913 7.57071 7.95363 7.56167 7.9783 7.55298C8.0439 7.52984 8.11066 7.50916 8.17858 7.49092C8.21902 7.48015 8.25982 7.47029 8.30098 7.46135C8.34215 7.4524 8.38366 7.4444 8.42552 7.43735C8.44645 7.43384 8.46745 7.43057 8.48852 7.42753C8.57286 7.41542 8.65838 7.40727 8.7451 7.40308C8.78853 7.40103 8.83216 7.4 8.876 7.4C8.92595 7.4 8.97555 7.40136 9.0248 7.40406C9.17047 7.41203 9.31527 7.43175 9.45776 7.46305C9.52448 7.38022 9.59318 7.29909 9.66385 7.21967C9.6915 7.18855 9.71939 7.15767 9.74754 7.12703L9.75678 7.11702C9.79641 7.07422 9.83658 7.03195 9.87728 6.9902C9.91933 6.94712 9.96196 6.90462 10.0052 6.86272C10.0484 6.82081 10.0922 6.77948 10.1365 6.73871C10.1808 6.69797 10.2257 6.65784 10.2712 6.61832C10.3166 6.5788 10.3626 6.53989 10.4091 6.50159C10.4556 6.46328 10.5027 6.42562 10.5503 6.3886C10.6216 6.33304 10.6942 6.27895 10.7678 6.22631C10.8169 6.19122 10.8665 6.15682 10.9166 6.12311C10.9667 6.0894 11.0173 6.05631 11.0684 6.02384C11.094 6.00762 11.1196 5.99162 11.1453 5.97584C11.1968 5.94412 11.2488 5.91308 11.3013 5.88275C11.3538 5.85241 11.4067 5.82281 11.46 5.79395C11.4867 5.77955 11.5135 5.76526 11.5404 5.75108C11.5942 5.72288 11.6484 5.6954 11.7031 5.66864C11.867 5.58839 12.0347 5.51485 12.2061 5.44804C12.2632 5.42578 12.3206 5.40432 12.3785 5.38364C12.4074 5.37329 12.4364 5.36315 12.4655 5.35321C12.582 5.31342 12.6998 5.27684 12.8191 5.24346C12.9384 5.21008 13.059 5.18004 13.1809 5.15332C13.3637 5.11332 13.5493 5.08093 13.7377 5.05616C13.8004 5.04797 13.8634 5.04067 13.9267 5.03425C14.1504 5.01151 14.3751 5 14.6 5C15.211 4.99949 15.819 5.08375 16.4068 5.25037C16.5112 5.28004 16.6146 5.31217 16.7168 5.34678C16.971 5.43282 17.2196 5.53436 17.4614 5.65084C17.5575 5.69724 17.6524 5.74582 17.7459 5.79659C17.9791 5.92326 18.2044 6.06387 18.4207 6.21767C18.5069 6.27901 18.5916 6.34236 18.6747 6.4077C18.7579 6.47304 18.8394 6.54028 18.9192 6.60942C18.9315 6.62012 18.9436 6.63116 18.9558 6.64194C18.9832 6.66594 19.0107 6.68994 19.0377 6.71456C19.1158 6.78559 19.1922 6.85843 19.2669 6.93308C19.3789 7.04508 19.4868 7.16099 19.5906 7.2808C19.7289 7.44046 19.8594 7.60664 19.9823 7.77935C20.0332 7.85087 20.0823 7.92368 20.1303 7.99727C20.1511 8.02911 20.1717 8.06111 20.1919 8.09327C20.2377 8.1662 20.2825 8.23986 20.3256 8.31469C20.3962 8.43759 20.4629 8.563 20.5255 8.69094C20.5408 8.72208 20.5559 8.75334 20.5707 8.78473C20.6189 8.88662 20.6645 8.98989 20.7075 9.09455C20.8376 9.41118 20.9426 9.73753 21.0216 10.0706C21.027 10.093 21.0322 10.1155 21.0373 10.138C21.0506 10.1968 21.0631 10.2559 21.0749 10.3152C21.1583 10.7384 21.2002 11.1687 21.2 11.6C21.2 11.7791 21.1929 11.9564 21.1787 12.1319C21.174 12.1904 21.1686 12.2487 21.1624 12.3067C21.1508 12.4143 21.1367 12.521 21.1199 12.6269C21.1096 12.6925 21.0986 12.7579 21.0865 12.8228C21.0758 12.8794 21.0645 12.9358 21.0525 12.9919C21.0781 13.0125 21.1034 13.0334 21.1286 13.0547C21.1788 13.0973 21.2278 13.1413 21.2755 13.1865C21.395 13.2997 21.5066 13.4209 21.6096 13.5493C21.6611 13.6135 21.7104 13.6795 21.7576 13.7472C21.8047 13.8149 21.8495 13.8843 21.892 13.9553C21.9089 13.9837 21.9255 14.0123 21.9418 14.0412C21.9742 14.099 22.005 14.1578 22.0343 14.2175C22.0636 14.2772 22.0913 14.3378 22.1173 14.3993C22.1433 14.4608 22.1676 14.5232 22.1903 14.5864C22.213 14.6496 22.2339 14.7136 22.253 14.7784C22.277 14.8593 22.2981 14.9415 22.3163 15.0247C22.3721 15.2794 22.4 15.5393 22.4 15.8C22.4002 16.1035 22.3621 16.4058 22.2867 16.6997ZM20.301 13.9275C19.9472 13.6433 19.7839 13.1837 19.8792 12.74C19.9595 12.3653 20 11.9832 20 11.6C20.0023 10.1674 19.433 8.79302 18.4184 7.7816C18.3174 7.68066 18.2131 7.58424 18.1054 7.49233L7.39774 18.2H18.8C19.8188 18.2 20.7265 17.5567 21.0642 16.5955C21.4018 15.6343 21.0959 14.5647 20.301 13.9275Z" fill="currentColor"/>
</svg>
