<svg width="24" height="24" viewBox="0 0 24 24" fill="currentColor" xmlns="http://www.w3.org/2000/svg">
<path fill-rule="evenodd" clip-rule="evenodd" d="M19.2 2.40043L4.8 2.40002V5.40019H4.2C3.53759 5.40019 3.0006 5.93718 3.0006 6.59959C3.0006 7.262 3.53759 7.79899 4.2 7.79899H4.8V10.8002H4.2C3.76793 10.7951 3.36647 11.0227 3.14895 11.396C2.93142 11.7694 2.93142 12.2308 3.14895 12.6042C3.36647 12.9776 3.76793 13.2051 4.2 13.2H4.8V16.1997H4.2C3.53705 16.1997 2.99962 16.7371 2.99962 17.4C2.99962 18.063 3.53705 18.6004 4.2 18.6004H4.8V19.8043C4.8003 20.2809 4.99028 20.7378 5.32801 21.074C5.66573 21.4103 6.12342 21.5983 6.6 21.5965L21 21.6L20.9971 4.19762C20.9977 3.72082 20.8085 3.26338 20.4714 2.92622C20.1342 2.58906 19.6768 2.40002 19.2 2.40043ZM12.9 5.99602C14.0598 5.99602 15 6.93622 15 8.09602C15 9.25582 14.0598 10.196 12.9 10.196C11.7402 10.196 10.8 9.25582 10.8 8.09602C10.8 6.93622 11.7402 5.99602 12.9 5.99602ZM16.2 17.9998H10.7976C10.4796 17.9997 10.1747 17.8732 9.95002 17.6481C9.72537 17.423 9.59945 17.1178 9.6 16.7998C9.6 16.8 9.6 16.7997 9.6 16.7998V14.113C9.6 14.1133 9.6 14.1126 9.6 14.113C9.6 12.2904 11.0775 10.7986 12.9 10.7986C14.7225 10.7986 16.2 12.2895 16.2 14.112V17.9998Z" fill="currentColor"/>
</svg>
