<svg width="24" height="24" viewBox="0 0 24 24" fill="currentColor" xmlns="http://www.w3.org/2000/svg">
<path fill-rule="evenodd" clip-rule="evenodd" d="M11.8519 2C11.8519 2 11.6241 3.00135 12.6259 4.27623C13.6276 5.55111 15.3576 7.56946 15.4942 8.9655C15.6308 10.3649 15.4901 11.8557 14.72 13.0176C14.6899 13.063 16.0561 12.3955 16.3592 10.9687C16.6533 9.58554 16.5414 8.00926 16.268 7.5541C15.995 7.09875 18.8633 9.51174 18.408 12.9263C17.9527 16.3409 15.7674 17.3423 14.72 18.0253C13.6727 18.7083 11.0171 19.8008 11.1085 21.8953C11.1998 23.9899 8.94289 19.3906 11.0865 16.5975C13.0502 14.0384 12.4892 12.7983 12.0796 12.0614C12.0796 12.0614 11.9035 13.464 9.86401 14.4897C8.11921 15.3672 7.91254 17.1534 8.34594 18.3897C8.62259 19.1786 6.79832 17.7675 6.25222 16.7656C5.70579 15.7645 5.43726 14.6848 5.55382 13.458C5.87617 10.065 8.84137 9.15066 8.59201 7.5927C8.58296 7.53627 8.52001 7.2087 8.52001 7.2087C8.52001 7.2087 9.91126 8.4759 9.25666 10.4679C9.18438 10.6881 11.1689 9.92146 10.5317 8.28231C9.89446 6.64316 9.21121 3.86643 11.8519 2Z" fill="currentColor"/>
</svg>
