<svg width="24" height="24" viewBox="0 0 24 24" fill="currentColor" xmlns="http://www.w3.org/2000/svg">
<path fill-rule="evenodd" clip-rule="evenodd" d="M14.3886 18.9147H9.58859C9.25764 18.9137 8.98959 18.6456 8.98859 18.3147C8.98953 17.9837 9.25758 17.7155 9.58859 17.7145H14.3886C14.7196 17.7155 14.9877 17.9837 14.9886 18.3147C14.9876 18.6456 14.7196 18.9137 14.3886 18.9147ZM14.3886 20.7151H9.58859C9.25758 20.7141 8.98951 20.4459 8.98859 20.1149C8.98959 19.784 9.25764 19.5159 9.58859 19.5149H14.3886C14.7196 19.5159 14.9876 19.784 14.9886 20.1149C14.9877 20.4459 14.7196 20.7141 14.3886 20.7151ZM12.5886 22.5155H11.3886C11.0576 22.5145 10.7895 22.2463 10.7886 21.9153C10.7896 21.5844 11.0576 21.3163 11.3886 21.3153H12.5886C12.9195 21.3163 13.1876 21.5844 13.1886 21.9153C13.1877 22.2463 12.9196 22.5145 12.5886 22.5155ZM11.9529 1.51077C7.98539 1.5301 4.78858 4.74394 4.78858 8.71246C4.78618 10.314 5.31996 11.8703 6.30486 13.1333L8.62619 16.5768C8.85269 16.9128 9.23138 17.1143 9.63659 17.1143H14.3406C14.7458 17.1143 15.1245 16.9128 15.351 16.5768L17.6723 13.1333C18.6573 11.8703 19.191 10.314 19.1886 8.71239C19.1886 4.72316 15.9457 1.49149 11.9529 1.51077ZM16.725 12.5455L14.7906 15.4592C14.604 15.7424 14.2878 15.9132 13.9486 15.914H12.9219C12.8335 15.914 12.7487 15.8789 12.6862 15.8164C12.6237 15.7538 12.5886 15.6691 12.5886 15.5807V13.2374C12.5888 13.0691 12.5181 12.9085 12.3939 12.795C12.3317 12.738 12.2697 12.6808 12.212 12.6192L11.9816 12.3732L9.14759 9.23343L9.14615 9.23182C8.60746 8.63371 8.64338 7.7153 9.22715 7.1611C9.81092 6.6069 10.73 6.61871 11.2993 7.18774C11.3008 7.18921 11.3022 7.19065 11.3037 7.19209L11.67 7.54189C11.8444 7.70842 12.1189 7.70842 12.2933 7.54189L12.6596 7.19197L12.6616 7.19C12.9426 6.91666 13.3117 6.75269 13.7036 6.75269H13.7142C14.3007 6.75289 14.8321 7.09822 15.0706 7.63407C15.309 8.16991 15.2098 8.79589 14.8173 9.2317L14.8159 9.23331L13.3412 10.8127C13.2531 10.9103 13.2044 11.0371 13.2044 11.1685C13.2044 11.6134 13.7521 11.8249 14.0509 11.4953L15.5104 9.94013C16.4395 8.96111 16.4128 7.41823 15.4504 6.47197C14.488 5.52572 12.9448 5.5251 11.9817 6.47057C11.0183 5.52633 9.47615 5.52757 8.51427 6.47336C7.5524 7.41916 7.52516 8.96105 8.45303 9.94023L11.3489 13.1337C11.3744 13.162 11.3886 13.1987 11.3886 13.2368V15.5807C11.3886 15.6691 11.3535 15.7538 11.291 15.8164C11.2285 15.8789 11.1437 15.914 11.0553 15.914H10.0287C9.68952 15.9132 9.37334 15.7424 9.18666 15.4592L7.25226 12.5455C6.42984 11.4722 5.98555 10.1569 5.98857 8.80474C5.98857 5.44669 8.65259 2.72749 11.9588 2.71104C15.2862 2.69473 17.9886 5.42919 17.9886 8.80472C17.9917 10.1569 17.5474 11.4721 16.725 12.5455Z" fill="currentColor"/>
</svg>
