<svg width="24" height="24" viewBox="0 0 24 24" fill="currentColor" xmlns="http://www.w3.org/2000/svg">
<path fill-rule="evenodd" clip-rule="evenodd" d="M6.99414 16.1999H17.0058C17.0267 16.1999 17.0469 16.1924 17.0628 16.1788C18.1332 15.2524 18.873 14.0345 19.1142 12.6724C19.1214 12.6306 19.1576 12.6 19.2 12.5999C20.8407 12.6001 22.1773 11.2823 22.2001 9.64169C22.223 8.00112 20.9237 6.64652 19.2836 6.60105C19.2369 6.59964 19.1999 6.56133 19.2 6.51465V6.03969C19.1999 5.68633 18.9135 5.3999 18.5601 5.3999H8.39999V7.7135C8.39999 7.76122 8.43867 7.7999 8.48639 7.7999H9.00889C9.33493 7.80084 9.59901 8.06489 9.59999 8.39093V10.8089C9.59901 11.1349 9.33497 11.3989 9.00896 11.3999H7.19101C6.865 11.3989 6.60096 11.1349 6.59999 10.8089V8.39093C6.60096 8.06492 6.865 7.80088 7.19101 7.7999H7.71359C7.76131 7.7999 7.79999 7.76122 7.79999 7.7135V5.3999H5.43988C5.08648 5.3999 4.79999 5.68639 4.79999 6.03979V11.4204C4.79999 11.4415 4.80127 11.4625 4.80371 11.4834C4.80417 11.4874 4.80433 11.4914 4.80419 11.4954C4.80179 11.5634 4.79999 11.6315 4.79999 11.7C4.79999 13.4522 5.61779 15.0369 6.93721 16.1789C6.95305 16.1925 6.97326 16.1999 6.99414 16.1999ZM21 9.5999C21 10.5589 20.2481 11.3496 19.2903 11.3977C19.2666 11.3987 19.2436 11.3901 19.2266 11.3737C19.2095 11.3574 19.1999 11.3347 19.2 11.3111V7.8887C19.1999 7.86508 19.2095 7.84246 19.2266 7.82611C19.2436 7.80976 19.2667 7.8011 19.2903 7.80216C20.2481 7.85025 21 8.64087 21 9.5999ZM7.79999 8.9999H8.39999C8.73136 8.9999 8.99999 9.26853 8.99999 9.5999V10.1999C8.99999 10.5313 8.73136 10.7999 8.39999 10.7999H7.79999C7.46862 10.7999 7.19999 10.5313 7.19999 10.1999V9.5999C7.19999 9.26853 7.46862 8.9999 7.79999 8.9999ZM21.6 16.7999H2.39999C2.06862 16.7999 1.79999 17.0685 1.79999 17.3999C1.79999 17.542 3.43902 18.4573 7.20126 18.9253C7.21483 19.0803 7.34437 19.1994 7.49999 19.1999H16.5C16.6655 19.1994 16.7995 19.0654 16.8 18.8999C16.8 18.897 16.7997 18.8943 16.7996 18.8915C20.3244 18.4146 22.2 17.5386 22.2 17.3999C22.2 17.0685 21.9314 16.7999 21.6 16.7999Z" fill="currentColor"/>
</svg>
