<svg width="24" height="24" viewBox="0 0 24 24" fill="currentColor" xmlns="http://www.w3.org/2000/svg">
<path fill-rule="evenodd" clip-rule="evenodd" d="M12 1.80005C6.36668 1.80005 1.79999 6.36674 1.79999 12C1.79999 17.6334 6.36668 22.2001 12 22.2001C17.6333 22.2001 22.2 17.6334 22.2 12C22.2 6.36674 17.6333 1.80005 12 1.80005ZM12 19.2001C8.02355 19.2001 4.79999 15.9765 4.79999 12C4.79999 8.02361 8.02355 4.80005 12 4.80005C15.9764 4.80005 19.2 8.02361 19.2 12C19.2 15.9765 15.9764 19.2001 12 19.2001ZM12 8.75503V10.3044C12.9182 10.3037 13.6638 11.0463 13.6667 11.9645C13.6667 11.9765 13.666 11.9882 13.6658 12H15.2217C15.2219 11.9882 15.2222 11.9764 15.2222 11.9645C15.2222 10.192 13.7796 8.75503 12 8.75503ZM12 5.87743V7.42687C13.2058 7.4245 14.3632 7.90123 15.2175 8.75221C16.0719 9.60319 16.5532 10.7587 16.5555 11.9645C16.5555 11.9764 16.5552 11.9882 16.5551 12H18.1107C18.1107 11.9882 18.1111 11.9764 18.1111 11.9645C18.1111 8.60278 15.3751 5.87743 12 5.87743Z" fill="currentColor"/>
</svg>
