<svg width="24" height="24" viewBox="0 0 24 24" fill="currentColor" xmlns="http://www.w3.org/2000/svg">
<path fill-rule="evenodd" clip-rule="evenodd" d="M20.8484 12.7796C20.9466 12.3222 20.996 11.8556 20.9959 11.3878C20.9959 7.74315 18.041 4.78858 14.3959 4.78858C12.399 4.78672 10.509 5.69084 9.25718 7.24678C8.50565 7.08757 7.72187 7.25583 7.10189 7.70947C6.48192 8.1631 6.08437 8.85921 6.00869 9.62369C3.6347 9.91318 1.79578 11.9355 1.79578 14.3874C1.79578 17.038 3.94483 19.1868 6.59578 19.1868H18.5958C20.1236 19.1869 21.4851 18.2225 21.9918 16.7812C22.4986 15.3398 22.0402 13.7356 20.8484 12.7796ZM17.3955 14.9873V14.3873H15.5454C15.2522 16.1193 13.752 17.3869 11.9954 17.3869C10.2388 17.3869 8.73857 16.1193 8.44543 14.3873H6.59546V14.9873L4.79546 13.7993L6.59546 12.5876V13.1876H8.44553C8.73866 11.4556 10.2389 10.188 11.9955 10.188C13.7521 10.188 15.2523 11.4556 15.5455 13.1876H17.3955V12.5876L19.1955 13.7756L17.3955 14.9873ZM11.9955 11.3878C10.6702 11.3879 9.596 12.4624 9.59611 13.7877C9.59622 15.113 10.6706 16.1872 11.9959 16.1872C13.3212 16.1871 14.3955 15.1127 14.3955 13.7875C14.3939 12.4627 13.3203 11.3892 11.9955 11.3878Z" fill="currentColor"/>
</svg>
