<svg width="24" height="24" viewBox="0 0 24 24" fill="currentColor" xmlns="http://www.w3.org/2000/svg">
<path fill-rule="evenodd" clip-rule="evenodd" d="M18.6107 19.5037H6.61074C3.79859 19.5037 1.51074 17.2159 1.51074 14.4037C1.51074 11.9071 3.32056 9.78514 5.75735 9.3751C6.01372 7.94496 7.25781 6.90392 8.71074 6.90375C8.85864 6.90376 9.00634 6.91463 9.15265 6.93626C11.0257 4.73159 14.0753 3.92948 16.7907 4.92726C19.5061 5.92504 21.3108 8.51081 21.3107 11.4037C21.3107 11.8321 21.271 12.2595 21.1923 12.6805C22.0325 13.4194 22.5131 14.4849 22.5107 15.6037C22.5107 17.7541 20.7611 19.5037 18.6107 19.5037ZM8.71074 7.50375C7.47637 7.50383 6.44331 8.44012 6.32221 9.66854C6.30862 9.80855 6.19957 9.92031 6.05994 9.93735C3.80853 10.2119 2.11074 12.1321 2.11074 14.4037C2.11074 16.8851 4.12943 18.9037 6.61074 18.9037H18.6107C20.4304 18.9037 21.9107 17.4234 21.9107 15.6037C21.9126 14.6023 21.4578 13.6546 20.6753 13.0295C20.5869 12.9585 20.5461 12.8436 20.5699 12.7326C20.6635 12.2959 20.7107 11.8504 20.7107 11.4037C20.7108 8.73234 19.026 6.35135 16.5068 5.4626C13.9876 4.57386 11.1817 5.37064 9.50557 7.45075C9.43468 7.53861 9.32046 7.57922 9.21001 7.55585C9.04585 7.52121 8.87852 7.50375 8.71074 7.50375ZM16.5107 8.40374H12.9107C12.4143 8.40229 12.0122 8.0002 12.0107 7.50375C12.0122 7.00729 12.4143 6.60519 12.9107 6.60374H16.5107C17.0072 6.60519 17.4093 7.00729 17.4107 7.50375C17.4093 8.0002 17.0072 8.40229 16.5107 8.40374ZM18.3107 11.4037H11.7107C11.2143 11.4023 10.8122 11.0002 10.8107 10.5037C10.8122 10.0073 11.2143 9.6052 11.7107 9.60375H18.3107C18.8072 9.6052 19.2093 10.0073 19.2107 10.5037C19.2093 11.0002 18.8072 11.4023 18.3107 11.4037ZM8.71074 11.4037H8.11074C7.61429 11.4023 7.21219 11.0002 7.21074 10.5037C7.21219 10.0073 7.61429 9.6052 8.11074 9.60375H8.71074C9.2072 9.6052 9.60929 10.0073 9.61074 10.5037C9.60929 11.0002 9.2072 11.4023 8.71074 11.4037ZM18.3107 14.4037H16.5107C16.0143 14.4023 15.6122 14.0002 15.6107 13.5037C15.6122 13.0073 16.0143 12.6052 16.5107 12.6037H18.3107C18.8072 12.6052 19.2093 13.0073 19.2107 13.5037C19.2093 14.0002 18.8072 14.4023 18.3107 14.4037ZM13.5107 14.4037H4.51074C4.01429 14.4023 3.61219 14.0002 3.61074 13.5037C3.61219 13.0073 4.01429 12.6052 4.51074 12.6037H13.5107C14.0072 12.6052 14.4093 13.0073 14.4107 13.5037C14.4093 14.0002 14.0072 14.4023 13.5107 14.4037ZM11.1107 17.4037H5.71074C5.21429 17.4023 4.81219 17.0002 4.81074 16.5037C4.81219 16.0073 5.21429 15.6052 5.71074 15.6037H11.1107C11.6072 15.6052 12.0093 16.0073 12.0107 16.5037C12.0093 17.0002 11.6072 17.4023 11.1107 17.4037ZM19.5107 17.4037H14.1107C13.6143 17.4023 13.2122 17.0002 13.2107 16.5037C13.2122 16.0073 13.6143 15.6052 14.1107 15.6037H19.5107C20.0072 15.6052 20.4093 16.0073 20.4107 16.5037C20.4093 17.0002 20.0072 17.4023 19.5107 17.4037Z" fill="currentColor"/>
</svg>
