<svg width="24" height="24" viewBox="0 0 24 24" fill="currentColor" xmlns="http://www.w3.org/2000/svg">
<path fill-rule="evenodd" clip-rule="evenodd" d="M12 1.79999C6.36674 1.79999 1.80005 6.36668 1.80005 12C1.80005 17.6333 6.36674 22.2 12 22.2C17.6334 22.2 22.2001 17.6333 22.2001 12C22.2001 6.36668 17.6334 1.79999 12 1.79999ZM11.112 6.88799C11.112 6.39756 11.5096 5.99999 12 5.99999C12.4905 5.99999 12.888 6.39756 12.888 6.88799V11.112C12.888 11.6024 12.4905 12 12 12C11.5096 12 11.112 11.6024 11.112 11.112V6.88799ZM12 17.1C9.1879 17.1 6.90002 14.8121 6.90002 12C6.89569 10.6285 7.44807 9.31393 8.43074 8.35717C8.6604 8.13212 8.99267 8.04669 9.3024 8.13306C9.61212 8.21942 9.85225 8.46446 9.93231 8.77587C10.0124 9.08728 9.92023 9.41776 9.69058 9.6428C9.05469 10.2619 8.69724 11.1125 8.70005 12C8.70005 13.8196 10.1804 15.3 12 15.3C13.8197 15.3 15.3 13.8196 15.3 12C15.3029 11.1125 14.9454 10.2619 14.3095 9.64278C13.9545 9.29489 13.9487 8.72507 14.2966 8.37005C14.6445 8.01502 15.2143 8.00924 15.5693 8.35712C16.552 9.3139 17.1044 10.6285 17.1001 12C17.1001 14.8121 14.8122 17.1 12 17.1Z" fill="currentColor"/>
</svg>
