<svg width="24" height="24" viewBox="0 0 24 24" fill="currentColor" xmlns="http://www.w3.org/2000/svg">
<path fill-rule="evenodd" clip-rule="evenodd" d="M21.6027 18.5337C21.6253 18.3506 21.5625 18.1673 21.4323 18.0366L14.3121 10.9147C14.1234 10.726 14.0549 10.4482 14.1343 10.1935C14.318 9.60435 14.4097 8.99041 14.4062 8.37332C14.3907 5.04606 11.6431 2.35198 8.317 2.39998C5.04652 2.44726 2.40932 5.11153 2.40464 8.39302C2.40001 11.6388 5.09442 14.3688 8.339 14.4039C8.84832 14.4098 9.35632 14.3509 9.85079 14.2287C10.044 14.1818 10.2477 14.2393 10.3877 14.3804L11.6013 15.5943C11.8001 15.7931 12.0698 15.9048 12.3509 15.9048H14.0429C14.1478 15.9048 14.2485 15.9465 14.3226 16.0208C14.3968 16.095 14.4385 16.1956 14.4384 16.3005V17.5101C14.4384 17.7837 14.5647 18.0056 14.8382 18.0056H16.4506C16.545 18.0056 16.6355 18.0431 16.7023 18.1099C16.769 18.1766 16.8065 18.2672 16.8065 18.3616V19.9212C16.8064 20.1001 16.8775 20.2718 17.004 20.3983L18.0375 21.4321C18.2081 21.5405 18.4047 21.601 18.6067 21.6072H21.0072C21.3382 21.6061 21.6063 21.338 21.6072 21.0069V18.606C21.6072 18.5818 21.6056 18.5577 21.6027 18.5337ZM4.80527 6.63531C4.79151 5.90112 5.22506 5.23215 5.90084 4.94484C6.57662 4.65752 7.35918 4.80945 7.87836 5.32877C8.39754 5.84808 8.54927 6.63068 8.26178 7.30639C7.97429 7.9821 7.30521 8.41547 6.57102 8.40152C5.60342 8.383 4.82354 7.60292 4.80527 6.63531ZM15.3586 14.7566L13.3815 12.779C13.2942 12.6913 13.2495 12.5699 13.2589 12.4465C13.2684 12.3232 13.331 12.21 13.4305 12.1365C13.5921 12.017 13.8463 12.0434 13.9884 12.1856L15.9588 14.1564L20.1071 18.306C20.1932 18.3926 20.2379 18.5119 20.23 18.6337C20.2221 18.7555 20.1622 18.8681 20.0656 18.9428C19.8927 19.0719 19.6509 19.0532 19.4999 18.8991L19.2071 18.6061L15.3586 14.7566Z" fill="currentColor"/>
</svg>
