<svg width="24" height="24" viewBox="0 0 24 24" fill="currentColor" xmlns="http://www.w3.org/2000/svg">
<path fill-rule="evenodd" clip-rule="evenodd" d="M21.4146 19.6651L15.9992 14.2497C16.9076 12.9799 17.3948 11.4573 17.3924 9.89606C17.3924 5.75606 14.0362 2.3999 9.89618 2.3999C5.75614 2.3999 2.40002 5.75606 2.40002 9.89611C2.40002 14.0362 5.75614 17.3923 9.89618 17.3923C11.4574 17.3948 12.9801 16.9075 14.2498 15.9991L19.6652 21.4146C19.8998 21.648 20.2789 21.648 20.5134 21.4146L21.4146 20.5133C21.648 20.2788 21.648 19.8997 21.4146 19.6651ZM9.89618 14.9935C7.08099 14.9935 4.7988 12.7113 4.7988 9.89611C4.7988 7.08091 7.08099 4.79873 9.89618 4.79873C12.7114 4.79873 14.9936 7.08091 14.9936 9.89611C14.9936 12.7113 12.7114 14.9935 9.89618 14.9935ZM13.194 9.59592V10.1956C13.1938 10.5267 12.9254 10.795 12.5943 10.7952H10.7952V12.5942C10.7951 12.9254 10.5267 13.1938 10.1955 13.1939H9.59587C9.26468 13.1939 8.9962 12.9254 8.99616 12.5942V10.7952H7.1971C6.86591 10.7951 6.59738 10.5267 6.59738 10.1955V9.5958C6.59738 9.43674 6.66054 9.28419 6.77302 9.17172C6.88549 9.05924 7.03804 8.99607 7.1971 8.99609H8.99616V7.19702C8.99614 7.03796 9.05932 6.88541 9.17179 6.77294C9.28426 6.66047 9.43681 6.59731 9.59587 6.59731H10.1956C10.5267 6.59731 10.7952 6.86584 10.7952 7.19702V8.99609H12.5943C12.9255 8.99611 13.194 9.26472 13.194 9.59592Z" fill="currentColor"/>
</svg>
