<svg width="24" height="24" viewBox="0 0 24 24" fill="currentColor" xmlns="http://www.w3.org/2000/svg">
<path fill-rule="evenodd" clip-rule="evenodd" d="M1.80005 3.02365V11.5893L11.6939 21.4835C12.6496 22.4391 14.199 22.4391 15.1547 21.4835L21.4828 15.1552C22.4385 14.1995 22.4385 12.65 21.4828 11.6942L11.589 1.79999H3.02366C2.69914 1.79999 2.3879 1.92892 2.15843 2.1584C1.92896 2.38788 1.80005 2.69912 1.80005 3.02365ZM6.00005 4.79999C6.00005 5.46273 5.46279 5.99999 4.80005 5.99999C4.13731 5.99999 3.60005 5.46273 3.60005 4.79999C3.60005 4.13725 4.13731 3.59999 4.80005 3.59999C5.46279 3.59999 6.00005 4.13725 6.00005 4.79999Z" fill="currentColor"/>
</svg>
