<svg width="24" height="24" viewBox="0 0 24 24" fill="currentColor" xmlns="http://www.w3.org/2000/svg">
<path fill-rule="evenodd" clip-rule="evenodd" d="M17.4002 3.36002C13.8002 3.36002 13.8002 2.40002 10.2002 2.40002C8.00663 2.40002 7.14942 2.72162 6.00023 3.00002H4.20001V21.6H6.00001V14.0749C7.14932 13.7964 8.00641 13.44 10.2001 13.44C13.8001 13.44 13.8001 14.4 17.4001 14.4C18.8064 14.4 19.6632 14.2536 20.4 14.075V3.03504C19.6632 3.21362 18.8064 3.36002 17.4002 3.36002ZM15.982 7.9925L13.9804 8.65418L15.2332 10.3133C15.2847 10.3815 15.3068 10.4674 15.2946 10.552C15.2825 10.6366 15.2371 10.7129 15.1686 10.7639L14.3966 11.3373C14.3281 11.3881 14.2421 11.4093 14.1578 11.3962C14.0736 11.3831 13.9981 11.3366 13.9484 11.2674L12.6893 9.51478L11.5015 11.2626C11.4542 11.3329 11.3801 11.3809 11.2965 11.3953C11.2129 11.4098 11.1271 11.3894 11.0588 11.339L10.27 10.7622C10.2012 10.7118 10.1554 10.636 10.143 10.5516C10.1306 10.4672 10.1525 10.3814 10.2039 10.3134L11.4567 8.65428L9.49384 7.99428C9.41294 7.96705 9.3463 7.90857 9.30882 7.83189C9.27133 7.7552 9.2661 7.6667 9.2943 7.58614L9.60856 6.68995C9.63626 6.60977 9.6955 6.54438 9.77257 6.50894C9.84964 6.47349 9.93784 6.47105 10.0167 6.5022L11.9263 7.24558V5.12333C11.9268 4.94498 12.0713 4.80053 12.2496 4.80002H13.1682C13.3465 4.80059 13.4909 4.94503 13.4914 5.12333V7.24538L15.4586 6.49922C15.538 6.46886 15.6264 6.47199 15.7035 6.50789C15.7806 6.54379 15.8399 6.60941 15.8678 6.68976L16.182 7.58594C16.2103 7.66635 16.205 7.75475 16.1674 7.83123C16.1298 7.90771 16.0629 7.96583 15.982 7.9925Z" fill="currentColor"/>
</svg>
