<svg width="24" height="24" viewBox="0 0 24 24" fill="currentColor" xmlns="http://www.w3.org/2000/svg">
<path fill-rule="evenodd" clip-rule="evenodd" d="M13.8 4.24802C13.3539 3.71559 12.6947 3.40802 12 3.40802C11.3054 3.40802 10.6464 3.71559 10.2002 4.24802L9.04082 5.40002H6.00002V8.42217L2.40002 12H6.00002V19.2C6.00002 20.1941 6.80591 21 7.80002 21H16.2C17.1941 21 18 20.1941 18 19.2V12H21.6L13.8 4.24802ZM15.5229 14.9668L12 18.8482L8.47719 14.9668C7.5511 13.9893 7.5787 12.4501 8.53924 11.5065C9.49977 10.5629 11.0392 10.5626 12 11.5059C12.961 10.5632 14.4999 10.5638 15.4602 11.5072C16.4204 12.4505 16.4483 13.9892 15.5229 14.9668Z" fill="currentColor"/>
</svg>
