<svg width="24" height="24" viewBox="0 0 24 24" fill="currentColor" xmlns="http://www.w3.org/2000/svg">
<path fill-rule="evenodd" clip-rule="evenodd" d="M19.0099 4.02699C16.7513 4.02699 14.6524 3.31899 12.6954 2.10102C12.2549 1.82704 11.6969 1.82718 11.2566 2.10138C9.29959 3.32058 7.20077 4.03405 4.94218 4.02632C4.18786 4.02681 3.57605 4.63849 3.57605 5.39281V10.6289C3.57605 14.9509 6.02623 19.9601 11.5231 21.8829C11.8163 21.9855 12.1358 21.9855 12.429 21.8829C17.9258 19.96 20.376 14.9509 20.376 10.6289V5.39353C20.376 5.03115 20.2322 4.6836 19.976 4.42732C19.7198 4.17105 19.3723 4.02704 19.0099 4.02699ZM19.1761 11.0576C19.1761 14.1933 17.0934 18.9294 12.4234 20.6105C12.1342 20.7145 11.8179 20.7145 11.5287 20.6105C6.85865 18.9294 4.77605 14.1933 4.77605 11.0576V5.78072C4.77605 5.47503 5.02361 5.22709 5.3293 5.22673C7.68907 5.22673 9.87701 4.54124 11.6739 3.37306C11.8576 3.25354 12.0945 3.25354 12.2782 3.37306C14.0751 4.54131 16.2625 5.22721 18.6222 5.22721C18.7691 5.22723 18.91 5.28563 19.0139 5.38955C19.1178 5.49347 19.1761 5.63439 19.1761 5.78132V11.0576ZM17.4001 8.68081C17.401 8.46089 17.3146 8.2496 17.1597 8.09342C17.0049 7.93724 16.7944 7.84896 16.5744 7.84801C16.3643 7.8479 16.1622 7.92861 16.01 8.07342L11.1261 12.8448L9.51701 11.0466C9.19047 10.7632 8.69982 10.7823 8.39607 11.09L8.06587 11.4231C7.7683 11.7243 7.74223 12.2002 8.00513 12.5321L10.6466 15.8633C10.8022 16.0607 11.0399 16.1759 11.2913 16.1759C11.5426 16.1759 11.7802 16.0607 11.9358 15.8633L17.2192 9.20089C17.3367 9.05302 17.4004 8.86965 17.4001 8.68081Z" fill="currentColor"/>
</svg>
