<svg width="24" height="24" viewBox="0 0 24 24" fill="currentColor" xmlns="http://www.w3.org/2000/svg">
<path fill-rule="evenodd" clip-rule="evenodd" d="M14.1 1.80005C12.2858 1.8002 10.7111 3.05088 10.3002 4.81795C12.598 5.02051 14.4 6.94966 14.4 9.30005C14.4 9.39725 14.3966 9.49363 14.3904 9.5893C16.4824 9.43364 18.0765 7.65105 17.9983 5.55475C17.9202 3.45845 16.1978 1.79951 14.1 1.80005ZM16.7656 9.76407C16.0087 10.262 15.1272 10.5373 14.2215 10.5585C13.9654 11.4353 13.4487 12.2136 12.74 12.79C14.7388 13.3699 16.2 15.2142 16.2 17.4V18.6H19.8V13.8C19.7999 11.9292 18.5628 10.2838 16.7656 9.76407ZM12.5656 13.3641C10.947 14.4254 8.85303 14.4254 7.23445 13.3641C5.43724 13.8838 4.20017 15.5292 4.20001 17.4V21C4.20001 21.6628 4.73727 22.2001 5.40001 22.2001H15.6V17.4C15.5999 15.5292 14.3628 13.8838 12.5656 13.3641ZM13.8 9.30005C13.8 11.454 12.0539 13.2 9.90001 13.2C7.7461 13.2 6.00001 11.454 6.00001 9.30005C6.00001 7.14614 7.7461 5.40005 9.90001 5.40005C12.0539 5.40005 13.8 7.14614 13.8 9.30005Z" fill="currentColor"/>
</svg>
