<svg width="24" height="24" viewBox="0 0 24 24" fill="currentColor" xmlns="http://www.w3.org/2000/svg">
<path fill-rule="evenodd" clip-rule="evenodd" d="M19.8678 6.05605L16.9731 9.91552L19.6946 18.0798C19.834 18.3358 19.7952 18.6522 19.5981 18.867L19.5976 18.8696L19.5784 18.8889L18.4205 20.0467L14.1056 12.8041L8.77174 17.152L10.1372 20.3381C10.1372 20.3381 10.137 20.3397 10.1365 20.3423C10.178 20.464 10.1474 20.5988 10.0573 20.6907C10.0575 20.6905 10.0572 20.6908 10.0573 20.6907L10.0551 20.6931L9.73668 21.0115L2.9826 14.2575L3.29979 13.9402C3.30017 13.9399 3.30063 13.9394 3.30101 13.9391C3.39924 13.8409 3.54722 13.812 3.67512 13.8662L3.67697 13.8659L6.842 15.2223L11.1733 9.90909L3.9667 5.55431L5.10524 4.41577C5.28103 4.23996 5.53858 4.17374 5.77738 4.24297L5.78065 4.24213L14.0785 7.02093L17.938 4.12631C18.9841 3.3345 20.2222 2.74019 20.7558 3.0994C20.7617 3.10329 20.7675 3.10722 20.7732 3.1114C20.7797 3.1162 20.7861 3.121 20.7924 3.12597C20.8207 3.148 20.8462 3.17347 20.8682 3.20181C20.8732 3.208 20.8778 3.21438 20.8826 3.22079C20.8868 3.22665 20.8909 3.23265 20.8949 3.23869C21.2534 3.77229 20.6569 5.00989 19.8678 6.05605Z" fill="currentColor"/>
</svg>
