<svg width="24" height="24" viewBox="0 0 24 24" fill="currentColor" xmlns="http://www.w3.org/2000/svg">
<path fill-rule="evenodd" clip-rule="evenodd" d="M4.72805 6H19.2001C20.5255 6 21.4855 7.08022 21.6 8.4L22.2001 15.6C22.2001 16.9255 21.1255 18 19.8 18H15.5979C13.8 18 13.8 15.5515 11.9808 15.576C10.2 15.6 10.2 18 8.39045 18H4.20005C2.87457 18 1.80005 16.9255 1.80005 15.6L2.32805 8.4C2.39124 7.0656 3.40258 6 4.72805 6ZM7.53605 9.6C8.86153 9.6 9.93605 10.6745 9.93605 12C9.93605 13.3255 8.86153 14.4 7.53605 14.4C6.21057 14.4 5.13605 13.3255 5.13605 12C5.13605 10.6745 6.21057 9.6 7.53605 9.6ZM16.464 9.6C17.7895 9.6 18.864 10.6745 18.864 12C18.864 13.3255 17.7895 14.4 16.464 14.4C15.1386 14.4 14.064 13.3255 14.064 12C14.064 10.6745 15.1386 9.6 16.464 9.6Z" fill="currentColor"/>
</svg>
