<svg width="24" height="24" viewBox="0 0 24 24" fill="currentColor" xmlns="http://www.w3.org/2000/svg">
<path fill-rule="evenodd" clip-rule="evenodd" d="M15 1.80005V5.40005C15 6.06279 15.4776 6.60005 16.0667 6.60005H19.8L15 1.80005ZM16.2 7.80005C14.8745 7.80005 13.8 6.72553 13.8 5.40005V1.80005H4.2V20.9946C4.2 20.9964 4.2 20.9982 4.2 21C4.2 21.6628 4.73726 22.2001 5.4 22.2001H19.8V7.80005H16.2ZM9.49728 7.63138H10.02C10.2186 7.63574 10.4123 7.56915 10.5663 7.44355C10.7192 7.31829 10.7956 7.15247 10.7957 6.94611C10.7957 6.72715 10.7224 6.55622 10.5757 6.43334C10.4291 6.31046 10.2439 6.24902 10.02 6.24902H9.32225C9.18033 5.97854 9.10937 5.76545 9.10939 5.60974C9.10939 5.41318 9.18783 5.24805 9.34471 5.11435C9.49108 4.98463 9.68004 4.91326 9.87561 4.91383C10.0932 4.91383 10.2745 4.95512 10.4195 5.0377C10.5646 5.12027 10.6962 5.25355 10.8145 5.43754C10.9 5.56778 11.0035 5.68531 11.1219 5.78666C11.2274 5.87001 11.3588 5.91345 11.4932 5.90933C11.6977 5.91286 11.8942 5.83025 12.0347 5.68169C12.1809 5.53511 12.2611 5.33544 12.2571 5.12851C12.2397 4.71491 12.0103 4.36028 11.5689 4.06462C11.1069 3.75481 10.5354 3.59988 9.85433 3.59988C9.47732 3.6017 9.10383 3.67246 8.75229 3.80868C8.38493 3.94788 8.08144 4.15428 7.8418 4.42788C7.60217 4.70148 7.48236 5.02781 7.48236 5.40686C7.48236 5.64123 7.54069 5.92195 7.65737 6.24902H7.36649C7.13313 6.24902 6.94709 6.31046 6.80837 6.43334C6.66965 6.55622 6.60026 6.72715 6.60026 6.94611C6.60026 7.16193 6.67121 7.3301 6.81309 7.45063C6.95498 7.57116 7.13945 7.63141 7.36649 7.63138H7.9577C7.91826 7.92362 7.86466 8.15774 7.7969 8.33374C7.72914 8.50974 7.60777 8.70693 7.4328 8.92531C7.28457 9.09651 7.21047 9.27405 7.21048 9.45792C7.21048 9.95285 7.48796 10.2004 8.04292 10.2004H11.531C11.6624 10.2016 11.7924 10.1738 11.9118 10.119C12.0248 10.0679 12.1205 9.98511 12.1873 9.88068C12.2558 9.7708 12.2907 9.64331 12.2878 9.51386C12.2878 9.30156 12.2149 9.13565 12.069 9.01613C11.9232 8.89661 11.7439 8.83685 11.531 8.83685H9.11884C9.37109 8.36128 9.49726 7.95944 9.49728 7.63138ZM7.8 15.6H16.2C16.5314 15.6 16.8 15.8687 16.8 16.2C16.8 16.5314 16.5314 16.8 16.2 16.8H7.8C7.46863 16.8 7.2 16.5314 7.2 16.2C7.2 15.8687 7.46863 15.6 7.8 15.6ZM7.8 12.6H16.2C16.5314 12.6 16.8 12.8687 16.8 13.2C16.8 13.5314 16.5314 13.8 16.2 13.8H7.8C7.46863 13.8 7.2 13.5314 7.2 13.2C7.2 12.8687 7.46863 12.6 7.8 12.6ZM7.8 18.6H12C12.3314 18.6 12.6 18.8687 12.6 19.2001C12.6 19.5314 12.3314 19.8 12 19.8H7.8C7.46863 19.8 7.2 19.5314 7.2 19.2001C7.2 18.8687 7.46863 18.6 7.8 18.6Z" fill="currentColor"/>
</svg>
