<svg width="24" height="24" viewBox="0 0 24 24" fill="currentColor" xmlns="http://www.w3.org/2000/svg">
<path fill-rule="evenodd" clip-rule="evenodd" d="M11.9733 9.60842C12.254 9.61209 12.5239 9.50091 12.7206 9.30065C12.9229 9.10546 13.0353 8.83529 13.0313 8.55425C13.0352 8.27326 12.9243 8.00286 12.7243 7.80545C12.5265 7.60603 12.2573 7.49385 11.9765 7.49385C11.6956 7.49385 11.4264 7.60603 11.2286 7.80545C11.0287 8.00289 10.9179 8.27328 10.9217 8.55425C10.9207 8.8337 11.0311 9.10203 11.2285 9.29987C11.4258 9.49771 11.6939 9.60875 11.9733 9.60842ZM13.8 16.2H10.2V15.864C10.4352 15.8564 10.7981 15.7793 10.9077 15.6548C10.9467 15.6096 11.016 15.5162 11.016 15V11.5418C11.016 11.0508 10.9423 10.8657 10.885 10.7968C10.804 10.7001 10.4518 10.6475 10.2 10.632V10.2H12.936V15C12.936 15.4914 13.0067 15.6163 13.064 15.685C13.1448 15.7817 13.5437 15.8486 13.8 15.864V16.2ZM16.7772 1.80005H7.17484C6.85673 1.80005 6.55172 1.92672 6.32689 2.15176C6.10207 2.3768 5.97585 2.68194 5.97601 3.00005V21C5.97568 21.6625 6.51239 22.1997 7.17479 22.2001H16.7772C17.0953 22.2001 17.4003 22.0734 17.6251 21.8483C17.85 21.6233 17.9762 21.3182 17.976 21V3.00005C17.9763 2.33765 17.4396 1.80039 16.7772 1.80005ZM11.076 2.40005H12.876C13.0417 2.40005 13.176 2.53436 13.176 2.70005C13.176 2.86573 13.0417 3.00005 12.876 3.00005H11.076C10.9103 3.00005 10.776 2.86573 10.776 2.70005C10.776 2.53436 10.9103 2.40005 11.076 2.40005ZM11.976 21.6C11.6446 21.6 11.376 21.3314 11.376 21C11.376 20.6687 11.6446 20.4 11.976 20.4C12.3074 20.4 12.576 20.6687 12.576 21C12.576 21.3314 12.3074 21.6 11.976 21.6ZM16.776 19.8H7.17601V3.60005H16.776V19.8Z" fill="currentColor"/>
</svg>
