<svg width="24" height="24" viewBox="0 0 24 24" fill="currentColor" xmlns="http://www.w3.org/2000/svg">
<path fill-rule="evenodd" clip-rule="evenodd" d="M21.5798 11.998C21.2619 11.9986 20.9994 12.2467 20.9808 12.564C20.6889 17.2719 16.7792 20.9998 11.9991 20.9998C11.857 20.9998 11.7156 20.9965 11.5751 20.9899C11.529 20.9757 11.4814 20.967 11.4333 20.964C6.72676 20.672 2.99999 16.7612 2.99999 11.9798C2.99999 7.19831 6.72676 3.28756 11.4333 2.9955C11.7507 2.97681 11.9986 2.71429 11.9991 2.39641C11.9994 2.23125 11.9315 2.07331 11.8114 1.95987C11.6914 1.84643 11.5299 1.78756 11.365 1.79716C6.02754 2.12468 1.79999 6.55837 1.79999 11.9798C1.79999 12.1866 1.80611 12.3919 1.81835 12.5957C1.81835 12.6078 1.81864 12.62 1.81938 12.6323C2.14681 17.9712 6.57928 22.2 11.9991 22.2C17.419 22.2 21.8515 17.9712 22.1789 12.6323C22.1885 12.4675 22.1297 12.3059 22.0163 12.1858C21.9029 12.0658 21.7449 11.9978 21.5798 11.998ZM12.024 18.6C8.5659 18.6 5.72915 15.939 5.44861 12.5524C5.42351 12.2407 5.16347 12.0005 4.8508 12C4.68335 12 4.5235 12.0699 4.40992 12.1929C4.29634 12.316 4.23936 12.4809 4.25279 12.6478C4.5818 16.6526 7.93542 19.8 12.024 19.8C16.1126 19.8 19.4662 16.6526 19.7952 12.6478C19.8086 12.4809 19.7516 12.316 19.6381 12.1929C19.5245 12.0699 19.3646 12 19.1972 12C18.8845 12.0005 18.6245 12.2407 18.5994 12.5524C18.3188 15.939 15.4821 18.6 12.024 18.6Z" fill="currentColor"/>
</svg>
