<svg width="24" height="24" viewBox="0 0 24 24" fill="currentColor" xmlns="http://www.w3.org/2000/svg">
<path fill-rule="evenodd" clip-rule="evenodd" d="M22.2 9.00002H21V6.60002C21 5.93728 20.4628 5.40002 19.8 5.40002H2.40001C1.73727 5.40002 1.20001 5.93728 1.20001 6.60002V17.4C1.20001 18.0628 1.73727 18.6 2.40001 18.6H19.8C20.4628 18.6 21 18.0628 21 17.4V15H22.2C22.5314 15 22.8 14.7314 22.8 14.4V9.60002C22.8 9.26865 22.5314 9.00002 22.2 9.00002ZM19.2 16.8H3.00001V7.20002H19.2V16.8ZM9.00001 8.40002H4.20001V15.6H9.00001V8.40002Z" fill="currentColor"/>
</svg>
