<svg width="24" height="24" viewBox="0 0 24 24" fill="currentColor" xmlns="http://www.w3.org/2000/svg">
<path fill-rule="evenodd" clip-rule="evenodd" d="M10.4793 5.99252H13.4902C13.6445 5.99252 13.7926 5.93116 13.9017 5.822C14.0108 5.71283 14.0721 5.56478 14.0721 5.41042V4.19002C14.0721 3.86013 13.8047 3.59268 13.4749 3.59264H13.0652C13.0393 3.59243 13.0154 3.57892 13.0019 3.55688C12.7829 3.20593 12.3984 2.99268 11.9847 2.99268C11.571 2.99268 11.1865 3.20593 10.9675 3.55688C10.954 3.57891 10.9301 3.59243 10.9042 3.59264H10.513C10.3497 3.59266 10.1931 3.65755 10.0777 3.77304C9.9622 3.88852 9.89736 4.04515 9.89736 4.20845V5.41042C9.89736 5.56478 9.95862 5.71283 10.0678 5.82199C10.1769 5.93116 10.3249 5.99252 10.4793 5.99252ZM15.6507 13.4849C15.5068 13.484 15.3765 13.5701 15.321 13.703C15.2655 13.8358 15.2957 13.9891 15.3975 14.0909C15.4993 14.1927 15.6526 14.2229 15.7854 14.1674C15.9183 14.1119 16.0044 13.9816 16.0035 13.8377C16.0036 13.7441 15.9665 13.6543 15.9003 13.5881C15.8341 13.5219 15.7443 13.4848 15.6507 13.4849ZM16.4653 12.5408C14.8008 9.98213 14.4547 7.78503 14.4083 7.43206C14.3766 6.95963 13.9842 6.59249 13.5107 6.59249H10.5117C10.0574 6.59249 9.67449 6.93136 9.61891 7.38224C9.61891 7.38224 9.36725 9.80881 7.48289 12.6516C6.91343 13.5265 6.61126 14.5482 6.61286 15.5921C6.61286 18.5743 9.02983 20.9918 12.0113 20.9918C14.9928 20.9918 17.4097 18.5743 17.4097 15.5921C17.4113 14.5028 17.082 13.4387 16.4653 12.5408ZM13.6211 13.1569C14.3557 13.1569 14.8539 13.7381 14.8539 14.718C14.8539 15.6979 14.3557 16.2791 13.6211 16.2791C12.8864 16.2791 12.3924 15.6978 12.3924 14.718C12.3924 13.7381 12.8863 13.1569 13.6211 13.1569ZM11.2095 13.2398H11.5457C11.828 13.2398 11.9276 13.3852 11.9276 13.7174V15.7436C11.9276 16.0633 11.8196 16.221 11.5872 16.221C11.3549 16.221 11.2468 16.0633 11.2468 15.7436V13.8627H11.1846C10.8899 13.8627 10.7321 13.7547 10.7321 13.5513C10.7321 13.3395 10.8899 13.2398 11.2095 13.2398ZM9.71931 13.2398H10.0555C10.3378 13.2398 10.4374 13.3852 10.4374 13.7174V15.7436C10.4374 16.0633 10.3294 16.221 10.097 16.221C9.86467 16.221 9.75667 16.0633 9.75667 15.7436V13.8627H9.69442C9.3997 13.8627 9.24197 13.7547 9.24197 13.5513C9.24204 13.3395 9.39977 13.2398 9.71931 13.2398ZM15.4138 18.0527L15.1861 19.1918L14.7606 18.7663C13.1827 20.1337 10.8398 20.1337 9.26194 18.7663L8.83649 19.1918L8.60873 18.0528L8.41234 17.0706L9.54353 17.2969L10.533 17.4949L10.1133 17.9147C11.2175 18.8176 12.805 18.8176 13.9092 17.9147L13.4895 17.4949L14.479 17.2969L15.6102 17.0706L15.4138 18.0527ZM15.6466 14.4564C15.4838 14.4573 15.3274 14.3927 15.2127 14.2772C15.0979 14.1616 15.0344 14.0048 15.0364 13.842C15.0364 13.5931 15.1866 13.3688 15.4167 13.274C15.6468 13.1791 15.9114 13.2325 16.0868 13.4091C16.2622 13.5857 16.3137 13.8506 16.2172 14.0801C16.1208 14.3095 15.8955 14.4581 15.6466 14.4564ZM13.6252 15.6564C13.9448 15.6564 14.1565 15.3201 14.1565 14.7139C14.1565 14.1078 13.9407 13.7755 13.6252 13.7755C13.3098 13.7755 13.0939 14.1077 13.0939 14.7139C13.0939 15.3202 13.3056 15.6564 13.6252 15.6564Z" fill="currentColor"/>
</svg>
