<svg width="24" height="24" viewBox="0 0 24 24" fill="currentColor" xmlns="http://www.w3.org/2000/svg">
<path fill-rule="evenodd" clip-rule="evenodd" d="M17.4 19.2H14.9858C17.1218 18.1917 18.6 16.0186 18.6 13.5C18.6018 11.5672 17.7147 9.74104 16.1945 8.54762C16.1393 7.78967 15.6791 7.12061 14.991 6.79802L16.1569 4.77835C16.2365 4.64054 16.2581 4.47676 16.2169 4.32305C16.1757 4.16934 16.0751 4.03829 15.9373 3.95873L16.8373 2.39995L14.7589 1.19995L13.8589 2.7588C13.7211 2.6792 13.5573 2.65762 13.4036 2.69879C13.2499 2.73997 13.1188 2.84053 13.0392 2.97835L8.53921 10.7726L7.50001 10.1726L6.60001 11.7315L11.7962 14.7315L12.6962 13.1726L11.657 12.5726L12.8985 10.4222C13.4965 10.8392 14.2678 10.9164 14.9367 10.6265C16.4241 11.9906 16.625 14.2642 15.3999 15.8681C14.1748 17.472 11.9284 17.8762 10.221 16.8H12V15.6H4.20001V16.8H6.60001V19.2C5.93727 19.2 5.40001 19.7372 5.40001 20.4V22.2H18.6V20.4C18.6 19.7372 18.0628 19.2 17.4 19.2Z" fill="currentColor"/>
</svg>
