<svg width="24" height="24" viewBox="0 0 24 24" fill="currentColor" xmlns="http://www.w3.org/2000/svg">
<path fill-rule="evenodd" clip-rule="evenodd" d="M21.768 14.9652L16.5235 9.73918V12.5661H15.5522C15.5839 12.3746 15.6002 12.1778 15.6002 11.9772C15.6002 11.1355 15.3115 10.3613 14.8274 9.74854V6.34702C14.8274 5.4103 14.0681 4.65094 13.1313 4.65094H7.4779V1.82422L2.23342 7.05022C1.97974 7.3087 1.82422 7.65838 1.82422 8.0431C1.82422 8.42806 1.97974 8.77774 2.23342 9.03622L7.4779 14.2622V11.4353H8.44078C8.41414 11.6119 8.40022 11.7929 8.40022 11.9772C8.40022 12.8198 8.68966 13.5948 9.17494 14.208C9.17422 14.226 9.17398 14.244 9.17398 14.2622V17.6544C9.17398 18.5911 9.93334 19.3505 10.8701 19.3505H16.5235V22.1772L21.768 16.9512C22.0217 16.6927 22.1772 16.343 22.1772 15.9583C22.1772 15.5733 22.0217 15.2237 21.768 14.9652ZM12.0002 8.95318C13.1369 8.95318 14.1271 9.5803 14.6438 10.5074C14.8862 10.9425 15.0242 11.4437 15.0242 11.9772C15.0242 12.1788 15.0045 12.3756 14.9669 12.5661C14.693 13.9543 13.4688 15.0012 12.0002 15.0012C10.8732 15.0012 9.89014 14.3846 9.37006 13.4705C9.11926 13.0301 8.97622 12.5203 8.97622 11.9772C8.97622 11.7921 8.99278 11.6112 9.0247 11.4353C9.27982 10.0238 10.5151 8.95318 12.0002 8.95318ZM11.5766 10.4949H10.5093V13.4594H11.5766V10.4949ZM13.4741 10.4949H12.4238V13.4594H13.4741V10.4949Z" fill="currentColor"/>
</svg>
