<svg width="24" height="24" viewBox="0 0 24 24" fill="currentColor" xmlns="http://www.w3.org/2000/svg">
<path fill-rule="evenodd" clip-rule="evenodd" d="M11.4759 9.1568V15.1518C11.4728 15.8789 10.8825 16.4666 10.1555 16.4666C9.42842 16.4666 8.83817 15.8789 8.83507 15.1518V12.3407L4.24704 16.9235C3.73103 17.4334 2.90025 17.4311 2.38703 16.9185C1.87381 16.4058 1.8706 15.575 2.37984 15.0585L6.96778 10.4757H4.15368C3.67984 10.4797 3.24025 10.2292 3.00215 9.81952C2.76406 9.40982 2.76406 8.90388 3.00215 8.49418C3.24025 8.08448 3.67984 7.83401 4.15368 7.838H10.1555C10.8842 7.83767 11.4753 8.42805 11.4759 9.1568ZM22.0124 9.25007L17.4244 13.833H20.2385C20.7129 13.828 21.1535 14.0783 21.3921 14.4884C21.6308 14.8984 21.6308 15.4051 21.3921 15.8152C21.1535 16.2252 20.7129 16.4755 20.2385 16.4706H14.2367C13.5079 16.4709 12.9168 15.8805 12.9163 15.1517V9.1568C12.9194 8.42976 13.5096 7.84202 14.2367 7.84202C14.9637 7.84202 15.554 8.42976 15.5571 9.1568V11.9679L20.1451 7.38498C20.6605 6.87129 21.4944 6.87173 22.0092 7.38595C22.5241 7.90018 22.5255 8.7341 22.0124 9.25007Z" fill="currentColor"/>
</svg>
