<svg width="24" height="24" viewBox="0 0 24 24" fill="currentColor" xmlns="http://www.w3.org/2000/svg">
<path fill-rule="evenodd" clip-rule="evenodd" d="M11.8784 7.55242C11.3607 7.55242 10.9118 7.74272 10.5318 8.12333C10.1517 8.50394 9.9617 8.95346 9.9617 9.47189C9.9617 10.0015 10.1508 10.4575 10.529 10.8399C10.9072 11.2223 11.357 11.4135 11.8784 11.4135C12.4072 11.4135 12.8625 11.2223 13.2444 10.8399C13.6263 10.4575 13.8172 10.0015 13.8172 9.47189C13.8172 8.95349 13.6253 8.50397 13.2416 8.12333C12.8579 7.74269 12.4035 7.55242 11.8784 7.55242ZM0 0V24H24V0H0ZM16.5133 13.008C15.9496 14.1628 15.2014 15.346 14.2688 16.5576C13.6666 17.3324 13.0277 18.1145 12.3521 18.9039C12.051 19.2344 11.7719 19.4942 11.5149 19.6833C11.269 19.8687 10.9691 19.9683 10.6612 19.967C10.2316 19.967 9.83778 19.8301 9.47976 19.5565C9.12174 19.2829 8.94274 18.9461 8.94276 18.546C8.94276 18.021 9.16858 17.5161 9.62023 17.0314L10.3417 16.2437C10.7419 15.8178 11.3294 15.0871 12.1043 14.0516C11.6526 14.1875 11.2762 14.2555 10.9752 14.2554C10.1416 14.2554 9.37689 14.048 8.68116 13.633C7.27517 12.792 6.41607 11.2727 6.42018 9.63437C6.42018 8.5953 6.64785 7.65897 7.10316 6.82538C7.54385 6.00678 8.20746 5.32979 9.01711 4.87286C9.83778 4.40469 10.7695 4.1706 11.8123 4.1706C12.8368 4.1706 13.7731 4.38908 14.6213 4.82604C15.4696 5.263 16.1378 5.8854 16.6262 6.69324C17.1145 7.50108 17.3587 8.42822 17.3587 9.47467C17.3587 10.6754 17.0769 11.8531 16.5133 13.008Z" fill="currentColor"/>
</svg>
