<svg width="24" height="24" viewBox="0 0 24 24" fill="currentColor" xmlns="http://www.w3.org/2000/svg">
<path fill-rule="evenodd" clip-rule="evenodd" d="M18.6 8.40005C18.6 4.75505 15.6451 1.80005 12 1.80005C8.35496 1.80005 5.4 4.75505 5.4 8.40005C5.39824 9.54954 5.69811 10.6794 6.26965 11.6767L12 22.2001L17.7305 11.6767C18.302 10.6794 18.6018 9.54954 18.6 8.40005ZM10.9137 11.7132C11.1122 11.9004 11.3582 12.0548 11.6318 12.1298C11.7119 12.1519 11.7938 12.1667 11.8766 12.174C11.9228 12.178 11.9696 12.1801 12.0169 12.1801C12.0707 12.1801 12.1239 12.1775 12.1764 12.1723C12.2527 12.1647 12.3282 12.1506 12.402 12.1303C12.6756 12.0554 12.9216 11.9003 13.1201 11.7132C13.6237 11.961 13.9427 12.4735 13.9426 13.0348V13.4104C13.4286 13.665 12.803 13.8 12.0708 13.8C11.2808 13.8 10.6221 13.6601 10.0912 13.397V13.0348C10.0911 12.4735 10.4101 11.961 10.9137 11.7132ZM10.7709 10.6679C10.7709 10.2227 11.0084 9.81134 11.3939 9.58876C11.7794 9.36618 12.2544 9.36618 12.6399 9.58876C13.0254 9.81134 13.2629 10.2227 13.2629 10.6679C13.2629 10.6714 13.2629 10.6749 13.2628 10.6784C13.2575 11.3627 12.7011 11.9144 12.0168 11.9139C11.9699 11.9139 11.9231 11.9112 11.8765 11.906C11.2528 11.8359 10.7789 11.3123 10.7712 10.6847C10.771 10.6791 10.7709 10.6735 10.7709 10.6679ZM17.1626 9.98815C17.1626 9.18226 16.7045 8.44643 15.9814 8.09066C15.62 8.43146 15.1486 8.69846 14.6263 8.74994C14.5509 8.75735 14.4745 8.76111 14.3972 8.7612C14.3293 8.7612 14.2621 8.75811 14.1957 8.75235C13.6623 8.70624 13.1807 8.43744 12.8129 8.09066C12.4948 8.24775 12.2211 8.482 12.0168 8.77205C11.8125 8.482 11.5389 8.24773 11.2208 8.09062C10.8594 8.43142 10.388 8.69842 9.86566 8.7499C9.79031 8.75731 9.71393 8.76106 9.63654 8.76115C9.56864 8.76115 9.50146 8.75806 9.43494 8.7523C8.90154 8.70619 8.41998 8.43739 8.05218 8.09062C7.32893 8.44645 6.87086 9.18249 6.87102 9.98854C6.87102 10.0284 6.87284 10.0682 6.87567 10.1078C6.69249 9.55712 6.59941 8.98044 6.60001 8.40005C6.60001 5.41778 9.01763 3.00005 12 3.00005C14.9824 3.00005 17.4 5.41778 17.4 8.40005C17.4005 8.93829 17.3205 9.47358 17.1626 9.98815ZM10.3272 4.93819C9.7748 4.70715 9.14343 4.76772 8.64502 5.09958C8.14661 5.43145 7.84723 5.99061 7.84736 6.58939C7.84736 6.59748 7.84755 6.60552 7.84767 6.61358C7.85868 7.51498 8.5394 8.26701 9.43525 8.36748C9.93917 8.42524 10.4439 8.26616 10.8236 7.92988C11.2034 7.59361 11.4223 7.11182 11.4259 6.60461C11.4259 6.59952 11.4261 6.59448 11.4261 6.58939C11.4261 5.8678 10.9929 5.21677 10.3272 4.93819ZM15.0877 4.93819C14.5353 4.70714 13.904 4.76772 13.4055 5.09958C12.9071 5.43144 12.6078 5.99061 12.6079 6.58939C12.6079 6.59748 12.6081 6.60552 12.6082 6.61358C12.6212 7.59237 13.4184 8.37897 14.3973 8.37883C15.1972 8.37951 15.9002 7.8488 16.1188 7.0793C16.1625 6.92482 16.1853 6.76516 16.1864 6.60461C16.1864 6.59952 16.1866 6.59448 16.1866 6.58939C16.1866 5.86778 15.7534 5.21674 15.0877 4.93819Z" fill="currentColor"/>
</svg>
