<svg width="24" height="24" viewBox="0 0 24 24" fill="currentColor" xmlns="http://www.w3.org/2000/svg">
<path fill-rule="evenodd" clip-rule="evenodd" d="M10.5422 4.86415L11.0024 5.32408L8.2415 8.0837L7.78128 7.62376L6.5665 8.83799C6.2785 9.12581 6.11669 9.51628 6.11669 9.92344C6.11669 10.3306 6.2785 10.7211 6.5665 11.0089L9.16178 13.603C9.67014 14.111 10.494 14.111 11.0024 13.603L12.3828 12.2232L11.9226 11.7632L12.8429 10.8433L20.2053 18.2023C20.4594 18.4563 20.8714 18.4563 21.1255 18.2023C21.2476 18.0803 21.3161 17.9149 21.3161 17.7424C21.3161 17.5698 21.2476 17.4044 21.1255 17.2824L13.7632 9.92344L14.6835 9.00357L15.1437 9.46351L16.9842 7.62376L12.3858 3.02138L10.5422 4.86415ZM14.2264 8.54059L11.4656 11.3002L8.70468 8.54059L11.4656 5.78099L14.2264 8.54059ZM3.85675 17.4214H3.00782C2.84214 17.4214 2.70782 17.2871 2.70782 17.1214C2.70782 16.9557 2.84214 16.8214 3.00782 16.8214H3.85675C4.02244 16.8214 4.15675 16.9557 4.15675 17.1214C4.15675 17.2871 4.02244 17.4214 3.85675 17.4214ZM4.50852 15.8983V15.0498C4.50999 14.8851 4.64394 14.7524 4.80865 14.7524C4.97337 14.7524 5.10731 14.8851 5.10878 15.0498V15.8983C5.10731 16.063 4.97337 16.1958 4.80865 16.1958C4.64394 16.1958 4.50999 16.063 4.50852 15.8983ZM4.14562 16.6933C4.07203 16.6934 4.00099 16.6664 3.94608 16.6174L3.31212 16.0531C3.23208 15.9818 3.19616 15.8732 3.2179 15.7682C3.23964 15.6632 3.31573 15.5778 3.41751 15.5441C3.51929 15.5105 3.63129 15.5337 3.71134 15.605L4.3453 16.1693C4.43824 16.2521 4.47037 16.3838 4.42603 16.5001C4.3817 16.6164 4.27012 16.6933 4.14562 16.6933ZM5.10878 17.4214H11.7118V18.6214H12.312V21.0214H4.50852V18.6214H5.10878V17.4214Z" fill="currentColor"/>
</svg>
