<svg width="24" height="24" viewBox="0 0 24 24" fill="currentColor" xmlns="http://www.w3.org/2000/svg">
<path fill-rule="evenodd" clip-rule="evenodd" d="M8.53921 9.02404L7.63921 10.5828L8.15881 10.8828L9.05881 9.32404L8.53921 9.02404ZM7.59553 8.47924C7.76999 7.4857 7.3045 6.48912 6.43063 5.98523C5.55675 5.48134 4.46105 5.57772 3.68856 6.22643C2.91607 6.87514 2.63172 7.93768 2.97694 8.88551C3.32217 9.83334 4.22327 10.4641 5.23201 10.464C5.73823 10.4648 6.23158 10.3046 6.64081 10.0066L7.11961 10.2828L8.01961 8.72404L7.59553 8.47924ZM20.4 17.724V18.324C20.4 18.5312 20.2231 18.624 20.016 18.624H18.6V20.04C18.6 20.2472 18.5071 20.424 18.3 20.424H17.7C17.4929 20.424 17.4 20.1992 17.4 19.992V18.624H15.984C15.7769 18.624 15.6 18.5312 15.6 18.324V17.724C15.6 17.5169 15.7769 17.424 15.984 17.424H17.4V16.008C17.4 15.8009 17.4929 15.624 17.7 15.624H18.3C18.5071 15.624 18.6 15.8009 18.6 16.008V17.424H20.016C20.2231 17.424 20.4 17.5169 20.4 17.724ZM18 13.824C15.6804 13.824 13.8 15.7044 13.8 18.024C13.8 18.0977 13.8019 18.1709 13.8058 18.2436C13.5541 17.9566 13.2378 17.7334 12.883 17.5925L12.8892 14.8901C14.3733 14.4284 15.2598 12.9106 14.9328 11.3912L17.3523 10.0016C18.2487 10.6564 19.4773 10.6108 20.3228 9.89146C21.1683 9.17208 21.41 7.96667 20.9072 6.97693C20.4044 5.98718 19.2884 5.47149 18.2088 5.73005C17.1292 5.9886 16.3679 6.95391 16.368 8.06404C16.3682 8.20177 16.3802 8.33923 16.4038 8.47492L14.0453 9.82972C12.8904 8.75271 11.0982 8.75586 9.94705 9.83692L9.57841 9.62404L8.67841 11.1828L9.06409 11.4056C8.74736 12.914 9.62415 14.4173 11.0931 14.8844L11.0868 17.6043C10.0106 18.047 9.4071 19.198 9.65493 20.335C9.90276 21.4721 10.9305 22.2675 12.0934 22.2222C13.2562 22.1769 14.219 21.304 14.3777 20.1512C15.4078 21.9055 17.5472 22.6694 19.4555 21.9643C21.3639 21.2591 22.4925 19.2877 22.1344 17.285C21.7763 15.2823 20.0345 13.8242 18 13.824ZM10.2 12.024C10.2 11.0299 11.0059 10.224 12 10.224C12.9941 10.224 13.8 11.0299 13.8 12.024C13.8 13.0182 12.9941 13.824 12 13.824C11.0059 13.824 10.2 13.0182 10.2 12.024ZM18 21.024C16.3432 21.024 15 19.6809 15 18.024C15 16.3672 16.3432 15.024 18 15.024C19.6569 15.024 21 16.3672 21 18.024C21 18.8197 20.684 19.5828 20.1214 20.1454C19.5588 20.708 18.7957 21.024 18 21.024ZM20.4 17.724V18.324C20.4 18.5312 20.2231 18.624 20.016 18.624H18.6V20.04C18.6 20.2472 18.5071 20.424 18.3 20.424H17.7C17.4929 20.424 17.4 20.1992 17.4 19.992V18.624H15.984C15.7769 18.624 15.6 18.5312 15.6 18.324V17.724C15.6 17.5169 15.7769 17.424 15.984 17.424H17.4V16.008C17.4 15.8009 17.4929 15.624 17.7 15.624H18.3C18.5071 15.624 18.6 15.8009 18.6 16.008V17.424H20.016C20.2231 17.424 20.4 17.5169 20.4 17.724ZM20.4 17.724V18.324C20.4 18.5312 20.2231 18.624 20.016 18.624H18.6V20.04C18.6 20.2472 18.5071 20.424 18.3 20.424H17.7C17.4929 20.424 17.4 20.1992 17.4 19.992V18.624H15.984C15.7769 18.624 15.6 18.5312 15.6 18.324V17.724C15.6 17.5169 15.7769 17.424 15.984 17.424H17.4V16.008C17.4 15.8009 17.4929 15.624 17.7 15.624H18.3C18.5071 15.624 18.6 15.8009 18.6 16.008V17.424H20.016C20.2231 17.424 20.4 17.5169 20.4 17.724Z" fill="currentColor"/>
</svg>
