<svg width="24" height="24" viewBox="0 0 24 24" fill="currentColor" xmlns="http://www.w3.org/2000/svg">
<path fill-rule="evenodd" clip-rule="evenodd" d="M22.197 10.128C22.1593 9.49082 21.618 8.99998 20.9799 8.99998H19.923C19.8495 8.99997 19.7841 8.95288 19.7609 8.88307L18.7883 5.96453C18.3179 4.55259 16.9968 3.59998 15.5086 3.59998H8.49546C7.00723 3.59998 5.68608 4.55258 5.21572 5.96453L4.24314 8.88307C4.21988 8.95288 4.15456 8.99998 4.08097 8.99998H3.02408C2.386 8.99998 1.8447 9.49085 1.80697 10.128C1.78804 10.4579 1.90562 10.781 2.13214 11.0216C2.35865 11.2622 2.67414 11.399 3.00457 11.4H3.40364C3.13895 12.1943 3.00456 13.0268 3.00457 13.8641V19.2C3.00642 19.8618 3.54239 20.3979 4.20424 20.4H5.4039C6.06574 20.3979 6.60172 19.8618 6.60356 19.2V18H17.4005V19.2C17.4023 19.8618 17.9383 20.398 18.6002 20.4H19.7998C20.4617 20.398 20.9978 19.8619 20.9996 19.2V13.8641C20.9996 13.0268 20.8647 12.1951 20.6 11.4007L20.9996 11.4C21.33 11.399 21.6455 11.2621 21.8719 11.0215C22.0984 10.781 22.216 10.4578 22.197 10.128ZM6.013 9.82385L6.82528 6.61985C7.00703 5.9029 7.66019 5.39998 8.40954 5.39998H15.5945C16.3438 5.39998 16.997 5.9029 17.1787 6.61978L17.991 9.82378C18.0134 9.91488 17.9925 10.0112 17.9342 10.0848C17.876 10.1583 17.787 10.2009 17.6932 10.2H6.31079C6.21699 10.2009 6.12805 10.1584 6.06982 10.0848C6.01159 10.0113 5.99062 9.91494 6.013 9.82385ZM8.15771 15H6.01297C5.8514 15 5.69645 14.9357 5.58222 14.8215C5.46799 14.7072 5.40385 14.5522 5.40385 14.3907V13.3432C5.40385 13.1607 5.48562 12.9878 5.62675 12.872C5.76788 12.7563 5.95347 12.71 6.13244 12.7457L8.0564 13.1306C8.27077 13.1735 8.44571 13.328 8.5148 13.5354L8.7356 14.198C8.79755 14.3838 8.76642 14.588 8.65192 14.7469C8.53743 14.9058 8.35355 14.9999 8.15771 15ZM18.6001 14.3907C18.6001 14.7271 18.3275 14.9999 17.991 15H15.8463C15.6505 14.9999 15.4666 14.9058 15.3521 14.7469C15.2376 14.588 15.2065 14.3838 15.2684 14.198L15.4892 13.5354C15.5583 13.328 15.7332 13.1735 15.9476 13.1306L17.8715 12.7457C18.0505 12.7099 18.2361 12.7563 18.3772 12.872C18.5184 12.9878 18.6001 13.1607 18.6001 13.3432V14.3907Z" fill="currentColor"/>
</svg>
