<svg width="24" height="24" viewBox="0 0 24 24" fill="currentColor" xmlns="http://www.w3.org/2000/svg">
<path fill-rule="evenodd" clip-rule="evenodd" d="M19.5855 6.59998H8.55708L2.2872 11.2755C1.95286 11.6099 1.80022 12.022 1.80022 12.4676C1.80022 12.9136 1.95283 13.326 2.28742 13.6604L8.55708 18.6H19.5855C20.9672 18.6053 22.1135 17.5326 22.1998 16.1536V9.099C22.1998 7.64772 21.0341 6.59998 19.5855 6.59998ZM16.548 15.1899L16.0152 15.7232C15.8975 15.8411 15.7377 15.9074 15.5711 15.9074C15.4045 15.9074 15.2447 15.8411 15.127 15.7232L13.4398 14.0342L11.7526 15.7232C11.6349 15.8411 11.4752 15.9074 11.3086 15.9074C11.142 15.9074 10.9823 15.8412 10.8646 15.7233L10.3318 15.1899C10.0865 14.9443 10.0865 14.5465 10.3318 14.301L12.0192 12.612L10.3318 10.923C10.0866 10.6774 10.0866 10.2796 10.3318 10.034L10.8646 9.50064C10.9823 9.38278 11.1421 9.31649 11.3086 9.31649C11.4752 9.31649 11.6349 9.38278 11.7526 9.50064L13.44 11.1894L15.1272 9.50057C15.2449 9.38271 15.4046 9.31649 15.5712 9.31649C15.7378 9.31649 15.8975 9.38271 16.0152 9.50057L16.548 10.0339C16.7932 10.2795 16.7932 10.6773 16.548 10.9229L14.8608 12.612L16.548 14.301C16.7931 14.5466 16.7931 14.9443 16.548 15.1899Z" fill="currentColor"/>
</svg>
