<svg width="24" height="24" viewBox="0 0 24 24" fill="currentColor" xmlns="http://www.w3.org/2000/svg">
<path fill-rule="evenodd" clip-rule="evenodd" d="M12 2.11206C6.36668 2.11206 1.79999 5.73846 1.79999 10.2121C1.79999 13.6792 4.54319 16.6375 8.39999 17.793V21.9121L12 18.3121C17.6333 18.3121 22.2 14.6857 22.2 10.2121C22.2 5.73846 17.6333 2.11206 12 2.11206ZM10.6697 12.5637C10.3615 12.8447 9.98063 12.9851 9.52703 12.9849C9.03301 12.9849 8.62181 12.7869 8.29343 12.3909C7.96487 11.9945 7.80066 11.4308 7.8008 10.6998C7.79689 10.0469 7.94467 9.402 8.23249 8.81593C8.52028 8.23062 8.87228 7.76693 9.28849 7.42487C9.70507 7.08316 10.0757 6.91222 10.4005 6.91206C10.617 6.91206 10.7863 6.97632 10.9085 7.10483C11.0304 7.23371 11.0912 7.39958 11.0911 7.60244C11.0911 7.90083 10.9591 8.12088 10.6951 8.26259C10.336 8.45913 10.0516 8.68945 9.84181 8.95355C9.63221 9.21721 9.51375 9.54896 9.48642 9.94878H9.62893C10.0145 9.94878 10.3614 10.0959 10.6697 10.3901C10.9776 10.6846 11.1317 11.052 11.1318 11.4921C11.1318 11.9252 10.9778 12.2824 10.6697 12.5637ZM15.1381 12.5685C14.8296 12.8598 14.4488 13.0053 13.9957 13.0049C13.4943 13.0049 13.0813 12.8018 12.7567 12.3957C12.4318 11.9896 12.2694 11.4243 12.2694 10.6997C12.2659 10.1978 12.3518 9.69929 12.523 9.22746C12.6921 8.76716 12.9104 8.36608 13.1779 8.02422C13.4455 7.682 13.7332 7.41108 14.041 7.21146C14.3491 7.01224 14.6251 6.91244 14.869 6.91206C15.092 6.91206 15.2629 6.97469 15.3816 7.09996C15.5 7.22557 15.5593 7.39307 15.5594 7.60244C15.5594 7.90729 15.4274 8.12734 15.1633 8.26259C14.7909 8.47264 14.51 8.70456 14.3205 8.95835C14.131 9.21214 14.0159 9.54228 13.9752 9.94878H14.1069C14.4861 9.94878 14.8298 10.0959 15.138 10.3901C15.446 10.6847 15.6 11.052 15.6 11.4921C15.6 11.9187 15.446 12.2775 15.1381 12.5685Z" fill="currentColor"/>
</svg>
