<svg width="24" height="24" viewBox="0 0 24 24" fill="currentColor" xmlns="http://www.w3.org/2000/svg">
<path fill-rule="evenodd" clip-rule="evenodd" d="M19.2 3H3V19.2C3 20.1941 3.80589 21 4.8 21H21V4.8C21 3.80589 20.1941 3 19.2 3ZM19.2 18C19.2 18.6627 18.6627 19.2 18 19.2H6C5.33726 19.2 4.8 18.6627 4.8 18V13.8C4.8 13.1373 5.33726 12.6 6 12.6H18C18.6627 12.6 19.2 13.1373 19.2 13.8V18ZM19.2 10.2C19.2 10.8627 18.6627 11.4 18 11.4H6C5.33726 11.4 4.8 10.8627 4.8 10.2V6C4.8 5.33726 5.33726 4.8 6 4.8H18C18.6627 4.8 19.2 5.33726 19.2 6V10.2ZM18 5.4H6C5.66878 5.40037 5.40037 5.66878 5.4 6V10.2C5.40037 10.5312 5.66878 10.7996 6 10.8H18C18.3312 10.7996 18.5996 10.5312 18.6 10.2V6C18.5996 5.66878 18.3312 5.40037 18 5.4ZM13.8 8.4C13.8 8.73137 13.5314 9 13.2 9H10.8C10.4686 9 10.2 8.73137 10.2 8.4V7.8C10.2 7.46863 10.4686 7.2 10.8 7.2H13.2C13.5314 7.2 13.8 7.46863 13.8 7.8V8.4ZM18 13.2H6C5.66878 13.2004 5.40037 13.4688 5.4 13.8V18C5.40037 18.3312 5.66878 18.5996 6 18.6H18C18.3312 18.5996 18.5996 18.3312 18.6 18V13.8C18.5996 13.4688 18.3312 13.2004 18 13.2ZM13.8 16.2C13.8 16.5314 13.5314 16.8 13.2 16.8H10.8C10.4686 16.8 10.2 16.5314 10.2 16.2V15.6C10.2 15.2686 10.4686 15 10.8 15H13.2C13.5314 15 13.8 15.2686 13.8 15.6V16.2Z" fill="currentColor"/>
</svg>
