<svg width="24" height="24" viewBox="0 0 24 24" fill="currentColor" xmlns="http://www.w3.org/2000/svg">
<path fill-rule="evenodd" clip-rule="evenodd" d="M6.72567 11.2974C6.45945 10.5806 6.34252 9.81686 6.38207 9.05318C6.38627 8.97475 6.45173 8.91367 6.53027 8.91489C7.76234 8.93414 8.95795 9.33597 9.95156 10.0647C10.1382 10.0442 10.3258 10.0337 10.5136 10.0335C9.41655 9.10549 8.03562 8.5797 6.59917 8.54313C6.55655 8.5418 6.51662 8.52202 6.48975 8.48892C6.46287 8.45582 6.45171 8.41267 6.45915 8.37069C6.63633 7.35772 7.09075 6.41365 7.77195 5.64329C7.79869 5.61282 7.83684 5.59477 7.87735 5.59343C7.91786 5.59209 7.95713 5.60757 7.98582 5.63621L11.5863 9.23945C11.6435 9.2967 11.6435 9.3895 11.5863 9.44676L10.977 10.0564C11.1298 10.0719 11.2816 10.096 11.4317 10.1287L11.8498 9.7103C11.8773 9.68281 11.9145 9.66736 11.9534 9.66736C11.9922 9.66736 12.0295 9.68281 12.057 9.7103L12.486 10.1396C12.6001 10.0765 12.7164 10.0172 12.8349 9.96148L12.3205 9.44664C12.2632 9.38938 12.2632 9.29658 12.3205 9.23933L13.0466 8.51275C13.1019 8.45747 13.191 8.45545 13.2488 8.50817C13.6568 8.87816 14.1115 9.19318 14.6012 9.4452C14.8688 9.41022 15.1384 9.39344 15.4083 9.39497C14.7145 9.13584 14.0755 8.74903 13.5243 8.25456C13.4941 8.22769 13.4763 8.1896 13.4751 8.14923C13.4739 8.10886 13.4893 8.06977 13.5178 8.04115L15.9322 5.62514C15.9609 5.59659 16.0001 5.58114 16.0405 5.58245C16.081 5.58376 16.1191 5.60172 16.1458 5.63208C17.1205 6.72974 17.6234 8.16719 17.5457 9.63305C17.5426 9.69086 17.5057 9.74139 17.4515 9.76185C17.7263 9.86299 17.9933 9.98422 18.2503 10.1246C18.7769 6.06979 15.2609 2.53865 11.2075 3.04932C7.07756 3.52819 4.51153 7.89528 6.1005 11.7458C6.30597 11.5856 6.51436 11.4362 6.72567 11.2974ZM11.6742 3.75751C13.1341 3.68019 14.5659 4.1796 15.6609 5.14807C15.6914 5.17484 15.7095 5.21302 15.7108 5.25356C15.7122 5.29411 15.6968 5.33341 15.6681 5.36217L13.255 7.77696C13.2263 7.80554 13.1872 7.82103 13.1467 7.81977C13.1063 7.8185 13.0682 7.8006 13.0414 7.77029C12.0922 6.70447 11.5579 5.33285 11.5361 3.90581C11.5348 3.82729 11.5958 3.76181 11.6742 3.75751ZM8.25531 5.15832C9.02691 4.47128 9.97472 4.0129 10.9924 3.83465C11.0344 3.82721 11.0775 3.83839 11.1106 3.86529C11.1437 3.89219 11.1634 3.93214 11.1647 3.97476C11.2027 5.48227 11.7786 6.92648 12.7884 8.04645C12.8409 8.10438 12.8388 8.19323 12.7836 8.2486L12.057 8.97581C12.0295 9.0033 11.9922 9.01875 11.9534 9.01875C11.9145 9.01875 11.8773 9.0033 11.8498 8.97581L8.24855 5.37211C8.21997 5.34342 8.2045 5.30422 8.20578 5.26375C8.20706 5.22328 8.22498 5.18514 8.25531 5.15832ZM20.9736 15.1453C20.7656 10.9103 16.1585 8.44173 12.5285 10.5717C12.7294 10.6986 12.9143 10.8491 13.0793 11.0199C13.219 10.9468 13.3619 10.8802 13.5079 10.82C13.5413 10.8065 13.5785 10.8064 13.6119 10.8198L13.7458 10.873L15.1287 11.4222C15.182 11.4434 15.217 11.495 15.217 11.5523V12.345C15.2159 12.5798 15.2177 13.0658 15.217 13.2987C15.217 13.3443 15.1948 13.3871 15.1575 13.4133L13.949 14.2624C13.8942 14.645 13.8049 15.0219 13.6821 15.3884L13.6994 15.4403L14.122 16.7091C14.1363 16.752 14.129 16.7992 14.1024 16.8357L12.9499 18.4231C12.9163 18.4694 12.8578 18.4906 12.8024 18.4766L12.0166 18.2776C11.7592 18.5798 11.4842 18.8664 11.1929 19.1359C14.7385 23.0346 21.1553 20.4471 20.9736 15.1453ZM15.5465 12.675V11.5429C15.5465 11.4856 15.5813 11.4341 15.6345 11.4129L17.127 10.8155C17.2024 10.7836 17.2749 10.8375 17.3439 10.8631C18.0239 11.1588 18.6287 11.6035 19.1137 12.1645C19.1376 12.1922 19.1496 12.2282 19.1472 12.2646L19.0492 13.8008C19.0456 13.8581 19.0074 13.9074 18.9528 13.9251L17.2145 14.4904C17.1727 14.504 17.1269 14.4971 17.0908 14.4718C16.7456 14.227 16.0387 13.7341 15.6961 13.4918L15.6062 13.4287C15.5689 13.4025 15.5467 13.3597 15.5467 13.3141C15.548 13.2489 15.5456 12.753 15.5465 12.675ZM17.5428 18.7561L16.6716 20.1406C16.6527 20.1709 16.6228 20.1927 16.5881 20.2016C15.7931 20.4004 14.9613 20.4008 14.1661 20.2026C14.1315 20.1938 14.1016 20.1721 14.0826 20.1418L13.2145 18.7705C13.1838 18.722 13.1858 18.6597 13.2195 18.6132L14.3777 17.0178C14.404 16.9816 14.4461 16.9601 14.4909 16.9601H16.2764C16.3212 16.9601 16.3633 16.9816 16.3896 17.0178L17.5377 18.5991C17.5713 18.6454 17.5734 18.7076 17.5428 18.7561ZM19.5665 18.0302C19.5475 18.0604 19.5175 18.0822 19.4829 18.0909L17.967 18.479C17.9114 18.4932 17.8528 18.4721 17.8191 18.4257L16.6474 16.8118C16.6208 16.7752 16.6135 16.7281 16.6278 16.6852L17.2246 14.8937C17.2387 14.8516 17.2719 14.8186 17.3141 14.8049L19.0117 14.2529C19.0661 14.2352 19.1258 14.2524 19.1625 14.2964L20.2771 15.635C20.3 15.6624 20.3115 15.6976 20.3093 15.7333C20.2562 16.5487 20.0009 17.3381 19.5665 18.0302ZM7.33686 13.4918L6.84726 13.0019C6.82213 12.9768 6.79027 12.9595 6.75553 12.9521C6.67525 12.9351 6.59335 12.9728 6.55401 13.0448C6.51467 13.1168 6.5272 13.2061 6.58484 13.2645L7.06283 13.7428L7.37211 14.0522C7.44468 14.1244 7.56197 14.1244 7.63453 14.0522C7.70637 13.9794 7.70637 13.8624 7.63453 13.7896L7.33686 13.4918ZM6.79503 14L6.32243 13.5272C6.14144 13.3606 5.89328 13.6081 6.06001 13.7898L6.53343 14.2635L6.84726 14.5775C6.91978 14.65 7.03731 14.65 7.10977 14.5775C7.18223 14.5049 7.18219 14.3874 7.10967 14.3149L6.79503 14ZM6.27786 14.5328L5.79771 14.0522C5.61663 13.8856 5.36862 14.1332 5.5353 14.3148L6.02857 14.8084L6.3225 15.1026C6.39506 15.1749 6.51235 15.1749 6.58491 15.1026C6.65709 15.03 6.65709 14.9127 6.58491 14.8401L6.27786 14.5328ZM11.5975 18.1716C12.5896 17.0304 13.2239 15.8974 13.5219 14.5319C14.0292 12.1323 12.7361 10.3048 10.3551 10.389C9.07463 10.4047 7.43269 11.1129 6.2493 12.0814C3.56485 14.1298 2.05131 18.0334 3.65955 19.9516C5.47316 22.1418 9.4173 20.6953 11.5975 18.1716ZM4.88015 20.0116C4.43664 19.7783 4.09242 19.3925 3.91098 18.9254C3.84355 18.7538 3.83217 18.5653 3.87846 18.3869C4.09835 17.5469 4.68087 16.4412 5.55522 15.3851L5.79762 15.6278C5.87014 15.7002 5.98767 15.7002 6.06013 15.6277C6.13259 15.5552 6.13255 15.4376 6.06003 15.3652C5.92607 15.2323 5.65796 14.962 5.5244 14.8292L5.27279 14.5774C5.20022 14.5052 5.08294 14.5052 5.01037 14.5774C4.93822 14.6501 4.93822 14.7673 5.01037 14.84L5.28411 15.1139C4.61888 15.984 4.07893 16.8503 3.77675 17.6289C3.77246 17.6394 3.76115 17.6453 3.75003 17.6428C3.73891 17.6403 3.73127 17.63 3.73194 17.6187C3.81579 15.8155 5.3846 13.5077 7.21139 12.2887C8.2491 11.5881 9.20797 11.1956 10.2554 11.1167C10.2668 11.1161 10.277 11.1238 10.2795 11.135C10.2819 11.1461 10.2759 11.1574 10.2653 11.1616C9.31566 11.5373 8.52944 12.062 7.63868 12.7435L7.37211 12.4767C7.29943 12.4048 7.18239 12.4048 7.1097 12.4767C7.03752 12.5493 7.03752 12.6666 7.1097 12.7393L7.3557 12.9854L7.61706 13.247L7.89699 13.527C7.96956 13.5993 8.08685 13.5993 8.15941 13.527C8.23119 13.4542 8.23119 13.3373 8.15941 13.2645L7.96319 13.0681L7.90971 13.0146C7.90822 13.0131 7.90744 13.0111 7.90755 13.009C7.90767 13.0069 7.90867 13.0049 7.91031 13.0036C8.08529 12.8623 8.25957 12.7284 8.43315 12.6018C8.87481 12.2759 9.34148 11.9852 9.82883 11.7326C10.3165 11.4941 10.7182 11.3172 11.1604 11.2473C11.3526 11.2291 11.5432 11.2878 11.7118 11.3781C12.0928 11.5679 12.4057 11.871 12.6075 12.2457C12.7982 12.5908 12.68 12.9334 12.5631 13.2887C12.4644 13.5712 12.3463 13.8466 12.2095 14.1128C11.5834 15.3258 10.6975 16.4089 9.71756 17.375C8.22767 18.8334 6.64359 19.8162 5.48475 20.0868C5.28072 20.1353 5.06608 20.1085 4.88015 20.0116ZM10.9892 17.7381C10.1651 18.6436 9.16554 19.4067 8.03336 19.8821C7.64689 20.0452 7.2434 20.1647 6.83039 20.2382C6.65453 20.2685 6.47692 20.2874 6.29864 20.2949C6.27149 20.2948 6.24823 20.2755 6.24319 20.2488C6.23816 20.2221 6.25276 20.1956 6.278 20.1856C6.43935 20.1217 6.59838 20.0532 6.75507 19.9778C8.08124 19.3344 9.24627 18.3941 10.2729 17.3434C10.8365 16.7656 11.3495 16.1404 11.8061 15.4748C12.1965 14.8994 12.5429 14.2902 12.7938 13.6408C12.8037 13.6154 12.8301 13.6006 12.8568 13.6055C12.8836 13.6104 12.9031 13.6336 12.9033 13.6608C12.8941 13.9075 12.8636 14.153 12.8121 14.3944C12.5412 15.6541 11.8442 16.7889 10.9892 17.7381Z" fill="currentColor"/>
</svg>
