<svg width="24" height="24" viewBox="0 0 24 24" fill="currentColor" xmlns="http://www.w3.org/2000/svg">
<path fill-rule="evenodd" clip-rule="evenodd" d="M22.5291 11.0535C22.5219 10.8244 22.4272 10.6067 22.2644 10.4453L21.6 9.768V4.8C21.5999 4.3225 21.4101 3.86459 21.0724 3.52702C20.7347 3.18946 20.2767 3 19.7992 3H2.40002V15.6072C2.40002 16.0839 2.59013 16.5409 2.92786 16.8773C3.2656 17.2136 3.72335 17.4017 4.20002 17.4H6.60002L6.59983 21.0104L10.2 17.4H12.48L11.1406 19.8937L10.2246 21.6L11.9445 20.7113L14.5765 19.3511L14.6595 19.3082L14.7255 19.2421C15.1014 18.866 15.7751 18.1855 16.56 17.4H21.6V12.36L22.2552 11.7124C22.2642 11.7039 22.2732 11.6951 22.2821 11.6858C22.4466 11.5171 22.5357 11.289 22.5291 11.0535ZM6.59983 6.60209L17.4 6.6C17.7314 6.6 18 6.86863 18 7.2C18 7.53137 17.7314 7.8 17.4 7.8H6.60002C6.38514 7.80139 6.18597 7.68756 6.0781 7.50171C5.97023 7.31585 5.97019 7.08644 6.078 6.90055C6.18581 6.71466 6.38494 6.60076 6.59983 6.60209ZM6.60002 9.6H17.4C17.7314 9.6 18 9.86863 18 10.2C18 10.5314 17.7314 10.8 17.4 10.8H6.60002C6.26865 10.8 6.00002 10.5314 6.00002 10.2C6.00002 9.86863 6.26865 9.6 6.60002 9.6ZM12 13.8H6.60002C6.26865 13.8 6.00002 13.5314 6.00002 13.2C6.00002 12.8686 6.26865 12.6 6.60002 12.6H12C12.3314 12.6 12.6 12.8686 12.6 13.2C12.6 13.5314 12.3314 13.8 12 13.8ZM20.5041 12.6106C20.5008 12.6146 20.497 12.6183 20.493 12.6216C18.8407 14.2752 15.3714 17.7466 14.3012 18.8177L11.6691 20.1778L13.0639 17.5797L19.4503 11.1974L20.4927 12.2126C20.5462 12.2651 20.5779 12.3358 20.5817 12.4106C20.5853 12.4852 20.5571 12.5579 20.5041 12.6106ZM21.8516 11.2677C21.8482 11.2714 21.8446 11.2749 21.8408 11.2782L21.1114 12.0075L19.8739 10.7691L20.8071 9.83592L21.84 10.8696C21.9547 10.9846 21.9599 11.1594 21.8516 11.2677Z" fill="currentColor"/>
</svg>
