<svg width="24" height="24" viewBox="0 0 24 24" fill="currentColor" xmlns="http://www.w3.org/2000/svg">
<path fill-rule="evenodd" clip-rule="evenodd" d="M12 1.79999C8.68706 1.79999 6 4.50959 6 7.8226V16.2014C6 19.5144 8.6856 22.2 11.9986 22.2H12.0014C15.3144 22.2 18 19.5144 18 16.2014V7.8226C18 4.50959 15.3129 1.79999 12 1.79999ZM17.4 16.2031C17.4 19.1854 14.9823 21.6031 12 21.6031C9.01766 21.6031 6.6 19.1854 6.6 16.2031V7.8098C6.60071 4.82569 9.01712 2.40544 12.0012 2.39999H12C14.9844 2.40436 17.401 4.82544 17.4 7.8098V16.2031ZM12 2.99999C9.35717 2.99999 7.2 5.16697 7.2 7.8098V16.2031C7.2 18.8459 9.35717 20.9959 12 20.9959C14.6428 20.9959 16.8 18.8458 16.8 16.2031V7.8098C16.8 5.16697 14.6428 2.99999 12 2.99999ZM11.996 15.588C11.3333 15.588 10.796 15.0507 10.796 14.388C10.796 13.7253 11.3333 13.212 11.996 13.212C12.6587 13.212 13.196 13.7253 13.196 14.388C13.196 14.7062 13.0696 15.0115 12.8445 15.2365C12.6195 15.4616 12.3143 15.588 11.996 15.588ZM13.272 13.0318C12.5279 12.4131 11.4454 12.4236 10.7134 13.0566L10.1487 12.4299C11.1996 11.519 12.7557 11.5039 13.8241 12.3942L13.272 13.0318ZM14.385 11.7617C12.9939 10.6049 10.97 10.6246 9.6017 11.8083L9.0353 11.1798C10.7242 9.72006 13.2213 9.69634 14.9376 11.1237L14.385 11.7617ZM15.5886 10.5555C13.496 8.8196 10.4559 8.84841 8.39671 10.6237L7.83286 9.99772C10.2101 7.9435 13.7244 7.91028 16.14 9.91919L15.5886 10.5555Z" fill="currentColor"/>
</svg>
