<svg width="24" height="24" viewBox="0 0 24 24" fill="currentColor" xmlns="http://www.w3.org/2000/svg">
<path fill-rule="evenodd" clip-rule="evenodd" d="M21.8 6.8V17.6H3.2V18.8H23V6.8H21.8ZM21.2 17V5H2V17H21.2ZM3.5 14C3.39925 14 3.29874 14.01 3.2 14.0301V7.96993C3.69345 8.07022 4.20431 7.91641 4.56036 7.56036C4.91642 7.20431 5.07022 6.69345 4.96993 6.2H18.2301C18.1298 6.69345 18.2836 7.20431 18.6396 7.56036C18.9957 7.91641 19.5066 8.07022 20 7.96993V14.0301C19.5066 13.9298 18.9957 14.0836 18.6396 14.4396C18.2836 14.7957 18.1298 15.3066 18.2301 15.8H4.96993C5.05962 15.3587 4.94644 14.9004 4.66159 14.5516C4.37674 14.2028 3.95034 14.0003 3.5 14ZM5.9 11.9C6.39706 11.9 6.8 11.4971 6.8 11C6.8 10.5029 6.39706 10.1 5.9 10.1C5.40294 10.1 5 10.5029 5 11C5 11.4971 5.40294 11.9 5.9 11.9ZM17.3 11.9C17.7971 11.9 18.2 11.4971 18.2 11C18.2 10.5029 17.7971 10.1 17.3 10.1C16.8029 10.1 16.4 10.5029 16.4 11C16.4 11.4971 16.8029 11.9 17.3 11.9ZM11.6 14.6C13.5882 14.6 15.2 12.9882 15.2 11C15.2 9.01177 13.5882 7.4 11.6 7.4C9.61177 7.4 8 9.01177 8 11C8 12.9882 9.61177 14.6 11.6 14.6ZM9.84102 10.5464C9.92623 10.4707 10.0405 10.4329 10.184 10.4329H10.3627C10.291 10.2314 10.2552 10.0585 10.2552 9.91407C10.2508 9.69252 10.3295 9.47737 10.476 9.31105C10.6278 9.13931 10.8201 9.0082 11.0354 8.92959C11.2514 8.8457 11.4809 8.80212 11.7126 8.801C12.1311 8.801 12.4823 8.89642 12.7662 9.08725C13.0374 9.26941 13.1783 9.48786 13.189 9.74262C13.1915 9.87003 13.1422 9.99301 13.0524 10.0834C12.9662 10.1749 12.8454 10.2258 12.7196 10.2236C12.6371 10.2262 12.5564 10.1994 12.4916 10.1481C12.4189 10.0856 12.3553 10.0132 12.3027 9.93303C12.2301 9.81969 12.1492 9.73758 12.0601 9.68672C11.9709 9.63586 11.8595 9.61042 11.7257 9.6104C11.6055 9.61008 11.4894 9.65405 11.3995 9.73393C11.307 9.80802 11.2537 9.92054 11.2549 10.0391C11.2549 10.1351 11.2985 10.2663 11.3857 10.4329H11.8144C11.952 10.4329 12.0658 10.4707 12.1558 10.5464C12.2459 10.6221 12.2909 10.7274 12.291 10.8623C12.2949 10.9809 12.2427 11.0945 12.15 11.1687C12.0555 11.246 11.9365 11.2871 11.8144 11.2844H11.4932C11.4932 11.4865 11.4157 11.734 11.2607 12.027H12.7429C12.8627 12.0232 12.9799 12.0624 13.0735 12.1374C13.1631 12.211 13.2079 12.3132 13.2079 12.444C13.2097 12.5237 13.1882 12.6022 13.1461 12.6699C13.1051 12.7342 13.0463 12.7852 12.9768 12.8167C12.9035 12.8504 12.8236 12.8676 12.7429 12.8668H10.5996C10.2585 12.8668 10.088 12.7143 10.088 12.4094C10.088 12.2962 10.1335 12.1868 10.2246 12.0813C10.3321 11.9468 10.4067 11.8253 10.4484 11.7169C10.4975 11.5769 10.5306 11.4317 10.5472 11.2843H10.184C10.0445 11.2843 9.93117 11.2472 9.84397 11.1729C9.75677 11.0987 9.71319 10.9951 9.71319 10.8621C9.71319 10.7273 9.75577 10.622 9.84102 10.5464Z" fill="currentColor"/>
</svg>
