<svg width="24" height="24" viewBox="0 0 24 24" fill="currentColor" xmlns="http://www.w3.org/2000/svg">
<path fill-rule="evenodd" clip-rule="evenodd" d="M18.3973 7.23079C16.6367 6.81896 14.7924 7.41173 13.6014 8.77226L12.4215 9.95306L12.7125 10.2443L14.0493 11.5822L15.2901 10.3404L15.4533 10.1769C15.9298 9.70003 16.5708 9.41594 17.2447 9.40677C17.2671 9.40648 17.2897 9.40648 17.3123 9.40677C18.7093 9.42357 19.8509 10.5638 19.8702 11.9619C19.8803 12.6553 19.612 13.3238 19.1253 13.8178C18.6387 14.3118 17.9743 14.5902 17.2808 14.5905C17.2011 14.5905 17.1223 14.5867 17.0444 14.5797C16.8737 14.5643 16.705 14.5319 16.5408 14.483C16.5219 14.4774 16.503 14.4715 16.4842 14.4654C16.119 14.345 15.7876 14.1395 15.5173 13.866L15.2199 13.5684L13.6424 11.9896L12.5204 10.8667L12.0145 10.3604L10.3051 8.64969C10.2335 8.57331 10.1595 8.49925 10.0832 8.42752C8.8915 7.31006 7.22109 6.8604 5.62949 7.22863C5.52107 7.25373 5.41414 7.28247 5.30868 7.31483C5.20606 7.34613 5.10494 7.38071 5.00532 7.41856C3.09018 8.1407 1.82636 9.97794 1.83673 12.0247C1.84724 14.0714 3.12975 15.8957 5.05215 16.5982C6.97456 17.3008 9.13112 16.7334 10.4588 15.1757L11.6076 14.0261L11.3133 13.7316L9.97968 12.3969L8.757 13.6206L8.553 13.8248C8.07336 14.3048 7.42608 14.5878 6.74777 14.5906C6.72585 14.5907 6.70388 14.5905 6.68187 14.59C5.29397 14.5612 4.16643 13.4243 4.14732 12.0352C4.13726 11.3417 4.40559 10.6732 4.89229 10.1792C5.37899 9.68514 6.04342 9.40684 6.73692 9.40653C6.82666 9.40654 6.91634 9.41115 7.0056 9.42035C7.55582 9.47716 8.07319 9.70939 8.48131 10.0828L8.65128 10.2528L10.3867 11.9896L11.5031 13.1069L12.0145 13.6188L13.4991 15.1045C13.7025 15.3523 13.9297 15.5797 14.1774 15.7833C15.3587 16.7527 16.9248 17.1149 18.4118 16.7628C18.5198 16.7372 18.6264 16.7082 18.7316 16.6756C18.8338 16.6438 18.9345 16.6088 19.0337 16.5705C21.0394 15.7989 22.3079 13.8099 22.1618 11.6659C22.0157 9.52178 20.4892 7.7233 18.3973 7.23079Z" fill="currentColor"/>
</svg>
