<svg width="24" height="24" viewBox="0 0 24 24" fill="currentColor" xmlns="http://www.w3.org/2000/svg">
<path fill-rule="evenodd" clip-rule="evenodd" d="M21.8 6.8V17.6H3.2V18.8H23V6.8H21.8ZM21.2 17V5H2V17H21.2ZM3.5 14C3.39925 14 3.29874 14.01 3.2 14.0301V7.96993C3.69345 8.07022 4.20431 7.91641 4.56036 7.56036C4.91642 7.20431 5.07022 6.69345 4.96993 6.2H18.2301C18.1298 6.69345 18.2836 7.20431 18.6396 7.56036C18.9957 7.91641 19.5066 8.07022 20 7.96993V14.0301C19.5066 13.9298 18.9957 14.0836 18.6396 14.4396C18.2836 14.7957 18.1298 15.3066 18.2301 15.8H4.96993C5.05962 15.3587 4.94644 14.9004 4.66159 14.5516C4.37674 14.2028 3.95034 14.0003 3.5 14ZM5.9 11.9C6.39706 11.9 6.8 11.4971 6.8 11C6.8 10.5029 6.39706 10.1 5.9 10.1C5.40294 10.1 5 10.5029 5 11C5 11.4971 5.40294 11.9 5.9 11.9ZM17.3 11.9C17.7971 11.9 18.2 11.4971 18.2 11C18.2 10.5029 17.7971 10.1 17.3 10.1C16.8029 10.1 16.4 10.5029 16.4 11C16.4 11.4971 16.8029 11.9 17.3 11.9ZM11.6 7.4C9.61177 7.4 8 9.01177 8 11C8 12.9882 9.61177 14.6 11.6 14.6C13.5882 14.6 15.2 12.9882 15.2 11C15.2 10.0452 14.8207 9.12955 14.1456 8.45442C13.4705 7.77928 12.5548 7.4 11.6 7.4ZM11.109 11.6392C11.2579 11.8176 11.4558 11.9068 11.7026 11.9068C11.7809 11.9068 11.9144 11.8801 12.103 11.8268C12.1386 11.809 12.1917 11.7865 12.2623 11.7591C12.3277 11.7328 12.3974 11.7189 12.4679 11.7182C12.5833 11.7188 12.6927 11.7694 12.7679 11.857C12.8502 11.9405 12.8965 12.0529 12.8969 12.1702C12.8969 12.3186 12.8518 12.4408 12.7616 12.5368C12.6751 12.6304 12.5687 12.7034 12.4502 12.7504C12.3035 12.806 12.1538 12.8529 12.0017 12.891V13.2274C12.005 13.3329 11.9699 13.436 11.9029 13.5175C11.8351 13.5926 11.7385 13.6353 11.6373 13.635C11.5361 13.6347 11.4398 13.5913 11.3725 13.5157C11.305 13.4351 11.2693 13.3326 11.2719 13.2274V12.891C10.8127 12.8021 10.4526 12.5853 10.1916 12.2406C9.93062 11.8959 9.80008 11.4864 9.79999 11.012C9.79955 10.8066 9.82618 10.6019 9.8792 10.4035C9.93128 10.2082 10.0119 10.0217 10.1186 9.85004C10.2233 9.68033 10.357 9.53036 10.5137 9.40698C10.6964 9.26104 10.9491 9.14952 11.2719 9.07242V8.77302C11.2688 8.66793 11.3036 8.56523 11.3698 8.48355C11.4377 8.40826 11.5343 8.36521 11.6356 8.36504C11.737 8.36487 11.8338 8.4076 11.9019 8.48266C11.9694 8.56407 12.0049 8.66735 12.0016 8.77306V9.07239C12.6091 9.19706 12.9128 9.4108 12.9128 9.7136C12.9147 9.8514 12.8706 9.98589 12.7873 10.0957C12.7129 10.202 12.5905 10.2645 12.4607 10.2623C12.3915 10.2578 12.3234 10.2428 12.2587 10.2177C12.1715 10.1881 12.1048 10.1638 12.0585 10.1448C11.8983 10.1009 11.7672 10.079 11.6652 10.079C11.429 10.079 11.2401 10.1708 11.0983 10.3546C10.9565 10.5381 10.8815 10.7645 10.8856 10.9964C10.8856 11.2466 10.9601 11.4608 11.109 11.6392Z" fill="currentColor"/>
</svg>
