<svg width="24" height="24" viewBox="0 0 24 24" fill="currentColor" xmlns="http://www.w3.org/2000/svg">
<path fill-rule="evenodd" clip-rule="evenodd" d="M20.8526 12.7928C20.9508 12.3353 21.0002 11.8688 21.0001 11.4009C21.0001 7.75631 18.0452 4.80176 14.4001 4.80176C12.4032 4.7999 10.5132 5.70402 9.2614 7.25996C8.50986 7.10076 7.72608 7.26901 7.1061 7.72265C6.48613 8.17628 6.08858 8.8724 6.0129 9.63688C3.63892 9.92636 1.79999 11.9487 1.79999 14.4006C1.79999 17.0512 3.94904 19.2 6.59999 19.2H18.6C20.1278 19.2001 21.4893 18.2357 21.9961 16.7943C22.5028 15.353 22.0444 13.7488 20.8526 12.7928ZM9.56579 12.2382C9.46195 12.1481 9.30616 12.1031 9.09841 12.103H8.10594V13.259H9.09839C9.30613 13.259 9.46192 13.2129 9.56576 13.1209C9.6696 13.0289 9.72154 12.8794 9.72157 12.6724C9.72157 12.473 9.66966 12.3283 9.56579 12.2382ZM9.84277 15.5075C9.78879 15.3578 9.75766 15.2008 9.75044 15.0417C9.73891 14.8616 9.7216 14.6891 9.69853 14.5241C9.66767 14.3095 9.60227 14.1523 9.50233 14.0526C9.4024 13.9528 9.23895 13.903 9.01199 13.9032H8.10592V15.5076H7.19999V11.4014H9.42155C9.59213 11.3988 9.7616 11.4291 9.92075 11.4906C10.0626 11.546 10.192 11.6291 10.3016 11.735C10.4062 11.8368 10.4887 11.9592 10.544 12.0944C10.6004 12.2342 10.6288 12.3836 10.6276 12.5343C10.6276 12.7759 10.5767 12.9849 10.4747 13.1612C10.3728 13.3375 10.2064 13.4717 9.97554 13.5638V13.5753C10.0772 13.6009 10.1719 13.649 10.2525 13.7162C10.3254 13.7792 10.3861 13.8552 10.4314 13.9404C10.4787 14.0299 10.5127 14.1257 10.5324 14.225C10.5533 14.3275 10.5677 14.4313 10.5756 14.5356C10.5794 14.6008 10.5832 14.6775 10.5871 14.7656C10.591 14.8538 10.5978 14.9439 10.6074 15.0359C10.6163 15.1241 10.6317 15.2116 10.6535 15.2975C10.6715 15.373 10.7038 15.4443 10.7488 15.5074L9.84277 15.5075ZM14.4357 15.5075H11.3083V11.4014H14.3895V12.1605H12.2142V13.0404H14.2107V13.7421H12.2142V14.7485H14.4357V15.5075ZM18.469 14.6219C18.3782 14.8216 18.2487 15.0015 18.0882 15.151C17.9279 15.2983 17.7395 15.4118 17.5343 15.4846C17.31 15.5635 17.0738 15.6025 16.8361 15.5998C16.5206 15.5998 16.2369 15.5452 15.985 15.4359C15.7423 15.3333 15.5248 15.1793 15.3474 14.9845C15.1713 14.7877 15.036 14.558 14.9493 14.3086C14.8553 14.0398 14.8084 13.7567 14.8108 13.4719C14.8082 13.1814 14.855 12.8926 14.9493 12.6179C15.036 12.3651 15.1712 12.1316 15.3474 11.9307C15.5239 11.7327 15.7415 11.5757 15.985 11.4706C16.2369 11.3595 16.5207 11.3039 16.8362 11.3038C17.0544 11.3025 17.2715 11.3355 17.4795 11.4016C17.6757 11.4638 17.8593 11.5602 18.0219 11.6863C18.1831 11.8128 18.3175 11.9701 18.4171 12.1492C18.5246 12.3446 18.5913 12.5598 18.6133 12.7818H17.7362C17.7217 12.6807 17.6863 12.5838 17.6324 12.4971C17.5782 12.4106 17.51 12.3338 17.4304 12.27C17.2617 12.1353 17.052 12.0623 16.8362 12.0629C16.6322 12.0629 16.4591 12.1022 16.3169 12.1808C16.1775 12.2566 16.0587 12.3652 15.9706 12.4971C15.8798 12.6349 15.8143 12.7878 15.7773 12.9486C15.7366 13.12 15.7163 13.2956 15.7167 13.4718C15.7164 13.6414 15.7367 13.8103 15.7773 13.975C15.815 14.132 15.8805 14.281 15.9706 14.4149C16.0594 14.5456 16.1781 14.653 16.3169 14.7284C16.459 14.807 16.6321 14.8463 16.8362 14.8462C17.1132 14.8462 17.3295 14.7619 17.4853 14.5932C17.6411 14.4245 17.7363 14.2021 17.7709 13.926H18.648C18.6291 14.1666 18.5686 14.4021 18.469 14.6219Z" fill="currentColor"/>
</svg>
