<svg width="24" height="24" viewBox="0 0 24 24" fill="currentColor" xmlns="http://www.w3.org/2000/svg">
<path fill-rule="evenodd" clip-rule="evenodd" d="M22.776 15C22.776 15.6627 22.2387 16.1998 21.576 16.2H20.376C20.376 17.8568 19.0329 19.2 17.376 19.2C15.7191 19.2 14.376 17.8568 14.376 16.2H8.976C8.976 17.8568 7.63285 19.2 5.976 19.2C4.31914 19.2 2.976 17.8568 2.976 16.2H2.376C1.71333 16.1998 1.176 15.6627 1.176 15V10.807C1.17564 10.5507 1.25786 10.301 1.41048 10.0951L1.41273 10.0921L1.41643 10.0872L5.01266 5.28407C5.23897 4.97922 5.59633 4.79965 5.976 4.79999H13.776C14.0996 4.79963 14.4096 4.93037 14.6352 5.16239L14.64 5.15965L18.888 9.67199L21.8197 10.2321C22.3764 10.3475 22.7758 10.838 22.776 11.4065V15ZM9.61761 12.7918L9.19214 11.2312L7.63214 10.8055L11.4961 8.95223L9.61761 12.7918ZM9.876 7.07999C7.88114 7.07999 6.264 8.68638 6.264 10.668C6.264 12.6496 7.88114 14.256 9.876 14.256C11.8709 14.256 13.488 12.6496 13.488 10.668C13.488 8.68638 11.8709 7.07999 9.876 7.07999ZM9.9 13.68C8.24978 13.68 6.912 12.3369 6.912 10.68C6.912 9.02313 8.24978 7.67999 9.9 7.67999C11.5502 7.67999 12.888 9.02313 12.888 10.68C12.888 12.3369 11.5502 13.68 9.9 13.68Z" fill="currentColor"/>
</svg>
