<svg width="24" height="24" viewBox="0 0 24 24" fill="currentColor" xmlns="http://www.w3.org/2000/svg">
<path fill-rule="evenodd" clip-rule="evenodd" d="M19.8 3H2.39999V15.6C2.39999 16.5941 3.20588 17.4 4.19999 17.4H6.59999V21.6L10.8 17.4H21.6V4.8C21.6 3.80589 20.7941 3 19.8 3ZM15.312 8.04C15.312 9.03411 14.5061 9.84 13.512 9.84C12.5179 9.84 11.712 9.03411 11.712 8.04C11.712 7.04589 12.5179 6.24 13.512 6.24C13.9894 6.24 14.4472 6.42964 14.7848 6.76721C15.1224 7.10477 15.312 7.56261 15.312 8.04ZM10.512 4.56C11.3614 4.56011 12.0951 5.15385 12.2725 5.98452C11.552 6.41877 11.1116 7.19874 11.112 8.04C11.112 8.04571 11.1122 8.0514 11.1122 8.05711C10.4367 8.29586 9.68397 8.11129 9.19553 7.58717C8.70709 7.06304 8.57598 6.29915 8.8617 5.64215C9.14742 4.98515 9.79556 4.56015 10.512 4.56ZM10.2006 13.2L10.2 14.52H8.95199V14.5188C8.30851 14.4931 7.80005 13.964 7.79999 13.32V11.52C7.79973 11.504 7.79999 11.4881 7.79999 11.472C7.80067 10.6212 8.20026 9.81995 8.87943 9.30751C9.55861 8.79508 10.4388 8.63077 11.2571 8.86366C11.4436 9.37207 11.7961 9.80274 12.2577 10.086C11.013 10.5956 10.1999 11.8071 10.2 13.152C10.2 13.1681 10.2004 13.184 10.2006 13.2ZM16.224 13.2V16.2H11.952V16.1988C11.3085 16.1731 10.8 15.644 10.8 15V13.2C10.7997 13.184 10.8 13.1681 10.8 13.152C10.8 11.6542 12.0142 10.44 13.512 10.44C15.0098 10.44 16.224 11.6542 16.224 13.152C16.224 13.1681 16.2243 13.184 16.224 13.2Z" fill="currentColor"/>
</svg>
