<svg width="24" height="24" viewBox="0 0 24 24" fill="currentColor" xmlns="http://www.w3.org/2000/svg">
<path fill-rule="evenodd" clip-rule="evenodd" d="M14.3726 14.7C14.3726 12.9897 16.239 14.2837 15.3701 12.1858C14.5007 10.088 14.0963 12.3223 12.887 11.113C11.6777 9.90383 13.9126 9.49936 11.8146 8.63046C9.71626 7.76152 11.0103 9.62745 9.30051 9.62745C7.59022 9.62745 8.88427 7.76152 6.78634 8.63046C4.6884 9.49941 6.92283 9.90371 5.71354 11.113C4.50425 12.3224 4.09983 10.088 3.23088 12.1858C2.36146 14.2838 4.22784 12.9898 4.22784 14.7C4.22784 16.4101 2.36146 15.1162 3.23083 17.2141C4.09978 19.312 4.5042 17.0777 5.71349 18.2864C6.92283 19.4957 4.6884 19.9006 6.78629 20.7695C8.88418 21.6385 7.59029 19.7725 9.30046 19.7725C11.0102 19.7725 9.71621 21.6384 11.8146 20.7695C13.9125 19.9006 11.6778 19.4957 12.8869 18.2864C14.0962 17.0777 14.5007 19.312 15.3701 17.2141C16.239 15.1163 14.3726 16.4103 14.3726 14.7ZM9.29983 11.3997C10.6347 11.3995 11.8382 12.2035 12.3492 13.4367C12.8601 14.6699 12.5779 16.0894 11.6341 17.0334C10.6903 17.9774 9.27072 18.2598 8.03744 17.749C6.80416 17.2383 6 16.0349 6 14.7C5.99992 13.8248 6.34754 12.9853 6.96638 12.3664C7.58522 11.7475 8.4246 11.3997 9.29983 11.3997ZM17.2815 4.54079C18.8821 4.9695 18.6627 3.18371 19.7391 4.25733C20.8159 5.33149 19.0251 5.11247 19.4552 6.70893C19.8848 8.30541 21.326 7.22466 20.9329 8.69077C20.5399 10.1569 19.8325 8.50024 18.6618 9.66856C17.4908 10.8361 19.1512 11.5415 17.6815 11.933C16.212 12.3254 17.2956 10.888 15.6949 10.4592C14.0943 10.0304 14.3135 11.8168 13.2367 10.7425C12.1601 9.66913 13.9511 9.88799 13.5208 8.2917C13.0908 6.69465 11.6503 7.7757 12.0432 6.3099C12.4361 4.8441 13.143 6.49981 14.3142 5.33207C15.4854 4.16433 13.8248 3.45911 15.2943 3.06693C16.764 2.67527 15.6807 4.11213 17.2815 4.54079ZM15.1186 7.17172C14.9737 7.71196 15.1686 8.28627 15.6123 8.62682C16.056 8.96738 16.6611 9.00712 17.1456 8.72751C17.63 8.44789 17.8983 7.904 17.8253 7.34945C17.7523 6.79491 17.3525 6.33892 16.8122 6.19413C16.458 6.09901 16.0805 6.14859 15.7628 6.33195C15.4452 6.51531 15.2134 6.8174 15.1186 7.17172Z" fill="currentColor"/>
</svg>
