<svg width="24" height="24" viewBox="0 0 24 24" fill="currentColor" xmlns="http://www.w3.org/2000/svg">
<path fill-rule="evenodd" clip-rule="evenodd" d="M7.80005 3.00005H17.4C17.3981 2.33811 16.862 1.80199 16.2 1.80005H6.00005C5.33811 1.80199 4.80199 2.33811 4.80005 3.00005V19.2001C4.80199 19.862 5.33811 20.3981 6.00005 20.4V4.80005C6.00295 3.80714 6.80714 3.00295 7.80005 3.00005ZM18 3.60005H7.80005C7.13811 3.60199 6.60199 4.13811 6.60005 4.80005V21C6.60199 21.662 7.13811 22.1981 7.80005 22.2001H18C18.662 22.1981 19.1981 21.662 19.2 21V4.80005C19.1981 4.13811 18.662 3.60199 18 3.60005ZM18 17.4L9.60005 4.80005H18V17.4ZM16.8414 9.55289C16.5859 10.1446 16.1429 10.416 15.4053 10.416C14.9339 10.416 14.5468 10.2885 14.2546 10.0077C13.9836 9.74734 13.8095 9.41523 13.7288 9.01764H13.4938C13.318 9.01764 13.2 8.89742 13.2 8.72724C13.2 8.55444 13.3154 8.41406 13.4938 8.41406H13.6848C13.6842 8.3478 13.6848 8.27006 13.6848 8.23742C13.6848 8.18942 13.6823 8.17858 13.6848 8.09021H13.4938C13.318 8.09021 13.2 7.94772 13.2 7.77744C13.2 7.60716 13.318 7.44254 13.4938 7.44254H13.7582C13.8501 7.02286 14.025 6.65774 14.2959 6.40181C14.5865 6.12708 14.9702 6.00005 15.4053 6.00005C16.1179 6.00005 16.5809 6.28404 16.8208 6.8652C16.845 6.91556 16.8572 6.97086 16.8563 7.02672C16.8563 7.16059 16.779 7.28136 16.637 7.33956C16.5964 7.36164 16.5272 7.36901 16.4755 7.36901C16.3383 7.36901 16.2288 7.26893 16.1733 7.13736C16.0205 6.77443 15.8194 6.6371 15.4053 6.6371C14.9263 6.6371 14.5865 6.8904 14.4339 7.44262H15.9467C16.1251 7.44262 16.2405 7.59708 16.2405 7.76645C16.2405 7.93997 16.1226 8.09028 15.9467 8.09028H14.3457C14.3431 8.17865 14.3457 8.18597 14.3457 8.2375C14.3457 8.2687 14.3449 8.3479 14.3457 8.41414H15.6823C15.8634 8.41414 15.9614 8.54794 15.9614 8.72326C15.9614 8.89083 15.8555 9.01764 15.6823 9.01764H14.4045C14.5417 9.54775 14.8978 9.77513 15.4053 9.77513C15.8436 9.77513 16.0359 9.63607 16.1676 9.31229L16.168 9.31106L16.1685 9.30989C16.2315 9.16572 16.3446 9.08635 16.4868 9.08635C16.5273 9.08692 16.5675 9.09345 16.6061 9.10574C16.7604 9.14717 16.8721 9.27994 16.8721 9.41765C16.8726 9.46452 16.8621 9.51086 16.8414 9.55289Z" fill="currentColor"/>
</svg>
