<svg width="24" height="24" viewBox="0 0 24 24" fill="currentColor" xmlns="http://www.w3.org/2000/svg">
<path fill-rule="evenodd" clip-rule="evenodd" d="M12 1.80005C6.36668 1.80005 1.79999 6.36674 1.79999 12C1.79999 12.3081 1.81345 12.6128 1.84038 12.9141C2.02921 15.0442 2.88553 17.0603 4.2873 18.6752C4.34072 18.7369 4.39488 18.7979 4.44976 18.8583C5.2213 19.7075 6.13006 20.421 7.13807 20.969C7.21032 21.0082 7.28312 21.0466 7.35647 21.0842C7.53973 21.178 7.72613 21.2665 7.91567 21.3494C7.95356 21.366 7.99157 21.3824 8.02972 21.3985C8.29666 21.5114 8.56922 21.6131 8.8474 21.7035C8.88709 21.7164 8.92691 21.729 8.96684 21.7415C9.41012 21.8793 9.86233 21.9865 10.3203 22.0624C10.4043 22.0763 10.4888 22.0892 10.5735 22.1011C10.743 22.1248 10.9138 22.1443 11.0859 22.1597C11.387 22.1864 11.6917 22.2001 12 22.2001C12.3083 22.2001 12.6129 22.1868 12.9141 22.1597C13.0861 22.1444 13.2569 22.1248 13.4265 22.1011C13.5113 22.0892 13.5957 22.0763 13.6797 22.0624C14.1377 21.9865 14.5899 21.8793 15.0332 21.7415C15.0731 21.729 15.1129 21.7164 15.1526 21.7035C15.4306 21.6132 15.7032 21.5116 15.9703 21.3985C16.0084 21.3823 16.0464 21.366 16.0843 21.3494C16.2738 21.2665 16.4602 21.1781 16.6435 21.0842C16.7168 21.0466 16.7896 21.0082 16.8619 20.969C17.8699 20.421 18.7787 19.7075 19.5502 18.8583C19.6051 18.7979 19.6592 18.7369 19.7127 18.6752C21.1144 17.0603 21.9708 15.0442 22.1596 12.9141C22.1863 12.613 22.2 12.3083 22.2 12C22.2 6.36674 17.6333 1.80005 12 1.80005ZM4.25936 8.73094C5.81245 5.04587 9.74808 2.96659 13.6675 3.76042C17.5869 4.55425 20.4032 8.00108 20.4 12H14.4V17.4H12.6V13.8H11.4V17.4H9.59999V12H3.59997C3.59761 10.8771 3.82188 9.76518 4.25936 8.73094ZM12 9.00005C10.6745 9.00005 9.59999 10.0746 9.59999 11.4V12H14.4V11.4C14.4 10.0746 13.3255 9.00005 12 9.00005ZM12 8.40005C12.9941 8.40005 13.8 7.59416 13.8 6.60005C13.8 5.60594 12.9941 4.80005 12 4.80005C11.0059 4.80005 10.2 5.60594 10.2 6.60005C10.2 7.59416 11.0059 8.40005 12 8.40005Z" fill="currentColor"/>
</svg>
