<svg width="24" height="24" viewBox="0 0 24 24" fill="currentColor" xmlns="http://www.w3.org/2000/svg">
<path fill-rule="evenodd" clip-rule="evenodd" d="M19.512 12V2.7C19.512 2.53431 19.3777 2.4 19.212 2.4H18.312V1.8H13.512V2.4H12.612C12.4464 2.4 12.312 2.53431 12.312 2.7V9.6H8.11204V6.6L5.41204 1.8L2.71204 6.6V16.0316L6.83723 12.7315L7.21204 12.4315L7.58684 12.7315L12.012 16.2716L16.4372 12.7315L16.812 12.4315L17.1868 12.7315L21.312 16.0316V12H19.512ZM5.41204 8.4C4.91498 8.4 4.51204 7.99706 4.51204 7.5C4.51204 7.00294 4.91498 6.6 5.41204 6.6C5.90909 6.6 6.31204 7.00294 6.31204 7.5C6.31204 7.99706 5.90909 8.4 5.41204 8.4ZM14.712 10.2H13.512V9H14.712V10.2ZM14.712 8.4H13.512V7.2H14.712V8.4ZM14.712 6.6H13.512V5.4H14.712V6.6ZM14.712 4.8H13.512V3.6H14.712V4.8ZM16.512 10.2H15.312V9H16.512V10.2ZM16.512 8.4H15.312V7.2H16.512V8.4ZM16.512 6.6H15.312V5.4H16.512V6.6ZM16.512 4.8H15.312V3.6H16.512V4.8ZM18.312 10.2H17.112V9H18.312V10.2ZM18.312 8.4H17.112V7.2H18.312V8.4ZM18.312 6.6H17.112V5.4H18.312V6.6ZM18.312 4.8H17.112V3.6H18.312V4.8ZM2.71204 16.8V22.2H8.11204V18.6H9.91204V22.2H11.712V16.8L7.21204 13.2L2.71204 16.8ZM6.31204 20.4H4.51204V18.6H6.31204V20.4ZM12.312 16.8V22.2H17.712V18.6H19.512V22.2H21.312V16.8L16.812 13.2L12.312 16.8ZM15.912 20.4H14.112V18.6H15.912V20.4Z" fill="currentColor"/>
</svg>
