<svg width="24" height="24" viewBox="0 0 24 24" fill="currentColor" xmlns="http://www.w3.org/2000/svg">
<path fill-rule="evenodd" clip-rule="evenodd" d="M16.2 7.80005C14.8745 7.80005 13.8 6.72553 13.8 5.40005V1.80005H4.2V20.9946C4.2 20.9964 4.2 20.9982 4.2 21C4.2 21.6628 4.73726 22.2001 5.4 22.2001H19.8V7.80005H16.2ZM16.3883 13.3895C16.6656 13.343 16.9468 13.4463 17.1282 13.6611L12.9976 14.3128C12.9706 14.1755 12.923 14.0431 12.8564 13.92L16.3883 13.3895ZM15.0783 12.8008C15.3556 12.7543 15.6368 12.8575 15.8181 13.0723L12.5925 13.5741C12.5053 13.4907 12.4076 13.4189 12.3019 13.3606L12.104 13.2475L15.0783 12.8008ZM18.1671 15.2075L12.516 17.4645C12.0801 17.6316 11.5927 17.5991 11.1829 17.3755L7.44748 15.18L5.85429 15.5729C5.73876 15.5921 5.62061 15.5596 5.53125 15.4839C5.44188 15.4081 5.3904 15.2969 5.3904 15.1798V12.3914C5.3904 12.1714 5.56877 11.993 5.7888 11.993H8.8416C9.01492 11.9928 9.18526 12.0381 9.33561 12.1243L12.1237 13.7178C12.6012 13.9906 12.7672 14.5988 12.4943 15.0763C12.2215 15.5538 11.6133 15.7197 11.1358 15.4469L9.32911 14.4043C9.23352 14.3565 9.11723 14.3927 9.06573 14.4864C9.01423 14.58 9.04592 14.6976 9.13749 14.7528L9.14148 14.7552C9.14309 14.7561 9.14465 14.757 9.14628 14.7579L10.9148 15.7792C11.3264 16.025 11.8355 16.0421 12.2626 15.8244C12.6898 15.6067 12.9751 15.1848 13.0181 14.7072L17.843 13.9541C18.013 13.9256 18.1873 13.9659 18.3276 14.066C18.4679 14.1661 18.5626 14.3178 18.591 14.4878C18.643 14.7988 18.4643 15.1022 18.1671 15.2075ZM15 1.80005V5.40005C15 6.06279 15.4776 6.60005 16.0666 6.60005H19.8L15 1.80005Z" fill="currentColor"/>
</svg>
