<svg width="24" height="24" viewBox="0 0 24 24" fill="currentColor" xmlns="http://www.w3.org/2000/svg">
<path fill-rule="evenodd" clip-rule="evenodd" d="M10.0567 19.7293L10.7309 20.4661C11.0557 20.821 11.5146 21.0231 11.9957 21.0231C12.4768 21.0231 12.9358 20.821 13.2605 20.4661L13.9347 19.7293C14.3214 19.2782 14.6728 18.7981 14.9859 18.2932H9.0055C9.31862 18.7981 9.67006 19.2782 10.0567 19.7293ZM17.9957 6.54619V4.70703L15.4243 5.56409L14.7513 3.54521C14.6413 3.21535 14.3326 2.99287 13.9849 2.99287H10.0066C9.65885 2.99287 9.35014 3.21535 9.24017 3.54521L8.56716 5.56409L5.99573 4.70703V6.54619C5.99573 7.52013 6.54604 8.41046 7.41718 8.84597L7.70998 8.99237C6.8778 11.9052 7.21804 15.028 8.65798 17.6932H15.3336C16.7735 15.028 17.1137 11.9052 16.2816 8.99237L16.5744 8.84597C17.4455 8.41044 17.9957 7.52011 17.9957 6.54619ZM3.21708 14.5517L3.45305 14.8096C3.56671 14.9339 3.72735 15.0046 3.89573 15.0046C4.06411 15.0046 4.22475 14.9339 4.33841 14.8096L4.57438 14.5517C4.70971 14.3939 4.83271 14.2258 4.9423 14.0491H2.84914C2.95874 14.2258 3.08175 14.3939 3.21708 14.5517ZM4.86017 8.88727C4.82167 8.77182 4.71362 8.69395 4.59192 8.69395H3.19954C3.07784 8.69395 2.96979 8.77182 2.93129 8.88727L2.69573 9.59391L1.79573 9.29393V9.93766C1.7958 10.2785 1.98839 10.5901 2.29325 10.7425L2.39573 10.7937C2.10446 11.8132 2.22352 12.9062 2.72748 13.839H5.06398C5.56792 12.9062 5.68699 11.8133 5.39573 10.7938L5.49821 10.7426C5.8031 10.5901 5.99573 10.2785 5.99573 9.93766V9.29393L5.09573 9.59393L4.86017 8.88727ZM19.4171 14.5517L19.653 14.8096C19.7667 14.9339 19.9273 15.0046 20.0957 15.0046C20.2641 15.0046 20.4247 14.9339 20.5384 14.8096L20.7744 14.5517C20.9097 14.3939 21.0327 14.2258 21.1423 14.0491H19.0492C19.1587 14.2258 19.2817 14.3939 19.4171 14.5517ZM21.2957 9.59391L21.0602 8.88727C21.0217 8.77182 20.9136 8.69395 20.7919 8.69395H19.3995C19.2778 8.69395 19.1698 8.77182 19.1313 8.88727L18.8957 9.59391L17.9957 9.29391V9.93763C17.9958 10.2785 18.1884 10.59 18.4932 10.7425L18.5957 10.7937C18.3044 11.8132 18.4235 12.9062 18.9275 13.839H21.264C21.7679 12.9062 21.887 11.8133 21.5957 10.7938L21.6982 10.7426C22.0031 10.5901 22.1957 10.2785 22.1957 9.93766V9.29393L21.2957 9.59391Z" fill="currentColor"/>
</svg>
