<svg width="24" height="24" viewBox="0 0 24 24" fill="currentColor" xmlns="http://www.w3.org/2000/svg">
<path fill-rule="evenodd" clip-rule="evenodd" d="M12 1.80005C17.6333 1.80005 22.2 6.36674 22.2 12C22.2 17.6334 17.6333 22.2001 12 22.2001C6.36668 22.2001 1.79999 17.6334 1.79999 12C1.79999 6.36674 6.36668 1.80005 12 1.80005ZM12 2.40005C17.3019 2.40005 21.6 6.69811 21.6 12C21.6 17.302 17.3019 21.6 12 21.6C6.69805 21.6 2.39999 17.302 2.39999 12C2.39999 6.69811 6.69805 2.40005 12 2.40005ZM10.8 16.2H7.77599V7.80005H10.8V16.2ZM16.176 16.2H13.2V7.80005H16.176V16.2Z" fill="currentColor"/>
</svg>
