<svg width="24" height="24" viewBox="0 0 24 24" fill="currentColor" xmlns="http://www.w3.org/2000/svg">
<path fill-rule="evenodd" clip-rule="evenodd" d="M12.2 2C6.5667 2 2 6.5667 2 12.2C2 17.8333 6.5667 22.4 12.2 22.4C17.8333 22.4 22.4 17.8333 22.4 12.2C22.4 6.5667 17.8333 2 12.2 2ZM16.3404 16.1724C16.1716 16.3412 15.9427 16.436 15.704 16.436C15.4653 16.436 15.2364 16.3412 15.0676 16.1724L11.5516 12.6564L11.5501 12.6548C11.5402 12.6448 11.5304 12.6346 11.521 12.6242C11.5162 12.6188 11.5115 12.6132 11.5067 12.6078C11.502 12.6023 11.497 12.5966 11.4923 12.591C11.4866 12.584 11.4812 12.5768 11.4755 12.5697C11.4722 12.5653 11.4687 12.561 11.4654 12.5565C11.4595 12.5487 11.454 12.5407 11.4484 12.5327C11.4457 12.5288 11.4428 12.5249 11.4401 12.5207C11.4346 12.5125 11.4294 12.5042 11.4242 12.4958C11.4216 12.4918 11.419 12.4878 11.4166 12.4837C11.4116 12.4755 11.407 12.4672 11.4023 12.4589C11.3997 12.4543 11.3971 12.4498 11.3947 12.4452C11.3905 12.4373 11.3865 12.4294 11.3827 12.4215C11.38 12.4161 11.3772 12.4108 11.3746 12.4053C11.3712 12.3981 11.368 12.3908 11.3648 12.3835C11.362 12.3772 11.3592 12.3709 11.3565 12.3645C11.3539 12.3581 11.3513 12.3514 11.3488 12.3448C11.3459 12.3375 11.3431 12.3301 11.3404 12.3227C11.3384 12.317 11.3365 12.3112 11.3346 12.3054C11.3318 12.2971 11.329 12.2887 11.3265 12.2803C11.3249 12.2752 11.3235 12.2701 11.3221 12.2649C11.3195 12.2559 11.317 12.2468 11.3147 12.2377C11.3136 12.2329 11.3125 12.2281 11.3114 12.2233C11.3092 12.2138 11.3071 12.2043 11.3052 12.1948C11.3042 12.19 11.3034 12.185 11.3025 12.1801C11.3009 12.1706 11.2992 12.1612 11.2977 12.1517C11.2969 12.146 11.2963 12.1403 11.2956 12.1346C11.2945 12.1259 11.2932 12.1172 11.2924 12.1082C11.2917 12.1007 11.2912 12.0932 11.2907 12.0856C11.2902 12.0784 11.2895 12.0715 11.2892 12.0644C11.2885 12.0496 11.288 12.0348 11.288 12.0199V5.41993C11.288 4.92287 11.691 4.51993 12.188 4.51993C12.6851 4.51993 13.088 4.92287 13.088 5.41993V11.6472L16.3404 14.8996C16.5092 15.0684 16.604 15.2973 16.604 15.536C16.604 15.7747 16.5092 16.0036 16.3404 16.1724Z" fill="currentColor"/>
</svg>
