<svg width="24" height="24" viewBox="0 0 24 24" fill="currentColor" xmlns="http://www.w3.org/2000/svg">
<path fill-rule="evenodd" clip-rule="evenodd" d="M19.6255 7.98943C19.372 7.98936 19.1459 7.83005 19.0605 7.59137C18.7186 6.63685 17.8139 5.99999 16.8 5.99999C15.7861 5.99999 14.8814 6.63685 14.5395 7.59137C14.4274 7.90275 14.0844 8.0646 13.7728 7.95313C13.4612 7.84166 13.2987 7.49896 13.4096 7.18716C13.9223 5.75537 15.2792 4.8 16.8 4.8C18.3208 4.8 19.6777 5.75537 20.1904 7.18716C20.256 7.37094 20.2282 7.57514 20.1158 7.73469C20.0035 7.89424 19.8206 7.98925 19.6255 7.98943ZM12.179 6.20369C11.9624 6.20343 11.7628 6.0865 11.6566 5.89773C11.5505 5.70897 11.5542 5.47765 11.6665 5.29246C12.7532 3.49708 14.6989 2.39989 16.7976 2.39905C18.8962 2.39821 20.8428 3.49384 21.931 5.28835C22.103 5.57155 22.013 5.94061 21.7298 6.11268C21.4466 6.28475 21.0775 6.19466 20.9054 5.91147C20.035 4.47534 18.4774 3.59845 16.7981 3.59912C15.1188 3.59979 13.5619 4.47793 12.6926 5.91475C12.5838 6.09436 12.389 6.20396 12.179 6.20369ZM18 8.4C18.0001 7.81763 17.582 7.31926 17.0085 7.21808C16.435 7.11689 15.8716 7.44211 15.6724 7.98935C15.4732 8.53659 15.6956 9.14787 16.2 9.43906V13.8H17.4V9.43906C17.7713 9.22485 18.0001 8.8287 18 8.4ZM20.4 14.4H3.59999C2.60588 14.4 1.79999 15.2059 1.79999 16.2V19.2C1.79999 19.8627 2.33725 20.4 2.99999 20.4H3.59999V21C3.59999 21.3314 3.86862 21.6 4.19999 21.6H5.39999C5.73136 21.6 5.99999 21.3314 5.99999 21V20.4H18V21C18 21.3314 18.2686 21.6 18.6 21.6H19.8C20.1314 21.6 20.4 21.3314 20.4 21V20.4H21C21.6627 20.4 22.2 19.8627 22.2 19.2V16.2C22.2 15.2059 21.3941 14.4 20.4 14.4ZM6.59999 18C6.26862 18 5.99999 17.7314 5.99999 17.4C5.99999 17.0686 6.26862 16.8 6.59999 16.8C6.93136 16.8 7.19999 17.0686 7.19999 17.4C7.19999 17.7314 6.93136 18 6.59999 18ZM8.99999 18C8.66862 18 8.39999 17.7314 8.39999 17.4C8.39999 17.0686 8.66862 16.8 8.99999 16.8C9.33136 16.8 9.59999 17.0686 9.59999 17.4C9.59999 17.7314 9.33136 18 8.99999 18ZM11.4 18C11.0686 18 10.8 17.7314 10.8 17.4C10.8 17.0686 11.0686 16.8 11.4 16.8C11.7314 16.8 12 17.0686 12 17.4C12 17.7314 11.7314 18 11.4 18ZM13.8 18C13.4686 18 13.2 17.7314 13.2 17.4C13.2 17.0686 13.4686 16.8 13.8 16.8C14.1314 16.8 14.4 17.0686 14.4 17.4C14.4 17.7314 14.1314 18 13.8 18ZM19.2 18.6C18.5372 18.6 18 18.0627 18 17.4C18 16.7373 18.5372 16.2 19.2 16.2C19.8627 16.2 20.4 16.7373 20.4 17.4C20.4 18.0627 19.8627 18.6 19.2 18.6Z" fill="currentColor"/>
</svg>
