<svg width="24" height="24" viewBox="0 0 24 24" fill="currentColor" xmlns="http://www.w3.org/2000/svg">
<path fill-rule="evenodd" clip-rule="evenodd" d="M11.97 1.79395C17.6033 1.79395 22.2 6.34271 22.2 11.976V12.6C22.2 13.2628 21.6387 13.8 20.976 13.8H3C2.33726 13.8 1.8 13.2628 1.8 12.6V11.976C1.8 6.34271 6.3367 1.79395 11.97 1.79395ZM16.8683 9.63842L17.0979 10.1941L19.866 9.04478C19.8246 8.93363 19.7812 8.82304 19.7349 8.71334C19.7031 8.638 19.6699 8.56343 19.6361 8.48925C19.2607 7.66819 18.7554 6.91293 18.1406 6.25185L16.8666 7.52882C17.3155 8.0209 17.6876 8.57782 17.9705 9.18081L16.8683 9.63842ZM7.88451 6.81391L7.90131 6.80051C7.91008 6.7936 7.91884 6.78671 7.92759 6.77983C8.11573 6.63208 8.31172 6.49462 8.5147 6.36803L8.5171 6.36734C10.2058 5.31937 12.2726 5.07497 14.1592 5.70014C12.4868 7.53503 10.3499 9.92236 10.3499 9.92236C9.92618 10.3442 9.7242 10.9399 9.80323 11.5325C9.88226 12.1251 10.2336 12.6468 10.7531 12.9428C11.6716 13.4659 12.8403 13.097 13.3636 12.178C13.4489 12.0281 13.5137 11.8673 13.556 11.7001L13.5564 11.7483C13.5564 11.7483 14.4857 8.55323 15.2595 6.18002C15.7027 6.42299 16.117 6.71516 16.4947 7.051L17.7163 5.82655C16.269 4.47176 14.3872 3.67556 12.407 3.58015C12.3962 3.57962 12.3854 3.57945 12.3745 3.57895C12.3172 3.57638 12.2598 3.57415 12.2022 3.57268C12.133 3.57108 12.0636 3.57014 11.9941 3.57014C11.9291 3.57014 11.8643 3.57107 11.7995 3.57254C11.7742 3.57309 11.7489 3.57407 11.7236 3.57494C11.6856 3.57612 11.6476 3.57751 11.6097 3.57911C11.5765 3.58062 11.5433 3.58235 11.5101 3.5843C11.4825 3.5859 11.4549 3.5876 11.4274 3.58941C11.3871 3.59212 11.3469 3.59491 11.3069 3.59817C11.2922 3.59937 11.2776 3.60071 11.2629 3.60199C10.5921 3.65987 9.93072 3.79873 9.29326 4.01553L9.29261 4.01459C9.10138 4.07976 8.91212 4.15195 8.72482 4.23117C8.53623 4.31117 8.35129 4.39763 8.17001 4.49054L8.17023 4.49162C7.47884 4.84687 6.83998 5.29615 6.27183 5.82664L7.54517 7.10299C7.65499 7.00287 7.76811 6.90651 7.88451 6.81391ZM6.89009 10.1941L7.11967 9.63839L6.01752 9.18079C6.30039 8.5778 6.67252 8.02089 7.12138 7.52882L5.84734 6.25178C5.84741 6.25173 5.8473 6.25185 5.84734 6.25178C5.23256 6.91283 4.7277 7.66843 4.35236 8.48944C4.31849 8.56362 4.28491 8.63805 4.25311 8.71334C4.20682 8.82304 4.16348 8.93363 4.12203 9.04478L6.89009 10.1941ZM12.9483 11.5864C12.9196 11.7008 12.8755 11.8108 12.8176 11.9137C12.6495 12.2152 12.3677 12.4368 12.035 12.5291C11.7024 12.6213 11.3467 12.5765 11.0473 12.4047C10.6943 12.1994 10.4563 11.8421 10.4028 11.4372C10.3494 11.0323 10.4865 10.6255 10.7742 10.3356L14.6881 6.00016L12.9483 11.5864Z" fill="currentColor"/>
</svg>
