<svg width="24" height="24" viewBox="0 0 24 24" fill="currentColor" xmlns="http://www.w3.org/2000/svg">
<path fill-rule="evenodd" clip-rule="evenodd" d="M22.776 15C22.776 15.6627 22.2387 16.1998 21.576 16.2H20.376C20.376 17.8568 19.0329 19.2 17.376 19.2C15.7191 19.2 14.376 17.8568 14.376 16.2H8.976C8.976 17.8568 7.63285 19.2 5.976 19.2C4.31914 19.2 2.976 17.8568 2.976 16.2H2.376C1.71333 16.1998 1.176 15.6627 1.176 15V10.807C1.17564 10.5507 1.25786 10.301 1.41048 10.0951L1.41273 10.0921L1.41643 10.0872L5.01266 5.28407C5.23897 4.97922 5.59633 4.79965 5.976 4.79999H13.776C14.0996 4.79963 14.4096 4.93037 14.6352 5.16239L14.64 5.15965L18.888 9.67199L21.8197 10.2321C22.3764 10.3475 22.7758 10.838 22.776 11.4065V15ZM14.376 10.1589C14.3761 9.85124 14.1268 9.6018 13.8192 9.60169H13.5965V8.60569C13.5965 7.49865 12.699 6.60121 11.592 6.60121C10.485 6.60121 9.58752 7.49865 9.58752 8.60569V9.60169H8.808V13.8429C8.808 13.9906 8.86659 14.1323 8.97101 14.2367C9.07543 14.3412 9.21708 14.4 9.3648 14.4H14.376V10.1589ZM11.592 7.49142C11.8874 7.49151 12.1707 7.60896 12.3796 7.81792C12.5884 8.02689 12.7057 8.31026 12.7056 8.60569V9.60169H10.4784V8.60569C10.4783 8.31026 10.5956 8.02689 10.8044 7.81792C11.0133 7.60896 11.2966 7.49151 11.592 7.49142ZM10.7568 11.5037C10.7571 11.096 11.0517 10.7481 11.4538 10.6806C11.8558 10.6131 12.2479 10.8458 12.3813 11.2311C12.5146 11.6163 12.3503 12.0416 11.9926 12.2371L12.1488 13.4537H11.0352L11.1914 12.2371C10.9233 12.0905 10.7567 11.8093 10.7568 11.5037Z" fill="currentColor"/>
</svg>
