<svg width="24" height="24" viewBox="0 0 24 24" fill="currentColor" xmlns="http://www.w3.org/2000/svg">
<path fill-rule="evenodd" clip-rule="evenodd" d="M16.0243 8.57575L22.2 2.40002H15L12.4243 4.97575L16.0243 8.57575ZM12 10.2C14.2899 10.2 16.261 11.8176 16.7078 14.0636C17.1545 16.3095 15.9525 18.5583 13.8369 19.4346C11.7213 20.311 9.2812 19.5708 8.00896 17.6668C6.73672 15.7627 6.98664 13.2252 8.60588 11.6059C9.50408 10.7028 10.7263 10.1965 12 10.2ZM12 8.40002C8.35492 8.40002 5.39999 11.355 5.39999 15C5.39999 18.6451 8.35492 21.6 12 21.6C15.6451 21.6 18.6 18.6451 18.6 15C18.6 11.355 15.6451 8.40002 12 8.40002ZM8.39999 13.8339L10.3059 15.528L9.67057 18.0692L12 16.7986L14.3294 18.0692L13.6941 15.528L15.6 13.8339L13.0588 13.4104L12 11.208L10.9412 13.4104L8.39999 13.8339ZM12 7.80002C13.0726 7.79857 14.132 8.03775 15.0999 8.49996L8.99999 2.40002H1.79999L8.25164 8.85168C9.38011 8.16196 10.6774 7.79797 12 7.80002Z" fill="currentColor"/>
</svg>
