<svg width="24" height="24" viewBox="0 0 24 24" fill="currentColor" xmlns="http://www.w3.org/2000/svg">
<path fill-rule="evenodd" clip-rule="evenodd" d="M16.32 6.12C16.32 8.50587 14.3859 10.44 12 10.44C9.61415 10.44 7.68002 8.50587 7.68002 6.12C7.68002 3.73413 9.61415 1.8 12 1.8C14.3859 1.8 16.32 3.73413 16.32 6.12ZM15.7848 10.1378C13.6592 12.1407 10.3412 12.1407 8.21546 10.138C6.51737 11.0635 5.444 12.8266 5.40156 14.76H5.40002V19.8C5.40002 21.1255 6.47454 22.2 7.80002 22.2H18.6V14.88C18.6007 12.9031 17.5207 11.0839 15.7848 10.1378ZM17.124 20.724C16.756 21.0921 16.1592 21.0921 15.7911 20.724L12.2592 17.192C11.6601 17.3153 11.0407 17.11 10.6339 16.6532C10.227 16.1964 10.0945 15.5574 10.286 14.9765L11.3381 16.0285C11.4217 16.1122 11.5574 16.1122 11.641 16.0285L12.4286 15.2409C12.5123 15.1573 12.5123 15.0217 12.4286 14.938L11.3766 13.886C11.9575 13.6944 12.5965 13.827 13.0532 14.2338C13.51 14.6407 13.7154 15.2601 13.5921 15.8592L17.124 19.3911C17.3008 19.5678 17.4001 19.8076 17.4001 20.0575C17.4001 20.3075 17.3008 20.5472 17.124 20.724Z" fill="currentColor"/>
</svg>
