<svg width="24" height="24" viewBox="0 0 24 24" fill="currentColor" xmlns="http://www.w3.org/2000/svg">
<path fill-rule="evenodd" clip-rule="evenodd" d="M22.2 9.5998V5.86339C22.2 5.27599 21.6841 4.7998 21.0478 4.7998H16.6527C16.6527 5.13118 16.3841 5.3998 16.0527 5.3998C15.7214 5.3998 15.4527 5.13118 15.4527 4.7998H2.9522C2.31587 4.7998 1.79999 5.27599 1.79999 5.86339V9.5998C3.12548 9.5998 4.19999 10.7763 4.19999 11.9998C4.19999 13.2233 3.12548 14.3998 1.79999 14.3998V18.1362C1.79999 18.7236 2.31587 19.1998 2.9522 19.1998H15.4527C15.4527 18.8684 15.7213 18.5998 16.0527 18.5998C16.3841 18.5998 16.6527 18.8684 16.6527 19.1998H21.0478C21.6841 19.1998 22.2 18.7236 22.2 18.1362V14.3998C20.8745 14.3998 19.8 13.2233 19.8 11.9998C19.8 10.7763 20.8745 9.5998 22.2 9.5998ZM16.0527 17.9998C15.7213 17.9998 15.4527 17.7312 15.4527 17.3998C15.4527 17.0684 15.7213 16.7998 16.0527 16.7998C16.3841 16.7998 16.6527 17.0684 16.6527 17.3998C16.6527 17.7312 16.3841 17.9998 16.0527 17.9998ZM16.0527 16.1998C15.7213 16.1998 15.4527 15.9312 15.4527 15.5998C15.4527 15.2684 15.7213 14.9998 16.0527 14.9998C16.3841 14.9998 16.6527 15.2684 16.6527 15.5998C16.6527 15.9312 16.3841 16.1998 16.0527 16.1998ZM16.0527 14.3998C15.7213 14.3998 15.4527 14.1312 15.4527 13.7998C15.4527 13.4684 15.7213 13.1998 16.0527 13.1998C16.3841 13.1998 16.6527 13.4684 16.6527 13.7998C16.6527 14.1312 16.3841 14.3998 16.0527 14.3998ZM16.0527 12.5998C15.7213 12.5998 15.4527 12.3312 15.4527 11.9998C15.4527 11.6684 15.7213 11.3998 16.0527 11.3998C16.3841 11.3998 16.6527 11.6684 16.6527 11.9998C16.6527 12.3312 16.3841 12.5998 16.0527 12.5998ZM16.0527 10.7998C15.7213 10.7998 15.4527 10.5312 15.4527 10.1998C15.4527 9.86843 15.7213 9.5998 16.0527 9.5998C16.3841 9.5998 16.6527 9.86843 16.6527 10.1998C16.6527 10.5312 16.3841 10.7998 16.0527 10.7998ZM16.0527 8.9998C15.7213 8.9998 15.4527 8.73117 15.4527 8.3998C15.4527 8.06843 15.7213 7.7998 16.0527 7.7998C16.3841 7.7998 16.6527 8.06843 16.6527 8.3998C16.6527 8.73117 16.3841 8.9998 16.0527 8.9998ZM16.0527 7.1998C15.7213 7.1998 15.4527 6.93118 15.4527 6.5998C15.4527 6.26843 15.7213 5.9998 16.0527 5.9998C16.3841 5.9998 16.6527 6.26843 16.6527 6.5998C16.6527 6.93118 16.3841 7.1998 16.0527 7.1998ZM12.7267 9.4078C13.073 8.94888 13.3346 8.40597 13.1773 8.1718C13.1756 8.16916 13.1738 8.16652 13.172 8.16396C13.1701 8.16139 13.1678 8.15834 13.1656 8.15563C13.156 8.14319 13.1448 8.13202 13.1324 8.12236C13.1296 8.12016 13.1268 8.11804 13.124 8.11596C13.1211 8.11387 13.1189 8.11243 13.1163 8.11075C12.8823 7.95316 12.3391 8.21395 11.8802 8.5612L10.2688 9.7696C10.2176 9.80802 10.1507 9.81878 10.09 9.7984L6.54671 8.61204L6.54529 8.6124C6.44053 8.58201 6.32754 8.61107 6.25043 8.68821L5.92688 9.0118C5.88452 9.05416 5.86399 9.11365 5.87122 9.17312C5.87844 9.23259 5.91262 9.28543 5.96389 9.31641L8.72041 10.982C8.76872 11.0112 8.80201 11.0599 8.81165 11.1155C8.82129 11.1711 8.80634 11.2282 8.77067 11.272L7.10507 13.315C7.05011 13.3824 6.95715 13.4052 6.87721 13.3709L5.62372 12.8338C5.5676 12.81 5.50187 12.8228 5.45876 12.8659C5.45893 12.8657 5.4586 12.866 5.45876 12.8659L5.45699 12.8677C5.42043 12.9043 5.39989 12.9539 5.39989 13.0055C5.39989 13.0572 5.42043 13.1068 5.45699 13.1434L8.14439 15.8305C8.22052 15.9066 8.34392 15.9066 8.42005 15.8305L8.42188 15.8286L8.42267 15.8278C8.42262 15.8279 8.42275 15.8277 8.42267 15.8278C8.46218 15.7875 8.47582 15.7281 8.45764 15.6747C8.45783 15.6736 8.45795 15.6729 8.45795 15.6729L7.91677 14.4103C7.88252 14.3303 7.90538 14.2374 7.97279 14.1824L10.0239 12.5105C10.0678 12.4747 10.1251 12.4598 10.1809 12.4697C10.2367 12.4795 10.2855 12.5132 10.3145 12.5619L11.9636 15.3299C11.9944 15.3816 12.0473 15.4161 12.107 15.4236C12.1666 15.431 12.2264 15.4105 12.2689 15.368L12.5997 15.0371L12.6082 15.0287L12.6084 15.0275C12.6912 14.9373 12.7107 14.8057 12.6575 14.6954C12.6531 14.6866 12.6493 14.6775 12.6461 14.6682L11.4893 11.1978C11.4691 11.1371 11.4799 11.0704 11.5183 11.0192L12.7267 9.4078Z" fill="currentColor"/>
</svg>
