<svg width="24" height="24" viewBox="0 0 24 24" fill="currentColor" xmlns="http://www.w3.org/2000/svg">
<path fill-rule="evenodd" clip-rule="evenodd" d="M13.9692 11.088H13.2858L13.5128 10.4417C13.5412 10.366 13.5373 10.2819 13.5019 10.2091C13.4665 10.1364 13.4027 10.0814 13.3256 10.0571V10.0582C13.1816 10.002 13.0056 10.082 12.9494 10.2374L12.6487 11.088H11.9649L12.1918 10.4417C12.2203 10.366 12.2163 10.2819 12.1809 10.2091C12.1455 10.1364 12.0818 10.0814 12.0046 10.0571V10.0582C11.8606 10.002 11.6848 10.082 11.6285 10.2374L11.3278 11.088H10.436C10.2703 11.088 10.136 11.2223 10.136 11.388C10.136 11.5537 10.2703 11.688 10.436 11.688H11.111L10.8849 12.312H9.98467C9.81899 12.312 9.68467 12.4463 9.68467 12.612C9.68467 12.7777 9.81899 12.912 9.98467 12.912H10.668L10.4328 13.559C10.3765 13.7144 10.4435 13.8841 10.6116 13.9403C10.7556 13.9966 10.9398 13.9177 10.9961 13.7622L11.3052 12.912H11.989L11.7538 13.559C11.6975 13.7144 11.7645 13.8841 11.9327 13.9403C12.0767 13.9966 12.2608 13.9177 12.3171 13.7622L12.626 12.912H13.5179C13.6836 12.912 13.8179 12.7777 13.8179 12.612C13.8179 12.4463 13.6836 12.312 13.5179 12.312H12.8428L13.069 11.688H13.9692C14.1349 11.688 14.2692 11.5537 14.2692 11.388C14.2692 11.2223 14.1349 11.088 13.9692 11.088ZM12.2058 12.312H11.5219L11.7481 11.688H12.432L12.2058 12.312ZM18.048 5.39998H18.72L18.96 4.79998H18.264L18.048 5.39998ZM21 1.79998L14.9949 1.79199V4.19199L13.8 5.13598L15 5.99998V7.79998C15 8.22478 15.2307 8.39998 15.6 8.39998H21.6V2.39998C21.6 2.19154 21.3248 1.79998 21 1.79998ZM20.496 4.79998H19.608L19.368 5.39998H20.088C20.2536 5.39998 20.3976 5.52769 20.3978 5.69317C20.3936 5.86201 20.2569 5.99742 20.088 5.99998H19.152L18.8424 6.84651C18.786 7.00232 18.6216 7.0597 18.4536 7.00333C18.3096 6.94695 18.2214 6.79794 18.2778 6.64215L18.504 5.99998H17.832L17.5199 6.84651C17.4634 7.00232 17.3007 7.0597 17.1325 7.00333C16.9885 6.94695 16.8988 6.79794 16.9552 6.64215L17.184 5.99998H16.512C16.3462 5.99998 16.1958 5.85927 16.1958 5.69358C16.1958 5.52798 16.3462 5.39998 16.512 5.39998H17.4L17.64 4.79998L16.9603 4.79199C16.8807 4.79202 16.8044 4.76043 16.7481 4.70417C16.6918 4.64791 16.6601 4.57159 16.6601 4.49199C16.6601 4.32639 16.8022 4.19998 16.968 4.19998H17.856L18.1632 3.31566C18.2203 3.16089 18.3917 3.08124 18.5468 3.1373C18.702 3.19335 18.7828 3.36411 18.7278 3.51966L18.504 4.19998H19.2L19.4872 3.31566C19.5435 3.15974 19.7156 3.07901 19.8715 3.13534C20.0274 3.19168 20.1082 3.36374 20.0518 3.51966L19.8 4.19998L20.5019 4.19199C20.6677 4.19199 20.8021 4.30239 20.8021 4.46799C20.8021 4.63359 20.6618 4.79998 20.496 4.79998ZM16.8 19.8H7.2V3.59998H14.4V1.79998H7.2C6.53726 1.79998 6 2.33724 6 2.99998V21C6 21.6627 6.53726 22.2 7.2 22.2H16.8C17.4627 22.2 18 21.6627 18 21V8.99998H16.8V19.8ZM11.1002 2.39998H12.9016C13.0673 2.39998 13.2016 2.5343 13.2016 2.69998C13.2016 2.86567 13.0673 2.99998 12.9016 2.99998H11.1002C10.9346 2.99998 10.8002 2.86567 10.8002 2.69998C10.8002 2.5343 10.9346 2.39998 11.1002 2.39998ZM12.0009 21.5993C11.6696 21.599 11.4012 21.3303 11.4014 20.999C11.4016 20.6676 11.6702 20.3992 12.0015 20.3993C12.3329 20.3993 12.6014 20.668 12.6014 20.9993C12.6013 21.3308 12.3324 21.5994 12.0009 21.5993Z" fill="currentColor"/>
</svg>
