<svg width="24" height="24" viewBox="0 0 24 24" fill="currentColor" xmlns="http://www.w3.org/2000/svg">
<path fill-rule="evenodd" clip-rule="evenodd" d="M21.7846 20.4139L15.7049 12.9667C15.6882 12.9478 15.6725 12.9279 15.6581 12.9072L12.6552 8.55648C12.6358 8.52845 12.6189 8.49882 12.6046 8.46792L11.5586 6.21096L10.2578 3.40488C9.86233 2.34 8.84569 1.896 7.73353 1.896C7.21833 1.89966 6.70702 1.98554 6.21889 2.1504C6.08113 2.19648 6.57601 3.336 6.57601 3.336C6.57601 3.336 5.48761 2.45712 5.33473 2.54496C5.03944 2.71193 4.76743 2.91705 4.52569 3.15504L3.15505 4.52568C1.64737 6.03336 1.22401 9.4476 3.40489 10.2578L6.21097 11.5586L8.46793 12.6046C8.49884 12.6189 8.52846 12.6358 8.55649 12.6552L12.9384 15.6797L20.4139 21.7846C20.8253 22.1959 21.4702 22.224 21.8472 21.8472C22.2243 21.4704 22.1959 20.8253 21.7846 20.4139ZM8.20249 11.2421C8.09031 11.3545 7.91596 11.376 7.77985 11.2942L6.32305 10.4182C6.28702 10.3964 6.27184 10.3519 6.28704 10.3126C6.30223 10.2733 6.34342 10.2507 6.38473 10.2588L7.73137 10.5288C7.76883 10.5362 7.80672 10.5182 7.82468 10.4845C7.84263 10.4508 7.83642 10.4094 7.80937 10.3824L6.57745 9.1476C6.54909 9.11924 6.54391 9.07512 6.56493 9.04096C6.58595 9.0068 6.62767 8.99154 6.66577 9.00408L8.41945 9.46536C8.45504 9.47723 8.49422 9.46485 8.51652 9.43468C8.53882 9.40451 8.53916 9.36341 8.51737 9.33288L7.24633 7.39368C7.22173 7.35924 7.22561 7.31207 7.25551 7.28212C7.2854 7.25216 7.33256 7.24819 7.36705 7.27272L9.30217 8.5464C9.33274 8.56815 9.37384 8.56774 9.40397 8.54538C9.43409 8.52302 9.44639 8.48379 9.43441 8.44824L8.97409 6.69096C8.96127 6.65286 8.97637 6.61094 9.01053 6.58977C9.0447 6.56859 9.08895 6.57372 9.11737 6.60216L10.3495 7.83696C10.3765 7.86404 10.418 7.87024 10.4516 7.85219C10.4853 7.83414 10.5031 7.79613 10.4954 7.75872L10.2262 6.40896C10.2178 6.36768 10.2404 6.32638 10.2797 6.31118C10.319 6.29599 10.3635 6.31134 10.385 6.34752L11.2279 7.75512C11.328 7.92215 11.3018 8.13586 11.1643 8.27376L8.20249 11.2421ZM14.238 12.7769L12.7102 14.3047C12.5726 14.4423 12.3558 14.4602 12.1975 14.3472L9.29233 12.2719C9.19721 12.204 9.13679 12.0976 9.12713 11.9811C9.11746 11.8646 9.15954 11.7498 9.24217 11.6671L11.6002 9.30912C11.6828 9.22639 11.7977 9.18423 11.9143 9.19385C12.0308 9.20346 12.1372 9.26388 12.2052 9.35904L14.2805 12.2645C14.3935 12.4227 14.3755 12.6394 14.238 12.7769Z" fill="currentColor"/>
</svg>
