<svg width="24" height="24" viewBox="0 0 24 24" fill="currentColor" xmlns="http://www.w3.org/2000/svg">
<path fill-rule="evenodd" clip-rule="evenodd" d="M15.312 4.50001C15.312 5.83474 14.508 7.03804 13.2748 7.54881C12.0417 8.05959 10.6223 7.77726 9.67854 6.83346C8.73474 5.88967 8.45241 4.47028 8.96319 3.23716C9.47396 2.00403 10.6773 1.20001 12.012 1.20001C13.8345 1.20001 15.312 2.67747 15.312 4.50001ZM14.9337 7.59995C13.293 9.1467 10.731 9.1467 9.0903 7.59995C7.75651 8.25617 6.91173 9.61353 6.91199 11.1V13.8C6.91199 14.2774 7.10163 14.7352 7.4392 15.0728C7.77676 15.4104 8.2346 15.6 8.71199 15.6V21C8.71199 21.6628 9.24925 22.2 9.91199 22.2H14.112C14.7747 22.2 15.312 21.6628 15.312 21V15.6C15.7894 15.6 16.2472 15.4104 16.5848 15.0728C16.9223 14.7352 17.112 14.2774 17.112 13.8V11.1C17.1122 9.61353 16.2675 8.25617 14.9337 7.59995Z" fill="currentColor"/>
</svg>
