<svg width="24" height="24" viewBox="0 0 24 24" fill="currentColor" xmlns="http://www.w3.org/2000/svg">
<path fill-rule="evenodd" clip-rule="evenodd" d="M12 1.8C6.36674 1.8 1.80005 6.3667 1.80005 12C1.80005 17.6333 6.36674 22.2 12 22.2C17.6334 22.2 22.2001 17.6333 22.2001 12C22.2001 6.3667 17.6334 1.8 12 1.8ZM3.68326 8.55506L3.1308 8.32625C4.10234 5.9721 5.97215 4.10229 8.3263 3.13075L8.55511 3.68321C8.53562 3.6913 8.51611 3.69929 8.49665 3.70752C6.33939 4.62206 4.62211 6.33934 3.70757 8.4966C3.69934 8.51606 3.69125 8.53558 3.68326 8.55506ZM4.79251 9.01454L4.23758 8.78467C5.0928 6.72758 6.72764 5.09274 8.78472 4.23751L9.01459 4.79246C8.99779 4.79947 8.98063 4.80607 8.96376 4.8132C7.09413 5.60577 5.60582 7.09408 4.81325 8.96371C4.80612 8.98058 4.79952 8.9976 4.79251 9.01454ZM5.90131 9.47386L5.34672 9.24413C6.07973 7.48096 7.481 6.07972 9.24418 5.34674L9.4739 5.90134C9.4595 5.90726 9.44511 5.91286 9.43085 5.9189C7.84888 6.58951 6.58956 7.84883 5.91895 9.4308C5.9129 9.4451 5.90724 9.45953 5.90131 9.47386ZM7.01011 9.93317L6.45552 9.70344C7.06639 8.23412 8.23414 7.06642 9.70349 6.45562L9.93322 7.01021C9.92148 7.01501 9.90965 7.01966 9.89794 7.02461C8.60363 7.57325 7.5733 8.60358 7.02466 9.89789C7.01969 9.9096 7.0151 9.92143 7.01011 9.93317ZM8.11891 10.3925L7.56432 10.1628C8.05304 8.98728 8.98729 8.05311 10.1628 7.56449L10.3925 8.1192C10.3834 8.12299 10.3742 8.12657 10.365 8.13043C9.35837 8.55708 8.55702 9.35843 8.13036 10.3651C8.12645 10.3741 8.12258 10.3833 8.11891 10.3925ZM8.40005 12C8.40005 10.0118 10.0118 8.4 12 8.4C13.9883 8.4 15.6 10.0118 15.6 12C15.6 13.9882 13.9883 15.6 12 15.6C10.0118 15.6 8.40005 13.9882 8.40005 12ZM13.6076 15.8809C13.6167 15.8771 13.6259 15.8736 13.635 15.8697C14.6417 15.443 15.4431 14.6417 15.8697 13.635C15.8736 13.6259 15.8772 13.6167 15.881 13.6075L16.4356 13.8372C15.9469 15.0127 15.0127 15.9468 13.8373 16.4355L13.6076 15.8809ZM14.0669 16.9897C14.0786 16.9849 14.0904 16.9803 14.1022 16.9753C15.3965 16.4267 16.4268 15.3963 16.9754 14.102C16.9804 14.0903 16.985 14.0785 16.9898 14.0668L17.5444 14.2965C16.9336 15.7658 15.7659 16.9335 14.2966 17.5444L14.0669 16.9897ZM14.5262 18.0985C14.5406 18.0926 14.555 18.087 14.5692 18.0809C16.1512 17.4104 17.4105 16.1511 18.0811 14.5692C18.0872 14.5548 18.0928 14.5404 18.0987 14.5261L18.6533 14.7559C17.9203 16.519 16.5191 17.9203 14.7559 18.6533L14.5262 18.0985ZM14.9855 19.2073C15.0023 19.2003 15.0195 19.1937 15.0363 19.1866C16.9059 18.3941 18.3942 16.9058 19.1868 15.0363C19.194 15.0195 19.2006 15.0024 19.2076 14.9855L19.7625 15.2153C18.9073 17.2724 17.2725 18.9073 15.2154 19.7625L14.9855 19.2073ZM15.6738 20.869L15.445 20.3166C15.4645 20.3085 15.484 20.3005 15.5034 20.2923C17.6607 19.3778 19.3779 17.6606 20.2925 15.5034C20.3008 15.4839 20.3088 15.4644 20.3168 15.4449L20.8693 15.6738C19.8978 18.0279 18.028 19.8975 15.6738 20.869ZM14.2062 9.79382C13.1537 8.74131 11.5043 8.57886 10.2667 9.40581C9.02905 10.2328 8.54793 11.8188 9.11754 13.194C9.68715 14.5691 11.1489 15.3504 12.6087 15.06C14.0686 14.7697 15.1201 13.4885 15.1201 12C15.1223 11.1721 14.7933 10.3777 14.2062 9.79382ZM12.2297 12.5544C12.0055 12.6473 11.7474 12.5959 11.5758 12.4243C11.4042 12.2527 11.3529 11.9947 11.4457 11.7705C11.5386 11.5463 11.7574 11.4001 12.0001 11.4001C12.2427 11.4001 12.4615 11.5463 12.5544 11.7705C12.6812 12.0766 12.5358 12.4276 12.2297 12.5544Z" fill="currentColor"/>
</svg>
