<svg width="24" height="24" viewBox="0 0 24 24" fill="currentColor" xmlns="http://www.w3.org/2000/svg">
<path fill-rule="evenodd" clip-rule="evenodd" d="M20.8525 12.7921C20.9507 12.3346 21.0001 11.868 21 11.4001C21 7.75498 18.0451 4.80005 14.4 4.80005C12.403 4.79826 10.513 5.70254 9.26136 7.25866C8.50979 7.09952 7.72601 7.26783 7.10605 7.72151C6.48608 8.1752 6.08855 8.87134 6.01289 9.63584C3.63891 9.9254 1.8 11.9479 1.8 14.4001C1.8 17.051 3.94904 19.2001 6.6 19.2001H18.6C20.1279 19.2001 21.4893 18.2353 21.996 16.7939C22.5026 15.3524 22.0442 13.7482 20.8525 12.7921ZM16.2783 16.8001C15.5586 16.8001 14.9439 16.3253 14.697 15.6914L14.6541 15.5891C14.4897 15.1933 14.1162 14.8363 13.6619 14.8363H11.191C10.7367 14.8363 10.3501 15.1928 10.1857 15.588L10.1428 15.6914C9.8952 16.3253 9.2802 16.8001 8.5615 16.8001C7.62331 16.8001 6.86376 15.9586 6.86376 15.0185C6.86343 14.7829 6.9121 14.5498 7.00668 14.3339L8.52322 10.6827C8.77704 10.0303 9.40503 9.60038 10.1051 9.59977H14.7347C15.4346 9.60024 16.0625 10.0302 16.316 10.6827L17.833 14.3339C17.9276 14.5497 17.9763 14.7829 17.976 15.0185C17.976 15.9586 17.2155 16.8001 16.2783 16.8001ZM14.5579 10.7521C14.3593 10.7516 14.18 10.8708 14.1037 11.0542C14.0274 11.2376 14.0691 11.4488 14.2093 11.5894C14.3496 11.73 14.5608 11.7723 14.7443 11.6964C14.9278 11.6205 15.0475 11.4414 15.0475 11.2428C15.0477 10.9722 14.8286 10.7526 14.5579 10.7521ZM14.5579 13.0299C14.3593 13.0294 14.1799 13.1487 14.1035 13.3321C14.0272 13.5155 14.0689 13.7269 14.2093 13.8675C14.3496 14.0081 14.5609 14.0503 14.7444 13.9743C14.928 13.8983 15.0477 13.7191 15.0475 13.5205C15.0474 13.25 14.8285 13.0305 14.5579 13.0299ZM13.4074 11.8907C13.2087 11.8902 13.0293 12.0095 12.9528 12.1929C12.8764 12.3763 12.918 12.5877 13.0583 12.7284C13.1986 12.8692 13.4099 12.9115 13.5935 12.8356C13.7772 12.7598 13.8971 12.5807 13.8972 12.382C13.8975 12.1111 13.6783 11.8912 13.4074 11.8907ZM11.4525 11.8907H10.7988V11.2363C10.8016 11.0593 10.7087 10.8945 10.5559 10.8052C10.4031 10.7159 10.214 10.7159 10.0612 10.8052C9.90835 10.8945 9.81551 11.0593 9.81828 11.2363V11.8908H9.16462C8.89617 11.8946 8.68052 12.1132 8.68052 12.3817C8.68052 12.6502 8.89617 12.8689 9.16462 12.8726H9.8184V13.5272C9.81563 13.7042 9.90847 13.8689 10.0613 13.9582C10.2141 14.0475 10.4032 14.0475 10.556 13.9582C10.7089 13.8689 10.8017 13.7042 10.7989 13.5272V12.8726H11.4526C11.721 12.8689 11.9367 12.6501 11.9366 12.3817C11.9366 12.1132 11.7209 11.8944 11.4525 11.8907ZM15.6942 11.8907C15.423 11.8906 15.203 12.1103 15.2029 12.3815C15.2028 12.6527 15.4225 12.8727 15.6937 12.8728C15.9649 12.873 16.1849 12.6532 16.185 12.382C16.1852 12.2517 16.1336 12.1267 16.0415 12.0345C15.9494 11.9423 15.8245 11.8906 15.6942 11.8907Z" fill="currentColor"/>
</svg>
