<svg width="24" height="24" viewBox="0 0 24 24" fill="currentColor" xmlns="http://www.w3.org/2000/svg">
<path fill-rule="evenodd" clip-rule="evenodd" d="M19.2 21.0001H4.79999V10.2002L11.9998 3L19.2 10.2001V21.0001ZM16.7878 13.7941C16.7878 13.4627 16.5192 13.1941 16.1878 13.1941C15.8565 13.1941 15.5878 13.4627 15.5878 13.7941C15.5806 15.7771 13.971 17.3809 11.988 17.3809C10.005 17.3809 8.39537 15.7771 8.38813 13.7941C8.38813 13.4627 8.1195 13.1941 7.78813 13.1941C7.45676 13.1941 7.18813 13.4627 7.18813 13.7941C7.19464 16.4395 9.34093 18.5821 11.988 18.5821C14.635 18.5821 16.7813 16.4396 16.7878 13.7941Z" fill="currentColor"/>
</svg>
