<svg width="24" height="24" viewBox="0 0 24 24" fill="currentColor" xmlns="http://www.w3.org/2000/svg">
<path fill-rule="evenodd" clip-rule="evenodd" d="M7.25856 5.73322L7.20446 5.78681L7.25856 5.83286V5.73322ZM15.6 5.39995L12.6168 8.75491C12.4558 8.90683 12.2899 8.99995 12 8.99995C11.7293 8.99995 11.5442 8.90683 11.3832 8.75491L8.4 5.39995H10.2V2.09995C10.2 1.60289 10.6029 1.19995 11.1 1.19995H12.9C13.3971 1.19995 13.8 1.60289 13.8 2.09995V5.39995H15.6ZM16.8012 1.79995H14.4V3.59995H16.8V19.7999H7.2V3.59995H9.6V1.79995H7.19878C6.53637 1.8003 5.99967 2.33755 6 2.99995V21C5.99967 21.6624 6.53637 22.1996 7.19878 22.2H16.8012C17.1193 22.2 17.4243 22.0733 17.6491 21.8482C17.8739 21.6232 18.0002 21.3181 18 21V2.99995C18.0003 2.33755 17.4636 1.8003 16.8012 1.79995ZM12 21.6C11.6686 21.6 11.4 21.3313 11.4 21C11.4 20.6686 11.6686 20.4 12 20.4C12.3314 20.4 12.6 20.6686 12.6 21C12.6 21.3313 12.3314 21.6 12 21.6Z" fill="currentColor"/>
</svg>
