<svg width="24" height="24" viewBox="0 0 24 24" fill="currentColor" xmlns="http://www.w3.org/2000/svg">
<path fill-rule="evenodd" clip-rule="evenodd" d="M5.26852 3.16221C5.0343 2.92803 4.65458 2.92803 4.42036 3.16221C3.48641 4.10029 3.48641 5.61683 4.42036 6.5549L14.2312 16.3656C14.3874 16.5219 14.3874 16.7752 14.2312 16.9315L13.6406 17.522C13.4212 17.7426 13.4212 18.0989 13.6406 18.3195L14.0393 18.7183L15.3116 17.4461L15.4148 17.3429C15.4999 17.2577 15.6153 17.2099 15.7357 17.2099C15.8561 17.2099 15.9715 17.2577 16.0566 17.3429L19.5524 20.8388C19.787 21.072 20.1659 21.072 20.4006 20.8388L20.8246 20.4147C21.0579 20.1801 21.0579 19.8011 20.8246 19.5665L17.3288 16.0707C17.1516 15.8935 17.1516 15.6061 17.3288 15.4289L18.7042 14.0534L18.3055 13.6547C18.0849 13.4354 17.7286 13.4354 17.508 13.6547L16.9174 14.2453C16.7611 14.4015 16.5078 14.4015 16.3516 14.2453L5.26852 3.16221ZM15.8734 15.2894L15.2752 15.8876C15.0891 16.0737 14.7873 16.0737 14.6011 15.8876L4.84444 6.1308C4.1447 5.42696 4.1447 4.29015 4.84444 3.58632L15.8734 14.6152C16.0595 14.8014 16.0595 15.1033 15.8734 15.2894ZM9.38478 15.8736C9.2954 15.963 9.17416 16.0132 9.04775 16.0132C8.92134 16.0132 8.8001 15.963 8.71072 15.8736L8.11254 15.2755C7.92641 15.0893 7.92641 14.7875 8.11254 14.6014L9.84534 12.8686L9.42126 12.4445L7.63442 14.2314C7.47815 14.3876 7.22483 14.3876 7.06857 14.2314L6.478 13.6408C6.2574 13.4215 5.90108 13.4215 5.68048 13.6408L5.28174 14.0396L6.55398 15.3118L6.65718 15.415C6.83443 15.5923 6.83443 15.8796 6.65718 16.0569L3.16125 19.5527C2.92802 19.7873 2.92802 20.1662 3.16125 20.4008L3.58533 20.8249C3.81995 21.0581 4.19889 21.0581 4.43351 20.8249L7.92933 17.3291C8.10657 17.1518 8.39394 17.1518 8.57118 17.3291L9.94658 18.7045L10.3453 18.3057C10.5647 18.0851 10.5647 17.7288 10.3453 17.5082L9.75477 16.9176C9.67973 16.8426 9.63757 16.7408 9.63757 16.6347C9.63757 16.5286 9.67973 16.4268 9.75477 16.3518L11.5418 14.5648L11.1177 14.1407L9.38478 15.8736ZM20.8378 4.42061C19.8997 3.48665 18.3832 3.48665 17.4451 4.42061L12.3749 9.49087L12.799 9.91495L17.8692 4.84469C18.5731 4.14494 19.7099 4.14494 20.4137 4.84469L14.0712 11.1872L14.4953 11.6113L20.8378 5.26877C20.9503 5.15629 21.0135 5.00375 21.0135 4.84469C21.0135 4.68562 20.9503 4.53308 20.8378 4.42061ZM8.97527 15.0055C9.09258 15.1221 9.28204 15.1221 9.39935 15.0055L10.6909 13.714L10.2668 13.2899L8.97527 14.5814C8.85866 14.6987 8.85866 14.8882 8.97527 15.0055ZM18.1835 6.2214C17.9489 5.98815 17.5699 5.98815 17.3353 6.2214L13.2203 10.3363L13.6444 10.7604L18.1835 6.2214ZM14.9766 15.0055C14.8593 15.1221 14.6698 15.1221 14.5525 15.0055L6.19245 6.64548C5.95922 6.41086 5.95922 6.03194 6.19245 5.79732L14.9766 14.5814C15.0932 14.6987 15.0932 14.8882 14.9766 15.0055Z" fill="currentColor"/>
</svg>
