<svg width="24" height="24" viewBox="0 0 24 24" fill="currentColor" xmlns="http://www.w3.org/2000/svg">
<path fill-rule="evenodd" clip-rule="evenodd" d="M20.4 3H3.60002C2.93809 3.00194 2.40196 3.53806 2.40002 4.2V19.8C2.40196 20.4619 2.93809 20.9981 3.60002 21H20.4C21.062 20.9981 21.5981 20.4619 21.6 19.8V4.2C21.5981 3.53806 21.062 3.00194 20.4 3ZM15.6 4.57786C15.6 4.36917 15.7692 4.2 15.9779 4.2H17.0222C17.2309 4.2 17.4 4.36917 17.4 4.57786V5.62214C17.4 5.72236 17.3602 5.81847 17.2894 5.88933C17.2185 5.96019 17.1224 6 17.0222 6H15.9779C15.8777 6 15.7816 5.96019 15.7107 5.88933C15.6398 5.81847 15.6 5.72236 15.6 5.62214V4.57786ZM12.6 4.57786C12.6 4.36917 12.7692 4.2 12.9779 4.2H14.0222C14.2309 4.2 14.4 4.36917 14.4 4.57786V5.62214C14.4 5.72236 14.3602 5.81847 14.2894 5.88933C14.2185 5.96019 14.1224 6 14.0222 6H12.9779C12.8777 6 12.7816 5.96019 12.7107 5.88933C12.6398 5.81847 12.6 5.72236 12.6 5.62214V4.57786ZM9.60003 4.57786C9.60003 4.36917 9.7692 4.2 9.97788 4.2H11.0222C11.2309 4.2 11.4 4.36917 11.4 4.57786V5.62214C11.4 5.83083 11.2309 6 11.0222 6H9.97788C9.87767 6 9.78156 5.96019 9.7107 5.88933C9.63983 5.81847 9.60003 5.72236 9.60003 5.62214V4.57786ZM6.60002 4.57786C6.60002 4.47764 6.63983 4.38153 6.7107 4.31067C6.78156 4.23981 6.87767 4.2 6.97788 4.2H8.02217C8.23085 4.2 8.40002 4.36917 8.40002 4.57786V5.62214C8.40002 5.72236 8.36022 5.81847 8.28935 5.88933C8.21849 5.96019 8.12238 6 8.02217 6H6.97788C6.87767 6 6.78156 5.96019 6.7107 5.88933C6.63983 5.81847 6.60002 5.72236 6.60002 5.62214V4.57786ZM3.60002 4.57786C3.60002 4.36917 3.7692 4.2 3.97788 4.2H5.02217C5.23085 4.2 5.40002 4.36917 5.40002 4.57786V5.62214C5.40002 5.83083 5.23085 6 5.02217 6H3.97788C3.87767 6 3.78156 5.96019 3.7107 5.88933C3.63983 5.81847 3.60002 5.72236 3.60002 5.62214V4.57786ZM3.88802 19.128C3.72916 19.1275 3.60049 18.9989 3.60002 18.84V18.816C3.60049 18.6571 3.72916 18.5285 3.88802 18.528H6.63022C6.58996 18.726 6.58996 18.93 6.63022 19.128H3.88802ZM9.00002 18.828C8.99991 19.2953 8.64205 19.6848 8.17639 19.7243C7.71074 19.7639 7.29232 19.4404 7.21338 18.9798C7.13445 18.5191 7.42129 18.0748 7.87355 17.957C8.3258 17.8393 8.79291 18.0874 8.94862 18.528C8.98269 18.6243 9.00007 18.7258 9.00002 18.828ZM20.4 18.84C20.3996 18.9989 20.2709 19.1275 20.112 19.128H9.56983C9.61009 18.93 9.61009 18.726 9.56983 18.528H20.112C20.2709 18.5285 20.3996 18.6571 20.4 18.816V18.84ZM20.4 16.3622C20.4 16.604 20.204 16.8 19.9622 16.8H4.03786C3.79605 16.8 3.60002 16.604 3.60002 16.3622V7.63783C3.60002 7.39602 3.79605 7.2 4.03786 7.2H19.9622C20.204 7.2 20.4 7.39602 20.4 7.63783V16.3622ZM20.4 5.62217C20.4 5.83084 20.2308 6 20.0222 6H18.9779C18.8777 6 18.7816 5.96019 18.7107 5.88933C18.6398 5.81847 18.6 5.72236 18.6 5.62214V4.57786C18.6 4.36917 18.7692 4.2 18.9779 4.2H20.0222C20.2309 4.2 20.4 4.36917 20.4 4.57786V5.62217ZM11.0335 14.5793L14.195 12.1224L11.0335 9.6474V14.5793Z" fill="currentColor"/>
</svg>
