<svg width="24" height="24" viewBox="0 0 24 24" fill="currentColor" xmlns="http://www.w3.org/2000/svg">
<path fill-rule="evenodd" clip-rule="evenodd" d="M19.8 11.3979V4.8C16.8 4.8 13.8 3.6 12 2.4C10.2 3.6 7.20001 4.8 4.20001 4.8V11.3979C4.20001 11.3986 4.20001 11.3993 4.20001 11.4C4.20001 15.943 7.40224 19.8528 12 21.6C16.5978 19.8528 19.8 15.943 19.8 11.4C19.8 11.3993 19.8 11.3986 19.8 11.3979ZM16.6779 16.8105C16.0416 17.6202 15.2936 18.3355 14.4562 18.9349C13.6921 19.4841 12.8681 19.9446 12 20.3077V12H5.42195C5.40779 11.8034 5.40048 11.606 5.40001 11.4079V5.94466C7.95275 5.71239 10.3327 4.78344 12 3.81267V12H18.576C18.4527 13.7138 17.8044 15.3659 16.6779 16.8105Z" fill="currentColor"/>
</svg>
