<svg width="24" height="24" viewBox="0 0 24 24" fill="currentColor" xmlns="http://www.w3.org/2000/svg">
<path fill-rule="evenodd" clip-rule="evenodd" d="M22.345 17.4423C21.3726 15.8515 18.9114 11.6982 18.3881 10.6851H13.5735C13.095 11.625 10.5746 15.8364 9.59303 17.4423C9.41433 17.7346 9.61944 18.1143 9.95577 18.1143H21.9822C22.3186 18.1143 22.5237 17.7346 22.345 17.4423ZM18.4467 9.62416C18.4467 9.11214 18.0419 8.69706 17.5427 8.69706H16.9601V7.70774C16.9592 7.43445 16.7378 7.21316 16.4645 7.21247H16.4623V4H15.4994V7.21247H15.4734C15.2002 7.21317 14.9788 7.43446 14.9779 7.70774V8.69706H14.3953C13.8961 8.69706 13.4913 9.11214 13.4913 9.62416V10.1841H18.4467V9.62416ZM16.1695 19.6C16.7993 19.6 17.3608 19.2032 17.5711 18.6094H14.7678C14.978 19.2032 15.5396 19.6 16.1695 19.6ZM9.77275 13.3216C9.18312 12.357 7.69067 9.83841 7.37335 9.2241H4.45377C4.16366 9.79413 2.63527 12.3479 2.04004 13.3217C1.93168 13.499 2.056 13.7292 2.26 13.7292H9.55279C9.75679 13.7292 9.88111 13.4989 9.77275 13.3216ZM7.40875 8.58074C7.40875 8.27025 7.16332 8.01854 6.86061 8.01854H6.50738V7.41854C6.50684 7.25283 6.37258 7.11866 6.20687 7.11822H6.20553V4H5.62161V7.11842H5.60589C5.44019 7.11885 5.30594 7.25302 5.30541 7.41873V8.01873H4.95211C4.64935 8.01873 4.40392 8.27044 4.40392 8.58093V8.92046H7.40884L7.40875 8.58074ZM6.03657 14.6302C6.41849 14.6302 6.759 14.3896 6.88653 14.0296H5.18659C5.31035 14.3794 5.62116 14.6302 6.03657 14.6302Z" fill="currentColor"/>
</svg>
