<svg width="24" height="24" viewBox="0 0 24 24" fill="currentColor" xmlns="http://www.w3.org/2000/svg">
<path fill-rule="evenodd" clip-rule="evenodd" d="M19.812 4.19993C16.9027 4.19993 14.1603 3.29813 12.0004 1.79736C9.84062 3.29813 7.12132 4.19993 4.21199 4.19993L3.62399 4.20068V10.8007C3.62399 15.2215 6.18535 20.4074 12.0007 22.2007C17.8161 20.4074 20.3992 15.2215 20.3992 10.8007V4.19919L19.812 4.19993ZM14.5954 5.39993H9.40458C9.20809 5.39993 9.01968 5.47814 8.88079 5.61713C8.7419 5.75613 8.66392 5.94461 8.66399 6.1411V17.2588C8.66392 17.4553 8.7419 17.6437 8.88079 17.7827C9.01968 17.9217 9.20809 17.9999 9.40458 17.9999H14.5954C14.7919 17.9999 14.9803 17.9217 15.1192 17.7827C15.2581 17.6437 15.3361 17.4553 15.336 17.2588V6.1411C15.3361 5.94461 15.2581 5.75613 15.1192 5.61713C14.9803 5.47814 14.7919 5.39993 14.5954 5.39993ZM9.59999 6.28793H14.4C14.7314 6.28793 15 6.55656 15 6.88793V16.1999C15 16.5313 14.7314 16.7999 14.4 16.7999H9.59999C9.26862 16.7999 8.99999 16.5313 8.99999 16.1999V6.88793C8.99999 6.55656 9.26862 6.28793 9.59999 6.28793ZM11.808 17.2079H12.192C12.2408 17.2089 12.2871 17.2294 12.3207 17.2648C12.3542 17.3002 12.3721 17.3476 12.3705 17.3964C12.3705 17.4988 12.2944 17.5919 12.192 17.5919H11.808C11.7056 17.5919 11.6295 17.4992 11.6295 17.3968C11.6278 17.348 11.6458 17.3002 11.6793 17.2648C11.7129 17.2294 11.7592 17.2089 11.808 17.2079Z" fill="currentColor"/>
</svg>
