<svg width="24" height="24" viewBox="0 0 24 24" fill="currentColor" xmlns="http://www.w3.org/2000/svg">
<path fill-rule="evenodd" clip-rule="evenodd" d="M13.8 3.6481C13.3539 3.11567 12.6946 2.80811 12 2.80811C11.3053 2.80811 10.6464 3.11567 10.2002 3.6481L9.04079 4.8001H5.99999V7.82226L2.39999 11.4001H5.99999V18.6001C5.99999 19.5942 6.80588 20.4001 7.79999 20.4001H16.2C17.1941 20.4001 18 19.5942 18 18.6001V11.4001H21.6L13.8 3.6481ZM13.2742 11.9744C12.5099 11.3351 11.3943 11.346 10.6426 12.0001L10.0618 11.3526C11.141 10.4113 12.7447 10.3957 13.842 11.3157L13.2742 11.9744ZM14.419 10.662C12.9901 9.46675 10.9044 9.48716 9.49919 10.7102L8.91655 10.0608C10.651 8.55242 13.2244 8.52786 14.9873 10.0028L14.419 10.662ZM15.6568 9.41569C13.5075 7.62199 10.3746 7.65182 8.25981 9.4861L7.67999 8.8393C10.1213 6.71684 13.7428 6.6824 16.224 8.75806L15.6568 9.41569ZM9.74375 14.833L8.65775 16.291H9.76175V14.833H9.74375ZM7.98575 16.993V16.213L9.80978 13.765H10.5718V16.291H11.1298V16.993H10.5718V17.965H9.76175V16.993H7.98575ZM14.1778 17.932C13.9826 18.0162 13.7724 18.0601 13.5598 18.061C13.2318 18.061 12.9368 18.004 12.6748 17.89C12.4223 17.7829 12.1961 17.6222 12.0118 17.419C11.8286 17.2137 11.6879 16.9741 11.5978 16.714C11.5001 16.4335 11.4513 16.1381 11.4538 15.841C11.4511 15.538 11.4997 15.2367 11.5978 14.95C11.6879 14.6864 11.8285 14.4428 12.0118 14.233C12.1952 14.0266 12.4215 13.8628 12.6748 13.753C12.9367 13.6371 13.2317 13.579 13.5598 13.579C13.7767 13.5786 13.9922 13.612 14.1988 13.678C14.4003 13.7417 14.5892 13.8402 14.7568 13.969C15.1092 14.2402 15.3305 14.6478 15.3658 15.091H14.4658C14.4098 14.851 14.3018 14.671 14.1418 14.551C13.9818 14.431 13.7878 14.371 13.5598 14.371C13.3477 14.371 13.1677 14.412 13.0198 14.494C12.8748 14.5732 12.7513 14.6865 12.6598 14.824C12.5653 14.9678 12.4972 15.1273 12.4588 15.295C12.4165 15.4739 12.3953 15.6572 12.3958 15.841C12.3954 16.0179 12.4166 16.1942 12.4588 16.366C12.498 16.5298 12.5661 16.6852 12.6598 16.825C12.7519 16.9613 12.8754 17.0734 13.0198 17.152C13.1677 17.2341 13.3477 17.2751 13.5598 17.275C13.8718 17.275 14.1128 17.196 14.2828 17.038C14.4528 16.88 14.5518 16.651 14.5798 16.351H13.6318V15.649H15.4318V17.965H14.8318L14.7358 17.479C14.5677 17.695 14.3818 17.846 14.1778 17.932Z" fill="currentColor"/>
</svg>
