<svg width="24" height="24" viewBox="0 0 24 24" fill="currentColor" xmlns="http://www.w3.org/2000/svg">
<path fill-rule="evenodd" clip-rule="evenodd" d="M12.9746 7.60469V9.56933L8.36111 14.1828H7.61663C7.28675 14.1818 7.0196 13.9146 7.01855 13.5848V10.5948C7.01944 10.2649 7.28669 9.99767 7.61663 9.99677H10.2547L12.9746 7.60469ZM12.9746 12.5292V16.5747L10.8535 14.6504L12.9746 12.5292ZM16.8857 11.994C16.8871 12.9649 16.5237 13.9009 15.8676 14.6165L15.1922 14.0256C16.1919 12.9496 16.2601 11.3061 15.353 10.1508L15.9907 9.51317C16.5703 10.2098 16.887 11.0878 16.8857 11.994ZM15.3907 11.994C15.3915 12.6027 15.1594 13.1886 14.742 13.6316L14.0664 13.0404C14.5427 12.554 14.6306 11.8074 14.2802 11.2236L14.9263 10.5778C15.2287 10.988 15.3915 11.4844 15.3907 11.994ZM17.4 7.23437L7.23431 17.4L6.59999 16.7657L16.7657 6.60005L17.4 7.23437ZM7.01855 13.5848V10.5948C7.01944 10.2649 7.28669 9.99767 7.61663 9.99677H10.2547L12.9746 7.60469V9.56933L8.36111 14.1828H7.61663C7.28675 14.1818 7.0196 13.9146 7.01855 13.5848ZM10.8535 14.6504L12.9746 12.5292V16.5747L10.8535 14.6504ZM15.3907 11.994C15.3915 12.6027 15.1594 13.1886 14.742 13.6316L14.0664 13.0404C14.5427 12.554 14.6306 11.8074 14.2802 11.2236L14.9263 10.5778C15.2287 10.988 15.3915 11.4844 15.3907 11.994ZM15.9907 9.51317C17.2293 11.0065 17.1767 13.1846 15.8676 14.6165L15.1922 14.0256C16.1919 12.9496 16.2601 11.3061 15.353 10.1508L15.9907 9.51317ZM16.7657 6.60005L17.4 7.23437L7.23431 17.4L6.59999 16.7657L16.7657 6.60005ZM12 1.80005C6.36671 1.80005 1.79999 6.36677 1.79999 12C1.79999 17.6333 6.36671 22.2001 12 22.2001C17.6333 22.2001 22.2 17.6333 22.2 12C22.2 6.36677 17.6333 1.80005 12 1.80005ZM12 21.6C6.69815 21.6 2.39999 17.3019 2.39999 12C2.39999 6.69821 6.69815 2.40005 12 2.40005C17.3018 2.40005 21.6 6.69821 21.6 12C21.6 17.3019 17.3018 21.6 12 21.6ZM7.01855 13.5848V10.5948C7.01944 10.2649 7.28669 9.99767 7.61663 9.99677H10.2547L12.9746 7.60469V9.56933L8.36111 14.1828H7.61663C7.28675 14.1818 7.0196 13.9146 7.01855 13.5848ZM10.8535 14.6504L12.9746 12.5292V16.5747L10.8535 14.6504ZM15.3907 11.994C15.3915 12.6027 15.1594 13.1886 14.742 13.6316L14.0664 13.0404C14.5427 12.554 14.6306 11.8074 14.2802 11.2236L14.9263 10.5778C15.2287 10.988 15.3915 11.4844 15.3907 11.994ZM15.9907 9.51317C17.2293 11.0065 17.1767 13.1846 15.8676 14.6165L15.1922 14.0256C16.1919 12.9496 16.2601 11.3061 15.353 10.1508L15.9907 9.51317ZM17.4 7.23437L7.23431 17.4L6.59999 16.7657L16.7657 6.60005L17.4 7.23437Z" fill="currentColor"/>
</svg>
