<svg width="24" height="24" viewBox="0 0 24 24" fill="currentColor" xmlns="http://www.w3.org/2000/svg">
<path fill-rule="evenodd" clip-rule="evenodd" d="M19.8746 21H4.1013C3.29497 21.0015 2.54952 20.5713 2.1475 19.8723C1.74547 19.1733 1.7484 18.3126 2.15517 17.6164L2.1735 17.5846L2.17437 17.5831L10.0416 4.11629C10.4459 3.42487 11.187 2.99989 11.9879 2.99989C12.7889 2.99989 13.5298 3.42487 13.9341 4.11629L21.821 17.6163C22.2278 18.3125 22.2305 19.1733 21.8285 19.8723C21.4264 20.5713 20.681 21.0015 19.8746 21ZM12.012 18.6C11.3824 18.5999 10.8721 18.0895 10.8721 17.4599C10.8722 16.8303 11.3826 16.32 12.0122 16.32C12.6418 16.32 13.1521 16.8304 13.1521 17.46C13.1521 17.7624 13.032 18.0524 12.8182 18.2662C12.6043 18.48 12.3143 18.6 12.012 18.6ZM13.1488 8.42309L12.772 14.618C12.7718 15.0376 12.4316 15.1952 12.0119 15.1952C11.5922 15.1952 11.252 15.0376 11.2518 14.618L10.874 8.40881C10.8727 8.38604 10.8718 8.36321 10.8718 8.34C10.8718 7.71031 11.3822 7.19984 12.0119 7.19984C12.6416 7.19984 13.1521 7.71031 13.1521 8.34C13.1521 8.36799 13.1508 8.39561 13.1488 8.42309Z" fill="currentColor"/>
</svg>
