<svg width="24" height="24" viewBox="0 0 24 24" fill="currentColor" xmlns="http://www.w3.org/2000/svg">
<path fill-rule="evenodd" clip-rule="evenodd" d="M19.7958 7.21143H4.19578C2.87578 7.21143 1.79578 8.29143 1.79578 9.61143V14.4114C1.79578 15.7314 2.87578 16.8114 4.19578 16.8114H6.59578V19.8114L9.59578 16.8114H19.7958C21.1158 16.8114 22.1958 15.7314 22.1958 14.4114V9.61143C22.1958 8.29143 21.1158 7.21143 19.7958 7.21143ZM6.10687 13.4265L4.81198 14.3697C4.73745 14.424 4.63643 14.424 4.56183 14.3699C4.48723 14.3157 4.45603 14.2196 4.48457 14.1319L4.98091 12.6079L3.68393 11.6667C3.60933 11.6126 3.57811 11.5165 3.60661 11.4289C3.63511 11.3412 3.71684 11.2819 3.80902 11.2819L5.41099 11.2834L5.90458 9.75859C5.93298 9.67087 6.01469 9.61145 6.1069 9.61145C6.19911 9.61145 6.28081 9.67087 6.30922 9.75859L6.80278 11.2833L8.40475 11.2818C8.49693 11.2818 8.57866 11.3411 8.60716 11.4288C8.63566 11.5164 8.60444 11.6125 8.52984 11.6666L7.23286 12.6078L7.7292 14.1318C7.75774 14.2195 7.72654 14.3156 7.65194 14.3698C7.57733 14.4239 7.47632 14.4239 7.40179 14.3696L6.10687 13.4265ZM14.4037 11.6666L13.1067 12.6078L13.603 14.1318C13.6316 14.2195 13.6004 14.3156 13.5258 14.3698C13.4512 14.4239 13.3502 14.4239 13.2756 14.3696L11.9807 13.4264L10.6858 14.3696C10.6113 14.4239 10.5103 14.4239 10.4357 14.3698C10.3611 14.3156 10.3299 14.2195 10.3584 14.1318L10.8548 12.6078L9.55778 11.6666C9.48319 11.6125 9.45197 11.5164 9.48046 11.4288C9.50896 11.3411 9.59069 11.2818 9.68287 11.2818L11.2848 11.2833L11.7784 9.75859C11.8068 9.67087 11.8885 9.61145 11.9807 9.61145C12.0729 9.61145 12.1546 9.67087 12.183 9.75859L12.6766 11.2833L14.2786 11.2818C14.3708 11.2818 14.4525 11.3411 14.481 11.4288C14.5094 11.5164 14.4783 11.6125 14.4037 11.6666ZM20.3077 11.6666L19.0107 12.6078L19.507 14.1318C19.5356 14.2195 19.5044 14.3156 19.4298 14.3698C19.3552 14.4239 19.2542 14.4239 19.1796 14.3696L17.8847 13.4264L16.5898 14.3696C16.5153 14.4239 16.4143 14.4239 16.3397 14.3698C16.2651 14.3156 16.2339 14.2195 16.2624 14.1318L16.7588 12.6078L15.4618 11.6666C15.3872 11.6125 15.356 11.5164 15.3845 11.4288C15.413 11.3411 15.4947 11.2818 15.5869 11.2818L17.1888 11.2833L17.6824 9.75859C17.7108 9.67087 17.7925 9.61145 17.8847 9.61145C17.9769 9.61145 18.0586 9.67087 18.087 9.75859L18.5806 11.2833L20.1826 11.2818C20.2748 11.2818 20.3565 11.3411 20.385 11.4288C20.4134 11.5164 20.3823 11.6125 20.3077 11.6666Z" fill="currentColor"/>
</svg>
