<svg width="24" height="24" viewBox="0 0 24 24" fill="currentColor" xmlns="http://www.w3.org/2000/svg">
<path fill-rule="evenodd" clip-rule="evenodd" d="M4.8 12C4.8 15.9765 8.02356 19.2 12 19.2C13.9101 19.2025 15.7423 18.4436 17.0912 17.0912L12 12V4.80002C8.02356 4.80002 4.8 8.02358 4.8 12ZM12 2.40002C17.3019 2.40002 21.6 6.69809 21.6 12C21.6 17.302 17.3019 21.6 12 21.6C6.69806 21.6 2.4 17.302 2.4 12C2.4 6.69809 6.69806 2.40002 12 2.40002ZM12 4.20002C16.3078 4.20002 19.8 7.69222 19.8 12C19.8 16.3078 16.3078 19.8 12 19.8C7.69219 19.8 4.2 16.3078 4.2 12C4.2 7.69222 7.69219 4.20002 12 4.20002Z" fill="currentColor"/>
</svg>
