<svg width="24" height="24" viewBox="0 0 24 24" fill="currentColor" xmlns="http://www.w3.org/2000/svg">
<path fill-rule="evenodd" clip-rule="evenodd" d="M17.9886 3.59578H7.78857C7.12665 3.59775 6.59055 4.13386 6.58857 4.79578V20.9958C6.59055 21.6577 7.12665 22.1938 7.78857 22.1958H17.9886C18.6505 22.1938 19.1866 21.6577 19.1886 20.9958V4.79578C19.1866 4.13386 18.6505 3.59775 17.9886 3.59578ZM16.1886 1.79578C16.8505 1.79775 17.3866 2.33386 17.3886 2.99578H7.78857C6.79567 2.99868 5.99147 3.80287 5.98857 4.79578V20.3958C5.32665 20.3938 4.79055 19.8577 4.78857 19.1958V2.99578C4.79055 2.33386 5.32665 1.79775 5.98857 1.79578H16.1886ZM17.9886 4.79578V17.3958L9.58857 4.79578H17.9886Z" fill="currentColor"/>
</svg>
