<svg width="24" height="24" viewBox="0 0 24 24" fill="currentColor" xmlns="http://www.w3.org/2000/svg">
<path fill-rule="evenodd" clip-rule="evenodd" d="M4.63262 5.99954H20.5441V5.77874C20.5441 5.23824 20.07 4.80005 19.4854 4.80005H15.4471C15.4484 4.99787 15.3436 5.18123 15.1725 5.28052C15.0014 5.37981 14.7902 5.37981 14.6191 5.28052C14.448 5.18123 14.3432 4.99787 14.3445 4.80005H2.97874C2.39405 4.80005 1.80005 5.43024 1.80005 5.97074V9.21689C2.18179 9.21689 2.66086 9.32328 2.97398 9.504V7.57906C2.97398 6.70805 3.71806 5.99954 4.63262 5.99954ZM2.99957 14.7907H3.60038C4.01635 14.7907 4.4179 14.6136 4.73102 14.2921C5.03414 13.9808 5.20805 13.578 5.20805 13.1869C5.20805 12.7959 5.03419 12.393 4.73107 12.0818C4.56632 11.9105 4.36699 11.7763 4.14634 11.688C4.06166 12.7541 2.96405 13.7376 1.80005 13.7376V17.1678C1.80005 17.7056 2.4162 18.1416 2.99957 18.144V14.7907ZM22.2001 10.9841V7.55285C22.2001 7.0134 21.726 6.57605 21.1414 6.57605H17.1031C17.1011 6.8791 16.8548 7.12371 16.5518 7.12371C16.2487 7.12371 16.0025 6.8791 16.0005 6.57605H4.65874C4.07405 6.57605 3.60005 7.01333 3.60005 7.55285V10.9841C4.81793 10.9841 5.80522 12.0645 5.80522 13.1881C5.80522 14.3117 4.81793 15.3921 3.60005 15.3921V18.8232C3.60005 19.3627 4.07405 19.8 4.65874 19.8H16.0005C16.0025 19.497 16.2487 19.2524 16.5518 19.2524C16.8548 19.2524 17.1011 19.497 17.1031 19.8H21.1414C21.726 19.8 22.2001 19.3628 22.2001 18.8232V15.3921C20.9822 15.3921 19.9949 14.3117 19.9949 13.188C19.9949 12.0644 20.9822 10.9841 22.2001 10.9841ZM16.5518 18.6981C16.2475 18.6979 16.0009 18.4512 16.001 18.1469C16.0011 17.8426 16.2479 17.596 16.5522 17.596C16.8564 17.5961 17.1031 17.8428 17.1031 18.1471C17.103 18.4515 16.8562 18.6981 16.5518 18.6981ZM16.5518 17.0451C16.2475 17.0449 16.0009 16.7982 16.001 16.4939C16.0011 16.1896 16.2479 15.943 16.5521 15.943C16.8564 15.9431 17.1031 16.1898 17.1031 16.494C17.103 16.7984 16.8562 17.0451 16.5518 17.0451ZM16.5518 15.3921C16.2475 15.3919 16.0009 15.1452 16.001 14.8409C16.0011 14.5366 16.2479 14.29 16.5521 14.29C16.8564 14.2901 17.1031 14.5368 17.1031 14.841C17.103 15.1454 16.8562 15.3921 16.5518 15.3921ZM16.5518 13.7391C16.2475 13.7389 16.0009 13.4922 16.001 13.1879C16.0011 12.8836 16.2479 12.637 16.5521 12.637C16.8564 12.6371 17.1031 12.8838 17.1031 13.188C17.103 13.4924 16.8562 13.7391 16.5518 13.7391ZM16.5518 12.086C16.2475 12.0859 16.001 11.8391 16.0011 11.5349C16.0012 11.2306 16.2479 10.984 16.5522 10.9841C16.8564 10.9841 17.1031 11.2308 17.1031 11.535C17.103 11.6812 17.0449 11.8214 16.9415 11.9247C16.8382 12.028 16.698 12.0861 16.5518 12.086ZM16.5518 10.433C16.2475 10.4329 16.0009 10.1861 16.001 9.88184C16.0011 9.57755 16.2479 9.33095 16.5522 9.33101C16.8564 9.33107 17.1031 9.57776 17.1031 9.88205C17.103 10.1864 16.8562 10.4331 16.5518 10.433ZM16.5518 8.78004C16.2475 8.77989 16.0009 8.53313 16.001 8.22884C16.0011 7.92455 16.2479 7.67795 16.5522 7.67801C16.8564 7.67807 17.1031 7.92476 17.1031 8.22905C17.103 8.53343 16.8562 8.78011 16.5518 8.78004Z" fill="currentColor"/>
</svg>
