<svg width="24" height="24" viewBox="0 0 24 24" fill="currentColor" xmlns="http://www.w3.org/2000/svg">
<path fill-rule="evenodd" clip-rule="evenodd" d="M22.2 19.8H2.99999C2.33725 19.8 1.79999 19.2627 1.79999 18.6V4.2H21C21.6627 4.2 22.2 4.73726 22.2 5.4V19.8ZM16.1463 16.7499L18.0039 18.6V17.4H20.0481C20.1415 17.3999 20.2311 17.3627 20.297 17.2966C20.363 17.2305 20.4001 17.1409 20.4 17.0475V15.9525C20.4001 15.8591 20.363 15.7695 20.297 15.7034C20.2311 15.6373 20.1415 15.6001 20.0481 15.6H18.0039V14.4L16.1463 16.2501C16.0798 16.3163 16.0425 16.4062 16.0425 16.5C16.0425 16.5938 16.0798 16.6837 16.1463 16.7499ZM3.59999 17.0475C3.59999 17.1411 3.63722 17.2307 3.70338 17.2968C3.76955 17.3629 3.85926 17.4001 3.95279 17.4H6.00191V18.6L7.864 16.7499C7.93058 16.6838 7.96802 16.5938 7.96802 16.5C7.96802 16.4062 7.93058 16.3162 7.864 16.2501L6.00186 14.4V15.6H3.95279C3.85926 15.6 3.76955 15.6371 3.70338 15.7032C3.63722 15.7693 3.59999 15.8589 3.59999 15.9525V17.0475ZM7.79999 6.95247C7.80013 6.75796 7.64258 6.60016 7.44808 6.6H5.40388V5.4L3.54628 7.25006C3.47983 7.31627 3.44247 7.4062 3.44247 7.5C3.44247 7.5938 3.47983 7.68374 3.54628 7.74994L5.40388 9.6V8.4H7.44808C7.64258 8.39984 7.80013 8.24204 7.79999 8.04754V6.95247ZM12 7.8C9.68039 7.8 7.79999 9.6804 7.79999 12C7.79999 14.3196 9.68039 16.2 12 16.2C14.3196 16.2 16.2 14.3196 16.2 12C16.2 9.6804 14.3196 7.8 12 7.8ZM20.4639 7.25006L18.6019 5.4V6.6H16.5528C16.4593 6.59995 16.3695 6.63706 16.3034 6.70316C16.2372 6.76926 16.2 6.85894 16.2 6.95247V8.04754C16.2 8.14106 16.2372 8.23074 16.3034 8.29684C16.3695 8.36294 16.4593 8.40005 16.5528 8.4H18.6019V9.6L20.464 7.74994C20.5306 7.6838 20.568 7.59383 20.568 7.49999C20.568 7.40615 20.5305 7.31619 20.4639 7.25006ZM10.2 9.6L15 12L10.2 14.4V9.6Z" fill="currentColor"/>
</svg>
