<svg width="24" height="24" viewBox="0 0 24 24" fill="currentColor" xmlns="http://www.w3.org/2000/svg">
<path fill-rule="evenodd" clip-rule="evenodd" d="M10.5948 10.8705C10.119 11.4656 10.0685 12.2955 10.4686 12.9439C10.8688 13.5923 11.6332 13.9192 12.3784 13.7608C13.1237 13.6024 13.689 12.9927 13.7907 12.2376L15.2515 4.30399L10.5948 10.8705ZM12 1.8C6.36674 1.8 1.80005 6.36669 1.80005 12C1.80005 17.6333 6.36674 22.2 12 22.2C17.6334 22.2 22.2001 17.6333 22.2001 12C22.2001 6.36669 17.6334 1.8 12 1.8ZM11.4 20.4L11.924 18.5667H10.6664L12.8676 16L12.3437 17.8333H13.6001L11.4 20.4ZM17.7238 18.1482L17.2988 17.7231L16.4548 16.879L16.8791 16.4548L17.7232 17.2989C18.2825 16.6955 18.7429 16.0075 19.0874 15.2604L17.9828 14.8029L18.2124 14.2485L19.3175 14.7062C19.6026 13.9344 19.7634 13.1222 19.7937 12.3H18.6V11.7H19.7937C19.7634 10.8778 19.6026 10.0656 19.3175 9.29374L18.2125 9.75144L17.9828 9.19704L19.0875 8.7395C18.7429 7.99242 18.2825 7.30446 17.7232 6.70106L16.8791 7.54514L16.4548 7.1209L17.2989 6.27679C16.8185 5.83182 16.2841 5.44895 15.7082 5.13718L14.3818 12.3434C14.2359 13.3413 13.4826 14.142 12.4954 14.3483C11.5082 14.5546 10.4972 14.1226 9.96391 13.2666C9.43064 12.4106 9.48852 11.3128 10.1088 10.5176L14.3365 4.55698C13.6763 4.35008 12.9914 4.23214 12.3 4.20629V5.4H11.7V4.20629C10.8778 4.23665 10.0656 4.39742 9.29379 4.68257L9.75149 5.78758L9.19709 6.01721L8.73962 4.91256C7.99255 5.25716 7.30459 5.7176 6.70119 6.27686L7.54529 7.12097L7.12102 7.54522L6.27691 6.70114C5.71764 7.30453 5.2572 7.99249 4.91263 8.73958L6.01726 9.19711L5.78765 9.75151L4.68262 9.29381C4.39748 10.0656 4.23673 10.8778 4.20636 11.7H5.40005V12.3H4.20636C4.23672 13.1222 4.39747 13.9344 4.68262 14.7063L5.78765 14.2486L6.01726 14.803L4.91263 15.2605C5.25721 16.0076 5.71762 16.6956 6.27684 17.299L7.12102 16.4549L7.54529 16.8791L6.70123 17.7232L6.27627 18.1482C4.56712 16.5607 3.59723 14.3326 3.60004 12C3.60004 7.3608 7.36085 3.6 12 3.6C16.6392 3.6 20.4001 7.3608 20.4001 12C20.4028 14.3326 19.4329 16.5607 17.7238 18.1482Z" fill="currentColor"/>
</svg>
