<svg width="24" height="24" viewBox="0 0 24 24" fill="currentColor" xmlns="http://www.w3.org/2000/svg">
<path fill-rule="evenodd" clip-rule="evenodd" d="M13.8 3.648C13.3539 3.11557 12.6947 2.808 12 2.808C11.3054 2.808 10.6464 3.11557 10.2002 3.648L9.04082 4.8H6.00002V7.82215L2.40002 11.4H6.00002V18.6C6.00002 19.5941 6.80591 20.4 7.80002 20.4H16.2C17.1941 20.4 18 19.5941 18 18.6V11.4H21.6L13.8 3.648ZM13.2479 14.82V7.26C13.2479 6.56421 12.6838 6.00016 11.988 6.00016C11.2922 6.00016 10.7282 6.56421 10.7282 7.26V7.68H11.3581C11.4728 7.68173 11.5649 7.77524 11.5649 7.89C11.5649 8.00475 11.4728 8.09826 11.3581 8.1H10.7282V8.52H11.3581C11.4741 8.52 11.5681 8.61402 11.5681 8.73C11.5681 8.84598 11.4741 8.94 11.3581 8.94H10.7282V9.36H11.3581C11.4741 9.36 11.5681 9.45402 11.5681 9.57C11.5681 9.68598 11.4741 9.78 11.3581 9.78H10.7282V14.82C10.0052 15.3623 9.71024 16.3064 9.99604 17.1638C10.2818 18.0212 11.0842 18.5995 11.988 18.5995C12.8918 18.5995 13.6942 18.0212 13.98 17.1638C14.2658 16.3064 13.9709 15.3623 13.2479 14.82ZM11.988 17.7601C11.4196 17.76 10.9215 17.3793 10.7723 16.8308C10.6231 16.2823 10.8596 15.7018 11.3496 15.4137V11.2584C11.3462 11.0281 11.4671 10.8137 11.666 10.6975C11.8649 10.5814 12.111 10.5814 12.3099 10.6975C12.5088 10.8137 12.6297 11.0281 12.6263 11.2584V15.4137C13.1163 15.7017 13.3528 16.2822 13.2036 16.8307C13.0544 17.3793 12.5565 17.76 11.988 17.7601Z" fill="currentColor"/>
</svg>
