<svg width="24" height="24" viewBox="0 0 24 24" fill="currentColor" xmlns="http://www.w3.org/2000/svg">
<path fill-rule="evenodd" clip-rule="evenodd" d="M3.14264 20.3624L8.71967 15.4308L5.55702 5.31024C5.42562 4.97496 5.81661 4.67709 6.10938 4.88947L8.19781 6.40478L7.87667 3.39168C7.8392 3.0426 8.27675 2.85252 8.5101 3.11666L15.1821 10.6653L16.7353 9.50973C16.9619 9.34168 17.267 9.32547 17.5101 9.46857L20.8013 11.4094C20.9145 11.4758 20.9825 11.5987 20.9787 11.7298C20.9745 11.861 20.8992 11.9796 20.7821 12.0389L16.908 12.4971L16.8689 13.53C16.8561 13.8527 16.6699 14.1433 16.3821 14.2898L3.55396 20.9478C3.17742 21.1405 2.83007 20.6461 3.14264 20.3624ZM16.0889 13.7091V10.9796L11.8704 13.8226C11.8349 13.8474 11.7887 13.8511 11.7496 13.8323C11.7106 13.8135 11.6847 13.7751 11.6819 13.7318C11.6792 13.6886 11.7 13.6472 11.7363 13.6236L13.0111 12.7645C12.9988 12.7549 12.9886 12.7429 12.981 12.7293L12.4341 11.7545C12.4123 11.717 12.4123 11.6707 12.4342 11.6333C12.4562 11.5959 12.4966 11.5732 12.5399 11.574C12.5833 11.5748 12.6229 11.5989 12.6434 11.6371L13.1903 12.6118C13.1946 12.6197 13.1981 12.6281 13.2006 12.6368L14.9482 11.4589L8.85244 4.56667L11.912 10.4281C11.9321 10.4661 11.9303 10.512 11.9073 10.5483C11.8843 10.5847 11.8436 10.6059 11.8006 10.604C11.7576 10.6021 11.7189 10.5774 11.6992 10.5391L8.67522 4.74552L10.4445 16.623L16.0889 13.7091Z" fill="currentColor"/>
</svg>
