<svg width="24" height="24" viewBox="0 0 24 24" fill="currentColor" xmlns="http://www.w3.org/2000/svg">
<path fill-rule="evenodd" clip-rule="evenodd" d="M21.0524 12.9919C21.1506 12.5344 21.2001 12.0679 21.2 11.6C21.2 7.95493 18.2451 5 14.6 5C12.601 4.99821 10.7093 5.90429 9.45778 7.46305C8.70344 7.29717 7.91417 7.46207 7.28934 7.9161C6.66451 8.37013 6.26388 9.06988 6.18865 9.83857C3.8264 10.1389 2 12.1562 2 14.6C2 17.251 4.14903 19.4 6.8 19.4H18.8C20.328 19.4 21.6894 18.4353 22.1961 16.9938C22.7028 15.5523 22.2443 13.948 21.0524 12.9919ZM14.6 17C11.6177 17 9.2 14.5823 9.2 11.6C9.2 8.61767 11.6176 6.20001 14.6 6.20001C17.5824 6.20001 20 8.61767 20 11.6C20 14.5823 17.5822 17 14.6 17ZM14.6 6.80001C11.949 6.80001 9.8 8.94904 9.8 11.6C9.8 14.251 11.949 16.4 14.6 16.4C17.251 16.4 19.4 14.251 19.4 11.6C19.4 8.94904 17.2509 6.80001 14.6 6.80001ZM18.3467 13.5765H16.9163C17.047 13.0207 17.1209 12.4531 17.1367 11.8824H18.8259C18.7956 12.3526 18.6863 12.8145 18.5025 13.2484C18.4552 13.3604 18.4032 13.4697 18.3467 13.5765ZM10.6972 13.2484C10.5135 12.8144 10.4041 12.3526 10.3738 11.8824H12.0632C12.079 12.4531 12.1528 13.0207 12.2836 13.5765H10.8532C10.7968 13.4697 10.7448 13.3603 10.6972 13.2484ZM10.8532 9.62353H12.2836C12.1528 10.1793 12.079 10.7469 12.0632 11.3176H10.3738C10.4041 10.8474 10.5135 10.3856 10.6972 9.95161C10.7446 9.83963 10.7966 9.73027 10.8532 9.62353ZM16.3904 9.85501C16.4964 10.3358 16.5571 10.8255 16.5717 11.3176H14.8822V9.62353H16.3342C16.354 9.69945 16.3727 9.77661 16.3904 9.85501ZM14.8822 9.05884V7.41484C15.0109 7.46241 15.1307 7.53122 15.2366 7.61841C15.4749 7.80882 15.7035 8.10335 15.8977 8.47012C15.9976 8.66032 16.0846 8.857 16.1582 9.05884H14.8822ZM13.9632 7.61841C14.0691 7.53122 14.1889 7.46241 14.3175 7.41484V9.05884H13.0416C13.1152 8.857 13.2022 8.66032 13.3021 8.47012C13.4963 8.10335 13.7249 7.80882 13.9632 7.61841ZM14.3175 9.62353V11.3176H12.6282C12.6428 10.8255 12.7035 10.3358 12.8095 9.85501C12.8271 9.77652 12.8458 9.69936 12.8656 9.62353H14.3175ZM12.8096 13.345C12.7036 12.8642 12.6429 12.3745 12.6283 11.8824H14.3177V13.5765H12.8657C12.8459 13.5006 12.8272 13.4234 12.8096 13.345ZM14.3177 14.1412V15.7852C14.189 15.7376 14.0692 15.6688 13.9634 15.5816C13.725 15.3912 13.4964 15.0967 13.3022 14.7299C13.2023 14.5397 13.1153 14.343 13.0417 14.1412H14.3177ZM15.2366 15.5816C15.1307 15.6688 15.0109 15.7376 14.8822 15.7852V14.1412H16.1582C16.0846 14.343 15.9976 14.5397 15.8977 14.7299C15.7035 15.0967 15.4749 15.3912 15.2366 15.5816ZM14.8822 13.5765V11.8824H16.5716C16.557 12.3745 16.4963 12.8642 16.3903 13.345C16.3727 13.4235 16.354 13.5007 16.3341 13.5765H14.8822ZM17.1368 11.3176C17.121 10.7469 17.0472 10.1793 16.9164 9.62353H18.3468C18.4032 9.73033 18.4552 9.83969 18.5028 9.95161C18.6866 10.3856 18.7959 10.8474 18.8262 11.3176H17.1368ZM17.5948 8.60519C17.7366 8.74696 17.8683 8.89853 17.9888 9.05879H16.7561C16.5644 8.47948 16.309 7.98309 16.0085 7.60439C16.0891 7.63285 16.1691 7.66383 16.2483 7.69732C16.7516 7.90996 17.209 8.21829 17.5948 8.60519ZM12.9515 7.69732C13.0307 7.66381 13.1106 7.63284 13.1913 7.60439C12.8908 7.98313 12.6354 8.47953 12.4437 9.05879H11.2111C11.3316 8.89853 11.4633 8.74695 11.6051 8.60519C11.9909 8.21828 12.4482 7.90996 12.9515 7.69732ZM11.6051 14.5949C11.4633 14.4532 11.3316 14.3016 11.2111 14.1413H12.4437C12.6354 14.7206 12.8908 15.217 13.1913 15.5957C13.1107 15.5673 13.0308 15.5363 12.9515 15.5028C12.4482 15.2901 11.9909 14.9819 11.6051 14.5949ZM16.2483 15.5028C16.1691 15.5363 16.0892 15.5673 16.0085 15.5957C16.309 15.217 16.5644 14.7206 16.7562 14.1413H17.9888C17.8683 14.3016 17.7366 14.4531 17.5947 14.5949C17.2089 14.9818 16.7516 15.2902 16.2483 15.5028Z" fill="currentColor"/>
</svg>
