<svg width="24" height="24" viewBox="0 0 24 24" fill="currentColor" xmlns="http://www.w3.org/2000/svg">
<path fill-rule="evenodd" clip-rule="evenodd" d="M19.8 3H2.40002V15.6C2.40002 16.5941 3.20591 17.4 4.20002 17.4H6.60002V21L10.2 17.4H21.6V4.8C21.6 3.80589 20.7941 3 19.8 3ZM3.63688 14.811C3.63688 14.8441 3.63888 14.8777 3.63988 14.911H3.63688V14.811ZM3.63677 15.6689V15.5689C3.63677 15.6024 3.63897 15.6356 3.64007 15.6689H3.63677ZM20.4 15L15.021 8.87645C14.8271 8.61451 14.5131 8.61451 14.3194 8.87645L10.8 13.8L8.11078 10.4796C7.91719 10.2178 7.60294 10.2178 7.40962 10.4796L4.20002 14.4C3.87182 14.1438 3.61123 13.7984 3.60002 13.216V4.2H19.84C20.1492 4.20034 20.3997 4.45086 20.4 4.75999V15ZM6.60002 9C7.59414 9 8.40002 8.19411 8.40002 7.2C8.40002 6.20589 7.59414 5.4 6.60002 5.4C5.60591 5.4 4.80002 6.20589 4.80002 7.2C4.80002 8.19411 5.60591 9 6.60002 9Z" fill="currentColor"/>
</svg>
