<svg width="24" height="24" viewBox="0 0 24 24" fill="currentColor" xmlns="http://www.w3.org/2000/svg">
<path fill-rule="evenodd" clip-rule="evenodd" d="M17.4 4.2V3H6.6V4.2H3V7.8C3 10.075 4.58275 11.9803 6.70716 12.4749C7.13088 14.554 8.73153 16.1931 10.8 16.6661V18.6H10.2C9.53726 18.6 9 19.1373 9 19.8C8.33726 19.8 7.8 20.3373 7.8 21H16.2C16.2 20.3373 15.6627 19.8 15 19.8C15 19.1373 14.4627 18.6 13.8 18.6H13.2V16.6661C15.2685 16.1931 16.8691 14.554 17.2928 12.4749C19.4172 11.9803 21 10.075 21 7.8V4.2H17.4ZM6.6 11.1954C5.16203 10.6856 4.20079 9.32567 4.2 7.8V5.4H6.6V11.1954ZM11.0272 13.5102C11.0272 13.2673 11.1162 13.0561 11.2941 12.8766C11.4591 12.7026 11.689 12.605 11.9288 12.6072C12.1721 12.6035 12.4062 12.7004 12.5756 12.8751C12.749 13.0406 12.8461 13.2705 12.8439 13.5101C12.8431 14.015 12.4337 14.4239 11.9288 14.424C11.6882 14.4268 11.4576 14.3286 11.2928 14.1534C11.1203 13.9841 11.0244 13.7518 11.0272 13.5102ZM14.1215 10.3778C13.7928 10.7666 13.3407 11.0272 12.765 11.1595C12.765 11.4299 12.7279 11.6413 12.6535 11.7937C12.5842 11.9212 12.4794 12.0257 12.3517 12.0945C12.2261 12.1675 12.0836 12.2064 11.9384 12.2075C11.6288 12.2185 11.3448 12.0363 11.2258 11.7503C11.1632 11.6061 11.1326 11.4501 11.136 11.293V10.5908C11.136 10.355 11.1864 10.1871 11.2981 10.0873C11.4098 9.98753 11.5855 9.91675 11.8307 9.87504C12.4554 9.7789 12.7673 9.48226 12.7664 8.98514C12.7716 8.78391 12.6773 8.59304 12.5144 8.47486C12.3462 8.34679 12.1398 8.2792 11.9285 8.283C11.6332 8.283 11.3623 8.4534 11.1158 8.7942C10.8912 9.10609 10.6538 9.26202 10.4038 9.26198C10.1756 9.26198 9.98487 9.18456 9.83177 9.02971C9.67866 8.87486 9.60214 8.68151 9.60214 8.44966C9.60214 8.09286 9.72588 7.77453 9.97337 7.49467C10.2209 7.21482 10.5327 6.99979 10.9089 6.8496C11.2851 6.6992 11.6482 6.62399 11.9981 6.62399C12.3279 6.62307 12.6555 6.67683 12.9677 6.7831C13.2734 6.88627 13.5584 7.04278 13.8095 7.24536C14.0566 7.44374 14.258 7.69325 14.3996 7.97678C14.5445 8.2695 14.6182 8.59233 14.6145 8.91893C14.6145 9.50266 14.4501 9.98894 14.1215 10.3778ZM19.8 7.8C19.7992 9.32567 18.838 10.6856 17.4 11.1954V5.4H19.8V7.8Z" fill="currentColor"/>
</svg>
