<svg width="24" height="24" viewBox="0 0 24 24" fill="currentColor" xmlns="http://www.w3.org/2000/svg">
<path fill-rule="evenodd" clip-rule="evenodd" d="M18.3886 10.2067L12.4829 16.0973C12.2951 16.2847 11.9909 16.2845 11.8033 16.0969L10.1523 14.4459C9.93428 14.2279 9.6385 14.1054 9.33012 14.1055C9.02174 14.1056 8.72605 14.2283 8.50813 14.4465C8.05495 14.9003 8.05536 15.6355 8.50905 16.0888L11.4001 18.9784C11.8537 19.4317 12.5887 19.432 13.0426 18.9791L19.2538 12.7778C19.7233 12.3091 19.7245 11.5488 19.2565 11.0786L18.3886 10.2067ZM12.2033 6.2344C15.4609 6.2344 18.3961 7.61531 20.4566 9.82396C20.6644 10.0453 20.9531 10.1729 21.2567 10.1775C21.5603 10.182 21.8528 10.0632 22.0672 9.84825C22.4956 9.4194 22.5063 8.7279 22.0912 8.28609C19.6195 5.6483 16.104 4 12.2033 4C8.29636 4 4.77589 5.6536 2.30358 8.29864C1.88937 8.74057 1.90035 9.43139 2.3284 9.85994C2.54298 10.0751 2.83574 10.1939 3.13959 10.1891C3.44343 10.1844 3.73232 10.0564 3.94005 9.83464C6.00105 7.61975 8.9404 6.2344 12.2033 6.2344ZM12.2033 7.94972C9.45542 7.9466 6.83871 9.12442 5.01909 11.1835C4.6588 11.5923 4.67887 12.2109 5.0649 12.5955C5.26743 12.7981 5.54498 12.9075 5.83126 12.8975C6.11753 12.8876 6.38683 12.7593 6.57484 12.5431C7.86306 11.0602 9.81441 10.2067 12.2033 10.2067C13.4408 10.2067 14.5606 10.436 15.5319 10.863L17.1023 9.29318C15.6205 8.41132 13.9276 7.94709 12.2033 7.94972Z" fill="currentColor"/>
</svg>
