<svg width="24" height="24" viewBox="0 0 24 24" fill="currentColor" xmlns="http://www.w3.org/2000/svg">
<path fill-rule="evenodd" clip-rule="evenodd" d="M14.0981 3.19021L9.90323 7.38512C10.9187 7.24076 11.9543 7.3612 12.9096 7.73478L15.7762 4.86827C16.703 3.94149 18.2056 3.94149 19.1324 4.86827C20.0591 5.79504 20.0591 7.29763 19.1324 8.2244L14.9372 12.4196C14.0104 13.3464 12.5078 13.3464 11.581 12.4196C11.2817 12.1177 10.8438 11.999 10.433 12.1085C10.0222 12.2179 9.7013 12.5388 9.59185 12.9496C9.4824 13.3604 9.60108 13.7983 9.90297 14.0977C11.7565 15.9512 14.7617 15.9512 16.6152 14.0977L20.8104 9.90246C22.664 8.04891 22.664 5.04373 20.8104 3.19019C18.9569 1.33667 15.9517 1.33667 14.0981 3.19021ZM9.90294 20.8099L14.0979 16.615C13.0824 16.7594 12.0467 16.6389 11.0914 16.2653L8.22482 19.1318C7.29666 20.0505 5.80073 20.0466 4.87734 19.1232C3.95395 18.1998 3.95013 16.7038 4.86878 15.7757L9.06398 11.5805C9.99076 10.6538 11.4933 10.6538 12.4201 11.5805C12.7196 11.8815 13.1571 11.9995 13.5674 11.89C13.9776 11.7804 14.2981 11.46 14.4076 11.0497C14.5172 10.6395 14.3991 10.202 14.0981 9.90246C12.2446 8.04894 9.23944 8.04894 7.3859 9.90246L3.1907 14.0977C1.33715 15.9512 1.33715 18.9564 3.1907 20.8099C5.04426 22.6634 8.0494 22.6635 9.90294 20.8099Z" fill="currentColor"/>
</svg>
