<svg width="24" height="24" viewBox="0 0 24 24" fill="currentColor" xmlns="http://www.w3.org/2000/svg">
<path fill-rule="evenodd" clip-rule="evenodd" d="M19.8984 12.012C19.8984 9.35301 22.8 11.3649 21.4492 8.10314C20.0975 4.84132 19.4688 8.3152 17.5886 6.43514C15.7085 4.55507 19.183 3.92615 15.9213 2.57512C12.6588 1.22404 14.6706 4.12516 12.0124 4.12516C9.35336 4.12516 11.3653 1.22404 8.10354 2.5751C4.84179 3.92615 8.3157 4.55483 6.43554 6.43511C4.55538 8.31539 3.92675 4.84127 2.57581 8.10311C1.22399 11.3649 4.12578 9.35296 4.12578 12.012C4.12578 14.6711 1.22399 12.6592 2.57571 15.9209C3.92665 19.1829 4.55538 15.709 6.43544 17.5883C8.3157 19.4685 4.84184 20.0981 8.10344 21.4491C11.365 22.8 9.35327 19.8989 12.0123 19.8989C14.6705 19.8989 12.6587 22.8 15.9211 21.4491C19.1827 20.0981 15.7083 19.4685 17.5885 17.5883C19.4686 15.7091 20.0973 19.1829 21.449 15.9209C22.8 12.6592 19.8984 14.6712 19.8984 12.012ZM13.2072 16.436C13.156 16.4417 13.1043 16.4417 13.0532 16.436C10.9371 16.4 9.14278 14.8707 8.77199 12.787H7.91574C7.52589 12.7852 7.21048 12.4688 7.20931 12.0789C7.20814 11.6891 7.52164 11.3713 7.91147 11.3671L8.75039 11.3667C9.06644 9.22915 10.8801 7.63247 13.0404 7.58983C13.0993 7.58176 13.159 7.58176 13.2178 7.58983C13.5839 7.63521 13.8558 7.95079 13.8467 8.31951C13.8375 8.68823 13.5502 8.98989 13.1823 9.01701C13.1646 9.01831 13.147 9.01967 13.1289 9.01967C13.1109 9.01967 13.0929 9.01831 13.075 9.01694C11.4322 9.04764 10.1206 10.3954 10.1345 12.0384C10.1484 13.6814 11.4827 15.0068 13.1258 15.0097C13.1271 15.0097 13.1284 15.0095 13.1298 15.0095C13.1312 15.0095 13.1318 15.0097 13.1327 15.0097C13.5124 15.0109 13.8249 15.3085 13.8447 15.6876C13.8645 16.0667 13.5846 16.3952 13.2072 16.436ZM16.113 12.7866L15.1814 12.787C14.7992 13.7434 13.7841 14.2859 12.7766 14.0722C11.769 13.8584 11.0616 12.9506 11.1005 11.9214C11.1395 10.8922 11.9135 10.0404 12.9343 9.90343C13.9551 9.76649 14.9263 10.3841 15.2352 11.3667H16.1088C16.4986 11.3685 16.814 11.6849 16.8152 12.0748C16.8163 12.4646 16.5028 12.7824 16.113 12.7866Z" fill="currentColor"/>
</svg>
