<svg width="24" height="24" viewBox="0 0 24 24" fill="currentColor" xmlns="http://www.w3.org/2000/svg">
<path fill-rule="evenodd" clip-rule="evenodd" d="M12 2.95215C11.045 2.9524 10.1292 3.33202 9.45402 4.00751C8.77889 4.683 8.39974 5.59901 8.4 6.55404H15.6C15.6003 5.59901 15.2211 4.683 14.546 4.00751C13.8708 3.33202 12.955 2.9524 12 2.95215ZM20.1 11.3565H17.4V8.4278L19.5375 6.2892C19.8875 5.93688 19.8875 5.36809 19.5375 5.01576C19.1855 4.66561 18.6167 4.66561 18.2647 5.01576L16.1272 7.15438H7.87279L5.7353 5.01576C5.38329 4.66561 4.81453 4.66561 4.46251 5.01576C4.11249 5.36809 4.11249 5.93688 4.46251 6.2892L6.6 8.4278V11.3565H3.9C3.40344 11.3581 3.00136 11.7604 3 12.2569C3.00132 12.7535 3.40341 13.1558 3.9 13.1574H6.63336C6.70139 13.7755 6.87631 14.3771 7.1503 14.9353L4.46251 17.6245C4.11249 17.9768 4.11249 18.5456 4.46251 18.8979C4.81453 19.2481 5.38329 19.2481 5.7353 18.8979L8.21846 16.4135C9.07918 17.2605 10.1998 17.7934 11.4 17.9266V9.5556C11.4 9.22423 11.6686 8.9556 12 8.9556C12.3314 8.9556 12.6 9.22423 12.6 9.5556V17.9266C13.8002 17.7934 14.9208 17.2605 15.7815 16.4135L18.2647 18.8979C18.6167 19.2481 19.1855 19.2481 19.5375 18.8979C19.8875 18.5456 19.8875 17.9768 19.5375 17.6245L16.8497 14.9353C17.1237 14.3771 17.2986 13.7756 17.3666 13.1575H20.1C20.5966 13.1559 20.9987 12.7536 21 12.2569C20.9986 11.7604 20.5966 11.3581 20.1 11.3565Z" fill="currentColor"/>
</svg>
