<svg width="24" height="24" viewBox="0 0 24 24" fill="currentColor" xmlns="http://www.w3.org/2000/svg">
<path fill-rule="evenodd" clip-rule="evenodd" d="M17.1059 9.33263L11.4855 16.429C11.4855 16.429 10.8433 17.308 9.937 16.36C9.1191 15.5048 6.85472 12.8044 6.85472 12.8044C6.85472 12.8044 6.33894 12.1488 7.10572 11.4242C7.75261 10.813 8.2491 11.0616 8.40284 11.215C8.65412 11.4657 10.2718 13.097 10.2718 13.097C10.2718 13.097 10.4669 13.2922 10.7596 12.9716L15.6971 8.03624C15.6971 8.03624 16.2974 7.47803 16.9667 8.07767C17.6586 8.69737 17.1059 9.33263 17.1059 9.33263ZM12 4.19997C15.9889 4.20674 19.3244 7.23363 19.7172 11.2032C20.11 15.1728 17.4324 18.7946 13.5222 19.583C9.61191 20.3714 5.74005 18.0701 4.56398 14.2584C3.38791 10.4468 5.28993 6.3639 8.96461 4.81199C9.92492 4.40585 10.9573 4.1977 12 4.19997ZM12 1.79999C6.36668 1.79999 1.79999 6.36668 1.79999 12C1.79999 17.6333 6.36668 22.2 12 22.2C17.6333 22.2 22.2 17.6333 22.2 12C22.2 6.36668 17.6333 1.79999 12 1.79999Z" fill="currentColor"/>
</svg>
