<svg width="24" height="24" viewBox="0 0 24 24" fill="currentColor" xmlns="http://www.w3.org/2000/svg">
<path fill-rule="evenodd" clip-rule="evenodd" d="M19.5114 19.7869C18.3348 17.8604 15.3564 12.8305 14.7232 11.6037H8.8968C8.31778 12.7419 5.26767 17.8421 4.07991 19.7869C3.86367 20.141 4.11176 20.6006 4.51887 20.6006H19.0725C19.4796 20.6006 19.7277 20.141 19.5114 19.7869ZM14.794 10.3189C14.794 9.69879 14.3042 9.19611 13.7001 9.19611H12.995V7.99794C12.9941 7.66712 12.7261 7.39915 12.3953 7.39815H12.3926V2H11.2273V7.39815H11.196C10.8652 7.39915 10.5973 7.66712 10.5963 7.99794V9.19606H9.89129C9.28712 9.19606 8.79732 9.69874 8.79732 10.3188V10.9969H14.794V10.3189ZM12.0383 22.4C12.8007 22.3999 13.4803 21.9193 13.7345 21.2004H10.3421C10.5962 21.9193 11.2758 22.3999 12.0383 22.4Z" fill="currentColor"/>
</svg>
