<svg width="24" height="24" viewBox="0 0 24 24" fill="currentColor" xmlns="http://www.w3.org/2000/svg">
<path fill-rule="evenodd" clip-rule="evenodd" d="M22.2148 15.8906C22.2148 16.0497 22.1516 16.2024 22.039 16.3149C21.9264 16.4274 21.7738 16.4904 21.6146 16.4904H2.40904C2.07783 16.4904 1.80933 16.2219 1.80933 15.8907C1.80933 15.5595 2.07783 15.291 2.40904 15.291H5.21977C5.082 14.9009 4.97841 14.4996 4.91017 14.0916C4.90609 14.0671 4.90177 14.0429 4.89793 14.0184C4.89433 13.9951 4.89073 13.9721 4.88737 13.9488C4.88642 13.9443 4.8857 13.9397 4.88521 13.9351C4.87873 13.8893 4.87249 13.8433 4.86647 13.7969C4.86335 13.7722 4.86047 13.7475 4.85759 13.7228C4.85471 13.6981 4.85207 13.6732 4.84943 13.6484C4.84415 13.5985 4.83959 13.5488 4.83527 13.4987C4.83407 13.4879 4.83335 13.4771 4.83263 13.4661C4.83071 13.4447 4.82927 13.4231 4.82783 13.4015C4.82615 13.3817 4.82495 13.3615 4.82375 13.3411C4.82231 13.3183 4.82111 13.2955 4.81991 13.2727C4.81703 13.2195 4.81479 13.1661 4.81319 13.1127C4.81271 13.0931 4.81199 13.0734 4.81175 13.0537C4.81151 13.0458 4.81127 13.0377 4.81127 13.0295C4.81079 13.0119 4.81055 12.9944 4.81055 12.977C4.81007 12.9489 4.80983 12.9203 4.80983 12.892C4.80983 8.91737 8.03421 5.69546 12.0119 5.69546C15.9896 5.69546 19.2139 8.91734 19.2139 12.892C19.2139 12.9203 19.2137 12.9489 19.2132 12.9769C19.2132 12.9944 19.213 13.0119 19.2125 13.0295C19.2125 13.0376 19.2122 13.0458 19.212 13.0537C19.2118 13.0734 19.211 13.093 19.2106 13.1127C19.2089 13.1662 19.2066 13.2195 19.2038 13.2727C19.2026 13.2955 19.2014 13.3183 19.2 13.3411C19.1988 13.3615 19.1976 13.3816 19.1959 13.4015C19.1945 13.4231 19.193 13.4447 19.1911 13.4661C19.1904 13.4771 19.1897 13.4879 19.1885 13.4987C19.1842 13.5488 19.1796 13.5985 19.1743 13.6484C19.1717 13.6731 19.169 13.698 19.1662 13.7228C19.1633 13.7475 19.1604 13.7722 19.1573 13.7969C19.1513 13.8432 19.145 13.8893 19.1386 13.9351C19.1381 13.9397 19.1373 13.9443 19.1364 13.9488C19.133 13.972 19.1294 13.9951 19.1258 14.0184C19.122 14.0429 19.1179 14.0671 19.1138 14.0915C19.0456 14.4996 18.9417 14.9009 18.8039 15.291H21.6146C21.9459 15.2909 22.2146 15.5593 22.2148 15.8906ZM18.6137 18.2895C18.6137 18.4486 18.5504 18.6012 18.4379 18.7136C18.3253 18.8261 18.1727 18.8893 18.0136 18.8892H6.01007C5.67886 18.8892 5.41036 18.6207 5.41036 18.2895C5.41036 17.9582 5.67886 17.6897 6.01007 17.6897H18.0136C18.1727 17.6897 18.3253 17.7528 18.4379 17.8653C18.5505 17.9777 18.6137 18.1303 18.6137 18.2895ZM15.6129 20.6883C15.6129 20.8474 15.5496 21 15.437 21.1125C15.3245 21.225 15.1718 21.2881 15.0127 21.288H9.01096C8.79579 21.2894 8.59639 21.1754 8.48841 20.9893C8.38043 20.8031 8.38043 20.5735 8.48841 20.3873C8.59639 20.2012 8.79579 20.0872 9.01096 20.0886H15.0127C15.1718 20.0885 15.3245 20.1516 15.437 20.2641C15.5496 20.3766 15.6129 20.5292 15.6129 20.6883ZM8.49985 4.95897C8.19365 5.08576 7.84262 4.9405 7.71553 4.63442L7.25627 3.52615C7.12955 3.21996 7.27503 2.86902 7.58122 2.7423C7.8874 2.61557 8.23835 2.76106 8.36507 3.06724L8.82474 4.17552C8.88558 4.32249 8.88552 4.48761 8.82459 4.63455C8.76366 4.78148 8.64685 4.89818 8.49985 4.95897ZM4.07274 9.38272C3.94577 9.68878 3.5948 9.83406 3.28866 9.70728L2.17962 9.24813C1.98169 9.16605 1.84258 8.98462 1.8147 8.77216C1.78682 8.55971 1.87439 8.34852 2.04444 8.21815C2.21449 8.08777 2.44117 8.05802 2.6391 8.1401L3.7407 8.5961L3.7479 8.59898C3.89492 8.65982 4.01175 8.77658 4.07267 8.92356C4.13359 9.07055 4.13362 9.23572 4.07274 9.38272ZM21.8441 9.24813L20.7353 9.70728C20.5372 9.79013 20.3099 9.76075 20.1394 9.63025C19.9688 9.49975 19.881 9.28803 19.9092 9.07514C19.9374 8.86224 20.0772 8.68065 20.2758 8.599L21.385 8.1401C21.5833 8.05632 21.8112 8.08522 21.9823 8.21584C22.1534 8.34645 22.2414 8.55874 22.2128 8.77209C22.1843 8.98544 22.0436 9.16712 21.8441 9.24813ZM16.771 3.52615L16.3115 4.63442C16.1847 4.94061 15.8337 5.08604 15.5275 4.95925C15.2213 4.83246 15.0759 4.48146 15.2027 4.17528L15.6618 3.06722C15.7891 2.7618 16.1396 2.61699 16.4453 2.7435C16.751 2.87 16.8967 3.22009 16.771 3.52615ZM4.90975 13.6484C4.88675 13.5985 4.86775 13.5486 4.85075 13.4987C4.86875 13.5488 4.88775 13.5984 4.90975 13.6484ZM19.2489 13.4987C19.2319 13.5486 19.2129 13.5985 19.1899 13.6484C19.2119 13.5984 19.2309 13.5488 19.2489 13.4987Z" fill="currentColor"/>
</svg>
