<svg width="24" height="24" viewBox="0 0 24 24" fill="currentColor" xmlns="http://www.w3.org/2000/svg">
<path fill-rule="evenodd" clip-rule="evenodd" d="M6.73157 13.495H5.79869C5.79883 13.4878 5.79924 13.4809 5.79924 13.4738C5.79689 12.9239 5.34989 12.4797 4.80002 12.4808V11.5541C5.86694 11.5541 6.73183 12.4136 6.73183 13.4738C6.73183 13.4808 6.73164 13.488 6.73157 13.495ZM8.46353 13.495H7.53094C7.53094 13.4878 7.5312 13.4808 7.5312 13.4738C7.5328 12.7527 7.24455 12.0612 6.73126 11.5547C6.2188 11.0435 5.52385 10.7574 4.80002 10.7598V9.83308C6.82346 9.83308 8.46379 11.4631 8.46379 13.4738C8.46379 13.4808 8.46355 13.488 8.46353 13.495ZM10.1956 13.495H9.2629C9.2629 13.4878 9.26316 13.4808 9.26316 13.4738C9.2644 12.2957 8.79362 11.1662 7.95602 10.3377C7.11783 9.50346 5.98263 9.03622 4.80002 9.03872V8.11201C7.78001 8.11201 10.1958 10.5125 10.1958 13.4738C10.1958 13.4808 10.1957 13.488 10.1956 13.495ZM16.8 19.512H13.8V17.712H10.2V19.512H7.20002C6.86865 19.512 6.60002 19.7806 6.60002 20.112V20.712H17.4V20.112C17.4 19.7806 17.1314 19.512 16.8 19.512ZM20.4 3.31201H3.60002C2.93728 3.31201 2.40002 3.84927 2.40002 4.51201V15.912C2.40002 16.5748 2.93728 17.112 3.60002 17.112H20.4C21.0628 17.112 21.6 16.5748 21.6 15.912V4.51201C21.6 3.84927 21.0628 3.31201 20.4 3.31201ZM11.976 16.488C11.6447 16.488 11.376 16.2194 11.376 15.888C11.376 15.5566 11.6447 15.288 11.976 15.288C12.3074 15.288 12.576 15.5566 12.576 15.888C12.576 16.2194 12.3074 16.488 11.976 16.488ZM20.4 14.712H3.60002V4.53601H20.4V14.712ZM15.3 6.31201C13.4775 6.31201 12 7.78947 12 9.61201C12 11.4346 13.4775 12.912 15.3 12.912C17.1226 12.912 18.6 11.4346 18.6 9.61201C18.6 7.78947 17.1226 6.31201 15.3 6.31201ZM17.5858 8.29232L15.3 9.61201V6.97201C16.243 6.97258 17.1142 7.47578 17.5858 8.29232Z" fill="currentColor"/>
</svg>
