<svg width="24" height="24" viewBox="0 0 24 24" fill="currentColor" xmlns="http://www.w3.org/2000/svg">
<path fill-rule="evenodd" clip-rule="evenodd" d="M13.3174 7.42319C13.1553 7.42319 13.009 7.52087 12.947 7.67071C12.8849 7.82054 12.9192 7.99301 13.0339 8.10769C13.1486 8.22237 13.3211 8.25667 13.4709 8.19459C13.6207 8.13251 13.7184 7.98629 13.7184 7.82411C13.7184 7.60268 13.5389 7.42319 13.3174 7.42319ZM12 1.79999C6.36668 1.79999 1.79999 6.36668 1.79999 12C1.79999 17.6333 6.36668 22.2 12 22.2C17.6333 22.2 22.2 17.6333 22.2 12C22.2 6.36668 17.6333 1.79999 12 1.79999ZM7.60165 13.7887C7.60165 14.2456 7.23685 14.616 6.78716 14.616C6.33748 14.616 6.0434 14.2456 6.0434 13.7887V10.5559C6.0434 10.0991 6.33738 9.7288 6.78716 9.7288C7.23695 9.7288 7.60165 10.0991 7.60165 10.5559V13.7887ZM10.0206 6.69359L9.35113 5.72159C9.32259 5.68822 9.31556 5.6415 9.33303 5.60122C9.3505 5.56093 9.38941 5.53413 9.43328 5.53217C9.47715 5.53021 9.51829 5.55342 9.53929 5.59199L10.2346 6.60145C11.2022 6.22654 12.2748 6.22654 13.2423 6.60145L13.9378 5.59199C13.9588 5.55341 13.9999 5.53019 14.0438 5.53215C14.0877 5.53411 14.1266 5.56092 14.144 5.60122C14.1615 5.64151 14.1545 5.68824 14.1259 5.72159L13.4564 6.69359C14.5207 7.18873 15.2672 8.16491 15.3622 9.26303H8.1148C8.20979 8.16479 8.95624 7.18861 10.0206 6.69359ZM15.3784 15.66C15.3784 16.0108 15.0596 16.2946 14.7088 16.2946H13.9831V18.0931C13.9831 18.55 13.6528 18.9209 13.2031 18.9209C12.7534 18.9209 12.4248 18.5506 12.4248 18.0936V16.2951L11.0891 16.2945V18.0931C11.0891 18.55 10.756 18.9209 10.3062 18.9209C9.85633 18.9209 9.53084 18.5506 9.53084 18.0936V16.2951H8.76611C8.41533 16.2951 8.13092 16.0108 8.13092 15.66V9.78239H15.3784V15.66ZM17.3965 13.7888C17.3965 14.2456 17.1006 14.616 16.6507 14.616C16.2008 14.616 15.8382 14.2456 15.8382 13.7888V10.556C15.8382 10.0992 16.2009 9.72882 16.6507 9.72882C17.1005 9.72882 17.3965 10.0992 17.3965 10.556V13.7888ZM10.2096 7.42319C9.98815 7.4232 9.80864 7.60272 9.80864 7.82416C9.80864 8.04561 9.98816 8.22512 10.2096 8.22512C10.431 8.22512 10.6106 8.04562 10.6106 7.82418C10.6106 7.60273 10.431 7.42321 10.2096 7.42319Z" fill="currentColor"/>
</svg>
