<svg width="24" height="24" viewBox="0 0 24 24" fill="currentColor" xmlns="http://www.w3.org/2000/svg">
<path fill-rule="evenodd" clip-rule="evenodd" d="M19.6192 13.1236L17.928 10.7322V9.06001H17.9234C17.7968 5.39358 14.7853 2.46001 11.088 2.46001C7.3104 2.46001 4.24799 5.52241 4.24799 9.30001C4.24581 10.7087 4.68069 12.0835 5.49267 13.2347C5.78069 13.8978 5.92888 14.6132 5.928 15.3362C5.928 15.3962 5.92663 15.456 5.92464 15.5156H5.928V20.34C5.928 21.0028 6.46526 21.54 7.128 21.54H13.848V18.54H16.728C17.3907 18.54 17.928 18.0027 17.928 17.34V14.1H19.152C19.383 14.1 19.5934 13.9673 19.6931 13.759C19.7928 13.5506 19.7641 13.3035 19.6192 13.1236ZM16.2704 8.11582C16.2701 8.81847 15.9172 9.47407 15.331 9.8614C14.7447 10.2487 14.0033 10.3161 13.3568 10.0408C12.4953 9.7913 11.5706 10.1183 11.0574 10.8538L11.0564 10.8532C10.4094 11.9273 9.14512 12.4636 7.92321 12.1822C6.70131 11.9008 5.79887 10.8657 5.68675 9.61681C5.65152 9.36061 5.63437 9.10225 5.6354 8.84365C5.6354 8.60848 5.65891 8.37389 5.70583 8.14345C6.11362 6.02233 7.78697 4.32173 9.89897 3.92425C10.3031 3.82821 10.7172 3.77981 11.1326 3.78005C13.3011 3.78005 15.1684 5.08052 16.0099 6.95045C16.0472 7.02812 16.0808 7.10782 16.1107 7.18957C16.211 7.46626 16.2646 7.75772 16.2694 8.05201C16.2696 8.06086 16.2698 8.06977 16.2699 8.07867C16.2699 8.08587 16.2704 8.09288 16.2704 8.10005C16.2704 8.10245 16.2704 8.10466 16.2704 8.10699C16.2704 8.10992 16.2704 8.11285 16.2704 8.11582Z" fill="currentColor"/>
</svg>
