<svg width="24" height="24" viewBox="0 0 24 24" fill="currentColor" xmlns="http://www.w3.org/2000/svg">
<path fill-rule="evenodd" clip-rule="evenodd" d="M8.70337 19.2066C8.40422 19.1706 8.10751 19.1167 7.81482 19.0451L7.34589 18.9331C7.25535 18.9115 7.1915 18.8305 7.19152 18.7375V15.2813H6.58929V18.7392C6.58931 18.8315 6.52651 18.912 6.43698 18.9344L6.1222 19.0131C5.78626 19.099 5.44542 19.1644 5.10155 19.2089C4.91977 19.2315 4.78266 19.2988 4.78266 19.4988V19.8H8.99817V19.4988C8.99817 19.2913 8.8785 19.2267 8.70337 19.2066ZM9.07969 12.461H21L19.2283 5.65117C19.1811 5.46992 19.1374 5.28774 19.0989 5.10445C18.9893 4.58332 18.5209 4.20001 17.9687 4.20001H12.0715C11.5144 4.20001 11.0426 4.59011 10.9384 5.11828C10.9012 5.30675 10.8544 5.49318 10.807 5.67935L9.07969 12.461ZM9.07969 13.061C8.89451 13.0609 8.71974 12.9753 8.60613 12.829C8.49253 12.6828 8.45283 12.4923 8.49856 12.3128L9.17776 9.64614C9.06595 9.58588 8.9409 9.55441 8.81389 9.55454H4.94089C4.58077 9.55239 4.26924 9.80486 4.19675 10.1576C4.17232 10.2814 4.14155 10.4038 4.11035 10.5261L2.97601 14.98H10.8048L10.3056 13.061H9.07969ZM17.8003 18.8964C17.3448 18.8417 16.8931 18.7596 16.4474 18.6507L15.7334 18.48C15.5955 18.4471 15.4983 18.3238 15.4983 18.1821V12.9197H14.5814V18.1848C14.5814 18.3253 14.4858 18.4478 14.3495 18.482L13.8702 18.602C13.3587 18.7327 12.8397 18.8322 12.3161 18.9C12.0393 18.9344 11.8305 19.0368 11.8305 19.3413V19.8H18.2492V19.3413C18.2492 19.0255 18.067 18.9271 17.8003 18.8964Z" fill="currentColor"/>
</svg>
