<svg width="24" height="24" viewBox="0 0 24 24" fill="currentColor" xmlns="http://www.w3.org/2000/svg">
<path fill-rule="evenodd" clip-rule="evenodd" d="M22.1986 11.9827C22.1986 12.4798 21.7956 12.8827 21.2986 12.8827H19.3498L21.3492 14.8822C21.6452 15.1832 21.6433 15.6665 21.3448 15.965C21.0463 16.2636 20.5629 16.2656 20.2619 15.9696L17.175 12.8827H13.5644L15.3886 16.0425L19.5727 17.1636C19.8381 17.2347 20.0453 17.442 20.1164 17.7073C20.1875 17.9727 20.1116 18.2558 19.9174 18.45C19.7231 18.6443 19.44 18.7201 19.1747 18.649L16.476 17.9259L17.4384 19.5928C17.6869 20.0233 17.5394 20.5737 17.109 20.8222C16.6785 21.0707 16.1281 20.9233 15.8795 20.4928L14.9051 18.8052L14.1733 21.5364C14.0618 21.9446 13.6413 22.1861 13.2325 22.0765C12.8237 21.967 12.5803 21.5477 12.6879 21.1383L13.8177 16.9215L11.9925 13.7603L10.1613 16.932L11.2912 21.1488C11.3623 21.4142 11.2864 21.6973 11.0922 21.8915C10.8979 22.0858 10.6148 22.1616 10.3495 22.0905C10.0841 22.0194 9.87687 21.8122 9.80577 21.5468L9.07377 18.8154L8.11137 20.4823C7.95139 20.7623 7.65379 20.9353 7.33127 20.9358C7.00875 20.9363 6.71063 20.7642 6.54979 20.4846C6.38896 20.2051 6.39001 19.8608 6.55255 19.5823L7.50295 17.9362L4.80456 18.6593C4.39437 18.7692 3.97274 18.5258 3.86282 18.1156C3.75291 17.7054 3.99633 17.2838 4.40652 17.1739L8.59046 16.0528L10.4208 12.8827H6.79814L3.71119 15.9697C3.51694 16.164 3.23381 16.2398 2.96845 16.1687C2.7031 16.0976 2.49583 15.8904 2.42473 15.625C2.35363 15.3597 2.4295 15.0765 2.62375 14.8823L4.62329 12.8827H2.69848C2.20143 12.8827 1.79848 12.4798 1.79848 11.9827C1.79848 11.4857 2.20143 11.0827 2.69848 11.0827H4.59928L2.62387 9.10733C2.32596 8.80665 2.32708 8.32173 2.62638 8.02242C2.92567 7.72311 3.41059 7.72198 3.71128 8.01989L6.77414 11.0827H10.4467L8.62934 7.93503L4.41254 6.80513C4.146 6.73508 3.93734 6.52774 3.86558 6.26165C3.79383 5.99557 3.86996 5.71143 4.06514 5.51687C4.26032 5.32231 4.5447 5.24708 4.81056 5.31968L7.54197 6.05167L6.57957 4.38483C6.41774 4.1063 6.4171 3.76252 6.5779 3.4834C6.73871 3.20428 7.03643 3.03238 7.35856 3.03267C7.68068 3.03296 7.9781 3.20539 8.1384 3.4848L9.0888 5.13087L9.81187 2.43238C9.92178 2.02219 10.3434 1.77877 10.7536 1.88868C11.1638 1.9986 11.4072 2.42023 11.2973 2.83042L10.1762 7.01424L11.9925 10.1603L13.8029 7.02459L12.6818 2.8405C12.6093 2.57468 12.6845 2.29037 12.8791 2.09523C13.0736 1.9001 13.3577 1.82398 13.6237 1.8957C13.8898 1.96742 14.0971 2.17601 14.1672 2.44248L14.8903 5.14111L15.8527 3.47427C16.0127 3.19422 16.3103 3.02119 16.6328 3.0207C16.9553 3.02021 17.2535 3.19234 17.4143 3.4719C17.5751 3.75145 17.5741 4.0957 17.4115 4.37427L16.4371 6.0619L19.1683 5.33007C19.5785 5.22015 20.0002 5.46357 20.1101 5.87376C20.22 6.28395 19.9766 6.70558 19.5664 6.8155L15.3496 7.94537L13.5384 11.0827H17.199L20.262 8.01979C20.5623 7.71951 21.0491 7.71951 21.3494 8.01979C21.6497 8.32008 21.6497 8.80693 21.3494 9.10721L19.3739 11.0827H21.2987C21.7957 11.0828 22.1986 11.4857 22.1986 11.9827Z" fill="currentColor"/>
</svg>
