<svg width="24" height="24" viewBox="0 0 24 24" fill="currentColor" xmlns="http://www.w3.org/2000/svg">
<path fill-rule="evenodd" clip-rule="evenodd" d="M10.5708 9.27048H6.36744C5.85673 9.27048 5.44272 9.68449 5.4427 10.1952C5.44269 10.4405 5.54011 10.6757 5.71354 10.8491C5.88696 11.0225 6.12218 11.12 6.36744 11.12H8.33832L5.12506 14.3333C4.76391 14.6945 4.76391 15.28 5.12504 15.6411C5.48618 16.0023 6.0717 16.0023 6.43284 15.6411L9.64608 12.4278V14.3988C9.64609 14.9095 10.0601 15.3235 10.5708 15.3235C11.0816 15.3235 11.4956 14.9095 11.4956 14.3988V10.1952C11.4956 9.68449 11.0816 9.27048 10.5708 9.27048ZM18.8748 8.95286C18.7014 8.77944 18.4662 8.682 18.221 8.682C17.9757 8.682 17.7405 8.77944 17.5671 8.95286L14.3539 12.1662V10.1952C14.3539 9.68447 13.9399 9.27044 13.4292 9.27043C12.9184 9.27044 12.5044 9.68447 12.5044 10.1952V14.3988C12.5044 14.9095 12.9184 15.3235 13.4292 15.3235H17.6326C18.1433 15.3235 18.5573 14.9095 18.5573 14.3988C18.5573 14.1535 18.4599 13.9183 18.2865 13.7448C18.113 13.5714 17.8778 13.474 17.6326 13.474H15.6617L18.8749 10.2607C19.2361 9.89952 19.236 9.31401 18.8748 8.95286ZM19.8 18.6C19.7981 19.2619 19.2619 19.7981 18.6 19.8H17.4C17.0686 19.8 16.8 20.0686 16.8 20.4C16.8 20.7314 17.0686 21 17.4 21H18.6099C19.9245 21 21 19.9245 21 18.6099V17.4C21 17.0686 20.7314 16.8 20.4 16.8C20.0686 16.8 19.8 17.0686 19.8 17.4V18.6ZM18.6 4.2C19.2619 4.20194 19.7981 4.73806 19.8 5.4V6.6C19.8 6.93137 20.0686 7.2 20.4 7.2C20.7314 7.2 21 6.93137 21 6.6V5.39006C21 4.07554 19.9245 3 18.6099 3H17.4C17.0686 3 16.8 3.26863 16.8 3.6C16.8 3.93137 17.0686 4.2 17.4 4.2H18.6ZM5.4 19.8C4.73806 19.7981 4.20194 19.2619 4.2 18.6V17.4C4.2 17.0686 3.93137 16.8 3.6 16.8C3.26863 16.8 3 17.0686 3 17.4V18.6099C3 19.9245 4.07554 21 5.39006 21H6.6C6.93137 21 7.2 20.7314 7.2 20.4C7.2 20.0686 6.93137 19.8 6.6 19.8H5.4ZM4.2 5.4C4.20194 4.73806 4.73806 4.20194 5.4 4.2H6.6C6.93137 4.2 7.2 3.93137 7.2 3.6C7.2 3.26863 6.93137 3 6.6 3H5.39006C4.07554 3 3 4.07554 3 5.39006V6.6C3 6.93137 3.26863 7.2 3.6 7.2C3.93137 7.2 4.2 6.93137 4.2 6.6V5.4Z" fill="currentColor"/>
</svg>
