<svg width="24" height="24" viewBox="0 0 24 24" fill="currentColor" xmlns="http://www.w3.org/2000/svg">
<g clip-path="url(#clip0_97_1184)">
<path d="M3.62373 11.0465C3.5892 11.1717 3.64013 11.3049 3.74944 11.3751C4.86149 12.093 5.31877 13.4916 4.84559 14.7278C4.79884 14.8488 4.8362 14.9862 4.93782 15.0669C5.64053 15.6269 6.57373 15.8055 7.43356 15.5445C7.6309 15.4799 7.79477 15.3403 7.88864 15.155L10.5147 11.5423C10.6224 11.3855 10.6553 11.1892 10.6047 11.006C10.6015 10.995 10.598 10.9841 10.5943 10.9733C10.5262 10.7839 10.3737 10.6371 10.1819 10.5763L5.89797 9.20272C5.74733 9.12672 5.5727 9.11352 5.41235 9.16602C4.5377 9.45193 3.86552 10.1586 3.62373 11.0465ZM1.49191 11.6396C2.34101 11.3435 3.28484 11.5929 3.8769 12.2697C4.46897 12.9465 4.59057 13.9151 4.18418 14.7173C3.77779 15.5195 2.92488 15.9944 2.02894 15.9174C1.133 15.8404 0.373664 15.2268 0.110144 14.3671C-0.238059 13.2342 0.372549 12.029 1.49191 11.6396ZM8.93103 2.72967C8.80124 2.7355 8.69037 2.82515 8.6575 2.95084C8.31991 4.23042 7.13162 5.09819 5.81 5.03025C5.68048 5.0232 5.56145 5.10123 5.51626 5.22281C5.20122 6.06488 5.31983 7.00797 5.83356 7.74581C5.95587 7.91362 6.13923 8.0264 6.34438 8.05855L10.5893 9.44146C10.7715 9.49549 10.9682 9.46618 11.1268 9.36137C11.1362 9.35496 11.1455 9.3483 11.1546 9.3414C11.3136 9.21796 11.406 9.02745 11.4046 8.82614L11.3861 4.32437C11.4117 4.15751 11.3703 3.98727 11.2709 3.85084C10.7294 3.10702 9.84999 2.68563 8.93103 2.72967ZM7.70856 0.88396C8.25222 1.59988 8.30647 2.57428 7.84565 3.34614C7.38483 4.11799 6.50133 4.53252 5.61318 4.39361C4.72502 4.25469 4.01031 3.59018 3.80718 2.71447C3.60405 1.83877 3.95325 0.927478 4.68956 0.411754C5.65959 -0.266327 6.9919 -0.0579386 7.70856 0.88396ZM18.4749 5.21099C18.4293 5.08937 18.3098 5.01159 18.1802 5.01908C16.8589 5.0924 15.6671 4.22955 15.3243 2.95143C15.2911 2.82604 15.1801 2.73685 15.0505 2.73134C14.1527 2.69178 13.2929 3.09621 12.7508 3.81299C12.6292 3.98135 12.5786 4.19069 12.6115 4.39581L12.6088 8.86331C12.6137 9.05338 12.7024 9.23156 12.851 9.35014C12.86 9.35714 12.8692 9.3639 12.8786 9.37043C13.045 9.48362 13.2546 9.51274 13.4455 9.44917L17.718 8.04034C17.8845 8.01322 18.0336 7.92121 18.1324 7.78446C18.672 7.0388 18.8007 6.07183 18.4749 5.21099ZM19.8512 3.47711C19.3379 4.21475 18.4281 4.5668 17.552 4.36677C16.6759 4.16675 16.0091 3.45473 15.8668 2.56743C15.7246 1.68012 16.1354 0.795326 16.9051 0.331441C17.6747 -0.132443 18.649 -0.0824605 19.3671 0.457754C20.315 1.16978 20.5289 2.50445 19.8512 3.47711ZM19.0659 15.0613C19.1673 14.9802 19.2043 14.8426 19.1571 14.7215C18.6788 13.4873 19.1303 12.0868 20.2394 11.3643C20.3484 11.2939 20.3988 11.1607 20.3639 11.0358C20.1245 10.1694 19.4745 9.47609 18.6254 9.18125C18.4278 9.11749 18.2133 9.13409 18.0286 9.22869L13.7823 10.6068C13.6032 10.6703 13.4612 10.8097 13.3946 10.9878C13.3907 10.9985 13.3871 11.0093 13.3838 11.0203C13.3276 11.2136 13.3647 11.4221 13.4841 11.5842L16.1432 15.2153C16.2204 15.3654 16.3539 15.4788 16.5145 15.5306C17.3898 15.8139 18.3487 15.6375 19.0659 15.0613ZM21.1389 15.8355C20.2777 15.5762 19.6603 14.8197 19.5789 13.924C19.4976 13.0283 19.9685 12.1729 20.769 11.7628C21.5694 11.3526 22.5388 11.4698 23.2184 12.059C23.8979 12.6482 24.1514 13.5912 23.8588 14.4417C23.4734 15.5611 22.2727 16.1764 21.1389 15.8355ZM9.88735 18.6678C9.99571 18.7394 10.138 18.732 10.2385 18.6497C11.2636 17.8131 12.7349 17.8101 13.7634 18.6425C13.864 18.7243 14.0062 18.7312 14.1142 18.6595C14.8638 18.1633 15.3218 17.3305 15.3393 16.4317C15.3389 16.2239 15.2569 16.0249 15.1098 15.8782L12.488 12.2625C12.3724 12.1116 12.196 12.0196 12.0062 12.0111C11.9948 12.0108 11.9833 12.0107 11.9719 12.0109C11.7708 12.0172 11.5841 12.117 11.467 12.2807L8.83794 15.9336C8.71912 16.0536 8.65263 16.2157 8.653 16.3845C8.65422 17.3048 9.11798 18.1628 9.88735 18.6678ZM9.79229 20.8801C9.77414 19.9818 10.3033 19.1625 11.1296 18.8097C11.9559 18.4568 12.9136 18.6411 13.55 19.2754C14.1863 19.9096 14.3737 20.8668 14.0235 21.6942C13.6733 22.5216 12.8558 23.0535 11.9574 23.0382C10.7731 23.0176 9.8167 22.0644 9.79229 20.8801Z" fill="currentColor"/>
</g>
<defs>
<clipPath id="clip0_97_1184">
<rect width="24" height="24" fill="currentColor"/>
</clipPath>
</defs>
</svg>
