<svg width="24" height="24" viewBox="0 0 24 24" fill="currentColor" xmlns="http://www.w3.org/2000/svg">
<path fill-rule="evenodd" clip-rule="evenodd" d="M16.8095 5.39287C16.6459 5.38855 16.4874 5.45055 16.3702 5.56479C16.2537 5.67469 16.1892 5.82873 16.1926 5.98882C16.1884 6.15199 16.2528 6.30944 16.3702 6.42288C16.4887 6.53877 16.6209 6.59671 16.7667 6.59671H16.8174C16.8017 6.75684 16.7574 6.88689 16.6846 6.98686C16.6117 7.08683 16.5037 7.17818 16.3606 7.26091C16.259 7.31419 16.2082 7.40087 16.2082 7.52095C16.2047 7.59327 16.2292 7.66417 16.2766 7.71888C16.3222 7.76821 16.3879 7.79287 16.4736 7.79287C16.5674 7.79273 16.6736 7.75342 16.7921 7.67494C16.9198 7.58742 17.032 7.47921 17.124 7.35478C17.232 7.21075 17.3169 7.05089 17.3759 6.88087C17.4418 6.69468 17.4748 6.49844 17.4735 6.30094C17.4735 6.01556 17.411 5.79287 17.286 5.63287C17.161 5.47287 17.0022 5.39287 16.8095 5.39287ZM18.5282 5.40075C18.3656 5.39616 18.2077 5.45577 18.0887 5.56668C17.9712 5.67508 17.9065 5.82903 17.9111 5.98879C17.907 6.15198 17.9715 6.30942 18.0888 6.42286C18.2074 6.53875 18.3408 6.59669 18.4891 6.59669H18.5439C18.5334 6.75418 18.4878 6.88486 18.4071 6.98873C18.3171 7.10056 18.2055 7.19312 18.0789 7.26089C18.0013 7.30524 17.9473 7.38171 17.9314 7.46973C17.9156 7.55774 17.9395 7.64825 17.9969 7.71689C18.048 7.76924 18.1192 7.79694 18.1923 7.79287C18.3172 7.79287 18.4597 7.72554 18.6199 7.59087C18.7801 7.45619 18.9155 7.27355 19.0261 7.04292C19.1369 6.81134 19.1937 6.5576 19.1921 6.30087C19.1921 6.01287 19.1289 5.79082 19.0026 5.63472C18.8763 5.47863 18.7182 5.40063 18.5282 5.40075ZM19.801 2.99287H2.39429V15.5929C2.39429 16.0703 2.58402 16.5282 2.92164 16.8657C3.25926 17.2033 3.71715 17.3929 4.19458 17.3929H6.59373V20.9929L10.1955 17.3929H21.5919V4.79287C21.5931 4.3167 21.4051 3.85954 21.0693 3.52197C20.7334 3.1844 20.2772 2.99408 19.801 2.99287ZM4.69754 16.0191C4.57855 16.13 4.42068 16.1896 4.25808 16.185C4.06808 16.185 3.90993 16.107 3.78362 15.951C3.65732 15.795 3.59421 15.573 3.59429 15.2849C3.59267 15.0281 3.64945 14.7744 3.76032 14.5428C3.87098 14.3123 4.00635 14.1296 4.16645 13.9949C4.32654 13.8602 4.46906 13.7928 4.59401 13.7929C4.66704 13.7888 4.73826 13.8165 4.78937 13.8688C4.84669 13.9374 4.87066 14.028 4.85482 14.116C4.83898 14.204 4.78497 14.2805 4.70731 14.3248C4.58076 14.3926 4.46915 14.4851 4.37913 14.597C4.29853 14.7008 4.25297 14.8315 4.24246 14.989H4.29727C4.44557 14.989 4.579 15.047 4.69754 15.1628C4.81493 15.2763 4.8794 15.4337 4.87529 15.5969C4.87989 15.7567 4.81506 15.9107 4.69754 16.0191ZM6.41609 16.021C6.29882 16.1352 6.14037 16.1972 5.97672 16.1929C5.7839 16.1929 5.62507 16.1129 5.50022 15.9529C5.37538 15.7929 5.3129 15.5702 5.31278 15.2848C5.31142 15.0873 5.34444 14.8911 5.41034 14.7049C5.46935 14.5348 5.55431 14.375 5.6622 14.2309C5.75433 14.1065 5.86656 13.9983 5.99429 13.9108C6.1128 13.8324 6.21895 13.7931 6.31274 13.7929C6.39849 13.7929 6.4642 13.8175 6.50988 13.8669C6.55732 13.9216 6.58181 13.9925 6.57825 14.0648C6.57825 14.1848 6.52747 14.2715 6.4259 14.3249C6.2827 14.4076 6.17466 14.4989 6.10176 14.5989C6.02886 14.6989 5.9846 14.8289 5.96897 14.9891H6.01963C6.16547 14.9891 6.29766 15.047 6.41621 15.1629C6.53358 15.2763 6.598 15.4338 6.59381 15.597C6.59714 15.7571 6.53257 15.9111 6.41609 16.021ZM17.3923 13.7929V16.1929L14.9963 13.7929H8.9939C8.33227 13.793 7.79539 13.2575 7.79371 12.5959C7.79371 12.5949 7.79805 12.5939 7.79805 12.5929L7.79371 10.7929V5.39287L7.79805 4.19287H19.1914C19.5097 4.19287 19.815 4.31924 20.0401 4.54429C20.2651 4.76934 20.3916 5.07459 20.3916 5.39287V9.38988L20.3972 13.7929H17.3923Z" fill="currentColor"/>
</svg>
