<svg width="24" height="24" viewBox="0 0 24 24" fill="currentColor" xmlns="http://www.w3.org/2000/svg">
<path fill-rule="evenodd" clip-rule="evenodd" d="M7.5568 18.0411C6.90908 18.0411 6.98264 17.7295 6.98749 16.3528C6.99964 15.5064 8.92849 14.3524 12 14.352C15.0715 14.3521 16.9946 15.4476 17.028 16.3523C17.0412 17.6946 17.1559 18.0379 16.4346 18.0379C16.257 18.0379 16.0288 18.0172 15.7359 17.9854C14.2534 17.824 14.3481 17.8309 14.3481 16.5238C14.3481 16.0033 13.1473 15.888 12.0103 15.888H12.0077C10.8696 15.888 9.66724 16.0031 9.66692 16.5239C9.66692 17.8253 9.76172 17.8245 8.2792 17.9853C7.97164 18.0172 7.73646 18.0411 7.5568 18.0411ZM6.59999 5.39995H13.2V8.39995C13.2 9.06269 13.7372 9.59995 14.4 9.59995H17.4V12.6H6.59999M13.8109 4.19995H5.39999V11.4H3.01091C2.34817 11.4 1.79999 11.9373 1.79999 12.6V18.6C1.79999 19.2627 2.34817 19.8 3.01091 19.8H21.0109C21.328 19.7995 21.6319 19.6726 21.8551 19.4474C22.0783 19.2221 22.2025 18.9171 22.2 18.6V12.588C22.202 12.2721 22.0773 11.9686 21.8538 11.7453C21.6304 11.5221 21.3268 11.3977 21.0109 11.4H18.6V8.99995L13.8109 4.19995Z" fill="currentColor"/>
</svg>
