<svg width="24" height="24" viewBox="0 0 24 24" fill="currentColor" xmlns="http://www.w3.org/2000/svg">
<path fill-rule="evenodd" clip-rule="evenodd" d="M16.0796 4.99865C15.618 3.12059 13.934 1.80022 12 1.8C9.68041 1.8 7.80001 3.6804 7.80001 6V12C7.79977 12.3803 7.85115 12.7589 7.95274 13.1255L16.0796 4.99865ZM12 16.2C14.3196 16.2 16.2 14.3196 16.2 12V10.8178L10.9501 16.0677C11.2931 16.1558 11.6459 16.2003 12 16.2ZM18.3 10.2C17.8029 10.2 17.4 10.6029 17.4 11.1V12C17.4 14.9823 14.9823 17.4 12 17.4C11.3152 17.4008 10.6365 17.2709 10.0004 17.0174L8.64584 18.372C8.82525 18.4664 9.00893 18.5536 9.19688 18.6335C9.80832 18.8925 10.4529 19.065 11.112 19.1458V21H9.00001C8.33727 21 7.80001 21.5373 7.80001 22.2V22.8H16.2V22.2C16.2 21.5373 15.6627 21 15 21H12.888V19.1458C16.4946 18.6995 19.2023 15.6341 19.2 12V11.1C19.2 10.6029 18.7971 10.2 18.3 10.2ZM5.66113 15.4171L7.01041 14.0678C6.73866 13.4123 6.59919 12.7096 6.60001 12V11.1C6.60001 10.6029 6.19706 10.2 5.70001 10.2C5.20295 10.2 4.8 10.6029 4.8 11.1V12C4.79833 12.963 4.99103 13.9164 5.36655 14.8032C5.4554 15.0132 5.55359 15.2178 5.66113 15.4171ZM2.42475 22.896L1.15201 21.6233L21.5513 1.224L22.824 2.49674L2.42475 22.896Z" fill="currentColor"/>
</svg>
