<svg width="24" height="24" viewBox="0 0 24 24" fill="currentColor" xmlns="http://www.w3.org/2000/svg">
<path fill-rule="evenodd" clip-rule="evenodd" d="M12 1.79999C6.36674 1.79999 1.80005 6.36668 1.80005 12C1.80005 17.6333 6.36674 22.2 12 22.2C17.6334 22.2 22.2001 17.6333 22.2001 12C22.2001 6.36668 17.6334 1.79999 12 1.79999ZM17.4 11.4H16.3787C16.3584 11.895 16.0776 12.3629 15.6185 12.6607L12.8047 14.4858C12.5984 14.6197 12.48 14.8071 12.48 15V16.2552C13.5181 16.4989 14.2088 17.482 14.0861 18.5412C13.9634 19.6004 13.0664 20.3996 12 20.3996C10.9337 20.3996 10.0367 19.6004 9.91399 18.5412C9.79131 17.482 10.482 16.4989 11.52 16.2552V16.2C11.52 16.0137 11.3914 15.8294 11.1671 15.6943L8.13686 13.8692C7.6254 13.5611 7.32005 13.0651 7.32005 12.5424V12.5348C6.45215 12.2946 5.89525 11.4501 6.01642 10.5577C6.13759 9.66541 6.89954 8.99994 7.80005 8.99994C8.70056 8.99994 9.46251 9.66541 9.58368 10.5577C9.70485 11.4501 9.14795 12.2946 8.28005 12.5348V12.5424C8.28005 12.7281 8.4084 12.912 8.6322 13.0468L11.52 14.7862V7.19999H9.60005L12 3.59999L14.4 7.19999H12.48V13.5522L15.096 11.8554C15.2813 11.7352 15.3951 11.5718 15.4162 11.4001H14.4V8.39999H17.4V11.4Z" fill="currentColor"/>
</svg>
