<svg width="24" height="24" viewBox="0 0 24 24" fill="currentColor" xmlns="http://www.w3.org/2000/svg">
<path fill-rule="evenodd" clip-rule="evenodd" d="M19.9758 11.8243L18.6 10.4485V17.4H20.4V12.2485L19.9758 11.8243ZM16.2 12.8485V17.4H18V11.0485L16.2 12.8485ZM13.8 15.2485V17.4H15.6V13.4485L13.8 15.2485ZM11.4 14.0485V17.4H13.2V15.8485L12.7758 15.4243L11.4 14.0485ZM9.00005 17.4H10.8V13.4485L9.00005 15.2485V17.4ZM20.9979 6L21 6.00216V17.9978L20.9979 18H3.00221L3.00005 17.9978V6.00214L3.00221 6H20.9979ZM21 4.8H3.00005C2.33811 4.80194 1.80199 5.33807 1.80005 6V18C1.80199 18.6619 2.33811 19.1981 3.00005 19.2H21C21.662 19.1981 22.1981 18.6619 22.2001 18V6C22.1981 5.33807 21.662 4.80194 21 4.8ZM6.84859 17.4H8.40005V15.8485L6.84859 17.4ZM20.4 6.6H15.6L17.4 8.4L13.2 12.6L10.8 10.2L3.60005 17.4H6.00005L10.8 12.6L13.2 15L18.6 9.6L20.4 11.4V6.6Z" fill="currentColor"/>
</svg>
