<svg width="24" height="24" viewBox="0 0 24 24" fill="currentColor" xmlns="http://www.w3.org/2000/svg">
<path fill-rule="evenodd" clip-rule="evenodd" d="M12 1.79999C6.36668 1.79999 1.79999 6.36668 1.79999 12C1.79999 17.6333 6.36668 22.2 12 22.2C17.6333 22.2 22.2 17.6333 22.2 12C22.2 6.36668 17.6333 1.79999 12 1.79999ZM12 19.8C7.69216 19.8 4.19999 16.3078 4.19999 12C4.19999 7.69218 7.69216 4.19999 12 4.19999C16.3078 4.19999 19.8 7.69216 19.8 12C19.8 16.3078 16.3078 19.8 12 19.8ZM16.3474 12C16.3474 10.5342 17.9471 11.6432 17.2023 9.84524C16.4572 8.04726 16.1105 9.96215 15.0741 8.9258C14.0376 7.88946 15.9531 7.5428 14.1549 6.79811C12.3567 6.05341 13.4655 7.65251 12 7.65251C10.5342 7.65251 11.6433 6.05334 9.84517 6.79811C8.04707 7.54288 9.96212 7.88934 8.92561 8.9258C7.8891 9.96227 7.54252 8.04726 6.79777 9.84524C6.05262 11.6432 7.65217 10.5342 7.65217 12C7.65217 13.4658 6.0525 12.3567 6.79777 14.1547C7.54252 15.9527 7.88915 14.0378 8.92561 15.0737C9.96212 16.1102 8.04702 16.4571 9.84517 17.2019C11.6433 17.9466 10.5342 16.3475 12 16.3475C13.4655 16.3475 12.3564 17.9466 14.1549 17.2019C15.9533 16.4572 14.0375 16.1102 15.0741 15.0737C16.1105 14.0378 16.4572 15.9527 17.2023 14.1547C17.9472 12.3567 16.3474 13.4657 16.3474 12ZM12.0066 14.6568C10.543 14.6567 9.35665 13.4702 9.3567 12.0066C9.35675 10.543 10.5432 9.35658 12.0068 9.35658C13.4704 9.35658 14.6569 10.543 14.6569 12.0066C14.6569 12.7095 14.3777 13.3836 13.8806 13.8806C13.3836 14.3776 12.7095 14.6568 12.0066 14.6568Z" fill="currentColor"/>
</svg>
