<svg width="24" height="24" viewBox="0 0 24 24" fill="currentColor" xmlns="http://www.w3.org/2000/svg">
<path fill-rule="evenodd" clip-rule="evenodd" d="M22.1568 10.4644L17.1155 5.43581C13.4747 1.80411 7.57157 1.80411 3.9307 5.43581C0.289828 9.06752 0.2899 14.9557 3.9307 18.5875C7.5715 22.2193 13.4746 22.2192 17.1155 18.5875L22.1568 13.5589C22.5682 13.1491 22.7994 12.5923 22.7994 12.0116C22.7994 11.431 22.5682 10.8742 22.1568 10.4644ZM17.3995 15.3115V8.71179L20.9993 12.0118L17.3995 15.3115ZM14.9995 13.5647C14.9995 14.5103 14.2252 15.2772 13.2691 15.2772C12.3136 15.2772 11.5389 14.5103 11.5389 13.5647C11.5389 12.6183 12.3136 11.8513 13.2691 11.8513C13.3692 11.8518 13.4691 11.8605 13.5678 11.8772V8.79298L8.74083 10.06V15.6389C8.74083 16.5848 7.96592 17.3514 7.01043 17.3514C6.05494 17.3514 5.27984 16.5848 5.27984 15.6389C5.27984 14.6926 6.05504 13.9261 7.01043 13.9261C7.11799 13.926 7.22533 13.9358 7.33109 13.9554V7.99426H7.3352L13.6664 6.34889C13.6664 6.34889 13.8507 6.31187 13.9475 6.31187C14.5256 6.30896 14.9965 6.77513 14.9995 7.35315V13.5647Z" fill="currentColor"/>
</svg>
