<svg width="24" height="24" viewBox="0 0 24 24" fill="currentColor" xmlns="http://www.w3.org/2000/svg">
<path fill-rule="evenodd" clip-rule="evenodd" d="M20.1 6.60001H10.8L9.00001 4.20001H2.40001V10.2H5.40001V9.00001C5.40001 8.75827 5.54508 8.54015 5.76802 8.44668C5.99096 8.35321 6.24821 8.40266 6.42061 8.57212L9.76007 11.8544C9.76381 11.8581 9.76748 11.8618 9.77113 11.8656C10.0339 12.1305 10.1867 12.485 10.199 12.8579C10.1997 12.8699 10.2001 12.8819 10.2001 12.8939C10.2001 12.897 10.2001 12.9 10.2001 12.9031V12.906C10.2001 12.9172 10.1998 12.9284 10.1991 12.9396C10.1874 13.3134 10.0345 13.6689 9.77113 13.9344C9.76752 13.9382 9.76383 13.9419 9.76007 13.9455L6.42061 17.2279C6.24821 17.3974 5.99096 17.4468 5.76802 17.3533C5.54508 17.2599 5.40001 17.0417 5.40001 16.8V15.6H2.40001V18.3C2.40001 19.1284 3.07159 19.8 3.90001 19.8H21.6V8.10001C21.6 7.27159 20.9284 6.60001 20.1 6.60001ZM9.60001 12.894C9.59639 12.664 9.50268 12.4445 9.33944 12.2823L6.00001 9.00001V10.8H2.10001H2.09891C1.86036 10.8002 1.63164 10.8951 1.46306 11.0638C1.29449 11.2326 1.19987 11.4615 1.20001 11.7V14.1C1.19987 14.3386 1.29449 14.5674 1.46306 14.7362C1.63164 14.905 1.86036 14.9999 2.09891 15H6.00001V16.8L9.33949 13.5177C9.50272 13.3556 9.59612 13.1361 9.59975 12.906C9.59975 12.904 9.59987 12.902 9.59987 12.9C9.59987 12.898 9.60001 12.896 9.60001 12.894Z" fill="currentColor"/>
</svg>
