<svg width="24" height="24" viewBox="0 0 24 24" fill="currentColor" xmlns="http://www.w3.org/2000/svg">
<path fill-rule="evenodd" clip-rule="evenodd" d="M1.80005 4.80005V17.28H5.40005V19.2H18.6V17.28H22.2001V4.80005H1.80005ZM12 18.12C11.6024 18.12 11.28 17.7977 11.28 17.4C11.28 17.0024 11.6024 16.68 12 16.68C12.3977 16.68 12.72 17.0024 12.72 17.4C12.72 17.7977 12.3977 18.12 12 18.12ZM20.76 15.84H3.24005V6.24005H20.76V15.84ZM17.4 8.40005C17.4 8.06868 17.1314 7.80005 16.8 7.80005H9.60005C9.26868 7.80005 9.00005 8.06868 9.00005 8.40005C9.00005 8.73142 9.26868 9.00005 9.60005 9.00005H16.8C17.1314 9.00005 17.4 8.73142 17.4 8.40005ZM17.4 10.224C17.4 9.89268 17.1314 9.60005 16.8 9.60005H9.60005C9.26868 9.60005 9.00005 9.86868 9.00005 10.2C9.00005 10.5314 9.26868 10.8 9.60005 10.8H16.8C17.1314 10.8 17.4 10.5554 17.4 10.224ZM17.4 12C17.4 11.6687 17.1314 11.4 16.8 11.4H9.60005C9.26868 11.4 9.00005 11.6687 9.00005 12C9.00005 12.3314 9.26868 12.6 9.60005 12.6H16.8C17.1314 12.6 17.4 12.3314 17.4 12ZM17.4 13.8C17.4 13.4687 17.1314 13.2 16.8 13.2H9.60005C9.26868 13.2 9.00005 13.4687 9.00005 13.8C9.00005 14.1314 9.26868 14.4 9.60005 14.4H16.8C17.1314 14.4 17.4 14.1314 17.4 13.8ZM7.18805 9.00005C7.51942 9.00005 7.78805 8.73142 7.78805 8.40005C7.78805 8.06868 7.51942 7.80005 7.18805 7.80005C6.85668 7.80005 6.58805 8.06868 6.58805 8.40005C6.58805 8.73142 6.85668 9.00005 7.18805 9.00005ZM7.18805 10.8C7.51942 10.8 7.78805 10.5314 7.78805 10.2C7.78805 9.86868 7.51942 9.60005 7.18805 9.60005C6.85668 9.60005 6.58805 9.86868 6.58805 10.2C6.58805 10.5314 6.85668 10.8 7.18805 10.8ZM7.18805 12.6C7.51942 12.6 7.78805 12.3314 7.78805 12C7.78805 11.6687 7.51942 11.4 7.18805 11.4C6.85668 11.4 6.58805 11.6687 6.58805 12C6.58805 12.3314 6.85668 12.6 7.18805 12.6ZM7.18805 14.4C7.51942 14.4 7.78805 14.1314 7.78805 13.8C7.78805 13.4687 7.51942 13.2 7.18805 13.2C6.85668 13.2 6.58805 13.4687 6.58805 13.8C6.58805 14.1314 6.85668 14.4 7.18805 14.4Z" fill="currentColor"/>
</svg>
