<svg width="24" height="24" viewBox="0 0 24 24" fill="currentColor" xmlns="http://www.w3.org/2000/svg">
<path fill-rule="evenodd" clip-rule="evenodd" d="M11.9154 5.34445C11.8355 4.63232 10.9259 5.336 10.9259 5.336L10.9652 6.56211C10.9652 6.56211 11.9959 6.05624 11.9154 5.34445ZM13.5474 7.08253C13.9236 7.18969 14.3218 6.91539 14.4366 6.4695C14.5514 6.0236 14.3397 5.57523 13.9629 5.4679C13.5871 5.36058 13.1888 5.63528 13.0739 6.08074C12.9589 6.52669 13.1708 6.97542 13.5474 7.08253ZM15.1969 2C11.2189 2 7.99395 4.08447 7.99395 6.65578C7.9967 7.12986 8.10536 7.59732 8.312 8.024H2V19.4235C2 20.2194 2.31636 20.9826 2.87921 21.5453C3.44206 22.108 4.20539 22.424 5.00127 22.424H20V10.112C21.4685 9.25964 22.4 8.03199 22.4 6.65583C22.4 4.08447 19.1751 2 15.1969 2ZM7.4 21.224L5.00127 21.2238C4.00733 21.2228 3.20176 20.4175 3.2005 19.4235L3.2 9.224H7.4V21.224ZM12.6668 4.49456C12.744 4.66543 12.7829 4.85117 12.7806 5.03869C13.1391 4.63388 13.6547 4.43972 14.1522 4.58151C14.3699 4.64512 14.5664 4.76603 14.7213 4.9316L14.6834 4.77289L15.4959 4.1606L15.8432 7.12762L15.9056 7.09244L16.0681 4.09698L17.1642 3.82098L17.6509 6.47989L17.7058 6.47144L17.8129 3.92046L18.7447 3.89024L18.0437 7.54945L17.3996 7.59985L16.6794 5.71494L16.2817 8.10202L15.528 8.3066L15.1053 6.53708C15.1015 6.55078 15.0997 6.56451 15.0963 6.57817C14.867 7.46718 14.0731 8.0144 13.3227 7.8003C12.6499 7.60875 12.2421 6.8702 12.33 6.07911C11.7942 6.70909 10.9725 7.10461 10.9725 7.10461L11.0121 8.34123L10.3674 8.38203L10.2254 6.03243L10.0441 6.07837C10.0441 6.07837 9.81368 5.11993 9.80322 5.08988C9.80322 5.08986 12.2524 3.55239 12.6668 4.49456ZM18.8 21.224H9.2V17.024H18.8V21.224ZM18.8 15.224H9.2V9.224C10.2824 10.2716 12.0076 11.0336 14.0087 11.2483L13.3741 13.8387L18.1515 10.9032C18.3764 10.8377 18.5881 10.7675 18.8 10.688V15.224ZM19.947 4.45438L19.7966 7.38958L19.2692 7.49674L19.0077 4.6952L19.947 4.45438ZM19.6971 8.61272C19.4539 8.74158 19.1849 8.69888 19.0973 8.51742C19.0096 8.33595 19.1355 8.08441 19.3795 7.95553C19.623 7.82701 19.8917 7.8693 19.9795 8.05095C20.0675 8.23203 19.9412 8.48384 19.6971 8.61272Z" fill="currentColor"/>
</svg>
