<svg width="24" height="24" viewBox="0 0 24 24" fill="currentColor" xmlns="http://www.w3.org/2000/svg">
<path fill-rule="evenodd" clip-rule="evenodd" d="M12 2.112C6.36674 2.112 1.80005 5.7384 1.80005 10.212C1.80005 13.6791 4.54325 16.6374 8.40005 17.793V21.912L12 18.312C17.6334 18.312 22.2001 14.6856 22.2001 10.212C22.2001 5.7384 17.6334 2.112 12 2.112ZM18.3 11.088H18V11.1C18 11.2657 17.8657 11.4 17.7 11.4C17.5344 11.4 17.4 11.2657 17.4 11.1V11.088H16.8V12.3C16.8 12.4657 16.6657 12.6 16.5 12.6C16.3344 12.6 16.2 12.4657 16.2 12.3V11.7C16.2 11.8657 16.0657 12 15.9 12C15.7344 12 15.6 11.8657 15.6 11.7V11.088H15V11.1C15 11.2657 14.8657 11.4 14.7 11.4C14.5344 11.4 14.4 11.2657 14.4 11.1V12.3C14.4 12.4657 14.2657 12.6 14.1 12.6C13.9344 12.6 13.8 12.4657 13.8 12.3V11.088V14.1C13.8 14.2657 13.6657 14.4 13.5 14.4C13.3344 14.4 13.2 14.2657 13.2 14.1V12.9C13.2 13.0657 13.0657 13.2 12.9 13.2C12.7344 13.2 12.6 13.0657 12.6 12.9V14.7C12.6 14.8657 12.4657 15 12.3 15C12.1344 15 12 14.8657 12 14.7V11.088H11.4V12.3C11.4 12.4657 11.2657 12.6 11.1 12.6C10.9344 12.6 10.8 12.4657 10.8 12.3V11.7C10.8 11.8657 10.6657 12 10.5 12C10.3344 12 10.2 11.8657 10.2 11.7V14.1C10.2 14.2657 10.0657 14.4 9.90005 14.4C9.73436 14.4 9.60005 14.2657 9.60005 14.1V11.7C9.60005 11.8657 9.46573 12 9.30005 12C9.13436 12 9.00005 11.8657 9.00005 11.7V11.088H8.40005V12.3C8.40005 12.4657 8.26573 12.6 8.10005 12.6C7.93436 12.6 7.80005 12.4657 7.80005 12.3V11.1C7.80005 11.2657 7.66573 11.4 7.50005 11.4C7.33436 11.4 7.20005 11.2657 7.20005 11.1V11.7C7.20005 11.8657 7.06573 12 6.90005 12C6.73436 12 6.60005 11.8657 6.60005 11.7V11.1C6.60005 11.2657 6.46573 11.4 6.30005 11.4C6.13436 11.4 6.00005 11.2657 6.00005 11.1V11.088H5.70005C5.53436 11.088 5.40005 10.9537 5.40005 10.788C5.40005 10.6223 5.53436 10.488 5.70005 10.488H6.00065C6.00676 10.3271 6.139 10.1998 6.30005 10.1998C6.4611 10.1998 6.59334 10.3271 6.59945 10.488L6.60005 9.9C6.60005 9.73431 6.73436 9.6 6.90005 9.6C7.06573 9.6 7.20005 9.73431 7.20005 9.9V10.488C7.20616 10.3271 7.339 10.1998 7.50005 10.1998C7.6611 10.1998 7.79333 10.3271 7.79945 10.488L7.80005 9.3C7.80005 9.13431 7.93436 9 8.10005 9C8.26573 9 8.40005 9.13431 8.40005 9.3V10.488H9.00005V9.9C9.00005 9.73431 9.13436 9.6 9.30005 9.6C9.46573 9.6 9.60005 9.73431 9.60005 9.9V7.5C9.60005 7.33431 9.73436 7.2 9.90005 7.2C10.0657 7.2 10.2 7.33431 10.2 7.5V9.9C10.2 9.73431 10.3344 9.6 10.5 9.6C10.6657 9.6 10.8 9.73431 10.8 9.9V9.3C10.8 9.13431 10.9344 9 11.1 9C11.2657 9 11.4 9.13431 11.4 9.3V10.488H12V5.7C12 5.53431 12.1344 5.4 12.3 5.4C12.4657 5.4 12.6 5.53431 12.6 5.7V8.7C12.6 8.53431 12.7344 8.4 12.9 8.4C13.0657 8.4 13.2 8.53431 13.2 8.7V7.5C13.2 7.33431 13.3344 7.2 13.5 7.2C13.6657 7.2 13.8 7.33431 13.8 7.5V10.488V9.3C13.8 9.13431 13.9344 9 14.1 9C14.2657 9 14.4 9.13431 14.4 9.3V10.488C14.4062 10.3271 14.539 10.1998 14.7 10.1998C14.8611 10.1998 14.9933 10.3271 14.9994 10.488H15.6V9.9C15.6 9.73431 15.7344 9.6 15.9 9.6C16.0657 9.6 16.2 9.73431 16.2 9.9V9.3C16.2 9.13431 16.3344 9 16.5 9C16.6657 9 16.8 9.13431 16.8 9.3V10.488H17.4006C17.4068 10.3271 17.539 10.1998 17.7 10.1998C17.8611 10.1998 17.9933 10.3271 17.9994 10.488H18.3C18.4657 10.488 18.6 10.6223 18.6 10.788C18.6 10.9537 18.4657 11.088 18.3 11.088Z" fill="currentColor"/>
</svg>
