<svg width="24" height="24" viewBox="0 0 24 24" fill="currentColor" xmlns="http://www.w3.org/2000/svg">
<path fill-rule="evenodd" clip-rule="evenodd" d="M6.00001 4.8H17.4V4.2C17.4 3.53726 16.8628 3 16.2 3H4.20001V18C4.20001 18.6627 4.73727 19.2 5.40001 19.2H6.00001V4.8ZM18.6 5.4H6.60001V20.4C6.60001 21.0627 7.13727 21.6 7.80001 21.6H19.8V6.6C19.8 5.93726 19.2628 5.4 18.6 5.4ZM15 16.2C14.4286 16.2004 13.891 15.929 13.552 15.4691C13.8655 16.501 14.3712 17.4267 15 18H11.4C12.0288 17.4267 12.5346 16.501 12.8481 15.4691C12.2676 16.2519 11.1696 16.4306 10.3709 15.8723C9.57213 15.3139 9.36282 14.2213 9.89864 13.4073L13.2 8.4L16.5016 13.4072C16.8672 13.9599 16.8993 14.6687 16.5855 15.2524C16.2717 15.836 15.6627 16.2001 15 16.2Z" fill="currentColor"/>
</svg>
