<svg width="24" height="24" viewBox="0 0 24 24" fill="currentColor" xmlns="http://www.w3.org/2000/svg">
<path fill-rule="evenodd" clip-rule="evenodd" d="M21.8439 10.2324L18.912 9.67207L14.664 5.15976C14.4362 4.92837 14.1247 4.79869 13.8 4.80006H6.00001C5.62035 4.79974 5.26299 4.97931 5.03668 5.28415L1.44033 10.0873L1.43665 10.0922L1.4344 10.0952C1.28182 10.3011 1.19963 10.5507 1.20001 10.8071V15.0001C1.20001 15.6627 1.73735 16.1999 2.40001 16.2001H3.00001C3.00001 17.8569 4.34316 19.2001 6.00001 19.2001C7.65687 19.2001 9.00001 17.8569 9.00001 16.2001H14.4C14.4 17.8569 15.7432 19.2001 17.4 19.2001C19.0569 19.2001 20.4 17.8569 20.4 16.2001H21.6C22.2627 16.1999 22.8 15.6627 22.8 15.0001V11.4065C22.7998 10.838 22.4005 10.3478 21.8439 10.2324ZM6.00001 18.0001C5.0059 18.0001 4.20001 17.1942 4.20001 16.2001C4.20001 15.206 5.0059 14.4001 6.00001 14.4001C6.99413 14.4001 7.80001 15.206 7.80001 16.2001C7.80001 16.6775 7.61037 17.1353 7.27281 17.4729C6.93524 17.8104 6.4774 18.0001 6.00001 18.0001ZM9.28802 9.59937H3.56013L6.17632 6.09919L6.17903 6.09595H9.28802V9.59937ZM11.088 9.59937V6.09606H13.7566C13.7591 6.09601 13.7617 6.09627 13.7641 6.09684L17.0559 9.59937H11.088ZM17.4 18.0001C16.4059 18.0001 15.6 17.1942 15.6 16.2001C15.6 15.206 16.4059 14.4001 17.4 14.4001C18.3941 14.4001 19.2 15.206 19.2 16.2001C19.2 17.1942 18.3941 18.0001 17.4 18.0001Z" fill="currentColor"/>
</svg>
