<svg width="24" height="24" viewBox="0 0 24 24" fill="currentColor" xmlns="http://www.w3.org/2000/svg">
<path fill-rule="evenodd" clip-rule="evenodd" d="M12 6.60005C12 5.60594 12.8059 4.80005 13.8 4.80005H15V4.20005C14.9996 3.86883 14.7312 3.60042 14.4 3.60005H4.19999C3.86877 3.60042 3.60036 3.86883 3.59999 4.20005V14.4C3.60036 14.7313 3.86877 14.9997 4.19999 15H12V6.60005ZM10.2 12H8.39999L8.59324 9.42324C7.98631 9.099 7.67783 8.4034 7.84495 7.73589C8.01207 7.06839 8.61193 6.6002 9.30004 6.6002C9.98814 6.6002 10.588 7.06839 10.7551 7.73589C10.9222 8.4034 10.6138 9.099 10.0068 9.42324L10.2 12ZM12 15.6H4.19999C3.53725 15.6 2.99999 15.0628 2.99999 14.4V4.20005C2.99999 3.53731 3.53725 3.00005 4.19999 3.00005H14.4C15.0627 3.00005 15.6 3.53731 15.6 4.20005V4.80005H16.8V3.60005C16.8 2.60594 15.9941 1.80005 15 1.80005H1.79999V15C1.79999 15.9942 2.60588 16.8 3.59999 16.8H12V15.6ZM21.0012 5.40005H13.7988C13.4807 5.40005 13.1757 5.52672 12.9509 5.75176C12.726 5.97681 12.5998 6.28194 12.6 6.60005V21C12.5997 21.6625 13.1364 22.1997 13.7988 22.2001H21.0012C21.3193 22.2001 21.6243 22.0734 21.8491 21.8483C22.0739 21.6233 22.2001 21.3182 22.2 21V6.60005C22.2003 5.93765 21.6636 5.40039 21.0012 5.40005ZM17.4 21.6C17.0686 21.6 16.8 21.3314 16.8 21C16.8 20.6687 17.0686 20.4 17.4 20.4C17.7314 20.4 18 20.6687 18 21C18 21.3314 17.7314 21.6 17.4 21.6ZM21 19.8H13.8V7.20005H21V19.8Z" fill="currentColor"/>
</svg>
