<svg width="24" height="24" viewBox="0 0 24 24" fill="currentColor" xmlns="http://www.w3.org/2000/svg">
<path d="M21.5844 19.8874L19.1554 17.4586C20.3122 15.9444 21 14.0527 21 12C21 7.02936 16.9704 3 12 3C7.02936 3 3 7.02936 3 12C3 16.9706 7.02936 21 12 21C14.0525 21 15.9442 20.3124 17.4583 19.1556L19.8874 21.5846C20.3561 22.0531 21.1159 22.0531 21.5844 21.5846C22.0531 21.1159 22.0531 20.3561 21.5844 19.8874ZM11.988 19.7998C7.67328 19.7998 4.19952 16.3022 4.19952 11.988C4.19952 7.67352 7.67328 4.176 11.988 4.176C16.3025 4.176 19.8002 7.67352 19.8002 11.988C19.8002 16.3022 16.3025 19.7998 11.988 19.7998ZM17.0782 13.0284V15.9684C16.9217 16.1666 16.7623 16.3565 16.5821 16.537C16.3106 16.8082 16.0094 17.0597 15.6991 17.2759L15.6998 11.6477L15.911 11.851L16.5677 12.5078L17.0782 13.0284ZM14.3213 12.4932V17.9988C13.8749 18.1697 13.4225 18.289 12.9502 18.3564L12.942 13.8775L14.3213 12.4932ZM11.5651 14.8327L11.5646 18.4034C11.0947 18.3706 10.6332 18.2846 10.1854 18.1512V13.4491L11.2589 14.5212L11.5651 14.8327ZM8.80776 14.3321V17.5565C8.32272 17.2764 7.8852 16.9385 7.48392 16.537C7.46784 16.5209 7.4436 16.5046 7.42776 16.4885V15.7121L8.80776 14.3321ZM17.0791 7.86072L17.0789 11.988L15.4397 10.3402L11.7787 14.0014L9.94056 12.1632L6.62664 15.4771C6.42504 15.1656 6.25056 14.8366 6.10464 14.4917C5.99256 14.2265 5.89944 13.9555 5.82432 13.6802L9.94056 9.56376L11.7787 11.4017L14.1403 9.04056L12.499 7.4016L16.6183 7.40256C16.8722 7.40256 17.0791 7.6068 17.0791 7.86072Z" fill="currentColor"/>
</svg>
