<svg width="24" height="24" viewBox="0 0 24 24" fill="currentColor" xmlns="http://www.w3.org/2000/svg">
<path fill-rule="evenodd" clip-rule="evenodd" d="M18 3.599H15V2.99999C15 2.33725 14.4627 1.79999 13.8 1.79999H10.2C9.53726 1.79999 9 2.33725 9 2.99999V3.599H6C5.00588 3.599 4.2 4.40489 4.2 5.399V6.59999H19.8V5.399C19.8 4.40489 18.9941 3.599 18 3.599ZM13.8 3.599H10.2V2.99999H13.8V3.599ZM5.4 22.2H18.6V7.199H5.4V22.2ZM12 9.59999C14.651 9.59999 16.8 11.749 16.8 14.4C16.8 17.051 14.651 19.2 12 19.2C9.34903 19.2 7.2 17.051 7.2 14.4C7.2 11.749 9.34903 9.59999 12 9.59999ZM14.5456 15.6728L13.2728 14.4L14.5456 13.1272C14.7732 12.8999 14.8621 12.5684 14.7789 12.2577C14.6957 11.9469 14.453 11.7043 14.1423 11.6211C13.8316 11.5379 13.5001 11.6268 13.2728 11.8544L12 13.1272L10.7272 11.8544C10.3757 11.5033 9.80611 11.5034 9.45477 11.8548C9.10344 12.2061 9.10328 12.7757 9.45441 13.1272L10.7272 14.4L9.45441 15.6728C9.22684 15.9001 9.13788 16.2316 9.22107 16.5423C9.30426 16.853 9.54696 17.0957 9.85767 17.1789C10.1684 17.2621 10.4999 17.1731 10.7272 16.9456L12 15.6728L13.2728 16.9456C13.5001 17.1731 13.8316 17.2621 14.1423 17.1789C14.453 17.0957 14.6957 16.853 14.7789 16.5423C14.8621 16.2316 14.7732 15.9001 14.5456 15.6728Z" fill="currentColor"/>
</svg>
