<svg width="24" height="24" viewBox="0 0 24 24" fill="currentColor" xmlns="http://www.w3.org/2000/svg">
<path fill-rule="evenodd" clip-rule="evenodd" d="M7.8 22.2H3C2.66903 22.199 2.40096 21.931 2.4 21.6V19.8C2.40096 19.469 2.66903 19.201 3 19.2H7.8C8.13097 19.201 8.39904 19.469 8.4 19.8V21.6C8.39904 21.931 8.13097 22.199 7.8 22.2ZM14.4 22.2H9.6C9.26903 22.199 9.00096 21.931 9 21.6V19.8C9.00096 19.469 9.26903 19.201 9.6 19.2H14.4C14.731 19.201 14.999 19.469 15 19.8V21.6C14.999 21.931 14.731 22.199 14.4 22.2ZM21 22.2H16.2C15.869 22.199 15.601 21.931 15.6 21.6V19.8C15.601 19.469 15.869 19.201 16.2 19.2H21C21.331 19.201 21.599 19.469 21.6 19.8V21.6C21.599 21.931 21.331 22.199 21 22.2ZM2.4 18.6001H4.2C4.53097 18.5992 4.79904 18.3311 4.8 18.0001V16.2001C4.79904 15.8692 4.53097 15.6011 4.2 15.6001H2.4V18.6001ZM2.4 11.4003H4.2C4.53097 11.3994 4.79904 11.1313 4.8 10.8003V9.00034C4.79904 8.66937 4.53097 8.4013 4.2 8.40034H2.4V11.4003ZM21.6 8.40034H19.2C18.869 8.4013 18.601 8.66937 18.6 9.00034V10.8003C18.601 11.1313 18.869 11.3994 19.2 11.4003H21.6V8.40034ZM21.6 15.6001H19.2C18.869 15.6011 18.601 15.8691 18.6 16.2001V18.0001C18.601 18.3311 18.869 18.5991 19.2 18.6001H21.6V15.6001ZM13.1839 16.3899C12.7535 16.8834 12.5582 17.4251 12.587 18.0461C12.5969 18.2599 12.5739 18.4415 12.5176 18.5942C12.5449 18.598 12.5724 18.6 12.6 18.6H17.4C17.731 18.5991 17.999 18.331 18 18V16.2C17.999 15.8691 17.731 15.601 17.4 15.6H14.1178C13.7877 15.8218 13.4554 16.0787 13.1839 16.3899ZM9.74273 15.6001H6C5.66903 15.6011 5.40096 15.8691 5.4 16.2001V18.0001C5.40096 18.3311 5.66903 18.5991 6 18.6001H10.8C10.8217 18.6001 10.8434 18.5989 10.865 18.5965C10.6394 18.3398 10.4248 18.0032 10.2443 17.6231C10.0258 17.1629 9.76438 16.4423 9.74273 15.6001ZM6.17331 14.112C5.67939 13.4651 5.35491 12.7784 5.18038 12.0003H3C2.66903 12.0013 2.40096 12.2693 2.4 12.6003V14.4003C2.40096 14.7313 2.66903 14.9993 3 15.0003H7.2288C6.9096 14.8053 6.46236 14.4907 6.17331 14.112ZM21 12.0003H17.7873C17.7322 12.1457 17.6721 12.287 17.6069 12.4242C17.3807 12.9002 17.0851 13.34 16.7297 13.7291C16.4082 14.0767 16.0477 14.3859 15.6552 14.6505C15.7533 14.8631 15.9658 14.9996 16.2 15.0002H21C21.331 14.9993 21.599 14.7312 21.6 14.4002V12.6002C21.599 12.2693 21.3309 12.0013 21 12.0003ZM11.6701 1.29601C11.6701 1.29601 11.4659 2.14047 12.3639 3.21557C13.262 4.29068 14.7053 6.00898 14.9353 7.17001C15.182 8.41479 14.9317 9.60735 14.2413 10.5872C14.2143 10.6256 15.2633 10.0088 15.7108 8.85932C16.01 8.09081 15.874 6.36363 15.629 5.9798C15.3842 5.5958 17.9556 7.63071 17.5474 10.5103C17.1393 13.3898 15.1802 14.2344 14.2413 14.8104C13.3024 15.3864 11.9058 16.3076 11.9877 18.074C12.0696 19.8404 9.06233 15.9618 10.984 13.6062C12.7444 11.4481 12.2415 10.4023 11.8744 9.78085C11.8744 9.78085 11.7371 11.1528 9.88817 11.9727C8.7384 12.4824 8.52264 13.6909 8.9112 14.7336C9.15922 15.3989 7.24279 14.5241 6.65028 13.748C6 12.8963 5.70504 11.9964 5.63904 10.9586C5.45599 8.08044 7.84428 7.16518 7.8 5.74851C7.788 5.36451 7.608 4.80051 7.608 4.80051C7.608 4.80051 10.0703 5.93091 9.34359 8.43706C9.28882 8.62599 10.4303 8.09079 10.0823 6.72289C9.71352 5.27345 8.6304 3.37517 11.6701 1.29601Z" fill="currentColor"/>
</svg>
