<svg width="24" height="24" viewBox="0 0 24 24" fill="currentColor" xmlns="http://www.w3.org/2000/svg">
<path fill-rule="evenodd" clip-rule="evenodd" d="M11.9957 1.79572C6.36241 1.79572 1.79572 6.36242 1.79572 11.9957C1.79572 17.629 6.36241 22.1957 11.9957 22.1957C17.629 22.1957 22.1957 17.629 22.1957 11.9957C22.1957 6.36242 17.629 1.79572 11.9957 1.79572ZM5.63176 5.63176C6.45164 4.8096 7.42331 4.15439 8.49287 3.7025C8.66116 3.63131 8.83102 3.5655 9.00246 3.50505C8.58222 4.03468 8.20355 4.67263 7.87753 5.39779C7.85039 5.39659 7.82315 5.39572 7.79572 5.39572C7.03291 5.3958 6.35294 5.87658 6.09856 6.59572H4.79442C5.05057 6.25515 5.33037 5.93304 5.63176 5.63176ZM3.70249 8.49287C3.80315 8.25491 3.91355 8.02252 4.03369 7.79572H6.09846C6.23931 8.19267 6.51455 8.52786 6.87652 8.74324C6.72196 9.61967 6.63123 10.5062 6.60503 11.3957H5.83477C5.62049 11.0244 5.22439 10.7957 4.79572 10.7957C4.36704 10.7957 3.97094 11.0244 3.75666 11.3957H3.01535C3.07971 10.3964 3.31201 9.41502 3.70249 8.49287ZM4.03379 16.1957C3.91401 15.9688 3.80361 15.7364 3.70259 15.4986C3.31207 14.5764 3.07973 13.5951 3.01535 12.5957H3.75666C3.97094 12.967 4.36704 13.1957 4.79572 13.1957C5.22439 13.1957 5.62049 12.967 5.83477 12.5957H6.605C6.63121 13.4853 6.72195 14.3718 6.87652 15.2482C6.5146 15.4636 6.23939 15.7988 6.09856 16.1957H4.03379ZM8.49299 20.2889C7.42342 19.8371 6.45174 19.1818 5.63185 18.3597C5.33043 18.0584 5.0506 17.7363 4.79442 17.3957H6.09856C6.35294 18.1149 7.03291 18.5956 7.79572 18.5957C7.82317 18.5957 7.85041 18.5949 7.87756 18.5937C8.20355 19.3188 8.58224 19.9569 9.00251 20.4864C8.8311 20.426 8.66132 20.3601 8.49299 20.2889ZM11.3957 20.8892C11.1439 20.8002 10.8922 20.6559 10.6428 20.4566C10.1364 20.052 9.65048 19.4261 9.2379 18.6467C9.15067 18.4807 9.06817 18.3123 8.99041 18.1416C9.21826 17.9395 9.39114 17.6828 9.4929 17.3957H11.3957V20.8892ZM11.3957 16.1957H9.4929C9.26967 15.5656 8.71595 15.1109 8.05448 15.0145C7.91303 14.2153 7.82992 13.4069 7.8058 12.5957H9.05572C9.29692 13.7738 10.2176 14.6945 11.3957 14.9357V16.1957ZM11.3957 9.05572C10.2176 9.29693 9.29692 10.2176 9.05572 11.3957H7.8058C7.82992 10.5845 7.91303 9.7761 8.05448 8.97693C8.71595 8.88051 9.26967 8.42581 9.4929 7.79572H11.3957V9.05572ZM11.3957 6.59572H9.4929C9.39114 6.30862 9.21826 6.05199 8.99041 5.84983C9.06832 5.67931 9.15081 5.51094 9.2379 5.3447C9.65048 4.56532 10.1363 3.93947 10.6428 3.53481C10.8922 3.33561 11.1439 3.1912 11.3957 3.10226V6.59572ZM19.9576 7.79572C20.0774 8.02265 20.1878 8.25503 20.2888 8.49287C20.6794 9.41501 20.9117 10.3964 20.9761 11.3957H20.2348C20.0205 11.0244 19.6244 10.7957 19.1957 10.7957C18.767 10.7957 18.3709 11.0244 18.1567 11.3957H17.3864C17.3602 10.5062 17.2695 9.61967 17.1149 8.74324C17.4768 8.52783 17.752 8.19265 17.8929 7.79572H19.9576ZM15.4985 3.7025C16.5681 4.15438 17.5398 4.80958 18.3597 5.63176C18.6611 5.93304 18.9409 6.25515 19.197 6.59572H17.8929C17.6385 5.87659 16.9585 5.39581 16.1957 5.39572C16.1683 5.39572 16.141 5.39659 16.1139 5.39779C15.7879 4.67263 15.4092 4.03459 14.9889 3.50505C15.1603 3.5655 15.3302 3.63131 15.4985 3.7025ZM12.5957 3.10226C12.8475 3.1912 13.0992 3.33559 13.3486 3.53481C13.855 3.93947 14.3409 4.56535 14.7536 5.3447C14.8408 5.51078 14.9233 5.67915 15.001 5.84983C14.7732 6.05199 14.6003 6.30862 14.4985 6.59572H12.5957V3.10226ZM12.5957 7.79572H14.4985C14.7218 8.42581 15.2755 8.88051 15.9369 8.97693C16.0784 9.7761 16.1615 10.5845 16.1856 11.3957H14.9357C14.6945 10.2176 13.7738 9.29693 12.5957 9.05572V7.79572ZM12.5957 14.9357C13.7738 14.6945 14.6945 13.7738 14.9357 12.5957H16.1856C16.1615 13.4076 16.0782 14.2167 15.9365 15.0166C15.2816 15.1181 14.7353 15.571 14.514 16.1957H12.5957V14.9357ZM13.3486 20.4567C13.0992 20.6559 12.8475 20.8003 12.5957 20.8893V17.3957H14.514C14.614 17.6782 14.7829 17.9312 15.0053 18.132C14.9261 18.3058 14.8422 18.4774 14.7535 18.6467C14.3409 19.4261 13.8551 20.052 13.3486 20.4567ZM18.3597 18.3598C17.5398 19.1819 16.5681 19.8371 15.4986 20.289C15.3303 20.3602 15.1604 20.426 14.9889 20.4865C15.4093 19.9567 15.7881 19.3185 16.1142 18.5931C16.1463 18.5948 16.1786 18.5958 16.2112 18.5958C16.974 18.5957 17.654 18.1149 17.9084 17.3958H19.197C18.9409 17.7363 18.6611 18.0585 18.3597 18.3598ZM20.2889 15.4986C20.1883 15.7366 20.0779 15.969 19.9577 16.1958H17.9084C17.7656 15.7937 17.485 15.4551 17.1164 15.2402C17.27 14.3664 17.3603 13.4826 17.3864 12.5957H18.1567C18.3709 12.967 18.767 13.1957 19.1957 13.1957C19.6244 13.1957 20.0205 12.967 20.2348 12.5957H20.9761C20.9117 13.5951 20.6794 14.5765 20.2889 15.4986Z" fill="currentColor"/>
</svg>
