<svg width="24" height="24" viewBox="0 0 24 24" fill="currentColor" xmlns="http://www.w3.org/2000/svg">
<path fill-rule="evenodd" clip-rule="evenodd" d="M16.2926 19.7921H7.68818C7.41233 19.792 7.1886 20.0155 7.1884 20.2913V20.976H16.7922V20.2914C16.7921 20.0156 16.5684 19.7921 16.2926 19.7921ZM17.4125 4.79916L17.4086 3H6.58557V4.79916H3.58696V7.99332C3.58696 9.98035 5.03896 11.6282 6.94077 11.9361C7.55308 13.5508 9.11111 14.8021 10.7898 15.2765V17.993H9.58936C8.92666 17.9927 8.38922 18.5297 8.3889 19.1924H15.5918C15.5914 18.5297 15.054 17.9927 14.3913 17.993H13.1921V15.2765C14.8708 14.8021 16.4448 13.5509 17.0571 11.9361C18.959 11.6282 20.411 9.98035 20.411 7.99332V4.79916H17.4125ZM5.62643 9.9907C5.08218 9.45763 4.78643 8.72086 4.78643 7.95938V5.9976H6.58559V9.99072C6.58569 10.201 6.59776 10.4112 6.62174 10.6201C6.24894 10.4836 5.90961 10.269 5.62643 9.9907ZM11.9903 11.9958C10.0013 11.9958 8.38888 10.3848 8.38888 8.39746C8.38888 6.41016 10.0013 4.79916 11.9903 4.79916C13.9793 4.79916 15.5918 6.41016 15.5918 8.39746C15.5918 10.3848 13.9793 11.9958 11.9903 11.9958ZM19.2115 7.95938C19.2115 8.72086 18.9157 9.45761 18.3715 9.99067C18.0883 10.2689 17.749 10.4835 17.3762 10.62C17.4002 10.411 17.4123 10.2009 17.4124 9.99058V5.9976H19.2115V7.95938ZM11.9929 5.40406C10.3386 5.40549 8.9985 6.7475 8.99946 8.40182C9.00043 10.0561 10.3421 11.3966 11.9964 11.3961C13.6507 11.3956 14.9915 10.0543 14.9915 8.4C14.9908 6.74465 13.6482 5.40333 11.9929 5.40406ZM13.3788 8.5512L12.294 9.22867L11.2264 9.8952C11.1955 9.91447 11.1567 9.9155 11.1249 9.89789C11.0931 9.88028 11.0733 9.8468 11.0733 9.81046V7.12231C11.0733 7.08596 11.0931 7.05249 11.1249 7.03488C11.1567 7.01727 11.1955 7.0183 11.2264 7.03757L12.2939 7.70422L13.3787 8.38169C13.408 8.39991 13.4258 8.43194 13.4258 8.46642C13.4258 8.50089 13.4081 8.53294 13.3788 8.5512Z" fill="currentColor"/>
</svg>
