<svg width="24" height="24" viewBox="0 0 24 24" fill="currentColor" xmlns="http://www.w3.org/2000/svg">
<path fill-rule="evenodd" clip-rule="evenodd" d="M15.912 1.51196C12.2669 1.51196 9.31199 4.46689 9.31199 8.11196V9.31196H8.11199C4.46692 9.31196 1.51199 12.2669 1.51199 15.912C1.51199 19.557 4.46692 22.512 8.11199 22.512C11.7571 22.512 14.712 19.557 14.712 15.912V14.712H15.912C19.5571 14.712 22.512 11.757 22.512 8.11196C22.512 4.46689 19.5571 1.51196 15.912 1.51196ZM12.912 15.912C12.912 18.5629 10.763 20.712 8.11199 20.712C5.46102 20.712 3.31199 18.5629 3.31199 15.912C3.31199 13.261 5.46102 11.112 8.11199 11.112H12.912V15.912ZM15.912 12.912H14.712V11.112H15.912C17.5688 11.112 18.912 9.76882 18.912 8.11196C18.912 6.45511 17.5688 5.11196 15.912 5.11196C14.2551 5.11196 12.912 6.45511 12.912 8.11196V9.31196H11.112V8.11196C11.112 5.46099 13.261 3.31196 15.912 3.31196C18.563 3.31196 20.712 5.46099 20.712 8.11196C20.712 10.7629 18.563 12.912 15.912 12.912ZM5.11199 15.912C5.11199 17.5688 6.45514 18.912 8.11199 18.912C9.76885 18.912 11.112 17.5688 11.112 15.912C11.112 14.2551 9.76885 12.912 8.11199 12.912C6.45514 12.912 5.11199 14.2551 5.11199 15.912Z" fill="currentColor"/>
</svg>
