<svg width="24" height="24" viewBox="0 0 24 24" fill="currentColor" xmlns="http://www.w3.org/2000/svg">
<path fill-rule="evenodd" clip-rule="evenodd" d="M12 4.19997C15.9889 4.20674 19.3244 7.23363 19.7172 11.2032C20.11 15.1728 17.4324 18.7946 13.5222 19.583C9.61191 20.3714 5.74005 18.0701 4.56398 14.2584C3.38791 10.4468 5.28993 6.3639 8.96461 4.81199C9.92492 4.40585 10.9573 4.1977 12 4.19997ZM12 1.79999C6.36668 1.79999 1.79999 6.36668 1.79999 12C1.79999 17.6333 6.36668 22.2 12 22.2C17.6333 22.2 22.2 17.6333 22.2 12C22.2 6.36668 17.6333 1.79999 12 1.79999ZM9.59999 12.288V8.08799C9.59844 7.852 9.69149 7.62523 9.85836 7.45836C10.0252 7.29149 10.252 7.19844 10.488 7.19997H13.512C13.748 7.19844 13.9747 7.29149 14.1416 7.45836C14.3085 7.62523 14.4015 7.852 14.4 8.08799V12.288H17.088L12.8023 16.4743C12.5904 16.6761 12.3397 16.8 12.024 16.8H11.976C11.6763 16.8003 11.3883 16.6834 11.1737 16.4743L6.88799 12.288H9.59999Z" fill="currentColor"/>
</svg>
