<svg width="24" height="24" viewBox="0 0 24 24" fill="currentColor" xmlns="http://www.w3.org/2000/svg">
<path fill-rule="evenodd" clip-rule="evenodd" d="M8.99592 13.4072C8.84355 13.2551 8.59674 13.2551 8.44438 13.4072C7.78613 14.065 7.41629 14.9574 7.41629 15.888C7.41629 16.8185 7.78613 17.711 8.44438 18.3687C8.59719 18.5174 8.84105 18.5157 8.99185 18.365C9.14264 18.2144 9.14445 17.9705 8.99592 17.8176C8.48396 17.306 8.19632 16.6119 8.19632 15.8881C8.19632 15.1644 8.48396 14.4703 8.99592 13.9587C9.06909 13.8856 9.11019 13.7864 9.11019 13.683C9.11019 13.5795 9.06909 13.4803 8.99592 13.4072ZM6.58404 15.888C6.58099 14.75 7.03348 13.6582 7.84058 12.856C7.99062 12.7033 7.98952 12.4582 7.83812 12.3069C7.68671 12.1556 7.44163 12.1546 7.28904 12.3048C6.33828 13.2549 5.8041 14.5439 5.8041 15.888C5.8041 17.2322 6.33828 18.5212 7.28904 19.4713C7.38751 19.5698 7.53107 19.6084 7.66563 19.5723C7.8002 19.5363 7.90532 19.4313 7.94142 19.2967C7.97751 19.1622 7.93908 19.0186 7.84061 18.9201C7.03348 18.1178 6.58099 17.026 6.58404 15.888ZM4.98 15.888C4.97583 14.3362 5.59285 12.8473 6.69343 11.7534C6.7919 11.6549 6.83033 11.5113 6.79424 11.3768C6.75815 11.2422 6.65302 11.1372 6.51846 11.1012C6.38391 11.0651 6.24036 11.1036 6.14189 11.2022C4.89734 12.444 4.19794 14.1299 4.19794 15.888C4.19794 17.6462 4.89734 19.3321 6.14189 20.5739C6.29414 20.7262 6.54103 20.7262 6.69334 20.574C6.84564 20.4217 6.84568 20.1748 6.69343 20.0225C5.59283 18.9286 4.97581 17.4397 4.98 15.888ZM15.6 3.59998H13.8V13.3538C12.6911 12.9616 11.4558 13.3324 10.7462 14.2704C10.0365 15.2085 10.0157 16.498 10.6947 17.4584C11.3737 18.4189 12.5963 18.8294 13.7173 18.4732C14.8383 18.117 15.5999 17.0762 15.6 15.9V5.99998C17.928 5.99998 18.84 7.63198 19.2 8.39998H19.8C19.8 4.36798 16.968 3.59998 15.6 3.59998Z" fill="currentColor"/>
</svg>
