<svg width="24" height="24" viewBox="0 0 24 24" fill="currentColor" xmlns="http://www.w3.org/2000/svg">
<path fill-rule="evenodd" clip-rule="evenodd" d="M5.40002 21.6073C5.40002 21.7645 5.46245 21.9152 5.57359 22.0264C5.68473 22.1375 5.83548 22.2 5.99266 22.2H10.2356C10.2364 22.2 10.237 22.1995 10.2373 22.1989C10.2376 22.1982 10.2374 22.1974 10.2369 22.1969L8.48131 20.4412C8.48097 20.4408 8.48077 20.4403 8.48077 20.4399C8.48077 20.4394 8.48097 20.4389 8.48131 20.4386L11.3388 17.5809C11.3394 17.5802 11.3394 17.5791 11.3388 17.5784L10.0213 16.2608C10.0206 16.2601 10.0195 16.2601 10.0188 16.2608L7.16131 19.1184C7.16097 19.1187 7.16051 19.1189 7.16003 19.1189C7.15955 19.1189 7.15908 19.1187 7.15875 19.1184L5.40312 17.3626C5.40261 17.3621 5.40182 17.3619 5.40113 17.3622C5.40044 17.3625 5.40002 17.3632 5.40002 17.3639V21.6073ZM16.8387 19.1184L12.6006 14.8807C12.6002 14.8804 12.6 14.8799 12.6 14.8794V10.3554C12.6 10.3546 12.6006 10.3539 12.6013 10.3537C13.9954 9.96534 14.9992 8.72915 15 7.2009C15 7.19989 14.9992 7.19905 14.9982 7.19905H8.40185C8.40084 7.19905 8.40002 7.19989 8.40002 7.2009C8.40084 8.72548 9.41979 9.96184 10.8087 10.3509C10.8095 10.3511 10.81 10.3518 10.81 10.3526V15.3854C10.81 15.6148 10.9011 15.8348 11.0633 15.997L15.5187 20.4386C15.5191 20.4389 15.5193 20.4394 15.5193 20.4399C15.5193 20.4403 15.5191 20.4408 15.5187 20.4412L13.7631 22.1969C13.7626 22.1974 13.7625 22.1982 13.7627 22.1989C13.763 22.1995 13.7637 22.2 13.7644 22.2H18.0192C18.34 22.2 18.6 21.94 18.6 21.6192V17.364C18.6 17.3633 18.5996 17.3626 18.5989 17.3623C18.5982 17.362 18.5975 17.3622 18.5969 17.3627L16.8413 19.1184C16.841 19.1187 16.8405 19.1189 16.84 19.1189C16.8395 19.1189 16.8391 19.1187 16.8387 19.1184ZM14.45 4.79877H13.8018C13.8014 4.79877 13.8009 4.79858 13.8006 4.79825C13.8002 4.79791 13.8 4.79745 13.8 4.79697V2.41513C13.8 2.06233 13.5111 1.77599 13.1592 1.79999C12.8449 1.82239 12.601 2.08345 12.6 2.3986V4.79697C12.6 4.79745 12.5998 4.79791 12.5995 4.79825C12.5991 4.79858 12.5987 4.79877 12.5982 4.79877H10.8018C10.8014 4.79877 10.8009 4.79858 10.8006 4.79825C10.8002 4.79791 10.8 4.79745 10.8 4.79697V2.41513C10.8 2.06233 10.5111 1.77599 10.1592 1.79999C9.84487 1.82239 9.601 2.08345 9.60003 2.3986V4.79697C9.60003 4.79745 9.59983 4.79791 9.59949 4.79825C9.59915 4.79858 9.59868 4.79877 9.5982 4.79877H8.95003C8.64441 4.80162 8.39857 5.05094 8.40002 5.35657V6.59709C8.40002 6.59809 8.40084 6.59891 8.40185 6.59891H14.9982C14.9992 6.59891 15 6.59808 15 6.59709V5.35657C15.0015 5.05095 14.7557 4.80163 14.45 4.79877Z" fill="currentColor"/>
</svg>
