<svg width="24" height="24" viewBox="0 0 24 24" fill="currentColor" xmlns="http://www.w3.org/2000/svg">
<path fill-rule="evenodd" clip-rule="evenodd" d="M21.2798 5.43276C21.1431 5.40114 21.0011 5.40004 20.864 5.42955C20.2744 5.55084 17.7079 5.99957 12 5.99957C6.29215 5.99957 3.72557 5.55077 3.13601 5.42955C2.99886 5.40004 2.85689 5.40114 2.72021 5.43276C2.18161 5.56369 1.80183 6.04521 1.8 6.5995V17.3985C1.80183 17.9528 2.18161 18.4343 2.72021 18.5652C2.85689 18.5969 2.99886 18.598 3.13601 18.5684C3.72557 18.4471 6.29215 17.9984 12 17.9984C18.0421 17.9984 20.2814 18.4208 20.8454 18.5568C21.0241 18.6008 21.2117 18.593 21.3861 18.5343C21.8717 18.3678 22.1984 17.9118 22.2 17.3985V6.5995C22.1982 6.04521 21.8184 5.56369 21.2798 5.43276ZM9.6 8.91351C9.59998 8.72981 9.69796 8.56005 9.85704 8.46819C10.0161 8.37633 10.2121 8.37632 10.3712 8.46816L11.2533 8.97754C10.8836 9.08241 10.6284 9.4199 10.6283 9.80417V13.4348C10.6283 13.6185 10.5304 13.7883 10.3713 13.8802C10.2123 13.9721 10.0163 13.9721 9.85719 13.8803C9.69809 13.7885 9.60005 13.6188 9.6 13.4351V8.91351ZM14.2863 13.269L10.3712 15.5298C10.2121 15.6217 10.0161 15.6216 9.85702 15.5298C9.69794 15.4379 9.6 15.2681 9.6 15.0844V14.0657C9.87559 14.3335 10.2954 14.3857 10.6283 14.1937L13.7723 12.3782C14.0182 12.2361 14.3323 12.3206 14.4743 12.5665C14.6164 12.8124 14.5322 13.127 14.2863 13.269ZM15.7143 12.4443L14.8322 12.9537C14.9263 12.5811 14.7616 12.1914 14.429 11.999L11.285 10.1835C11.0408 10.0407 10.9582 9.72781 11.0996 9.48283C11.2409 9.23786 11.5535 9.153 11.7993 9.2929L15.7144 11.5537C15.8734 11.6456 15.9714 11.8153 15.9714 11.999C15.9714 12.1827 15.8733 12.3525 15.7143 12.4443Z" fill="currentColor"/>
</svg>
