<svg width="24" height="24" viewBox="0 0 24 24" fill="currentColor" xmlns="http://www.w3.org/2000/svg">
<path fill-rule="evenodd" clip-rule="evenodd" d="M21.0524 12.992C21.1507 12.5345 21.2001 12.0679 21.2 11.6C21.2 7.95493 18.2451 5 14.6 5C12.603 4.99821 10.713 5.90249 9.46136 7.45861C8.70979 7.29947 7.926 7.46779 7.30604 7.92147C6.68607 8.37516 6.28855 9.07131 6.21289 9.83581C3.8389 10.1253 2 12.1478 2 14.6C2 17.251 4.14903 19.4 6.8 19.4H18.8C20.3279 19.3999 21.6893 18.4353 22.1959 16.9938C22.7026 15.5524 22.2442 13.9481 21.0524 12.992ZM14.6 13.4V17C14.6 17.3314 14.3314 17.6 14 17.6H11.6C11.2686 17.6 11 17.3314 11 17V13.4H8.6L12.3757 9.62428C12.4882 9.51175 12.6409 9.44853 12.8 9.44853C12.9591 9.44853 13.1117 9.51175 13.2243 9.62428L17 13.4H14.6Z" fill="currentColor"/>
</svg>
