<svg width="24" height="24" viewBox="0 0 24 24" fill="currentColor" xmlns="http://www.w3.org/2000/svg">
<path fill-rule="evenodd" clip-rule="evenodd" d="M15.6462 5.93751C15.6462 8.1121 13.8794 9.875 11.7 9.875C9.52061 9.875 7.75385 8.1121 7.75385 5.93751C7.75385 3.76292 9.52061 2 11.7 2C13.8794 2 15.6462 3.7629 15.6462 5.93751ZM14.8605 9.57274C13.0458 11.1424 10.3542 11.1424 8.53949 9.57274C6.97618 10.4098 6.00025 12.0392 6 13.8125V17.3125C6 20.4536 8.55199 23 11.7 23C14.848 23 17.4 20.4536 17.4 17.3125V13.8125C17.3998 12.0392 16.4238 10.4098 14.8605 9.57274ZM12.091 14.0576C12.0901 14.9263 11.3853 15.6299 10.5166 15.6293C9.64783 15.6287 8.94399 14.9241 8.9443 14.0554C8.94461 13.1867 9.64895 12.4826 10.5177 12.4826C11.3871 12.4831 12.0915 13.1882 12.091 14.0576ZM11.8805 15.6521C11.1042 16.3196 9.9588 16.3268 9.17434 15.6689C8.55549 16.0277 8.17471 16.6891 8.17511 17.4044V18.8627C8.17242 19.7103 8.62304 20.4946 9.35661 20.9192C10.0902 21.3438 10.9948 21.3438 11.7283 20.9192C12.4619 20.4946 12.9125 19.7103 12.9098 18.8627V17.4044C12.9102 16.6767 12.5162 16.0061 11.8805 15.6521Z" fill="currentColor"/>
</svg>
