<svg width="24" height="24" viewBox="0 0 24 24" fill="currentColor" xmlns="http://www.w3.org/2000/svg">
<path fill-rule="evenodd" clip-rule="evenodd" d="M19.8 4.2H10.2V19.8H19.8C20.7929 19.7971 21.5971 18.9929 21.6 18V6C21.5971 5.00709 20.7929 4.2029 19.8 4.2ZM2.39999 6V18C2.40289 18.9929 3.20708 19.7971 4.19999 19.8V4.2C3.20708 4.2029 2.40289 5.00709 2.39999 6ZM5.99999 3H8.39999C9.06274 3 9.59999 3.53726 9.59999 4.2V19.8C9.59999 20.4627 9.06274 21 8.39999 21H5.99999C5.33725 21 4.79999 20.4627 4.79999 19.8V4.2C4.79999 3.53726 5.33725 3 5.99999 3ZM12.6 6H19.2C19.5314 6 19.8 6.26863 19.8 6.6V8.4C19.8 8.73137 19.5314 9 19.2 9H12.6C12.2686 9 12 8.73137 12 8.4V6.6C12 6.26863 12.2686 6 12.6 6ZM18.6 10.8H19.2C19.5314 10.8 19.8 11.0686 19.8 11.4V12C19.8 12.3314 19.5314 12.6 19.2 12.6H18.6C18.2686 12.6 18 12.3314 18 12V11.4C18 11.0686 18.2686 10.8 18.6 10.8ZM18.6 13.2H19.2C19.5314 13.2 19.8 13.4686 19.8 13.8V14.4C19.8 14.7314 19.5314 15 19.2 15H18.6C18.2686 15 18 14.7314 18 14.4V13.8C18 13.4686 18.2686 13.2 18.6 13.2ZM18.6 15.6H19.2C19.5314 15.6 19.8 15.8686 19.8 16.2V16.8C19.8 17.1314 19.5314 17.4 19.2 17.4H18.6C18.2686 17.4 18 17.1314 18 16.8V16.2C18 15.8686 18.2686 15.6 18.6 15.6ZM15.6 10.8H16.2C16.5314 10.8 16.8 11.0686 16.8 11.4V12C16.8 12.3314 16.5314 12.6 16.2 12.6H15.6C15.2686 12.6 15 12.3314 15 12V11.4C15 11.0686 15.2686 10.8 15.6 10.8ZM15.6 13.2H16.2C16.5314 13.2 16.8 13.4686 16.8 13.8V14.4C16.8 14.7314 16.5314 15 16.2 15H15.6C15.2686 15 15 14.7314 15 14.4V13.8C15 13.4686 15.2686 13.2 15.6 13.2ZM15.6 15.6H16.2C16.5314 15.6 16.8 15.8686 16.8 16.2V16.8C16.8 17.1314 16.5314 17.4 16.2 17.4H15.6C15.2686 17.4 15 17.1314 15 16.8V16.2C15 15.8686 15.2686 15.6 15.6 15.6ZM12.6 10.8H13.2C13.5314 10.8 13.8 11.0686 13.8 11.4V12C13.8 12.3314 13.5314 12.6 13.2 12.6H12.6C12.2686 12.6 12 12.3314 12 12V11.4C12 11.0686 12.2686 10.8 12.6 10.8ZM12.6 13.2H13.2C13.5314 13.2 13.8 13.4686 13.8 13.8V14.4C13.8 14.7314 13.5314 15 13.2 15H12.6C12.2686 15 12 14.7314 12 14.4V13.8C12 13.4686 12.2686 13.2 12.6 13.2ZM12.6 15.6H13.2C13.5314 15.6 13.8 15.8686 13.8 16.2V16.8C13.8 17.1314 13.5314 17.4 13.2 17.4H12.6C12.2686 17.4 12 17.1314 12 16.8V16.2C12 15.8686 12.2686 15.6 12.6 15.6Z" fill="currentColor"/>
</svg>
