<svg width="24" height="24" viewBox="0 0 24 24" fill="currentColor" xmlns="http://www.w3.org/2000/svg">
<path fill-rule="evenodd" clip-rule="evenodd" d="M7.83579 7.09341C7.95591 7.08497 8.07386 7.05701 8.18499 7.01061C8.28899 6.96799 8.3806 6.8999 8.45139 6.81261C8.52091 6.72621 8.55571 6.61101 8.55579 6.46701C8.55579 6.25101 8.48379 6.08541 8.33979 5.97021C8.19949 5.85629 8.0237 5.79515 7.84299 5.79741C7.58379 5.79741 7.38819 5.88261 7.25619 6.05301C7.12419 6.22341 7.06059 6.43821 7.06539 6.69741H6.09339C6.09963 6.45476 6.14711 6.21493 6.23379 5.98821C6.3127 5.78252 6.43275 5.5951 6.58659 5.43741C6.74082 5.28183 6.92602 5.16041 7.13019 5.08101C7.35523 4.99451 7.59471 4.95175 7.83579 4.95501C8.04068 4.95552 8.24442 4.98584 8.44059 5.04501C8.63632 5.10218 8.82037 5.19359 8.98419 5.31501C9.14341 5.43329 9.27691 5.58272 9.37659 5.75421C9.47977 5.9362 9.532 6.14264 9.52779 6.35181C9.52779 6.59661 9.46899 6.81261 9.35139 6.99981C9.23379 7.18701 9.05739 7.31421 8.82219 7.38141V7.39581C9.10059 7.45821 9.31899 7.59261 9.47739 7.79901C9.63579 8.00541 9.71499 8.25261 9.71499 8.54061C9.71499 8.80461 9.66339 9.03981 9.56019 9.24621C9.46145 9.44701 9.32018 9.62391 9.14619 9.76461C8.96843 9.90647 8.76576 10.0139 8.54859 10.0814C8.06583 10.2302 7.54875 10.2252 7.06899 10.067C6.84762 9.9924 6.64499 9.87082 6.47499 9.71061C6.30853 9.54984 6.17947 9.35442 6.09699 9.13821C6.00809 8.91261 5.96609 8.65341 5.97099 8.36061H6.94299C6.94708 8.49135 6.96888 8.62093 7.00779 8.74581C7.04235 8.86097 7.09855 8.96849 7.17339 9.06261C7.24663 9.15245 7.33883 9.22498 7.44339 9.27501C7.56403 9.33054 7.69582 9.35764 7.82859 9.35421C8.05899 9.35421 8.25339 9.28341 8.41179 9.14181C8.57019 9.00021 8.64939 8.80701 8.64939 8.56221C8.64939 8.37021 8.61219 8.22381 8.53779 8.12301C8.46587 8.02418 8.36719 7.94799 8.25339 7.90341C8.13253 7.85663 8.00486 7.82988 7.87539 7.82421C7.73859 7.81701 7.60779 7.81341 7.48299 7.81341V7.09341C7.60039 7.10309 7.71839 7.10309 7.83579 7.09341ZM11.6194 7.55781C11.5195 7.60551 11.432 7.67576 11.3638 7.76301C11.2951 7.85223 11.2438 7.9536 11.2126 8.06181C11.1786 8.17753 11.1616 8.29759 11.1622 8.41821C11.1623 8.53432 11.1805 8.6497 11.2162 8.76021C11.2504 8.8697 11.3041 8.97214 11.3746 9.06261C11.4435 9.15096 11.5307 9.22341 11.6302 9.27501C11.7372 9.32929 11.8558 9.35649 11.9758 9.35421C12.09 9.35684 12.203 9.32953 12.3034 9.27501C12.3969 9.22223 12.479 9.15123 12.5446 9.06621C12.6127 8.97794 12.664 8.87787 12.6958 8.77101C12.7292 8.66132 12.7462 8.54728 12.7462 8.43261C12.7464 8.31463 12.7307 8.19716 12.6994 8.08341C12.6702 7.97531 12.6228 7.87302 12.559 7.78101C12.4959 7.69172 12.4135 7.61788 12.3178 7.56501C12.2129 7.50823 12.095 7.4797 11.9758 7.48221C11.8528 7.47974 11.7308 7.5056 11.6194 7.55781ZM12.4798 5.91261C12.3643 5.78973 12.202 5.72169 12.0334 5.72541C11.8509 5.72541 11.6985 5.77941 11.5762 5.88741C11.4523 5.99748 11.3529 6.13241 11.2846 6.28341C11.2114 6.44305 11.1582 6.61112 11.1262 6.78381C11.095 6.94052 11.0757 7.09938 11.0686 7.25901L11.083 7.27341C11.2222 7.07181 11.3854 6.92781 11.5726 6.84141C11.7598 6.75501 11.9758 6.71181 12.2206 6.71181C12.4394 6.71244 12.6556 6.76033 12.8542 6.85221C13.0535 6.94074 13.2324 7.06942 13.3798 7.23021C13.5136 7.383 13.6142 7.562 13.675 7.75581C13.7368 7.949 13.7683 8.15058 13.7686 8.35341C13.7707 8.60024 13.728 8.84542 13.6426 9.07701C13.5627 9.29347 13.4403 9.49176 13.2826 9.66021C13.1252 9.82673 12.9353 9.95908 12.7246 10.049C12.4968 10.1449 12.2517 10.1927 12.0046 10.1894C11.6254 10.1894 11.311 10.1138 11.0614 9.96261C10.8167 9.81635 10.6115 9.61242 10.4638 9.36861C10.3108 9.1126 10.2058 8.83076 10.1542 8.53701C10.0963 8.22473 10.0674 7.90779 10.0678 7.59021C10.0681 7.27512 10.1044 6.9611 10.1758 6.65421C10.2426 6.35479 10.3595 6.06879 10.5214 5.80821C10.6764 5.55955 10.8856 5.34912 11.1334 5.19261C11.3829 5.03421 11.6877 4.95501 12.0478 4.95501C12.2531 4.95337 12.4574 4.98498 12.6526 5.04861C12.8333 5.10751 13.0017 5.19902 13.1494 5.31861C13.2952 5.43849 13.4152 5.58667 13.5022 5.75421C13.5976 5.94098 13.6586 6.14341 13.6822 6.35181H12.7102C12.6777 6.18613 12.5976 6.03351 12.4798 5.91261ZM15.1798 8.07621C15.1887 8.27565 15.2188 8.47357 15.2698 8.66661C15.3141 8.84415 15.3964 9.00996 15.511 9.15261C15.6214 9.28701 15.7798 9.35421 15.9862 9.35421C16.1974 9.35421 16.3594 9.28701 16.4722 9.15261C16.5888 9.01074 16.6724 8.84474 16.717 8.66661C16.7679 8.47357 16.7981 8.27565 16.807 8.07621C16.8166 7.87226 16.8214 7.69825 16.8214 7.55421C16.8214 7.46781 16.8202 7.36341 16.8178 7.24101C16.8151 7.11458 16.8054 6.98839 16.789 6.86301C16.7722 6.73337 16.7481 6.60478 16.717 6.47781C16.6884 6.35716 16.6411 6.24175 16.5766 6.13581C16.5166 6.03754 16.4355 5.95391 16.339 5.89101C16.243 5.82861 16.1254 5.79741 15.9862 5.79741C15.847 5.79741 15.7306 5.82861 15.637 5.89101C15.5427 5.95416 15.464 6.03785 15.4066 6.13581C15.3441 6.24268 15.2968 6.3578 15.2662 6.47781C15.2328 6.60426 15.2087 6.73301 15.1942 6.86301C15.1798 6.99261 15.1714 7.11861 15.169 7.24101C15.1666 7.36341 15.1654 7.46781 15.1654 7.55421C15.1654 7.69821 15.1702 7.87221 15.1798 8.07621ZM14.2906 6.31941C14.3889 5.98585 14.5221 5.71825 14.6902 5.51661C14.8453 5.32444 15.0474 5.17563 15.277 5.08461C15.5033 4.99764 15.7438 4.95368 15.9862 4.95496C16.231 4.95326 16.4739 4.99721 16.7026 5.08461C16.9329 5.17615 17.1361 5.32482 17.293 5.51661C17.4633 5.71821 17.5977 5.98581 17.6962 6.31941C17.7947 6.65301 17.8439 7.06461 17.8438 7.55421C17.8438 8.05821 17.7946 8.47941 17.6962 8.81781C17.5978 9.15621 17.4634 9.42621 17.293 9.62781C17.1361 9.8196 16.9329 9.96827 16.7026 10.0598C16.4739 10.1472 16.231 10.1912 15.9862 10.1895C15.7438 10.1907 15.5033 10.1468 15.277 10.0598C15.0474 9.96878 14.8453 9.81997 14.6902 9.62781C14.5222 9.42621 14.389 9.15621 14.2906 8.81781C14.1922 8.47941 14.143 8.05821 14.143 7.55421C14.143 7.06461 14.1922 6.65301 14.2906 6.31941ZM5.62935 9.37854C3.29504 10.2038 1.8 11.4726 1.8 12.8955C1.8 15.2937 6.04601 17.2539 11.4 17.391V19.2001L13.5797 17.0637C13.7286 16.918 13.8126 16.7185 13.8126 16.5101C13.8126 16.3018 13.7286 16.1023 13.5797 15.9566L11.4 13.8202V15.604C6.7842 15.4955 3.13601 14.15 3.13601 12.5061C3.13601 11.841 4.37153 10.9517 6.31414 10.2952C6.0205 10.0444 5.78655 9.73126 5.62935 9.37854ZM18.178 9.31206C18.0111 9.66487 17.7667 9.97542 17.463 10.2205C19.536 10.8829 20.8683 11.8155 20.8683 12.506C20.8683 13.9276 18.1405 15.126 14.418 15.4944L14.7671 15.8365C14.916 15.9821 15 16.1817 15 16.39C15 16.5983 14.916 16.7979 14.7671 16.9435L14.4343 17.2697C18.8922 16.7878 22.2 15.0122 22.2 12.8955C22.2 11.4338 20.6224 10.1348 18.178 9.31206Z" fill="currentColor"/>
</svg>
