<svg width="24" height="24" viewBox="0 0 24 24" fill="currentColor" xmlns="http://www.w3.org/2000/svg">
<path fill-rule="evenodd" clip-rule="evenodd" d="M20.4 16.2H19.8V8.99995C19.8 8.33721 19.2627 7.79995 18.6 7.79995H16.2V7.19995H17.4C17.731 7.19899 17.999 6.93092 18 6.59995V4.79995C17.999 4.46898 17.731 4.20091 17.4 4.19995H13.2C12.869 4.20091 12.601 4.46898 12.6 4.79995V6.59995C12.601 6.93092 12.869 7.19899 13.2 7.19995H14.4V7.79995H9.6V5.99995L9 6.42852L8.4 5.99995L7.8 6.42852L7.2 5.99995V7.79995H5.4C4.73726 7.79995 4.2 8.33721 4.2 8.99995V16.2H3.6C3.26903 16.2009 3.00096 16.469 3 16.8V19.2C3.00096 19.5309 3.26903 19.799 3.6 19.8H20.4C20.731 19.799 20.999 19.5309 21 19.2V16.8C20.999 16.469 20.731 16.2009 20.4 16.2ZM13.2 6.59995V4.79995H17.4V6.59995H13.2ZM4.8 8.99995C4.8 8.66858 5.06863 8.39995 5.4 8.39995H7.2V10.2H6.6V10.8H10.2V10.2H9.6V8.39995H18.6C18.9314 8.39995 19.2 8.66858 19.2 8.99995V16.2H4.8V8.99995ZM12 18.6C11.6686 18.6 11.4 18.3313 11.4 18C11.4 17.6686 11.6686 17.4 12 17.4C12.3314 17.4 12.6 17.6686 12.6 18C12.6 18.3313 12.3314 18.6 12 18.6ZM17.4 9.59995H13.2C12.869 9.60091 12.601 9.86898 12.6 10.2V11.4C12.601 11.7309 12.869 11.999 13.2 12H17.4C17.731 11.999 17.999 11.7309 18 11.4V10.2C17.999 9.86898 17.731 9.60091 17.4 9.59995ZM17.1 12.6C16.9343 12.6 16.8 12.7343 16.8 12.9C16.8 13.0656 16.9343 13.2 17.1 13.2C17.2657 13.2 17.4 13.0656 17.4 12.9C17.3995 12.7345 17.2655 12.6004 17.1 12.6ZM15.9 12.6C15.7343 12.6 15.6 12.7343 15.6 12.9C15.6 13.0656 15.7343 13.2 15.9 13.2C16.0657 13.2 16.2 13.0656 16.2 12.9C16.1995 12.7345 16.0655 12.6004 15.9 12.6ZM14.7 12.6C14.5343 12.6 14.4 12.7343 14.4 12.9C14.4 13.0656 14.5343 13.2 14.7 13.2C14.8657 13.2 15 13.0656 15 12.9C14.9995 12.7345 14.8655 12.6004 14.7 12.6ZM17.1 13.8C16.9343 13.8 16.8 13.9343 16.8 14.1C16.8 14.2656 16.9343 14.4 17.1 14.4C17.2657 14.4 17.4 14.2656 17.4 14.1C17.3995 13.9345 17.2655 13.8004 17.1 13.8ZM15.9 13.8C15.7343 13.8 15.6 13.9343 15.6 14.1C15.6 14.2656 15.7343 14.4 15.9 14.4C16.0657 14.4 16.2 14.2656 16.2 14.1C16.1995 13.9345 16.0655 13.8004 15.9 13.8ZM14.7 13.8C14.5343 13.8 14.4 13.9343 14.4 14.1C14.4 14.2656 14.5343 14.4 14.7 14.4C14.8657 14.4 15 14.2656 15 14.1C14.9995 13.9345 14.8655 13.8004 14.7 13.8ZM17.1 15C16.9343 15 16.8 15.1343 16.8 15.3C16.8 15.4656 16.9343 15.6 17.1 15.6C17.2657 15.6 17.4 15.4656 17.4 15.3C17.3995 15.1345 17.2655 15.0004 17.1 15ZM15.9 15C15.7343 15 15.6 15.1343 15.6 15.3C15.6 15.4656 15.7343 15.6 15.9 15.6C16.0657 15.6 16.2 15.4656 16.2 15.3C16.1995 15.1345 16.0655 15.0004 15.9 15ZM14.7 15C14.5343 15 14.4 15.1343 14.4 15.3C14.4 15.4656 14.5343 15.6 14.7 15.6C14.8657 15.6 15 15.4656 15 15.3C14.9995 15.1345 14.8655 15.0004 14.7 15ZM13.5 12.6C13.3343 12.6 13.2 12.7343 13.2 12.9C13.2 13.0656 13.3343 13.2 13.5 13.2C13.6657 13.2 13.8 13.0656 13.8 12.9C13.7995 12.7345 13.6655 12.6004 13.5 12.6ZM13.5 13.8C13.3343 13.8 13.2 13.9343 13.2 14.1C13.2 14.2656 13.3343 14.4 13.5 14.4C13.6657 14.4 13.8 14.2656 13.8 14.1C13.7995 13.9345 13.6655 13.8004 13.5 13.8ZM13.5 15C13.3343 15 13.2 15.1343 13.2 15.3C13.2 15.4656 13.3343 15.6 13.5 15.6C13.6657 15.6 13.8 15.4656 13.8 15.3C13.7995 15.1345 13.6655 15.0004 13.5 15Z" fill="currentColor"/>
</svg>
