<svg width="24" height="24" viewBox="0 0 24 24" fill="currentColor" xmlns="http://www.w3.org/2000/svg">
<path fill-rule="evenodd" clip-rule="evenodd" d="M15.6 17.4H15.528L18.6 22.2H16.8L15.264 19.8H8.71198L7.17598 22.2H5.37598L8.44798 17.4H8.39998C7.07449 17.4 5.99998 16.3255 5.99998 15L6.52798 5.4C6.52798 4.07452 7.60249 3 8.92798 3H14.952C16.2775 3 17.352 4.07452 17.352 5.4L18 15C18 16.3255 16.9255 17.4 15.6 17.4ZM9.47998 18.6H14.496L13.728 17.4H10.248L9.47998 18.6ZM9.07198 6.6H14.904C15.5667 6.6 16.104 7.13726 16.104 7.8L16.2 9.6C16.2 10.2627 15.6627 10.8 15 10.8H8.99998C8.33723 10.8 7.79998 10.2627 7.79998 9.6L7.87198 7.8C7.87198 7.13726 8.40923 6.6 9.07198 6.6ZM10.8 4.2H13.2C13.5313 4.2 13.8 4.46863 13.8 4.8C13.8 5.13137 13.5313 5.4 13.2 5.4H10.8C10.4686 5.4 10.2 5.13137 10.2 4.8C10.2 4.46863 10.4686 4.2 10.8 4.2ZM8.99998 13.8C9.66272 13.8 10.2 14.3373 10.2 15C10.2 15.6627 9.66272 16.2 8.99998 16.2C8.33723 16.2 7.79998 15.6627 7.79998 15C7.79998 14.3373 8.33723 13.8 8.99998 13.8ZM15 13.8C15.6627 13.8 16.2 14.3373 16.2 15C16.2 15.6627 15.6627 16.2 15 16.2C14.3372 16.2 13.8 15.6627 13.8 15C13.8 14.3373 14.3372 13.8 15 13.8Z" fill="currentColor"/>
</svg>
