<svg width="24" height="24" viewBox="0 0 24 24" fill="currentColor" xmlns="http://www.w3.org/2000/svg">
<path fill-rule="evenodd" clip-rule="evenodd" d="M12 1.80005C6.36668 1.80005 1.79999 6.36674 1.79999 12C1.79999 17.6334 6.36668 22.2001 12 22.2001C17.6333 22.2001 22.2 17.6334 22.2 12C22.2 6.36674 17.6333 1.80005 12 1.80005ZM4.19997 12C4.19762 9.15331 5.74678 6.53151 8.24148 5.16024C10.7362 3.78897 13.7799 3.88617 16.182 5.41382L5.41376 16.1821C4.61837 14.9325 4.19719 13.4813 4.19997 12ZM19.188 15.0354C18.2963 17.1505 16.5181 18.7654 14.327 19.4496C12.136 20.1339 9.75483 19.818 7.81794 18.5863L18.5862 7.818C19.9558 9.98037 20.1806 12.6761 19.188 15.0354Z" fill="currentColor"/>
</svg>
