<svg width="24" height="24" viewBox="0 0 24 24" fill="currentColor" xmlns="http://www.w3.org/2000/svg">
<g clip-path="url(#clip0_98_874)">
<path d="M17.6912 6.35294C16.6998 6.35143 15.7257 6.61213 14.8676 7.1086C14.3174 6.7902 13.7171 6.56764 13.0923 6.45044V4.4356C13.0922 4.37155 13.1308 4.31378 13.1899 4.28927C13.2491 4.26477 13.3172 4.27837 13.3624 4.32373L14.1083 5.06965C14.5218 5.48314 15.1923 5.48314 15.6057 5.06965C16.0192 4.65615 16.0192 3.98574 15.6057 3.57224L12.0335 0L8.46128 3.57222C8.04779 3.98571 8.04779 4.65612 8.46128 5.06962C8.87478 5.48311 9.54519 5.48311 9.95869 5.06962L10.7046 4.32373C10.7498 4.27837 10.8179 4.26477 10.8771 4.28927C10.9362 4.31378 10.9748 4.37155 10.9747 4.4356V6.45442C10.3575 6.57269 9.76451 6.79383 9.22059 7.1086C8.36252 6.61213 7.3884 6.35143 6.39706 6.35294C3.27827 6.35294 0.75 8.88121 0.75 12C0.75 15.1188 3.27827 17.6471 6.39706 17.6471C7.3884 17.6486 8.36252 17.3879 9.22059 16.8914C9.76452 17.2061 10.3575 17.4272 10.9747 17.5454V19.4886C10.9747 19.5619 10.9456 19.6321 10.8939 19.6839C10.8421 19.7356 10.7719 19.7647 10.6987 19.7647H9.91585C9.33108 19.7647 8.85703 20.2388 8.85703 20.8235C8.85703 21.4083 9.33108 21.8824 9.91585 21.8824H10.6987C10.7719 21.8823 10.8421 21.9114 10.8938 21.9632C10.9456 22.0149 10.9747 22.0852 10.9747 22.1584V22.9412C10.9747 23.5259 11.4487 24 12.0335 24C12.6183 24 13.0923 23.5259 13.0923 22.9412V22.1584C13.0923 22.0851 13.1214 22.0149 13.1732 21.9632C13.2249 21.9114 13.2951 21.8823 13.3684 21.8824H14.1512C14.7359 21.8824 15.21 21.4083 15.21 20.8235C15.21 20.2388 14.7359 19.7647 14.1512 19.7647H13.3684C13.2159 19.7647 13.0924 19.6411 13.0924 19.4887V17.5495C13.7171 17.4323 14.3175 17.2098 14.8676 16.8914C15.7257 17.3879 16.6998 17.6486 17.6912 17.6471C20.81 17.6471 23.3382 15.1188 23.3382 12C23.3382 8.88121 20.81 6.35294 17.6912 6.35294ZM21.7726 10.8656L18.8256 7.91859C20.2559 8.31761 21.3736 9.43527 21.7726 10.8656ZM13.6333 15.9267C13.3733 16.0321 13.1034 16.1111 12.8276 16.1627C12.3074 16.2599 11.7736 16.2595 11.2535 16.1613C9.05401 15.7452 7.55737 13.6903 7.83618 11.4692C8.11499 9.2481 10.0731 7.62684 12.3072 7.76729C14.5413 7.90774 16.281 9.76147 16.2794 12C16.2794 12.0035 16.2794 12.0071 16.2794 12.0106C16.2789 12.2992 16.2489 12.587 16.19 12.8695C16.0897 13.3493 15.9065 13.808 15.6486 14.2248C15.1743 14.9915 14.4685 15.5875 13.6333 15.9267ZM16.1023 15.9263C16.1514 15.8755 16.1996 15.8239 16.2468 15.7714L16.5567 16.0814C16.4024 16.0384 16.2507 15.9866 16.1023 15.9263ZM17.6912 16.2353C17.6803 16.2353 17.6694 16.235 17.6586 16.2349L16.6671 15.2434C16.7993 15.0552 16.92 14.8592 17.0283 14.6563L18.525 16.153C18.2505 16.2078 17.9712 16.2354 17.6912 16.2353ZM19.2567 15.9364L17.3247 14.0043C17.4148 13.7673 17.4888 13.5244 17.5461 13.2774L19.8896 15.6209C19.6878 15.7436 19.4761 15.8491 19.2567 15.9364ZM20.4394 15.2224L17.6728 12.4558C17.6848 12.3054 17.6909 12.1535 17.6912 12C17.6912 11.8328 17.6835 11.6674 17.6692 11.5039L20.9135 14.7481C20.7682 14.9184 20.6096 15.077 20.4394 15.2224ZM21.3118 14.1983L17.4385 10.3249C17.1757 9.47994 16.7179 8.70867 16.102 8.07332C16.1099 8.07013 16.1177 8.06677 16.1256 8.06363L21.6275 13.5656C21.5402 13.7849 21.4345 13.9966 21.3118 14.1983ZM16.8573 7.84698C17.1319 7.79219 17.4112 7.76463 17.6912 7.76471C17.7021 7.76471 17.7129 7.76504 17.7238 7.76513L21.926 11.9674C21.926 11.9783 21.9265 11.9891 21.9265 12C21.9266 12.28 21.899 12.5593 21.8442 12.8339L16.8573 7.84698ZM13.8404 10.1647H10.2337C9.86952 10.1658 9.57458 10.4607 9.57353 10.8249V10.9163C9.57458 11.2805 9.86952 11.5754 10.2337 11.5765H13.8404C14.2046 11.5754 14.4995 11.2805 14.5006 10.9163V10.8249C14.4995 10.4607 14.2046 10.1658 13.8404 10.1647ZM13.8404 12.4235H10.2337C9.86952 12.4246 9.5746 12.7196 9.57353 13.0837V13.1751C9.5746 13.5393 9.86952 13.8342 10.2337 13.8353H13.8404C14.2046 13.8342 14.4995 13.5393 14.5006 13.1751V13.0837C14.4995 12.7195 14.2046 12.4246 13.8404 12.4235Z" fill="currentColor"/>
</g>
<defs>
<clipPath id="clip0_98_874">
<rect width="24" height="24" fill="currentColor"/>
</clipPath>
</defs>
</svg>
