<svg width="24" height="24" viewBox="0 0 24 24" fill="currentColor" xmlns="http://www.w3.org/2000/svg">
<path fill-rule="evenodd" clip-rule="evenodd" d="M1.8 4.79999V17.28H5.4V19.2H18.6V17.28H22.2V4.79999H1.8ZM12 18.12C11.6024 18.12 11.28 17.7976 11.28 17.4C11.28 17.0023 11.6024 16.68 12 16.68C12.3976 16.68 12.72 17.0023 12.72 17.4C12.72 17.7976 12.3976 18.12 12 18.12ZM20.76 15.84H3.24V6.23999H20.76V15.84ZM6.72 9.35999H4.8V7.43999H6.72V9.35999ZM18.24 7.43999H8.64C8.10981 7.43999 7.68 7.86979 7.68 8.39999C7.68 8.93018 8.10981 9.35999 8.64 9.35999H18.24C18.7702 9.35999 19.2 8.93018 19.2 8.39999C19.2 7.86979 18.7702 7.43999 18.24 7.43999ZM17.52 8.87999H8.64C8.37491 8.87999 8.16 8.66508 8.16 8.39999C8.16 8.13489 8.37491 7.91999 8.64 7.91999H17.52C17.7851 7.91999 18 8.13489 18 8.39999C18 8.66508 17.7851 8.87999 17.52 8.87999ZM6.72 12H4.8V10.08H6.72V12ZM6.72 14.64H4.8V12.72H6.72V14.64ZM18.24 10.08H8.64C8.10981 10.08 7.68 10.5098 7.68 11.04C7.68 11.5702 8.10981 12 8.64 12H18.24C18.7702 12 19.2 11.5702 19.2 11.04C19.2 10.5098 18.7702 10.08 18.24 10.08ZM11.76 11.52H8.64C8.37491 11.52 8.16 11.3051 8.16 11.04C8.16 10.7749 8.37491 10.56 8.64 10.56H11.76C12.0251 10.56 12.24 10.7749 12.24 11.04C12.24 11.3051 12.0251 11.52 11.76 11.52ZM18.24 11.52H13.92C13.6549 11.52 13.44 11.3051 13.44 11.04C13.44 10.7749 13.6549 10.56 13.92 10.56H18.24C18.5051 10.56 18.72 10.7749 18.72 11.04C18.72 11.3051 18.5051 11.52 18.24 11.52ZM18.24 12.72H8.64C8.10981 12.72 7.68 13.1498 7.68 13.68C7.68 14.2102 8.10981 14.64 8.64 14.64H18.24C18.7702 14.64 19.2 14.2102 19.2 13.68C19.2 13.1498 18.7702 12.72 18.24 12.72ZM13.2 14.16H8.64C8.37491 14.16 8.16 13.9451 8.16 13.68C8.16 13.4149 8.37491 13.2 8.64 13.2H13.2C13.4651 13.2 13.68 13.4149 13.68 13.68C13.68 13.9451 13.4651 14.16 13.2 14.16ZM18.24 14.16H15.36C15.0949 14.16 14.88 13.9451 14.88 13.68C14.88 13.4149 15.0949 13.2 15.36 13.2H18.24C18.5051 13.2 18.72 13.4149 18.72 13.68C18.72 13.9451 18.5051 14.16 18.24 14.16Z" fill="currentColor"/>
</svg>
