<svg width="24" height="24" viewBox="0 0 24 24" fill="currentColor" xmlns="http://www.w3.org/2000/svg">
<path fill-rule="evenodd" clip-rule="evenodd" d="M13.1409 10.106V9.2V8.6V7.4V6.90678H10.4591V10.106L10.367 10.2631L8.99308 12.6056H11.5777C11.6701 12.411 11.8144 12.2456 11.9945 12.1275C12.0027 12.1221 12.0109 12.117 12.0192 12.1119C12.0565 12.0886 12.0951 12.0674 12.1348 12.0485C12.154 12.0393 12.1738 12.0308 12.1933 12.0228C12.1998 12.0201 12.2065 12.0178 12.213 12.0152C12.2261 12.0101 12.2392 12.005 12.2524 12.0004C12.2603 11.9977 12.2681 11.9953 12.276 11.9927C12.288 11.9888 12.3 11.9849 12.3122 11.9814C12.3205 11.979 12.3289 11.9768 12.3372 11.9746C12.3489 11.9714 12.3607 11.9684 12.3724 11.9657C12.381 11.9637 12.3895 11.9618 12.3981 11.96C12.4097 11.9576 12.4214 11.9553 12.4331 11.9533C12.4417 11.9517 12.4502 11.9503 12.4588 11.9489C12.4706 11.9471 12.4825 11.9455 12.4943 11.9441C12.5027 11.9431 12.5111 11.942 12.5195 11.9412C12.5318 11.9399 12.544 11.939 12.5562 11.9382C12.5642 11.9376 12.5722 11.937 12.5801 11.9366C12.5934 11.9359 12.6068 11.9357 12.6201 11.9355C12.6273 11.9355 12.6343 11.9351 12.6414 11.9351C12.645 11.9351 12.6486 11.9352 12.6521 11.9353C12.6658 11.9355 12.6795 11.9359 12.6931 11.9365C12.698 11.9367 12.7029 11.937 12.7078 11.9373C12.7228 11.9382 12.7378 11.9394 12.7527 11.9408C12.7546 11.941 12.7566 11.9411 12.7586 11.9414C12.7754 11.9431 12.792 11.9453 12.8086 11.9477C12.8131 11.9484 12.8176 11.9492 12.8222 11.9499C12.835 11.9519 12.8478 11.9542 12.8606 11.9567C12.865 11.9575 12.8695 11.9583 12.8739 11.9593C12.8903 11.9626 12.9066 11.9663 12.9228 11.9703C12.9252 11.9709 12.9276 11.9716 12.93 11.9723C12.944 11.9759 12.9579 11.9797 12.9717 11.9838C12.9765 11.9852 12.9812 11.9867 12.9859 11.9882C12.9989 11.9922 13.0119 11.9965 13.0248 12.001C13.028 12.0021 13.0312 12.0031 13.0344 12.0042C13.0501 12.0098 13.0656 12.0158 13.081 12.0221C13.0849 12.0237 13.0888 12.0254 13.0927 12.027C13.1047 12.0321 13.1167 12.0373 13.1287 12.0428C13.133 12.0448 13.1374 12.0468 13.1417 12.0488C13.1568 12.056 13.1719 12.0634 13.1867 12.0712L13.1879 12.0718C13.2023 12.0795 13.2167 12.0876 13.2308 12.0958C13.235 12.0982 13.2392 12.1008 13.2433 12.1033C13.2546 12.1101 13.2658 12.117 13.2769 12.1242C13.2804 12.1264 13.2839 12.1286 13.2873 12.1309C13.3013 12.1401 13.315 12.1497 13.3286 12.1595C13.3315 12.1616 13.3343 12.1638 13.3372 12.1659C13.3482 12.174 13.359 12.1823 13.3697 12.1908C13.3736 12.1939 13.3774 12.197 13.3813 12.2002C13.3928 12.2096 13.4042 12.2192 13.4154 12.229C13.417 12.2304 13.4188 12.2318 13.4204 12.2333C13.4331 12.2446 13.4454 12.2563 13.4576 12.2681C13.4609 12.2714 13.4642 12.2747 13.4675 12.278C13.4769 12.2873 13.4861 12.2968 13.4952 12.3065C13.4983 12.3099 13.5016 12.3133 13.5048 12.3167C13.5163 12.3294 13.5276 12.3423 13.5387 12.3554C13.5402 12.3573 13.5417 12.3592 13.5432 12.361C13.5528 12.3726 13.5622 12.3844 13.5713 12.3964C13.5744 12.4005 13.5775 12.4046 13.5805 12.4088C13.5889 12.4201 13.5972 12.4316 13.6052 12.4434C13.6073 12.4463 13.6094 12.4492 13.6114 12.4522C13.6211 12.4667 13.6305 12.4814 13.6397 12.4965C13.642 12.5002 13.6441 12.5039 13.6463 12.5077C13.6534 12.5196 13.6603 12.5317 13.6671 12.544C13.6695 12.5484 13.6719 12.5529 13.6743 12.5574C13.6827 12.5732 13.6909 12.5893 13.6987 12.6056H14.6072L13.233 10.263L13.1409 10.106ZM11.4648 8.75055C11.4647 8.69949 11.4725 8.64873 11.4877 8.6C11.4921 8.58606 11.4972 8.57223 11.5027 8.55884C11.5048 8.55375 11.5072 8.54886 11.5095 8.54384C11.5134 8.53515 11.5174 8.52656 11.5218 8.51814C11.5246 8.51283 11.5276 8.5076 11.5305 8.50239C11.5351 8.4944 11.5398 8.48658 11.5449 8.47885C11.548 8.47405 11.5511 8.46925 11.5545 8.46445C11.5605 8.45578 11.5669 8.44738 11.5735 8.43913C11.5761 8.43584 11.5785 8.43238 11.5812 8.42917C11.5904 8.41805 11.6001 8.40737 11.6103 8.39713C11.6135 8.39391 11.6169 8.39094 11.6201 8.38779C11.6276 8.38059 11.6351 8.37368 11.643 8.36703C11.6472 8.36346 11.6516 8.36002 11.6559 8.35657C11.6634 8.35066 11.671 8.34496 11.6788 8.33946C11.6833 8.33629 11.6878 8.3331 11.6925 8.33007C11.7012 8.32436 11.7101 8.31901 11.7192 8.31382C11.7231 8.31162 11.7268 8.30926 11.7308 8.30715C11.7438 8.30017 11.7572 8.29369 11.7708 8.28795C11.7735 8.28682 11.7763 8.28591 11.779 8.28483C11.7902 8.28027 11.8016 8.27605 11.8132 8.27228C11.818 8.2707 11.8231 8.26935 11.8281 8.26794C11.8379 8.26509 11.8478 8.26253 11.8579 8.26026C11.8633 8.25906 11.8687 8.25794 11.8741 8.2569C11.8846 8.25493 11.8951 8.25337 11.9058 8.2521C11.9106 8.2515 11.9156 8.25073 11.9205 8.25027C11.9361 8.24881 11.9517 8.24787 11.9677 8.24787C11.9837 8.24787 11.9994 8.24878 12.015 8.25027C12.0199 8.25073 12.0248 8.2515 12.0297 8.2521C12.0403 8.25339 12.0509 8.25495 12.0614 8.2569C12.0668 8.25794 12.0722 8.25906 12.0776 8.26026C12.0876 8.26251 12.0976 8.26507 12.1074 8.26794C12.1123 8.26935 12.1173 8.27072 12.1222 8.27228C12.1339 8.27605 12.1453 8.28027 12.1565 8.28483C12.1592 8.28594 12.162 8.28682 12.1647 8.28795C12.1783 8.29378 12.1917 8.30026 12.2047 8.30715C12.2086 8.30926 12.2124 8.31162 12.2163 8.31382C12.2253 8.31901 12.2343 8.32436 12.243 8.33007C12.2476 8.3331 12.2521 8.33629 12.2566 8.33946C12.2644 8.34496 12.2721 8.35067 12.2796 8.35659C12.2839 8.36002 12.2883 8.36346 12.2925 8.36703C12.3003 8.3737 12.3079 8.38069 12.3154 8.38782C12.3186 8.39094 12.322 8.39391 12.3252 8.39713C12.3354 8.40738 12.3451 8.41806 12.3543 8.42917C12.357 8.43238 12.3594 8.43579 12.362 8.43908C12.3685 8.44736 12.3749 8.45588 12.381 8.46447C12.3842 8.46927 12.3873 8.47407 12.3904 8.47887C12.3954 8.4866 12.4002 8.49446 12.4048 8.50246C12.4078 8.50765 12.4107 8.51286 12.4135 8.51816C12.4179 8.52661 12.4219 8.53522 12.4259 8.54394C12.4281 8.54893 12.4305 8.5538 12.4326 8.55886C12.4382 8.57233 12.4433 8.58601 12.4477 8.60002C12.5214 8.8356 12.4132 9.08987 12.1923 9.20002C12.1769 9.20768 12.1611 9.21442 12.145 9.22066C12.1414 9.22198 12.1379 9.22328 12.1344 9.22453C12.1242 9.22815 12.1138 9.23142 12.1032 9.23439C12.095 9.23679 12.0868 9.2389 12.0784 9.24078C12.0729 9.24202 12.0675 9.24318 12.0619 9.24426C12.0491 9.24666 12.0361 9.24877 12.023 9.25021C12.0197 9.25057 12.0164 9.25078 12.0132 9.2511C11.9982 9.25244 11.9831 9.25338 11.9677 9.25338C11.9524 9.25338 11.9373 9.25244 11.9223 9.2511C11.919 9.25078 11.9157 9.25057 11.9125 9.25021C11.8993 9.24877 11.8864 9.2467 11.8735 9.24426C11.868 9.2432 11.8625 9.24202 11.8571 9.24078C11.8487 9.2389 11.8405 9.2367 11.8323 9.23442C11.8218 9.23142 11.8114 9.22815 11.8011 9.22453C11.7976 9.22328 11.7941 9.22198 11.7906 9.22066C11.7745 9.21458 11.7587 9.20768 11.7432 9.2C11.5727 9.1151 11.4649 8.94105 11.4648 8.75055ZM11.1978 11.4787C11.0351 11.3799 10.9108 11.2288 10.8452 11.0501C10.8358 11.0244 10.8276 10.9982 10.8207 10.9714C10.8173 10.958 10.8141 10.9445 10.8113 10.9308C10.8057 10.9033 10.8015 10.8755 10.7986 10.8476C10.7957 10.8191 10.7943 10.7905 10.7943 10.7619C10.7945 10.5028 10.9145 10.2583 11.1193 10.0996C11.3242 9.94087 11.5909 9.88574 11.8418 9.95024C11.8686 9.95714 11.8949 9.96529 11.9206 9.9747C12.0223 10.012 12.1158 10.0687 12.1959 10.1416C12.2058 10.1506 12.2155 10.1598 12.225 10.1693C12.4241 10.3687 12.5099 10.6547 12.4534 10.9308C12.4506 10.9445 12.4475 10.958 12.4441 10.9714C12.4372 10.9982 12.429 11.0244 12.4196 11.0501C12.3891 11.1336 12.3453 11.2116 12.29 11.2811C12.2825 11.2907 12.2747 11.3 12.2668 11.3091C12.2577 11.3198 12.2482 11.3302 12.2385 11.3403C12.2198 11.36 12.2001 11.3787 12.1796 11.3964C12.1669 11.4074 12.1539 11.418 12.1406 11.4282C12.1238 11.441 12.1065 11.4532 12.0887 11.4647C12.036 11.4991 11.9796 11.5274 11.9205 11.5492C11.8948 11.5586 11.8686 11.5667 11.8418 11.5736C11.6231 11.6297 11.391 11.5955 11.1978 11.4787ZM15.0607 6.8H18.4C19.0627 6.8 19.6 6.26274 19.6 5.6V3.2C19.6 2.53726 19.0627 2 18.4 2H5.2C4.53726 2 4 2.53726 4 3.2V5.6C4 6.26274 4.53726 6.8 5.2 6.8H8.53929C8.60394 7.0563 8.77288 7.27387 9.00518 7.4H5.2V8.6H9.1816V9.2H5.2C4.53726 9.2 4 9.73726 4 10.4V12.8C4 13.4627 4.53726 14 5.2 14H6.69455L6.34266 14.6H5.2V15.8H5.80797C5.78807 16.0016 5.80647 16.2052 5.86221 16.4H5.2C4.53726 16.4 4 16.9373 4 17.6V20C4 20.6627 4.53726 21.2 5.2 21.2H18.4C19.0627 21.2 19.6 20.6627 19.6 20V17.6C19.6 16.9373 19.0627 16.4 18.4 16.4H17.7378C17.7935 16.2052 17.8119 16.0016 17.792 15.8H18.4V14.6H17.2573L16.9054 14H18.4C19.0627 14 19.6 13.4627 19.6 12.8V10.4C19.6 9.73726 19.0627 9.2 18.4 9.2H14.4184V8.6H18.4V7.4H14.5948C14.8271 7.27387 14.9961 7.0563 15.0607 6.8ZM5.8 5C5.46863 5 5.2 4.73137 5.2 4.4C5.2 4.06863 5.46863 3.8 5.8 3.8C6.13137 3.8 6.4 4.06863 6.4 4.4C6.4 4.73137 6.13137 5 5.8 5ZM5.8 12.2C5.46863 12.2 5.2 11.9314 5.2 11.6C5.2 11.2686 5.46863 11 5.8 11C6.13137 11 6.4 11.2686 6.4 11.6C6.4 11.9314 6.13137 12.2 5.8 12.2ZM5.8 19.4C5.46863 19.4 5.2 19.1314 5.2 18.8C5.2 18.4686 5.46863 18.2 5.8 18.2C6.13137 18.2 6.4 18.4686 6.4 18.8C6.4 19.1314 6.13137 19.4 5.8 19.4ZM13.8114 8.6V9.92384L17.019 15.3933C17.0288 15.4077 17.038 15.4223 17.0469 15.437C17.0489 15.4402 17.0509 15.4435 17.0529 15.4468C17.0616 15.4615 17.0699 15.4762 17.0778 15.491C17.0784 15.4922 17.079 15.4934 17.0796 15.4945C17.0872 15.5089 17.0943 15.5234 17.101 15.5379C17.1022 15.5403 17.1033 15.5427 17.1044 15.5451C17.1116 15.5607 17.1183 15.5764 17.1245 15.5922C17.1249 15.5931 17.1252 15.5941 17.1256 15.595C17.1319 15.611 17.1378 15.6271 17.1432 15.6433C17.1434 15.6438 17.1436 15.6444 17.1438 15.645C17.1494 15.6618 17.1545 15.6787 17.1591 15.6957C17.159 15.6954 17.1591 15.696 17.1591 15.6957C17.1684 15.7297 17.1761 15.765 17.1817 15.7998C17.2139 16.0053 17.1815 16.2158 17.089 16.4021C17.0844 16.4113 17.0798 16.4204 17.075 16.4294C17.0734 16.4325 17.0716 16.4355 17.07 16.4385C17.0663 16.4452 17.0628 16.452 17.0589 16.4586C17.0568 16.4622 17.0547 16.4656 17.0526 16.4692C17.0491 16.4752 17.0454 16.4812 17.0418 16.4873C17.0394 16.4911 17.037 16.4948 17.0346 16.4985C17.031 16.5042 17.0274 16.5098 17.0238 16.5153C17.0212 16.5192 17.0186 16.523 17.0159 16.5269C17.0123 16.5322 17.0087 16.5375 17.005 16.5428C17.0021 16.5467 16.9992 16.5506 16.9964 16.5545C16.9927 16.5596 16.989 16.5647 16.9852 16.5697C16.9822 16.5736 16.9791 16.5775 16.9761 16.5813C16.9723 16.5861 16.9684 16.5911 16.9645 16.5959C16.9614 16.5998 16.9582 16.6035 16.9549 16.6074C16.951 16.6122 16.947 16.6168 16.9429 16.6215C16.9396 16.6253 16.9363 16.629 16.9329 16.6328C16.9288 16.6373 16.9248 16.6418 16.9206 16.6463C16.9171 16.6501 16.9136 16.6538 16.9101 16.6574C16.9059 16.6618 16.9017 16.6662 16.8974 16.6705C16.8938 16.6741 16.8902 16.6777 16.8864 16.6813C16.8821 16.6855 16.8778 16.6897 16.8734 16.6939C16.8696 16.6974 16.8658 16.7009 16.8619 16.7044C16.8575 16.7085 16.8531 16.7125 16.8485 16.7164C16.8446 16.7199 16.8407 16.7233 16.8367 16.7267C16.8322 16.7306 16.8276 16.7344 16.8229 16.7382C16.8189 16.7415 16.8148 16.7448 16.8107 16.7481C16.8059 16.7518 16.8013 16.7556 16.7965 16.7592C16.7924 16.7624 16.7881 16.7656 16.7839 16.7688C16.7791 16.7724 16.7743 16.776 16.7694 16.7794C16.7651 16.7825 16.7607 16.7855 16.7563 16.7886C16.7514 16.792 16.7465 16.7953 16.7415 16.7986C16.737 16.8016 16.7326 16.8045 16.728 16.8074C16.723 16.8106 16.7179 16.8138 16.7128 16.817C16.7083 16.8198 16.7037 16.8225 16.6991 16.8253C16.6939 16.8284 16.6887 16.8314 16.6834 16.8344C16.6787 16.837 16.674 16.8396 16.6694 16.8422C16.6641 16.8451 16.6587 16.848 16.6534 16.8507C16.6486 16.8533 16.6438 16.8558 16.639 16.8582C16.6336 16.8609 16.6281 16.8635 16.6226 16.8662C16.6177 16.8686 16.6128 16.871 16.6078 16.8731C16.6023 16.8757 16.5967 16.8781 16.591 16.8806C16.586 16.8827 16.5811 16.8849 16.576 16.887C16.5703 16.8894 16.5646 16.8916 16.5589 16.8939C16.5538 16.8959 16.5487 16.8979 16.5436 16.8998C16.5378 16.902 16.5319 16.9041 16.5261 16.9061C16.5209 16.908 16.5157 16.9098 16.5105 16.9116C16.5046 16.9136 16.4985 16.9154 16.4926 16.9173C16.4874 16.919 16.4821 16.9206 16.4768 16.9221C16.4707 16.9239 16.4646 16.9256 16.4584 16.9273C16.4532 16.9287 16.4479 16.9302 16.4426 16.9316C16.4363 16.9332 16.4299 16.9346 16.4236 16.9362C16.4183 16.9374 16.413 16.9387 16.4077 16.9399C16.4012 16.9413 16.3947 16.9425 16.3882 16.9438C16.3829 16.9449 16.3775 16.946 16.3722 16.947C16.3655 16.9482 16.3588 16.9492 16.3521 16.9503C16.3468 16.9511 16.3415 16.9521 16.3362 16.9528C16.3293 16.9538 16.3222 16.9546 16.3153 16.9555C16.31 16.9562 16.3048 16.9569 16.2995 16.9574C16.2923 16.9582 16.2848 16.9588 16.2775 16.9595C16.2724 16.9599 16.2675 16.9604 16.2624 16.9608C16.2542 16.9614 16.2458 16.9617 16.2375 16.9621C16.2333 16.9623 16.229 16.9627 16.2248 16.9628C16.2121 16.9633 16.1994 16.9635 16.1866 16.9635H7.41321C7.40041 16.9635 7.38768 16.9633 7.37502 16.9628C7.3708 16.9627 7.36662 16.9623 7.36242 16.9622C7.35405 16.9617 7.34562 16.9614 7.33737 16.9608C7.33235 16.9604 7.32743 16.9599 7.32244 16.9595C7.31502 16.9588 7.30758 16.9582 7.30024 16.9574C7.29501 16.9569 7.28982 16.9562 7.28462 16.9555C7.27761 16.9547 7.27055 16.9538 7.26359 16.9528C7.25829 16.9521 7.25306 16.9512 7.2478 16.9503C7.24103 16.9492 7.23426 16.9482 7.22759 16.947C7.22224 16.946 7.21698 16.9449 7.2117 16.9438C7.20513 16.9425 7.19855 16.9413 7.19205 16.9399C7.18677 16.9387 7.18154 16.9375 7.17628 16.9362C7.1699 16.9347 7.16351 16.9332 7.15708 16.9316C7.1518 16.9302 7.14659 16.9287 7.14136 16.9273C7.13514 16.9256 7.12893 16.9239 7.12278 16.9221C7.11755 16.9205 7.11239 16.9189 7.10718 16.9173C7.10116 16.9154 7.09518 16.9135 7.08911 16.9115C7.08395 16.9098 7.07884 16.908 7.0737 16.9061C7.0678 16.904 7.0619 16.902 7.05606 16.8998C7.05098 16.8979 7.04596 16.8959 7.04092 16.8939C7.03511 16.8915 7.02933 16.8893 7.02359 16.8869C7.01862 16.8848 7.0137 16.8827 7.00876 16.8806C7.00312 16.8782 6.99746 16.8756 6.99196 16.873C6.98716 16.8708 6.98222 16.8685 6.97737 16.8662C6.97182 16.8635 6.9663 16.8608 6.96083 16.8581C6.95603 16.8557 6.95123 16.8533 6.9466 16.8509C6.94118 16.848 6.93575 16.8452 6.93038 16.8422C6.92575 16.8397 6.92114 16.8371 6.91655 16.8345C6.91122 16.8315 6.90592 16.8284 6.90066 16.8253C6.89614 16.8226 6.89162 16.8199 6.88713 16.8171C6.88194 16.8139 6.87678 16.8107 6.87165 16.8075C6.86723 16.8047 6.86284 16.8018 6.85847 16.7989C6.85341 16.7955 6.84834 16.7921 6.84335 16.7887C6.83906 16.7857 6.83481 16.7827 6.83058 16.7797C6.82559 16.7762 6.82067 16.7725 6.81575 16.7689C6.81162 16.7658 6.8075 16.7628 6.80342 16.7596C6.79862 16.7559 6.79382 16.7521 6.78902 16.7483C6.78502 16.7451 6.78102 16.7419 6.77702 16.7387C6.77222 16.7348 6.76768 16.7309 6.76305 16.7269C6.75914 16.7236 6.75525 16.7203 6.75138 16.7169C6.7468 16.7128 6.74229 16.7087 6.73778 16.7046C6.73403 16.7012 6.73026 16.6977 6.72657 16.6943C6.72208 16.6901 6.71769 16.6858 6.7133 16.6815C6.7097 16.678 6.7061 16.6744 6.70254 16.6709C6.6982 16.6665 6.6939 16.662 6.68966 16.6576C6.6862 16.654 6.68274 16.6504 6.67936 16.6467C6.67509 16.6422 6.67091 16.6375 6.66674 16.6328C6.66347 16.6292 6.66021 16.6256 6.65702 16.6219C6.65284 16.6171 6.64878 16.6123 6.6447 16.6074C6.64163 16.6037 6.63851 16.6001 6.63549 16.5963C6.63141 16.5914 6.62747 16.5863 6.62349 16.5812C6.62061 16.5775 6.61768 16.5739 6.61485 16.5701C6.61084 16.5649 6.60698 16.5595 6.60306 16.5542C6.6004 16.5506 6.59769 16.547 6.59507 16.5433C6.59116 16.5377 6.58734 16.5321 6.58353 16.5265C6.58113 16.5229 6.57858 16.5193 6.57618 16.5157C6.5723 16.5099 6.56855 16.5039 6.56478 16.498C6.5626 16.4945 6.56037 16.4911 6.55823 16.4876C6.55427 16.4813 6.55048 16.4748 6.54669 16.4683C6.54486 16.4652 6.54297 16.4621 6.54117 16.459C6.5369 16.4516 6.53279 16.444 6.52871 16.4365C6.52751 16.4342 6.52631 16.4321 6.52506 16.4299C6.51986 16.42 6.51481 16.4101 6.5099 16.4001C6.4182 16.2144 6.38621 16.0048 6.41831 15.8001C6.42388 15.7653 6.43132 15.7308 6.44061 15.6968C6.44051 15.6971 6.44061 15.6965 6.44061 15.6968C6.44523 15.6798 6.45062 15.662 6.45626 15.6451C6.45642 15.6446 6.45662 15.644 6.45678 15.6435C6.46221 15.6273 6.46808 15.6112 6.4744 15.5951C6.47476 15.5942 6.47507 15.5933 6.47543 15.5924C6.4817 15.5766 6.48846 15.5609 6.49562 15.5452C6.4967 15.5428 6.49782 15.5404 6.49893 15.5382C6.50572 15.5236 6.51285 15.5091 6.52053 15.4946C6.52113 15.4935 6.52168 15.4922 6.52228 15.4912C6.53015 15.4764 6.53855 15.4617 6.54726 15.447C6.54921 15.4437 6.5512 15.4405 6.55319 15.4372C6.56214 15.4225 6.57136 15.4079 6.5812 15.3934L7.04627 14.6L7.39814 14L9.78854 9.92384V6.90678H9.45338C9.36048 6.90678 9.27177 6.86809 9.20858 6.8C9.19462 6.78503 9.18204 6.76884 9.17099 6.75162C9.16566 6.74328 9.1603 6.73402 9.1557 6.72519C9.15525 6.7243 9.15486 6.72339 9.15441 6.7225C9.15023 6.71427 9.14632 6.70587 9.14282 6.69728C9.14202 6.69536 9.1414 6.69334 9.14066 6.6914C9.13768 6.6837 9.13482 6.6759 9.13242 6.6679C9.13139 6.66452 9.13067 6.66099 9.12976 6.65754C9.12794 6.65077 9.12609 6.644 9.1247 6.63709C9.12362 6.63164 9.12299 6.62605 9.1223 6.62053C9.1216 6.61501 9.12054 6.61021 9.1199 6.60493C9.11882 6.59418 9.11827 6.5833 9.11824 6.57231C9.11824 6.57255 9.11824 6.57205 9.11824 6.57231C9.11817 6.48338 9.15347 6.39731 9.21635 6.33442C9.27923 6.27154 9.36454 6.23631 9.45347 6.23631H14.1466C14.3318 6.23631 14.4819 6.3864 14.4819 6.57154C14.4819 6.58282 14.4812 6.59396 14.4802 6.60493C14.4796 6.61011 14.4787 6.61515 14.4779 6.62026C14.4771 6.62588 14.4764 6.63157 14.4753 6.63706C14.474 6.64395 14.4721 6.65065 14.4703 6.65737C14.4694 6.66087 14.4687 6.66457 14.4676 6.6679C14.4652 6.67582 14.4624 6.68355 14.4595 6.69121C14.4587 6.69322 14.458 6.69529 14.4572 6.69728C14.4537 6.70585 14.4498 6.71422 14.4457 6.72241C14.4452 6.72332 14.4448 6.72428 14.4443 6.72519C14.4398 6.73398 14.4348 6.74254 14.4295 6.75087C14.4297 6.75063 14.4293 6.75111 14.4295 6.75087C14.4185 6.7681 14.4054 6.78504 14.3914 6.8C14.3283 6.8681 14.2395 6.90679 14.1466 6.90678H13.8114V8.6Z" fill="currentColor"/>
</svg>
