<svg width="24" height="24" viewBox="0 0 24 24" fill="currentColor" xmlns="http://www.w3.org/2000/svg">
<path fill-rule="evenodd" clip-rule="evenodd" d="M12.794 4.55997C12.794 5.88546 11.7195 6.95997 10.394 6.95997C9.0685 6.95997 7.99398 5.88546 7.99398 4.55997C7.99398 3.23449 9.0685 2.15997 10.394 2.15997C11.7195 2.15997 12.794 3.23449 12.794 4.55997ZM14.7984 16.9232C14.2924 18.8259 12.6499 20.2087 10.6888 20.3828C8.72762 20.5569 6.86716 19.4852 6.03388 17.7014C5.20061 15.9176 5.57268 13.803 6.96479 12.4107C7.27038 12.1046 7.61674 11.8422 7.99405 11.6307V10.0392C5.74336 10.9433 4.15405 13.1459 4.15405 15.72C4.15405 19.1 6.89408 21.84 10.2741 21.84C12.673 21.84 14.7492 20.4595 15.7525 18.4498L14.7984 16.9232ZM16.2115 13.524C15.9924 13.173 15.6077 12.9598 15.1939 12.96H15.1867C15.1828 12.96 15.1788 12.96 15.1747 12.96H12.1939V11.28H15.3139C15.7779 11.28 16.1539 10.9039 16.1539 10.44C16.1539 9.97605 15.7779 9.59997 15.3139 9.59997H12.1939V9.35997C12.1939 8.36586 11.388 7.55997 10.3939 7.55997C9.39982 7.55997 8.59393 8.36586 8.59393 9.35997V13.56C8.59393 14.5541 9.39982 15.36 10.3939 15.36H14.5289L17.1764 19.596C17.345 19.866 17.614 20.0579 17.9241 20.1294C18.2343 20.201 18.5601 20.1464 18.83 19.9776C18.8533 19.963 19.846 19.3392 19.846 19.3392L16.2115 13.524Z" fill="currentColor"/>
</svg>
