<svg width="24" height="24" viewBox="0 0 24 24" fill="currentColor" xmlns="http://www.w3.org/2000/svg">
<path fill-rule="evenodd" clip-rule="evenodd" d="M16.19 5.99572V5.99387C16.189 3.68471 14.2994 1.79572 11.99 1.79572C9.68003 1.79572 7.79003 3.68572 7.79003 5.99572H4.19003V20.3957C4.19003 21.3898 4.99592 22.1957 5.99003 22.1957H17.99C18.9841 22.1957 19.79 21.3898 19.79 20.3957V5.99572H16.19ZM9.87232 3.878C10.7302 3.02304 12.018 2.76778 13.1371 3.23087C14.2562 3.69397 14.9871 4.78457 14.99 5.99572H8.99003C8.9895 5.20031 9.3072 4.43775 9.87232 3.878ZM7.19003 8.39572C7.18993 7.96701 7.41868 7.57086 7.79003 7.35666V8.39572C7.79003 8.72709 8.05866 8.99572 8.39003 8.99572C8.7214 8.99572 8.99003 8.72709 8.99003 8.39572V7.35666C9.49438 7.64785 9.71685 8.25913 9.51764 8.80637C9.31843 9.35361 8.75506 9.67882 8.18154 9.57764C7.60802 9.47646 7.18995 8.97809 7.19003 8.39572ZM15.8027 19.0836L15.4717 19.4146C15.3008 19.5855 15.0245 19.5881 14.8504 19.4205L11.569 16.2598C11.5671 16.258 11.5645 16.2571 11.5618 16.2574C11.5592 16.2577 11.5568 16.2591 11.5554 16.2613L10.3789 18.054C10.34 18.1132 10.2707 18.1449 10.2005 18.1356C10.1303 18.1263 10.0716 18.0776 10.0495 18.0103L8.05571 11.9292C8.03702 11.8721 8.05179 11.8095 8.09397 11.7668C8.13615 11.7241 8.19866 11.7086 8.2559 11.7266L14.4031 13.6626C14.4705 13.6838 14.5199 13.7417 14.5302 13.8116C14.5405 13.8815 14.5099 13.9512 14.4515 13.991L12.631 15.2296C12.6288 15.2311 12.6274 15.2335 12.6271 15.2361C12.6269 15.2388 12.6278 15.2414 12.6297 15.2433L15.8047 18.4584C15.976 18.6319 15.9751 18.9112 15.8027 19.0836ZM15.59 9.59572C15.047 9.59558 14.5718 9.23082 14.4312 8.70632C14.2907 8.18182 14.5199 7.6283 14.99 7.35666V8.39572C14.99 8.72709 15.2587 8.99572 15.59 8.99572C15.9214 8.99572 16.19 8.72709 16.19 8.39572C16.19 8.39603 16.19 8.3954 16.19 8.39572V7.35664C16.6602 7.62826 16.8894 8.1818 16.7489 8.70632C16.6083 9.23083 16.1331 9.5956 15.59 9.59572Z" fill="currentColor"/>
</svg>
