<svg width="24" height="24" viewBox="0 0 24 24" fill="currentColor" xmlns="http://www.w3.org/2000/svg">
<path d="M4.5017 8.12296C3.68426 8.12296 3.02138 8.78896 3.02138 9.61072V19.8258C3.02138 20.6474 3.68402 21.3136 4.5017 21.3136C5.31938 21.3136 5.98202 20.6476 5.98202 19.8258V9.61048C5.98178 8.78896 5.31914 8.12296 4.5017 8.12296Z" fill="currentColor"/>
<path d="M9.50882 6.29968C8.69138 6.29968 8.0285 6.96568 8.0285 7.78744V18.0026C8.0285 18.8241 8.69114 19.4903 9.50882 19.4903C10.3265 19.4903 10.9891 18.8243 10.9891 18.0026V7.78744C10.9889 6.96568 10.3263 6.29968 9.50882 6.29968Z" fill="currentColor"/>
<path d="M14.5159 4.51984C13.6985 4.51984 13.0356 5.18584 13.0356 6.0076V16.2227C13.0356 17.0442 13.6983 17.7105 14.5159 17.7105C15.3334 17.7105 15.9963 17.0445 15.9963 16.2227V6.00736C15.996 5.18584 15.3334 4.51984 14.5159 4.51984Z" fill="currentColor"/>
<path d="M19.5231 2.70784C18.7056 2.70784 18.0427 3.37384 18.0427 4.1956V14.4107C18.0427 15.2322 18.7054 15.8985 19.5231 15.8985C20.3405 15.8985 21.0034 15.2325 21.0034 14.4107V4.19536C21.0031 3.37384 20.3405 2.70784 19.5231 2.70784Z" fill="currentColor"/>
<path d="M16.4441 12.3462L17.5947 14.3788V7.98328L16.4441 5.95072V12.3462Z" fill="currentColor"/>
<path d="M11.437 14.152L12.5875 16.1747V9.81016L11.437 7.78768V14.152Z" fill="currentColor"/>
<path d="M6.42986 15.9215L7.58042 17.945V11.5782L6.42986 9.5548V15.9215Z" fill="currentColor"/>
</svg>
