<svg width="24" height="24" viewBox="0 0 24 24" fill="currentColor" xmlns="http://www.w3.org/2000/svg">
<path fill-rule="evenodd" clip-rule="evenodd" d="M19.4199 9H4.58006C4.04102 9 3.59998 9.45084 3.59998 9.9899V18.5596C3.60112 18.8183 3.70507 19.0659 3.8889 19.2479C4.07274 19.4299 4.32138 19.5313 4.58006 19.5299H5.99998V21H18V19.5299H19.4199C19.6786 19.5313 19.9272 19.4299 20.111 19.2479C20.2949 19.0659 20.3988 18.8183 20.4 18.5596V9.9899C20.4 9.45084 19.9589 9 19.4199 9ZM12.0027 20.3129C11.8045 20.3129 11.6258 20.1935 11.55 20.0104C11.4741 19.8273 11.5161 19.6165 11.6562 19.4763C11.7964 19.3362 12.0072 19.2943 12.1903 19.3701C12.3734 19.446 12.4928 19.6247 12.4928 19.8229C12.4928 20.0935 12.2734 20.3129 12.0027 20.3129ZM19.4199 18.6H4.58006V9.98009H19.4199V18.6ZM12 5.025C13.8639 5.025 15.375 6.53604 15.375 8.4H17.4L16.2825 7.25251L16.6765 5.7L15.135 5.26498L14.7 3.72346L13.1475 4.11746L12 3L10.8525 4.11746L9.29998 3.72346L8.86495 5.26498L7.32343 5.7L7.71744 7.25251L6.59998 8.4H8.62498C8.62498 6.53604 10.136 5.025 12 5.025Z" fill="currentColor"/>
</svg>
