<svg width="24" height="24" viewBox="0 0 24 24" fill="currentColor" xmlns="http://www.w3.org/2000/svg">
<path fill-rule="evenodd" clip-rule="evenodd" d="M12 1.80005C17.6333 1.80005 22.2 6.36674 22.2 12C22.2 17.6334 17.6333 22.2001 12 22.2001C6.36668 22.2001 1.79999 17.6334 1.79999 12C1.79999 6.36674 6.36668 1.80005 12 1.80005ZM12 2.40005C17.3019 2.40005 21.6 6.69811 21.6 12C21.6 17.302 17.3019 21.6 12 21.6C6.69805 21.6 2.39999 17.302 2.39999 12C2.39999 6.69811 6.69805 2.40005 12 2.40005ZM14.039 8.5051C13.8089 7.56919 12.9697 6.9112 12.006 6.91109C10.85 6.91109 9.91295 7.84816 9.91295 9.0041V11.9941C9.91284 12.1837 9.93844 12.3724 9.98905 12.555L14.039 8.5051ZM12.006 14.0872C13.1619 14.0872 14.099 13.1501 14.099 11.9941V11.405L11.4828 14.0212C11.6537 14.0651 11.8295 14.0873 12.006 14.0872ZM15.1455 11.0971C15.0265 11.0971 14.9125 11.1444 14.8284 11.2285C14.7442 11.3126 14.697 11.4267 14.697 11.5456V11.9941C14.697 12.7079 14.4135 13.3923 13.9088 13.897C13.4041 14.4017 12.7197 14.6852 12.006 14.6852C11.6647 14.6856 11.3265 14.6209 11.0095 14.4945L10.3344 15.1696C10.4238 15.2166 10.5153 15.26 10.609 15.2999C10.9137 15.429 11.2349 15.5149 11.5634 15.5552V16.4792H10.511C10.1807 16.4792 9.91295 16.7469 9.91295 17.0772V17.3762H14.099V17.0772C14.099 16.7469 13.8312 16.4792 13.501 16.4792H12.4485V15.5552C14.2458 15.3327 15.5951 13.8051 15.594 11.9941V11.5456C15.594 11.4267 15.5468 11.3126 15.4626 11.2285C15.3785 11.1444 15.2645 11.0971 15.1455 11.0971ZM8.84706 13.697L9.51947 13.0246C9.38405 12.698 9.31454 12.3478 9.31494 11.9941V11.5456C9.31314 11.2992 9.11287 11.1004 8.86644 11.1004C8.62001 11.1004 8.41974 11.2992 8.41793 11.5456V11.9941C8.41713 12.474 8.51315 12.9491 8.70025 13.3909C8.74454 13.4957 8.79348 13.5977 8.84706 13.697ZM7.23424 17.424L6.59999 16.7898L16.7657 6.62405L17.4 7.25832L7.23424 17.424Z" fill="currentColor"/>
</svg>
