<svg width="24" height="24" viewBox="0 0 24 24" fill="currentColor" xmlns="http://www.w3.org/2000/svg">
<path fill-rule="evenodd" clip-rule="evenodd" d="M13.2 22.2001C13.5779 22.2001 13.7754 22.072 14.0318 21.8032C14.2808 21.5422 14.4 21.1855 14.4 20.8081V18.6H19.8V3.60005C19.8 2.60594 18.9941 1.80005 18 1.80005H4.20001V16.8C4.20001 17.7942 5.0059 18.6 6.00001 18.6H9.60001V20.805C9.60001 21.5466 10.0527 22.1534 10.8 22.2001H13.2ZM10.2 18H8.40001L11.4075 15.0603C11.5596 14.908 11.7539 14.7515 12.0432 14.7515C12.2728 14.7515 12.4915 14.8552 12.6931 15.0571L15.6 18H13.8V20.8081C13.8 21.2681 13.6388 21.6 13.2 21.6H10.8C10.3683 21.576 10.2 21.2336 10.2 20.8081V18ZM13.182 12.6H10.797L11.3051 9.43685C10.6973 9.11382 10.3873 8.41852 10.5533 7.75048C10.7194 7.08244 11.3188 6.61315 12.0071 6.61227C12.6955 6.61139 13.2961 7.07915 13.4638 7.74677C13.6316 8.41438 13.3234 9.11047 12.7163 9.43505L13.182 12.6ZM18.6 17.4H15.5941L15 16.8H18V3.60005H6.00001V16.8H8.98861L8.40001 17.4H6.60001C5.93908 17.4 5.40001 16.8378 5.40001 16.176V3.00005H17.4C18.0623 3.00104 18.599 3.53772 18.6 4.20005V17.4Z" fill="currentColor"/>
</svg>
