<svg width="24" height="24" viewBox="0 0 24 24" fill="currentColor" xmlns="http://www.w3.org/2000/svg">
<path d="M18.4854 1.80411C18.5339 1.7949 18.5832 1.79167 18.6324 1.79451C19.2657 1.83531 19.7713 2.3547 19.8042 3.00092L19.8059 3.06867V20.9139C19.8062 21.5959 19.2806 22.1533 18.619 22.1888C18.5748 22.19 18.5305 22.1866 18.487 22.1786L12.0475 20.9983C12.0202 20.9933 11.9922 20.9933 11.965 20.9983L5.52702 22.1784C5.47861 22.1876 5.42925 22.1908 5.38005 22.188C4.74676 22.1472 4.2412 21.6278 4.20825 20.9816L4.20654 20.9138V3.06858C4.20623 2.39156 4.7243 1.83723 5.37916 1.79449C5.42871 1.79159 5.47843 1.79481 5.52719 1.80409L11.965 2.98414C11.9922 2.98914 12.0202 2.98914 12.0475 2.98414L18.4854 1.80411ZM18.336 3.64081L12.0472 4.78421C12.0201 4.78913 11.9924 4.78913 11.9653 4.78421L5.67645 3.64081C5.60964 3.62866 5.54089 3.64679 5.48876 3.69029C5.43663 3.7338 5.4065 3.7982 5.4065 3.8661V19.5165C5.4065 19.5844 5.43664 19.6488 5.48877 19.6923C5.5409 19.7358 5.60964 19.7539 5.67645 19.7418L12.0062 18.5909L18.336 19.7417C18.4028 19.7539 18.4716 19.7357 18.5237 19.6922C18.5758 19.6487 18.606 19.5843 18.606 19.5164V3.86605C18.606 3.79816 18.5758 3.73377 18.5237 3.69028C18.4716 3.64678 18.4028 3.62866 18.336 3.64081ZM12.0344 7.79149H11.954C11.8107 7.79107 11.6947 7.675 11.6942 7.53169V6.25138C11.6947 6.10807 11.8107 5.992 11.954 5.99158H12.0344C12.1777 5.99199 12.2938 6.10807 12.2942 6.25138V7.53169C12.2938 7.675 12.1777 7.79108 12.0344 7.79149ZM12.0344 10.1913H11.954C11.8107 10.1909 11.6947 10.0749 11.6942 9.93157V8.65124C11.6947 8.50794 11.8107 8.39188 11.954 8.39146H12.0344C12.1777 8.39187 12.2938 8.50793 12.2942 8.65124V9.93157C12.2938 10.0748 12.1777 10.1909 12.0344 10.1913ZM12.0344 12.5913H11.954C11.8107 12.5909 11.6946 12.4748 11.6942 12.3314V11.0511C11.6946 10.9078 11.8107 10.7917 11.954 10.7912H12.0344C12.1778 10.7917 12.2939 10.9078 12.2942 11.0511V12.3314C12.2938 12.4747 12.1778 12.5909 12.0344 12.5913ZM12.0344 14.9912H11.954C11.8107 14.9908 11.6946 14.8746 11.6942 14.7313V13.451C11.6947 13.3077 11.8108 13.1917 11.954 13.1912H12.0344C12.1777 13.1917 12.2938 13.3077 12.2942 13.451V14.7313C12.2938 14.8746 12.1777 14.9908 12.0344 14.9912ZM12.0344 17.3911H11.954C11.8107 17.3906 11.6946 17.2745 11.6942 17.1312V15.8508C11.6947 15.7075 11.8107 15.5915 11.954 15.5911H12.0344C12.1777 15.5915 12.2938 15.7075 12.2942 15.8508V17.1312C12.2938 17.2745 12.1777 17.3906 12.0344 17.3911Z" fill="currentColor"/>
</svg>
