<svg width="24" height="24" viewBox="0 0 24 24" fill="currentColor" xmlns="http://www.w3.org/2000/svg">
<path fill-rule="evenodd" clip-rule="evenodd" d="M14.8 20H5.2V3.8H14.8V7.6976L16 6.9776V3.2C16.0003 2.5376 15.4636 2.00034 14.8012 2H5.19882C4.88072 2 4.5757 2.12667 4.35088 2.35171C4.12606 2.57676 3.99984 2.8819 4 3.2V21.2C3.99967 21.8624 4.53638 22.3997 5.19878 22.4H14.8012C15.1193 22.4 15.4243 22.2733 15.6491 22.0483C15.8739 21.8232 16.0002 21.5181 16 21.2V17.0384L14.8 16.3184V20ZM9.1 2.6H10.9C11.0657 2.6 11.2 2.73431 11.2 2.9C11.2 3.06569 11.0657 3.2 10.9 3.2H9.1C8.93432 3.2 8.8 3.06569 8.8 2.9C8.8 2.73431 8.93432 2.6 9.1 2.6ZM10 21.8C9.66863 21.8 9.4 21.5314 9.4 21.2C9.4 20.8686 9.66863 20.6 10 20.6C10.3314 20.6 10.6 20.8686 10.6 21.2C10.6 21.5314 10.3314 21.8 10 21.8ZM18.414 7.90345C18.245 7.56886 18.0806 7.07917 17.5871 7.31221C17.1084 7.53838 17.3235 7.95764 17.4975 8.32148C18.6828 10.8008 18.6646 13.2806 17.4797 15.7533C17.3135 16.1002 17.1389 16.4743 17.558 16.7071C18.0035 16.9544 18.1928 16.5542 18.362 16.2295C19.046 14.9169 19.432 13.5477 19.432 12.0153C19.432 10.5928 19.0686 9.19906 18.414 7.90345ZM16.5099 8.64913C16.3541 8.36326 16.151 8.08928 15.784 8.2695C15.3916 8.46214 15.448 8.78146 15.6208 9.12594C16.5783 11.0348 16.5887 12.9526 15.6376 14.8678C15.475 15.1952 15.3592 15.5217 15.7483 15.7424C16.1571 15.9741 16.3618 15.6577 16.5262 15.3528C17.0764 14.3328 17.3545 13.2444 17.3545 12.0183C17.3544 10.8547 17.0912 9.71559 16.5099 8.64913ZM13.9936 9.1899C13.6666 9.3507 13.579 9.6164 13.7654 9.96625C14.4906 11.3275 14.4944 12.6967 13.7686 14.0588C13.5836 14.4057 13.6593 14.6749 13.9866 14.8388C14.3189 15.0052 14.5153 14.767 14.6654 14.5077C15.1166 13.7277 15.3326 12.8886 15.3326 11.9797C15.3326 11.0989 15.1046 10.2853 14.6696 9.5287C14.5223 9.2726 14.3299 9.02463 13.9936 9.1899ZM12.1827 10.1475C11.8973 10.34 11.8824 10.6022 12.0569 10.8882C12.5172 11.6423 12.5162 12.3963 12.0539 13.1501C11.8792 13.4352 11.8986 13.6994 12.185 13.8903C12.4888 14.0928 12.7175 13.9322 12.9037 13.6839C13.273 13.1913 13.3741 12.6183 13.4188 11.9972C13.4188 11.4038 13.2748 10.8396 12.9028 10.3476C12.7142 10.0987 12.4841 9.94402 12.1827 10.1475ZM8.08636 10.9935H6.55996C6.4709 10.9935 6.38549 11.0289 6.32252 11.0919C6.25954 11.1549 6.22417 11.2403 6.22418 11.3293C6.22418 11.5148 6.37451 11.6651 6.55996 11.6651H7.27562L6.10886 12.8319C6.0233 12.9166 5.98962 13.0406 6.02058 13.1569C6.05153 13.2732 6.14239 13.3641 6.25872 13.395C6.37504 13.426 6.49904 13.3923 6.58372 13.3068L7.75058 12.14V12.8556C7.75058 12.9756 7.81458 13.0864 7.91847 13.1464C8.02236 13.2064 8.15036 13.2064 8.25425 13.1464C8.35814 13.0864 8.42214 12.9756 8.42214 12.8556V11.3292C8.4221 11.1438 8.27178 10.9935 8.08636 10.9935ZM11.1016 10.8782C11.0386 10.8152 10.9532 10.7798 10.8642 10.7798C10.7751 10.7798 10.6897 10.8152 10.6267 10.8782L9.46 12.045V11.3293C9.46001 11.2403 9.42464 11.1549 9.36167 11.0919C9.2987 11.0289 9.2133 10.9935 9.12424 10.9935C9.03518 10.9935 8.94977 11.0289 8.8868 11.0919C8.82382 11.1549 8.78846 11.2403 8.78846 11.3293V12.8557C8.7885 13.0411 8.93882 13.1914 9.12424 13.1914H10.6506C10.8361 13.1914 10.9864 13.0411 10.9864 12.8556C10.9864 12.6702 10.8361 12.5199 10.6506 12.5198H9.93489L11.1016 11.3531C11.1646 11.2901 11.2 11.2047 11.2 11.1156C11.2 11.0266 11.1646 10.9412 11.1016 10.8782Z" fill="currentColor"/>
</svg>
