<svg width="24" height="24" viewBox="0 0 24 24" fill="currentColor" xmlns="http://www.w3.org/2000/svg">
<path fill-rule="evenodd" clip-rule="evenodd" d="M12 1.8C17.6333 1.8 22.2 6.3667 22.2 12C22.2 17.6333 17.6333 22.2 12 22.2C6.36668 22.2 1.79999 17.6333 1.79999 12C1.79999 6.3667 6.36668 1.8 12 1.8ZM17.3898 10.8V9.6H15.1208C15.0375 9.60001 14.9565 9.62756 14.8905 9.67836L12.7805 11.9988L14.8932 14.3216C14.9592 14.3725 15.0402 14.4 15.1235 14.4H17.3931V13.2L19.1676 14.7233C19.2515 14.7954 19.2997 14.9007 19.2993 15.0113C19.2989 15.122 19.2501 15.2269 19.1657 15.2985L17.3931 16.8V15.6H14.6438C14.5604 15.6 14.4794 15.5725 14.4134 15.5216L11.995 12.8627L9.57721 15.5216C9.51121 15.5724 9.43027 15.6 9.34698 15.6H5.99953V16.8L4.23793 15.2985C4.15354 15.2269 4.10472 15.122 4.10436 15.0113C4.104 14.9007 4.15213 14.7954 4.23606 14.7233L5.99953 13.2V14.4H8.86736C8.95065 14.4 9.0316 14.3724 9.0976 14.3216L11.2096 11.999L9.09887 9.67836C9.03284 9.62754 8.95186 9.59999 8.86854 9.6H5.99999V10.8L4.23613 9.27672C4.15218 9.20461 4.10404 9.09935 4.10436 8.98868C4.10477 8.87802 4.15361 8.77307 4.23803 8.70152L5.99999 7.2V8.4H9.34828C9.43162 8.39998 9.51263 8.42753 9.57868 8.47836L11.9952 11.1352L14.4111 8.47836C14.477 8.42759 14.5579 8.40004 14.6411 8.4H17.3898V7.2L19.1619 8.70152C19.2464 8.77307 19.2952 8.87802 19.2956 8.98868C19.2959 9.09935 19.2478 9.20461 19.1638 9.27672L17.3898 10.8Z" fill="currentColor"/>
</svg>
