<svg width="24" height="24" viewBox="0 0 24 24" fill="currentColor" xmlns="http://www.w3.org/2000/svg">
<path fill-rule="evenodd" clip-rule="evenodd" d="M7.20002 1.79999H16.8C17.7941 1.79999 18.6 2.60588 18.6 3.59999V20.4C18.6 21.3941 17.7941 22.2 16.8 22.2H7.20002C6.20591 22.2 5.40002 21.3941 5.40002 20.4V3.59999C5.40002 2.60588 6.20591 1.79999 7.20002 1.79999ZM7.20002 2.39999H16.8C17.4628 2.39999 18 2.93725 18 3.59999V20.4C18 21.0627 17.4628 21.6 16.8 21.6H7.20002C6.53728 21.6 6.00002 21.0627 6.00002 20.4V3.59999C6.00002 2.93725 6.53728 2.39999 7.20002 2.39999ZM7.20002 2.99999H16.8C17.1314 2.99999 17.4 3.26862 17.4 3.59999V20.4C17.4 20.7314 17.1314 21 16.8 21H7.20002C6.86865 21 6.60002 20.7314 6.60002 20.4V3.59999C6.60002 3.26862 6.86865 2.99999 7.20002 2.99999ZM11.996 15.588C11.3333 15.588 10.796 15.0507 10.796 14.388C10.796 13.7253 11.3333 13.212 11.996 13.212C12.6588 13.212 13.196 13.7253 13.196 14.388C13.196 14.7062 13.0696 15.0115 12.8445 15.2365C12.6195 15.4616 12.3143 15.588 11.996 15.588ZM13.272 13.0318C12.5279 12.4131 11.4454 12.4236 10.7134 13.0566L10.1487 12.4299C11.1996 11.519 12.7558 11.5039 13.8241 12.3942L13.272 13.0318ZM14.3851 11.7617C12.994 10.6049 10.9701 10.6246 9.60173 11.8083L9.03533 11.1798C10.7243 9.72006 13.2213 9.69634 14.9376 11.1237L14.3851 11.7617ZM15.5886 10.5555C13.4961 8.8196 10.456 8.84841 8.39674 10.6237L7.83288 9.99772C10.2101 7.9435 13.7244 7.91028 16.14 9.91919L15.5886 10.5555Z" fill="currentColor"/>
</svg>
