<svg width="24" height="24" viewBox="0 0 24 24" fill="currentColor" xmlns="http://www.w3.org/2000/svg">
<path fill-rule="evenodd" clip-rule="evenodd" d="M8 21.2V16.9241C6.94114 16.6491 6.20139 15.694 6.2 14.6V11.9C6.19951 11.2412 6.34393 10.5904 6.62302 9.99361C5.66246 9.95244 4.74897 9.56621 4.05022 8.90581C2.79485 9.5234 1.99975 10.8009 2 12.2V15.0588C2 15.9944 2.76836 16.76 3.704 16.76V21.2C3.70176 21.5172 3.82611 21.8223 4.0495 22.0475C4.27289 22.2727 4.57688 22.3996 4.89411 22.4H8.45979C8.1635 22.0706 7.9997 21.6431 8 21.2ZM19.7498 8.90581C19.0511 9.56621 18.1376 9.95244 17.177 9.99361C17.4561 10.5904 17.6005 11.2412 17.6 11.9V14.6C17.5986 15.694 16.8589 16.6491 15.8 16.9241V21.2C15.8003 21.6431 15.6365 22.0706 15.3402 22.4H18.9059C19.2231 22.3996 19.5271 22.2727 19.7505 22.0475C19.9739 21.8223 20.0982 21.5172 20.096 21.2V16.76C21.0316 16.76 21.8 15.9944 21.8 15.0588V12.2C21.8003 10.8009 21.0052 9.52341 19.7498 8.90581ZM17 3.2C16.446 3.19915 15.9028 3.35243 15.431 3.6427C15.4526 3.68862 15.4734 3.73486 15.4934 3.78176C16.0583 5.11742 15.8349 6.65633 14.9135 7.7762L15.087 7.86174C15.716 8.17201 16.2639 8.62469 16.6873 9.1838C17.7901 9.29888 18.8665 8.79622 19.4863 7.87672C20.106 6.95722 20.168 5.77084 19.6475 4.79175C19.127 3.81265 18.1089 3.20052 17 3.2ZM15.2 5.3C15.2 7.12254 13.7225 8.6 11.9 8.6C10.0775 8.6 8.6 7.12254 8.6 5.3C8.6 3.47746 10.0775 2 11.9 2C13.7225 2 15.2 3.47746 15.2 5.3ZM14.8217 8.39994C13.181 9.94669 10.619 9.94669 8.97831 8.39994C7.64452 9.05616 6.79975 10.4135 6.8 11.9V14.6C6.8 15.5941 7.60589 16.4 8.6 16.4V21.2C8.6 21.8627 9.13726 22.4 9.8 22.4H14C14.6627 22.4 15.2 21.8627 15.2 21.2V16.4C16.1941 16.4 17 15.5941 17 14.6V11.9C17.0003 10.4135 16.1555 9.05616 14.8217 8.39994ZM7.11289 9.1838C7.53625 8.62469 8.08417 8.17201 8.71311 7.86174L8.88666 7.7762C7.96681 6.65562 7.74352 5.11766 8.30672 3.78176C8.32657 3.73486 8.34752 3.68862 8.36912 3.6427C7.28579 2.97825 5.90134 3.06848 4.91342 3.86793C3.9255 4.66739 3.54851 6.00258 3.97241 7.20066C4.39632 8.39875 5.52913 9.19974 6.8 9.2C6.90449 9.2 7.00896 9.19459 7.11289 9.1838Z" fill="currentColor"/>
</svg>
