<svg width="24" height="24" viewBox="0 0 24 24" fill="currentColor" xmlns="http://www.w3.org/2000/svg">
<path fill-rule="evenodd" clip-rule="evenodd" d="M19.6912 13.1837L18 10.7922V9.12002H17.9954C17.8689 5.45359 14.8573 2.52002 11.16 2.52002C7.38242 2.52002 4.32002 5.58242 4.32002 9.36002C4.31784 10.7688 4.75271 12.1435 5.56469 13.2947C5.85271 13.9578 6.0009 14.6732 6.00002 15.3962C6.00002 15.4562 5.99866 15.516 5.99666 15.5756H6.00002V20.4C6.00002 21.0628 6.53728 21.6 7.20002 21.6H13.8V18.6H16.8C17.4628 18.6 18 18.0628 18 17.4V14.16H19.224C19.455 14.16 19.6655 14.0273 19.7651 13.819C19.8648 13.6106 19.8361 13.3635 19.6912 13.1837ZM16.3424 8.17584C16.3421 8.87848 15.9893 9.53409 15.403 9.92141C14.8168 10.3087 14.0753 10.3761 13.4288 10.1008C12.5673 9.85131 11.6426 10.1783 11.1294 10.9139L11.1284 10.9133C10.4814 11.9873 9.21714 12.5236 7.99523 12.2422C6.77333 11.9608 5.87089 10.9257 5.75878 9.67682C5.72354 9.42062 5.70639 9.16226 5.70742 8.90366C5.70742 8.66849 5.73093 8.4339 5.77786 8.20346C6.18564 6.08234 7.85899 4.38175 9.97099 3.98426C10.3752 3.88823 10.7892 3.83984 11.2046 3.84007C13.3731 3.84007 15.2404 5.14056 16.0819 7.01047C16.1192 7.08813 16.1528 7.16784 16.1827 7.24958C16.283 7.52627 16.3367 7.81773 16.3414 8.11202C16.3416 8.12087 16.3418 8.12978 16.342 8.13868C16.342 8.14588 16.3424 8.15289 16.3424 8.16007C16.3424 8.16247 16.3424 8.16468 16.3424 8.167C16.3424 8.16993 16.3424 8.17286 16.3424 8.17584ZM11.0891 7.90612C10.7464 7.07918 10.587 7.95991 10.1103 7.48324C9.6336 7.00658 10.5146 6.84724 9.68758 6.50464C8.86058 6.16204 9.37051 6.89762 8.69654 6.89762C8.02258 6.89762 8.53246 6.16209 7.70549 6.50462C6.87852 6.84715 7.75922 7.00656 7.28258 7.48322C6.80594 7.95988 6.64658 7.07916 6.30396 7.9061C5.96134 8.73304 6.69696 8.2229 6.69696 8.89716C6.69696 9.57141 5.96126 9.06122 6.30396 9.88816C6.64666 10.7151 6.8059 9.8344 7.28258 10.3109C7.75927 10.7873 6.87842 10.9472 7.70549 11.2896C8.53255 11.6321 8.02229 10.8966 8.69654 10.8966C9.3708 10.8966 8.86042 11.6321 9.68758 11.2896C10.5147 10.9471 9.6336 10.7875 10.1103 10.3108C10.587 9.83412 10.7463 10.7151 11.0891 9.88809C11.4319 9.06112 10.6959 9.57129 10.6959 8.89708C10.6959 8.22288 11.4316 8.73309 11.0891 7.90612ZM8.6963 10.1981C8.17011 10.1982 7.6957 9.88123 7.49431 9.3951C7.29292 8.90897 7.40422 8.34939 7.77629 7.97731C8.14837 7.60524 8.70795 7.49394 9.19408 7.69533C9.68021 7.89672 9.99715 8.37113 9.9971 8.89732C9.99705 9.61571 9.41469 10.1981 8.6963 10.1981ZM12.3867 6.91384C12.8482 6.45328 13.1271 7.1062 13.2819 6.5284C13.4367 5.9506 12.8687 6.37648 12.6994 5.74718C12.53 5.11788 13.2358 5.2042 12.8113 4.7808C12.3868 4.35739 12.4734 5.0616 11.8425 4.89254C11.2116 4.72348 11.6385 4.15713 11.0592 4.31152C10.4798 4.46592 11.1345 4.74415 10.6728 5.20432C10.211 5.6645 9.9325 5.01184 9.77755 5.58976C9.62261 6.16768 10.1904 5.74142 10.36 6.37096C10.5296 7.00051 9.82375 6.91404 10.248 7.33718C10.6723 7.76032 10.586 7.0565 11.217 7.22551C11.8481 7.39452 11.4209 7.96111 12.0002 7.80645C12.5794 7.6518 11.9251 7.37404 12.3867 6.91384ZM12.0431 6.21163C11.9861 6.42464 11.8064 6.58234 11.5878 6.61119C11.3692 6.64004 11.1547 6.53435 11.0444 6.34341C10.9341 6.15247 10.9497 5.9139 11.084 5.73895C11.2182 5.56401 11.4446 5.48716 11.6576 5.54424C11.9482 5.62217 12.1208 5.9209 12.0431 6.21163ZM14.4224 7.03495C13.9362 6.72712 14.444 6.36295 13.9163 6.34068C13.3886 6.3184 13.8659 6.72424 13.3569 6.99004C12.848 7.25584 12.785 6.63379 12.5029 7.07908C12.2209 7.52438 12.8104 7.31505 12.7876 7.88894C12.7648 8.46283 12.194 8.20466 12.4396 8.67194C12.6852 9.13922 12.7975 8.52468 13.2838 8.83248C13.77 9.14028 13.262 9.50448 13.7897 9.52665C14.3174 9.54883 13.8401 9.1433 14.3491 8.87752C14.858 8.61175 14.9211 9.23371 15.2031 8.78853C15.4851 8.34336 14.8956 8.55228 14.9184 7.97863C14.9413 7.40498 15.512 7.66291 15.2664 7.19539C15.0208 6.72787 14.9086 7.34275 14.4224 7.03495ZM14.2446 8.19681C14.1407 8.36096 13.9482 8.44636 13.7568 8.41319C13.5654 8.38002 13.4129 8.23482 13.3703 8.0453C13.3277 7.85578 13.4035 7.65928 13.5623 7.54744C13.7212 7.4356 13.9317 7.43046 14.0958 7.53441C14.3197 7.67631 14.3863 7.97278 14.2446 8.19681Z" fill="currentColor"/>
</svg>
