<svg width="24" height="24" viewBox="0 0 24 24" fill="currentColor" xmlns="http://www.w3.org/2000/svg">
<path fill-rule="evenodd" clip-rule="evenodd" d="M12 1.80005C6.3667 1.80005 1.8 6.36674 1.8 12C1.8 17.6334 6.3667 22.2001 12 22.2001C17.6333 22.2001 22.2 17.6334 22.2 12C22.2 6.36674 17.6333 1.80005 12 1.80005ZM17.7238 18.1482L17.2988 17.7231L16.4548 16.8791L16.879 16.4548L17.7232 17.299C18.2824 16.6955 18.7428 16.0076 19.0874 15.2605L17.9828 14.8029L18.2124 14.2485L19.3174 14.7062C19.6026 13.9344 19.7633 13.1223 19.7937 12.3H18.6V11.7H19.7937C19.7633 10.8778 19.6026 10.0656 19.3174 9.29379L18.2124 9.75149L17.9828 9.19709L19.0874 8.73953C18.7428 7.99244 18.2824 7.30448 17.7231 6.70109L16.879 7.54519L16.4548 7.12092L17.2989 6.27682C16.8184 5.83184 16.284 5.44897 15.7081 5.1372L14.3817 12.3434C14.2359 13.3413 13.4825 14.1421 12.4953 14.3484C11.5081 14.5547 10.4971 14.1227 9.96387 13.2667C9.43058 12.4107 9.48847 11.3128 10.1088 10.5177L14.3364 4.55702C13.6762 4.35014 12.9914 4.2322 12.3 4.20634V5.40005H11.7V4.20634C10.8778 4.23672 10.0656 4.39748 9.29374 4.68262L9.75144 5.78765L9.19704 6.01726L8.73948 4.91263C7.9924 5.2572 7.30444 5.71764 6.70104 6.27691L7.54515 7.12102L7.12088 7.54529L6.27677 6.70119C5.7175 7.30458 5.25706 7.99254 4.91249 8.73962L6.01711 9.19718L5.78751 9.75159L4.68247 9.29388C4.39738 10.0657 4.23665 10.8778 4.20629 11.7H5.4V12.3H4.20629C4.23667 13.1223 4.39743 13.9345 4.68257 14.7063L5.7876 14.2486L6.01721 14.803L4.91259 15.2606C5.25716 16.0077 5.71757 16.6956 6.2768 17.2991L7.12097 16.4549L7.54524 16.8792L6.70119 17.7232L6.27622 18.1482C4.56708 16.5608 3.59719 14.3326 3.6 12C3.6 7.36085 7.3608 3.60005 12 3.60005C16.6392 3.60005 20.4 7.36085 20.4 12C20.4028 14.3326 19.4329 16.5607 17.7238 18.1482ZM10.5947 10.8706C10.1189 11.4657 10.0684 12.2955 10.4686 12.9439C10.8687 13.5923 11.6331 13.9193 12.3784 13.7609C13.1236 13.6024 13.6889 12.9927 13.7907 12.2376L15.2515 4.30402L10.5947 10.8706Z" fill="currentColor"/>
</svg>
