<svg width="24" height="24" viewBox="0 0 24 24" fill="currentColor" xmlns="http://www.w3.org/2000/svg">
<path fill-rule="evenodd" clip-rule="evenodd" d="M5.39999 2.40002H7.79999C8.13136 2.40002 8.39999 2.66865 8.39999 3.00002V5.40002C8.39999 5.7314 8.13136 6.00002 7.79999 6.00002H5.39999C5.06862 6.00002 4.79999 5.7314 4.79999 5.40002V3.00002C4.79999 2.66865 5.06862 2.40002 5.39999 2.40002ZM10.8 2.40002H13.2C13.5314 2.40002 13.8 2.66865 13.8 3.00002V5.40002C13.8 5.7314 13.5314 6.00002 13.2 6.00002H10.8C10.4686 6.00002 10.2 5.7314 10.2 5.40002V3.00002C10.2 2.66865 10.4686 2.40002 10.8 2.40002ZM16.2 2.40002H18.6C18.9314 2.40002 19.2 2.66865 19.2 3.00002V5.40002C19.2 5.7314 18.9314 6.00002 18.6 6.00002H16.2C15.8686 6.00002 15.6 5.7314 15.6 5.40002V3.00002C15.6 2.66865 15.8686 2.40002 16.2 2.40002ZM5.39999 7.80002H7.79999C8.13136 7.80002 8.39999 8.06865 8.39999 8.40002V10.8C8.39999 11.1314 8.13136 11.4 7.79999 11.4H5.39999C5.06862 11.4 4.79999 11.1314 4.79999 10.8V8.40002C4.79999 8.06865 5.06862 7.80002 5.39999 7.80002ZM10.8 7.80002H13.2C13.5314 7.80002 13.8 8.06865 13.8 8.40002V10.8C13.8 11.1314 13.5314 11.4 13.2 11.4H10.8C10.4686 11.4 10.2 11.1314 10.2 10.8V8.40002C10.2 8.06865 10.4686 7.80002 10.8 7.80002ZM16.2 7.80002H18.6C18.9314 7.80002 19.2 8.06865 19.2 8.40002V10.8C19.2 11.1314 18.9314 11.4 18.6 11.4H16.2C15.8686 11.4 15.6 11.1314 15.6 10.8V8.40002C15.6 8.06865 15.8686 7.80002 16.2 7.80002ZM5.39999 13.2H7.79999C8.13136 13.2 8.39999 13.4687 8.39999 13.8V16.2C8.39999 16.5314 8.13136 16.8 7.79999 16.8H5.39999C5.06862 16.8 4.79999 16.5314 4.79999 16.2V13.8C4.79999 13.4687 5.06862 13.2 5.39999 13.2ZM10.8 13.2H13.2C13.5314 13.2 13.8 13.4687 13.8 13.8V16.2C13.8 16.5314 13.5314 16.8 13.2 16.8H10.8C10.4686 16.8 10.2 16.5314 10.2 16.2V13.8C10.2 13.4687 10.4686 13.2 10.8 13.2ZM10.8 18.6H13.2C13.5314 18.6 13.8 18.8687 13.8 19.2V21.6C13.8 21.9314 13.5314 22.2 13.2 22.2H10.8C10.4686 22.2 10.2 21.9314 10.2 21.6V19.2C10.2 18.8687 10.4686 18.6 10.8 18.6ZM16.2 13.2H18.6C18.9314 13.2 19.2 13.4687 19.2 13.8V16.2C19.2 16.5314 18.9314 16.8 18.6 16.8H16.2C15.8686 16.8 15.6 16.5314 15.6 16.2V13.8C15.6 13.4687 15.8686 13.2 16.2 13.2Z" fill="currentColor"/>
</svg>
