<svg width="24" height="24" viewBox="0 0 24 24" fill="currentColor" xmlns="http://www.w3.org/2000/svg">
<path fill-rule="evenodd" clip-rule="evenodd" d="M22.192 10.128C22.1543 9.49082 21.613 8.99998 20.9749 8.99998H19.918C19.8444 8.99997 19.7791 8.95288 19.7559 8.88307L18.7833 5.96453C18.3129 4.55259 16.9918 3.59998 15.5036 3.59998H8.49045C7.00223 3.59998 5.68107 4.55258 5.21071 5.96453L4.23813 8.88307C4.21488 8.95288 4.14955 8.99998 4.07597 8.99998H3.01908C2.38099 8.99998 1.83969 9.49085 1.80197 10.128C1.78303 10.4579 1.90062 10.781 2.12713 11.0216C2.35364 11.2622 2.66913 11.399 2.99957 11.4H3.39864C3.13395 12.1943 2.99956 13.0268 2.99957 13.8641V19.2C3.00141 19.8618 3.53739 20.3979 4.19923 20.4H5.39889C6.06074 20.3979 6.59671 19.8618 6.59856 19.2V18H17.3955V19.2C17.3973 19.8618 17.9333 20.398 18.5952 20.4H19.7948C20.4567 20.398 20.9928 19.8619 20.9946 19.2V13.8641C20.9946 13.0268 20.8596 12.1951 20.5949 11.4007L20.9946 11.4C21.325 11.399 21.6405 11.2621 21.8669 11.0215C22.0934 10.781 22.211 10.4578 22.192 10.128ZM8.1527 15H6.00797C5.84639 15 5.69145 14.9357 5.57721 14.8215C5.46298 14.7072 5.39885 14.5522 5.39885 14.3907V13.3432C5.39885 13.1607 5.48062 12.9878 5.62175 12.872C5.76288 12.7563 5.94846 12.71 6.12744 12.7457L8.0514 13.1306C8.26577 13.1735 8.44071 13.328 8.5098 13.5354L8.7306 14.198C8.79255 14.3838 8.76141 14.588 8.64692 14.7469C8.53243 14.9058 8.34854 14.9999 8.1527 15ZM7.19834 10.2H6.30578C6.21198 10.2009 6.12304 10.1584 6.06482 10.0848C6.00659 10.0113 5.98561 9.91494 6.00799 9.82385L6.82027 6.61985C7.00202 5.9029 7.65518 5.39998 8.40453 5.39998H15.5895C16.3388 5.39998 16.992 5.9029 17.1737 6.61978L17.986 9.82378C18.0084 9.91488 17.9874 10.0112 17.9292 10.0848C17.871 10.1583 17.782 10.2009 17.6882 10.2H7.19834ZM18.5952 14.3907C18.5952 14.7271 18.3225 14.9999 17.986 15H15.8413C15.6455 14.9999 15.4616 14.9058 15.3471 14.7469C15.2326 14.588 15.2015 14.3838 15.2634 14.198L15.4842 13.5354C15.5533 13.328 15.7282 13.1735 15.9426 13.1306L17.8665 12.7457C18.0455 12.7099 18.2311 12.7563 18.3722 12.872C18.5134 12.9878 18.5952 13.1607 18.5951 13.3432L18.5952 14.3907ZM8.99784 8.32939C9.46895 8.32953 9.89376 8.04584 10.0741 7.61062C10.2545 7.17541 10.155 6.67439 9.82187 6.34121C9.48879 6.00803 8.9878 5.90832 8.55253 6.08858C8.11727 6.26884 7.83345 6.69356 7.83345 7.16467C7.8334 7.47353 7.95605 7.76976 8.17442 7.98819C8.39278 8.20662 8.68898 8.32935 8.99784 8.32939ZM10.0287 8.25878C9.44988 8.80471 8.54579 8.80471 7.96694 8.25878C7.49628 8.49045 7.19821 8.9695 7.19834 9.49409V9.59998H10.7973V9.49409C10.7975 8.9695 10.4994 8.49045 10.0287 8.25878ZM14.9962 8.32939C15.4673 8.32953 15.8921 8.04584 16.0725 7.61062C16.2528 7.17541 16.1533 6.67439 15.8202 6.34121C15.4871 6.00803 14.9861 5.90832 14.5509 6.08858C14.1156 6.26884 13.8318 6.69356 13.8318 7.16467C13.8317 7.47353 13.9544 7.76976 14.1727 7.98819C14.3911 8.20662 14.6873 8.32935 14.9962 8.32939ZM16.7957 9.49409C16.7958 8.9695 16.4977 8.49045 16.0271 8.25878C15.4482 8.80471 14.5441 8.80471 13.9653 8.25878C13.4946 8.49045 13.1965 8.9695 13.1967 9.49409V9.59998H16.7957V9.49409Z" fill="currentColor"/>
</svg>
