<svg width="24" height="24" viewBox="0 0 24 24" fill="currentColor" xmlns="http://www.w3.org/2000/svg">
<path fill-rule="evenodd" clip-rule="evenodd" d="M6.48001 22.2001C5.2208 22.2001 4.20001 21.3144 4.20001 19.8V1.80005H17.544C18.8032 1.80005 19.8 2.82401 19.8 4.20005V22.2001H6.48001ZM6.60001 19.824C6.60001 20.1554 6.89264 20.4 7.22401 20.4H10.8C11.1314 20.4 11.4 20.1554 11.4 19.824V16.224C11.4 15.8927 11.1314 15.6 10.8 15.6H7.22401C6.89264 15.6 6.60001 15.8927 6.60001 16.224V19.824ZM6.60001 13.824C6.60001 14.1554 6.89264 14.4 7.22401 14.4H10.8C11.1314 14.4 11.4 14.1554 11.4 13.824V10.224C11.4 9.89268 11.1314 9.60005 10.8 9.60005H7.22401C6.89264 9.60005 6.60001 9.89268 6.60001 10.224V13.824ZM17.4 4.20005C17.4 3.86868 17.1314 3.60005 16.8 3.60005H7.20001C6.86864 3.60005 6.60001 3.86868 6.60001 4.20005V7.80005C6.60001 8.13142 6.89264 8.40005 7.22401 8.40005H16.824C17.1554 8.40005 17.4 8.13142 17.4 7.80005V4.20005ZM17.4 10.224C17.4 9.89268 17.1314 9.60005 16.8 9.60005H13.224C12.8926 9.60005 12.6 9.89268 12.6 10.224V13.8C12.6 14.1314 12.8926 14.4 13.224 14.4H16.8C17.1314 14.4 17.4 14.1314 17.4 13.8V10.224ZM17.4 16.2C17.4 15.8687 17.1554 15.6 16.824 15.6H13.224C12.8926 15.6 12.6 15.8687 12.6 16.2V19.8C12.6 20.1314 12.8926 20.4 13.224 20.4H16.824C17.1554 20.4 17.4 20.1314 17.4 19.8V16.2ZM15.7219 17.736H16.068C16.1409 17.736 16.2 17.7951 16.2 17.868C16.2 17.941 16.1409 18 16.068 18H15.5234L15.3503 18.2303V18.3361H16.0679C16.1408 18.3361 16.1999 18.3951 16.1999 18.4681C16.1999 18.541 16.1408 18.6 16.0679 18.6H15.3504V19.3259C15.3537 19.4261 15.321 19.5242 15.2581 19.6023C15.1965 19.6766 15.1109 19.7138 15.001 19.7138C14.9045 19.7178 14.8116 19.6763 14.7501 19.6018C14.687 19.5239 14.6541 19.426 14.6572 19.3259V18.6H13.932C13.8591 18.6 13.8 18.541 13.8 18.4681C13.8 18.3951 13.8591 18.3361 13.932 18.3361H14.6571V18.2303L14.4901 18H13.932C13.8591 18 13.8 17.941 13.8 17.868C13.8 17.7951 13.8591 17.736 13.932 17.736H14.2985L13.9285 17.226C13.9159 17.2074 13.8973 17.181 13.8726 17.1468C13.8506 17.1171 13.8317 17.0852 13.8163 17.0515C13.8035 17.0229 13.7969 16.992 13.7969 16.9607C13.7962 16.8654 13.8282 16.7727 13.8876 16.6982C13.948 16.6206 14.0217 16.5817 14.1087 16.5817C14.2465 16.5785 14.3758 16.6479 14.4492 16.7645L15.0009 17.5681L15.5858 16.7556C15.6661 16.6367 15.7807 16.5772 15.9297 16.5772C16.0165 16.5764 16.0984 16.6175 16.1497 16.6877C16.208 16.7615 16.2389 16.8533 16.237 16.9474C16.237 17.0165 16.1921 17.1109 16.1021 17.2306L15.7219 17.736ZM15.7704 13.1488C15.644 13.2953 15.4534 13.3987 15.1987 13.459V13.7345C15.2007 13.7945 15.1815 13.8533 15.1445 13.9007C15.1081 13.9457 15.0524 13.9706 14.9946 13.9679C14.9358 13.9702 14.8794 13.9449 14.842 13.8995C14.8039 13.8531 14.7837 13.7945 14.7853 13.7344V13.4853C14.6262 13.4742 14.4695 13.4409 14.3197 13.3864C14.101 13.3016 13.9916 13.1839 13.9916 13.0331C13.9917 12.9523 14.0194 12.874 14.0703 12.8112C14.1147 12.748 14.1872 12.7104 14.2645 12.7103C14.3136 12.709 14.3625 12.7161 14.4092 12.7313L14.6362 12.8091C14.7689 12.8491 14.8726 12.8691 14.9476 12.8691C15.0385 12.8711 15.1276 12.8438 15.2017 12.7913C15.2728 12.7417 15.3137 12.6592 15.31 12.5726C15.31 12.4808 15.2645 12.4103 15.1736 12.3612C15.1097 12.3276 14.9789 12.2817 14.781 12.2235C14.6276 12.18 14.5121 12.143 14.4347 12.1125C14.3536 12.0795 14.2797 12.0307 14.2176 11.969C14.1467 11.9001 14.0908 11.8172 14.0536 11.7255C14.0156 11.6348 13.996 11.5374 13.9958 11.439C13.9958 11.3597 14.0059 11.2807 14.026 11.2039C14.0457 11.1275 14.0756 11.0541 14.115 10.9857C14.1549 10.9169 14.2038 10.8536 14.2603 10.7975C14.3908 10.6734 14.5658 10.5872 14.7852 10.5388V10.2895C14.7836 10.2294 14.8038 10.1708 14.8419 10.1244C14.8793 10.079 14.9358 10.0537 14.9946 10.056C15.0518 10.0543 15.1066 10.0794 15.1425 10.1239C15.1805 10.1705 15.2005 10.2293 15.1988 10.2895V10.5345C15.6 10.5997 15.8007 10.7333 15.8007 10.9352C15.8021 11.018 15.7689 11.0977 15.709 11.1549C15.6512 11.2139 15.5718 11.2466 15.4893 11.2454C15.4632 11.2454 15.4372 11.2426 15.4117 11.237C15.3864 11.2314 15.3536 11.2221 15.3133 11.2091C15.2731 11.1961 15.2435 11.1869 15.2248 11.1812C15.1509 11.1543 15.0732 11.1397 14.9946 11.138C14.9205 11.1378 14.8479 11.1588 14.7853 11.1985C14.7242 11.2334 14.6841 11.2961 14.6781 11.3662C14.6743 11.4251 14.7008 11.4817 14.7483 11.5166C14.805 11.5547 14.8679 11.5824 14.9342 11.5986C15.0668 11.6358 15.1862 11.6744 15.2925 11.7143C15.4248 11.7573 15.5509 11.8176 15.6674 11.8936C15.7657 11.9594 15.8461 12.0487 15.9012 12.1534C15.9564 12.2582 15.984 12.3877 15.984 12.5419C15.984 12.7824 15.9128 12.9847 15.7704 13.1488ZM7.36813 11.649C7.36813 11.5103 7.45974 11.3789 7.5999 11.3789H7.81384C7.88708 11.0368 8.02585 10.7363 8.24188 10.5276C8.4736 10.3035 8.77948 10.2 9.1264 10.2C9.69455 10.2 10.0637 10.4315 10.255 10.9053C10.2743 10.9465 10.284 10.9915 10.2833 11.037C10.2833 11.1461 10.2185 11.2403 10.1052 11.2877L10.1011 11.2979H10.0968C10.0644 11.3159 10.0218 11.3087 9.98051 11.3087C9.87112 11.3087 9.78311 11.2344 9.73895 11.1271C9.61708 10.8313 9.45673 10.7193 9.12656 10.7193C8.74465 10.7193 8.47057 10.9287 8.34896 11.3789H9.5613C9.70357 11.3789 9.78736 11.5066 9.78736 11.6447C9.78736 11.7862 9.70151 11.9011 9.5613 11.9011H8.27744C8.27536 11.9731 8.27744 11.9851 8.27744 12.0272C8.27744 12.0527 8.2768 12.1172 8.27744 12.1712H9.34715C9.49153 12.1712 9.56831 12.2804 9.56831 12.4232C9.56831 12.5598 9.4852 12.6573 9.34715 12.6573H8.33092C8.44036 13.0895 8.72183 13.2774 9.12644 13.2774C9.47596 13.2774 9.62929 13.164 9.73424 12.9001L9.7346 12.8991L9.73504 12.8981C9.78522 12.7805 9.87536 12.7159 9.98879 12.7159C10.0211 12.7164 10.0532 12.7217 10.0839 12.7317C10.2069 12.7655 10.2959 12.8737 10.2959 12.9859C10.2964 13.0241 10.288 13.0619 10.2714 13.0963C10.0678 13.5787 9.71464 13.8 9.12644 13.8C8.75063 13.8 8.44194 13.696 8.20897 13.4671C7.99297 13.2548 7.86037 12.9815 7.79605 12.6574H7.59995C7.45979 12.6574 7.36818 12.5619 7.36818 12.4232C7.36818 12.2824 7.4577 12.1712 7.59995 12.1712H7.76041C7.75984 12.1172 7.76041 12.0539 7.76041 12.0272C7.76041 11.988 7.7584 11.9732 7.76041 11.9012H7.59995C7.45979 11.9011 7.36813 11.7878 7.36813 11.649ZM7.68656 17.7795C7.75506 17.7183 7.84692 17.6877 7.96213 17.6877H8.10575C8.04815 17.5247 8.01935 17.3849 8.01935 17.2682C8.01576 17.0892 8.07904 16.9153 8.19683 16.7805C8.3186 16.6418 8.47314 16.5358 8.64637 16.472C8.81981 16.4042 9.00426 16.369 9.19048 16.368C9.52676 16.368 9.80895 16.4452 10.037 16.5996C10.255 16.7468 10.3682 16.9235 10.3768 17.1295C10.3789 17.2324 10.3393 17.3318 10.267 17.4051C10.1979 17.4789 10.1008 17.5201 9.99966 17.5185C9.93324 17.5205 9.86827 17.4988 9.81635 17.4574C9.75784 17.4068 9.70674 17.3483 9.66455 17.2835C9.6166 17.2023 9.54969 17.1339 9.46955 17.0843C9.38699 17.0405 9.29437 17.0192 9.20099 17.0226C9.10427 17.0223 9.0109 17.0579 8.93886 17.1224C8.86442 17.1826 8.82162 17.2735 8.82268 17.3692C8.82268 17.4467 8.85771 17.5529 8.92777 17.6876H9.27222C9.3718 17.6839 9.46933 17.7166 9.54661 17.7795C9.61901 17.8407 9.65521 17.9258 9.65521 18.0349C9.65842 18.1307 9.61648 18.2224 9.54193 18.2827C9.46614 18.3452 9.37043 18.3784 9.27222 18.3763H9.01417C9.01417 18.5397 8.9519 18.7399 8.82736 18.9768H10.0183C10.1147 18.9738 10.209 19.0055 10.284 19.0661C10.356 19.1256 10.392 19.2082 10.392 19.314C10.3934 19.3784 10.3762 19.4419 10.3424 19.4968C10.3095 19.5487 10.2622 19.5899 10.2063 19.6154C10.1475 19.6428 10.0832 19.6566 10.0183 19.6561H8.29607C8.02207 19.6561 7.88507 19.5328 7.88507 19.2862C7.88507 19.1947 7.92165 19.1062 7.99482 19.0209C8.06915 18.9322 8.12976 18.8329 8.17463 18.7262C8.2141 18.613 8.24074 18.4956 8.25404 18.3764H7.96213C7.85004 18.3764 7.75896 18.3464 7.68889 18.2864C7.61883 18.2264 7.58382 18.1426 7.58382 18.035C7.58382 17.9259 7.61807 17.8407 7.68656 17.7795Z" fill="currentColor"/>
</svg>
