<svg width="24" height="24" viewBox="0 0 24 24" fill="currentColor" xmlns="http://www.w3.org/2000/svg">
<path fill-rule="evenodd" clip-rule="evenodd" d="M1.79999 2.3999V14.3999H3.91696C3.60364 14.0502 3.36181 13.6425 3.20512 13.1999H2.99999V3.5999H21V13.1999H20.7949C20.6382 13.6425 20.3963 14.0502 20.083 14.3999H22.2V2.3999H1.79999ZM20.0926 14.799C19.1423 15.5922 17.8909 15.9264 16.6717 15.7127C16.6858 15.7335 16.7005 15.7541 16.7142 15.7751C17.1627 16.4585 17.4011 17.2584 17.4 18.0759V22.1999H22.2V18.0759C22.2002 16.665 21.3764 15.3841 20.0926 14.799ZM6.59999 21.1998V18.0759C6.59887 17.2584 6.83727 16.4586 7.28574 15.7751C7.29959 15.754 7.31411 15.7334 7.32832 15.7127C6.10912 15.9264 4.85769 15.5922 3.9074 14.799C2.62361 15.3841 1.7998 16.665 1.79999 18.0759V21.1998C1.79999 21.4651 1.90533 21.7194 2.09287 21.907C2.28041 22.0945 2.53477 22.1999 2.79999 22.1999H6.95233C6.72406 21.9166 6.59971 21.5637 6.59999 21.1998ZM14.6926 14.823C13.1338 16.1255 10.8662 16.1255 9.30738 14.823C8.02358 15.4081 7.19978 16.6891 7.19999 18.0999V21.1999C7.19999 21.7522 7.64771 22.1999 8.19999 22.1999H16.8V18.0999C16.8002 16.6891 15.9764 15.4082 14.6926 14.823ZM17.4 8.9759C16.494 8.97509 15.6364 9.38453 15.0675 10.0895C15.7776 11.2469 15.7776 12.705 15.0675 13.8623C15.946 14.9487 17.4581 15.2848 18.7141 14.6728C19.9701 14.0609 20.6374 12.663 20.3234 11.3016C20.0094 9.94021 18.7971 8.97583 17.4 8.9759ZM8.93262 13.8621C8.22245 12.7048 8.22245 11.2467 8.93262 10.0893C8.13331 9.10089 6.79784 8.72353 5.59944 9.14745C4.40105 9.57137 3.59992 10.7045 3.59992 11.9757C3.59992 13.2469 4.40105 14.38 5.59944 14.804C6.79784 15.2279 8.13331 14.8505 8.93262 13.8621ZM12 14.9759C13.6568 14.9759 15 13.6328 15 11.9759C15 10.319 13.6568 8.9759 12 8.9759C10.3431 8.9759 8.99999 10.319 8.99999 11.9759C8.99999 13.6328 10.3431 14.9759 12 14.9759Z" fill="currentColor"/>
</svg>
