<svg width="24" height="24" viewBox="0 0 24 24" fill="currentColor" xmlns="http://www.w3.org/2000/svg">
<path fill-rule="evenodd" clip-rule="evenodd" d="M11.3599 18.1009C11.2292 18.4835 10.8179 18.6928 10.4317 18.5732C10.0455 18.4537 9.8244 18.0487 9.93264 17.6592C10.0409 17.2697 10.4392 17.0369 10.8317 17.1337C10.8108 17.0237 10.8001 16.912 10.8 16.8V16.3362C10.5033 16.3958 10.2 16.2706 10.0317 16.019C9.86342 15.7675 9.86342 15.4393 10.0317 15.1878C10.2 14.9363 10.5033 14.811 10.8 14.8706V14.0802C10.5033 14.1398 10.2 14.0146 10.0317 13.763C9.86342 13.5115 9.86342 13.1833 10.0317 12.9318C10.2 12.6803 10.5033 12.555 10.8 12.6146V12.6L9.60001 11.4H5.40001V4.19999H10.8C10.8001 3.75667 10.9646 3.32912 11.2616 2.99999H5.40001V2.39999C5.40001 2.06862 5.13138 1.79999 4.80001 1.79999C4.46864 1.79999 4.20001 2.06862 4.20001 2.39999V21C4.20195 21.6619 4.73808 22.1981 5.40001 22.2H11.4C12.0619 22.1981 12.5981 21.6619 12.6 21V18.6C12.1378 18.5997 11.6935 18.4209 11.3599 18.1009ZM8.3848 12.6009C8.79759 12.6009 9.13223 12.9356 9.13223 13.3484C9.13223 13.7612 8.79759 14.0958 8.3848 14.0958C7.972 14.0958 7.63736 13.7612 7.63736 13.3484C7.63736 12.9356 7.972 12.6009 8.3848 12.6009ZM8.3848 14.8569C8.79759 14.8569 9.13223 15.1916 9.13223 15.6044C9.13223 16.0172 8.79759 16.3518 8.3848 16.3518C7.972 16.3518 7.63736 16.0172 7.63736 15.6044C7.63736 15.4061 7.71611 15.216 7.85628 15.0759C7.99645 14.9357 8.18656 14.8569 8.3848 14.8569ZM8.3848 17.1129C8.79759 17.1129 9.13223 17.4476 9.13223 17.8604C9.13223 18.2732 8.79759 18.6078 8.3848 18.6078C7.972 18.6078 7.63736 18.2732 7.63736 17.8604C7.63736 17.6621 7.71611 17.472 7.85628 17.3319C7.99645 17.1917 8.18656 17.1129 8.3848 17.1129ZM6.14744 12.6C6.56024 12.6 6.89488 12.9346 6.89488 13.3474C6.89488 13.7602 6.56024 14.0949 6.14744 14.0949C5.73465 14.0949 5.40001 13.7602 5.40001 13.3474C5.40001 12.9346 5.73465 12.6 6.14744 12.6ZM6.14744 14.856C6.56024 14.856 6.89488 15.1906 6.89488 15.6034C6.89488 16.0162 6.56024 16.3509 6.14744 16.3509C5.73465 16.3509 5.40001 16.0162 5.40001 15.6034C5.40001 15.4052 5.47876 15.2151 5.61893 15.0749C5.7591 14.9347 5.94921 14.856 6.14744 14.856ZM5.40001 17.8594C5.40001 17.5571 5.5821 17.2846 5.8614 17.1689C6.14069 17.0532 6.46218 17.1171 6.67595 17.3309C6.88972 17.5446 6.95367 17.8661 6.83798 18.1454C6.7223 18.4247 6.44975 18.6068 6.14744 18.6068C5.73466 18.6068 5.40001 18.2722 5.40001 17.8594ZM9.90001 21H6.90001C6.73433 21 6.60001 20.8657 6.60001 20.7C6.60001 20.5343 6.73433 20.4 6.90001 20.4H9.90001C10.0657 20.4 10.2 20.5343 10.2 20.7C10.2 20.8657 10.0657 21 9.90001 21ZM18.6 2.99999H12.6C11.9381 3.00193 11.4019 3.53805 11.4 4.19999V7.79999L9.00001 10.2L11.4 12.6V16.8C11.4019 17.4619 11.9381 17.9981 12.6 18H18.6C19.262 17.9981 19.7981 17.4619 19.8 16.8V4.19999C19.7981 3.53805 19.262 3.00193 18.6 2.99999ZM15.6 17.4C15.2686 17.4 15 17.1314 15 16.8C15 16.4686 15.2686 16.2 15.6 16.2C15.9314 16.2 16.2 16.4686 16.2 16.8C16.2 17.1314 15.9314 17.4 15.6 17.4ZM18.6 15.6H12.6V4.19999H18.6V15.6Z" fill="currentColor"/>
</svg>
