<svg width="24" height="24" viewBox="0 0 24 24" fill="currentColor" xmlns="http://www.w3.org/2000/svg">
<path fill-rule="evenodd" clip-rule="evenodd" d="M16.4 2H5V20.6C5 21.5941 5.80589 22.4 6.8 22.4H18.2V3.8C18.2 2.80589 17.3941 2 16.4 2ZM9.2 20.3C9.2 20.4657 9.06569 20.6 8.9 20.6H7.1C6.93431 20.6 6.8 20.4657 6.8 20.3V19.1C6.8 18.9343 6.93431 18.8 7.1 18.8H8.9C9.06569 18.8 9.2 18.9343 9.2 19.1V20.3ZM9.2 17.3C9.2 17.4657 9.06569 17.6 8.9 17.6H7.1C6.93431 17.6 6.8 17.4657 6.8 17.3V16.1C6.8 15.9343 6.93431 15.8 7.1 15.8H8.9C9.06569 15.8 9.2 15.9343 9.2 16.1V17.3ZM9.2 14.3C9.2 14.4657 9.06569 14.6 8.9 14.6H7.1C6.93431 14.6 6.8 14.4657 6.8 14.3V13.1C6.8 12.9343 6.93431 12.8 7.1 12.8H8.9C9.06569 12.8 9.2 12.9343 9.2 13.1V14.3ZM9.2 11.3C9.2 11.4657 9.06569 11.6 8.9 11.6H7.1C6.93431 11.6 6.8 11.4657 6.8 11.3V10.1C6.8 9.93431 6.93431 9.8 7.1 9.8H8.9C9.06569 9.8 9.2 9.93431 9.2 10.1V11.3ZM12.8 20.3C12.8 20.4657 12.6657 20.6 12.5 20.6H10.7C10.5343 20.6 10.4 20.4657 10.4 20.3V19.1C10.4 18.9343 10.5343 18.8 10.7 18.8H12.5C12.6657 18.8 12.8 18.9343 12.8 19.1V20.3ZM12.8 17.3C12.8 17.4657 12.6657 17.6 12.5 17.6H10.7C10.5343 17.6 10.4 17.4657 10.4 17.3V16.1C10.4 15.9343 10.5343 15.8 10.7 15.8H12.5C12.6657 15.8 12.8 15.9343 12.8 16.1V17.3ZM12.8 14.3C12.8 14.4657 12.6657 14.6 12.5 14.6H10.7C10.5343 14.6 10.4 14.4657 10.4 14.3V13.1C10.4 12.9343 10.5343 12.8 10.7 12.8H12.5C12.6657 12.8 12.8 12.9343 12.8 13.1V14.3ZM12.8 11.3C12.8 11.4657 12.6657 11.6 12.5 11.6H10.7C10.5343 11.6 10.4 11.4657 10.4 11.3V10.1C10.4 9.93431 10.5343 9.8 10.7 9.8H12.5C12.6657 9.8 12.8 9.93431 12.8 10.1V11.3ZM16.4 20.3C16.4 20.4657 16.2657 20.6 16.1 20.6H14.3C14.1343 20.6 14 20.4657 14 20.3V16.1C14 15.9343 14.1343 15.8 14.3 15.8H16.1C16.2657 15.8 16.4 15.9343 16.4 16.1V20.3ZM16.4 14.3C16.4 14.4657 16.2657 14.6 16.1 14.6H14.3C14.1343 14.6 14 14.4657 14 14.3V13.1C14 12.9343 14.1343 12.8 14.3 12.8H16.1C16.2657 12.8 16.4 12.9343 16.4 13.1V14.3ZM16.4 11.3C16.4 11.4657 16.2657 11.6 16.1 11.6H14.3C14.1343 11.6 14 11.4657 14 11.3V10.1C14 9.93431 14.1343 9.8 14.3 9.8H16.1C16.2657 9.8 16.4 9.93431 16.4 10.1V11.3ZM16.4 8C16.4 8.33137 16.1314 8.6 15.8 8.6H7.4C7.06863 8.6 6.8 8.33137 6.8 8V4.4C6.8 4.06863 7.06863 3.8 7.4 3.8H15.8C16.1314 3.8 16.4 4.06863 16.4 4.4V8Z" fill="currentColor"/>
</svg>
