<svg width="24" height="24" viewBox="0 0 24 24" fill="currentColor" xmlns="http://www.w3.org/2000/svg">
<path fill-rule="evenodd" clip-rule="evenodd" d="M19.8835 11.9759C19.8835 9.31787 22.7841 11.329 21.4337 8.06872C20.0825 4.80789 19.4539 8.28062 17.5743 6.40113C15.6951 4.52167 19.1684 3.89327 15.9076 2.54248C12.6464 1.19222 14.6577 4.09223 12.0004 4.09223C9.34232 4.09223 11.3534 1.19224 8.09285 2.54248C4.83212 3.89327 8.30501 4.52167 6.42536 6.40113C4.5457 8.28059 3.91736 4.80789 2.56683 8.06872C1.21563 11.3289 4.11624 9.31783 4.11624 11.9759C4.11624 14.634 1.21563 12.6227 2.56676 15.8835C3.91719 19.1441 4.54582 15.6713 6.42528 17.5502C8.30494 19.4294 4.83204 20.0587 8.09278 21.4094C11.3535 22.76 9.34224 19.8597 12.0004 19.8597C14.6577 19.8597 12.6464 22.7599 15.9076 21.4094C19.1683 20.0587 15.6951 19.4294 17.5742 17.5502C19.4539 15.6713 20.0825 19.1441 21.4336 15.8835C22.7841 12.6227 19.8835 14.6341 19.8835 11.9759ZM11.1098 7.09773C11.1098 6.6061 11.5084 6.20755 12 6.20755C12.4916 6.20755 12.8902 6.6061 12.8902 7.09773V11.3706H12.8884C12.8698 11.8478 12.4776 12.2251 12 12.2251C11.5224 12.2251 11.1302 11.8478 11.1116 11.3706H11.1098V7.09773ZM12.0356 17.3169C9.09053 17.3169 6.69452 14.9209 6.69452 11.9758C6.69567 10.4612 7.33874 9.01801 8.46418 8.00435C8.83 7.6784 9.39045 7.70933 9.71817 8.07357C10.0459 8.43781 10.0177 8.99841 9.65501 9.32788C8.90453 10.0037 8.47568 10.966 8.47488 11.9759C8.47488 13.9393 10.0722 15.5367 12.0356 15.5367C13.999 15.5367 15.5963 13.9393 15.5963 11.9759C15.5955 10.966 15.1666 10.0037 14.4162 9.32788C14.0507 8.99904 14.021 8.4362 14.3499 8.07074C14.6787 7.70528 15.2415 7.67559 15.607 8.00443C16.7325 9.0181 17.3755 10.4613 17.3767 11.9759C17.3767 14.921 14.9808 17.3169 12.0356 17.3169Z" fill="currentColor"/>
</svg>
