<svg width="24" height="24" viewBox="0 0 24 24" fill="currentColor" xmlns="http://www.w3.org/2000/svg">
<path fill-rule="evenodd" clip-rule="evenodd" d="M21 4.19995H3.00005C2.33731 4.19995 1.80005 4.73721 1.80005 5.39995V18.6C1.80005 19.2627 2.33731 19.8 3.00005 19.8H21C21.6628 19.8 22.2001 19.2627 22.2001 18.6V5.39995C22.2001 4.73721 21.6628 4.19995 21 4.19995ZM3.60005 5.39995C3.93142 5.39995 4.20005 5.66858 4.20005 5.99995C4.20005 6.33132 3.93142 6.59995 3.60005 6.59995C3.26868 6.59995 3.00005 6.33132 3.00005 5.99995C3.00005 5.66858 3.26868 5.39995 3.60005 5.39995ZM21 18.6H3.00005V7.79995H21V18.6ZM11.127 16.7998C11.2309 16.7998 11.3304 16.7584 11.4036 16.6848C11.4768 16.6111 11.5176 16.5114 11.517 16.4076C11.5159 16.35 11.4957 16.2945 11.4594 16.2499C11.1904 15.9106 11.2285 15.4212 11.5468 15.1276C11.8651 14.8341 12.356 14.8356 12.6725 15.1311C12.989 15.4266 13.0241 15.9162 12.753 16.2539C12.7181 16.2968 12.699 16.3503 12.6987 16.4055C12.6987 16.6233 12.8752 16.7998 13.093 16.7998H14.4354C14.56 16.8033 14.6806 16.7562 14.7698 16.6692C14.859 16.5823 14.9092 16.4629 14.9088 16.3384V14.4544C14.9088 14.3167 15.0204 14.2051 15.1581 14.2051C15.2914 14.206 15.4217 14.2444 15.5342 14.3159C15.7942 14.4782 16.1225 14.4835 16.3876 14.3297C16.6527 14.1759 16.8111 13.8882 16.7993 13.582C16.7828 13.1489 16.4053 12.7866 15.9718 12.7869C15.8171 12.7868 15.6655 12.8303 15.5344 12.9124C15.4193 12.9847 15.2863 13.0231 15.1504 13.0233C15.017 13.0233 14.9088 12.9152 14.9088 12.7817V11.3642C14.908 11.1031 14.6965 10.8916 14.4354 10.8908H13.0932C12.9886 10.8908 12.8883 10.8493 12.8144 10.7753C12.7404 10.7014 12.6989 10.6011 12.6989 10.4965C12.6992 10.4413 12.7183 10.3878 12.7532 10.3449C13.0206 10.0116 12.9902 9.52939 12.6829 9.23235C12.3756 8.93531 11.8927 8.9212 11.5686 9.19979C11.2445 9.47837 11.186 9.95796 11.4335 10.3063C11.5438 10.4566 11.5236 10.6657 11.3865 10.792C11.3151 10.8558 11.2227 10.891 11.127 10.8908H9.47306C9.21193 10.8916 9.00043 11.1031 8.99966 11.3642V12.7636C8.99966 12.897 9.10785 13.0052 9.24127 13.0052C9.37714 13.005 9.51021 12.9666 9.62527 12.8943C9.75639 12.8122 9.908 12.7687 10.0627 12.7688C10.4962 12.7684 10.8737 13.1307 10.8901 13.5639C10.902 13.8701 10.7436 14.1578 10.4786 14.3116C10.2135 14.4654 9.88509 14.4601 9.62513 14.2978C9.51266 14.2262 9.38231 14.1878 9.24902 14.187C9.11136 14.187 8.99976 14.2986 8.99976 14.4362V16.3384C8.99946 16.4629 9.04963 16.5823 9.13883 16.6692C9.22803 16.7562 9.34865 16.8033 9.47316 16.7998H11.127Z" fill="currentColor"/>
</svg>
