<svg width="24" height="24" viewBox="0 0 24 24" fill="currentColor" xmlns="http://www.w3.org/2000/svg">
<path fill-rule="evenodd" clip-rule="evenodd" d="M19.2 3.00001H10.7395C10.7395 3.00001 11.8621 4.13367 11.9089 4.20001H19.2C19.5312 4.20038 19.7996 4.46879 19.8 4.80001V19.2C19.7996 19.5312 19.5312 19.7996 19.2 19.8H4.8C4.46878 19.7996 4.20037 19.5312 4.2 19.2V11.7394L4.0488 11.7853L3.84264 11.8479L3.75833 11.8794H3.71405C3.71057 11.88 3.70685 11.8806 3.70296 11.8812C3.69026 11.8832 3.67978 11.8845 3.67147 11.8854C3.66002 11.8868 3.64853 11.8881 3.63713 11.889H3.6353C3.62616 11.8897 3.61709 11.8902 3.60766 11.8905C3.60286 11.8908 3.59774 11.891 3.59196 11.8912L3.58399 11.8916H3.56762C3.55426 11.8916 3.54288 11.8913 3.53316 11.8909C3.52699 11.8907 3.5209 11.8904 3.51504 11.89C3.4967 11.8889 3.47818 11.8872 3.45998 11.885L3.45823 11.8847L3.45646 11.8845C3.45067 11.8838 3.44494 11.8829 3.43915 11.8821C3.42991 11.8808 3.41719 11.8787 3.40238 11.8759C3.39518 11.8745 3.38798 11.873 3.38134 11.8715C3.36989 11.8691 3.35854 11.8663 3.34721 11.8634C3.34044 11.8616 3.33367 11.8597 3.32674 11.8577C3.31584 11.8546 3.30502 11.8513 3.29383 11.8476C3.28651 11.8452 3.27929 11.8428 3.27295 11.8404C3.26208 11.8365 3.25135 11.8323 3.24137 11.8284C3.23657 11.8265 3.23177 11.8245 3.22697 11.8225L3.22402 11.8213L3.22111 11.82C3.21105 11.8156 3.20109 11.8111 3.19123 11.8064C3.18511 11.8035 3.17909 11.8006 3.17345 11.7977C3.16219 11.792 3.15096 11.7861 3.13985 11.7799L3.1272 11.7732L3.11436 11.7651C3.10274 11.7581 3.09127 11.7507 3.07975 11.743C3.07452 11.7395 3.06931 11.7359 3.06413 11.7322C3.05486 11.7258 3.04562 11.719 3.03662 11.7122L3.03578 11.7116L3.03494 11.7109C3.03062 11.7076 3.02635 11.7043 3.02182 11.7007L3.02009 11.6993C3.01327 11.6938 3.00662 11.6883 3 11.6827V19.2C3.00111 20.1937 3.80635 20.9989 4.8 21H19.2C20.1937 20.9989 20.9989 20.1937 21 19.2V4.80001C20.9989 3.80636 20.1936 3.00113 19.2 3.00001ZM3.28855 11.0296C3.28882 11.034 3.28925 11.0384 3.28973 11.0427C3.28992 11.0443 3.29004 11.0459 3.29023 11.0475C3.291 11.0534 3.29196 11.0593 3.29309 11.0651C3.2933 11.0662 3.29362 11.0673 3.29383 11.0684C3.29482 11.0731 3.29592 11.0777 3.2971 11.0822C3.2976 11.0842 3.29822 11.0861 3.2988 11.0881C3.29983 11.0918 3.30094 11.0953 3.30214 11.099C3.30286 11.1012 3.30365 11.1033 3.30442 11.1054C3.30564 11.1088 3.30682 11.1121 3.30823 11.1154C3.30912 11.1176 3.31001 11.1197 3.31092 11.1218C3.31236 11.1251 3.31385 11.1283 3.31538 11.1314C3.31637 11.1335 3.31733 11.1355 3.31836 11.1375C3.32006 11.1408 3.32189 11.1441 3.32371 11.1474C3.3247 11.1491 3.32566 11.1509 3.32669 11.1527C3.32909 11.1566 3.33149 11.1605 3.33408 11.1644C3.33468 11.1653 3.33526 11.1663 3.33588 11.1672C3.3391 11.172 3.34243 11.1766 3.34594 11.1811C3.34697 11.1824 3.348 11.1837 3.34903 11.185C3.35158 11.1882 3.35414 11.1914 3.35683 11.1944C3.35822 11.196 3.35969 11.1976 3.36113 11.1992C3.36353 11.2019 3.36593 11.2045 3.3685 11.2071C3.3701 11.2087 3.37174 11.2103 3.3733 11.2119C3.3757 11.2143 3.37834 11.2167 3.38093 11.2191C3.38263 11.2207 3.38434 11.2222 3.38611 11.2237C3.38878 11.2261 3.39154 11.2282 3.3943 11.2305C3.39605 11.2318 3.39773 11.2332 3.39948 11.2346C3.4026 11.237 3.4057 11.2392 3.40894 11.2414C3.41045 11.2424 3.41194 11.2436 3.41347 11.2446C3.41827 11.2478 3.42307 11.2509 3.42802 11.2538C3.43282 11.2565 3.43829 11.2595 3.44309 11.262C3.44479 11.2628 3.4465 11.2636 3.44822 11.2644C3.4517 11.2661 3.45523 11.2677 3.45881 11.2692L3.46493 11.2716C3.46829 11.273 3.47167 11.2743 3.47508 11.2755C3.47724 11.2763 3.47942 11.277 3.48161 11.2777C3.48502 11.2788 3.48845 11.2799 3.49193 11.2809C3.49411 11.2815 3.49632 11.2821 3.49853 11.2827C3.50218 11.2837 3.50585 11.2845 3.50952 11.2853C3.51161 11.2858 3.51367 11.2862 3.51574 11.2866C3.52006 11.2875 3.5244 11.2881 3.52877 11.2888C3.53028 11.289 3.53177 11.2893 3.53328 11.2895C3.5392 11.2902 3.54516 11.2908 3.55116 11.2911C3.55238 11.2911 3.55356 11.2911 3.55483 11.2911C3.55896 11.2913 3.56311 11.2915 3.56734 11.2915H3.56909C3.57281 11.2915 3.57653 11.2913 3.58027 11.2911C3.5832 11.291 3.58613 11.2909 3.58908 11.2907C3.59299 11.2904 3.59693 11.2898 3.60086 11.2893C3.60367 11.289 3.60648 11.2888 3.60929 11.2883C3.61366 11.2876 3.61805 11.2867 3.62244 11.2859C3.62484 11.2854 3.62724 11.285 3.62964 11.2845C3.63628 11.283 3.64294 11.2812 3.64963 11.2792C3.64947 11.2793 3.64982 11.2792 3.64963 11.2792L3.87408 11.2111L4.2 11.1123L4.74017 10.9482L6.56657 10.3934L9 7.95841L9.28747 7.67077L11.3282 5.6289C11.4452 5.51212 11.5251 5.36336 11.5578 5.20131C11.5587 5.19668 11.5596 5.19207 11.5605 5.18744C11.5647 5.16469 11.568 5.14183 11.5703 5.11887C11.5706 5.1163 11.5709 5.11369 11.5711 5.11117C11.5735 5.08557 11.5747 5.05997 11.5747 5.03437C11.575 4.81096 11.4863 4.59567 11.3282 4.43782L10.1378 3.2467C9.95235 3.06077 9.69058 2.97231 9.43034 3.00764C9.42295 3.00862 9.41561 3.0097 9.40826 3.01095C9.3841 3.01484 9.3601 3.01969 9.33626 3.02569C9.31243 3.03169 9.2885 3.03874 9.26503 3.0469C9.16853 3.08083 9.07812 3.13245 9.0001 3.19861C8.98198 3.21394 8.96426 3.22981 8.94744 3.24661L7.99462 4.20001L4.2 7.99693L4.1856 8.01133L3.6312 9.83881L3.49392 10.2912L3.30038 10.9292C3.29846 10.9355 3.29681 10.9418 3.29537 10.9481C3.29489 10.9501 3.29455 10.9521 3.29412 10.9541C3.29323 10.9584 3.29237 10.9627 3.29172 10.967C3.29134 10.9694 3.29102 10.9718 3.29066 10.974C3.29014 10.9779 3.28963 10.9818 3.28927 10.9857C3.28906 10.9881 3.28886 10.9905 3.2887 10.9929C3.28843 10.9968 3.28824 11.0006 3.28814 11.0043C3.28814 11.0067 3.28814 11.0091 3.288 11.0115C3.288 11.0154 3.288 11.0193 3.28826 11.0232C3.28834 11.0252 3.28838 11.0274 3.28855 11.0296ZM4.2 8.85601L4.3933 8.21888L4.78092 8.6067L9 4.38517L9.18504 4.20001L9.54264 3.84226L9.74105 4.04077L9.58183 4.20001L9 4.7822L4.9793 8.80532L5.77291 9.59941L9 6.37038L10.5346 4.83486L10.733 5.03341L9 6.76743L5.97132 9.79794L6.35892 10.1858L4.53252 10.7406L4.2 10.4078L3.83885 10.0464L4.2 8.85601ZM9 12.6C9 11.9373 8.46274 11.4 7.8 11.4C7.13726 11.4 6.6 11.9373 6.6 12.6C6.6 13.2627 7.13726 13.8 7.8 13.8C8.46274 13.8 9 13.2627 9 12.6ZM16.008 11.016L14.4664 12.6V13.5055H17.4V12.6096H15.6664L16.608 11.616L16.008 11.016ZM6.576 16.8603C6.576 17.4898 7.08626 18 7.71569 18H16.2603C16.8897 18 17.4 17.4898 17.4 16.8603V16.2H6.576V16.8603Z" fill="currentColor"/>
</svg>
