<svg width="24" height="24" viewBox="0 0 24 24" fill="currentColor" xmlns="http://www.w3.org/2000/svg">
<path fill-rule="evenodd" clip-rule="evenodd" d="M6.76799 8.87996L3.69599 13.008H6.81599V8.87996H6.76799ZM1.79999 15V12.768L6.95999 5.85596H9.11999V12.984H10.68V14.976H9.11999V17.736H6.81599V15H1.79999ZM18.6306 17.6426C18.0743 17.8784 17.4762 18 16.872 18C15.9443 18 15.1209 17.8464 14.3801 17.5239C13.6393 17.2014 13.0142 16.7577 12.5051 16.1919C11.9961 15.6261 11.6058 14.9617 11.3343 14.1981C11.0629 13.4346 10.9272 12.6116 10.9272 11.7293C10.9272 10.8244 11.0629 9.98451 11.3344 9.20953C11.6059 8.43486 11.9962 7.75897 12.5052 7.18187C13.0143 6.60476 13.6392 6.15228 14.3802 5.82443C15.121 5.49643 15.9552 5.33241 16.883 5.33241C17.4963 5.33106 18.106 5.42552 18.6902 5.61239C19.2601 5.79256 19.7942 6.07108 20.2682 6.43535C20.7405 6.80086 21.1356 7.25649 21.4305 7.77582C21.7359 8.30766 21.9226 8.91851 21.9904 9.60836H19.4451C19.2865 8.92964 18.9811 8.4206 18.5288 8.08124C18.0762 7.74188 17.5276 7.5722 16.8829 7.5722C16.2832 7.5722 15.7741 7.68815 15.3558 7.92003C14.9458 8.14402 14.5964 8.4643 14.3377 8.8533C14.0773 9.24354 13.8879 9.68754 13.7692 10.1853C13.6495 10.6912 13.5897 11.2095 13.5911 11.7294C13.59 12.2297 13.6499 12.7282 13.7692 13.2141C13.88 13.6771 14.0725 14.1166 14.3376 14.512C14.5981 14.8972 14.9473 15.2144 15.3557 15.4368C15.774 15.6688 16.2831 15.7847 16.8828 15.7846C17.7651 15.7846 18.4467 15.5612 18.9274 15.1144C19.4082 14.6677 19.6968 14.0244 19.776 13.176H17.088V11.184H22.224L22.2 17.736H20.472L20.2086 16.3616C19.7335 16.9724 19.2075 17.3994 18.6306 17.6426Z" fill="currentColor"/>
</svg>
