<svg width="24" height="24" viewBox="0 0 24 24" fill="currentColor" xmlns="http://www.w3.org/2000/svg">
<path fill-rule="evenodd" clip-rule="evenodd" d="M12 1.8C6.3667 1.8 1.8 6.3667 1.8 12C1.8 17.6333 6.3667 22.2 12 22.2C17.6333 22.2 22.2 17.6333 22.2 12C22.2 6.3667 17.6333 1.8 12 1.8ZM12.2179 9.3936C12.0009 9.1754 11.7054 9.05337 11.3976 9.05487C11.0852 9.05839 10.7869 9.18534 10.5677 9.408L9.98787 9.98784C9.59499 10.3799 9.00749 10.5027 8.49046 10.3008C8.43227 10.2776 8.38966 10.2267 8.37709 10.1654C8.36451 10.104 8.38367 10.0405 8.42806 9.99629L11.1698 7.25446C11.3968 7.02751 11.7046 6.9 12.0256 6.9H13.2061C13.507 6.89917 13.7957 7.01877 14.0078 7.23211L14.6078 7.83212L12.6321 9.80784L12.2179 9.3936ZM18.6161 6.8239C19.0663 7.39833 19.4397 8.02901 19.7268 8.7H16.74L18.6161 6.8239ZM12 3.59999C13.8473 3.59711 15.6437 4.20594 17.1085 5.33146L15.0321 7.40787L14.4321 6.80787C14.1077 6.48162 13.6662 6.29874 13.2061 6.3H12.0256C11.5452 6.2987 11.0843 6.48961 10.7455 6.83019L7.58787 9.98787C7.5316 10.0441 7.5 10.1204 7.5 10.2C7.5 10.2796 7.5316 10.3559 7.58787 10.4121C8.36829 11.1908 9.63171 11.1908 10.4121 10.4121L10.9974 9.82687C11.0952 9.72686 11.2261 9.66604 11.3656 9.65588C11.525 9.64566 11.681 9.70473 11.7936 9.81792L12.2078 10.2321L7.83214 14.6079L7.41214 14.1879C7.35588 14.1316 7.27957 14.1 7.2 14.1H3.86465C3.45876 12.5164 3.52084 10.849 4.04338 9.3H7.47804C7.64402 9.30199 7.78143 9.1715 7.788 9.00564C7.78952 8.92511 7.75858 8.84734 7.70215 8.78986C7.64573 8.73237 7.56855 8.69999 7.488 8.7H4.27318C5.55552 5.7013 8.53231 3.59999 12 3.59999ZM13.5879 14.0121L14.7786 15.2029C14.8818 15.3038 14.9425 15.4403 14.9483 15.5845C14.9535 15.7566 14.8774 15.9211 14.7427 16.0285C14.6653 16.091 14.5722 16.1309 14.4736 16.1438C14.3038 16.1669 14.133 16.1092 14.0121 15.9878L12.8184 14.7942C12.7017 14.6774 12.5045 14.6712 12.3878 14.7879C12.2706 14.9051 12.2706 15.095 12.3878 15.2121L13.5785 16.4029C13.6817 16.5038 13.7424 16.6403 13.7482 16.7845C13.7534 16.9566 13.6773 17.1211 13.5426 17.2285C13.4652 17.291 13.3721 17.3309 13.2735 17.3438C13.1037 17.3669 12.9329 17.3092 12.812 17.1878L11.612 15.9878C11.4949 15.8706 11.3049 15.8706 11.1878 15.9878C11.0706 16.105 11.0706 16.2949 11.1878 16.4121L11.7782 17.0025C11.9882 17.2125 12.0043 17.5545 11.8024 17.7724C11.701 17.8817 11.5595 17.9451 11.4104 17.948C11.2613 17.9509 11.1175 17.893 11.0119 17.7877L9.33195 16.1077L13.7079 11.7321L15.9795 14.0037C16.1883 14.2125 16.2006 14.5658 15.9965 14.7791C15.8896 14.8915 15.7398 14.953 15.5848 14.9483C15.4409 14.9428 15.3045 14.8823 15.2037 14.7795L14.0184 13.5942C13.9017 13.4774 13.7045 13.4712 13.5878 13.5879C13.4707 13.7051 13.4707 13.895 13.5879 14.0121ZM5.33146 17.1085C4.77326 16.3815 4.33813 15.5679 4.04338 14.7H7.07573L7.40787 15.0321L5.33146 17.1085ZM12 20.4C10.1234 20.4029 8.30028 19.7746 6.8239 18.6161L8.90787 16.5321L10.5879 18.2121C10.8759 18.4998 11.2947 18.6136 11.6887 18.5113C12.0827 18.4091 12.3933 18.106 12.5051 17.7146C12.8601 17.9845 13.3393 18.0244 13.734 17.817C14.1288 17.6095 14.3677 17.1922 14.3468 16.7468C14.6695 16.7621 14.9837 16.6406 15.2121 16.4121C15.4406 16.1837 15.5621 15.8695 15.5468 15.5468C15.8717 15.5623 16.188 15.439 16.4167 15.2076C16.8634 14.7559 16.8466 14.0223 16.3975 13.5732L14.1322 11.3079L16.1453 9.29487C16.1633 9.29825 16.1817 9.29997 16.2 9.3H19.9566C20.4792 10.849 20.5412 12.5164 20.1354 14.1H17.65C17.484 14.098 17.3466 14.2285 17.34 14.3944C17.3385 14.4749 17.3694 14.5527 17.4259 14.6102C17.4823 14.6676 17.5595 14.7 17.64 14.7H19.9566C18.8322 18.0147 15.6947 20.4 12 20.4Z" fill="currentColor"/>
</svg>
