<svg width="24" height="24" viewBox="0 0 24 24" fill="currentColor" xmlns="http://www.w3.org/2000/svg">
<path fill-rule="evenodd" clip-rule="evenodd" d="M3 9.60001L10.5918 17.0806C11.3497 17.838 12.578 17.838 13.3359 17.0806L21 9.60001V19.8H4.2C3.53771 19.7989 3.0011 19.2623 3 18.6V9.60001ZM11.1513 15.9589C11.6195 16.4244 12.3754 16.4256 12.8451 15.9616L18.8887 9.97626C19.1165 9.75088 19.2 9.44036 19.2 9.12001V5.40001C19.2 5.08173 19.0737 4.77647 18.8486 4.55141C18.6235 4.32635 18.3183 4.20001 18 4.20001H5.99551C5.6777 4.20001 5.37299 4.32673 5.14869 4.55188C4.92438 4.77703 4.79892 5.0822 4.79999 5.40001V9.12001C4.79999 9.43902 4.91587 9.75265 5.142 9.97782L11.1513 15.9589ZM10.7253 6.60001H13.2231C13.2322 6.6075 13.2423 6.61365 13.2531 6.6183C13.5693 6.7023 13.727 6.8943 13.728 7.21919C13.7311 8.13781 13.7295 9.05644 13.7298 9.97504V10.1286H15.4803C15.4413 10.1726 15.4191 10.2006 15.3939 10.2257C14.4719 11.1469 13.5495 12.0676 12.6265 12.9877C12.2103 13.4001 11.7169 13.397 11.3017 12.9844C10.3828 12.0716 9.46618 11.1564 8.5518 10.239C8.52238 10.2096 8.49631 10.1768 8.44774 10.122H10.2007V9.79535C10.2007 8.95661 10.2008 8.11786 10.201 7.27909C10.2013 6.92605 10.3512 6.67775 10.705 6.61237C10.7124 6.60946 10.7193 6.60528 10.7253 6.60001Z" fill="currentColor"/>
</svg>
