<svg width="24" height="24" viewBox="0 0 24 24" fill="currentColor" xmlns="http://www.w3.org/2000/svg">
<path fill-rule="evenodd" clip-rule="evenodd" d="M19.7967 1.80005H11.9952C6.36192 1.80005 1.79945 6.36547 1.79945 11.9988C1.79945 17.6321 6.36501 22.2001 11.9983 22.2001C17.6316 22.2001 22.199 17.6334 22.199 12L22.1982 4.20005C22.1975 2.87426 21.1224 1.80005 19.7967 1.80005ZM14.7923 18.899C13.9877 19.7066 10.9896 18.9415 8.02579 15.9684C5.06265 12.9946 4.28837 10.1019 5.1048 9.17909C6.72326 7.56468 6.65167 7.25755 7.92693 8.84899C9.20155 10.4405 9.11693 10.342 7.85563 11.6076C7.35307 12.1118 8.4024 13.3874 9.50037 14.4888C10.5983 15.5903 11.8694 16.6433 12.3722 16.1394C13.6278 14.8794 13.5355 14.7885 15.121 16.0681C16.7072 17.3471 16.4998 17.1858 14.7923 18.899ZM11.4792 8.82766C11.3634 8.9429 11.2587 9.06875 11.1665 9.20354C12.186 8.51456 13.5492 8.63604 14.4309 9.49445C14.4408 9.50395 14.4507 9.51361 14.4605 9.52342C14.4702 9.53322 14.4798 9.54312 14.4893 9.5531C15.3431 10.4394 15.458 11.8032 14.7644 12.8199C15.5813 12.2676 16.0148 11.3002 15.8834 10.323C15.752 9.34572 15.0785 8.5272 14.1448 8.2102C13.2111 7.89319 12.1784 8.1324 11.4792 8.82766ZM10.1059 7.44725C9.99067 7.56199 9.88161 7.68276 9.77918 7.80905C11.5665 6.37231 14.1865 6.48718 15.8404 8.14944C17.4942 9.8117 17.5966 12.4331 16.1519 14.2142C16.2786 14.1124 16.3999 14.0038 16.5151 13.8891C18.2935 12.1187 18.3002 9.24134 16.5304 7.46251C14.7605 5.68368 11.8842 5.67679 10.1059 7.44725ZM8.73252 6.06682C8.61647 6.18239 8.50573 6.30114 8.40029 6.4231C10.9374 4.24598 14.7541 4.34892 17.1699 6.7255C17.1868 6.74209 17.2036 6.75877 17.2203 6.77554C17.237 6.7923 17.2536 6.80919 17.2701 6.8262C19.6343 9.25406 19.7192 13.0725 17.5308 15.6002C17.653 15.4952 17.7722 15.385 17.8883 15.2695C20.4287 12.7403 20.4385 8.62985 17.9102 6.08861C15.3818 3.54737 11.2729 3.53763 8.73252 6.06682Z" fill="currentColor"/>
</svg>
