<svg width="24" height="24" viewBox="0 0 24 24" fill="currentColor" xmlns="http://www.w3.org/2000/svg">
<path fill-rule="evenodd" clip-rule="evenodd" d="M15.7848 10.1379C13.6592 12.1407 10.3412 12.1408 8.21546 10.1381C6.51737 11.0635 5.444 12.8266 5.40156 14.76H5.40002V19.8C5.40002 21.1255 6.47454 22.2001 7.80002 22.2001H18.6V14.88C18.6007 12.9031 17.5207 11.0839 15.7848 10.1379ZM16.32 6.12005C16.32 8.50592 14.3859 10.44 12 10.44C9.61415 10.44 7.68002 8.50592 7.68002 6.12005C7.68002 3.73418 9.61415 1.80005 12 1.80005C14.3859 1.80005 16.32 3.73418 16.32 6.12005ZM14.3291 21.0012V20.6538L14.4004 20.6515C14.6105 20.6447 14.7665 20.5851 14.8644 20.4741C14.8992 20.434 14.9583 20.2973 14.9583 19.8375V16.7703C14.9583 16.333 14.8973 16.1682 14.8461 16.1069C14.7738 16.0205 14.6232 15.9699 14.3983 15.9563L14.3276 15.9521V15.5993H16.7037V19.8377C16.7037 20.2753 16.8179 20.4401 16.8689 20.5011C16.9409 20.5874 17.0686 20.6379 17.2974 20.6517L17.3757 20.6558V21.0014L14.3291 21.0012ZM15.7052 14.9154C15.1396 14.9154 14.681 14.4569 14.681 13.8913C14.681 13.3257 15.1395 12.8671 15.7052 12.8671C16.2708 12.8671 16.7293 13.3256 16.7293 13.8912C16.7293 14.1629 16.6214 14.4234 16.4293 14.6154C16.2373 14.8075 15.9768 14.9154 15.7052 14.9154Z" fill="currentColor"/>
</svg>
