<svg width="24" height="24" viewBox="0 0 24 24" fill="currentColor" xmlns="http://www.w3.org/2000/svg">
<path fill-rule="evenodd" clip-rule="evenodd" d="M17.0674 10.2696C17.2881 9.671 17.4007 9.03798 17.4 8.4C17.4 5.41766 14.9824 3 12 3C9.01769 3 6.60002 5.41766 6.60002 8.4C6.59935 9.03798 6.71197 9.671 6.93264 10.2696C4.36272 10.6848 2.40002 12.913 2.40002 15.6C2.40002 18.5823 4.81769 21 7.80002 21C9.43152 21.0015 10.9759 20.2638 12 18.9938C13.0242 20.2638 14.5685 21.0015 16.2 21C19.1824 21 21.6 18.5823 21.6 15.6C21.6 12.913 19.6373 10.6848 17.0674 10.2696ZM7.20002 8.4C7.20116 6.46336 8.36601 4.71711 10.1536 3.97215C11.9413 3.2272 14.0015 3.62948 15.3775 4.9922C16.7536 6.35492 17.176 8.41109 16.4485 10.2059C16.3661 10.2022 16.2833 10.2 16.2 10.2C14.5685 10.1985 13.0242 10.9362 12 12.2062C10.9759 10.9362 9.43152 10.1985 7.80002 10.2C7.71672 10.2 7.63394 10.2022 7.55155 10.2059C7.31829 9.63245 7.1989 9.01908 7.20002 8.4ZM12.6 15.6C12.6016 16.4137 12.3951 17.2142 12 17.9256C11.2986 16.6563 11.2074 15.1382 11.7516 13.794C11.8339 13.7978 11.9167 13.8 12 13.8C12.0833 13.8 12.1661 13.7978 12.2485 13.7941C12.4818 14.3675 12.6011 14.9809 12.6 15.6ZM11.3814 13.1606C10.3304 13.0252 9.35409 12.5446 8.60592 11.7941C8.30899 11.4977 8.05222 11.1637 7.84217 10.8005C9.10094 10.8094 10.3054 11.3144 11.1941 12.2059C11.3529 12.3646 11.5005 12.5342 11.6357 12.7135C11.5442 12.858 11.4594 13.0071 11.3814 13.1606ZM12.3643 12.7135C12.4996 12.5343 12.6471 12.3646 12.8059 12.2059C13.6946 11.3144 14.8991 10.8094 16.1579 10.8005C15.6339 11.7049 14.8304 12.4147 13.8683 12.823C13.4691 12.992 13.0487 13.1056 12.6188 13.1606C12.5409 13.0072 12.4561 12.8582 12.3643 12.7135ZM11.1941 18.9941C9.71204 20.4778 7.43849 20.8279 5.57871 19.8588C3.71892 18.8898 2.70327 16.8258 3.07015 14.761C3.43703 12.6962 5.10155 11.1085 7.18133 10.8394C7.96155 12.3785 9.42962 13.4526 11.1326 13.7304C10.5524 15.3079 10.7383 17.0654 11.6357 18.4866C11.5005 18.6658 11.3529 18.8354 11.1941 18.9941ZM19.5941 18.9941C18.6946 19.8954 17.4734 20.4019 16.2 20.4019C14.9266 20.4019 13.7055 19.8954 12.8059 18.9941C12.6471 18.8354 12.4996 18.6657 12.3643 18.4865C13.2618 17.0654 13.4477 15.3078 12.8674 13.7304C14.5704 13.4526 16.0385 12.3785 16.8187 10.8394C18.6335 11.0738 20.1569 12.32 20.7465 14.0522C21.3361 15.7845 20.8891 17.7013 19.5941 18.9941ZM11.064 10.254C11.394 10.254 11.55 10.026 11.55 9.564V8.514L12.684 9.936C12.864 10.158 13.014 10.284 13.206 10.284C13.476 10.284 13.668 10.08 13.668 9.828C13.668 9.672 13.572 9.486 13.38 9.27L12.612 8.418C13.254 8.31 13.632 7.872 13.632 7.266C13.632 6.48 13.056 5.934 12.006 5.934H11.25C10.71 5.934 10.578 6.144 10.578 6.618V9.564C10.578 10.026 10.734 10.254 11.064 10.254ZM11.55 6.828H12.012C12.402 6.828 12.618 7.02 12.618 7.338C12.618 7.668 12.396 7.866 12 7.866H11.55V6.828ZM9.04202 15.312H8.32802C7.87202 15.312 7.64402 15.45 7.64402 15.768C7.64402 16.086 7.87202 16.218 8.32802 16.218H8.67002C8.65802 16.746 8.31602 17.076 7.80602 17.076C7.17002 17.076 6.73802 16.566 6.73802 15.726C6.73802 14.904 7.15802 14.418 7.81202 14.418C8.40002 14.418 8.71202 14.832 9.00002 14.832C9.22802 14.832 9.41402 14.616 9.41402 14.376C9.41402 13.956 8.79002 13.488 7.84202 13.488C6.53402 13.488 5.68802 14.358 5.68802 15.744C5.68802 17.1 6.54602 18.006 7.72802 18.006C8.94602 18.006 9.72002 17.148 9.72002 15.96C9.72002 15.492 9.51602 15.312 9.04202 15.312ZM17.292 15.564C17.652 15.408 17.82 15.138 17.82 14.724C17.82 14.082 17.364 13.662 16.488 13.662H15.69C15.15 13.662 15.018 13.872 15.018 14.346V17.316C15.018 17.778 15.162 17.928 15.678 17.928H16.638C17.628 17.928 18.156 17.424 18.156 16.644C18.156 16.086 17.85 15.702 17.292 15.564ZM15.99 14.49H16.386C16.686 14.49 16.878 14.652 16.878 14.91C16.878 15.15 16.692 15.324 16.398 15.324H15.99V14.49ZM16.476 17.094H15.99V16.134H16.458C16.908 16.134 17.136 16.278 17.136 16.614C17.136 16.92 16.914 17.094 16.476 17.094Z" fill="currentColor"/>
</svg>
