<svg width="24" height="24" viewBox="0 0 24 24" fill="currentColor" xmlns="http://www.w3.org/2000/svg">
<path fill-rule="evenodd" clip-rule="evenodd" d="M15 10.0822H14.4V7.68603C14.4 7.35466 14.1314 7.08603 13.8 7.08603C13.4686 7.08603 13.2 7.35466 13.2 7.68603V10.0822H10.8V7.68603C10.8 7.35466 10.5314 7.08603 10.2 7.08603C9.86863 7.08603 9.6 7.35466 9.6 7.68603V10.0822H9C8.66789 10.084 8.39969 10.3539 8.4 10.686V11.8805H15.6V10.686C15.6003 10.3539 15.3321 10.084 15 10.0822ZM12 1.80603C6.3667 1.80603 1.8 6.37273 1.8 12.006C1.8 16.3401 4.50331 20.0424 8.31559 21.5199C8.6125 21.6598 8.96203 21.627 9.22771 21.4343C9.49339 21.2415 9.63308 20.9195 9.59225 20.5938C9.55143 20.2681 9.33655 19.9905 9.03152 19.8693L9.03259 19.8668C8.93151 19.8285 8.8308 19.7889 8.73089 19.7467C4.89437 18.1294 2.81729 13.9496 3.84508 9.91493C4.87287 5.88027 8.69655 3.20367 12.8393 3.61892C16.9821 4.03416 20.1984 7.41641 20.405 11.5748C20.6116 15.7332 17.7462 19.4175 13.665 20.2413C13.4903 20.2726 13.3104 20.2242 13.1743 20.1101C13.0383 19.9961 12.9598 19.8276 12.96 19.65C12.96 19.6471 12.9602 19.6442 12.9602 19.6413L12.96 15.9564C14.5205 15.5218 15.6001 14.1004 15.6 12.4805H8.4C8.39992 14.1465 9.54065 15.5959 11.16 15.9873V19.686C11.1708 20.3878 11.4886 21.0497 12.0289 21.4976C12.5693 21.9455 13.2786 22.1345 13.9701 22.0149C13.9701 22.0149 14.0637 21.9967 14.0845 21.992C18.718 21.0297 22.2 16.9248 22.2 12.006C22.2 6.37273 17.6333 1.80603 12 1.80603Z" fill="currentColor"/>
</svg>
