<svg width="24" height="24" viewBox="0 0 24 24" fill="currentColor" xmlns="http://www.w3.org/2000/svg">
<path fill-rule="evenodd" clip-rule="evenodd" d="M17.7 9H6.30005C5.47263 9.00243 4.80247 9.67258 4.80005 10.5V19.5C4.80247 20.3274 5.47263 20.9976 6.30005 21H17.7C18.5275 20.9976 19.1976 20.3274 19.2 19.5V10.5C19.1976 9.67258 18.5275 9.00243 17.7 9ZM10.88 19.2H8.22706C7.99123 19.2 7.80005 19.0088 7.80005 18.773V16.12L8.92006 17.24L10.74 15.42L11.58 16.26L9.76006 18.08L10.88 19.2ZM16.2 18.7805C16.2 19.0122 16.0122 19.2 15.7805 19.2H13.1201L14.24 18.08L11.3212 15.1612C11.218 15.058 11.16 14.918 11.16 14.772V11.2292C11.16 10.9921 11.3522 10.8 11.5892 10.8H11.8508C12.0878 10.8 12.28 10.9921 12.28 11.2292V14.2121C12.28 14.358 12.338 14.498 12.4412 14.6012L15.08 17.24L16.2 16.12V18.7805ZM12 5.025C13.864 5.025 15.375 6.53604 15.375 8.4H17.4L16.2826 7.25251L16.6766 5.7L15.1351 5.26498L14.7 3.72346L13.1476 4.11746L12 3L10.8525 4.11746L9.30005 3.72346L8.86502 5.26498L7.3235 5.7L7.71751 7.25251L6.60005 8.4H8.62505C8.62505 6.53604 10.1361 5.025 12 5.025Z" fill="currentColor"/>
</svg>
