<svg width="24" height="24" viewBox="0 0 24 24" fill="currentColor" xmlns="http://www.w3.org/2000/svg">
<path fill-rule="evenodd" clip-rule="evenodd" d="M17.2794 19.452C14.6285 19.452 12.4794 18.8072 12.4794 18.012V19.692C12.4794 20.4872 14.6285 21.132 17.2794 21.132C19.9304 21.132 22.0794 20.4872 22.0794 19.692V18.012C22.0794 18.8072 19.9304 19.452 17.2794 19.452ZM17.2794 17.292C14.6285 17.292 12.4794 16.6472 12.4794 15.852V17.532C12.4794 18.3272 14.6285 18.972 17.2794 18.972C19.9304 18.972 22.0794 18.3272 22.0794 17.532V15.852C22.0794 16.6472 19.9304 17.292 17.2794 17.292ZM17.2794 15.132C14.6285 15.132 12.4794 14.4872 12.4794 13.692V15.372C12.4794 16.1672 14.6285 16.812 17.2794 16.812C19.9304 16.812 22.0794 16.1672 22.0794 15.372V13.692C22.0794 14.4872 19.9304 15.132 17.2794 15.132ZM6.71943 19.452C4.06847 19.452 1.91943 18.8072 1.91943 18.012V19.692C1.91943 20.4872 4.06847 21.132 6.71943 21.132C9.3704 21.132 11.5194 20.4872 11.5194 19.692V18.012C11.5194 18.8072 9.3704 19.452 6.71943 19.452ZM6.71943 17.292C4.06847 17.292 1.91943 16.6472 1.91943 15.852V17.532C1.91943 18.3272 4.06847 18.972 6.71943 18.972C9.3704 18.972 11.5194 18.3272 11.5194 17.532V15.852C11.5194 16.6472 9.3704 17.292 6.71943 17.292ZM6.71943 15.132C4.06847 15.132 1.91943 14.4872 1.91943 13.692V15.372C1.91943 16.1672 4.06847 16.812 6.71943 16.812C9.3704 16.812 11.5194 16.1672 11.5194 15.372V13.692C11.5194 14.4872 9.3704 15.132 6.71943 15.132ZM6.71943 12.972C4.06847 12.972 1.91943 12.3272 1.91943 11.532V13.212C1.91943 14.0072 4.06847 14.652 6.71943 14.652C9.3704 14.652 11.5194 14.0072 11.5194 13.212V11.532C11.5194 12.3272 9.3704 12.972 6.71943 12.972ZM6.71943 10.812C4.06847 10.812 1.91943 10.1672 1.91943 9.37196V11.052C1.91943 11.8472 4.06847 12.492 6.71943 12.492C9.3704 12.492 11.5194 11.8472 11.5194 11.052V9.37196C11.5194 10.1672 9.3704 10.812 6.71943 10.812ZM6.71943 8.65196C4.06847 8.65196 1.91943 8.00725 1.91943 7.21196V8.89196C1.91943 9.68725 4.06847 10.332 6.71943 10.332C9.3704 10.332 11.5194 9.68725 11.5194 8.89196V7.21196C11.5194 8.00725 9.3704 8.65196 6.71943 8.65196ZM6.71943 6.49196C4.06847 6.49196 1.91943 5.84725 1.91943 5.05196V6.73196C1.91943 7.52725 4.06847 8.17196 6.71943 8.17196C9.3704 8.17196 11.5194 7.52725 11.5194 6.73196V5.05196C11.5194 5.84725 9.3704 6.49196 6.71943 6.49196ZM22.0794 13.212C22.0794 14.0072 19.9304 14.652 17.2794 14.652C14.6285 14.652 12.4794 14.0072 12.4794 13.212C12.4794 12.4167 14.6285 11.772 17.2794 11.772C19.9304 11.772 22.0794 12.4167 22.0794 13.212ZM11.5194 4.57196C11.5194 5.36725 9.3704 6.01196 6.71943 6.01196C4.06847 6.01196 1.91943 5.36725 1.91943 4.57196C1.91943 3.77667 4.06847 3.13196 6.71943 3.13196C9.3704 3.13196 11.5194 3.77667 11.5194 4.57196Z" fill="currentColor"/>
</svg>
