<svg width="24" height="24" viewBox="0 0 24 24" fill="currentColor" xmlns="http://www.w3.org/2000/svg">
<path fill-rule="evenodd" clip-rule="evenodd" d="M16.2021 21.6H15.0717C15.0719 21.5914 15.0723 21.5829 15.0723 21.5743C15.0695 20.908 14.5278 20.3697 13.8615 20.3711V19.248C15.1544 19.248 16.2024 20.2896 16.2024 21.5742C16.2024 21.5829 16.2022 21.5914 16.2021 21.6ZM18.3009 21.6H17.1708C17.1708 21.5914 17.1711 21.5829 17.1711 21.5743C17.173 20.7004 16.8237 19.8624 16.2017 19.2487C15.5807 18.6293 14.7385 18.2827 13.8614 18.2856V17.1624C16.3134 17.1624 18.3012 19.1376 18.3012 21.5742C18.3012 21.5829 18.3009 21.5914 18.3009 21.6ZM20.3998 21.6H19.2696C19.2696 21.5914 19.2699 21.5829 19.2699 21.5743C19.2714 20.1467 18.7009 18.778 17.6859 17.7741C16.6702 16.7631 15.2945 16.1969 13.8614 16.2V15.0769C17.4726 15.0769 20.4 17.9859 20.4 21.5743C20.4 21.5829 20.4 21.5914 20.3998 21.6ZM20.28 4.20002H16.32C16.2537 4.20002 16.2 4.1463 16.2 4.08002V3.60002H15C13.68 3.60002 12.6 4.68002 12.6 6.00002V14.5623C12.9704 14.7767 13.199 15.172 13.2 15.6V21H14.04C14.2386 21.0006 14.3994 21.1614 14.4 21.36V21.6H9.59998V21.36C9.60056 21.1614 9.76139 21.0006 9.95998 21H10.8V15.6C10.801 15.172 11.0295 14.7767 11.4 14.5623V6.00002C11.4 4.68002 10.32 3.60002 8.99998 3.60002H7.79998V4.08002C7.79998 4.1463 7.74625 4.20002 7.67998 4.20002H3.71998C3.6537 4.20002 3.59998 4.1463 3.59998 4.08002V3.60002C3.60191 2.93809 4.13804 2.40196 4.79998 2.40002H9.19932C10.3192 2.40195 11.3664 2.95463 12 3.87804C12.6335 2.95463 13.6808 2.40195 14.8006 2.40002H19.2C19.8619 2.40196 20.398 2.93809 20.4 3.60002V4.08002C20.4 4.1463 20.3463 4.20002 20.28 4.20002ZM5.69998 6.00002C6.52841 6.00002 7.19998 5.46276 7.19998 4.80002H4.19998C4.19998 5.46276 4.87154 6.00002 5.69998 6.00002ZM18.3 6.00002C19.1284 6.00002 19.8 5.46276 19.8 4.80002H16.8C16.8 5.46276 17.4715 6.00002 18.3 6.00002Z" fill="currentColor"/>
</svg>
