<svg width="24" height="24" viewBox="0 0 24 24" fill="currentColor" xmlns="http://www.w3.org/2000/svg">
<path fill-rule="evenodd" clip-rule="evenodd" d="M19.7929 2.99292H4.19287C3.53016 2.99292 2.99287 3.53021 2.99287 4.19292V19.7929C2.99287 20.4556 3.53016 20.9929 4.19287 20.9929H19.7929C20.4556 20.9929 20.9929 20.4556 20.9929 19.7929V4.19292C20.9929 3.53021 20.4556 2.99292 19.7929 2.99292ZM7.79287 19.1929H4.79287V16.1929H7.79287V19.1929ZM7.79287 14.9929H4.79287V11.9929H7.79287V14.9929ZM7.79287 10.7929H4.79287V7.79292H7.79287V10.7929ZM19.1929 19.1929H8.99287V16.1929H19.1929V19.1929ZM19.1929 14.9929H8.99287V11.9929H19.1929V14.9929ZM19.1929 10.7929H8.99287V7.79292H19.1929V10.7929Z" fill="currentColor"/>
</svg>
