<svg width="24" height="24" viewBox="0 0 24 24" fill="currentColor" xmlns="http://www.w3.org/2000/svg">
<path fill-rule="evenodd" clip-rule="evenodd" d="M20.9488 11.04C20.5019 6.84283 17.1571 3.49795 12.96 3.05107V1.19995H11.04V3.05107C6.84235 3.49795 3.49795 6.84259 3.05107 11.04H1.19995V12.96H3.05107C3.49795 17.1573 6.84235 20.5019 11.04 20.9488V22.7999H12.96V20.9488C17.1571 20.5019 20.5019 17.1571 20.9488 12.96H22.7999V11.04H20.9488ZM19.1361 12.96C18.7075 16.1637 16.1637 18.7075 12.96 19.1361V17.4H11.04V19.1361C7.83619 18.7075 5.29243 16.1637 4.86379 12.96H6.59995V11.04H4.86379C5.29243 7.83619 7.83619 5.29243 11.04 4.86379V6.59995H12.96V4.86379C16.1637 5.29243 18.7075 7.83619 19.1361 11.04H17.4V12.96H19.1361Z" fill="currentColor"/>
</svg>
