<svg width="24" height="24" viewBox="0 0 24 24" fill="currentColor" xmlns="http://www.w3.org/2000/svg">
<path fill-rule="evenodd" clip-rule="evenodd" d="M19.2082 4.78331C17.2973 2.86746 14.7016 1.79228 11.9957 1.79578C6.36244 1.79578 1.79572 6.36251 1.79572 11.9958C1.79572 17.6291 6.36244 22.1958 11.9957 22.1958C17.629 22.1958 22.1957 17.6291 22.1957 11.9958C22.1992 9.28989 21.1241 6.69419 19.2082 4.78331ZM18.3598 5.63171L15.3898 8.60171C14.4906 7.70004 13.2691 7.19405 11.9957 7.19579V2.99579C14.3833 2.99267 16.6737 3.94131 18.3598 5.63171ZM11.9957 15.5958C10.0077 15.5957 8.39615 13.984 8.39615 11.9959C8.39615 10.0079 10.0078 8.39623 11.9959 8.39623C13.9839 8.39623 15.5956 10.0077 15.5957 11.9958C15.5957 12.9506 15.2164 13.8662 14.5413 14.5414C13.8662 15.2165 12.9505 15.5958 11.9957 15.5958Z" fill="currentColor"/>
</svg>
