<svg width="24" height="24" viewBox="0 0 24 24" fill="currentColor" xmlns="http://www.w3.org/2000/svg">
<path fill-rule="evenodd" clip-rule="evenodd" d="M22.1959 12.0017C22.1959 12.4987 21.7929 12.9017 21.2959 12.9017H19.3471L21.3465 14.9011C21.6425 15.2021 21.6405 15.6855 21.342 15.984C21.0435 16.2825 20.5602 16.2845 20.2592 15.9885L17.1723 12.9017H13.5617L15.3859 16.0614L19.57 17.1825C19.8354 17.2536 20.0426 17.4609 20.1137 17.7263C20.1848 17.9916 20.1089 18.2747 19.9147 18.469C19.7204 18.6632 19.4373 18.7391 19.172 18.668L16.4733 17.9449L17.4357 19.6117C17.6842 20.0422 17.5367 20.5926 17.1063 20.8411C16.6758 21.0897 16.1254 20.9422 15.8768 20.5117L14.9024 18.8241L14.1706 21.5553C14.0591 21.9636 13.6386 22.205 13.2298 22.0955C12.821 21.9859 12.5776 21.5666 12.6852 21.1573L13.815 16.9405L11.9898 13.7792L10.1586 16.9509L11.2885 21.1677C11.3596 21.4331 11.2837 21.7162 11.0895 21.9105C10.8952 22.1047 10.6121 22.1806 10.3468 22.1095C10.0814 22.0384 9.87416 21.8311 9.80306 21.5658L9.07106 18.8343L8.10866 20.5012C7.94868 20.7812 7.65108 20.9543 7.32856 20.9548C7.00604 20.9552 6.70792 20.7831 6.54708 20.5036C6.38625 20.224 6.3873 19.8798 6.54984 19.6012L7.50024 17.9551L4.80185 18.6783C4.39166 18.7882 3.97003 18.5448 3.86011 18.1346C3.7502 17.7244 3.99362 17.3028 4.40381 17.1928L8.58775 16.0717L10.4181 12.9017H6.79543L3.70848 15.9887C3.51423 16.1829 3.2311 16.2588 2.96575 16.1877C2.70039 16.1166 2.49313 15.9093 2.42203 15.644C2.35092 15.3786 2.42679 15.0955 2.62104 14.9012L4.62058 12.9017H2.69578C2.19872 12.9017 1.79578 12.4987 1.79578 12.0017C1.79578 11.5046 2.19872 11.1017 2.69578 11.1017H4.59658L2.62116 9.12627C2.32325 8.82558 2.32437 8.34066 2.62367 8.04136C2.92297 7.74205 3.40788 7.74092 3.70858 8.03883L6.77143 11.1017H10.444L8.62663 7.95396L4.40983 6.82407C4.14329 6.75401 3.93463 6.54668 3.86287 6.28059C3.79112 6.01451 3.86725 5.73037 4.06243 5.53581C4.25761 5.34124 4.54199 5.26601 4.80785 5.33861L7.53926 6.07061L6.57686 4.40376C6.41503 4.12524 6.41439 3.78146 6.57519 3.50234C6.736 3.22321 7.03372 3.05132 7.35585 3.05161C7.67798 3.0519 7.97539 3.22433 8.13569 3.50374L9.08609 5.1498L9.80916 2.45132C9.91908 2.04112 10.3407 1.7977 10.7509 1.90762C11.1611 2.01753 11.4045 2.43916 11.2946 2.84936L10.1735 7.03318L11.9898 10.1792L13.8002 7.04352L12.6791 2.85944C12.6066 2.59361 12.6818 2.3093 12.8764 2.11417C13.0709 1.91904 13.355 1.84292 13.621 1.91464C13.8871 1.98636 14.0944 2.19495 14.1645 2.46142L14.8876 5.16005L15.85 3.4932C16.01 3.21316 16.3076 3.04013 16.6301 3.03964C16.9526 3.03915 17.2508 3.21128 17.4116 3.49083C17.5724 3.77039 17.5714 4.11463 17.4088 4.3932L16.4344 6.08084L19.1656 5.349C19.5758 5.23909 19.9975 5.48251 20.1074 5.8927C20.2173 6.30289 19.9739 6.72452 19.5637 6.83443L15.3469 7.96431L13.5357 11.1017H17.1963L20.2593 8.03873C20.5596 7.73845 21.0464 7.73845 21.3467 8.03873C21.647 8.33901 21.647 8.82587 21.3467 9.12615L19.3712 11.1017H21.296C21.793 11.1017 22.1959 11.5047 22.1959 12.0017Z" fill="currentColor"/>
</svg>
