<svg width="24" height="24" viewBox="0 0 24 24" fill="currentColor" xmlns="http://www.w3.org/2000/svg">
<path d="M3.02138 17.9929V20.9929H7.82138V16.7929H4.22138C3.55864 16.7929 3.02138 17.3302 3.02138 17.9929ZM17.4214 16.7929C16.7586 16.7929 16.2214 17.3302 16.2214 17.9929V20.9929H21.0214V16.7929H17.4214ZM15.6214 2.99292H10.2214C9.22726 2.99292 8.42138 3.79881 8.42138 4.79292V8.99292H15.6214V2.99292ZM6.02138 13.1929H18.0214V15.5929H19.2214V12.5929C19.2214 12.2615 18.9527 11.9929 18.6214 11.9929H12.6214V10.1929H11.4214V11.9929H5.42138C5.09001 11.9929 4.82138 12.2615 4.82138 12.5929V15.5929H6.02138V13.1929ZM9.62138 18.5929C9.29001 18.5929 9.02138 18.8616 9.02138 19.1929C9.02138 19.5243 9.29001 19.7929 9.62138 19.7929C9.95275 19.7929 10.2214 19.5243 10.2214 19.1929C10.2214 18.8616 9.95275 18.5929 9.62138 18.5929ZM12.0214 18.5929C11.69 18.5929 11.4214 18.8616 11.4214 19.1929C11.4214 19.5243 11.69 19.7929 12.0214 19.7929C12.3527 19.7929 12.6214 19.5243 12.6214 19.1929C12.6214 18.8616 12.3527 18.5929 12.0214 18.5929ZM14.4214 18.5929C14.09 18.5929 13.8214 18.8616 13.8214 19.1929C13.8214 19.5243 14.09 19.7929 14.4214 19.7929C14.7527 19.7929 15.0214 19.5243 15.0214 19.1929C15.0214 18.8616 14.7527 18.5929 14.4214 18.5929Z" fill="currentColor"/>
</svg>
