<svg width="24" height="24" viewBox="0 0 24 24" fill="currentColor" xmlns="http://www.w3.org/2000/svg">
<path fill-rule="evenodd" clip-rule="evenodd" d="M10.4068 18.0264L10.3989 15.494L8.15031 16.8C7.53363 17.175 7.27622 17.9392 7.53978 18.6111C7.80334 19.2831 8.51186 19.6682 9.21907 19.524C9.92629 19.3797 10.4274 18.7479 10.4068 18.0264ZM10.9984 12.7758L10.9906 10.2434L8.74196 11.5495C8.12528 11.9245 7.86789 12.6887 8.13148 13.3606C8.39506 14.0326 9.10361 14.4177 9.81083 14.2734C10.518 14.1291 11.0191 13.4973 10.9984 12.7758ZM15.2093 15.192L15.2015 12.6596L12.9529 13.9656C12.3362 14.3407 12.0788 15.1048 12.3424 15.7767C12.6059 16.4486 13.3144 16.8338 14.0216 16.6895C14.7289 16.5453 15.23 15.9135 15.2093 15.192ZM21.1837 12.396C21.2412 12.0375 21.2701 11.675 21.2701 11.3119C21.27 7.54993 18.2204 4.50021 14.4584 4.5H14.4524C12.5153 4.49981 10.6701 5.32591 9.38 6.7709C7.84088 6.63157 6.42848 7.63081 6.04755 9.12854C3.71098 9.62522 2 11.7028 2 14.1344C2 16.3517 3.41737 18.2441 5.3936 18.9536C5.57823 19.0203 5.78379 18.993 5.94454 18.8803C6.1053 18.7676 6.20109 18.5837 6.2013 18.3873C6.20238 18.1347 6.0447 17.9085 5.80724 17.8222C4.292 17.2818 3.20444 15.8328 3.20444 14.1344C3.20444 12.1585 4.68102 10.4885 6.63908 10.2497L7.11795 10.1913L7.16307 9.7355C7.21223 9.20896 7.47083 8.72423 7.88079 8.39018C8.22374 8.11293 8.6515 7.96185 9.0925 7.96222C9.15706 7.96222 9.22194 7.96542 9.28714 7.97182C9.35795 7.97884 9.42832 7.98974 9.49794 8.00446L9.86002 8.08126L10.092 7.79285C11.1543 6.47221 12.7579 5.70422 14.4528 5.70444H14.4577C15.945 5.7044 17.3714 6.29517 18.423 7.34681C19.4747 8.39844 20.0655 9.82478 20.0655 11.312C20.0656 11.7098 20.0235 12.1064 19.9401 12.4952L19.862 12.8591L20.1507 13.0902C20.8106 13.6184 21.1947 14.4178 21.1947 15.263C21.1946 16.8011 19.9476 18.0484 18.4096 18.0483H12.2236C11.8911 18.0483 11.6214 18.3178 11.6214 18.6504C11.6214 18.8101 11.6849 18.9633 11.7978 19.0762C11.9107 19.1891 12.0639 19.2526 12.2236 19.2526H18.4096C20.6093 19.2526 22.3989 17.4633 22.3991 15.2638C22.4026 14.182 21.9635 13.1458 21.1837 12.396Z" fill="currentColor"/>
</svg>
