<svg width="24" height="24" viewBox="0 0 24 24" fill="currentColor" xmlns="http://www.w3.org/2000/svg">
<path fill-rule="evenodd" clip-rule="evenodd" d="M21.0081 14.9756L19.8075 14.3489V4.87812C19.8075 3.50086 18.6729 2.38037 17.2784 2.38037H6.73663C5.34211 2.38037 4.20756 3.50086 4.20756 4.87812V14.3849C4.20756 14.459 4.21104 14.5319 4.21747 14.6036L3.01267 15.264C2.18479 15.7152 2.16595 16.8648 2.97979 17.2896L10.6459 21.2911C11.4301 21.7005 12.3793 21.6853 13.177 21.2506L20.9752 17.0012C21.8031 16.55 21.8219 15.3731 21.0081 14.9756ZM5.41889 4.87812C5.41889 4.16235 6.0119 3.57672 6.73663 3.57672H17.2784C18.0032 3.57672 18.5961 4.16232 18.5961 4.87812V14.3849C18.5961 15.1007 18.0031 15.5853 17.2784 15.5853H13.9088L12.0075 17.3901L10.1062 15.5853H6.73661C6.01181 15.5853 5.41889 15.1005 5.41889 14.3849V4.87812ZM9.31313 10.1477C8.59036 9.95752 7.82419 10.2215 7.37191 10.8164C6.91963 11.4114 6.8703 12.2203 7.24694 12.8658C7.62358 13.5113 8.35199 13.8664 9.09252 13.7655C9.83304 13.6645 10.4398 13.1274 10.6299 12.4046C10.7547 11.9307 10.6861 11.4266 10.4392 11.0033C10.1922 10.58 9.78711 10.2722 9.31313 10.1477ZM8.53044 13.1261C8.04848 12.9996 7.69018 12.5952 7.62266 12.1015C7.55515 11.6079 7.7917 11.1221 8.222 10.8709C8.6523 10.6196 9.19159 10.6523 9.58835 10.9538C9.9851 11.2552 10.1612 11.766 10.0344 12.2479C9.86081 12.9051 9.18811 13.2978 8.53044 13.1261ZM15.3615 10.1462C14.6387 9.95597 13.8725 10.2199 13.4203 10.8149C12.968 11.4099 12.9186 12.2187 13.2953 12.8643C13.6719 13.5098 14.4003 13.8649 15.1408 13.7639C15.8814 13.663 16.4882 13.1259 16.6782 12.4031C16.8031 11.9292 16.7345 11.4251 16.4875 11.0018C16.2405 10.5785 15.8355 10.2707 15.3615 10.1462ZM14.5787 13.1246C14.0968 12.9982 13.7385 12.5938 13.671 12.1001C13.6034 11.6064 13.84 11.1207 14.2703 10.8694C14.7006 10.6182 15.2399 10.6509 15.6366 10.9523C16.0334 11.2538 16.2095 11.7646 16.0827 12.2465C15.9091 12.9036 15.2364 13.2964 14.5787 13.1246ZM13.5352 6.8C13.8363 6.87924 14.1556 6.76926 14.344 6.52135C14.5325 6.27344 14.553 5.93642 14.3961 5.66745C14.2391 5.39848 13.9356 5.25054 13.6271 5.2926C13.3185 5.33467 13.0657 5.55846 12.9865 5.85963C12.9345 6.05709 12.9631 6.26713 13.066 6.4435C13.1689 6.61987 13.3377 6.74811 13.5352 6.8ZM12.7081 9.87175L11.6175 8.42357L12.5285 7.74641L14.4901 9.24017C14.5697 9.31701 14.6845 9.3452 14.7907 9.31401C14.8969 9.28282 14.9781 9.19705 15.0036 9.08934C15.029 8.98163 14.9947 8.86855 14.9137 8.79315L12.7862 6.70088C12.5724 6.47207 12.2208 6.44041 11.9696 6.62734L10.3873 7.80334C10.2487 7.90628 10.1597 8.06264 10.142 8.23434C10.1242 8.40604 10.1793 8.57731 10.2939 8.70644C10.3065 8.72084 10.3201 8.73476 10.3341 8.74788L11.8245 10.2815L11.4212 11.8164C11.3792 11.976 11.4255 12.1458 11.5427 12.2619C11.6599 12.378 11.8302 12.4228 11.9894 12.3794C12.1485 12.3359 12.2724 12.2109 12.3144 12.0513L12.7839 10.2644C12.8197 10.1288 12.7918 9.98429 12.7081 9.87175Z" fill="currentColor"/>
</svg>
