<svg width="24" height="24" viewBox="0 0 24 24" fill="currentColor" xmlns="http://www.w3.org/2000/svg">
<path fill-rule="evenodd" clip-rule="evenodd" d="M7.83881 8.45433L7.83781 8.41133C7.83781 8.42533 7.83781 8.44033 7.83881 8.45433ZM11.946 1.80023C9.97243 1.82567 8.31571 3.22967 7.90003 5.08823C8.31379 3.22919 9.96499 1.81967 11.946 1.80023ZM14.9966 5.99999V5.99135C14.9907 5.26983 14.7277 4.57407 14.2548 4.02911C14.7358 4.57286 15.0009 5.27401 15 5.99999H14.9966ZM15.0433 7.36079V8.39999H15.0293V7.36271C15.0336 7.36193 15.0383 7.36128 15.0433 7.36079ZM9.01817 8.44857V8.45357H9.01717V8.41257C9.01817 8.42457 9.01817 8.43657 9.01817 8.44857ZM15.4869 8.98967C15.244 8.94543 15.054 8.75508 15.0103 8.51207C15.0565 8.75379 15.2453 8.94298 15.4869 8.98967ZM16.1896 8.51207C16.1459 8.75508 15.9559 8.94543 15.713 8.98967C15.9546 8.94298 16.1434 8.75379 16.1896 8.51207ZM8.99995 8.39999C8.99995 8.73136 8.73132 8.99999 8.39995 8.99999C8.06858 8.99999 7.79995 8.73136 7.79995 8.39999C7.80189 8.7187 8.06131 8.97603 8.38003 8.97599C8.70667 8.97599 8.97907 8.72543 8.97979 8.39999L8.97955 8.39015C8.97979 8.36975 8.98003 8.31935 8.98003 8.24615C8.99326 8.29636 8.99995 8.34806 8.99995 8.39999ZM16.2 5.99999V5.98703C16.1863 3.72191 14.357 1.85879 12.0957 1.80119C12.078 1.80071 12.06 1.80047 12.0422 1.80023C12.0283 1.79999 12.0141 1.79999 12 1.79999C11.982 1.79999 11.964 1.79999 11.946 1.80023C9.97243 1.82567 8.31571 3.22967 7.90003 5.08823C7.89667 5.10311 7.89355 5.11823 7.89019 5.13335C7.88395 5.16335 7.87795 5.19359 7.87219 5.22383C7.86931 5.23895 7.86643 5.25431 7.86379 5.26943C7.86307 5.27471 7.86211 5.27975 7.86115 5.28479C7.85347 5.32943 7.84651 5.37407 7.84027 5.41919C7.83787 5.43503 7.83595 5.45087 7.83379 5.46695C7.83401 5.46668 7.83386 5.46729 7.83379 5.46695C7.82539 5.53367 7.81827 5.60183 7.81291 5.66951C7.81243 5.67479 7.81219 5.68007 7.81171 5.68535C7.80931 5.71727 7.80715 5.74967 7.80571 5.78183C7.80187 5.85407 7.79995 5.92679 7.79995 5.99999H4.19995V20.4C4.19995 21.3941 5.00584 22.2 5.99995 22.2H18C18.9941 22.2 19.8 21.3941 19.8 20.4V5.99999H16.2ZM8.97955 5.99135C8.99131 4.34951 10.3387 2.98031 11.988 2.98031C12.8724 2.98031 13.6701 3.37343 14.2214 3.99119C14.2296 4.00007 14.2377 4.00919 14.2456 4.01855C14.2489 4.02189 14.2519 4.02541 14.2548 4.02911C14.7358 4.57286 15.0009 5.27401 15 5.99999H8.97955V5.99135ZM7.19995 8.39999C7.19973 7.97122 7.42851 7.57498 7.79995 7.36079C7.80019 7.85039 7.80019 8.30375 7.80019 8.38655C7.80007 8.38759 7.80007 8.38863 7.80019 8.38967C7.79995 8.39303 7.79995 8.39663 7.79995 8.39999C7.80189 8.7187 8.06131 8.97603 8.38003 8.97599C8.70667 8.97599 8.97907 8.72543 8.97979 8.39999L8.97955 8.39015C8.97979 8.36975 8.98003 8.31935 8.98003 8.24615C8.98027 8.05559 8.98027 7.71191 8.98003 7.34951C8.98675 7.35311 8.99347 7.35695 8.99995 7.36079C9.50429 7.65197 9.72676 8.26322 9.52758 8.81045C9.3284 9.35769 8.76506 9.68292 8.19155 9.58178C7.61805 9.48065 7.19995 8.98234 7.19995 8.39999ZM15.6 18C15.598 18.6619 15.0619 19.1981 14.4 19.2H9.59995C8.93801 19.1981 8.40189 18.6619 8.39995 18V13.2C8.40189 12.538 8.93801 12.0019 9.59995 12H14.4C15.0619 12.0019 15.598 12.538 15.6 13.2V18ZM15.6 9.59999C15.0575 9.59999 14.5826 9.23614 14.4413 8.71245C14.3001 8.18875 14.5277 7.63543 14.9966 7.36271C14.9976 7.36193 14.9988 7.36128 15 7.36079V8.39999C14.9999 8.42051 15.0009 8.44102 15.0031 8.46143C15.004 8.47031 15.005 8.47895 15.0062 8.48783C15.0074 8.49599 15.0088 8.50415 15.0103 8.51207C15.0565 8.75379 15.2453 8.94298 15.4869 8.98967C15.4951 8.99111 15.5032 8.99255 15.5116 8.99375C15.5205 8.99495 15.5296 8.99591 15.5385 8.99687C15.5794 9.00103 15.6205 9.00103 15.6614 8.99687C15.6703 8.99591 15.6794 8.99495 15.6883 8.99375C15.6967 8.99255 15.7048 8.99111 15.713 8.98967C15.9546 8.94298 16.1434 8.75379 16.1896 8.51207C16.1911 8.50415 16.1925 8.49599 16.1937 8.48783C16.1949 8.47895 16.1959 8.47031 16.1968 8.46143C16.199 8.44102 16.2 8.42051 16.2 8.39999V7.36079C16.6703 7.63236 16.8996 8.18598 16.759 8.71057C16.6184 9.23517 16.1431 9.59996 15.6 9.59999ZM7.83919 8.39999H7.83719V7.36079C7.83819 7.85039 7.83819 8.30375 7.83819 8.38655C7.83769 8.38759 7.83769 8.38863 7.83819 8.38967C7.83819 8.39303 7.83819 8.39663 7.83919 8.39999ZM9.07025 7.36079V8.39999H8.98525V8.39015C8.98625 8.36975 8.98725 8.31935 8.98725 8.24615C8.98825 8.05559 8.98825 7.71191 8.98725 7.34951C9.01525 7.35311 9.04325 7.35695 9.07025 7.36079ZM14.2214 3.99119C14.1878 3.95399 14.1532 3.91767 14.1177 3.88223C13.2598 3.02723 11.972 2.77195 10.8529 3.23506C9.73371 3.69817 9.00282 4.78881 8.99995 5.99999H8.97955V5.99135C8.99131 4.34951 10.3387 2.98031 11.988 2.98031C12.8724 2.98031 13.6701 3.37343 14.2214 3.99119ZM16.2 5.98703C16.1863 3.72191 14.357 1.85879 12.0957 1.80119C14.3577 1.85231 16.193 3.71495 16.2 5.98703ZM11.4583 15.9045L13.7101 13.6671C13.7101 13.6671 13.9837 13.414 14.289 13.6859C14.6047 13.9668 14.3526 14.2548 14.3526 14.2548L11.7894 17.4718C11.7894 17.4718 11.4966 17.8702 11.0832 17.4405C10.7102 17.0529 9.6775 15.8287 9.6775 15.8287C9.6775 15.8287 9.4423 15.5315 9.79198 15.203C10.087 14.9259 10.3134 15.0386 10.3836 15.1082C10.4981 15.2218 11.2359 15.9613 11.2359 15.9613C11.2359 15.9613 11.3248 16.0498 11.4583 15.9045Z" fill="currentColor"/>
</svg>
