<svg width="24" height="24" viewBox="0 0 24 24" fill="currentColor" xmlns="http://www.w3.org/2000/svg">
<path fill-rule="evenodd" clip-rule="evenodd" d="M15 1.80005V5.40005C15 6.06279 15.4776 6.60005 16.0667 6.60005H19.8L15 1.80005ZM10.4394 11.8808C9.50589 11.1825 8.20517 11.2576 7.35825 12.0588C6.51133 12.86 6.36417 14.1545 7.00966 15.1253C7.65516 16.0962 8.90583 16.4613 9.97228 15.9903C11.0387 15.5193 11.6112 14.3489 11.3285 13.2179L9 13.8L10.4394 11.8808ZM16.2 7.80005C14.8745 7.80005 13.8 6.72553 13.8 5.40005V1.80005H4.2V21C4.2 21.6628 4.73728 22.2001 5.4 22.2001H19.8V7.80005H16.2ZM9 16.8C7.34314 16.8 6 15.4569 6 13.8C6 12.1432 7.34314 10.8 9 10.8C10.6569 10.8 12 12.1432 12 13.8C12 14.5957 11.684 15.3588 11.1214 15.9214C10.5587 16.484 9.79566 16.8 9 16.8ZM18 16.8H14.4C14.0686 16.8 13.8 16.5314 13.8 16.2C13.8 15.8687 14.0686 15.6 14.4 15.6H18C18.3314 15.6 18.6 15.8687 18.6 16.2C18.6 16.5314 18.3314 16.8 18 16.8ZM18 14.4H14.4C14.0686 14.4 13.8 14.1314 13.8 13.8C13.8 13.4687 14.0686 13.2 14.4 13.2H18C18.3314 13.2 18.6 13.4687 18.6 13.8C18.6 14.1314 18.3314 14.4 18 14.4ZM18 12H14.4C14.0686 12 13.8 11.7314 13.8 11.4C13.8 11.0687 14.0686 10.8 14.4 10.8H18C18.3314 10.8 18.6 11.0687 18.6 11.4C18.6 11.7314 18.3314 12 18 12Z" fill="currentColor"/>
</svg>
