<svg width="24" height="24" viewBox="0 0 24 24" fill="currentColor" xmlns="http://www.w3.org/2000/svg">
<path fill-rule="evenodd" clip-rule="evenodd" d="M19.2 4.20002H16.8V3.28802C16.8 2.79098 16.3971 2.40002 15.9 2.40002C15.403 2.40002 15 2.80297 15 3.30002V4.20002H8.40029L8.40002 3.30002C8.40002 2.80297 7.99708 2.40002 7.50002 2.40002C7.00297 2.40002 6.60002 2.80297 6.60002 3.30002V4.20002H2.40002V19.2C2.40002 20.1941 3.20591 21 4.20002 21H21V6.00002C21 5.00591 20.1941 4.20002 19.2 4.20002ZM19.8 19.8H4.50002C4.00297 19.8 3.60002 19.3971 3.60002 18.9V9.60003H18.9C19.3971 9.60003 19.8 10.003 19.8 10.5V19.8ZM6.00002 6.30002C5.99965 5.8278 6.22202 5.38306 6.60002 5.10002V6.30002C6.60002 6.79708 7.00297 7.20002 7.50002 7.20002C7.99708 7.20002 8.40002 6.79708 8.40002 6.30002V6.00002L8.40029 5.10019C8.96447 5.52352 9.1575 6.28274 8.86401 6.92413C8.57052 7.56552 7.86982 7.91578 7.18065 7.7656C6.49148 7.61542 6.00002 7.00537 6.00002 6.30002ZM14.4 6.30002C14.3996 5.8278 14.622 5.38306 15 5.10002V6.30002C15 6.79708 15.403 7.20002 15.9 7.20002C16.3971 7.20002 16.8 6.79708 16.8 6.30002L16.7998 6.00002L16.8 5.11202C17.1774 5.39019 17.4002 5.83118 17.4 6.30002C17.4 7.12845 16.7285 7.80002 15.9 7.80002C15.0716 7.80002 14.4 7.12845 14.4 6.30002ZM11.7 10.8C9.54611 10.8 7.80002 12.5461 7.80002 14.7C7.80002 16.8539 9.54611 18.6 11.7 18.6C13.8539 18.6 15.6 16.8539 15.6 14.7C15.6 13.6657 15.1891 12.6737 14.4577 11.9423C13.7263 11.2109 12.7344 10.8 11.7 10.8ZM13.2831 15.9436C13.2186 16.0081 13.1311 16.0444 13.0398 16.0444C12.9485 16.0444 12.861 16.0081 12.7965 15.9436L11.4521 14.5992C11.4483 14.5954 11.444 14.5909 11.4404 14.5869C11.4385 14.5848 11.4368 14.5827 11.435 14.5806C11.4332 14.5785 11.4312 14.5764 11.4294 14.5742C11.4272 14.5715 11.4252 14.5688 11.423 14.5661C11.4217 14.5644 11.4204 14.5627 11.4192 14.561C11.4169 14.558 11.4148 14.555 11.4127 14.5519C11.4116 14.5504 11.4105 14.5489 11.4095 14.5474C11.4074 14.5442 11.4054 14.5411 11.4034 14.5378C11.4024 14.5362 11.4014 14.5347 11.4005 14.533C11.3986 14.5299 11.3968 14.5267 11.395 14.5235C11.394 14.5218 11.3931 14.52 11.3921 14.5183C11.3905 14.5153 11.389 14.5122 11.3875 14.5092C11.3864 14.5072 11.3854 14.5051 11.3844 14.5031C11.3831 14.5003 11.3819 14.4975 11.3807 14.4947C11.3796 14.4923 11.3785 14.4899 11.3775 14.4875C11.3765 14.4851 11.3755 14.4825 11.3745 14.48C11.3736 14.4774 11.3724 14.4744 11.3713 14.4715C11.3706 14.4693 11.3698 14.4671 11.3691 14.4649C11.368 14.4617 11.367 14.4585 11.366 14.4553C11.3654 14.4534 11.3649 14.4514 11.3643 14.4494C11.3634 14.446 11.3624 14.4425 11.3615 14.439C11.361 14.4372 11.3607 14.4353 11.3602 14.4335C11.3594 14.4299 11.3586 14.4263 11.3578 14.4226C11.3575 14.4207 11.3572 14.4188 11.3568 14.417C11.3562 14.4134 11.3555 14.4098 11.355 14.4061C11.3547 14.404 11.3544 14.4018 11.3542 14.3996C11.3538 14.3963 11.3533 14.3929 11.353 14.3895C11.3527 14.3867 11.3525 14.3838 11.3523 14.3809C11.3521 14.378 11.3519 14.3755 11.3517 14.3728C11.3514 14.3671 11.3513 14.3614 11.3513 14.3558V11.8324C11.3513 11.6423 11.5054 11.4883 11.6954 11.4883C11.8855 11.4883 12.0395 11.6423 12.0395 11.8324V14.2134L13.2831 15.4569C13.3476 15.5215 13.3839 15.609 13.3839 15.7003C13.3839 15.7915 13.3476 15.8791 13.2831 15.9436Z" fill="currentColor"/>
</svg>
