<svg width="24" height="24" viewBox="0 0 24 24" fill="currentColor" xmlns="http://www.w3.org/2000/svg">
<path fill-rule="evenodd" clip-rule="evenodd" d="M19.8197 21.2838C20.1511 21.2838 20.4197 21.0152 20.4197 20.6838V13.5078H19.2197V20.6838C19.2197 21.0152 19.4884 21.2838 19.8197 21.2838ZM4.20773 21.2838C4.36368 21.2838 4.51324 21.2219 4.62351 21.1116C4.73378 21.0013 4.79573 20.8518 4.79573 20.6958V13.5078H3.61973V20.6958C3.61973 21.0206 3.88299 21.2838 4.20773 21.2838ZM15.4797 11.1078C15.9175 10.1572 16.1957 9.02462 16.1957 7.77449C16.1957 4.10179 14.3153 2.70782 11.9957 2.70782C9.67613 2.70782 7.79573 4.10179 7.79573 7.77449C7.79573 9.02462 8.07396 10.1572 8.51177 11.1078H15.4797ZM10.3018 7.23043L10.4466 7.08482C10.58 6.95031 10.7948 6.94205 10.9382 7.06594L11.6439 7.85189L13.786 5.76629C13.8913 5.66688 14.0457 5.6399 14.1785 5.69772C14.3113 5.75554 14.3968 5.88701 14.3957 6.03182C14.3959 6.11443 14.3679 6.19461 14.3163 6.25918L11.9991 9.17122C11.9307 9.25754 11.8266 9.30788 11.7165 9.30788C11.6063 9.30788 11.5022 9.25754 11.4338 9.17122L10.2752 7.71521C10.1598 7.57024 10.1713 7.3619 10.3018 7.23043ZM21.5957 11.7078H2.39573C2.06436 11.7078 1.79573 11.9765 1.79573 12.3078C1.79573 12.6392 2.06436 12.9078 2.39573 12.9078H21.5957C21.9271 12.9078 22.1957 12.6392 22.1957 12.3078C22.1957 11.9765 21.9271 11.7078 21.5957 11.7078ZM14.9842 13.5078H9.00725C8.33896 13.5098 7.79768 14.0511 7.79573 14.7193V15.6502C7.79615 15.7923 7.91123 15.9074 8.05332 15.9078H11.3957V18.2838H8.35697C8.04738 18.2847 7.79663 18.5355 7.79573 18.8451V19.4838H16.1957V18.8451C16.1948 18.5355 15.9441 18.2847 15.6345 18.2838H12.5957V15.9078H15.9381C16.0802 15.9074 16.1953 15.7923 16.1957 15.6502V14.7193C16.1938 14.0511 15.6525 13.5098 14.9842 13.5078ZM11.9957 20.0838C11.6644 20.0838 11.3957 20.3525 11.3957 20.6838C11.3957 21.0152 11.6644 21.2838 11.9957 21.2838C12.3271 21.2838 12.5957 21.0152 12.5957 20.6838C12.5957 20.3525 12.3271 20.0838 11.9957 20.0838ZM15.5957 20.0838C15.2644 20.0838 14.9957 20.3525 14.9957 20.6838C14.9957 21.0152 15.2644 21.2838 15.5957 21.2838C15.9271 21.2838 16.1957 21.0152 16.1957 20.6838C16.1957 20.3525 15.9271 20.0838 15.5957 20.0838ZM8.39573 20.0838C8.06436 20.0838 7.79573 20.3525 7.79573 20.6838C7.79573 21.0152 8.06436 21.2838 8.39573 21.2838C8.7271 21.2838 8.99573 21.0152 8.99573 20.6838C8.99573 20.3525 8.7271 20.0838 8.39573 20.0838Z" fill="currentColor"/>
</svg>
