<svg width="24" height="24" viewBox="0 0 24 24" fill="currentColor" xmlns="http://www.w3.org/2000/svg">
<path fill-rule="evenodd" clip-rule="evenodd" d="M20.9655 8.25951C20.9915 8.32762 21.0047 8.39989 21.0047 8.47277V10.2728H18.8284C18.7971 10.4003 18.7248 10.5141 18.6226 10.5966L16.0494 12.6727H21.0047V18.0725C21.0047 18.2317 20.9414 18.3843 20.8288 18.4968C20.7163 18.6093 20.5636 18.6725 20.4044 18.6725H3.5965C3.43733 18.6725 3.28466 18.6093 3.17208 18.4968C3.05951 18.3843 2.99624 18.2317 2.99621 18.0725V12.6727H10.5688L12.6692 11.412C12.7363 11.3717 12.8107 11.3449 12.8881 11.3332C12.904 11.2246 12.9496 11.1224 13.0198 11.038L13.6547 10.2728H2.99631V8.47277C2.99634 8.3136 3.0596 8.16096 3.17218 8.04844C3.28476 7.93592 3.43742 7.87273 3.59659 7.87277H14.1331C14.1742 7.42337 14.365 7.00079 14.675 6.67277H3.59657C3.11907 6.67277 2.66108 6.86224 2.32335 7.1998C1.98563 7.53737 1.79573 7.99527 1.79573 8.47277V18.0725C1.79573 18.55 1.98563 19.0079 2.32335 19.3455C2.66108 19.683 3.11907 19.8725 3.59657 19.8725H20.4045C21.3988 19.8727 22.205 19.0668 22.2052 18.0725V8.47277C22.2058 8.08018 22.0773 7.69829 21.8396 7.38584L20.9655 8.25951ZM15.4118 7.8728L16.6124 6.6728L18.1653 5.1206C18.4441 4.84255 18.8954 4.84295 19.1737 5.12148L19.1965 5.14428L17.6672 6.6728L16.7316 7.60793L16.9966 7.87277L18.75 9.62537L20.4964 7.87983L21.4022 6.97445L21.6799 6.69696C22.0023 6.43769 22.1995 6.05376 22.2225 5.64066C22.2455 5.22757 22.0921 4.82412 21.8004 4.53068C21.5312 4.25798 21.164 4.10449 20.7808 4.10449C20.3976 4.10449 20.0304 4.25798 19.7612 4.53068C19.746 4.54594 19.7316 4.56166 19.7173 4.57745L19.6772 4.53742C19.1207 3.98032 18.2181 3.97953 17.6606 4.53564L15.5223 6.67282L15.142 7.05298C14.9203 7.27399 14.7781 7.56232 14.7377 7.8728C14.7105 8.08062 14.7293 8.29189 14.7926 8.49168L15.4118 7.8728ZM4.99027 17.3402C5.00814 17.4329 5.06215 17.5148 5.1404 17.5677C5.21865 17.6206 5.31471 17.6402 5.40744 17.6222C5.74399 17.5574 6.07891 17.3781 6.38645 17.1029C6.45714 17.1376 6.53011 17.1675 6.60485 17.1923C6.63773 17.2039 6.66874 17.2149 6.69701 17.2262C6.7118 17.2321 6.72697 17.2369 6.74242 17.2408C6.87008 17.2726 7.00115 17.2886 7.13271 17.2884C7.52791 17.2884 7.93378 17.148 8.28951 16.8814C8.296 16.8765 8.30235 16.8714 8.30854 16.8661C8.32692 16.8502 8.34415 16.8343 8.36021 16.8185C8.54295 16.92 8.78261 17.0382 8.95654 17.0382C8.96038 17.0382 8.96417 17.0382 8.96794 17.038C9.22275 17.0338 9.52599 16.9788 9.68175 16.9009C9.85568 16.8134 9.927 16.6023 9.84181 16.4272C9.75661 16.2521 9.54653 16.178 9.37032 16.2609C9.35832 16.264 9.12444 16.3267 8.99779 16.3267C8.99475 16.3267 8.99177 16.3267 8.98887 16.3267L9.04376 16.2976C9.73083 15.6989 9.83436 15.0752 9.73963 14.6494C9.66552 14.3167 9.43183 14.0875 9.12975 14.0515C9.12552 14.051 9.12132 14.0506 9.11707 14.0502C9.08104 14.0473 9.04536 14.0458 9.01004 14.0458C8.69958 14.0445 8.40156 14.1677 8.18263 14.3878C7.82616 14.7361 7.64391 15.3002 7.68267 15.9355C7.69259 16.0816 7.73551 16.2236 7.80821 16.3507C7.59175 16.4988 7.35653 16.5768 7.13359 16.5768C7.06705 16.5769 7.00069 16.5697 6.93574 16.5552C6.91855 16.5486 6.90166 16.5424 6.88507 16.5364C7.23562 16.039 7.47511 15.4423 7.52789 14.9322C7.59231 14.3089 7.37592 13.8456 6.93603 13.6618C6.81376 13.6087 6.68201 13.5809 6.54871 13.58C6.21543 13.58 5.90295 13.7634 5.6821 14.105C5.67505 14.1159 5.66858 14.1272 5.66273 14.1389C5.39182 14.6802 5.30734 15.1724 5.40449 15.6437C5.40631 15.6526 5.40848 15.6614 5.41099 15.6701C5.50323 15.9912 5.69232 16.3208 5.88895 16.591C5.69395 16.762 5.48335 16.8829 5.27278 16.9234C5.18003 16.9412 5.09814 16.9951 5.04515 17.0732C4.99217 17.1514 4.97242 17.2474 4.99027 17.3402ZM8.68063 14.8967C8.76728 14.807 8.88688 14.7566 9.01159 14.7575C9.01709 14.7575 9.02266 14.7575 9.02823 14.7577C9.04116 14.782 9.06159 14.8459 9.04764 14.9569C9.03233 15.0786 8.94024 15.4699 8.39359 15.8917C8.36835 15.4756 8.47829 15.0943 8.68063 14.8967ZM6.29067 14.4757C6.39048 14.328 6.48135 14.2914 6.55143 14.2914C6.58874 14.2925 6.62541 14.3015 6.65907 14.3176C6.83926 14.3929 6.83667 14.6892 6.8191 14.8591C6.78108 15.2269 6.6103 15.6565 6.36658 16.0294C6.24387 15.84 6.14765 15.6472 6.09948 15.4869C6.04123 15.1864 6.10392 14.8553 6.29067 14.4757ZM12.2704 14.376C12.2289 14.376 12.1877 14.3683 12.149 14.3532L10.2457 16.2557L10.3955 16.4054C11.0807 15.8144 11.8691 15.4974 12.5465 15.4974C12.717 15.4963 12.8867 15.5184 13.0512 15.5631L14.3889 13.3364L13.7249 12.6727L12.9783 11.9263L11.7349 12.6727L10.7505 13.2636C10.9633 14.026 10.6537 15.054 9.9078 15.918L10.0576 16.0676L11.961 14.1653C11.9074 14.0294 11.9487 13.8745 12.0628 13.7833C12.1769 13.6921 12.3371 13.686 12.4578 13.7682C12.5785 13.8504 12.6315 14.0017 12.5885 14.1413C12.5455 14.2809 12.4165 14.3761 12.2704 14.376ZM14.8948 12.8331L15.0937 12.6727L18.0681 10.2727L18.2455 10.1296L16.2271 8.11217L14.4345 10.2727L13.4819 11.4209L14.7343 12.6727L14.8948 12.8331Z" fill="currentColor"/>
</svg>
