<svg width="24" height="24" viewBox="0 0 24 24" fill="currentColor" xmlns="http://www.w3.org/2000/svg">
<path fill-rule="evenodd" clip-rule="evenodd" d="M18.4435 14.3503C18.0373 14.3497 17.6363 14.4411 17.2706 14.6177L15.3275 13.1287C15.3708 12.7372 15.3437 12.3412 15.2475 11.9594L17.2231 10.4455C18.246 10.8066 19.3839 10.4361 19.998 9.54193C20.6121 8.64779 20.5495 7.45273 19.8454 6.62765C19.1412 5.80257 17.9708 5.55297 16.9913 6.01897C16.0117 6.48497 15.467 7.55051 15.6629 8.6174L13.8523 10.0049C13.6621 9.88004 13.4594 9.77524 13.2475 9.69217V7.07941C14.3678 6.51657 14.9533 5.25657 14.661 4.03736C14.3688 2.81814 13.2757 1.96054 12.0219 1.96677C10.7682 1.97307 9.6837 2.84157 9.40363 4.06365C9.12357 5.28572 9.72161 6.5398 10.8475 7.09141V9.69217C10.6357 9.77523 10.433 9.88002 10.2428 10.0049L8.43584 8.62007C8.62205 7.55142 8.0676 6.49086 7.08381 6.03388C6.10002 5.5769 4.93196 5.83733 4.23547 6.66894C3.53898 7.50056 3.48757 8.6962 4.11011 9.58453C4.73265 10.4729 5.87404 10.8326 6.89343 10.4617L8.84749 11.9592C8.75132 12.3411 8.72423 12.7372 8.76749 13.1286L6.79611 14.6393C5.71766 14.0949 4.40881 14.333 3.59122 15.2224C2.77364 16.1118 2.64627 17.436 3.27934 18.4649C3.91242 19.4939 5.15188 19.9771 6.31433 19.6482C7.47678 19.3193 8.27934 18.2583 8.2795 17.0503C8.27953 16.886 8.26466 16.722 8.23505 16.5604L9.9091 15.2775C10.1884 15.516 10.5056 15.7062 10.8475 15.8403V17.5754C9.90678 18.1186 9.44814 19.2258 9.72928 20.2751C10.0104 21.3243 10.9613 22.0539 12.0475 22.0539C13.1338 22.0539 14.0846 21.3243 14.3657 20.2751C14.6469 19.2258 14.1882 18.1186 13.2475 17.5754V15.8403C13.5894 15.7062 13.9066 15.516 14.1859 15.2775L15.7972 16.5123C15.5696 17.631 16.0702 18.7719 17.0475 19.362C18.0248 19.9521 19.2676 19.8639 20.1516 19.1416C21.0357 18.4193 21.3701 17.2191 20.9867 16.1437C20.6033 15.0684 19.5851 14.3504 18.4435 14.3503ZM12.6475 17.3299V17.8543C12.6475 18.1856 12.3789 18.4543 12.0475 18.4543C11.7161 18.4543 11.4475 18.1856 11.4475 17.8543V16.0114C11.8442 16.0845 12.2508 16.0845 12.6475 16.0114V17.3299ZM7.32469 14.9902L8.90629 13.7781L9.16011 13.5837L9.28309 13.4895C9.38774 13.4098 9.51555 13.3666 9.64707 13.3663C9.90439 13.3655 10.1335 13.529 10.2164 13.7726C10.2993 14.0162 10.2175 14.2855 10.0131 14.4418L9.96291 14.4802L9.72375 14.6635L9.48675 14.8451L8.0456 15.9496C7.88005 15.5799 7.6337 15.2521 7.32469 14.9902ZM6.69862 8.80064C6.90066 8.53846 7.27654 8.48874 7.5398 8.68938L8.24336 9.22851L9.75961 10.3905C9.46892 10.6704 9.23175 11.001 9.05977 11.366L7.47605 10.1524L6.80989 9.64184C6.54777 9.43975 6.49806 9.06393 6.69862 8.80064ZM11.4475 9.5211V7.30187C11.8429 7.38948 12.2529 7.38766 12.6475 7.29656V10.3663C12.6475 10.6976 12.3789 10.9663 12.0475 10.9663C11.7161 10.9663 11.4475 10.6976 11.4475 10.3663V9.5211ZM16.5553 8.68938C16.8186 8.48874 17.1945 8.53846 17.3965 8.80064C17.5971 9.06393 17.5474 9.43976 17.2852 9.64184L16.6351 10.1401L15.0353 11.3661C14.8633 11.001 14.6261 10.6704 14.3354 10.3905L15.86 9.22227L16.5553 8.68938ZM14.1321 14.4803L14.0819 14.4419C13.8443 14.2595 13.7778 13.9297 13.926 13.6694C14.0742 13.4091 14.3917 13.298 14.6699 13.4092C14.7206 13.4293 14.7684 13.4563 14.8117 13.4895L14.9347 13.5837L15.1885 13.7781L16.7326 14.9614C16.4194 15.2182 16.1677 15.5419 15.9961 15.9088L14.6083 14.8452L14.3713 14.6636L14.1321 14.4803Z" fill="currentColor"/>
</svg>
