<svg width="24" height="24" viewBox="0 0 24 24" fill="currentColor" xmlns="http://www.w3.org/2000/svg">
<path fill-rule="evenodd" clip-rule="evenodd" d="M20.1 6.60001H10.8L9.00002 4.20001H2.40002V18.3C2.40002 19.1284 3.0716 19.8 3.90002 19.8H21.6V8.10001C21.6 7.27159 20.9285 6.60001 20.1 6.60001ZM4.97863 13.3298L6.32023 11.9906L5.12772 10.8H8.96755C9.31654 10.7997 9.59971 11.0824 9.60003 11.4314V15.2643L8.40742 14.0739L7.06582 15.4131L6.76766 15.7107C6.5305 15.9473 6.39721 16.2685 6.39721 16.6035C6.39721 16.9385 6.5305 17.2597 6.76766 17.4963L7.25162 17.9794C6.09205 18.1237 4.96883 17.5156 4.45564 16.4659C3.94245 15.4161 4.15255 14.1562 4.97863 13.3298Z" fill="currentColor"/>
</svg>
