<svg width="24" height="24" viewBox="0 0 24 24" fill="currentColor" xmlns="http://www.w3.org/2000/svg">
<path fill-rule="evenodd" clip-rule="evenodd" d="M21.6 6C21.6012 5.52312 21.4126 5.06535 21.0759 4.72767C20.7392 4.38999 20.2819 4.2 19.805 4.2H2.39999V16.8C2.39999 17.2775 2.5898 17.7353 2.92747 18.0729C3.26513 18.4105 3.72306 18.6001 4.20052 18.6H6.59999V22.2L10.2023 18.6H21.6V6ZM12.048 6C13.3735 6 14.448 7.07451 14.448 8.4C14.448 9.72548 13.3735 10.8 12.048 10.8C10.7225 10.8 9.64799 9.72548 9.64799 8.4C9.64799 7.07451 10.7225 6 12.048 6ZM13.248 11.2V12C13.248 12.6627 12.7107 13.2 12.048 13.2C11.3853 13.2 10.848 12.6627 10.848 12V11.2L12.048 12L13.248 11.2ZM15.6 16.8H9.64799C8.98526 16.8 8.39999 16.2147 8.39999 15.552V13.8C8.39957 12.4939 9.10686 11.2901 10.248 10.6546V12C10.2482 12.8736 10.8756 13.621 11.736 13.7725V14.4436C11.3226 14.5964 11.0806 15.026 11.1643 15.4587C11.248 15.8914 11.6327 16.1998 12.0732 16.1875C12.5137 16.1751 12.8805 15.8455 12.9398 15.4088C12.999 14.9721 12.7333 14.5567 12.312 14.4274V13.7805C13.1944 13.6496 13.8479 12.8921 13.848 12V10.7101C14.9351 11.3599 15.6006 12.5335 15.6 13.8V16.8Z" fill="currentColor"/>
</svg>
