<svg width="24" height="24" viewBox="0 0 24 24" fill="currentColor" xmlns="http://www.w3.org/2000/svg">
<path fill-rule="evenodd" clip-rule="evenodd" d="M6 3C4.34315 3 3 4.34315 3 6V21H18C19.6569 21 21 19.6569 21 18V3H6ZM10.6366 16.8H8.97682C8.97708 16.7874 8.97778 16.7748 8.97778 16.7621C8.97778 15.7857 8.18028 14.9914 7.2 14.9914V13.3386C9.09823 13.3386 10.637 14.8714 10.637 16.7621C10.637 16.7748 10.6368 16.7874 10.6366 16.8ZM13.7182 16.8H12.0588C12.0588 16.7874 12.0593 16.7748 12.0593 16.7621C12.054 14.0837 9.8784 11.9167 7.2 11.922V10.2693C10.8 10.2693 13.7185 13.1762 13.7185 16.7621C13.7185 16.7748 13.7182 16.7874 13.7182 16.8ZM16.7998 16.8H15.1403C15.1403 16.7874 15.1407 16.7748 15.1407 16.7621C15.1433 14.6621 14.3059 12.6483 12.815 11.1693C11.3252 9.68218 9.30501 8.84871 7.2 8.85271V7.2C12.5019 7.2 16.8 11.4811 16.8 16.7621C16.8 16.7748 16.7998 16.7874 16.7998 16.8Z" fill="currentColor"/>
</svg>
