<svg width="24" height="24" viewBox="0 0 24 24" fill="currentColor" xmlns="http://www.w3.org/2000/svg">
<path fill-rule="evenodd" clip-rule="evenodd" d="M9.11256 8.4H2.28756C2.15827 8.4 2.03427 8.45135 1.94284 8.54277C1.85141 8.6342 1.80005 8.75819 1.80005 8.88749V15.7125C1.80005 15.8418 1.85141 15.9658 1.94284 16.0572C2.03427 16.1486 2.15827 16.2 2.28756 16.2H9.11256C9.38179 16.2 9.60005 15.9817 9.60005 15.7125V8.88749C9.60005 8.61826 9.38179 8.4 9.11256 8.4ZM5.70005 15.4687C3.95 15.4687 2.5313 14.05 2.5313 12.3C2.5313 10.55 3.95 9.13126 5.70005 9.13126C7.4501 9.13126 8.86879 10.55 8.86879 12.3C8.86879 13.1404 8.53494 13.9464 7.94069 14.5406C7.34643 15.1349 6.54045 15.4687 5.70005 15.4687ZM4.72505 12.3C4.72505 12.7039 4.39765 13.0313 3.99379 13.0313C3.58993 13.0313 3.26254 12.7039 3.26254 12.3C3.26254 11.8961 3.58993 11.5687 3.99379 11.5687C4.39765 11.5687 4.72505 11.8961 4.72505 12.3ZM8.13754 12.3C8.13754 12.5958 7.95937 12.8624 7.68612 12.9756C7.41286 13.0888 7.09833 13.0262 6.8892 12.8171C6.68006 12.6079 6.6175 12.2934 6.7307 12.0201C6.84389 11.7469 7.11054 11.5687 7.40631 11.5687C7.81016 11.5687 8.13754 11.8961 8.13754 12.3ZM5.70005 9.86251C5.96928 9.86251 6.18754 10.0808 6.18754 10.35C6.18754 10.6192 5.96928 10.8375 5.70005 10.8375C5.43082 10.8375 5.21256 10.6192 5.21256 10.35C5.21287 10.0809 5.43094 9.86282 5.70005 9.86251ZM5.70005 9.61874C5.29619 9.61874 4.96879 9.94614 4.96879 10.35C4.96879 10.7539 5.29619 11.0813 5.70005 11.0813C6.10391 11.0813 6.4313 10.7539 6.4313 10.35C6.4313 10.1561 6.35426 9.97006 6.21712 9.83292C6.07999 9.69579 5.89399 9.61874 5.70005 9.61874ZM21.4501 6H10.95C10.5358 6 10.2 6.33579 10.2 6.75V17.25C10.2 17.6642 10.5358 18 10.95 18H21.4501C21.8643 18 22.2001 17.6642 22.2001 17.25V6.75C22.2001 6.33579 21.8643 6 21.4501 6ZM16.2 16.875C13.5077 16.875 11.325 14.6924 11.325 12C11.325 9.30758 13.5077 7.125 16.2 7.125C18.8924 7.125 21.0751 9.30761 21.0751 12C21.0751 14.6924 18.8925 16.875 16.2 16.875ZM14.7 12C14.7 12.6213 14.1964 13.125 13.575 13.125C12.9537 13.125 12.45 12.6213 12.45 12C12.45 11.3787 12.9537 10.875 13.575 10.875C14.1964 10.875 14.7 11.3787 14.7 12ZM19.9501 12C19.9501 12.6213 19.4464 13.125 18.8251 13.125C18.2037 13.125 17.7 12.6213 17.7 12C17.7 11.3787 18.2037 10.875 18.8251 10.875C19.4464 10.875 19.9501 11.3787 19.9501 12ZM16.2 8.25C16.6143 8.25 16.95 8.58579 16.95 9C16.95 9.41421 16.6143 9.75 16.2 9.75C15.7858 9.75 15.45 9.41421 15.45 9C15.4505 8.58598 15.786 8.25048 16.2 8.25ZM16.2 7.875C15.5787 7.875 15.075 8.37868 15.075 9C15.075 9.62132 15.5787 10.125 16.2 10.125C16.8214 10.125 17.325 9.62132 17.325 9C17.325 8.70163 17.2065 8.41548 16.9955 8.2045C16.7846 7.99353 16.4984 7.875 16.2 7.875Z" fill="currentColor"/>
</svg>
