<svg width="24" height="24" viewBox="0 0 24 24" fill="currentColor" xmlns="http://www.w3.org/2000/svg">
<path fill-rule="evenodd" clip-rule="evenodd" d="M3 9.60001L10.5918 17.0806C11.3497 17.838 12.578 17.838 13.3359 17.0806L21 9.60001V19.8H4.2C3.53771 19.7989 3.0011 19.2623 3 18.6V9.60001ZM11.1513 15.9589C11.6195 16.4244 12.3754 16.4256 12.8451 15.9616L18.8887 9.97626C19.1165 9.75088 19.2 9.44036 19.2 9.12001V5.40001C19.2 5.08173 19.0737 4.77647 18.8486 4.55141C18.6235 4.32635 18.3183 4.20001 18 4.20001H5.99551C5.6777 4.20001 5.37299 4.32673 5.14869 4.55188C4.92438 4.77703 4.79892 5.0822 4.79999 5.40001V9.12001C4.79999 9.43902 4.91587 9.75265 5.142 9.97782L11.1513 15.9589ZM7.20823 6.00001C7.20823 5.84083 7.27155 5.68819 7.38414 5.57567C7.49673 5.46315 7.64941 5.39996 7.80859 5.40001H16.1896C16.3488 5.39996 16.5015 5.46315 16.6141 5.57567C16.7266 5.68819 16.79 5.84083 16.79 6.00001C16.79 6.15919 16.7266 6.31183 16.6141 6.42435C16.5015 6.53688 16.3488 6.60006 16.1896 6.60001H7.80859C7.64941 6.60006 7.49673 6.53688 7.38414 6.42435C7.27155 6.31183 7.20823 6.15919 7.20823 6.00001ZM7.80859 7.80001H12.5874C12.9188 7.80001 13.1874 8.06864 13.1874 8.40001C13.1874 8.73138 12.9188 9.00001 12.5874 9.00001H7.80859C7.47722 9.00001 7.20859 8.73138 7.20859 8.40001C7.20859 8.06864 7.47722 7.80001 7.80859 7.80001Z" fill="currentColor"/>
</svg>
