<svg width="24" height="24" viewBox="0 0 24 24" fill="currentColor" xmlns="http://www.w3.org/2000/svg">
<path fill-rule="evenodd" clip-rule="evenodd" d="M19.8 17.401H16.5398L17.3755 20.2327C17.4683 20.5505 17.2872 20.8837 16.9699 20.9785C16.6522 21.0713 16.3192 20.89 16.2246 20.5728L15.2886 17.4011H12.6V20.4026C12.6 20.734 12.3314 21.0026 12 21.0026C11.6686 21.0026 11.4 20.734 11.4 20.4026V17.401H8.71137L7.77537 20.5728C7.6808 20.89 7.34775 21.0712 7.03001 20.9784C6.71276 20.8836 6.53158 20.5504 6.62441 20.2326L7.46009 17.4009H4.2C3.86893 17.3999 3.60087 17.1316 3.6 16.8006C3.60092 16.4695 3.86897 16.2011 4.2 16.2H19.8C20.1311 16.2011 20.3991 16.4693 20.4 16.8003C20.3991 17.1314 20.1311 17.4 19.8 17.401ZM18.6 15.6V6H5.4V15.6H4.2V5.4C4.20096 5.06903 4.46903 4.80096 4.8 4.8H10.8V3.6C10.801 3.26903 11.069 3.00096 11.4 3H12.6C12.931 3.00096 13.199 3.26903 13.2 3.6V4.8H19.2C19.531 4.80096 19.799 5.06903 19.8 5.4V15.6H18.6ZM14.1 15H16.5C16.6657 15 16.8 15.1343 16.8 15.3C16.8 15.4657 16.6657 15.6 16.5 15.6H14.1C13.9343 15.6 13.8 15.4657 13.8 15.3C13.8 15.1343 13.9343 15 14.1 15Z" fill="currentColor"/>
</svg>
