<svg width="24" height="24" viewBox="0 0 24 24" fill="currentColor" xmlns="http://www.w3.org/2000/svg">
<path fill-rule="evenodd" clip-rule="evenodd" d="M14.5292 10.8551C14.5236 10.8345 14.5178 10.814 14.5117 10.7936C14.5097 10.787 14.5078 10.7803 14.5058 10.7737C14.4895 10.7202 14.4717 10.6674 14.4523 10.6153C14.4505 10.6105 14.4486 10.6057 14.4468 10.6009C14.4386 10.5794 14.4303 10.558 14.4217 10.5368C14.4193 10.5311 14.417 10.5254 14.4147 10.5198C14.405 10.4963 14.3949 10.4729 14.3847 10.4497C14.3838 10.4479 14.3831 10.4461 14.3823 10.4443C14.3704 10.4178 14.3581 10.3915 14.3454 10.3654C14.345 10.3646 14.3446 10.3637 14.3442 10.3628C14.3324 10.3388 14.3203 10.3149 14.3079 10.2912C14.3058 10.2871 14.3036 10.2831 14.3015 10.2792C14.2897 10.2568 14.2775 10.2345 14.2651 10.2125C14.2638 10.2103 14.2627 10.208 14.2613 10.2058C14.233 10.1559 14.2032 10.1069 14.1719 10.0589C14.1707 10.0571 14.1695 10.0553 14.1683 10.0534C14.1537 10.031 14.1387 10.0089 14.1234 9.98694L14.1197 9.98161C14.07 9.9105 14.0172 9.84186 13.9613 9.77569L13.9592 9.77312C13.4223 9.13722 12.6322 8.77067 11.8 8.77145C11.2706 8.77071 10.7513 8.91924 10.3025 9.2C10.1285 9.30885 9.96672 9.43625 9.82012 9.57997L9.81837 9.5817C9.75662 9.64232 9.69773 9.70567 9.64168 9.77175C9.64024 9.77348 9.6388 9.77518 9.63734 9.77689C9.58212 9.84233 9.52988 9.91023 9.48062 9.9806L9.47531 9.98826C9.46074 10.0092 9.44644 10.0304 9.43242 10.0518L9.42717 10.0598C9.3963 10.1073 9.36683 10.1557 9.33875 10.2051C9.33705 10.208 9.33542 10.211 9.33374 10.214C9.32178 10.2352 9.31011 10.2566 9.29872 10.2782L9.29135 10.2921C9.27945 10.3149 9.26783 10.3379 9.2565 10.361C9.25569 10.3627 9.2548 10.3644 9.25398 10.3661C9.24147 10.3918 9.22936 10.4178 9.21765 10.4439C9.21654 10.4463 9.21551 10.4489 9.21441 10.4513C9.20441 10.4738 9.19469 10.4965 9.18525 10.5194C9.18273 10.5254 9.18028 10.5315 9.17781 10.5376C9.16941 10.5583 9.16124 10.5791 9.1533 10.6001C9.15131 10.6054 9.14925 10.6107 9.14728 10.616C9.12808 10.6679 9.11034 10.7204 9.09405 10.7737C9.09194 10.7806 9.08994 10.7875 9.0879 10.7944C9.08192 10.8145 9.07618 10.8347 9.07067 10.855C9.06863 10.8624 9.06659 10.8698 9.06462 10.8773C9.05834 10.9011 9.05235 10.9251 9.04667 10.9493C9.04598 10.9522 9.04521 10.955 9.04454 10.958C9.03825 10.9851 9.03237 11.0123 9.0269 11.0397C9.02553 11.0466 9.02428 11.0535 9.02296 11.0604C9.01898 11.081 9.01521 11.1017 9.01166 11.1225C9.01018 11.1311 9.00876 11.1397 9.00738 11.1483C9.00399 11.1694 9.00086 11.1904 8.998 11.2116C8.99704 11.2185 8.99598 11.2253 8.9951 11.2322C8.9915 11.2599 8.9883 11.2878 8.9855 11.3157C8.98494 11.3212 8.98454 11.3267 8.98403 11.3322C8.9819 11.3548 8.98004 11.3775 8.97844 11.4002C8.97782 11.4093 8.97726 11.4184 8.97671 11.4275C8.97548 11.4478 8.97448 11.4682 8.97371 11.4886C8.97338 11.4973 8.97299 11.5059 8.97273 11.5145C8.97189 11.543 8.97134 11.5715 8.97134 11.6002C8.97134 11.6289 8.97189 11.6577 8.97275 11.6862C8.97302 11.6948 8.9734 11.7034 8.97374 11.712C8.97452 11.7325 8.97553 11.7529 8.97676 11.7732C8.97731 11.7823 8.97784 11.7914 8.97849 11.8004C8.98009 11.8232 8.98195 11.846 8.98408 11.8686C8.98461 11.874 8.98499 11.8795 8.98554 11.8849C8.98834 11.9129 8.99154 11.9408 8.99514 11.9685C8.99601 11.9753 8.99704 11.982 8.99798 11.9888C9.0009 12.01 9.00405 12.0312 9.00741 12.0523C9.0088 12.0609 9.01022 12.0694 9.01168 12.078C9.01523 12.0989 9.01902 12.1197 9.02306 12.1404C9.02435 12.1472 9.02558 12.1539 9.02692 12.1607C9.03246 12.1882 9.03832 12.2156 9.04466 12.2427C9.04521 12.2451 9.04586 12.2475 9.04643 12.2499C9.05222 12.2745 9.05834 12.299 9.06479 12.3234C9.06669 12.3306 9.06863 12.3378 9.0706 12.3448C9.07622 12.3654 9.08206 12.3859 9.08812 12.4064C9.09009 12.413 9.09201 12.4196 9.09402 12.4263C9.11034 12.4797 9.12818 12.5325 9.14752 12.5847C9.14932 12.5895 9.15122 12.5943 9.15304 12.5991C9.16115 12.6205 9.16952 12.6419 9.17814 12.6631C9.18045 12.6688 9.18278 12.6745 9.18513 12.6802C9.19473 12.7036 9.20469 12.7268 9.21501 12.7498C9.21587 12.7518 9.21671 12.7538 9.21758 12.7557C9.22943 12.7821 9.24168 12.8084 9.25432 12.8344C9.25475 12.8353 9.25521 12.8361 9.25564 12.8371C9.26735 12.8611 9.27942 12.8849 9.29183 12.9086C9.29399 12.9127 9.29618 12.9168 9.29834 12.9209C9.31011 12.9431 9.32216 12.9652 9.33448 12.9871C9.33585 12.9895 9.33714 12.9919 9.33851 12.9943C9.36678 13.0441 9.39653 13.093 9.42774 13.1409C9.42902 13.1428 9.43031 13.1448 9.43158 13.1467C9.44613 13.169 9.46098 13.191 9.47613 13.2127L9.48014 13.2185C9.52974 13.2894 9.58242 13.3579 9.63818 13.4239L9.64091 13.4271C10.1777 14.063 10.9678 14.4295 11.8 14.4287C12.5405 14.4296 13.252 14.1391 13.7801 13.6199L13.7816 13.6184C13.8434 13.5578 13.9023 13.4943 13.9584 13.4282L13.9626 13.4232C14.0179 13.3577 14.0702 13.2898 14.1195 13.2194L14.1247 13.2118C14.1393 13.1908 14.1536 13.1695 14.1677 13.1481C14.1694 13.1455 14.1711 13.1429 14.1728 13.1402C14.2037 13.0927 14.2332 13.0443 14.2613 12.9949C14.263 12.992 14.2646 12.989 14.2662 12.986C14.2782 12.9648 14.2899 12.9434 14.3013 12.9218C14.3037 12.9172 14.3062 12.9126 14.3086 12.9079C14.3206 12.885 14.3323 12.8619 14.3436 12.8387C14.3444 12.8371 14.3452 12.8355 14.346 12.8339C14.3585 12.8082 14.3706 12.7822 14.3824 12.756C14.3835 12.7536 14.3845 12.751 14.3856 12.7486C14.3957 12.7261 14.4054 12.7034 14.4148 12.6806C14.4172 12.6745 14.4198 12.6684 14.4222 12.6624C14.4306 12.6416 14.4388 12.6207 14.4467 12.5997C14.4487 12.5945 14.4508 12.5893 14.4527 12.584C14.4719 12.5321 14.4897 12.4795 14.506 12.4262C14.5081 12.4193 14.5101 12.4124 14.5121 12.4055C14.5181 12.3854 14.5238 12.3652 14.5294 12.345C14.5314 12.3375 14.5334 12.3301 14.5354 12.3226C14.5417 12.2988 14.5477 12.2748 14.5534 12.2506C14.554 12.2478 14.5548 12.2449 14.5555 12.242C14.5618 12.2149 14.5676 12.1877 14.5731 12.1604C14.5745 12.1534 14.5757 12.1465 14.5771 12.1395C14.5811 12.1189 14.5848 12.0983 14.5883 12.0776C14.5898 12.0689 14.5913 12.0603 14.5926 12.0517C14.596 12.0307 14.5991 12.0096 14.602 11.9884C14.603 11.9816 14.604 11.9747 14.6049 11.9678C14.6085 11.9401 14.6117 11.9123 14.6145 11.8844C14.6151 11.8789 14.6155 11.8733 14.616 11.8678C14.6181 11.8453 14.62 11.8226 14.6216 11.7998C14.6222 11.7908 14.6227 11.7817 14.6233 11.7726C14.6245 11.7522 14.6255 11.7318 14.6263 11.7114C14.6266 11.7028 14.627 11.6942 14.6273 11.6855C14.6281 11.657 14.6287 11.6285 14.6287 11.5998C14.6287 11.5712 14.6281 11.5426 14.6272 11.5142C14.627 11.5055 14.6266 11.497 14.6263 11.4884C14.6255 11.4679 14.6245 11.4475 14.6232 11.4271C14.6227 11.418 14.6221 11.409 14.6215 11.3999C14.6199 11.3772 14.618 11.3545 14.6159 11.3319C14.6154 11.3264 14.615 11.3209 14.6144 11.3153C14.6116 11.2874 14.6084 11.2595 14.6048 11.2318C14.6039 11.225 14.6029 11.2183 14.602 11.2115C14.599 11.1903 14.5959 11.1691 14.5925 11.1479C14.5912 11.1394 14.5897 11.1309 14.5883 11.1224C14.5847 11.1015 14.581 11.0807 14.5769 11.06C14.5756 11.0532 14.5744 11.0464 14.573 11.0396C14.5675 11.0121 14.5616 10.9848 14.5553 10.9576C14.5547 10.9552 14.5541 10.9526 14.5535 10.9501C14.5477 10.9255 14.5416 10.9011 14.5352 10.8769C14.5331 10.8695 14.5312 10.8623 14.5292 10.8551ZM19.6 5.6V3.2C19.6 2.53726 19.0627 2 18.4 2H5.2C4.53726 2 4 2.53726 4 3.2V5.6C4 6.26274 4.53726 6.8 5.2 6.8H8.28021C8.20972 7.02356 8.23408 7.2296 8.28244 7.4H5.2V8.6H6.3609C6.23789 8.78932 6.13381 8.99029 6.05018 9.2H5.2C4.53726 9.2 4 9.73726 4 10.4V12.8C4 13.4627 4.53726 14 5.2 14H6.05003C6.13365 14.2097 6.23772 14.4107 6.36071 14.6H5.2V15.8H8.28246C8.2341 15.9704 8.20972 16.1764 8.28006 16.4H5.2C4.53726 16.4 4 16.9373 4 17.6V20C4 20.6627 4.53726 21.2 5.2 21.2H18.4C19.0627 21.2 19.6 20.6627 19.6 20V17.6C19.6 16.9373 19.0627 16.4 18.4 16.4H15.32C15.3904 16.1764 15.366 15.9704 15.3176 15.8H18.4V14.6H17.2393C17.3624 14.4107 17.4664 14.2097 17.5501 14H18.4C19.0627 14 19.6 13.4627 19.6 12.8V10.4C19.6 9.73726 19.0627 9.2 18.4 9.2H17.5501C17.4664 8.99028 17.3623 8.78931 17.2392 8.6H18.4V7.4H15.3176C15.366 7.2296 15.3904 7.02356 15.32 6.8H18.4C19.0627 6.8 19.6 6.26274 19.6 5.6ZM5.8 5C5.46863 5 5.2 4.73137 5.2 4.4C5.2 4.06863 5.46863 3.8 5.8 3.8C6.13137 3.8 6.4 4.06863 6.4 4.4C6.4 4.73137 6.13137 5 5.8 5ZM5.2 11.6C5.2 11.2686 5.46863 11 5.8 11C6.13137 11 6.4 11.2686 6.4 11.6C6.4 11.9314 6.13137 12.2 5.8 12.2C5.46863 12.2 5.2 11.9314 5.2 11.6ZM5.8 19.4C5.46863 19.4 5.2 19.1314 5.2 18.8C5.2 18.4686 5.46863 18.2 5.8 18.2C6.13137 18.2 6.4 18.4686 6.4 18.8C6.4 19.1314 6.13137 19.4 5.8 19.4ZM14.6805 7.4C14.667 7.43206 14.6529 7.46463 14.6392 7.49775L14.6372 7.50255C14.634 7.51055 14.6308 7.51855 14.6275 7.52655C14.6265 7.52895 14.6255 7.53152 14.6245 7.53399C14.6215 7.54138 14.6186 7.54881 14.6158 7.55626C14.6147 7.55919 14.6135 7.5621 14.6124 7.56505C14.6097 7.57225 14.607 7.57945 14.6044 7.58665C14.6033 7.58977 14.602 7.59286 14.601 7.59598C14.5985 7.60323 14.596 7.61052 14.5935 7.61785C14.5924 7.62102 14.5913 7.62414 14.5903 7.6273C14.5879 7.63477 14.5855 7.64228 14.5833 7.64982C14.5823 7.65286 14.5813 7.65589 14.5804 7.65896C14.578 7.66686 14.5759 7.67482 14.5738 7.68279C14.573 7.68553 14.5722 7.68826 14.5715 7.69102C14.5691 7.70005 14.567 7.70912 14.5649 7.71826C14.5646 7.71999 14.5641 7.7217 14.5637 7.72345C14.5589 7.7455 14.5548 7.7679 14.5517 7.79065C14.5517 7.79118 14.5517 7.79168 14.5516 7.79221C14.5502 7.80289 14.549 7.81362 14.5481 7.82446C14.5479 7.82742 14.5478 7.83042 14.5475 7.83339C14.5469 7.84182 14.5464 7.85019 14.5461 7.85881C14.5461 7.86274 14.5461 7.86673 14.546 7.87069C14.546 7.87834 14.5457 7.88605 14.546 7.8938C14.546 7.89824 14.5463 7.90273 14.5465 7.90722C14.5468 7.91456 14.5471 7.92193 14.5477 7.92934C14.548 7.93414 14.5486 7.93906 14.5491 7.94394C14.5498 7.95114 14.5505 7.95834 14.5515 7.96554C14.5521 7.97065 14.553 7.97578 14.5539 7.98092C14.555 7.98812 14.5563 7.9952 14.5575 8.00252C14.5585 8.00782 14.5597 8.0132 14.5609 8.01855C14.5624 8.02575 14.564 8.03295 14.5659 8.04015C14.5672 8.04567 14.5688 8.05122 14.5703 8.05678C14.5723 8.06398 14.5744 8.07118 14.5767 8.07838C14.5785 8.08407 14.5804 8.08978 14.5823 8.09552C14.5848 8.10277 14.5874 8.11006 14.5902 8.11738C14.5924 8.12324 14.5947 8.12912 14.5971 8.135C14.6 8.14234 14.6032 8.14974 14.6065 8.15715C14.6091 8.16315 14.6118 8.16915 14.6146 8.1752C14.6181 8.18266 14.6218 8.19018 14.6257 8.19774C14.6288 8.20383 14.6319 8.20995 14.6351 8.2161C14.6392 8.22375 14.6436 8.23146 14.648 8.23918C14.6516 8.24538 14.6551 8.25157 14.6588 8.25783C14.6636 8.26563 14.6684 8.27353 14.6736 8.28142C14.6776 8.28771 14.6815 8.294 14.6857 8.30036C14.6911 8.30842 14.6969 8.31658 14.7025 8.32474C14.707 8.33103 14.7113 8.33732 14.716 8.34368C14.7221 8.35208 14.7287 8.36048 14.7353 8.36907C14.7401 8.37536 14.7448 8.38158 14.7498 8.38791C14.757 8.39686 14.7647 8.40594 14.7723 8.41498C14.7773 8.42098 14.7821 8.42698 14.7874 8.43296C14.7961 8.44309 14.8055 8.45336 14.8149 8.46361C14.8197 8.46874 14.8239 8.47378 14.8287 8.47894C14.8431 8.49443 14.8582 8.51006 14.874 8.52584C14.8875 8.5393 14.9008 8.55224 14.914 8.5645C15.1467 8.78396 15.3441 8.85418 15.5192 8.85418C15.8283 8.85418 16.068 8.63605 16.3096 8.63605C16.4923 8.63605 16.6762 8.76128 16.892 9.20005C16.9097 9.236 16.9276 9.27405 16.9456 9.31419C16.9461 9.31506 16.9464 9.31592 16.9468 9.31681C16.9549 9.33462 16.963 9.353 16.9711 9.3717C16.9724 9.37482 16.9738 9.37782 16.9751 9.38096C16.9841 9.40186 16.9932 9.42331 17.0023 9.44533C17.0534 9.56645 17.098 9.69023 17.1358 9.81613C17.1421 9.83765 17.1479 9.85858 17.1532 9.87891C17.1724 9.9502 17.1863 10.0228 17.1947 10.0962C17.1964 10.1122 17.1977 10.1277 17.1986 10.1426C17.1994 10.1576 17.1999 10.1722 17.2 10.1862C17.2 10.1859 17.2 10.1866 17.2 10.1862C17.2005 10.3264 17.162 10.422 17.0995 10.4917C17.087 10.5056 17.0735 10.5187 17.0591 10.5308C17.0446 10.543 17.0295 10.5544 17.0137 10.5649C16.9978 10.5755 16.9812 10.5855 16.9639 10.595C16.8997 10.6284 16.8335 10.6579 16.7658 10.6835L16.7357 10.6957C16.6853 10.7162 16.6342 10.7378 16.5842 10.7629C16.5742 10.768 16.5642 10.7732 16.5543 10.7785C16.5345 10.7893 16.5149 10.8007 16.4957 10.8129C16.3037 10.9353 16.1474 11.142 16.1474 11.6001C16.1474 12.0353 16.2884 12.2436 16.4672 12.3683C16.486 12.3814 16.5052 12.3937 16.5248 12.4051C16.5443 12.4165 16.5641 12.4272 16.5842 12.4373C16.6042 12.4474 16.6244 12.4569 16.6446 12.466C16.6649 12.4751 16.6852 12.4837 16.7054 12.4922C16.7358 12.5048 16.766 12.5168 16.7957 12.5288C16.8321 12.5436 16.8677 12.5584 16.9017 12.5741C16.9905 12.6153 17.0684 12.6635 17.1224 12.7372C17.1456 12.769 17.1636 12.8044 17.1757 12.842C17.193 12.8977 17.2012 12.9558 17.2 13.0141C17.2 13.0281 17.1995 13.0427 17.1986 13.0577C17.1922 13.1469 17.177 13.2352 17.1532 13.3214C17.132 13.4027 17.103 13.4934 17.0654 13.5947C17.0466 13.6454 17.0256 13.6988 17.0023 13.755C16.9932 13.777 16.9841 13.7984 16.9751 13.8193C16.9738 13.8224 16.9725 13.8253 16.9711 13.8284C16.963 13.8471 16.9549 13.8655 16.9469 13.8834C16.9465 13.8842 16.9461 13.8851 16.9457 13.886C16.9276 13.9261 16.9097 13.9641 16.8921 14C16.6762 14.439 16.4924 14.5642 16.3096 14.5642C16.0679 14.5642 15.8282 14.3458 15.519 14.3458C15.3438 14.3458 15.1465 14.4161 14.9139 14.6354C14.9007 14.6477 14.8875 14.6605 14.874 14.6739C14.8582 14.6897 14.8431 14.7054 14.8287 14.7208C14.8239 14.726 14.8195 14.7311 14.8148 14.7362C14.8055 14.7465 14.7961 14.7567 14.7873 14.7668C14.7821 14.7728 14.7773 14.7788 14.7724 14.7847C14.7647 14.7938 14.757 14.8029 14.7498 14.8119C14.7448 14.8182 14.7402 14.8244 14.7354 14.8307C14.7288 14.8392 14.7222 14.8477 14.716 14.8561C14.7112 14.8625 14.707 14.8688 14.7026 14.8751C14.6968 14.8833 14.6911 14.8914 14.6858 14.8995C14.6815 14.9058 14.6776 14.9121 14.6736 14.9184C14.6686 14.9263 14.6635 14.9342 14.6589 14.942C14.6551 14.9483 14.6517 14.9545 14.648 14.9607C14.6436 14.9684 14.6393 14.9761 14.6352 14.9837C14.6319 14.9899 14.6288 14.996 14.6257 15.0021C14.6219 15.0096 14.6182 15.0172 14.6146 15.0247C14.6118 15.0307 14.6091 15.0367 14.6065 15.0427C14.6032 15.0501 14.6001 15.0575 14.5971 15.0648C14.5947 15.0707 14.5923 15.0766 14.5902 15.0824C14.5875 15.0898 14.5849 15.097 14.5824 15.1043C14.5804 15.11 14.5785 15.1158 14.5767 15.1215C14.5745 15.1287 14.5724 15.1359 14.5704 15.1431C14.5688 15.1486 14.5673 15.1542 14.5659 15.1597C14.5641 15.1669 14.5624 15.1741 14.5609 15.1813C14.5598 15.1867 14.5585 15.192 14.5576 15.1973C14.5562 15.2045 14.555 15.2117 14.5539 15.2189C14.5531 15.224 14.5522 15.2291 14.5515 15.2342C14.5505 15.2414 14.5498 15.2487 14.5491 15.2559C14.5486 15.2607 14.5481 15.2655 14.5477 15.2703C14.5472 15.2778 14.5468 15.2852 14.5465 15.2926C14.5464 15.297 14.5461 15.3015 14.546 15.3059C14.5458 15.3137 14.546 15.3215 14.546 15.3292C14.546 15.3331 14.546 15.337 14.5461 15.3409C14.5464 15.3495 14.547 15.358 14.5476 15.3665C14.5478 15.3694 14.5479 15.3724 14.5481 15.3752C14.549 15.3862 14.5502 15.397 14.5516 15.4078L14.5517 15.4091C14.5547 15.4318 14.5588 15.4542 14.5637 15.4763C14.5642 15.4781 14.5646 15.4799 14.565 15.4817C14.5671 15.4908 14.5692 15.4998 14.5716 15.5087C14.5723 15.5114 14.5731 15.5141 14.5738 15.5168C14.576 15.5249 14.5781 15.5329 14.5805 15.5408C14.5814 15.5439 14.5824 15.5469 14.5833 15.55C14.5856 15.5575 14.5879 15.565 14.5904 15.5725C14.5914 15.5757 14.5925 15.5789 14.5936 15.5821C14.596 15.5893 14.5985 15.5966 14.601 15.6038C14.6022 15.6069 14.6034 15.6101 14.6045 15.6132C14.6071 15.6205 14.6097 15.6277 14.6124 15.6348C14.6136 15.6378 14.6148 15.6407 14.6158 15.6437C14.6187 15.6511 14.6216 15.6585 14.6245 15.6659L14.6275 15.6734C14.6307 15.6814 14.634 15.6894 14.6373 15.6974C14.6379 15.6989 14.6386 15.7005 14.6392 15.702C14.6529 15.7352 14.667 15.7678 14.6805 15.7999C14.7672 16.0058 14.8308 16.193 14.636 16.3999C14.6043 16.433 14.5701 16.4637 14.5337 16.4915C14.5313 16.4933 14.5291 16.4951 14.5267 16.4969C14.518 16.5036 14.5091 16.5103 14.4998 16.517C14.497 16.519 14.494 16.5211 14.4912 16.5231C14.463 16.5431 14.4321 16.5634 14.3985 16.5839C14.3921 16.5878 14.3857 16.5917 14.3791 16.5957C14.3704 16.6008 14.3616 16.606 14.3527 16.6111C14.3445 16.6159 14.3361 16.6205 14.3276 16.6253C14.3191 16.63 14.3106 16.6348 14.3019 16.6395C14.2907 16.6456 14.2791 16.6517 14.2674 16.6578C14.2606 16.6614 14.254 16.665 14.247 16.6685C14.2285 16.678 14.2094 16.6875 14.1896 16.6971C14.1826 16.7006 14.1752 16.7041 14.168 16.7075C14.1536 16.7143 14.1392 16.7212 14.1242 16.7281C14.1162 16.7318 14.1081 16.7355 14.0998 16.7393C14.0842 16.7465 14.0682 16.7535 14.0518 16.7607C14.0443 16.764 14.0369 16.7673 14.0293 16.7706C14.0053 16.781 13.9806 16.7915 13.955 16.8021C13.9353 16.8103 13.916 16.8181 13.897 16.8257C13.891 16.8281 13.8851 16.8304 13.8792 16.8327C13.8663 16.8378 13.8534 16.8429 13.8408 16.8477L13.8205 16.8555C13.8089 16.8599 13.7974 16.8641 13.7861 16.8683L13.7663 16.8755C13.7546 16.8798 13.7432 16.8838 13.7318 16.8878C13.7261 16.8898 13.7203 16.8919 13.7146 16.8938C13.7002 16.8988 13.686 16.9036 13.672 16.9082C13.6697 16.909 13.6674 16.9098 13.6651 16.9106C13.6491 16.9159 13.6335 16.9208 13.6181 16.9255C13.613 16.9271 13.6081 16.9285 13.6031 16.93C13.5927 16.9331 13.5824 16.9362 13.5724 16.9391L13.5552 16.9439C13.546 16.9464 13.537 16.9489 13.528 16.9513C13.5224 16.9528 13.5167 16.9543 13.5112 16.9557C13.5021 16.9581 13.4932 16.9602 13.4844 16.9623C13.4794 16.9635 13.4744 16.9647 13.4695 16.9659C13.4587 16.9683 13.4482 16.9707 13.4378 16.9729L13.4297 16.9747C13.4168 16.9773 13.4042 16.9797 13.3918 16.9819C13.3881 16.9825 13.3844 16.9831 13.3807 16.9837C13.372 16.9852 13.3634 16.9867 13.355 16.9879C13.3506 16.9886 13.3463 16.9892 13.342 16.9898C13.3344 16.9909 13.3269 16.9918 13.3195 16.9927C13.3152 16.9933 13.3109 16.9937 13.3067 16.9942C13.2992 16.995 13.2919 16.9957 13.2847 16.9963C13.2809 16.9967 13.2772 16.997 13.2735 16.9973C13.2648 16.9979 13.2563 16.9984 13.248 16.9988L13.2419 16.9992C13.2314 16.9997 13.2212 17 13.2112 17C13.2093 17 13.2075 17 13.2057 17C13.1972 17 13.1888 16.9998 13.1806 16.9994C13.1776 16.9994 13.1747 16.9991 13.1718 16.999C13.1646 16.9986 13.1574 16.9981 13.1505 16.9974C13.1479 16.9972 13.1452 16.997 13.1427 16.9967C13.1337 16.9958 13.1249 16.9947 13.1164 16.9935C13.1074 16.9921 13.0978 16.9905 13.0892 16.9887L13.0838 16.9875C13.0771 16.986 13.0705 16.9844 13.0641 16.9827C13.0621 16.9821 13.06 16.9816 13.058 16.981C13.0513 16.9791 13.0448 16.9771 13.0384 16.9749C13.0372 16.9746 13.036 16.9742 13.0349 16.9738C13.0199 16.9687 13.0052 16.9626 12.991 16.9556L12.9876 16.9539C12.9816 16.9509 12.9758 16.9478 12.9701 16.9445L12.9675 16.943C12.9479 16.9315 12.9295 16.9183 12.9124 16.9034L12.9116 16.9027C12.6136 16.6419 12.7652 15.948 11.8 15.948C10.9646 15.948 10.9656 16.4673 10.7881 16.7763L10.7873 16.7777C10.776 16.7973 10.7636 16.8164 10.7502 16.8347L10.7482 16.8373C10.7444 16.8423 10.7406 16.8472 10.7367 16.8521L10.7343 16.8549C10.7251 16.8661 10.7153 16.8767 10.7051 16.8869C10.7043 16.8877 10.7035 16.8884 10.7027 16.8893C10.6984 16.8934 10.6941 16.8975 10.6896 16.9013L10.6857 16.9047C10.6813 16.9085 10.6767 16.9122 10.6721 16.9158C10.6711 16.9166 10.6701 16.9174 10.6691 16.9182C10.6633 16.9227 10.6574 16.927 10.6512 16.9311C10.6455 16.9349 10.639 16.9389 10.633 16.9425C10.6314 16.9434 10.6298 16.9443 10.6282 16.9453C10.6234 16.948 10.6183 16.9507 10.6132 16.9533L10.608 16.956C10.6019 16.9589 10.5957 16.9617 10.5894 16.9644L10.5873 16.9653C10.5802 16.9683 10.5728 16.9711 10.5652 16.9737C10.5636 16.9743 10.5619 16.9748 10.5603 16.9753C10.5543 16.9773 10.5483 16.9792 10.5421 16.9809L10.5352 16.9828C10.5291 16.9844 10.5228 16.9859 10.5165 16.9873C10.5144 16.9878 10.5124 16.9883 10.5103 16.9887C10.5018 16.9905 10.4932 16.9921 10.4842 16.9935L10.4828 16.9937C10.4745 16.995 10.4659 16.9961 10.4572 16.9969C10.4545 16.9972 10.4518 16.9974 10.4491 16.9976C10.4422 16.9982 10.4352 16.9988 10.428 16.9991C10.425 16.9993 10.4221 16.9995 10.4191 16.9996C10.4109 16.9999 10.4026 17.0002 10.3941 17.0002C10.3922 17.0002 10.3904 17.0002 10.3885 17.0002C10.3786 17.0002 10.3685 17 10.3581 16.9995L10.3519 16.9992C10.3436 16.9988 10.3351 16.9983 10.3265 16.9977C10.3228 16.9974 10.3191 16.997 10.3155 16.9967C10.3081 16.9961 10.3007 16.9954 10.2931 16.9946C10.289 16.9941 10.2849 16.9936 10.2807 16.9931C10.2731 16.9922 10.2654 16.9912 10.2576 16.9901C10.2535 16.9895 10.2494 16.989 10.2452 16.9883C10.2363 16.987 10.2272 16.9855 10.2181 16.9839C10.2149 16.9833 10.2118 16.9829 10.2085 16.9823C10.1959 16.98 10.1831 16.9776 10.1701 16.9749L10.1641 16.9736C10.153 16.9712 10.1417 16.9688 10.1301 16.966C10.1257 16.965 10.1212 16.9639 10.1167 16.9628C10.1074 16.9606 10.0979 16.9583 10.0883 16.9558L10.0727 16.9517C10.0632 16.9492 10.0537 16.9466 10.044 16.9439L10.0282 16.9395C10.0174 16.9364 10.0065 16.9332 9.99539 16.9299C9.99105 16.9286 9.9868 16.9274 9.98241 16.926C9.96676 16.9212 9.95087 16.9162 9.93462 16.9109L9.93045 16.9095C9.91565 16.9047 9.90058 16.8996 9.88523 16.8942C9.87981 16.8924 9.87424 16.8904 9.86877 16.8884C9.85715 16.8844 9.84546 16.8802 9.83356 16.8759C9.8272 16.8735 9.82074 16.8712 9.81436 16.8689C9.80282 16.8646 9.79114 16.8602 9.77932 16.8558L9.75954 16.8482C9.7467 16.8433 9.73365 16.8382 9.7205 16.833L9.70336 16.8262C9.68416 16.8186 9.66496 16.8107 9.64516 16.8026C9.6196 16.792 9.595 16.7815 9.5709 16.771C9.56327 16.7677 9.55588 16.7644 9.54839 16.7612C9.53207 16.754 9.51604 16.7468 9.50039 16.7397C9.49216 16.736 9.48398 16.7323 9.47591 16.7285C9.46098 16.7216 9.44649 16.7148 9.43218 16.7079C9.42498 16.7045 9.41759 16.701 9.41058 16.6976C9.39086 16.688 9.37174 16.6784 9.35322 16.6689C9.34622 16.6654 9.33964 16.6617 9.33282 16.6582C9.32114 16.6521 9.30952 16.646 9.29831 16.64C9.28955 16.6352 9.28106 16.6305 9.27258 16.6257C9.26411 16.621 9.25578 16.6161 9.24748 16.6115C9.23855 16.6064 9.2297 16.6013 9.22108 16.5962C9.21436 16.5922 9.2079 16.5882 9.20138 16.5842C9.1679 16.5637 9.13711 16.5435 9.109 16.5236C9.10607 16.5215 9.10307 16.5194 9.10022 16.5173C9.09098 16.5107 9.08203 16.504 9.07336 16.4974L9.06616 16.4919C9.02987 16.4639 8.99579 16.4332 8.96423 16.4C8.76923 16.1929 8.83293 16.0056 8.91966 15.7996C8.9331 15.7677 8.94705 15.7353 8.96068 15.7024C8.96142 15.7007 8.96214 15.6989 8.96286 15.6972C8.96606 15.6894 8.96926 15.6816 8.97246 15.6738C8.97354 15.6711 8.9746 15.6685 8.97566 15.6658C8.97854 15.6586 8.98138 15.6513 8.9842 15.644C8.98535 15.6409 8.9866 15.6379 8.98768 15.6349C8.99037 15.6277 8.99296 15.6206 8.99555 15.6135C8.99673 15.6102 8.99795 15.607 8.99908 15.6039C9.0016 15.5967 9.00402 15.5895 9.00645 15.5824C9.00755 15.5792 9.00868 15.5759 9.00976 15.5726C9.01216 15.5653 9.01442 15.5579 9.01667 15.5505C9.01766 15.5473 9.01866 15.5441 9.01962 15.5409C9.02202 15.5331 9.02409 15.5252 9.0262 15.5173C9.02697 15.5145 9.02778 15.5117 9.0286 15.5089C9.031 15.5 9.03302 15.4911 9.03508 15.4821C9.03551 15.4802 9.03599 15.4783 9.0364 15.4764C9.0412 15.4544 9.0453 15.432 9.0484 15.4092C9.0484 15.4086 9.0484 15.408 9.04859 15.4073C9.04997 15.3967 9.05111 15.3861 9.05202 15.3754C9.05226 15.3724 9.05236 15.3694 9.05258 15.3664C9.05315 15.358 9.05373 15.3496 9.05399 15.341C9.05414 15.3371 9.05399 15.333 9.05414 15.329C9.05414 15.3214 9.05435 15.3138 9.05414 15.3061C9.05414 15.3016 9.05375 15.297 9.05358 15.2925C9.05327 15.2853 9.05296 15.2779 9.05241 15.2705C9.05205 15.2657 9.0515 15.2609 9.05102 15.2559C9.0503 15.2487 9.04958 15.2415 9.04862 15.2343C9.04794 15.2292 9.04708 15.224 9.04622 15.2189C9.04509 15.2117 9.04382 15.2045 9.04254 15.1973C9.04151 15.192 9.04034 15.1866 9.03918 15.1813C9.03762 15.1741 9.03602 15.1669 9.03419 15.1597C9.0328 15.1541 9.03126 15.1486 9.02973 15.143C9.02771 15.1358 9.0256 15.1286 9.02334 15.1214C9.02154 15.1157 9.01965 15.11 9.0177 15.1043C9.01522 15.097 9.01261 15.0898 9.00986 15.0824C9.00765 15.0766 9.00535 15.0707 9.00297 15.0648C8.99999 15.0575 8.99686 15.0501 8.99358 15.0427C8.99094 15.0367 8.98823 15.0307 8.9854 15.0246C8.9819 15.0172 8.9782 15.0096 8.97436 15.0021C8.97126 14.996 8.96817 14.9899 8.96476 14.9837C8.96068 14.9761 8.95634 14.9684 8.95194 14.9607C8.94839 14.9545 8.94474 14.9482 8.9411 14.942C8.93642 14.9342 8.9315 14.9263 8.92638 14.9184C8.92235 14.9121 8.91842 14.9058 8.91417 14.8994C8.90882 14.8914 8.90306 14.8832 8.89737 14.8751C8.89293 14.8688 8.88858 14.8625 8.88388 14.8561C8.87774 14.8477 8.87111 14.8393 8.86456 14.8307C8.85976 14.8244 8.85508 14.8182 8.85016 14.8119C8.84296 14.8029 8.83528 14.7938 8.82767 14.7848C8.82263 14.7788 8.81786 14.7728 8.81262 14.7668C8.80386 14.7567 8.79448 14.7465 8.78517 14.7362C8.78037 14.7311 8.7761 14.726 8.77125 14.7208C8.75685 14.7053 8.74175 14.6896 8.72594 14.6739C8.7125 14.6605 8.69918 14.6476 8.686 14.6353C8.45342 14.416 8.25604 14.3458 8.08096 14.3458C7.77177 14.3458 7.53203 14.5642 7.29047 14.5642C7.10774 14.5642 6.9239 14.4389 6.70821 14C6.69061 13.9641 6.67274 13.9261 6.65462 13.886L6.65339 13.8833C6.64538 13.8655 6.63729 13.8471 6.62918 13.8284C6.62786 13.8253 6.62654 13.8224 6.62522 13.8193C6.61622 13.7984 6.60715 13.777 6.598 13.7549C6.03916 12.4064 6.79926 12.6931 7.21425 12.3023C7.22742 12.2899 7.24017 12.2765 7.25265 12.2627C7.26014 12.2543 7.26747 12.2457 7.27466 12.2368C7.38069 12.1052 7.45259 11.9106 7.45259 11.6001C7.45259 11.2674 7.37006 11.0676 7.25135 10.9361C7.24335 10.9273 7.23523 10.9188 7.22699 10.9106C7.20265 10.8864 7.17657 10.8641 7.14894 10.8438C7.13802 10.8358 7.12694 10.8281 7.11573 10.8206C7.10613 10.8142 7.09641 10.8081 7.08657 10.8022C7.07308 10.794 7.0595 10.7861 7.04577 10.7786C7.03588 10.7733 7.02593 10.7681 7.01591 10.763C6.99911 10.7545 6.98205 10.7465 6.96503 10.7387C6.95172 10.7327 6.9384 10.7267 6.92507 10.721C6.88451 10.7036 6.84398 10.6876 6.80442 10.6715C6.78465 10.6635 6.76511 10.6555 6.74594 10.6473C6.72676 10.6392 6.70794 10.6308 6.68963 10.6222C6.598 10.579 6.51849 10.5273 6.46612 10.4466C6.45537 10.43 6.44599 10.4126 6.43809 10.3945C6.43302 10.383 6.42863 10.3708 6.42453 10.3583C6.41525 10.3296 6.40876 10.3 6.40514 10.27C6.40171 10.2422 6.40016 10.2142 6.40034 10.1862C6.40056 10.1561 6.40231 10.1261 6.40557 10.0961C6.42256 9.9362 6.48174 9.72622 6.59817 9.44526C6.60734 9.42314 6.61643 9.40165 6.62546 9.38077C6.62673 9.37779 6.62798 9.37496 6.62927 9.37203C6.63743 9.35317 6.64559 9.33462 6.65366 9.31666C6.65402 9.31585 6.6544 9.31506 6.65476 9.31426C6.67287 9.27407 6.69078 9.23598 6.7085 9.2C6.92418 8.76116 7.10793 8.636 7.29069 8.636C7.53215 8.636 7.77186 8.85418 8.08094 8.85418C8.25614 8.85418 8.45351 8.78389 8.68612 8.56446C8.69934 8.5521 8.71264 8.53926 8.7261 8.52579C8.74188 8.51 8.75697 8.49437 8.77137 8.4789C8.77617 8.47371 8.78061 8.46865 8.78531 8.46349C8.79462 8.45326 8.80398 8.44302 8.81274 8.43291C8.81798 8.42686 8.82278 8.42091 8.82784 8.41491C8.83545 8.40584 8.84313 8.39679 8.85028 8.38784C8.85532 8.38153 8.85988 8.37531 8.8648 8.36905C8.87135 8.36055 8.87798 8.35203 8.88414 8.34363C8.88882 8.33727 8.89312 8.33098 8.89758 8.32467C8.90332 8.31651 8.90908 8.30835 8.91438 8.30026C8.91861 8.29393 8.92252 8.28766 8.92655 8.28138C8.93157 8.27348 8.93661 8.26558 8.94129 8.25776C8.94506 8.2515 8.94849 8.2453 8.95211 8.23909C8.95653 8.23136 8.9609 8.22366 8.96498 8.21602C8.96826 8.20988 8.97134 8.20378 8.97443 8.19769C8.97825 8.19013 8.98199 8.18259 8.9855 8.1751C8.98833 8.16908 8.99102 8.1631 8.99366 8.15708C8.99694 8.14967 9.00007 8.14229 9.00306 8.13493C9.00546 8.12902 9.00774 8.12317 9.00993 8.11731C9.0127 8.10998 9.01531 8.1027 9.01778 8.09547C9.01974 8.08971 9.02164 8.084 9.02344 8.07829C9.0257 8.07106 9.02782 8.06386 9.0298 8.05669C9.03136 8.05112 9.0329 8.04553 9.03429 8.03989C9.03609 8.03269 9.03772 8.02549 9.03926 8.01829C9.04043 8.01294 9.04166 8.00758 9.04262 8.00226C9.04401 7.99506 9.04518 7.98786 9.04629 7.98066C9.0471 7.97554 9.04794 7.97038 9.04869 7.9653C9.04962 7.9581 9.05037 7.9509 9.05109 7.9437C9.05157 7.9389 9.05212 7.93393 9.05248 7.9291C9.05306 7.92169 9.05337 7.91434 9.05366 7.90702C9.05385 7.90254 9.05411 7.898 9.05421 7.89354C9.05438 7.88578 9.05421 7.87813 9.05421 7.87045C9.05421 7.86649 9.05421 7.8625 9.05421 7.85845C9.05392 7.84998 9.05337 7.84165 9.05279 7.83325C9.05258 7.8302 9.05248 7.8271 9.05222 7.82406C9.05134 7.81335 9.0502 7.80273 9.04881 7.79218C9.04881 7.79154 9.04881 7.79089 9.04859 7.79026C9.04562 7.76754 9.04158 7.74517 9.03659 7.72306C9.03616 7.72107 9.03563 7.71913 9.03518 7.71714C9.03316 7.70826 9.03107 7.6994 9.02879 7.69074C9.02805 7.68786 9.02721 7.685 9.02639 7.68212C9.02428 7.67427 9.02214 7.66645 9.01986 7.6587C9.01893 7.6555 9.01792 7.65236 9.01694 7.6491C9.01468 7.64168 9.0124 7.63429 9.01 7.62697C9.00894 7.62368 9.00782 7.62044 9.00671 7.61718C9.00431 7.60998 9.00191 7.60278 8.99932 7.59558C8.99817 7.59238 8.99692 7.58919 8.99584 7.58598C8.99325 7.57884 8.99062 7.57173 8.98794 7.56464C8.98677 7.56152 8.98554 7.5584 8.98437 7.55528C8.98158 7.54805 8.97878 7.54085 8.97594 7.53368L8.97266 7.52547C8.96955 7.51779 8.96643 7.51013 8.9633 7.50248L8.9609 7.4966C8.94736 7.46389 8.93349 7.4318 8.9201 7.40002C8.83329 7.19398 8.7695 7.00664 8.96476 6.7995C8.99645 6.76635 9.03065 6.73571 9.06707 6.70784C9.06933 6.70609 9.07158 6.70434 9.07386 6.70261C9.08258 6.69594 9.09158 6.68924 9.10086 6.68252C9.10372 6.68046 9.1067 6.67839 9.10962 6.67633C9.13778 6.65633 9.16866 6.63608 9.20224 6.61558C9.20862 6.61167 9.21496 6.60778 9.22144 6.60387C9.2301 6.59874 9.23903 6.59358 9.24803 6.58839C9.25614 6.58374 9.26441 6.57906 9.27282 6.57438C9.28137 6.56958 9.28994 6.56478 9.29882 6.55998C9.30986 6.554 9.3213 6.54798 9.33285 6.54193C9.33981 6.53828 9.3465 6.53473 9.35363 6.53101C9.37206 6.52158 9.39113 6.51208 9.41082 6.5025C9.41802 6.49899 9.42551 6.49546 9.43286 6.49196C9.44702 6.48519 9.46137 6.4784 9.47606 6.47156C9.48422 6.46777 9.49252 6.46398 9.50087 6.46018C9.51633 6.45318 9.53211 6.44613 9.54822 6.43904C9.55593 6.43568 9.56349 6.4323 9.57136 6.42889C9.59536 6.41854 9.61965 6.40815 9.64499 6.39769L9.6461 6.39723C9.66551 6.38919 9.6845 6.38149 9.70329 6.37398L9.72174 6.36678C9.73439 6.36176 9.74697 6.35684 9.75933 6.35209C9.76638 6.34938 9.77332 6.34674 9.78026 6.34412C9.79158 6.33982 9.80278 6.33562 9.81386 6.33154C9.82074 6.329 9.82763 6.32646 9.83445 6.32401C9.84568 6.31993 9.85672 6.31602 9.86766 6.31218C9.87381 6.31002 9.88002 6.30781 9.88607 6.30572C9.89956 6.30106 9.91276 6.29665 9.92582 6.29233L9.93554 6.28906C9.9513 6.28393 9.96674 6.27906 9.9819 6.2744C9.98757 6.27265 9.99304 6.27106 9.9987 6.26938C10.0083 6.26648 10.018 6.26362 10.0275 6.26089C10.0338 6.25909 10.04 6.25738 10.0462 6.25566C10.0547 6.25326 10.0632 6.25086 10.0716 6.24874C10.0777 6.24711 10.0839 6.2455 10.0899 6.24394C10.0983 6.24178 10.1066 6.23977 10.1147 6.2378C10.1203 6.23643 10.126 6.23506 10.1315 6.23379C10.1411 6.23156 10.1506 6.2295 10.1599 6.2275C10.1637 6.22671 10.1675 6.2258 10.1712 6.2251C10.1839 6.22249 10.1962 6.22014 10.2083 6.2179C10.2127 6.21709 10.217 6.21642 10.2214 6.21567C10.2293 6.21433 10.2372 6.21301 10.245 6.21183C10.2498 6.21109 10.2546 6.21044 10.2594 6.20979C10.2665 6.20878 10.2736 6.20786 10.2805 6.20701L10.2943 6.20542C10.3015 6.20466 10.3084 6.20401 10.3152 6.20341C10.3193 6.20305 10.3234 6.20266 10.3274 6.20235C10.3356 6.20175 10.3437 6.20127 10.3517 6.20089C10.3541 6.20089 10.3565 6.2006 10.3589 6.2005C10.3692 6.2001 10.3793 6.19988 10.3892 6.19988C10.3912 6.19988 10.393 6.19988 10.395 6.19988C10.4034 6.19988 10.4117 6.20007 10.4199 6.20046C10.4228 6.20046 10.4256 6.20072 10.4285 6.20089C10.4358 6.2013 10.4431 6.2018 10.4501 6.20245C10.4525 6.20266 10.455 6.20286 10.4574 6.20312C10.4756 6.20493 10.4936 6.20767 10.5114 6.21135L10.5158 6.21234C10.5229 6.21394 10.5298 6.21562 10.5366 6.2174L10.5418 6.21879C10.549 6.22083 10.5562 6.22299 10.563 6.22532L10.565 6.22599C10.5803 6.23124 10.5952 6.23744 10.6097 6.24457L10.6121 6.24574C10.6185 6.24894 10.6247 6.25232 10.6309 6.25587L10.6324 6.25671C11.0078 6.47574 10.7793 7.25199 11.8006 7.25199C12.6178 7.25199 12.6343 6.75466 12.801 6.44384C12.801 6.44389 12.801 6.44379 12.801 6.44384C12.8045 6.43731 12.808 6.43077 12.8117 6.4245C12.8122 6.42354 12.8128 6.4226 12.8133 6.42164C12.8168 6.41561 12.8204 6.40967 12.824 6.40383L12.8249 6.40234C12.8328 6.38975 12.841 6.37758 12.8497 6.36582L12.8526 6.362C12.856 6.35749 12.8594 6.35304 12.863 6.34866L12.8662 6.34467C12.8704 6.33956 12.8748 6.33452 12.8792 6.32962L12.88 6.32871C12.8848 6.32348 12.8897 6.31838 12.8948 6.3134C12.8959 6.3123 12.897 6.31124 12.8982 6.31016C12.9021 6.30638 12.9061 6.3027 12.9102 6.2991C12.9117 6.2977 12.9133 6.29634 12.915 6.29497C12.919 6.29151 12.9231 6.28814 12.9273 6.28486C12.9287 6.28374 12.9301 6.28261 12.9315 6.28153C12.9371 6.27726 12.9429 6.27312 12.9488 6.26912C12.9495 6.26864 12.9502 6.26823 12.9509 6.26775C12.9561 6.26433 12.9614 6.261 12.9669 6.25777C12.9688 6.25664 12.9708 6.25554 12.9727 6.25443C12.9772 6.25189 12.9818 6.24944 12.9865 6.24704C12.9886 6.24598 12.9906 6.24493 12.9928 6.2439C12.9982 6.24123 13.0038 6.23869 13.0096 6.23624C13.0108 6.23571 13.012 6.23511 13.0133 6.23458C13.0203 6.2317 13.0275 6.22899 13.0349 6.22645C13.0369 6.22575 13.0389 6.22513 13.0409 6.22448C13.0465 6.22264 13.0521 6.2209 13.0579 6.21925C13.0605 6.2185 13.0631 6.21781 13.0657 6.21711C13.0714 6.21559 13.0773 6.21418 13.0833 6.21286C13.0857 6.21234 13.088 6.21176 13.0904 6.21128C13.0987 6.20955 13.1072 6.20797 13.116 6.20662L13.1184 6.20631C13.1264 6.20514 13.1346 6.20413 13.1431 6.20326C13.1459 6.20295 13.1488 6.20274 13.1517 6.20247C13.1584 6.2019 13.1653 6.20139 13.1722 6.20101L13.1815 6.20053C13.1896 6.20019 13.1977 6.20002 13.2061 6.19988C13.2081 6.19988 13.21 6.19988 13.212 6.19988C13.2219 6.19988 13.2321 6.20019 13.2424 6.20062L13.2479 6.20091C13.2565 6.20132 13.2652 6.20182 13.2742 6.2025C13.2776 6.20276 13.2812 6.2031 13.2847 6.20341C13.2923 6.20406 13.2999 6.20478 13.3076 6.20562L13.3196 6.20698C13.3274 6.20792 13.3354 6.20898 13.3434 6.2101C13.3473 6.21066 13.3512 6.21118 13.3552 6.21178C13.3644 6.21318 13.3737 6.2147 13.3832 6.21637C13.3861 6.21687 13.389 6.2173 13.3919 6.21783C13.4046 6.22012 13.4176 6.22262 13.4308 6.22534L13.4348 6.22621C13.4466 6.22867 13.4586 6.23133 13.4708 6.23418C13.4749 6.23514 13.4791 6.23617 13.4832 6.23718C13.4928 6.23958 13.5027 6.24198 13.5127 6.24438C13.5176 6.24562 13.5226 6.24694 13.5276 6.24826C13.5372 6.25081 13.5471 6.2535 13.557 6.25626C13.5621 6.25767 13.5671 6.25906 13.5723 6.26055C13.5832 6.26367 13.5943 6.26698 13.6056 6.27037L13.6181 6.27414C13.6338 6.27894 13.6498 6.28398 13.6661 6.2893L13.6697 6.2905C13.6847 6.29543 13.6999 6.30057 13.7153 6.30591L13.732 6.31174C13.7435 6.31578 13.7551 6.3199 13.7669 6.32418C13.7734 6.32658 13.78 6.32898 13.7866 6.33138C13.7979 6.33554 13.8094 6.33982 13.821 6.34422C13.8278 6.34678 13.8346 6.34935 13.8415 6.35202C13.8538 6.35682 13.8664 6.36162 13.8791 6.36673C13.8853 6.36913 13.8915 6.37153 13.8977 6.37407C13.9162 6.38144 13.9348 6.38902 13.9539 6.3969L13.9556 6.39757L13.9565 6.39798C13.9816 6.40839 14.0059 6.41871 14.0296 6.42898C14.0374 6.43239 14.045 6.43575 14.0527 6.43914C14.0688 6.44621 14.0846 6.45326 14.1001 6.46028C14.1084 6.4641 14.1167 6.46786 14.1249 6.47166C14.1397 6.47847 14.154 6.48526 14.1681 6.49203C14.1754 6.49554 14.183 6.49909 14.1902 6.50259C14.2098 6.51219 14.2288 6.52168 14.2473 6.53106C14.2545 6.5348 14.2614 6.53847 14.2684 6.54219C14.2799 6.54817 14.2912 6.55419 14.302 6.56005C14.3109 6.56485 14.3195 6.56965 14.3281 6.57445C14.3367 6.57925 14.3447 6.58378 14.3528 6.58844C14.3619 6.59362 14.3708 6.59881 14.3795 6.60397C14.386 6.60786 14.3923 6.6117 14.3987 6.61556C14.4324 6.63614 14.4634 6.65645 14.4916 6.6765C14.4945 6.67851 14.4974 6.68055 14.5002 6.68257C14.5095 6.68929 14.5185 6.69601 14.5273 6.7027L14.534 6.70786C14.5702 6.73591 14.6043 6.76671 14.6358 6.8C14.8308 7.00695 14.7672 7.19415 14.6805 7.4Z" fill="currentColor"/>
</svg>
