<svg width="24" height="24" viewBox="0 0 24 24" fill="currentColor" xmlns="http://www.w3.org/2000/svg">
<path fill-rule="evenodd" clip-rule="evenodd" d="M13.302 11.509C13.0343 11.509 12.8174 11.726 12.8174 11.9936C12.8174 12.2612 13.0343 12.4782 13.302 12.4782C13.5696 12.4782 13.7866 12.2612 13.7866 11.9936C13.7866 11.726 13.5696 11.509 13.302 11.509ZM14.4327 10.2167C14.1651 10.2167 13.9481 10.4336 13.9481 10.7013C13.9481 10.969 14.1651 11.1859 14.4327 11.1859C14.7004 11.1859 14.9174 10.969 14.9174 10.7013C14.9174 10.4336 14.7004 10.2167 14.4327 10.2167ZM14.4327 11.0244C14.3021 11.0244 14.1843 10.9456 14.1343 10.8249C14.0842 10.7042 14.1119 10.5652 14.2043 10.4728C14.2967 10.3804 14.4357 10.3528 14.5564 10.4028C14.6771 10.4528 14.7558 10.5706 14.7558 10.7013C14.7558 10.787 14.7218 10.8692 14.6612 10.9297C14.6006 10.9903 14.5184 11.0244 14.4327 11.0244ZM5.96353 11.509C5.69589 11.509 5.47892 11.726 5.47892 11.9936C5.47892 12.2612 5.69589 12.4782 5.96353 12.4782C6.23117 12.4782 6.44814 12.2612 6.44814 11.9936C6.44813 11.726 6.23117 11.509 5.96353 11.509ZM15.5635 11.509C15.2959 11.509 15.0789 11.726 15.0789 11.9936C15.0789 12.2612 15.2959 12.4782 15.5635 12.4782C15.8312 12.4782 16.0481 12.2612 16.0481 11.9936C16.0481 11.726 15.8312 11.509 15.5635 11.509ZM9.63275 10.2167C9.36509 10.2167 9.14812 10.4336 9.14812 10.7013C9.14812 10.969 9.36509 11.1859 9.63275 11.1859C9.9004 11.1859 10.1174 10.969 10.1174 10.7013C10.1174 10.4336 9.9004 10.2167 9.63275 10.2167ZM9.63275 11.0244C9.50207 11.0244 9.38426 10.9456 9.33425 10.8249C9.28424 10.7042 9.31189 10.5652 9.4043 10.4728C9.49671 10.3804 9.63568 10.3528 9.7564 10.4028C9.87713 10.4528 9.95584 10.5706 9.95584 10.7013C9.95584 10.787 9.92179 10.8692 9.8612 10.9297C9.80061 10.9903 9.71843 11.0244 9.63275 11.0244ZM10.7635 11.509C10.4959 11.509 10.2789 11.726 10.2789 11.9936C10.2789 12.2612 10.4959 12.4782 10.7635 12.4782C11.0312 12.4782 11.2481 12.2612 11.2481 11.9936C11.2481 11.726 11.0312 11.509 10.7635 11.509ZM19.2327 10.2167C18.9651 10.2167 18.7481 10.4336 18.7481 10.7013C18.7481 10.969 18.9651 11.1859 19.2327 11.1859C19.5004 11.1859 19.7174 10.969 19.7174 10.7013C19.7174 10.4336 19.5004 10.2167 19.2327 10.2167ZM19.2327 11.0244C19.1021 11.0244 18.9843 10.9456 18.9342 10.8249C18.8842 10.7042 18.9119 10.5652 19.0043 10.4728C19.0967 10.3804 19.2357 10.3528 19.3564 10.4028C19.4771 10.4528 19.5558 10.5706 19.5558 10.7013C19.5558 10.787 19.5218 10.8692 19.4612 10.9297C19.4006 10.9903 19.3184 11.0244 19.2327 11.0244ZM20.9832 8.6936H3.00822C2.33939 8.69555 1.79768 9.23726 1.79572 9.90608V14.0811C1.79767 14.7499 2.33937 15.2916 3.0082 15.2936H20.9832C21.652 15.2917 22.1938 14.75 22.1957 14.0811V9.90611C22.1938 9.23728 21.6521 8.69557 20.9832 8.6936ZM4.83275 14.0936C3.67295 14.0936 2.73275 13.1534 2.73275 11.9936C2.73275 10.8338 3.67295 9.8936 4.83275 9.8936C5.99255 9.8936 6.93275 10.8338 6.93275 11.9936C6.93275 13.1534 5.99255 14.0936 4.83275 14.0936ZM9.63275 14.0936C8.47295 14.0936 7.53275 13.1534 7.53275 11.9936C7.53275 10.8338 8.47295 9.8936 9.63275 9.8936C10.7925 9.8936 11.7327 10.8338 11.7327 11.9936C11.7327 13.1534 10.7925 14.0936 9.63275 14.0936ZM14.4327 14.0936C13.2729 14.0936 12.3327 13.1534 12.3327 11.9936C12.3327 10.8338 13.2729 9.8936 14.4327 9.8936C15.5925 9.8936 16.5327 10.8338 16.5327 11.9936C16.5327 13.1534 15.5925 14.0936 14.4327 14.0936ZM19.2327 14.0936C18.0729 14.0936 17.1327 13.1534 17.1327 11.9936C17.1327 10.8338 18.0729 9.8936 19.2327 9.8936C20.3925 9.8936 21.3327 10.8338 21.3327 11.9936C21.3327 13.1534 20.3925 14.0936 19.2327 14.0936ZM20.3635 11.509C20.0959 11.509 19.8789 11.726 19.8789 11.9936C19.8789 12.2612 20.0959 12.4782 20.3635 12.4782C20.6312 12.4782 20.8481 12.2612 20.8481 11.9936C20.8481 11.726 20.6312 11.509 20.3635 11.509ZM3.70199 11.509C3.43435 11.509 3.21738 11.726 3.21738 11.9936C3.21738 12.2612 3.43435 12.4782 3.70199 12.4782C3.96963 12.4782 4.1866 12.2612 4.1866 11.9936C4.1866 11.8651 4.13554 11.7418 4.04466 11.6509C3.95378 11.5601 3.83051 11.509 3.70199 11.509ZM8.50199 11.509C8.23435 11.509 8.01738 11.726 8.01738 11.9936C8.01738 12.2612 8.23435 12.4782 8.50199 12.4782C8.76963 12.4782 8.9866 12.2612 8.9866 11.9936C8.9866 11.8651 8.93554 11.7418 8.84466 11.6509C8.75378 11.5601 8.63051 11.509 8.50199 11.509ZM18.102 11.509C17.8343 11.509 17.6174 11.726 17.6174 11.9936C17.6174 12.2612 17.8343 12.4782 18.102 12.4782C18.3696 12.4782 18.5866 12.2612 18.5866 11.9936C18.5866 11.726 18.3696 11.509 18.102 11.509ZM4.83275 10.2167C4.56509 10.2167 4.34812 10.4336 4.34812 10.7013C4.34812 10.969 4.56509 11.1859 4.83275 11.1859C5.1004 11.1859 5.31738 10.969 5.31738 10.7013C5.31738 10.4336 5.1004 10.2167 4.83275 10.2167ZM4.83275 11.0244C4.70207 11.0244 4.58426 10.9456 4.53425 10.8249C4.48424 10.7042 4.51189 10.5652 4.6043 10.4728C4.69671 10.3804 4.83568 10.3528 4.9564 10.4028C5.07713 10.4528 5.15585 10.5706 5.15584 10.7013C5.15584 10.787 5.12179 10.8692 5.0612 10.9297C5.00061 10.9903 4.91843 11.0244 4.83275 11.0244Z" fill="currentColor"/>
</svg>
