<svg width="24" height="24" viewBox="0 0 24 24" fill="currentColor" xmlns="http://www.w3.org/2000/svg">
<path fill-rule="evenodd" clip-rule="evenodd" d="M21.4146 19.6651L15.9992 14.2497C16.9076 12.9799 17.3948 11.4573 17.3924 9.89606C17.3924 5.75606 14.0362 2.3999 9.89618 2.3999C5.75614 2.3999 2.40002 5.75606 2.40002 9.89611C2.40002 14.0362 5.75614 17.3923 9.89618 17.3923C11.4574 17.3948 12.9801 16.9075 14.2498 15.9991L19.6652 21.4146C19.8998 21.648 20.2789 21.648 20.5134 21.4146L21.4146 20.5133C21.648 20.2788 21.648 19.8997 21.4146 19.6651ZM9.89618 14.9935C7.08099 14.9935 4.7988 12.7113 4.7988 9.89611C4.7988 7.08091 7.08099 4.79873 9.89618 4.79873C12.7114 4.79873 14.9936 7.08091 14.9936 9.89611C14.9936 12.7113 12.7114 14.9935 9.89618 14.9935ZM12.5943 10.7952H7.19702C6.86583 10.7952 6.59734 10.5267 6.59734 10.1955V9.59573C6.59734 9.26452 6.86582 8.99601 7.19702 8.99601H12.5943C12.9255 8.99601 13.194 9.26452 13.194 9.59573V10.1954C13.194 10.3545 13.1308 10.507 13.0183 10.6195C12.9059 10.732 12.7533 10.7952 12.5943 10.7952Z" fill="currentColor"/>
</svg>
