<svg width="24" height="24" viewBox="0 0 24 24" fill="currentColor" xmlns="http://www.w3.org/2000/svg">
<path fill-rule="evenodd" clip-rule="evenodd" d="M17.4295 20.4H6.57056C6.25546 20.4 6.00003 20.1446 6.00001 19.8295V4.1706C6.00003 3.8555 6.25546 3.60006 6.57056 3.60005H17.4295C17.7446 3.60006 18 3.8555 18 4.1706V5.4295C18 5.7446 18.2555 6.00004 18.5706 6.00005H19.2295C19.5446 6.00004 19.8 5.7446 19.8 5.4295V3.0535C19.8 2.36122 19.2388 1.80005 18.5465 1.80005H5.38172C4.72908 1.80005 4.20001 2.32912 4.20001 2.98176V20.8987C4.20001 21.2438 4.33711 21.5748 4.58116 21.8189C4.82521 22.063 5.15622 22.2001 5.50136 22.2001H18.5437C19.2375 22.2001 19.8 21.6376 19.8 20.9437V18.5706C19.8 18.2555 19.5446 18.0001 19.2295 18H18.5706C18.2555 18.0001 18 18.2555 18 18.5706V19.8295C18 20.1446 17.7446 20.4 17.4295 20.4ZM13.8 15H9.60001C8.99663 15 8.40001 14.3836 8.40001 13.8V10.2C8.40001 9.61654 8.99663 9.00005 9.60001 9.00005H13.8V6.00005L19.4031 11.052C19.6569 11.3071 19.7996 11.6522 19.8 12.012C19.7995 12.3719 19.6568 12.717 19.403 12.972L13.8 18V15Z" fill="currentColor"/>
</svg>
