<svg width="24" height="24" viewBox="0 0 24 24" fill="currentColor" xmlns="http://www.w3.org/2000/svg">
<path fill-rule="evenodd" clip-rule="evenodd" d="M16.2 6.00005C16.2 5.99954 16.2 5.99906 16.2 5.99856V5.99136C16.2 5.98543 16.1997 5.97958 16.1997 5.97365C16.1853 3.67567 14.3012 1.80005 12 1.80005H11.9941H11.988C9.67475 1.80005 7.80001 3.69581 7.80001 5.99986L4.20001 6.00005V20.4C4.20001 21.3942 5.0059 22.2001 6.00001 22.2001H18C18.9941 22.2001 19.8 21.3942 19.8 20.4V6.00005H16.2ZM9.8823 3.88234C10.4423 3.31767 11.2047 3.00005 12 3.00005C12.7953 3.00005 13.5577 3.31767 14.1177 3.88234C14.1514 3.91594 14.1842 3.95026 14.216 3.9853C14.7127 4.53602 14.9905 5.2497 14.9966 5.99134V6.00005H9.00001C8.99948 5.20464 9.31718 4.44208 9.8823 3.88234ZM7.80001 19.8H7.20001V12H7.80001V19.8ZM9.60001 19.2001H8.40001V12H9.60001V19.2001ZM8.40001 9.60005C7.85701 9.59991 7.38176 9.23516 7.24121 8.71065C7.10066 8.18615 7.32983 7.63263 7.80001 7.36099V8.40005C7.80001 8.73142 8.06864 9.00005 8.40001 9.00005C8.73138 9.00005 9.00001 8.73142 9.00001 8.40005V7.36099C9.47019 7.63263 9.69937 8.18615 9.55882 8.71065C9.41826 9.23516 8.94302 9.59991 8.40001 9.60005ZM10.8 19.2001H10.2V12H10.8V19.2001ZM12.6 19.2001H11.4V12H12.6V19.2001ZM13.8 19.2001H13.2V12H13.8V19.2001ZM15.6 19.2001H14.4V12H15.6V19.2001ZM16.8 19.8H16.2V12H16.8V19.8ZM15.6 9.60005C15.0577 9.59994 14.5829 9.23614 14.4417 8.71255C14.3004 8.18897 14.5279 7.63574 14.9966 7.36294C14.9966 7.9045 14.9966 8.40005 14.9966 8.40005H15C15 8.39978 15 8.40031 15 8.40005C15 8.73142 15.2686 9.00084 15.6 9.00084C15.9314 9.00084 16.2 8.73221 16.2 8.40084C16.2 8.4011 16.2 8.40058 16.2 8.40084V7.36099C16.6702 7.63263 16.8994 8.18615 16.7588 8.71065C16.6183 9.23516 16.143 9.59991 15.6 9.60005Z" fill="currentColor"/>
</svg>
