<svg width="24" height="24" viewBox="0 0 24 24" fill="currentColor" xmlns="http://www.w3.org/2000/svg">
<path fill-rule="evenodd" clip-rule="evenodd" d="M1.8 4.19995V17.4L4.2 19.8H22.2V4.19995H1.8ZM6 18.7647C5.99857 19.0033 5.8065 19.1968 5.568 19.2H5.232C4.9935 19.1968 4.80143 19.0033 4.8 18.7647V17.8208C4.80126 17.7077 4.84753 17.5997 4.9286 17.5207C5.00966 17.4417 5.11884 17.3983 5.232 17.4H5.568C5.68117 17.3983 5.79034 17.4417 5.87141 17.5207C5.95247 17.5997 5.99875 17.7077 6 17.8208V18.7647ZM7.8 18.7647C7.79857 19.0033 7.6065 19.1968 7.368 19.2H7.032C6.7935 19.1968 6.60143 19.0033 6.6 18.7647V17.8448C6.6 17.6088 6.79575 17.4 7.032 17.4H7.368C7.60426 17.4 7.8 17.6088 7.8 17.8448V18.7647ZM8.6856 19.0236C8.62496 19.0236 8.57029 18.987 8.54708 18.931C8.52388 18.875 8.53671 18.8105 8.5796 18.7676C8.62248 18.7247 8.68697 18.7119 8.74299 18.7351C8.79902 18.7583 8.83554 18.813 8.83553 18.8736C8.8355 18.9564 8.76839 19.0235 8.6856 19.0236ZM8.6856 18.4716C8.6028 18.4716 8.53568 18.4044 8.53568 18.3216C8.53568 18.2388 8.6028 18.1717 8.6856 18.1717C8.76841 18.1717 8.83553 18.2388 8.83553 18.3216C8.83545 18.4044 8.76835 18.4715 8.6856 18.4716ZM10.8 18.7647C10.7986 19.0033 10.6065 19.1968 10.368 19.2H10.032C9.7935 19.1968 9.60143 19.0033 9.6 18.7647V17.8448C9.6 17.6088 9.79575 17.4 10.032 17.4H10.368C10.6043 17.4 10.8 17.6088 10.8 17.8448V18.7647ZM12.6 18.7647C12.5986 19.0033 12.4065 19.1968 12.168 19.2H11.832C11.5935 19.1968 11.4014 19.0033 11.4 18.7647V17.8448C11.4 17.6088 11.5957 17.4 11.832 17.4H12.168C12.4043 17.4 12.6 17.6088 12.6 17.8448V18.7647ZM21 16.2H4.8V15.6H21V16.2ZM15.9 18C16.0657 18 16.2 18.1343 16.2 18.3C16.2 18.4656 16.0657 18.6 15.9 18.6C15.7343 18.6 15.6 18.4656 15.6 18.3C15.6 18.1343 15.7343 18 15.9 18ZM17.1 18C17.2657 18 17.4 18.1343 17.4 18.3C17.4 18.4656 17.2657 18.6 17.1 18.6C16.9343 18.6 16.8 18.4656 16.8 18.3C16.8 18.1343 16.9343 18 17.1 18ZM18.3 18C18.4657 18 18.6 18.1343 18.6 18.3C18.6 18.4656 18.4657 18.6 18.3 18.6C18.1343 18.6 18 18.4656 18 18.3C18 18.1343 18.1343 18 18.3 18Z" fill="currentColor"/>
</svg>
