<svg width="24" height="24" viewBox="0 0 24 24" fill="currentColor" xmlns="http://www.w3.org/2000/svg">
<path fill-rule="evenodd" clip-rule="evenodd" d="M21.8 6.8V17.6H3.2V18.8H23V6.8H21.8ZM21.2 17V5H2V17H21.2ZM3.5 14C3.39925 14 3.29874 14.01 3.2 14.0301V7.96993C3.69345 8.07022 4.20431 7.91641 4.56036 7.56036C4.91642 7.20431 5.07022 6.69345 4.96993 6.2H18.2301C18.1298 6.69345 18.2836 7.20431 18.6396 7.56036C18.9957 7.91641 19.5066 8.07022 20 7.96993V14.0301C19.5066 13.9298 18.9957 14.0836 18.6396 14.4396C18.2836 14.7957 18.1298 15.3066 18.2301 15.8H4.96993C5.05962 15.3587 4.94644 14.9004 4.66159 14.5516C4.37674 14.2028 3.95034 14.0003 3.5 14ZM5.9 11.9C6.39706 11.9 6.8 11.4971 6.8 11C6.8 10.5029 6.39706 10.1 5.9 10.1C5.40294 10.1 5 10.5029 5 11C5 11.4971 5.40294 11.9 5.9 11.9ZM17.3 11.9C17.7971 11.9 18.2 11.4971 18.2 11C18.2 10.5029 17.7971 10.1 17.3 10.1C16.8029 10.1 16.4 10.5029 16.4 11C16.4 11.4971 16.8029 11.9 17.3 11.9ZM11.6 7.4C9.61177 7.4 8 9.01177 8 11C8 12.9882 9.61177 14.6 11.6 14.6C13.5882 14.6 15.2 12.9882 15.2 11C15.2 10.0452 14.8207 9.12955 14.1456 8.45442C13.4705 7.77928 12.5548 7.4 11.6 7.4ZM13.3823 10.5595V10.917H12.5438L12.198 11.507H13.3052V11.876H12.0788V13.2027H11.1023V11.876H9.90056V11.507H10.9832L10.6388 10.917H9.80466V10.5595H10.4426L9.68696 9.25023H10.7274L11.5905 10.9228L12.4537 9.23281H13.513L12.7458 10.5595H13.3823Z" fill="currentColor"/>
</svg>
