<svg width="24" height="24" viewBox="0 0 24 24" fill="currentColor" xmlns="http://www.w3.org/2000/svg">
<path fill-rule="evenodd" clip-rule="evenodd" d="M4.19999 1.80005H19.8C21.1255 1.80005 22.2 2.87457 22.2 4.20005V19.8C22.2 21.1255 21.1255 22.2001 19.8 22.2001H4.19999C2.8745 22.2001 1.79999 21.1255 1.79999 19.8V4.20005C1.79999 2.87457 2.8745 1.80005 4.19999 1.80005ZM16.1441 16.4333H14.408C14.1952 16.4333 13.9986 16.5468 13.8923 16.731C13.7859 16.9153 13.7859 17.1423 13.8923 17.3265C13.9986 17.5108 14.1952 17.6243 14.408 17.6243H16.1441C16.3569 17.6243 16.5535 17.5108 16.6598 17.3265C16.7662 17.1423 16.7662 16.9153 16.6598 16.731C16.5535 16.5468 16.3569 16.4333 16.1441 16.4333ZM16.1047 18.3133H14.3685C14.1558 18.3133 13.9592 18.4268 13.8528 18.6111C13.7464 18.7953 13.7464 19.0223 13.8528 19.2066C13.9592 19.3908 14.1558 19.5043 14.3685 19.5043H16.1047C16.3174 19.5043 16.514 19.3908 16.6204 19.2066C16.7268 19.0223 16.7268 18.7953 16.6204 18.6111C16.514 18.4268 16.3174 18.3133 16.1047 18.3133ZM19.5583 14.3957H16.3266C15.995 14.3957 15.7262 14.6645 15.7262 14.9961C15.7262 15.3277 15.995 15.5966 16.3266 15.5966H17.3722V18.9695C17.3735 19.2956 17.6379 19.5594 17.964 19.56C18.2901 19.5594 18.5545 19.2956 18.5559 18.9695V15.5966H19.5582C19.8898 15.5966 20.1586 15.3278 20.1586 14.9962C20.1586 14.6646 19.8899 14.3957 19.5583 14.3957ZM14.3734 15.6163H14.6003C14.9428 15.6156 15.2204 15.3386 15.2218 14.9961C15.2204 14.6537 14.9428 14.3767 14.6003 14.376H14.3734C14.031 14.3767 13.7534 14.6537 13.752 14.9961C13.7533 15.3386 14.031 15.6156 14.3734 15.6163ZM8.64508 8.90052C8.64514 8.9005 8.64501 8.9005 8.64508 8.90052C8.0128 8.96875 7.38376 8.7447 6.93707 8.29205L6.31664 7.66781L6.30976 7.66085L6.18628 7.53662H4.50654C4.36282 7.538 4.24704 7.6549 4.24704 7.79862C4.24704 7.94235 4.36282 8.05924 4.50654 8.06062H6.3242C6.37244 8.06062 6.41154 8.09972 6.41154 8.14795C6.41154 8.19619 6.37244 8.23529 6.3242 8.23529H4.19711C4.05035 8.23905 3.93393 8.36018 3.93596 8.50697C3.93536 8.57649 3.96263 8.64336 4.01171 8.69261C4.06078 8.74186 4.12756 8.76936 4.19708 8.76898L6.47072 8.76763C6.5034 8.76765 6.53403 8.78609 6.54959 8.81483C6.56516 8.84356 6.56375 8.87851 6.54592 8.9059C6.5298 8.93122 6.50112 8.94568 6.47118 8.94358C6.47118 8.94358 4.5194 8.94322 4.51619 8.9437C4.36941 8.94211 4.24867 9.05893 4.24542 9.20568C4.24542 9.35179 4.36062 9.47741 4.50652 9.47738H6.77879C6.77975 9.47738 6.78073 9.47724 6.78169 9.47724C6.82429 9.47536 6.86244 9.50344 6.8733 9.54468C6.87946 9.57063 6.8734 9.59797 6.85687 9.6189C6.84033 9.63983 6.81513 9.65204 6.78846 9.65206C6.78522 9.65206 6.77226 9.65239 6.76912 9.65206H5.57022C5.47463 9.64902 5.38498 9.69828 5.33629 9.78059C5.2876 9.86291 5.2876 9.9652 5.33629 10.0475C5.38498 10.1298 5.47463 10.1791 5.57022 10.176H7.76526C8.28551 10.1774 8.77945 9.9475 9.11341 9.54859C9.15927 9.49375 9.15578 9.413 9.10535 9.36233L8.64508 8.90052ZM10.7187 7.74485L10.1534 7.17605C10.2789 6.59229 10.1004 5.98468 9.67919 5.5615L9.23977 5.11937L9.16907 5.04823L8.54176 4.41703C8.47611 4.35019 8.38639 4.31248 8.2927 4.31237C8.19901 4.31226 8.10919 4.34976 8.0434 4.41646C7.903 4.55474 7.90022 4.78032 8.03718 4.92202L8.66449 5.55322L8.67138 5.56015C8.69838 5.59339 8.69431 5.64202 8.66216 5.67031C8.63055 5.70195 8.58022 5.70485 8.54519 5.67703L8.54008 5.67773C8.53856 5.67641 8.5346 5.67223 8.53319 5.67079C8.53177 5.66935 8.5276 5.66537 8.52628 5.66386L8.16781 5.30318L6.72016 3.84658C6.617 3.74351 6.44982 3.74358 6.34675 3.84673C6.24368 3.94989 6.24375 4.11707 6.34691 4.22014L7.79456 5.67674C7.81681 5.69897 7.8255 5.73137 7.81738 5.76175C7.80925 5.79212 7.78554 5.81585 7.75517 5.824C7.7248 5.83215 7.69239 5.82348 7.67015 5.80126L6.00191 4.1227C5.95336 4.07412 5.88735 4.04705 5.81867 4.04755C5.74497 4.04766 5.67433 4.07701 5.62225 4.12915C5.57226 4.17852 5.54408 4.24581 5.54399 4.31607C5.54389 4.38632 5.57189 4.4537 5.62175 4.50319L7.28915 6.17897C7.3238 6.21399 7.32412 6.27107 7.28982 6.30643C7.27358 6.32265 7.25153 6.33171 7.22857 6.33158C7.20441 6.33158 7.18126 6.32194 7.16423 6.3048C7.16423 6.3048 5.72747 4.85858 5.72483 4.85662C5.67268 4.80418 5.60181 4.77465 5.52786 4.77451C5.45943 4.774 5.39365 4.80088 5.34517 4.84918C5.23915 4.95287 5.23585 5.12241 5.33776 5.23015L6.75248 6.65362L6.78541 6.68674L7.02668 6.92952L7.0336 6.93646C7.03602 6.93864 7.03832 6.94096 7.04048 6.94339C7.06273 6.96562 7.07142 6.99802 7.0633 7.02839C7.05517 7.05877 7.03146 7.0825 7.00109 7.09065C6.97072 7.0988 6.93831 7.09013 6.91607 7.0679C6.91367 7.0655 6.90428 7.05655 6.90229 7.05403L6.5043 6.65362L5.97169 6.11765C5.91955 6.06521 5.84868 6.03566 5.77472 6.03554C5.70629 6.03502 5.64049 6.0619 5.59199 6.11018C5.48979 6.21765 5.49264 6.38722 5.5984 6.49119L5.89945 6.79409L6.46381 7.36195L6.53593 7.4345L6.54282 7.44144L6.6374 7.53662L7.16324 8.0657C7.57842 8.48668 8.17666 8.67207 8.75713 8.55965L9.21623 9.02021L9.33119 9.13553C9.36723 9.17247 9.41665 9.19335 9.46826 9.19335C9.51987 9.19335 9.56931 9.17261 9.60541 9.13572L10.2213 8.51928L10.7113 8.02889C10.7097 8.03076 10.7089 8.03148 10.7091 8.03148C10.7092 8.03148 10.7172 8.02306 10.7182 8.02188C10.7551 7.98524 10.7759 7.93543 10.776 7.88345C10.776 7.83147 10.7554 7.7816 10.7187 7.74485ZM9.48846 15.7087H9.34028C9.01038 14.5653 8.16582 13.752 7.17599 13.752C6.18616 13.752 5.3416 14.5653 5.01169 15.7087H4.86352C4.6748 15.7087 4.49382 15.7837 4.36038 15.9172C4.22694 16.0506 4.15199 16.2316 4.15199 16.4203V17.1318C4.15199 17.5248 4.47055 17.8434 4.86352 17.8434H5.01169C5.3416 18.9868 6.18616 19.8 7.17599 19.8C8.16582 19.8 9.01038 18.9868 9.34028 17.8434H9.48846C9.88143 17.8434 10.2 17.5248 10.2 17.1318V16.4203C10.2 16.2316 10.125 16.0506 9.99159 15.9172C9.85816 15.7837 9.67717 15.7087 9.48846 15.7087ZM8.96824 17.8436C8.92915 17.9649 8.8826 18.0836 8.82887 18.1991H7.67915C7.59251 17.9541 7.34194 17.8071 7.08579 17.851C6.82963 17.895 6.64239 18.1171 6.64239 18.377C6.64239 18.6369 6.82963 18.859 7.08579 18.9029C7.34194 18.9469 7.59251 18.7999 7.67915 18.5549H8.63039C8.59784 18.6041 8.56387 18.6519 8.52846 18.6982C8.36077 18.9238 8.14806 19.1121 7.90381 19.2511C7.45271 19.5087 6.89907 19.5087 6.44797 19.2511C6.20372 19.1121 5.99101 18.9238 5.82332 18.6982C5.62923 18.4404 5.48054 18.1514 5.38364 17.8436C5.16438 17.1488 5.16438 16.4033 5.38364 15.7085C5.41244 15.6193 5.44464 15.5329 5.48024 15.4491C5.52353 15.3476 5.62968 15.2879 5.73892 15.3036C6.0146 15.343 6.50948 15.494 7.17589 16.0217C7.9833 16.6612 8.84118 16.4849 9.10549 16.3328C9.12363 16.4799 9.13271 16.6279 9.13271 16.776C9.13404 17.1383 9.07855 17.4986 8.96824 17.8436ZM18.2533 5.61605C17.9053 5.61605 17.5802 5.78314 17.3042 5.98733C17.1644 6.07392 16.9876 6.07392 16.8478 5.98733C16.5718 5.78314 16.2467 5.61605 15.8987 5.61605C14.9858 5.61605 14.2939 6.34253 13.752 7.14374C14.2062 8.01593 15.6011 8.95094 16.9868 8.95094C17.0164 8.95094 17.0462 8.9519 17.076 8.9519C17.1058 8.9519 17.1356 8.95094 17.1652 8.95094C18.5508 8.95094 19.9458 8.0159 20.4 7.14374C19.8581 6.34253 19.1662 5.61605 18.2533 5.61605ZM17.0834 7.65463C15.8595 7.65463 15.052 7.34486 15.052 7.19143C15.052 7.038 15.8595 6.72823 17.0834 6.72823C18.3072 6.72823 19.1147 7.038 19.1147 7.19143C19.1147 7.34486 18.3072 7.65463 17.0834 7.65463Z" fill="currentColor"/>
</svg>
