<svg width="24" height="24" viewBox="0 0 24 24" fill="currentColor" xmlns="http://www.w3.org/2000/svg">
<path fill-rule="evenodd" clip-rule="evenodd" d="M12 4.19997C15.9889 4.20674 19.3244 7.23363 19.7172 11.2032C20.11 15.1728 17.4324 18.7946 13.5222 19.583C9.61191 20.3714 5.74005 18.0701 4.56398 14.2584C3.38791 10.4468 5.28993 6.3639 8.96461 4.81199C9.92492 4.40585 10.9573 4.1977 12 4.19997ZM12 1.79999C6.36668 1.79999 1.79999 6.36668 1.79999 12C1.79999 17.6333 6.36668 22.2 12 22.2C17.6333 22.2 22.2 17.6333 22.2 12C22.2 6.36668 17.6333 1.79999 12 1.79999ZM16.2648 8.68799C15.2429 7.36957 13.6681 6.59859 12 6.59999C9.3428 6.59999 7.13392 8.5192 6.68382 11.047H8.30785C8.64883 9.72131 9.67474 8.68035 10.9954 8.3201C12.316 7.95986 13.7284 8.33568 14.6953 9.30464C14.8551 9.46432 15.0005 9.6378 15.1297 9.82304L13.9059 11.047H16.7012C17.0871 11.047 17.4 10.7342 17.4 10.3482V7.55293L16.2648 8.68799ZM15.6921 12.9529C15.3511 14.2787 14.3252 15.3196 13.0046 15.6799C11.684 16.0401 10.2716 15.6643 9.30467 14.6953C9.14489 14.5356 8.99953 14.3621 8.87027 14.1768L10.0943 12.9529H7.29882C6.91287 12.9529 6.59999 13.2658 6.59999 13.6517V16.447L7.73519 15.312C8.75712 16.6304 10.3319 17.4014 12 17.4C14.6572 17.4 16.8661 15.4808 17.3162 12.9529H15.6921Z" fill="currentColor"/>
</svg>
