<svg width="24" height="24" viewBox="0 0 24 24" fill="currentColor" xmlns="http://www.w3.org/2000/svg">
<path fill-rule="evenodd" clip-rule="evenodd" d="M15.477 3.00175C13.0901 3.00175 11.1543 4.34662 11.1543 6.00871C11.1543 7.00058 11.8467 7.88263 12.9137 8.42791C12.8266 8.85324 12.6215 9.47642 12.1555 9.65117C12.1555 9.65117 13.3836 9.33086 14.0808 8.85324C14.5383 8.96096 15.0069 9.01492 15.477 9.01404C17.8643 9.01404 19.8 7.66831 19.8 6.00708C19.8 4.34585 17.8643 3 15.477 3M9.69346 8.99431C9.6931 10.3157 8.62176 11.3867 7.30035 11.3867C5.97894 11.3866 4.90768 10.3155 4.90742 8.99414C4.90716 7.67273 5.978 6.60122 7.29941 6.60065H7.30044C8.62213 6.60111 9.69335 7.67263 9.69346 8.99431ZM9.42768 13.4215C8.89613 13.8202 8.89613 17.0133 9.1619 18.6085C9.42768 20.2038 8.89613 21.0032 8.4971 21.0032C8.09808 21.0032 6.50302 19.4085 6.50302 19.4085C5.83894 21.672 4.5096 20.6056 4.5096 20.6056C4.032 18.9928 4.22482 17.1913 4.58261 15.6968C4.40935 15.6392 4.26439 15.5003 4.21608 15.2421C4.1004 14.6248 5.30383 13.0141 5.69916 12.5048L5.70586 12.4914C6.23736 11.5608 7.75642 12.1128 8.4972 11.694C9.126 11.3386 12.0864 9.56522 12.2191 10.6291C12.3517 11.6931 9.95921 13.0213 9.42768 13.4215Z" fill="currentColor"/>
</svg>
