<svg width="24" height="24" viewBox="0 0 24 24" fill="currentColor" xmlns="http://www.w3.org/2000/svg">
<path fill-rule="evenodd" clip-rule="evenodd" d="M12 1.81201C6.36671 1.81201 1.79999 6.37873 1.79999 12.012C1.79999 17.6453 6.36671 22.212 12 22.212C17.6333 22.212 22.2 17.6453 22.2 12.012C22.2 6.37873 17.6333 1.81201 12 1.81201ZM12 4.21201C12.9941 4.21201 13.8 5.0179 13.8 6.01201C13.8 7.00612 12.9941 7.81201 12 7.81201C11.0059 7.81201 10.2 7.00612 10.2 6.01201C10.2 5.0179 11.0059 4.21201 12 4.21201ZM15 18.612H9.59999V17.9943L9.72688 17.9903C10.1002 17.9783 10.3776 17.8723 10.5517 17.6751C10.6135 17.6037 10.7187 17.3607 10.7187 16.5434V11.0906C10.7187 10.3132 10.6101 10.0202 10.5192 9.9112C10.3906 9.75781 10.1228 9.66767 9.72311 9.64345L9.59999 9.63601V9.01201H13.8V16.5434C13.8 17.3213 14.003 17.6142 14.0937 17.7228C14.2219 17.8761 14.4701 17.9662 14.8767 17.9904L15 17.9976V18.612Z" fill="currentColor"/>
</svg>
