<svg width="24" height="24" viewBox="0 0 24 24" fill="currentColor" xmlns="http://www.w3.org/2000/svg">
<path fill-rule="evenodd" clip-rule="evenodd" d="M12 2.40002C6.36668 2.40002 1.79999 6.02642 1.79999 10.5C1.79999 13.9672 4.54319 16.9254 8.39999 18.081V22.2L12 18.6C17.6333 18.6 22.2 14.9736 22.2 10.5C22.2 6.02642 17.6333 2.40002 12 2.40002ZM12 13.8H7.79999C7.46862 13.8 7.19999 13.5314 7.19999 13.2C7.19999 12.8687 7.46862 12.6 7.79999 12.6H12C12.3314 12.6 12.6 12.8687 12.6 13.2C12.6 13.5314 12.3314 13.8 12 13.8ZM16.2 10.8H7.79999C7.46862 10.8 7.19999 10.5314 7.19999 10.2C7.19999 9.86865 7.46862 9.60003 7.79999 9.60003H16.2C16.5314 9.60003 16.8 9.86865 16.8 10.2C16.8 10.5314 16.5314 10.8 16.2 10.8ZM16.2 7.80002H7.79999C7.46862 7.80002 7.19999 7.5314 7.19999 7.20002C7.19999 6.86865 7.46862 6.60002 7.79999 6.60002H16.2C16.5314 6.60002 16.8 6.86865 16.8 7.20002C16.8 7.5314 16.5314 7.80002 16.2 7.80002Z" fill="currentColor"/>
</svg>
