<svg width="24" height="24" viewBox="0 0 24 24" fill="currentColor" xmlns="http://www.w3.org/2000/svg">
<path fill-rule="evenodd" clip-rule="evenodd" d="M8.9638 4.88604C9.16861 5.48014 9.42193 6.10409 9.79477 6.65772C10.3038 7.4136 11.0376 8.04922 12 8.04922H14.1286C14.1286 8.04922 15.2922 13.3196 15.2961 13.3355C15.3565 13.5832 15.5104 13.7807 15.6882 13.931C15.8824 14.0953 16.112 14.2207 16.3658 14.337C16.8733 14.5695 17.4872 14.7645 18.0789 14.9747C18.6705 15.1849 19.2405 15.4135 19.6257 15.6769C20.011 15.9404 20.1818 16.1828 20.1818 16.5015V17.12H15.4773C14.4591 17.12 13.7719 16.5478 12.8292 15.7053C12.7857 15.6663 5.4226 8.45513 5.4226 8.45513L8.9638 4.88604ZM9.13636 3.72C9.05137 3.72026 8.96862 3.7473 8.89988 3.79728C8.85054 3.83747 8.80358 3.8805 8.75924 3.92616C8.75924 3.92616 3.12553 9.6048 3.09601 9.64046C2.95243 9.81192 2.97231 10.0667 3.14075 10.2138C3.16091 10.2316 10.9994 17.7131 11.0451 17.754C12.8215 19.3445 14.1432 19.8 15.4773 19.8H20.5909C20.8051 19.8 21 19.6036 21 19.3877V16.5015C21 15.8477 20.5828 15.3382 20.0795 14.994C19.5763 14.6499 18.9574 14.412 18.3473 14.1952C17.7372 13.9784 17.1366 13.7875 16.7046 13.5896C16.4886 13.4906 16.3146 13.3862 16.2123 13.2997C16.1413 13.2396 16.1096 13.196 16.0952 13.1653C16.0889 13.152 14.8509 7.54675 14.8509 7.54675C14.8059 7.36267 14.644 7.23099 14.4546 7.2246H12C11.3928 7.2246 10.9004 6.82949 10.4723 6.19385C10.0454 5.55989 9.73007 4.71763 9.53269 4.02278C9.44965 3.80921 9.31518 3.72 9.13636 3.72Z" fill="currentColor"/>
</svg>
