<svg width="24" height="24" viewBox="0 0 24 24" fill="currentColor" xmlns="http://www.w3.org/2000/svg">
<path fill-rule="evenodd" clip-rule="evenodd" d="M7.4769 12C8.30529 11.9999 8.97672 11.3282 8.97661 10.4999C8.97651 9.67146 8.30491 8.99999 7.47652 9.00004C6.64813 9.00009 5.97661 9.67165 5.97661 10.5C5.97665 10.8979 6.13474 11.2795 6.4161 11.5608C6.69746 11.8421 7.07904 12.0001 7.4769 12ZM16.4786 12C17.307 11.9999 17.9785 11.3283 17.9784 10.4999C17.9783 9.67149 17.3067 9 16.4783 9.00004C15.6499 9.00009 14.9784 9.67165 14.9784 10.5C14.9785 11.3285 15.6501 12.0001 16.4786 12ZM11.9658 16.872C11.1374 16.8722 10.4659 17.5438 10.4661 18.3722C10.4662 19.2006 11.1378 19.8721 11.9662 19.872C12.7945 19.872 13.4661 19.2004 13.4661 18.372C13.466 17.9742 13.3079 17.5926 13.0266 17.3113C12.7452 17.03 12.3636 16.872 11.9658 16.872ZM18.8395 14.6352C18.2009 14.6344 17.5884 14.8889 17.1384 15.342L14.3394 13.632C14.5648 12.3937 13.7963 11.1912 12.5778 10.8757V7.72444C13.7482 7.42224 14.5113 6.2969 14.359 5.09774C14.2067 3.89859 13.1864 2.99976 11.9776 2.99976C10.7689 2.99976 9.74864 3.89859 9.59632 5.09774C9.44401 6.2969 10.2071 7.42224 11.3775 7.72444V10.8756C10.7475 11.0388 10.2105 11.4505 9.88959 12.0167C9.56866 12.583 9.4912 13.2552 9.67492 13.8795L7.00444 15.4211C6.19072 14.5328 4.84357 14.3879 3.85954 15.0828C2.87551 15.7776 2.56138 17.0956 3.12621 18.1596C3.69104 19.2236 4.95873 19.7019 6.08563 19.2762C7.21252 18.8504 7.84729 17.6534 7.56748 16.4817L10.2924 14.9088C10.7724 15.3822 11.4294 15.6319 12.1027 15.5968C12.7759 15.5618 13.4034 15.2453 13.8317 14.7246L16.5306 16.3768C16.2471 17.3692 16.6297 18.4318 17.4807 19.0158C18.3318 19.5998 19.4608 19.5744 20.2849 18.9529C21.1089 18.3314 21.4435 17.2528 21.1159 16.274C20.7882 15.2952 19.8717 14.6354 18.8395 14.6352ZM6.85614 17.0512C6.85722 17.9415 6.14752 18.6699 5.2575 18.692C4.36747 18.7141 3.62251 18.0218 3.57942 17.1325C3.53634 16.2433 4.21087 15.4822 5.09886 15.4181C5.98685 15.3541 6.76365 16.0104 6.84865 16.8967C6.85343 16.9475 6.85614 16.9991 6.85614 17.0512ZM10.3824 5.36711C10.3825 4.65819 10.8464 4.03279 11.5248 3.82693C12.2032 3.62106 12.9364 3.88319 13.3305 4.47249C13.7246 5.06178 13.6868 5.83951 13.2374 6.38784C12.7881 6.93616 12.0329 7.12601 11.3777 6.85538C10.7753 6.60642 10.3824 6.01891 10.3824 5.36711ZM18.8445 18.6364C18.0525 18.6368 17.3761 18.0652 17.2445 17.2842C17.113 16.5032 17.5648 15.7415 18.3132 15.4825C19.0616 15.2235 19.8876 15.543 20.267 16.2382C20.6463 16.9334 20.468 17.8009 19.8451 18.2901C19.5598 18.5143 19.2074 18.6363 18.8445 18.6364Z" fill="currentColor"/>
</svg>
