<svg width="24" height="24" viewBox="0 0 24 24" fill="currentColor" xmlns="http://www.w3.org/2000/svg">
<path fill-rule="evenodd" clip-rule="evenodd" d="M21 19.8H2.99999C2.33725 19.8 1.79999 19.2627 1.79999 18.6V12.6C1.79999 11.9372 2.33725 11.4 2.99999 11.4H5.39999V4.19995H13.8L18.6 8.99995V11.4H21C21.6627 11.4 22.2 11.9252 22.2 12.588V18.6C22.2 19.2627 21.6627 19.8 21 19.8ZM12 18.6C12.3314 18.6 12.6 18.3313 12.6 18C12.6 17.6686 12.3314 17.4 12 17.4C11.6686 17.4 11.4 17.6686 11.4 18C11.4 18.3313 11.6686 18.6 12 18.6ZM6.59999 14.4H17.4V9.59995H14.4C13.7372 9.59995 13.2 9.06269 13.2 8.39995V5.39995H6.59999V14.4ZM7.20179 10.1923L7.20215 11.057C8.93272 11.1212 9.91758 12.3944 9.91981 13.7762H10.7847C10.7829 11.7985 9.17838 10.1932 7.20179 10.1923ZM7.20215 8.39976V9.27478C9.57575 9.27886 11.697 11.4009 11.7011 13.7761H12.5758C12.5748 10.807 10.1696 8.40031 7.20215 8.39976ZM7.20162 12.88C7.44023 12.8766 7.67005 12.97 7.83876 13.1387C8.00748 13.3075 8.10075 13.5373 8.09735 13.776H8.99308C8.98348 12.7945 8.185 11.9839 7.20162 11.9839V12.88C7.2076 12.8798 7.1956 12.88 7.20162 12.88Z" fill="currentColor"/>
</svg>
