<svg width="24" height="24" viewBox="0 0 24 24" fill="currentColor" xmlns="http://www.w3.org/2000/svg">
<path fill-rule="evenodd" clip-rule="evenodd" d="M7.46231 9.67903C7.20631 9.67903 7.00572 9.78682 6.86053 10.0024C6.71589 10.216 6.6399 10.4687 6.64271 10.7267C6.64271 11.0187 6.71118 11.2739 6.84812 11.4923C6.98507 11.7106 7.1898 11.8198 7.46231 11.8198C7.63385 11.8233 7.80204 11.7719 7.94231 11.6731C8.07904 11.5755 8.18676 11.4427 8.254 11.2888C8.32476 11.1309 8.36101 10.9597 8.36033 10.7867C8.36033 10.4657 8.28672 10.2009 8.13952 9.99225C7.99232 9.78363 7.76658 9.67922 7.46231 9.67903ZM12 2.39999C6.36668 2.39999 1.79999 6.02639 1.79999 10.5C1.79999 13.9671 4.54319 16.9254 8.39999 18.081V22.2L12 18.6C17.6333 18.6 22.2 14.9736 22.2 10.5C22.2 6.02639 17.6333 2.39999 12 2.39999ZM8.12704 7.16879C8.24085 7.05009 8.39818 6.98298 8.56264 6.98298C8.72709 6.98298 8.88442 7.05009 8.99824 7.16879C9.116 7.2846 9.18159 7.44334 9.17992 7.6085C9.1778 7.9479 8.90206 8.22193 8.56265 8.22193C8.22324 8.22193 7.9475 7.9479 7.94538 7.6085C7.94366 7.44333 8.00924 7.28458 8.12704 7.16879ZM6.2918 7.16879C6.4045 7.04851 6.56254 6.98109 6.72736 6.98299C6.83683 6.98244 6.94434 7.01209 7.03806 7.06867C7.1325 7.12457 7.21131 7.20338 7.26721 7.29782C7.32378 7.39153 7.35342 7.49903 7.35287 7.6085C7.35478 7.77332 7.28738 7.93138 7.16711 8.0441C7.0513 8.16189 6.89253 8.22747 6.72736 8.22575C6.38715 8.22409 6.11178 7.9487 6.11012 7.6085C6.1084 7.44333 6.174 7.28458 6.2918 7.16879ZM9.63611 12.2161C9.63611 12.4199 9.57796 12.5936 9.46168 12.7374C9.34539 12.8812 9.18952 12.9531 8.99406 12.9531C8.70916 12.9531 8.50892 12.7893 8.39332 12.4618C8.2433 12.6435 8.08952 12.775 7.93199 12.8561C7.77445 12.9373 7.58144 12.9779 7.35294 12.9779C6.90294 12.9779 6.49696 12.8203 6.13499 12.5051C5.64499 12.0689 5.39999 11.4826 5.39999 10.7463C5.39999 10.0665 5.61673 9.5139 6.05022 9.0886C6.42868 8.71017 6.85464 8.52091 7.3281 8.52091C7.5552 8.52091 7.74858 8.55937 7.90823 8.6363C8.06788 8.71323 8.23232 8.83824 8.40157 9.01135C8.5282 8.70778 8.72847 8.55599 9.00239 8.55599C9.17099 8.55428 9.33319 8.6205 9.45242 8.73972C9.57165 8.85894 9.63788 9.02114 9.63621 9.18974L9.63611 12.2161ZM14.219 12.3359C13.8392 12.7639 13.4029 12.9779 12.9102 12.9779C12.6982 12.9779 12.5238 12.929 12.387 12.8313C12.2502 12.7336 12.1817 12.5849 12.1816 12.3854C12.1816 12.2093 12.2468 12.0682 12.3771 11.9622C12.4307 11.9209 12.5597 11.8734 12.7642 11.8198C12.9843 11.7606 13.1534 11.6495 13.2717 11.4864C13.3899 11.3234 13.4491 11.1269 13.4491 10.897C13.4491 10.6988 13.3934 10.5378 13.282 10.414C13.1706 10.2901 13.0152 10.2089 12.8158 10.1703C12.7053 10.1486 12.5959 10.1214 12.4881 10.0887C12.411 10.0609 12.3408 10.0169 12.282 9.95971C12.1821 9.85787 12.1321 9.72231 12.132 9.55303C12.132 9.39338 12.1684 9.27227 12.2411 9.18969C12.3139 9.10711 12.4292 9.04243 12.587 8.99565C12.914 8.90895 13.0775 8.71971 13.0775 8.42793C13.0796 8.32103 13.0502 8.21589 12.993 8.12553C12.9366 8.03811 12.858 7.96723 12.7653 7.92014C12.6708 7.87082 12.5658 7.84528 12.4593 7.84574C12.3626 7.84624 12.2678 7.87188 12.1841 7.92014C12.0994 7.96593 12.0286 8.03367 11.979 8.11624C11.9007 8.25112 11.8616 8.47613 11.8616 8.79127V12.2595C11.8616 12.4549 11.8062 12.6194 11.6954 12.7529C11.5846 12.8863 11.4315 12.9531 11.2361 12.9531C11.0475 12.9531 10.8975 12.886 10.7861 12.7519C10.6746 12.6177 10.6189 12.4536 10.6189 12.2595V8.63239C10.6189 8.03648 10.7991 7.56236 11.1597 7.21003C11.3314 7.04334 11.5356 6.9137 11.7594 6.82915C11.9889 6.74059 12.2328 6.69544 12.4787 6.69599C13.0072 6.69599 13.4407 6.85359 13.7793 7.16879C13.937 7.3153 14.065 7.49089 14.1561 7.68592C14.2472 7.87566 14.2949 8.08337 14.2955 8.29387C14.2955 8.56502 14.2561 8.78729 14.1774 8.96068C14.0987 9.13407 13.9572 9.30335 13.7529 9.4685C14.0305 9.55948 14.2713 9.73759 14.4395 9.97636C14.6421 10.2626 14.7434 10.5894 14.7434 10.957C14.7496 11.4664 14.5621 11.9592 14.219 12.3359ZM18.5635 12.6176C18.3881 12.734 18.1517 12.843 17.8544 12.9448L17.1112 13.8986C16.9997 14.0569 16.8841 14.136 16.7644 14.136C16.6552 14.1364 16.5505 14.0925 16.4744 14.0142C16.3949 13.9417 16.3495 13.8391 16.3494 13.7314C16.3494 13.6433 16.3831 13.5559 16.4506 13.4693L16.882 12.9015C16.6564 12.8658 16.4655 12.8056 16.3092 12.7209C16.153 12.6362 15.9971 12.5079 15.8416 12.3359C15.4645 11.9257 15.276 11.3897 15.276 10.7277C15.2749 10.4184 15.3295 10.1115 15.437 9.82147C15.5372 9.54298 15.7054 9.29391 15.9262 9.09686C16.124 8.91823 16.3523 8.77664 16.6003 8.67883C16.8434 8.58063 17.103 8.52983 17.3652 8.52912C17.7024 8.52721 18.0372 8.58695 18.3529 8.70542C18.6633 8.82292 18.8185 9.0232 18.8185 9.30626C18.8208 9.45611 18.7712 9.60214 18.6781 9.71959C18.5891 9.83629 18.4491 9.9027 18.3024 9.89783C18.2226 9.89372 18.0822 9.85452 17.8813 9.78023C17.7307 9.71724 17.5697 9.68293 17.4065 9.67907C17.1862 9.67907 16.9832 9.77206 16.7975 9.95803C16.6117 10.1523 16.5188 10.4175 16.5188 10.7536C16.5159 10.9435 16.5543 11.1317 16.6313 11.3053C16.7016 11.4638 16.8177 11.5977 16.9647 11.6897C17.112 11.782 17.2874 11.8281 17.4911 11.8281C17.6219 11.8281 17.7767 11.7854 17.9556 11.7001C18.1372 11.6327 18.2501 11.5989 18.2942 11.5989C18.4342 11.5952 18.5701 11.6463 18.673 11.7414C18.7738 11.8324 18.8299 11.9628 18.8268 12.0985C18.8267 12.3284 18.739 12.5014 18.5635 12.6176Z" fill="currentColor"/>
</svg>
