<svg width="24" height="24" viewBox="0 0 24 24" fill="currentColor" xmlns="http://www.w3.org/2000/svg">
<path fill-rule="evenodd" clip-rule="evenodd" d="M11.726 5.79837H14.4589C14.8554 6.63417 15.7781 7.08358 16.6806 6.88039C17.5831 6.6772 18.2242 5.87568 18.2242 4.95062C18.2242 4.02556 17.5831 3.22403 16.6806 3.02084C15.7781 2.81765 14.8554 3.26707 14.4589 4.10286H11.726C11.2578 4.10286 10.8783 4.48242 10.8783 4.95062C10.8783 5.41882 11.2578 5.79837 11.726 5.79837ZM16.2457 4.10286C16.5886 4.10274 16.8978 4.30921 17.0291 4.62598C17.1605 4.94275 17.088 5.30744 16.8456 5.54996C16.6031 5.79248 16.2385 5.86507 15.9217 5.73387C15.6048 5.60267 15.3983 5.29353 15.3983 4.95062C15.3982 4.7258 15.4874 4.51017 15.6464 4.35116C15.8053 4.19215 16.0209 4.10291 16.2457 4.10286ZM5.31038 9.45863C5.71639 9.69042 6.23338 9.55069 6.46735 9.14594L7.82892 6.77555C8.75116 6.84853 9.6008 6.27256 9.87451 5.38886C10.1482 4.50515 9.77287 3.54977 8.97084 3.08869C8.1688 2.62762 7.15432 2.78402 6.52838 3.46523C5.90245 4.14644 5.83226 5.17051 6.3594 5.93075L4.99783 8.30114C4.76606 8.70728 4.90568 9.22436 5.31038 9.45863ZM7.24958 4.381C7.48289 3.97529 8.0009 3.83549 8.40665 4.06873C8.8124 4.30196 8.95229 4.81994 8.71912 5.22574C8.48595 5.63153 7.96799 5.7715 7.56216 5.5384C7.36713 5.42647 7.2246 5.24158 7.16597 5.02449C7.10734 4.80739 7.13741 4.5759 7.24958 4.381ZM6.47623 16.5214C6.87926 16.2843 7.0153 15.7664 6.78079 15.3618L5.40293 13.0009C5.92427 12.2374 5.84691 11.2146 5.21666 10.5383C4.58641 9.86192 3.57159 9.71266 2.77329 10.1789C1.97499 10.6451 1.6064 11.6024 1.88585 12.4836C2.16529 13.3648 3.01814 13.9347 3.93924 13.8557L5.3171 16.2168C5.5539 16.6199 6.07185 16.756 6.47623 16.5214ZM3.03838 12.3121C2.80246 11.9078 2.93893 11.3889 3.34319 11.1529C3.74744 10.917 4.26641 11.0535 4.50234 11.4577C4.73827 11.862 4.60182 12.381 4.19758 12.6169C3.79327 12.8526 3.27446 12.7162 3.03838 12.3121ZM12.27 18.2011L9.53712 18.21C9.13797 17.3754 8.21374 16.929 7.31192 17.1351C6.4101 17.3412 5.77155 18.1448 5.77452 19.0699C5.77752 19.9949 6.42124 20.7944 7.32437 20.9947C8.22751 21.1949 9.14884 20.7425 9.54259 19.9054L12.2754 19.8966C12.7436 19.8951 13.122 19.5144 13.1204 19.0462C13.1189 18.578 12.7382 18.1996 12.27 18.2011ZM7.75577 19.9112C7.41287 19.9124 7.10302 19.7069 6.97071 19.3906C6.83841 19.0742 6.90971 18.7093 7.15136 18.466C7.39302 18.2228 7.75743 18.149 8.07466 18.2792C8.39189 18.4094 8.59946 18.7178 8.60057 19.0607C8.60133 19.2856 8.51276 19.5015 8.35432 19.661C8.19589 19.8205 7.98058 19.9105 7.75577 19.9112ZM21.9144 11.1279C21.5301 10.4676 20.7998 10.0879 20.0386 10.1524L18.663 7.79008C18.5106 7.52845 18.2301 7.36802 17.9273 7.36923C17.6245 7.37045 17.3453 7.53312 17.195 7.79597C17.0446 8.05882 17.0459 8.38191 17.1984 8.64354L18.574 11.0058C18.02 11.8143 18.1417 12.9065 18.86 13.5732C19.5783 14.24 20.6766 14.2801 21.4417 13.6676C22.2067 13.0551 22.4078 11.9746 21.9144 11.1279ZM20.6324 12.8561C20.2279 13.0917 19.7089 12.9549 19.4733 12.5504C19.2376 12.1459 19.3744 11.6269 19.7789 11.3913C20.1834 11.1556 20.7024 11.2924 20.9381 11.6969C21.0514 11.8911 21.0828 12.1224 21.0254 12.3399C20.9681 12.5573 20.8267 12.743 20.6324 12.8561ZM18.6809 14.5008C18.2735 14.2715 17.7573 14.4144 17.5259 14.8205L16.1789 17.1993C15.2562 17.132 14.4101 17.7132 14.1419 18.5986C13.8736 19.484 14.2549 20.437 15.0597 20.8931C15.8646 21.3492 16.8781 21.1866 17.4998 20.5015C18.1215 19.8164 18.1854 18.792 17.6536 18.035L19.0006 15.6562C19.2298 15.2487 19.087 14.7325 18.6809 14.5008ZM16.7729 19.5902C16.5421 19.9973 16.0249 20.1403 15.6178 19.9096C15.2106 19.6788 15.0675 19.1617 15.2982 18.7545C15.5289 18.3473 16.046 18.2041 16.4532 18.4348C16.6489 18.5455 16.7926 18.7295 16.8526 18.9462C16.9125 19.163 16.8839 19.3946 16.7729 19.5902ZM13.7294 12.0129H12.9C12.9 12.0066 12.9005 12.0004 12.9005 11.994C12.8976 11.5058 12.5002 11.1121 12.012 11.1138V10.2922C12.9606 10.2922 13.7297 11.0541 13.7297 11.994C13.7297 12.0003 13.7295 12.0066 13.7294 12.0129ZM15.2695 12.0129H14.4402C14.4402 12.0066 14.4405 12.0003 14.4405 11.994C14.4417 11.3544 14.1854 10.7411 13.7292 10.2927C13.273 9.83926 12.6552 9.58574 12.012 9.58797V8.76638C13.8112 8.76638 15.2698 10.2115 15.2698 11.994C15.2698 12.0003 15.2695 12.0066 15.2695 12.0129ZM16.8097 12.0129H15.9803C15.9803 12.0066 15.9805 12.0003 15.9805 11.994C15.9816 11.4681 15.8756 10.9475 15.669 10.4638C15.4692 9.99585 15.1802 9.57126 14.8182 9.21378C14.0719 8.4738 13.0629 8.0597 12.012 8.06217V7.24058C14.6617 7.24058 16.8098 9.36878 16.8098 11.994C16.8098 12.0003 16.8098 12.0066 16.8097 12.0129ZM10.2944 12.0675H11.124C11.124 12.0738 11.1235 12.08 11.1235 12.0864C11.1263 12.5746 11.5238 12.9683 12.012 12.9666V13.7882C11.0633 13.7882 10.2942 13.0263 10.2942 12.0864C10.2942 12.0801 10.2944 12.0738 10.2944 12.0675ZM8.75438 12.0675H9.58363C9.58363 12.0738 9.58339 12.0801 9.58339 12.0864C9.58214 12.726 9.83853 13.3393 10.2947 13.7877C10.751 14.2412 11.3687 14.4947 12.012 14.4924V15.314C10.2127 15.314 8.75417 13.8689 8.75417 12.0864C8.75417 12.0801 8.75436 12.0738 8.75438 12.0675ZM7.21421 12.0675H8.0436C8.0436 12.0738 8.04336 12.0801 8.04336 12.0864C8.04229 12.6123 8.14828 13.1329 8.35488 13.6166C8.55464 14.0845 8.84364 14.5091 9.20573 14.8666C9.95198 15.6066 10.9611 16.0207 12.012 16.0182V16.8398C9.36218 16.8398 7.21411 14.7116 7.21411 12.0864C7.21411 12.0801 7.21418 12.0738 7.21421 12.0675Z" fill="currentColor"/>
</svg>
