<svg width="24" height="24" viewBox="0 0 24 24" fill="currentColor" xmlns="http://www.w3.org/2000/svg">
<path fill-rule="evenodd" clip-rule="evenodd" d="M19.224 4.17598H16.824V3.26398C16.824 2.76694 16.4211 2.37598 15.924 2.37598C15.427 2.37598 15.024 2.77892 15.024 3.27598V4.17598H8.42428L8.42401 3.27598C8.42401 2.77892 8.02107 2.37598 7.52401 2.37598C7.02696 2.37598 6.62401 2.77892 6.62401 3.27598V4.17598H2.42401V19.176C2.42401 20.1701 3.2299 20.976 4.22401 20.976H21.024V5.97598C21.024 4.98186 20.2181 4.17598 19.224 4.17598ZM19.824 19.776H4.52401C4.02696 19.776 3.62401 19.373 3.62401 18.876V9.57598H18.924C19.4211 9.57598 19.824 9.97892 19.824 10.476V19.776ZM6.02401 6.27598C6.02363 5.80375 6.246 5.35901 6.62401 5.07598V6.27598C6.62401 6.77303 7.02695 7.17598 7.52401 7.17598C8.02107 7.17598 8.42401 6.77303 8.42401 6.27598V5.97598L8.42428 5.07614C8.98846 5.49948 9.18148 6.25869 8.888 6.90008C8.59451 7.54147 7.89381 7.89173 7.20463 7.74155C6.51546 7.59137 6.02401 6.98132 6.02401 6.27598ZM14.424 6.27598C14.4236 5.80375 14.646 5.35901 15.024 5.07598V6.27598C15.024 6.77303 15.427 7.17598 15.924 7.17598C16.4211 7.17598 16.824 6.77303 16.824 6.27598L16.8237 5.97598L16.824 5.08798C17.2014 5.36614 17.4241 5.80713 17.424 6.27598C17.424 6.81187 17.1381 7.30707 16.674 7.57501C16.2099 7.84296 15.6381 7.84296 15.174 7.57501C14.7099 7.30707 14.424 6.81187 14.424 6.27598ZM11.7346 18.5768C11.97 18.5768 12.1958 18.4834 12.3622 18.3169C12.5287 18.1505 12.6222 17.9248 12.6223 17.6894H10.847C10.8471 18.1796 11.2445 18.5768 11.7346 18.5768ZM14.8616 17.1316L14.3967 16.3584V14.1578C14.3942 12.9413 13.5757 11.8777 12.4004 11.5638V11.478C12.3982 11.1119 12.1007 10.8163 11.7346 10.8163C11.3685 10.8163 11.0711 11.1119 11.0689 11.478V11.562C9.89355 11.8658 9.07247 12.9261 9.07261 14.1401V16.3584L8.60764 17.1316C8.56649 17.2001 8.56541 17.2855 8.6048 17.3551C8.64419 17.4246 8.71797 17.4676 8.79791 17.4676H14.6714C14.7513 17.4676 14.825 17.4246 14.8644 17.3551C14.9038 17.2855 14.9027 17.2002 14.8616 17.1316Z" fill="currentColor"/>
</svg>
