<svg width="24" height="24" viewBox="0 0 24 24" fill="currentColor" xmlns="http://www.w3.org/2000/svg">
<path fill-rule="evenodd" clip-rule="evenodd" d="M20.4569 3.97356C18.1272 1.64556 14.359 1.632 12.012 3.93202C9.66498 1.632 5.89679 1.64556 3.56706 3.97356C1.26152 6.27742 1.22399 9.98928 3.45428 12.3391L12.012 21.768L20.5698 12.3391C22.8 9.98928 22.7624 6.27742 20.4569 3.97356ZM17.6177 11.1178H16.5357C16.4969 11.1179 16.4598 11.1025 16.4324 11.0752C16.405 11.0478 16.3896 11.0107 16.3895 10.972V9.32062C16.3895 9.31488 16.3892 9.30922 16.3891 9.30356C16.3945 9.158 16.339 9.01676 16.236 8.91382L15.0893 7.76967C14.9806 7.66149 14.8301 7.60614 14.6771 7.61811C14.6641 7.61712 14.6509 7.61648 14.6376 7.61648H12.7051C12.7023 7.61648 12.6997 7.61664 12.6969 7.61667C12.6912 7.61667 12.6855 7.61684 12.6798 7.61712C12.6741 7.61741 12.6691 7.61784 12.6637 7.61825C12.6605 7.61852 12.6573 7.61868 12.6541 7.619C12.6489 7.6195 12.6438 7.62017 12.6387 7.62082C12.6351 7.62128 12.6316 7.62166 12.6281 7.62216C12.6239 7.62281 12.6196 7.62358 12.6154 7.6243C12.6112 7.62502 12.6063 7.62586 12.6017 7.6267C12.5989 7.62725 12.5961 7.62792 12.5932 7.62852C12.5871 7.62984 12.581 7.63124 12.5749 7.63277L12.5719 7.63359C12.4817 7.65685 12.3994 7.70381 12.3335 7.7696L11.0929 9.00749C10.8882 9.21276 10.8882 9.54497 11.0929 9.75024C11.299 9.9545 11.6312 9.9545 11.8373 9.75024L12.859 8.73077C12.9001 8.6898 12.9557 8.6668 13.0137 8.66681H14.2416L12.1788 10.7251C12.1716 10.7323 12.1648 10.7395 12.1581 10.747C12.1507 10.7537 12.1433 10.7605 12.1362 10.7676L10.8116 12.0893C10.761 12.1398 10.6924 12.1682 10.6208 12.1681H8.49445C8.20435 12.1686 7.96911 12.4033 7.96799 12.6934C7.96915 12.9835 8.2043 13.2181 8.49433 13.2186H10.9506C10.9534 13.2186 10.9562 13.2185 10.9591 13.2184C10.9647 13.2184 10.9703 13.2183 10.9759 13.218C10.9815 13.2177 10.9866 13.2173 10.9919 13.2169C10.9951 13.2166 10.9984 13.2164 11.0015 13.2161C11.0067 13.2156 11.0118 13.2149 11.0169 13.2143C11.0204 13.2138 11.024 13.2134 11.0275 13.2129C11.0318 13.2123 11.036 13.2115 11.0402 13.2108C11.0445 13.21 11.0493 13.2092 11.0539 13.2084C11.0567 13.2078 11.0596 13.2071 11.0624 13.2065C11.0685 13.2052 11.0746 13.2038 11.0807 13.2023L11.0837 13.2014C11.1739 13.1782 11.2562 13.1312 11.3221 13.0655L12.5296 11.8607L13.9636 13.2916C13.9908 13.3187 14.0061 13.3555 14.0061 13.3938C14.0061 13.4321 13.9908 13.4689 13.9636 13.4959L12.705 14.7518C12.5003 14.9571 12.5003 15.2893 12.705 15.4946C12.9111 15.6989 13.2433 15.6989 13.4494 15.4946L15.1615 13.7862C15.1689 13.7796 15.1761 13.7729 15.1831 13.7658C15.3878 13.56 15.3878 13.2276 15.1831 13.0218C15.1759 13.0147 15.1687 13.008 15.1615 13.0015L13.779 11.6219L15.3368 10.0675V11.6431C15.3379 11.9332 15.5731 12.1678 15.8631 12.1683H17.6175C17.9076 12.1679 18.1429 11.9332 18.144 11.643C18.1428 11.353 17.9077 11.1184 17.6177 11.1178ZM16.7204 8.31656C17.1487 8.32377 17.5384 8.07026 17.7054 7.67587C17.8724 7.28148 17.7832 6.82519 17.48 6.52269C17.1768 6.22019 16.7203 6.13207 16.3263 6.29998C15.9323 6.46788 15.6797 6.85819 15.6879 7.2864C15.6993 7.85146 16.1553 8.30643 16.7204 8.31656ZM7.09199 7.584H10.692C10.8577 7.584 10.992 7.71832 10.992 7.884C10.992 8.04969 10.8577 8.184 10.692 8.184H7.09199C6.9263 8.184 6.79199 8.04969 6.79199 7.884C6.79199 7.71832 6.9263 7.584 7.09199 7.584ZM5.29199 9.984H8.89199C9.05767 9.984 9.19199 10.1183 9.19199 10.284C9.19199 10.4497 9.05767 10.584 8.89199 10.584H5.29199C5.1263 10.584 4.99199 10.4497 4.99199 10.284C4.99199 10.1183 5.1263 9.984 5.29199 9.984Z" fill="currentColor"/>
</svg>
