<svg width="24" height="24" viewBox="0 0 24 24" fill="currentColor" xmlns="http://www.w3.org/2000/svg">
<path fill-rule="evenodd" clip-rule="evenodd" d="M18 7.40005H6.59999V6.56006C6.59999 6.22868 6.33136 5.96006 5.99999 5.96006H4.19999C3.86862 5.96006 3.59999 6.22868 3.59999 6.56006V7.40005H1.79999V17.6001C1.79999 18.2628 2.33725 18.8001 2.99999 18.8001H19.2V8.60006C19.2 7.93731 18.6627 7.40005 18 7.40005ZM6.59999 10.0401C6.59999 10.3714 6.33136 10.6401 5.99999 10.6401H4.19999C3.86862 10.6401 3.59999 10.3714 3.59999 10.0401V9.56006C3.59999 9.22868 3.86862 8.96006 4.19999 8.96006H5.99999C6.33136 8.96006 6.59999 9.22868 6.59999 9.56006V10.0401ZM11.7 17.0001C9.54608 17.0001 7.79999 15.254 7.79999 13.1001C7.79999 10.9461 9.54608 9.20006 11.7 9.20006C13.8539 9.20006 15.6 10.9461 15.6 13.1001C15.6 14.1344 15.1891 15.1264 14.4577 15.8578C13.7263 16.5892 12.7343 17.0001 11.7 17.0001ZM18 6.20005V6.80006C18.9941 6.80006 19.8 7.60594 19.8 8.60006H20.4C20.3985 7.27519 19.3249 6.20155 18 6.20005ZM18 5.00006V5.60006C19.6568 5.60006 21 6.9432 21 8.60006H21.6C21.6 6.61183 19.9882 5.00006 18 5.00006ZM21.3941 5.20595C20.4948 4.30453 19.2733 3.79859 18 3.80005V4.40006C20.3196 4.40006 22.2 6.28046 22.2 8.60006H22.8C22.8015 7.32673 22.2955 6.10529 21.3941 5.20595Z" fill="currentColor"/>
</svg>
