<svg width="24" height="24" viewBox="0 0 24 24" fill="currentColor" xmlns="http://www.w3.org/2000/svg">
<path fill-rule="evenodd" clip-rule="evenodd" d="M21.8675 20.0725L19.3125 16.0984C18.5373 14.8921 16.774 14.8921 15.9988 16.0984L15.3378 17.1265L13.9552 15.8387C14.0773 15.5176 14.0092 15.1405 13.7505 14.8818L12.2471 13.3784V9.57469C12.2471 9.33613 12.1523 9.10717 11.9833 8.93845L7.78333 4.73845C7.43197 4.38685 6.86221 4.38685 6.51061 4.73845L3.51421 7.73485C3.16285 8.08621 3.16285 8.65621 3.51421 9.00757C3.86581 9.35917 4.43557 9.35917 4.78693 9.00757L5.16253 8.63197L6.67093 10.0374L4.82125 11.8871C4.62613 12.0522 4.50205 12.2989 4.50205 12.5747V16.4089L2.37277 18.5382C2.02141 18.8896 2.02141 19.4596 2.37277 19.8109C2.54869 19.9866 2.77885 20.0744 3.00925 20.0744C3.23965 20.0744 3.47005 19.9866 3.64573 19.8109L6.03853 17.4181C6.20725 17.2494 6.30205 17.0204 6.30205 16.7816V13.6331L9.24181 16.5726V19.1744C9.24181 19.6717 9.64453 20.0744 10.1418 20.0744C10.6389 20.0744 11.0418 19.6717 11.0418 19.1744V16.1999C11.0418 15.9611 10.9468 15.7324 10.7781 15.5634L8.43517 13.2205L9.23221 12.4232L10.4471 13.5548V13.7512C10.4471 13.9897 10.5419 14.2187 10.7106 14.3874L12.4777 16.1545C12.6534 16.3302 12.8838 16.418 13.114 16.418C13.2285 16.418 13.3429 16.3964 13.4507 16.3528L14.9421 17.7421L13.444 20.0725H21.8675ZM7.18045 9.52789L5.67205 8.12269L7.14709 6.64765L8.60389 8.10445L7.18045 9.52789ZM10.4471 11.2084V12.5708L9.74173 11.9137L10.4471 11.2084ZM12.8706 3.93349C13.8652 3.93373 14.6713 4.73989 14.6713 5.73445L14.6654 5.88214C14.5902 6.80761 13.8152 7.53517 12.8704 7.53517C11.8758 7.53517 11.0697 6.72877 11.0699 5.73421C11.0699 4.73965 11.8761 3.93349 12.8706 3.93349Z" fill="currentColor"/>
</svg>
