<svg width="24" height="24" viewBox="0 0 24 24" fill="currentColor" xmlns="http://www.w3.org/2000/svg">
<path fill-rule="evenodd" clip-rule="evenodd" d="M16.8228 1.80005H7.20118C6.53814 1.7998 6.0004 2.33701 6 3.00005V21C6.0004 21.6631 6.53815 22.2003 7.2012 22.2001H16.8228C17.4858 22.2003 18.0236 21.6631 18.024 21V3.00005C18.0236 2.33699 17.4858 1.79977 16.8228 1.80005ZM11.1171 2.40005H12.9189C13.0846 2.40005 13.2189 2.53436 13.2189 2.70005C13.2189 2.86573 13.0846 3.00005 12.9189 3.00005H11.1171C10.9514 3.00005 10.8171 2.86573 10.8171 2.70005C10.8171 2.53436 10.9514 2.40005 11.1171 2.40005ZM12.018 21.6C11.6867 21.5997 11.4184 21.3309 11.4186 20.9996C11.4188 20.6684 11.6875 20.3999 12.0188 20.4C12.3501 20.4002 12.6186 20.6688 12.6186 21C12.6185 21.1593 12.5552 21.3119 12.4426 21.4245C12.3299 21.537 12.1772 21.6002 12.018 21.6ZM16.8228 19.8H7.2132V3.60005H16.8228V19.8ZM10.0961 6.36005V7.08005C10.096 7.23927 10.0327 7.39194 9.92009 7.50446C9.80745 7.61699 9.65472 7.68015 9.4955 7.68005H8.77478C8.61557 7.68015 8.46283 7.61699 8.35019 7.50446C8.23756 7.39194 8.17424 7.23927 8.17418 7.08005V6.36005C8.17424 6.20083 8.23756 6.04816 8.35019 5.93564C8.46283 5.82311 8.61557 5.75995 8.77478 5.76005H9.4955C9.65472 5.75995 9.80745 5.82311 9.92009 5.93564C10.0327 6.04816 10.096 6.20083 10.0961 6.36005ZM12.979 6.36005V7.08005C12.9789 7.23927 12.9156 7.39194 12.8029 7.50446C12.6903 7.61699 12.5376 7.68015 12.3784 7.68005H11.6576C11.4984 7.68015 11.3457 7.61699 11.2331 7.50446C11.1204 7.39194 11.0571 7.23927 11.057 7.08005V6.36005C11.0571 6.20083 11.1204 6.04816 11.2331 5.93564C11.3457 5.82311 11.4984 5.75995 11.6576 5.76005H12.3784C12.5376 5.75995 12.6903 5.82311 12.8029 5.93564C12.9156 6.04816 12.9789 6.20083 12.979 6.36005ZM15.8618 6.36005V7.08005C15.8618 7.23926 15.7985 7.39193 15.6858 7.50446C15.5732 7.61699 15.4205 7.68015 15.2612 7.68005H14.5405C14.3813 7.68015 14.2286 7.61699 14.1159 7.50446C14.0033 7.39194 13.94 7.23927 13.9399 7.08005V6.36005C13.94 6.20083 14.0033 6.04816 14.1159 5.93564C14.2286 5.82311 14.3813 5.75995 14.5405 5.76005H15.2612C15.4205 5.75995 15.5732 5.82311 15.6858 5.93564C15.7985 6.04816 15.8618 6.20084 15.8618 6.36005ZM10.0961 9.60005V10.32C10.096 10.4793 10.0327 10.6319 9.92009 10.7445C9.80745 10.857 9.65472 10.9202 9.4955 10.92H8.77478C8.61557 10.9202 8.46283 10.857 8.35019 10.7445C8.23756 10.6319 8.17424 10.4793 8.17418 10.32V9.60005C8.17424 9.44083 8.23756 9.28816 8.35019 9.17564C8.46283 9.06311 8.61557 8.99995 8.77478 9.00005H9.4955C9.65472 8.99995 9.80745 9.06311 9.92009 9.17564C10.0327 9.28816 10.096 9.44083 10.0961 9.60005ZM12.979 9.60005V10.32C12.9789 10.4793 12.9156 10.6319 12.8029 10.7445C12.6903 10.857 12.5376 10.9202 12.3784 10.92H11.6576C11.4984 10.9202 11.3457 10.857 11.2331 10.7445C11.1204 10.6319 11.0571 10.4793 11.057 10.32V9.60005C11.0571 9.44083 11.1204 9.28816 11.2331 9.17564C11.3457 9.06311 11.4984 8.99995 11.6576 9.00005H12.3784C12.5376 8.99995 12.6903 9.06311 12.8029 9.17564C12.9156 9.28816 12.9789 9.44083 12.979 9.60005ZM15.8618 9.60005V10.32C15.8618 10.4793 15.7985 10.6319 15.6858 10.7445C15.5732 10.857 15.4205 10.9202 15.2612 10.92H14.5405C14.3813 10.9202 14.2286 10.857 14.1159 10.7445C14.0033 10.6319 13.94 10.4793 13.9399 10.32V9.60005C13.94 9.44083 14.0033 9.28816 14.1159 9.17564C14.2286 9.06311 14.3813 8.99995 14.5405 9.00005H15.2612C15.4205 8.99995 15.5732 9.06311 15.6858 9.17564C15.7985 9.28817 15.8618 9.44084 15.8618 9.60005ZM10.0961 12.84V13.56C10.096 13.7193 10.0327 13.8719 9.92009 13.9845C9.80745 14.097 9.65472 14.1602 9.4955 14.16H8.77478C8.61557 14.1602 8.46283 14.097 8.35019 13.9845C8.23756 13.8719 8.17424 13.7193 8.17418 13.56V12.84C8.17424 12.6808 8.23756 12.5282 8.35019 12.4156C8.46283 12.3031 8.61557 12.2399 8.77478 12.24H9.4955C9.65472 12.2399 9.80745 12.3031 9.92009 12.4156C10.0327 12.5282 10.096 12.6808 10.0961 12.84ZM12.979 12.84V13.56C12.9789 13.7193 12.9156 13.8719 12.8029 13.9845C12.6903 14.097 12.5376 14.1602 12.3784 14.16H11.6576C11.4984 14.1602 11.3457 14.097 11.2331 13.9845C11.1204 13.8719 11.0571 13.7193 11.057 13.56V12.84C11.0571 12.6808 11.1204 12.5282 11.2331 12.4156C11.3457 12.3031 11.4984 12.2399 11.6576 12.24H12.3784C12.5376 12.2399 12.6903 12.3031 12.8029 12.4156C12.9156 12.5282 12.9789 12.6808 12.979 12.84ZM15.8618 12.84V13.56C15.8618 13.7193 15.7985 13.8719 15.6858 13.9845C15.5732 14.097 15.4205 14.1602 15.2612 14.16H14.5405C14.3813 14.1602 14.2286 14.097 14.1159 13.9845C14.0033 13.8719 13.94 13.7193 13.9399 13.56V12.84C13.94 12.6808 14.0033 12.5282 14.1159 12.4156C14.2286 12.3031 14.3813 12.2399 14.5405 12.24H15.2612C15.4205 12.2399 15.5732 12.3031 15.6858 12.4156C15.7985 12.5282 15.8618 12.6808 15.8618 12.84ZM10.0961 16.08V16.8C10.096 16.9593 10.0327 17.1119 9.92009 17.2245C9.80745 17.337 9.65472 17.4002 9.4955 17.4H8.77478C8.61557 17.4002 8.46283 17.337 8.35019 17.2245C8.23756 17.1119 8.17424 16.9593 8.17418 16.8V16.08C8.17424 15.9208 8.23756 15.7682 8.35019 15.6556C8.46283 15.5431 8.61557 15.4799 8.77478 15.48H9.4955C9.65472 15.4799 9.80745 15.5431 9.92009 15.6556C10.0327 15.7682 10.096 15.9208 10.0961 16.08ZM12.979 16.08V16.8C12.9789 16.9593 12.9156 17.1119 12.8029 17.2245C12.6903 17.337 12.5376 17.4002 12.3784 17.4H11.6576C11.4984 17.4002 11.3457 17.337 11.2331 17.2245C11.1204 17.1119 11.0571 16.9593 11.057 16.8V16.08C11.0571 15.9208 11.1204 15.7682 11.2331 15.6556C11.3457 15.5431 11.4984 15.4799 11.6576 15.48H12.3784C12.5376 15.4799 12.6903 15.5431 12.8029 15.6556C12.9156 15.7682 12.9789 15.9208 12.979 16.08ZM15.8618 16.08V16.8C15.8618 16.9593 15.7985 17.1119 15.6858 17.2245C15.5732 17.337 15.4205 17.4002 15.2612 17.4H14.5405C14.3813 17.4002 14.2286 17.337 14.1159 17.2245C14.0033 17.1119 13.94 16.9593 13.9399 16.8V16.08C13.94 15.9208 14.0033 15.7682 14.1159 15.6556C14.2286 15.5431 14.3813 15.4799 14.5405 15.48H15.2612C15.4205 15.4799 15.5732 15.5431 15.6858 15.6556C15.7985 15.7682 15.8618 15.9208 15.8618 16.08Z" fill="currentColor"/>
</svg>
