<svg width="24" height="24" viewBox="0 0 24 24" fill="currentColor" xmlns="http://www.w3.org/2000/svg">
<path fill-rule="evenodd" clip-rule="evenodd" d="M19.2 13.8V19.2H4.79999V13.8H1.79999V19.8C1.79999 21.1255 2.8745 22.2 4.19999 22.2H19.8C21.1255 22.2 22.2 21.1255 22.2 19.8V13.8H19.2ZM15.6 10.8V3.59999C15.6 3.1226 15.4103 2.66476 15.0728 2.3272C14.7352 1.98963 14.2774 1.79999 13.8 1.79999H10.2C9.20587 1.79999 8.39999 2.60588 8.39999 3.59999V10.8H4.79999L8.39999 14.3755L11.0606 17.0179C11.5733 17.5272 12.4266 17.5272 12.9394 17.0179L15.6 14.3755L19.2 10.8H15.6Z" fill="currentColor"/>
</svg>
