<svg width="24" height="24" viewBox="0 0 24 24" fill="currentColor" xmlns="http://www.w3.org/2000/svg">
<path fill-rule="evenodd" clip-rule="evenodd" d="M12.3139 6.0031C12.2175 6.0031 12.1209 6 12.024 6C11.927 6 11.8304 6.0031 11.734 6.0031C7.23199 6.0031 2.67574 9.17623 1.19995 12C2.67574 14.8237 7.18399 17.9969 11.686 17.9969C11.7824 17.9969 11.879 18 11.976 18C12.0729 18 12.1695 17.9969 12.2659 17.9969C16.7679 17.9969 21.3242 14.8237 22.7999 12C21.3242 9.17623 16.8159 6.0031 12.3139 6.0031ZM11.9668 16.32C9.58096 16.32 7.64683 14.3859 7.64683 12C7.64683 9.61413 9.58096 7.68 11.9668 7.68C14.3527 7.68 16.2868 9.61413 16.2868 12C16.2868 13.1457 15.8317 14.2445 15.0215 15.0547C14.2114 15.8649 13.1126 16.32 11.9668 16.32ZM2.89003 12.0009C3.6048 11.0026 4.74763 9.98294 6.08002 9.1733C6.51318 8.90995 6.96128 8.67199 7.42205 8.46062C5.79283 10.5503 5.80056 13.4822 7.44077 15.5632C6.9659 15.3466 6.50463 15.1014 6.0595 14.8288C4.73921 14.0214 3.6037 13.0017 2.89003 12.0009ZM17.92 14.8268C17.4545 15.11 16.9716 15.3637 16.4744 15.5865C18.1535 13.4794 18.1459 10.4893 16.4561 8.39078C16.9674 8.61836 17.4632 8.87905 17.9405 9.17119C19.2608 9.9786 20.3964 10.9985 21.11 11.9993C20.3951 12.9975 19.2525 14.0172 17.92 14.8268ZM14.3503 10.8757C14.224 11.4182 13.7293 11.7938 13.1728 11.7697C12.6163 11.7455 12.1559 11.3284 12.0772 10.777C11.9984 10.2256 12.3235 9.6963 12.851 9.51727C11.668 9.09632 10.3524 9.56906 9.7079 10.6467C9.06341 11.7243 9.26933 13.107 10.1999 13.9501C11.1304 14.7931 12.5267 14.862 13.5356 14.1146C14.5446 13.3672 14.8856 12.0115 14.3503 10.8757Z" fill="currentColor"/>
</svg>
