<svg width="24" height="24" viewBox="0 0 24 24" fill="currentColor" xmlns="http://www.w3.org/2000/svg">
<path fill-rule="evenodd" clip-rule="evenodd" d="M5.72399 10.212H4.49999C4.34112 10.2124 4.21245 10.3411 4.21199 10.5V10.524C4.21245 10.6829 4.34112 10.8115 4.49999 10.812H5.72399C5.88285 10.8115 6.01153 10.6829 6.01199 10.524V10.5C6.01153 10.3411 5.88285 10.2124 5.72399 10.212ZM7.12026 6.05884C7.00759 5.94683 6.82562 5.94683 6.71296 6.05884L6.69599 6.0758C6.58398 6.18847 6.58398 6.37044 6.69599 6.48311L7.34087 7.12799C7.45354 7.23999 7.6355 7.23999 7.74817 7.12799L7.76514 7.11102C7.87714 6.99835 7.87714 6.81638 7.76514 6.70372L7.12026 6.05884ZM17.3296 6.07741C17.2169 5.96541 17.035 5.96541 16.9223 6.07741L16.2774 6.72229C16.1654 6.83496 16.1654 7.01693 16.2774 7.1296L16.2944 7.14656C16.407 7.25857 16.589 7.25857 16.7017 7.14656L17.3466 6.50168C17.4586 6.38902 17.4586 6.20705 17.3466 6.09438L17.3296 6.07741ZM11.988 5.41199H12.012C12.1709 5.41153 12.2995 5.28285 12.3 5.12399V3.89999C12.2995 3.74112 12.1709 3.61245 12.012 3.61199H11.988C11.8291 3.61245 11.7004 3.74112 11.7 3.89999V5.12399C11.7004 5.28285 11.8291 5.41153 11.988 5.41199ZM18.012 10.5V10.524C18.0124 10.6829 18.1411 10.8115 18.3 10.812H19.524C19.6829 10.8115 19.8115 10.6829 19.812 10.524V10.5C19.8115 10.3411 19.6829 10.2124 19.524 10.212H18.3C18.1411 10.2124 18.0124 10.3411 18.012 10.5ZM11.3557 9.27164C10.9519 9.56749 10.7776 10.0852 10.9202 10.565C11.0628 11.0448 11.4916 11.3832 11.9914 11.4105C12.4912 11.4378 12.9542 11.148 13.1482 10.6866L15.4349 5.9055L11.3557 9.27164ZM12 1.79999C6.36668 1.79999 1.79999 6.36668 1.79999 12C1.79999 12.004 1.79999 12.008 1.79999 12.012C1.80656 17.6398 6.37069 22.2 12 22.2C17.6293 22.2 22.1934 17.6398 22.2 12.012C22.2 12.008 22.2 12.004 22.2 12C22.2 6.36668 17.6333 1.79999 12 1.79999ZM14.2334 17.4464C14.0913 18.5124 13.409 18.8251 13.0821 19.0383C12.7551 19.2515 11.926 19.5927 11.9545 20.2465C11.983 20.9003 11.2785 19.4645 11.9477 18.5925C12.5607 17.7935 12.3856 17.4064 12.2577 17.1763C12.2577 17.1763 12.2027 17.6142 11.566 17.9344C11.0212 18.2084 10.9568 18.766 11.0921 19.152C11.1785 19.3983 10.6089 18.9578 10.4384 18.645C10.2612 18.3314 10.1851 17.9708 10.2204 17.6123C10.321 16.5531 11.2467 16.2676 11.1689 15.7811C11.1661 15.7635 11.1464 15.6611 11.1464 15.6611C11.4105 15.9289 11.4996 16.3234 11.3764 16.6787C11.3538 16.7475 11.9734 16.5081 11.7745 15.9964C11.5755 15.4846 11.3622 14.6179 12.1866 14.0352C12.1866 14.0352 12.1155 14.3478 12.4282 14.7458C12.741 15.1438 13.2811 15.774 13.3238 16.2098C13.3664 16.6466 13.3225 17.1122 13.0821 17.4749C13.0726 17.489 13.4992 17.2806 13.5938 16.8352C13.6856 16.4034 13.6507 15.9112 13.5653 15.7692C13.4799 15.6271 14.3756 16.3803 14.2334 17.4464ZM3.64223 12.012C3.47347 12.0121 3.31227 11.9421 3.19715 11.8187C3.08203 11.6953 3.02336 11.5296 3.03515 11.3613C3.3686 6.69445 7.26025 3.01199 12.012 3.01199C16.7637 3.01199 20.6554 6.69445 20.9888 11.3613C21.0006 11.5296 20.9419 11.6953 20.8268 11.8187C20.7117 11.9421 20.5505 12.0121 20.3817 12.012H3.64223Z" fill="currentColor"/>
</svg>
