<svg width="24" height="24" viewBox="0 0 24 24" fill="currentColor" xmlns="http://www.w3.org/2000/svg">
<path fill-rule="evenodd" clip-rule="evenodd" d="M20.9958 4.19006H2.99578C2.33578 4.19006 1.79578 4.74206 1.79578 5.40206V16.8021C1.79578 17.4621 2.33578 17.9901 2.99578 17.9901H4.79578V19.7901H19.1958V17.9901H20.9958C21.6558 17.9901 22.1958 17.4621 22.1958 16.8021V5.40206C22.1958 4.74206 21.6558 4.19006 20.9958 4.19006ZM11.9958 18.8901C11.6644 18.8901 11.3958 18.6214 11.3958 18.2901C11.3958 17.9587 11.6644 17.6901 11.9958 17.6901C12.3271 17.6901 12.5958 17.9587 12.5958 18.2901C12.5958 18.6214 12.3271 18.8901 11.9958 18.8901ZM20.9958 5.39006V16.7901H2.99578V5.39006H20.9958ZM11.9808 8.28372C10.8513 8.28372 10.0171 9.11054 10.0171 10.1588C10.0171 11.089 10.6815 11.8199 11.5526 11.8199C11.6812 11.8142 11.8093 11.8019 11.9365 11.7829C11.3902 12.5802 10.8439 12.9125 10.8439 13.2889C10.8439 13.5841 11.1171 13.85 11.4198 13.85C11.7224 13.85 12.0694 13.4957 12.5936 12.846C13.413 11.8272 13.819 10.9192 13.819 10.1736C13.819 9.05885 13.0513 8.28372 11.9808 8.28372ZM16.233 8.29109C14.9263 8.29109 14.0478 9.32462 14.0478 11.0669C14.0478 12.8091 14.9262 13.8426 16.233 13.8426C17.5397 13.8426 18.4255 12.8091 18.4255 11.0669C18.4255 9.32462 17.5398 8.29109 16.233 8.29109ZM8.03429 9.59006H7.58126C7.52119 9.59006 7.46358 9.61393 7.4211 9.65641C7.37863 9.69889 7.35477 9.7565 7.35478 9.81658V10.9491H6.22229C6.16222 10.9491 6.1046 10.9729 6.06212 11.0154C6.01964 11.0579 5.99578 11.1155 5.99578 11.1756V11.6286C5.99578 11.6886 6.01964 11.7463 6.06212 11.7887C6.1046 11.8312 6.16222 11.8551 6.22229 11.8551H7.35478V12.9876C7.35478 13.1127 7.45618 13.2141 7.58126 13.2141H8.03429C8.15937 13.2141 8.26078 13.1127 8.26078 12.9876V11.8551H9.39329C9.51837 11.8551 9.61978 11.7537 9.61978 11.6286V11.1756C9.61978 11.0505 9.51837 10.9491 9.39329 10.9491H8.26078V9.81658C8.26078 9.7565 8.23692 9.69889 8.19445 9.65641C8.15197 9.61393 8.09436 9.59006 8.03429 9.59006ZM16.2404 9.39106C16.8014 9.39106 17.1853 9.98165 17.1853 11.0595C17.1853 12.1373 16.8088 12.7353 16.2403 12.7353C15.6719 12.7353 15.2954 12.1373 15.2954 11.0595C15.2954 9.98167 15.6793 9.39106 16.2404 9.39106ZM11.9291 9.39106C12.2983 9.39106 12.6083 9.7085 12.6083 10.1145C12.6083 10.5206 12.2983 10.838 11.9291 10.838C11.56 10.838 11.2499 10.5279 11.2499 10.1145C11.2499 9.7085 11.56 9.39106 11.9291 9.39106Z" fill="currentColor"/>
</svg>
