<svg width="24" height="24" viewBox="0 0 24 24" fill="currentColor" xmlns="http://www.w3.org/2000/svg">
<path fill-rule="evenodd" clip-rule="evenodd" d="M12 1.79999C6.36664 1.79999 1.79999 6.36668 1.79999 12C1.79999 17.6333 6.36664 22.2 12 22.2C17.6333 22.2 22.2 17.6333 22.2 12C22.2 6.36668 17.6333 1.79999 12 1.79999ZM12.7392 18.1352C12.4967 18.3579 12.1787 18.4803 11.8495 18.4776C11.5144 18.4822 11.1897 18.3617 10.9387 18.1395C10.679 17.9143 10.5492 17.5992 10.5493 17.1943C10.5493 16.835 10.6747 16.5328 10.9256 16.2876C11.1765 16.0424 11.4845 15.9198 11.8496 15.9198C12.209 15.9198 12.5113 16.0424 12.7565 16.2876C13.0017 16.5328 13.1243 16.835 13.1243 17.1943C13.1243 17.5935 12.9959 17.9072 12.7392 18.1352ZM15.9341 10.2141C15.7495 10.5628 15.5129 10.8815 15.2325 11.1592C14.9618 11.4244 14.4757 11.8707 13.774 12.498C13.6102 12.6447 13.4546 12.8004 13.308 12.9643C13.2068 13.0761 13.1192 13.1995 13.0472 13.332C12.9919 13.4385 12.9475 13.5502 12.9145 13.6656C12.8832 13.7769 12.8362 13.9722 12.7734 14.2517C12.6652 14.8448 12.3259 15.1413 11.7555 15.1413C11.4588 15.1413 11.2093 15.0444 11.0068 14.8505C10.8044 14.6566 10.7033 14.3686 10.7033 13.9865C10.7033 13.5073 10.7774 13.0924 10.9256 12.7418C11.0669 12.4017 11.2668 12.0891 11.516 11.818C11.7611 11.5527 12.0919 11.2375 12.5084 10.8724C12.873 10.5532 13.1367 10.3123 13.2995 10.1497C13.461 9.98861 13.5991 9.80579 13.71 9.60649C13.821 9.40792 13.8785 9.18392 13.8769 8.95643C13.8769 8.50016 13.7072 8.1152 13.3678 7.80157C13.0284 7.48794 12.5908 7.33114 12.055 7.33117C11.4276 7.33117 10.9657 7.48944 10.6692 7.80596C10.3727 8.12249 10.1218 8.58867 9.91657 9.20449C9.72246 9.84896 9.35453 10.1712 8.81279 10.1712C8.49336 10.1712 8.2239 10.0586 8.0044 9.83329C7.78489 9.60803 7.67519 9.36424 7.67519 9.10194C7.67519 8.56031 7.8491 8.01146 8.19692 7.4554C8.54475 6.89933 9.05232 6.43884 9.71965 6.07391C10.3869 5.70888 11.1653 5.5264 12.0549 5.5264C12.8814 5.5264 13.6114 5.67895 14.2447 5.98405C14.8775 6.28924 15.3664 6.70408 15.7116 7.2286C16.0567 7.75311 16.2293 8.3234 16.2293 8.93946C16.2293 9.42421 16.1309 9.84908 15.9341 10.2141Z" fill="currentColor"/>
</svg>
