<svg width="24" height="24" viewBox="0 0 24 24" fill="currentColor" xmlns="http://www.w3.org/2000/svg">
<path fill-rule="evenodd" clip-rule="evenodd" d="M16.2 15.5731C11.8922 15.5731 8.40005 12.0794 8.40005 7.76972C8.3977 5.46707 9.41453 3.28143 11.1774 1.79999C5.92877 2.2191 1.80005 6.61287 1.80005 11.9715C1.80005 17.6073 6.36674 22.176 12 22.176C17.3564 22.176 21.7482 18.0454 22.1672 12.7946C20.6871 14.5579 18.5022 15.5752 16.2 15.5731ZM12.36 9.73871L13.44 10.6991L13.08 12.1397L14.4 11.4194L15.72 12.1397L15.36 10.6991L16.44 9.73871L15 9.49871L14.4 8.25018L13.8 9.49847L12.36 9.73871ZM16.59 3.86802L18.0751 5.1886L17.58 7.16946L19.3951 6.17903L21.21 7.16946L20.715 5.1886L22.2001 3.86804L20.22 3.53788L19.3951 1.82113L18.57 3.53788L16.59 3.86802Z" fill="currentColor"/>
</svg>
