<svg width="24" height="24" viewBox="0 0 24 24" fill="currentColor" xmlns="http://www.w3.org/2000/svg">
<path fill-rule="evenodd" clip-rule="evenodd" d="M20.5976 5.45323L16.4619 9.58906C16.2367 9.81432 15.9311 9.94087 15.6126 9.94087C15.294 9.94087 14.9885 9.81432 14.7633 9.58906L13.0332 7.85892C12.7624 7.58807 12.395 7.43591 12.012 7.43591C11.629 7.43591 11.2616 7.58807 10.9908 7.85892L9.26071 9.58906C9.03546 9.81432 8.72995 9.94087 8.41139 9.94087C8.09283 9.94087 7.78732 9.81432 7.56207 9.58906L3.42639 5.45323C2.7252 4.75203 1.536 5.35467 1.68679 6.33478L3.40618 17.511C3.52375 18.2756 4.18163 18.84 4.95521 18.84H19.0688C19.8424 18.84 20.5003 18.2756 20.6178 17.511L22.3372 6.33478C22.488 5.35467 21.2988 4.75203 20.5976 5.45323ZM5.58082 17.6222C5.3734 17.6538 5.17942 17.5119 5.14663 17.3047L3.77811 8.48763C3.74653 8.28021 3.88838 8.08623 4.0956 8.05344C4.30301 8.02186 4.49699 8.16372 4.52976 8.37094L5.89843 17.188C5.93001 17.3954 5.78804 17.5894 5.58082 17.6222ZM7.61736 17.6222C7.40996 17.6538 7.21599 17.5119 7.1832 17.3047L6.17849 10.8316C6.14691 10.6242 6.28876 10.4302 6.49599 10.3974C6.7034 10.3658 6.89738 10.5077 6.93017 10.7149L7.93498 17.188C7.96656 17.3954 7.82454 17.5894 7.61736 17.6222Z" fill="currentColor"/>
</svg>
