<svg width="24" height="24" viewBox="0 0 24 24" fill="currentColor" xmlns="http://www.w3.org/2000/svg">
<path fill-rule="evenodd" clip-rule="evenodd" d="M22.4 7.60013C22.4 6.13105 21.5074 4.80931 20.1447 4.26063C18.7819 3.71194 17.2224 4.0464 16.2045 5.10567C13.7383 3.63162 10.6617 3.63162 8.19551 5.10567C7.16074 4.02944 5.5691 3.70354 4.1946 4.28645C2.82011 4.86936 1.94801 6.24012 2.00241 7.73212C2.0568 9.22411 3.02641 10.5277 4.4397 11.009C4.41325 11.2719 4.4 11.5359 4.40001 11.8001C4.40001 16.108 7.89217 19.6001 12.2 19.6001C16.5078 19.6001 20 16.108 20 11.8001C20 11.5359 19.9868 11.2719 19.9603 11.009C21.4192 10.5118 22.4 9.1414 22.4 7.60013ZM8.00001 9.40013C8.00001 8.73739 8.53726 8.20013 9.20001 8.20013C9.86275 8.20013 10.4 8.73739 10.4 9.40013C10.4 10.0629 9.86275 10.6001 9.20001 10.6001C8.53726 10.6001 8.00001 10.0629 8.00001 9.40013ZM15.4016 16.5665C14.9515 17.0077 14.3237 17.2176 13.6988 17.1357C13.0739 17.0538 12.5213 16.6893 12.2 16.1471C11.8788 16.6893 11.3261 17.0538 10.7012 17.1357C10.0763 17.2176 9.44849 17.0077 8.99841 16.5665C8.92492 16.4945 8.89544 16.3888 8.92107 16.2891C8.9467 16.1894 9.02355 16.111 9.12267 16.0834C9.22179 16.0558 9.32812 16.0831 9.40161 16.1551C9.82634 16.5712 10.4592 16.692 11.0073 16.4617C11.5555 16.2313 11.912 15.6947 11.912 15.1001V14.7377C11.8361 14.7032 11.7671 14.6553 11.7081 14.5963L10.6051 13.4933C10.1669 13.0551 10.4773 12.3059 11.097 12.3059H13.303C13.9227 12.3059 14.2331 13.0551 13.7949 13.4933L12.6919 14.5963C12.633 14.6553 12.5639 14.7032 12.488 14.7377V15.1001C12.488 15.6947 12.8446 16.2313 13.3927 16.4616C13.9409 16.692 14.5737 16.5711 14.9984 16.1551C15.112 16.0437 15.2944 16.0456 15.4057 16.1592C15.5171 16.2728 15.5152 16.4552 15.4016 16.5665ZM15.2 10.6001C14.5373 10.6001 14 10.0629 14 9.40013C14 8.73739 14.5373 8.20013 15.2 8.20013C15.8627 8.20013 16.4 8.73739 16.4 9.40013C16.4 10.0629 15.8627 10.6001 15.2 10.6001Z" fill="currentColor"/>
</svg>
