<svg width="24" height="24" viewBox="0 0 24 24" fill="currentColor" xmlns="http://www.w3.org/2000/svg">
<path fill-rule="evenodd" clip-rule="evenodd" d="M22.4806 15.0474C22.3187 15.2049 22.1075 15.312 21.864 15.312H17.952V17.104L14.616 13.8216C14.5961 13.8052 14.5784 13.7864 14.5632 13.7656C14.4307 13.6112 14.3565 13.4154 14.3549 13.2119C14.3549 13.2119 14.3548 13.2019 14.3548 13.1999C14.3548 13.1979 14.3546 13.2119 14.3546 13.1879C14.3624 12.9603 14.4556 12.7438 14.6152 12.5813L14.6138 12.5837L17.952 9.30397V11.088H21.864C22.3604 11.088 22.752 11.5069 22.752 12.004V14.404C22.7527 14.6464 22.6547 14.8788 22.4806 15.0474ZM21.6 10.488H18.552V9.90125L19.8 8.70718V6.63025C17.544 8.85946 13.4283 12.852 13.4283 12.852H13.427C13.0598 13.236 12.5598 13.3992 12.0082 13.3992C11.4238 13.3992 10.8979 13.164 10.5259 12.756H10.5233L4.19999 6.60121V8.70344L9.8578 14.172H9.8626C10.4182 14.724 11.1716 15.0048 12.0016 15.0048C12.8235 15.0048 13.5703 14.7203 14.1254 14.1785C14.144 14.1996 14.1629 14.2188 14.1827 14.239C14.1866 14.2431 14.1906 14.2464 14.1947 14.2504L17.5341 17.5323C17.6463 17.6425 17.7974 17.7043 17.9548 17.7042C18.1136 17.7038 18.2657 17.6403 18.3777 17.5278C18.4897 17.4152 18.5524 17.2628 18.552 17.104V15.888H21.6V16.8V19.2H4.49999C3.3402 19.2 2.39999 18.2598 2.39999 17.1C2.39999 17.096 2.40026 17.0922 2.40028 17.0883L2.39999 6.59998V4.19998H19.488C19.4915 4.19998 19.4952 4.19965 19.4986 4.19965C20.6596 4.20014 21.6004 5.14165 21.6 6.30262C21.6 6.30502 21.6 6.30723 21.6 6.30956V10.488Z" fill="currentColor"/>
</svg>
