<svg width="24" height="24" viewBox="0 0 24 24" fill="currentColor" xmlns="http://www.w3.org/2000/svg">
<path fill-rule="evenodd" clip-rule="evenodd" d="M22.1817 3.49106L20.4849 1.79426C20.2506 1.56003 19.8708 1.56003 19.6365 1.79426L17.1792 4.2516C17.123 4.30785 17.0914 4.38414 17.0914 4.46369V5.18784L12.895 9.38426C12.0725 8.72249 11.2337 8.39246 10.5088 8.3959C10.4997 8.3959 10.4905 8.39556 10.4813 8.39556C9.32173 8.39556 8.38168 9.33561 8.38168 10.4952C8.38168 10.893 8.22368 11.2745 7.94242 11.5557C7.66117 11.837 7.2797 11.995 6.88194 11.995C6.75534 11.9948 6.63774 11.995 6.58194 11.995C5.22316 11.995 4.02961 12.3109 3.05089 13.2896C1.20001 15.1405 1.39842 18.3399 3.49417 20.4357C3.50195 20.4434 3.50994 20.4505 3.51774 20.4582C3.52554 20.4658 3.53267 20.4741 3.54033 20.4819C5.63613 22.5776 8.83549 22.776 10.6864 20.925C11.6651 19.9464 11.9829 18.7927 11.9811 17.394C11.9811 17.3442 11.9814 17.2308 11.9816 17.1124C11.9816 17.1063 11.9811 17.1002 11.9811 17.0941C11.9811 16.2658 12.6525 15.5944 13.4808 15.5944C14.4093 15.5943 15.2276 14.9846 15.4933 14.0949C15.874 12.9248 14.9466 11.565 14.5813 11.0915L18.7882 6.88462H19.5123C19.5919 6.88461 19.6682 6.85301 19.7244 6.79675L22.1817 4.33944C22.416 4.10514 22.416 3.72536 22.1817 3.49106ZM11.1528 15.3685C10.6381 15.8832 9.86401 16.0372 9.1915 15.7586C8.519 15.48 8.08051 14.8238 8.08051 14.0959C8.08051 13.368 8.519 12.7117 9.1915 12.4332C9.86401 12.1546 10.6381 12.3086 11.1528 12.8233C11.8556 13.5261 11.8556 14.6656 11.1528 15.3685Z" fill="currentColor"/>
</svg>
