<svg width="24" height="24" viewBox="0 0 24 24" fill="currentColor" xmlns="http://www.w3.org/2000/svg">
<path fill-rule="evenodd" clip-rule="evenodd" d="M20.4 12.6C20.3374 13.4399 20.1346 14.2634 19.7999 15.0363C19.3958 15.9651 18.7182 16.7993 17.9815 17.5155C17.2464 18.2307 16.3807 18.7981 15.4316 19.1869C14.4408 19.594 13.3797 19.8023 12.3085 19.8H15.3942C19.4843 19.8 22.7999 16.5765 22.7999 12.6H20.4ZM6.01836 17.5154C5.28175 16.7993 4.60406 15.9652 4.19995 15.0362C3.86533 14.2634 3.66252 13.4399 3.59995 12.6H1.19995C1.19995 16.5764 4.5156 19.8 8.60566 19.8H11.6914C10.6202 19.8023 9.55909 19.5939 8.56834 19.1868C7.6192 18.798 6.75353 18.2306 6.01836 17.5154ZM12.3085 19.2H12.5142C16.4907 19.2 19.7999 15.9765 19.7999 12V8.4H19.5942C15.6178 8.4 12.3085 11.6235 12.3085 15.6V19.2ZM11.6914 19.2H11.4857C7.50922 19.2 4.19995 15.9765 4.19995 12V8.4H4.40568C8.38212 8.4 11.6914 11.6235 11.6914 15.6V19.2ZM9.95858 10.0846C10.6882 10.7906 11.2723 11.6329 11.6777 12.5638C11.8033 12.8525 11.9109 13.1486 12 13.4506C12.0889 13.1486 12.1965 12.8524 12.3221 12.5637C12.7275 11.6328 13.3116 10.7906 14.0412 10.0845C14.4677 9.66971 14.9391 9.30381 15.4467 8.9936C14.0754 6.48644 12 4.8 12 4.8C12 4.8 9.92455 6.48643 8.55319 8.99367C9.06081 9.30388 9.53213 9.66978 9.95858 10.0846Z" fill="currentColor"/>
</svg>
