<svg width="24" height="24" viewBox="0 0 24 24" fill="currentColor" xmlns="http://www.w3.org/2000/svg">
<path fill-rule="evenodd" clip-rule="evenodd" d="M4.2 21C3.53726 21 3 20.4627 3 19.8V3H19.8C20.4627 3 21 3.53726 21 4.2V21H4.2ZM4.8 18.8221C4.8 19.0308 4.96903 19.1999 5.17766 19.2H10.5483C10.6316 19.2 10.7126 19.1725 10.7787 19.1216L13.6933 16.8784C13.7593 16.8276 13.8402 16.8 13.9235 16.8H17.3931V18L19.1676 16.4767C19.2515 16.4046 19.2997 16.2993 19.2993 16.1887C19.299 16.078 19.2501 15.9731 19.1657 15.9015L17.3931 14.4V15.6H13.4438C13.3604 15.6 13.2794 15.6275 13.2134 15.6784L10.2987 17.9216C10.2327 17.9724 10.1518 18 10.0686 18H5.17766C4.96903 18.0001 4.8 18.1692 4.8 18.3779V18.8221ZM19.1676 7.52328L17.3931 6V7.2H13.9235C13.8402 7.2 13.7592 7.17245 13.6932 7.12164L10.7786 4.87836C10.7125 4.82753 10.6315 4.8 10.5482 4.8H5.17766C4.96903 4.80007 4.8 4.96924 4.8 5.17788V5.62212C4.8 5.83075 4.96903 5.99993 5.17766 6H10.0686C10.1519 6 10.2328 6.02755 10.2988 6.07836L13.2135 8.32164C13.2795 8.37247 13.3605 8.40002 13.4439 8.4H17.3931V9.6L19.1657 8.09849C19.2501 8.02694 19.299 7.92199 19.2993 7.81132C19.2997 7.70065 19.2515 7.59538 19.1676 7.52328ZM19.176 11.7131L17.39 10.2V11.4H5.14999C4.95659 11.4001 4.8 11.557 4.8 11.7504V12.2496C4.8 12.3425 4.83681 12.4316 4.90246 12.4973C4.96811 12.563 5.05718 12.6 5.15006 12.6H17.3901V13.68L19.1687 12.254C19.2503 12.1885 19.2984 12.0899 19.2999 11.9853C19.3013 11.8806 19.2558 11.7808 19.176 11.7131Z" fill="currentColor"/>
</svg>
