<svg width="24" height="24" viewBox="0 0 24 24" fill="currentColor" xmlns="http://www.w3.org/2000/svg">
<path fill-rule="evenodd" clip-rule="evenodd" d="M16.8 12.6C15.5868 12.5987 14.4325 13.1234 13.6358 14.0383L11.7998 13.0314C12.0438 12.2385 12.0653 11.3936 11.8618 10.5893L13.4991 9.79705C14.8225 11.4758 17.1979 11.8883 19.0098 10.7541C20.8217 9.61989 21.4886 7.30305 20.5569 5.37915C19.6252 3.45524 17.394 2.54187 15.3806 3.26017C13.3673 3.97848 12.2181 6.09786 12.7146 8.17705L11.0769 8.96948C10.2264 7.8534 8.90322 7.19883 7.5 7.19999C5.01473 7.19999 3 9.21472 3 11.7C3 14.1853 5.01473 16.2 7.5 16.2C8.82282 16.2013 10.0789 15.6192 10.933 14.6091L12.7695 15.6161C12.2595 17.3515 12.9177 19.2185 14.4032 20.2504C15.8888 21.2822 17.868 21.2473 19.3162 20.1636C20.7644 19.0799 21.3562 17.1908 20.7852 15.4745C20.2143 13.7582 18.6088 12.6002 16.8 12.6ZM16.8 4.79999C17.4249 4.79999 17.9314 5.30655 17.9314 5.93142C17.9314 6.55629 17.4249 7.06285 16.8 7.06285C16.1751 7.06285 15.6686 6.55629 15.6686 5.93142C15.6686 5.30655 16.1751 4.79999 16.8 4.79999ZM15 7.88569C14.9999 7.50957 15.2051 7.16339 15.5352 6.98303C15.8474 7.35938 16.311 7.57715 16.8 7.57715C17.289 7.57715 17.7526 7.35938 18.0648 6.98303C18.3949 7.16339 18.6001 7.50957 18.6 7.88569V9.60047C17.5331 10.3998 16.0669 10.3998 15 9.60047V7.88569ZM7.5 8.99999C8.22902 8.99999 8.82 9.59097 8.82 10.32C8.82 11.049 8.22902 11.64 7.5 11.64C6.77098 11.64 6.18 11.049 6.18 10.32C6.18 9.59097 6.77098 8.99999 7.5 8.99999ZM9.6 14.2458C8.38055 15.2514 6.61945 15.2514 5.4 14.2458V12.6C5.39988 12.1612 5.63935 11.7573 6.02443 11.5469C6.38867 11.9859 6.92952 12.24 7.5 12.24C8.07048 12.24 8.61133 11.9859 8.97557 11.5469C9.36066 11.7573 9.60013 12.1612 9.6 12.6V14.2458ZM16.8 14.4C17.4249 14.4 17.9314 14.9065 17.9314 15.5314C17.9314 16.1563 17.4249 16.6629 16.8 16.6629C16.1751 16.6629 15.6686 16.1563 15.6686 15.5314C15.6686 14.9065 16.1751 14.4 16.8 14.4ZM18.6 19.2005C17.5331 19.9998 16.0669 19.9998 15 19.2005V17.4857C14.9999 17.1096 15.2051 16.7634 15.5352 16.583C15.8474 16.9594 16.311 17.1771 16.8 17.1771C17.289 17.1771 17.7526 16.9594 18.0648 16.583C18.3949 16.7634 18.6001 17.1096 18.6 17.4857V19.2005Z" fill="currentColor"/>
</svg>
