<svg width="24" height="24" viewBox="0 0 24 24" fill="currentColor" xmlns="http://www.w3.org/2000/svg">
<path fill-rule="evenodd" clip-rule="evenodd" d="M18.2 7.4H6.2C5.53806 7.40194 5.00194 7.93806 5 8.6V21.2C5.00194 21.8619 5.53806 22.3981 6.2 22.4H18.2C18.8619 22.3981 19.3981 21.8619 19.4 21.2V8.6C19.3981 7.93806 18.8619 7.40194 18.2 7.4ZM7.7 20.6C7.20294 20.6 6.8 20.1971 6.8 19.7C6.8 19.2029 7.20294 18.8 7.7 18.8C8.19706 18.8 8.6 19.2029 8.6 19.7C8.6 20.1971 8.19706 20.6 7.7 20.6ZM7.7 18.2C7.20294 18.2 6.8 17.7971 6.8 17.3C6.8 16.8029 7.20294 16.4 7.7 16.4C8.19706 16.4 8.6 16.8029 8.6 17.3C8.6 17.7971 8.19706 18.2 7.7 18.2ZM7.7 15.8C7.20294 15.8 6.8 15.3971 6.8 14.9C6.8 14.4029 7.20294 14 7.7 14C8.19706 14 8.6 14.4029 8.6 14.9C8.6 15.3971 8.19706 15.8 7.7 15.8ZM10.7 20.6C10.2029 20.6 9.8 20.1971 9.8 19.7C9.8 19.2029 10.2029 18.8 10.7 18.8C11.1971 18.8 11.6 19.2029 11.6 19.7C11.6 20.1971 11.1971 20.6 10.7 20.6ZM10.7 18.2C10.2029 18.2 9.8 17.7971 9.8 17.3C9.8 16.8029 10.2029 16.4 10.7 16.4C11.1971 16.4 11.6 16.8029 11.6 17.3C11.6 17.7971 11.1971 18.2 10.7 18.2ZM10.7 15.8C10.2029 15.8 9.8 15.3971 9.8 14.9C9.8 14.4029 10.2029 14 10.7 14C11.1971 14 11.6 14.4029 11.6 14.9C11.6 15.3971 11.1971 15.8 10.7 15.8ZM13.7 20.6C13.336 20.6 13.0078 20.3807 12.8685 20.0444C12.7292 19.7081 12.8062 19.321 13.0636 19.0636C13.321 18.8062 13.7081 18.7292 14.0444 18.8685C14.3807 19.0078 14.6 19.336 14.6 19.7C14.6 20.1971 14.1971 20.6 13.7 20.6ZM13.7 18.2C13.336 18.2 13.0078 17.9807 12.8685 17.6444C12.7292 17.3081 12.8062 16.921 13.0636 16.6636C13.321 16.4062 13.7081 16.3292 14.0444 16.4685C14.3807 16.6078 14.6 16.936 14.6 17.3C14.6 17.7971 14.1971 18.2 13.7 18.2ZM13.7 15.8C13.336 15.8 13.0078 15.5807 12.8685 15.2444C12.7292 14.9081 12.8062 14.521 13.0636 14.2636C13.321 14.0062 13.7081 13.9292 14.0444 14.0685C14.3807 14.2078 14.6 14.536 14.6 14.9C14.6 15.3971 14.1971 15.8 13.7 15.8ZM16.7 20.6C16.2029 20.6 15.8 20.1971 15.8 19.7C15.8 19.2029 16.2029 18.8 16.7 18.8C17.1971 18.8 17.6 19.2029 17.6 19.7C17.6 20.1971 17.1971 20.6 16.7 20.6ZM16.7 18.2C16.2029 18.2 15.8 17.7971 15.8 17.3C15.8 16.8029 16.2029 16.4 16.7 16.4C17.1971 16.4 17.6 16.8029 17.6 17.3C17.6 17.7971 17.1971 18.2 16.7 18.2ZM16.7 15.8C16.2029 15.8 15.8 15.3971 15.8 14.9C15.8 14.4029 16.2029 14 16.7 14C17.1971 14 17.6 14.4029 17.6 14.9C17.6 15.3971 17.1971 15.8 16.7 15.8ZM17.6 12.2C17.599 12.531 17.331 12.799 17 12.8H7.4C7.06903 12.799 6.80096 12.531 6.8 12.2V9.8C6.80096 9.46903 7.06903 9.20096 7.4 9.2H17C17.331 9.20096 17.599 9.46903 17.6 9.8V12.2ZM15.24 2H9.15999C8.32154 2.00245 7.64245 2.68154 7.64 3.51999V6.56H8.40001V3.51999C8.40123 3.10077 8.74077 2.76123 9.15999 2.76001H9.92V6.56H11.44V2.76001H15.24C15.6592 2.76123 15.9988 3.10077 16 3.51999V6.56H16.76V3.51999C16.7575 2.68154 16.0785 2.00245 15.24 2ZM14.48 5.42C14.4783 5.21131 14.3087 5.043 14.1 5.043C13.8913 5.043 13.7217 5.21131 13.72 5.42V6.56H14.48V5.42Z" fill="currentColor"/>
</svg>
