<svg width="24" height="24" viewBox="0 0 24 24" fill="currentColor" xmlns="http://www.w3.org/2000/svg">
<path fill-rule="evenodd" clip-rule="evenodd" d="M13.8 18C13.8 18.3314 13.5314 18.6 13.2 18.6H10.8C10.4686 18.6 10.2 18.3314 10.2 18H1.79999V19.2C1.79999 19.5314 2.06862 19.8 2.39999 19.8H21.6C21.9314 19.8 22.2 19.5314 22.2 19.2V18H13.8ZM21 6.00005C21 5.33731 20.4627 4.80005 19.8 4.80005H4.19999C3.53725 4.80005 2.99999 5.33731 2.99999 6.00005V15.576C2.99999 15.5841 3.00044 15.592 3.00059 15.6L2.99999 17.4H21V15.6C21.0001 15.592 21 15.5841 21 15.576V6.00005ZM4.19999 6.00005V16.2H19.8V6.00005H4.19999ZM11.1864 7.48291C11.3445 7.32391 11.5595 7.23451 11.7838 7.23451C12.0081 7.23451 12.2231 7.32391 12.3812 7.48291C12.7086 7.81236 12.7074 8.34462 12.3787 8.67267C12.0499 9.00072 11.5177 9.00072 11.1889 8.67267C10.8602 8.34462 10.859 7.81236 11.1864 7.48291ZM13.2 14.4H10.5029V14.1191L10.5607 14.1173C10.6551 14.1164 10.7486 14.0986 10.8368 14.0648C10.8928 14.0423 10.9433 14.0082 10.9851 13.9648C11.0165 13.931 11.0804 13.8129 11.0804 13.4186V10.7877C11.0804 10.4128 11.0152 10.2711 10.9683 10.2186C10.9323 10.1819 10.8881 10.1544 10.8392 10.1384C10.7483 10.109 10.6538 10.0926 10.5583 10.0896L10.5029 10.086V9.76287H12.6225V13.4186C12.6225 13.7948 12.6792 13.9358 12.725 13.9877C12.79 14.0624 12.9299 14.1058 13.1373 14.1173L13.2 14.1209V14.4Z" fill="currentColor"/>
</svg>
