<svg width="24" height="24" viewBox="0 0 24 24" fill="currentColor" xmlns="http://www.w3.org/2000/svg">
<path fill-rule="evenodd" clip-rule="evenodd" d="M15.8252 7.03198C14.6943 7.03198 13.6381 7.57294 12.7413 8.234C12.2868 8.51438 11.7131 8.51438 11.2586 8.234C10.3618 7.57294 9.30564 7.03198 8.17471 7.03198C5.20867 7.03198 2.96062 9.38398 1.19995 11.9779C2.67574 14.8017 7.20799 17.8289 11.71 17.8289C11.8064 17.8289 11.903 17.832 12 17.832C12.0969 17.832 12.1935 17.8289 12.2899 17.8289C16.7919 17.8289 21.3242 14.8017 22.7999 11.9779C21.0393 9.38398 18.7912 7.03198 15.8252 7.03198ZM12.024 13.632C8.04751 13.632 5.42395 12.629 5.42395 12.132C5.42395 11.6349 8.04751 10.632 12.024 10.632C16.0004 10.632 18.624 11.6349 18.624 12.132C18.624 12.629 16.0004 13.632 12.024 13.632Z" fill="currentColor"/>
</svg>
