<svg width="24" height="24" viewBox="0 0 24 24" fill="currentColor" xmlns="http://www.w3.org/2000/svg">
<path fill-rule="evenodd" clip-rule="evenodd" d="M15.2641 1.17578H8.66411C8.00137 1.17578 7.46411 1.71304 7.46411 2.37578V21.5758C7.46411 22.2385 8.00137 22.7758 8.66411 22.7758H15.2641C15.9269 22.7758 16.4641 22.2385 16.4641 21.5758V2.37578C16.4641 1.71304 15.9269 1.17578 15.2641 1.17578ZM11.0641 6.87578C11.0641 6.7101 11.1984 6.57578 11.3641 6.57578H12.5641C12.7298 6.57578 12.8641 6.7101 12.8641 6.87578V7.47578C12.8641 7.64147 12.7298 7.77578 12.5641 7.77578H11.3641C11.1984 7.77578 11.0641 7.64147 11.0641 7.47578V6.87578ZM12.7911 15.8245C12.2896 15.4929 11.6386 15.4929 11.1371 15.8245L10.2789 14.9663C11.2644 14.1789 12.6638 14.1789 13.6493 14.9663L12.7911 15.8245ZM12.8641 17.0758C12.8641 17.5728 12.4612 17.9758 11.9641 17.9758C11.4671 17.9758 11.0641 17.5728 11.0641 17.0758C11.0641 16.5787 11.4671 16.1758 11.9641 16.1758C12.4612 16.1758 12.8641 16.5787 12.8641 17.0758ZM11.0641 9.27578C11.0641 9.1101 11.1984 8.97578 11.3641 8.97578H12.5641C12.7298 8.97578 12.8641 9.1101 12.8641 9.27578V9.87578C12.8641 10.0415 12.7298 10.1758 12.5641 10.1758H11.3641C11.1984 10.1758 11.0641 10.0415 11.0641 9.87578V9.27578ZM11.0641 11.6758C11.0641 11.5101 11.1984 11.3758 11.3641 11.3758H12.5641C12.7298 11.3758 12.8641 11.5101 12.8641 11.6758V12.2758C12.8641 12.4415 12.7298 12.5758 12.5641 12.5758H11.3641C11.1984 12.5758 11.0641 12.4415 11.0641 12.2758V11.6758ZM9.26411 2.37578C9.59548 2.37578 9.86411 2.64441 9.86411 2.97578C9.86411 3.30715 9.59548 3.57578 9.26411 3.57578C8.93274 3.57578 8.66411 3.30715 8.66411 2.97578C8.66411 2.64441 8.93274 2.37578 9.26411 2.37578ZM8.66411 6.87578C8.66411 6.7101 8.79843 6.57578 8.96411 6.57578H10.1641C10.3298 6.57578 10.4641 6.7101 10.4641 6.87578V7.47578C10.4641 7.64147 10.3298 7.77578 10.1641 7.77578H8.96411C8.88455 7.77578 8.80824 7.74417 8.75198 7.68791C8.69572 7.63165 8.66411 7.55535 8.66411 7.47578V6.87578ZM8.66411 9.27578C8.66411 9.1101 8.79843 8.97578 8.96411 8.97578H10.1641C10.3298 8.97578 10.4641 9.1101 10.4641 9.27578V9.87578C10.4641 10.0415 10.3298 10.1758 10.1641 10.1758H8.96411C8.88455 10.1758 8.80824 10.1442 8.75198 10.0879C8.69572 10.0317 8.66411 9.95535 8.66411 9.87578V9.27578ZM8.66411 12.2758V11.6758C8.66411 11.5101 8.79843 11.3758 8.96411 11.3758H10.1641C10.3298 11.3758 10.4641 11.5101 10.4641 11.6758V12.2758C10.4641 12.4415 10.3298 12.5758 10.1641 12.5758H8.96411C8.88455 12.5758 8.80824 12.5442 8.75198 12.4879C8.69572 12.4317 8.66411 12.3553 8.66411 12.2758ZM9.26411 17.0758C9.26321 16.4632 9.47156 15.8686 9.85466 15.3906L10.7128 16.2488C10.3812 16.7502 10.3812 17.4013 10.7128 17.9028L9.85466 18.761C9.47156 18.2829 9.26321 17.6884 9.26411 17.0758ZM11.9641 19.7758C11.3515 19.7767 10.757 19.5683 10.2789 19.1852L11.1371 18.3271C11.6386 18.6587 12.2896 18.6587 12.7911 18.3271L13.6493 19.1852C13.1713 19.5683 12.5767 19.7767 11.9641 19.7758ZM14.0736 18.761L13.2154 17.9028C13.547 17.4013 13.547 16.7502 13.2154 16.2488L14.0736 15.3906C14.861 16.3761 14.861 17.7755 14.0736 18.761ZM15.2641 12.2758C15.2641 12.4415 15.1298 12.5758 14.9641 12.5758H13.7641C13.5984 12.5758 13.4641 12.4415 13.4641 12.2758V11.6758C13.4641 11.5101 13.5984 11.3758 13.7641 11.3758H14.9641C15.1298 11.3758 15.2641 11.5101 15.2641 11.6758V12.2758ZM15.2641 9.87578C15.2641 10.0415 15.1298 10.1758 14.9641 10.1758H13.7641C13.5984 10.1758 13.4641 10.0415 13.4641 9.87578V9.27578C13.4641 9.1101 13.5984 8.97578 13.7641 8.97578H14.9641C15.1298 8.97578 15.2641 9.1101 15.2641 9.27578V9.87578ZM15.2641 7.47578C15.2641 7.64147 15.1298 7.77578 14.9641 7.77578H13.7641C13.5984 7.77578 13.4641 7.64147 13.4641 7.47578V6.87578C13.4641 6.7101 13.5984 6.57578 13.7641 6.57578H14.9641C15.1298 6.57578 15.2641 6.7101 15.2641 6.87578V7.47578Z" fill="currentColor"/>
</svg>
