<svg width="24" height="24" viewBox="0 0 24 24" fill="currentColor" xmlns="http://www.w3.org/2000/svg">
<path fill-rule="evenodd" clip-rule="evenodd" d="M20.7958 13.5482C20.688 13.7343 20.4888 13.8485 20.2737 13.8475C20.0587 13.8465 19.8606 13.7304 19.7545 13.5433C19.6485 13.3562 19.6508 13.1266 19.7604 12.9416C21.3979 10.1395 21.4016 6.67334 19.7702 3.86777C19.6623 3.68258 19.6613 3.45386 19.7677 3.26777C19.8741 3.08167 20.0717 2.96647 20.286 2.96555C20.5004 2.96465 20.699 3.07816 20.8069 3.26335C22.656 6.44337 22.6518 10.3722 20.7958 13.5482ZM18.7222 12.3386C18.6137 12.5235 18.4149 12.6365 18.2005 12.6351C17.9862 12.6336 17.7889 12.5179 17.683 12.3315C17.577 12.1452 17.5786 11.9164 17.687 11.7315C18.8939 9.66974 18.8928 7.11686 17.6842 5.05608C17.5746 4.87121 17.5722 4.64181 17.678 4.45471C17.7838 4.26761 17.9816 4.15139 18.1965 4.15002C18.4114 4.14867 18.6107 4.26238 18.7188 4.44813C20.1473 6.88399 20.1486 9.90153 18.7222 12.3386ZM16.1308 11.4255C15.9157 11.4252 15.7173 11.3099 15.6105 11.1232C15.5038 10.9365 15.5051 10.7069 15.614 10.5215C16.3795 9.21468 16.383 7.59721 15.6232 6.28711C15.5146 6.10176 15.5134 5.8725 15.62 5.686C15.7266 5.4995 15.9248 5.38423 16.1396 5.38378C16.3544 5.38332 16.5531 5.49775 16.6605 5.6838C17.6376 7.36855 17.6331 9.4486 16.6488 11.1291C16.541 11.3129 16.3439 11.4257 16.1308 11.4255ZM13.3238 10.3923L16.7558 19.0014C16.7771 19.0628 16.7882 19.1272 16.7887 19.1921C16.7892 19.1947 16.7896 19.1974 16.7901 19.2H16.8C16.8 19.2182 16.7989 19.236 16.7973 19.2537C16.7989 19.2718 16.8 19.2897 16.8 19.308C16.8 20.2425 14.651 21 12 21C9.34906 21 7.20002 20.2425 7.20002 19.308C7.20002 19.3073 7.20002 19.3066 7.20002 19.3058C7.1815 19.204 7.18977 19.0991 7.22402 19.0014L10.656 10.3923C9.77881 9.80503 9.38896 8.71307 9.69586 7.703C10.0028 6.69293 10.9342 6.00244 11.9899 6.00244C13.0455 6.00244 13.977 6.69289 14.2839 7.70296C14.5909 8.71302 14.201 9.80499 13.3238 10.3923ZM7.79042 8.3525C7.78194 9.10942 7.97822 9.85456 8.3585 10.5091C8.46645 10.6943 8.46738 10.923 8.36096 11.1091C8.25454 11.2952 8.05693 11.4103 7.84256 11.4112C7.6282 11.4121 7.42965 11.2985 7.3217 11.1133C6.32547 9.39737 6.34832 7.27377 7.38125 5.57964C7.55426 5.29699 7.92366 5.20811 8.20631 5.38112C8.48896 5.55414 8.57784 5.92353 8.40482 6.20618C8.00999 6.85302 7.79768 7.59471 7.79042 8.3525ZM6.08201 12.558C5.94482 12.6387 5.78118 12.6615 5.62715 12.6214C5.47312 12.5814 5.34134 12.4817 5.26085 12.3444C3.831 9.90645 3.831 6.88596 5.26085 4.44801C5.36928 4.26286 5.56833 4.14971 5.78289 4.15123C5.99745 4.15278 6.19486 4.26877 6.30063 4.45546C6.4064 4.64214 6.40443 4.8711 6.29546 5.05593C5.08574 7.11849 5.08574 9.67392 6.29546 11.7365C6.46333 12.0223 6.36777 12.3901 6.08201 12.558ZM2.99081 8.4132C2.99283 10.01 3.41956 11.5775 4.22724 12.955C4.33754 13.1399 4.34037 13.3696 4.23465 13.5571C4.12894 13.7446 3.93089 13.8612 3.71565 13.8625C3.5004 13.8638 3.30094 13.7497 3.19296 13.5635C1.32778 10.3853 1.32015 6.44864 3.17299 3.26328C3.27998 3.07613 3.47915 2.96076 3.69473 2.96106C3.91031 2.96137 4.10915 3.0773 4.21561 3.26475C4.32207 3.45221 4.31979 3.68237 4.20962 3.86767C3.4075 5.24798 2.98694 6.81675 2.99081 8.4132Z" fill="currentColor"/>
</svg>
