<svg width="24" height="24" viewBox="0 0 24 24" fill="currentColor" xmlns="http://www.w3.org/2000/svg">
<path fill-rule="evenodd" clip-rule="evenodd" d="M21.8 6.8V17.6H3.2V18.8H23V6.8H21.8ZM11.6 7.4C9.61177 7.4 8 9.01177 8 11C8 12.9882 9.61177 14.6 11.6 14.6C13.5882 14.6 15.2 12.9882 15.2 11C15.2 10.0452 14.8207 9.12955 14.1456 8.45442C13.4705 7.77928 12.5548 7.4 11.6 7.4ZM5.9 10.1C5.40294 10.1 5 10.5029 5 11C5 11.4971 5.40294 11.9 5.9 11.9C6.39706 11.9 6.8 11.4971 6.8 11C6.8 10.7613 6.70518 10.5324 6.5364 10.3636C6.36761 10.1948 6.13869 10.1 5.9 10.1ZM17.3 10.1C16.8029 10.1 16.4 10.5029 16.4 11C16.4 11.4971 16.8029 11.9 17.3 11.9C17.7971 11.9 18.2 11.4971 18.2 11C18.2 10.7613 18.1052 10.5324 17.9364 10.3636C17.7676 10.1948 17.5387 10.1 17.3 10.1ZM21.2 5H2V17H21.2V5ZM20 14C19.0059 14 18.2 14.8059 18.2 15.8H5C5 15.3226 4.81036 14.8648 4.47279 14.5272C4.13523 14.1896 3.67739 14 3.2 14V8C3.67739 8 4.13523 7.81036 4.47279 7.47279C4.81036 7.13523 5 6.67739 5 6.2H18.2C18.2 7.19411 19.0059 8 20 8V14ZM9.10182 11.912C9.20775 12.013 9.33309 12.0915 9.47024 12.1427C9.60927 12.1955 9.75678 12.2225 9.9055 12.2222C10.1447 12.2222 10.3402 12.1765 10.492 12.0851C10.6051 12.0183 10.6617 11.9331 10.6617 11.8294C10.6629 11.7631 10.6405 11.6986 10.5984 11.6474C10.5559 11.5957 10.4914 11.567 10.4244 11.5701C10.3872 11.572 10.3506 11.5807 10.3164 11.5956L10.1538 11.6712C10.084 11.6976 10.0096 11.7098 9.93495 11.7072C9.77148 11.7072 9.63584 11.6568 9.52803 11.556C9.39093 11.4282 9.32237 11.2267 9.32235 10.9513C9.32047 10.8239 9.34315 10.6974 9.38914 10.5786C9.43008 10.4726 9.50111 10.3808 9.5935 10.3146C9.68518 10.2493 9.80018 10.2166 9.93848 10.2166C10.035 10.2191 10.1302 10.2399 10.2188 10.2781C10.3132 10.3139 10.3817 10.3317 10.4245 10.3317C10.4868 10.3352 10.5467 10.3076 10.5845 10.2579C10.6229 10.2039 10.6423 10.1387 10.6398 10.0725C10.6398 9.98401 10.5992 9.91194 10.5181 9.85626C10.4308 9.79805 10.3329 9.75759 10.2301 9.73717C10.1293 9.71458 10.0264 9.70265 9.92317 9.70158C9.76018 9.69994 9.59839 9.72963 9.4466 9.78901C9.30435 9.84488 9.17528 9.92974 9.06759 10.0382C8.96035 10.1468 8.87656 10.2764 8.8214 10.4187C8.76315 10.5689 8.73391 10.7288 8.73522 10.8898C8.73522 11.3393 8.85737 11.68 9.10182 11.912ZM12.1053 10.2526C12.176 10.2547 12.245 10.2312 12.2996 10.1863C12.3522 10.1424 12.3814 10.0767 12.3788 10.0083C12.3823 9.93862 12.3537 9.87119 12.301 9.82546C12.246 9.78043 12.1765 9.757 12.1054 9.75956H11.3099C11.2045 9.75956 11.1223 9.7893 11.0634 9.84877C11.0045 9.90824 10.975 9.99012 10.9751 10.0944V11.8909C10.9726 11.9701 10.9992 12.0474 11.0498 12.1084C11.0999 12.1675 11.1745 12.2001 11.2519 12.1968C11.3292 12.2006 11.4038 12.1681 11.4535 12.1089C11.5029 12.0472 11.5286 11.9699 11.526 11.8909V11.2211H12.0156C12.0865 11.2237 12.156 11.2006 12.2112 11.156C12.2608 11.1093 12.2889 11.0442 12.289 10.9761C12.2891 10.908 12.2611 10.8429 12.2116 10.796C12.1562 10.7516 12.0866 10.7287 12.0156 10.7314H11.526V10.2525L12.1053 10.2526ZM13.9631 11.97C13.9796 12.0287 14.0093 12.0827 14.0501 12.128C14.0842 12.1704 14.1354 12.1955 14.1898 12.1966C14.264 12.1981 14.337 12.1782 14.4002 12.1394C14.4586 12.1048 14.497 12.0444 14.5034 11.9768C14.5054 11.9183 14.498 11.8599 14.4815 11.8037L13.834 10.0222C13.8042 9.93361 13.7494 9.85548 13.6763 9.79724C13.5293 9.68443 13.3247 9.68479 13.1781 9.79813C13.1054 9.85637 13.0507 9.9341 13.0205 10.0222L12.373 11.8038C12.3562 11.8599 12.3487 11.9184 12.351 11.9769C12.3595 12.0447 12.3987 12.1048 12.4573 12.14C12.5193 12.1782 12.5909 12.1979 12.6637 12.1967C12.7767 12.1967 12.8584 12.1017 12.9088 11.9119L12.9668 11.7036H13.8875L13.9631 11.97ZM13.1391 11.2106L13.4307 10.2957L13.7224 11.2106H13.1391Z" fill="currentColor"/>
</svg>
