<svg width="24" height="24" viewBox="0 0 24 24" fill="currentColor" xmlns="http://www.w3.org/2000/svg">
<path fill-rule="evenodd" clip-rule="evenodd" d="M12 1.8C17.6334 1.8 22.2001 6.3667 22.2001 12C22.2001 17.6333 17.6334 22.2 12 22.2C6.36674 22.2 1.80005 17.6333 1.80005 12C1.80005 6.3667 6.36674 1.8 12 1.8ZM7.15205 13.2V15L4.42085 12.48C4.12654 12.2149 4.12654 11.7851 4.42085 11.52L7.15205 9V10.8V13.2ZM16.8 10.8V9L19.5396 11.52C19.8349 11.7851 19.8349 12.2149 19.5396 12.48L16.8 15V13.2V10.8ZM8.40005 11.4C8.73142 11.4 9.00005 11.6686 9.00005 12C9.00005 12.3314 8.73142 12.6 8.40005 12.6C8.06868 12.6 7.80005 12.3314 7.80005 12C7.80005 11.6686 8.06868 11.4 8.40005 11.4ZM10.2 11.4C10.5314 11.4 10.8 11.6686 10.8 12C10.8 12.3314 10.5314 12.6 10.2 12.6C9.86868 12.6 9.60005 12.3314 9.60005 12C9.60005 11.6686 9.86868 11.4 10.2 11.4ZM12 11.4C12.3314 11.4 12.6 11.6686 12.6 12C12.6 12.3314 12.3314 12.6 12 12.6C11.6687 12.6 11.4 12.3314 11.4 12C11.4 11.6686 11.6687 11.4 12 11.4ZM13.8 11.4C14.1314 11.4 14.4 11.6686 14.4 12C14.4 12.3314 14.1314 12.6 13.8 12.6C13.4687 12.6 13.2 12.3314 13.2 12C13.2 11.6686 13.4687 11.4 13.8 11.4ZM15.6 11.4C15.9314 11.4 16.2 11.6686 16.2 12C16.2 12.3314 15.9314 12.6 15.6 12.6C15.2687 12.6 15 12.3314 15 12C15 11.6686 15.2687 11.4 15.6 11.4Z" fill="currentColor"/>
</svg>
