<svg width="24" height="24" viewBox="0 0 24 24" fill="currentColor" xmlns="http://www.w3.org/2000/svg">
<path fill-rule="evenodd" clip-rule="evenodd" d="M20.6 10.8C20.9314 10.8 21.2 10.5314 21.2 10.2C21.2 9.86863 20.9314 9.6 20.6 9.6H19.4V8.4H20.6C20.9314 8.4 21.2 8.13137 21.2 7.8C21.2 7.46863 20.9314 7.2 20.6 7.2H19.4V6C19.3981 5.33806 18.8619 4.80194 18.2 4.8H17V3.6C17 3.26863 16.7314 3 16.4 3C16.0686 3 15.8 3.26863 15.8 3.6V4.8H14.6V3.6C14.6 3.26863 14.3314 3 14 3C13.6686 3 13.4 3.26863 13.4 3.6V4.8H12.2V3.6C12.2 3.26863 11.9314 3 11.6 3C11.2686 3 11 3.26863 11 3.6V4.8H9.8V3.6C9.8 3.26863 9.53137 3 9.2 3C8.86863 3 8.6 3.26863 8.6 3.6V4.8H7.4V3.6C7.4 3.26863 7.13137 3 6.8 3C6.46863 3 6.2 3.26863 6.2 3.6V4.8H5C4.33806 4.80194 3.80194 5.33806 3.8 6V7.2H2.6C2.26863 7.2 2 7.46863 2 7.8C2 8.13137 2.26863 8.4 2.6 8.4H3.8V9.6H2.6C2.26863 9.6 2 9.86863 2 10.2C2 10.5314 2.26863 10.8 2.6 10.8H3.8V12H2.6C2.26863 12 2 12.2686 2 12.6C2 12.9314 2.26863 13.2 2.6 13.2H3.8V14.4H2.6C2.26863 14.4 2 14.6686 2 15C2 15.3314 2.26863 15.6 2.6 15.6H3.8V16.8H2.6C2.26863 16.8 2 17.0686 2 17.4C2 17.7314 2.26863 18 2.6 18H3.8V19.2C3.80194 19.8619 4.33806 20.3981 5 20.4H6.2V21C6.2 21.3314 6.46863 21.6 6.8 21.6C7.13137 21.6 7.4 21.3314 7.4 21V20.4H8.6V21C8.6 21.3314 8.86863 21.6 9.2 21.6C9.53137 21.6 9.8 21.3314 9.8 21V20.4H11V21C11 21.3314 11.2686 21.6 11.6 21.6C11.9314 21.6 12.2 21.3314 12.2 21V20.4H13.4V21C13.4 21.3314 13.6686 21.6 14 21.6C14.3314 21.6 14.6 21.3314 14.6 21V20.4H15.8V21C15.8 21.3314 16.0686 21.6 16.4 21.6C16.7314 21.6 17 21.3314 17 21V20.4H18.2C18.8619 20.3981 19.3981 19.8619 19.4 19.2V18H20.6C20.9314 18 21.2 17.7314 21.2 17.4C21.2 17.0686 20.9314 16.8 20.6 16.8H19.4V15.6H20.6C20.9314 15.6 21.2 15.3314 21.2 15C21.2 14.6686 20.9314 14.4 20.6 14.4H19.4V13.2H20.6C20.9314 13.2 21.2 12.9314 21.2 12.6C21.2 12.2686 20.9314 12 20.6 12H19.4V10.8H20.6ZM15.8 15.6C15.7981 16.2619 15.2619 16.7981 14.6 16.8H8.6C7.93806 16.7981 7.40194 16.2619 7.4 15.6V9.6C7.40194 8.93806 7.93806 8.40194 8.6 8.4H14.6C15.2619 8.40194 15.7981 8.93806 15.8 9.6V15.6ZM14.6 9H8.6C8.26903 9.00096 8.00096 9.26903 8 9.6V15.6C8.00096 15.931 8.26903 16.199 8.6 16.2H14.6C14.931 16.199 15.199 15.931 15.2 15.6V9.6C15.199 9.26903 14.931 9.00096 14.6 9Z" fill="currentColor"/>
</svg>
