<svg width="24" height="24" viewBox="0 0 24 24" fill="currentColor" xmlns="http://www.w3.org/2000/svg">
<path fill-rule="evenodd" clip-rule="evenodd" d="M13.5079 2.42629C13.113 2.02304 12.5723 1.79578 12.0079 1.79578C11.4435 1.79578 10.9028 2.02304 10.5079 2.42629L2.70789 10.1963H7.20789V17.3963C7.20789 20.0473 9.35685 22.1963 12.0079 22.1963C14.6589 22.1963 16.8079 20.0473 16.8079 17.3963V10.1963H21.3079L13.5079 2.42629ZM12.0079 20.9963C10.0197 20.9963 8.40789 19.3845 8.40789 17.3963C8.40789 15.4081 10.0197 13.7963 12.0079 13.7963C13.9961 13.7963 15.6079 15.4081 15.6079 17.3963C15.6079 19.3845 13.9961 20.9963 12.0079 20.9963Z" fill="currentColor"/>
</svg>
