<svg width="24" height="24" viewBox="0 0 24 24" fill="currentColor" xmlns="http://www.w3.org/2000/svg">
<path fill-rule="evenodd" clip-rule="evenodd" d="M21.2047 9.30951H15.888V6.55271C15.888 4.44027 14.172 2.71191 12.06 2.71191C9.94799 2.71191 8.23199 4.44027 8.23199 6.55271V9.30951H2.75999C2.32766 9.30965 1.92881 9.54226 1.7158 9.91848C1.5028 10.2947 1.50855 10.7564 1.73087 11.1272L6.35999 21.3119H17.52L22.2338 11.1271C22.3423 10.9468 22.44 10.7356 22.44 10.5097C22.44 9.84692 21.8676 9.30951 21.2047 9.30951ZM3.95999 11.7099H8.15999L8.62151 14.7105H5.37479L3.95999 11.7099ZM7.55999 19.5115L6.11999 16.5109H8.89847L9.35999 19.5115H7.55999ZM12.96 19.5115H11.04L10.56 16.5109H13.44L12.96 19.5115ZM13.68 14.7105H10.44L9.95999 11.7099H14.04L13.68 14.7105ZM14.0878 9.30951H10.0332L10.03 6.55278C10.0265 5.82542 10.4125 5.1518 11.0419 4.78709C11.6712 4.42239 12.4476 4.42239 13.0769 4.78709C13.7062 5.1518 14.0923 5.82542 14.0887 6.55278L14.0878 9.30951ZM16.44 19.5115H14.6326L15.12 16.5109H17.88L16.44 19.5115ZM18.6252 14.7105H15.3432L15.72 11.7099H19.9241L18.6252 14.7105Z" fill="currentColor"/>
</svg>
