<svg width="24" height="24" viewBox="0 0 24 24" fill="currentColor" xmlns="http://www.w3.org/2000/svg">
<path fill-rule="evenodd" clip-rule="evenodd" d="M21.6 11.9761H18V19.2001C18 20.1942 17.1941 21.0001 16.2 21.0001H7.79999C6.80588 21.0001 5.99999 20.1942 5.99999 19.2001V11.9761H2.39999L10.2 4.15207H10.2184C10.6796 3.6408 11.3383 3.35236 12.0268 3.36001C12.7153 3.36797 13.3673 3.67127 13.8168 4.19287L21.6 11.9761ZM11.2608 15.7391C10.4515 14.93 9.6779 13.9929 10.0484 13.6225C10.9782 12.6928 11.0405 12.765 10.101 11.5959C9.16091 10.4268 9.27952 10.5796 8.02065 11.8383C7.42802 12.4313 7.98945 14.6414 10.1738 16.8259C12.3585 19.0101 14.5686 19.5722 15.1617 18.9789C16.4203 17.7203 16.5732 17.8389 15.4041 16.8992C14.2353 15.9592 14.3034 16.026 13.3778 16.9516C13.0072 17.3219 12.0703 16.5485 11.2608 15.7391Z" fill="currentColor"/>
</svg>
