<svg width="24" height="24" viewBox="0 0 24 24" fill="currentColor" xmlns="http://www.w3.org/2000/svg">
<path fill-rule="evenodd" clip-rule="evenodd" d="M10.3334 7.93345C10.1871 8.57519 10.1729 9.23996 10.2916 9.88736C12.8415 10.5259 14.5313 12.9452 14.2532 15.5591C13.975 18.1729 11.8138 20.1824 9.18671 20.27C6.55957 20.3576 4.26933 18.4965 3.8177 15.907C3.36607 13.3175 4.89105 10.7909 7.39273 9.98401C7.30969 9.32297 7.31183 8.654 7.39912 7.9935C4.19924 8.72586 1.81201 11.5901 1.81201 15.012C1.81201 18.9885 5.03555 22.212 9.01201 22.212C12.9885 22.212 16.212 18.9885 16.212 15.012C16.212 11.487 13.6786 8.55402 10.3334 7.93345ZM15.012 1.81201C11.0355 1.81201 7.81201 5.03555 7.81201 9.01201C7.81201 12.5371 10.3454 15.47 13.6907 16.0906C13.8369 15.4488 13.8511 14.7841 13.7324 14.1367C11.1826 13.4982 9.49267 11.0788 9.77083 8.46496C10.049 5.85112 12.2102 3.84158 14.8373 3.75399C17.4644 3.6664 19.7547 5.52753 20.2063 8.11704C20.658 10.7065 19.133 13.2331 16.6313 14.04C16.7143 14.7011 16.7122 15.3701 16.6249 16.0306C19.8248 15.2982 22.212 12.4339 22.212 9.01201C22.212 5.03555 18.9885 1.81201 15.012 1.81201Z" fill="currentColor"/>
</svg>
