<svg width="24" height="24" viewBox="0 0 24 24" fill="currentColor" xmlns="http://www.w3.org/2000/svg">
<path fill-rule="evenodd" clip-rule="evenodd" d="M12 10.44C14.3859 10.44 16.32 8.50592 16.32 6.12005C16.32 3.73418 14.3859 1.80005 12 1.80005C9.61413 1.80005 7.68 3.73418 7.68 6.12005C7.68 8.50592 9.61413 10.44 12 10.44ZM15.7848 10.1379C13.6592 12.1407 10.3412 12.1408 8.21544 10.1381C6.51734 11.0635 5.44398 12.8266 5.40154 14.76H5.4V19.8C5.4 21.1255 6.47452 22.2001 7.8 22.2001H18.6V14.88C18.6007 12.9031 17.5207 11.0839 15.7848 10.1379ZM17.4 18.96C17.4 19.0926 17.2925 19.2001 17.16 19.2001H15.6V20.76C15.6 20.8926 15.4925 21 15.36 21H14.64C14.5075 21 14.4 20.8926 14.4 20.76V19.2001H12.84C12.7075 19.2001 12.6 19.0926 12.6 18.96V18.24C12.6 18.1075 12.7075 18 12.84 18H14.4V16.44C14.4 16.3075 14.5075 16.2 14.64 16.2H15.36C15.4925 16.2 15.6 16.3075 15.6 16.44V18H17.16C17.2925 18 17.4 18.1075 17.4 18.24V18.96Z" fill="currentColor"/>
</svg>
