<svg width="24" height="24" viewBox="0 0 24 24" fill="currentColor" xmlns="http://www.w3.org/2000/svg">
<path fill-rule="evenodd" clip-rule="evenodd" d="M19.7539 4.1998C16.8446 4.1998 14.16 3.30631 12.0001 1.7998C9.84022 3.30631 7.15555 4.19913 4.24625 4.19913L3.6001 4.1998V10.7998C3.6001 15.2374 6.18471 20.3998 12.0001 22.1998C17.8155 20.3998 20.4001 15.2374 20.4001 10.7998V4.1998H19.7539ZM18.0001 7.7542C18.0021 7.23798 17.5853 6.81784 17.0691 6.8158C16.8321 6.81567 16.6042 6.9066 16.4324 7.06977L10.9242 12.4462L9.10947 10.42C8.74107 10.1006 8.18792 10.1221 7.84519 10.4689L7.47279 10.8442C7.13722 11.1835 7.10781 11.7199 7.40427 12.0939L10.3834 15.8476C10.559 16.0701 10.827 16.1999 11.1104 16.1999C11.3939 16.1999 11.6617 16.0701 11.8373 15.8476L17.7961 8.34043C17.9286 8.17382 18.0005 7.96711 18.0001 7.7542Z" fill="currentColor"/>
</svg>
