<svg width="24" height="24" viewBox="0 0 24 24" fill="currentColor" xmlns="http://www.w3.org/2000/svg">
<path fill-rule="evenodd" clip-rule="evenodd" d="M7.8011 21.6072C8.06472 21.6073 8.31747 21.5021 8.50332 21.3152C8.68917 21.1282 8.79277 20.8748 8.79117 20.6112C8.78866 20.4652 8.73727 20.3243 8.64523 20.2109C8.15972 19.5982 8.0547 18.7666 8.37267 18.0524C8.69064 17.3382 9.37896 16.8597 10.1592 16.8106C11.4532 16.7301 12.5208 17.8498 12.3793 19.1384C12.3358 19.5348 12.1798 19.9105 11.9297 20.2211C11.8412 20.33 11.7925 20.4658 11.7918 20.6061C11.7918 21.159 12.2401 21.6071 12.7929 21.6071H16.2012C16.5173 21.616 16.8236 21.4964 17.05 21.2757C17.2765 21.0549 17.4039 20.7518 17.4031 20.4356V15.6524C17.4031 15.4845 17.4698 15.3235 17.5884 15.2048C17.7071 15.0861 17.8681 15.0195 18.036 15.0195C18.3744 15.0217 18.7053 15.1192 18.9908 15.3008C19.6508 15.7128 20.4845 15.7264 21.1575 15.336C21.8305 14.9455 22.2327 14.2151 22.2026 13.4376C22.1609 12.3379 21.2023 11.4181 20.1017 11.4191C19.709 11.4188 19.3241 11.5291 18.9912 11.7376C18.6991 11.921 18.3613 12.0186 18.0165 12.0191C17.8538 12.0191 17.6978 11.9545 17.5827 11.8394C17.4677 11.7244 17.4031 11.5684 17.4031 11.4057V7.80686C17.4011 7.14389 16.8641 6.60695 16.2011 6.60503H12.7929C12.5274 6.60505 12.2727 6.49959 12.085 6.31186C11.8972 6.12412 11.7918 5.8695 11.7917 5.60399C11.7925 5.46371 11.8411 5.32788 11.9296 5.21903C12.1797 4.90839 12.3357 4.53269 12.3792 4.13627C12.5208 2.84759 11.4531 1.72802 10.1592 1.80847C9.39861 1.85646 8.72371 2.31265 8.39565 3.00049C8.06759 3.68834 8.13783 4.49992 8.5792 5.12116C8.8535 5.50641 8.8128 6.03945 8.4598 6.35419C8.27864 6.51606 8.04411 6.60538 7.80117 6.60503H3.60189C2.93892 6.60695 2.40193 7.14389 2.39997 7.80686V11.3597C2.39997 11.5224 2.46461 11.6784 2.57964 11.7934C2.69467 11.9085 2.85069 11.9731 3.01336 11.9731C3.35824 11.9725 3.69601 11.875 3.98807 11.6916C4.32095 11.4831 4.70583 11.3727 5.09858 11.373C6.19915 11.372 7.15778 12.2919 7.19939 13.3916C7.22952 14.1691 6.82743 14.8995 6.15441 15.29C5.48139 15.6804 4.64768 15.6669 3.98769 15.2548C3.70213 15.0732 3.3712 14.9757 3.0328 14.9735C2.68331 14.9735 2.39997 15.2568 2.39997 15.6063V20.4356C2.39918 20.7519 2.52656 21.055 2.75303 21.2757C2.9795 21.4965 3.28575 21.6161 3.60189 21.6072H7.8011Z" fill="currentColor"/>
</svg>
