<svg width="24" height="24" viewBox="0 0 24 24" fill="currentColor" xmlns="http://www.w3.org/2000/svg">
<path fill-rule="evenodd" clip-rule="evenodd" d="M15 1.80005V5.40005C15 6.06279 15.4776 6.60005 16.0667 6.60005H19.8L15 1.80005ZM16.2 7.80005C14.8745 7.80005 13.8 6.72553 13.8 5.40005V1.80005H4.20001V20.9946V21C4.20001 21.6628 4.73727 22.2001 5.40001 22.2001H19.8V7.80005H16.2ZM7.80001 9.00005H16.2C16.5314 9.00005 16.8 9.26868 16.8 9.60005C16.8 9.93142 16.5314 10.2 16.2 10.2H7.80001C7.46864 10.2 7.20001 9.93142 7.20001 9.60005C7.20001 9.26868 7.46864 9.00005 7.80001 9.00005ZM7.80001 11.4H16.2C16.5314 11.4 16.8 11.6687 16.8 12C16.8 12.3314 16.5314 12.6 16.2 12.6H7.80001C7.46864 12.6 7.20001 12.3314 7.20001 12C7.20001 11.6687 7.46864 11.4 7.80001 11.4ZM7.80001 13.8H16.2C16.5314 13.8 16.8 14.0687 16.8 14.4C16.8 14.7314 16.5314 15 16.2 15H7.80001C7.46864 15 7.20001 14.7314 7.20001 14.4C7.20001 14.0687 7.46864 13.8 7.80001 13.8ZM10.2 17.4H7.80001C7.46864 17.4 7.20001 17.1314 7.20001 16.8C7.20001 16.4687 7.46864 16.2 7.80001 16.2H10.2C10.5314 16.2 10.8 16.4687 10.8 16.8C10.8 17.1314 10.5314 17.4 10.2 17.4Z" fill="currentColor"/>
</svg>
