<svg width="24" height="24" viewBox="0 0 24 24" fill="currentColor" xmlns="http://www.w3.org/2000/svg">
<path fill-rule="evenodd" clip-rule="evenodd" d="M16.2172 7.07578C13.9888 6.13073 11.4072 7.03308 10.2528 9.16047C9.09836 11.2879 9.74891 13.9441 11.7558 15.2973C13.7626 16.6505 16.4691 16.2577 18.0085 14.3899C19.5479 12.5221 19.4165 9.79045 17.705 8.07898C17.2789 7.65116 16.7735 7.31042 16.2172 7.07578ZM10.7958 8.98805L11.9958 7.7882L13.1958 8.98805L13.7958 8.38805V10.7878H11.3958L11.9958 10.1878L10.7958 8.98805ZM13.1958 13.7875L13.7958 14.3875H11.3958V11.9877L11.9958 12.5877L13.1958 11.3878L14.3958 12.5877L13.1958 13.7875ZM15.5958 8.98805L14.9958 8.38805H17.3958V10.7878L16.7958 10.1878L15.5958 11.3877L14.3958 10.1879L15.5958 8.98805ZM16.7958 14.9873L15.5958 13.7875L14.9958 14.3875V11.9877H17.3958L16.7958 12.5877L17.9958 13.7875L16.7958 14.9873ZM20.8484 12.7796C20.9466 12.3222 20.9961 11.8556 20.996 11.3878C20.996 7.74315 18.041 4.78858 14.396 4.78858C12.399 4.7867 10.509 5.69082 9.25721 7.24678C8.50567 7.08757 7.72188 7.25582 7.1019 7.70945C6.48192 8.16309 6.08437 8.85921 6.00869 9.62369C3.6347 9.91318 1.79578 11.9355 1.79578 14.3874C1.79578 17.038 3.94483 19.1868 6.59578 19.1868H18.5958C20.1236 19.1869 21.4851 18.2225 21.9918 16.7812C22.4986 15.3398 22.0402 13.7356 20.8484 12.7796ZM14.3958 16.7871C11.4134 16.7871 8.99578 14.3697 8.99578 11.3877C8.99578 8.40576 11.4133 5.98844 14.3958 5.98844C17.3782 5.98844 19.7958 8.40579 19.7958 11.3877C19.7958 14.3697 17.3781 16.7871 14.3958 16.7871Z" fill="currentColor"/>
</svg>
