<svg width="24" height="24" viewBox="0 0 24 24" fill="currentColor" xmlns="http://www.w3.org/2000/svg">
<path fill-rule="evenodd" clip-rule="evenodd" d="M12.4 2C10.2401 3.5065 7.55548 4.39933 4.64615 4.39933L4 4.4V11C4 15.4376 6.58458 20.6 12.4 22.4C18.2154 20.6 20.8 15.4376 20.8 11V4.4H20.1538C17.2445 4.4 14.5599 3.5065 12.4 2ZM14.652 10.4533C13.3791 11.6479 11.397 11.6479 10.1241 10.4533C9.10926 11.0039 8.46699 12.0558 8.44091 13.2101L8.44 16.2165C8.44054 16.5967 8.5921 16.9611 8.86133 17.2296C9.13057 17.498 9.49542 17.6485 9.87563 17.648H16.336V13.2818C16.3357 12.1015 15.6895 11.016 14.652 10.4533ZM14.9722 8.05676C14.9722 9.47996 13.8152 10.6335 12.388 10.6335C10.9608 10.6335 9.80385 9.47986 9.80385 8.05676C9.80385 6.63366 10.9608 5.48 12.388 5.48C13.8152 5.48 14.9722 6.63366 14.9722 8.05676Z" fill="currentColor"/>
</svg>
