<svg width="24" height="24" viewBox="0 0 24 24" fill="currentColor" xmlns="http://www.w3.org/2000/svg">
<path fill-rule="evenodd" clip-rule="evenodd" d="M5.40005 12.0003C5.40005 11.669 5.13142 11.4003 4.80005 11.4003H2.40005C2.06868 11.4003 1.80005 11.669 1.80005 12.0003C1.80005 12.3317 2.06868 12.6003 2.40005 12.6003H4.80005C5.13142 12.6003 5.40005 12.3317 5.40005 12.0003ZM6.47765 7.35051C6.71242 7.58208 7.09007 7.58078 7.32324 7.34761C7.55642 7.11444 7.55773 6.7368 7.32617 6.50202L5.62913 4.805C5.39424 4.57416 5.01718 4.5758 4.78431 4.80868C4.55144 5.04155 4.54979 5.41861 4.78063 5.6535L6.47765 7.35051ZM17.4441 7.31375L19.144 5.61383C19.2964 5.46248 19.3562 5.24123 19.3008 5.03373C19.2455 4.82624 19.0834 4.66417 18.8759 4.60882C18.6684 4.55347 18.4472 4.61328 18.2958 4.76564L16.5959 6.46556C16.441 6.61635 16.3792 6.83886 16.4342 7.04794C16.4892 7.25702 16.6525 7.42032 16.8615 7.47536C17.0706 7.5304 17.2933 7.46865 17.4441 7.31375ZM17.4479 16.7118C17.2971 16.5587 17.0759 16.4981 16.8682 16.553C16.6605 16.6078 16.498 16.7698 16.4425 16.9773C16.387 17.1849 16.447 17.4063 16.5996 17.5575L18.2962 19.2488C18.4464 19.4045 18.6688 19.467 18.8781 19.4125C19.0874 19.358 19.2511 19.1948 19.3062 18.9857C19.3614 18.7765 19.2995 18.5539 19.1443 18.4032L17.4479 16.7118ZM6.48408 16.7484L4.78459 18.4428C4.63358 18.5943 4.57485 18.8148 4.63053 19.0214C4.6862 19.2279 4.84782 19.389 5.05451 19.444C5.2612 19.4991 5.48155 19.4397 5.63256 19.2882L7.33205 17.5938C7.48306 17.4423 7.54179 17.2218 7.48612 17.0153C7.43044 16.8088 7.26882 16.6476 7.06213 16.5926C6.85544 16.5376 6.63509 16.597 6.48408 16.7484ZM21.6 11.397L19.1985 11.3994C18.8669 11.3991 18.5978 11.6676 18.5975 11.9992C18.5971 12.3308 18.8657 12.5999 19.1972 12.6002L21.5988 12.5978C21.8133 12.598 22.0116 12.4838 22.1191 12.2982C22.2265 12.1125 22.2267 11.8836 22.1197 11.6978C22.0126 11.5119 21.8145 11.3973 21.6 11.397ZM11.9952 18.5987C11.8354 18.598 11.6819 18.6609 11.5685 18.7735C11.4551 18.8861 11.391 19.0391 11.3904 19.1989V21.5998C11.3963 21.9296 11.6653 22.1938 11.9952 22.1938C12.325 22.1938 12.594 21.9296 12.5999 21.5998V19.1989C12.5993 19.0391 12.5353 18.8861 12.4219 18.7736C12.3085 18.661 12.155 18.5981 11.9952 18.5987ZM11.9955 5.42815C12.1553 5.42897 12.3088 5.36617 12.4222 5.2536C12.5357 5.14102 12.5996 4.98794 12.6 4.82814L12.5974 2.42574C12.5948 2.09363 12.3251 1.82567 11.993 1.82532C11.6608 1.82497 11.3905 2.09236 11.3872 2.42447L11.3896 4.82699C11.3914 5.16005 11.6624 5.4289 11.9955 5.42815ZM13.7646 10.8003H13.4116V9.51395C13.4127 9.38716 13.3456 9.26956 13.236 9.20586C13.1264 9.14217 12.991 9.14217 12.8814 9.20586C12.7717 9.26956 12.7047 9.38716 12.7057 9.51395V10.8003H11.294V9.51395C11.295 9.38716 11.228 9.26956 11.1184 9.20586C11.0087 9.14217 10.8734 9.14217 10.7637 9.20586C10.6541 9.26956 10.5871 9.38716 10.5881 9.51395V10.8003H10.2352C10.0391 10.8022 9.88134 10.9621 9.88226 11.1583V12.0003H14.1175V11.1583C14.1184 10.9621 13.9608 10.8022 13.7646 10.8003ZM11.9999 6.00039C8.68622 6.00039 5.99987 8.7074 5.99987 12.0465C5.99482 14.5361 7.51599 16.7743 9.83261 17.6859C9.90323 17.7196 9.9805 17.737 10.0587 17.737C10.3136 17.7347 10.5314 17.5527 10.5788 17.3023C10.6262 17.0519 10.4901 16.8028 10.2537 16.7075L10.2544 16.706C10.1949 16.6833 10.1357 16.6599 10.0769 16.6348C8.88967 16.1258 7.94659 15.1754 7.44665 13.9843C6.66188 12.1182 7.08016 9.96293 8.50601 8.52579C9.66876 7.35978 11.3365 6.85066 12.9523 7.16851C14.568 7.48635 15.9187 8.58927 16.5531 10.1088C17.3378 11.975 16.9196 14.1302 15.4938 15.5674C15.0444 16.0218 14.5108 16.3843 13.9229 16.6349C13.6191 16.7644 13.3029 16.8626 12.9792 16.928C12.876 16.9464 12.7697 16.9177 12.6896 16.85C12.6094 16.7823 12.5636 16.6825 12.5645 16.5776C12.5645 16.5758 12.5645 16.5741 12.5645 16.5724V14.388C13.4853 14.1267 14.1198 13.2848 14.1173 12.3277H9.88227C9.88227 13.3348 10.5746 14.182 11.5058 14.4063V16.5988C11.5171 17.3746 12.1449 18.0001 12.9175 18.0001C12.9984 18.0001 13.0791 17.9931 13.1588 17.9792C13.1588 17.9792 13.2138 17.9685 13.226 17.9657C15.9515 17.3953 17.9997 14.9621 17.9997 12.0465C17.9997 8.70731 15.3136 6.00039 11.9999 6.00039Z" fill="currentColor"/>
</svg>
