<svg width="24" height="24" viewBox="0 0 24 24" fill="currentColor" xmlns="http://www.w3.org/2000/svg">
<path fill-rule="evenodd" clip-rule="evenodd" d="M17.4053 7.18228V7.20892H16.4744V7.18228C16.4768 4.72396 14.486 2.72908 12.0276 2.72668C12.0248 2.72668 12.0216 2.72668 12.0188 2.72668V1.79572C14.9938 1.79572 17.4053 4.20724 17.4053 7.18228ZM12.5185 6.81606C12.5115 6.80906 12.5065 6.80206 12.4995 6.79506C12.5165 6.81206 12.5335 6.82906 12.5515 6.84606C12.5405 6.83606 12.5295 6.82706 12.5185 6.81606ZM13.0162 7.20868C13.0162 7.20148 13.0162 7.18924 13.0162 7.18204C13.0155 6.63148 12.5693 6.18508 12.0188 6.1846V5.25364C13.0839 5.25364 13.9474 6.11716 13.9474 7.18228C13.9474 7.18948 13.9474 7.20172 13.9474 7.20892L13.0162 7.20868ZM14.7452 7.20868C14.7452 7.20148 14.7452 7.18924 14.7452 7.18204C14.7452 5.67628 13.5245 4.4554 12.0185 4.4554V3.52444C14.0386 3.52444 15.6761 5.16196 15.6761 7.18204V7.20868H14.7452ZM17.3957 7.81852C20.0357 7.81852 22.1957 9.97851 22.1957 12.6185L22.191 12.8315C22.0786 15.3737 19.9644 17.4185 17.3957 17.4185H6.59572C3.95572 17.4185 1.79572 15.2585 1.79572 12.6185L1.80042 12.4055C1.91282 9.86334 4.02707 7.81852 6.59572 7.81852H17.3957ZM6.59572 9.01852C4.60756 9.01852 2.99572 10.6304 2.99572 12.6185C2.99572 14.6067 4.60756 16.2185 6.59572 16.2185C8.58388 16.2185 10.1957 14.6067 10.1957 12.6185C10.1957 10.6304 8.58388 9.01852 6.59572 9.01852ZM17.3957 9.01852C15.4076 9.01852 13.7957 10.6304 13.7957 12.6185C13.7957 14.6067 15.4076 16.2185 17.3957 16.2185C19.3839 16.2185 20.9957 14.6067 20.9957 12.6185C20.9957 10.6304 19.3839 9.01852 17.3957 9.01852ZM6.59572 11.4185C7.25846 11.4185 7.79572 11.9558 7.79572 12.6185C7.79572 13.2813 7.25846 13.8185 6.59572 13.8185C5.93297 13.8185 5.39572 13.2813 5.39572 12.6185C5.39572 11.9558 5.93297 11.4185 6.59572 11.4185ZM17.3957 11.4185C18.0585 11.4185 18.5957 11.9558 18.5957 12.6185C18.5957 13.2813 18.0585 13.8185 17.3957 13.8185C16.733 13.8185 16.1957 13.2813 16.1957 12.6185C16.1957 11.9558 16.733 11.4185 17.3957 11.4185Z" fill="currentColor"/>
</svg>
