<svg width="24" height="24" viewBox="0 0 24 24" fill="currentColor" xmlns="http://www.w3.org/2000/svg">
<path fill-rule="evenodd" clip-rule="evenodd" d="M16.8012 1.80005H7.19882C6.88072 1.80005 6.5757 1.92672 6.35088 2.15176C6.12606 2.3768 5.99984 2.68194 6 3.00005V21C5.99967 21.6625 6.53637 22.1997 7.19878 22.2001H16.8012C17.1193 22.2001 17.4243 22.0734 17.6491 21.8483C17.8739 21.6233 18.0002 21.3182 18 21V3.00005C18.0003 2.33765 17.4636 1.80039 16.8012 1.80005ZM11.1 2.40005H12.9C13.0657 2.40005 13.2 2.53436 13.2 2.70005C13.2 2.86573 13.0657 3.00005 12.9 3.00005H11.1C10.9343 3.00005 10.8 2.86573 10.8 2.70005C10.8 2.53436 10.9343 2.40005 11.1 2.40005ZM12 21.6C11.6686 21.6 11.4 21.3314 11.4 21C11.4 20.6687 11.6686 20.4 12 20.4C12.3314 20.4 12.6 20.6687 12.6 21C12.6 21.3314 12.3314 21.6 12 21.6ZM16.8 19.8H7.2V3.60005H16.8V19.8ZM12.1846 12.2724L11.4858 11.5736C11.3894 11.4771 11.3894 11.3207 11.4858 11.2242L12.7818 9.92832C12.0861 9.63351 11.2832 9.76103 10.713 10.2569C10.1429 10.7527 9.90522 11.5302 10.1007 12.2601L8.73026 13.6303C8.54477 13.8159 8.52626 14.1104 8.68706 14.3178C8.90564 14.5995 9.15877 14.8526 9.4405 15.0712C9.6478 15.232 9.94236 15.2135 10.1279 15.028L11.4983 13.6577C12.2282 13.8531 13.0056 13.6155 13.5015 13.0453C13.9973 12.4752 14.1249 11.6723 13.83 10.9765L12.534 12.2725C12.4877 12.3189 12.4248 12.3449 12.3593 12.3449C12.2937 12.3448 12.2309 12.3188 12.1846 12.2724ZM13.2408 8.7523C12.2307 8.33388 13.4517 7.54824 12 7.54824C10.5483 7.54824 11.7688 8.33388 10.759 8.75218C9.74911 9.17047 10.0566 7.75205 9.03014 8.77841C8.00366 9.80477 9.42223 9.49714 9.00389 10.5073C8.58554 11.5174 7.8 10.2966 7.8 11.7483C7.79986 13.068 8.4491 12.1792 8.88154 12.7655L9.55138 12.0956C9.40098 11.0429 9.94111 10.012 10.8923 9.53641C11.8434 9.06083 12.9922 9.24725 13.7441 9.99921C14.4961 10.7512 14.6825 11.8999 14.2069 12.8511C13.7314 13.8022 12.7005 14.3424 11.6478 14.192L10.9772 14.8625C11.5745 15.2949 10.6763 15.9483 12 15.9483C13.4517 15.9483 12.2308 15.1628 13.2411 14.7444C14.2509 14.3261 13.9431 15.7447 14.9699 14.718C15.9967 13.6913 14.5773 13.9992 14.9957 12.9891C15.4141 11.979 16.1997 13.2 16.2 11.7483C16.2 10.2966 15.4142 11.5176 14.9958 10.5075C14.5774 9.49745 15.9963 9.80503 14.9698 8.77853C13.9434 7.75202 14.2507 9.17045 13.2408 8.7523Z" fill="currentColor"/>
</svg>
