<svg width="24" height="24" viewBox="0 0 24 24" fill="currentColor" xmlns="http://www.w3.org/2000/svg">
<path fill-rule="evenodd" clip-rule="evenodd" d="M19.8 3.6001H2.4V18.6001C2.4 19.5942 3.20589 20.4001 4.2 20.4001H21.6V5.4001C21.6 4.40599 20.7941 3.6001 19.8 3.6001ZM15.6 4.8001H17.4V6.6001H15.6V4.8001ZM12.6 4.8001H14.4V6.6001H12.6V4.8001ZM6.6 4.8001H8.4V6.6001H6.6V4.8001ZM3.6 4.8001H5.4V6.6001H3.6V4.8001ZM5.4 19.2001H3.6V17.4001H5.4V19.2001ZM8.4 19.2001H6.6V17.4001H8.4V19.2001ZM11.4 19.2001H9.6V17.4001H11.4V19.2001ZM11.4 15.6001C11.399 15.9311 11.131 16.1991 10.8 16.2001H4.2C3.86903 16.1991 3.60096 15.9311 3.6 15.6001V8.4001C3.60096 8.06913 3.86903 7.80106 4.2 7.8001H10.8C11.131 7.80106 11.399 8.06913 11.4 8.4001V15.6001ZM11.4 6.6001H9.6V4.8001H11.4V6.6001ZM14.4 19.2001H12.6V17.4001H14.4V19.2001ZM17.4 19.2001H15.6V17.4001H17.4V19.2001ZM20.4 19.2001H18.6V17.4001H20.4V19.2001ZM20.4 15.6001C20.399 15.9311 20.131 16.1991 19.8 16.2001H13.2C12.869 16.1991 12.601 15.9311 12.6 15.6001V8.4001C12.601 8.06913 12.869 7.80106 13.2 7.8001H19.8C20.131 7.80106 20.399 8.06913 20.4 8.4001V15.6001ZM20.4 6.6001H18.6V4.8001H20.4V6.6001Z" fill="currentColor"/>
</svg>
