<svg width="24" height="24" viewBox="0 0 24 24" fill="currentColor" xmlns="http://www.w3.org/2000/svg">
<path fill-rule="evenodd" clip-rule="evenodd" d="M19.2 4.1999H16.8V3.2879C16.8 2.79086 16.3971 2.3999 15.9 2.3999C15.4029 2.3999 15 2.80285 15 3.2999V4.1999H8.40026L8.39999 3.2999C8.39999 2.80285 7.99705 2.3999 7.49999 2.3999C7.00294 2.3999 6.59999 2.80285 6.59999 3.2999V4.1999H2.39999V19.1999C2.39999 20.194 3.20588 20.9999 4.19999 20.9999H21V5.9999C21 5.00579 20.1941 4.1999 19.2 4.1999ZM15 5.0999V6.2999C15 6.79696 15.4029 7.1999 15.9 7.1999C16.397 7.1999 16.8 6.79696 16.8 6.2999L16.7997 5.9999L16.8 5.1119C17.1774 5.39007 17.4001 5.83106 17.4 6.2999C17.4 7.00529 16.9085 7.61538 16.2193 7.76553C15.5301 7.91568 14.8293 7.56532 14.5359 6.92385C14.2425 6.28238 14.4357 5.52314 15 5.0999ZM6.59999 5.0999V6.2999C6.59999 6.79696 7.00294 7.1999 7.49999 7.1999C7.99705 7.1999 8.39999 6.79696 8.39999 6.2999V5.9999L8.40026 5.10007C8.91667 5.48754 9.12722 6.16199 8.92297 6.77444C8.71872 7.38689 8.14549 7.79995 7.49987 7.79989C6.85426 7.79983 6.28111 7.38667 6.07697 6.77417C5.87283 6.16168 6.08351 5.48728 6.59999 5.0999ZM19.8 12.5999H16.3489C16.4371 12.7949 16.5128 12.9953 16.5756 13.1999H19.8V16.1999H16.5756C16.5128 16.4045 16.4371 16.6049 16.3489 16.7999H19.8V19.7999H16.2V17.1014C16.0315 17.4164 15.8304 17.7128 15.6 17.9859V19.7999H12V19.7909C11.9007 19.7966 11.8008 19.7999 11.7 19.7999C11.5992 19.7999 11.4993 19.7966 11.4 19.7909V19.7999H7.79999V17.9859C7.56963 17.7128 7.36853 17.4164 7.19999 17.1014V19.7999H4.49999C4.00294 19.7999 3.59999 19.397 3.59999 18.8999V16.7999H7.05105C6.96287 16.6049 6.88715 16.4045 6.82435 16.1999H3.59999V13.1999H6.82435C6.88715 12.9953 6.96287 12.7949 7.05105 12.5999H3.59999V9.5999H7.19999V12.2984C7.36853 11.9834 7.56963 11.687 7.79999 11.4139V9.5999H11.4V9.60893C11.4993 9.60317 11.5992 9.5999 11.7 9.5999C11.8008 9.5999 11.9007 9.60317 12 9.60893V9.5999H15.6V11.4139C15.8304 11.687 16.0315 11.9834 16.2 12.2984V9.5999H18.6C19.2627 9.5999 19.8 10.1372 19.8 10.7999V12.5999ZM12 10.2101C11.9008 10.2036 11.8008 10.1999 11.7 10.1999C11.5992 10.1999 11.4992 10.2036 11.4 10.2101C9.0361 10.3675 7.19912 12.3308 7.19912 14.6999C7.19912 17.069 9.0361 19.0324 11.4 19.1897C11.4992 19.1962 11.5992 19.1999 11.7 19.1999C11.8008 19.1999 11.9008 19.1962 12 19.1897C14.3639 19.0324 16.2009 17.069 16.2009 14.6999C16.2009 12.3308 14.3639 10.3675 12 10.2101ZM11.4181 15.0924C11.4183 15.0927 11.4178 15.0922 11.4181 15.0924C11.4137 15.0881 11.4089 15.083 11.4048 15.0785C11.4031 15.0767 11.4016 15.0748 11.4 15.073C11.3995 15.0724 11.3991 15.0719 11.3987 15.0714C11.3966 15.069 11.3944 15.0666 11.3924 15.0642C11.39 15.0612 11.3876 15.0581 11.3852 15.055C11.3837 15.0531 11.3822 15.0512 11.3808 15.0493C11.3784 15.0459 11.376 15.0425 11.3735 15.039C11.3723 15.0373 11.371 15.0356 11.3699 15.0339C11.3674 15.0303 11.3652 15.0267 11.363 15.0231C11.3619 15.0213 11.3607 15.0196 11.3597 15.0178C11.3575 15.0143 11.3555 15.0106 11.3535 15.0071C11.3524 15.0051 11.3512 15.0031 11.3502 15.0012C11.3484 14.9978 11.3466 14.9944 11.3449 14.9909C11.3438 14.9885 11.3425 14.9863 11.3415 14.9839C11.34 14.9808 11.3386 14.9776 11.3372 14.9745C11.336 14.9718 11.3348 14.969 11.3336 14.9663C11.3325 14.9635 11.3314 14.9606 11.3303 14.9577C11.3292 14.9549 11.3279 14.9514 11.3267 14.9481C11.3258 14.9457 11.325 14.9432 11.3241 14.9407C11.3229 14.937 11.3217 14.9335 11.3206 14.9298C11.32 14.9276 11.3194 14.9254 11.3188 14.9232C11.3176 14.9192 11.3165 14.9153 11.3156 14.9113C11.315 14.9093 11.3146 14.9072 11.3141 14.9051C11.3132 14.901 11.3122 14.8969 11.3114 14.8928C11.311 14.8907 11.3107 14.8885 11.3103 14.8864C11.3096 14.8823 11.3088 14.8782 11.3082 14.8741C11.3079 14.8717 11.3076 14.8693 11.3073 14.8668C11.3068 14.863 11.3063 14.8592 11.3059 14.8554C11.3056 14.8521 11.3054 14.8488 11.3052 14.8456C11.305 14.8423 11.3047 14.8395 11.3045 14.8364C11.3042 14.83 11.304 14.8236 11.304 14.8172V11.9612C11.3057 11.7473 11.4796 11.5748 11.6935 11.5748C11.9073 11.5748 12.0812 11.7473 12.0829 11.9612V14.6558L13.4902 16.0631C13.6423 16.2152 13.6423 16.4618 13.4902 16.6138C13.3381 16.7659 13.0915 16.7659 12.9395 16.6138L12.5256 16.1999L12 15.6743L11.4181 15.0924Z" fill="currentColor"/>
</svg>
