<svg width="24" height="24" viewBox="0 0 24 24" fill="currentColor" xmlns="http://www.w3.org/2000/svg">
<path fill-rule="evenodd" clip-rule="evenodd" d="M8.55 8.80591C10.3189 8.80591 11.7529 7.37191 11.7529 5.60297C11.7529 3.83403 10.3189 2.40002 8.55 2.40002C6.78106 2.40002 5.34705 3.83403 5.34705 5.60297C5.34705 7.37191 6.78106 8.80591 8.55 8.80591ZM15.45 8.80591C17.2189 8.80591 18.6529 7.37191 18.6529 5.60297C18.6529 3.83403 17.2189 2.40002 15.45 2.40002C13.6811 2.40002 12.2471 3.83403 12.2471 5.60297C12.2471 7.37191 13.6811 8.80591 15.45 8.80591ZM18.2858 8.61173C16.6933 10.113 14.2067 10.113 12.6142 8.61173L12.6077 8.61494C12.2249 8.80503 11.7751 8.80503 11.3923 8.61494L11.3858 8.61173C9.79329 10.113 7.30671 10.113 5.71423 8.61173C4.41965 9.24863 3.59972 10.5661 3.6 12.0089V14.6294C3.6 15.5942 4.4352 16.368 5.4 16.368V21C5.4 21.6432 5.9568 22.2 6.6 22.2H10.056V19.272C9.77533 19.2716 9.50634 19.1596 9.30827 18.9608C9.1102 18.7619 8.9993 18.4925 9 18.2118V16.6236C8.99984 15.7491 9.49677 14.9507 10.2814 14.5647C11.2465 15.4745 12.7535 15.4745 13.7186 14.5647C14.5032 14.9507 15.0002 15.7491 15 16.6236V18.2118C15.0007 18.4925 14.8898 18.7619 14.6917 18.9608C14.4937 19.1596 14.2247 19.2716 13.944 19.272V22.2H17.4402C18.0834 22.2 18.6 21.6432 18.6 21V16.368C19.5648 16.368 20.4 15.5943 20.4 14.6294V12.0089C20.4003 10.5661 19.5803 9.24863 18.2858 8.61173ZM12 14.6824C11.2149 14.6824 10.507 14.2094 10.2066 13.4841C9.90609 12.7587 10.0722 11.9238 10.6273 11.3686C11.1825 10.8134 12.0175 10.6473 12.7428 10.9478C13.4682 11.2482 13.9412 11.9561 13.9412 12.7412C13.9412 13.256 13.7367 13.7498 13.3726 14.1138C13.0086 14.4779 12.5148 14.6824 12 14.6824Z" fill="currentColor"/>
</svg>
