<svg width="24" height="24" viewBox="0 0 24 24" fill="currentColor" xmlns="http://www.w3.org/2000/svg">
<path fill-rule="evenodd" clip-rule="evenodd" d="M20.1 6.6H10.8L9 4.2H2.4V18.3C2.4 19.1284 3.07157 19.8 3.9 19.8H21.6V8.1C21.6 7.27157 20.9284 6.6 20.1 6.6ZM12 9C9.68041 9 7.8 10.8804 7.8 13.2C7.8 15.5196 9.68041 17.4 12 17.4C14.3196 17.4 16.2 15.5196 16.2 13.2C16.2 12.0861 15.7575 11.0178 14.9699 10.2301C14.1822 9.4425 13.1139 9 12 9ZM15 12H13.2V10.2H10.8V12H9V14.4H10.8V16.2H13.2V14.4H15V12Z" fill="currentColor"/>
</svg>
