<svg width="24" height="24" viewBox="0 0 24 24" fill="currentColor" xmlns="http://www.w3.org/2000/svg">
<path fill-rule="evenodd" clip-rule="evenodd" d="M19.8 21H4.2C3.53726 21 3 20.4627 3 19.8V4.2C3 3.53726 3.53726 3 4.2 3H19.8C20.4627 3 21 3.53726 21 4.2V19.8C21 20.4627 20.4627 21 19.8 21ZM19.8 4.2H4.2V19.8H19.8V4.2ZM7.3086 14.6585L6.45982 13.8053L9.60382 13.7997C9.76192 13.8005 9.91329 13.8638 10.0248 13.9758C10.1365 14.0885 10.1994 14.2405 10.2 14.399L10.1945 17.5592L9.3457 16.7061L7.6481 18.4125C7.51338 18.5482 7.33006 18.6245 7.13882 18.6245C6.94759 18.6245 6.76427 18.5482 6.62954 18.4125L5.61101 17.3886C5.32973 17.1053 5.32973 16.6481 5.61101 16.3648L7.3086 14.6585ZM9.62501 10.2L6.46529 10.1944L7.31834 9.34577L5.61223 7.64846C5.47656 7.51375 5.40026 7.33045 5.40026 7.13926C5.40026 6.94806 5.47656 6.76477 5.61223 6.63005L6.636 5.61173C6.91929 5.33052 7.37638 5.33052 7.65967 5.61173L9.36578 7.30906L10.2188 6.46039L10.2244 9.60382C10.2236 9.7619 10.1603 9.91324 10.0482 10.0248C9.9356 10.1364 9.78361 10.1993 9.62501 10.2ZM13.9759 13.9752C14.0885 13.8636 14.2405 13.8007 14.3991 13.8L17.5593 13.8056L16.7061 14.6542L18.4125 16.3515C18.5482 16.4862 18.6245 16.6695 18.6245 16.8607C18.6245 17.0519 18.5482 17.2352 18.4125 17.3699L17.3887 18.3883C17.1053 18.6695 16.6482 18.6695 16.3649 18.3883L14.6585 16.6909L13.8053 17.5396L13.7997 14.3962C13.8005 14.2381 13.8638 14.0867 13.9759 13.9752ZM16.6914 9.36552L17.5402 10.2187L14.3962 10.2243C14.2381 10.2235 14.0867 10.1601 13.9752 10.0481C13.8635 9.93546 13.8006 9.78349 13.8 9.62491L13.8055 6.46471L14.6544 7.31789L16.352 5.61149C16.4867 5.47577 16.67 5.39944 16.8613 5.39944C17.0525 5.39944 17.2358 5.47577 17.3706 5.61149L18.3891 6.63533C18.6704 6.91864 18.6704 7.37583 18.3891 7.65914L16.6914 9.36552Z" fill="currentColor"/>
</svg>
