<svg width="24" height="24" viewBox="0 0 24 24" fill="currentColor" xmlns="http://www.w3.org/2000/svg">
<path fill-rule="evenodd" clip-rule="evenodd" d="M7.18798 1.80005H16.8C17.4627 1.80005 18 2.33731 18 3.00005V21C18 21.6628 17.4627 22.2001 16.8 22.2001H7.18798C6.52523 22.2001 5.98798 21.6628 5.98798 21V3.00005C5.98798 2.33731 6.52523 1.80005 7.18798 1.80005ZM7.19998 3.60005H16.8V19.8H7.19998V3.60005ZM12 20.4C12.3313 20.4 12.6 20.6687 12.6 21C12.6 21.3314 12.3313 21.6 12 21.6C11.6686 21.6 11.4 21.3314 11.4 21C11.4 20.6687 11.6686 20.4 12 20.4ZM11.1 2.40005H12.9C13.0657 2.40005 13.2 2.53436 13.2 2.70005C13.2 2.86573 13.0657 3.00005 12.9 3.00005H11.1C10.9343 3.00005 10.8 2.86573 10.8 2.70005C10.8 2.53436 10.9343 2.40005 11.1 2.40005ZM14.2483 10.7976L13.992 10.7992L13.9952 9.53849C13.9952 8.43912 13.0987 7.53662 11.9994 7.53662C10.8994 7.53762 10.0082 8.42951 10.008 9.52949L10.0072 10.7991L9.00028 10.7998V15.4596C8.99916 15.6572 9.07714 15.847 9.21683 15.9866C9.35652 16.1263 9.54631 16.2043 9.74386 16.2032H14.9999L15.0006 11.5373C15.0006 11.1234 14.6622 10.7976 14.2483 10.7976ZM12.3616 13.5131L12.496 14.8789H11.4966L11.631 13.5131C11.333 13.3468 11.1849 13.0002 11.2709 12.6699C11.3568 12.3396 11.655 12.109 11.9963 12.109C12.3376 12.109 12.6358 12.3396 12.7217 12.6699C12.8076 13.0002 12.6596 13.3468 12.3616 13.5131ZM13.2478 10.8005L10.7523 10.7998L10.752 9.55152C10.7499 9.21709 10.8803 8.89543 11.1146 8.65685C11.3486 8.42076 11.6669 8.28764 11.9993 8.28696C12.6867 8.29485 13.2416 8.85107 13.2478 9.53851V10.8005Z" fill="currentColor"/>
</svg>
