<svg width="24" height="24" viewBox="0 0 24 24" fill="currentColor" xmlns="http://www.w3.org/2000/svg">
<path fill-rule="evenodd" clip-rule="evenodd" d="M15 1.80005V5.40005C15 6.06279 15.4776 6.60005 16.0667 6.60005H19.8L15 1.80005ZM16.2 7.80005C14.8745 7.80005 13.8 6.72553 13.8 5.40005V1.80005H4.20001V20.9946C4.20001 20.9964 4.20001 20.9982 4.20001 21C4.20001 21.6628 4.73727 22.2001 5.40001 22.2001H19.8V7.80005H16.2ZM7.80001 15.6H16.2C16.5314 15.6 16.8 15.8687 16.8 16.2C16.8 16.5314 16.5314 16.8 16.2 16.8H7.80001C7.46864 16.8 7.20001 16.5314 7.20001 16.2C7.20001 15.8687 7.46864 15.6 7.80001 15.6ZM7.80001 12.6H16.2C16.5314 12.6 16.8 12.8687 16.8 13.2C16.8 13.5314 16.5314 13.8 16.2 13.8H7.80001C7.46864 13.8 7.20001 13.5314 7.20001 13.2C7.20001 12.8687 7.46864 12.6 7.80001 12.6ZM7.80001 18.6H12C12.3314 18.6 12.6 18.8687 12.6 19.2001C12.6 19.5314 12.3314 19.8 12 19.8H7.80001C7.46864 19.8 7.20001 19.5314 7.20001 19.2001C7.20001 18.8687 7.46864 18.6 7.80001 18.6ZM11.6194 7.99925C11.8508 7.99925 12.016 7.94459 12.115 7.83528C12.2141 7.72597 12.2637 7.55198 12.2637 7.31333C12.2659 6.87502 12.1541 6.44366 11.939 6.0617C11.7279 5.68003 11.4184 5.36191 11.0427 5.14047C10.6631 4.91397 10.2287 4.7962 9.78671 4.80005C9.32501 4.79607 8.8714 4.92126 8.4771 5.16149C8.08398 5.39841 7.76085 5.7355 7.54076 6.13829C7.31403 6.54673 7.19665 7.00682 7.20001 7.47396C7.20001 8.19434 7.38728 8.78216 7.7618 9.23741C8.01684 9.54782 8.34145 9.79375 8.7093 9.95525C9.08097 10.1189 9.48296 10.2024 9.88907 10.2004C10.5233 10.2004 11.0859 10.0604 11.577 9.78036C11.9798 9.55044 12.1812 9.29466 12.1812 9.01303C12.1803 8.90653 12.1491 8.80249 12.0913 8.71303C12.0318 8.61678 11.9483 8.53757 11.8491 8.48309C11.7542 8.42823 11.6467 8.39894 11.5371 8.39808C11.4378 8.40436 11.3404 8.42889 11.25 8.47044L10.8205 8.68495C10.5575 8.8189 10.2667 8.88897 9.97158 8.88948C9.71621 8.89149 9.46749 8.80809 9.26495 8.65253C9.07018 8.51784 8.92037 8.3 8.81552 7.99901L11.6194 7.99925ZM8.76548 6.97368C8.97188 6.34502 9.30564 6.03069 9.76674 6.03067C10.2894 6.03067 10.6307 6.34501 10.7905 6.97368H8.76548Z" fill="currentColor"/>
</svg>
