<svg width="24" height="24" viewBox="0 0 24 24" fill="currentColor" xmlns="http://www.w3.org/2000/svg">
<path d="M21 8.69385C21 7.36836 19.9255 6.29385 18.6 6.29385H13.1976C13.1989 6.33587 13.1997 6.37785 13.1999 6.42018V6.43242C13.1999 7.36362 12.8794 7.98297 12.5083 8.69999C12.5035 8.70943 12.4984 8.71871 12.493 8.72783L10.3769 12.335C10.9918 13.0654 10.9294 14.1488 10.2349 14.8038C9.5403 15.4588 8.45513 15.4576 7.76201 14.8011C7.06889 14.1445 7.00898 13.061 7.62547 12.332L5.51758 8.72718C5.51236 8.71827 5.50739 8.70924 5.50267 8.70009L5.48525 8.66649C5.11762 7.95594 4.8 7.34238 4.8 6.43242C4.8 6.41133 4.80046 6.39033 4.80077 6.36928C3.74075 6.64297 3 7.59906 3 8.69385V18.8938C3 20.2193 4.07452 21.2938 5.4 21.2938H18.6C19.9255 21.2938 21 20.2193 21 18.8938V10.9909L20.2992 10.2902L21 9.58955V8.69385ZM10.3356 16.2685L11.3319 15.2721L12.3283 16.2685L11.3319 17.2649L10.3356 16.2685ZM13.3248 19.2576L12.3283 18.2612L13.3248 17.2649L14.3212 18.2612L13.3248 19.2576ZM15.3176 17.2649L14.3211 16.2685L15.3174 15.2721L16.3138 16.2685L15.3176 17.2649ZM17.3103 15.2721L16.3139 14.2757L17.3103 13.2794L18.3067 14.2757L17.3103 15.2721ZM19.3031 13.2794L18.3067 12.283L19.3031 11.2866L20.2994 12.283L19.3031 13.2794ZM8.09162 11.9402L9 13.4938H9.00163L9.912 11.9421L11.9757 8.42423C12.3363 7.72722 12.6 7.20926 12.6 6.43242C12.6 6.4288 12.6 6.42522 12.6 6.42158C12.6 6.37881 12.5988 6.33628 12.5973 6.29385C12.527 4.29225 10.9471 2.69385 9.01094 2.69385H9C7.07345 2.69385 5.47406 4.30317 5.40278 6.29385C5.40113 6.33986 5.4 6.38601 5.4 6.43242C5.4 7.20885 5.67494 7.72722 6.03566 8.42423L8.09162 11.9402ZM9 5.09385C9.66274 5.09385 10.2 5.63111 10.2 6.29385C10.2 6.95659 9.66274 7.49385 9 7.49385C8.33726 7.49385 7.8 6.95659 7.8 6.29385C7.8 5.63111 8.33726 5.09385 9 5.09385Z" fill="currentColor"/>
</svg>
