<svg width="24" height="24" viewBox="0 0 24 24" fill="currentColor" xmlns="http://www.w3.org/2000/svg">
<path fill-rule="evenodd" clip-rule="evenodd" d="M18.1211 16.0861H15.6195V14.7437L13.047 17.0068L12.2896 17.6665C12.0769 17.8517 12.0769 18.1548 12.2896 18.3399L13.047 18.9997L15.6195 21.2723V19.93H18.1211C18.8168 19.93 19.3654 19.3601 19.3654 18.6644C19.3654 18.4426 19.3065 18.2248 19.1947 18.0332C19.1947 18.0305 18.1211 16.0861 18.1211 16.0861ZM21.6203 13.178L21.6235 13.1759L19.7379 10.207L16.3667 12.0563L19.9087 18.0454L21.5128 15.3387C21.9576 14.6978 21.9992 13.8599 21.6203 13.178ZM5.66094 15.4865L6.85734 13.2776L7.98345 13.8894L7.25298 10.6086L7.03458 9.62798C6.97341 9.35282 6.70701 9.20812 6.44284 9.30657L5.50165 9.65733L2.35204 10.8309L3.47838 11.4426L2.31733 13.5804L2.31493 13.585C2.30701 13.5995 2.30207 13.6145 2.29475 13.6293C2.28837 13.6402 2.28117 13.6505 2.275 13.6616C1.943 14.273 2.16948 15.0378 2.78087 15.3698C2.98319 15.4797 3.18887 15.4927 3.40345 15.4865C3.40595 15.4881 5.66094 15.4865 5.66094 15.4865ZM6.57625 19.9317H10.3061V16.0877H3.08994L4.71553 18.7943C4.90281 19.1668 5.19967 19.4731 5.56621 19.672C5.87578 19.8419 6.22312 19.9312 6.57625 19.9317ZM12.4414 5.44576L13.7431 7.63737L12.6412 8.29178L15.8337 9.34348L16.7877 9.65772C17.0556 9.74594 17.3161 9.59131 17.3666 9.31404L17.5471 8.32586L18.1512 5.0194L17.049 5.67391L15.8067 3.58231L15.8043 3.57789C15.7957 3.56368 15.7855 3.55164 15.7766 3.53781C15.7704 3.52684 15.7654 3.51532 15.7588 3.50421C15.5293 3.11656 15.1099 2.88127 14.6594 2.88732C14.209 2.89338 13.7961 3.13986 13.5771 3.53354C13.5744 3.5351 12.4414 5.44576 12.4414 5.44576ZM8.12752 3.90367L8.12397 3.90218L6.25333 6.98776L9.5649 8.94184L13.1866 2.89L10.011 2.88775C9.58377 2.88775 9.22458 2.97153 8.85177 3.19281C8.54137 3.37718 8.29727 3.61245 8.12752 3.90367Z" fill="currentColor"/>
</svg>
