<svg width="24" height="24" viewBox="0 0 24 24" fill="currentColor" xmlns="http://www.w3.org/2000/svg">
<path fill-rule="evenodd" clip-rule="evenodd" d="M21.9135 14.079L19.1285 7.38513C18.6624 6.18841 17.5098 5.4002 16.2255 5.39978H7.72644C6.44196 5.40042 5.28925 6.18849 4.82244 7.38513L2.03844 14.079C1.86479 14.4747 1.77544 14.9021 1.77607 15.3342C1.77607 17.0577 3.17047 18.6003 4.89271 18.6003C6.21208 18.6003 7.34124 17.73 7.79572 16.5679L7.87444 16.3783C8.17622 15.6535 8.886 15 9.71997 15H14.256C15.0899 15 15.7757 15.6544 16.0776 16.38L16.1563 16.5677C16.6099 17.7298 17.738 18.6001 19.0593 18.6001C20.7797 18.6001 22.1759 17.0575 22.1759 15.334C22.1765 14.902 22.0871 14.4746 21.9135 14.079ZM10.2 11.4H8.99997V12.6C8.99997 13.1 8.59437 13.512 8.10016 13.512C7.60413 13.512 7.19997 13.1 7.19997 12.6V11.4H5.99997C5.7626 11.3994 5.5353 11.304 5.36856 11.135C5.20183 10.9661 5.10946 10.7375 5.11192 10.5002C5.11192 10.0001 5.50492 9.6 5.99997 9.6H7.19997V8.4C7.19997 7.90101 7.60413 7.48828 8.10016 7.48828C8.59437 7.48828 8.99997 7.90101 8.99997 8.4V9.6H10.2C10.695 9.6 11.0884 10.0001 11.0884 10.5002C11.0908 10.7376 10.9983 10.9661 10.8315 11.1351C10.6647 11.304 10.4374 11.3994 10.2 11.4ZM13.7888 11.4003C13.4245 11.4007 13.0959 11.1816 12.9562 10.8452C12.8166 10.5087 12.8934 10.1213 13.1509 9.86366C13.4084 9.606 13.7958 9.52891 14.1323 9.66835C14.4688 9.80779 14.6882 10.1363 14.688 10.5005C14.6874 10.997 14.2853 11.3995 13.7888 11.4003ZM15.901 13.488C15.5369 13.4884 15.2085 13.2695 15.0688 12.9334C14.9292 12.5972 15.0058 12.21 15.263 11.9524C15.5202 11.6947 15.9072 11.6174 16.2436 11.7565C16.58 11.8956 16.7995 12.2236 16.7997 12.5876C16.7999 13.0844 16.3977 13.4873 15.901 13.488ZM15.901 9.31176C15.5369 9.31216 15.2085 9.09319 15.0689 8.757C14.9294 8.4208 15.0061 8.03362 15.2634 7.77608C15.5206 7.51853 15.9077 7.44137 16.2441 7.58059C16.5804 7.71981 16.7997 8.04797 16.7997 8.412C16.7996 8.9085 16.3975 9.31108 15.901 9.31176ZM17.9868 11.4003C17.4896 11.3997 17.087 10.9963 17.0874 10.4992C17.0879 10.002 17.4912 9.59936 17.9884 9.59973C18.4855 9.60011 18.8883 10.0034 18.888 10.5005C18.8878 10.7394 18.7928 10.9684 18.6238 11.1371C18.4548 11.3059 18.2256 11.4005 17.9868 11.4003Z" fill="currentColor"/>
</svg>
