<svg width="24" height="24" viewBox="0 0 24 24" fill="currentColor" xmlns="http://www.w3.org/2000/svg">
<path fill-rule="evenodd" clip-rule="evenodd" d="M8.25248 13.8834C8.24632 13.8766 8.24003 13.87 8.2335 13.8634C8.03185 13.6616 7.71848 13.6237 7.47445 13.7714C7.23042 13.9192 7.11884 14.2144 7.20419 14.4867C7.28953 14.7589 7.54973 14.9376 7.83443 14.9196C7.8165 15.2042 7.99523 15.4643 8.26738 15.5496C8.53952 15.6349 8.83473 15.5233 8.98246 15.2794C9.13019 15.0354 9.09225 14.7221 8.89057 14.5205C8.88404 14.514 8.87735 14.5077 8.8706 14.5015C8.91871 14.4791 8.96256 14.4484 9.0002 14.411L9.71466 13.6965C9.79451 13.7322 9.87805 13.759 9.96378 13.7764V13.787C9.96572 14.449 10.5018 14.9851 11.1638 14.987H12.7904C13.4523 14.9851 13.9885 14.449 13.9904 13.787V13.7846C14.0692 13.7719 14.1465 13.7513 14.2211 13.7231L14.9555 14.4575C14.9931 14.4949 15.0369 14.5256 15.085 14.5481C15.0783 14.5542 15.0716 14.5605 15.065 14.567C14.8632 14.7687 14.8252 15.082 14.973 15.3261C15.1207 15.5701 15.416 15.6817 15.6882 15.5963C15.9604 15.511 16.1392 15.2508 16.1212 14.9661C16.4058 14.984 16.6659 14.8053 16.7512 14.5332C16.8365 14.261 16.7249 13.9658 16.481 13.8181C16.237 13.6704 15.9238 13.7083 15.7221 13.9099C15.7156 13.9165 15.7093 13.9232 15.7031 13.9299C15.6806 13.8819 15.65 13.8381 15.6126 13.8005L14.8968 13.0848C14.9649 12.9323 15 12.7671 15 12.6V12.0071C15.3606 11.0972 15.2931 10.0734 14.8163 9.21876L15.6109 8.42405C15.6484 8.3864 15.679 8.34256 15.7015 8.29445C15.7076 8.30119 15.7139 8.30789 15.7204 8.31442C15.9221 8.5162 16.2354 8.5542 16.4795 8.40645C16.7235 8.25871 16.8351 7.96342 16.7497 7.69121C16.6644 7.41901 16.4042 7.24027 16.1195 7.25827C16.1375 6.97364 15.9587 6.71355 15.6866 6.62825C15.4144 6.54295 15.1192 6.6545 14.9715 6.89845C14.8238 7.1424 14.8617 7.4557 15.0634 7.65734C15.0699 7.66387 15.0766 7.67016 15.0833 7.67633C15.0353 7.6988 14.9915 7.72943 14.9539 7.76686L14.2455 8.47541C12.983 7.2459 10.9709 7.2459 9.70842 8.47541L8.99999 7.76707C8.96234 7.72963 8.91849 7.69901 8.87039 7.67654C8.87713 7.67038 8.88383 7.66409 8.89036 7.65756C9.09214 7.45591 9.13014 7.14254 8.98239 6.89851C8.83463 6.65449 8.53934 6.54291 8.26713 6.62825C7.99493 6.71359 7.8162 6.97379 7.83421 7.25849C7.54958 7.24055 7.28949 7.41928 7.20419 7.69142C7.11889 7.96357 7.23044 8.25878 7.47439 8.40651C7.71834 8.55425 8.03164 8.51632 8.23328 8.31463C8.23981 8.3081 8.2461 8.30141 8.25227 8.29466C8.27473 8.34277 8.30536 8.38662 8.3428 8.42426L9.13744 9.21888C8.64023 10.1099 8.58935 11.1825 8.99999 12.1165V12.6C8.99993 12.7436 9.02589 12.886 9.0766 13.0203L8.34301 13.7539C8.30559 13.7915 8.27496 13.8353 8.25248 13.8834ZM11.977 8.17274C12.8614 8.17315 13.6867 8.61743 14.1739 9.35555C14.6612 10.0937 14.7455 11.0271 14.3984 11.8406V12.6C14.3974 12.931 14.1294 13.1991 13.7984 13.2H13.3708V13.8156C13.3698 14.1465 13.1018 14.4146 12.7708 14.4156H11.1831C10.8522 14.4146 10.5841 14.1465 10.5831 13.8156V13.2H10.2C9.86902 13.1991 9.60095 12.931 9.59999 12.6V11.9388C9.21151 11.123 9.2684 10.1649 9.75069 9.40078C10.233 8.63663 11.0734 8.17308 11.977 8.17274ZM11.8105 13.4383H12.1435C12.2125 13.4383 12.2774 13.4051 12.3178 13.3491C12.3582 13.2931 12.3692 13.2211 12.3473 13.1555L12.1808 12.656C12.1516 12.5683 12.0695 12.5091 11.977 12.5091C11.8845 12.5091 11.8024 12.5683 11.7731 12.656L11.6066 13.1555C11.5848 13.221 11.5958 13.2931 11.6361 13.3491C11.6765 13.4051 11.7414 13.4383 11.8105 13.4383ZM13.2159 12.5091C13.5291 12.5091 13.8115 12.3205 13.9314 12.0311C14.0512 11.7417 13.985 11.4087 13.7635 11.1872C13.542 10.9657 13.209 10.8995 12.9196 11.0193C12.6302 11.1392 12.4416 11.4216 12.4416 11.7348C12.4416 12.1624 12.7883 12.5091 13.2159 12.5091ZM10.738 12.5091C11.0512 12.5091 11.3336 12.3205 11.4534 12.0311C11.5733 11.7417 11.507 11.4087 11.2856 11.1872C11.0641 10.9657 10.731 10.8995 10.4417 11.0193C10.1523 11.1392 9.96366 11.4216 9.96366 11.7348C9.96366 11.9401 10.0452 12.1371 10.1905 12.2823C10.3357 12.4275 10.5326 12.5091 10.738 12.5091ZM13.8 18C13.8 18.3314 13.5314 18.6 13.2 18.6H10.8C10.4686 18.6 10.2 18.3314 10.2 18H1.79999V19.2C1.79999 19.5314 2.06862 19.8 2.39999 19.8H21.6C21.9314 19.8 22.2 19.5314 22.2 19.2V18H13.8ZM21 15.6C21.0001 15.592 21 15.5841 21 15.576V6.00005C21 5.33731 20.4627 4.80005 19.8 4.80005H4.19999C3.53725 4.80005 2.99999 5.33731 2.99999 6.00005V15.576C2.99999 15.5841 3.00044 15.592 3.00059 15.6L2.99999 17.4H21V15.6ZM19.8 16.2H4.19999V6.00005H19.8V16.2Z" fill="currentColor"/>
</svg>
