<svg width="24" height="24" viewBox="0 0 24 24" fill="currentColor" xmlns="http://www.w3.org/2000/svg">
<path fill-rule="evenodd" clip-rule="evenodd" d="M12 1.79999C6.36674 1.79999 1.80005 6.36668 1.80005 12C1.80005 17.6333 6.36674 22.2 12 22.2C17.6334 22.2 22.2001 17.6333 22.2001 12C22.2001 6.36668 17.6334 1.79999 12 1.79999ZM16.8762 5.39999C17.4332 5.39994 17.9354 5.73546 18.1486 6.2501C18.3619 6.76474 18.244 7.35714 17.8502 7.75105C17.4563 8.14496 16.8639 8.26281 16.3492 8.04964C15.8346 7.83646 15.499 7.33426 15.499 6.7772C15.499 6.41196 15.6441 6.06166 15.9024 5.80338C16.1606 5.54511 16.5109 5.39999 16.8762 5.39999ZM18.9419 13.2042H15.7285C15.5459 13.2042 15.3708 13.1317 15.2416 13.0025C15.1125 12.8734 15.04 12.6983 15.04 12.5156V10.9646L13.489 12.5156L16.2154 15.2422C16.2235 15.2502 16.2313 15.2585 16.2389 15.2669C16.2425 15.2709 16.2459 15.275 16.2494 15.2789C16.2533 15.2834 16.2572 15.2878 16.2609 15.2923C16.2652 15.2975 16.2692 15.3028 16.2733 15.3081C16.2761 15.3117 16.2788 15.3151 16.2815 15.3187C16.2859 15.3246 16.29 15.3307 16.2942 15.3366C16.2964 15.3397 16.2986 15.3428 16.3008 15.346C16.3049 15.3522 16.3089 15.3585 16.3128 15.3648C16.3147 15.368 16.3168 15.3711 16.3187 15.3744C16.3224 15.3806 16.3259 15.3869 16.3295 15.3932C16.3315 15.3967 16.3335 15.4003 16.3354 15.4038C16.3386 15.4098 16.3416 15.4158 16.3446 15.4218C16.3467 15.426 16.3488 15.4301 16.3508 15.4343C16.3534 15.4398 16.3559 15.4454 16.3583 15.4509C16.3605 15.4557 16.3627 15.4606 16.3647 15.4656C16.3668 15.4705 16.3686 15.4755 16.3706 15.4805C16.3728 15.4862 16.375 15.4918 16.377 15.4975C16.3786 15.5019 16.38 15.5063 16.3815 15.5107C16.3836 15.5171 16.3857 15.5235 16.3877 15.5299C16.3889 15.5338 16.3899 15.5377 16.391 15.5416C16.393 15.5486 16.3949 15.5555 16.3967 15.5625C16.3975 15.5662 16.3983 15.5697 16.3991 15.5735C16.4007 15.5807 16.4024 15.588 16.4039 15.5954C16.4046 15.5991 16.4052 15.6028 16.4058 15.6065C16.4071 15.6137 16.4084 15.6209 16.4095 15.6283C16.4101 15.6326 16.4106 15.6369 16.4112 15.6412C16.412 15.648 16.4129 15.6547 16.4136 15.6615C16.4141 15.6673 16.4144 15.673 16.4148 15.6788C16.4153 15.6846 16.4158 15.6896 16.416 15.695C16.4166 15.7064 16.4169 15.7177 16.4169 15.7291C16.4169 15.7404 16.4166 15.7518 16.416 15.7631C16.4158 15.7685 16.4153 15.7739 16.4148 15.7793C16.4144 15.7847 16.4141 15.7909 16.4136 15.7966C16.4129 15.8034 16.412 15.8102 16.4112 15.8169C16.4106 15.8212 16.4101 15.8255 16.4095 15.8298C16.4084 15.8371 16.4071 15.8443 16.4058 15.8516C16.4052 15.8553 16.4046 15.859 16.4039 15.8628C16.4024 15.8701 16.4007 15.8774 16.3991 15.8847C16.3982 15.8883 16.3974 15.8919 16.3967 15.8956C16.3949 15.9026 16.393 15.9096 16.391 15.9165C16.3899 15.9204 16.3889 15.9243 16.3877 15.9282C16.3857 15.9347 16.3836 15.9411 16.3815 15.9474C16.38 15.9518 16.3786 15.9562 16.377 15.9606C16.375 15.9663 16.3728 15.972 16.3706 15.9776C16.3687 15.9826 16.3668 15.9876 16.3647 15.9926C16.3626 15.9975 16.3605 16.0023 16.3583 16.0072C16.3559 16.0128 16.3535 16.0184 16.3508 16.0239C16.3488 16.0281 16.3467 16.0322 16.3446 16.0363C16.3416 16.0423 16.3386 16.0483 16.3354 16.0543C16.3335 16.0579 16.3315 16.0615 16.3295 16.0649C16.326 16.0713 16.3223 16.0775 16.3187 16.0838C16.3168 16.087 16.3147 16.0901 16.3128 16.0934C16.3088 16.0997 16.3048 16.106 16.3008 16.1122C16.2986 16.1154 16.2964 16.1184 16.2942 16.1216C16.29 16.1276 16.2859 16.1336 16.2815 16.1395C16.2788 16.143 16.2761 16.1465 16.2734 16.1499C16.2693 16.1553 16.2652 16.1606 16.2609 16.1658C16.2572 16.1704 16.2533 16.1748 16.2494 16.1792C16.2459 16.1833 16.2425 16.1873 16.2389 16.1912C16.2237 16.2081 16.2076 16.2241 16.1908 16.2394C16.1868 16.243 16.1828 16.2463 16.1788 16.2498C16.1743 16.2537 16.1698 16.2576 16.1652 16.2614C16.1601 16.2656 16.1548 16.2697 16.1495 16.2738C16.146 16.2765 16.1425 16.2793 16.1389 16.2819C16.133 16.2863 16.127 16.2905 16.121 16.2946C16.1179 16.2969 16.1148 16.2991 16.1116 16.3012C16.1054 16.3054 16.0991 16.3093 16.0928 16.3132C16.0896 16.3152 16.0865 16.3173 16.0832 16.3192C16.077 16.3229 16.0708 16.3264 16.0645 16.33C16.0609 16.332 16.0573 16.334 16.0538 16.3359C16.0478 16.3391 16.0418 16.3421 16.0359 16.3451C16.0317 16.3472 16.0275 16.3493 16.0233 16.3513C16.0178 16.3539 16.0123 16.3563 16.0068 16.3588C16.002 16.361 15.997 16.3631 15.992 16.3652C15.987 16.3673 15.9822 16.3691 15.9772 16.3711C15.9715 16.3733 15.9658 16.3755 15.9601 16.3775C15.9557 16.3791 15.9514 16.3805 15.947 16.382C15.9406 16.3841 15.9342 16.3862 15.9278 16.3882C15.9239 16.3893 15.92 16.3904 15.9161 16.3915C15.9091 16.3935 15.9022 16.3954 15.8951 16.3971C15.8915 16.3981 15.8879 16.3988 15.8842 16.3995C15.877 16.4012 15.8696 16.4029 15.8623 16.4043C15.8586 16.4051 15.8549 16.4057 15.8512 16.4063C15.844 16.4076 15.8367 16.4089 15.8293 16.41C15.825 16.4107 15.8208 16.4111 15.8165 16.4116C15.8097 16.4125 15.803 16.4134 15.7962 16.414C15.7904 16.4146 15.7846 16.4149 15.7789 16.4153C15.7735 16.4157 15.7681 16.4163 15.7626 16.4165C15.7516 16.4171 15.7405 16.4173 15.7294 16.4174H11.1382C10.7579 16.4174 10.4496 16.1091 10.4496 15.7287C10.4496 15.3484 10.7579 15.0401 11.1382 15.0401H14.0662L11.5972 12.5713L6.57552 17.5933C6.30661 17.8622 5.87063 17.8622 5.60172 17.5933C5.33283 17.3244 5.33283 16.8884 5.60172 16.6195L13.6072 8.61359L12.5037 7.51004L10.7069 9.30697C10.5329 9.48092 10.2794 9.54885 10.0418 9.48517C9.80415 9.42149 9.61855 9.23587 9.55488 8.99824C9.49122 8.76061 9.55917 8.50707 9.73313 8.33312L12.0053 6.06083C12.2833 5.79225 12.7241 5.79225 13.0021 6.06083L16.2154 9.27443C16.2235 9.28247 16.2313 9.29072 16.2389 9.29915C16.2426 9.30316 16.246 9.30728 16.2495 9.31134C16.2533 9.31576 16.2571 9.3201 16.2609 9.32461C16.2652 9.32987 16.2693 9.33522 16.2734 9.34057C16.2761 9.34405 16.2788 9.34744 16.2815 9.35094C16.2859 9.35687 16.29 9.36294 16.2942 9.36894C16.2964 9.37206 16.2986 9.37511 16.3007 9.37825C16.3049 9.38449 16.3089 9.3908 16.3127 9.39714C16.3147 9.40031 16.3167 9.40343 16.3187 9.40674C16.3224 9.41296 16.3259 9.41924 16.3295 9.42556C16.3315 9.42911 16.3335 9.43259 16.3354 9.43616C16.3386 9.44214 16.3416 9.44816 16.3446 9.45419C16.3467 9.45832 16.3488 9.46244 16.3508 9.46662C16.3534 9.47214 16.3559 9.47771 16.3583 9.48325C16.3605 9.48805 16.3626 9.493 16.3647 9.49792C16.3667 9.50284 16.3686 9.50785 16.3706 9.51284C16.3728 9.51851 16.375 9.52415 16.377 9.52988C16.3785 9.53425 16.38 9.53867 16.3814 9.54306C16.3836 9.54944 16.3857 9.5558 16.3876 9.56226C16.3888 9.56617 16.3899 9.57013 16.391 9.57407C16.393 9.58098 16.3949 9.58792 16.3966 9.59492C16.3975 9.5986 16.3983 9.60227 16.399 9.60594C16.4007 9.61314 16.4024 9.62034 16.4038 9.62778C16.4046 9.6315 16.4052 9.63524 16.4058 9.63899C16.4071 9.64619 16.4084 9.65339 16.4095 9.66059C16.4101 9.66496 16.4106 9.6693 16.4112 9.67367C16.412 9.68034 16.4129 9.68701 16.4136 9.69376C16.4141 9.69961 16.4145 9.70549 16.4149 9.71135C16.4153 9.71668 16.4158 9.72196 16.416 9.72728C16.4166 9.73866 16.4169 9.75004 16.4169 9.76141V11.8272H18.9417C19.3178 11.833 19.6196 12.1395 19.6196 12.5156C19.6196 12.8918 19.3179 13.1983 18.9419 13.2042Z" fill="currentColor"/>
</svg>
