<svg width="24" height="24" viewBox="0 0 24 24" fill="currentColor" xmlns="http://www.w3.org/2000/svg">
<path fill-rule="evenodd" clip-rule="evenodd" d="M20.4 3H3.6C3.26863 3 3 3.26863 3 3.6V20.4C3 20.7314 3.26863 21 3.6 21H20.4C20.7314 21 21 20.7314 21 20.4V3.6C21 3.26863 20.7314 3 20.4 3ZM4.8 12C4.80003 11.5694 5.03083 11.1717 5.40476 10.9581C5.77869 10.7445 6.23842 10.7476 6.60941 10.9663L4.96634 12.6094C4.8572 12.4249 4.79974 12.2144 4.8 12ZM6 13.2C5.78562 13.2003 5.57513 13.1428 5.39062 13.0337L7.03366 11.3906C7.25236 11.7616 7.2555 12.2213 7.04188 12.5952C6.82826 12.9692 6.43065 13.2 6 13.2ZM14.4 15V16.2C14.4 16.5314 14.1314 16.8 13.8 16.8H10.2C9.86863 16.8 9.6 16.5314 9.6 16.2V7.8C9.6 7.46863 9.86863 7.2 10.2 7.2H13.8C14.1314 7.2 14.4 7.46863 14.4 7.8V15ZM16.8 12C16.8 11.5694 17.0308 11.1717 17.4048 10.9581C17.7787 10.7445 18.2384 10.7476 18.6094 10.9663L16.9663 12.6094C16.8572 12.4249 16.7997 12.2144 16.8 12ZM18 13.2C17.7856 13.2003 17.5751 13.1428 17.3906 13.0337L19.0337 11.3906C19.2524 11.7616 19.2555 12.2213 19.0419 12.5952C18.8283 12.9692 18.4306 13.2 18 13.2ZM10.2 15H13.8V7.8H10.2V15Z" fill="currentColor"/>
</svg>
