<svg width="24" height="24" viewBox="0 0 24 24" fill="currentColor" xmlns="http://www.w3.org/2000/svg">
<path fill-rule="evenodd" clip-rule="evenodd" d="M20 4H2V17.2C2 18.5255 3.07452 19.6 4.4 19.6H22.4V6.4C22.4 5.07452 21.3255 4 20 4ZM7.4 6.4C8.72548 6.4 9.8 7.47452 9.8 8.8C9.8 10.1255 8.72548 11.2 7.4 11.2C6.07452 11.2 5 10.1255 5 8.8C5 7.47452 6.07452 6.4 7.4 6.4ZM11 17.8H5.6C4.60589 17.8 3.8 16.9941 3.8 16V14.2C3.79941 12.9492 4.44852 11.7879 5.51422 11.1331C6.61416 12.0223 8.18584 12.0223 9.28578 11.1331C10.3515 11.7879 11.0006 12.9492 11 14.2V17.8ZM20 16H18.2V17.8L16.7 16.3L15.2 17.8V16H13.4L14.9 14.5L13.4 13H15.2V11.2L16.7 12.7L18.2 11.2V13H20L18.5 14.5L20 16ZM19.4 10H14C13.6686 10 13.4 9.73137 13.4 9.4C13.4 9.06863 13.6686 8.8 14 8.8H19.4C19.7314 8.8 20 9.06863 20 9.4C20 9.73137 19.7314 10 19.4 10ZM19.4 7.6H14C13.6686 7.6 13.4 7.33137 13.4 7C13.4 6.66863 13.6686 6.4 14 6.4H19.4C19.7314 6.4 20 6.66863 20 7C20 7.33137 19.7314 7.6 19.4 7.6ZM7.64 12.28H7.16L6.44 15.88L7.4 16.84L8.36 15.88L7.64 12.28Z" fill="currentColor"/>
</svg>
