<svg width="24" height="24" viewBox="0 0 24 24" fill="currentColor" xmlns="http://www.w3.org/2000/svg">
<path fill-rule="evenodd" clip-rule="evenodd" d="M16.0608 6.60005H19.8L15 1.80005V5.40005C15 6.06276 15.4719 6.60005 16.0608 6.60005ZM22.6562 12.3833C22.6488 12.1543 22.5541 11.9368 22.3914 11.7754L21.3587 10.7422L20.9348 10.3181L20.5107 10.7421L19.8 11.448V7.80005H16.1939C15.5581 7.79967 14.9485 7.5465 14.4994 7.09632C14.0504 6.64614 13.7988 6.0359 13.8 5.40005V1.80005H4.19977V20.9946C4.19977 20.9965 4.19977 20.9982 4.19977 21C4.19977 21.6626 4.73669 22.2001 5.39926 22.2001H19.8V15.624L22.3822 13.0416C22.3912 13.0332 22.4001 13.0244 22.409 13.0151C22.5733 12.8465 22.6627 12.6186 22.6562 12.3833ZM9.48051 13.6278C9.28371 13.319 8.94512 12.207 8.86594 12.2102C8.8391 12.2125 8.8149 12.2273 8.80054 12.2501C8.78346 12.2731 6.90289 15.3505 6.83754 15.3965L6.11341 14.5536C6.68132 13.7851 7.99436 11.6948 8.13034 11.5588C9.55114 10.1373 10.0115 12.6469 10.133 12.8933C10.461 12.3365 12.076 9.06806 12.2766 9.06773C12.566 9.06722 13.8182 10.8511 14.2854 11.4035C14.4285 11.5727 14.9667 12.075 15.459 12.0747C16.4879 12.0741 18.3694 9.68234 18.3694 9.68234C17.9825 10.4055 16.8782 12.8425 15.3396 13.0145C14.6235 13.0945 14.2356 12.7347 13.9982 12.5446C13.1102 11.8328 12.6178 10.5137 12.377 10.5137C12.3247 10.5137 12.3165 10.5441 12.2996 10.5671C12.2887 10.5817 11.2184 13.3653 11.0777 13.5712C10.7607 14.0347 9.95163 14.3671 9.48051 13.6278ZM20.6317 13.9395C20.6283 13.9435 20.6246 13.9472 20.6206 13.9506C18.969 15.6032 15.5014 19.0726 14.4315 20.143L11.8006 21.5024L13.1948 18.9056L19.5783 12.5271L20.6202 13.5416C20.6736 13.5941 20.7054 13.6648 20.7092 13.7396C20.7127 13.8142 20.6846 13.8868 20.6317 13.9395ZM21.9786 12.5974C21.9752 12.6011 21.9716 12.6046 21.9678 12.6078L21.2388 13.3368L20.0018 12.0992L20.9345 11.1666L21.9669 12.1995C22.0817 12.3144 22.0868 12.4891 21.9786 12.5974Z" fill="currentColor"/>
</svg>
