<svg width="24" height="24" viewBox="0 0 24 24" fill="currentColor" xmlns="http://www.w3.org/2000/svg">
<path fill-rule="evenodd" clip-rule="evenodd" d="M17.1571 1.79572C16.6857 1.79376 16.3019 2.17432 16.3 2.64574V2.99573H9.01425C8.68288 2.99573 8.41425 3.26436 8.41425 3.59573C8.41425 3.9271 8.68288 4.19573 9.01425 4.19573H16.2923C16.2711 4.60041 16.212 5.00222 16.1159 5.39587L16.1101 5.39573H9.61425C9.28288 5.39573 9.01425 5.66436 9.01425 5.99573C9.01425 6.3271 9.28288 6.59573 9.61425 6.59573H15.7023C15.5107 7.01793 15.2774 7.41992 15.0059 7.79572H11.4143C11.0829 7.79572 10.8143 8.06436 10.8143 8.39573C10.8143 8.7271 11.0829 8.99573 11.4143 8.99573H13.918L12.813 10.0002L14.087 11.1483L15.1533 10.1789C16.4309 9.01752 17.3285 7.54735 17.749 5.92735C17.9232 5.26331 18.0123 4.57983 18.0143 3.89333V2.64581C18.0133 2.41942 17.9225 2.20267 17.7617 2.04325C17.601 1.88383 17.3835 1.79479 17.1571 1.79572ZM15.2558 13.6911C15.1198 13.5838 10.0132 8.92584 10.0132 8.92584C8.986 7.98744 8.26572 6.80405 7.92986 5.50359C7.79225 4.97778 7.72167 4.43669 7.71981 3.89319V2.64567C7.71732 2.17645 7.33625 1.7974 6.86703 1.7974C6.39781 1.7974 6.01674 2.17645 6.01425 2.64567V3.89333C6.01613 4.57979 6.10479 5.26325 6.27811 5.92747C6.69652 7.54747 7.58954 9.01767 8.8607 10.1791C8.8607 10.1791 14.0303 14.8923 14.1969 15.0238C15.8919 16.3618 16.2477 18.0596 16.2477 19.2483V21.3459C16.2502 21.8151 16.6312 22.1942 17.1005 22.1942C17.5697 22.1942 17.9508 21.8151 17.9532 21.3459V19.2483C17.9532 17.0377 16.9953 15.0642 15.2558 13.6911ZM15.0143 19.7957H7.72855V19.2482C7.72847 19.0215 7.74172 18.795 7.76822 18.5698C7.81953 18.5869 7.87327 18.5957 7.92736 18.5957H14.5085C14.7878 18.5957 15.0142 18.3693 15.0143 18.0899C15.0143 17.7065 14.7034 17.3957 14.3201 17.3957H8.04225C8.19524 16.9694 8.40514 16.5658 8.66625 16.1957H12.6143C12.9456 16.1957 13.2143 15.9271 13.2143 15.5957C13.2143 15.2644 12.9456 14.9957 12.6143 14.9957H9.82528C9.97754 14.8751 10.1101 14.7634 10.229 14.6553L11.2255 13.7495L9.99134 12.5652L9.07058 13.4021C8.97182 13.4919 8.86216 13.5837 8.72558 13.691C6.97713 15.0642 6.01425 17.0377 6.01425 19.2482V21.3458C6.01856 21.8161 6.40106 22.1951 6.8714 22.1951C7.34174 22.1951 7.72424 21.8161 7.72855 21.3458V20.9957H15.0143C15.3456 20.9957 15.6143 20.7271 15.6143 20.3957C15.6143 20.0644 15.3456 19.7957 15.0143 19.7957Z" fill="currentColor"/>
</svg>
