<svg width="24" height="24" viewBox="0 0 24 24" fill="currentColor" xmlns="http://www.w3.org/2000/svg">
<path fill-rule="evenodd" clip-rule="evenodd" d="M12.012 1.81201C6.37871 1.81201 1.81201 6.37871 1.81201 12.012C1.81201 17.6453 6.37871 22.212 12.012 22.212C17.6453 22.212 22.212 17.6453 22.212 12.012C22.212 6.37871 17.6453 1.81201 12.012 1.81201ZM7.80076 19.2829C7.16857 18.9171 6.58741 18.4695 6.07232 17.9517C6.05137 17.9307 6.01974 17.9094 5.99903 17.8882V16.8744L7.80076 15.0726V19.2829ZM11.4008 20.3889C10.7902 20.3456 10.1863 20.2351 9.59992 20.0596V13.92L11.0015 15.3196L11.4012 15.7265L11.4008 20.3889ZM15 19.8604C14.4228 20.0831 13.8221 20.2398 13.2096 20.3273L13.1993 14.4794L15 12.672V19.8604ZM18.5997 17.2094C18.3984 17.4694 18.1821 17.7172 17.9517 17.9517C17.5963 18.3062 17.2107 18.629 16.7992 18.9165L16.8 11.5678L17.0757 11.8333L17.9332 12.6908L18.5996 13.3705L18.5997 17.2094ZM18.6005 12.012L16.4606 9.86056L11.6802 14.6409L9.28019 12.2409L4.95299 16.5681C4.48481 15.8446 4.13143 15.0531 3.90539 14.2216L9.28019 8.84675L11.6802 11.2467L14.7635 8.16349L12.6205 6.02334L17.9993 6.02476C18.1584 6.02431 18.3112 6.0871 18.424 6.1993C18.5369 6.31151 18.6005 6.46395 18.6009 6.62308L18.6005 12.012Z" fill="currentColor"/>
</svg>
