<svg width="24" height="24" viewBox="0 0 24 24" fill="currentColor" xmlns="http://www.w3.org/2000/svg">
<path fill-rule="evenodd" clip-rule="evenodd" d="M10.7937 3.60012C13.0055 3.59655 15.1501 4.36038 16.8617 5.76134C17.1186 5.96799 17.494 5.92873 17.7025 5.67343C17.9111 5.41812 17.8746 5.0424 17.6208 4.83199C13.6487 1.58465 7.9389 1.58465 3.96679 4.83199C3.7146 5.04281 3.67897 5.41729 3.8869 5.67187C4.09482 5.92646 4.46888 5.96635 4.72581 5.76134C6.43737 4.3604 8.58191 3.59657 10.7937 3.60012ZM10.7937 4.80012C8.79817 4.8003 6.86786 5.51084 5.34845 6.8045C5.18249 6.94272 5.10363 7.15946 5.14195 7.37201C5.18028 7.58455 5.32987 7.7601 5.53364 7.83165C5.73742 7.90321 5.96393 7.85972 6.12672 7.7178C8.81656 5.42758 12.7708 5.42758 15.4606 7.7178C15.7132 7.92867 16.0884 7.89682 16.3019 7.6464C16.5153 7.39598 16.4872 7.02041 16.2389 6.8045C14.7195 5.51083 12.7892 4.80029 10.7937 4.80012ZM16.8006 13.2001C16.8006 9.88642 14.1146 7.20012 10.8014 7.20012C7.48809 7.20012 4.80216 9.88642 4.80216 13.2001C4.80216 16.5138 7.48802 19.2001 10.8014 19.2001C14.1147 19.2001 16.8006 16.5138 16.8006 13.2001ZM8.4017 13.2001C8.40187 11.8748 9.47633 10.8006 10.8016 10.8007C12.1269 10.8009 13.2011 11.8753 13.2011 13.2006C13.201 14.5258 12.1266 15.6001 10.8014 15.6001C10.1649 15.6001 9.5545 15.3472 9.10448 14.8971C8.65445 14.447 8.4017 13.8366 8.4017 13.2001ZM21 13.5001C20.9998 12.7672 20.47 12.1419 19.7471 12.0212C19.0242 11.9006 18.32 12.3201 18.0818 13.0132C17.8436 13.7063 18.1412 14.47 18.7856 14.8192C18.49 17.2449 16.757 19.2511 14.4 19.8961V18.7201C13.3648 19.3953 12.1295 19.8001 10.8014 19.8001C9.52145 19.7979 8.26995 19.4226 7.20002 18.7201V21.0001C7.20084 21.6632 7.73864 22.2002 8.4017 22.2001H13.2011C13.8197 22.2001 14.3351 21.7456 14.4 21.1441C15.7255 20.8517 16.9365 20.1744 17.9195 19.1913C19.0729 18.044 19.8004 16.5375 19.9815 14.9207C20.5903 14.7143 21 14.143 21 13.5001Z" fill="currentColor"/>
</svg>
