<svg width="24" height="24" viewBox="0 0 24 24" fill="currentColor" xmlns="http://www.w3.org/2000/svg">
<path fill-rule="evenodd" clip-rule="evenodd" d="M6.19224 7.63027C6.1563 7.69426 6.13746 7.76643 6.13752 7.83982C6.13325 7.98874 6.21026 8.12822 6.33858 8.20395C6.46689 8.27967 6.62622 8.27967 6.75453 8.20395C6.88284 8.12822 6.95985 7.98874 6.95558 7.83982V6.21487L6.19224 7.63027ZM10.2 3H4.2C3.53726 3 3 3.53726 3 4.2V10.2C3 10.8627 3.53726 11.4 4.2 11.4H10.2C10.8627 11.4 11.4 10.8627 11.4 10.2V4.2C11.4 3.53726 10.8627 3 10.2 3ZM7.092 9.624C6.26357 9.624 5.592 8.93208 5.592 8.07854C5.59149 7.81824 5.65552 7.56186 5.77836 7.33236L7.092 4.98756L8.3712 7.27138C8.51632 7.51554 8.59262 7.79444 8.592 8.07847C8.592 8.93208 7.92043 9.624 7.092 9.624ZM10.2 12.6H4.2C3.53726 12.6 3 13.1373 3 13.8V15.6317C5.97053 15.6449 8.37456 18.0416 8.37456 20.9965C8.37456 20.9976 8.37456 20.9989 8.37456 21H10.2C10.8627 21 11.4 20.4627 11.4 19.8V13.8C11.4 13.1373 10.8627 12.6 10.2 12.6ZM7.0908 19.2694C6.8662 18.7414 6.541 18.2622 6.13334 17.8584C5.30072 17.0296 4.17479 16.5627 3 16.559V17.3538C5.01338 17.367 6.64152 18.9927 6.64152 20.9965C6.64152 20.9976 6.64152 20.9989 6.64152 21H7.4414C7.4414 20.9988 7.4414 20.9976 7.4414 20.9965C7.44262 20.403 7.32334 19.8154 7.0908 19.2694ZM4.908 19.0762C4.40121 18.5707 3.71578 18.2851 3 18.2811V19.0763C4.05622 19.0894 4.90848 19.9438 4.90848 20.9965C4.90848 20.9976 4.90848 20.9989 4.90848 21H5.70836C5.70836 20.9988 5.70836 20.9976 5.70836 20.9965C5.70997 20.2749 5.42158 19.583 4.908 19.0762ZM19.8 3H13.8C13.1373 3 12.6 3.53726 12.6 4.2V10.2C12.6 10.8627 13.1373 11.4 13.8 11.4H19.8C20.4627 11.4 21 10.8627 21 10.2V4.2C21 3.53726 20.4627 3 19.8 3ZM20.1 7.32691V8.37499C20.1 8.56827 19.9433 8.72494 19.75 8.72501H19.4C19.4 9.20825 19.0082 9.6 18.525 9.6C18.0418 9.6 17.65 9.20825 17.65 8.72501H16.075C16.0725 9.20647 15.6815 9.59544 15.2 9.59544C14.7185 9.59544 14.3275 9.20647 14.325 8.72501H14.15C13.9567 8.72494 13.8 8.56827 13.8 8.37499V7.152C13.7999 7.07723 13.8239 7.00442 13.8684 6.94435L13.8691 6.94349L13.8701 6.94205L14.9191 5.54114C14.9851 5.45226 15.0893 5.39991 15.2 5.4H17.475C17.5697 5.39959 17.6606 5.43742 17.727 5.5049L18.966 6.82099L19.8211 6.98436C19.9834 7.018 20.0999 7.16109 20.1 7.32691ZM15.2514 5.77891L14.4884 6.7998H16.159V5.77798H15.2522L15.2514 5.77891ZM17.4624 5.77797H16.684V6.7998H18.4246L17.4646 5.77819C17.4639 5.77802 17.4631 5.77795 17.4624 5.77797ZM19.8 12.6H13.8C13.1373 12.6 12.6 13.1373 12.6 13.8V19.8C12.6 20.4627 13.1373 21 13.8 21H19.8C20.4627 21 21 20.4627 21 19.8V13.8C21 13.1373 20.4627 12.6 19.8 12.6ZM17.5049 19.3947C17.5049 19.5081 17.4129 19.6 17.2996 19.6H17.1691C17.1605 19.6001 17.1525 19.6046 17.148 19.612C17.075 19.729 16.9468 19.8001 16.8089 19.8001C16.6709 19.8001 16.5427 19.729 16.4697 19.612C16.4652 19.6046 16.4572 19.6001 16.4486 19.6H16.312C16.202 19.6 16.1128 19.5108 16.1128 19.4008V18.994C16.1128 18.8869 16.1997 18.8 16.3068 18.8H17.3108C17.4179 18.8 17.5048 18.8869 17.5048 18.994L17.5049 19.3947ZM18.3099 16.5802C17.6816 17.5278 17.5978 18.3367 17.5978 18.3367C17.5792 18.4871 17.4515 18.6 17.3 18.6H16.3C16.1422 18.5999 16.0114 18.4776 16.0008 18.3201C15.9853 18.2025 15.87 17.4701 15.3149 16.6172C14.8048 15.8722 14.9255 14.8646 15.5971 14.2612C16.2687 13.6578 17.2834 13.6453 17.9697 14.2319C18.6559 14.8186 18.8015 15.8229 18.3099 16.5802Z" fill="currentColor"/>
</svg>
