<svg width="24" height="24" viewBox="0 0 24 24" fill="currentColor" xmlns="http://www.w3.org/2000/svg">
<path fill-rule="evenodd" clip-rule="evenodd" d="M14.3992 18.0003C14.3988 19.3253 13.3246 20.3991 11.9996 20.3989C10.6747 20.3986 9.60074 19.3244 9.60086 17.9995C9.60098 16.6746 10.6751 15.6006 12 15.6006C12.6364 15.6006 13.2467 15.8535 13.6966 16.3035C14.1466 16.7536 14.3993 17.3639 14.3992 18.0003ZM6.82324 13.7093L8.23507 15.1215C9.23345 14.1228 10.5878 13.5617 11.9999 13.5617C13.4121 13.5617 14.7664 14.1228 15.7648 15.1215L17.1768 13.7093C15.804 12.336 13.9418 11.5645 12 11.5645C10.0583 11.5645 8.19603 12.336 6.82324 13.7093Z" fill="currentColor"/>
</svg>
