<svg width="24" height="24" viewBox="0 0 24 24" fill="currentColor" xmlns="http://www.w3.org/2000/svg">
<path fill-rule="evenodd" clip-rule="evenodd" d="M17.4058 7.22412C14.7578 7.22412 12.6113 9.3678 12.6113 12.0121C12.61 12.8598 12.8351 13.6925 13.2634 14.4241H10.7606C11.1889 13.6925 11.414 12.8598 11.4127 12.0121C11.4127 9.3678 9.26616 7.22412 6.61824 7.22412C3.97032 7.22412 1.824 9.3678 1.824 12.0121C1.824 14.6564 3.97056 16.8001 6.61824 16.8001H17.4058C20.0534 16.8001 22.2 14.6564 22.2 12.0121C22.2 9.3678 20.0534 7.22412 17.4058 7.22412ZM4.49952 14.1282C3.48656 13.1172 3.32905 11.5313 4.12334 10.3408C4.91763 9.15022 6.44241 8.68673 7.7649 9.23382C9.08738 9.78091 9.8391 11.1861 9.56018 12.5899C9.28126 13.9936 8.04942 15.0047 6.61824 15.0047C5.82317 15.0078 5.06003 14.6921 4.49952 14.1282ZM19.5245 14.1282C18.5151 15.1356 16.9348 15.29 15.7496 14.4968C14.5644 13.7037 14.1044 12.1839 14.6507 10.8667C15.1971 9.54941 16.5977 8.80138 17.9964 9.07993C19.395 9.35847 20.4022 10.586 20.4022 12.0121C20.4034 12.8063 20.0874 13.568 19.5245 14.1282Z" fill="currentColor"/>
</svg>
