<svg width="24" height="24" viewBox="0 0 24 24" fill="currentColor" xmlns="http://www.w3.org/2000/svg">
<path fill-rule="evenodd" clip-rule="evenodd" d="M2.27925 8.83112C2.46112 8.24552 2.73422 7.73371 3.09854 7.2957C3.46257 6.85798 3.92058 6.51677 4.47256 6.27207C5.02432 6.02762 5.65872 5.90536 6.37576 5.90523C6.90698 5.90282 7.43486 5.98931 7.93752 6.16117C8.41479 6.32191 8.85768 6.57074 9.24321 6.89477C9.6227 7.21851 9.92828 7.61994 10.1393 8.07193C10.3612 8.53842 10.4721 9.06162 10.4721 9.64153C10.4721 10.2445 10.3754 10.762 10.182 11.194C9.99343 11.6188 9.7337 12.0083 9.41397 12.3456C9.08684 12.6882 8.72342 12.9942 8.33011 13.2583C7.92608 13.5313 7.51928 13.8014 7.10971 14.0687C6.70014 14.3359 6.30188 14.6231 5.91492 14.9303C5.52569 15.2396 5.18104 15.6012 4.89072 16.0049H10.5403V18.0862H1.76721C1.76721 17.3926 1.86678 16.7898 2.06592 16.2778C2.25784 15.7781 2.53185 15.314 2.87666 14.9045C3.23318 14.4867 3.637 14.1117 4.08 13.787C4.5408 13.4458 5.02724 13.0989 5.53934 12.7463C5.80099 12.5646 6.07978 12.3798 6.37572 12.1919C6.66449 12.0097 6.93586 11.8013 7.18641 11.5693C7.4282 11.3453 7.63527 11.0866 7.80081 10.8017C7.96561 10.5175 8.04811 10.1934 8.0483 9.82923C8.0483 9.24918 7.88046 8.79709 7.54478 8.47294C7.2091 8.1488 6.77954 7.98673 6.2561 7.98673C5.90328 7.98673 5.60459 8.06918 5.36001 8.23409C5.11457 8.39983 4.91259 8.62218 4.77115 8.88238C4.61958 9.15951 4.51299 9.45895 4.45538 9.76952C4.39341 10.0871 4.36197 10.4099 4.36152 10.7334H2.04028C2.01736 10.0509 2.09701 9.41681 2.27925 8.83112ZM18.6479 17.9925C18.0676 18.237 17.4816 18.3593 16.8899 18.3593C15.9567 18.3593 15.1175 18.1972 14.3723 17.873C13.627 17.5489 12.9983 17.1025 12.4862 16.5338C11.9742 15.9652 11.5816 15.297 11.3085 14.5292C11.0353 13.7614 10.8988 12.934 10.8988 12.047C10.8988 11.1372 11.0354 10.2927 11.3085 9.51351C11.5815 8.73461 11.9741 8.05505 12.4862 7.47481C12.9983 6.89457 13.6269 6.43963 14.3723 6.11C15.1174 5.78025 15.9566 5.61525 16.8899 5.61525C17.5067 5.61391 18.1201 5.70888 18.7076 5.89676C19.281 6.07789 19.8182 6.35792 20.295 6.72418C20.7701 7.09164 21.1675 7.54975 21.4642 8.07195C21.7714 8.6067 21.9592 9.22087 22.0275 9.91445H19.4672C19.3077 9.23204 19.0005 8.72023 18.5456 8.37903C18.0903 8.03783 17.5385 7.86723 16.89 7.86723C16.2868 7.86723 15.7747 7.98381 15.3538 8.21696C14.9414 8.44215 14.59 8.7642 14.3297 9.15536C14.0678 9.54774 13.8772 9.99414 13.7579 10.4946C13.6375 11.0032 13.5773 11.5243 13.5787 12.047C13.5776 12.5501 13.6378 13.0514 13.7579 13.5398C13.8694 14.0054 14.063 14.4474 14.3297 14.845C14.5918 15.2322 14.9429 15.551 15.3536 15.7747C15.7744 16.0079 16.2865 16.1245 16.8898 16.1244C17.7773 16.1244 18.4629 15.8997 18.9466 15.4505C19.4302 15.0012 19.7118 14.3501 19.7914 13.4971H17.0947V11.501H22.2152V18.0863H20.5084L20.2352 16.7044C19.7574 17.3186 19.2283 17.7479 18.6479 17.9925Z" fill="currentColor"/>
</svg>
