<svg width="24" height="24" viewBox="0 0 24 24" fill="currentColor" xmlns="http://www.w3.org/2000/svg">
<path fill-rule="evenodd" clip-rule="evenodd" d="M20.8263 8.22389C20.816 7.97669 20.6126 7.78167 20.3652 7.78167H3.63475C3.38734 7.78167 3.18391 7.97669 3.17364 8.22389L3 12.9092C3 14.3412 3.91762 15.0973 5.21568 15.6212C5.69057 15.8141 6.00087 16.2759 6 16.7885V16.7765C6.00102 17.1073 6.26911 17.3753 6.6 17.3761H17.4002C17.7311 17.3753 17.9992 17.1074 18.0002 16.7766V16.7886C17.9994 16.276 18.3097 15.8142 18.7846 15.6213C20.0826 15.0974 21.0002 14.3412 21.0002 12.9093L20.8263 8.22389ZM13.1928 13.1963H10.7928V10.7977H13.1928V13.1963ZM18.9 7.19974H5.1C4.93456 7.1993 4.80053 7.06534 4.8 6.89991C4.80053 6.73447 4.93456 6.60052 5.1 6.6001H18.9C19.0654 6.60052 19.1995 6.73447 19.2 6.89991C19.1995 7.06534 19.0654 7.1993 18.9 7.19974Z" fill="currentColor"/>
</svg>
