<svg width="24" height="24" viewBox="0 0 24 24" fill="currentColor" xmlns="http://www.w3.org/2000/svg">
<path fill-rule="evenodd" clip-rule="evenodd" d="M20.4 6V18.6H3.6V6H20.4ZM21 4.2H3C2.33726 4.2 1.8 4.73726 1.8 5.4V19.2C1.8 19.8627 2.33726 20.4 3 20.4H21C21.6627 20.4 22.2 19.8627 22.2 19.2V5.4C22.2 4.73726 21.6627 4.2 21 4.2ZM9 10.2C9 11.1941 8.19412 12 7.2 12C6.20589 12 5.4 11.1941 5.4 10.2C5.4 9.20589 6.20589 8.4 7.2 8.4C8.19412 8.4 9 9.20589 9 10.2ZM14.133 11.1434L10.2 16.2L7.46919 12.923C7.40012 12.8402 7.29937 12.7902 7.1916 12.7853C7.08382 12.7804 6.97896 12.8211 6.90267 12.8973L4.2 15.6V18H19.8V16.2L14.7076 11.1076C14.6297 11.0297 14.5221 10.989 14.4122 10.9959C14.3023 11.0027 14.2006 11.0564 14.133 11.1434Z" fill="currentColor"/>
</svg>
