<svg width="24" height="24" viewBox="0 0 24 24" fill="currentColor" xmlns="http://www.w3.org/2000/svg">
<path fill-rule="evenodd" clip-rule="evenodd" d="M4.3743 10.2288L4.6857 10.9972L6.56605 11.7546V11.1286C5.87178 10.8459 4.9911 10.4856 4.3743 10.2288ZM9.989 16.5484C9.79953 16.4701 9.6244 16.3608 9.47079 16.2251H8.43179C7.6677 16.2251 6.98075 15.7595 6.69776 15.0497L6.64043 15.0737C6.21655 15.2505 5.72962 15.0503 5.5527 14.6265L3.56845 9.86914L6.56605 8.6197V6.02268L1.53601 8.11942L5.67745 18.048C5.9401 18.6771 6.66278 18.9743 7.292 18.7121L11.2394 17.0667L9.989 16.5484ZM6.56605 11.1286V11.7546L4.6857 10.9972L4.3743 10.2288C4.9911 10.4856 5.87178 10.8459 6.56605 11.1286ZM6.56605 11.1286V11.7546L4.6857 10.9972L4.3743 10.2288C4.9911 10.4856 5.87178 10.8459 6.56605 11.1286ZM9.45234 4.90579C9.51703 4.86137 9.58286 4.83321 9.64914 4.82163C9.58222 4.78409 9.513 4.8137 9.45234 4.90579ZM9.45234 4.90579C9.51703 4.86137 9.58286 4.83321 9.64914 4.82163C9.58222 4.78409 9.513 4.8137 9.45234 4.90579ZM9.45234 4.90579C9.51703 4.86137 9.58286 4.83321 9.64914 4.82163C9.58222 4.78409 9.513 4.8137 9.45234 4.90579ZM9.45234 4.90579C9.51703 4.86137 9.58286 4.83321 9.64914 4.82163C9.58222 4.78409 9.513 4.8137 9.45234 4.90579ZM9.45234 4.90579C9.51703 4.86137 9.58286 4.83321 9.64914 4.82163C9.58222 4.78409 9.513 4.8137 9.45234 4.90579ZM9.45234 4.90579C9.51703 4.86137 9.58286 4.83321 9.64914 4.82163C9.58222 4.78409 9.513 4.8137 9.45234 4.90579ZM9.45234 4.90579C9.51703 4.86137 9.58286 4.83321 9.64914 4.82163C9.58222 4.78409 9.513 4.8137 9.45234 4.90579ZM9.45234 4.90579C9.51703 4.86137 9.58286 4.83321 9.64914 4.82163C9.58222 4.78409 9.513 4.8137 9.45234 4.90579ZM9.45234 4.90579C9.51703 4.86137 9.58286 4.83321 9.64914 4.82163C9.58222 4.78409 9.513 4.8137 9.45234 4.90579ZM9.45234 4.90579C9.51703 4.86137 9.58286 4.83321 9.64914 4.82163C9.58222 4.78409 9.513 4.8137 9.45234 4.90579ZM16.7847 4.85813V5.07588L13.884 3.87362C13.5806 3.74799 13.2328 3.89178 13.1067 4.19496L11.7031 7.57934L11.3112 8.52425L11.161 8.88665C10.5404 8.23699 10.0249 7.54678 10.3159 7.25611C10.3363 7.23574 10.3564 7.21584 10.3759 7.1964C11.1313 6.4452 11.1632 6.48055 10.3619 5.48386C10.0246 5.06465 9.83127 4.8481 9.64943 4.81116C9.5825 4.79854 9.51304 4.80849 9.45239 4.83946C9.45251 4.83932 9.4522 4.83947 9.45239 4.83946C9.24654 4.93514 8.99799 5.23061 8.54171 5.69585C8.23175 6.02945 8.26751 6.78319 8.71251 7.72498C8.9174 8.15904 9.2096 8.63292 9.59463 9.12432C9.72659 9.29243 9.86965 9.46238 10.0238 9.63418C10.1502 9.7747 10.2841 9.91596 10.4254 10.0575C10.4846 10.1167 10.544 10.1745 10.6034 10.2311L9.00323 14.0888L8.98691 14.1281C8.78816 14.606 8.79905 15.1454 9.01691 15.615H8.42747C8.09999 15.6155 7.78576 15.4857 7.55414 15.2542C7.32251 15.0227 7.19255 14.7086 7.19293 14.3811V3.62402H15.5502C16.2319 3.62402 16.7846 4.17643 16.7847 4.85813ZM9.45234 4.90579C9.51703 4.86137 9.58286 4.83321 9.64914 4.82163C9.58222 4.78409 9.513 4.8137 9.45234 4.90579ZM21.4154 7.65082L17.2128 5.90882L16.7848 5.73158L13.6953 4.45094L12.0514 8.41442L11.6595 9.3593L9.84313 13.7386L9.57397 14.3878C9.44863 14.6901 9.44852 15.0299 9.57369 15.3322C9.69885 15.6346 9.93903 15.8749 10.2414 16.0001L10.784 16.2251L12.0246 16.7393L17.9615 19.2L22.0828 9.26311C22.2082 8.96081 22.2083 8.62107 22.0831 8.31867C21.958 8.01627 21.7177 7.77602 21.4154 7.65082ZM20.2701 10.5349L19.8435 11.5693L19.3232 12.8317L18.2829 15.4018L17.1547 14.9368L16.445 16.6152L15.4679 14.2416L12.2997 12.936C11.9188 12.7792 11.7398 12.3051 11.8967 11.9242L12.2815 10.9844L12.3206 10.8889L12.672 10.0368L13.6002 7.78661L13.8869 7.09807L16.8087 8.30198L17.2366 8.47848L19.8643 9.56126C20.0473 9.63651 20.1928 9.78139 20.2689 9.964C20.345 10.1466 20.3454 10.352 20.2701 10.5349Z" fill="currentColor"/>
</svg>
