<svg width="24" height="24" viewBox="0 0 24 24" fill="currentColor" xmlns="http://www.w3.org/2000/svg">
<path d="M20.6873 14.9612L19.2417 14.1374L13.1491 17.7766C12.4441 18.1965 11.5657 18.1965 10.8606 17.7766L4.76808 14.1374L3.32241 14.9612C3.12404 15.088 3.00581 15.3088 3.01012 15.5442C3.01468 15.7796 3.14112 15.9958 3.34413 16.115L11.1763 20.7934C11.6868 21.0975 12.3229 21.0975 12.8334 20.7934L20.6656 16.115C20.8686 15.9958 20.9951 15.7796 20.9996 15.5442C21.0039 15.3088 20.8857 15.088 20.6873 14.9612ZM20.6873 11.4334L19.1386 10.5509L16.7081 12.0026L16.412 12.1795L16.1159 12.3564L13.1491 14.1286C12.4441 14.5485 11.5657 14.5485 10.8606 14.1286L7.89384 12.3564L7.59775 12.1795L7.30166 12.0026L4.87121 10.5509L3.32241 11.4334C3.12404 11.5602 3.00581 11.781 3.01012 12.0164C3.01468 12.2518 3.14112 12.4679 3.34413 12.5872L4.7754 13.4422L5.07146 13.619L5.36755 13.7959L11.1763 17.2655C11.6868 17.5696 12.3229 17.5696 12.8334 17.2655L18.6422 13.7959L18.9383 13.619L19.2344 13.4422L20.6656 12.5873C20.8686 12.468 20.9951 12.2518 20.9997 12.0164C21.004 11.781 20.8857 11.5602 20.6873 11.4334ZM3.34413 8.93911L4.8785 9.8556L5.17459 10.0325L5.47068 10.2093L7.90113 11.6611L8.19722 11.8379L8.49331 12.0148L11.1763 13.6174C11.6868 13.9215 12.3229 13.9215 12.8334 13.6174L15.5165 12.0148L15.8125 11.8379L16.1086 11.6611L18.5391 10.2093L18.8353 10.0325L19.1314 9.8556L20.6657 8.93911C20.8687 8.81984 20.9951 8.60365 20.9997 8.36825C21.004 8.13285 20.8857 7.91207 20.6873 7.78529L12.6725 3.2183C12.2661 2.95572 11.7436 2.95572 11.3373 3.2183L3.32241 7.78536C3.12407 7.91217 3.00587 8.13294 3.01018 8.36832C3.01473 8.60369 3.14116 8.81986 3.34413 8.93911Z" fill="currentColor"/>
</svg>
