<svg width="24" height="24" viewBox="0 0 24 24" fill="currentColor" xmlns="http://www.w3.org/2000/svg">
<path fill-rule="evenodd" clip-rule="evenodd" d="M16.8012 1.80005H7.19879C6.53638 1.80039 5.99967 2.33764 5.99999 3.00005V21C5.99967 21.6625 6.53638 22.1997 7.19879 22.2001H16.8012C17.4636 22.1997 18.0003 21.6625 18 21V3.00005C18.0003 2.33764 17.4636 1.80039 16.8012 1.80005ZM11.1 2.40005H12.9C13.0657 2.40005 13.2 2.53436 13.2 2.70005C13.2 2.86573 13.0657 3.00005 12.9 3.00005H11.1C10.9343 3.00005 10.8 2.86573 10.8 2.70005C10.8 2.53436 10.9343 2.40005 11.1 2.40005ZM12 21.6C11.6686 21.6 11.4 21.3314 11.4 21C11.4 20.6687 11.6686 20.4 12 20.4C12.3314 20.4 12.6 20.6687 12.6 21C12.6 21.3314 12.3314 21.6 12 21.6ZM16.8 19.8H7.19999V3.60005H16.8V19.8ZM1.79999 6.00005V10.2C2.46273 10.2 2.99999 10.7373 2.99999 11.4C2.99999 12.0628 2.46273 12.6 1.79999 12.6V16.8H5.39999V6.00005H1.79999ZM21 11.4C21 10.7373 21.5372 10.2 22.2 10.2V6.00005H18.6V16.8H22.2V12.6C21.5372 12.6 21 12.0628 21 11.4ZM9.83999 12.96H9.35999V9.60005H9.83999V12.96ZM13.44 12.96H12.96V9.60005H13.44V12.96ZM12.72 12.96H12.48V9.60005H12.72V12.96ZM12 12.96H11.52V9.60005H12V12.96ZM14.64 12.96H13.68V9.60005H14.64V12.96ZM11.04 12.96H10.08V9.60005H11.04V12.96ZM9.59999 13.68V14.16H8.15999V12.72H8.63999V13.68H9.59999ZM15.84 12.72V14.16H14.4V13.68H15.36V12.72H15.84ZM15.84 8.40005V9.84005H15.36V8.88005H14.4V8.40005H15.84ZM9.59999 8.40005V8.88005H8.63999V9.84005H8.15999V8.40005H9.59999Z" fill="currentColor"/>
</svg>
