<svg width="24" height="24" viewBox="0 0 24 24" fill="currentColor" xmlns="http://www.w3.org/2000/svg">
<path fill-rule="evenodd" clip-rule="evenodd" d="M21.6 7.20002V18H2.99999V19.2H22.8V7.20002H21.6ZM11.4 7.80002C9.41176 7.80002 7.79999 9.4118 7.79999 11.4C7.79999 13.3882 9.41176 15 11.4 15C13.3882 15 15 13.3882 15 11.4C15 10.4452 14.6207 9.52957 13.9456 8.85444C13.2704 8.17931 12.3548 7.80002 11.4 7.80002ZM5.69999 10.5C5.20293 10.5 4.79999 10.903 4.79999 11.4C4.79999 11.8971 5.20293 12.3 5.69999 12.3C6.19704 12.3 6.59999 11.8971 6.59999 11.4C6.59999 11.1613 6.50517 10.9324 6.33638 10.7636C6.1676 10.5948 5.93868 10.5 5.69999 10.5ZM17.1 10.5C16.6029 10.5 16.2 10.903 16.2 11.4C16.2 11.8971 16.6029 12.3 17.1 12.3C17.597 12.3 18 11.8971 18 11.4C18 11.1613 17.9052 10.9324 17.7364 10.7636C17.5676 10.5948 17.3387 10.5 17.1 10.5ZM21 5.40002H1.79999V17.4H21V5.40002ZM19.8 14.4C18.8059 14.4 18 15.2059 18 16.2H4.79999C4.79999 15.7226 4.61035 15.2648 4.27278 14.9272C3.93521 14.5897 3.47738 14.4 2.99999 14.4V8.40002C3.47738 8.40002 3.93521 8.21038 4.27278 7.87282C4.61035 7.53525 4.79999 7.07741 4.79999 6.60002H18C18 7.59414 18.8059 8.40002 19.8 8.40002V14.4ZM8.9018 12.312C9.00774 12.4131 9.13308 12.4915 9.27023 12.5427C9.40925 12.5956 9.55677 12.6225 9.70549 12.6223C9.94468 12.6223 10.1402 12.5766 10.292 12.4852C10.4051 12.4184 10.4617 12.3331 10.4617 12.2294C10.4629 12.1632 10.4405 12.0987 10.3984 12.0475C10.3558 11.9957 10.2914 11.967 10.2244 11.9701C10.1872 11.972 10.1506 11.9807 10.1164 11.9956L9.9538 12.0712C9.88396 12.0976 9.80956 12.1098 9.73494 12.1072C9.57147 12.1072 9.43583 12.0568 9.32802 11.956C9.19092 11.8283 9.12236 11.6267 9.12234 11.3513C9.12046 11.2239 9.14314 11.0974 9.18913 10.9786C9.23007 10.8726 9.3011 10.7808 9.39349 10.7146C9.48517 10.6493 9.60016 10.6166 9.73847 10.6166C9.83499 10.6191 9.93015 10.64 10.0188 10.6782C10.1132 10.7139 10.1817 10.7318 10.2245 10.7318C10.2868 10.7353 10.3467 10.7076 10.3845 10.6579C10.4229 10.6039 10.4423 10.5387 10.4398 10.4725C10.4398 10.384 10.3992 10.312 10.318 10.2563C10.2308 10.1981 10.1329 10.1576 10.03 10.1372C9.92928 10.1146 9.82642 10.1027 9.72316 10.1016C9.56017 10.1 9.39838 10.1297 9.24659 10.189C9.10434 10.2449 8.97527 10.3298 8.86758 10.4382C8.76034 10.5469 8.67655 10.6764 8.62139 10.8188C8.56314 10.9689 8.5339 11.1288 8.5352 11.2899C8.5352 11.7393 8.65736 12.08 8.9018 12.312ZM11.9053 10.6526C11.976 10.6548 12.045 10.6312 12.0996 10.5863C12.1522 10.5425 12.1814 10.4767 12.1788 10.4083C12.1823 10.3386 12.1536 10.2712 12.101 10.2255C12.046 10.1805 11.9765 10.157 11.9054 10.1596H11.1099C11.0045 10.1596 10.9223 10.1893 10.8634 10.2488C10.8045 10.3083 10.775 10.3901 10.7751 10.4944V12.2909C10.7726 12.3701 10.7992 12.4475 10.8498 12.5084C10.8999 12.5675 10.9745 12.6001 11.0519 12.5968C11.1292 12.6006 11.2038 12.5681 11.2535 12.5089C11.3029 12.4472 11.3286 12.3699 11.326 12.2909V11.6211H11.8156C11.8865 11.6237 11.956 11.6006 12.0112 11.556C12.0608 11.5093 12.0889 11.4443 12.089 11.3761C12.0891 11.308 12.0611 11.2429 12.0116 11.196C11.9562 11.1517 11.8866 11.1287 11.8156 11.1314H11.326V10.6525L11.9053 10.6526ZM13.7631 12.37C13.7796 12.4287 13.8093 12.4828 13.8501 12.528C13.8842 12.5704 13.9354 12.5955 13.9898 12.5966C14.0639 12.5981 14.137 12.5783 14.2002 12.5394C14.2586 12.5049 14.297 12.4444 14.3034 12.3769C14.3054 12.3183 14.298 12.2599 14.2815 12.2037L13.634 10.4223C13.6042 10.3336 13.5494 10.2555 13.4763 10.1973C13.3293 10.0845 13.1247 10.0848 12.9781 10.1982C12.9054 10.2564 12.8507 10.3341 12.8205 10.4223L12.173 12.2038C12.1561 12.2599 12.1487 12.3184 12.151 12.377C12.1595 12.4448 12.1987 12.5049 12.2573 12.54C12.3193 12.5782 12.3909 12.5979 12.4637 12.5967C12.5767 12.5967 12.6584 12.5018 12.7088 12.3119L12.7668 12.1036H13.6875L13.7631 12.37ZM12.9391 11.6106L13.2307 10.6957L13.5224 11.6106H12.9391Z" fill="currentColor"/>
</svg>
