<svg width="24" height="24" viewBox="0 0 24 24" fill="currentColor" xmlns="http://www.w3.org/2000/svg">
<path fill-rule="evenodd" clip-rule="evenodd" d="M1.80005 4.80005V17.28H5.40005V19.2H18.6V17.28H22.2001V4.80005H1.80005ZM12 18.12C11.6024 18.12 11.28 17.7977 11.28 17.4C11.28 17.0024 11.6024 16.68 12 16.68C12.3977 16.68 12.72 17.0024 12.72 17.4C12.72 17.7977 12.3977 18.12 12 18.12ZM20.76 15.84H3.24005V6.24005H20.76V15.84ZM11.988 8.40005C13.4792 8.40005 14.688 9.60888 14.688 11.1C14.688 12.5912 13.4792 13.8 11.988 13.8C10.4969 13.8 9.28805 12.5912 9.28805 11.1C9.28805 9.60888 10.4969 8.40005 11.988 8.40005Z" fill="currentColor"/>
</svg>
