<svg width="24" height="24" viewBox="0 0 24 24" fill="currentColor" xmlns="http://www.w3.org/2000/svg">
<path fill-rule="evenodd" clip-rule="evenodd" d="M21.8131 9.20759C22.0706 10.116 22.2008 11.0558 22.2 12C22.2 17.6333 17.6333 22.2 12 22.2C8.3186 22.2 5.09315 20.2495 3.29963 17.3258C3.29207 17.3135 3.28419 17.3014 3.27668 17.289C3.2613 17.2637 3.24656 17.2379 3.23137 17.2124C2.29195 15.6362 1.7973 13.8349 1.8 12C1.79975 11.3946 1.85306 10.7904 1.95932 10.1944C2.81171 5.42228 6.98276 1.79999 12 1.79999C12.018 1.79999 12.036 1.80059 12.0539 1.80066C16.6953 1.82476 20.6034 4.94826 21.8131 9.20759ZM19.8 12C19.8 7.69218 16.3078 4.19999 12 4.19999C7.6922 4.19999 4.20001 7.69218 4.20001 12C4.20001 16.3078 7.6922 19.8 12 19.8C16.3078 19.8 19.8 16.3078 19.8 12ZM6.60001 13.8C6.22434 13.8 6.00001 13.5755 6.00001 13.2V10.8C6.00001 10.4244 6.22434 10.2 6.60001 10.2H17.4C17.7757 10.2 18 10.4244 18 10.8V13.2C18 13.5755 17.7757 13.8 17.4 13.8H6.60001Z" fill="currentColor"/>
</svg>
