<svg width="24" height="24" viewBox="0 0 24 24" fill="currentColor" xmlns="http://www.w3.org/2000/svg">
<path fill-rule="evenodd" clip-rule="evenodd" d="M20.5816 14.295L18.9496 12.663C18.4804 12.1965 17.7226 12.1965 17.2535 12.663L15.4714 14.445C15.4149 14.5016 15.3381 14.5334 15.2582 14.5334C15.1782 14.5334 15.1015 14.5016 15.0449 14.445L14.362 13.7622C14.2443 13.6444 14.2443 13.4534 14.362 13.3356L16.0348 11.663C17.0518 10.6461 17.0518 8.98199 16.0348 7.96509C15.0179 6.94816 13.3539 6.94816 12.3369 7.96509L10.6643 9.63775C10.6077 9.69431 10.531 9.72609 10.451 9.72609C10.371 9.72609 10.2943 9.69431 10.2377 9.63775L9.5549 8.9549C9.49834 8.89834 9.46656 8.82162 9.46656 8.74163C9.46656 8.66164 9.49834 8.58493 9.5549 8.52837L11.337 6.74635C11.8034 6.27717 11.8034 5.51937 11.337 5.05019L9.70495 3.41819C9.23577 2.95175 8.47798 2.95175 8.0088 3.41819L3.41844 8.00863C2.95199 8.4778 2.95199 9.2356 3.41844 9.70478L5.05044 11.3368C5.51962 11.8032 6.27741 11.8032 6.74659 11.3368L8.22878 9.85459C8.28534 9.79802 8.36205 9.76624 8.44205 9.76624C8.52204 9.76624 8.59875 9.79802 8.65531 9.85459L9.33816 10.5374C9.45592 10.6552 9.45592 10.8462 9.33816 10.964L8.09666 12.2055C8.04434 12.2578 8.01494 12.3287 8.01494 12.4027C8.01494 12.4767 8.04434 12.5477 8.09666 12.6L8.80445 13.3078L8.58845 13.7974C8.58516 13.8402 8.56058 13.8785 8.52303 13.8993C8.48548 13.92 8.43999 13.9205 8.40199 13.9006C7.34611 13.3454 6.11385 13.3071 5.09916 13.7997C5.06191 13.8177 5.0357 13.8527 5.0288 13.8935C5.0219 13.9343 5.03516 13.9759 5.06441 14.0052L9.99463 18.9353C10.0239 18.9646 10.0656 18.9779 10.1064 18.971C10.1472 18.9641 10.1821 18.9378 10.2002 18.9006C10.6927 17.8859 10.6544 16.6536 10.0992 15.5978C10.0793 15.5598 10.0798 15.5143 10.1006 15.4767C10.1214 15.4392 10.1596 15.4146 10.2024 15.4113L10.692 15.1953L11.4 15.9032C11.4523 15.9555 11.5233 15.9849 11.5973 15.9849C11.6713 15.9849 11.7423 15.9555 11.7946 15.9032L13.0361 14.6617C13.0926 14.6051 13.1694 14.5734 13.2493 14.5734C13.3293 14.5734 13.406 14.6051 13.4626 14.6617L14.1455 15.3446C14.2632 15.4623 14.2632 15.6533 14.1455 15.7711L12.6632 17.2533C12.1968 17.7225 12.1968 18.4803 12.6632 18.9494L14.2952 20.5814C14.7644 21.0479 15.5222 21.0479 15.9914 20.5814L20.5816 15.991C21.048 15.5219 21.048 14.7641 20.5816 14.295ZM11.0213 6.32231L10.336 7.00766L9.22658 5.89828L10.336 4.78891L10.1512 4.60411L11.0213 5.47423C11.2545 5.70882 11.2545 6.08772 11.0213 6.32231ZM8.43276 3.73379C8.66735 3.50056 9.04625 3.50056 9.28085 3.73379L9.96617 4.41914L8.85681 5.52849L7.74744 4.41914L8.43276 3.73379ZM3.73399 9.28063C3.50079 9.04602 3.50079 8.66714 3.73399 8.43254L4.41933 7.74722L6.26827 5.89826L7.37762 4.78891L8.487 5.89828L7.37762 7.00766L6.26827 5.89826L5.89845 6.26807L7.00785 7.37743L5.89848 8.4868L4.78913 7.37743L4.41933 7.74722L5.52869 8.85659L4.41933 9.96595L3.73399 9.28063ZM6.32251 11.0211C6.08792 11.2543 5.70904 11.2543 5.47445 11.0211L4.78913 10.3358L5.89848 9.22639L7.00785 10.3358L6.32251 11.0211ZM7.37762 9.96597L6.26825 8.85662L7.37762 7.74724L8.487 8.85662L7.37762 9.96597ZM8.85679 8.48683L7.74744 7.37743L8.85681 6.26805L9.96617 7.37743L8.85679 8.48683ZM17.6775 12.9785C17.9121 12.7453 18.291 12.7453 18.5256 12.9785L19.3958 13.8488L19.211 13.664L18.1015 14.7732L16.9922 13.6639L17.6775 12.9785ZM17.7318 15.143L16.6224 16.2524L15.513 15.143L16.6224 14.0337L17.7318 15.143ZM14.1626 10.7366C13.6658 10.7366 13.2631 10.3339 13.2631 9.83711C13.2631 9.34032 13.6658 8.93759 14.1626 8.93759C14.6594 8.93759 15.0621 9.34032 15.0621 9.83711C15.0622 10.0757 14.9674 10.3045 14.7987 10.4732C14.63 10.642 14.4012 10.7366 14.1626 10.7366ZM15.1432 15.5126L16.2526 16.6222L15.1432 17.7316L14.0339 16.6222L15.1432 15.5126ZM12.9787 18.5254C12.7455 18.2908 12.7455 17.9119 12.9787 17.6773L13.6641 16.992L14.7734 18.1014L13.6641 19.2107L12.9787 18.5254ZM18.1015 17.7316L16.2526 19.5805L15.5673 20.2659C15.3327 20.4991 14.9538 20.4991 14.7192 20.2659L14.0339 19.5805L15.1432 18.4712L16.2526 19.5805L16.6224 19.2107L15.513 18.1013L16.6224 16.992L17.7318 18.1013L18.1015 17.7316L16.9922 16.6222L18.1015 15.5128L19.2109 16.6222L18.1015 17.7316ZM20.2661 15.5671L19.5807 16.2524L18.4713 15.1431L19.5807 14.0337L20.2661 14.719C20.4992 14.9536 20.4992 15.3325 20.2661 15.5671ZM7.58978 17.8769C6.88152 17.6887 6.33293 17.1282 6.15993 16.416C6.12312 16.263 5.9692 16.1687 5.81615 16.2056C5.66309 16.2424 5.56886 16.3963 5.60568 16.5493C5.8278 17.4654 6.53347 18.1864 7.44453 18.4282C7.54307 18.4543 7.64807 18.4259 7.71991 18.3535C7.79174 18.2812 7.81946 18.176 7.7926 18.0776C7.76575 17.9793 7.68841 17.9027 7.58978 17.8769ZM7.3091 18.9823C6.20995 18.6958 5.35158 17.8374 5.0651 16.7383C5.02552 16.5859 4.86992 16.4945 4.71756 16.5341C4.56519 16.5737 4.47376 16.7293 4.51334 16.8816C4.85198 18.1808 5.86656 19.1954 7.16575 19.534C7.26463 19.5606 7.37014 19.532 7.44218 19.4593C7.51421 19.3865 7.54169 19.2808 7.51418 19.1821C7.48667 19.0835 7.40839 19.0072 7.3091 18.9823ZM7.0235 20.0864C5.52972 19.6959 4.36144 18.5321 3.96513 17.0398C3.92503 16.8876 3.76912 16.7967 3.61689 16.8368C3.46467 16.8769 3.37378 17.0328 3.41388 17.1851C3.86153 18.8774 5.18646 20.1972 6.88056 20.6382C7.03294 20.6777 7.18849 20.5862 7.22799 20.4338C7.2675 20.2815 7.17588 20.1259 7.0235 20.0864Z" fill="currentColor"/>
</svg>
