<svg width="24" height="24" viewBox="0 0 24 24" fill="currentColor" xmlns="http://www.w3.org/2000/svg">
<path fill-rule="evenodd" clip-rule="evenodd" d="M16.2834 6.09875C16.2834 8.48635 14.3464 10.4219 11.957 10.4219C9.56766 10.4219 7.63072 8.48637 7.63072 6.09875C7.63072 3.71114 9.56768 1.77563 11.957 1.77563C14.3464 1.77563 16.2834 3.71121 16.2834 6.09875ZM15.7327 10.1054C13.6034 12.1097 10.2817 12.1098 8.15226 10.1056C6.50543 11.0045 5.3716 12.7152 5.32801 14.712V15H4.08001C3.35646 15.0008 2.75917 15.5437 2.76001 16.2667V18.24C2.7608 18.9629 3.35646 19.5368 4.08001 19.536H5.32801V19.776C5.32801 21.1024 6.40055 22.2 7.72801 22.2H18.552V14.851C18.5524 12.8721 17.4707 11.0515 15.7327 10.1054ZM10.4129 17.7948L7.36801 20.832V18.888H4.08001C3.73151 18.8884 3.40842 18.5642 3.40801 18.216V16.224C3.4076 15.8758 3.73156 15.6004 4.08001 15.6H7.36801V13.632L10.4141 16.6493C10.5579 16.7993 10.6363 17.0002 10.632 17.208C10.6317 17.43 10.5553 17.6459 10.4129 17.7948Z" fill="currentColor"/>
</svg>
