<svg width="24" height="24" viewBox="0 0 24 24" fill="currentColor" xmlns="http://www.w3.org/2000/svg">
<path fill-rule="evenodd" clip-rule="evenodd" d="M5.4 1.8H18.6C19.2627 1.8 19.8 2.33726 19.8 3V21C19.8 21.6627 19.2627 22.2 18.6 22.2H5.4C4.73726 22.2 4.2 21.6627 4.2 21V3C4.2 2.33726 4.73726 1.8 5.4 1.8ZM12 20.4C12.3314 20.4 12.6 20.6686 12.6 21C12.6 21.3314 12.3314 21.6 12 21.6C11.6686 21.6 11.4 21.3314 11.4 21C11.4 20.6686 11.6686 20.4 12 20.4ZM5.4 3H18.6V19.8H5.4V3ZM6 16.8002L6.00024 17.3793C7.15944 17.4223 7.81915 18.2748 7.82066 19.2001H8.4C8.39845 17.8753 7.32478 16.8018 6 16.8002ZM6.00036 15.6V16.1859C7.59031 16.1887 9.01123 17.6097 9.01394 19.2003H9.6C9.59976 17.2123 7.9884 15.6006 6.00036 15.6ZM6 18.6C6.15981 18.5978 6.31373 18.6602 6.42674 18.7733C6.53976 18.8863 6.60225 19.0402 6.6 19.2H7.2C7.19354 18.5428 6.6587 18 6 18V18.6C6.00401 18.6 5.99597 18.6 6 18.6Z" fill="currentColor"/>
</svg>
