<svg width="24" height="24" viewBox="0 0 24 24" fill="currentColor" xmlns="http://www.w3.org/2000/svg">
<path fill-rule="evenodd" clip-rule="evenodd" d="M18.6 8.40005C18.6 4.75505 15.6451 1.80005 12 1.80005C8.35496 1.80005 5.4 4.75505 5.4 8.40005C5.39824 9.54954 5.69811 10.6794 6.26965 11.6767L12 22.2001L17.7305 11.6767C18.302 10.6794 18.6018 9.54954 18.6 8.40005ZM12 13.2C9.34904 13.2 7.20001 11.051 7.20001 8.40005C7.20001 5.74908 9.34904 3.60005 12 3.60005C14.651 3.60005 16.8 5.74908 16.8 8.40005C16.8 11.051 14.651 13.2 12 13.2ZM15.3 6.02405C15.3017 5.7759 15.1552 5.55067 14.9277 5.45159C14.7001 5.35251 14.4354 5.39868 14.2549 5.56894L10.5828 9.14405L9.37292 7.79667C9.12716 7.58431 8.75894 7.59861 8.53021 7.82921L8.28193 8.07881C8.05824 8.30417 8.03864 8.6613 8.23633 8.90978L10.2224 11.4058C10.3397 11.5538 10.5182 11.6401 10.707 11.6401C10.8958 11.6401 11.0743 11.5538 11.1916 11.4058L15.164 6.41378C15.2523 6.3031 15.3003 6.16564 15.3 6.02405Z" fill="currentColor"/>
</svg>
