<svg width="24" height="24" viewBox="0 0 24 24" fill="currentColor" xmlns="http://www.w3.org/2000/svg">
<path fill-rule="evenodd" clip-rule="evenodd" d="M13.8 18C13.8 18.3314 13.5314 18.6 13.2 18.6H10.8C10.4686 18.6 10.2 18.3314 10.2 18H1.79999V19.2C1.79999 19.5314 2.06862 19.8 2.39999 19.8H21.6C21.9314 19.8 22.2 19.5314 22.2 19.2V18H13.8ZM21 17.4H2.99999V15.6C2.99984 15.592 2.99999 15.584 2.99999 15.576V5.99999C2.99999 5.33725 3.53725 4.79999 4.19999 4.79999H19.8C20.4627 4.79999 21 5.33725 21 5.99999V15.576C21 15.584 20.9995 15.592 20.9994 15.6L21 17.4ZM4.19999 5.99999H19.8V16.2H4.19999V5.99999Z" fill="currentColor"/>
</svg>
