<svg width="24" height="24" viewBox="0 0 24 24" fill="currentColor" xmlns="http://www.w3.org/2000/svg">
<path fill-rule="evenodd" clip-rule="evenodd" d="M3 10.044V12.8166C5.17747 12.8166 7.22465 13.6612 8.76437 15.1948C10.3041 16.7285 11.1521 18.7676 11.1521 20.9364C11.1521 20.9577 11.1514 20.9788 11.1513 21H13.9349C13.9349 20.9788 13.9357 20.9577 13.9357 20.9364C13.9357 14.9208 9.0396 10.044 3 10.044ZM3 15.1932V17.9658C4.64453 17.9658 5.98246 19.2984 5.98246 20.9364C5.98246 20.9578 5.98128 20.9788 5.98082 21H8.76528C8.7655 20.9788 8.7661 20.9577 8.7661 20.9364C8.7661 17.7645 6.18454 15.1932 3 15.1932ZM4.89473 3C3.8483 3 3 3.8483 3 4.89473V7.66738C6.53143 7.66068 9.92049 9.05893 12.4198 11.5538C13.6362 12.7616 14.6062 14.1944 15.2758 15.7724C15.9695 17.4055 16.3253 19.1621 16.3216 20.9364C16.3216 20.9577 16.3209 20.9788 16.3208 21H19.1053C20.1517 21 21 20.1517 21 19.1053V4.89473C21 3.8483 20.1517 3 19.1053 3H4.89473Z" fill="currentColor"/>
</svg>
