<svg width="24" height="24" viewBox="0 0 24 24" fill="currentColor" xmlns="http://www.w3.org/2000/svg">
<path fill-rule="evenodd" clip-rule="evenodd" d="M16.8 22.2H7.2C6.53726 22.2 6 21.6627 6 21V2.99999C6 2.33725 6.53726 1.79999 7.2 1.79999H16.8C17.4627 1.79999 18 2.33725 18 2.99999V21C18 21.6627 17.4627 22.2 16.8 22.2ZM16.8 3.59999C16.8 3.26862 16.5314 2.99999 16.2 2.99999H7.8C7.46863 2.99999 7.2 3.26862 7.2 3.59999V4.79999C7.2 5.13136 7.46863 5.39999 7.8 5.39999H16.2C16.5314 5.39999 16.8 5.13136 16.8 4.79999V3.59999ZM16.8 7.19999C16.8 6.86862 16.5314 6.59999 16.2 6.59999H7.8C7.46863 6.59999 7.2 6.86862 7.2 7.19999V8.39999C7.2 8.73136 7.46863 8.99999 7.8 8.99999H16.2C16.5314 8.99999 16.8 8.73136 16.8 8.39999V7.19999ZM16.8 10.8C16.8 10.4686 16.5314 10.2 16.2 10.2H7.8C7.46863 10.2 7.2 10.4686 7.2 10.8V12C7.2 12.3314 7.46863 12.6 7.8 12.6H16.2C16.5314 12.6 16.8 12.3314 16.8 12V10.8ZM8.4 12C8.06863 12 7.8 11.7314 7.8 11.4C7.8 11.0686 8.06863 10.8 8.4 10.8C8.73137 10.8 9 11.0686 9 11.4C9 11.7314 8.73137 12 8.4 12ZM8.4 8.39999C8.06863 8.39999 7.8 8.13136 7.8 7.79999C7.8 7.46862 8.06863 7.19999 8.4 7.19999C8.73137 7.19999 9 7.46862 9 7.79999C9 8.13136 8.73137 8.39999 8.4 8.39999ZM8.4 4.79999C8.06863 4.79999 7.8 4.53136 7.8 4.19999C7.8 3.86862 8.06863 3.59999 8.4 3.59999C8.73137 3.59999 9 3.86862 9 4.19999C9 4.53136 8.73137 4.79999 8.4 4.79999ZM12 19.2C12.3314 19.2 12.6 19.4686 12.6 19.8C12.6 20.1314 12.3314 20.4 12 20.4C11.6686 20.4 11.4 20.1314 11.4 19.8C11.4 19.4686 11.6686 19.2 12 19.2Z" fill="currentColor"/>
</svg>
