<svg width="24" height="24" viewBox="0 0 24 24" fill="currentColor" xmlns="http://www.w3.org/2000/svg">
<path fill-rule="evenodd" clip-rule="evenodd" d="M18.6 22.2H5.40001C4.73727 22.2 4.20001 21.6627 4.20001 21V4.79996C4.20001 4.13722 4.73727 3.59996 5.40001 3.59996H7.80001V4.79996H5.40001V21H18.6V4.79996H16.2V3.59996H18.6C19.2628 3.59996 19.8 4.13722 19.8 4.79996V21C19.8 21.6627 19.2628 22.2 18.6 22.2ZM11.7 8.99996H16.5C16.6657 8.99996 16.8 9.13427 16.8 9.29996C16.8 9.46564 16.6657 9.59996 16.5 9.59996H11.7C11.5343 9.59996 11.4 9.46564 11.4 9.29996C11.4 9.13427 11.5343 8.99996 11.7 8.99996ZM11.7 12H16.5C16.6657 12 16.8 12.1343 16.8 12.3C16.8 12.4656 16.6657 12.6 16.5 12.6H11.7C11.5343 12.6 11.4 12.4656 11.4 12.3C11.4 12.1343 11.5343 12 11.7 12ZM11.7 18H16.5C16.6657 18 16.8 18.1343 16.8 18.3C16.8 18.4656 16.6657 18.6 16.5 18.6H11.7C11.5343 18.6 11.4 18.4656 11.4 18.3C11.4 18.1343 11.5343 18 11.7 18ZM11.7 15H16.5C16.6657 15 16.8 15.1343 16.8 15.3C16.8 15.4656 16.6657 15.6 16.5 15.6H11.7C11.5343 15.6 11.4 15.4656 11.4 15.3C11.4 15.1343 11.5343 15 11.7 15ZM15 5.99996H9.00001C8.66864 5.99996 8.40001 5.73133 8.40001 5.39996V2.99996C8.40001 2.66859 8.66864 2.39996 9.00001 2.39996H10.3029C10.5572 1.68076 11.2372 1.19995 12 1.19995C12.7628 1.19995 13.4429 1.68076 13.6972 2.39996H15C15.3314 2.39996 15.6 2.66859 15.6 2.99996V5.39996C15.6 5.73133 15.3314 5.99996 15 5.99996ZM12 2.39996C11.6686 2.39996 11.4 2.66859 11.4 2.99996C11.4 3.33133 11.6686 3.59996 12 3.59996C12.3314 3.59996 12.6 3.33133 12.6 2.99996C12.6 2.66859 12.3314 2.39996 12 2.39996ZM7.27576 8.23025L7.37922 8.13425C7.47774 8.04546 7.62578 8.04021 7.73034 8.1218L8.23441 8.63996L9.76444 7.26476C9.81367 7.22251 9.87652 7.1995 9.94139 7.19995C10.0842 7.19995 10.2 7.3074 10.2 7.43996C10.1998 7.49513 10.1797 7.54838 10.1433 7.58986L8.48812 9.50986C8.43668 9.56722 8.36326 9.59999 8.28622 9.59999C8.20917 9.59999 8.13576 9.56722 8.08432 9.50986L7.25672 8.54986C7.22034 8.50838 7.2002 8.45513 7.20001 8.39996C7.20039 8.33528 7.22786 8.27372 7.27576 8.23025ZM7.25176 11.2303L7.35522 11.1343C7.45374 11.0455 7.60178 11.0402 7.70634 11.1218L8.21041 11.64L9.74044 10.2648C9.78967 10.2225 9.85252 10.1995 9.91739 10.1999C10.0602 10.1999 10.176 10.3074 10.176 10.44C10.1758 10.4951 10.1557 10.5484 10.1193 10.5899L8.46412 12.5099C8.41267 12.5672 8.33926 12.6 8.26222 12.6C8.18517 12.6 8.11176 12.5672 8.06032 12.5099L7.23272 11.5499C7.19634 11.5084 7.1762 11.4551 7.17601 11.4C7.17639 11.3353 7.20386 11.2737 7.25176 11.2303ZM7.27576 14.2303L7.37922 14.1343C7.47774 14.0455 7.62578 14.0402 7.73034 14.1218L8.23441 14.64L9.76444 13.2649C9.81365 13.2226 9.8765 13.1995 9.94139 13.2C10.0842 13.2 10.2 13.3074 10.2 13.44C10.1998 13.4951 10.1797 13.5484 10.1433 13.5899L8.48812 15.5099C8.43668 15.5672 8.36326 15.6 8.28622 15.6C8.20917 15.6 8.13576 15.5672 8.08432 15.5099L7.25672 14.5499C7.22034 14.5084 7.2002 14.4551 7.20001 14.4C7.20039 14.3353 7.22786 14.2737 7.27576 14.2303ZM7.20001 17.4C7.20039 17.3353 7.22786 17.2737 7.27576 17.2303L7.37922 17.1343C7.47774 17.0455 7.62578 17.0402 7.73034 17.1218L8.23441 17.64L9.76444 16.2649C9.81365 16.2226 9.8765 16.1995 9.94139 16.2C10.0842 16.2 10.2 16.3074 10.2 16.44C10.1998 16.4951 10.1797 16.5484 10.1433 16.5899L8.48812 18.5099C8.43668 18.5672 8.36326 18.6 8.28622 18.6C8.20917 18.6 8.13576 18.5672 8.08432 18.5099L7.25672 17.5499C7.22034 17.5084 7.2002 17.4551 7.20001 17.4Z" fill="currentColor"/>
</svg>
