<svg width="24" height="24" viewBox="0 0 24 24" fill="currentColor" xmlns="http://www.w3.org/2000/svg">
<path fill-rule="evenodd" clip-rule="evenodd" d="M1.51196 13.8V18.6H5.71196V15.6H6.91196V18.6H8.11196V13.8L4.81196 11.4L1.51196 13.8ZM4.51196 17.4H2.71196V15.6H4.51196V17.4ZM8.71196 13.8V18.6H12.912V15.6H14.112V18.6H15.312V13.8L12.012 11.4L8.71196 13.8ZM11.712 17.4H9.91196V15.6H11.712V17.4ZM15.912 13.8V18.6H20.112V15.6H21.312V18.6H22.512V13.8L19.212 11.4L15.912 13.8ZM18.912 17.4H17.112V15.6H18.912V17.4ZM20.112 8.4V6.9C20.112 6.73431 19.9776 6.6 19.812 6.6H19.512V6.3C19.512 6.13431 19.3776 6 19.212 6C19.0463 6 18.912 6.13431 18.912 6.3V6.6H18.612C18.4463 6.6 18.312 6.73431 18.312 6.9V8.4H12.912V6.9C12.912 6.73431 12.7776 6.6 12.612 6.6H12.312V6.3C12.312 6.13431 12.1776 6 12.012 6C11.8463 6 11.712 6.13431 11.712 6.3V6.6H11.412C11.2463 6.6 11.112 6.73431 11.112 6.9V8.4H5.71196V6.9C5.71196 6.73431 5.57765 6.6 5.41196 6.6H5.11196V6.3C5.11196 6.13431 4.97765 6 4.81196 6C4.64628 6 4.51196 6.13431 4.51196 6.3V6.6H4.21196C4.04628 6.6 3.91196 6.73431 3.91196 6.9V8.4H1.51196V13.0581L4.81196 10.6581L8.41196 13.2763L12.012 10.6581L15.612 13.2763L19.212 10.6581L22.512 13.0581V8.4H20.112Z" fill="currentColor"/>
</svg>
