<svg width="24" height="24" viewBox="0 0 24 24" fill="currentColor" xmlns="http://www.w3.org/2000/svg">
<path fill-rule="evenodd" clip-rule="evenodd" d="M3.00005 4.20001H21C21.6628 4.20001 22.2001 4.73727 22.2001 5.40001V18.6C22.2001 19.2628 21.6628 19.8 21 19.8H3.00005C2.33731 19.8 1.80005 19.2628 1.80005 18.6V5.40001C1.80005 4.73727 2.33731 4.20001 3.00005 4.20001ZM3.00005 7.80001H21V18.6H3.00005V7.80001ZM3.60005 5.40001C3.93142 5.40001 4.20005 5.66864 4.20005 6.00001C4.20005 6.33138 3.93142 6.60001 3.60005 6.60001C3.26868 6.60001 3.00005 6.33138 3.00005 6.00001C3.00005 5.66864 3.26868 5.40001 3.60005 5.40001ZM6.00005 9.00001V10.7973L10.2 12.6L6.00005 14.392V16.1894L12.2936 13.4933V11.696L6.00005 9.00001ZM12.576 16.2H18.6V17.4H12.576V16.2Z" fill="currentColor"/>
</svg>
