<svg width="24" height="24" viewBox="0 0 24 24" fill="currentColor" xmlns="http://www.w3.org/2000/svg">
<path fill-rule="evenodd" clip-rule="evenodd" d="M17.4 18C17.4 18.9941 18.2059 19.8 19.2 19.8C20.1941 19.8 21 18.9941 21 18C21 17.0059 20.1941 16.2 19.2 16.2C18.7226 16.2 18.2648 16.3896 17.9272 16.7272C17.5897 17.0648 17.4 17.5226 17.4 18ZM10.2 18C10.2 17.9997 10.2 18.0003 10.2 18L16.8 18.0009C16.8 18.0012 16.8 18.0006 16.8 18.0009C16.8 16.6755 17.8745 15.6 19.2 15.6C20.5255 15.6 21.6 16.6745 21.6 18L22.2 18.0009C22.5314 18.0009 22.8 17.7323 22.8 17.4009C22.8 17.4013 22.8 17.4006 22.8 17.4009V12.6C22.8 11.2745 21.7255 10.2 20.4 10.2H16.8V16.2H9.3873C9.9046 16.6551 10.2007 17.311 10.2 18ZM18 11.4H20.4C21.0628 11.4 21.6 11.9373 21.6 12.6V13.8H18V11.4ZM1.20066 7.176C1.2136 6.52285 1.74673 6 2.40001 6H15C15.6533 6 16.1865 6.52282 16.1994 7.176L16.2 15.6H1.20001L1.20066 7.176ZM6.00001 18C6.00001 18.9941 6.8059 19.8 7.80001 19.8C8.79413 19.8 9.60001 18.9941 9.60001 18C9.60001 17.0059 8.79413 16.2 7.80001 16.2C6.8059 16.2 6.00001 17.0059 6.00001 18ZM1.80001 18C1.80001 18.9941 2.6059 19.8 3.60001 19.8C4.59412 19.8 5.40001 18.9941 5.40001 18C5.40001 17.0059 4.59412 16.2 3.60001 16.2C2.6059 16.2 1.80001 17.0059 1.80001 18Z" fill="currentColor"/>
</svg>
