<svg width="24" height="24" viewBox="0 0 24 24" fill="currentColor" xmlns="http://www.w3.org/2000/svg">
<path fill-rule="evenodd" clip-rule="evenodd" d="M14.3726 14.7C14.3726 12.9898 16.239 14.2837 15.3701 12.1859C14.5007 10.088 14.0963 12.3223 12.887 11.1131C11.6777 9.90384 13.9126 9.49937 11.8146 8.63047C9.71626 7.76153 11.0103 9.62746 9.30051 9.62746C7.59022 9.62746 8.88427 7.76153 6.78634 8.63047C4.6884 9.49942 6.92283 9.90372 5.71354 11.1131C4.50425 12.3224 4.09983 10.088 3.23088 12.1859C2.36146 14.2838 4.22784 12.9899 4.22784 14.7C4.22784 16.4101 2.36146 15.1162 3.23083 17.2141C4.09978 19.312 4.5042 17.0777 5.71349 18.2864C6.92283 19.4957 4.6884 19.9006 6.78629 20.7695C8.88418 21.6385 7.59029 19.7725 9.30046 19.7725C11.0102 19.7725 9.71621 21.6384 11.8146 20.7695C13.9125 19.9006 11.6778 19.4957 12.8869 18.2864C14.0962 17.0777 14.5007 19.312 15.3701 17.2141C16.239 15.1163 14.3726 16.4103 14.3726 14.7ZM9.29983 11.3997C10.6347 11.3995 11.8382 12.2035 12.3492 13.4367C12.8601 14.6699 12.5779 16.0895 11.6341 17.0334C10.6903 17.9774 9.27072 18.2598 8.03744 17.7491C6.80416 17.2383 6 16.0349 6 14.7C5.99992 13.8248 6.34754 12.9853 6.96638 12.3664C7.58522 11.7475 8.4246 11.3997 9.29983 11.3997ZM17.2815 4.5408C18.8821 4.96951 18.6627 3.18372 19.7391 4.25734C20.8159 5.3315 19.0251 5.11248 19.4552 6.70894C19.8848 8.30542 21.326 7.22467 20.9329 8.69078C20.5399 10.1569 19.8325 8.50025 18.6618 9.66857C17.4908 10.8361 19.1512 11.5415 17.6815 11.933C16.212 12.3254 17.2956 10.888 15.6949 10.4592C14.0943 10.0304 14.3135 11.8168 13.2367 10.7425C12.1601 9.66914 13.9511 9.888 13.5208 8.29171C13.0908 6.69466 11.6503 7.77571 12.0432 6.30991C12.4361 4.84411 13.143 6.49982 14.3142 5.33208C15.4854 4.16434 13.8248 3.45912 15.2943 3.06694C16.764 2.67528 15.6807 4.11214 17.2815 4.5408ZM15.1186 7.17173C14.9737 7.71197 15.1686 8.28628 15.6123 8.62683C16.056 8.96739 16.6611 9.00713 17.1456 8.72752C17.63 8.4479 17.8983 7.90401 17.8253 7.34946C17.7523 6.79492 17.3525 6.33893 16.8122 6.19414C16.458 6.09902 16.0805 6.1486 15.7628 6.33196C15.4452 6.51532 15.2134 6.81741 15.1186 7.17173ZM10.3117 15.4191L9.04207 16.6659C8.86238 16.8444 8.57231 16.8444 8.39261 16.6659L7.31021 15.5839C7.1316 15.4044 7.1316 15.1143 7.31021 14.9347L8.57981 13.6879L7.61381 12.744H10.6527C10.8101 12.7514 10.959 12.8181 11.0694 12.9306C11.1819 13.0409 11.2486 13.1896 11.256 13.347V16.3848L10.3117 15.4191Z" fill="currentColor"/>
</svg>
