<svg width="24" height="24" viewBox="0 0 24 24" fill="currentColor" xmlns="http://www.w3.org/2000/svg">
<path fill-rule="evenodd" clip-rule="evenodd" d="M14.0209 17.7255C13.3147 19.0559 11.9063 19.8616 10.4015 19.796C8.8967 19.7304 7.56378 18.8051 6.97608 17.4183C6.9684 17.4001 6.96115 17.3819 6.95376 17.3637L6.64479 20.7603C6.62525 20.9759 6.69729 21.1897 6.84326 21.3494C6.98924 21.5092 7.19569 21.6001 7.41209 21.6H13.5297C13.7461 21.6001 13.9525 21.5092 14.0985 21.3494C14.2445 21.1897 14.3165 20.9759 14.297 20.7603L14.0209 17.7255ZM6.97608 14.3818C7.72345 12.6207 9.63564 11.6594 11.4949 12.11L9.06905 9.4556C9.07003 9.4868 9.07071 9.5182 9.07071 9.54964C9.06884 10.5206 8.59017 11.4287 7.79018 11.9789C6.9902 12.5292 5.97097 12.6514 5.06359 12.3058L6.69857 15.4184C6.74238 15.0617 6.83579 14.7127 6.97608 14.3818ZM7.3939 15C7.04892 16.221 7.43403 17.5317 8.38468 18.372C9.33533 19.2123 10.6834 19.4337 11.8528 18.9414C13.0222 18.4492 13.8062 17.3304 13.8697 16.0632C13.8724 16.0091 13.8738 15.9547 13.8738 15.9C13.8739 15.6444 13.8444 15.3896 13.7858 15.1408C13.7746 15.0935 13.7625 15.0466 13.7494 15C13.3455 13.5798 12.0482 12.6 10.5717 12.6C9.09511 12.6 7.79783 13.5798 7.3939 15ZM11.4784 15.9969H10.9918C10.9918 15.9932 10.9921 15.9897 10.9921 15.9859C10.9896 15.7003 10.7565 15.4706 10.4709 15.4723V14.9928C10.5029 14.9928 10.5344 14.9945 10.5657 14.9973C10.5741 14.9981 10.5825 14.9991 10.5908 15.0001C11.0908 15.0585 11.4786 15.4775 11.4786 15.986C11.4786 15.9896 11.4785 15.9932 11.4784 15.9969ZM12.3818 15.9969H11.8954C11.8954 15.9932 11.8955 15.9897 11.8955 15.9859C11.896 15.6156 11.7482 15.2605 11.485 15C11.4826 14.9976 11.4805 14.9952 11.4782 14.9931C11.3525 14.869 11.2047 14.7694 11.0424 14.6994C10.862 14.6215 10.6675 14.5815 10.471 14.5818V14.1024C11.1322 14.101 11.7475 14.4402 12.0993 15C12.2843 15.2956 12.3823 15.6372 12.382 15.9859C12.382 15.9896 12.3819 15.9932 12.3818 15.9969ZM13.1022 15C13.2236 15.3145 13.2857 15.6488 13.2854 15.9859C13.2854 15.9896 13.2854 15.9932 13.2854 15.9969H12.7988C12.7988 15.9932 12.7989 15.9897 12.7989 15.9859C12.7995 15.6789 12.7374 15.375 12.6162 15.093C12.6027 15.0616 12.5884 15.0306 12.5736 15C12.4592 14.7632 12.3047 14.5479 12.1171 14.3635C11.6783 13.9313 11.0867 13.6898 10.4709 13.6915V13.212C11.151 13.2104 11.8089 13.4541 12.3239 13.8982C12.6699 14.196 12.9372 14.5744 13.1022 15ZM18.386 9.72548V10.512C18.3866 10.6709 18.5153 10.7996 18.6742 10.8H19.2986C19.4576 10.7996 19.5863 10.6709 19.5868 10.512V9.76031C19.1942 9.88502 18.7708 9.87275 18.386 9.72548ZM13.3361 2.75084C13.2612 2.68794 13.1803 2.63248 13.0946 2.58524L13.0573 2.55964L13.0541 2.56405C12.5246 2.29331 11.8849 2.36166 11.4245 2.7382L5.74167 6.62404C5.86687 6.6081 5.99295 6.60008 6.11916 6.60004C7.54414 6.59994 8.76584 7.61768 9.02316 9.01924L12.7923 5.34004C12.7951 5.33922 12.7978 5.3385 12.8005 5.33764L16.4348 6.78527C16.5618 6.24438 16.9319 5.79271 17.4373 5.56194L13.3361 2.75084ZM12.3728 3.00004C12.8277 3.00016 13.211 3.33956 13.2663 3.79108C13.3215 4.24261 13.0312 4.66438 12.5898 4.77412C12.1483 4.88385 11.6944 4.64707 11.5317 4.22225C11.3691 3.79743 11.5489 3.31804 11.9508 3.10494C12.0808 3.03594 12.2257 2.99992 12.3728 3.00004ZM19.885 7.1986L19.0359 6.35005C18.8107 6.12517 18.5051 5.99922 18.1868 6.00003C18.1491 6.00003 18.1114 6.0018 18.0738 6.00534C17.7957 6.0307 17.5353 6.15267 17.3378 6.35005C16.871 6.81944 16.871 7.57773 17.3378 8.04712L18.1868 8.89564C18.4122 9.12037 18.7177 9.24629 19.0359 9.24566C19.2275 9.24577 19.4163 9.20026 19.5868 9.11291C19.6969 9.05643 19.7975 8.98312 19.885 8.89564C20.352 8.42634 20.352 7.66789 19.885 7.1986ZM8.4702 9.55924C8.4702 9.55607 8.4702 9.55292 8.4702 9.54964C8.46755 8.23885 7.40351 7.17802 6.09272 7.17935C4.78193 7.18067 3.72003 8.24365 3.72003 9.55444C3.72003 10.8652 4.78193 11.9282 6.09272 11.9295C7.40351 11.9308 8.46755 10.87 8.4702 9.55924ZM6.06879 7.97572C6.06852 7.87934 6.14615 7.80084 6.24252 7.80004H6.24888C7.1438 7.79993 7.86946 8.52512 7.86994 9.42004C7.86994 9.42217 7.86994 9.42428 7.86994 9.42642C7.86907 9.5228 7.79052 9.60037 7.69414 9.60004H7.6854C7.63844 9.59983 7.59349 9.58092 7.56051 9.54748C7.52753 9.51403 7.50924 9.46883 7.5097 9.42186V9.42004C7.50912 8.72408 6.94484 8.16017 6.24888 8.16004H6.24706C6.2001 8.16052 6.15488 8.14227 6.12142 8.10931C6.08796 8.07635 6.06901 8.03142 6.06879 7.98445V7.97572Z" fill="currentColor"/>
</svg>
