<svg width="24" height="24" viewBox="0 0 24 24" fill="currentColor" xmlns="http://www.w3.org/2000/svg">
<path fill-rule="evenodd" clip-rule="evenodd" d="M21.833 13.56H21.84L17.4833 9.20338C16.359 6.27713 13.5223 4.19995 10.2001 4.19995C5.89223 4.19995 2.39999 7.69212 2.39999 12C2.39999 16.3078 5.89223 19.8 10.2001 19.8H18.6003C19.5944 19.8 20.4003 18.9941 20.4003 18V15.6H21.0483V15.5976C21.5174 15.5692 21.9268 15.2696 22.0957 14.831C22.2646 14.3925 22.1619 13.8957 21.833 13.56ZM19.2 14.4V17.472C19.2 18.098 18.7166 18.6 18.0902 18.6H13.7182C13.092 18.6 12.5843 18.0923 12.5842 17.4661V14.401H10.9762L14.9605 10.417C15.2701 10.1074 15.5828 9.98424 15.8803 9.98978C16.1779 9.98419 16.5219 10.0908 16.848 10.417L20.8324 14.401L19.2 14.4ZM15.9002 14.4H13.8002V16.5C13.8002 16.6656 13.9345 16.8 14.1002 16.8H16.2002V14.7C16.2002 14.5343 16.0659 14.4 15.9002 14.4Z" fill="currentColor"/>
</svg>
