<svg width="24" height="24" viewBox="0 0 24 24" fill="currentColor" xmlns="http://www.w3.org/2000/svg">
<path fill-rule="evenodd" clip-rule="evenodd" d="M21 4.19995H2.99999C2.33725 4.19995 1.79999 4.73721 1.79999 5.39995V18.6C1.79999 19.2627 2.33725 19.8 2.99999 19.8H21C21.6627 19.8 22.2 19.2627 22.2 18.6V5.39995C22.2 4.73721 21.6627 4.19995 21 4.19995ZM3.59999 5.39995C3.93136 5.39995 4.19999 5.66858 4.19999 5.99995C4.19999 6.33132 3.93136 6.59995 3.59999 6.59995C3.26862 6.59995 2.99999 6.33132 2.99999 5.99995C2.99999 5.66858 3.26862 5.39995 3.59999 5.39995ZM21 18.6H2.99999V7.79995H21V18.6ZM11.8305 10.1911H13.128C13.3162 10.5879 13.7542 10.8012 14.1825 10.7047C14.6109 10.6083 14.9152 10.2279 14.9152 9.78877C14.9152 9.34969 14.6109 8.96924 14.1825 8.8728C13.7542 8.77635 13.3162 8.98968 13.128 9.3864H11.8305C11.686 9.38528 11.552 9.46173 11.4794 9.58668C11.4068 9.71164 11.4068 9.86591 11.4794 9.99086C11.552 10.1158 11.686 10.1923 11.8305 10.1911ZM13.9765 9.38635C14.1392 9.38635 14.2859 9.48438 14.3482 9.63474C14.4105 9.7851 14.3761 9.95818 14.261 10.0733C14.1459 10.1883 13.9728 10.2228 13.8225 10.1605C13.6721 10.0982 13.5741 9.95147 13.5741 9.78871C13.5741 9.56649 13.7542 9.38635 13.9765 9.38635ZM8.7842 11.9285C8.97698 12.0385 9.22242 11.9722 9.33356 11.7801L9.98005 10.655C10.4178 10.6895 10.821 10.416 10.9508 9.99657C11.0806 9.57711 10.9023 9.1237 10.5216 8.90494C10.1409 8.68618 9.65942 8.76048 9.36238 9.08385C9.06533 9.40721 9.03208 9.89326 9.2823 10.2541L8.63579 11.3791C8.52578 11.5719 8.59208 11.8173 8.7842 11.9285ZM9.70499 9.51835C9.78608 9.37724 9.94418 9.29887 10.1056 9.31979C10.267 9.3407 10.3999 9.45678 10.4423 9.6139C10.4848 9.77102 10.4284 9.93824 10.2995 10.0376C10.1706 10.1369 9.99449 10.1488 9.85338 10.0677C9.76084 10.0145 9.69322 9.9268 9.66539 9.82377C9.63756 9.72074 9.6518 9.61088 9.70499 9.51835ZM9.33779 15.2808C9.52913 15.1683 9.59375 14.9224 9.48241 14.7304L8.82817 13.6098C9.07589 13.2473 9.03928 12.7615 8.74003 12.4402C8.44078 12.1189 7.95881 12.0479 7.57963 12.2693C7.20044 12.4906 7.02532 12.9453 7.158 13.3638C7.29068 13.7823 7.69571 14.053 8.13318 14.0155L8.78742 15.1362C8.89989 15.3275 9.14579 15.3921 9.33779 15.2808ZM7.70543 13.2828C7.62337 13.1423 7.63406 12.9662 7.73251 12.8366C7.83096 12.707 7.99778 12.6494 8.15519 12.6908C8.3126 12.7322 8.42959 12.8643 8.45161 13.0255C8.47363 13.1868 8.39635 13.3454 8.2558 13.4275C8.16363 13.4813 8.05387 13.4963 7.95065 13.4692C7.84743 13.442 7.75924 13.375 7.70543 13.2828ZM12.0888 16.0781L10.7912 16.0823C10.6017 15.6862 10.1631 15.4743 9.73503 15.5721C9.30701 15.67 9.00395 16.0514 9.00538 16.4904C9.00681 16.9295 9.31234 17.3089 9.74099 17.404C10.1696 17.499 10.6069 17.2843 10.7938 16.887L12.0914 16.8828C12.3136 16.8821 12.4932 16.7014 12.4925 16.4791C12.4918 16.2569 12.311 16.0773 12.0888 16.0781ZM9.9454 16.8897C9.78264 16.8903 9.63557 16.7928 9.57277 16.6426C9.50998 16.4924 9.54383 16.3192 9.65854 16.2038C9.77324 16.0883 9.94622 16.0533 10.0968 16.1151C10.2474 16.1769 10.3459 16.3233 10.3464 16.4861C10.3467 16.5928 10.3047 16.6953 10.2295 16.771C10.1542 16.8467 10.0521 16.8894 9.9454 16.8897ZM16.668 12.7208C16.4855 12.4074 16.1387 12.2271 15.7773 12.2578L15.1242 11.1366C15.0114 10.9466 14.7666 10.8831 14.5757 10.9942C14.3848 11.1054 14.3192 11.3497 14.4288 11.5416L15.0819 12.6628C14.8191 13.0466 14.8769 13.565 15.2179 13.8815C15.5589 14.198 16.0802 14.2171 16.4434 13.9264C16.8065 13.6356 16.9021 13.1228 16.668 12.7208ZM16.0593 13.5411C15.9186 13.623 15.7425 13.6122 15.613 13.5136C15.4835 13.415 15.4261 13.2481 15.4676 13.0908C15.5091 12.9334 15.6414 12.8165 15.8026 12.7947C15.9639 12.7728 16.1225 12.8502 16.2044 12.9909C16.3163 13.1829 16.2513 13.4292 16.0593 13.5411ZM15.1327 14.3217C14.9393 14.2129 14.6942 14.2807 14.5843 14.4735L13.9447 15.6026C13.5068 15.5708 13.1053 15.8467 12.9781 16.267C12.8509 16.6872 13.032 17.1395 13.414 17.3559C13.796 17.5723 14.277 17.495 14.572 17.1698C14.8671 16.8447 14.8973 16.3585 14.6449 15.9992L15.2845 14.8702C15.3934 14.6767 15.3255 14.4317 15.1327 14.3217ZM14.2268 16.7374C14.1466 16.879 13.9889 16.9583 13.8274 16.9384C13.6659 16.9185 13.5323 16.8032 13.4889 16.6464C13.4454 16.4895 13.5008 16.322 13.6291 16.2218C13.7574 16.1217 13.9334 16.1087 14.075 16.189C14.1679 16.2416 14.236 16.3289 14.2645 16.4317C14.2929 16.5346 14.2794 16.6445 14.2268 16.7374Z" fill="currentColor"/>
</svg>
