<svg width="24" height="24" viewBox="0 0 24 24" fill="currentColor" xmlns="http://www.w3.org/2000/svg">
<path fill-rule="evenodd" clip-rule="evenodd" d="M6.01759 10.2291V18.6246C6.01705 18.9815 6.12315 19.3303 6.32227 19.6264C5.88567 19.5922 5.50244 19.3227 5.32275 18.9233L1.87956 11.2725C1.74923 10.9825 1.73951 10.6525 1.85253 10.3553C1.96556 10.058 2.19207 9.81788 2.4822 9.6877L14.522 4.27951C15.1262 4.00792 15.8362 4.27704 16.1085 4.88088L17.7056 8.43005H7.81829C7.34093 8.4298 6.88302 8.61921 6.54532 8.9566C6.20761 9.29399 6.01779 9.75172 6.01759 10.2291ZM11.4197 16.8256C11.4194 17.1569 11.1508 17.4253 10.8195 17.4253H9.61901C9.40386 17.4266 9.20447 17.3126 9.0965 17.1265C8.98854 16.9404 8.98854 16.7108 9.0965 16.5247C9.20447 16.3386 9.40386 16.2246 9.61901 16.2259H10.8195C11.1508 16.2258 11.4196 16.4943 11.4197 16.8256ZM11.4197 16.8256C11.4194 17.1569 11.1508 17.4253 10.8195 17.4253H9.61901C9.40386 17.4266 9.20447 17.3126 9.0965 17.1265C8.98854 16.9404 8.98854 16.7108 9.0965 16.5247C9.20447 16.3386 9.40386 16.2246 9.61901 16.2259H10.8195C11.1508 16.2258 11.4196 16.4943 11.4197 16.8256ZM16.8219 16.2259C17.037 16.2246 17.2364 16.3386 17.3444 16.5247C17.4523 16.7108 17.4523 16.9404 17.3444 17.1265C17.2364 17.3126 17.037 17.4266 16.8219 17.4253H15.6214C15.4062 17.4266 15.2069 17.3126 15.0989 17.1265C14.9909 16.9404 14.9909 16.7108 15.0989 16.5247C15.2069 16.3386 15.4062 16.2246 15.6214 16.2259H16.8219ZM11.4197 16.8256C11.4194 17.1569 11.1508 17.4253 10.8195 17.4253H9.61901C9.40386 17.4266 9.20447 17.3126 9.0965 17.1265C8.98854 16.9404 8.98854 16.7108 9.0965 16.5247C9.20447 16.3386 9.40386 16.2246 9.61901 16.2259H10.8195C11.1508 16.2258 11.4196 16.4943 11.4197 16.8256ZM16.8219 16.2259C17.037 16.2246 17.2364 16.3386 17.3444 16.5247C17.4523 16.7108 17.4523 16.9404 17.3444 17.1265C17.2364 17.3126 17.037 17.4266 16.8219 17.4253H15.6214C15.4062 17.4266 15.2069 17.3126 15.0989 17.1265C14.9909 16.9404 14.9909 16.7108 15.0989 16.5247C15.2069 16.3386 15.4062 16.2246 15.6214 16.2259H16.8219ZM21.0235 9.02974H7.81829C7.50004 9.02955 7.19476 9.15581 6.96962 9.38074C6.74448 9.60567 6.61783 9.91084 6.61783 10.2291V18.6246C6.61829 19.2873 7.15566 19.8242 7.81829 19.824H21.0235C21.6862 19.8243 22.2236 19.2873 22.224 18.6246V10.2291C22.2236 9.56641 21.6862 9.02947 21.0235 9.02974ZM21.0235 18.0249C21.0232 18.3562 20.7546 18.6246 20.4233 18.6246H8.41848C8.08714 18.6248 7.81841 18.3563 7.81824 18.0249V13.8272H21.0235V18.0249ZM21.0235 12.0281H7.81829V10.8288C7.81846 10.4975 8.08719 10.229 8.41853 10.2291H20.4233C20.7547 10.229 21.0233 10.4975 21.0235 10.8288V12.0281ZM11.4197 16.8256C11.4194 17.1569 11.1508 17.4253 10.8195 17.4253H9.61901C9.40386 17.4266 9.20447 17.3126 9.0965 17.1265C8.98854 16.9404 8.98854 16.7108 9.0965 16.5247C9.20447 16.3386 9.40386 16.2246 9.61901 16.2259H10.8195C11.1508 16.2258 11.4196 16.4943 11.4197 16.8256ZM17.4221 16.8257C17.4218 17.157 17.1532 17.4253 16.8219 17.4253H15.6214C15.4062 17.4266 15.2069 17.3126 15.0989 17.1265C14.9909 16.9404 14.9909 16.7108 15.0989 16.5247C15.2069 16.3386 15.4062 16.2246 15.6214 16.2259H16.8219C17.1532 16.2258 17.4219 16.4944 17.4221 16.8257ZM11.4197 16.8256C11.4194 17.1569 11.1508 17.4253 10.8195 17.4253H9.61901C9.40386 17.4266 9.20447 17.3126 9.0965 17.1265C8.98854 16.9404 8.98854 16.7108 9.0965 16.5247C9.20447 16.3386 9.40386 16.2246 9.61901 16.2259H10.8195C11.1508 16.2258 11.4196 16.4943 11.4197 16.8256ZM14.4209 16.8257C14.4206 17.157 14.152 17.4254 13.8207 17.4254H12.6202C12.405 17.4267 12.2057 17.3127 12.0977 17.1266C11.9897 16.9405 11.9897 16.7109 12.0977 16.5248C12.2057 16.3387 12.405 16.2247 12.6202 16.226H13.8207C14.1519 16.2261 14.4205 16.4945 14.4209 16.8257ZM17.4221 16.8257C17.4218 17.157 17.1532 17.4253 16.8219 17.4253H15.6214C15.4062 17.4266 15.2069 17.3126 15.0989 17.1265C14.9909 16.9404 14.9909 16.7108 15.0989 16.5247C15.2069 16.3386 15.4062 16.2246 15.6214 16.2259H16.8219C17.1532 16.2258 17.4219 16.4944 17.4221 16.8257Z" fill="currentColor"/>
</svg>
