<svg width="24" height="24" viewBox="0 0 24 24" fill="currentColor" xmlns="http://www.w3.org/2000/svg">
<path fill-rule="evenodd" clip-rule="evenodd" d="M13.8 3.62405C13.3539 3.09162 12.6947 2.78406 12 2.78406C11.3054 2.78406 10.6464 3.09162 10.2002 3.62405L9.04082 4.77605H6.00002V7.79821L2.40002 11.3761H6.00002V18.5761C6.00002 19.5702 6.80591 20.3761 7.80002 20.3761H16.2C17.1941 20.3761 18 19.5702 18 18.5761V11.3761H21.6L13.8 3.62405ZM9.07061 18.8668C8.64263 19.2946 7.94892 19.2945 7.52112 18.8665C7.09332 18.4386 7.09342 17.7448 7.52134 17.317C7.94925 16.8892 8.64296 16.8892 9.07082 17.3171C9.2763 17.5226 9.39172 17.8014 9.39168 18.092C9.39164 18.3827 9.27615 18.6614 9.07061 18.8668ZM14.5296 18.3777C14.29 18.3778 14.0912 18.1922 14.0748 17.9531C13.8798 15.1257 11.7549 12.8092 8.95478 12.3715C8.92462 12.3669 8.89395 12.3757 8.87082 12.3956C8.8477 12.4155 8.83441 12.4445 8.83445 12.475V13.1098C8.83446 13.2051 8.90205 13.2869 8.99558 13.305C11.3425 13.761 13.0701 15.7675 13.1725 18.1561C13.1749 18.2141 13.1536 18.2705 13.1134 18.3124C13.0732 18.3543 13.0176 18.378 12.9596 18.378H12.2653L11.3533 18.3777L10.6915 18.3781C10.5556 18.3777 10.4424 18.274 10.4299 18.1388C10.3209 17.04 9.48561 16.1524 8.39549 15.9769C8.14795 15.937 7.979 15.7048 8.01727 15.457C8.05553 15.2093 8.28667 15.0388 8.53469 15.0756C9.79713 15.2768 10.8347 16.1795 11.2087 17.4019C11.2346 17.4884 11.3141 17.5478 11.4044 17.5481H12.026C12.065 17.5481 12.1019 17.5303 12.1262 17.4998C12.1504 17.4692 12.1594 17.4293 12.1505 17.3913C11.7168 15.5642 10.1354 14.2382 8.26066 14.1299C8.11974 14.1215 8.00982 14.0047 8.01007 13.8635V13.2107L8.01024 12.2987V11.6219C8.01031 11.5591 8.03589 11.499 8.08112 11.4554C8.12634 11.4118 8.18733 11.3885 8.2501 11.3907C11.8281 11.513 14.7354 14.319 14.9844 17.8904C14.993 18.0165 14.949 18.1405 14.8628 18.2328C14.7766 18.3252 14.656 18.3777 14.5296 18.3777Z" fill="currentColor"/>
</svg>
