<svg width="24" height="24" viewBox="0 0 24 24" fill="currentColor" xmlns="http://www.w3.org/2000/svg">
<path fill-rule="evenodd" clip-rule="evenodd" d="M19.7826 3H10.2096C10.2081 6.97522 6.98518 10.1973 3.0096 10.1973C3.00636 10.1973 3.00314 10.1973 3 10.1973V19.7826C3.002 20.4674 3.55661 21.022 4.24138 21.024H19.7826C20.4674 21.022 21.022 20.4674 21.024 19.7826V4.24138C21.022 3.55661 20.4674 3.002 19.7826 3ZM18.4962 13.1252H17.0493C16.9974 13.1252 16.9477 13.1045 16.911 13.0679C16.8744 13.0312 16.8538 12.9814 16.8538 12.9296V10.7152C16.8538 10.7075 16.8534 10.6999 16.8532 10.6923C16.8605 10.4972 16.7864 10.3079 16.6485 10.1697L15.1152 8.63539C14.97 8.49041 14.7686 8.41618 14.564 8.43218C14.5465 8.43086 14.5289 8.42998 14.5112 8.42998H11.9268C11.9231 8.42998 11.9196 8.43019 11.9158 8.43026C11.9082 8.43026 11.9006 8.43048 11.893 8.43084C11.8858 8.43118 11.8786 8.43182 11.8714 8.43238C11.8671 8.43271 11.8628 8.43295 11.8585 8.43336C11.8516 8.43403 11.8448 8.43494 11.8379 8.43576C11.8331 8.43634 11.8285 8.43686 11.8238 8.43756C11.8181 8.4384 11.8125 8.43943 11.8068 8.44042C11.8007 8.44147 11.7946 8.4425 11.7885 8.4437C11.7847 8.44447 11.781 8.44536 11.7772 8.4461C11.769 8.44788 11.7608 8.44973 11.7526 8.45182C11.7513 8.45215 11.7499 8.45254 11.7486 8.4529C11.628 8.48413 11.5179 8.54711 11.4299 8.6353L9.77088 10.2954C9.49716 10.571 9.49716 11.0158 9.77088 11.2914C10.0462 11.5653 10.491 11.5653 10.7663 11.2914L12.1326 9.92431C12.1875 9.8694 12.2619 9.83854 12.3396 9.83854H13.9814L11.2229 12.5987C11.2133 12.6083 11.2042 12.6181 11.1953 12.6281C11.1853 12.6369 11.1755 12.6461 11.166 12.6557L9.39478 14.428C9.32713 14.4957 9.23534 14.5337 9.13963 14.5337H6.29585C5.90747 14.535 5.59301 14.8496 5.592 15.238C5.59301 15.6264 5.90749 15.941 6.29587 15.9423H9.58056C9.58435 15.9423 9.5881 15.9421 9.59189 15.942C9.59938 15.942 9.60686 15.9418 9.61435 15.9414C9.62184 15.9411 9.62875 15.9405 9.63578 15.9399C9.6401 15.9396 9.64442 15.9393 9.64874 15.9389C9.65566 15.9382 9.6625 15.9373 9.66936 15.9365C9.67404 15.9359 9.67874 15.9354 9.68342 15.9347C9.68916 15.9338 9.69482 15.9328 9.70051 15.9318C9.70658 15.9308 9.71266 15.9298 9.7187 15.9285C9.72257 15.9278 9.72636 15.9269 9.73018 15.9261C9.73834 15.9244 9.7465 15.9225 9.75461 15.9205L9.75869 15.9194C9.87931 15.8881 9.98936 15.8251 10.0774 15.737L11.6921 14.1213L13.6099 16.0402C13.6855 16.1158 13.6855 16.2385 13.6099 16.3141L11.9268 17.9983C11.653 18.2738 11.653 18.7187 11.9268 18.9943C12.202 19.2682 12.6469 19.2682 12.9222 18.9943L15.2118 16.7033C15.2216 16.6945 15.2313 16.6854 15.2408 16.676C15.5145 16.3997 15.5145 15.9545 15.2408 15.6783C15.2313 15.6688 15.2216 15.6598 15.2118 15.651L13.3629 13.8011L15.4461 11.7167V13.8295C15.4472 14.2179 15.7616 14.5326 16.15 14.5338H18.4962C18.8846 14.5325 19.199 14.2178 19.2 13.8294C19.199 13.4411 18.8846 13.1264 18.4962 13.1252ZM17.2963 9.36876C17.8709 9.37999 18.3946 9.04109 18.6198 8.51238C18.845 7.98368 18.7264 7.37121 18.3201 6.96475C17.9139 6.5583 17.3015 6.43936 16.7727 6.66422C16.2439 6.88909 15.9046 7.41265 15.9156 7.9872C15.9297 8.74397 16.5396 9.35419 17.2963 9.36876ZM3 5.21657V4.14617C3.00816 4.14634 3.01625 4.14679 3.02443 4.14679C3.65622 4.14483 4.16718 3.63179 4.16657 3H5.23258C5.23258 4.22436 4.24394 5.21688 3.02443 5.21688C3.01627 5.21688 3.00816 5.21666 3 5.21657ZM3 7.20413V6.13392C3.00816 6.13392 3.01627 6.13423 3.02443 6.13423C3.85406 6.13262 4.64907 5.8015 5.23456 5.21372C5.82004 4.62593 6.14804 3.82963 6.1464 3H7.21241C7.21241 5.32205 5.33743 7.20444 3.02455 7.20444C3.01627 7.20444 3.00816 7.20418 3 7.20413ZM3 9.19183V8.1216C3.00816 8.1216 3.01627 8.12191 3.02443 8.12191C3.7066 8.12333 4.38199 7.98655 5.00986 7.71984C6.90215 6.9151 8.12937 5.0563 8.12599 3H9.192C9.192 6.41976 6.43068 9.192 3.02443 9.192C3.01627 9.192 3.00816 9.192 3 9.19183Z" fill="currentColor"/>
</svg>
