<svg width="24" height="24" viewBox="0 0 24 24" fill="currentColor" xmlns="http://www.w3.org/2000/svg">
<path fill-rule="evenodd" clip-rule="evenodd" d="M14.9969 1.776C11.0188 1.776 7.79394 3.86047 7.79394 6.43179C7.79669 6.90586 7.90535 7.37332 8.11199 7.8H1.79999V19.1995C1.79999 19.9954 2.11635 20.7586 2.6792 21.3214C3.24205 21.8841 4.00538 22.2 4.80126 22.2H19.8V9.888C21.2685 9.03564 22.2 7.80799 22.2 6.43183C22.2 3.86047 18.9751 1.776 14.9969 1.776ZM7.19999 21L4.80126 20.9998C3.80732 20.9988 3.00175 20.1935 3.00049 19.1995L2.99999 9H7.19999V21ZM18.6 21H8.99999V16.8H18.6V21ZM18.6 15H8.99999V9C10.0824 10.0476 11.8076 10.8096 13.8087 11.0243L13.174 13.6147L17.9515 10.6792C18.1764 10.6137 18.3881 10.5435 18.6 10.464V15ZM19.9272 5.54959C19.7268 5.98846 19.5562 6.44035 19.4166 6.90218L18.6615 6.86959L19.4546 4.0938L20.5899 4.28393C20.2893 4.82356 20.0684 5.24545 19.9272 5.54959ZM19.1775 7.52688C19.2934 7.58486 19.3513 7.6754 19.3514 7.79849C19.3514 7.9651 19.2627 8.1172 19.0852 8.2548C18.9556 8.35995 18.7997 8.42758 18.6343 8.45035C18.504 8.46842 18.3917 8.45393 18.2975 8.40689C18.1853 8.349 18.1292 8.25846 18.1292 8.13528C18.1292 7.96874 18.2143 7.81483 18.3845 7.67354C18.5144 7.56465 18.6727 7.49495 18.8408 7.47257C18.9559 7.45256 19.0745 7.47168 19.1775 7.52688ZM18.1237 8.08639L17.0156 8.28195L17.2111 5.90268L16.4996 8.53726L15.902 8.61874L16.2605 5.27256L15.4891 8.23851L14.3592 8.39059C14.3883 8.31699 14.4169 8.24327 14.4451 8.16943L13.5118 8.38517L13.5934 7.70614L13.2294 7.77677L13.1153 8.2548L11.9746 8.42861C12.5069 7.07059 12.9379 5.76146 13.2674 4.5012L14.9188 4.22417C14.7534 5.18759 14.6677 6.30599 14.6615 7.57937C15.0028 6.60982 15.2757 5.61755 15.4783 4.60985L16.7766 4.398L16.5897 6.39099L17.0982 4.54992L18.3465 4.33282C18.1979 5.51346 18.1237 6.57814 18.1237 7.52688L18.1237 8.08639ZM13.9248 4.9248L13.4141 7.0272L13.6806 6.9755L13.9302 4.92497L13.9248 4.9248ZM12.5287 6.5328C12.5397 6.58459 12.5452 6.6374 12.545 6.69034C12.545 6.96195 12.4146 7.23715 12.1538 7.51594C11.9387 7.74186 11.6894 7.9325 11.4151 8.08087C11.0637 8.27642 10.66 8.3742 10.2037 8.3742C10.1313 8.3742 10.0589 8.37239 9.98641 8.36878C10.1276 7.62638 10.2834 6.62867 10.4536 5.37566C10.5043 5.0208 10.5387 4.74195 10.5568 4.53912C10.6726 4.52106 10.8899 4.47217 11.2086 4.39246C11.4269 4.33785 11.6482 4.29618 11.8713 4.26766C11.9365 4.26407 11.9999 4.26226 12.0615 4.26221C12.5395 4.26221 12.7767 4.43242 12.7731 4.77283C12.7731 5.25451 12.4761 5.73616 11.8822 6.21778C12.2551 6.19246 12.4707 6.29747 12.5287 6.5328ZM11.1327 6.79899C11.1037 6.93658 11.0729 7.12309 11.0403 7.3585C11.5509 7.20283 11.8062 7.02538 11.8063 6.82615C11.8063 6.75375 11.7429 6.71754 11.6162 6.7175C11.5038 6.71757 11.3427 6.74473 11.1327 6.79899ZM11.7357 5.28886C11.6632 5.28886 11.5618 5.30696 11.4315 5.34317C11.4024 5.46269 11.3752 5.5822 11.3499 5.7017L11.2738 6.06022C11.5381 5.89726 11.7264 5.70894 11.8387 5.49528C11.8601 5.46074 11.8732 5.42168 11.8768 5.38121C11.8768 5.31967 11.8298 5.28889 11.7357 5.28886Z" fill="currentColor"/>
</svg>
