<svg width="24" height="24" viewBox="0 0 24 24" fill="currentColor" xmlns="http://www.w3.org/2000/svg">
<path fill-rule="evenodd" clip-rule="evenodd" d="M12 2.4C6.3667 2.4 1.8 6.0264 1.8 10.5C1.8 13.9671 4.5432 16.9254 8.4 18.081V22.2L12 18.6C17.6333 18.6 22.2 14.9736 22.2 10.5C22.2 6.0264 17.6333 2.4 12 2.4ZM12.6223 15.6H12.24V10.7499C12.5004 10.6363 12.6454 10.3556 12.5873 10.0774C12.5293 9.79931 12.2841 9.60003 12 9.60003C11.7159 9.60003 11.4707 9.79931 11.4127 10.0774C11.3546 10.3556 11.4996 10.6363 11.76 10.7499V15.6H11.3778C11.2266 13.5484 10.3092 11.8434 9.06418 11.1428L10.2 6.6H13.8L14.9357 11.1428C13.6908 11.8434 12.7735 13.5484 12.6223 15.6Z" fill="currentColor"/>
</svg>
