<svg width="24" height="24" viewBox="0 0 24 24" fill="currentColor" xmlns="http://www.w3.org/2000/svg">
<path fill-rule="evenodd" clip-rule="evenodd" d="M17.9999 12V19.2C17.9999 20.1941 17.1941 21 16.1999 21H7.79995C6.80584 21 5.99995 20.1941 5.99995 19.2V17.4H5.39995V18C5.40087 18.2304 5.26928 18.4407 5.06174 18.5407C4.8542 18.6406 4.60769 18.6124 4.42816 18.468L1.81094 16.3698C1.5764 16.1816 1.43994 15.8971 1.43994 15.5964C1.43994 15.2957 1.5764 15.0112 1.81094 14.823L4.42816 12.7246C4.60817 12.5803 4.85508 12.552 5.06304 12.652C5.27081 12.7553 5.40157 12.968 5.39995 13.2V13.8H5.99995V12H2.39995L5.99995 8.42217V5.40002H9.04075L10.1999 4.24802C10.6461 3.71559 11.3053 3.40802 11.9999 3.40802C12.6946 3.40802 13.3536 3.71559 13.7997 4.24802L21.5999 12H17.9999ZM4.79995 14.4V13.152L2.18604 15.2445C2.09371 15.3186 2.03999 15.4307 2.03999 15.5491C2.03999 15.6675 2.09371 15.7795 2.18604 15.8536L4.79995 17.952V16.8L7.91964 16.7978C8.19102 16.7753 8.39985 16.5486 8.39995 16.2762V14.9862C8.39995 14.8307 8.3382 14.6816 8.22827 14.5717C8.11835 14.4618 7.96925 14.4 7.8138 14.4H4.79995Z" fill="currentColor"/>
</svg>
