<svg width="24" height="24" viewBox="0 0 24 24" fill="currentColor" xmlns="http://www.w3.org/2000/svg">
<path fill-rule="evenodd" clip-rule="evenodd" d="M10.8005 3.6C10.8009 2.81183 10.2885 2.11506 9.53604 1.88057C8.78357 1.64607 7.96605 1.92839 7.51864 2.57725C7.07122 3.22612 7.09798 4.0906 7.58467 4.71055C5.50666 5.58103 3.96826 7.48365 3.61157 9.77774C3.57225 10.0338 3.64675 10.2942 3.81553 10.4907C3.9843 10.6872 4.2305 10.8002 4.48954 10.8H4.51354C4.95326 10.7983 5.32613 10.4764 5.39194 10.0416C5.69905 8.13158 7.12103 6.59169 9.00058 6.1337V6.77414C7.22048 7.30535 6.0004 8.94233 6 10.8V22.2C6.00035 22.5315 6.26921 22.8 6.60072 22.8H13.8004C13.9595 22.8 14.112 22.7367 14.2245 22.6242C14.3369 22.5117 14.4001 22.3591 14.4 22.2V10.8C14.4 8.71231 12.8667 6.94149 10.8005 6.64284V6H13.2004V6.6L20.4 7.8V2.4L13.2004 3.6V4.2H10.8005V3.6ZM9.0005 3C9.33188 3 9.60051 3.26862 9.60051 3.6L9.59895 3.64096C9.57668 3.96628 9.29868 4.21427 8.97294 4.19937C8.6472 4.18447 8.39299 3.91215 8.40051 3.58616C8.40802 3.26017 8.67443 2.99986 9.0005 3Z" fill="currentColor"/>
</svg>
