<svg width="24" height="24" viewBox="0 0 24 24" fill="currentColor" xmlns="http://www.w3.org/2000/svg">
<path fill-rule="evenodd" clip-rule="evenodd" d="M22.2 19.8001V19.2001H21.6V9.0001H22.2V7.8001H18.6V6.65465L12 3.6001L5.40001 6.65465V7.8001H1.80001V9.0001H2.40001V19.2001H1.80001V19.8001H1.20001V20.4001H22.8V19.8001H22.2ZM12 4.9225L15.6251 6.6001H8.37496L12 4.9225ZM6.00001 17.4001H3.60001V14.4241H6.00001V17.4001ZM6.00001 13.2001H3.60001V10.2001H6.00001V13.2001ZM8.40001 18.6001H7.20001V9.0001H8.40001V18.6001ZM10.8 18.6001H9.60001V9.0001H10.8V18.6001ZM14.4 18.6001H13.2V9.0001H14.4V18.6001ZM16.8 18.6001H15.6V9.0001H16.8V18.6001ZM20.4 17.4001H18V14.4241H20.4V17.4001ZM20.4 13.2001H18V10.2001H20.4V13.2001Z" fill="currentColor"/>
</svg>
