<svg width="24" height="24" viewBox="0 0 24 24" fill="currentColor" xmlns="http://www.w3.org/2000/svg">
<path fill-rule="evenodd" clip-rule="evenodd" d="M16.2 2.10001C16.2 1.60296 15.797 1.20001 15.3 1.20001H15V3.00001H15.3C15.797 3.00001 16.2 2.59707 16.2 2.10001ZM20.1 3.00001H20.4V1.20001H20.1C19.6029 1.20001 19.2 1.60296 19.2 2.10001C19.2 2.59707 19.6029 3.00001 20.1 3.00001ZM21.6 1.20001H21V3.00001H21.48V6.79201C21.4726 8.87431 19.7823 10.5584 17.7 10.5584C15.6177 10.5584 13.9276 8.87431 13.9201 6.79201L13.92 3.00001H14.4V1.20001H13.8C13.4686 1.20001 13.2 1.46864 13.2 1.80001V6.79201C13.2062 9.15064 15.027 11.0826 17.34 11.2656V17.88H17.338C17.3373 19.993 15.7236 21.756 13.6189 21.9432C11.5142 22.1303 9.61472 20.6798 9.24116 18.6H10.981C11.5441 18.5997 12.0003 18.1431 12 17.58V2.22001C12.0003 1.65697 11.5441 1.2003 10.981 1.20001H2.81896C2.25591 1.2003 1.79971 1.65697 1.79999 2.22001V17.58C1.79971 18.1431 2.25591 18.5997 2.81896 18.6H8.51176C8.85916 20.9094 10.8518 22.68 13.258 22.68C15.9089 22.68 18.058 20.531 18.058 17.88H18.06V11.2656C20.373 11.0825 22.1937 9.15059 22.2 6.79201V1.80001C22.2 1.46864 21.9314 1.20001 21.6 1.20001ZM5.99999 1.80001H7.79999C7.96567 1.80001 8.09999 1.93433 8.09999 2.10001C8.09999 2.2657 7.96567 2.40001 7.79999 2.40001H5.99999C5.8343 2.40001 5.69999 2.2657 5.69999 2.10001C5.69999 1.93433 5.8343 1.80001 5.99999 1.80001ZM2.99999 3.00001H10.8V16.2H2.99999V3.00001ZM6.89999 18C6.56862 18 6.29999 17.7314 6.29999 17.4C6.29999 17.0686 6.56862 16.8 6.89999 16.8C7.23136 16.8 7.49999 17.0686 7.49999 17.4C7.49999 17.7314 7.23136 18 6.89999 18Z" fill="currentColor"/>
</svg>
