<svg width="24" height="24" viewBox="0 0 24 24" fill="currentColor" xmlns="http://www.w3.org/2000/svg">
<path fill-rule="evenodd" clip-rule="evenodd" d="M9.12001 10.8001C9.24036 10.8001 9.35275 10.8602 9.41953 10.9603L9.93426 11.7324L11.1716 6.98915C11.2143 6.82503 11.3658 6.71297 11.5352 6.72012C11.7046 6.72727 11.8461 6.8517 11.8748 7.01884L12.807 12.4253L13.3339 10.5811C13.3781 10.4266 13.5193 10.3201 13.68 10.3201H13.6822C13.8438 10.3207 13.9852 10.4292 14.0273 10.5853L14.4165 12.0122L14.7752 10.8165C14.8176 10.6752 14.942 10.574 15.089 10.5613C15.2361 10.5486 15.376 10.6269 15.442 10.7589L15.8687 11.6123L16.2513 10.9748C16.3164 10.8664 16.4336 10.8001 16.56 10.8001H21.7003C22.6576 8.61611 22.2385 5.9534 20.4425 4.15744C18.1135 1.82838 14.3465 1.81475 12.0001 4.11582C9.64806 1.81475 5.88659 1.82843 3.55758 4.15748C1.76161 5.9534 1.34245 8.61613 2.29969 10.8001H9.12001ZM21.3258 11.5201H16.7638L16.1487 12.5452C16.081 12.6579 15.9574 12.7247 15.8261 12.7197C15.6948 12.7146 15.5767 12.6385 15.518 12.5209L15.204 11.8929L14.7449 13.4235C14.6992 13.5757 14.559 13.68 14.4 13.68H14.3954C14.2345 13.6787 14.0942 13.5701 14.0527 13.4146L13.6719 12.0185L13.0661 14.1387C13.0221 14.2933 12.8809 14.3999 12.7202 14.4C12.7138 14.4 12.7073 14.3998 12.7007 14.3995C12.533 14.3904 12.3938 14.2666 12.3653 14.1011L11.4482 8.78176L10.4284 12.6908C10.3927 12.8281 10.2796 12.9316 10.1397 12.9551C9.99977 12.9786 9.85908 12.9178 9.78042 12.7997L8.92732 11.5201H2.67424C2.89367 11.8827 3.15206 12.2202 3.44481 12.5267L12 22.2L20.5553 12.5267C20.848 12.2202 21.1064 11.8827 21.3258 11.5201Z" fill="currentColor"/>
</svg>
