<svg width="24" height="24" viewBox="0 0 24 24" fill="currentColor" xmlns="http://www.w3.org/2000/svg">
<path fill-rule="evenodd" clip-rule="evenodd" d="M21.5957 5.38721H2.39572C2.06434 5.38721 1.79572 5.65584 1.79572 5.98721V17.9872C1.79572 18.3186 2.06434 18.5872 2.39572 18.5872H21.5957C21.9271 18.5872 22.1957 18.3186 22.1957 17.9872V5.98721C22.1957 5.65584 21.9271 5.38721 21.5957 5.38721ZM2.39572 5.98721H21.5957V17.9872H2.39572V5.98721ZM18.7822 15.268C18.7702 15.2712 18.5364 15.3339 18.4097 15.3339H18.4008C18.4001 15.3337 18.4564 15.3049 18.4557 15.3047C19.1427 14.706 19.2463 14.0823 19.1517 13.6565C19.0776 13.3238 18.8439 13.0947 18.5418 13.0587C18.5376 13.0582 18.5334 13.0578 18.5291 13.0574C18.4931 13.0544 18.4574 13.0529 18.4221 13.0529C18.1116 13.0516 17.8136 13.1748 17.5947 13.395C17.2382 13.7432 17.0559 14.3073 17.0947 14.9426C17.1046 15.0888 17.1475 15.2307 17.2203 15.3578C17.0038 15.5059 16.7686 15.5839 16.5456 15.5839C16.4791 15.5841 16.4127 15.5768 16.3478 15.5623C16.3306 15.5557 16.3137 15.5495 16.2971 15.5436C16.6477 15.0462 16.8872 14.4494 16.9399 13.9393C17.0043 13.3161 16.788 12.8528 16.3481 12.669C16.2258 12.6159 16.094 12.588 15.9606 12.5872C15.6273 12.5872 15.3149 12.7705 15.094 13.1121C15.087 13.1231 15.0805 13.1344 15.0747 13.146C14.8037 13.6873 14.7193 14.1795 14.8164 14.6508C14.8182 14.6597 14.8204 14.6685 14.8229 14.6772C14.9151 14.9984 15.1042 15.328 15.3009 15.5982C15.1059 15.7691 14.8953 15.89 14.6847 15.9306C14.592 15.9483 14.5102 16.0022 14.4572 16.0803C14.4042 16.1584 14.3844 16.2543 14.4021 16.347C14.4393 16.54 14.6259 16.6666 14.8189 16.6295C15.1554 16.5647 15.4908 16.3854 15.7983 16.1101C15.869 16.1448 15.942 16.1747 16.0167 16.1995C16.0496 16.2112 16.0806 16.2221 16.1089 16.2334C16.1237 16.2393 16.1388 16.2442 16.1543 16.248C16.2819 16.2798 16.413 16.2958 16.5446 16.2956C16.9398 16.2956 17.3456 16.1552 17.7014 15.8886C17.7079 15.8837 17.7142 15.8786 17.7204 15.8733C17.7388 15.8574 17.756 15.8416 17.7721 15.8258C17.9548 15.9272 18.1945 16.0454 18.3684 16.0454C18.3722 16.0454 18.376 16.0454 18.3798 16.0452C18.6346 16.0411 18.9378 15.986 19.0936 15.9081C19.2693 15.8216 19.3421 15.6093 19.2564 15.4332C19.1707 15.257 18.9588 15.1832 18.7822 15.268ZM16.231 13.8662C16.193 14.2341 16.0222 14.6637 15.7785 15.0366C15.6558 14.8471 15.5596 14.6543 15.5114 14.494C15.4532 14.1935 15.5159 13.8624 15.7026 13.4828C15.8024 13.3352 15.8933 13.2985 15.9634 13.2985C16.0007 13.2997 16.0374 13.3086 16.071 13.3248C16.2512 13.4001 16.2485 13.6963 16.231 13.8662ZM17.8054 14.8988C17.7802 14.4827 17.8901 14.1014 18.0925 13.9038C18.1791 13.8141 18.2987 13.7638 18.4234 13.7646C18.4289 13.7646 18.4345 13.7646 18.4401 13.7648C18.453 13.7892 18.4734 13.853 18.4595 13.964C18.4443 14.0857 18.3521 14.477 17.8054 14.8988ZM4.3665 10.2661H4.12612C3.90121 10.2661 3.76691 10.4361 3.76691 10.6582C3.76691 10.8768 3.90457 11.0503 4.12612 11.0503H4.42852C4.53018 11.5731 4.75458 11.9911 5.09612 12.3258C5.46443 12.6866 5.95244 12.8571 6.54661 12.8571C7.4764 12.8571 8.03485 12.5116 8.35679 11.7512C8.3831 11.6976 8.39643 11.6386 8.39574 11.5789C8.39574 11.4021 8.25496 11.2332 8.06053 11.18C8.01193 11.1641 7.9612 11.1557 7.91008 11.155C7.73077 11.155 7.58826 11.2571 7.50892 11.4423L7.50822 11.4438L7.50764 11.4454C7.34173 11.8614 7.09931 12.027 6.54676 12.027C5.90704 12.027 5.46647 11.7693 5.29338 11.0503H6.88612C7.10437 11.0503 7.24532 10.8735 7.24532 10.6582C7.24532 10.4329 7.11445 10.2661 6.88612 10.2661H5.20396C5.20292 10.2007 5.20292 10.0869 5.20292 10.0467C5.20292 9.98042 5.20532 9.93931 5.20849 9.87386H7.23193C7.45357 9.87386 7.59126 9.69785 7.59126 9.47498C7.59126 9.25728 7.45686 9.08964 7.23193 9.08964H5.31913C5.51154 8.37074 5.94294 8.02164 6.54671 8.02164C7.06873 8.02164 7.32215 8.1911 7.51489 8.6575C7.58466 8.82658 7.72384 8.92567 7.89671 8.92567C7.9592 8.92375 8.02111 8.91306 8.08062 8.8939L8.0876 8.89238L8.09418 8.88981C8.2731 8.81503 8.3757 8.67345 8.3757 8.50133C8.37671 8.43079 8.36142 8.36098 8.33101 8.29733C8.02852 7.55035 7.44493 7.18721 6.54673 7.18721C5.99828 7.18721 5.51459 7.36546 5.1483 7.71859C4.80676 8.04758 4.56702 8.5669 4.45124 9.08971H4.12612C3.90457 9.08971 3.76691 9.26316 3.76691 9.48182C3.76691 9.70049 3.90457 9.87394 4.12612 9.87394H4.37106C4.36789 9.93929 4.36568 9.98489 4.36568 10.0467C4.36568 10.0888 4.36568 10.2007 4.3665 10.2661ZM3.59572 14.3872H11.9957V13.7872H3.59572V14.3872ZM19.7957 7.18721H12.5957C12.2643 7.18721 11.9957 7.45584 11.9957 7.78721V8.38721C11.9957 8.71858 12.2643 8.98721 12.5957 8.98721H19.7957C20.1271 8.98721 20.3957 8.71858 20.3957 8.38721V7.78721C20.3957 7.45584 20.1271 7.18721 19.7957 7.18721ZM3.59572 16.1872H11.9957V15.5872H3.59572V16.1872Z" fill="currentColor"/>
</svg>
