<svg width="24" height="24" viewBox="0 0 24 24" fill="currentColor" xmlns="http://www.w3.org/2000/svg">
<path fill-rule="evenodd" clip-rule="evenodd" d="M12.4603 13.3089L10.7633 11.6118C10.529 11.3775 10.529 10.9976 10.7633 10.7633L13.9105 7.61613C12.2209 6.90025 10.271 7.20997 8.88642 8.41417C7.50182 9.61836 6.92465 11.5064 7.39926 13.279L3.32737 17.3506C4.17503 18.734 5.33812 19.8971 6.7215 20.7447L10.7932 16.673C12.5658 17.1477 14.4539 16.5705 15.6581 15.1859C16.8623 13.8012 17.1719 11.8513 16.456 10.1617L13.3088 13.3089C13.0745 13.5432 12.6946 13.5432 12.4603 13.3089ZM15.0493 4.76006C12.5962 3.744 15.5615 1.836 12.0361 1.836C8.50984 1.83641 11.4746 3.744 9.02209 4.7598C6.56886 5.77601 7.31646 2.33078 4.82358 4.82352C2.3307 7.31625 5.7758 6.56901 4.75981 9.02215C3.74356 11.4748 1.83606 8.51057 1.83606 12.036C1.8357 15.2411 3.41248 13.0826 4.46267 14.5063L6.08944 12.8796C5.82086 11.0098 6.44988 9.12282 7.78667 7.78819C10.1298 5.44505 13.9288 5.44505 16.272 7.78819C18.6151 10.1313 18.6151 13.9303 16.272 16.2735C14.9373 17.6103 13.0504 18.2393 11.1806 17.9707L9.55206 19.5992C11.0027 20.6493 8.82126 22.236 12.0361 22.236C15.5615 22.236 12.5967 20.3286 15.0501 19.3123C17.5025 18.2965 16.755 21.7417 19.2486 19.2485C21.7414 16.7558 18.2953 17.5027 19.3113 15.0497C20.3277 12.5974 22.2353 15.5619 22.2361 12.0361C22.2358 8.51054 20.3277 11.4758 19.3115 9.02251C18.2954 6.56925 21.7413 7.31652 19.2485 4.82354C16.7549 2.33095 17.5021 5.77581 15.0493 4.76006Z" fill="currentColor"/>
</svg>
