<svg width="24" height="24" viewBox="0 0 24 24" fill="currentColor" xmlns="http://www.w3.org/2000/svg">
<path fill-rule="evenodd" clip-rule="evenodd" d="M19.0099 4.02699C16.7513 4.02699 14.6524 3.31899 12.6954 2.10102C12.2549 1.82704 11.6969 1.82718 11.2566 2.10138C9.29959 3.32058 7.20077 4.03405 4.94218 4.02632C4.18786 4.02681 3.57605 4.63849 3.57605 5.39281V10.6289C3.57605 14.9509 6.02623 19.9601 11.5231 21.8829C11.8163 21.9855 12.1358 21.9855 12.429 21.8829C17.9258 19.96 20.376 14.9509 20.376 10.6289V5.39353C20.376 5.03115 20.2322 4.6836 19.976 4.42732C19.7198 4.17105 19.3723 4.02704 19.0099 4.02699ZM19.1761 11.0576C19.1761 14.1933 17.0934 18.9294 12.4234 20.6105C12.1342 20.7145 11.8179 20.7145 11.5287 20.6105C6.85865 18.9294 4.77605 14.1933 4.77605 11.0576V5.78072C4.77605 5.47503 5.02361 5.22709 5.3293 5.22673C7.68907 5.22673 9.87701 4.54124 11.6739 3.37306C11.8576 3.25354 12.0945 3.25354 12.2782 3.37306C14.0751 4.54131 16.2625 5.22721 18.6222 5.22721C18.7691 5.22723 18.91 5.28563 19.0139 5.38955C19.1178 5.49347 19.1761 5.63439 19.1761 5.78132V11.0576ZM14.41 11.3601V15.2768C14.4082 15.76 14.0165 16.151 13.5333 16.152H10.4668C9.98363 16.151 9.59193 15.76 9.59011 15.2768V11.3601H7.15205L11.2068 7.30066C11.4206 7.09695 11.7047 6.98353 12 6.98401C12.2954 6.98359 12.5795 7.09706 12.7933 7.30081L16.848 11.3601H14.41Z" fill="currentColor"/>
</svg>
