<svg width="24" height="24" viewBox="0 0 24 24" fill="currentColor" xmlns="http://www.w3.org/2000/svg">
<path fill-rule="evenodd" clip-rule="evenodd" d="M15.5999 11.4239V7.82395L12.0239 7.82825C8.54713 4.95756 5.16152 3.71561 5.00123 3.64795C4.95772 3.75981 4.91629 3.87281 4.87597 3.98635C4.84811 4.06509 4.82041 4.14391 4.79437 4.22335C4.72508 4.43373 4.66188 4.64677 4.60477 4.86245C3.68669 8.3342 4.44933 12.0356 6.66503 14.8616L6.35303 15.1735L6.41936 15.2399C6.49256 15.3131 6.49897 15.4074 6.44375 15.4627L6.38293 15.5235L6.48738 15.626L5.73592 16.377C5.58848 16.5245 5.44026 16.6962 5.36632 16.8353C5.29924 16.9527 5.25592 17.0783 5.25592 17.8799L5.26016 20.1599C5.13198 20.185 5.0384 20.2636 5.0384 20.3567V20.9999H6.59992V20.3519C6.59992 20.2534 6.49964 20.1797 6.35992 20.1599V17.4959C6.35992 17.4134 6.34974 17.2518 6.48037 17.1212L7.23834 16.3636L7.34173 16.4651L7.41515 16.3916C7.46833 16.3434 7.54902 16.3692 7.5968 16.4169L7.66856 16.4887L7.93028 16.2271C9.96882 18.0993 12.6855 19.224 15.6719 19.224C16.6866 19.224 17.6721 19.1099 18.6088 18.8619C18.8244 18.8049 19.0375 18.7418 19.2481 18.6725C19.3277 18.6463 19.4065 18.6187 19.4853 18.5909C19.599 18.5507 19.712 18.5093 19.8239 18.4658C19.7567 18.3065 18.434 14.8765 15.5999 11.4239ZM7.67591 7.82825C7.05318 6.95261 6.48542 6.03914 5.97592 5.09313C7.54867 5.85261 9.04071 6.76896 10.4293 7.82825H7.67591ZM8.29136 8.66798H14.0884L10.9809 11.7801C10.0205 10.7997 9.12225 9.7603 8.29136 8.66798ZM14.7839 15.1079C13.6904 14.2882 12.6478 13.4028 11.6618 12.4566L14.7839 9.3246V15.1079ZM15.5999 15.7217V13.0489C16.6472 14.4403 17.5707 15.9207 18.3599 17.4731C17.411 16.9361 16.4899 16.3516 15.5999 15.7217Z" fill="currentColor"/>
</svg>
