<svg width="24" height="24" viewBox="0 0 24 24" fill="currentColor" xmlns="http://www.w3.org/2000/svg">
<path fill-rule="evenodd" clip-rule="evenodd" d="M22.2001 12.2992C22.2001 7.56258 18.0654 3.83999 12.9521 3.83999C11.6867 3.83999 10.3787 4.09439 9.28006 4.51998C9.41642 3.11519 8.60004 1.79999 8.60004 1.79999C6.68513 3.43412 6.57998 4.91744 6.54235 5.59679C6.54103 5.62096 6.54036 5.64318 6.53969 5.66526L6.53887 5.6636C6.53887 5.6636 6.53227 5.9752 6.54576 6.182C5.43365 7.19944 4.28486 8.49071 3.84005 9.90558L2.91989 9.90148C2.30309 9.90148 1.80005 10.4856 1.80005 11.198V14.6796C1.80005 15.392 2.30302 15.9691 2.91989 15.9691L3.84005 15.9712C4.34662 16.9507 5.72258 17.8414 6.57605 18.576C6.57451 18.6037 6.60005 18.6198 6.60005 18.648V20.88C6.60005 21.5923 7.06311 22.2 7.68005 22.2H8.85605C9.47309 22.2 9.95765 21.546 9.95765 20.8337V20.3157C10.9094 20.6177 11.8951 20.84 12.952 20.84C14.1677 20.84 15.8041 20.5647 16.8646 20.1701V20.8337C16.8647 21.546 17.3713 22.2 17.9881 22.2H19.0397C19.6568 22.2 20.16 21.5443 20.16 20.832C20.16 20.832 20.1532 18.1174 20.16 18.12C21.7654 16.5777 22.2001 14.6109 22.2001 12.2992ZM10.6376 5.00368C10.6376 5.00368 12.7585 3.94938 16.076 5.00368V5.87452C16.076 5.87452 13.3024 4.68827 10.6376 5.87452V5.00368ZM16.4946 16.3138C16.4038 16.4571 16.2735 16.571 16.1194 16.6418C15.9571 16.719 15.7798 16.7593 15.6 16.76H10.8401C10.0842 16.76 9.71686 16.4161 9.71686 15.74C9.71686 15.4889 9.81766 15.2425 10.0196 15.0085C10.2579 14.7102 10.4232 14.4432 10.5156 14.2028C10.6079 13.9624 10.6809 13.629 10.7346 13.2481H9.92933C9.62016 13.2481 9.36895 13.1602 9.17573 12.9955C8.9825 12.8308 8.88588 12.5956 8.88588 12.3007C8.88588 12.0016 8.98032 11.7665 9.1693 11.5986C9.35827 11.4307 9.61157 11.3435 9.92935 11.3435H10.3255C10.1666 10.9081 10.0872 10.5164 10.0872 10.1963C10.0872 9.67854 10.2504 9.236 10.5768 8.86218C10.9032 8.48836 11.3164 8.20638 11.8167 8.01623C12.2953 7.83018 12.804 7.73352 13.3175 7.73104C14.2451 7.73104 15.0234 7.94265 15.6525 8.36588C16.2536 8.76984 16.566 9.2543 16.5897 9.81928C16.5953 10.1018 16.486 10.3745 16.287 10.575C16.0958 10.7778 15.8281 10.8907 15.5494 10.8859C15.3498 10.8859 15.1812 10.8301 15.0438 10.7183C14.9064 10.6066 14.7668 10.4476 14.625 10.2413C14.464 9.98989 14.2847 9.80774 14.0872 9.69481C13.8896 9.58188 13.6427 9.52535 13.3464 9.5252C13.08 9.52418 12.8226 9.62142 12.6234 9.79832C12.4098 9.98094 12.303 10.2049 12.303 10.4734C12.303 10.6861 12.3996 10.9897 12.5928 11.3434H13.5429C13.8477 11.3434 14.1001 11.4319 14.2998 11.5998C14.4994 11.7676 14.5992 12.0056 14.5992 12.3048C14.5992 12.5868 14.4951 12.8157 14.2868 12.9867C14.0779 13.1597 13.8141 13.2524 13.5428 13.2482H12.8311C12.8311 13.6835 12.6594 14.2277 12.3158 14.8807H15.6008C15.8907 14.8807 16.1349 14.9647 16.3336 15.1279C16.5322 15.2911 16.6315 15.5202 16.6315 15.8103C16.6355 15.9878 16.5879 16.1627 16.4946 16.3138Z" fill="currentColor"/>
</svg>
