<svg width="24" height="24" viewBox="0 0 24 24" fill="currentColor" xmlns="http://www.w3.org/2000/svg">
<path fill-rule="evenodd" clip-rule="evenodd" d="M15 1.80005V5.40005C15 6.06279 15.4776 6.60005 16.0667 6.60005H19.8L15 1.80005ZM16.2 7.80005C14.8745 7.80005 13.8 6.72553 13.8 5.40005V1.80005H4.20001V20.9946V21C4.20001 21.6628 4.73727 22.2001 5.40001 22.2001H19.8V7.80005H16.2ZM9.48054 13.6278C9.28374 13.319 8.94515 12.207 8.86597 12.2102C8.83913 12.2125 8.81493 12.2273 8.80057 12.2501C8.78348 12.2731 6.90292 15.3505 6.83756 15.3965L6.11344 14.5536C6.68135 13.7851 7.99439 11.6948 8.13037 11.5588C9.55117 10.1373 10.0115 12.6469 10.1331 12.8933C10.461 12.3365 12.076 9.06806 12.2766 9.06773C12.5661 9.06722 13.8182 10.8511 14.2854 11.4035C14.4285 11.5727 14.9667 12.075 15.459 12.0747C16.488 12.0741 18.3694 9.68234 18.3694 9.68234C17.9826 10.4055 16.8782 12.8425 15.3396 13.0145C14.6236 13.0945 14.2356 12.7347 13.9983 12.5446C13.1103 11.8328 12.6178 10.5137 12.377 10.5137C12.3248 10.5137 12.3165 10.5441 12.2996 10.5671C12.2887 10.5817 11.2184 13.3653 11.0777 13.5712C10.7607 14.0347 9.95166 14.3671 9.48054 13.6278Z" fill="currentColor"/>
</svg>
