<svg width="24" height="24" viewBox="0 0 24 24" fill="currentColor" xmlns="http://www.w3.org/2000/svg">
<path fill-rule="evenodd" clip-rule="evenodd" d="M19.7967 1.80005H11.9952C6.36191 1.80005 1.79944 6.36547 1.79944 11.9988C1.79944 17.6321 6.36501 22.2001 11.9983 22.2001C17.6316 22.2001 22.199 17.6334 22.199 12L22.1982 4.20005C22.1975 2.87426 21.1224 1.80005 19.7967 1.80005ZM13.188 9.60005C13.8507 9.60005 14.388 10.1373 14.388 10.8C14.388 11.4628 13.8507 12 13.188 12C12.5252 12 11.988 11.4628 11.988 10.8C11.988 10.1373 12.5252 9.60005 13.188 9.60005ZM10.788 12C11.4507 12 11.988 12.5373 11.988 13.2C11.988 13.8628 11.4507 14.4 10.788 14.4C10.1252 14.4 9.58799 13.8628 9.58799 13.2C9.58799 12.5373 10.1252 12 10.788 12ZM13.6545 19.5148C12.8922 20.28 10.0518 19.5551 7.24405 16.7384C4.43685 13.9212 3.70331 11.1808 4.47685 10.3064C6.01012 8.77702 5.94229 8.48604 7.15045 9.9937C8.35799 11.5014 8.27783 11.4082 7.08289 12.6071C6.60673 13.0847 7.60091 14.2933 8.64105 15.3367C9.68118 16.3802 10.8854 17.3778 11.3617 16.9004C12.5512 15.7068 12.4638 15.6206 13.9659 16.8329C15.4685 18.0446 15.272 17.8918 13.6545 19.5148ZM19.259 10.8499C18.7508 11.36 16.8572 10.8767 14.9854 8.99897C13.1139 7.12085 12.6249 5.29387 13.1405 4.71101C14.1627 3.69139 14.1175 3.49742 14.923 4.50254C15.728 5.50764 15.6745 5.4455 14.8779 6.2448C14.5605 6.56323 15.2233 7.36894 15.9167 8.06458C16.6101 8.76022 17.413 9.42526 17.7305 9.10702C18.5235 8.31127 18.4652 8.25384 19.4665 9.06197C20.4684 9.86976 20.3374 9.76788 19.259 10.8499Z" fill="currentColor"/>
</svg>
