<svg width="24" height="24" viewBox="0 0 24 24" fill="currentColor" xmlns="http://www.w3.org/2000/svg">
<path fill-rule="evenodd" clip-rule="evenodd" d="M19.8 3H4.2C3.53726 3 3 3.53726 3 4.2V19.8C3 20.4627 3.53726 21 4.2 21H19.8C20.4627 21 21 20.4627 21 19.8V4.2C21 3.53726 20.4627 3 19.8 3ZM10.2 18.6H8.4V18H10.2V18.6ZM15.6 18.6H15V19.2H14.4V18.6H13.8V18H14.4V17.4H15V18H15.6V18.6ZM12 16.2C9.34903 16.2 7.2 14.051 7.2 11.4C7.2 8.74903 9.34903 6.6 12 6.6C14.651 6.6 16.8 8.74903 16.8 11.4C16.8 14.051 14.651 16.2 12 16.2ZM14.04 7.8666C13.8104 7.73406 13.5169 7.81273 13.3843 8.0423L12.6235 9.3599C12.5376 9.50843 12.5375 9.69152 12.6233 9.84014C12.709 9.98875 12.8676 10.0803 13.0391 10.0803C13.2107 10.0802 13.3692 9.98857 13.4549 9.8399L14.2157 8.5223C14.2794 8.41205 14.2966 8.28103 14.2637 8.15806C14.2307 8.03509 14.1503 7.93025 14.04 7.8666Z" fill="currentColor"/>
</svg>
