<svg width="24" height="24" viewBox="0 0 24 24" fill="currentColor" xmlns="http://www.w3.org/2000/svg">
<path fill-rule="evenodd" clip-rule="evenodd" d="M16.8012 1.79999H7.19882C6.88072 1.79999 6.5757 1.92666 6.35088 2.1517C6.12606 2.37674 5.99984 2.68188 6 2.99999V21C5.99967 21.6624 6.53637 22.1996 7.19878 22.2H16.8012C17.1193 22.2 17.4243 22.0733 17.6491 21.8483C17.8739 21.6232 18.0002 21.3181 18 21V2.99999C18.0003 2.33759 17.4636 1.80033 16.8012 1.79999ZM11.1 2.39999H12.9C13.0657 2.39999 13.2 2.5343 13.2 2.69999C13.2 2.86567 13.0657 2.99999 12.9 2.99999H11.1C10.9343 2.99999 10.8 2.86567 10.8 2.69999C10.8 2.5343 10.9343 2.39999 11.1 2.39999ZM12 21.6C11.6686 21.6 11.4 21.3314 11.4 21C11.4 20.6686 11.6686 20.4 12 20.4C12.3314 20.4 12.6 20.6686 12.6 21C12.6 21.3314 12.3314 21.6 12 21.6ZM16.8 19.8H7.2V3.59999H16.8V19.8ZM14.9798 9.61972C14.1583 8.79916 12.8295 8.79263 12 9.60505C11.1763 8.79699 9.85724 8.79744 9.03413 9.60607C8.21102 10.4147 8.18714 11.7336 8.98044 12.5715L12 15.8984L15.0196 12.5715C15.8087 11.7395 15.7911 10.4301 14.9798 9.61972Z" fill="currentColor"/>
</svg>
