<svg width="24" height="24" viewBox="0 0 24 24" fill="currentColor" xmlns="http://www.w3.org/2000/svg">
<path fill-rule="evenodd" clip-rule="evenodd" d="M17.1192 13.7398C18.6069 12.4162 20.0951 11.0931 21.5837 9.77044C21.7859 9.59073 21.9874 9.41025 22.2009 9.21976C22.1512 9.20654 22.1215 9.19595 22.0909 9.19096C21.0122 9.01184 19.9334 8.833 18.8546 8.65444C17.6146 8.44833 16.3746 8.24197 15.1346 8.03536C15.0498 8.02134 14.9978 7.98861 14.9576 7.90475C14.001 5.9076 13.0421 3.91155 12.0809 1.91661C12.0613 1.87581 12.0397 1.83623 12.0113 1.78113C11.981 1.84005 11.9604 1.87804 11.9417 1.91694C10.982 3.91261 10.0228 5.90853 9.0642 7.9047C9.0306 7.97481 8.99414 8.02026 8.91168 8.03241C8.65507 8.07018 8.39937 8.11432 8.14346 8.15687C7.21047 8.31191 6.27748 8.46718 5.34448 8.62269C4.40368 8.77949 3.46288 8.93634 2.52208 9.09323C2.29495 9.13115 2.06798 9.17027 1.84094 9.20884L1.82306 9.24004C1.85626 9.26117 1.88831 9.28407 1.91906 9.30863C2.16773 9.52842 2.41587 9.74883 2.66347 9.96986C4.14878 11.2902 5.63463 12.6099 7.12101 13.9291C7.19049 13.9906 7.20741 14.0429 7.18502 14.1321C6.59236 16.4913 6.00143 18.8509 5.41221 21.211H5.43621C5.50694 21.1684 5.5762 21.1231 5.64864 21.0836C7.73198 19.9466 9.81518 18.8092 11.8982 17.6716C11.9812 17.6262 12.0415 17.626 12.1246 17.6716C14.2455 18.8313 16.3674 19.9895 18.4902 21.1459C18.5241 21.1643 18.5545 21.1891 18.5866 21.211H18.6106C18.0444 18.9478 17.4783 16.6846 16.9122 14.4214C16.8794 14.29 16.7962 14.1417 16.8311 14.031C16.8675 13.9151 17.0154 13.8321 17.1192 13.7398ZM14.6715 13.8814C14.6703 14.4222 14.2963 14.8506 13.7705 14.9264C13.254 15.0008 12.7611 14.6478 12.6356 14.1135C12.4973 13.5246 12.8691 12.9364 13.4598 12.8202C13.5719 12.7982 13.6901 12.8066 13.8171 12.8004V10.8946L10.9344 11.6837V11.8355C10.9344 12.9231 10.9326 14.0107 10.9352 15.0983C10.9363 15.5375 10.7738 15.8863 10.3844 16.1045C9.77639 16.4453 8.99342 16.0555 8.88621 15.3651C8.79309 14.7653 9.13723 14.2347 9.70322 14.1187C9.82267 14.0941 9.94867 14.1016 10.0918 14.0932V13.9621C10.0918 12.8185 10.0931 11.6749 10.0896 10.5314C10.0893 10.4317 10.1148 10.3869 10.2162 10.3597C11.4178 10.0381 12.6178 9.7108 13.8184 9.38584C14.2231 9.27628 14.5632 9.46079 14.6558 9.84074C14.6681 9.89931 14.6734 9.95913 14.6717 10.019C14.6725 11.3065 14.6725 12.5938 14.6715 13.8814Z" fill="currentColor"/>
</svg>
