<svg width="24" height="24" viewBox="0 0 24 24" fill="currentColor" xmlns="http://www.w3.org/2000/svg">
<path fill-rule="evenodd" clip-rule="evenodd" d="M11.5988 8.72856H12.3243V7.32528H13.0405V6.61882H12.315V7.31578H11.5988V8.72856ZM6.6112 10.1729H7.33669V9.45835H8.04637V8.75201H5.86986V9.45835H6.6112V10.1729ZM6.62055 10.904V10.2258H5.89506V11.6384H6.6112V12.3447H8.0464V11.6384H7.33671V10.904L6.62055 10.904ZM11.5988 5.14035H12.3243V3.72768H10.9234V4.434H11.5988V5.14035ZM12.3243 5.90311H11.5988V6.60936H12.3243V5.90311ZM4.44387 10.8946V10.1882H3.71835V10.8946H4.44387ZM13.8005 17.3737V16.6674H13.0749V17.3737H13.8005ZM15.9269 16.6399H16.6524V15.9335H15.9268L15.9269 16.6399ZM10.1979 18.1082H9.47235V18.8145H10.1979L10.1979 18.1082ZM11.6364 20.9618H12.3619V20.2555H11.6364L11.6364 20.9618ZM13.7879 19.555H13.0623V20.2613H13.7879V20.9617H14.5134V20.2554H13.7879V19.555ZM14.4883 19.535H15.2139V18.8287H14.4883V19.535ZM9.44735 19.52H8.72183V20.9604H8.74686V20.9617H10.1979V20.2554H9.44735V19.52ZM8.77187 10.1976H7.33667L7.33671 10.904L8.77187 10.904V10.1976ZM9.48486 16.6495H8.75936V18.0979H9.48486V16.6495ZM4.44387 8.75201H2.99286V9.45835H4.44387V8.75201ZM4.44387 10.1728H5.89487V9.46654H4.44387V10.1728ZM4.44387 14.5037H2.99286V15.21H4.44387V14.5037ZM5.14434 13.8035H4.44397V14.5099H5.89496V13.8036H6.59526V13.797H9.48486V13.0907H6.59526V12.3678H5.16937V12.3524V10.904H4.44397V11.6274H3.71835V10.904H2.99286V13.0775H5.14434V13.8035ZM6.59536 15.2123H8.04637V14.5061H6.59526L6.59536 15.2123ZM11.6489 20.2421V19.5358H11.6364L13.0999 19.535V18.8287H13.0811V18.8146H13.8005V18.1083H12.3495V18.8146H12.3556V18.8287H11.6364V18.1083H10.9109V19.5358H10.1979V20.2421L11.6489 20.2421ZM13.8082 15.2172H12.3572V15.2547H12.3478V16.6674H13.0733V15.9235H13.8082V15.2172ZM18.829 20.267V20.9734H20.9929V20.267H18.829ZM20.2471 20.2639V20.2555H20.2674V18.8146H20.2846H20.9726V18.1082H20.2845V16.6625H18.8336V16.6673H18.1033V15.2101H19.5417V15.1996H19.5621V14.5099H20.3048V13.8036H19.5622V13.0908H19.5418V13.0606H20.2673V12.3447H20.9804V11.6384H20.2673V10.9357H19.5418V10.2293H18.829V9.45835H19.5418V10.1729H20.2673V9.45835H20.9804V8.75201H18.1033V9.45835V10.9357H18.8365V11.6384H18.1033V12.3447H19.5417V13.0532H18.1033V12.3533H17.3777V13.0475H16.6523V13.0532H15.242V12.3447H16.6593V11.642H17.3778V10.9357H15.9675V11.6384H15.242V10.1729H14.5165V10.2293H14.504V8.76019H13.8082V7.33176H13.0827V10.2293H12.3745V9.46654H10.9234V10.2293H9.47235V11.642H10.1979V10.9357H11.6442V11.5857H12.3697V10.9357H13.0827V11.6014H13.8081V10.9356H14.5165V12.3678H13.0749V14.5199H14.5165V18.1083H14.5549V18.1176H15.2077V18.8182H15.9675V19.535H16.693V18.8182H17.3715V18.1176H18.8336V18.8146H19.5418V19.5576H18.8305V18.8686H18.1049V19.5576H16.6523V20.2542H15.9457V20.9605H16.6712V20.2639H20.2471ZM18.8367 13.7595V14.5038H18.1033V13.7595H18.8367ZM16.6523 14.5038H14.5259V13.0674H15.231V13.7595H16.6523L16.6523 14.5038ZM15.242 17.4112V15.2101H17.3778V17.4112H15.242ZM9.47238 13.8036H8.74686V14.5099H9.47235V15.2424H8.75476V15.9487H10.1791V18.0772H10.9046V16.6674H11.6489V15.2263H10.9234V14.5199H10.9046V14.4962H10.1979V13.8036H9.47238ZM11.6489 13.0478H12.315V12.3415H10.1979V13.7767H10.9234V14.5099H12.3745V13.8036H11.6489L11.6489 13.0478ZM9.47238 9.46654H8.74686V10.1729H9.47235L9.47238 9.46654ZM15.9675 9.46654H15.242V10.1729H15.9675L15.9675 9.46654ZM18.1034 9.46654H17.3779V10.1729H18.1033L18.1034 9.46654ZM17.3778 8.72856H16.6523V9.43491H17.3778V8.72856ZM14.5165 8.02224H15.242V7.31578H14.5165V8.02224ZM8.04637 8.02205V3.02136H2.99286V8.02212L8.04637 8.02205ZM3.71835 3.72768H7.32076V7.31568H3.71835V3.72768ZM13.0749 6.60936H15.2139V3.02136H13.0749V3.72768H14.4883V5.16857H13.8005V4.434H13.0749V5.16857H12.3431V5.87496H13.0749V6.60936ZM4.44387 4.434V6.60936H6.62068V4.434H4.44387ZM3.71835 15.9611H2.99286V20.9618H8.04637V15.9611H3.71835ZM7.32076 20.2555H3.71835V16.6674H7.32076V20.2555ZM6.62046 19.5492V17.3737H4.44387V19.5492H6.62046ZM20.9803 8.02195V3.02136H15.9268V8.02212L20.9803 8.02195ZM16.6523 3.72768H20.2547V7.31568H16.6523V3.72768ZM17.3778 4.434V6.60936H19.5546V4.434H17.3778ZM10.1979 5.19679V4.47151H9.47235V3.02136H8.74686V5.84667H9.47235V6.62532H8.74686V8.03799H9.47235V7.29684H10.1979V9.46644L10.9234 9.46654V5.19679H10.1979Z" fill="currentColor"/>
</svg>
