<svg width="24" height="24" viewBox="0 0 24 24" fill="currentColor" xmlns="http://www.w3.org/2000/svg">
<path fill-rule="evenodd" clip-rule="evenodd" d="M16.7869 1.79578H7.18454C6.86644 1.79578 6.56142 1.92244 6.3366 2.14749C6.11177 2.37253 5.98556 2.67767 5.98572 2.99578V20.9958C5.98539 21.6582 6.52209 22.1954 7.18449 22.1958H16.7869C17.105 22.1958 17.41 22.0691 17.6348 21.8441C17.8597 21.619 17.9859 21.3139 17.9857 20.9958V2.99578C17.986 2.33338 17.4493 1.79612 16.7869 1.79578ZM11.0857 2.39578H12.8857C13.0514 2.39578 13.1857 2.53009 13.1857 2.69578C13.1857 2.86146 13.0514 2.99578 12.8857 2.99578H11.0857C10.92 2.99578 10.7857 2.86146 10.7857 2.69578C10.7857 2.53009 10.92 2.39578 11.0857 2.39578ZM11.9857 21.5958C11.6543 21.5958 11.3857 21.3271 11.3857 20.9958C11.3857 20.6644 11.6543 20.3958 11.9857 20.3958C12.3171 20.3958 12.5857 20.6644 12.5857 20.9958C12.5857 21.3271 12.3171 21.5958 11.9857 21.5958ZM16.7857 3.59578V19.7958H7.18572V3.59578H16.7857ZM14.3237 10.5076H9.69533V14.0362C9.69666 14.1711 9.75159 14.3 9.84802 14.3944C9.94444 14.4889 10.0745 14.5411 10.2094 14.5396H10.4667V15.5482C10.4724 15.8281 10.701 16.052 10.9809 16.052C11.2609 16.052 11.4895 15.8281 11.4952 15.5482V14.5396H12.5238V15.5482C12.5295 15.8281 12.7581 16.052 13.0381 16.052C13.3181 16.052 13.5466 15.8281 13.5524 15.5482V14.5396H13.8092C13.9442 14.5411 14.0742 14.4889 14.1707 14.3945C14.2672 14.3001 14.3222 14.1712 14.3237 14.0362V10.5076ZM8.92399 10.5075C8.789 10.5062 8.65899 10.5585 8.56257 10.653C8.46616 10.7474 8.41125 10.8764 8.40993 11.0114V13.0278C8.415 13.3081 8.64367 13.5326 8.924 13.5326C9.20434 13.5326 9.433 13.3081 9.43807 13.0278V11.0114C9.43514 10.7303 9.20504 10.5048 8.92399 10.5075ZM15.095 10.5075C14.8139 10.5046 14.5835 10.7302 14.5806 11.0114V13.0278C14.5863 13.3078 14.8149 13.5318 15.095 13.5318C15.3751 13.5318 15.6038 13.3078 15.6095 13.0278V11.0114C15.6065 10.7302 15.3762 10.5047 15.095 10.5075ZM13.3757 7.99646L13.333 8.02414L12.7386 8.60674C12.2645 8.45339 11.7542 8.45339 11.2801 8.60674L10.6865 8.02414C10.6358 7.97494 10.5552 7.97494 10.5045 8.02414C10.4804 8.04757 10.4669 8.07974 10.4669 8.11332C10.4669 8.14691 10.4804 8.17907 10.5045 8.2025L11.0207 8.70842C10.3828 9.00182 9.91518 9.5723 9.75276 10.2554H14.2663C14.104 9.57224 13.6364 9.0017 12.9984 8.70842L13.515 8.2025C13.539 8.17907 13.5526 8.14691 13.5526 8.11332C13.5526 8.07974 13.539 8.04757 13.515 8.02414C13.477 7.98724 13.4221 7.97801 13.3757 7.99646ZM10.9882 9.24762C11.1266 9.2486 11.2383 9.36101 11.2384 9.49942C11.2378 9.56707 11.2103 9.6317 11.162 9.67902C11.1136 9.72633 11.0484 9.75244 10.9807 9.75156C10.8424 9.74844 10.7324 9.6343 10.7345 9.4959C10.7365 9.35751 10.8498 9.24667 10.9882 9.24762ZM13.0448 9.24762C13.1832 9.24851 13.295 9.36095 13.2951 9.49942C13.2945 9.56699 13.2671 9.63156 13.2188 9.67886C13.1706 9.72616 13.1055 9.75232 13.0379 9.75156C12.8994 9.74867 12.7893 9.63463 12.7912 9.49618C12.793 9.35772 12.9063 9.24673 13.0448 9.24762Z" fill="currentColor"/>
</svg>
