<svg width="24" height="24" viewBox="0 0 24 24" fill="currentColor" xmlns="http://www.w3.org/2000/svg">
<path fill-rule="evenodd" clip-rule="evenodd" d="M22.2 12.2992C22.2 7.56258 18.0653 3.83999 12.952 3.83999C11.6866 3.83999 10.3786 4.09439 9.28 4.51998C9.41636 3.11519 8.59998 1.79999 8.59998 1.79999C6.68507 3.43412 6.57992 4.91744 6.54229 5.59679C6.54097 5.62096 6.5403 5.64318 6.53963 5.66526L6.53881 5.6636C6.53881 5.6636 6.53221 5.9752 6.5457 6.182C5.43359 7.19944 4.2848 8.49071 3.83999 9.90558L2.91983 9.90148C2.30303 9.90148 1.79999 10.4856 1.79999 11.198V14.6796C1.79999 15.392 2.30296 15.9691 2.91983 15.9691L3.83999 15.9712C4.34656 16.9507 5.72252 17.8414 6.57599 18.576C6.57445 18.6037 6.59999 18.6198 6.59999 18.648V20.88C6.59999 21.5923 7.06304 22.2 7.67999 22.2H8.85599C9.47303 22.2 9.95759 21.546 9.95759 20.8337V20.3157C10.9093 20.6177 11.8951 20.84 12.9519 20.84C14.1677 20.84 15.804 20.5647 16.8645 20.1701V20.8337C16.8646 21.546 17.3712 22.2 17.988 22.2H19.0397C19.6567 22.2 20.16 21.5443 20.16 20.832C20.16 20.832 20.1532 18.1174 20.16 18.12C21.7653 16.5777 22.2 14.6109 22.2 12.2992ZM10.6375 5.00368C10.6375 5.00368 12.7584 3.94938 16.0759 5.00368V5.87452C16.0759 5.87452 13.3024 4.68827 10.6375 5.87452V5.00368Z" fill="currentColor"/>
</svg>
