<svg width="24" height="24" viewBox="0 0 24 24" fill="currentColor" xmlns="http://www.w3.org/2000/svg">
<path fill-rule="evenodd" clip-rule="evenodd" d="M17.6334 3.20553C17.2716 2.4894 16.9197 1.4412 15.8635 1.94001C14.8387 2.42414 15.2992 3.32155 15.6717 4.10032C18.2087 9.4072 18.1698 14.7151 15.6336 20.0079C15.2779 20.7504 14.9041 21.5511 15.8011 22.0493C16.7547 22.5788 17.1599 21.7222 17.5221 21.0272C18.9861 18.2177 19.8123 15.2868 19.8123 12.0068C19.8123 8.96196 19.0345 5.97873 17.6334 3.20553ZM13.5577 4.80153C13.2243 4.1897 12.7895 3.60324 12.0039 3.98899C11.1639 4.40131 11.2846 5.08483 11.6544 5.82218C13.7038 9.90804 13.7263 14.0129 11.6902 18.1123C11.3423 18.8131 11.0943 19.512 11.9273 19.9843C12.8022 20.4804 13.2404 19.803 13.5924 19.1506C14.77 16.9672 15.3653 14.6375 15.3653 12.0131C15.3653 9.5226 14.8021 7.08427 13.5577 4.80153ZM9.61844 6.68433C9.30337 6.1361 8.89148 5.60532 8.17141 5.95908C7.47157 6.30304 7.28396 6.87199 7.68292 7.62076C9.23531 10.5344 9.24337 13.4651 7.68973 16.3808C7.29373 17.1235 7.45585 17.6996 8.15639 18.0504C8.8677 18.4068 9.28813 17.8968 9.6092 17.3418C10.5751 15.672 11.0377 13.8761 11.0377 11.9306C11.0377 10.0451 10.5496 8.30378 9.61844 6.68433ZM5.8366 8.43748C5.43325 7.90444 4.94039 7.57349 4.29515 8.00901C3.6844 8.42114 3.6525 8.98238 4.02596 9.59441C5.01121 11.2086 5.0091 12.8225 4.01963 14.4361C3.64556 15.0461 3.68711 15.6117 4.30014 16.0205C4.95054 16.4537 5.44014 16.1102 5.83854 15.5787C6.62888 14.5244 6.84551 13.298 6.94115 11.9683C6.94115 10.6982 6.63308 9.4906 5.8366 8.43748Z" fill="currentColor"/>
</svg>
