<svg width="24" height="24" viewBox="0 0 24 24" fill="currentColor" xmlns="http://www.w3.org/2000/svg">
<path fill-rule="evenodd" clip-rule="evenodd" d="M20.4 19.8H10.176C9.51323 19.8 8.97597 19.2628 8.97597 18.6C8.97597 17.9373 9.51323 17.4 10.176 17.4H20.4C21.0627 17.4 21.6 17.9373 21.6 18.6C21.6 19.2628 21.0627 19.8 20.4 19.8ZM16.776 16.176H10.152C9.48923 16.176 8.95197 15.6388 8.95197 14.976C8.95197 14.3133 9.48923 13.776 10.152 13.776H16.776C17.4387 13.776 17.976 14.3133 17.976 14.976C17.976 15.6388 17.4387 16.176 16.776 16.176ZM13.2 12.6H10.2C9.53723 12.6 8.99997 12.0628 8.99997 11.4C8.99997 10.7373 9.53723 10.2 10.2 10.2H13.2C13.8627 10.2 14.4 10.7373 14.4 11.4C14.4 12.0628 13.8627 12.6 13.2 12.6ZM8.98317 8.65967L7.79997 7.47662V18.564C7.79997 19.2334 7.25734 19.776 6.58797 19.776C5.91861 19.776 5.39997 19.2334 5.39997 18.564V7.4769L4.21514 8.66174C3.92108 8.95579 3.49249 9.07064 3.0908 8.96301C2.68911 8.85538 2.37535 8.54163 2.26772 8.13994C2.16008 7.73825 2.27492 7.30966 2.56898 7.0156L5.6477 3.93688C5.89022 3.69412 6.22773 3.5711 6.56958 3.60088C6.57971 3.60062 6.58977 3.60011 6.59997 3.60011C6.62308 3.60011 6.64919 3.59882 6.67197 3.60011C7.00055 3.58307 7.32079 3.70706 7.55224 3.94091L10.6272 7.0156C10.9242 7.3086 11.0414 7.7383 10.9344 8.14155C10.8273 8.5448 10.5124 8.85976 10.1091 8.96684C9.70588 9.07391 9.27618 8.95669 8.98317 8.65967Z" fill="currentColor"/>
</svg>
