<svg width="24" height="24" viewBox="0 0 24 24" fill="currentColor" xmlns="http://www.w3.org/2000/svg">
<path fill-rule="evenodd" clip-rule="evenodd" d="M20.4 17.4H14.4C13.7373 17.4 13.2 16.8628 13.2 16.2V11.4L10.8 9.00005L13.2 6.60005V3.01205C13.2 2.34931 13.7373 1.80005 14.4 1.80005H20.4C21.0627 1.80005 21.6 2.34931 21.6 3.01205V16.2C21.6 16.8628 21.0627 17.4 20.4 17.4ZM17.4 16.8C17.7314 16.8 18 16.5314 18 16.2C18 15.8687 17.7314 15.6 17.4 15.6C17.0686 15.6 16.8 15.8687 16.8 16.2C16.8 16.5314 17.0686 16.8 17.4 16.8ZM20.4 3.00005H14.4V15H20.4V3.00005ZM3.59999 3.00005V19.8H16.8V18H18V21C18 21.6628 17.4627 22.2001 16.8 22.2001H3.59999C2.93725 22.2001 2.39999 21.6628 2.39999 21V3.00005C2.39999 2.33731 2.93725 1.80005 3.59999 1.80005H13.08C12.7947 2.1185 12.6003 2.53978 12.6 3.00005H3.59999ZM10.2 21.6C10.5314 21.6 10.8 21.3314 10.8 21C10.8 20.6687 10.5314 20.4 10.2 20.4C9.86862 20.4 9.59999 20.6687 9.59999 21C9.59999 21.3314 9.86862 21.6 10.2 21.6Z" fill="currentColor"/>
</svg>
