<svg width="24" height="24" viewBox="0 0 24 24" fill="currentColor" xmlns="http://www.w3.org/2000/svg">
<path fill-rule="evenodd" clip-rule="evenodd" d="M13.8 17.784H6.59999L6.15424 19.3974C5.76091 20.866 5.12319 21.6001 4.24108 21.6001C3.63748 21.6001 3.10036 21.454 2.62972 21.1618C2.15863 20.8697 1.88205 20.4495 1.79999 19.9014C1.79999 19.3221 1.85712 18.876 1.97137 18.5632L7.02532 4.79134C7.28576 4.0759 7.69599 3.49852 8.25599 3.05921C8.81599 2.6199 9.46399 2.40002 10.2 2.40002C10.9357 2.40002 11.5836 2.6174 12.1437 3.05215C12.7037 3.4869 13.1141 4.06663 13.3747 4.79134L18.4286 18.5632C18.5427 18.8893 18.6 19.3353 18.6 19.9014C18.5356 20.4451 18.267 20.8641 17.7941 21.1585C17.3209 21.4527 16.7735 21.6001 16.1518 21.6001C15.7447 21.6001 15.3813 21.4234 15.0617 21.07C14.7436 20.7203 14.5112 20.3014 14.3829 19.8464L13.8 17.784ZM12.504 13.968L10.2276 6.90293L7.94399 13.968H12.504ZM22.2 5.40002V6.60002C22.2 6.9314 21.9314 7.20002 21.6 7.20002H19.8V9.00002C19.8 9.3314 19.5314 9.60003 19.2 9.60003H18C17.6686 9.60003 17.4 9.3314 17.4 9.00002V7.20002H15.6C15.2686 7.20002 15 6.9314 15 6.60002V5.40002C15 5.06865 15.2686 4.80002 15.6 4.80002H17.4V3.00002C17.4 2.66865 17.6686 2.40002 18 2.40002H19.2C19.5314 2.40002 19.8 2.66865 19.8 3.00002V4.80002H21.6C21.9314 4.80002 22.2 5.06865 22.2 5.40002Z" fill="currentColor"/>
</svg>
