<svg width="24" height="24" viewBox="0 0 24 24" fill="currentColor" xmlns="http://www.w3.org/2000/svg">
<path fill-rule="evenodd" clip-rule="evenodd" d="M21.0456 10.8588L19.8 12.1039V22.2001H5.39921C4.73663 22.2001 4.19978 21.6626 4.19978 21C4.19978 20.9982 4.19978 20.9965 4.19978 20.9946V1.80005H13.8V5.40005C13.7988 6.0359 14.0504 6.64614 14.4994 7.09632C14.9485 7.5465 15.5581 7.79967 16.194 7.80005H19.8V7.80134C20.2705 7.80206 20.7214 7.98936 21.054 8.32214C21.7524 9.0203 21.7486 10.156 21.0456 10.8588ZM10.7717 18.4628L12.372 16.8624C12.3236 16.7392 12.3684 16.5989 12.4791 16.5264C12.5899 16.4539 12.7363 16.469 12.8299 16.5626C12.9236 16.6563 12.9387 16.8027 12.8662 16.9135C12.7936 17.0242 12.6534 17.0689 12.5301 17.0206L10.9298 18.6209L11.0558 18.7468C11.7825 18.1197 12.6473 17.8594 13.2886 18.0384L14.4134 16.1653L13.2273 14.9792L11.3542 16.104C11.5332 16.7454 11.2729 17.6102 10.6458 18.3369L10.7717 18.4628ZM7.09279 16.812C7.08685 16.8213 7.08141 16.8308 7.0765 16.8406C6.84871 17.2959 6.7777 17.7099 6.85937 18.1064C6.8609 18.1139 6.86273 18.1213 6.86484 18.1286C6.94238 18.3987 7.10136 18.676 7.2667 18.9032C7.10275 19.0471 6.9259 19.1487 6.74863 19.1829C6.64363 19.2031 6.5574 19.2778 6.52242 19.3789C6.48745 19.48 6.50905 19.592 6.57909 19.6728C6.64912 19.7536 6.75695 19.7909 6.86196 19.7707C7.14492 19.7162 7.42651 19.5653 7.68516 19.3339C7.74461 19.3631 7.80597 19.3882 7.86883 19.4091C7.89646 19.4189 7.92254 19.4281 7.9463 19.4376C7.95873 19.4426 7.97148 19.4467 7.98446 19.4499C8.41212 19.557 8.88622 19.4468 9.28526 19.1475C9.29074 19.1434 9.29606 19.1392 9.30125 19.1347C9.31672 19.1213 9.33121 19.108 9.34471 19.0947C9.50172 19.1819 9.70865 19.2838 9.85567 19.2793C10.0699 19.2758 10.3249 19.2295 10.4558 19.1641C10.6021 19.0905 10.6621 18.913 10.5905 18.7657C10.5189 18.6184 10.3422 18.556 10.194 18.6257C10.1836 18.6284 9.97771 18.6836 9.87326 18.6809C9.87266 18.6807 9.92004 18.6565 9.91942 18.6564C10.4971 18.1529 10.5842 17.6282 10.5044 17.27C10.442 16.9901 10.2456 16.7974 9.99158 16.7671C9.98803 16.7667 9.9845 16.7663 9.98095 16.766C9.68978 16.7385 9.40156 16.8427 9.19529 17.05C8.89555 17.343 8.74234 17.8175 8.77493 18.3519C8.78327 18.4748 8.81938 18.5942 8.88053 18.7012C8.64355 18.8634 8.37989 18.9256 8.14697 18.8732C8.13257 18.8677 8.11831 18.8625 8.10437 18.8575C8.39911 18.439 8.60047 17.937 8.64482 17.508C8.69899 16.9837 8.51705 16.594 8.14721 16.4394C7.75332 16.272 7.34942 16.4148 7.09279 16.812ZM7.8 12.6H11.4C11.7314 12.6 12 12.3314 12 12C12 11.6687 11.7314 11.4 11.4 11.4H7.8C7.46863 11.4 7.2 11.6687 7.2 12C7.2 12.3314 7.46863 12.6 7.8 12.6ZM13.2 9.00005H7.8C7.46863 9.00005 7.2 9.26868 7.2 9.60005C7.2 9.93142 7.46863 10.2 7.8 10.2H13.2C13.5314 10.2 13.8 9.93142 13.8 9.60005C13.8 9.26868 13.5314 9.00005 13.2 9.00005ZM13.6508 14.5541L14.8388 15.7421L17.6559 13.4679L15.9588 11.7708L13.6508 14.5541ZM20.6448 8.75803C20.4185 8.52866 20.1097 8.39954 19.7875 8.39954C19.4653 8.39954 19.1565 8.52866 18.9302 8.75803C18.9175 8.7709 18.9054 8.78412 18.8933 8.79739L18.8597 8.76379C18.3919 8.29517 17.6328 8.29451 17.1642 8.7623L15.0466 10.8799C14.7301 11.1966 14.6167 11.6634 14.7528 12.09L17.5885 9.2543C17.8228 9.02041 18.2023 9.02074 18.4362 9.25505L18.4554 9.27425L16.383 11.3466L18.0801 13.0437L20.5435 10.5803C20.8146 10.3622 20.9804 10.0392 20.9998 9.69174C21.0191 9.34427 20.8901 9.00491 20.6448 8.75803ZM8.04883 17.4462C8.01689 17.7556 7.87322 18.117 7.66836 18.4307C7.56516 18.2713 7.4843 18.1091 7.44379 17.9743C7.3949 17.7215 7.44754 17.443 7.60459 17.1237C7.74348 16.9182 7.86173 16.9684 7.91434 16.9908C8.06578 17.0541 8.06362 17.3033 8.04883 17.4462ZM9.61397 17.4778C9.68684 17.4024 9.78746 17.36 9.89237 17.3608C9.89698 17.3608 9.90166 17.3608 9.90634 17.361C9.91721 17.3814 9.93437 17.4352 9.92266 17.5285C9.90979 17.6309 9.83237 17.9601 9.37277 18.3149C9.35141 17.9648 9.44383 17.6441 9.61397 17.4778ZM15 5.40005V1.80005L19.8 6.60005H16.0608C15.4719 6.60005 15 6.06276 15 5.40005Z" fill="currentColor"/>
</svg>
