<svg width="24" height="24" viewBox="0 0 24 24" fill="currentColor" xmlns="http://www.w3.org/2000/svg">
<path fill-rule="evenodd" clip-rule="evenodd" d="M16.8 21H7.2C6.86863 21 6.6 21.2686 6.6 21.6V22.7999H17.4V21.6C17.4 21.2686 17.1314 21 16.8 21ZM18.6 2.99995V1.19995H5.4V2.99995H1.8V7.19995C1.8 9.58754 3.54334 11.5677 5.82648 11.9376C6.56851 13.8912 8.19001 15.3794 10.2 15.9514V18.6H9.6C8.60589 18.6 7.8 19.4058 7.8 20.4H16.2C16.2 19.4058 15.3941 18.6 14.4 18.6H13.8V15.9514C15.81 15.3794 17.4315 13.8912 18.1735 11.9376C20.4567 11.5677 22.2 9.58754 22.2 7.19995V2.99995H18.6ZM4.22412 9.57595C3.59192 8.94718 3.23754 8.0916 3.23999 7.19995V4.43995H5.4V9.59995C5.40012 9.85268 5.41461 10.1052 5.44339 10.3563C4.98494 10.1882 4.5688 9.92184 4.22412 9.57595ZM14.25 11.4L12 9.84938L9.75 11.4L10.65 8.69995L8.4 6.89995H11.1L12 4.19995L12.9 6.89995H15.6L13.35 8.69995L14.25 11.4ZM20.76 7.19995C20.759 8.60967 19.8796 9.8694 18.5566 10.3563C18.5854 10.1052 18.5999 9.85268 18.6 9.59995V4.43995H20.76V7.19995Z" fill="currentColor"/>
</svg>
