<svg width="24" height="24" viewBox="0 0 24 24" fill="currentColor" xmlns="http://www.w3.org/2000/svg">
<path fill-rule="evenodd" clip-rule="evenodd" d="M20.8483 12.7795C20.9465 12.3221 20.9959 11.8556 20.9957 11.3878C20.9957 7.74317 18.0408 4.78858 14.3957 4.78858C12.3968 4.7868 10.5052 5.69276 9.25364 7.25134C8.49933 7.08541 7.71007 7.25025 7.08524 7.70423C6.4604 8.15821 6.05974 8.8579 5.98446 9.62657C3.62212 9.92683 1.79572 11.9439 1.79572 14.3874C1.79572 17.0381 3.94475 19.1868 6.59572 19.1868H18.5957C20.1236 19.187 21.4852 18.2226 21.992 16.7812C22.4987 15.3397 22.0402 13.7354 20.8483 12.7795ZM14.7957 15.7873C14.7957 15.8933 14.7536 15.9951 14.6786 16.0701C14.6035 16.1451 14.5018 16.1872 14.3957 16.1872H12.3957C12.2896 16.1872 12.1879 16.1451 12.1129 16.0701C12.0379 15.9951 11.9957 15.8933 11.9957 15.7873V13.7875C11.9957 13.5666 12.1748 13.3875 12.3957 13.3875H14.3957C14.5018 13.3875 14.6035 13.4297 14.6786 13.5047C14.7536 13.5797 14.7957 13.6814 14.7957 13.7875V15.7873ZM14.7957 12.5876C14.7957 12.6937 14.7536 12.7955 14.6786 12.8705C14.6036 12.9455 14.5018 12.9876 14.3957 12.9876H12.3957C12.2896 12.9876 12.1879 12.9455 12.1129 12.8705C12.0379 12.7955 11.9957 12.6937 11.9957 12.5876V10.5879C11.9957 10.367 12.1748 10.1879 12.3957 10.1879H14.3957C14.5018 10.1879 14.6035 10.2301 14.6786 10.3051C14.7536 10.3801 14.7957 10.4818 14.7957 10.5879V12.5876ZM17.9957 15.7873C17.9957 16.0081 17.8166 16.1872 17.5957 16.1872H15.5957C15.3748 16.1872 15.1957 16.0081 15.1957 15.7873V13.7875C15.1957 13.6814 15.2379 13.5797 15.3129 13.5047C15.3879 13.4297 15.4896 13.3875 15.5957 13.3875H17.5957C17.7018 13.3875 17.8035 13.4297 17.8785 13.5047C17.9536 13.5797 17.9957 13.6814 17.9957 13.7875V15.7873ZM17.9957 12.5876C17.9957 12.6937 17.9536 12.7955 17.8786 12.8705C17.8036 12.9455 17.7018 12.9876 17.5957 12.9876H15.5957C15.3748 12.9876 15.1957 12.8086 15.1957 12.5877V10.5879C15.1957 10.4818 15.2379 10.3801 15.3129 10.3051C15.3879 10.2301 15.4896 10.1879 15.5957 10.1879H17.5957C17.7018 10.1879 17.8035 10.2301 17.8785 10.3051C17.9536 10.3801 17.9957 10.4818 17.9957 10.5879V12.5876Z" fill="currentColor"/>
</svg>
