<svg width="24" height="24" viewBox="0 0 24 24" fill="currentColor" xmlns="http://www.w3.org/2000/svg">
<path fill-rule="evenodd" clip-rule="evenodd" d="M17.7 9H6.30005C5.47263 9.00243 4.80247 9.67258 4.80005 10.5V19.5C4.80247 20.3274 5.47263 20.9976 6.30005 21H17.7C18.5275 20.9976 19.1976 20.3274 19.2 19.5V10.5C19.1976 9.67258 18.5275 9.00243 17.7 9ZM10.4573 18.6L10.9278 15.8832H8.68622L12.7211 11.4L12.2728 14.0899H14.5144L10.4573 18.6ZM12 5.025C13.864 5.025 15.375 6.53604 15.375 8.4H17.4L16.2826 7.25251L16.6766 5.7L15.1351 5.26498L14.7 3.72346L13.1476 4.11746L12 3L10.8525 4.11746L9.30005 3.72346L8.86502 5.26498L7.3235 5.7L7.71751 7.25251L6.60005 8.4H8.62505C8.62505 6.53604 10.1361 5.025 12 5.025Z" fill="currentColor"/>
</svg>
