<svg width="24" height="24" viewBox="0 0 24 24" fill="currentColor" xmlns="http://www.w3.org/2000/svg">
<path fill-rule="evenodd" clip-rule="evenodd" d="M11.4242 2.03282C6.4577 2.40881 2.47726 6.35128 2.05642 11.3142C2.00077 11.9653 2.00663 12.6203 2.07392 13.2704C2.10061 13.521 2.23192 13.7488 2.43553 13.8975C2.63913 14.0463 2.89611 14.1023 3.14318 14.0516C3.59429 13.9589 3.90118 13.5389 3.85229 13.0812C3.82201 12.7894 3.80687 12.4961 3.80691 12.2027C3.80691 7.55698 7.57299 3.79066 12.2187 3.79066C16.8643 3.79066 20.6307 7.55701 20.6307 12.2027C20.6307 16.8484 16.8645 20.6147 12.2186 20.6147C10.8231 20.6168 9.4492 20.2702 8.22193 19.6063C7.81641 19.3859 7.30969 19.51 7.05207 19.8928C6.91157 20.102 6.86582 20.3607 6.92607 20.6053C6.98633 20.8499 7.14699 21.0578 7.36859 21.1779C8.73262 21.9168 10.2481 22.3329 11.7984 22.3942C17.774 22.6363 22.6965 17.6731 22.4065 11.6997C22.1316 6.04056 17.2448 1.59216 11.4242 2.03282ZM18.8249 12.2039C18.8249 15.8524 15.8671 18.8099 12.2187 18.8099C8.57019 18.8099 5.61267 15.8524 5.61267 12.2039C5.61267 8.55541 8.57019 5.59791 12.2187 5.59791C15.8671 5.59791 18.8249 8.55541 18.8249 12.2039ZM5.63065 17.5433C5.63033 18.1065 5.17351 18.5629 4.61026 18.5627C4.04701 18.5625 3.59054 18.1057 3.59065 17.5425C3.59076 16.9792 4.0474 16.5227 4.61065 16.5227C5.17412 16.5229 5.63076 16.9798 5.63065 17.5433Z" fill="currentColor"/>
</svg>
