<svg width="24" height="24" viewBox="0 0 24 24" fill="currentColor" xmlns="http://www.w3.org/2000/svg">
<path fill-rule="evenodd" clip-rule="evenodd" d="M3 18.6C3.00096 18.931 3.26903 19.199 3.6 19.2H4.2V20.5878C4.20067 20.8152 4.38483 20.9993 4.6122 21H5.5878C5.81517 20.9993 5.99933 20.8152 6 20.5878V19.2H18V20.6096C18.0006 20.825 18.175 20.9994 18.3904 21H19.4096C19.625 20.9994 19.7994 20.825 19.8 20.6096V19.2H20.4C20.731 19.199 20.999 18.931 21 18.6V17.4H3V18.6ZM18 11.4V4.2C17.999 3.86903 17.731 3.60096 17.4 3.6C17.069 3.60096 16.801 3.86903 16.8 4.2V11.4H16.2V4.66373C16.1999 4.59197 16.1694 4.52361 16.1161 4.47554C15.889 4.27002 15.6459 4.08293 15.3891 3.91603C15.3113 3.86604 15.2125 3.86253 15.1314 3.90688C15.0503 3.95123 14.9999 4.03635 15 4.12879V7.92766C15.3679 8.12029 15.5989 8.50085 15.6 8.91617V10.8151C15.5991 11.1378 15.3378 11.3991 15.0151 11.4H8.98488C8.66225 11.3991 8.40094 11.1378 8.4 10.8151V8.91617C8.40106 8.50085 8.63206 8.12029 9 7.92766V4.10431C9.00003 4.01679 8.9523 3.93624 8.87552 3.89423C8.79874 3.85223 8.70516 3.85548 8.63148 3.90271C8.36538 4.07401 8.11385 4.26694 7.87944 4.47955C7.82899 4.52507 7.80014 4.58978 7.8 4.65773V11.4H7.2V4.2C7.19904 3.86903 6.93097 3.60096 6.6 3.6C6.26903 3.60096 6.00096 3.86903 6 4.2V11.4C4.35 11.4 3 12.75 3 14.4V16.8H21V14.4C21 12.75 19.65 11.4 18 11.4ZM14.2088 3.33089C13.9929 3.25356 13.7725 3.18949 13.5488 3.13903C13.4637 3.12027 13.3748 3.14114 13.3069 3.19578C13.2391 3.25042 13.1998 3.33291 13.2 3.42V7.8H14.4V3.6019C14.3999 3.48024 14.3234 3.37177 14.2088 3.33089ZM12.6 3.29705C12.6 3.13302 12.4671 3 12.303 3H11.697C11.5329 3 11.4 3.13302 11.4 3.29705V7.8H12.6V3.29705ZM10.4232 3.14546C10.2135 3.19387 10.0068 3.25425 9.804 3.3263C9.68167 3.36984 9.59998 3.48566 9.6 3.6155V7.8H10.8V3.44414C10.7998 3.35053 10.757 3.26209 10.6836 3.20393C10.6103 3.14578 10.5144 3.12425 10.4232 3.14546Z" fill="currentColor"/>
</svg>
