<svg width="24" height="24" viewBox="0 0 24 24" fill="currentColor" xmlns="http://www.w3.org/2000/svg">
<path fill-rule="evenodd" clip-rule="evenodd" d="M19.488 4.20001H2.39999V10.488H5.44799V9.90128L4.19999 8.70721V6.63028C6.45599 8.85949 10.5717 12.852 10.5717 12.852H10.573C10.9402 13.236 11.4402 13.3992 11.9918 13.3992C12.5762 13.3992 13.1021 13.164 13.4741 12.756H13.4767L19.8 6.60124V8.70347L14.1422 14.172H14.1374C13.5818 14.724 12.8284 15.0048 11.9983 15.0048C11.1765 15.0048 10.4297 14.7203 9.87455 14.1785C9.85603 14.1996 9.83709 14.2189 9.81729 14.239C9.81335 14.2431 9.80939 14.2464 9.80529 14.2504L6.46591 17.5323C6.35365 17.6426 6.20255 17.7043 6.04519 17.7042C5.8864 17.7038 5.73426 17.6404 5.62227 17.5278C5.51027 17.4152 5.44758 17.2628 5.44799 17.104V15.888H2.39999V17.088C2.39999 18.2594 3.36458 19.2 4.53599 19.2H21.6V6.27121C21.6 5.10001 20.6599 4.20001 19.488 4.20001ZM6.04799 15.312V17.104L9.38399 13.8216C9.40389 13.8053 9.42164 13.7865 9.43679 13.7657C9.56929 13.6112 9.6435 13.4155 9.64504 13.2119C9.64504 13.2119 9.64521 13.202 9.64521 13.1999C9.64521 13.1979 9.64535 13.2119 9.64535 13.1879C9.63754 12.9603 9.54437 12.7438 9.38479 12.5813L9.38615 12.5837L6.04799 9.304V11.088H2.13599C1.63958 11.088 1.24799 11.507 1.24799 12.004V14.404C1.24725 14.6465 1.34526 14.8788 1.51943 15.0475C1.68129 15.2049 1.89249 15.312 2.13599 15.312H6.04799Z" fill="currentColor"/>
</svg>
