<svg width="24" height="24" viewBox="0 0 24 24" fill="currentColor" xmlns="http://www.w3.org/2000/svg">
<path fill-rule="evenodd" clip-rule="evenodd" d="M20.4 5.39998C20.4 4.40586 19.5941 3.59998 18.6 3.59998H3.59998V18.6C3.59998 19.5941 4.40586 20.4 5.39998 20.4H20.4V5.39998ZM4.79998 4.79998H18.3C18.797 4.79998 19.2 5.20292 19.2 5.69998V15L14.5894 9.76253C14.4232 9.54578 14.1541 9.54578 13.988 9.76253L10.56 13.7464L8.66638 11.0891C8.50046 10.8724 8.23109 10.8724 8.06539 11.0891L5.27998 14.2098C4.99865 13.9978 4.80958 13.765 4.79998 13.283V4.79998ZM9.59918 8.05087C9.61933 8.66618 9.26146 9.23133 8.69662 9.4762C8.13177 9.72108 7.47465 9.59595 7.03933 9.16062C6.604 8.7253 6.47888 8.06818 6.72375 7.50333C6.96862 6.93849 7.53377 6.58062 8.14908 6.60077C8.93899 6.62663 9.57332 7.26096 9.59918 8.05087Z" fill="currentColor"/>
</svg>
