<svg width="24" height="24" viewBox="0 0 24 24" fill="currentColor" xmlns="http://www.w3.org/2000/svg">
<path fill-rule="evenodd" clip-rule="evenodd" d="M19.8 3H2.40002V15.6C2.40002 16.5941 3.20591 17.4 4.20002 17.4H6.60002V21L10.2 17.4H21.6V4.8C21.6 3.80589 20.7941 3 19.8 3ZM7.88767 12.8587C8.0391 13.0591 8.27289 13.1593 8.58905 13.1593C8.74342 13.1593 8.87775 13.0918 8.99206 12.9567C9.10272 12.8313 9.16369 12.6697 9.16349 12.5025C9.16108 12.4501 9.15513 12.398 9.14568 12.3465C9.11302 12.2129 9.0069 12.0489 8.8273 11.8545L7.64052 10.5519C8.07092 10.4525 8.39006 10.3033 8.59795 10.1044C8.91413 9.79558 9.07222 9.3666 9.07222 8.81743C9.0725 8.56045 9.01625 8.30656 8.90746 8.07374C8.80027 7.83978 8.64199 7.63283 8.44426 7.46813C8.0613 7.15195 7.55958 6.99386 6.9391 6.99386H5.53414C5.26694 6.99386 5.05875 7.06771 4.90958 7.21541C4.76042 7.3631 4.68581 7.56906 4.68581 7.83329V12.3845C4.68581 12.6026 4.7489 12.7863 4.87507 12.9355C5.00125 13.0847 5.17195 13.1593 5.38718 13.1593C5.60539 13.1593 5.77572 13.0851 5.89817 12.9366C6.02062 12.7882 6.08185 12.6041 6.08186 12.3845V10.5965L7.88767 12.8587ZM6.08194 8.2075H6.91922C7.12144 8.20541 7.31716 8.27884 7.46808 8.41344C7.621 8.53959 7.70825 8.72844 7.7052 8.92666C7.7052 9.1345 7.63283 9.30223 7.4881 9.42986C7.34336 9.5575 7.16336 9.62133 6.9481 9.62136H6.08194V8.2075ZM10.4846 12.4379C10.753 12.6939 11.0705 12.8927 11.418 13.0224C11.7702 13.1562 12.1439 13.2245 12.5206 13.224C13.1265 13.224 13.6218 13.1082 14.0064 12.8766C14.293 12.7074 14.4363 12.4914 14.4364 12.2286C14.4394 12.0608 14.3826 11.8975 14.276 11.7678C14.1692 11.6372 14.0222 11.5719 13.8352 11.5719C13.7624 11.5719 13.6711 11.5934 13.5613 11.6364L13.1494 11.8279C13.0069 11.8888 12.8221 11.9192 12.595 11.9191C12.1809 11.9191 11.8372 11.7915 11.5641 11.5362C11.2168 11.2126 11.0431 10.7019 11.0431 10.0043C11.0431 9.65548 11.0995 9.34079 11.2123 9.06022C11.3159 8.79148 11.4959 8.5589 11.73 8.39112C11.9623 8.22563 12.2536 8.14288 12.6039 8.14286C12.8191 8.14286 13.0559 8.19482 13.3143 8.29872C13.5533 8.3893 13.7269 8.43457 13.8353 8.43454C14.012 8.43454 14.147 8.3722 14.2406 8.24753C14.3341 8.12286 14.3808 7.96624 14.3808 7.77768C14.3808 7.55357 14.278 7.37099 14.0723 7.22995C13.8512 7.08251 13.6033 6.98 13.3427 6.92825C13.0874 6.87102 12.8269 6.84079 12.5653 6.83808C12.1524 6.83396 11.7425 6.90917 11.3579 7.05962C10.9976 7.20115 10.6707 7.4161 10.3979 7.69082C10.1262 7.96612 9.91395 8.29426 9.77422 8.65493C9.62663 9.03536 9.55252 9.44033 9.55582 9.84838C9.55582 10.9869 9.86542 11.8501 10.4846 12.4379ZM15.3326 9.63353C15.4646 9.84743 15.6519 10.0217 15.8748 10.1378C16.1004 10.2566 16.3995 10.3702 16.7721 10.4785C17.0601 10.5646 17.2634 10.6273 17.3822 10.6667C17.5106 10.7107 17.6332 10.7701 17.7473 10.8437C17.8988 10.9416 17.9745 11.0901 17.9744 11.289C17.9744 11.4849 17.8965 11.6389 17.7407 11.751C17.5859 11.8627 17.3993 11.9216 17.2085 11.919C16.974 11.9164 16.7421 11.8695 16.5249 11.781L16.0416 11.6007C15.9284 11.5554 15.8073 11.5334 15.6854 11.5361C15.525 11.5361 15.3848 11.6007 15.2646 11.7298C15.1443 11.859 15.0842 12.0037 15.0842 12.164C15.0822 12.3212 15.1323 12.4747 15.2267 12.6004C15.3252 12.7309 15.4544 12.835 15.603 12.9032C16.0468 13.117 16.579 13.2239 17.1994 13.2239C17.5312 13.2251 17.8609 13.1725 18.1758 13.068C18.4724 12.9733 18.7396 12.8039 18.9518 12.576C19.2977 12.2138 19.4706 11.7181 19.4706 11.0886C19.4706 10.5736 19.2984 10.1806 18.954 9.9097C18.6097 9.6388 18.1436 9.42394 17.5558 9.2651L17.1816 9.16483C16.8046 9.06686 16.616 8.89319 16.6161 8.64382C16.6161 8.485 16.6881 8.3618 16.8321 8.27422C16.9755 8.18678 17.1406 8.14127 17.3086 8.14284C17.5238 8.14585 17.7369 8.18576 17.9387 8.26085L18.1947 8.35205C18.2625 8.37256 18.3332 8.38233 18.404 8.38099C18.5791 8.38559 18.7471 8.31216 18.8627 8.18059C18.9826 8.04781 19.0472 7.87412 19.043 7.69522C19.043 7.4785 18.9466 7.3063 18.7536 7.17864C18.5468 7.04555 18.3156 6.95509 18.0734 6.91258C17.831 6.86469 17.5847 6.83975 17.3376 6.83805C16.9632 6.83622 16.593 6.9168 16.2533 7.0741C15.9244 7.22228 15.6419 7.45704 15.4361 7.7533C15.2313 8.04869 15.1289 8.39158 15.1289 8.78196C15.1288 9.13223 15.1968 9.41604 15.3326 9.63353Z" fill="currentColor"/>
</svg>
