<svg width="24" height="24" viewBox="0 0 24 24" fill="currentColor" xmlns="http://www.w3.org/2000/svg">
<path fill-rule="evenodd" clip-rule="evenodd" d="M12 1.80005C17.6333 1.80005 22.2 6.36674 22.2 12C22.2 17.6334 17.6333 22.2001 12 22.2001C6.36669 22.2001 1.8 17.6334 1.8 12C1.8 6.36674 6.36669 1.80005 12 1.80005ZM12 2.40005C17.3019 2.40005 21.6 6.69811 21.6 12C21.6 17.302 17.3019 21.6 12 21.6C6.69806 21.6 2.4 17.302 2.4 12C2.4 6.69811 6.69806 2.40005 12 2.40005ZM12 10.7998C12.9707 10.7999 13.8458 10.2152 14.2173 9.31838C14.5888 8.4216 14.3835 7.38933 13.6971 6.70294C13.0108 6.01656 11.9785 5.81124 11.0817 6.18273C10.1849 6.55422 9.60023 7.42936 9.60029 8.40005C9.60029 9.72536 10.6747 10.7997 12 10.7998ZM14.0715 10.6594C12.8802 11.7786 11.0239 11.7786 9.83263 10.6594C8.91178 11.1614 8.40122 12.1272 8.37686 13.2423L8.376 16.0589C8.37637 16.415 8.51818 16.7563 8.77023 17.0078C9.02228 17.2593 9.36392 17.4004 9.72 17.4001H15.6V13.3095C15.6 12.1662 15.0108 11.1714 14.0715 10.6594ZM14.88 15.6H13.8V16.68C13.8 16.7463 13.7463 16.8 13.68 16.8H13.32C13.2537 16.8 13.2 16.7463 13.2 16.68V15.6H12.12C12.0537 15.6 12 15.5463 12 15.48V15.12C12 15.0538 12.0537 15 12.12 15H13.2V13.92C13.2 13.8538 13.2537 13.8 13.32 13.8H13.68C13.7463 13.8 13.8 13.8538 13.8 13.92V15H14.88C14.9463 15 15 15.0538 15 15.12V15.48C15 15.5463 14.9463 15.6 14.88 15.6Z" fill="currentColor"/>
</svg>
