<svg width="24" height="24" viewBox="0 0 24 24" fill="currentColor" xmlns="http://www.w3.org/2000/svg">
<path fill-rule="evenodd" clip-rule="evenodd" d="M21.9317 10.4392L19.2 11.806V9.77463C19.2 8.77981 18.3941 7.96803 17.4 7.96803H12V6.7693C12.0001 6.45093 11.8737 6.14555 11.6487 5.92034C11.4237 5.69514 11.1184 5.56855 10.8 5.56844H4.2L1.91707 5.11393C1.74081 5.07891 1.55813 5.12472 1.41925 5.23877C1.28037 5.35282 1.2 5.52311 1.2 5.70282V9.04218C1.2 9.22199 1.28041 9.39238 1.41942 9.50644C1.55843 9.62049 1.74127 9.66619 1.9176 9.63094L4.2 9.16803H4.8V17.112C4.79987 17.5895 4.98947 18.0474 5.32706 18.385C5.66466 18.7226 6.12257 18.912 6.6 18.912H19.2V16.14L21.9317 17.5068C22.1177 17.5999 22.3387 17.5899 22.5156 17.4805C22.6925 17.371 22.8 17.1778 22.8 16.9698V10.9762C22.8 10.7682 22.6925 10.575 22.5156 10.4656C22.3387 10.3562 22.1177 10.3462 21.9317 10.4392ZM10.2 15.768C10.2 15.9272 10.1368 16.0798 10.0243 16.1923C9.91177 16.3049 9.75914 16.3681 9.6 16.368H7.8C7.64086 16.3681 7.48822 16.3049 7.37569 16.1923C7.26316 16.0798 7.19996 15.9272 7.2 15.768V14.568C7.19996 14.4089 7.26316 14.2563 7.37569 14.1437C7.48822 14.0312 7.64086 13.968 7.8 13.968H9.6C9.75914 13.968 9.91177 14.0312 10.0243 14.1437C10.1368 14.2563 10.2 14.4089 10.2 14.568V15.768ZM13.8 15.768C13.8 15.9272 13.7368 16.0798 13.6243 16.1923C13.5118 16.3049 13.3591 16.3681 13.2 16.368H11.4C11.2409 16.3681 11.0882 16.3049 10.9757 16.1923C10.8632 16.0798 10.8 15.9272 10.8 15.768V14.578C10.8 14.2464 11.0686 13.968 11.4 13.968H13.2C13.3591 13.968 13.5118 14.0312 13.6243 14.1437C13.7368 14.2563 13.8 14.4089 13.8 14.568V15.768Z" fill="currentColor"/>
</svg>
