<svg width="24" height="24" viewBox="0 0 24 24" fill="currentColor" xmlns="http://www.w3.org/2000/svg">
<path fill-rule="evenodd" clip-rule="evenodd" d="M13.5324 18H10.5207C10.1992 18 9.93853 18.2606 9.93853 18.5821V19.8026C9.93853 20.1325 10.206 20.4 10.536 20.4H10.9457C10.9716 20.4002 10.9955 20.4137 11.009 20.4358C11.2282 20.7867 11.6128 21 12.0265 21C12.4403 21 12.8249 20.7867 13.0441 20.4358C13.0576 20.4137 13.0815 20.4002 13.1073 20.4H13.4987C13.662 20.4 13.8187 20.3351 13.9342 20.2196C14.0497 20.1041 14.1145 19.9475 14.1145 19.7841V18.5821C14.1145 18.4277 14.0532 18.2797 13.944 18.1705C13.8349 18.0613 13.6868 18 13.5324 18ZM11.7132 13.2583C11.4325 13.4187 11.3349 13.7764 11.4954 14.0572C11.6558 14.338 12.0135 14.4356 12.2943 14.2752C12.5751 14.1147 12.6727 13.7571 12.5123 13.4762C12.3518 13.1954 11.9941 13.0979 11.7132 13.2583ZM17.4 8.4C17.4 5.41762 14.9823 3 12 3C9.01765 3 6.59998 5.41766 6.59998 8.4C6.59833 9.48936 6.92775 10.5535 7.54458 11.4514C9.20968 14.0102 9.55578 16.2074 9.60222 16.5604C9.63399 17.0329 10.0264 17.4 10.5 17.4H13.5C13.9544 17.4 14.3374 17.0612 14.393 16.6102C14.393 16.6102 14.6448 14.1835 16.5297 11.3406C17.0993 10.4658 17.4016 9.44394 17.4 8.4ZM13.6833 14.7639C13.3577 15.3201 13.2553 14.5647 12.6457 14.9129C12.0362 15.2611 12.6347 15.7332 11.9905 15.731C11.3463 15.7289 11.9504 15.2608 11.3449 14.9086C10.7395 14.5564 10.6281 15.3112 10.3093 14.7528C9.99037 14.1944 10.6972 14.482 10.7012 13.7813C10.7052 13.0806 9.99544 13.3637 10.321 12.8076C10.6466 12.2514 10.7488 13.007 11.3583 12.6588C11.9679 12.3105 11.3693 11.8383 12.0137 11.8405C12.6581 11.8427 12.0535 12.3107 12.659 12.6628C13.2644 13.0149 13.3757 12.2604 13.6946 12.8186C14.0134 13.3769 13.307 13.0894 13.3027 13.7901C13.2984 14.4907 14.0085 14.2078 13.6833 14.7639ZM15.3731 9.8179C14.8839 10.9878 14.6623 9.73927 13.9847 10.4123C13.3071 11.0854 14.5543 11.3152 13.381 11.7967C12.2077 12.2783 12.9342 11.2384 11.9792 11.2351C11.0242 11.2318 11.7433 12.2763 10.5733 11.7873C9.40324 11.2984 10.6521 11.0763 9.97902 10.3988C9.30599 9.72125 9.0758 10.9684 8.59444 9.79529C8.11307 8.62222 9.15277 9.34802 9.15618 8.39326C9.15959 7.43849 8.11458 8.15738 8.6038 6.9875C9.09301 5.81762 9.31482 7.06594 9.9922 6.39307C10.6696 5.72021 9.42277 5.49007 10.5958 5.00866C11.7689 4.52724 11.0431 5.56702 11.9981 5.57026C12.9531 5.5735 12.2338 4.5289 13.4037 5.01806C14.5735 5.50723 13.325 5.7289 13.9981 6.40644C14.6711 7.08398 14.9013 5.83682 15.3825 7.01009C15.8637 8.18335 14.8243 7.45716 14.8211 8.41212C14.8179 9.36708 15.8623 8.64802 15.3731 9.8179ZM10.7723 7.06092C10.2393 7.58202 10.0727 8.37288 10.3501 9.06471C10.6276 9.75654 11.2945 10.2131 12.0399 10.2215C12.7852 10.2299 13.4623 9.78841 13.7552 9.103C14.0482 8.41758 13.8994 7.62317 13.3783 7.09022C12.6667 6.36253 11.5 6.34941 10.7723 7.06092Z" fill="currentColor"/>
</svg>
