<svg width="24" height="24" viewBox="0 0 24 24" fill="currentColor" xmlns="http://www.w3.org/2000/svg">
<path fill-rule="evenodd" clip-rule="evenodd" d="M12.6469 11.9869C12.6469 11.698 12.4541 11.4616 12.2186 11.4616C11.983 11.4616 11.7902 11.698 11.7902 11.9869L11.6189 15.6641H12.8182L12.6469 11.9869ZM10.4197 13.2493C10.5261 13.249 10.6243 13.192 10.6773 13.0996C10.7302 13.0073 10.7298 12.8937 10.6762 12.8017C10.2928 12.1398 10.3016 11.3212 10.6992 10.6676C10.7565 10.5776 10.7612 10.4637 10.7115 10.3693C10.6618 10.2748 10.5653 10.2143 10.4586 10.2106C10.3519 10.207 10.2515 10.2608 10.1954 10.3516C10.1943 10.3533 10.1932 10.3551 10.1921 10.3569C9.68037 11.1973 9.66906 12.2503 10.1626 13.1015C10.2158 13.193 10.3138 13.2494 10.4197 13.2493ZM9.14152 13.712C9.19495 13.8038 9.2933 13.8602 9.39953 13.8598C9.50576 13.8595 9.60373 13.8025 9.65653 13.7103C9.70934 13.6181 9.70895 13.5047 9.65553 13.4129L9.65409 13.4105C9.05476 12.3874 9.05476 11.1203 9.65409 10.0972C9.70891 10.0056 9.71041 9.89159 9.65803 9.79857C9.60565 9.70556 9.50741 9.64776 9.40066 9.64714C9.29391 9.64653 9.19502 9.70319 9.14157 9.7956C8.43315 11.0049 8.43317 12.5027 9.14152 13.712ZM8.52388 14.4224C8.66545 14.339 8.7127 14.1567 8.62948 14.015C7.81575 12.6236 7.81242 10.9023 8.62077 9.50779C8.67585 9.41596 8.6773 9.3016 8.62457 9.2084C8.57184 9.1152 8.47306 9.05755 8.36598 9.05747C8.25889 9.0574 8.16003 9.11491 8.10717 9.20803C7.18921 10.7882 7.19299 12.7401 8.11705 14.3166C8.15698 14.3846 8.22228 14.4339 8.29857 14.4537C8.37486 14.4735 8.45594 14.4624 8.52388 14.4224ZM13.8321 13.2662C13.8989 13.3081 13.9796 13.3218 14.0564 13.3041C14.1333 13.2864 14.2 13.239 14.2418 13.1721C14.2429 13.1703 14.244 13.1685 14.245 13.1667C14.7568 12.3263 14.7681 11.2734 14.2745 10.4222C14.1908 10.2826 14.0103 10.2363 13.8696 10.3184C13.729 10.4005 13.6806 10.5804 13.7609 10.722C14.1444 11.384 14.1356 12.2025 13.738 12.8561C13.6509 12.9954 13.693 13.1789 13.8321 13.2662ZM14.7831 10.1131C15.3824 11.1363 15.3824 12.4034 14.7831 13.4265C14.6998 13.5681 14.7471 13.7503 14.8886 13.8336C15.0302 13.9168 15.2124 13.8696 15.2957 13.728C16.0041 12.5187 16.0041 11.021 15.2957 9.81166C15.2424 9.7196 15.1439 9.66303 15.0376 9.66332C14.9312 9.66361 14.8331 9.7207 14.7802 9.81305C14.7274 9.90539 14.728 10.0189 14.7817 10.1107C14.7821 10.1115 14.7826 10.1123 14.7831 10.1131ZM16.4204 11.7614C16.4223 12.5531 16.2139 13.3311 15.8165 14.0158C15.7614 14.1076 15.7599 14.222 15.8127 14.3152C15.8654 14.4084 15.9642 14.4661 16.0713 14.4661C16.1783 14.4662 16.2772 14.4087 16.3301 14.3156C17.248 12.7354 17.2443 10.7835 16.3202 9.20693C16.2368 9.06541 16.0546 9.01825 15.913 9.10159C15.7715 9.18493 15.7244 9.36722 15.8077 9.50873C16.208 10.1921 16.4194 10.9695 16.4204 11.7614ZM21.9906 10.6038C19.5295 8.08267 17.0699 5.56016 14.6117 3.03629C13.2673 1.65672 10.9895 1.65024 9.65363 3.04282C7.22059 5.57919 4.79327 8.12099 2.37167 10.6682C2.00159 11.0558 1.89887 11.5067 2.10421 11.9954C2.31141 12.4884 2.71542 12.7194 3.25285 12.7195C3.77025 12.7197 4.28769 12.7241 4.80496 12.7171C4.85863 12.7162 4.91039 12.7371 4.94835 12.775C4.9863 12.813 5.0072 12.8647 5.00622 12.9184C4.99902 13.4722 5.00246 14.0261 5.0037 14.58C5.00654 15.83 4.98782 17.0806 5.0199 18.3299C5.05727 19.7798 6.31324 21.0142 7.75794 21.0516C8.32348 21.0662 8.88962 21.0609 9.45558 21.0565C9.47839 21.0591 9.50132 21.0603 9.52427 21.0603C10.6035 21.0616 16.3246 21.0555 16.463 21.0554C18.138 21.054 19.4096 19.7939 19.4104 18.1334C19.4111 16.6267 19.4054 13.6216 19.404 12.8934C19.4037 12.8042 19.4758 12.7316 19.565 12.7312C19.9305 12.7296 20.8221 12.7251 21.2343 12.7173C21.9246 12.7043 22.4189 12.183 22.413 11.4993C22.4098 11.1342 22.2374 10.8567 21.9906 10.6038ZM20.8925 11.5283C20.3462 11.5287 19.2322 11.5298 18.6223 11.5305C18.5102 11.5306 18.4027 11.5753 18.3236 11.6547C18.2445 11.7342 18.2002 11.8418 18.2005 11.9538C18.2017 13.1134 18.205 16.3677 18.2048 18.05C18.2048 19.1464 17.5008 19.8545 16.3983 19.8627C16.2815 19.8636 14.9525 19.8633 14.6959 19.8641C14.692 19.8641 10.5524 19.8644 9.66721 19.8644C9.07883 19.8587 8.49033 19.8603 7.9019 19.8612C7.65046 19.8637 7.40221 19.8048 7.17873 19.6895C6.50486 19.3391 6.20869 18.776 6.21138 18.0275C6.21743 16.3441 6.21806 13.1011 6.21806 11.9488C6.21821 11.7176 6.03094 11.5301 5.79976 11.5299L3.52521 11.5295C3.47764 11.5295 3.43467 11.5011 3.41591 11.4574C3.39715 11.4137 3.40626 11.363 3.43893 11.3285C4.36266 10.3537 8.41751 6.07618 10.5165 3.88294C11.3978 2.96203 12.8719 2.9755 13.7621 3.89119C15.5461 5.72623 17.3321 7.55933 19.12 9.39048C19.729 10.0153 20.3384 10.6399 20.9863 11.3043C21.0233 11.3422 21.0341 11.3985 21.0136 11.4474C20.9932 11.4962 20.9454 11.5281 20.8925 11.5283ZM16.4163 16.2644H8.02084C7.35889 16.2667 6.82305 16.8032 6.82149 17.4651V18.0655C6.82303 18.7274 7.35887 19.2639 8.02084 19.2662H16.4163C17.0782 19.2639 17.6141 18.7275 17.6156 18.0655V17.4651C17.6141 16.8032 17.0782 16.2667 16.4163 16.2644ZM8.35674 18.2096C8.1624 18.2098 7.98707 18.0929 7.91255 17.9134C7.83803 17.7339 7.879 17.5272 8.01635 17.3897C8.15369 17.2522 8.36036 17.211 8.53993 17.2853C8.7195 17.3596 8.8366 17.5348 8.8366 17.7292C8.83667 17.8565 8.78615 17.9787 8.69616 18.0688C8.60617 18.1588 8.48408 18.2095 8.35674 18.2096ZM9.80018 18.2096C9.60583 18.2098 9.43049 18.0929 9.35597 17.9134C9.28144 17.7339 9.3224 17.5272 9.45974 17.3897C9.59709 17.2522 9.80376 17.211 9.98333 17.2853C10.1629 17.3596 10.28 17.5348 10.28 17.7292C10.2801 17.8565 10.2296 17.9787 10.1396 18.0688C10.0496 18.1589 9.92752 18.2095 9.80018 18.2096ZM16.2714 18.2096C16.077 18.2098 15.9017 18.0929 15.8272 17.9134C15.7526 17.7339 15.7936 17.5272 15.9309 17.3897C16.0683 17.2522 16.2749 17.211 16.4545 17.2853C16.6341 17.3596 16.7512 17.5348 16.7512 17.7292C16.7513 17.9943 16.5365 18.2094 16.2714 18.2096Z" fill="currentColor"/>
</svg>
