<svg width="24" height="24" viewBox="0 0 24 24" fill="currentColor" xmlns="http://www.w3.org/2000/svg">
<path fill-rule="evenodd" clip-rule="evenodd" d="M12 10.44C14.3859 10.44 16.32 8.50592 16.32 6.12005C16.32 3.73418 14.3859 1.80005 12 1.80005C9.61412 1.80005 7.67999 3.73418 7.67999 6.12005C7.67999 8.50592 9.61412 10.44 12 10.44ZM15.7848 10.1379C13.6592 12.1407 10.3412 12.1408 8.21543 10.1381C6.51736 11.0636 5.444 12.8266 5.40153 14.76H5.39999V19.8C5.39999 21.1255 6.47451 22.2001 7.79999 22.2001H18.6V14.88C18.6006 12.9031 17.5207 11.0839 15.7848 10.1379ZM12 20.4055C10.0118 20.4055 8.39999 18.7937 8.39999 16.8055C8.39999 14.8173 10.0118 13.2055 12 13.2055C13.9882 13.2055 15.6 14.8173 15.6 16.8055C15.6 17.7603 15.2207 18.676 14.5456 19.3511C13.8704 20.0262 12.9548 20.4055 12 20.4055ZM12.8922 16.8055L14.0076 15.6901C14.0667 15.631 14.1 15.5508 14.1 15.4671C14.1 15.3834 14.0667 15.3032 14.0076 15.244L13.5614 14.7979C13.5023 14.7387 13.4221 14.7055 13.3384 14.7055C13.2547 14.7055 13.1745 14.7387 13.1153 14.7979L12 15.9132L10.8846 14.7979C10.8255 14.7387 10.7453 14.7055 10.6616 14.7055C10.5779 14.7055 10.4977 14.7387 10.4385 14.7979L9.99242 15.244C9.93325 15.3032 9.90001 15.3834 9.90001 15.4671C9.90001 15.5508 9.93325 15.631 9.99242 15.6901L11.1077 16.8055L9.99242 17.9208C9.93325 17.98 9.90001 18.0602 9.90001 18.1439C9.90001 18.2276 9.93325 18.3078 9.99242 18.367L10.4385 18.8131C10.4977 18.8723 10.5779 18.9055 10.6616 18.9055C10.7453 18.9055 10.8255 18.8723 10.8846 18.8131L12 17.6976L13.1153 18.813C13.1745 18.8722 13.2547 18.9054 13.3384 18.9054C13.4221 18.9054 13.5023 18.8722 13.5614 18.813L14.0076 18.3669C14.0667 18.3077 14.1 18.2275 14.1 18.1438C14.1 18.0601 14.0667 17.9799 14.0076 17.9208L12.8922 16.8055Z" fill="currentColor"/>
</svg>
