<svg width="24" height="24" viewBox="0 0 24 24" fill="currentColor" xmlns="http://www.w3.org/2000/svg">
<path fill-rule="evenodd" clip-rule="evenodd" d="M7.2 7.8H3.6C3.26863 7.8 3 7.53137 3 7.2V3.6C3 3.26863 3.26863 3 3.6 3H7.2C7.53137 3 7.8 3.26863 7.8 3.6V7.2C7.8 7.53137 7.53137 7.8 7.2 7.8ZM13.8 7.8H10.2C9.86863 7.8 9.6 7.53137 9.6 7.2V3.6C9.6 3.26863 9.86863 3 10.2 3H13.8C14.1314 3 14.4 3.26863 14.4 3.6V7.2C14.4 7.53137 14.1314 7.8 13.8 7.8ZM20.4 7.8H16.8C16.4686 7.8 16.2 7.53137 16.2 7.2V3.6C16.2 3.26863 16.4686 3 16.8 3H20.4C20.7314 3 21 3.26863 21 3.6V7.2C21 7.53137 20.7314 7.8 20.4 7.8ZM7.2 14.4H3.6C3.26863 14.4 3 14.1314 3 13.8V10.2C3 9.86863 3.26863 9.6 3.6 9.6H7.2C7.53137 9.6 7.8 9.86863 7.8 10.2V13.8C7.8 14.1314 7.53137 14.4 7.2 14.4ZM13.8 14.4H10.2C9.86863 14.4 9.6 14.1314 9.6 13.8V10.2C9.6 9.86863 9.86863 9.6 10.2 9.6H13.8C14.1314 9.6 14.4 9.86863 14.4 10.2V13.8C14.4 14.1314 14.1314 14.4 13.8 14.4ZM20.4 14.4H16.8C16.4686 14.4 16.2 14.1314 16.2 13.8V10.2C16.2 9.86863 16.4686 9.6 16.8 9.6H20.4C20.7314 9.6 21 9.86863 21 10.2V13.8C21 14.1314 20.7314 14.4 20.4 14.4ZM7.2 21H3.6C3.26863 21 3 20.7314 3 20.4V16.8C3 16.4686 3.26863 16.2 3.6 16.2H7.2C7.53137 16.2 7.8 16.4686 7.8 16.8V20.4C7.8 20.7314 7.53137 21 7.2 21ZM13.8 21H10.2C9.86863 21 9.6 20.7314 9.6 20.4V16.8C9.6 16.4686 9.86863 16.2 10.2 16.2H13.8C14.1314 16.2 14.4 16.4686 14.4 16.8V20.4C14.4 20.7314 14.1314 21 13.8 21ZM20.4 21H16.8C16.4686 21 16.2 20.7314 16.2 20.4V16.8C16.2 16.4686 16.4686 16.2 16.8 16.2H20.4C20.7314 16.2 21 16.4686 21 16.8V20.4C21 20.7314 20.7314 21 20.4 21Z" fill="currentColor"/>
</svg>
