<svg width="24" height="24" viewBox="0 0 24 24" fill="currentColor" xmlns="http://www.w3.org/2000/svg">
<path fill-rule="evenodd" clip-rule="evenodd" d="M21.336 17.9085L21.3341 17.9067L15.1133 11.6859L11.5576 15.2417L17.7802 21.4643C18.7621 22.4462 20.3541 22.4462 21.336 21.4643C22.3179 20.4824 22.3179 18.8904 21.336 17.9085ZM12.4464 9.01904L10.5552 7.12765C10.8316 5.58315 10.2647 4.00832 9.06745 2.99424C7.87016 1.98016 6.22352 1.68022 4.74556 2.207L7.55733 5.01877C7.80278 5.26425 7.80278 5.66222 7.55733 5.9077L5.77946 7.68557C5.53397 7.93104 5.13598 7.93104 4.8905 7.68557L2.0787 4.87383C1.55199 6.35178 1.85195 7.99837 2.86601 9.19564C3.88007 10.3929 5.45485 10.9598 6.99933 10.6834L8.89072 12.5748L12.4464 9.01904ZM20.4461 1.90649L16.4458 5.01781L15.5568 6.7957L8.88971 13.4629L8.00075 12.5739L2.64352 17.9312C1.68422 18.9167 1.69512 20.4904 2.66761 21.4629C3.64009 22.4354 5.2135 22.446 6.199 21.4867L6.22295 21.4634L11.5566 16.1297L10.6677 15.2407L17.3349 8.5735L19.1128 7.68457L22.224 3.68439L20.4461 1.90649ZM4.00055 19.2409C3.87697 19.3585 3.68214 19.3561 3.5615 19.2355C3.44087 19.1148 3.43845 18.92 3.55605 18.7964L7.55634 14.7962C7.67993 14.6786 7.87476 14.681 7.99539 14.8017C8.11602 14.9223 8.11843 15.1171 8.00082 15.2407L4.00055 19.2409ZM9.33422 16.5741L5.33399 20.5744C5.25534 20.6574 5.13783 20.6911 5.02713 20.6625C4.91643 20.6339 4.82998 20.5475 4.80138 20.4368C4.77278 20.3261 4.80654 20.2086 4.88954 20.1299L8.88978 16.1296C9.01344 16.0125 9.20791 16.0151 9.32835 16.1356C9.4488 16.256 9.4514 16.4505 9.33422 16.5741Z" fill="currentColor"/>
</svg>
