<svg width="24" height="24" viewBox="0 0 24 24" fill="currentColor" xmlns="http://www.w3.org/2000/svg">
<path fill-rule="evenodd" clip-rule="evenodd" d="M12.6894 4.61231L12.4568 4.84495L11.9917 5.31023L8.27041 9.03247L8.73555 9.49775C8.98226 9.74455 9.31692 9.88321 9.66588 9.88321C10.0148 9.88321 10.3495 9.74455 10.5962 9.49775L13.3872 6.70607L13.6198 6.47344L13.8524 6.24079L19.8994 12.2894L20.132 12.0568C21.288 10.9003 21.288 9.02576 20.132 7.86928L16.8758 4.61231C16.3208 4.05703 15.5678 3.74506 14.7826 3.74506C13.9975 3.74506 13.2445 4.05703 12.6894 4.61231ZM6.64237 14.3832L7.5727 13.4526C7.95805 13.0671 7.95805 12.4423 7.5727 12.0568C7.38767 11.8717 7.13668 11.7677 6.87496 11.7677C6.61325 11.7677 6.36226 11.8717 6.17722 12.0568L5.24691 12.9873C4.86155 13.3728 4.86155 13.9977 5.24691 14.3832C5.43193 14.5683 5.68292 14.6723 5.94464 14.6723C6.20636 14.6723 6.45735 14.5683 6.64237 14.3832ZM8.50302 16.2443L9.43333 15.3137C9.81867 14.9282 9.81867 14.3034 9.43333 13.9179C9.2483 13.7328 8.99731 13.6288 8.73559 13.6288C8.47387 13.6288 8.22288 13.7328 8.03785 13.9179L7.10754 14.8485C6.72219 15.234 6.72219 15.8588 7.10754 16.2443C7.29257 16.4294 7.54356 16.5334 7.80528 16.5334C8.06699 16.5334 8.31798 16.4294 8.50302 16.2443ZM10.3636 18.1054L11.294 17.1748C11.6793 16.7894 11.6793 16.1645 11.294 15.779C11.1089 15.5939 10.8579 15.4899 10.5962 15.4899C10.3345 15.4899 10.0835 15.5939 9.89847 15.779L8.96816 16.7096C8.58281 17.0951 8.58281 17.7199 8.96816 18.1054C9.15318 18.2905 9.40418 18.3945 9.6659 18.3945C9.92762 18.3945 10.1786 18.2905 10.3636 18.1054ZM11.7591 17.6401L10.8288 18.5707C10.4434 18.9562 10.4434 19.581 10.8288 19.9665C11.0138 20.1516 11.2648 20.2556 11.5265 20.2556C11.7882 20.2556 12.0392 20.1516 12.2243 19.9665L13.1546 19.036C13.5399 18.6505 13.5399 18.0256 13.1546 17.6401C12.9696 17.455 12.7186 17.351 12.4569 17.351C12.1951 17.351 11.9441 17.455 11.7591 17.6401ZM11.0614 9.96302C10.6913 10.3332 10.1893 10.5412 9.6659 10.5412C9.14247 10.5412 8.64048 10.3332 8.27043 9.96302L7.34012 9.03247L11.5265 4.84495L11.3311 4.64944C10.7661 4.08432 9.99982 3.76682 9.20074 3.76682C8.40167 3.76682 7.63534 4.08432 7.07041 4.64944L3.88854 7.83213C2.712 9.00912 2.712 10.9169 3.88854 12.0939L4.57254 12.7781C4.60268 12.7325 4.63509 12.6884 4.66964 12.6461C4.6711 12.6443 4.67269 12.6426 4.67415 12.6408C4.69023 12.6213 4.70665 12.602 4.72374 12.5831C4.74244 12.5624 4.76175 12.5421 4.78167 12.5221L5.71201 11.5915C6.21254 11.0905 6.97762 10.9664 7.61087 11.2834C8.24413 11.6004 8.60324 12.2872 8.50215 12.9881C9.01483 12.9143 9.53234 13.0864 9.89855 13.4527C10.2648 13.8191 10.4368 14.3366 10.3628 14.8493C10.8755 14.7754 11.393 14.9475 11.7592 15.3138C12.1254 15.6802 12.2975 16.1977 12.2234 16.7104C12.3938 16.6862 12.5668 16.6886 12.7364 16.7176C12.7673 16.7229 12.798 16.729 12.8285 16.7361C12.8591 16.7431 12.8895 16.751 12.9197 16.7598C12.9348 16.7642 12.9498 16.7688 12.9648 16.7736C13.2119 16.8534 13.4364 16.991 13.6198 17.1748L14.085 17.6401C14.4704 18.0255 15.0953 18.0254 15.4806 17.6399C15.866 17.2545 15.8659 16.6296 15.4804 16.2443L15.0152 15.779L11.7591 12.5221C11.6324 12.3933 11.6332 12.1865 11.7609 12.0587C11.8886 11.931 12.0955 11.9301 12.2243 12.0568L15.4804 15.3137L15.9456 15.779C16.3311 16.1644 16.9559 16.1643 17.3413 15.7788C17.7266 15.3934 17.7265 14.7685 17.3411 14.3832L16.8758 13.9179L13.6197 10.6609C13.493 10.5322 13.4938 10.3253 13.6216 10.1976C13.7493 10.0698 13.9561 10.069 14.0849 10.1957L17.341 13.4526L17.8062 13.9179C18.0552 14.1688 18.4194 14.2674 18.761 14.1763C19.1026 14.0852 19.3693 13.8184 19.4603 13.4768C19.5513 13.1352 19.4526 12.771 19.2016 12.5221L18.0016 11.3217L13.8523 7.17136L12.4568 8.56718L11.0614 9.96302Z" fill="currentColor"/>
</svg>
