<svg width="24" height="24" viewBox="0 0 24 24" fill="currentColor" xmlns="http://www.w3.org/2000/svg">
<path fill-rule="evenodd" clip-rule="evenodd" d="M19.5112 5.71302C19.5111 6.70756 18.7048 7.51374 17.7103 7.51369C16.7157 7.51364 15.9096 6.70738 15.9096 5.71285C15.9096 4.71831 16.7159 3.91211 17.7104 3.91211C18.188 3.91211 18.6461 4.10187 18.9838 4.43961C19.3215 4.77734 19.5112 5.23541 19.5112 5.71302ZM20.4115 12.3163H17.1101V9.61501C17.1101 9.60016 17.1097 9.58528 17.109 9.57042C17.1087 9.56341 17.108 9.55653 17.1075 9.54959C17.1069 9.54191 17.1065 9.53423 17.1057 9.52657C17.1049 9.51777 17.1037 9.50903 17.1026 9.50029C17.1019 9.49461 17.1013 9.48889 17.1004 9.48321C17.099 9.47361 17.0973 9.46422 17.0956 9.45479C17.0947 9.44999 17.094 9.445 17.093 9.44013C17.0911 9.43053 17.089 9.42093 17.0868 9.41157C17.0857 9.40677 17.0846 9.40197 17.0834 9.39717C17.0812 9.388 17.0786 9.37893 17.0761 9.36988C17.0746 9.36472 17.0732 9.35956 17.0717 9.35445C17.0692 9.346 17.0664 9.33765 17.0636 9.32934C17.0617 9.32358 17.0598 9.31782 17.0578 9.31209C17.0551 9.3046 17.0522 9.29721 17.0494 9.28984C17.0468 9.28331 17.0443 9.27678 17.0417 9.2703C17.039 9.26382 17.0362 9.25751 17.0333 9.2511C17.0301 9.2439 17.0269 9.23656 17.0235 9.22936C17.0209 9.22389 17.0182 9.21851 17.0155 9.21309C17.0115 9.20519 17.0076 9.19732 17.0035 9.18954C17.0011 9.18486 16.9983 9.18028 16.9957 9.17567C16.9911 9.16741 16.9865 9.15918 16.9816 9.15105C16.9791 9.14685 16.9764 9.14277 16.9738 9.13861C16.9687 9.13033 16.9635 9.12208 16.958 9.11392C16.9552 9.10981 16.9523 9.10581 16.9495 9.10175C16.944 9.09385 16.9386 9.08598 16.9327 9.07823C16.9293 9.07365 16.9257 9.06918 16.9222 9.06467C16.9168 9.05766 16.9114 9.05065 16.9058 9.04377C16.901 9.03789 16.8959 9.0322 16.8909 9.02641C16.8863 9.02111 16.8818 9.01573 16.8771 9.0105C16.8671 8.99948 16.8568 8.9887 16.8463 8.97817L12.6446 4.77611C12.281 4.42494 11.7046 4.42494 11.3411 4.77611L8.36986 7.74745C8.01824 8.09911 8.01824 8.66922 8.36986 9.02087C8.53871 9.18974 8.76773 9.28461 9.00653 9.28461C9.24534 9.28461 9.47436 9.18974 9.6432 9.02087L11.9928 6.67127L13.4357 8.11427L2.96756 18.5831C2.61596 18.9347 2.61596 19.5048 2.96756 19.8565C3.13641 20.0254 3.36544 20.1202 3.60424 20.1202C3.84305 20.1202 4.07207 20.0254 4.24092 19.8565L10.8073 13.2896L14.036 16.5184H10.2072C9.96835 16.5184 9.73933 16.6133 9.57047 16.7821C9.40161 16.951 9.30676 17.18 9.30677 17.4189C9.30675 17.6577 9.40161 17.8867 9.57046 18.0556C9.73932 18.2244 9.96835 18.3193 10.2072 18.3193H16.2108C16.2253 18.3193 16.2398 18.3189 16.2542 18.3182C16.2614 18.3179 16.2684 18.3172 16.2755 18.3167C16.283 18.3161 16.2906 18.3157 16.2981 18.315C16.307 18.3141 16.3158 18.3129 16.3245 18.3118C16.3301 18.3111 16.3357 18.3105 16.3413 18.3097C16.3509 18.3082 16.3605 18.3065 16.3699 18.3049C16.3747 18.304 16.3795 18.3032 16.3843 18.3023C16.3939 18.3004 16.4035 18.2982 16.4131 18.296C16.4179 18.2949 16.4227 18.2939 16.4273 18.2927C16.4365 18.2903 16.4456 18.2879 16.4547 18.2853C16.4598 18.2839 16.4649 18.2825 16.47 18.281C16.4785 18.2784 16.4868 18.2756 16.4952 18.2728C16.501 18.2709 16.5067 18.2691 16.5124 18.267C16.5199 18.2643 16.5273 18.2615 16.5348 18.2586C16.5412 18.2561 16.5477 18.2536 16.5541 18.2509C16.5606 18.2483 16.567 18.2454 16.5733 18.2426C16.5806 18.2393 16.5877 18.2362 16.5949 18.2328C16.6005 18.2302 16.6059 18.2274 16.6113 18.2247C16.6192 18.2207 16.627 18.2168 16.6348 18.2127C16.6396 18.2101 16.6441 18.2074 16.6488 18.2048C16.657 18.2002 16.6652 18.1956 16.6733 18.1907C16.6775 18.1882 16.6816 18.1855 16.6858 18.1829C16.694 18.1778 16.7023 18.1726 16.7104 18.1671C16.7145 18.1644 16.7186 18.1614 16.7227 18.1586C16.7305 18.1531 16.7384 18.1477 16.7461 18.1419C16.7509 18.1385 16.7553 18.1347 16.7599 18.1312C16.7668 18.1259 16.7737 18.1206 16.7805 18.115C16.7865 18.1102 16.7923 18.1049 16.7982 18.0999C16.8034 18.0954 16.8087 18.091 16.8138 18.0863C16.8358 18.0664 16.8568 18.0454 16.8768 18.0233C16.8816 18.0181 16.8859 18.0128 16.8905 18.0076C16.8955 18.0017 16.9006 17.996 16.9055 17.99C16.9111 17.9832 16.9165 17.9762 16.9219 17.9692C16.9254 17.9647 16.9291 17.9602 16.9324 17.9556C16.9382 17.9479 16.9436 17.94 16.9491 17.9321C16.952 17.928 16.9549 17.924 16.9576 17.9199C16.9631 17.9117 16.9683 17.9035 16.9735 17.8953C16.976 17.8911 16.9787 17.887 16.9812 17.8828C16.986 17.8746 16.9908 17.8664 16.9954 17.8582C16.998 17.8535 17.0006 17.849 17.0031 17.8443C17.0073 17.8365 17.0113 17.8286 17.0151 17.8208C17.0178 17.8153 17.0206 17.8099 17.0232 17.8044C17.0266 17.7972 17.0298 17.79 17.033 17.7827C17.0358 17.7763 17.0386 17.77 17.0413 17.7635C17.044 17.757 17.0465 17.7505 17.049 17.7439C17.0519 17.7365 17.0547 17.7292 17.0574 17.7217C17.0594 17.716 17.0613 17.7102 17.0632 17.7045C17.066 17.6961 17.0688 17.6877 17.0713 17.6793C17.0729 17.6742 17.0743 17.6691 17.0757 17.664C17.0783 17.6549 17.0808 17.6458 17.0831 17.6366C17.0843 17.6318 17.0853 17.627 17.0864 17.6222C17.0886 17.6126 17.0908 17.6032 17.0927 17.5936C17.0936 17.5888 17.0944 17.5838 17.0953 17.579C17.097 17.5695 17.0987 17.56 17.1001 17.5505C17.1009 17.5449 17.1015 17.5392 17.1022 17.5337C17.1033 17.5249 17.1046 17.5161 17.1054 17.5073C17.1061 17.4997 17.1066 17.4922 17.1071 17.4846C17.1076 17.4776 17.1083 17.4706 17.1086 17.4634C17.1094 17.4486 17.1098 17.4338 17.1098 17.4189C17.1098 17.4041 17.1094 17.3893 17.1086 17.3744C17.1083 17.3672 17.1076 17.3603 17.1071 17.3532C17.1066 17.3457 17.1061 17.3381 17.1054 17.3306C17.1045 17.3217 17.1033 17.3129 17.1022 17.3041C17.1015 17.2984 17.1009 17.2928 17.1001 17.2873C17.0987 17.2777 17.097 17.2682 17.0953 17.2588C17.0944 17.254 17.0936 17.249 17.0927 17.2442C17.0908 17.2346 17.0886 17.225 17.0864 17.2155C17.0853 17.2107 17.0843 17.2059 17.0831 17.2012C17.0807 17.192 17.0783 17.1829 17.0757 17.1738C17.0743 17.1687 17.0729 17.1636 17.0714 17.1585C17.0688 17.1501 17.0661 17.1417 17.0633 17.1333C17.0613 17.1276 17.0595 17.1219 17.0575 17.1161C17.0548 17.1087 17.0519 17.1013 17.049 17.0939C17.0465 17.0874 17.044 17.0808 17.0413 17.0744C17.0387 17.0679 17.0358 17.0615 17.033 17.0552C17.0298 17.048 17.0266 17.0406 17.0232 17.0334C17.0206 17.0279 17.0178 17.0225 17.0151 17.0171C17.0112 17.0092 17.0072 17.0014 17.0031 16.9936C17.0007 16.9888 16.998 16.9843 16.9954 16.9797C16.9908 16.9714 16.9861 16.9632 16.9813 16.9551C16.9787 16.9509 16.976 16.9468 16.9735 16.9426C16.9683 16.9344 16.9631 16.9261 16.9577 16.918C16.9549 16.9138 16.952 16.9098 16.9491 16.9057C16.9436 16.8979 16.9382 16.89 16.9325 16.8823C16.929 16.8777 16.9253 16.8731 16.9218 16.8686C16.9165 16.8616 16.9111 16.8547 16.9056 16.8478C16.9008 16.8419 16.8955 16.8362 16.8905 16.8303C16.8859 16.8251 16.8815 16.8197 16.8768 16.8146C16.8668 16.8035 16.8566 16.7927 16.8461 16.7822L13.2813 13.2168L15.3093 11.1885V13.2168C15.3093 13.4556 15.4041 13.6846 15.573 13.8535C15.7418 14.0223 15.9708 14.1172 16.2097 14.1172H20.4115C20.6504 14.1172 20.8794 14.0223 21.0482 13.8535C21.2171 13.6846 21.312 13.4556 21.312 13.2168C21.312 12.978 21.2171 12.7489 21.0482 12.5801C20.8794 12.4112 20.6504 12.3163 20.4115 12.3163Z" fill="currentColor"/>
</svg>
