<svg width="24" height="24" viewBox="0 0 24 24" fill="currentColor" xmlns="http://www.w3.org/2000/svg">
<path fill-rule="evenodd" clip-rule="evenodd" d="M18.7882 5.21222C16.9898 3.40888 14.5468 2.3968 12 2.40003C7.31301 2.40003 3.41059 5.7585 2.56799 10.2H6.27338C6.90348 8.19876 8.53276 6.67171 10.5706 6.17242C12.6085 5.67313 14.7591 6.27408 16.243 7.75742L13.8001 10.2H19.8005C20.4632 10.2 21.0005 9.66278 21.0005 9.00004V3.00004L18.7882 5.21222ZM17.7266 13.8C17.0965 15.8013 15.4672 17.3284 13.4294 17.8277C11.3915 18.327 9.24087 17.726 7.75701 16.2427L10.2 13.8H4.19951C3.53677 13.8 2.99951 14.3373 2.99951 15V21L5.21183 18.7879C7.01021 20.5912 9.45322 21.6033 12 21.6C16.687 21.6 20.5894 18.2416 21.432 13.8H17.7266Z" fill="currentColor"/>
</svg>
