<svg width="24" height="24" viewBox="0 0 24 24" fill="currentColor" xmlns="http://www.w3.org/2000/svg">
<path fill-rule="evenodd" clip-rule="evenodd" d="M17.544 6.968L19.2721 5.2376C19.3212 5.18886 19.3468 5.1213 19.3423 5.0523C19.3378 4.9833 19.3037 4.9196 19.2488 4.8776C18.8291 4.56148 18.3359 4.35713 17.8156 4.2837C17.7471 4.27381 17.6778 4.29423 17.6256 4.33962C17.5735 4.385 17.5437 4.45086 17.544 4.52V6.968ZM20.4636 6.932C20.3902 6.41164 20.1859 5.91843 19.8698 5.49858C19.8278 5.44363 19.7641 5.40954 19.6951 5.40506C19.6261 5.40059 19.5585 5.42618 19.5098 5.47525L17.784 7.208H20.232C20.3012 7.20703 20.3665 7.17601 20.411 7.12302C20.4555 7.07002 20.4747 7.0003 20.4636 6.932ZM17.208 6.968V4.52C17.2078 4.45063 17.1775 4.38477 17.1249 4.33945C17.0724 4.29413 17.0028 4.2738 16.9342 4.28372C16.4138 4.35715 15.9207 4.5615 15.5009 4.8776C15.446 4.9196 15.4119 4.9833 15.4074 5.0523C15.4029 5.1213 15.4285 5.18886 15.4776 5.2376L17.208 6.968ZM17.784 7.54399L19.5098 9.27039C19.5585 9.31946 19.6261 9.34506 19.6951 9.34059C19.7641 9.33612 19.8278 9.30201 19.8698 9.24706C20.1859 8.82722 20.3902 8.33401 20.4636 7.81364C20.4745 7.74602 20.455 7.67705 20.4104 7.6251C20.3657 7.57315 20.3005 7.54348 20.232 7.54399H17.784ZM19.2721 9.50806L17.9318 8.16754C17.9313 8.18804 17.9303 8.20857 17.9288 8.22913L17.9286 8.23287L17.9282 8.23664L17.7336 10.4721C18.2835 10.4095 18.8067 10.2009 19.2489 9.86811C19.3038 9.8261 19.3379 9.76238 19.3424 9.69337C19.3468 9.62436 19.3212 9.55679 19.2721 9.50806ZM16.728 7.808H8.664L8.55506 6.55568L8.55444 6.54848C8.48794 5.85008 8.22442 5.31706 7.77118 4.96448L7.76194 4.95728L3.55183 2L3 2.78581L7.18999 5.72895C7.42694 5.91752 7.55686 6.20622 7.5983 6.63615L8.92877 22.208H16.128L17.3304 8.44863C17.342 8.28209 17.2836 8.11827 17.1692 7.99665C17.0549 7.87503 16.8949 7.80665 16.728 7.808ZM16.5113 10.9329C16.0946 11.1567 15.6168 11.3453 14.8116 11.3453C12.8313 11.3453 12.8313 10.205 10.8511 10.205C10.3844 10.205 10.0135 10.2618 9.70829 10.3539L10.6767 21.0077H9.81271L8.664 8.408H16.728L16.5113 10.9329ZM14.2841 6.93214C14.3576 6.41178 14.5619 5.91857 14.8779 5.49872C14.9199 5.44378 14.9836 5.40968 15.0526 5.40521C15.1216 5.40074 15.1892 5.42633 15.2379 5.47539L16.968 7.208H14.52C14.4504 7.20726 14.3845 7.17649 14.3393 7.1236C14.2941 7.07071 14.2741 7.001 14.2841 6.93214ZM21.576 7.37226C21.576 6.25813 21.1336 5.18962 20.3458 4.40176C19.5581 3.61391 18.4896 3.1712 17.3755 3.1712C15.1119 3.1712 13.2643 4.96573 13.176 7.208H13.776C13.863 5.28305 15.4494 3.76743 17.3763 3.7683C19.3033 3.76917 20.8883 5.28622 20.9736 7.21125C21.0589 9.13627 19.6142 10.7876 17.6949 10.9588L17.6431 11.5644C19.8546 11.4232 21.576 9.58827 21.576 7.37226Z" fill="currentColor"/>
</svg>
