<svg width="24" height="24" viewBox="0 0 24 24" fill="currentColor" xmlns="http://www.w3.org/2000/svg">
<path fill-rule="evenodd" clip-rule="evenodd" d="M21.0283 8.25041C20.5916 7.7648 19.8465 7.71806 19.3525 8.14528L13.7531 12.987C13.5718 13.1438 13.2984 13.1266 13.1382 12.9483C12.9889 12.7822 12.9875 12.5307 13.135 12.3629L18.8516 5.86063C19.3483 5.29572 19.2993 4.42543 18.725 3.93974C18.1694 3.47029 17.3404 3.53184 16.8602 4.07817L11.4105 10.2769C11.3259 10.3731 11.2043 10.4285 11.0762 10.4292C10.9482 10.4299 10.8259 10.3758 10.7403 10.2806C10.6115 10.1372 10.5886 9.92763 10.6833 9.75979L13.6874 4.43882C14.0466 3.80258 13.8263 2.98509 13.1834 2.63844C12.5615 2.30344 11.7859 2.52774 11.4388 3.14297L6.91585 11.1541C6.87946 11.2186 6.80414 11.2505 6.73252 11.2316C6.66089 11.2128 6.61099 11.148 6.61105 11.074V7.34484C6.61134 7.33284 6.61105 7.32084 6.61105 7.30884C6.6132 6.77173 6.32789 6.2745 5.86309 6.00532C5.3983 5.73614 4.82503 5.73614 4.36023 6.00532C3.89544 6.2745 3.61013 6.77173 3.61227 7.30884C3.61227 7.32084 3.6129 7.33284 3.61319 7.34484L3.61227 15.7683C3.54735 17.3417 4.14456 18.8704 5.25889 19.9831C7.31151 22.0371 10.5528 22.176 12.7667 20.4006L20.2728 15.0984C20.7897 14.7333 20.9213 14.0111 20.5462 13.5013C20.1836 13.0087 19.4935 12.8969 18.994 13.2498L15.8891 15.4431C15.7117 15.5684 15.4687 15.5411 15.3235 15.3796C15.2466 15.2939 15.2073 15.1809 15.2145 15.066C15.2217 14.9511 15.2748 14.8439 15.3619 14.7686L20.9045 9.97601C21.4156 9.53407 21.48 8.75294 21.0283 8.25041Z" fill="currentColor"/>
</svg>
