<svg width="24" height="24" viewBox="0 0 24 24" fill="currentColor" xmlns="http://www.w3.org/2000/svg">
<path fill-rule="evenodd" clip-rule="evenodd" d="M10.8054 12.0061C10.8058 12.5201 11.1334 12.9768 11.6202 13.1418C12.107 13.3068 12.6449 13.1435 12.9576 12.7356C13.2704 12.3277 13.2887 11.7659 13.0031 11.3386C12.7175 10.9112 12.1915 10.7132 11.695 10.8462L9.91925 9.0696C11.4312 7.99477 13.5123 8.24457 14.727 9.64668C15.8994 10.9943 15.8994 13.0179 14.727 14.3655C14.101 15.0882 13.2132 15.5322 12.2594 15.5996C11.3056 15.6669 10.3642 15.3521 9.64284 14.7246C9.53595 14.6317 9.3754 14.6374 9.2754 14.7377L9.23443 14.7786C9.18104 14.8322 9.15227 14.9055 9.15498 14.9811C9.15769 15.0567 9.19163 15.1278 9.24871 15.1774C11.0544 16.752 13.8853 16.5239 15.3942 14.493C16.4881 13.0155 16.4881 10.9967 15.3942 9.51919C13.9509 7.57661 11.2982 7.28369 9.48982 8.64L7.7814 6.93082C9.8899 5.1702 12.8378 4.93037 15.1751 6.21122C15.2699 6.02905 15.4008 5.86815 15.56 5.73842C12.9798 4.27202 9.68719 4.52719 7.35533 6.50455L6.91416 6.06319C6.67944 5.82969 6.30017 5.82969 6.06545 6.06319C5.83207 6.29812 5.83207 6.67736 6.06545 6.91229L10.8462 11.6952C10.8191 11.7966 10.8054 11.9012 10.8054 12.0061ZM16.5 7.8C16.9971 7.8 17.4 7.39706 17.4 6.9C17.4 6.40294 16.9971 6 16.5 6C16.003 6 15.6 6.40294 15.6 6.9C15.6 7.13869 15.6949 7.36761 15.8637 7.5364C16.0324 7.70518 16.2614 7.8 16.5 7.8ZM12 1.8C6.36674 1.8 1.80005 6.36669 1.80005 12C1.80005 17.6333 6.36674 22.2 12 22.2C17.6334 22.2 22.2001 17.6333 22.2001 12C22.2001 6.36669 17.6334 1.8 12 1.8ZM12 21C7.02948 21 3.00005 16.9706 3.00005 12C3.00005 7.02943 7.02948 3 12 3C16.9706 3 21 7.02943 21 12C21 16.9706 16.9706 21 12 21ZM17.0849 17.0834C14.3358 19.8345 9.91685 19.896 7.09315 17.2677C7.04226 17.2203 7.01283 17.1542 7.01155 17.0847C7.01036 17.0151 7.03743 16.948 7.0866 16.8988L7.1298 16.8556C7.23763 16.7477 7.41143 16.7443 7.5234 16.8479C10.1127 19.2366 14.1478 19.1735 16.6608 16.6588C18.9792 14.3386 19.2068 10.7001 17.3442 8.12069C17.5132 8.00401 17.6566 7.85405 17.7655 7.68C19.872 10.5009 19.6455 14.521 17.0849 17.0834ZM17.7655 7.68C17.6566 7.85405 17.5132 8.00401 17.3442 8.12069C19.2068 10.7001 18.9792 14.3386 16.6608 16.6588C14.1478 19.1735 10.1127 19.2366 7.5234 16.8479C7.41143 16.7443 7.23763 16.7477 7.1298 16.8556L7.0866 16.8988C7.03743 16.948 7.01036 17.0151 7.01155 17.0847C7.01283 17.1542 7.04226 17.2203 7.09315 17.2677C9.91685 19.896 14.3358 19.8345 17.0849 17.0834C19.6455 14.521 19.872 10.5009 17.7655 7.68Z" fill="currentColor"/>
</svg>
