<svg width="24" height="24" viewBox="0 0 24 24" fill="currentColor" xmlns="http://www.w3.org/2000/svg">
<path fill-rule="evenodd" clip-rule="evenodd" d="M22.5291 12.2581C22.5219 12.029 22.4272 11.8114 22.2644 11.6501L21.6 10.992V6.26401C21.6 5.09264 20.6469 4.20001 19.4751 4.20001H2.39999V17.0925C2.39846 17.6527 2.62062 18.1903 3.01716 18.586C3.4137 18.9817 3.9518 19.2027 4.51199 19.2H12.144L11.1406 21.0945L10.2246 22.8L11.9444 21.9117L14.5765 20.5521L14.6595 20.5092L14.7255 20.4431C15.0025 20.166 15.4345 19.7256 15.96 19.2L20.0557 19.2022L21.6 19.2V13.56L22.2552 12.9166C22.2642 12.9081 22.2731 12.8993 22.2821 12.89C22.4465 12.7215 22.5357 12.4935 22.5291 12.2581ZM11.9859 15.0004C11.1562 15.0004 10.4029 14.7136 9.84619 14.1615H9.83131L4.19999 8.70779V6.63064C6.45503 8.86024 10.5594 12.8413 10.5594 12.8413H10.5607C10.9279 13.2253 11.4278 13.3885 11.9795 13.3885C12.5638 13.3885 13.0897 13.1533 13.4616 12.7453H13.4643L19.7992 6.6016L19.8 8.71201L14.1296 14.1615H14.1248C13.5693 14.7136 12.816 15.0004 11.9859 15.0004ZM20.5041 13.8144C20.5007 13.8184 20.497 13.8221 20.4929 13.8255C18.8407 15.4784 15.3713 18.9483 14.3012 20.0189L11.6691 21.3785L13.0639 18.7814L19.4503 12.4018L20.4927 13.4165C20.5461 13.469 20.5779 13.5397 20.5817 13.6145C20.5852 13.6891 20.5571 13.7617 20.5041 13.8144ZM21.8516 12.4721C21.8482 12.4758 21.8446 12.4793 21.8407 12.4826L21.1114 13.2116L19.8739 11.9738L20.807 11.041L21.84 12.0741C21.9547 12.1891 21.9599 12.3639 21.8516 12.4721Z" fill="currentColor"/>
</svg>
