<svg width="24" height="24" viewBox="0 0 24 24" fill="currentColor" xmlns="http://www.w3.org/2000/svg">
<path fill-rule="evenodd" clip-rule="evenodd" d="M14.1713 14.4339L14.8999 16.7996L15.8357 19.838H19.1357L20.7998 14.4339H14.1713ZM17.267 12.1372C17.2392 11.9932 17.2056 11.8511 17.166 11.7118C17.1569 11.6799 17.147 11.648 17.1372 11.616C16.9408 10.9683 16.6211 10.3647 16.1957 9.8384C16.0797 9.69471 15.9563 9.55714 15.8261 9.42625C15.7694 9.36812 15.7108 9.31176 15.6501 9.25717C15.6069 9.21752 15.5633 9.1791 15.5191 9.14139C14.5866 8.3881 13.4236 7.97802 12.2249 7.97979H11.5411V8.66528C11.5392 10.2103 12.2166 11.678 13.3937 12.6788C13.4165 12.6973 13.4393 12.7153 13.4623 12.7333C14.2517 13.3464 15.2003 13.7204 16.1957 13.8111C16.3553 13.8257 16.5167 13.8332 16.68 13.8334H17.3645V13.1306C17.3635 12.7971 17.3309 12.4645 17.267 12.1372ZM17.982 7.24659L17.4859 6.74965L17.3717 6.86399L16.9896 7.24659C16.6622 7.57425 16.3936 7.95582 16.1957 8.37459C16.1611 8.44811 16.1285 8.52207 16.0985 8.59703C16.1311 8.62705 16.1635 8.65803 16.1957 8.68926C16.2132 8.70654 16.2307 8.72336 16.2482 8.74088C16.7115 9.2036 17.0916 9.74275 17.3717 10.3346C17.4329 10.4643 17.4891 10.5961 17.5404 10.73C17.8853 10.0538 18.3954 9.47578 19.0233 9.0494C18.8407 8.3674 18.4815 7.74559 17.982 7.24659ZM21.5181 9.09169C20.8128 9.0907 20.1196 9.27578 19.5086 9.62826C19.4419 9.66666 19.3765 9.70701 19.3123 9.74931C19.2463 9.7923 19.1817 9.8372 19.1186 9.88477C18.6179 10.2566 18.2099 10.739 17.9263 11.2944L17.9066 11.3328C17.8565 11.4336 17.8106 11.537 17.7691 11.6429C17.802 11.7671 17.8313 11.8944 17.856 12.0229C17.9271 12.3873 17.9633 12.7576 17.9642 13.1289L17.9645 13.8334H18.1872C19.2575 13.8326 20.2837 13.4066 21.0399 12.6491C21.7962 11.8917 22.2206 10.8648 22.2197 9.79446V9.09169H21.5181ZM13.7957 18.625H11.3957V17.4241H7.79565V18.625H5.39565C5.23646 18.6251 5.0838 18.6884 4.97127 18.801C4.85874 18.9136 4.79565 19.0663 4.79565 19.2255V19.826H14.3957V19.2255C14.3957 19.0663 14.3326 18.9136 14.22 18.801C14.1075 18.6884 13.9549 18.6251 13.7957 18.625ZM16.1717 4.19H2.99565C2.33268 4.19033 1.79547 4.72797 1.79565 5.39094V15.5987C1.7955 16.2617 2.33271 16.7993 2.99565 16.7996H14.2721L13.5979 14.6106L13.5398 14.4218H2.99565V5.41494H16.1957V7.23939C16.3105 7.09318 16.4338 6.95386 16.565 6.82218L17.0613 6.32523L17.3717 6.01446V5.39094C17.3718 4.72797 16.8346 4.19033 16.1717 4.19ZM9.57165 14.9983C9.81456 14.9981 10.0336 15.1443 10.1267 15.3686C10.2198 15.593 10.1686 15.8513 9.99686 16.0232C9.82516 16.195 9.56686 16.2464 9.34243 16.1535C9.118 16.0606 8.97165 15.8416 8.97165 15.5987C8.97157 15.4395 9.03474 15.2868 9.14726 15.1742C9.25979 15.0616 9.41246 14.9983 9.57165 14.9983Z" fill="currentColor"/>
</svg>
