<svg width="24" height="24" viewBox="0 0 24 24" fill="currentColor" xmlns="http://www.w3.org/2000/svg">
<path fill-rule="evenodd" clip-rule="evenodd" d="M18.6 17.112H16.2V18.912H15.6V20.112H19.2V18.912H18.6V17.112ZM16.2 14.112H18.6V12.312H16.2V14.112ZM18.6 9.91199H16.2V11.712H18.6V9.91199ZM16.2 16.512H18.6V14.712H16.2V16.512ZM22.8 12.012C22.8 15.4913 21.457 18.312 19.8 18.312H19.2V8.11199C19.2 7.9463 19.0657 7.81199 18.9 7.81199C18.7343 7.81199 18.6 7.9463 18.6 8.11199V9.31199H16.2V8.11199C16.2 7.9463 16.0657 7.81199 15.9 7.81199C15.7343 7.81199 15.6 7.9463 15.6 8.11199V18.312H7.20001V18.912H7.80001V20.112H4.20001V18.912H4.80001V18.312H4.20001C2.54305 18.312 1.20001 15.4913 1.20001 12.012C1.20001 8.53271 2.54305 5.71199 4.20001 5.71199H10.2V5.11199C9.86864 5.11199 9.60001 4.84336 9.60001 4.51199C9.60001 4.18062 9.86864 3.91199 10.2 3.91199H13.8C14.1314 3.91199 14.4 4.18062 14.4 4.51199C14.4 4.84336 14.1314 5.11199 13.8 5.11199V5.71199H19.8C21.457 5.71199 22.8 8.53271 22.8 12.012Z" fill="currentColor"/>
</svg>
