<svg width="24" height="24" viewBox="0 0 24 24" fill="currentColor" xmlns="http://www.w3.org/2000/svg">
<path fill-rule="evenodd" clip-rule="evenodd" d="M5.69387 17.7346C5.13861 17.7375 4.58499 17.674 4.04483 17.5454C3.60956 17.4379 3.01331 17.2323 2.6444 16.8631C2.17591 16.394 2.17591 15.6341 2.6444 15.1651L15.3685 2.43071C15.6029 2.19646 15.9829 2.19662 16.2171 2.43106C16.4514 2.6655 16.4512 3.04544 16.2168 3.27969L3.64475 15.8619C3.60438 15.9022 3.5855 15.9592 3.59384 16.0157C3.60218 16.0721 3.63676 16.1212 3.68706 16.1481C4.0814 16.3574 4.90887 16.5706 5.96053 16.5285C6.78051 16.4957 8.32172 16.2749 9.4306 15.1651L9.85475 14.7406L11.1272 13.4672C12.1411 12.4524 12.1282 11.8568 12.1146 11.226C12.1024 10.6617 12.0872 9.95944 12.8237 9.22237L17.4892 4.55301C17.6408 4.40147 17.8618 4.34236 18.0689 4.39793C18.2759 4.4535 18.4376 4.6153 18.493 4.8224C18.5484 5.0295 18.4891 5.25043 18.3375 5.40196L13.672 10.0713C13.2976 10.4459 13.3031 10.6979 13.3139 11.2C13.3298 11.9339 13.3515 12.9389 11.9754 14.3162L10.703 15.5896L10.2789 16.0141C8.88143 17.4127 7.0035 17.6884 6.00848 17.7282C5.90331 17.7324 5.79844 17.7346 5.69387 17.7346ZM7.73406 21.7082C7.49132 21.7081 7.27255 21.5617 7.17973 21.3375C7.0869 21.1132 7.13829 20.855 7.30993 20.6834L13.2478 14.7406C13.8133 14.1747 14.6686 14.0524 15.4958 13.9341C16.1283 13.8437 16.7823 13.7502 17.0651 13.4672L21.7307 8.79789C21.8823 8.64636 22.1033 8.58725 22.3103 8.64282C22.5174 8.69839 22.6791 8.8602 22.7345 9.06729C22.7899 9.27439 22.7306 9.49531 22.5789 9.64684L17.9133 14.3162C17.3478 14.8822 16.4925 15.0045 15.6654 15.1226C15.0329 15.213 14.3789 15.3065 14.0961 15.5895L8.15821 21.5324C8.04589 21.6451 7.89322 21.7084 7.73406 21.7082ZM16.6409 11.0961C16.3982 11.096 16.1794 10.9497 16.0866 10.7254C15.9938 10.5011 16.0451 10.243 16.2168 10.0713L19.6099 6.67547C19.7615 6.52394 19.9825 6.46483 20.1896 6.52041C20.3966 6.57598 20.5583 6.7378 20.6137 6.9449C20.6691 7.152 20.6098 7.37292 20.4581 7.52445L17.0651 10.9202C16.9528 11.033 16.8001 11.0963 16.6409 11.0961Z" fill="currentColor"/>
</svg>
