<svg width="24" height="24" viewBox="0 0 24 24" fill="currentColor" xmlns="http://www.w3.org/2000/svg">
<path fill-rule="evenodd" clip-rule="evenodd" d="M22.776 15.0001C22.776 15.6627 22.2387 16.1999 21.576 16.2001H20.376C20.376 17.8569 19.0329 19.2001 17.376 19.2001C15.7192 19.2001 14.376 17.8569 14.376 16.2001H8.97603C8.97603 17.8569 7.63288 19.2001 5.97603 19.2001C4.31917 19.2001 2.97603 17.8569 2.97603 16.2001H2.37603C1.71336 16.1999 1.17603 15.6627 1.17603 15.0001V10.8071C1.17567 10.5507 1.25789 10.3011 1.41051 10.0952L1.41276 10.0922L1.41646 10.0873L5.01269 5.28413C5.239 4.97929 5.59636 4.79971 5.97603 4.80005H13.776C14.0996 4.7997 14.4096 4.93044 14.6352 5.16245L14.64 5.15971L18.888 9.67205L21.8197 10.2322C22.3764 10.3475 22.7758 10.838 22.776 11.4065V15.0001ZM10.9751 11.708C10.9728 11.9941 10.7984 12.2506 10.5332 12.3579C10.268 12.4652 9.96422 12.4022 9.76364 12.1981C9.56307 11.9941 9.50517 11.6894 9.61696 11.426C9.72875 11.1627 9.9882 10.9926 10.2743 10.9952C10.4618 10.9967 10.6409 11.0727 10.7724 11.2064C10.9038 11.3401 10.9767 11.5205 10.9751 11.708ZM11.3468 10.5174C10.6701 9.93055 9.66454 9.93145 8.98887 10.5195L8.47392 9.92674C9.44399 9.0805 10.8895 9.07916 11.8611 9.92362L11.3468 10.5174ZM12.3716 9.33444C11.1063 8.23724 9.22623 8.23909 7.96308 9.33879L7.44644 8.74404C9.00569 7.38814 11.3251 7.38656 12.8862 8.74032L12.3716 9.33444ZM13.992 7.61938L13.4784 8.21218C11.5752 6.56574 8.75137 6.56765 6.85032 8.21664L6.33603 7.62471C8.5305 5.71633 11.7949 5.71406 13.992 7.61938Z" fill="currentColor"/>
</svg>
