<svg width="24" height="24" viewBox="0 0 24 24" fill="currentColor" xmlns="http://www.w3.org/2000/svg">
<path fill-rule="evenodd" clip-rule="evenodd" d="M15 2.39996H13.6971C13.4428 1.68076 12.7628 1.19995 12 1.19995C11.2371 1.19995 10.5571 1.68076 10.3028 2.39996H8.99995C8.66858 2.39996 8.39995 2.66859 8.39995 2.99996V5.39996H15.6V2.99996C15.6 2.66859 15.3313 2.39996 15 2.39996ZM12 3.59996C11.6686 3.59996 11.4 3.33133 11.4 2.99996C11.4 2.66859 11.6686 2.39996 12 2.39996C12.3313 2.39996 12.6 2.66859 12.6 2.99996C12.6 3.33133 12.3313 3.59996 12 3.59996ZM18.6 3.59996H16.2V5.99996H7.79995V3.59996H5.39995C4.73721 3.59996 4.19995 4.13722 4.19995 4.79996V21C4.19995 21.6627 4.73721 22.2 5.39995 22.2H18.6C19.2627 22.2 19.8 21.6627 19.8 21V4.79996C19.8 4.13722 19.2627 3.59996 18.6 3.59996ZM13.2 19.2H7.19995C6.86858 19.2 6.59995 18.9313 6.59995 18.6C6.59995 18.2686 6.86858 18 7.19995 18H13.2C13.5313 18 13.8 18.2686 13.8 18.6C13.8 18.9313 13.5313 19.2 13.2 19.2ZM13.2 16.2H7.19995C6.86858 16.2 6.59995 15.9313 6.59995 15.6C6.59995 15.2686 6.86858 15 7.19995 15H13.2C13.5313 15 13.8 15.2686 13.8 15.6C13.8 15.9313 13.5313 16.2 13.2 16.2ZM13.2 13.2H7.19995C6.86858 13.2 6.59995 12.9313 6.59995 12.6C6.59995 12.2686 6.86858 12 7.19995 12H13.2C13.5313 12 13.8 12.2686 13.8 12.6C13.8 12.9313 13.5313 13.2 13.2 13.2ZM13.2 10.2H7.19995C6.86858 10.2 6.59995 9.93133 6.59995 9.59996C6.59995 9.26859 6.86858 8.99996 7.19995 8.99996H13.2C13.5313 8.99996 13.8 9.26859 13.8 9.59996C13.8 9.93133 13.5313 10.2 13.2 10.2ZM16.2 19.2H15V18H16.2V19.2ZM16.2 16.2H15V15H16.2V16.2ZM17.9433 11.7899L16.2881 13.7099C16.2367 13.7672 16.1633 13.8 16.0862 13.8C16.0092 13.8 15.9357 13.7672 15.8843 13.7099L15.0567 12.7499C15.0203 12.7084 15.0001 12.6551 15 12.6C15.0003 12.5353 15.0278 12.4737 15.0757 12.4303L15.1791 12.3343C15.2777 12.2455 15.4257 12.2402 15.5303 12.3218L16.0344 12.84L17.5644 11.4648C17.6136 11.4225 17.6765 11.3995 17.7413 11.4C17.8842 11.4 18 11.5074 18 11.64C17.9998 11.6951 17.9797 11.7484 17.9433 11.7899ZM17.9433 8.78989L16.2881 10.7099C16.2367 10.7672 16.1633 10.8 16.0862 10.8C16.0092 10.8 15.9357 10.7672 15.8843 10.7099L15.0567 9.74988C15.0203 9.7084 15.0001 9.65515 15 9.59996C15.0003 9.53528 15.0278 9.47372 15.0757 9.43025L15.1791 9.33425C15.2777 9.24546 15.4257 9.2402 15.5303 9.3218L16.0344 9.83996L17.5644 8.46476C17.6136 8.42251 17.6765 8.3995 17.7413 8.39995C17.8842 8.39995 18 8.5074 18 8.63996C17.9998 8.69513 17.9797 8.7484 17.9433 8.78989Z" fill="currentColor"/>
</svg>
