<svg width="24" height="24" viewBox="0 0 24 24" fill="currentColor" xmlns="http://www.w3.org/2000/svg">
<path fill-rule="evenodd" clip-rule="evenodd" d="M18.6 1.8H5.4C4.73726 1.8 4.2 2.33726 4.2 3V21C4.2 21.6627 4.73726 22.2 5.4 22.2H18.6C19.2627 22.2 19.8 21.6627 19.8 21V3C19.8 2.33726 19.2627 1.8 18.6 1.8ZM18.6 3.6L16.4715 9.34694L16.3702 9.49298L16.4078 9.51905L16.1926 10.1L16.0282 9.98597L15.6862 10.479L15.9774 10.681L15.7622 11.262L15.3442 10.972L15.0022 11.4649L15.547 11.8429L15.3318 12.4239L14.6601 11.9579L14.3181 12.4509L15.1166 13.0049L14.9016 13.5858L13.9762 12.9439L13.6342 13.4369L14.6864 14.1668L14.4712 14.7478L13.2922 13.9299L12.9502 14.4229L14.256 15.3288L14.0408 15.9098L12.6082 14.9159L12.2662 15.4089L13.8257 16.4907L13.6104 17.0717L11.9241 15.9018L11.5821 16.3948L13.3952 17.6526L12.6 19.8L9 17.4L18.6 3.6ZM5.4 3.6H17.8691L14.53 8.4H7.2V9H14.1126L13.6952 9.6H7.2V10.2H13.2778L12.8604 10.8H7.2V11.4H12.443L12.0256 12H7.2V12.6H11.6082L11.1908 13.2H7.2V13.8H10.7735L10.356 14.4H7.2V15H9.93866L9.52128 15.6H7.2V16.2H9.10387L8.68649 16.8H7.2V17.4H8.40014C8.39984 17.6006 8.5001 17.7881 8.66716 17.8992L11.5184 19.8H5.4V3.6ZM12 21.6C11.6686 21.6 11.4 21.3314 11.4 21C11.4 20.6686 11.6686 20.4 12 20.4C12.3314 20.4 12.6 20.6686 12.6 21C12.6 21.3314 12.3314 21.6 12 21.6ZM18.6 19.8H13.2398L13.9044 18.0058L14.1195 17.4248L14.3347 16.8438L14.5499 16.2629L14.7651 15.6819L14.9802 15.1009L15.1954 14.52L15.4106 13.939L15.6257 13.3581L15.8409 12.7771L16.056 12.1961L16.2712 11.6151L16.4863 11.0341L16.7015 10.4532L16.9167 9.87218L17.1319 9.29121L18.6 5.32754V19.8ZM12.6 6H7.2V7.2H12.6V6Z" fill="currentColor"/>
</svg>
