<svg width="24" height="24" viewBox="0 0 24 24" fill="currentColor" xmlns="http://www.w3.org/2000/svg">
<path fill-rule="evenodd" clip-rule="evenodd" d="M22.1129 13.6358C22.1065 13.6074 22.0963 13.5799 22.0827 13.5542L19.7043 9.06919C19.7027 9.06612 19.701 9.06309 19.6993 9.06009C19.5324 8.76873 19.2224 8.58883 18.8866 8.5884H17.8142C17.971 7.86278 18.0898 7.26043 18.168 6.79344C18.229 6.429 18.2651 6.15096 18.2784 5.94343C18.291 5.74548 18.312 5.41416 18.065 5.27841C17.9412 5.2104 17.7482 5.20178 17.5783 5.38178C17.3754 5.59651 16.8646 5.92257 16.3573 5.88319C16.0375 5.85842 15.7772 5.69393 15.5616 5.38037C15.3117 5.01691 14.9213 4.81442 14.4622 4.81015C13.9186 4.80501 13.3501 5.08526 13.0486 5.50706C12.8121 5.83788 12.3825 6.02359 11.8997 6.00429C11.4797 5.98735 11.1221 5.81541 10.9662 5.55549C10.7145 5.13566 10.2272 4.85681 9.69437 4.82777C9.18358 4.79985 8.72914 4.99677 8.44766 5.36777C8.20985 5.6813 7.947 5.85017 7.64412 5.88377C7.08086 5.94645 6.48785 5.52617 6.18442 5.27021C6.00262 5.1168 5.81362 5.14243 5.69736 5.21741C5.48122 5.35701 5.48283 5.63947 5.50131 5.89327C5.51693 6.10761 5.55826 6.39194 5.62762 6.76253C5.71685 7.23909 5.85207 7.85177 6.03036 8.58823H5.18556C4.80527 8.58871 4.45425 8.79243 4.26516 9.12238C4.26343 9.12542 4.26173 9.12849 4.26007 9.13159L1.91729 13.5544C1.90372 13.5801 1.89361 13.6075 1.88724 13.6358C1.82986 13.7483 1.80005 13.8729 1.80005 13.9992V18.9719C1.80055 19.4158 2.16028 19.7755 2.60419 19.776H21.396C21.8399 19.7754 22.1996 19.4157 22.2001 18.9719V13.9992C22.2001 13.8729 22.1702 13.7483 22.1129 13.6358ZM6.65702 12.208C6.23206 12.208 5.95565 11.8316 6.14571 11.5117L6.35604 11.1577C6.4203 11.0544 6.51754 10.9758 6.63204 10.9345C6.77158 11.4552 6.89489 11.9031 6.97966 12.208H6.65702ZM15 12.2136V10.4997C14.9996 10.3408 14.8709 10.2121 14.712 10.2117H14.688C14.5292 10.2121 14.4005 10.3408 14.4 10.4997V12.2136H12.288V10.4997C12.2876 10.3408 12.1589 10.2121 12 10.2117H11.976C11.8172 10.2121 11.6885 10.3408 11.688 10.4997V12.2136H9.60005V10.4997C9.59959 10.3408 9.47092 10.2121 9.31205 10.2117H9.28805C9.12918 10.2121 9.00051 10.3408 9.00005 10.4997V12.2136H7.66447C7.52566 11.7174 7.19395 10.5181 6.87835 9.27384C6.4201 7.46724 6.24614 6.55183 6.18367 6.09084C6.8376 6.5189 7.36613 6.57701 7.71665 6.53803C8.20171 6.4842 8.62404 6.22435 8.97185 5.76576C9.11911 5.5716 9.36934 5.46919 9.65844 5.48496C9.97606 5.50229 10.2608 5.65898 10.4017 5.89394C10.6742 6.34865 11.2243 6.63573 11.873 6.66194C12.5786 6.69031 13.2179 6.40176 13.5838 5.88984C13.759 5.64468 14.1212 5.46833 14.4478 5.46833H14.4561C14.7014 5.47058 14.8909 5.56644 15.0193 5.75323C15.3454 6.22754 15.7905 6.49937 16.3065 6.53935C16.7667 6.57511 17.2295 6.41901 17.593 6.1997C17.5323 6.6719 17.3732 7.57574 16.982 9.3029C16.704 10.5294 16.4122 11.7138 16.2876 12.2136H15ZM17.3191 12.208H16.9671C17.0433 11.9008 17.1553 11.4447 17.2819 10.9147C17.4219 10.9488 17.5432 11.036 17.6201 11.1578L17.8304 11.5118C18.0205 11.8316 17.7441 12.208 17.3191 12.208Z" fill="currentColor"/>
</svg>
