<svg width="24" height="24" viewBox="0 0 24 24" fill="currentColor" xmlns="http://www.w3.org/2000/svg">
<path fill-rule="evenodd" clip-rule="evenodd" d="M4.79998 12.2227V4.80001H18.4972C18.2428 4.08087 17.5628 3.60001 16.8 3.60001H3.59998V16.8C3.59998 17.5628 4.08084 18.2428 4.79998 18.4972V12.2227ZM18.6 5.40001H5.39998V18.6C5.39998 19.5941 6.20586 20.4 7.19998 20.4H20.4V7.20001C20.4 6.20589 19.5941 5.40001 18.6 5.40001ZM19.2 15.6L15.1657 10.9422C15.0203 10.7526 14.7848 10.7526 14.6395 10.9422L11.64 14.4282L9.98304 12.103C9.83786 11.9134 9.60216 11.9134 9.45718 12.103L7.01998 14.8336C6.77381 14.6481 6.60838 14.4444 6.59998 14.0227V6.60001H18.4125C18.6213 6.60001 18.8217 6.68298 18.9693 6.83066C19.117 6.97835 19.2 7.17866 19.2 7.38752V15.6ZM8.27998 9.48001C8.27998 8.75099 8.87096 8.16001 9.59998 8.16001C10.329 8.16001 10.92 8.75099 10.92 9.48001C10.92 10.209 10.329 10.8 9.59998 10.8C8.87096 10.8 8.27998 10.209 8.27998 9.48001Z" fill="currentColor"/>
</svg>
