<svg width="24" height="24" viewBox="0 0 24 24" fill="currentColor" xmlns="http://www.w3.org/2000/svg">
<path fill-rule="evenodd" clip-rule="evenodd" d="M22.1909 11.6839C22.1035 8.77469 20.7981 6.17163 18.7669 4.36745C18.6139 4.23155 18.4569 4.10024 18.2958 3.97354C16.5781 2.62055 14.4695 1.85824 12.2837 1.80003C12.188 1.79737 12.092 1.7959 11.9957 1.7959C11.8913 1.7959 11.7873 1.7975 11.6837 1.8007C9.50631 1.86383 7.40694 2.62559 5.69572 3.97347C5.53469 4.10009 5.37764 4.23139 5.22457 4.36738C3.19345 6.17163 1.88802 8.77469 1.80052 11.6839C1.7974 11.7875 1.79572 11.8915 1.79572 11.9959C1.79572 12.0922 1.79708 12.1882 1.79982 12.2839C1.88075 15.2028 3.18786 17.8152 5.22462 19.6243C5.37763 19.7603 5.53468 19.8916 5.69576 20.0183C7.40697 21.3661 9.50632 22.1279 11.6837 22.1911C11.7873 22.1942 11.8913 22.1959 11.9957 22.1959C12.0921 22.1959 12.1881 22.1945 12.2837 22.1918C14.4695 22.1335 16.578 21.3712 18.2957 20.0183C18.4567 19.8916 18.6138 19.7603 18.7669 19.6243C20.8036 17.8152 22.1107 15.2028 22.1916 12.2839C22.1943 12.1882 22.1957 12.0922 22.1957 11.9959C22.1957 11.8915 22.1941 11.7875 22.1909 11.6839ZM20.7429 11.6839H15.2477C15.1826 11.6838 15.1205 11.6568 15.0759 11.6094C15.0313 11.5619 15.0083 11.4982 15.0122 11.4332C15.1439 9.14016 16.0963 6.971 17.6953 5.32212C17.7832 5.2313 17.9272 5.22627 18.0213 5.31072C19.7713 6.88466 20.8331 9.08291 20.9782 11.4321C20.9825 11.4972 20.9596 11.5612 20.915 11.6089C20.8704 11.6566 20.8081 11.6838 20.7429 11.6839ZM17.1941 4.97775C15.5219 6.73655 14.5342 9.03569 14.4098 11.4594C14.4036 11.585 14.3001 11.6837 14.1743 11.6839H12.5196C12.3893 11.6839 12.2837 11.5783 12.2837 11.448V3.24742C12.2838 3.18227 12.3108 3.12005 12.3584 3.07548C12.4059 3.0309 12.4697 3.00792 12.5347 3.01195C14.1952 3.1088 15.7958 3.66635 17.1571 4.62209C17.2134 4.66138 17.2498 4.72319 17.2569 4.79146C17.264 4.85973 17.2411 4.92771 17.1941 4.97775ZM11.6837 3.24886V11.448C11.6837 11.5783 11.5781 11.6839 11.4478 11.6839H9.81714C9.69137 11.6837 9.58783 11.585 9.58165 11.4594C9.45723 9.03571 8.46964 6.73657 6.79746 4.97775C6.75045 4.92774 6.72749 4.85978 6.73455 4.79151C6.74161 4.72324 6.778 4.66141 6.83425 4.62209C8.1887 3.67115 9.78026 3.1143 11.4321 3.01342C11.4972 3.0092 11.5612 3.03211 11.6089 3.0767C11.6565 3.12129 11.6836 3.1836 11.6837 3.24886ZM6.29627 5.32212C7.89526 6.971 8.84761 9.14016 8.9793 11.4332C8.98325 11.4982 8.96021 11.562 8.91561 11.6094C8.87102 11.6569 8.80883 11.6838 8.74372 11.6839H3.24865C3.18336 11.6838 3.12103 11.6566 3.07645 11.6089C3.03186 11.5612 3.00898 11.4972 3.01324 11.4321C3.15831 9.08289 4.22019 6.88463 5.9702 5.3107C6.0643 5.22625 6.20832 5.2313 6.29627 5.32212ZM3.24721 12.2839H8.7452C8.8102 12.284 8.87227 12.3109 8.91683 12.3582C8.96139 12.4055 8.9845 12.4691 8.98072 12.534C8.85443 14.8359 7.90117 17.0147 6.29629 18.6697C6.20833 18.7605 6.06429 18.7655 5.9702 18.6811C4.21383 17.1015 3.15088 14.8932 3.0118 12.5351C3.00771 12.4701 3.03066 12.4062 3.07523 12.3586C3.1198 12.3111 3.18203 12.284 3.24721 12.2839ZM6.79799 19.0135C8.47546 17.2489 9.4637 14.9407 9.5829 12.5089C9.5888 12.3831 9.69244 12.2841 9.81841 12.2839H11.4478C11.5781 12.2839 11.6837 12.3895 11.6837 12.5198V20.7429C11.6836 20.8082 11.6565 20.8705 11.6089 20.9151C11.5612 20.9597 11.4972 20.9826 11.4321 20.9784C9.77948 20.8774 8.18722 20.3201 6.83238 19.3684C6.77639 19.3289 6.74039 19.267 6.73378 19.1988C6.72718 19.1306 6.75062 19.063 6.79799 19.0135ZM12.2837 20.7444V12.5198C12.2837 12.3895 12.3893 12.2839 12.5196 12.2839H14.173C14.299 12.2841 14.4026 12.3831 14.4085 12.5089C14.5277 14.9407 15.516 17.2489 17.1934 19.0135C17.2408 19.063 17.2643 19.1307 17.2577 19.1989C17.2511 19.2671 17.215 19.329 17.159 19.3684C15.7973 20.325 14.196 20.883 12.5347 20.9799C12.4697 20.9839 12.4059 20.9609 12.3583 20.9163C12.3108 20.8718 12.2838 20.8095 12.2837 20.7444ZM17.6951 18.6696C16.0903 17.0147 15.137 14.8358 15.0107 12.534C15.0069 12.4691 15.03 12.4055 15.0746 12.3582C15.1192 12.3109 15.1812 12.284 15.2462 12.2839H20.7442C20.8094 12.284 20.8716 12.3111 20.9162 12.3586C20.9608 12.4062 20.9837 12.4701 20.9796 12.5351C20.8405 14.8932 19.7776 17.1014 18.0213 18.6811C17.9272 18.7656 17.7831 18.7605 17.6951 18.6696Z" fill="currentColor"/>
</svg>
