<svg width="24" height="24" viewBox="0 0 24 24" fill="currentColor" xmlns="http://www.w3.org/2000/svg">
<path fill-rule="evenodd" clip-rule="evenodd" d="M8.40144 16.2H3.00031C2.68202 16.2 2.37674 16.0736 2.15165 15.8486C1.92656 15.6235 1.80005 15.3183 1.80005 15V9C1.80005 8.6817 1.92656 8.37646 2.15165 8.15141C2.37674 7.92637 2.68202 7.79996 3.00031 7.8H8.40144L13.8026 3V21L8.40144 16.2ZM22.368 9.76368L20.8404 8.23632L18.6036 10.4726L16.3668 8.23632L14.8391 9.76368L17.0759 12L14.8391 14.2363L16.3668 15.7637L18.6036 13.5274L20.8404 15.7637L22.368 14.2363L20.1313 12L22.368 9.76368Z" fill="currentColor"/>
</svg>
