<svg width="24" height="24" viewBox="0 0 24 24" fill="currentColor" xmlns="http://www.w3.org/2000/svg">
<path fill-rule="evenodd" clip-rule="evenodd" d="M21.0524 12.9919C21.1506 12.5344 21.2001 12.0679 21.2 11.6C21.2 7.95493 18.2451 5 14.6 5C12.601 4.99821 10.7093 5.90429 9.45778 7.46305C8.70344 7.29717 7.91417 7.46207 7.28934 7.9161C6.66451 8.37013 6.26388 9.06988 6.18865 9.83857C3.8264 10.1389 2 12.1562 2 14.6C2 17.251 4.14903 19.4 6.8 19.4H18.8C20.328 19.4 21.6894 18.4353 22.1961 16.9938C22.7028 15.5523 22.2443 13.948 21.0524 12.9919ZM14.6 15.8C13.3378 15.8012 12.1423 15.2334 11.3456 14.2544L10.4 15.2V12.8C10.4 12.4686 10.6686 12.2 11 12.2H13.4L12.6298 12.9702C13.0988 13.6447 13.8803 14.0324 14.7011 13.9979C15.5219 13.9634 16.2681 13.5115 16.6789 12.8H18.6257C18.0945 14.58 16.4575 15.7999 14.6 15.8ZM18.8 10.4C18.8 10.7314 18.5314 11 18.2 11H15.8L16.5702 10.2298C16.1012 9.55532 15.3197 9.16762 14.4989 9.20213C13.6781 9.23664 12.932 9.68856 12.5212 10.4H10.5743C11.0189 8.90921 12.2511 7.78624 13.7766 7.48148C15.3022 7.17671 16.8712 7.74007 17.8545 8.94561L18.8 8.00001V10.4Z" fill="currentColor"/>
</svg>
