<svg width="24" height="24" viewBox="0 0 24 24" fill="currentColor" xmlns="http://www.w3.org/2000/svg">
<path fill-rule="evenodd" clip-rule="evenodd" d="M17.0639 22.2H6.86394C6.2012 22.2 5.66394 21.6627 5.66394 21V3C5.66394 2.33726 6.2012 1.8 6.86394 1.8H14.0639L18.2639 6V21C18.2639 21.6627 17.7267 22.2 17.0639 22.2ZM6.86394 11.4V13.8H9.86394V10.8H7.46394C7.13257 10.8 6.86394 11.0686 6.86394 11.4ZM13.4639 10.8H10.4639V14.4H6.86394V17.4H13.4639V10.8ZM17.0639 11.4C17.0639 11.0686 16.7953 10.8 16.4639 10.8H14.0639V13.8H17.0639V11.4ZM17.0639 14.4H14.0639V17.4H17.0639V14.4ZM17.0639 18H14.0639V21H13.4639V18H10.4639V21H9.86394V18H6.86394V20.4C6.86394 20.7314 7.13257 21 7.46394 21H16.4639C16.7953 21 17.0639 20.7314 17.0639 20.4V18ZM13.9526 6.74844C14.1993 6.74844 14.3755 6.69015 14.4812 6.57355C14.5868 6.45696 14.6396 6.27136 14.6396 6.01676C14.642 5.54924 14.5227 5.08913 14.2934 4.68171C14.0683 4.27461 13.7383 3.93529 13.3376 3.69905C12.9329 3.45749 12.4696 3.33189 11.9983 3.336C11.5059 3.33177 11.0222 3.46532 10.6018 3.72154C10.1826 3.97428 9.83802 4.33383 9.60337 4.76343C9.36156 5.19911 9.23637 5.68986 9.23994 6.18814C9.23994 6.95655 9.43963 7.58356 9.839 8.06916C10.111 8.40026 10.4571 8.6626 10.8494 8.83491C11.2457 9.00954 11.6744 9.09868 12.1075 9.09655C12.7838 9.09655 13.3838 8.9472 13.9075 8.64859C14.337 8.40333 14.5518 8.13053 14.5518 7.8302C14.5508 7.71663 14.5176 7.60568 14.456 7.51027C14.3925 7.40752 14.3034 7.32296 14.1976 7.2648C14.0964 7.20626 13.9817 7.17502 13.8648 7.17413C13.737 7.18656 13.6349 7.21228 13.5586 7.25129L13.1006 7.48013C12.8202 7.62301 12.51 7.69775 12.1953 7.69829C11.923 7.70044 11.6577 7.61147 11.4417 7.44552C11.234 7.30186 11.0743 7.0695 10.9624 6.74844H13.9526ZM10.9093 5.65452C11.1294 4.98396 11.4853 4.64867 11.977 4.64866C12.5344 4.64866 12.8982 4.98395 13.0686 5.65452H10.9093Z" fill="currentColor"/>
</svg>
