<svg width="24" height="24" viewBox="0 0 24 24" fill="currentColor" xmlns="http://www.w3.org/2000/svg">
<path d="M14.3245 13.8082C14.2549 13.7862 14.185 13.7744 14.1214 13.7744C13.8795 13.7744 13.687 13.9122 13.58 14.1622L13.579 14.1644C13.3544 14.7282 13.027 14.9516 12.2814 14.9516C11.4178 14.9516 10.8231 14.6036 10.5896 13.6333H12.7395C13.0342 13.6333 13.2243 13.3947 13.2243 13.1041C13.2243 12.8 13.0477 12.5749 12.7395 12.5749H10.4689C10.4674 12.4866 10.4674 12.333 10.4674 12.2787C10.4674 12.1892 10.4706 12.1338 10.4749 12.0457H13.2061C13.5054 12.0457 13.6911 11.8081 13.6911 11.5074C13.6911 11.2136 13.5097 10.9873 13.2061 10.9873H10.6242C10.8838 10.017 11.4661 9.5456 12.2811 9.5456C12.9858 9.5456 13.3278 9.77432 13.5879 10.4038C13.682 10.6321 13.8699 10.7658 14.1034 10.7658C14.1915 10.7658 14.2825 10.7434 14.3516 10.7228L14.361 10.7206L14.3698 10.7173C14.6113 10.6162 14.7498 10.4252 14.7498 10.1929C14.7498 10.1283 14.7435 10.0304 14.6895 9.91736C14.2813 8.90912 13.4934 8.41904 12.2809 8.41904C11.5405 8.41904 10.8877 8.65976 10.3933 9.1364C9.93224 9.5804 9.60872 10.2814 9.45248 10.9873H9.01352C8.71448 10.9873 8.52872 11.2215 8.52872 11.5165C8.52872 11.8119 8.71448 12.0457 9.01352 12.0457H9.34424C9.33992 12.134 9.33704 12.1954 9.33704 12.2787C9.33704 12.3356 9.33704 12.4868 9.33824 12.5749H9.01376C8.71016 12.5749 8.52896 12.8043 8.52896 13.1041C8.52896 13.3993 8.71472 13.6333 9.01376 13.6333H9.422C9.55928 14.3391 9.86216 14.9034 10.3232 15.355C10.8205 15.8422 11.479 16.0722 12.2811 16.0722C13.5361 16.0722 14.2899 15.6058 14.7246 14.5794C14.7608 14.5052 14.7769 14.4303 14.7769 14.3468C14.7769 14.108 14.587 13.88 14.3245 13.8082Z" fill="currentColor"/>
<path d="M12.2 2C8.92448 2 6.00992 3.54392 4.14368 5.94368L2 3.8V8.46656H2.00744C2.0024 8.51072 2 8.55536 2 8.6C1.99952 9.26216 2.53568 9.79952 3.19784 9.8C3.2432 9.8 3.28832 9.7976 3.33344 9.79256V9.80024H8L5.858 7.65824C6.6968 6.48968 7.84064 5.57432 9.16472 5.01224C13.137 3.3296 17.7212 5.186 19.4038 9.15824C21.0865 13.1305 19.2301 17.7147 15.2578 19.3974C11.2856 21.08 6.70136 19.2236 5.01872 15.2514C4.61 14.2861 4.39952 13.2486 4.4 12.2002V11.6002C4.4 11.2688 4.13144 11.0002 3.8 11.0002H2.6C2.26856 11.0002 2 11.2688 2 11.6002V12.2002C2 17.8335 6.56672 22.4002 12.2 22.4002C17.8333 22.4002 22.4 17.8335 22.4 12.2002C22.4 6.56696 17.8333 2 12.2 2Z" fill="currentColor"/>
</svg>
