<svg width="24" height="24" viewBox="0 0 24 24" fill="currentColor" xmlns="http://www.w3.org/2000/svg">
<path fill-rule="evenodd" clip-rule="evenodd" d="M17.124 8.99969H16.0868C16.0869 8.99179 16.0874 8.98397 16.0874 8.97602C16.0855 8.36391 15.5885 7.86884 14.9763 7.86936V6.83647C16.1627 6.83647 17.1243 7.79438 17.1243 8.97602C17.1244 8.98394 17.1241 8.99179 17.124 8.99969ZM19.0498 8.99969H18.0129C18.0129 8.99179 18.0132 8.98392 18.0132 8.97602C18.0099 7.30212 16.6502 5.94783 14.9763 5.95114V4.91822C17.2263 4.91822 19.0502 6.73502 19.0502 8.97602C19.0502 8.98394 19.0499 8.99179 19.0498 8.99969ZM20.9758 8.99969H19.9387C19.9387 8.99179 19.939 8.98392 19.939 8.97602C19.9406 7.66358 19.4173 6.40502 18.4855 5.48071C17.5544 4.55129 16.2919 4.03039 14.9763 4.03289V3C18.2899 3 20.976 5.67554 20.976 8.976C20.976 8.98392 20.9759 8.99179 20.9758 8.99969ZM20.0001 18.596H19.0001C19.0001 19.9755 17.8808 21 16.5 21C15.1192 21 14 19.9755 14 18.596H9.50004C9.50002 19.9755 8.3808 21 7 21C5.61922 21 4.5 19.9755 4.5 18.596H4C3.44779 18.5959 3 18.1483 3 17.596V14.0059C2.99971 13.7923 3.06823 13.5843 3.19541 13.4127L3.19728 13.4102L3.20035 13.4061L6.19723 9.40351C6.38583 9.14949 6.68363 8.99984 7 9.00011H13.5C13.7706 8.99897 14.0302 9.10704 14.22 9.29986L17.76 13.0601L20.2032 13.5268C20.667 13.623 21 14.0317 21 14.5055V17.596C21 18.1482 20.5523 18.5958 20.0001 18.596Z" fill="currentColor"/>
</svg>
