<svg width="24" height="24" viewBox="0 0 24 24" fill="currentColor" xmlns="http://www.w3.org/2000/svg">
<path fill-rule="evenodd" clip-rule="evenodd" d="M20.8474 11.4401C20.9456 10.9827 20.995 10.5161 20.9949 10.0483C20.9949 6.40357 18.0401 3.44895 14.3952 3.44895C12.3983 3.44713 10.5084 4.35131 9.2568 5.90729C8.50529 5.7482 7.72159 5.91652 7.10167 6.37014C6.48175 6.82376 6.08421 7.51981 6.00847 8.28423C3.63461 8.57377 1.79578 10.596 1.79578 13.0479C1.79578 15.6986 3.94471 17.8474 6.59556 17.8474H6.62218C6.63734 18.076 6.7089 18.2973 6.83045 18.4916L7.11571 18.9495C7.36922 19.3594 7.81743 19.6083 8.29939 19.6066C8.34182 19.6066 8.38408 19.6047 8.42616 19.6009C8.62236 20.16 9.14997 20.5344 9.74251 20.5352H10.3386C10.9312 20.5345 11.4588 20.16 11.655 19.6009C11.697 19.6047 11.7393 19.6066 11.7817 19.6067C12.2637 19.6083 12.7119 19.3595 12.9654 18.9495L13.2493 18.4938C13.3713 18.299 13.443 18.0769 13.4579 17.8474H18.595C20.1229 17.8476 21.4844 16.8832 21.9911 15.4417C22.4979 14.0003 22.0393 12.396 20.8474 11.4401ZM12.2308 17.8594L11.9469 18.3151C11.8909 18.4051 11.7732 18.4336 11.6823 18.3793L10.827 17.8687C10.8113 17.8594 10.7945 17.8523 10.7769 17.8475C10.7609 17.8432 10.7443 17.841 10.7277 17.841C10.6204 17.8417 10.5337 17.9284 10.5329 18.0356V19.141C10.5329 19.1926 10.5124 19.242 10.476 19.2785C10.4395 19.3149 10.3901 19.3354 10.3385 19.3354H9.74251C9.63515 19.3354 9.54811 19.2484 9.54811 19.141V18.0354C9.54734 17.9282 9.4606 17.8415 9.35338 17.8407C9.33653 17.8408 9.31976 17.843 9.3035 17.8474C9.28615 17.8522 9.26952 17.8593 9.25409 17.8685L8.39885 18.3793C8.30789 18.4336 8.1902 18.4051 8.13418 18.3151L7.84894 17.8572C7.84694 17.854 7.84529 17.8507 7.84351 17.8475C7.7943 17.7575 7.82352 17.6448 7.91023 17.59L8.84712 16.9993C8.90355 16.9637 8.93777 16.9017 8.93777 16.8349C8.93777 16.7682 8.90355 16.7061 8.84712 16.6705L7.91021 16.0797C7.81978 16.0226 7.7924 15.9033 7.84891 15.8125L8.13418 15.3545C8.19019 15.2646 8.30789 15.2361 8.39885 15.2904L9.25409 15.8011C9.28404 15.8192 9.31837 15.8288 9.35338 15.8289C9.40502 15.8289 9.45456 15.8084 9.49109 15.7719C9.52761 15.7354 9.54813 15.6859 9.54811 15.6342V14.5287C9.54811 14.4214 9.63515 14.3343 9.74251 14.3343H10.3386C10.3902 14.3343 10.4396 14.3548 10.4761 14.3913C10.5125 14.4277 10.533 14.4772 10.533 14.5287V15.6341C10.5328 15.7041 10.5703 15.7689 10.6313 15.8035C10.6922 15.8381 10.767 15.8371 10.8271 15.801L11.6823 15.2904C11.7733 15.2361 11.8909 15.2646 11.947 15.3545L12.2308 15.8102C12.2582 15.8542 12.2669 15.9073 12.255 15.9577C12.243 16.0081 12.2115 16.0517 12.1673 16.0788L11.2023 16.6692C11.1446 16.7045 11.1094 16.7673 11.1094 16.835C11.1094 16.9026 11.1446 16.9654 11.2023 17.0008L12.1673 17.591C12.2547 17.6445 12.2855 17.7569 12.2375 17.8475C12.2353 17.8515 12.2334 17.8555 12.2308 17.8594ZM16.9612 13.6411L17.9262 14.2312C17.9704 14.2583 18.0019 14.3019 18.0139 14.3523C18.0258 14.4027 18.0171 14.4558 17.9897 14.4998L17.7059 14.9555C17.6499 15.0454 17.5322 15.0739 17.4412 15.0196L16.586 14.509C16.5259 14.4731 16.4511 14.4722 16.3903 14.5068C16.3294 14.5413 16.2918 14.6059 16.2918 14.6759V15.7813C16.2918 15.8886 16.2047 15.9757 16.0974 15.9757H15.5013C15.3939 15.9757 15.3069 15.8886 15.3069 15.7813V14.6758C15.3069 14.6058 15.2693 14.5413 15.2085 14.5067C15.1476 14.4722 15.0729 14.473 15.0129 14.5089L14.1576 15.0196C14.0667 15.0739 13.949 15.0454 13.893 14.9555L13.6077 14.4975C13.5512 14.4068 13.5786 14.2874 13.6691 14.2303L14.6059 13.6396C14.6623 13.604 14.6966 13.5419 14.6966 13.4752C14.6966 13.4085 14.6623 13.3464 14.6059 13.3108L13.669 12.72C13.5786 12.6629 13.5512 12.5435 13.6077 12.4528L13.893 11.9948C13.949 11.9049 14.0667 11.8764 14.1576 11.9307L15.0129 12.4414C15.0729 12.4773 15.1476 12.4781 15.2085 12.4436C15.2693 12.409 15.3069 12.3445 15.3069 12.2745V11.1691C15.3069 11.1175 15.3274 11.0681 15.3639 11.0316C15.4003 10.9952 15.4498 10.9747 15.5013 10.9747H16.0974C16.1489 10.9747 16.1984 10.9952 16.2348 11.0316C16.2713 11.0681 16.2918 11.1175 16.2918 11.1691V12.2744C16.2918 12.3443 16.3294 12.4088 16.3902 12.4434C16.4511 12.4779 16.5257 12.4771 16.5858 12.4412L17.4411 11.9306C17.532 11.8763 17.6497 11.9048 17.7057 11.9948L17.9896 12.4505C18.017 12.4945 18.0257 12.5476 18.0137 12.598C18.0018 12.6484 17.9702 12.692 17.926 12.719L16.961 13.3094C16.9033 13.3448 16.8681 13.4076 16.8681 13.4753C16.8681 13.5429 16.9035 13.6057 16.9612 13.6411Z" fill="currentColor"/>
</svg>
