<svg width="24" height="24" viewBox="0 0 24 24" fill="currentColor" xmlns="http://www.w3.org/2000/svg">
<path fill-rule="evenodd" clip-rule="evenodd" d="M18 22.2H6.00001C5.0059 22.2 4.20001 21.3941 4.20001 20.4V3.59999C4.20001 2.60588 5.0059 1.79999 6.00001 1.79999H18C18.9941 1.79999 19.8 2.60588 19.8 3.59999V20.4C19.8 21.3941 18.9941 22.2 18 22.2ZM12 7.79999C9.01768 7.79999 6.60001 10.2177 6.60001 13.2C6.60001 16.1823 9.01768 18.6 12 18.6C14.9823 18.6 17.4 16.1823 17.4 13.2C17.4 10.2177 14.9823 7.79999 12 7.79999ZM12 18C9.34904 18 7.20001 15.851 7.20001 13.2C7.20001 10.549 9.34904 8.39999 12 8.39999C14.651 8.39999 16.8 10.549 16.8 13.2C16.8 15.851 14.651 18 12 18ZM12 8.99999C10.7897 9.00056 9.63839 9.52299 8.84097 10.4335C8.04354 11.344 7.67744 12.5541 7.83642 13.7539C7.9684 13.5987 8.46829 13.104 9.48001 13.104C10.68 13.104 10.8 13.872 12 13.872C13.2 13.872 13.392 13.104 14.592 13.104C15.5931 13.104 16.0427 13.5881 16.1643 13.7487C16.3216 12.5496 15.9546 11.3409 15.1572 10.4316C14.3598 9.52235 13.2094 9.00068 12 8.99999ZM15.3 2.99999C15.7971 2.99999 16.2 3.40293 16.2 3.89999C16.2 4.39704 15.7971 4.79999 15.3 4.79999C14.803 4.79999 14.4 4.39704 14.4 3.89999C14.4 3.40293 14.803 2.99999 15.3 2.99999ZM6.00001 2.99999H9.00001C9.33138 2.99999 9.60001 3.26862 9.60001 3.59999V4.19999C9.60001 4.53136 9.33138 4.79999 9.00001 4.79999H6.00001C5.66864 4.79999 5.40001 4.53136 5.40001 4.19999V3.59999C5.40001 3.26862 5.66864 2.99999 6.00001 2.99999ZM17.7 2.99999C18.1971 2.99999 18.6 3.40293 18.6 3.89999C18.6 4.39704 18.1971 4.79999 17.7 4.79999C17.203 4.79999 16.8 4.39704 16.8 3.89999C16.8 3.40293 17.203 2.99999 17.7 2.99999Z" fill="currentColor"/>
</svg>
