<svg width="24" height="24" viewBox="0 0 24 24" fill="currentColor" xmlns="http://www.w3.org/2000/svg">
<path fill-rule="evenodd" clip-rule="evenodd" d="M21.8952 11.2757L12.714 2.09429C12.5235 1.90315 12.2647 1.79572 11.9948 1.79572C11.7249 1.79572 11.4661 1.90315 11.2755 2.09429L2.09429 11.2757C1.90315 11.4663 1.79572 11.7251 1.79572 11.995C1.79572 12.2649 1.90315 12.5237 2.09429 12.7143L11.2755 21.8952C11.4661 22.0864 11.7249 22.1938 11.9948 22.1938C12.2647 22.1938 12.5235 22.0864 12.714 21.8952L21.8952 12.714C22.2934 12.3264 22.2934 11.6837 21.8952 11.2757ZM14.03 14.5503V11.9998H9.94997V15.0603H7.90997V10.9803C7.91155 10.4176 8.36729 9.96187 8.92997 9.96029H14.03V7.40909L17.6004 10.9796L14.03 14.5503Z" fill="currentColor"/>
</svg>
