<svg width="24" height="24" viewBox="0 0 24 24" fill="currentColor" xmlns="http://www.w3.org/2000/svg">
<path fill-rule="evenodd" clip-rule="evenodd" d="M16.7994 1.80055L7.19878 1.79911C6.88185 1.79675 6.57708 1.92091 6.35203 2.14407C6.12699 2.36723 6.00028 2.67095 6 2.98788V20.9879C6 21.6506 6.53671 22.1993 7.19878 22.1993L16.8012 22.2006C17.4639 22.1996 18.0005 21.6618 18 20.9991V2.98788C18 2.32515 17.4614 1.80055 16.7994 1.80055ZM11.1 2.39955H12.9C13.0657 2.39955 13.2 2.53386 13.2 2.69955C13.2 2.86523 13.0657 2.99955 12.9 2.99955H11.1C10.9343 2.99955 10.8 2.86523 10.8 2.69955C10.8 2.53386 10.9343 2.39955 11.1 2.39955ZM12 21.5879C11.6686 21.5879 11.4 21.3193 11.4 20.9879C11.4 20.6565 11.6686 20.3879 12 20.3879C12.3314 20.3879 12.6 20.6565 12.6 20.9879C12.6 21.3193 12.3314 21.5879 12 21.5879ZM16.8014 19.8002H7.2L7.197 3.59839L16.8 3.59914L16.8014 19.8002ZM10.1511 8.97588C9.66516 8.97656 9.27169 9.37095 9.27214 9.85692C9.27259 10.3429 9.66679 10.7366 10.1528 10.7363C10.6387 10.7361 11.0326 10.3421 11.0326 9.85611C11.0324 9.62249 10.9395 9.39851 10.7742 9.23343C10.6089 9.06835 10.3848 8.97571 10.1511 8.97588ZM13.8728 8.97588C13.3868 8.97657 12.9934 9.37097 12.9938 9.85694C12.9943 10.3429 13.3885 10.7366 13.8745 10.7363C14.3604 10.7361 14.7543 10.3421 14.7543 9.85611C14.7541 9.62249 14.6612 9.3985 14.4958 9.23342C14.3305 9.06834 14.1064 8.9757 13.8728 8.97588ZM13.8258 12.8672C13.3714 13.4316 12.7456 13.7377 12.012 13.7514C11.2784 13.7377 10.6526 13.4316 10.1982 12.8672C10.0884 12.7342 9.88776 12.4907 9.61262 12.4808C9.18353 12.4653 8.976 12.7656 8.976 13.1167C8.976 13.2741 9.01522 13.4306 9.11117 13.5411C9.81526 14.4898 10.8192 15.0042 12.0013 15.0239L12.012 15.0229L12.0227 15.0239C13.2049 15.0043 14.2087 14.4899 14.9129 13.5412C15.0089 13.4308 15.0481 13.2742 15.0481 13.1168C15.0481 12.7657 14.8405 12.4654 14.4115 12.4811C14.1362 12.4908 13.9356 12.7342 13.8258 12.8672Z" fill="currentColor"/>
</svg>
