<svg width="24" height="24" viewBox="0 0 24 24" fill="currentColor" xmlns="http://www.w3.org/2000/svg">
<path fill-rule="evenodd" clip-rule="evenodd" d="M8.112 21V16.7241C7.05314 16.4491 6.31339 15.494 6.312 14.4V11.7C6.31151 11.0412 6.45593 10.3904 6.73502 9.7936C5.77446 9.75243 4.86097 9.3662 4.16222 8.7058C2.90685 9.32339 2.11175 10.6009 2.112 12V14.8588C2.112 15.7944 2.88036 16.56 3.816 16.56V21C3.81376 21.3172 3.93811 21.6222 4.1615 21.8475C4.38489 22.0727 4.68888 22.1996 5.00611 22.2H8.57179C8.27549 21.8706 8.1117 21.4431 8.112 21ZM19.8618 8.7058C19.1631 9.3662 18.2496 9.75243 17.289 9.7936C17.5681 10.3904 17.7125 11.0412 17.712 11.7V14.4C17.7106 15.494 16.9709 16.4491 15.912 16.7241V21C15.9123 21.4431 15.7485 21.8706 15.4522 22.2H19.0179C19.3351 22.1996 19.6391 22.0727 19.8625 21.8475C20.0859 21.6222 20.2102 21.3172 20.208 21V16.56C21.1436 16.56 21.912 15.7944 21.912 14.8588V12C21.9123 10.6009 21.1172 9.3234 19.8618 8.7058ZM17.112 2.99998C16.558 2.99914 16.0148 3.15242 15.543 3.44269C15.5646 3.4886 15.5854 3.53485 15.6054 3.58175C16.1703 4.91741 15.9469 6.45632 15.0255 7.57619L15.199 7.66172C15.828 7.972 16.3759 8.42467 16.7993 8.98379C17.9021 9.09887 18.9785 8.59621 19.5983 7.67671C20.218 6.75721 20.28 5.57083 19.7595 4.59173C19.239 3.61264 18.2209 3.0005 17.112 2.99998ZM15.312 5.09999C15.312 6.92253 13.8345 8.39999 12.012 8.39999C10.1895 8.39999 8.712 6.92253 8.712 5.09999C8.712 3.27745 10.1895 1.79999 12.012 1.79999C13.8345 1.79999 15.312 3.27745 15.312 5.09999ZM14.9337 8.19992C13.293 9.74667 10.731 9.74667 9.09031 8.19992C7.75652 8.85614 6.91175 10.2135 6.912 11.7V14.4C6.912 15.3941 7.71789 16.2 8.712 16.2V21C8.712 21.6627 9.24926 22.2 9.912 22.2H14.112C14.7747 22.2 15.312 21.6627 15.312 21V16.2C16.3061 16.2 17.112 15.3941 17.112 14.4V11.7C17.1123 10.2135 16.2675 8.85614 14.9337 8.19992ZM12.012 15.6L11.112 14.4209L11.664 10.2H12.384L12.912 14.4209L12.012 15.6ZM7.22484 8.98379C7.6482 8.42467 8.19612 7.972 8.82506 7.66172L8.99861 7.57619C8.07878 6.4556 7.85551 4.91764 8.41872 3.58175C8.43857 3.53485 8.45952 3.4886 8.48112 3.44269C7.39779 2.77823 6.01334 2.86847 5.02542 3.66792C4.0375 4.46738 3.66051 5.80257 4.08441 7.00065C4.50832 8.19874 5.64113 8.99973 6.912 8.99999C7.01649 8.99999 7.12091 8.99458 7.22484 8.98379Z" fill="currentColor"/>
</svg>
