<svg width="24" height="24" viewBox="0 0 24 24" fill="currentColor" xmlns="http://www.w3.org/2000/svg">
<path fill-rule="evenodd" clip-rule="evenodd" d="M11.0195 18.307C11.0195 18.307 11.6598 18.6506 12.7871 18.6322C13.4074 18.6203 14.0142 18.4482 14.5485 18.1327C15.1664 17.7697 15.7535 17.3567 16.3039 16.8977C19.4016 14.3163 20.712 9.97066 20.712 1.78409C20.712 1.536 19.3626 4.74425 16.8832 6.06629C14.3536 7.41509 10.6363 6.19224 6.79464 8.76958L6.79207 8.77131C6.62693 8.88315 6.52306 9.06531 6.51089 9.26439C6.48797 9.64435 6.49821 10.0256 6.54151 10.4038C6.28903 10.1468 6.08664 9.82779 5.92471 9.49107C4.12685 11.2862 3.024 14.4564 4.236 16.8857C5.77468 14.8826 7.44432 14.1892 11.2156 12.7667C16.1057 10.9222 18.2382 7.5072 18.7639 6.53331C18.852 6.36379 18.8983 6.26782 18.8983 6.26782C18.8983 6.26782 18.8555 6.36341 18.7639 6.53331C18.2445 7.53199 16.2707 11.136 13.7346 12.7139C11.4675 14.1245 9.09976 14.3788 7.05943 16.2428C6.2184 17.0112 5.12354 18.2112 5.12354 18.2112C5.12354 18.2112 4.10256 19.4917 3.62208 20.1471C3.62176 20.1475 3.62138 20.1479 3.62104 20.1484C3.41964 20.4 3.27931 20.6714 3.28104 21.0046C3.28312 21.5347 3.62296 22.0045 4.12582 22.1724C4.62868 22.3402 5.18258 22.1688 5.50267 21.7462C5.51714 21.7268 5.52999 21.7063 5.54107 21.6848C5.58393 21.603 5.62793 21.5212 5.67307 21.4396C6.08519 20.6975 6.56653 19.9959 7.11067 19.3443C8.59056 19.8556 10.3567 19.7854 12.1219 19.2233C11.6139 18.9548 11.2176 18.65 11.0195 18.307Z" fill="currentColor"/>
</svg>
