<svg width="24" height="24" viewBox="0 0 24 24" fill="currentColor" xmlns="http://www.w3.org/2000/svg">
<path fill-rule="evenodd" clip-rule="evenodd" d="M16.8012 1.80005H7.1988C6.5364 1.80039 5.99968 2.33764 6 3.00005V21C5.99968 21.6625 6.5364 22.1997 7.1988 22.2001H16.8012C17.4636 22.1997 18.0003 21.6625 18 21V3.00005C18.0003 2.33764 17.4636 1.80039 16.8012 1.80005ZM11.1 2.40005H12.9C13.0657 2.40005 13.2 2.53436 13.2 2.70005C13.2 2.86573 13.0657 3.00005 12.9 3.00005H11.1C10.9343 3.00005 10.8 2.86573 10.8 2.70005C10.8 2.53436 10.9343 2.40005 11.1 2.40005ZM12 21.6C11.6686 21.6 11.4 21.3314 11.4 21C11.4 20.6687 11.6686 20.4 12 20.4C12.3314 20.4 12.6 20.6687 12.6 21C12.6 21.3314 12.3314 21.6 12 21.6ZM16.8 19.8H13.2329C12.9426 19.8 12.6845 19.6153 12.591 19.3406C12.4975 19.0658 12.5893 18.7619 12.8194 18.5849C13.3388 18.2256 13.5632 17.5693 13.3732 16.967C13.1833 16.3647 12.623 15.9565 11.9914 15.9602C11.3599 15.9639 10.8044 16.3788 10.6216 16.9833C10.4388 17.5878 10.6712 18.2409 11.1948 18.594C11.4188 18.7743 11.5048 19.0763 11.4092 19.3475C11.3136 19.6187 11.0573 19.8 10.7698 19.8H7.2V12.9209C7.2 12.6307 7.3847 12.3726 7.65949 12.2791C7.93428 12.1856 8.23811 12.2774 8.41512 12.5074C8.77441 13.0268 9.43071 13.2513 10.033 13.0613C10.6354 12.8713 11.0436 12.311 11.0399 11.6795C11.0361 11.0479 10.6213 10.4925 10.0168 10.3096C9.41224 10.1268 8.75912 10.3592 8.406 10.8828C8.22575 11.1069 7.92374 11.1928 7.65254 11.0972C7.38133 11.0017 7.2 10.7454 7.2 10.4578V3.60005H10.7671C11.0574 3.60005 11.3155 3.78475 11.409 4.05954C11.5025 4.33433 11.4107 4.63816 11.1806 4.81517C10.6612 5.17446 10.4368 5.83076 10.6268 6.43308C10.8167 7.0354 11.377 7.44364 12.0086 7.43991C12.6401 7.43618 13.1956 7.02134 13.3784 6.41682C13.5612 5.81229 13.3288 5.15917 12.8052 4.80605C12.5812 4.62579 12.4952 4.32379 12.5908 4.05259C12.6864 3.78138 12.9427 3.60005 13.2302 3.60005H16.8V19.8Z" fill="currentColor"/>
</svg>
