<svg width="24" height="24" viewBox="0 0 24 24" fill="currentColor" xmlns="http://www.w3.org/2000/svg">
<path fill-rule="evenodd" clip-rule="evenodd" d="M11.9884 10.0312C14.2612 10.0312 16.1041 8.18752 16.1041 5.91349C16.1041 3.63947 14.2613 1.79572 11.9884 1.79572C9.71557 1.79572 7.87268 3.6392 7.87268 5.91349C7.87268 8.18778 9.71557 10.0312 11.9884 10.0312ZM15.5942 9.74315C13.5695 11.6522 10.4078 11.6523 8.38295 9.74348C6.76495 10.6259 5.74239 12.3062 5.70212 14.1488H5.70068V18.9528C5.70042 19.7931 6.16091 20.566 6.90008 20.9657V14.3957C6.90067 13.7335 7.4372 13.1966 8.09946 13.1957H15.8955C16.5577 13.1966 17.0943 13.7334 17.0949 14.3957V20.9348C17.8255 20.5191 18.2766 19.743 18.2762 18.9024V14.2632C18.2769 12.3792 17.2481 10.6454 15.5942 9.74315ZM16.4951 20.9852L7.49975 21.0596V21.0637H16.4951V20.9852ZM16.4951 14.3958C16.4943 14.0649 16.2263 13.7969 15.8955 13.7958H8.09944C7.76855 13.7969 7.50063 14.0649 7.49975 14.3958V20.9946L16.4951 20.9768V14.3958ZM11.9975 18.5958C11.6335 18.596 11.3052 18.3768 11.1657 18.0405C11.0263 17.7043 11.1032 17.3171 11.3605 17.0596C11.6179 16.8021 12.005 16.725 12.3414 16.8643C12.6778 17.0036 12.8971 17.3318 12.8971 17.6958C12.8971 17.9344 12.8024 18.1633 12.6336 18.3321C12.4649 18.5009 12.2362 18.5958 11.9975 18.5958ZM7.19994 21.0326L6.95692 21.0346H7.19994V21.0326ZM7.73963 22.1957H16.2553C16.3878 22.1957 16.4953 22.0883 16.4953 21.9557V21.5957H7.49975V21.9557C7.49975 22.0882 7.60713 22.1956 7.73963 22.1957Z" fill="currentColor"/>
</svg>
