<svg width="24" height="24" viewBox="0 0 24 24" fill="currentColor" xmlns="http://www.w3.org/2000/svg">
<path fill-rule="evenodd" clip-rule="evenodd" d="M17.4813 3.69764C17.4196 3.46062 17.3625 3.22244 17.312 2.98271C17.1686 2.30123 16.5557 1.79999 15.8328 1.79999H8.11532C7.38623 1.79999 6.76892 2.31011 6.63251 3.00078C6.58386 3.24724 6.52259 3.49105 6.46052 3.73448L4.20001 12.6028H19.8L17.4813 3.69764ZM15.6126 21.0184C15.0165 20.9468 14.4253 20.8395 13.8421 20.697L12.9076 20.474C12.7273 20.431 12.6 20.2698 12.6 20.0843V13.2026H11.4V20.0878C11.4 20.2716 11.2749 20.4318 11.0965 20.4764L10.4692 20.6331C9.79984 20.8041 9.12067 20.9343 8.43548 21.023C8.07325 21.068 7.80001 21.2019 7.80001 21.6002V22.2H16.2V21.6002C16.2 21.1872 15.9616 21.0585 15.6126 21.0184Z" fill="currentColor"/>
</svg>
