<svg width="24" height="24" viewBox="0 0 24 24" fill="currentColor" xmlns="http://www.w3.org/2000/svg">
<path fill-rule="evenodd" clip-rule="evenodd" d="M19.3614 7.03857L20.2243 6.17572C20.4586 5.94141 20.4586 5.56152 20.2243 5.32721L19.2728 4.37573C19.0385 4.14142 18.6586 4.14142 18.4243 4.37573L17.4816 5.31852C16.2093 4.43065 14.7396 3.86632 13.2 3.6744V3H13.8V1.8C13.8 1.46863 13.5314 1.2 13.2 1.2H10.8C10.4687 1.2 10.2 1.46863 10.2 1.8V3H10.8V3.6744C6.06447 4.26492 2.40002 8.30448 2.40002 13.2C2.40002 18.5019 6.69809 22.8 12 22.8C17.302 22.8 21.6 18.5019 21.6 13.2C21.6033 10.9466 20.8105 8.76438 19.3614 7.03857ZM12 21C7.69219 21 4.20002 17.5078 4.20002 13.2C4.20002 8.89216 7.69219 5.4 12 5.4C16.3079 5.4 19.8 8.89216 19.8 13.2C19.8 17.5078 16.3079 21 12 21ZM4.80002 13.2C4.80002 17.1764 8.02358 20.4 12 20.4C13.9101 20.4025 15.7423 19.6435 17.0912 18.2912L12 13.2V6C8.02358 6 4.80002 9.22356 4.80002 13.2Z" fill="currentColor"/>
</svg>
