<svg width="24" height="24" viewBox="0 0 24 24" fill="currentColor" xmlns="http://www.w3.org/2000/svg">
<path fill-rule="evenodd" clip-rule="evenodd" d="M19.2 4.20002H16.8V3.28802C16.8 2.79098 16.3971 2.40002 15.9 2.40002C15.403 2.40002 15 2.80297 15 3.30002V4.20002H8.40029L8.40002 3.30002C8.40002 2.80297 7.99708 2.40002 7.50002 2.40002C7.00297 2.40002 6.60002 2.80297 6.60002 3.30002V4.20002H2.40002V19.2C2.40002 20.1941 3.20591 21 4.20002 21H21V6.00002C21 5.00591 20.1941 4.20002 19.2 4.20002ZM19.8 19.8H4.50002C4.00297 19.8 3.60002 19.3971 3.60002 18.9V9.60003H18.9C19.3971 9.60003 19.8 10.003 19.8 10.5V19.8ZM6.00002 6.30002C5.99965 5.8278 6.22202 5.38306 6.60002 5.10002V6.30002C6.60002 6.79708 7.00297 7.20002 7.50002 7.20002C7.99708 7.20002 8.40002 6.79708 8.40002 6.30002V6.00002L8.40029 5.10019C8.96447 5.52352 9.1575 6.28274 8.86401 6.92413C8.57052 7.56552 7.86982 7.91578 7.18065 7.7656C6.49148 7.61542 6.00002 7.00537 6.00002 6.30002ZM14.4 6.30002C14.3996 5.8278 14.622 5.38306 15 5.10002V6.30002C15 6.79708 15.403 7.20002 15.9 7.20002C16.3971 7.20002 16.8 6.79708 16.8 6.30002L16.7998 6.00002L16.8 5.11202C17.1774 5.39019 17.4002 5.83118 17.4 6.30002C17.4 7.12845 16.7285 7.80002 15.9 7.80002C15.0716 7.80002 14.4 7.12845 14.4 6.30002ZM14.8624 12.7964L12.4687 13.6787V11.1572C12.4659 10.9451 12.2926 10.7749 12.0805 10.776H11.0469C10.835 10.775 10.6621 10.9453 10.6599 11.1572V13.6787L8.3922 12.7999C8.29839 12.7628 8.19352 12.7657 8.10188 12.8079C8.01025 12.85 7.9398 12.9278 7.90687 13.0231L7.53324 14.0887C7.4997 14.1845 7.50591 14.2897 7.5505 14.3809C7.59508 14.4721 7.67432 14.5417 7.77053 14.574L10.1042 15.3589L8.61471 17.3317C8.55359 17.4127 8.52749 17.5147 8.54226 17.6151C8.55703 17.7154 8.61143 17.8056 8.69328 17.8655L9.63122 18.5515C9.71233 18.6115 9.8144 18.6356 9.91377 18.6185C10.0131 18.6013 10.1012 18.5443 10.1575 18.4606L11.5699 16.3822L13.0667 18.4662C13.1258 18.5486 13.2156 18.6038 13.3158 18.6195C13.416 18.6351 13.5183 18.6099 13.5998 18.5494L14.5176 17.8676C14.5991 17.8069 14.6531 17.7163 14.6675 17.6157C14.6819 17.5151 14.6556 17.4129 14.5944 17.3318L13.1049 15.359L15.4848 14.5721C15.5811 14.5404 15.6606 14.4713 15.7053 14.3804C15.75 14.2894 15.7562 14.1843 15.7224 14.0887L15.3489 13.0231C15.3157 12.9276 15.2452 12.8496 15.1536 12.8069C15.0619 12.7641 14.9568 12.7604 14.8624 12.7964Z" fill="currentColor"/>
</svg>
