<svg width="24" height="24" viewBox="0 0 24 24" fill="currentColor" xmlns="http://www.w3.org/2000/svg">
<path fill-rule="evenodd" clip-rule="evenodd" d="M13.0798 6.69627C13.3026 6.69627 13.5163 6.78477 13.6738 6.9423C13.8313 7.09983 13.9198 7.31349 13.9198 7.53627L13.9204 11.256C13.9204 11.3886 14.0279 11.496 14.1604 11.496C14.293 11.496 14.4004 11.3886 14.4004 11.256L14.4 5.85658C14.4 5.85673 14.4 5.85641 14.4 5.85658C14.4 5.39266 14.7761 5.01613 15.24 5.01613C15.7039 5.01613 16.08 5.39221 16.08 5.85613L16.0804 10.5361C16.0804 10.6687 16.1879 10.7761 16.3204 10.7761C16.453 10.7761 16.5604 10.6687 16.5604 10.5361L16.56 4.89649C16.56 4.43257 16.9361 4.05603 17.4 4.05603C17.8639 4.05603 18.24 4.43211 18.24 4.89603L18.2402 10.296C18.2402 10.4286 18.3477 10.536 18.4802 10.536C18.6128 10.536 18.7202 10.4286 18.7202 10.296V5.61603C18.7202 5.15211 19.0963 4.77603 19.5602 4.77603C20.0241 4.77603 20.4002 5.15211 20.4002 5.61603V12.456H19.9202C19.8912 12.456 19.8623 12.4564 19.8335 12.4571C19.7404 12.4595 19.6484 12.4658 19.5575 12.4756C19.5154 12.4801 19.4736 12.4854 19.4321 12.4915C19.415 12.4939 19.398 12.4966 19.3811 12.4993C19.2794 12.5157 19.1792 12.5366 19.0806 12.5618C19.0784 12.5624 19.0762 12.563 19.074 12.5636C19.0327 12.5743 18.9917 12.586 18.951 12.5982C18.9286 12.6049 18.9063 12.6119 18.8843 12.6191C18.8374 12.6342 18.791 12.6504 18.7451 12.6675C18.7145 12.6789 18.6842 12.6908 18.6541 12.7031C18.6042 12.7234 18.5549 12.7449 18.5062 12.7675C18.4802 12.7796 18.4544 12.792 18.4288 12.8047C18.3674 12.8351 18.3072 12.8673 18.2479 12.9012C18.24 12.9057 18.2322 12.9105 18.2243 12.9152C18.1716 12.946 18.1199 12.9783 18.0691 13.0119C18.0477 13.026 18.0265 13.0404 18.0055 13.0551C17.9733 13.0774 17.9414 13.1002 17.9101 13.1236C17.8787 13.1471 17.8484 13.1709 17.8182 13.1952C17.8006 13.2092 17.7832 13.2235 17.766 13.2379C17.7308 13.2673 17.6961 13.2974 17.6621 13.3282C17.6618 13.3285 17.6615 13.3287 17.6612 13.329C17.0041 13.9245 16.6099 14.7563 16.5649 15.642V15.6432C16.5623 15.6947 16.561 15.7464 16.5608 15.7985C16.5608 15.8044 16.5605 15.8102 16.5605 15.8161C16.5605 15.9487 16.668 16.0561 16.8005 16.0561C16.9331 16.0561 17.0405 15.9487 17.0405 15.8161C17.0405 14.2256 18.3297 12.9362 19.9202 12.936H20.6402C20.7727 12.936 20.8802 12.8286 20.8802 12.696V9.81603C20.8802 9.28584 21.31 8.85603 21.8402 8.85603C22.3703 8.85603 22.8002 9.28584 22.8002 9.81603V13.896C22.8009 15.7828 21.7945 17.5265 20.1603 18.4695V21.576C20.1603 21.8411 19.9454 22.056 19.6803 22.056H15.1204C14.8553 22.056 14.6404 21.8411 14.6404 21.576V18.3218C13.1427 17.3481 12.2394 15.6826 12.2404 13.8962L12.2397 7.53627C12.2397 7.31347 12.3283 7.0998 12.4858 6.94227C12.6434 6.78473 12.857 6.69624 13.0798 6.69627ZM10.9202 6.69627C10.4563 6.69627 10.0802 7.07235 10.0802 7.53627L10.0796 11.256C10.0796 11.3886 9.97213 11.496 9.83958 11.496C9.70703 11.496 9.59958 11.3886 9.59958 11.256L9.60001 5.85658C9.60001 5.85673 9.60001 5.85641 9.60001 5.85658C9.60001 5.39266 9.22393 5.01613 8.76001 5.01613C8.29609 5.01613 7.92001 5.39221 7.92001 5.85613L7.91958 10.5361C7.91958 10.6687 7.81213 10.7761 7.67958 10.7761C7.54703 10.7761 7.43958 10.6687 7.43958 10.5361L7.44001 4.89649C7.44001 4.43257 7.06393 4.05603 6.60001 4.05603C6.13609 4.05603 5.76001 4.43211 5.76001 4.89603L5.75982 10.296C5.75982 10.4286 5.65237 10.536 5.51982 10.536C5.38727 10.536 5.27982 10.4286 5.27982 10.296V5.61603C5.27982 5.15211 4.90374 4.77603 4.43982 4.77603C3.9759 4.77603 3.59982 5.15211 3.59982 5.61603V12.456H4.07982C4.10881 12.456 4.13772 12.4564 4.16653 12.4571C4.25958 12.4595 4.35162 12.4658 4.44253 12.4756C4.48458 12.4801 4.52639 12.4854 4.56796 12.4915C4.585 12.4939 4.60199 12.4966 4.61893 12.4993C4.72064 12.5157 4.8208 12.5366 4.91939 12.5618C4.9216 12.5624 4.92378 12.563 4.92599 12.5636C4.96737 12.5743 5.00831 12.586 5.04904 12.5982C5.07144 12.6049 5.09368 12.6119 5.11576 12.6191C5.16261 12.6342 5.209 12.6504 5.25496 12.6675C5.28552 12.6789 5.31584 12.6908 5.34592 12.7031C5.39584 12.7234 5.44515 12.7449 5.49385 12.7675C5.51985 12.7796 5.54565 12.792 5.57125 12.8047C5.63258 12.8351 5.69286 12.8673 5.75209 12.9012C5.76004 12.9057 5.76784 12.9105 5.77573 12.9152C5.8284 12.946 5.88014 12.9783 5.93094 13.0119C5.9523 13.026 5.97348 13.0404 5.99449 13.0551C6.02668 13.0774 6.0586 13.1002 6.08996 13.1236C6.12133 13.1471 6.15162 13.1709 6.18186 13.1952C6.19946 13.2092 6.21685 13.2235 6.23404 13.2379C6.26924 13.2673 6.30388 13.2974 6.33796 13.3282C6.33822 13.3285 6.33851 13.3287 6.3388 13.329C6.99589 13.9245 7.39012 14.7563 7.43512 15.642V15.6432C7.43771 15.6947 7.43909 15.7464 7.43927 15.7985C7.43927 15.8044 7.43949 15.8102 7.43949 15.8161C7.43949 15.9487 7.33203 16.0561 7.19948 16.0561C7.06694 16.0561 6.95949 15.9487 6.95949 15.8161C6.95952 14.2256 5.67033 12.9362 4.07987 12.936H3.36001C3.22746 12.936 3.12001 12.8286 3.12001 12.696V9.81603C3.12001 9.28584 2.69021 8.85603 2.16001 8.85603C1.62982 8.85603 1.20001 9.28584 1.20001 9.81603V13.896C1.19925 15.7828 2.20578 17.5265 3.84001 18.4695V21.576C3.84001 21.8411 4.05492 22.056 4.32001 22.056H8.87977C9.00708 22.056 9.12917 22.0055 9.21918 21.9154C9.3092 21.8254 9.35977 21.7033 9.35977 21.576V18.3218C10.8575 17.3481 11.7607 15.6826 11.7598 13.8962L11.7604 7.53627C11.7604 7.31345 11.6719 7.09975 11.5143 6.94222C11.3567 6.78468 11.143 6.69621 10.9202 6.69627Z" fill="currentColor"/>
</svg>
