<svg width="24" height="24" viewBox="0 0 24 24" fill="currentColor" xmlns="http://www.w3.org/2000/svg">
<path fill-rule="evenodd" clip-rule="evenodd" d="M20.1 6.60001H10.8L9.00002 4.20001H2.40002V18.3C2.40002 19.1284 3.0716 19.8 3.90002 19.8H21.6V8.10001C21.6 7.27159 20.9285 6.60001 20.1 6.60001ZM17.4 16.8H7.22446C6.87959 16.8 6.60002 16.5204 6.60002 16.1756V9.60001H7.80002V9.18035C7.80002 8.92169 8.00971 8.71201 8.26836 8.71201H9.13169C9.39034 8.71201 9.60003 8.92169 9.60003 9.18035V9.60001H16.7756C17.1205 9.60001 17.4 9.87958 17.4 10.2244V16.8ZM9.60003 11.0878C9.60003 11.2602 9.46024 11.4 9.28781 11.4H8.11224C7.93981 11.4 7.80002 11.2602 7.80002 11.0878V10.7998C7.80002 10.717 7.83292 10.6376 7.89147 10.579C7.95002 10.5205 8.02944 10.4876 8.11224 10.4876H9.28781C9.46023 10.4876 9.60003 10.6273 9.60003 10.7998V11.0878ZM15 13.2C15 14.5255 13.9255 15.6 12.6 15.6C11.2745 15.6 10.2 14.5255 10.2 13.2C10.2 11.8745 11.2745 10.8 12.6 10.8C13.9255 10.8 15 11.8745 15 13.2Z" fill="currentColor"/>
</svg>
