<svg width="24" height="24" viewBox="0 0 24 24" fill="currentColor" xmlns="http://www.w3.org/2000/svg">
<path fill-rule="evenodd" clip-rule="evenodd" d="M11.7 15.2999L11.4 14.3999H10.8L11.4 16.1999H12L12.621 14.3999H12L11.7 15.2999ZM5.41603 12.5999C5.41603 16.0751 7.48802 16.7999 7.48802 16.7999C7.48802 16.7999 9.61603 16.1254 9.61603 12.5999H5.41603ZM13.7812 12.5999C13.7812 16.0751 15.8532 16.7999 15.8532 16.7999C15.8532 16.7999 17.9812 16.1254 17.9812 12.5999H13.7812ZM19.2 4.1999H16.8V3.2999C16.8 2.80285 16.3971 2.3999 15.9 2.3999C15.403 2.3999 15 2.80285 15 3.2999V4.1999H8.40002V3.2999C8.40002 2.80285 7.99708 2.3999 7.50002 2.3999C7.00297 2.3999 6.60002 2.80285 6.60002 3.2999V4.1999H2.40002V19.1999C2.40002 20.194 3.20591 20.9999 4.20002 20.9999H21V5.9999C21 5.00579 20.1941 4.1999 19.2 4.1999ZM15 5.0999V6.2999C15 6.79696 15.403 7.1999 15.9 7.1999C16.3971 7.1999 16.8 6.79696 16.8 6.2999V5.10009C17.3165 5.48754 17.5271 6.162 17.3229 6.77449C17.1186 7.38698 16.5454 7.80007 15.8997 7.8C15.2541 7.79993 14.6809 7.38672 14.4768 6.77419C14.2727 6.16165 14.4835 5.48723 15 5.0999ZM6.60002 5.0999V6.2999C6.60002 6.79696 7.00297 7.1999 7.50002 7.1999C7.99708 7.1999 8.40002 6.79696 8.40002 6.2999V5.10007C8.9165 5.48751 9.12712 6.16197 8.92289 6.77446C8.71867 7.38695 8.14542 7.80005 7.49977 7.79999C6.85413 7.79993 6.28096 7.38673 6.07684 6.7742C5.87273 6.16166 6.08347 5.48724 6.60002 5.0999ZM19.8 19.7999H4.48802C3.98402 19.7962 3.59971 19.3926 3.59971 18.8978C3.59896 18.8625 3.60001 18.8271 3.60286 18.7919H3.60002V9.5999L18.9011 9.60117C19.3125 9.60117 19.7643 9.9599 19.7969 10.4399H19.8V19.7999Z" fill="currentColor"/>
</svg>
