<svg width="24" height="24" viewBox="0 0 24 24" fill="currentColor" xmlns="http://www.w3.org/2000/svg">
<path fill-rule="evenodd" clip-rule="evenodd" d="M17.6794 4.27481L17.96 2.71203C17.9697 2.66679 17.9563 2.61966 17.9241 2.5864C17.8919 2.55315 17.8452 2.53815 17.7997 2.54643C17.3991 2.61797 16.4727 3.23763 15.7317 4.94107C15.704 5.00463 15.6806 5.06662 15.6608 5.12724L14.5844 7.95245L18.6399 9.12502L18.9858 8.02582C19.0524 7.70556 19.3035 7.45588 19.6242 7.39119L20.9436 7.17833C21.1098 7.14472 21.2585 7.05279 21.3629 6.91913L22.0393 5.71087C22.119 5.60866 22.1664 5.4849 22.1753 5.35553C22.1902 5.13601 22.0346 4.9416 21.8172 4.90803L17.6794 4.27481ZM14.2376 8.67197L13.9475 9.04579C13.6931 9.37352 13.3077 9.57323 12.8933 9.59218L4.62258 9.97138C4.19069 9.99303 3.76205 9.88641 3.39063 9.66495C2.84017 9.33322 2.2021 8.68815 2.16454 7.47274C2.15876 7.2858 1.80435 7.25952 1.80435 7.49938C1.80435 7.65982 1.35075 10.0844 4.07223 11.6434C4.09092 11.6541 4.10932 11.6645 4.12743 11.6747C4.15941 11.6927 4.17911 11.7266 4.17886 11.7633V20.0247C4.1808 20.5763 4.62786 21.0228 5.17947 21.024C5.73108 21.0228 6.17813 20.5763 6.18006 20.0247L6.8325 15.2101C6.84378 15.0702 6.91186 14.9411 7.02087 14.8528C7.12988 14.7645 7.27031 14.7247 7.40946 14.7426L13.6831 15.5834C13.9696 15.6201 14.1843 15.8639 14.1844 16.1527V20.0247C14.1863 20.5762 14.6332 21.0226 15.1847 21.024C15.6892 21.0227 16.1144 20.647 16.1778 20.1465C16.1912 20.0377 16.2066 19.9291 16.2303 19.822L17.8974 12.3291L18.4594 9.84526L14.2376 8.67197Z" fill="currentColor"/>
</svg>
