<svg width="24" height="24" viewBox="0 0 24 24" fill="currentColor" xmlns="http://www.w3.org/2000/svg">
<path fill-rule="evenodd" clip-rule="evenodd" d="M21.8439 10.2324L18.912 9.67205L14.664 5.15974L14.6592 5.1625C14.4336 4.93047 14.1236 4.79971 13.8 4.80005H6.00001C5.62035 4.79971 5.26298 4.97929 5.03668 5.28413L1.44033 10.0873L1.43663 10.0922L1.43437 10.0952C1.2818 10.3011 1.19962 10.5507 1.20001 10.807V15.0001C1.20001 15.6627 1.73735 16.1999 2.40001 16.2001H3.00002C3.00002 17.8569 4.34316 19.2001 6.00001 19.2001C7.65687 19.2001 9.00001 17.8569 9.00001 16.2001H14.4C14.4 17.8569 15.7432 19.2001 17.4 19.2001C19.0569 19.2001 20.4 17.8569 20.4 16.2001H21.6C22.2627 16.1999 22.8 15.6627 22.8 15.0001V11.4066C22.7998 10.838 22.4005 10.3477 21.8439 10.2324ZM9.02133 10.4826C9.02135 10.5663 9.01266 10.6497 8.99541 10.7315L10.6658 11.7523C11.1191 11.3849 11.7711 11.3973 12.21 11.7817C12.649 12.1661 12.7473 12.8108 12.4428 13.3085C12.1383 13.8063 11.5196 14.0124 10.9775 13.7967C10.4353 13.581 10.1273 13.0062 10.248 12.4353L8.57761 11.4145C8.08772 11.8127 7.3732 11.7636 6.9424 11.3021C6.51159 10.8407 6.51159 10.1245 6.9424 9.66306C7.3732 9.20163 8.08772 9.15251 8.57761 9.55066L10.248 8.52987C10.1266 7.95745 10.4352 7.3808 10.9788 7.16435C11.5225 6.9479 12.143 7.15461 12.4482 7.65385C12.7535 8.1531 12.6546 8.79963 12.2142 9.18485C11.7737 9.57008 11.1197 9.58192 10.6656 9.21291L8.99521 10.2337C9.01254 10.3155 9.02129 10.3989 9.02133 10.4826Z" fill="currentColor"/>
</svg>
