<svg width="24" height="24" viewBox="0 0 24 24" fill="currentColor" xmlns="http://www.w3.org/2000/svg">
<path fill-rule="evenodd" clip-rule="evenodd" d="M16.8012 1.80005H7.19882C6.88072 1.80005 6.5757 1.92672 6.35088 2.15176C6.12606 2.3768 5.99984 2.68194 6 3.00005V21C5.99967 21.6625 6.53637 22.1997 7.19878 22.2001H16.8012C17.1193 22.2001 17.4243 22.0734 17.6491 21.8483C17.8739 21.6233 18.0002 21.3182 18 21V3.00005C18.0003 2.33765 17.4636 1.80039 16.8012 1.80005ZM11.1 2.40005H12.9C13.0657 2.40005 13.2 2.53436 13.2 2.70005C13.2 2.86573 13.0657 3.00005 12.9 3.00005H11.1C10.9343 3.00005 10.8 2.86573 10.8 2.70005C10.8 2.53436 10.9343 2.40005 11.1 2.40005ZM12.8939 19.5002C12.6742 19.6843 12.3551 19.8002 11.9997 19.8002C11.6444 19.8002 11.3253 19.6843 11.1055 19.5002C10.9155 19.341 10.7997 19.1308 10.7997 18.9002C10.7998 18.8515 10.8051 18.8028 10.8155 18.7552C11.4935 19.3486 12.506 19.3486 13.184 18.7552C13.1944 18.8028 13.1997 18.8515 13.1997 18.9002C13.1997 19.1308 13.084 19.341 12.8939 19.5002ZM13.1997 17.7002C13.1997 17.9132 13.1009 18.1087 12.9361 18.2628C12.9225 18.2755 12.9085 18.2881 12.8939 18.3002C12.6742 18.4843 12.3551 18.6002 11.9997 18.6002C11.6444 18.6002 11.3253 18.4843 11.1055 18.3002C11.091 18.2881 11.077 18.2755 11.0633 18.2628C10.8985 18.1087 10.7997 17.9132 10.7997 17.7002C10.7997 17.2219 11.2974 16.8308 11.9257 16.8021C11.9502 16.801 11.9748 16.8002 11.9997 16.8002C12.0246 16.8002 12.0493 16.801 12.0738 16.8021C12.702 16.8308 13.1997 17.2219 13.1997 17.7002ZM10.7997 20.1002C10.7998 20.0515 10.8051 20.0028 10.8155 19.9552C11.4935 20.5486 12.506 20.5486 13.184 19.9552C13.1944 20.0028 13.1997 20.0515 13.1997 20.1002C13.1997 20.5973 12.6625 21.0002 11.9997 21.0002C11.337 21.0002 10.7997 20.5973 10.7997 20.1002ZM16.8 19.8H13.8V18H15.6L12.4668 14.6067C12.3385 14.482 12.1666 14.4122 11.9878 14.4123C11.8089 14.4122 11.637 14.482 11.5088 14.6067L8.4 18H10.2V19.8H7.2V3.60005H16.8V19.8ZM8.88 9.00005H10.128C10.2611 9.00005 10.3254 9.09214 10.4195 9.18634L11.0005 9.85706C11.0838 9.94038 11.1305 10.0533 11.1305 10.1711V12.1806C11.1305 12.319 11.1855 12.4518 11.2833 12.5497L11.8728 13.0416C11.9741 13.1431 12.1116 13.2 12.255 13.2H12.574C12.7383 13.2 12.8936 13.1254 12.9961 12.9971L14.2181 11.3417C14.2956 11.2448 14.3378 11.1244 14.3378 11.0004V9.91742C14.3378 9.89844 14.3453 9.88024 14.3587 9.86681L15.448 8.93861C15.5454 8.84113 15.6001 8.70899 15.6 8.57122V8.06165C15.6017 7.99134 15.5744 7.92344 15.5244 7.87393C15.4744 7.82443 15.4063 7.7977 15.336 7.80005H15C14.9104 7.79561 14.8273 7.7522 14.7725 7.68122C14.565 7.41127 13.8144 6.59642 13.5027 6.17791C13.4125 6.06331 13.2738 5.9975 13.128 6.00005H11.592C11.4859 5.99635 11.4021 5.90866 11.4033 5.8025V5.70651C11.4033 5.62549 11.3712 5.54779 11.3139 5.49053C11.2566 5.43326 11.1789 5.40114 11.0978 5.40122C10.7111 5.40173 10.0514 5.4023 9.88966 5.40076C9.81697 5.40008 9.74701 5.42838 9.69526 5.47942L8.54678 6.57881C8.4528 6.67286 8.4 6.80038 8.4 6.93334V8.5093C8.4 8.77512 8.61434 9.00005 8.88 9.00005Z" fill="currentColor"/>
</svg>
