<svg width="24" height="24" viewBox="0 0 24 24" fill="currentColor" xmlns="http://www.w3.org/2000/svg">
<path fill-rule="evenodd" clip-rule="evenodd" d="M21.768 14.9652L16.5235 9.73918V12.5661H15.5522C15.5839 12.3746 15.6002 12.1778 15.6002 11.9772C15.6002 11.1355 15.3115 10.3613 14.8274 9.74854V6.34702C14.8274 5.4103 14.0681 4.65094 13.1313 4.65094H7.4779V1.82422L2.23342 7.05022C1.97974 7.3087 1.82422 7.65838 1.82422 8.0431C1.82422 8.42806 1.97974 8.77774 2.23342 9.03622L7.4779 14.2622V11.4353H8.44078C8.41414 11.6119 8.40022 11.7929 8.40022 11.9772C8.40022 12.8198 8.68966 13.5948 9.17494 14.208C9.17422 14.226 9.17398 14.244 9.17398 14.2622V17.6544C9.17398 18.5911 9.93334 19.3505 10.8701 19.3505H16.5235V22.1772L21.768 16.9512C22.0217 16.6927 22.1772 16.343 22.1772 15.9583C22.1772 15.5733 22.0217 15.2237 21.768 14.9652ZM12.0002 8.95318C13.1369 8.95318 14.1271 9.5803 14.6438 10.5074C14.8862 10.9425 15.0242 11.4437 15.0242 11.9772C15.0242 12.1788 15.0045 12.3756 14.9669 12.5661C14.693 13.9543 13.4688 15.0012 12.0002 15.0012C10.8732 15.0012 9.89014 14.3846 9.37006 13.4705C9.11926 13.0301 8.97622 12.5203 8.97622 11.9772C8.97622 11.7921 8.99278 11.6112 9.0247 11.4353C9.27982 10.0238 10.5151 8.95318 12.0002 8.95318ZM11.9959 9.26662C11.8205 9.26662 11.6784 9.4087 11.6784 9.58438L11.679 11.9331L11.6793 11.9369C11.6801 11.9479 11.6805 11.951 11.681 11.9541C11.6813 11.9561 11.6815 11.9582 11.6817 11.9601L11.6834 11.9702C11.6837 11.9719 11.6839 11.9736 11.6844 11.9753L11.6865 11.9853C11.687 11.987 11.6873 11.9887 11.6877 11.9906C11.6885 11.9937 11.6894 11.9969 11.6904 12.0002C11.6909 12.0019 11.6913 12.0038 11.6918 12.0055C11.6928 12.0084 11.6937 12.0115 11.6947 12.0144C11.6978 12.0233 11.6988 12.0257 11.6997 12.0283C11.7007 12.0307 11.7017 12.0329 11.7026 12.0353C11.7033 12.0374 11.7045 12.0398 11.7055 12.042C11.7065 12.0446 11.7077 12.0473 11.7089 12.0497C11.7098 12.0516 11.7108 12.0535 11.7117 12.0554C11.7168 12.0653 11.7177 12.0669 11.7187 12.0686L11.7237 12.0773C11.7247 12.0787 11.7254 12.0801 11.7264 12.0816C11.7283 12.0847 11.73 12.0876 11.7319 12.0905C11.7329 12.0919 11.7341 12.0933 11.735 12.0945L11.741 12.1029C11.742 12.1046 11.7434 12.1061 11.7446 12.1077C11.7465 12.1101 11.7485 12.1125 11.7504 12.1152C11.7521 12.1171 11.7537 12.119 11.7554 12.1212C11.7573 12.1231 11.7588 12.125 11.7607 12.1269C11.7638 12.1305 11.7674 12.1341 11.7708 12.1377L13.0123 13.3793C13.0745 13.4412 13.1556 13.4724 13.2369 13.4724C13.3183 13.4724 13.3994 13.4412 13.4616 13.3793C13.5857 13.2552 13.5857 13.0541 13.4616 12.93L12.3137 11.7821V9.58438C12.3137 9.4087 12.1713 9.26662 11.9959 9.26662Z" fill="currentColor"/>
</svg>
