<svg width="24" height="24" viewBox="0 0 24 24" fill="currentColor" xmlns="http://www.w3.org/2000/svg">
<path fill-rule="evenodd" clip-rule="evenodd" d="M18.6 16.8V17.1C18.6 18.5912 17.3912 19.8 15.9 19.8C14.4088 19.8 13.2 18.5912 13.2 17.1V16.8H7.8V17.1C7.8 18.5912 6.59117 19.8 5.1 19.8C3.60883 19.8 2.4 18.5912 2.4 17.1V5.40003H11.4V5.07603C11.4 4.57897 11.8029 4.17603 12.3 4.17603C12.7971 4.17603 13.2 4.57897 13.2 5.07603V5.40003H14.424C14.8546 5.4362 15.2329 5.70028 15.4152 6.09207L18.6 11.4H20.4C21.0627 11.4 21.6 11.9373 21.6 12.6V16.8H18.6ZM11.4 10.8H9.6V12.6H7.8V10.8H6V9.00003H7.8V7.20003H9.6V9.00003H11.4V10.8Z" fill="currentColor"/>
</svg>
