<svg width="24" height="24" viewBox="0 0 24 24" fill="currentColor" xmlns="http://www.w3.org/2000/svg">
<path d="M10.6455 12.6875L10.5704 12.6592C10.3334 12.5707 10.0695 12.6904 9.97999 12.9271L9.04807 15.4101L10.9265 13.0917C10.9253 12.9119 10.8136 12.7513 10.6455 12.6875Z" fill="currentColor"/>
<path d="M9.08503 15.9364L9.11047 15.9175L12.4371 13.3435C12.5785 13.1397 12.5393 12.8615 12.3471 12.7048C12.1328 12.532 11.819 12.5648 11.6451 12.7783L9.08503 15.9364Z" fill="currentColor"/>
<path d="M14.3787 13.0852C14.2919 12.956 14.1572 12.8665 14.0044 12.8365C13.8516 12.8065 13.6931 12.8385 13.5639 12.9254L11.4521 14.5574L9.32983 16.1995C9.13871 16.3474 8.90747 16.4344 8.66623 16.4491C8.66263 16.4491 8.65927 16.4491 8.65567 16.4491C8.63551 16.4503 8.61559 16.451 8.59543 16.451H8.43271C8.36287 16.451 8.28871 16.451 8.21263 16.4493C7.92775 16.4457 7.60687 16.4371 7.32079 16.4174C7.00351 16.3953 6.92551 15.9645 7.21495 15.8327L8.26687 15.3527C8.61766 15.1922 8.77301 14.7786 8.61463 14.4268C8.49443 14.1638 8.23185 13.995 7.94263 13.9948C7.83831 13.9948 7.7352 14.0172 7.64023 14.0603L5.03455 15.2109C4.94984 15.2483 4.8534 15.2486 4.76841 15.2119C4.68342 15.1752 4.61758 15.1047 4.58671 15.0175V15.0158C2.88847 10.1606 4.77871 4.78266 9.53455 2.54226C10.2385 2.20965 10.9781 1.95843 11.7389 1.79346C10.3231 1.829 8.93034 2.15991 7.64983 2.76498C2.68735 5.10306 0.48511 10.9264 2.58799 15.9359C2.61199 15.9911 3.48535 17.8886 3.48535 17.8886C3.678 18.3117 4.0971 18.5861 4.56199 18.5935L9.30535 18.5908C9.32935 18.5925 9.35599 18.5935 9.38191 18.5935C9.79495 18.5935 10.3335 18.3683 10.6121 18.0859L14.2985 13.8355C14.5038 13.638 14.5376 13.3216 14.3787 13.0852Z" fill="currentColor"/>
<path d="M13.6745 10.9615L13.7487 10.9891C13.9821 11.0758 14.2417 10.9579 14.33 10.7251L15.1546 8.51706L13.412 10.6749C13.4487 10.8069 13.5462 10.9134 13.6745 10.9615Z" fill="currentColor"/>
<path d="M11.7253 10.6679C11.5969 10.8688 11.6396 11.134 11.8246 11.2843C12.0364 11.4542 12.3457 11.4213 12.517 11.2106L15.0236 8.10666L15.0137 8.11386L11.7253 10.6679Z" fill="currentColor"/>
<path d="M21.4311 8.06586C21.4071 8.01066 21.0142 7.10586 21.0142 7.10586L20.564 6.10722C20.5618 6.1017 20.5594 6.09594 20.5568 6.09042C20.3607 5.67148 19.9427 5.40123 19.4802 5.39442L14.8088 5.39706C14.7867 5.39562 14.7639 5.3949 14.7411 5.3949C14.3331 5.3949 13.801 5.61834 13.5262 5.8977L9.90223 10.1697C9.89887 10.1738 9.89527 10.1776 9.89143 10.1815C9.68038 10.3905 9.66178 10.7253 9.84839 10.9564C10.035 11.1875 10.3662 11.2399 10.615 11.0776C10.6207 11.0741 10.6261 11.0702 10.6313 11.0661L11.4641 10.4181L12.7037 9.45594L14.2213 8.27346L14.7925 7.8297C14.9807 7.6834 15.2086 7.59717 15.4465 7.58226C15.4659 7.58106 15.4853 7.5801 15.5048 7.57986H15.6802C15.7498 7.57986 15.8242 7.57986 15.8998 7.5813C16.1792 7.58418 16.4936 7.59234 16.7737 7.61106C17.0857 7.63218 17.1646 8.05698 16.8793 8.18706L15.8449 8.66058C15.4992 8.81946 15.3467 9.22767 15.5036 9.57426C15.6224 9.83357 15.8817 9.99968 16.1669 9.9993C16.2702 9.99926 16.3723 9.97699 16.4662 9.93402L18.9833 8.7861C19.0673 8.7478 19.1635 8.74662 19.2483 8.78283C19.3332 8.81905 19.3989 8.88932 19.4293 8.97642V8.9781C21.1232 13.8316 19.2334 19.2055 14.479 21.4449C13.7751 21.7774 13.0355 22.0286 12.2746 22.1935C13.6906 22.1577 15.0835 21.8266 16.364 21.2212C21.3212 18.8863 23.5242 13.072 21.4311 8.06586Z" fill="currentColor"/>
</svg>
