<svg width="24" height="24" viewBox="0 0 24 24" fill="currentColor" xmlns="http://www.w3.org/2000/svg">
<path fill-rule="evenodd" clip-rule="evenodd" d="M11.9914 1.79572C14.1513 3.30222 16.836 4.19572 19.7453 4.19572H20.3914V10.7957C20.3914 15.2333 17.8068 20.3957 11.9914 22.1957C6.17604 20.3957 3.59143 15.2333 3.59143 10.7957V4.19572L4.23758 4.19504C7.14689 4.19504 9.83155 3.30222 11.9914 1.79572ZM13.013 15.9956H11.0052C10.8177 15.9956 10.6612 16.1287 10.625 16.3055L10.6171 16.3837V17.1973C10.6172 17.4173 10.7955 17.5955 11.0154 17.5956H11.2886C11.3058 17.5957 11.3218 17.6047 11.3308 17.6194C11.4769 17.8534 11.7333 17.9956 12.0091 17.9956C12.285 17.9956 12.5414 17.8534 12.6875 17.6194C12.6965 17.6048 12.7124 17.5957 12.7296 17.5956H12.9905C13.1889 17.5956 13.3545 17.4549 13.3928 17.2678L13.4011 17.185V16.3837C13.4011 16.1694 13.2274 15.9956 13.013 15.9956ZM11.9914 5.99572C10.6557 5.99572 9.42972 6.73526 8.8068 7.91688C8.18388 9.09849 8.26641 10.5279 9.02119 11.6299C10.1312 13.3358 10.362 14.8006 10.3929 15.0359C10.4141 15.3509 10.6757 15.5957 10.9914 15.5957H12.9914C13.2607 15.5957 13.4923 15.4172 13.5665 15.1664L13.5869 15.0692C13.5869 15.0692 13.7428 13.5649 14.8807 11.7581L15.011 11.5561C15.7296 10.4491 15.7849 9.03764 15.155 7.87783C14.5252 6.71802 13.3112 5.99572 11.9914 5.99572Z" fill="currentColor"/>
</svg>
