<svg width="24" height="24" viewBox="0 0 24 24" fill="currentColor" xmlns="http://www.w3.org/2000/svg">
<path fill-rule="evenodd" clip-rule="evenodd" d="M13.0686 20.2237C12.573 20.0632 12.1227 19.7871 11.7549 19.4182L4.14106 11.8043C4.02399 11.6872 4.02399 11.4974 4.14106 11.3804C4.25812 11.2633 4.44793 11.2633 4.56499 11.3804L8.59236 15.4078L12 12V8.64098L10.0761 6.71702C8.32008 4.96102 5.47306 4.96102 3.71707 6.71702C1.96109 8.47303 1.96109 11.3201 3.71707 13.0761L10.924 20.283C11.8991 21.26 13.2695 21.7339 14.6398 21.5682C14.0301 21.2314 13.4955 20.774 13.0686 20.2237ZM17.1 2.40002C14.6148 2.40002 12.6 4.41473 12.6 6.90002V17.1C12.6 19.5854 14.6148 21.6 17.1 21.6C19.5853 21.6 21.6 19.5854 21.6 17.1V6.90002C21.6 4.41473 19.5853 2.40002 17.1 2.40002ZM20.4 12H14.4V17.7C14.4 17.8657 14.2657 18 14.1 18C13.9343 18 13.8 17.8657 13.8 17.7V6.92402C13.8 5.10148 15.2775 3.62402 17.1 3.62402C18.9226 3.62402 20.4 5.10148 20.4 6.92402V12Z" fill="currentColor"/>
</svg>
