<svg width="24" height="24" viewBox="0 0 24 24" fill="currentColor" xmlns="http://www.w3.org/2000/svg">
<path fill-rule="evenodd" clip-rule="evenodd" d="M16.5216 11.2146L16.3803 10.3076C16.371 10.2479 16.3196 10.2039 16.2592 10.2039H15.2428C15.2012 10.2039 15.1625 10.225 15.1399 10.2599C15.1174 10.2948 15.114 10.3387 15.1311 10.3767L15.5384 11.2837C15.5581 11.3277 15.6019 11.356 15.6501 11.356H16.4005C16.4363 11.356 16.4703 11.3403 16.4936 11.3131C16.5169 11.286 16.5271 11.2499 16.5216 11.2146ZM16.6192 11.8413C16.6099 11.7816 16.5586 11.7376 16.4982 11.7376H15.9316C15.89 11.7376 15.8513 11.7587 15.8287 11.7936C15.8062 11.8285 15.8028 11.8725 15.8199 11.9104L16.1346 12.5873C16.1544 12.6314 16.1981 12.6597 16.2464 12.6597H16.6073C16.6432 12.6597 16.6772 12.644 16.7005 12.6168C16.7237 12.5895 16.734 12.5535 16.7284 12.5181L16.6192 11.8413ZM17.6147 8.2722C17.3871 8.27226 17.1688 8.36273 17.0079 8.52372C16.847 8.68471 16.7567 8.90303 16.7568 9.13063C16.7568 9.13447 16.7568 9.13826 16.7569 9.14208H16.7554V9.60658C16.7553 9.6064 16.7554 9.60684 16.7554 9.60658C16.7556 9.60676 16.7562 9.60754 16.7564 9.60754H18.4714C18.4719 9.60754 18.4724 9.60711 18.4724 9.60658V9.14208C18.4724 9.13826 18.4724 9.13447 18.4724 9.13063C18.4726 8.65674 18.0886 8.27243 17.6147 8.2722ZM18.0947 11.7376H17.1346C17.0987 11.7376 17.0647 11.7533 17.0414 11.7805C17.0182 11.8077 17.008 11.8438 17.0135 11.8792L17.1227 12.5561C17.132 12.6158 17.1834 12.6598 17.2438 12.6599H17.9856C18.046 12.6598 18.0974 12.6158 18.1066 12.5561L18.2158 11.8792C18.2214 11.8438 18.2112 11.8077 18.1879 11.7805C18.1646 11.7533 18.1305 11.7376 18.0947 11.7376ZM16.7999 4.80158C14.9999 4.80158 13.3635 5.26848 11.9999 6.10087C10.6363 5.26848 8.99989 4.80084 7.19989 4.80084H1.79999V16.9179C1.79999 17.5184 2.27999 18.0099 2.87999 18.0099L7.19999 18.0107C8.15999 18.0107 9.07573 18.1731 9.88864 18.5172C10.4953 18.774 11.5569 19.5386 11.5569 19.5386C11.76 19.68 11.8257 19.728 12 19.728C12.1742 19.728 12.24 19.68 12.4431 19.5387C12.4431 19.5387 13.5047 18.7741 14.1113 18.5173C14.9242 18.1732 15.84 18.01 16.8 18.01L21.12 18.0092C21.72 18.0092 22.2 17.5184 22.2 16.9179V4.80005L16.7999 4.80158ZM3.59989 7.20062H8.39999C8.73229 7.20062 9.00167 7.47001 9.00167 7.8023C9.00167 8.1346 8.73229 8.40399 8.39999 8.40399H3.59999C3.26768 8.40399 2.9983 8.1346 2.9983 7.80229C2.9983 7.46999 3.26759 7.20062 3.59989 7.20062ZM3.59999 9.60485H8.39999C8.73161 9.60485 9.00044 9.87368 9.00044 10.2053C9.00044 10.5369 8.73161 10.8058 8.39999 10.8058H3.59999C3.26837 10.8058 2.99953 10.5369 2.99953 10.2053C2.99953 9.87368 3.26837 9.60485 3.59999 9.60485ZM3.59999 12.0044H5.99999C6.33231 12.0044 6.60172 12.2738 6.60172 12.6061C6.60172 12.9385 6.33231 13.2079 5.99999 13.2079H3.59999C3.26915 13.2058 3.00206 12.937 3.00206 12.6062C3.00206 12.2753 3.26915 12.0065 3.59999 12.0044ZM21 16.2062C21.0004 16.5383 20.7321 16.8081 20.4 16.8096H16.8C15.6 16.8096 14.6051 17.004 13.6442 17.4108C13.1897 17.6032 12.36 18.1188 12.36 18.1188C12.2613 18.1901 12.12 18.2209 12 18.2209C11.88 18.2209 11.7386 18.1901 11.64 18.1188C11.64 18.1188 10.8103 17.6032 10.3557 17.4108C9.39488 17.004 8.39999 16.8096 7.19999 16.8096H3.59999C3.26792 16.8081 2.99963 16.5383 2.99999 16.2063V15.6072H7.19852C8.99852 15.6072 10.6364 16.0766 12 16.909C13.3636 16.0766 15 15.6087 16.8 15.6087H21V16.2062ZM20.9686 10.2038L19.7054 12.9685C19.64 13.1142 19.4952 13.208 19.3355 13.208H16.0595C15.8998 13.208 15.7549 13.1142 15.6895 12.9685L14.4264 10.2039C14.3058 9.93528 14.5021 9.60754 14.7963 9.60754H16.3746C16.3751 9.60754 16.3756 9.60711 16.3756 9.60658V9.13063C16.3754 8.47537 16.8852 7.93312 17.5392 7.89293C18.2539 7.84997 18.8537 8.42772 18.8537 9.14424V9.60658C18.8537 9.60711 18.8541 9.60754 18.8546 9.60754H20.5986C20.8929 9.60754 21.0892 9.93521 20.9686 10.2038ZM20.1522 10.2038H18.9626C18.9022 10.2038 18.8509 10.2478 18.8416 10.3075L18.7003 11.2145C18.6948 11.2499 18.705 11.2859 18.7283 11.3131C18.7515 11.3403 18.7855 11.356 18.8213 11.356H19.7449C19.7932 11.356 19.8369 11.3277 19.8567 11.2836L20.264 10.3766C20.281 10.3387 20.2776 10.2948 20.2551 10.2599C20.2325 10.225 20.1938 10.2038 20.1522 10.2038ZM19.4634 11.7375H18.7237C18.6633 11.7375 18.6119 11.7816 18.6027 11.8412L18.4935 12.5182C18.4879 12.5536 18.4981 12.5896 18.5214 12.6169C18.5447 12.6441 18.5787 12.6598 18.6145 12.6598H19.1487C19.1969 12.6598 19.2407 12.6315 19.2604 12.5874L19.5752 11.9105C19.5922 11.8726 19.5889 11.8286 19.5663 11.7936C19.5438 11.7587 19.505 11.7375 19.4634 11.7375ZM18.3337 10.2038H16.8957C16.8598 10.2038 16.8258 10.2195 16.8026 10.2467C16.7793 10.2739 16.7691 10.3099 16.7746 10.3453L16.9159 11.2523C16.9252 11.3119 16.9765 11.356 17.0369 11.356H18.1924C18.2528 11.356 18.3042 11.3119 18.3135 11.2523L18.4548 10.3453C18.4603 10.3099 18.45 10.2739 18.4268 10.2467C18.4035 10.2195 18.3695 10.2038 18.3337 10.2038Z" fill="currentColor"/>
</svg>
