<svg width="24" height="24" viewBox="0 0 24 24" fill="currentColor" xmlns="http://www.w3.org/2000/svg">
<path fill-rule="evenodd" clip-rule="evenodd" d="M19.8 3H2.4V15.6C2.4 16.5941 3.20589 17.4 4.2 17.4H6.6V21L10.2 17.4H21.6V4.8C21.6 3.80589 20.7941 3 19.8 3ZM14.3471 15H18.6547C18.7992 15.0002 18.9378 14.943 19.04 14.8409C19.1423 14.7389 19.1998 14.6005 19.2 14.456V10.7515C19.1998 10.6066 19.1421 10.4677 19.0395 10.3653C18.9369 10.263 18.7979 10.2056 18.6529 10.2057H16.3485C16.241 10.2058 16.1528 10.1206 16.149 10.0132C16.1344 9.60648 16.2335 9.19682 16.4466 8.73763C16.8871 7.74737 17.86 7.07105 19.1963 6.70826V4.824C17.4888 5.15006 16.0922 5.8296 15.1754 6.86143C14.2583 7.89338 13.7998 9.33274 13.8 11.1795V14.4542C13.8002 14.5992 13.8579 14.7381 13.9605 14.8404C14.0631 14.9428 14.2021 15.0002 14.3471 15Z" fill="currentColor"/>
</svg>
