<svg width="24" height="24" viewBox="0 0 24 24" fill="currentColor" xmlns="http://www.w3.org/2000/svg">
<path fill-rule="evenodd" clip-rule="evenodd" d="M15 9.91195C14.5095 9.91195 14.112 10.3095 14.112 10.8V13.9351L12.3835 15.6636C12.0321 16.015 12.0321 16.5849 12.3835 16.9364C12.735 17.2878 13.3049 17.2878 13.6564 16.9364L15.5309 15.0618C15.7558 14.8943 15.8882 14.6303 15.888 14.35V10.8C15.888 10.5644 15.7944 10.3386 15.6279 10.172C15.4613 10.0055 15.2355 9.91195 15 9.91195ZM16.629 7.37086C15.8798 3.84514 12.749 1.19995 8.99995 1.19995C4.69212 1.19995 1.19995 4.69212 1.19995 8.99995C1.19995 12.749 3.84514 15.8798 7.37086 16.629C8.12009 20.1548 11.2509 22.7999 15 22.7999C19.3078 22.7999 22.7999 19.3078 22.7999 15C22.7999 11.2509 20.1548 8.12009 16.629 7.37086ZM7.01995 11.2C6.65593 11.2 6.32774 10.9807 6.18844 10.6444C6.04913 10.3081 6.12614 9.92095 6.38354 9.66355L8.11195 7.93514V4.19995C8.11195 3.70952 8.50952 3.31195 8.99995 3.31195C9.49038 3.31195 9.88795 3.70952 9.88795 4.19995V8.34996C9.88818 8.63033 9.75578 8.89429 9.53093 9.06178L7.65636 10.9363C7.48774 11.1054 7.25871 11.2003 7.01995 11.2ZM15 21C11.6862 21 8.99995 18.3137 8.99995 15C8.99995 11.6862 11.6862 8.99995 15 8.99995C18.3137 8.99995 21 11.6862 21 15C21 18.3137 18.3137 21 15 21Z" fill="currentColor"/>
</svg>
