<svg width="24" height="24" viewBox="0 0 24 24" fill="currentColor" xmlns="http://www.w3.org/2000/svg">
<path fill-rule="evenodd" clip-rule="evenodd" d="M16.2 5.40001C16.2 7.71961 14.3196 9.60001 12 9.60001C9.68036 9.60001 7.79996 7.71961 7.79996 5.40001C7.79996 3.08042 9.68036 1.20001 12 1.20001C14.3196 1.20001 16.2 3.08042 16.2 5.40001ZM15.781 9.31201C13.6577 11.3137 10.3422 11.3137 8.21893 9.31201C6.49283 10.1612 5.39959 11.9178 5.39996 13.8415V16.2H11.4V14.8749C10.749 14.5907 10.3865 13.8889 10.5316 13.1936C10.6767 12.4983 11.2897 12.0001 12 12.0001C12.7103 12.0001 13.3232 12.4983 13.4683 13.1936C13.6134 13.8889 13.251 14.5907 12.6 14.8749V16.2H18.6V13.8415C18.6003 11.9178 17.5071 10.1612 15.781 9.31201ZM20.9994 16.8H3.00054C2.79907 16.8 2.61105 16.9011 2.49996 17.0692C2.38888 17.2373 2.36956 17.4499 2.44854 17.6352L3.59996 21H4.79996V22.8H19.2V21H20.4L21.5513 17.6352C21.6303 17.4499 21.611 17.2373 21.4999 17.0692C21.3889 16.9011 21.2008 16.8 20.9994 16.8Z" fill="currentColor"/>
</svg>
