<svg width="24" height="24" viewBox="0 0 24 24" fill="currentColor" xmlns="http://www.w3.org/2000/svg">
<path fill-rule="evenodd" clip-rule="evenodd" d="M13.7925 2.31621C13.3516 1.82078 12.7252 1.52996 12.0622 1.51277C11.3992 1.49558 10.7586 1.75357 10.2926 2.22549L10.2912 2.22693C10.2638 2.25477 10.2369 2.28333 10.211 2.31237L4.19995 8.71197V20.112C4.19995 21.4375 5.27447 22.512 6.59995 22.512H17.4C18.7254 22.512 19.8 21.4375 19.8 20.112V8.71197L13.7925 2.31621ZM12 4.21197C12.8284 4.21197 13.5 4.88354 13.5 5.71197C13.5 6.54039 12.8284 7.21197 12 7.21197C11.1715 7.21197 10.5 6.54039 10.5 5.71197C10.5 4.88354 11.1715 4.21197 12 4.21197ZM8.79451 17.2792C8.65707 17.5007 8.3894 17.6041 8.13876 17.5326C7.88812 17.4611 7.71534 17.232 7.71547 16.9713C7.71527 16.8639 7.74556 16.7586 7.80283 16.6677C8.31809 15.8467 8.32617 14.8053 7.82371 13.9764C7.71636 13.7981 7.71229 13.576 7.81303 13.3939C7.91377 13.2118 8.10402 13.0972 8.31211 13.0934C8.5202 13.0896 8.71452 13.1971 8.82187 13.3754C9.54904 14.5779 9.53846 16.0871 8.79451 17.2792ZM10.8168 18.288C10.7049 18.496 10.5045 18.612 10.2988 18.612C10.1911 18.6117 10.0858 18.5804 9.99547 18.5217C9.70987 18.3384 9.61411 17.9364 9.78187 17.6241C10.5475 16.1988 10.5508 14.4259 9.79123 12.9974C9.62467 12.6844 9.72187 12.2829 10.0082 12.101C10.2945 11.9191 10.662 12.0252 10.8285 12.3384C11.8056 14.1753 11.801 16.4551 10.8168 18.288ZM12.3 19.5592C12.0849 19.5589 11.8865 19.4436 11.7798 19.257C11.6731 19.0704 11.6743 18.8409 11.783 18.6554C12.9898 16.5936 12.9887 14.0408 11.7801 11.98C11.6122 11.6943 11.7078 11.3266 11.9935 11.1588C12.2792 10.9909 12.6469 11.0864 12.8148 11.3721C14.2432 13.808 14.2445 16.8255 12.8181 19.2626C12.7104 19.4466 12.5131 19.5595 12.3 19.5592ZM14.7957 20.4482C14.6282 20.7341 14.2606 20.8301 13.9747 20.6625C13.6888 20.495 13.5928 20.1274 13.7604 19.8415C15.3978 17.0395 15.4016 13.5733 13.7702 10.7678C13.6607 10.5826 13.6587 10.3528 13.7652 10.1658C13.8716 9.97872 14.07 9.86298 14.2852 9.86246C14.5004 9.86194 14.6994 9.97671 14.8068 10.1632C16.6559 13.3433 16.6517 17.2721 14.7957 20.4482Z" fill="currentColor"/>
</svg>
