<svg width="24" height="24" viewBox="0 0 24 24" fill="currentColor" xmlns="http://www.w3.org/2000/svg">
<path fill-rule="evenodd" clip-rule="evenodd" d="M12 9.07252C7.20005 9.07252 6.00005 10.8725 1.80005 10.8725V13.8722C1.80005 15.529 6.36674 17.472 12 17.472C17.6334 17.472 22.2001 15.529 22.2001 13.8722V10.8724C18 10.8724 16.8 9.07252 12 9.07252ZM11.7583 7.72802C14.4237 7.72802 16.1047 8.25974 17.5877 8.72882C17.9723 8.8505 18.3421 8.96742 18.7165 9.07254C17.0332 7.79646 14.7262 6.52802 11.7583 6.52802C8.79041 6.52802 6.48339 7.79646 4.80005 9.07254C5.17445 8.9674 5.54429 8.85047 5.92891 8.72879C7.41199 8.25966 9.09293 7.72802 11.7583 7.72802Z" fill="currentColor"/>
</svg>
