<svg width="24" height="24" viewBox="0 0 24 24" fill="currentColor" xmlns="http://www.w3.org/2000/svg">
<path fill-rule="evenodd" clip-rule="evenodd" d="M5.65297 9.86762L3.27044 13.0742H5.6902V9.86762H5.65297ZM1.79999 14.6216V12.8878L5.80187 7.51862H7.47707V13.0556H8.68696V14.6029H7.47707V16.7469H5.6902V14.6216H1.79999ZM14.8531 16.6744C14.4217 16.8575 13.9579 16.952 13.4892 16.952C12.7697 16.952 12.1311 16.8326 11.5566 16.5821C10.9821 16.3317 10.4972 15.9869 10.1025 15.5475C9.70768 15.108 9.40499 14.5919 9.19444 13.9987C8.98388 13.4056 8.8786 12.7664 8.8786 12.081C8.8786 11.3781 8.98388 10.7256 9.19444 10.1236C9.40499 9.52168 9.70767 8.99665 10.1025 8.54855C10.4972 8.10042 10.9819 7.74894 11.5566 7.49411C12.1312 7.23928 12.7782 7.11195 13.4976 7.11195C13.9733 7.11091 14.4462 7.18429 14.8992 7.32945C15.3413 7.46945 15.7555 7.68581 16.123 7.96871C16.4894 8.25275 16.7958 8.60667 17.0245 9.00998C17.2613 9.42311 17.4061 9.89762 17.4589 10.4335H15.4848C15.3618 9.90626 15.1249 9.51084 14.7741 9.24724C14.4234 8.98364 13.9978 8.8518 13.4976 8.85172C13.0325 8.85172 12.6377 8.94178 12.3132 9.12191C11.9952 9.296 11.7242 9.54479 11.5236 9.84686C11.3163 10.1628 11.167 10.5132 11.0828 10.8815C10.9899 11.2745 10.9436 11.6771 10.9446 12.081C10.9438 12.4696 10.9902 12.8569 11.0828 13.2343C11.1687 13.5939 11.318 13.9353 11.5236 14.2426C11.7256 14.5417 11.9964 14.788 12.3132 14.9609C12.6377 15.1411 13.0325 15.2312 13.4976 15.2312C14.1819 15.2312 14.7105 15.0576 15.0833 14.7105C15.4561 14.3635 15.6799 13.8638 15.7414 13.2048H13.6567V11.6573H17.64L17.6214 16.7469H16.2812L16.0769 15.6793C15.7085 16.1538 15.3005 16.4854 14.8531 16.6744ZM18.024 9.22396H22.824V10.424H18.024V9.22396ZM21.024 7.39996V12.2H19.824V7.39996H21.024Z" fill="currentColor"/>
</svg>
