<svg width="24" height="24" viewBox="0 0 24 24" fill="currentColor" xmlns="http://www.w3.org/2000/svg">
<path fill-rule="evenodd" clip-rule="evenodd" d="M22.1925 8.41567C22.1922 8.40847 22.1919 8.40127 22.1916 8.39395C22.191 8.3784 22.1903 8.36275 22.1893 8.34732C22.1888 8.33892 22.1882 8.33052 22.1877 8.32209C22.1866 8.30755 22.1855 8.29303 22.1842 8.27853C22.1834 8.27009 22.1826 8.26165 22.1818 8.25321C22.1803 8.23819 22.1786 8.22319 22.1768 8.20821C22.1758 8.20058 22.175 8.19295 22.174 8.18534C22.1716 8.16728 22.169 8.14925 22.1662 8.13125C22.1656 8.12688 22.165 8.12249 22.1643 8.11814C22.1606 8.09541 22.1566 8.07273 22.1523 8.05013C22.1515 8.04605 22.1506 8.04199 22.1499 8.03791C22.1463 8.01954 22.1425 8.00121 22.1385 7.9829C22.137 7.97616 22.1354 7.96939 22.1338 7.96265C22.1302 7.9469 22.1265 7.93116 22.1225 7.91546C22.1207 7.9082 22.1188 7.90093 22.1169 7.89365C22.1129 7.87805 22.1086 7.86245 22.1042 7.84687C22.1023 7.84013 22.1004 7.83336 22.0985 7.82661C22.0934 7.80924 22.0882 7.79189 22.0827 7.77456C22.0812 7.76988 22.0798 7.76515 22.0783 7.76047C22.0639 7.71556 22.0481 7.67085 22.031 7.62636C22.0294 7.62213 22.0277 7.61791 22.026 7.61366C22.0191 7.59593 22.012 7.57821 22.0047 7.5605C22.0023 7.55472 21.9999 7.54896 21.9975 7.5432C21.9906 7.52678 21.9835 7.51039 21.9762 7.49402C21.9736 7.48817 21.971 7.48232 21.9683 7.47648C21.9606 7.45941 21.9526 7.44239 21.9445 7.42543C21.9422 7.42063 21.94 7.416 21.9377 7.41129C21.9273 7.38984 21.9166 7.36843 21.9056 7.34707C21.888 7.31281 21.8695 7.27872 21.8501 7.24478C21.8489 7.24255 21.8477 7.24032 21.8464 7.23809C21.8276 7.20517 21.8082 7.17243 21.7879 7.13985C21.7861 7.1369 21.7843 7.13393 21.7824 7.13095C21.7623 7.09857 21.7414 7.06635 21.7198 7.0343L21.714 7.02578C21.6921 6.9933 21.6694 6.96098 21.646 6.92882C21.6446 6.92693 21.6432 6.92503 21.6418 6.92313C21.5385 6.78251 21.4262 6.64877 21.3055 6.52274C21.2619 6.47695 21.2168 6.43155 21.1702 6.38654L21.1663 6.38275C21.1444 6.36166 21.1222 6.34065 21.0997 6.3197L21.0952 6.31553C21.0475 6.27132 20.9984 6.22749 20.948 6.18405L20.9444 6.18101C20.921 6.16094 20.8973 6.14094 20.8733 6.12101L20.8645 6.11381C20.8316 6.08659 20.798 6.05961 20.764 6.03273C20.7556 6.02606 20.7471 6.0194 20.7385 6.01274C20.7275 6.00413 20.7167 5.99546 20.7056 5.98687C20.683 5.96954 20.6603 5.95228 20.6374 5.93508L20.6304 5.92992C20.6097 5.91441 20.5888 5.89898 20.5677 5.88362L20.5569 5.8758C20.5369 5.8614 20.5168 5.847 20.4966 5.8326L20.4834 5.82333C20.4636 5.8094 20.4437 5.7955 20.4236 5.78165L20.4097 5.77205C20.3896 5.75825 20.3693 5.74451 20.3489 5.73081L20.3351 5.72157C20.3141 5.70757 20.293 5.69364 20.2717 5.67977L20.2597 5.67189C20.2372 5.65725 20.2144 5.64266 20.1915 5.62812C20.1887 5.62637 20.186 5.62459 20.1832 5.62281C20.1576 5.60661 20.1317 5.59049 20.1057 5.57445C20.0591 5.54565 20.0118 5.51719 19.9638 5.48906L19.9606 5.48717C19.9129 5.45913 19.8646 5.43137 19.8156 5.40389L19.8125 5.40213C19.7632 5.37447 19.7132 5.34708 19.6626 5.31996L19.661 5.31907C19.6099 5.29171 19.5582 5.26462 19.5058 5.23781C19.4629 5.21584 19.4196 5.1941 19.3757 5.1726C19.3631 5.16633 19.3503 5.16014 19.3376 5.15393C19.304 5.13748 19.2701 5.12117 19.2359 5.10499C19.224 5.09937 19.2123 5.09371 19.2003 5.08819C19.1559 5.06729 19.111 5.04658 19.0657 5.02605C19.0576 5.02236 19.0493 5.01871 19.0411 5.01504C19.003 4.9979 18.9646 4.98091 18.926 4.96406C18.9192 4.96111 18.9126 4.95809 18.9058 4.95513C18.8981 4.95177 18.8902 4.94851 18.8824 4.94517C18.8515 4.93183 18.8203 4.91857 18.7889 4.90538C18.7755 4.89972 18.7621 4.89403 18.7486 4.88841C18.704 4.86985 18.6591 4.85145 18.614 4.83321L18.6085 4.83098C18.5597 4.81143 18.5105 4.79208 18.461 4.77293L18.4567 4.77125C18.4068 4.75205 18.3565 4.73301 18.3058 4.71415C18.2592 4.69685 18.2122 4.67974 18.1649 4.66281L18.1503 4.65758C18.0573 4.62441 17.963 4.59197 17.8675 4.56026L17.8473 4.55359C17.8004 4.53812 17.7533 4.5228 17.7059 4.50763C17.6595 4.49285 17.6128 4.47825 17.5658 4.46383L17.5478 4.45833C17.5025 4.44449 17.4571 4.43081 17.4113 4.41729L17.4086 4.41645C17.359 4.40181 17.3091 4.38737 17.2588 4.37311C17.252 4.37114 17.245 4.36927 17.2381 4.3673C17.1952 4.35521 17.1522 4.34321 17.109 4.3313L17.1055 4.33022C17.0782 4.32273 17.0505 4.31544 17.0229 4.30809C17.0025 4.30262 16.9821 4.29705 16.9616 4.29165C16.9122 4.27868 16.8626 4.26588 16.8126 4.25325L16.8034 4.25085L16.7935 4.24845L16.7846 4.24632C16.6924 4.22318 16.5994 4.20067 16.5056 4.17878C16.3091 4.1331 16.1091 4.09037 15.9056 4.0506C15.7086 4.01205 15.5086 3.97637 15.3055 3.94356C15.1082 3.91169 14.9082 3.88263 14.7055 3.85639C14.5079 3.83079 14.3079 3.80797 14.1055 3.78792C13.9076 3.76832 13.7076 3.75144 13.5055 3.73728C13.4086 3.73051 13.3113 3.72438 13.2134 3.71889L13.2019 3.71822C13.1035 3.71275 13.0048 3.70795 12.9056 3.70382C12.8079 3.69976 12.7099 3.69637 12.6114 3.69365L12.6009 3.69336C12.5028 3.69067 12.4044 3.68861 12.3057 3.68719C12.202 3.68561 12.0978 3.68481 11.9935 3.68481C11.8972 3.68481 11.8012 3.68545 11.7055 3.68673H11.704C11.6055 3.688 11.5074 3.68995 11.4096 3.69259L11.3991 3.69288C11.3009 3.69552 11.2031 3.69881 11.1057 3.70274C11.0047 3.70684 10.904 3.71164 10.8039 3.71714C10.7274 3.72132 10.6515 3.72626 10.5756 3.73123C10.5523 3.73277 10.5288 3.73397 10.5056 3.73555C10.4115 3.74195 10.3172 3.74905 10.224 3.75686C10.2173 3.75744 10.2105 3.75787 10.2037 3.75842C10.1038 3.76673 10.0045 3.77572 9.90561 3.7854C9.80562 3.79519 9.70618 3.80567 9.60729 3.81684L9.6015 3.81749C9.5023 3.82869 9.4037 3.84057 9.3057 3.85313C9.2065 3.86593 9.10787 3.87934 9.00981 3.89337L8.99906 3.89491C8.90067 3.90912 8.80292 3.92398 8.7058 3.9395C8.60518 3.9556 8.50527 3.9724 8.40609 3.9899L8.40186 3.99065C8.30246 4.00825 8.20378 4.02655 8.10585 4.04556C7.90244 4.08506 7.70244 4.12752 7.50585 4.17293C7.40521 4.19616 7.3055 4.22016 7.20674 4.24493L7.19654 4.24749L7.19387 4.24817C7.15005 4.25919 7.10642 4.27035 7.06298 4.28165L7.04858 4.28537C7.00075 4.29788 6.95315 4.31054 6.90578 4.32336C6.8584 4.33617 6.81146 4.34917 6.76497 4.36233C6.75758 4.36442 6.75018 4.36649 6.74282 4.3686C6.64795 4.39545 6.5541 4.423 6.46125 4.45125L6.44313 4.4568C6.39714 4.47086 6.3514 4.48508 6.3059 4.49945C6.25673 4.51503 6.20786 4.53081 6.1593 4.5468L6.14373 4.55193C6.0483 4.58342 5.9541 4.61565 5.8611 4.64861C5.85465 4.65089 5.84824 4.65319 5.8419 4.65549C5.79635 4.67172 5.75108 4.6881 5.70609 4.70465C5.65732 4.72265 5.60893 4.74086 5.56091 4.75929L5.54445 4.76561C5.50632 4.78026 5.46842 4.79505 5.43076 4.80998C5.4165 4.81562 5.40246 4.82136 5.38828 4.82702C5.36474 4.83645 5.34114 4.84586 5.31777 4.85539C5.30313 4.86134 5.28868 4.86739 5.27411 4.87341C5.25131 4.88282 5.22851 4.89221 5.20588 4.90169C5.19165 4.90766 5.17758 4.91369 5.16342 4.91973C5.14422 4.92785 5.12502 4.93591 5.10611 4.94409C5.10273 4.94553 5.09939 4.94705 5.09601 4.94851C5.07614 4.9571 5.05646 4.96579 5.03673 4.97445C5.01892 4.98228 5.00102 4.99005 4.98333 4.99793C4.96216 5.00736 4.94123 5.01691 4.92023 5.02641C4.90422 5.03361 4.88812 5.04081 4.87223 5.04816C4.84823 5.05917 4.82447 5.07033 4.80066 5.08147C4.78802 5.0874 4.77522 5.09325 4.76262 5.09921C4.72632 5.11639 4.69032 5.13369 4.65462 5.15112L4.64874 5.15397C4.60074 5.17741 4.55324 5.20107 4.50623 5.22494C4.38783 5.28513 4.27272 5.34673 4.1609 5.40974C4.12317 5.43099 4.08605 5.45225 4.04954 5.47353C4.00086 5.50192 3.95286 5.53058 3.90554 5.55953C3.7715 5.64146 3.64308 5.72546 3.52026 5.81153C3.44666 5.86313 3.3751 5.91543 3.30556 5.96844C3.22215 6.03207 3.14186 6.09666 3.06467 6.16221C3.0395 6.18359 3.01466 6.20508 2.99015 6.22668C2.98931 6.22745 2.98842 6.22821 2.98756 6.22908C2.91409 6.29389 2.84369 6.35959 2.77636 6.42617L2.76971 6.43277C2.74803 6.45432 2.72666 6.47592 2.70561 6.49757C2.67532 6.52889 2.64572 6.56038 2.61681 6.59203L2.61292 6.59628C2.58452 6.62748 2.55682 6.65885 2.52981 6.69038L2.52616 6.69465C2.47048 6.75981 2.41777 6.82567 2.36802 6.89225C2.31828 6.95882 2.27163 7.02602 2.22808 7.09385L2.22734 7.095C2.20578 7.1286 2.18498 7.16236 2.16494 7.19628L2.16335 7.19894C2.14334 7.2331 2.12406 7.26733 2.10554 7.30161C2.0932 7.32451 2.0812 7.34749 2.06954 7.37054L2.06745 7.37469C2.03191 7.44535 1.99971 7.5166 1.97085 7.58844C1.96173 7.61119 1.95293 7.63421 1.94445 7.65708C1.94258 7.66217 1.94075 7.66725 1.93886 7.67232C1.93185 7.69118 1.92542 7.71024 1.91901 7.72929C1.91812 7.73196 1.91721 7.7346 1.91632 7.73724C1.90051 7.78484 1.88618 7.83267 1.87334 7.88073C1.873 7.88203 1.87266 7.88335 1.87233 7.88465C1.86663 7.90617 1.86125 7.92777 1.85618 7.94945C1.85493 7.95475 1.85378 7.96005 1.85253 7.96536C1.84838 7.98347 1.84446 8.00162 1.84077 8.01981C1.83954 8.02577 1.83837 8.03181 1.83717 8.03767C1.83339 8.05687 1.82986 8.07615 1.82658 8.09551C1.82589 8.09964 1.8251 8.10374 1.82442 8.10787C1.82052 8.13155 1.81698 8.15528 1.81379 8.17905C1.81346 8.18165 1.81319 8.18424 1.81286 8.18683C1.8102 8.20729 1.8078 8.22781 1.80566 8.24839C1.80491 8.25559 1.80429 8.26279 1.80362 8.26999C1.8021 8.28621 1.80074 8.30245 1.79956 8.31871C1.79898 8.32671 1.79844 8.33476 1.79793 8.34285C1.79692 8.35922 1.79613 8.37559 1.79553 8.39201C1.79524 8.39921 1.79488 8.40641 1.79466 8.41361C1.79394 8.43698 1.79349 8.46036 1.79349 8.48381V15.6827C1.79349 17.3855 3.67847 18.8812 6.52019 19.733C6.6783 19.7808 6.84969 19.751 6.98237 19.6526C7.11504 19.5542 7.19335 19.3989 7.19354 19.2337V12.7917C7.19365 12.451 6.96243 12.1538 6.6322 12.07C4.1039 11.4306 2.43143 10.3518 2.39416 9.12561C2.39346 9.10265 2.39063 8.87897 2.43626 8.81405C2.51941 8.6983 2.60933 8.58756 2.70554 8.48241C2.89067 8.27752 3.09126 8.08715 3.30554 7.91297C3.49762 7.75633 3.6979 7.61003 3.90554 7.47468C4.09469 7.35084 4.29469 7.23159 4.50554 7.11693C4.69715 7.01271 4.89715 6.91257 5.10554 6.8165C5.2988 6.72741 5.4988 6.64209 5.70554 6.56052C5.89995 6.48386 6.09995 6.41072 6.30554 6.34109C6.50074 6.27497 6.70074 6.21223 6.90554 6.15285C7.00054 6.1253 7.09654 6.09849 7.19354 6.07243C7.27974 6.04925 7.36669 6.02666 7.45437 6.00468C7.46666 6.00162 7.47967 6.00438 7.48966 6.01217C7.49965 6.01995 7.50551 6.0319 7.50554 6.04457V10.7896C7.40051 10.8139 7.29651 10.8389 7.19354 10.8648C7.09661 10.8892 7.00061 10.9142 6.90554 10.94C6.70094 10.9955 6.50094 11.0542 6.30554 11.1161C6.09893 11.1815 5.8978 11.2503 5.70215 11.3225C6.07384 11.447 6.47639 11.5606 6.90554 11.6618V11.5398C7.00054 11.514 7.09654 11.4889 7.19354 11.4646C7.29653 11.4387 7.40053 11.4136 7.50554 11.3894V11.8744C7.68762 12.0208 7.79353 12.2418 7.79354 12.4754V12.5399C7.89667 12.5165 8.00067 12.4938 8.10554 12.4719C8.23463 12.4451 8.36553 12.4201 8.49724 12.3959C8.56648 12.3831 8.6356 12.3702 8.70554 12.3583C8.7209 12.3556 8.73657 12.3533 8.75195 12.3507C8.78603 12.2867 8.82254 12.2239 8.86146 12.1624C8.98697 11.9649 9.1361 11.7835 9.30554 11.6222V11.0696C9.45844 11.05 9.61322 11.0326 9.7689 11.0163C9.66968 10.8348 9.59337 10.6416 9.54172 10.4413C9.46274 10.4504 9.3838 10.4597 9.30554 10.4697C9.10296 10.4957 8.90296 10.5245 8.70554 10.5561C8.50258 10.5886 8.30258 10.624 8.10554 10.6623V5.88926C8.10551 5.86973 8.11922 5.85287 8.13834 5.84892C8.3247 5.81052 8.51376 5.77489 8.70554 5.74202C8.90286 5.70815 9.10286 5.67728 9.30554 5.64941C9.5032 5.62221 9.7032 5.59795 9.90554 5.57664C10.1035 5.55584 10.3035 5.5379 10.5055 5.52283C10.7038 5.50809 10.9038 5.49622 11.1055 5.48721C11.3039 5.47843 11.5039 5.47253 11.7055 5.46953C11.8092 5.46793 11.9132 5.46713 12.0175 5.46713C12.1139 5.46713 12.2099 5.46781 12.3055 5.46919C12.507 5.47197 12.707 5.47766 12.9055 5.48625C13.1073 5.49494 13.3073 5.50656 13.5055 5.5211C13.7075 5.53587 13.9075 5.55355 14.1055 5.57414C14.3078 5.59517 14.5078 5.61917 14.7055 5.64614C14.9081 5.67374 15.1081 5.70434 15.3055 5.73794C15.4972 5.77055 15.6863 5.80591 15.8727 5.84402C15.8918 5.84797 15.9055 5.8648 15.9055 5.88432V10.6669C15.7086 10.6284 15.5086 10.5927 15.3055 10.5599C15.1082 10.5281 14.9082 10.499 14.7055 10.4727C14.6111 10.4605 14.5162 10.449 14.4207 10.4381C14.3693 10.6385 14.2932 10.8319 14.1942 11.0136C14.3662 11.0314 14.5367 11.0511 14.7055 11.0726V11.6707C14.8547 11.8197 14.9871 11.9846 15.1002 12.1625C15.1366 12.2198 15.1708 12.2782 15.2029 12.3377C15.237 12.3433 15.2716 12.3485 15.3055 12.3543C15.3758 12.3663 15.4453 12.3791 15.5149 12.3918C15.6462 12.4158 15.7768 12.4406 15.9055 12.4671C16.0023 12.4871 16.0982 12.5078 16.1934 12.5293V12.4756C16.1934 12.2312 16.3092 12.0013 16.5055 11.8559V11.3951C16.6024 11.4176 16.6984 11.4409 16.7935 11.4648C16.8986 11.4912 17.0026 11.5185 17.1055 11.5465V11.6563C17.5255 11.5566 17.92 11.4449 18.2848 11.3227C18.0968 11.2533 17.9038 11.187 17.7055 11.1237C17.5103 11.0615 17.3103 11.0025 17.1055 10.9466C17.0027 10.9185 16.8987 10.8913 16.7935 10.865C16.6984 10.841 16.6024 10.8177 16.5055 10.7952V6.03869C16.5056 6.026 16.5114 6.01403 16.5214 6.00623C16.5314 5.99843 16.5445 5.99565 16.5568 5.9987C16.6362 6.01851 16.7151 6.03881 16.7935 6.05961C16.8986 6.08749 17.0026 6.11623 17.1055 6.14585C17.3101 6.20481 17.5101 6.26721 17.7055 6.33305C17.9109 6.40217 18.1109 6.47485 18.3055 6.55111C18.5121 6.63207 18.7121 6.71687 18.9055 6.80551C19.1137 6.90082 19.3137 7.00029 19.5055 7.10393C19.716 7.21764 19.916 7.33604 20.1055 7.45913C20.313 7.59331 20.5133 7.73832 20.7055 7.89353C20.9194 8.06562 21.12 8.2536 21.3055 8.45585C21.3967 8.55601 21.4815 8.65787 21.5599 8.76144C21.5654 8.76948 21.5693 8.77842 21.5716 8.78784C21.6082 8.88828 21.5935 9.10289 21.593 9.12585C21.5623 10.4752 19.5055 11.6238 17.2833 12.0786C16.9703 12.1427 16.7935 12.414 16.7935 12.7335V19.2399C16.7937 19.4036 16.8714 19.5576 17.0029 19.6551C17.1344 19.7526 17.3042 19.7822 17.461 19.7348C20.3059 18.8832 22.1935 17.3867 22.1935 15.6827V8.48395C22.1935 8.46115 22.1931 8.4384 22.1925 8.41567ZM3.90554 6.73644C3.90551 6.75067 3.8981 6.76387 3.88598 6.77131C3.70391 6.88331 3.53235 6.99912 3.3713 7.11873C3.35885 7.12808 3.3422 7.12959 3.32828 7.12264C3.31436 7.1157 3.30555 7.10149 3.30554 7.08593V6.71361C3.3055 6.70207 3.31032 6.69103 3.31881 6.68321C3.4835 6.53269 3.65792 6.39319 3.84095 6.26561C3.85352 6.25688 3.8699 6.25586 3.88346 6.26295C3.89702 6.27004 3.90552 6.28407 3.90554 6.29937V6.73644ZM5.10554 6.11724C5.1055 6.13357 5.09578 6.14834 5.08079 6.15482C4.90286 6.23201 4.73086 6.31209 4.56479 6.39506C4.55209 6.40141 4.53702 6.40073 4.52494 6.39326C4.51287 6.3858 4.50554 6.37261 4.50554 6.35841V5.88053C4.50552 5.86539 4.51382 5.85147 4.52714 5.84429C4.69248 5.75491 4.86587 5.66865 5.04731 5.58549C5.06006 5.5797 5.07488 5.58077 5.08666 5.58834C5.09844 5.5959 5.10558 5.60893 5.10561 5.62293L5.10554 6.11724ZM6.30554 5.66961C6.3055 5.68747 6.29393 5.70326 6.2769 5.70866C6.10076 5.76485 5.92862 5.82353 5.7605 5.88468C5.74795 5.88932 5.73393 5.88752 5.72297 5.87986C5.712 5.8722 5.70549 5.85965 5.70554 5.84628V5.33933C5.7055 5.32219 5.71608 5.30683 5.7321 5.30076C5.90025 5.23745 6.07337 5.17665 6.25146 5.11836C6.26403 5.11427 6.2778 5.11645 6.28849 5.12421C6.29919 5.13197 6.30552 5.14438 6.30554 5.1576V5.66961ZM7.50554 5.34048C7.5055 5.35956 7.49233 5.37611 7.47374 5.38041C7.37951 5.40238 7.28611 5.425 7.19354 5.44826C7.11408 5.46823 7.03524 5.48866 6.95702 5.50956C6.94472 5.5129 6.93156 5.51029 6.92146 5.50252C6.91136 5.49475 6.90547 5.4827 6.90553 5.46996V4.95511C6.90549 4.93649 6.91797 4.92017 6.93594 4.91532C7.02103 4.89242 7.1069 4.8701 7.19354 4.84836C7.28018 4.82661 7.36733 4.80545 7.45499 4.78488C7.46723 4.78202 7.4801 4.78491 7.48994 4.79272C7.49978 4.80052 7.50553 4.81239 7.50554 4.82496V5.34048ZM8.70554 11.156V11.756C8.50258 11.7885 8.30258 11.8239 8.10554 11.8622V11.2622C8.30253 11.2239 8.50253 11.1885 8.70554 11.156ZM8.70554 5.10465C8.7055 5.12477 8.69088 5.14189 8.67102 5.14509C8.49654 5.17337 8.32426 5.20377 8.15416 5.23629C8.14215 5.23864 8.12973 5.23548 8.12031 5.22767C8.11089 5.21987 8.10547 5.20825 8.10554 5.19602V4.67976C8.10551 4.66003 8.1195 4.64306 8.13887 4.63932C8.30953 4.60652 8.48246 4.57584 8.65766 4.54728C8.6696 4.54531 8.68182 4.54868 8.69106 4.55651C8.7003 4.56434 8.70563 4.57582 8.70566 4.58793L8.70554 5.10465ZM9.90554 4.94829C9.90551 4.96938 9.88951 4.98702 9.86853 4.98909C9.69454 5.00642 9.52223 5.02583 9.35159 5.04732C9.33989 5.04884 9.32811 5.04522 9.31928 5.0374C9.31045 5.02958 9.30544 5.01831 9.30553 5.00652V4.48944C9.30553 4.46871 9.32097 4.45123 9.34154 4.44864C9.51274 4.42701 9.68565 4.40745 9.86027 4.38998C9.87183 4.38886 9.88333 4.39266 9.89194 4.40045C9.90055 4.40824 9.90549 4.41929 9.90554 4.4309V4.94829ZM11.1055 4.86338C11.1055 4.88536 11.0882 4.90341 11.0662 4.90433C10.8926 4.9117 10.7203 4.9211 10.5492 4.93253C10.5379 4.93333 10.5268 4.92939 10.5185 4.92165C10.5102 4.91391 10.5055 4.90307 10.5055 4.89173V4.374C10.5055 4.35229 10.5223 4.33427 10.5439 4.33281C10.7155 4.32134 10.8884 4.31188 11.0626 4.30442C11.0738 4.30395 11.0848 4.30807 11.0929 4.31584C11.101 4.3236 11.1056 4.33433 11.1056 4.34556L11.1055 4.86338ZM12.3055 4.84545C12.3055 4.85642 12.3012 4.86692 12.2934 4.87463C12.2856 4.88233 12.275 4.88659 12.264 4.88645C12.1742 4.88531 12.084 4.88473 11.9935 4.88469C11.9111 4.88469 11.8289 4.88517 11.747 4.88613C11.736 4.88626 11.7255 4.88199 11.7177 4.87426C11.7099 4.86654 11.7055 4.85602 11.7055 4.84505V4.32732C11.7055 4.30478 11.7236 4.28642 11.7462 4.28613C11.8284 4.28525 11.9108 4.28481 11.9935 4.28481C12.0843 4.28481 12.1748 4.2854 12.265 4.28657C12.2874 4.28688 12.3055 4.30516 12.3055 4.32763V4.84545ZM13.5055 4.89324C13.5055 4.90458 13.5008 4.9154 13.4925 4.92314C13.4842 4.93087 13.4731 4.93482 13.4618 4.93404C13.2908 4.92242 13.1185 4.91282 12.9448 4.90524C12.9229 4.90433 12.9056 4.88635 12.9055 4.86444V4.34661C12.9056 4.33538 12.9102 4.32464 12.9183 4.31688C12.9264 4.30911 12.9373 4.30499 12.9485 4.30548C13.1228 4.31309 13.2957 4.32277 13.4672 4.33452C13.4889 4.33596 13.5057 4.35393 13.5056 4.37561L13.5055 4.89324ZM14.7055 5.00969C14.7056 5.02147 14.7006 5.03271 14.6917 5.0405C14.6829 5.04829 14.6711 5.05188 14.6594 5.05034C14.4888 5.02866 14.3165 5.00905 14.1425 4.99149C14.1215 4.98941 14.1055 4.97177 14.1055 4.95069V4.43333C14.1056 4.42168 14.1105 4.41058 14.1191 4.40277C14.1278 4.39497 14.1393 4.39119 14.1509 4.39236C14.3255 4.41005 14.4985 4.42982 14.6697 4.45166C14.6902 4.45425 14.7056 4.47174 14.7057 4.49246L14.7055 5.00969ZM15.9055 11.8668C15.7086 11.8283 15.5086 11.7926 15.3055 11.7598V11.1598C15.5085 11.1926 15.7085 11.2283 15.9055 11.2668V11.8668ZM15.9055 5.20075C15.9056 5.21298 15.9002 5.2246 15.8907 5.23239C15.8813 5.24018 15.8689 5.24334 15.8569 5.24097C15.6868 5.20821 15.5145 5.17756 15.34 5.14903C15.3201 5.14581 15.3055 5.12865 15.3055 5.10852V4.59201C15.3056 4.57991 15.3109 4.56843 15.3201 4.5606C15.3294 4.55278 15.3416 4.54941 15.3535 4.55138C15.5287 4.58018 15.7016 4.61109 15.8723 4.64409C15.8916 4.64789 15.9055 4.66477 15.9055 4.68441V5.20075ZM17.1055 5.47649C17.1056 5.48925 17.0996 5.50129 17.0895 5.50906C17.0794 5.51682 17.0662 5.51942 17.0539 5.51609C16.9679 5.49292 16.8811 5.47034 16.7935 5.44836C16.7087 5.42706 16.6233 5.40626 16.5373 5.38596C16.5187 5.38164 16.5056 5.36512 16.5055 5.34607V4.83062C16.5056 4.81803 16.5114 4.80615 16.5212 4.79834C16.5311 4.79053 16.544 4.78765 16.5563 4.79052C16.636 4.80933 16.7151 4.82862 16.7935 4.84838C16.8883 4.87221 16.9822 4.8967 17.0752 4.92187C17.0931 4.92673 17.1056 4.94303 17.1055 4.96161V5.47649ZM18.3055 5.85499C18.3056 5.86838 18.2991 5.88095 18.2881 5.88861C18.2771 5.89628 18.2631 5.89806 18.2505 5.89339C18.0825 5.8319 17.9104 5.77286 17.7341 5.71627C17.7171 5.71085 17.7056 5.69509 17.7055 5.67727V5.16547C17.7056 5.15226 17.7119 5.13987 17.7227 5.13213C17.7334 5.12439 17.7471 5.12224 17.7597 5.12635C17.9377 5.18496 18.1108 5.24616 18.279 5.30995C18.2949 5.31604 18.3055 5.33132 18.3054 5.34835L18.3055 5.85499ZM19.5055 6.37068C19.5056 6.38492 19.4982 6.39815 19.4861 6.40562C19.4739 6.41309 19.4588 6.41372 19.4461 6.40728C19.2803 6.32381 19.1083 6.24319 18.9301 6.16543C18.9152 6.15887 18.9055 6.14409 18.9055 6.12777V5.634C18.9056 5.61997 18.9127 5.60692 18.9245 5.59936C18.9364 5.5918 18.9512 5.59077 18.964 5.59663C19.1453 5.68036 19.3187 5.76729 19.4842 5.85744C19.4974 5.86468 19.5056 5.87856 19.5055 5.89363V6.37068ZM20.7055 7.10385C20.7055 7.11945 20.6967 7.13369 20.6827 7.14062C20.6687 7.14756 20.6521 7.14598 20.6396 7.13657C20.4789 7.01607 20.3074 6.89927 20.125 6.78617C20.1129 6.77871 20.1056 6.76555 20.1055 6.75137V6.31641C20.1056 6.30107 20.1141 6.28701 20.1277 6.27994C20.1414 6.27288 20.1578 6.27399 20.1703 6.28281C20.3537 6.4119 20.5281 6.55314 20.6926 6.7056C20.7009 6.71343 20.7056 6.72437 20.7056 6.73581L20.7055 7.10385ZM13.6846 11.6658C13.6828 11.665 13.681 11.664 13.6792 11.6631C13.5554 11.7799 13.4198 11.8836 13.2748 11.9727C12.4786 12.4517 11.483 12.4517 10.6869 11.9727C10.5418 11.8836 10.4063 11.7799 10.2824 11.6631C10.2806 11.664 10.2789 11.665 10.2771 11.6658C9.50497 12.0485 9.01639 12.8357 9.01612 13.6974V15.2667C9.01624 15.8445 9.48469 16.3128 10.0625 16.3128V19.5954C10.0626 19.9806 10.3749 20.2928 10.7601 20.2928H13.2016C13.5868 20.2928 13.8991 19.9806 13.8991 19.5954V16.3128C14.477 16.3128 14.9454 15.8445 14.9455 15.2667V13.6974C14.945 12.8357 14.4565 12.0487 13.6846 11.6658ZM10.9018 11.3986C11.0438 11.497 11.1985 11.5756 11.3616 11.6325L11.3664 11.6341C11.3972 11.6448 11.4284 11.6547 11.46 11.6638C11.4666 11.6657 11.4733 11.6676 11.4799 11.6694C12.4128 11.929 13.3933 11.4545 13.7685 10.5618C14.1437 9.66904 13.7967 8.63658 12.9584 8.15171C12.1202 7.66684 11.0522 7.88078 10.4654 8.65112C9.87866 9.42146 9.95612 10.5079 10.6462 11.1872C10.6407 11.1831 10.6353 11.1788 10.6297 11.1748C10.7134 11.2576 10.8044 11.3325 10.9018 11.3986Z" fill="currentColor"/>
</svg>
