<svg width="24" height="24" viewBox="0 0 24 24" fill="currentColor" xmlns="http://www.w3.org/2000/svg">
<path fill-rule="evenodd" clip-rule="evenodd" d="M15 18C15 18.9941 15.8059 19.8 16.8 19.8C17.7941 19.8 18.6 18.9941 18.6 18C18.6 17.0059 17.7941 16.2 16.8 16.2C15.8059 16.2 15 17.0059 15 18ZM4.79998 18C4.79998 18.9941 5.60586 19.8 6.59998 19.8C7.59409 19.8 8.39998 18.9941 8.39998 18C8.39998 17.0059 7.59409 16.2 6.59998 16.2C5.60586 16.2 4.79998 17.0059 4.79998 18ZM0.599976 8.4C0.599976 8.40063 0.599976 8.40123 0.599976 8.40185V17.4L4.21531 17.7287C4.35898 16.4639 5.46503 15.5313 6.73586 15.6034C8.00669 15.6755 9.00022 16.7271 8.99998 18H14.4C14.4 16.6745 15.4745 15.6 16.8 15.6C18.1255 15.6 19.2 16.6745 19.2 18H22.8C23.1313 18 23.4 17.7314 23.4 17.4C23.4 17.4003 23.4 17.3997 23.4 17.4V13.8V8.4C23.4 8.06863 23.1313 7.8 22.8 7.8H1.19998C0.868605 7.8 0.599976 8.06863 0.599976 8.4ZM19.8 9.3C19.8 9.13432 19.9343 9 20.1 9H21.9C22.0657 9 22.2 9.13432 22.2 9.3C22.2 9.29984 22.2 9.30015 22.2 9.3V15.8995C22.2 15.8994 22.2 15.8997 22.2 15.8995C22.2 16.0652 22.0657 16.2 21.9 16.2H20.1C19.9343 16.2 19.8 16.0657 19.8 15.9V9.3ZM13.8 9.3C13.8 9.13432 13.9343 9 14.1 9H18.3C18.4657 9 18.6 9.13432 18.6 9.3C18.6 9.29984 18.6 9.30015 18.6 9.3V12.2995C18.6 12.2994 18.6 12.2997 18.6 12.2995C18.6 12.4652 18.4657 12.6 18.3 12.6H14.1C13.9343 12.6 13.8 12.4657 13.8 12.3V9.3ZM7.79998 12.2995V9.30048C7.79998 9.30063 7.79998 9.30031 7.79998 9.30048C7.79998 9.1348 7.93429 9 8.09998 9H12.3C12.4657 9 12.6 9.13432 12.6 9.3V12.3C12.6 12.4657 12.4657 12.6 12.3 12.6H8.09998C7.93429 12.6 7.79998 12.4652 7.79998 12.2995C7.79998 12.2994 7.79998 12.2997 7.79998 12.2995ZM1.79998 12.2995V9.30048C1.79998 9.30063 1.79998 9.30031 1.79998 9.30048C1.79998 9.1348 1.93429 9 2.09998 9H6.29998C6.46566 9 6.59998 9.13432 6.59998 9.3V12.3C6.59998 12.4657 6.46566 12.6 6.29998 12.6H2.09998C1.93429 12.6 1.79998 12.4652 1.79998 12.2995C1.79998 12.2994 1.79998 12.2997 1.79998 12.2995Z" fill="currentColor"/>
</svg>
