<svg width="24" height="24" viewBox="0 0 24 24" fill="currentColor" xmlns="http://www.w3.org/2000/svg">
<path fill-rule="evenodd" clip-rule="evenodd" d="M15 1.80005V5.40005C15 6.06279 15.4776 6.60005 16.0667 6.60005H19.8L15 1.80005ZM16.2 7.80005C14.8745 7.80005 13.8 6.72553 13.8 5.40005V1.80005H4.20001V20.9946V21C4.20001 21.6628 4.73727 22.2001 5.40001 22.2001H19.8V7.80005H16.2ZM7.80001 15.6H16.2C16.5314 15.6 16.8 15.8687 16.8 16.2C16.8 16.5314 16.5314 16.8 16.2 16.8H7.80001C7.46864 16.8 7.20001 16.5314 7.20001 16.2C7.20001 15.8687 7.46864 15.6 7.80001 15.6ZM7.80001 12.6H16.2C16.5314 12.6 16.8 12.8687 16.8 13.2C16.8 13.5314 16.5314 13.8 16.2 13.8H7.80001C7.46864 13.8 7.20001 13.5314 7.20001 13.2C7.20001 12.8687 7.46864 12.6 7.80001 12.6ZM7.80001 18.6H12C12.3314 18.6 12.6 18.8687 12.6 19.2001C12.6 19.5314 12.3314 19.8 12 19.8H7.80001C7.46864 19.8 7.20001 19.5314 7.20001 19.2001C7.20001 18.8687 7.46864 18.6 7.80001 18.6ZM11.8106 8.86178C11.4333 9.74614 10.7789 10.1518 9.68939 10.1518C8.99312 10.1518 8.42128 9.96122 7.98966 9.54156C7.58946 9.15238 7.34387 8.65133 7.22471 8.05711H6.8614C6.60174 8.05711 6.43201 7.8822 6.43201 7.62797C6.43201 7.36968 6.59788 7.1658 6.8614 7.1658H7.15866C7.15763 7.06678 7.15866 6.95069 7.15866 6.9018C7.15866 6.82995 7.15494 6.80278 7.15866 6.67073H6.8614C6.60174 6.67073 6.43201 6.46301 6.43201 6.20856C6.43201 5.95411 6.60174 5.71339 6.8614 5.71339H7.25761C7.39331 5.08615 7.6504 4.5353 8.05062 4.15265C8.47998 3.74184 9.04674 3.55205 9.68939 3.55205C10.7419 3.55205 11.4258 3.97646 11.7803 4.84505C11.816 4.92042 11.8339 5.00301 11.8326 5.08642C11.8326 5.28653 11.7124 5.45918 11.5027 5.54621L11.495 5.56481H11.4868C11.4268 5.59781 11.3478 5.58456 11.2713 5.58456C11.0687 5.58456 10.9057 5.44843 10.8238 5.2518C10.5981 4.7094 10.301 4.50418 9.68939 4.50418C8.98184 4.50418 8.47408 4.88806 8.24862 5.71337H10.4946C10.7582 5.71337 10.9134 5.94746 10.9134 6.20057C10.9134 6.45989 10.7543 6.67066 10.4946 6.67066H8.1165C8.11266 6.80266 8.1165 6.82471 8.1165 6.90173C8.1165 6.94848 8.1153 7.0668 8.1165 7.16573H10.0983C10.3657 7.16573 10.508 7.36587 10.508 7.6279C10.508 7.87831 10.354 8.05704 10.0983 8.05704H8.21557C8.41835 8.84933 8.93977 9.19385 9.68939 9.19385C10.3369 9.19385 10.6209 8.98606 10.8154 8.50217L10.816 8.50032L10.8169 8.49854C10.9098 8.2831 11.0768 8.16446 11.2869 8.16446C11.3468 8.16531 11.4062 8.17508 11.4632 8.19346C11.6911 8.25538 11.856 8.45381 11.856 8.65944C11.8568 8.72951 11.8413 8.79882 11.8106 8.86178Z" fill="currentColor"/>
</svg>
