<svg width="24" height="24" viewBox="0 0 24 24" fill="currentColor" xmlns="http://www.w3.org/2000/svg">
<path fill-rule="evenodd" clip-rule="evenodd" d="M21.5699 11.3699C21.3269 11.6133 21.0549 11.8258 20.76 12.0029V15.84H3.24V6.24005H14.9972C15.352 5.65003 15.8457 5.15568 16.4352 4.80005H1.8V17.28H5.4V19.2H18.6V17.28H22.2V10.5648C22.0235 10.8579 21.8119 11.1282 21.5699 11.3699ZM12 18.12C11.6024 18.12 11.28 17.7977 11.28 17.4C11.28 17.0024 11.6024 16.68 12 16.68C12.3976 16.68 12.72 17.0024 12.72 17.4C12.72 17.7977 12.3976 18.12 12 18.12ZM18.6 4.80005C16.6118 4.80005 15 6.41182 15 8.40005C15 10.3883 16.6118 12 18.6 12C20.5882 12 22.2 10.3883 22.2 8.40005C22.2 7.44527 21.8207 6.5296 21.1456 5.85446C20.4705 5.17933 19.5548 4.80005 18.6 4.80005ZM21 8.88005H19.08V10.8H18.12V8.88005H16.2V7.92005H18.12V6.00005H19.08V7.92005H21V8.88005Z" fill="currentColor"/>
</svg>
