<svg width="24" height="24" viewBox="0 0 24 24" fill="currentColor" xmlns="http://www.w3.org/2000/svg">
<path fill-rule="evenodd" clip-rule="evenodd" d="M19.8 1.80005H12C6.36668 1.80005 1.79999 6.36674 1.79999 12C1.79999 17.6334 6.36668 22.2001 12 22.2001C17.6333 22.2001 22.2 17.6334 22.2 12V4.20005C22.2 2.87457 21.1255 1.80005 19.8 1.80005ZM14.8665 18.3149C14.1042 19.08 11.2638 18.3551 8.45605 15.5384C5.64884 12.7212 4.91531 9.98078 5.68885 9.10644C7.22212 7.57702 7.15429 7.28604 8.36245 8.79372C9.56996 10.3014 9.4898 10.2082 8.29487 11.4071C7.81871 11.8847 8.81288 13.0933 9.85302 14.1368C10.8932 15.1802 12.0974 16.1778 12.5737 15.7004C13.7632 14.5068 13.6758 14.4207 15.1778 15.6329C16.6806 16.8446 16.484 16.6918 14.8665 18.3149ZM20.1602 8.84803C20.1632 9.31874 19.8819 9.74476 19.4479 9.92697C19.0139 10.1092 18.5128 10.0116 18.1789 9.67982C17.845 9.34804 17.7442 8.8476 17.9236 8.41243C18.1031 7.97725 18.5273 7.69329 18.998 7.69327C19.0652 7.69366 19.1323 7.69951 19.1986 7.71077V5.6321L15.9565 6.486V10.2459C15.9597 10.7168 15.6786 11.1431 15.2445 11.3255C14.8104 11.5079 14.3091 11.4104 13.9751 11.0786C13.641 10.7467 13.5401 10.2462 13.7196 9.81086C13.899 9.37555 14.3234 9.09151 14.7943 9.09154C14.8665 9.09147 14.9386 9.09807 15.0096 9.11126V5.09381H15.0124L19.2648 3.98489C19.3271 3.97211 19.3902 3.9638 19.4537 3.96005C19.8426 3.95879 20.1588 4.27295 20.1602 4.66181V8.84803Z" fill="currentColor"/>
</svg>
