<svg width="24" height="24" viewBox="0 0 24 24" fill="currentColor" xmlns="http://www.w3.org/2000/svg">
<path fill-rule="evenodd" clip-rule="evenodd" d="M9.23009 18.7013L8.37485 19.212C8.28389 19.2663 8.16619 19.2378 8.11018 19.1478L7.82494 18.6899C7.76841 18.5992 7.79579 18.4798 7.88623 18.4227L8.82312 17.832C8.87955 17.7964 8.91377 17.7343 8.91377 17.6676C8.91377 17.6009 8.87955 17.5388 8.82312 17.5032L7.88621 16.9124C7.79578 16.8553 7.7684 16.736 7.82491 16.6452L8.11018 16.1872C8.16619 16.0973 8.28389 16.0688 8.37485 16.1231L9.23009 16.6338C9.29015 16.6697 9.36484 16.6705 9.42567 16.636C9.4865 16.6014 9.52409 16.5369 9.52411 16.467V15.3615C9.52411 15.3099 9.54459 15.2605 9.58105 15.224C9.61751 15.1875 9.66695 15.1671 9.71851 15.1671H10.3146C10.3662 15.1671 10.4156 15.1875 10.4521 15.224C10.4885 15.2605 10.509 15.3099 10.509 15.3615V16.4668C10.509 16.5368 10.5466 16.6013 10.6075 16.6358C10.6683 16.6704 10.743 16.6696 10.803 16.6337L11.6583 16.1231C11.7493 16.0688 11.8669 16.0973 11.9229 16.1872L12.2068 16.6429C12.2342 16.6869 12.2429 16.74 12.231 16.7904C12.219 16.8409 12.1875 16.8845 12.1433 16.9115L11.1783 17.5019C11.1205 17.5372 11.0854 17.6 11.0854 17.6677C11.0854 17.7354 11.1205 17.7982 11.1783 17.8335L12.1432 18.4237C12.1874 18.4507 12.219 18.4943 12.2309 18.5447C12.2429 18.5952 12.2342 18.6483 12.2068 18.6923L11.9229 19.148C11.8669 19.2379 11.7493 19.2664 11.6583 19.2121L10.803 18.7014C10.7429 18.6655 10.6682 18.6647 10.6074 18.6992C10.5466 18.7338 10.509 18.7983 10.509 18.8683V19.9736C10.509 20.0252 10.4885 20.0746 10.452 20.1111C10.4156 20.1475 10.3661 20.168 10.3146 20.168H9.71851C9.61115 20.168 9.52411 20.081 9.52411 19.9736V18.8682C9.5241 18.7982 9.48651 18.7337 9.42568 18.6991C9.36485 18.6646 9.29015 18.6654 9.23009 18.7013ZM14.9889 15.3416L14.1336 15.8523C14.0427 15.9066 13.925 15.8781 13.869 15.7882L13.5838 15.3303C13.5273 15.2395 13.5547 15.1202 13.6451 15.0632L14.5819 14.4725C14.6384 14.4369 14.6726 14.3748 14.6726 14.3081C14.6726 14.2414 14.6384 14.1793 14.5819 14.1437L13.645 13.5528C13.5546 13.4958 13.5272 13.3764 13.5837 13.2857L13.869 12.8277C13.925 12.7378 14.0427 12.7093 14.1336 12.7636L14.9889 13.2743C15.049 13.3102 15.1236 13.311 15.1845 13.2765C15.2453 13.2419 15.2829 13.1774 15.2829 13.1074V12.0018C15.2829 11.8945 15.37 11.8074 15.4773 11.8074H16.0734C16.1807 11.8074 16.2678 11.8945 16.2678 12.0018V13.1072C16.2678 13.1771 16.3054 13.2417 16.3662 13.2762C16.4271 13.3108 16.5018 13.3099 16.5618 13.2741L17.4171 12.7635C17.508 12.7092 17.6257 12.7377 17.6817 12.8276L17.9656 13.2833C17.993 13.3273 18.0017 13.3804 17.9897 13.4308C17.9778 13.4813 17.9462 13.5248 17.902 13.5519L16.937 14.1423C16.8793 14.1776 16.8441 14.2404 16.8441 14.3081C16.8441 14.3758 16.8793 14.4386 16.937 14.4739L17.9022 15.064C17.9464 15.091 17.978 15.1346 17.9899 15.185C18.0018 15.2354 17.9931 15.2885 17.9658 15.3325L17.6818 15.7882C17.6258 15.8781 17.5081 15.9066 17.4171 15.8524L16.5619 15.3417C16.5018 15.3059 16.4271 15.305 16.3662 15.3396C16.3054 15.3741 16.2678 15.4387 16.2678 15.5086V16.614C16.2678 16.7213 16.1807 16.8084 16.0734 16.8084H15.4773C15.3699 16.8084 15.2829 16.7213 15.2829 16.614V15.5085C15.2829 15.4386 15.2453 15.374 15.1845 15.3395C15.1237 15.3049 15.049 15.3057 14.9889 15.3416ZM20.9795 11.744C21.037 11.3855 21.0658 11.023 21.0659 10.6599C21.0659 7.00429 18.1803 4.00046 14.5276 3.85382C14.4367 3.85027 14.3456 3.84799 14.254 3.84799H14.248C14.0925 3.84799 13.9368 3.85411 13.7814 3.86496C12.0107 3.9857 10.3575 4.79472 9.17578 6.1189C9.07872 6.11003 8.98202 6.10562 8.88566 6.10565C7.44932 6.10902 6.19752 7.08454 5.84333 8.47654C4.87276 8.68329 3.98367 9.16894 3.28522 9.87386C2.33145 10.8326 1.79578 12.13 1.79578 13.4824C1.79578 15.9482 3.54881 18.0121 5.8741 18.494C6.0512 18.5301 6.23513 18.4846 6.375 18.3701C6.51487 18.2556 6.59586 18.0844 6.59556 17.9036C6.59467 17.617 6.39264 17.3705 6.11182 17.3132C4.33718 16.942 3.00022 15.3654 3.00022 13.4822C3.00076 11.5061 4.47381 9.84017 6.43498 9.5977L6.91385 9.5393L6.95897 9.0835C7.00813 8.55695 7.26674 8.07222 7.67671 7.73818C8.01966 7.46093 8.4474 7.30984 8.8884 7.31021C8.95296 7.31021 9.01784 7.31341 9.08304 7.31981C9.15385 7.32684 9.22422 7.33773 9.29383 7.35245L9.65592 7.42913L9.88788 7.14074C10.8608 5.93072 12.2931 5.17982 13.8417 5.06791C13.9772 5.05793 14.1129 5.05236 14.2486 5.05236H14.2535C14.3341 5.05236 14.4143 5.05438 14.4943 5.05774C14.7162 5.06703 14.9373 5.08938 15.1565 5.12465C17.8691 5.56799 19.8609 7.91143 19.8613 10.66C19.8613 11.0577 19.8193 11.4543 19.7359 11.8432L19.6578 12.2071L19.9465 12.4381C20.6063 12.9663 20.9904 13.7657 20.9905 14.611C20.9904 15.3496 20.697 16.0585 20.1747 16.5807C19.6523 17.103 18.944 17.3963 18.2053 17.3963H14.3975C14.0649 17.3963 13.7953 17.6658 13.7952 17.9984C13.7952 18.1581 13.8587 18.3113 13.9716 18.4242C14.0846 18.5371 14.2377 18.6006 14.3975 18.6006H18.2053C20.405 18.6006 22.1946 16.8114 22.1949 14.6118C22.1984 13.53 21.7593 12.4938 20.9795 11.744Z" fill="currentColor"/>
</svg>
