<svg width="24" height="24" viewBox="0 0 24 24" fill="currentColor" xmlns="http://www.w3.org/2000/svg">
<path fill-rule="evenodd" clip-rule="evenodd" d="M16.3306 14.221L14.1216 12.012L16.3276 9.80595C16.4717 9.66188 16.5526 9.46648 16.5526 9.26273C16.5526 9.05898 16.4717 8.86358 16.3276 8.71951L15.3044 7.69632C15.1604 7.55225 14.965 7.4713 14.7612 7.4713C14.5575 7.4713 14.3621 7.55225 14.218 7.69632L12.012 9.90238L9.81795 7.70835C9.67388 7.56427 9.47848 7.48333 9.27473 7.48333C9.07098 7.48333 8.87558 7.56427 8.73151 7.70835L7.70832 8.73154C7.56425 8.8756 7.4833 9.07101 7.4833 9.27476C7.4833 9.4785 7.56425 9.67391 7.70832 9.81797L9.90238 12.012L7.69035 14.224C7.54627 14.3681 7.46533 14.5635 7.46533 14.7672C7.46533 14.971 7.54627 15.1664 7.69035 15.3104L8.71354 16.3336C8.8576 16.4777 9.05301 16.5587 9.25675 16.5587C9.4605 16.5587 9.6559 16.4777 9.79997 16.3336L12.012 14.1216L14.221 16.3306C14.3651 16.4747 14.5605 16.5556 14.7642 16.5556C14.968 16.5556 15.1634 16.4747 15.3074 16.3306L16.3306 15.3074C16.4747 15.1634 16.5556 14.968 16.5556 14.7642C16.5556 14.5605 16.4747 14.3651 16.3306 14.221ZM19.2246 4.79938C15.2412 0.815979 8.78278 0.815979 4.79938 4.79938C0.815979 8.78278 0.815979 15.2412 4.79938 19.2246C8.78278 23.208 15.2412 23.208 19.2246 19.2246C23.208 15.2412 23.208 8.78278 19.2246 4.79938ZM17.5275 17.5275C14.4814 20.5736 9.54255 20.5736 6.49647 17.5275C3.45039 14.4814 3.45036 9.54255 6.49647 6.49647C9.54257 3.45039 14.4814 3.45036 17.5275 6.49647C20.5736 9.54257 20.5736 14.4814 17.5275 17.5275Z" fill="currentColor"/>
</svg>
