<svg width="24" height="24" viewBox="0 0 24 24" fill="currentColor" xmlns="http://www.w3.org/2000/svg">
<path fill-rule="evenodd" clip-rule="evenodd" d="M7.79999 5.99999H8.99999C9.33136 5.99999 9.59999 6.26862 9.59999 6.59999V7.79999C9.59999 8.13136 9.33136 8.39999 8.99999 8.39999H7.79999C7.46862 8.39999 7.19999 8.13136 7.19999 7.79999V6.59999C7.19999 6.26862 7.46862 5.99999 7.79999 5.99999ZM11.4 5.99999H12.6C12.9314 5.99999 13.2 6.26862 13.2 6.59999V7.79999C13.2 8.13136 12.9314 8.39999 12.6 8.39999H11.4C11.0686 8.39999 10.8 8.13136 10.8 7.79999V6.59999C10.8 6.26862 11.0686 5.99999 11.4 5.99999ZM15 5.99999H16.2C16.5314 5.99999 16.8 6.26862 16.8 6.59999V7.79999C16.8 8.13136 16.5314 8.39999 16.2 8.39999H15C14.6686 8.39999 14.4 8.13136 14.4 7.79999V6.59999C14.4 6.26862 14.6686 5.99999 15 5.99999ZM7.79999 9.59999H8.99999C9.33136 9.59999 9.59999 9.86862 9.59999 10.2V11.4C9.59999 11.7314 9.33136 12 8.99999 12H7.79999C7.46862 12 7.19999 11.7314 7.19999 11.4V10.2C7.19999 9.86862 7.46862 9.59999 7.79999 9.59999ZM11.4 9.59999H12.6C12.9314 9.59999 13.2 9.86862 13.2 10.2V11.4C13.2 11.7314 12.9314 12 12.6 12H11.4C11.0686 12 10.8 11.7314 10.8 11.4V10.2C10.8 9.86862 11.0686 9.59999 11.4 9.59999ZM15 9.59999H16.2C16.5314 9.59999 16.8 9.86862 16.8 10.2V11.4C16.8 11.7314 16.5314 12 16.2 12H15C14.6686 12 14.4 11.7314 14.4 11.4V10.2C14.4 9.86862 14.6686 9.59999 15 9.59999ZM7.79999 13.2H8.99999C9.33136 13.2 9.59999 13.4686 9.59999 13.8V15C9.59999 15.3314 9.33136 15.6 8.99999 15.6H7.79999C7.46862 15.6 7.19999 15.3314 7.19999 15V13.8C7.19999 13.4686 7.46862 13.2 7.79999 13.2ZM11.4 13.2H12.6C12.9314 13.2 13.2 13.4686 13.2 13.8V15C13.2 15.3314 12.9314 15.6 12.6 15.6H11.4C11.0686 15.6 10.8 15.3314 10.8 15V13.8C10.8 13.4686 11.0686 13.2 11.4 13.2ZM11.4 16.8H12.6C12.9314 16.8 13.2 17.0686 13.2 17.4V18.6C13.2 18.9314 12.9314 19.2 12.6 19.2H11.4C11.0686 19.2 10.8 18.9314 10.8 18.6V17.4C10.8 17.0686 11.0686 16.8 11.4 16.8ZM15 13.2H16.2C16.5314 13.2 16.8 13.4686 16.8 13.8V15C16.8 15.3314 16.5314 15.6 16.2 15.6H15C14.6686 15.6 14.4 15.3314 14.4 15V13.8C14.4 13.4686 14.6686 13.2 15 13.2ZM12 1.79999C17.6333 1.79999 22.2 6.36668 22.2 12C22.2 17.6333 17.6333 22.2 12 22.2C6.36668 22.2 1.79999 17.6333 1.79999 12C1.79999 6.36668 6.36668 1.79999 12 1.79999ZM12 2.39999C17.3019 2.39999 21.6 6.69805 21.6 12C21.6 17.3019 17.3019 21.6 12 21.6C6.69805 21.6 2.39999 17.3019 2.39999 12C2.39999 6.69805 6.69805 2.39999 12 2.39999Z" fill="currentColor"/>
</svg>
