<svg width="24" height="24" viewBox="0 0 24 24" fill="currentColor" xmlns="http://www.w3.org/2000/svg">
<path fill-rule="evenodd" clip-rule="evenodd" d="M22.2 20.9996V20.3993H21.6V19.7989H21V11.3937H22.2V9.59263L12.312 4.93663V4.2H15.6V2.4H12.312C12.312 2.23421 12.1776 2.088 12.012 2.088C11.9324 2.088 11.856 2.11963 11.7998 2.17593C11.7435 2.23224 11.7119 2.30859 11.712 2.38819V4.92528L1.79995 9.59263V11.3937H2.99995V19.7989H2.39995V20.3993H1.79995V20.9996H1.19995V21.6H22.7999V20.9996H22.2ZM5.39995 19.7989H4.19995V11.3937H5.39995V19.7989ZM8.39995 19.7989H7.19995V11.3937H8.39995V19.7989ZM13.8 19.7989H10.2V15.5963C10.2 14.6022 11.0058 13.7963 12 13.7963C12.9941 13.7963 13.8 14.6022 13.8 15.5963V19.7989ZM16.8 19.7989H15.6V11.3937H16.8V19.7989ZM19.7999 19.7989H18.6V11.3937H19.7999V19.7989ZM3.34315 10.193L12 6.11671L20.6567 10.193H3.34315ZM10.8 8.39188C10.8004 9.05453 11.3378 9.59141 12.0004 9.59114C12.6631 9.59087 13.2001 9.05354 13.2 8.39089C13.1998 7.72825 12.6626 7.19114 12 7.19114C11.337 7.19135 10.7998 7.72894 10.8 8.39188Z" fill="currentColor"/>
</svg>
