<svg width="24" height="24" viewBox="0 0 24 24" fill="currentColor" xmlns="http://www.w3.org/2000/svg">
<path fill-rule="evenodd" clip-rule="evenodd" d="M16.2 5.99999C16.2 3.68999 14.31 1.79999 12 1.79999C9.68995 1.79999 7.79995 3.68999 7.79995 5.99999H4.19995V20.4C4.19995 21.3941 5.00584 22.2 5.99995 22.2H18C18.9941 22.2 19.8 21.3941 19.8 20.4V5.99999H16.2ZM8.99995 13.8C8.99877 13.004 9.31446 12.2402 9.87733 11.6774C10.4402 11.1145 11.2039 10.7988 11.9999 10.8C13.6425 10.8 14.9999 12.1517 14.9999 13.8C14.9999 14.423 14.7708 14.8389 14.4703 15.3984L11.9999 19.8L11.9985 19.7995L9.52027 15.3984C9.21979 14.8389 8.99995 14.4235 8.99995 13.8ZM15.6 8.99999C15.9313 8.99999 16.2 8.73136 16.2 8.39999V7.36079C16.6703 7.63235 16.8996 8.18598 16.7591 8.7106C16.6185 9.23522 16.1431 9.60002 15.6 9.60002C15.0568 9.60002 14.5814 9.23522 14.4408 8.7106C14.3003 8.18598 14.5296 7.63235 15 7.36079V8.39999C15 8.73136 15.2686 8.99999 15.6 8.99999ZM9.88219 3.88223C10.7401 3.02723 12.0279 2.77195 13.147 3.23506C14.2662 3.69817 14.9971 4.78881 15 5.99999H8.99995C8.99946 5.20459 9.31714 4.44203 9.88219 3.88223ZM7.79995 7.36079V8.39999C7.79995 8.73136 8.06858 8.99999 8.39995 8.99999C8.73132 8.99999 8.99995 8.73136 8.99995 8.39999V7.36079C9.47031 7.63235 9.69963 8.18598 9.55906 8.7106C9.41849 9.23522 8.94308 9.60002 8.39995 9.60002C7.85682 9.60002 7.38141 9.23522 7.24084 8.7106C7.10027 8.18598 7.32959 7.63235 7.79995 7.36079ZM10.44 14.0024L13.6073 12.6L11.739 15.6L11.5788 14.3219L10.44 14.0024Z" fill="currentColor"/>
</svg>
