<svg width="24" height="24" viewBox="0 0 24 24" fill="currentColor" xmlns="http://www.w3.org/2000/svg">
<path fill-rule="evenodd" clip-rule="evenodd" d="M0 0V24H24V0H0ZM8.38469 17.9126C8.38469 18.4451 8.23414 18.894 7.93306 19.2593C7.63197 19.6246 7.2097 19.8072 6.66626 19.8072C6.14481 19.8072 5.72897 19.6236 5.41874 19.2564C5.10852 18.8892 4.95338 18.4412 4.95334 17.9124V7.57994H3.91786C3.43678 7.57994 3.0338 7.44501 2.7089 7.17514C2.38401 6.90526 2.22153 6.53532 2.22146 6.0653C2.22146 5.59161 2.38306 5.21801 2.70626 4.9445C3.02946 4.671 3.43337 4.5341 3.91798 4.5341H6.5561C7.13623 4.5341 7.58603 4.69566 7.9055 5.01878C8.22498 5.3419 8.38469 5.79722 8.38469 6.38472V17.9126ZM20.8476 17.6152C20.3576 18.3789 19.6924 18.9618 18.852 19.3639C18.0116 19.766 17.0794 19.967 16.0554 19.967C15.0351 19.967 14.1011 19.766 13.2533 19.3639C12.4056 18.9619 11.7358 18.3789 11.244 17.6152C10.7523 16.8515 10.5064 15.9574 10.5064 14.9329C10.5035 14.1684 10.715 13.4185 11.1171 12.7683C11.4214 12.2873 11.9166 11.8063 12.6025 11.3253C12.1186 10.8736 11.7649 10.4054 11.5412 9.92076C11.3176 9.43607 11.2058 8.85959 11.2059 8.19132C11.2059 7.55612 11.3398 6.98514 11.6077 6.47839C11.8696 5.97864 12.2402 5.5439 12.6921 5.20608C13.1472 4.86459 13.6674 4.60665 14.2527 4.43225C14.8377 4.2579 15.445 4.16977 16.0555 4.17057C16.8681 4.16659 17.6732 4.32678 18.4224 4.6416C19.1673 4.95555 19.7673 5.41635 20.2224 6.024C20.6775 6.63165 20.905 7.35409 20.905 8.19132C20.905 8.87066 20.793 9.44898 20.569 9.92628C20.345 10.4036 19.9833 10.8699 19.484 11.3253C20.2 11.8247 20.6958 12.3057 20.9712 12.7683C21.3788 13.3999 21.5826 14.1214 21.5826 14.9329C21.5826 15.9573 21.3375 16.8514 20.8476 17.6152ZM17.4654 13.207C17.2809 13.022 17.0632 12.8732 16.8238 12.7686C16.5808 12.6618 16.3181 12.6073 16.0527 12.6085C15.7006 12.6085 15.3552 12.7038 15.053 12.8844C14.746 13.0613 14.4914 13.3163 14.3149 13.6235C14.1384 13.9264 14.0462 14.2711 14.0478 14.6217C14.0478 15.1733 14.2443 15.6458 14.6372 16.0392C15.0301 16.4326 15.5019 16.6293 16.0527 16.6293C16.4029 16.6309 16.7472 16.5385 17.0496 16.3618C17.3566 16.1849 17.6112 15.9299 17.7876 15.6227C17.968 15.32 18.0632 14.9741 18.0631 14.6217C18.0643 14.356 18.0099 14.0929 17.9033 13.8496C17.7988 13.6099 17.6503 13.3919 17.4654 13.207ZM16.0527 10.152C16.4713 10.152 16.8284 10.0003 17.1239 9.69684C17.4195 9.3934 17.5673 9.03198 17.5673 8.61257C17.5673 8.1969 17.4195 7.83734 17.1239 7.53389C16.8283 7.23043 16.4712 7.07868 16.0527 7.07863C15.6415 7.07863 15.2835 7.2313 14.9786 7.53665C14.6738 7.84199 14.5214 8.20063 14.5215 8.61257C14.5215 9.02825 14.6739 9.38875 14.9786 9.69408C15.2834 9.99941 15.6414 10.152 16.0527 10.152Z" fill="currentColor"/>
</svg>
