<svg width="24" height="24" viewBox="0 0 24 24" fill="currentColor" xmlns="http://www.w3.org/2000/svg">
<path fill-rule="evenodd" clip-rule="evenodd" d="M17.1229 1.79572H6.85425C5.71329 1.79572 4.78857 2.72068 4.78857 3.8614V20.13C4.78857 21.271 5.71353 22.1957 6.85425 22.1957H17.1229C18.2639 22.1957 19.1886 21.2708 19.1886 20.13V3.8614C19.1886 2.72044 18.2636 1.79572 17.1229 1.79572ZM11.9955 3.59572C13.6525 3.59572 14.9955 4.93876 14.9955 6.59572C14.9955 8.25268 13.6525 9.59572 11.9955 9.59572C10.3386 9.59572 8.99553 8.25268 8.99553 6.59572C8.99553 4.93876 10.3386 3.59572 11.9955 3.59572ZM11.9886 11.3957C14.6396 11.3957 16.7886 13.5447 16.7886 16.1957C16.7886 18.8468 14.6396 20.9957 11.9886 20.9957C9.33753 20.9957 7.18857 18.8468 7.18857 16.1957C7.18857 13.5447 9.33753 11.3957 11.9886 11.3957ZM10.7886 6.79732C11.3324 6.79732 11.7733 7.2382 11.7733 7.78204V7.79572H11.2979V7.78204C11.2976 7.501 11.0699 7.273 10.7886 7.27276V6.79732ZM10.7886 5.0314C12.3078 5.0314 13.5392 6.26284 13.5392 7.78204V7.79572H13.0638V7.78204C13.065 6.52684 12.0483 5.50804 10.7931 5.50684L10.7886 5.0314ZM10.7886 5.91436C11.8201 5.91436 12.6563 6.75052 12.6563 7.78204V7.79572H12.1808V7.78204C12.1808 7.01308 11.5575 6.3898 10.7886 6.3898V5.91436Z" fill="currentColor"/>
</svg>
