<svg width="24" height="24" viewBox="0 0 24 24" fill="currentColor" xmlns="http://www.w3.org/2000/svg">
<path fill-rule="evenodd" clip-rule="evenodd" d="M5.4 1.8H18.6C19.2627 1.8 19.8 2.33726 19.8 3V21C19.8 21.6627 19.2627 22.2 18.6 22.2H5.4C4.73726 22.2 4.2 21.6627 4.2 21V3C4.2 2.33726 4.73726 1.8 5.4 1.8ZM12 20.4C12.3314 20.4 12.6 20.6686 12.6 21C12.6 21.3314 12.3314 21.6 12 21.6C11.6686 21.6 11.4 21.3314 11.4 21C11.4 20.6686 11.6686 20.4 12 20.4ZM5.4 3H18.6V19.8H5.4V3Z" fill="currentColor"/>
</svg>
