<svg width="24" height="24" viewBox="0 0 24 24" fill="currentColor" xmlns="http://www.w3.org/2000/svg">
<path fill-rule="evenodd" clip-rule="evenodd" d="M20.4 11.4H18.6L15.4152 6.09207C15.2329 5.70028 14.8546 5.4362 14.424 5.40003H13.2V5.07603C13.2 4.57897 12.7971 4.17603 12.3 4.17603C11.8029 4.17603 11.4 4.57897 11.4 5.07603V5.40003H2.4V17.1C2.4 18.5912 3.60883 19.8 5.1 19.8C6.59117 19.8 7.8 18.5912 7.8 17.1V16.8H13.2V17.1C13.2 18.5912 14.4088 19.8 15.9 19.8C17.3912 19.8 18.6 18.5912 18.6 17.1V16.8H21.6V12.6C21.6 11.9373 21.0627 11.4 20.4 11.4ZM8.109 14.4C6.38484 13.7448 5.184 12.2786 5.184 10.575V8.10003C6.309 8.10003 7.434 7.65007 8.109 7.20003C8.784 7.65005 9.909 8.10003 11.034 8.10003V10.5742C11.034 10.574 11.034 10.5745 11.034 10.5742C11.034 12.2778 9.83316 13.7448 8.109 14.4ZM6.984 12L8.08695 11.1177L9.234 12L8.80651 10.632L9.909 9.75H8.53087L8.109 8.40002L7.6872 9.75005H6.309L7.42006 10.6047L6.984 12Z" fill="currentColor"/>
</svg>
