<svg width="24" height="24" viewBox="0 0 24 24" fill="currentColor" xmlns="http://www.w3.org/2000/svg">
<path fill-rule="evenodd" clip-rule="evenodd" d="M5.58862 9.10282C6.9425 9.10282 8.04005 8.00527 8.04005 6.65138C8.04005 5.29749 6.9425 4.19995 5.58862 4.19995C4.23473 4.19995 3.13718 5.29749 3.13718 6.65138C3.13718 8.00527 4.23473 9.10282 5.58862 9.10282ZM7.75903 8.95418C6.54021 10.1032 4.63705 10.1032 3.41822 8.95418C2.42739 9.44165 1.79984 10.45 1.80005 11.5542V13.56C1.80005 14.2984 2.39871 14.8971 3.13718 14.8971V18.9085C3.13718 19.4008 3.53629 19.8 4.02862 19.8H7.14862C7.38504 19.8 7.61178 19.706 7.77896 19.5389C7.94614 19.3717 8.04006 19.1449 8.04005 18.9085V14.8971C8.77853 14.8971 9.37719 14.2984 9.37719 13.56V11.5542C9.3774 10.45 8.74986 9.44166 7.75903 8.95418ZM18.4115 9.10282C19.7654 9.10282 20.8629 8.00527 20.8629 6.65138C20.8629 5.29749 19.7654 4.19995 18.4115 4.19995C17.0576 4.19995 15.96 5.29749 15.96 6.65138C15.96 8.00527 17.0576 9.10282 18.4115 9.10282ZM20.5819 8.95418C19.3631 10.1032 17.4599 10.1032 16.2411 8.95418C15.2503 9.44165 14.6227 10.45 14.6229 11.5542V13.56C14.6229 14.2984 15.2216 14.8971 15.96 14.8971V18.9085C15.96 19.1449 16.054 19.3717 16.2211 19.5389C16.3883 19.706 16.6151 19.8 16.8515 19.8H19.9715C20.4638 19.8 20.8629 19.4008 20.8629 18.9085V14.8971C21.6014 14.8971 22.2001 14.2984 22.2001 13.56V11.5542C22.2003 10.45 21.5727 9.44165 20.5819 8.95418ZM14.9189 8.53195C14.9446 8.5063 14.9651 8.47597 14.9794 8.4426C15.007 8.37741 15.007 8.30379 14.9794 8.2386C14.9651 8.20523 14.9446 8.17489 14.9189 8.14925L14.8376 8.06793L14.0534 7.28395C13.9807 7.21087 13.8745 7.18221 13.7749 7.2088C13.6753 7.23539 13.5976 7.31318 13.571 7.41277C13.5444 7.51236 13.573 7.61857 13.6461 7.69126L14.0428 8.08795H9.96005L10.3567 7.69126C10.4687 7.5787 10.4685 7.39677 10.3562 7.28452C10.244 7.17226 10.062 7.17201 9.94946 7.28395L9.16527 8.06815L9.08395 8.14946C9.05827 8.1751 9.03776 8.20544 9.02352 8.23882C8.99589 8.30401 8.99589 8.37762 9.02352 8.44282C9.03782 8.47612 9.05836 8.50638 9.08405 8.53195L9.16536 8.61326L9.94956 9.39746C10.0621 9.50941 10.244 9.50916 10.3563 9.3969C10.4686 9.28464 10.4688 9.10272 10.3568 8.99016L10.0544 8.68776H13.9484L13.646 8.99016C13.5341 9.10272 13.5343 9.28464 13.6466 9.3969C13.7588 9.50916 13.9408 9.50941 14.0533 9.39746L14.8375 8.61326L14.9189 8.53195Z" fill="currentColor"/>
</svg>
