<svg width="24" height="24" viewBox="0 0 24 24" fill="currentColor" xmlns="http://www.w3.org/2000/svg">
<path fill-rule="evenodd" clip-rule="evenodd" d="M20.8484 12.7796C20.9466 12.3222 20.996 11.8556 20.9959 11.3878C20.9959 7.74316 18.041 4.78861 14.3959 4.78861C12.399 4.78675 10.5089 5.69086 9.25718 7.24681C8.50565 7.0876 7.72187 7.25586 7.10189 7.7095C6.48192 8.16313 6.08437 8.85924 6.00869 9.62372C3.6347 9.91321 1.79578 11.9355 1.79578 14.3874C1.79578 17.038 3.94483 19.1868 6.59578 19.1868H18.5958C20.1236 19.187 21.4851 18.2226 21.9918 16.7812C22.4986 15.3398 22.0402 13.7356 20.8484 12.7796ZM16.244 11.221C15.3765 12.0456 14.015 12.0456 13.1475 11.221C12.4515 11.6042 12.0127 12.3296 11.9963 13.1239L11.9958 15.199C11.994 15.743 12.4336 16.1854 12.9776 16.1871H17.3958V13.1734C17.397 12.3612 16.9556 11.6128 16.244 11.221ZM16.463 9.56684C16.463 10.5491 15.6717 11.3454 14.6957 11.3454C13.7197 11.3454 12.9284 10.5492 12.9284 9.56684C12.9284 8.58447 13.7196 7.78823 14.6957 7.78823C15.6718 7.78823 16.463 8.58455 16.463 9.56684Z" fill="currentColor"/>
</svg>
