<svg width="24" height="24" viewBox="0 0 24 24" fill="currentColor" xmlns="http://www.w3.org/2000/svg">
<path fill-rule="evenodd" clip-rule="evenodd" d="M21.5845 21.5845C21.1159 22.0531 20.3561 22.0531 19.8875 21.5845L17.4585 19.1556C15.8917 20.3546 13.9729 21.0029 12 21C7.02943 21 3 16.9706 3 12C3 7.02943 7.02943 3 12 3C16.9706 3 21 7.02943 21 12C21.0029 13.9729 20.3546 15.8917 19.1556 17.4585L21.5845 19.8875C22.0531 20.3561 22.0531 21.1159 21.5845 21.5845ZM11.988 4.176C16.3026 4.176 19.8003 7.67359 19.8003 11.988C19.8003 16.3024 16.3026 19.7998 11.988 19.7998C7.6734 19.7998 4.19971 16.3023 4.19971 11.988C4.19971 7.67369 7.6734 4.176 11.988 4.176ZM11.462 17.3757L10.3944 13.464L6.48 12.3971L16.1758 7.75181L11.462 17.3757Z" fill="currentColor"/>
</svg>
