<svg width="24" height="24" viewBox="0 0 24 24" fill="currentColor" xmlns="http://www.w3.org/2000/svg">
<path fill-rule="evenodd" clip-rule="evenodd" d="M21 16.2001H18.6V6.24859L22.0242 2.82435C22.1758 2.67277 22.235 2.45184 22.1795 2.24478C22.1241 2.03772 21.9623 1.87599 21.7553 1.82051C21.5482 1.76503 21.3273 1.82422 21.1757 1.9758L17.7514 5.40005H7.79999V3.00005C7.79999 2.33731 7.26273 1.80005 6.59999 1.80005C5.93725 1.80005 5.39999 2.33731 5.39999 3.00005V5.40005H2.99999C2.33725 5.40005 1.79999 5.93731 1.79999 6.60005C1.79999 7.26279 2.33725 7.80005 2.99999 7.80005H5.39999V17.4C5.39999 18.0628 5.93725 18.6 6.59999 18.6H16.2V21C16.2 21.6628 16.7372 22.2001 17.4 22.2001C18.0627 22.2001 18.6 21.6628 18.6 21V18.6H21C21.6627 18.6 22.2 18.0628 22.2 17.4C22.2 16.7373 21.6627 16.2001 21 16.2001ZM15.3514 7.80005L7.79999 15.3515V7.80005H15.3514ZM8.64851 16.2001L16.2 8.64859V16.2001H8.64851Z" fill="currentColor"/>
</svg>
