<svg width="24" height="24" viewBox="0 0 24 24" fill="currentColor" xmlns="http://www.w3.org/2000/svg">
<path fill-rule="evenodd" clip-rule="evenodd" d="M15.7848 12.0818C13.6592 14.0846 10.3412 14.0847 8.21546 12.082C6.57103 12.9802 5.44507 14.8286 5.40154 16.824L5.40002 16.704V19.7999C5.40002 21.1254 6.47454 22.2 7.80002 22.2H18.6V16.824C18.6007 14.847 17.5207 13.0278 15.7848 12.0818ZM8.36777 20.9292H7.54819C7.54819 20.9229 7.54867 20.9168 7.54867 20.9105C7.54665 20.4274 7.1539 20.0371 6.6708 20.0382V19.224C7.60814 19.224 8.36801 19.979 8.36801 20.9104C8.36801 20.9167 8.36782 20.9229 8.36777 20.9292ZM9.88937 20.9292H9.07006C9.07006 20.9229 9.07027 20.9167 9.07027 20.9105C9.07168 20.277 8.81844 19.6695 8.36748 19.2245C7.91727 18.7754 7.30672 18.5241 6.6708 18.5261V17.712C8.4485 17.712 9.88961 19.144 9.88961 20.9105C9.88961 20.9167 9.88942 20.9229 9.88937 20.9292ZM11.4111 20.9292H10.5917C10.5917 20.9229 10.5919 20.9167 10.5919 20.9105C10.593 19.8755 10.1794 18.8831 9.44345 18.1553C8.70706 17.4224 7.70976 17.0119 6.6708 17.0141V16.2C9.28886 16.2 11.4112 18.3089 11.4112 20.9105C11.4112 20.9167 11.4111 20.9229 11.4111 20.9292ZM7.68002 8.30395C7.68076 9.93253 8.5973 11.4223 10.0506 12.1572C11.504 12.8921 13.2471 12.7472 14.5592 11.7824C15.8712 10.8177 16.5292 9.19702 16.2611 7.59067H7.73897C7.69976 7.82641 7.68002 8.06498 7.68002 8.30395ZM7.71938 6.99067H16.3287C16.473 6.99028 16.6101 6.92709 16.7041 6.81754C16.7982 6.708 16.8399 6.56296 16.8184 6.42019C16.782 6.17604 16.564 5.99995 16.3172 5.99995C16.2658 5.99995 16.224 5.95822 16.224 5.90674V5.77915C16.224 4.08862 15.1112 2.64444 13.5417 2.06796L13.355 2.78467C13.3144 2.9382 13.1575 3.03021 13.0037 2.99076L12.9805 2.98474C12.8269 2.94426 12.7348 2.78732 12.7744 2.63347L12.9653 1.90042L13.0145 1.71161C13.0466 1.59088 13.0215 1.46208 12.9464 1.36223C12.8713 1.26239 12.7545 1.20256 12.6296 1.19995H11.4184C11.2935 1.20257 11.1768 1.26238 11.1017 1.3622C11.0266 1.46202 11.0015 1.59079 11.0336 1.71151L11.0828 1.90037L11.2737 2.63338C11.3133 2.78722 11.2212 2.94415 11.0676 2.98464L11.0443 2.99066C10.8905 3.03012 10.7337 2.9381 10.6931 2.78458L10.5064 2.06794C8.93693 2.64446 7.82402 4.08859 7.82402 5.77915V5.90683C7.82397 5.95828 7.78224 5.99996 7.73078 5.99995C7.47398 5.99995 7.25117 6.19094 7.2264 6.44659C7.21305 6.58568 7.25891 6.72396 7.35273 6.82751C7.44655 6.93105 7.57966 6.99028 7.71938 6.99067Z" fill="currentColor"/>
</svg>
