<svg width="24" height="24" viewBox="0 0 24 24" fill="currentColor" xmlns="http://www.w3.org/2000/svg">
<path fill-rule="evenodd" clip-rule="evenodd" d="M18.6 12.384H18V15.6L16.2 21.6H18V22.2H5.4V3.59999C5.38842 3.50527 5.38871 3.4095 5.40029 3.31478C5.40029 3.30983 5.39991 3.30496 5.39991 3.29999V2.75999C5.39991 2.56117 5.56108 2.39999 5.75991 2.39999H6.29991C6.32453 2.39999 6.34882 2.40127 6.37294 2.40319C6.4003 2.40131 6.42785 2.39999 6.45591 2.39999H14.856C14.858 2.39999 14.86 2.39999 14.862 2.39999C14.864 2.39999 14.866 2.39999 14.868 2.39999H15.696C15.8948 2.39999 16.056 2.56117 16.056 2.75999L16.152 3.29999C16.152 3.32183 16.1507 3.34339 16.1488 3.36479C16.1733 3.4414 16.1906 3.52015 16.2003 3.59999L17.0659 10.8H18.6C18.9314 10.8 19.2 11.0686 19.2 11.4V11.784C19.2 12.1154 18.9314 12.384 18.6 12.384ZM8.22864 3.59999H14.7432C15.0656 3.59999 15.3547 3.86863 15.3888 4.19999L15.8842 8.99999C15.9184 9.33136 15.6848 9.59999 15.3624 9.59999H8.84796C8.52557 9.59999 8.23649 9.33136 8.20236 8.99999L7.70683 4.19999C7.67263 3.86863 7.90625 3.59999 8.22864 3.59999ZM9.096 12.384H8.4V15.6L6.6 21.6H6V2.99999H6.6L7.40926 10.8H9.096C9.42737 10.8 9.696 11.0686 9.696 11.4V11.784C9.696 12.1154 9.42737 12.384 9.096 12.384Z" fill="currentColor"/>
</svg>
