<svg width="24" height="24" viewBox="0 0 24 24" fill="currentColor" xmlns="http://www.w3.org/2000/svg">
<path fill-rule="evenodd" clip-rule="evenodd" d="M21.6 15H21C20.0059 15 19.2 14.1942 19.2 13.2C19.2 12.2059 20.0059 11.4 21 11.4H21.6C21.9314 11.4 22.2 11.6687 22.2 12V14.4C22.2 14.7314 21.9314 15 21.6 15ZM18.6 13.2C18.6 14.5255 19.6745 15.6 21 15.6V19.8H4.2C2.87452 19.8 1.8 18.7255 1.8 17.4V7.20005C1.8 5.87457 2.87452 4.80005 4.2 4.80005H19.2V6.60005H21V10.8C19.6745 10.8 18.6 11.8746 18.6 13.2ZM18.6 5.40005H4.8C4.46863 5.40005 4.2 5.66868 4.2 6.00005C4.2 6.33142 4.46863 6.60005 4.8 6.60005H18.6V5.40005ZM13.2241 13.1979C13.2241 14.5482 12.884 15.7548 12.2813 16.9114C12.1322 17.1975 11.9654 17.5502 11.5728 17.3322C11.2035 17.1271 11.3574 16.7974 11.5038 16.4918C12.5478 14.3128 12.564 12.1277 11.5195 9.94296C11.3662 9.62234 11.1766 9.25291 11.5985 9.05359C12.0333 8.84825 12.1782 9.27977 12.3271 9.57458C12.9039 10.7163 13.2241 11.9444 13.2241 13.1979ZM11.3934 13.2005C11.3934 14.2809 11.1483 15.24 10.6635 16.1389C10.5186 16.4075 10.3382 16.6863 9.97803 16.4821C9.63509 16.2877 9.73721 15.9999 9.88042 15.7114C10.7186 14.0238 10.7094 12.3339 9.86566 10.6518C9.71345 10.3482 9.66377 10.0668 10.0097 9.8971C10.3331 9.73831 10.512 9.97973 10.6494 10.2316C11.1616 11.1714 11.3934 12.1752 11.3934 13.2005ZM9.61174 13.1664C9.61174 13.9674 9.42135 14.7067 9.02374 15.3941C8.89155 15.6226 8.71846 15.8326 8.42563 15.6858C8.13723 15.5414 8.07044 15.3042 8.23349 14.9985C8.87312 13.7982 8.8698 12.5917 8.23071 11.3922C8.06645 11.0839 8.14371 10.8498 8.4318 10.7082C8.72825 10.5626 8.89781 10.7811 9.02753 11.0068C9.41083 11.6735 9.61174 12.3902 9.61174 13.1664ZM7.92533 13.1821C7.88595 13.7295 7.79676 14.2343 7.4714 14.6684C7.30736 14.8872 7.10578 15.0287 6.83808 14.8503C6.5857 14.682 6.56861 14.4492 6.72262 14.198C7.12999 13.5338 7.13086 12.8694 6.72521 12.2048C6.57147 11.9528 6.58457 11.7218 6.83602 11.5521C7.10168 11.3728 7.30455 11.5091 7.4706 11.7285C7.79849 12.162 7.92533 12.6592 7.92533 13.1821Z" fill="currentColor"/>
</svg>
