<svg width="24" height="24" viewBox="0 0 24 24" fill="currentColor" xmlns="http://www.w3.org/2000/svg">
<path fill-rule="evenodd" clip-rule="evenodd" d="M15 2.97588H13.6971C13.4428 2.25669 12.7628 1.77588 12 1.77588C11.2372 1.77588 10.5571 2.25669 10.3028 2.97588H8.99999C8.66862 2.97588 8.39999 3.24451 8.39999 3.57588V5.97588H15.6V3.57588C15.6 3.24451 15.3314 2.97588 15 2.97588ZM12 4.17588C11.6686 4.17588 11.4 3.90726 11.4 3.57588C11.4 3.24451 11.6686 2.97588 12 2.97588C12.3314 2.97588 12.6 3.24451 12.6 3.57588C12.6 3.90726 12.3314 4.17588 12 4.17588ZM18 4.17588H16.2V6.57588H7.79999V4.17588H5.99999C5.33725 4.17588 4.79999 4.71314 4.79999 5.37588V20.9999C4.79999 21.6626 5.33725 22.1999 5.99999 22.1999H18C18.6627 22.1999 19.2 21.6626 19.2 20.9999V5.37588C19.2 4.71314 18.6627 4.17588 18 4.17588ZM11.4 12.2879C11.4 11.9565 11.6686 11.6879 12 11.6879C12.3314 11.6879 12.6 11.9565 12.6 12.2879V14.4514L13.5495 15.4008C13.733 15.5326 13.827 15.7563 13.7925 15.9796C13.7581 16.2029 13.601 16.3879 13.3863 16.4581C13.1715 16.5284 12.9355 16.4719 12.7757 16.3122L12.7697 16.3182L11.5697 15.1182L11.5757 15.1122C11.463 14.9997 11.3998 14.8471 11.4 14.6879V12.2879ZM11.976 19.0799C9.33839 19.0799 7.19999 16.9415 7.19999 14.3039C7.19999 11.6663 9.33839 9.52788 11.976 9.52788C13.4514 9.52657 14.8443 10.2084 15.7483 11.3744L16.752 10.3707V12.5558H16.7485C16.7508 12.5765 16.752 12.5973 16.752 12.6182C16.7522 12.7781 16.6841 12.9306 16.5649 13.0372C16.4457 13.1438 16.2866 13.1945 16.1277 13.1765V13.1801H13.9426L14.9456 12.1771C14.5528 11.6299 14.0172 11.2013 13.3973 10.9381C11.9111 10.3086 10.188 10.7276 9.15686 11.9692C8.12569 13.2108 8.03022 14.9815 8.92193 16.3268C9.81364 17.6721 11.4817 18.2739 13.0269 17.8078C14.5721 17.3417 15.6292 15.9179 15.6282 14.3039V14.0229C15.6282 13.8678 15.754 13.742 15.9092 13.742H16.471C16.6262 13.742 16.752 13.8678 16.752 14.0229V14.3039C16.752 16.9416 14.6137 19.0799 11.976 19.0799Z" fill="currentColor"/>
</svg>
