<svg width="24" height="24" viewBox="0 0 24 24" fill="currentColor" xmlns="http://www.w3.org/2000/svg">
<path fill-rule="evenodd" clip-rule="evenodd" d="M13.8 18C13.8 18.3314 13.5314 18.6 13.2 18.6H10.8C10.4686 18.6 10.2 18.3314 10.2 18H1.79999V19.2C1.79999 19.5314 2.06862 19.8 2.39999 19.8H21.6C21.9314 19.8 22.2 19.5314 22.2 19.2V18H13.8ZM21 17.4H2.99999V15.6C2.99984 15.592 2.99999 15.584 2.99999 15.576V6C2.99999 5.33726 3.53725 4.8 4.19999 4.8H19.8C20.4627 4.8 21 5.33726 21 6V15.576C21 15.584 20.9995 15.592 20.9994 15.6L21 17.4ZM4.19999 6H19.8V16.2H4.19999V6ZM16.5 8.976H7.49999C7.26161 8.97568 7.03287 9.07007 6.86409 9.23841C6.69531 9.40674 6.60031 9.63523 6.59999 9.8736V12.3024C6.60031 12.5408 6.69531 12.7693 6.86409 12.9376C7.03287 13.1059 7.26161 13.2003 7.49999 13.2H16.5C16.7384 13.2003 16.9671 13.1059 17.1359 12.9376C17.3047 12.7693 17.3997 12.5408 17.4 12.3024V9.8736C17.3997 9.63523 17.3047 9.40674 17.1359 9.23841C16.9671 9.07007 16.7384 8.97568 16.5 8.976ZM9.25384 11.1175L8.83024 11.264L9.09536 11.6314C9.11803 11.663 9.11202 11.7068 9.08168 11.7312L8.91832 11.8581C8.90392 11.8693 8.8855 11.874 8.86749 11.8711C8.84948 11.8682 8.83351 11.8578 8.82344 11.8426L8.55704 11.4545L8.30557 11.8416C8.29603 11.857 8.28039 11.8677 8.26254 11.8709C8.2447 11.8741 8.22632 11.8696 8.21197 11.8585L8.045 11.7308C8.01451 11.7068 8.00836 11.6629 8.03104 11.6314L8.29619 11.264L7.88075 11.1179C7.84452 11.1041 7.82579 11.0641 7.83851 11.0275L7.90501 10.829C7.9103 10.8116 7.92266 10.7972 7.93908 10.7893C7.9555 10.7814 7.97448 10.7807 7.99141 10.7875L8.39555 10.9521V10.4821C8.39481 10.4435 8.42538 10.4115 8.464 10.4105H8.6584C8.697 10.4115 8.72755 10.4435 8.7268 10.4821V10.952L9.14315 10.7868C9.1602 10.7802 9.17921 10.781 9.19564 10.789C9.21206 10.797 9.22442 10.8115 9.22976 10.829L9.29627 11.0274C9.30902 11.064 9.29015 11.104 9.25384 11.1175ZM11.6192 11.1175L11.1956 11.264L11.4608 11.6314C11.4834 11.663 11.4774 11.7068 11.4471 11.7312L11.2837 11.8581C11.2693 11.8693 11.2509 11.874 11.2329 11.8711C11.2149 11.8682 11.1989 11.8578 11.1888 11.8426L10.9224 11.4545L10.6709 11.8416C10.6614 11.857 10.6458 11.8677 10.6279 11.8709C10.6101 11.8741 10.5917 11.8696 10.5773 11.8585L10.4104 11.7308C10.3799 11.7068 10.3737 11.663 10.3964 11.6314L10.6616 11.264L10.2461 11.1179C10.2099 11.1041 10.1912 11.0641 10.2039 11.0275L10.2704 10.829C10.2757 10.8116 10.288 10.7972 10.3045 10.7893C10.3209 10.7814 10.3399 10.7807 10.3568 10.7875L10.7609 10.9521V10.4821C10.7602 10.4435 10.7908 10.4115 10.8294 10.4105H11.0238C11.0624 10.4115 11.0929 10.4435 11.0922 10.4821V10.952L11.5085 10.7868C11.5256 10.7802 11.5446 10.781 11.561 10.789C11.5774 10.797 11.5898 10.8115 11.5951 10.829L11.6616 11.0274C11.6744 11.064 11.6555 11.104 11.6192 11.1175ZM14.0192 11.1175L13.5956 11.264L13.8608 11.6314C13.8834 11.663 13.8774 11.7068 13.8471 11.7312L13.6837 11.8581C13.6693 11.8693 13.6509 11.874 13.6329 11.8711C13.6149 11.8682 13.5989 11.8578 13.5888 11.8426L13.3224 11.4545L13.0709 11.8416C13.0614 11.857 13.0458 11.8677 13.0279 11.8709C13.0101 11.8741 12.9917 11.8696 12.9773 11.8585L12.8104 11.7308C12.7799 11.7068 12.7737 11.663 12.7964 11.6314L13.0616 11.264L12.6461 11.1179C12.6099 11.1041 12.5912 11.0641 12.6039 11.0275L12.6704 10.829C12.6757 10.8116 12.688 10.7972 12.7045 10.7893C12.7209 10.7814 12.7399 10.7807 12.7568 10.7875L13.1609 10.9521V10.4821C13.1602 10.4435 13.1908 10.4115 13.2294 10.4105H13.4238C13.4624 10.4115 13.4929 10.4435 13.4922 10.4821V10.952L13.9085 10.7868C13.9256 10.7802 13.9446 10.781 13.961 10.789C13.9774 10.797 13.9898 10.8115 13.9951 10.829L14.0616 11.0274C14.0744 11.064 14.0555 11.104 14.0192 11.1175ZM16.2 11.872H15.0014V11.5728H16.2V11.872Z" fill="currentColor"/>
</svg>
