<svg width="24" height="24" viewBox="0 0 24 24" fill="currentColor" xmlns="http://www.w3.org/2000/svg">
<path fill-rule="evenodd" clip-rule="evenodd" d="M18 4.79998C18 4.13723 17.4628 3.59998 16.8 3.59998H2.40002V15.6C2.40002 16.2627 2.93728 16.8 3.60002 16.8V4.79998H18ZM19.8 6.59998C19.8 5.93723 19.2628 5.39998 18.6 5.39998H4.20002V17.4C4.20002 18.0627 4.73728 18.6 5.40002 18.6V6.59998H19.8ZM20.4 7.19998H6.00002V19.2C6.00002 19.8627 6.53728 20.4 7.20002 20.4H21.6V8.39998C21.6 7.73723 21.0628 7.19998 20.4 7.19998ZM16.8 8.39998H18V9.59998H16.8V8.39998ZM14.4 8.39998H15.6V9.59998H14.4V8.39998ZM9.60003 8.39998H10.8V9.59998H9.60003V8.39998ZM7.20002 8.39998H8.40002V9.59998H7.20002V8.39998ZM8.40002 19.2H7.20002V18H8.40002V19.2ZM10.8 19.2H9.60003V18H10.8V19.2ZM13.2 19.2H12V18H13.2V19.2ZM13.2 16.8H7.20002V10.8H13.2V16.8ZM13.2 9.59998H12V8.39998H13.2V9.59998ZM15.6 19.2H14.4V18H15.6V19.2ZM18 19.2H16.8V18H18V19.2ZM20.4 19.2H19.2V18H20.4V19.2ZM20.4 16.8H14.4V10.8H20.4V16.8ZM20.4 9.59998H19.2V8.39998H20.4V9.59998Z" fill="currentColor"/>
</svg>
