<svg width="24" height="24" viewBox="0 0 24 24" fill="currentColor" xmlns="http://www.w3.org/2000/svg">
<path fill-rule="evenodd" clip-rule="evenodd" d="M19.2 4.20002H16.8V3.28802C16.8 2.79098 16.3971 2.40002 15.9 2.40002C15.403 2.40002 15 2.80297 15 3.30002V4.20002H8.40029L8.40002 3.30002C8.40002 2.80297 7.99708 2.40002 7.50002 2.40002C7.00297 2.40002 6.60002 2.80297 6.60002 3.30002V4.20002H2.40002V19.2C2.40002 20.1941 3.20591 21 4.20002 21H21V6.00002C21 5.00591 20.1941 4.20002 19.2 4.20002ZM19.8 19.8H4.50002C4.00297 19.8 3.60002 19.3971 3.60002 18.9V9.60003H18.9C19.3971 9.60003 19.8 10.003 19.8 10.5V19.8ZM6.00002 6.30002C5.99965 5.8278 6.22202 5.38306 6.60002 5.10002V6.30002C6.60002 6.79708 7.00297 7.20002 7.50002 7.20002C7.99708 7.20002 8.40002 6.79708 8.40002 6.30002V6.00002L8.40029 5.10019C8.96447 5.52352 9.1575 6.28274 8.86401 6.92413C8.57052 7.56552 7.86982 7.91578 7.18065 7.7656C6.49148 7.61542 6.00002 7.00537 6.00002 6.30002ZM14.4 6.30002C14.3996 5.8278 14.622 5.38306 15 5.10002V6.30002C15 6.79708 15.403 7.20002 15.9 7.20002C16.3971 7.20002 16.8 6.79708 16.8 6.30002L16.7998 6.00002L16.8 5.11202C17.1774 5.39019 17.4002 5.83118 17.4 6.30002C17.4 7.12845 16.7285 7.80002 15.9 7.80002C15.0716 7.80002 14.4 7.12845 14.4 6.30002ZM11.7 10.8C13.8539 10.8 15.6 12.5461 15.6 14.7C15.6 16.8539 13.8539 18.6 11.7 18.6C9.54611 18.6 7.80002 16.8539 7.80002 14.7C7.80002 12.5461 9.54611 10.8 11.7 10.8ZM14.6824 14.7C14.6833 13.6116 14.0909 12.6091 13.1371 12.0848C12.1832 11.5605 11.0195 11.5977 10.101 12.1818L14.2183 16.299C14.5224 15.8212 14.6834 15.2664 14.6824 14.7ZM8.95166 15.8606C9.29261 16.6693 9.97253 17.2868 10.8103 17.5484C11.648 17.81 12.5585 17.6893 13.299 17.2183L9.18175 13.101C8.65807 13.9278 8.57213 14.9585 8.95166 15.8606Z" fill="currentColor"/>
</svg>
