<svg width="24" height="24" viewBox="0 0 24 24" fill="currentColor" xmlns="http://www.w3.org/2000/svg">
<path fill-rule="evenodd" clip-rule="evenodd" d="M19.7963 18.6003H18.8477L19.7119 20.0971C19.8208 20.2829 19.8218 20.5127 19.7146 20.6994C19.6073 20.8861 19.4083 21.0011 19.193 21.0006C18.9777 21.0001 18.7791 20.8843 18.6727 20.6971L17.462 18.6003H8.39628C8.33216 18.6002 8.26814 18.5951 8.20484 18.5849C8.10982 18.5998 8.01336 18.6033 7.91751 18.5953L6.70428 20.6966C6.59787 20.8838 6.39932 20.9996 6.18401 21.0001C5.96871 21.0006 5.76965 20.8856 5.66241 20.6989C5.55517 20.5122 5.55619 20.2824 5.66508 20.0966L6.89088 17.9735L3.34776 14.4304C2.88264 13.9612 2.88429 13.2043 3.35147 12.7371C3.81865 12.2699 4.57558 12.2682 5.0448 12.7334L8.09736 15.7859L11.6051 9.71042L12.6443 10.3104L12.6269 10.3405L9.24975 16.2003H19.7963C20.459 16.2003 20.9963 16.7375 20.9963 17.4003C20.9963 18.063 20.459 18.6003 19.7963 18.6003ZM19.0996 13.5285L15.3604 11.3663L15.6644 9.87804L15.2489 9.6378L14.1139 10.6456L10.7901 8.72369L11.0939 7.2354L10.6784 6.99516L9.54348 8.00297L5.80428 5.84081L6.10829 4.35252C8.65215 2.63995 12.1859 2.56692 15.1414 4.05842L15.394 3.62018C15.4784 3.46889 15.6378 3.37482 15.8111 3.37404C15.9843 3.37326 16.1445 3.46591 16.2303 3.61644C16.316 3.76697 16.314 3.95204 16.225 4.10066L15.9741 4.5359C18.7717 6.34529 20.4448 9.43831 20.2346 12.5207L19.0996 13.5285Z" fill="currentColor"/>
</svg>
