<svg width="24" height="24" viewBox="0 0 24 24" fill="currentColor" xmlns="http://www.w3.org/2000/svg">
<path fill-rule="evenodd" clip-rule="evenodd" d="M21.3001 10.2001H16.8001V17.4001C16.8001 20.051 14.651 22.2001 12.0001 22.2001C9.34911 22.2001 7.20007 20.051 7.20007 17.4001V10.2001H2.70007L10.5001 2.42996C10.895 2.02669 11.4356 1.80005 12.0001 1.80005C12.5645 1.80005 13.1052 2.02732 13.5001 2.43058L21.3001 10.2001ZM15.6 17.4003C15.6 19.3885 13.9882 21.0003 12 21.0003C10.0117 21.0003 8.39995 19.3885 8.39995 17.4003C8.39995 15.412 10.0117 13.8003 12 13.8003C13.9882 13.8003 15.6 15.412 15.6 17.4003ZM12.2234 14.3727V14.7438C12.4685 14.7689 12.6787 14.8193 12.854 14.895C13.0316 14.9722 13.1886 15.0899 13.3127 15.2386C13.4098 15.3463 13.4903 15.4679 13.5515 15.5994C13.6035 15.7055 13.6322 15.8215 13.6358 15.9397C13.6368 16.0518 13.5913 16.1594 13.5102 16.2368C13.4306 16.3189 13.3205 16.3643 13.2061 16.3623C12.9816 16.3623 12.8361 16.2409 12.7697 15.998C12.6941 15.7116 12.512 15.5215 12.2234 15.4276V16.8572C12.5074 16.9349 12.7336 17.006 12.9022 17.0702C13.069 17.1335 13.2223 17.228 13.3539 17.3486C13.4951 17.4734 13.6072 17.6277 13.682 17.8006C13.7602 17.9823 13.7994 18.1783 13.7972 18.3761C13.7985 18.6322 13.7353 18.8845 13.6134 19.1097C13.4871 19.3416 13.2999 19.5346 13.0721 19.6681C12.8338 19.8123 12.5509 19.8983 12.2233 19.9258V20.3478C12.2233 20.483 12.2102 20.5815 12.1839 20.6435C12.1575 20.7053 12.0996 20.7361 12.0102 20.7361C11.9278 20.7361 11.8699 20.7108 11.8368 20.6605C11.8037 20.6103 11.7869 20.5322 11.7869 20.4269V19.9328C11.5188 19.9029 11.2846 19.8399 11.0842 19.7437C10.896 19.6563 10.7259 19.5345 10.5824 19.3846C10.4572 19.2548 10.3566 19.1035 10.2853 18.9379C10.2233 18.7939 10.1906 18.6392 10.189 18.4825C10.19 18.3701 10.2365 18.2629 10.3179 18.1854C10.4016 18.098 10.5182 18.0499 10.6392 18.0529C10.7315 18.0498 10.8226 18.075 10.9003 18.1251C10.9716 18.1735 11.0239 18.2452 11.0481 18.3279C11.0942 18.4743 11.1481 18.6182 11.2095 18.759C11.259 18.8636 11.3299 18.9566 11.4174 19.0322C11.5102 19.1148 11.6334 19.1778 11.7869 19.2212V17.6234C11.48 17.5387 11.2234 17.4443 11.0172 17.34C10.8138 17.2382 10.6408 17.0847 10.5154 16.8949C10.3871 16.7025 10.323 16.4551 10.323 16.1527C10.323 15.7587 10.4484 15.4357 10.6993 15.1837C10.9503 14.9316 11.3128 14.785 11.7869 14.7438V14.3796C11.7869 14.1871 11.8591 14.0909 12.0034 14.0909C12.1499 14.0909 12.2233 14.1848 12.2234 14.3727ZM11.7869 16.73V15.4138C11.5944 15.4712 11.4444 15.5468 11.3367 15.6407C11.2291 15.7346 11.1752 15.8766 11.1751 16.0668C11.1751 16.2478 11.2255 16.3847 11.3263 16.4775C11.4271 16.5702 11.5807 16.6544 11.7869 16.73ZM12.2233 17.7505V19.2557C12.4547 19.2099 12.6334 19.1171 12.7594 18.9773C12.8826 18.8449 12.9503 18.6702 12.9485 18.4893C12.9485 18.2901 12.8872 18.136 12.7645 18.0272C12.6419 17.9184 12.4615 17.8262 12.2233 17.7505Z" fill="currentColor"/>
</svg>
