<svg width="24" height="24" viewBox="0 0 24 24" fill="currentColor" xmlns="http://www.w3.org/2000/svg">
<path fill-rule="evenodd" clip-rule="evenodd" d="M16.7981 13.4029L16.7942 13.4067C16.798 13.4399 16.7999 13.4733 16.8 13.5067V14.7074C16.7987 15.204 16.3966 15.6064 15.9 15.608C15.5466 15.6069 15.2263 15.3997 15.0804 15.0778L15.0798 15.0766V15.079L12.651 21.7431C12.4158 22.3679 11.5839 22.3679 11.3488 21.7431L8.58611 14.1627C8.50134 13.9303 8.30443 13.7567 8.06317 13.7018C6.2493 13.2852 4.92516 11.7256 4.80829 9.86823C4.69142 8.01082 5.80964 6.29759 7.55699 5.65696C7.7163 5.59813 7.83191 5.45849 7.85999 5.291C8.19774 3.30889 9.92274 1.79999 12 1.79999C14.0627 1.79999 15.778 3.28777 16.1328 5.24936C16.1697 5.44455 16.3061 5.60618 16.4923 5.67532C18.066 6.27482 19.1301 7.75543 19.1967 9.43811C19.2633 11.1208 18.3195 12.6809 16.7981 13.4029ZM17.1828 7.54523C16.8855 7.22897 16.5231 6.98103 16.1206 6.81851C15.9447 6.74771 15.6542 6.69383 15.4054 6.65771C15.1597 6.62083 14.9824 6.40307 14.9962 6.15503C14.9987 6.10447 15 6.05359 15 6.00239C15.0001 5.80104 14.9801 5.60019 14.9404 5.4028C14.6554 4.00535 13.4262 3.00154 12 3.00154C10.5738 3.00154 9.34458 4.00535 9.05958 5.4028C9.01987 5.60019 8.99991 5.80104 8.99999 6.00239C8.99999 6.04658 9.00093 6.09058 9.00282 6.13439C9.01278 6.3968 8.8233 6.6245 8.56345 6.66239C8.32189 6.69839 8.048 6.75076 7.87945 6.8186C6.54396 7.35432 5.77649 8.76239 6.05 10.1751C6.32351 11.5878 7.56105 12.6077 8.99999 12.6062H9.00167V12.9564C9.00297 13.453 9.40507 13.8554 9.90167 13.857C10.3983 13.8554 10.8004 13.453 10.8017 12.9564L10.8 12.6C10.7999 12.0669 11.1515 11.5977 11.6632 11.4482C12.1748 11.2986 12.7238 11.5045 13.0108 11.9537C13.0936 12.0209 13.1727 12.0925 13.248 12.168C13.5883 12.5083 14.3417 12.6062 15 12.6062C16.1977 12.6054 17.2802 11.8928 17.7545 10.793C18.2289 9.6933 18.0041 8.41686 17.1828 7.54523Z" fill="currentColor"/>
</svg>
