<svg width="24" height="24" viewBox="0 0 24 24" fill="currentColor" xmlns="http://www.w3.org/2000/svg">
<path fill-rule="evenodd" clip-rule="evenodd" d="M13.8 18C13.8 18.3314 13.5314 18.6 13.2 18.6H10.8C10.4686 18.6 10.2 18.3314 10.2 18H1.79999V19.2C1.79999 19.5314 2.06862 19.8 2.39999 19.8H21.6C21.9314 19.8 22.2 19.5314 22.2 19.2V18H13.8ZM21 17.4H2.99999V15.6C2.99984 15.592 2.99999 15.584 2.99999 15.576V5.99999C2.99999 5.33725 3.53725 4.79999 4.19999 4.79999H19.8C20.4627 4.79999 21 5.33725 21 5.99999V15.576C21 15.584 20.9995 15.592 20.9994 15.6L21 17.4ZM4.19999 5.99999H19.8V16.2H4.19999V5.99999ZM14.0281 10.1583H13.8001V9.01129C13.8001 8.00188 12.9793 7.17599 11.9761 7.17599C10.9729 7.17599 10.1521 8.00188 10.1521 9.01129V10.1583H9.24013V14.2878C9.23957 14.4697 9.31132 14.6445 9.4396 14.7735C9.56787 14.9026 9.74216 14.9754 9.92413 14.976H14.7121V10.8466C14.7127 10.6646 14.6409 10.4899 14.5127 10.3608C14.3844 10.2317 14.2101 10.1589 14.0281 10.1583ZM12.3094 12.5946L12.4321 13.8289H11.5201L11.6428 12.5946C11.3708 12.4428 11.2357 12.1265 11.3142 11.8251C11.3926 11.5237 11.6647 11.3133 11.9761 11.3133C12.2876 11.3133 12.5597 11.5237 12.6381 11.8251C12.7165 12.1265 12.5814 12.4428 12.3094 12.5946ZM13.1161 10.1583H10.8361V9.01129C10.8359 8.70758 10.9566 8.41626 11.1716 8.20175C11.3836 7.98584 11.6735 7.86422 11.9761 7.86422C12.2787 7.86422 12.5686 7.98584 12.7807 8.20175C12.9957 8.41626 13.1164 8.70757 13.1161 9.01129V10.1583Z" fill="currentColor"/>
</svg>
