<svg width="24" height="24" viewBox="0 0 24 24" fill="currentColor" xmlns="http://www.w3.org/2000/svg">
<path fill-rule="evenodd" clip-rule="evenodd" d="M19.7538 4.20005C16.8445 4.20005 14.1599 3.30655 12 1.80005C9.84012 3.30655 7.15545 4.19938 4.24615 4.19938L3.6 4.20005V10.8C3.6 15.2376 6.18461 20.4001 12 22.2001C17.8154 20.4001 20.4 15.2376 20.4 10.8V4.20005H19.7538ZM14.3694 6.51314C15.1407 6.205 16.0148 6.29952 16.7024 6.76546C17.3901 7.23139 17.8019 8.00808 17.8017 8.83874C17.8017 8.84594 17.8015 8.8529 17.8014 8.86001C17.7911 10.2349 16.673 11.3436 15.2981 11.3424C15.2039 11.3424 15.1098 11.3371 15.0162 11.3266C13.7627 11.186 12.8103 10.1338 12.7949 8.87256C12.7947 8.86128 12.7944 8.85005 12.7944 8.83874C12.7944 7.81442 13.4182 6.89334 14.3694 6.51314ZM7.70858 6.51314C8.47998 6.20501 9.35398 6.29953 10.0417 6.76547C10.7293 7.23141 11.1411 8.00808 11.1409 8.83874C11.1409 8.84594 11.1407 8.8529 11.1407 8.86001C11.1303 10.2349 10.0122 11.3436 8.63731 11.3424C8.54312 11.3424 8.44901 11.3371 8.35541 11.3266C7.10195 11.186 6.14949 10.1338 6.13411 8.87256C6.13397 8.86128 6.13368 8.85005 6.13368 8.83874C6.13368 7.81442 6.75743 6.89334 7.70858 6.51314ZM14.6784 19.5246C14.6787 19.4916 14.6789 19.467 14.6789 19.4574V18.0367C14.679 17.2546 14.2345 16.5404 13.5327 16.1951C12.6695 17.0089 11.3215 17.0089 10.4582 16.1951C9.75638 16.5403 9.31187 17.2545 9.312 18.0367V19.4573C9.312 19.4573 9.312 19.4885 9.312 19.5308C6.74971 17.8403 5.3418 15.2054 4.9296 12.6292C5.18511 11.8917 5.72082 11.2846 6.42072 10.9392C6.93533 11.4244 7.6091 11.8005 8.35543 11.865C8.44836 11.8731 8.54234 11.8774 8.63733 11.8774C8.74553 11.8774 8.85239 11.8722 8.95793 11.8617C9.68887 11.7897 10.3482 11.416 10.8539 10.9392C11.299 11.159 11.6819 11.4868 11.9677 11.8927C12.2535 11.4868 12.6364 11.1591 13.0815 10.9392C13.5961 11.4245 14.2698 11.8005 15.0162 11.865C15.1091 11.8731 15.2031 11.8774 15.2981 11.8774C15.4063 11.8774 15.5131 11.8722 15.6187 11.8617C16.3496 11.7897 17.009 11.4161 17.5147 10.9392C18.2561 11.3049 18.8114 11.9633 19.0467 12.7558C18.6063 15.2906 17.2004 17.8646 14.6784 19.5246ZM11.9954 12.9477C11.0364 12.9477 10.2591 13.7251 10.2591 14.684C10.2591 15.643 11.0364 16.4204 11.9954 16.4204C12.9543 16.4204 13.7317 15.643 13.7317 14.684C13.7317 13.7251 12.9543 12.9477 11.9954 12.9477Z" fill="currentColor"/>
</svg>
