<svg width="24" height="24" viewBox="0 0 24 24" fill="currentColor" xmlns="http://www.w3.org/2000/svg">
<path fill-rule="evenodd" clip-rule="evenodd" d="M21.912 3.31198V9.27022L19.6726 7.03078L12.7702 13.9329L10.2478 11.4105L2.29968 19.3586C2.17523 19.0237 2.11167 18.6693 2.112 18.312V15.2657L10.2478 7.1299L12.7702 9.6523L17.5322 4.89046L15.3538 2.71198H21.312C21.6434 2.71198 21.912 2.9806 21.912 3.31198ZM21.0635 10.1188L19.6724 8.72772L13.6187 14.7816L12.7701 15.6301L11.9216 14.7816L10.2477 13.1077L2.95728 20.3991C3.52173 20.9834 4.29959 21.3129 5.112 21.312H18.912C20.5689 21.312 21.912 19.9688 21.912 18.312V10.9673L21.0635 10.1188Z" fill="currentColor"/>
</svg>
