<svg width="24" height="24" viewBox="0 0 24 24" fill="currentColor" xmlns="http://www.w3.org/2000/svg">
<path fill-rule="evenodd" clip-rule="evenodd" d="M19.8 9.00001V8.40001L16.2 4.80001H14.4V3.90001C14.4 3.73432 14.2657 3.60001 14.1 3.60001H13.5C13.3343 3.60001 13.2 3.73432 13.2 3.90001V4.80001H9.6V3.90001C9.6 3.73432 9.46569 3.60001 9.3 3.60001H8.7C8.53431 3.60001 8.4 3.73432 8.4 3.90001V4.80001H6.6L3 8.40001V9.00001H4.2V20.4H3.6V21H19.2V20.4H18.6V9.00001H19.8ZM8.4 18.6H6V16.8C6 16.1373 6.53726 15.6 7.2 15.6C7.86274 15.6 8.4 16.1373 8.4 16.8V18.6ZM8.4 12.6H6V10.8C6 10.1373 6.53726 9.60001 7.2 9.60001C7.86274 9.60001 8.4 10.1373 8.4 10.8V12.6ZM12.6 20.4H10.2V16.8C10.2 16.1373 10.7373 15.6 11.4 15.6C12.0627 15.6 12.6 16.1373 12.6 16.8V20.4ZM12.6 12.6H10.2V10.8C10.2 10.1373 10.7373 9.60001 11.4 9.60001C12.0627 9.60001 12.6 10.1373 12.6 10.8V12.6ZM16.8 18.6H14.4V16.8C14.4 16.1373 14.9373 15.6 15.6 15.6C16.2627 15.6 16.8 16.1373 16.8 16.8V18.6ZM16.8 12.6H14.4V10.8C14.4 10.1373 14.9373 9.60001 15.6 9.60001C16.2627 9.60001 16.8 10.1373 16.8 10.8V12.6Z" fill="currentColor"/>
</svg>
