<svg width="24" height="24" viewBox="0 0 24 24" fill="currentColor" xmlns="http://www.w3.org/2000/svg">
<path fill-rule="evenodd" clip-rule="evenodd" d="M12 2.3999C6.36668 2.3999 1.79999 6.0263 1.79999 10.4999C1.79999 13.967 4.54319 16.9253 8.39999 18.0809V22.1999L12 18.5999C17.6333 18.5999 22.2 14.9735 22.2 10.4999C22.2 6.0263 17.6333 2.3999 12 2.3999ZM16.2 14.3999H7.79999C7.3703 14.3999 6.97339 14.1702 6.75939 13.7976C6.54539 13.425 6.54697 12.9664 6.76355 12.5953L6.77341 12.5784C6.77327 12.5787 6.77358 12.5781 6.77341 12.5784L10.9635 5.39532C11.1785 5.02663 11.5732 4.79991 12 4.79991C12.4268 4.79991 12.8214 5.02663 13.0364 5.39532L17.2364 12.5953C17.453 12.9664 17.4545 13.425 17.2405 13.7976C17.0265 14.1702 16.6297 14.3999 16.2 14.3999ZM12 13.1999C11.6686 13.1999 11.4 12.9313 11.4 12.5999C11.4 12.2685 11.6686 11.9999 12 11.9999C12.3314 11.9999 12.6 12.2685 12.6 12.5999C12.6 12.9313 12.3314 13.1999 12 13.1999ZM12.5982 7.84363L12.3999 11.1041C12.3999 11.3249 12.2208 11.4079 11.9999 11.4079C11.7791 11.4079 11.6001 11.3249 11.6 11.1041L11.4011 7.83612C11.4004 7.82412 11.4 7.81212 11.4 7.7999C11.4 7.46853 11.6686 7.1999 12 7.1999C12.3313 7.1999 12.6 7.46853 12.6 7.7999C12.6 7.81461 12.5993 7.82916 12.5982 7.84363Z" fill="currentColor"/>
</svg>
