<svg width="24" height="24" viewBox="0 0 24 24" fill="currentColor" xmlns="http://www.w3.org/2000/svg">
<path fill-rule="evenodd" clip-rule="evenodd" d="M19.7999 15L17.0603 12.48C16.7651 12.2149 16.7651 11.7851 17.0603 11.52L19.7999 9V10.8H22.1279C21.5341 5.73221 17.2262 1.8 11.9999 1.8C6.77366 1.8 2.46576 5.73221 1.87195 10.8H4.19995V9L6.93955 11.52C7.23475 11.7851 7.23475 12.2149 6.93955 12.48L4.19995 15V13.2H1.87195C2.46576 18.2678 6.77366 22.2 11.9999 22.2C17.2262 22.2 21.5341 18.2678 22.1279 13.2H19.7999V15ZM9.00055 8.4V16.2H8.40055C8.06961 16.199 7.8016 15.9309 7.80067 15.6V8.4C7.8016 8.06906 8.06961 7.801 8.40055 7.8H9.00055V8.4ZM10.2003 12.6C9.86894 12.6 9.60031 12.3314 9.60031 12C9.60031 11.6686 9.86894 11.4 10.2003 11.4C10.5317 11.4 10.8003 11.6686 10.8003 12C10.8003 12.3314 10.5317 12.6 10.2003 12.6ZM11.9999 12.6C11.6686 12.6 11.3999 12.3314 11.3999 12C11.3999 11.6686 11.6686 11.4 11.9999 11.4C12.3313 11.4 12.5999 11.6686 12.5999 12C12.5999 12.3314 12.3313 12.6 11.9999 12.6ZM13.7996 12.6C13.4682 12.6 13.1996 12.3314 13.1996 12C13.1996 11.6686 13.4682 11.4 13.7996 11.4C14.131 11.4 14.3996 11.6686 14.3996 12C14.3996 12.3314 14.131 12.6 13.7996 12.6ZM16.1991 15.6C16.1982 15.931 15.9301 16.1991 15.5991 16.2H14.9991V7.8H15.5991C15.9301 7.80094 16.1982 8.06902 16.1991 8.4V15.6Z" fill="currentColor"/>
</svg>
