<svg width="24" height="24" viewBox="0 0 24 24" fill="currentColor" xmlns="http://www.w3.org/2000/svg">
<path fill-rule="evenodd" clip-rule="evenodd" d="M19.8616 12.012C19.8616 9.35731 22.7588 11.3658 21.41 8.10955C20.0605 4.85321 19.4326 8.32131 17.5555 6.44434C15.6783 4.56737 19.1475 3.93958 15.8908 2.59085C12.6336 1.24205 14.6423 4.13839 11.9882 4.13839C9.33334 4.13839 11.3421 1.24207 8.08551 2.59085C4.82893 3.93963 8.29736 4.56723 6.42013 6.44434C4.54289 8.32145 3.9152 4.85314 2.56633 8.10955C1.21681 11.3658 4.11399 9.35731 4.11399 12.012C4.11399 14.6666 1.21681 12.658 2.56633 15.9144C3.91513 19.1707 4.54294 15.7026 6.42013 17.5788C8.29736 19.4559 4.82893 20.0844 8.08551 21.4332C11.3421 22.782 9.33334 19.8856 11.9882 19.8856C14.6423 19.8856 12.6336 22.7819 15.8908 21.4332C19.1475 20.0844 15.6783 19.456 17.5555 17.5788C19.4326 15.7026 20.0605 19.1707 21.41 15.9144C22.7588 12.658 19.8616 14.6666 19.8616 12.012ZM12 7.22431C14.651 7.22431 16.8 9.3732 16.8 12.024C16.8 14.6747 14.651 16.8236 12 16.8236C9.34904 16.8236 7.20001 14.6747 7.20001 12.024C7.20001 9.3732 9.34904 7.22431 12 7.22431Z" fill="currentColor"/>
</svg>
