<svg width="24" height="24" viewBox="0 0 24 24" fill="currentColor" xmlns="http://www.w3.org/2000/svg">
<path fill-rule="evenodd" clip-rule="evenodd" d="M21 4.2H1.79999V18.6C1.79999 19.2627 2.33725 19.8 2.99999 19.8H22.2V5.4C22.2 4.73726 21.6627 4.2 21 4.2ZM20.9649 12.254L19.1877 13.68V12.6H15.0261C14.8647 12.6 14.71 12.6651 14.5971 12.7805L10.1555 17.3217C10.0896 17.3725 10.0087 17.4 9.92543 17.4H4.80916V18.6L3.03796 17.0985C2.95354 17.027 2.90472 16.922 2.90435 16.8114C2.90399 16.7007 2.95212 16.5954 3.03606 16.5233L4.80916 15V16.2H9.44608C9.52932 16.2 9.61023 16.1724 9.67616 16.1216L12.7507 13.0502C12.8262 12.9748 12.8487 12.8614 12.808 12.7629C12.7672 12.6643 12.671 12.6 12.5643 12.6H4.80916V13.8L3.13439 12.2869C3.05459 12.2192 3.00919 12.1194 3.01058 12.0148C3.01197 11.9101 3.06001 11.8116 3.14159 11.746L4.80916 10.2V11.4H12.4744C12.5962 11.4 12.7059 11.3266 12.7524 11.2142C12.799 11.1017 12.7732 10.9722 12.6871 10.8862L9.67616 7.87833C9.61022 7.82753 9.52932 7.79999 9.44608 7.8H4.80928V9L3.03616 7.47672C2.95222 7.40461 2.90408 7.29935 2.90435 7.18869C2.90481 7.07803 2.95364 6.97309 3.03805 6.90153L4.80916 5.4V6.6H9.92543C10.0087 6.6 10.0896 6.62755 10.1555 6.67836L14.5595 11.181C14.6965 11.3211 14.8842 11.4 15.0801 11.4H19.1877V10.2L20.9722 11.7131C21.0521 11.7808 21.0975 11.8806 21.0961 11.9853C21.0947 12.0899 21.0466 12.1885 20.9649 12.254Z" fill="currentColor"/>
</svg>
