<svg width="24" height="24" viewBox="0 0 24 24" fill="currentColor" xmlns="http://www.w3.org/2000/svg">
<path fill-rule="evenodd" clip-rule="evenodd" d="M8.02095 5.45955L3.03236 14.0234C1.24193 17.097 3.46251 20.952 7.02341 20.952H17.0005C20.5615 20.952 22.7822 17.097 20.9916 14.0234L16.003 5.45955C14.2226 2.40312 9.80134 2.40312 8.02095 5.45955ZM11.988 4.44C13.8105 4.44 15.288 5.91746 15.288 7.74C15.288 9.56254 13.8105 11.04 11.988 11.04C10.1654 11.04 8.68798 9.56254 8.68798 7.74C8.68798 5.91746 10.1654 4.44 11.988 4.44ZM17.1 13.2C18.9225 13.2 20.4 14.6775 20.4 16.5C20.4 18.3225 18.9225 19.8 17.1 19.8C15.2774 19.8 13.8 18.3225 13.8 16.5C13.8 14.6775 15.2774 13.2 17.1 13.2ZM6.89998 13.2C8.72252 13.2 10.2 14.6775 10.2 16.5C10.2 18.3225 8.72252 19.8 6.89998 19.8C5.07744 19.8 3.59998 18.3225 3.59998 16.5C3.59998 14.6775 5.07744 13.2 6.89998 13.2ZM13.776 8.6472C13.7752 8.20615 13.5452 7.79721 13.1688 7.56739C12.8696 7.89795 12.4475 8.1366 11.9666 8.1366C11.4857 8.1366 11.0507 7.89785 10.7515 7.56732C10.377 7.79808 10.1498 8.20732 10.152 8.6472V9.7992C10.6296 10.254 11.2516 10.464 11.9562 10.464C12.6659 10.464 13.3087 10.2496 13.776 9.78881V8.6472ZM11.9677 5.304C11.2558 5.3051 10.6794 5.88262 10.6797 6.59447C10.68 7.30633 11.2568 7.88342 11.9686 7.884C12.6805 7.88458 13.2583 7.30842 13.2597 6.59657C13.2605 6.25362 13.1246 5.92447 12.8822 5.68191C12.6397 5.43935 12.3107 5.30336 11.9677 5.304ZM8.71198 17.3832C8.71118 16.9422 8.48122 16.5332 8.10478 16.3034C7.80557 16.6339 7.38353 16.8726 6.9026 16.8726C6.42166 16.8726 5.98671 16.6339 5.68748 16.3033C5.31297 16.5341 5.08579 16.9433 5.08797 17.3832V18.5352C5.56558 18.99 6.18761 19.2 6.89216 19.2C7.60193 19.2 8.2447 18.9856 8.71198 18.5248V17.3832ZM6.9037 14.04C6.19185 14.0411 5.61543 14.6186 5.6157 15.3305C5.61596 16.0423 6.19279 16.6194 6.90465 16.62C7.6165 16.6206 8.19428 16.0444 8.1957 15.3326C8.19649 14.9896 8.06065 14.6605 7.81819 14.4179C7.57574 14.1753 7.24666 14.0394 6.9037 14.04ZM18.96 17.3832C18.9592 16.9422 18.7292 16.5332 18.3528 16.3034C18.0536 16.6339 17.6315 16.8726 17.1506 16.8726C16.6697 16.8726 16.2347 16.6339 15.9355 16.3033C15.561 16.5341 15.3338 16.9433 15.336 17.3832V18.5352C15.8136 18.99 16.4356 19.2 17.1402 19.2C17.8499 19.2 18.4927 18.9856 18.96 18.5248V17.3832ZM17.1517 14.04C16.4398 14.0411 15.8634 14.6186 15.8637 15.3305C15.864 16.0423 16.4408 16.6194 17.1526 16.62C17.8645 16.6206 18.4423 16.0444 18.4437 15.3326C18.4445 14.9896 18.3086 14.6605 18.0662 14.4179C17.8237 14.1753 17.4947 14.0394 17.1517 14.04Z" fill="currentColor"/>
</svg>
