<svg width="24" height="24" viewBox="0 0 24 24" fill="currentColor" xmlns="http://www.w3.org/2000/svg">
<path fill-rule="evenodd" clip-rule="evenodd" d="M20.28 4.20002H16.32C16.2537 4.20002 16.2 4.1463 16.2 4.08002V3.60002H15C13.68 3.60002 12.6 4.68002 12.6 6.00002V14.5623C12.9704 14.7767 13.199 15.172 13.2 15.6V21H14.04C14.2386 21.0006 14.3994 21.1614 14.4 21.36V21.6H9.59998V21.36C9.60056 21.1614 9.76139 21.0006 9.95998 21H10.8V15.6C10.801 15.172 11.0295 14.7767 11.4 14.5623V6.00002C11.4 4.68002 10.32 3.60002 8.99998 3.60002H7.79998V4.08002C7.79998 4.1463 7.74625 4.20002 7.67998 4.20002H3.71998C3.6537 4.20002 3.59998 4.1463 3.59998 4.08002V3.60002C3.60191 2.93809 4.13804 2.40196 4.79998 2.40002H9.19932C10.3192 2.40195 11.3664 2.95463 12 3.87804C12.6335 2.95463 13.6808 2.40195 14.8006 2.40002H19.2C19.8619 2.40196 20.398 2.93809 20.4 3.60002V4.08002C20.4 4.1463 20.3463 4.20002 20.28 4.20002ZM5.69998 6.00002C6.52841 6.00002 7.19998 5.46276 7.19998 4.80002H4.19998C4.19998 5.46276 4.87154 6.00002 5.69998 6.00002ZM18.3 6.00002C19.1284 6.00002 19.8 5.46276 19.8 4.80002H16.8C16.8 5.46276 17.4715 6.00002 18.3 6.00002Z" fill="currentColor"/>
</svg>
