<svg width="24" height="24" viewBox="0 0 24 24" fill="currentColor" xmlns="http://www.w3.org/2000/svg">
<path fill-rule="evenodd" clip-rule="evenodd" d="M16.8012 1.80005H7.19882C6.88072 1.80005 6.5757 1.92672 6.35088 2.15176C6.12606 2.3768 5.99984 2.68194 6 3.00005V21C5.99967 21.6625 6.53637 22.1997 7.19878 22.2001H16.8012C17.1193 22.2001 17.4243 22.0734 17.6491 21.8483C17.8739 21.6233 18.0002 21.3182 18 21V3.00005C18.0003 2.33765 17.4636 1.80039 16.8012 1.80005ZM11.1 2.40005H12.9C13.0657 2.40005 13.2 2.53436 13.2 2.70005C13.2 2.86573 13.0657 3.00005 12.9 3.00005H11.1C10.9343 3.00005 10.8 2.86573 10.8 2.70005C10.8 2.53436 10.9343 2.40005 11.1 2.40005ZM12 21.6C11.6686 21.6 11.4 21.3314 11.4 21C11.4 20.6687 11.6686 20.4 12 20.4C12.3314 20.4 12.6 20.6687 12.6 21C12.6 21.3314 12.3314 21.6 12 21.6ZM16.8 19.8H7.2V3.60005H16.8V19.8ZM14.7795 8.97605H8.376V13.5878C8.376 14.027 8.73204 14.4 9.17131 14.4H15.576V9.75242C15.576 9.31339 15.2189 8.97605 14.7795 8.97605ZM14.901 10.6642L12.7748 12.7096H12.773C12.5647 12.9165 12.2822 13.024 11.9709 13.024C11.6596 13.024 11.3772 12.9165 11.1685 12.7096H11.1629L9.051 10.6656V9.88704C9.89669 10.7227 11.4359 12.2148 11.4359 12.2148C11.5736 12.3588 11.7616 12.4199 11.9684 12.4199C12.1795 12.4221 12.3816 12.3344 12.5243 12.1788L14.901 9.87605V10.6642Z" fill="currentColor"/>
</svg>
