<svg width="24" height="24" viewBox="0 0 24 24" fill="currentColor" xmlns="http://www.w3.org/2000/svg">
<path fill-rule="evenodd" clip-rule="evenodd" d="M12.5929 10.2917C12.5929 9.92044 12.3229 9.61672 11.9929 9.61672C11.6629 9.61672 11.3929 9.92044 11.3929 10.2917L11.1529 15.0165H12.8329L12.5929 10.2917ZM8.75897 12.0257C8.94223 12.0254 9.1114 11.9273 9.20262 11.7683C9.29383 11.6094 9.2932 11.4138 9.20095 11.2555C8.54026 10.1165 8.55541 8.70745 9.24043 7.58298C9.33758 7.42794 9.34464 7.23284 9.25894 7.07118C9.17324 6.90952 9.00781 6.80586 8.82496 6.79925C8.64211 6.79263 8.46962 6.88407 8.37247 7.03912C8.37057 7.04216 8.3687 7.04523 8.36686 7.04834C7.4852 8.49425 7.46573 10.3068 8.31612 11.7713C8.40786 11.9289 8.57657 12.0259 8.75897 12.0257ZM6.55678 12.8219C6.64871 12.9801 6.81807 13.0773 7.00104 13.0768C7.18401 13.0762 7.35281 12.9781 7.44384 12.8194C7.53487 12.6607 7.53431 12.4655 7.44238 12.3073L7.43998 12.3031C6.4074 10.5427 6.4074 8.36163 7.43998 6.60126C7.53267 6.44352 7.53417 6.24831 7.44391 6.08916C7.35365 5.93001 7.18534 5.8311 7.00239 5.82968C6.81943 5.82829 6.64962 5.92459 6.55692 6.08234C5.33643 8.16303 5.33637 10.7412 6.55678 12.8219ZM5.49269 14.0443C5.7365 13.9009 5.81789 13.587 5.67449 13.3432C4.27262 10.9493 4.26689 7.9864 5.65949 5.58714C5.80193 5.34276 5.7193 5.02918 5.47492 4.88674C5.23054 4.7443 4.91695 4.82693 4.77451 5.07131C3.19297 7.78997 3.19948 11.15 4.79155 13.8625C4.93499 14.1063 5.24888 14.1877 5.49269 14.0443ZM14.9074 12.0549C15.1471 12.2051 15.4632 12.1325 15.6134 11.8929C15.6153 11.8898 15.6171 11.8868 15.619 11.8837C16.5007 10.4377 16.5201 8.62518 15.6697 7.16063C15.5273 6.91627 15.2137 6.83366 14.9693 6.97611C14.725 7.11856 14.6424 7.43213 14.7848 7.67649C15.4455 8.81543 15.4303 10.2245 14.7453 11.349C14.6732 11.4641 14.6498 11.6031 14.6802 11.7355C14.7106 11.8679 14.7923 11.9828 14.9074 12.0549ZM16.546 6.62884C17.5785 8.3892 17.5785 10.5703 16.546 12.3307C16.4061 12.5742 16.4884 12.8849 16.7306 13.0272C16.9727 13.1695 17.2842 13.0903 17.4289 12.8496C17.4289 12.8497 17.4289 12.8496 17.4289 12.8496C18.6494 10.7689 18.6494 8.19071 17.4289 6.10998C17.2868 5.86543 16.9733 5.7824 16.7288 5.92452C16.4842 6.06665 16.4012 6.38011 16.5433 6.62466C16.5443 6.62606 16.5451 6.62745 16.546 6.62884ZM19.3668 9.46525C19.3701 10.8278 19.011 12.1668 18.3264 13.3448C18.186 13.589 18.2692 13.9007 18.5125 14.0425C18.7558 14.1844 19.068 14.1031 19.2113 13.8607C20.7929 11.142 20.7864 7.782 19.1943 5.06949C19.0509 4.82567 18.737 4.74427 18.4932 4.88768C18.2493 5.03108 18.1679 5.34498 18.3114 5.5888C19.0008 6.76445 19.3651 8.10236 19.3668 9.46525ZM19.8657 15.6164H4.12013C3.49834 15.6182 2.99471 16.1218 2.99292 16.7436V18.0891C2.9947 18.7109 3.49833 19.2145 4.12013 19.2163H19.8657C20.4875 19.2145 20.9911 18.7109 20.9929 18.0891V16.7436C20.9911 16.1218 20.4875 15.6182 19.8657 15.6164ZM4.79292 18.0163C4.46155 18.0163 4.19292 17.7476 4.19292 17.4163C4.19292 17.0849 4.46155 16.8163 4.79292 16.8163C5.12429 16.8163 5.39292 17.0849 5.39292 17.4163C5.39292 17.7476 5.12429 18.0163 4.79292 18.0163ZM6.59292 18.0163C6.26155 18.0163 5.99292 17.7476 5.99292 17.4163C5.99292 17.0849 6.26155 16.8163 6.59292 16.8163C6.92429 16.8163 7.19292 17.0849 7.19292 17.4163C7.19292 17.7476 6.92429 18.0163 6.59292 18.0163ZM19.1929 18.0163C18.8616 18.0163 18.5929 17.7476 18.5929 17.4163C18.5929 17.0849 18.8616 16.8163 19.1929 16.8163C19.5243 16.8163 19.7929 17.0849 19.7929 17.4163C19.7929 17.7476 19.5243 18.0163 19.1929 18.0163Z" fill="currentColor"/>
</svg>
