<svg width="24" height="24" viewBox="0 0 24 24" fill="currentColor" xmlns="http://www.w3.org/2000/svg">
<path fill-rule="evenodd" clip-rule="evenodd" d="M7.19967 1.79999C5.87422 1.79999 4.776 2.88632 4.776 4.21175V22.2H16.812C17.4464 22.2015 18.0551 21.9499 18.5034 21.501C18.9517 21.0521 19.2024 20.443 19.2 19.8086V1.79999H7.19967ZM9.60833 8.62398C9.92489 8.6225 10.2289 8.74762 10.4527 8.97149C10.6765 9.19537 10.8016 9.49943 10.8 9.81599C10.8 10.3619 10.5549 10.8225 10.056 10.968L10.0545 10.9771C10.1143 11.3521 10.4815 11.6653 10.4815 11.6653L11.712 12.8125V6.59999H10.803L12.048 4.19999L13.227 6.59999H12.408V11.8504L13.5893 10.7427C13.5893 10.7427 13.8633 10.512 13.9667 10.2H13.2V8.13599H15.312V10.2H14.5853C14.5626 10.368 14.4718 10.6699 14.1548 10.9971C13.8254 11.3372 12.6269 12.4344 12.6269 12.4344C12.6269 12.4344 12.432 12.5811 12.408 12.9788V13.8345C13.0717 14.0047 13.5359 14.6028 13.536 15.288C13.536 16.1164 12.8764 16.8 12.048 16.8C11.2196 16.8 10.536 16.1164 10.536 15.288C10.5361 14.5936 11.0128 13.99 11.6883 13.8289C11.6381 13.513 11.4725 13.4165 11.4725 13.4165C11.4725 13.4165 10.2307 12.2806 9.88978 11.9285C9.50059 11.5266 9.43944 11.1786 9.43644 11.0115C8.84333 10.9233 8.40323 10.4156 8.4 9.81599C8.4 9.15325 8.94557 8.62398 9.60833 8.62398ZM17.7 21C17.5343 21 17.4 20.8657 17.4 20.7C17.4 20.5343 17.5343 20.4 17.7 20.4C17.8657 20.4 18 20.5343 18 20.7C18 20.8657 17.8657 21 17.7 21ZM18 19.8H6V19.2H18V19.8Z" fill="currentColor"/>
</svg>
