<svg width="24" height="24" viewBox="0 0 24 24" fill="currentColor" xmlns="http://www.w3.org/2000/svg">
<path fill-rule="evenodd" clip-rule="evenodd" d="M12.012 1.80005C6.37869 1.80005 1.812 6.36674 1.812 12C1.812 17.6334 6.37869 22.2001 12.012 22.2001C17.6453 22.2001 22.212 17.6334 22.212 12C22.212 6.36674 17.6453 1.80005 12.012 1.80005ZM12.012 18.6C11.0179 18.6 10.212 17.7942 10.212 16.8C10.212 15.8059 11.0179 15 12.012 15C13.0061 15 13.812 15.8059 13.812 16.8C13.812 17.7942 13.0061 18.6 12.012 18.6ZM14.2649 14.3071C12.9855 13.151 11.0386 13.151 9.75909 14.3071L8.74024 13.2883C10.5833 11.5706 13.4408 11.5706 15.2838 13.2883L14.2649 14.3071ZM16.3025 12.2695C13.8962 9.99031 10.1277 9.99031 7.72137 12.2695L6.70279 11.251C9.67085 8.40676 14.353 8.40676 17.3211 11.251L16.3025 12.2695ZM18.3396 10.2324C14.8076 6.82925 9.21642 6.82925 5.6844 10.2324L4.66636 9.21442C8.75863 5.24388 15.2654 5.24388 19.3576 9.21442L18.3396 10.2324Z" fill="currentColor"/>
</svg>
