<svg width="24" height="24" viewBox="0 0 24 24" fill="currentColor" xmlns="http://www.w3.org/2000/svg">
<path fill-rule="evenodd" clip-rule="evenodd" d="M20.8525 12.7919C20.9507 12.3345 21.0001 11.8679 21 11.4001C21 7.75501 18.0451 4.80005 14.4 4.80005C12.401 4.79829 10.5094 5.70437 9.25789 7.2631C8.50354 7.09722 7.71427 7.26212 7.08944 7.71615C6.46461 8.17018 6.06397 8.86992 5.98873 9.63862C3.62639 9.93893 1.79999 11.9562 1.79999 14.4001C1.79999 17.051 3.94902 19.2001 6.59999 19.2001H18.6C20.128 19.2001 21.4895 18.2354 21.9962 16.7939C22.5029 15.3524 22.0444 13.748 20.8525 12.7919ZM15.6 16.2001H10.8C10.4686 16.2001 10.2 15.9314 10.2 15.6001V9.00005H13.224V10.4401C13.2367 10.9513 13.6488 11.3627 14.16 11.3755L15.6 11.3761V16.2001ZM14.16 10.9201C13.8949 10.9201 13.68 10.7052 13.68 10.4401V9.00005L15.6 10.9201H14.16Z" fill="currentColor"/>
</svg>
