<svg width="24" height="24" viewBox="0 0 24 24" fill="currentColor" xmlns="http://www.w3.org/2000/svg">
<path fill-rule="evenodd" clip-rule="evenodd" d="M2.54974 11.6964C2.57721 11.6627 2.60506 11.6292 2.63328 11.5962C2.77848 11.4256 2.93357 11.2637 3.09775 11.1114C2.8899 10.4054 3.00278 9.64383 3.40647 9.02853C3.81016 8.41324 4.46385 8.00645 5.19418 7.91604L5.67127 7.85786L5.7186 7.37957C5.7767 6.79285 6.26962 6.34543 6.8592 6.34423C6.89742 6.34423 6.93582 6.34613 6.9744 6.34992C7.01632 6.35409 7.05798 6.36055 7.0992 6.36926L7.45994 6.44566L7.69102 6.15833C8.38462 5.29196 9.43517 4.78881 10.545 4.79143H10.5483C11.2191 4.79059 11.8771 4.97471 12.45 5.32354C12.7172 5.25527 12.9879 5.20189 13.261 5.16362C13.5274 5.12623 13.7958 5.10348 14.0647 5.09549C13.1478 4.13436 11.8772 3.5908 10.5489 3.59143H10.5446C9.19161 3.5913 7.89981 4.15515 6.97994 5.14733C5.90612 5.09477 4.93319 5.7766 4.61614 6.8039C3.50767 7.07647 2.58672 7.84477 2.11985 8.88641C1.65298 9.92805 1.69231 11.1268 2.22646 12.1356C2.32695 11.9847 2.43471 11.8383 2.54974 11.6964ZM20.984 13.5595C21.0412 13.2023 21.07 12.8412 21.07 12.4794C21.0702 8.83735 18.1955 5.8445 14.5564 5.69813C14.4658 5.69458 14.375 5.6923 14.2838 5.6923H14.2779C14.1229 5.6923 13.9678 5.69839 13.813 5.70922C12.0488 5.82952 10.4018 6.6356 9.2245 7.95494C9.12781 7.94614 9.03146 7.94175 8.93544 7.94177C7.50444 7.94524 6.25737 8.91721 5.90458 10.304C4.93753 10.51 4.05167 10.9939 3.35578 11.6962C3.05961 11.9943 2.80125 12.3278 2.5865 12.689C2.1181 13.4763 1.87122 14.3756 1.872 15.2917C1.872 18.1037 4.15961 20.3914 6.97147 20.3914H18.2203C20.4118 20.3914 22.1947 18.6087 22.1949 16.417C22.1985 15.3391 21.761 14.3067 20.984 13.5595ZM20.9949 16.4166C20.9932 17.9484 19.752 19.1897 18.2202 19.1914H6.97145C4.82124 19.1914 3.0719 17.442 3.0719 15.2917C3.07227 13.3229 4.53978 11.6629 6.49375 11.4211L6.97082 11.3629L7.01818 10.8846C7.11599 9.8971 7.94563 9.144 8.93801 9.14194C9.0023 9.14194 9.06706 9.14513 9.1319 9.15154C9.20245 9.15853 9.27255 9.16939 9.3419 9.18408L9.70265 9.26047L9.93374 8.97314C10.903 7.7675 12.33 7.0193 13.8729 6.9078C14.0079 6.89784 14.1431 6.8923 14.2783 6.8923H14.2831C14.3633 6.8923 14.4433 6.89431 14.5231 6.89767C14.7441 6.90692 14.9643 6.92917 15.1827 6.96432C17.8853 7.40619 19.8696 9.74109 19.8699 12.4795C19.87 12.8758 19.8281 13.2709 19.745 13.6583L19.6672 14.0209L19.9566 14.2527C20.6151 14.7772 20.9976 15.5748 20.9949 16.4166Z" fill="currentColor"/>
</svg>
