<svg width="24" height="24" viewBox="0 0 24 24" fill="currentColor" xmlns="http://www.w3.org/2000/svg">
<path fill-rule="evenodd" clip-rule="evenodd" d="M21 19.8H2.99999C2.33725 19.8 1.79999 19.2628 1.79999 18.6V12.6C1.79999 11.9373 2.33725 11.4 2.99999 11.4H5.39999V4.20001H13.8L18.6 9.00001V11.4H21C21.6627 11.4 22.2 11.9253 22.2 12.588V18.6C22.2 19.2628 21.6627 19.8 21 19.8ZM12 18.6C12.3314 18.6 12.6 18.3314 12.6 18C12.6 17.6686 12.3314 17.4 12 17.4C11.6686 17.4 11.4 17.6686 11.4 18C11.4 18.3314 11.6686 18.6 12 18.6ZM6.59999 14.4H17.4V9.60001H14.4C13.7372 9.60001 13.2 9.06275 13.2 8.40001V5.40001H6.59999V14.4Z" fill="currentColor"/>
</svg>
