<svg width="24" height="24" viewBox="0 0 24 24" fill="currentColor" xmlns="http://www.w3.org/2000/svg">
<path fill-rule="evenodd" clip-rule="evenodd" d="M19.7967 1.8H11.9952C6.36191 1.8 1.79944 6.36543 1.79944 11.9987C1.79944 17.632 6.36501 22.2 11.9983 22.2C17.6316 22.2 22.199 17.6333 22.199 12L22.1982 4.2C22.1975 2.87421 21.1224 1.8 19.7967 1.8ZM15.1733 18.8882C14.3399 19.7247 11.2347 18.9322 8.16503 15.8526C5.09603 12.7725 4.29407 9.77626 5.13976 8.82041C6.81604 7.14821 6.74188 6.83009 8.06272 8.47848C9.38284 10.1269 9.29521 10.0249 7.98885 11.3358C7.46826 11.858 8.55525 13.1794 9.69229 14.3202C10.8293 15.461 12.146 16.5517 12.6667 16.0298C13.9671 14.7248 13.8715 14.6306 15.5137 15.956C17.1566 17.2807 16.9417 17.1136 15.1733 18.8882ZM19.6398 7.5C19.6398 6.44141 20.7951 7.24234 20.2572 5.9438C19.7194 4.64525 19.4687 6.02825 18.7202 5.27976C17.9716 4.53128 19.355 4.28093 18.0563 3.74309C16.7577 3.20525 17.5584 4.3602 16.5 4.3602C15.4416 4.3602 16.2424 3.20523 14.9437 3.74309C13.6451 4.28096 15.0282 4.53123 14.2796 5.27976C13.531 6.0283 13.2807 4.64525 12.7428 5.9438C12.2049 7.24234 13.36 6.44141 13.36 7.5C13.36 8.55859 12.2047 7.75764 12.7428 9.05619C13.281 10.3547 13.5312 8.97173 14.2797 9.72C15.0282 10.4683 13.6451 10.7191 14.9438 11.257C16.2424 11.7949 15.4414 10.6399 16.5001 10.6399C17.5588 10.6399 16.7574 11.7948 18.0563 11.257C19.3552 10.7192 17.9716 10.4685 18.7202 9.72C19.4687 8.97154 19.7191 10.3548 20.2572 9.05626C20.7954 7.75772 19.6398 8.55859 19.6398 7.5ZM16.5048 5.59083C17.5618 5.59091 18.4187 6.44786 18.4186 7.5049C18.4186 8.56194 17.5616 9.41878 16.5046 9.41878C15.4476 9.41878 14.5907 8.56184 14.5907 7.5048C14.5907 6.99717 14.7924 6.51033 15.1513 6.15139C15.5103 5.79245 15.9972 5.59083 16.5048 5.59083Z" fill="currentColor"/>
</svg>
