<svg width="24" height="24" viewBox="0 0 24 24" fill="currentColor" xmlns="http://www.w3.org/2000/svg">
<path fill-rule="evenodd" clip-rule="evenodd" d="M12 22.2C12.6366 22.2001 13.2472 21.9473 13.6975 21.4972C14.1477 21.0471 14.4007 20.4366 14.4008 19.8H9.59919C9.5993 20.4366 9.8523 21.0471 10.3025 21.4972C10.7528 21.9473 11.3634 22.2001 12 22.2ZM20.4576 18.2913L19.2 16.2V10.248C19.2 6.89998 16.9004 4.04468 13.8006 3.23197V2.99998C13.797 2.0081 12.9919 1.20593 12 1.20593C11.0081 1.20593 10.203 2.0081 10.1994 2.99998V3.22719C7.09299 4.02651 4.80001 6.84512 4.80001 10.2V16.2L3.54241 18.2913C3.43119 18.4767 3.42829 18.7075 3.53482 18.8957C3.64135 19.0838 3.84084 19.2 4.05702 19.2H19.943C20.1592 19.2 20.3587 19.0838 20.4652 18.8957C20.5717 18.7075 20.5688 18.4767 20.4576 18.2913Z" fill="currentColor"/>
</svg>
