<svg width="24" height="24" viewBox="0 0 24 24" fill="currentColor" xmlns="http://www.w3.org/2000/svg">
<path fill-rule="evenodd" clip-rule="evenodd" d="M22.2001 9.216L15 8.016L12 1.776L9.00005 8.016L1.80005 9.216L7.20005 14.016L5.40005 21.216L12 17.616L18.6 21.216L16.8 14.016L22.2001 9.216ZM14.8751 14.3354C14.4383 14.7598 12.8696 14.3577 11.3066 12.7951C9.74357 11.2325 9.32287 9.70421 9.76615 9.22692C10.6089 8.36734 10.5819 8.21702 11.2545 9.05342C11.927 9.88982 11.8821 9.8381 11.2169 10.5032C10.9518 10.7682 11.5052 11.4387 12.0843 12.0176C12.6633 12.5966 13.3337 13.15 13.5988 12.8851C14.261 12.2229 14.2123 12.1752 15.0484 12.8477C15.8437 13.4934 15.7731 13.4437 14.8751 14.3354Z" fill="currentColor"/>
</svg>
