<svg width="24" height="24" viewBox="0 0 24 24" fill="currentColor" xmlns="http://www.w3.org/2000/svg">
<path fill-rule="evenodd" clip-rule="evenodd" d="M18.9129 5.39286H18.5929V5.07287C18.5916 3.92464 17.6611 2.99414 16.5129 2.99286H5.07293C3.9247 2.99414 2.9942 3.92464 2.99292 5.07287V16.5129C2.9942 17.6611 3.9247 18.5916 5.07293 18.5929H5.39292V18.9129C5.3942 20.0611 6.3247 20.9916 7.47293 20.9929H16.4667C16.9429 20.9942 17.3998 20.8049 17.7356 20.4673L20.4673 17.7355C20.805 17.3997 20.9942 16.9428 20.9929 16.4666V7.47287C20.9916 6.32464 20.0611 5.39414 18.9129 5.39286ZM17.21 16.1929H16.9855C16.5478 16.1929 16.1929 16.5477 16.1929 16.9854V19.7929H7.47293C6.9875 19.7914 6.59434 19.3983 6.59292 18.9129V7.47287C6.59434 6.98744 6.9875 6.59428 7.47293 6.59286H18.9129C19.3983 6.59428 19.7915 6.98744 19.7929 7.47287V16.1929H17.21ZM4.19292 16.5129V5.07287C4.19434 4.58744 4.5875 4.19428 5.07293 4.19286H16.5129C16.9983 4.19428 17.3915 4.58744 17.3929 5.07287V5.39286H7.47293C6.3247 5.39414 5.3942 6.32464 5.39292 7.47287V17.3929H5.07293C4.5875 17.3914 4.19434 16.9983 4.19292 16.5129Z" fill="currentColor"/>
</svg>
