<svg width="24" height="24" viewBox="0 0 24 24" fill="currentColor" xmlns="http://www.w3.org/2000/svg">
<path fill-rule="evenodd" clip-rule="evenodd" d="M20.0838 6.80947L14.208 8.97604V2.78404C14.208 2.26485 13.7736 1.8479 13.255 1.8479H10.7179C10.1992 1.8479 9.76799 2.26485 9.76799 2.78404V8.97604L4.20133 6.81799C3.97106 6.72701 3.71361 6.73406 3.48865 6.8375C3.2637 6.94095 3.09078 7.13182 3.00997 7.36586L2.09279 9.98287C2.01043 10.2181 2.02567 10.4765 2.1351 10.7004C2.24453 10.9243 2.43905 11.0951 2.67525 11.1747L8.40383 13.1022L4.7475 17.947C4.59748 18.1458 4.53342 18.3964 4.56968 18.6427C4.60594 18.8891 4.73949 19.1106 4.94041 19.2577L7.24283 20.942C7.44189 21.0892 7.69249 21.1487 7.93647 21.1065C8.18045 21.0644 8.39658 20.9243 8.5347 20.7188L12.0018 15.6151L15.6759 20.7327C15.8211 20.935 16.0414 21.0706 16.2874 21.109C16.5335 21.1474 16.7846 21.0854 16.9845 20.9369L19.2375 19.2626C19.4376 19.1136 19.5699 18.8909 19.6053 18.644C19.6406 18.397 19.576 18.1462 19.4258 17.947L15.7696 13.1022L21.6114 11.1699C21.8478 11.0921 22.0428 10.9223 22.1526 10.699C22.2623 10.4757 22.2775 10.2175 22.1948 9.98287L21.2778 7.36586C21.1964 7.13139 21.0235 6.93989 20.7985 6.83505C20.5735 6.73022 20.3157 6.72099 20.0838 6.80947Z" fill="currentColor"/>
</svg>
