<svg width="24" height="24" viewBox="0 0 24 24" fill="currentColor" xmlns="http://www.w3.org/2000/svg">
<path fill-rule="evenodd" clip-rule="evenodd" d="M17.4 10.2H8.99999V5.99995C8.99999 4.3431 10.3431 2.99995 12 2.99995C13.6568 2.99995 15 4.3431 15 5.99995V8.99995H16.8V5.99995C16.8 3.35995 14.64 1.19995 12 1.19995C9.35999 1.19995 7.19999 3.35995 7.19999 5.99995V10.2H4.79999V21C4.79999 21.9941 5.60587 22.7999 6.59999 22.7999H19.2V12C19.2 11.0058 18.3941 10.2 17.4 10.2ZM12.8772 16.5717L13.2 19.7999H10.8L11.1228 16.5717C10.4071 16.1723 10.0516 15.3398 10.258 14.5467C10.4643 13.7535 11.1804 13.1999 12 13.1999C12.8196 13.1999 13.5357 13.7535 13.742 14.5467C13.9483 15.3398 13.5928 16.1723 12.8772 16.5717Z" fill="currentColor"/>
</svg>
