<svg width="24" height="24" viewBox="0 0 24 24" fill="currentColor" xmlns="http://www.w3.org/2000/svg">
<path fill-rule="evenodd" clip-rule="evenodd" d="M20.9443 3.56441L20.5171 7.41019L19.5387 6.43183L18.5376 7.43304C18.3904 7.57966 18.3636 7.80841 18.4731 7.98504C20.0048 10.4489 20.004 13.5689 18.4711 16.032C18.3615 16.2087 18.3883 16.4376 18.5357 16.5842L19.539 17.5865L20.5172 16.6093L20.9442 20.4495C20.9593 20.5848 20.912 20.7195 20.8157 20.8158C20.7195 20.9121 20.5847 20.9594 20.4494 20.9444L16.6044 20.5176L17.5826 19.5405L16.5792 18.5382C16.4326 18.3912 16.2041 18.3645 16.0276 18.4738C13.5624 20.0057 10.4408 20.0035 7.97766 18.4683C7.80113 18.3588 7.57238 18.3854 7.42566 18.5325L6.42938 19.5276L7.40699 20.5041L3.5644 20.9304C3.42911 20.9454 3.29433 20.8981 3.19809 20.8019C3.10185 20.7056 3.05458 20.5708 3.06962 20.4355L3.49638 16.5979L4.474 17.5744L5.47331 16.5762C5.62054 16.4297 5.64739 16.2011 5.53811 16.0244C4.00981 13.5624 4.01069 10.4466 5.54037 7.98542C5.64972 7.80883 5.62297 7.58017 5.47581 7.43359L4.46214 6.42L3.48321 7.39894L3.05572 3.55054C3.04069 3.41525 3.08798 3.28046 3.18423 3.18421C3.28048 3.08796 3.41526 3.04068 3.55055 3.0557L7.39895 3.48319L6.42002 4.46213L7.43375 5.47589C7.58034 5.62305 7.80901 5.6498 7.98561 5.54045C10.4483 4.0098 13.5664 4.00996 16.0289 5.54086C16.2055 5.65032 16.4343 5.62357 16.5809 5.47632L17.5821 4.47511L16.6036 3.4968L20.4495 3.0696C20.5847 3.05457 20.7195 3.10184 20.8158 3.19809C20.912 3.29434 20.9593 3.42912 20.9443 3.56441ZM15.1629 15.9784C14.5701 16.5736 12.3608 16.0096 10.177 13.8189C7.99358 11.6277 7.42305 9.49613 8.0247 8.81611C9.21726 7.6265 9.16451 7.40011 10.1042 8.57287C11.0434 9.74556 10.981 9.67303 10.0516 10.6057C9.68128 10.9772 10.4545 11.9172 11.2636 12.7288C12.0728 13.5404 13.0093 14.3163 13.3797 13.945C14.305 13.0166 14.2369 12.9496 15.4053 13.8925C16.5739 14.8349 16.421 14.716 15.1629 15.9784Z" fill="currentColor"/>
</svg>
