<svg width="24" height="24" viewBox="0 0 24 24" fill="currentColor" xmlns="http://www.w3.org/2000/svg">
<path fill-rule="evenodd" clip-rule="evenodd" d="M13.8 3.6481C13.3539 3.11567 12.6946 2.80811 12 2.80811C11.3053 2.80811 10.6464 3.11567 10.2002 3.6481L9.04079 4.8001H5.99999V7.82226L2.39999 11.4001H5.99999V18.6001C5.99999 19.5942 6.80588 20.4001 7.79999 20.4001H16.2C17.1941 20.4001 18 19.5942 18 18.6001V11.4001H21.6L13.8 3.6481ZM15.6 10.8001C15.6 11.1315 15.3314 11.4001 15 11.4001H13.2788L12 12.6789V14.9213L13.2788 16.2001H14.4C14.7314 16.2001 15 16.4687 15 16.8001V18.0001C15 18.3315 14.7314 18.6001 14.4 18.6001H13.2C12.8686 18.6001 12.6 18.3315 12.6 18.0001V16.8789L11.3212 15.6001H8.99999C8.66862 15.6001 8.39999 15.3315 8.39999 15.0001V12.6001C8.39999 12.2687 8.66862 12.0001 8.99999 12.0001H11.3212L12.6 10.7213V9.0001C12.6 8.66873 12.8686 8.4001 13.2 8.4001H15C15.3314 8.4001 15.6 8.66873 15.6 9.0001V10.8001Z" fill="currentColor"/>
</svg>
