<svg width="24" height="24" viewBox="0 0 24 24" fill="currentColor" xmlns="http://www.w3.org/2000/svg">
<path fill-rule="evenodd" clip-rule="evenodd" d="M2.99286 13.5694C2.99109 14.599 3.42742 15.5808 4.19287 16.2694V10.8694C3.42743 11.558 2.9911 12.5398 2.99286 13.5694ZM19.7929 10.8694V16.2694C20.5568 15.5797 20.9929 14.5986 20.9929 13.5694C20.9929 12.5401 20.5568 11.5591 19.7929 10.8694ZM11.9929 2.10938C8.03287 2.10938 4.79287 5.34937 4.79287 9.30937V16.6276C5.32166 16.9335 5.33544 17.1088 5.99016 17.1093H5.99287C6.65561 17.1093 7.19287 16.572 7.19287 15.9093V11.1094C7.19287 10.4466 6.65561 9.90938 5.99287 9.90938V9.30937C5.99163 8.50994 6.15239 7.71854 6.46545 6.98296C7.0798 5.54314 8.22663 4.39631 9.66645 3.78196C11.1534 3.15185 12.8323 3.15185 14.3193 3.78196C15.7591 4.39631 16.9059 5.54314 17.5203 6.98296C17.8334 7.71854 17.9941 8.50994 17.9929 9.30937V9.90938C17.3301 9.90938 16.7929 10.4466 16.7929 11.1094V15.9094C16.7929 16.5721 17.3301 17.1094 17.9929 17.1094H17.9956C18.2884 17.1092 18.453 17.0739 18.5929 17.0076V17.1094C18.5929 19.0894 16.9729 20.7094 14.9929 20.7094H13.891C13.763 20.3506 13.4238 20.1106 13.0429 20.1094H11.6929C11.1964 20.1108 10.7943 20.5129 10.7929 21.0094C10.7943 21.5058 11.1964 21.9079 11.6929 21.9094H13.0429C13.4238 21.9082 13.763 21.6682 13.891 21.3094H14.9929C15.5538 21.3102 16.1092 21.1973 16.6253 20.9776C17.6312 20.5489 18.4323 19.7477 18.861 18.7418C19.0808 18.2257 19.1937 17.6703 19.1929 17.1094V9.30937C19.1929 5.34937 15.9529 2.10938 11.9929 2.10938Z" fill="currentColor"/>
</svg>
