<svg width="24" height="24" viewBox="0 0 24 24" fill="currentColor" xmlns="http://www.w3.org/2000/svg">
<path fill-rule="evenodd" clip-rule="evenodd" d="M19.8 3H2.40002V15.6C2.40002 16.5941 3.20591 17.4 4.20002 17.4H6.60002V21.6L10.8 17.4H21.6V4.8C21.6 3.80589 20.7941 3 19.8 3ZM14.2639 5.72856C15.0156 5.19918 16.0455 5.32149 16.6523 6.01221C17.2592 6.70294 17.2479 7.73999 16.6261 8.4173C16.0043 9.09462 14.972 9.19442 14.232 8.64876C14.8123 7.76519 14.8247 6.62458 14.2639 5.72856ZM11.976 5.064C13.1358 5.064 14.076 6.0042 14.076 7.164C14.076 8.3238 13.1358 9.264 11.976 9.264C10.8162 9.264 9.87603 8.3238 9.87603 7.164C9.87603 6.0042 10.8162 5.064 11.976 5.064ZM8.70002 5.4C9.05739 5.39943 9.40676 5.50574 9.70323 5.70528C9.12223 6.61235 9.13496 7.77773 9.73562 8.6719C9.10064 9.11864 8.25076 9.10786 7.62731 8.64515C7.00387 8.18245 6.74739 7.37212 6.99106 6.63496C7.23473 5.8978 7.92364 5.4 8.70002 5.4ZM8.40002 13.8H7.08002C6.79359 13.8 6.51889 13.6862 6.31635 13.4837C6.11381 13.2811 6.00002 13.0064 6.00002 12.72V10.56C5.99951 9.85955 6.3391 9.20245 6.91078 8.7977C7.43945 9.39087 8.22767 9.68358 9.01536 9.57924C8.6146 10.1014 8.3982 10.7417 8.40002 11.4V13.8ZM15 15H10.2C9.53728 15 9.00002 14.4627 9.00002 13.8V11.4C8.9998 10.506 9.49655 9.68603 10.289 9.27226C11.2824 10.0669 12.6956 10.0606 13.6818 9.25721C14.4904 9.66546 15.0002 10.4942 15 11.4V15ZM18 13.8H15.6V11.4C15.6018 10.7417 15.3855 10.1014 14.9847 9.57924C15.7724 9.68358 16.5606 9.39087 17.0893 8.7977C17.6609 9.20245 18.0005 9.85955 18 10.56V13.8Z" fill="currentColor"/>
</svg>
