<svg width="24" height="24" viewBox="0 0 24 24" fill="currentColor" xmlns="http://www.w3.org/2000/svg">
<path fill-rule="evenodd" clip-rule="evenodd" d="M21.0706 6.57595H5.32946C4.70827 6.57595 4.20005 7.09483 4.20005 7.71523V18.0712C4.20005 18.6916 4.70827 19.188 5.32946 19.188L7.20005 19.2V20.4H19.2001V19.2L21.0706 19.188C21.6918 19.188 22.2001 18.6916 22.2001 18.0712V7.71523C22.2001 7.09483 21.6918 6.57595 21.0706 6.57595ZM21 18H5.40005V7.79995H21V18ZM13.176 18.6C13.5074 18.6 13.776 18.8686 13.776 19.2C13.776 19.5313 13.5074 19.8 13.176 19.8C12.8447 19.8 12.576 19.5313 12.576 19.2C12.576 18.8686 12.8447 18.6 13.176 18.6ZM3.00005 15.6V5.39995H18.6V5.99995H19.8V5.41195C19.8 4.75195 19.26 4.19995 18.6 4.19995H3.00005C2.34005 4.19995 1.80005 4.75195 1.80005 5.41195V15.612C1.80005 16.272 2.34005 16.8 3.00005 16.8H3.60005V15.6H3.00005Z" fill="currentColor"/>
</svg>
