<svg width="24" height="24" viewBox="0 0 24 24" fill="currentColor" xmlns="http://www.w3.org/2000/svg">
<path fill-rule="evenodd" clip-rule="evenodd" d="M20.4 10.8C20.4 15.2376 17.8154 20.4 12 22.2C6.18461 20.4 3.60001 15.2376 3.60001 10.8V5.99997C3.60001 5.00587 4.38413 4.31942 5.40001 4.19997C5.40001 4.19997 8.90161 3.71997 12.2979 3.71997C15.4957 3.71997 18.6 4.19997 18.6 4.19997C19.5854 4.31673 20.4 5.00587 20.4 5.99997V10.8ZM19.8 10.9604C19.8 15.1021 17.4 19.92 12 21.6C6.60001 19.92 4.20001 15.1021 4.20001 10.9604V6.00067C4.20001 6.00091 4.20001 6.00043 4.20001 6.00067C4.20001 5.33793 4.75033 4.91467 5.40001 4.79997C5.40001 4.79997 8.79545 4.31997 12.1421 4.31997C15.3941 4.31997 18.6 4.79997 18.6 4.79997C19.2452 4.8814 19.8 5.33723 19.8 5.99997C19.8 5.99973 19.8 6.00021 19.8 5.99997V10.9604ZM19.2 11.1204C19.2 14.9662 16.9846 19.44 12 21C7.01537 19.44 4.80001 14.9662 4.80001 11.1204V5.99997C4.80001 5.6686 5.06602 5.4689 5.40001 5.39997C5.40001 5.39997 8.8159 4.91997 12.1723 4.91997C15.4139 4.91997 18.6 5.39997 18.6 5.39997C18.925 5.44778 19.2 5.6686 19.2 5.99997V11.1204ZM7.22401 10.6275L9.76517 12.8853L8.91812 16.272L12.024 14.5786L15.1299 16.272L14.2828 12.8853L16.824 10.6275L13.4358 10.0632L12.024 7.12797L10.6122 10.0632L7.22401 10.6275Z" fill="currentColor"/>
</svg>
