<svg width="24" height="24" viewBox="0 0 24 24" fill="currentColor" xmlns="http://www.w3.org/2000/svg">
<path fill-rule="evenodd" clip-rule="evenodd" d="M11.9998 1.79999C6.3665 1.79999 1.7998 6.36668 1.7998 12C1.7998 17.6333 6.3665 22.2 11.9998 22.2C17.6331 22.2 22.1998 17.6333 22.1998 12C22.1998 6.36668 17.6331 1.79999 11.9998 1.79999ZM11.9998 21C7.02924 21 2.9998 16.9706 2.9998 12C2.9998 7.02942 7.02924 2.99999 11.9998 2.99999C16.9704 2.99999 20.9998 7.02942 20.9998 12C20.9998 16.9706 16.9704 21 11.9998 21ZM8.97581 10.8C8.97581 10.1372 8.43855 9.59999 7.7758 9.59999C7.11306 9.59999 6.5758 10.1372 6.5758 10.8C6.5758 11.4627 7.11306 12 7.7758 12C8.43855 12 8.97581 11.4627 8.97581 10.8ZM17.1386 10.5964H16.4685L17.3087 10.0677C17.5809 9.89534 17.6628 9.53548 17.492 9.26226C17.3196 8.99004 16.9597 8.90814 16.6865 9.07895L14.1984 10.6446C13.9797 10.7385 13.8376 10.9534 13.837 11.1915C13.838 11.5197 14.1038 11.7854 14.432 11.7864H17.1386C17.4669 11.7854 17.7327 11.5196 17.7337 11.1914C17.7327 10.8632 17.4668 10.5974 17.1386 10.5964ZM15.3772 15.3597C15.1627 15.1454 14.8221 15.1247 14.5833 15.3115C13.0712 16.4911 10.9522 16.4967 9.43385 15.3251C9.17237 15.1215 8.79538 15.1685 8.59182 15.43C8.38825 15.6914 8.43519 16.0684 8.69666 16.272C10.6501 17.7822 13.3789 17.7753 15.3246 16.2552C15.4594 16.1491 15.5422 15.9904 15.5523 15.8193C15.5623 15.6481 15.4986 15.4808 15.3772 15.3597Z" fill="currentColor"/>
</svg>
