<svg width="24" height="24" viewBox="0 0 24 24" fill="currentColor" xmlns="http://www.w3.org/2000/svg">
<path fill-rule="evenodd" clip-rule="evenodd" d="M20.4 4.19995H1.79999V18C1.79999 18.9941 2.60588 19.8 3.59999 19.8H22.2V5.99995C22.2 5.00584 21.3941 4.19995 20.4 4.19995ZM6.59999 14.4H7.66124C7.95689 14.4 8.20337 14.6262 8.22865 14.9208L8.39999 16.9195C8.39999 17.1848 8.18487 17.4 7.91951 17.4H6.59999C5.27452 17.4 4.19999 14.848 4.19999 11.7C4.19999 8.55192 5.27452 5.99995 6.59999 5.99995H7.91951C8.18487 5.99995 8.39999 6.21507 8.39999 6.48043L8.22865 8.47915C8.20337 8.77372 7.95689 8.99995 7.66124 8.99995H6.59999C6.26862 8.99995 5.99999 10.2088 5.99999 11.7C5.99999 13.1911 6.26862 14.4 6.59999 14.4ZM19.8 16.8C19.8 17.1313 19.5314 17.4 19.2 17.4H12C11.6686 17.4 11.4 17.1313 11.4 16.8C11.4 16.4686 11.6686 16.2 12 16.2H19.2C19.5314 16.2 19.8 16.4686 19.8 16.8ZM19.8 13.8C19.8 14.1313 19.5314 14.4 19.2 14.4H12C11.6686 14.4 11.4 14.1313 11.4 13.8C11.4 13.4686 11.6686 13.2 12 13.2H19.2C19.5314 13.2 19.8 13.4686 19.8 13.8ZM19.8 10.8C19.8 11.1313 19.5314 11.4 19.2 11.4H12C11.6686 11.4 11.4 11.1313 11.4 10.8V6.59995C11.4 6.26858 11.6686 5.99995 12 5.99995H19.2C19.5314 5.99995 19.8 6.26858 19.8 6.59995V10.8Z" fill="currentColor"/>
</svg>
