<svg width="24" height="24" viewBox="0 0 24 24" fill="currentColor" xmlns="http://www.w3.org/2000/svg">
<path fill-rule="evenodd" clip-rule="evenodd" d="M16.8258 16.224H18.625V18.024H16.8258V16.224ZM13.827 18.024H15.6263V16.224H13.827V18.024ZM16.8258 13.224H18.625V15.024H16.8258V13.224ZM13.827 15.024H15.6263V13.224H13.827V15.024ZM16.8258 10.224H18.625V12.024H16.8258V10.224ZM13.827 12.024H15.6263V10.224H13.827V12.024ZM16.8258 7.224H18.625V9.024H16.8258V7.224ZM13.827 9.024H15.6263V7.224H13.827V9.024ZM18.601 3H12.0038C7.05479 3 3.03915 6.99785 3.00769 11.9415C2.97601 16.9236 7.08255 21 12.0626 21H21V5.4C21 4.76361 20.7475 4.15324 20.2976 3.70315C19.8477 3.25307 19.2374 3 18.601 3ZM7.25931 15.6L6.31007 14.9258L5.38863 15.6L5.73279 14.4964L4.80675 13.8267H5.96641L6.31808 12.7472L6.67371 13.8267H7.80551L6.89437 14.4964L7.25931 15.6ZM6.89437 10.248L7.25931 11.3516L6.31007 10.6774L5.38863 11.3516L5.73279 10.248L4.80675 9.5784H5.96641L6.31808 8.49895L6.67371 9.5784H7.80551L6.89437 10.248ZM10.2674 19.0528L9.31811 18.3786L8.39667 19.0528L8.74083 17.9492L7.81479 17.2796H8.97443L9.32612 16.2L9.68175 17.2794H10.8135L9.90241 17.949L10.2674 19.0528ZM9.90241 6.54917L10.2674 7.65276L9.31811 6.97858L8.39667 7.65276L8.74083 6.54917L7.81479 5.87957H8.97443L9.32612 4.8L9.68175 5.87945H10.8135L9.90241 6.54917ZM19.8005 19.8H12.6035V5.40026C12.6035 4.74012 13.1019 4.2 13.711 4.2H18.693C19.3022 4.2 19.8005 4.74 19.8005 5.40026V19.8Z" fill="currentColor"/>
</svg>
