<svg width="24" height="24" viewBox="0 0 24 24" fill="currentColor" xmlns="http://www.w3.org/2000/svg">
<path fill-rule="evenodd" clip-rule="evenodd" d="M19.811 9.99292C19.8976 9.59275 19.9413 9.18447 19.9412 8.77502C19.9412 5.58556 17.3339 3.00001 14.1176 3.00001C12.3592 2.99669 10.6932 3.78717 9.58356 5.15131C9.42066 5.11715 9.25466 5.09997 9.08822 5.10002C7.85117 5.10002 6.83443 6.03508 6.71726 7.23134C4.62257 7.48471 3 9.25442 3 11.4C3 13.7196 4.89622 15.6 7.2353 15.6H7.8V10.8C7.8 9.48002 8.88 8.40002 10.2 8.40002H13.8C15.12 8.40002 16.2 9.48002 16.2 10.8V15.6H17.8235C19.5779 15.6 21 14.1897 21 12.45C21 11.4923 20.5619 10.5873 19.811 9.99292ZM8.664 20.1353L11.2824 15.6H8.4V19.2C8.39981 19.5302 8.4912 19.854 8.664 20.1353ZM9.072 20.5997C9.3909 20.8586 9.78919 21 10.2 21H13.8C14.7929 20.9971 15.5971 20.1929 15.6 19.2V15.6H11.9585L9.072 20.5997ZM14.8824 9.36456C14.5711 9.12802 14.1909 9.00002 13.8 9.00002H10.2C9.20709 9.00292 8.4029 9.80711 8.4 10.8V15.6H11.2824L14.8824 9.36456ZM15.6 15.6V10.8C15.6001 10.4479 15.4961 10.1036 15.3011 9.8104L11.9585 15.6H15.6Z" fill="currentColor"/>
</svg>
