<svg width="24" height="24" viewBox="0 0 24 24" fill="currentColor" xmlns="http://www.w3.org/2000/svg">
<path fill-rule="evenodd" clip-rule="evenodd" d="M16.8 4.20071C15 4.20071 13.3636 4.66727 12 5.49911C10.6364 4.66727 8.99999 4.19996 7.19999 4.19996H1.79999V16.308C1.79999 16.908 2.27999 17.3992 2.87999 17.3992L7.19999 17.4C8.15999 17.4 9.07573 17.5623 9.88864 17.9061C10.4953 18.1627 11.5569 18.9268 11.5569 18.9268C11.76 19.068 11.8257 19.116 12 19.116C12.1742 19.116 12.24 19.068 12.4431 18.9268C12.4431 18.9268 13.5047 18.1627 14.1113 17.9061C14.9242 17.5623 15.84 17.3992 16.8 17.3992L21.12 17.3984C21.4079 17.3973 21.6835 17.2817 21.8861 17.0771C22.0887 16.8726 22.2016 16.5959 22.2 16.308V4.19922L16.8 4.20071ZM15 10.1997V7.19975C15.0009 6.86878 15.269 6.60071 15.6 6.59975H18C18.331 6.60071 18.599 6.86878 18.6 7.19975V10.1997H20.4L17.4528 13.1462C17.2833 13.326 17.0472 13.428 16.8001 13.428C16.553 13.428 16.3168 13.326 16.1474 13.1462L13.2 10.1997H15ZM3.59999 6.59795H8.39999C8.72906 6.60211 8.99364 6.87005 8.99364 7.19915C8.99364 7.52824 8.72906 7.79619 8.39999 7.80035H3.59999C3.27092 7.79619 3.00634 7.52824 3.00634 7.19915C3.00634 6.87005 3.27092 6.60211 3.59999 6.59795ZM3.59999 9.00035H8.39999C8.73136 9.00035 8.99999 9.26898 8.99999 9.60035C8.99999 9.93172 8.73136 10.2003 8.39999 10.2003H3.59999C3.2712 10.1967 3.00656 9.92919 3.00656 9.60038C3.00656 9.27158 3.2712 9.00395 3.59999 9.00035ZM3.59999 11.3981H5.99999C6.33206 11.3981 6.60126 11.6673 6.60126 11.9994C6.60126 12.3315 6.33206 12.6007 5.99999 12.6007H3.59999C3.2705 12.5971 3.0053 12.3289 3.0053 11.9994C3.0053 11.6699 3.2705 11.4017 3.59999 11.3981ZM21 15.5968C21.0002 15.9287 20.7319 16.1983 20.4 16.1997H16.8C15.6 16.1997 14.6051 16.3941 13.6442 16.8004C13.1897 16.9927 12.36 17.508 12.36 17.508C12.2613 17.5791 12.12 17.61 12 17.61C11.88 17.61 11.7386 17.5791 11.64 17.508C11.64 17.508 10.8103 16.9927 10.3557 16.8004C9.39488 16.394 8.39999 16.1997 7.19999 16.1997H3.59999C3.26804 16.1983 2.99975 15.9287 2.99999 15.5968V14.9983H7.19852C8.99852 14.9983 10.6364 15.4673 12 16.2991C13.3636 15.4673 15 14.9997 16.8 14.9997H21V15.5968Z" fill="currentColor"/>
</svg>
