<svg width="24" height="24" viewBox="0 0 24 24" fill="currentColor" xmlns="http://www.w3.org/2000/svg">
<path fill-rule="evenodd" clip-rule="evenodd" d="M13.8 18C13.8 18.3314 13.5314 18.6 13.2 18.6H10.8C10.4686 18.6 10.2 18.3314 10.2 18H1.8V19.2C1.8 19.5314 2.06863 19.8 2.4 19.8H21.6C21.9314 19.8 22.2 19.5314 22.2 19.2V18H13.8ZM21 15.6C21.0001 15.592 21 15.584 21 15.576V5.99999C21 5.33725 20.4627 4.79999 19.8 4.79999H4.2C3.53726 4.79999 3 5.33725 3 5.99999V15.576C3 15.584 3.00046 15.592 3.0006 15.6L3 17.4H21V15.6ZM19.8 16.2H4.2V5.99999H19.8V16.2ZM11.127 14.9998C11.2308 14.9998 11.3304 14.9584 11.4035 14.8848C11.4767 14.8112 11.5175 14.7114 11.5169 14.6076C11.5159 14.5501 11.4956 14.4946 11.4593 14.4499C11.1903 14.1106 11.2284 13.6212 11.5468 13.3277C11.8651 13.0341 12.3559 13.0356 12.6724 13.3311C12.9889 13.6267 13.024 14.1162 12.7529 14.4539C12.7181 14.4968 12.6989 14.5503 12.6986 14.6055C12.6986 14.8233 12.8752 14.9998 13.0929 14.9998H14.4354C14.5599 15.0033 14.6805 14.9562 14.7697 14.8693C14.8589 14.7823 14.9091 14.663 14.9088 14.5384V12.6544C14.9088 12.5167 15.0204 12.4051 15.1581 12.4051C15.2914 12.406 15.4217 12.4444 15.5342 12.5159C15.7941 12.6782 16.1225 12.6836 16.3876 12.5298C16.6527 12.376 16.811 12.0883 16.7992 11.782C16.7828 11.3489 16.4052 10.9866 15.9717 10.987C15.817 10.9869 15.6655 11.0304 15.5343 11.1125C15.4193 11.1847 15.2862 11.2231 15.1503 11.2233C15.0169 11.2233 14.9087 11.1152 14.9087 10.9818V9.56423C14.908 9.3031 14.6965 9.0916 14.4353 9.09085H13.0931C12.9886 9.09086 12.8883 9.04932 12.8143 8.97537C12.7404 8.90143 12.6988 8.80113 12.6988 8.69656C12.6991 8.64131 12.7183 8.58782 12.7531 8.54495C13.0205 8.21162 12.9901 7.72946 12.6828 7.43245C12.3756 7.13543 11.8927 7.12132 11.5686 7.39989C11.2445 7.67845 11.1859 8.158 11.4334 8.50638C11.5438 8.65661 11.5235 8.86577 11.3864 8.99204C11.3151 9.05581 11.2227 9.09099 11.127 9.09085H9.47302C9.21189 9.0916 9.00038 9.3031 8.99962 9.56423V10.9636C8.99962 11.097 9.1078 11.2052 9.24123 11.2052C9.3771 11.205 9.51017 11.1666 9.62523 11.0943C9.75635 11.0122 9.90795 10.9687 10.0627 10.9689C10.4961 10.9684 10.8737 11.3308 10.8901 11.7639C10.902 12.0701 10.7436 12.3579 10.4785 12.5116C10.2134 12.6654 9.88504 12.6601 9.62508 12.4978C9.51261 12.4263 9.38227 12.3879 9.24898 12.387C9.11131 12.387 8.99971 12.4986 8.99971 12.6363V14.5384C8.99941 14.663 9.04958 14.7823 9.13878 14.8693C9.22798 14.9562 9.3486 15.0033 9.47311 14.9998H11.127Z" fill="currentColor"/>
</svg>
