<svg width="24" height="24" viewBox="0 0 24 24" fill="currentColor" xmlns="http://www.w3.org/2000/svg">
<path fill-rule="evenodd" clip-rule="evenodd" d="M12 3.60003C16.297 3.60685 19.8905 6.86716 20.314 11.1433C20.7375 15.4194 17.8535 19.3213 13.6412 20.1709C9.42904 21.0205 5.25797 18.5416 3.99084 14.4356C2.72371 10.3297 4.77244 5.93134 8.73088 4.25942C9.76512 3.82194 10.877 3.59767 12 3.60003ZM12 1.80005C6.36668 1.80005 1.79999 6.36674 1.79999 12C1.79999 17.6334 6.36668 22.2001 12 22.2001C17.6333 22.2001 22.2 17.6334 22.2 12C22.2 6.36674 17.6333 1.80005 12 1.80005ZM15 10.2H10.2V8.40005C10.2 7.40594 11.0059 6.60005 12 6.60005C12.9941 6.60005 13.8 7.40594 13.8 8.40005V9.00005H15V8.40005C15 6.74319 13.6568 5.40005 12 5.40005C10.3431 5.40005 8.99999 6.74319 8.99999 8.40005V10.2H7.79999V16.2C7.79999 16.8628 8.33725 17.4 8.99999 17.4H16.2V11.4C16.2 10.7373 15.6627 10.2 15 10.2ZM12.4656 13.8075L12.6 15.6H11.4L11.5344 13.8075C11.1153 13.5925 10.8979 13.1184 11.0085 12.6605C11.1191 12.2026 11.5289 11.88 12 11.88C12.4711 11.88 12.8809 12.2026 12.9915 12.6605C13.1021 13.1184 12.8847 13.5925 12.4656 13.8075Z" fill="currentColor"/>
</svg>
