<svg width="24" height="24" viewBox="0 0 24 24" fill="currentColor" xmlns="http://www.w3.org/2000/svg">
<path fill-rule="evenodd" clip-rule="evenodd" d="M16.3309 14.3847C16.4613 14.282 16.6502 14.3045 16.7529 14.4348L16.9084 14.6321L21.1571 11.2866C21.6502 11.9123 21.8746 12.7085 21.7807 13.4995C21.6868 14.2905 21.2824 15.0118 20.6566 15.5047L20.6555 15.5056C19.3516 16.5317 17.4629 16.3074 16.4357 15.0043L16.2808 14.8066C16.2314 14.744 16.209 14.6644 16.2184 14.5853C16.2278 14.5061 16.2683 14.434 16.3309 14.3847ZM2 14.2136C2.00023 13.2196 2.80618 12.414 3.80017 12.4142H8.00053L9.8007 8.81546H13.7646L15.1653 15.7215C15.1741 15.7568 15.1815 15.7926 15.1871 15.829C15.1964 15.8897 15.2011 15.9515 15.2011 16.013V16.6128C15.201 17.2754 14.6637 17.8124 14.0011 17.8124H3.80017C3.32283 17.8125 2.86501 17.623 2.52741 17.2855C2.18981 16.9481 2 16.4903 2 16.013V14.2136ZM2 20.2115C2 20.6889 2.18982 21.1466 2.52742 21.4841C2.86502 21.8215 3.32284 22.011 3.80017 22.0109H13.401C14.0454 22.0133 14.6419 21.6708 14.9648 21.1131C15.2877 20.5554 15.2877 19.8676 14.9648 19.3099C14.6419 18.7522 14.0454 18.4098 13.401 18.4121H3.80017C3.32283 18.412 2.86501 18.6016 2.52741 18.939C2.18981 19.2765 2 19.7342 2 20.2115ZM12.801 20.2115C12.8009 19.9689 12.947 19.75 13.1712 19.6571C13.3954 19.5641 13.6535 19.6154 13.8251 19.787C13.9968 19.9586 14.0482 20.2167 13.9553 20.4409C13.8625 20.6651 13.6437 20.8113 13.401 20.8113C13.0697 20.8113 12.8011 20.5428 12.801 20.2115ZM10.4007 20.2115C10.4007 19.9689 10.5468 19.75 10.771 19.6571C10.9952 19.5641 11.2533 19.6154 11.4249 19.787C11.5966 19.9586 11.6479 20.2167 11.5551 20.4409C11.4622 20.6651 11.2434 20.8113 11.0007 20.8113C10.6695 20.8113 10.4009 20.5428 10.4007 20.2115ZM8.00053 20.2115C8.00044 19.9689 8.14657 19.75 8.37077 19.6571C8.59497 19.5641 8.85307 19.6154 9.02472 19.787C9.19636 19.9586 9.24773 20.2167 9.15488 20.4409C9.06202 20.6651 8.84323 20.8113 8.60053 20.8113C8.26924 20.8113 8.00065 20.5428 8.00053 20.2115ZM5.60031 20.2115C5.60022 19.9689 5.74635 19.75 5.97055 19.6571C6.19475 19.5641 6.45286 19.6154 6.6245 19.787C6.79614 19.9586 6.84752 20.2167 6.75466 20.4409C6.6618 20.6651 6.44301 20.8113 6.20031 20.8113C5.86903 20.8113 5.60043 20.5428 5.60031 20.2115ZM3.20012 20.2115C3.20003 19.9689 3.34616 19.75 3.57036 19.6571C3.79456 19.5641 4.05266 19.6154 4.22431 19.787C4.39595 19.9586 4.44732 20.2167 4.35447 20.4409C4.26161 20.6651 4.04282 20.8113 3.80012 20.8113C3.46883 20.8113 3.20024 20.5428 3.20012 20.2115ZM19.3529 11.8829L16.4786 8.18661L18.0724 4.82901C18.0756 4.82223 18.0787 4.81538 18.0817 4.80847C18.0959 4.77807 18.1093 4.7474 18.122 4.71645L20.7672 10.7695L20.769 10.7719L19.3529 11.8829ZM14.7178 10.4967L14.3527 8.69625L14.2552 8.21573H10.278L14.4717 2.71039C15.0298 1.97654 16.0523 1.78314 16.8398 2.26246C17.6274 2.74177 17.9254 3.73876 17.53 4.57164L14.7178 10.4967Z" fill="currentColor"/>
</svg>
