<svg width="24" height="24" viewBox="0 0 24 24" fill="currentColor" xmlns="http://www.w3.org/2000/svg">
<path fill-rule="evenodd" clip-rule="evenodd" d="M12 10.8C14.1564 10.7966 16.2579 11.4798 18 12.7506V12.0189C14.3676 9.59376 9.63242 9.59376 6 12.0189V12.7506C7.74214 11.4798 9.84362 10.7966 12 10.8ZM12 12C14.2144 11.9969 16.3516 12.8134 18 14.292V13.5057C14.4927 10.6982 9.50735 10.6982 6 13.5057V14.292C7.64836 12.8134 9.78559 11.9969 12 12ZM12 6.00005C13.9535 5.99761 15.8886 6.37791 17.696 7.11948C17.6086 6.85687 17.503 6.60066 17.38 6.35271C13.9058 5.0825 10.0942 5.0825 6.61997 6.35271C6.49699 6.60066 6.39143 6.85687 6.30403 7.11948C8.11136 6.37791 10.0465 5.99761 12 6.00005ZM12 19.2001C12.8894 19.2001 13.6455 19.8497 13.7797 20.729C13.9737 20.6681 14.1645 20.5974 14.3514 20.5171C14.1219 19.401 13.1394 18.6 12 18.6C10.8606 18.6 9.87813 19.401 9.64863 20.5171C9.83546 20.5974 10.0263 20.6681 10.2204 20.729C10.3545 19.8497 11.1106 19.2001 12 19.2001ZM12 8.40005C14.0954 8.39684 16.1581 8.91859 18 9.91764V9.23942C14.2302 7.32026 9.7698 7.32026 6 9.23942V9.91764C7.84186 8.91859 9.90464 8.39684 12 8.40005ZM8.06767 19.5222C8.68368 17.8845 10.2502 16.8 12 16.8C13.7498 16.8 15.3163 17.8845 15.9323 19.5222C16.095 19.3804 16.2499 19.23 16.3966 19.0717C15.6307 17.3269 13.9055 16.2 12 16.2C10.0945 16.2 8.36927 17.3269 7.60342 19.0717C7.75007 19.23 7.90504 19.3804 8.06767 19.5222ZM12 7.20005C14.0717 7.19707 16.1173 7.66243 17.9838 8.56133C17.9664 8.32445 17.9348 8.08883 17.8893 7.85573C14.1416 6.18149 9.85842 6.18149 6.11071 7.85573C6.06516 8.08883 6.03361 8.32445 6.01623 8.56133C7.88275 7.66243 9.92831 7.19707 12 7.20005ZM12 13.2C14.2803 13.1977 16.4469 14.1957 17.9273 15.9302C17.9694 15.662 17.9932 15.3913 17.9985 15.1198C16.4187 13.5082 14.2568 12.6001 12 12.6001C9.7432 12.6001 7.58134 13.5082 6.00154 15.1198C6.00682 15.3913 6.0306 15.662 6.07272 15.9302C7.55307 14.1957 9.71967 13.1977 12 13.2ZM12 20.4C12.3197 20.4001 12.5832 20.6507 12.5992 20.97C12.7989 20.95 12.9974 20.9199 13.194 20.8798C13.1324 20.2665 12.6163 19.7996 12 19.7996C11.3836 19.7996 10.8675 20.2665 10.806 20.8798C11.0026 20.9199 11.2011 20.95 11.4007 20.97C11.4167 20.6507 11.6803 20.4 12 20.4ZM12 15.6C14.0367 15.5996 15.9004 16.7452 16.8196 18.5626C16.9549 18.3804 17.0799 18.1907 17.1938 17.9945C16.1208 16.1412 14.1415 15.0001 12 15.0001C9.85848 15.0001 7.87922 16.1412 6.80619 17.9945C6.92014 18.1907 7.04507 18.3804 7.18037 18.5626C8.0996 16.7452 9.96329 15.5996 12 15.6ZM12 14.4C14.219 14.3987 16.2898 15.5137 17.5104 17.3668C17.6074 17.1427 17.6905 16.9129 17.7593 16.6786C16.3994 14.8664 14.2658 13.8 12.0001 13.8C9.73444 13.8 7.60089 14.8664 6.24094 16.6786C6.30964 16.9129 6.39269 17.1427 6.4896 17.3668C7.71017 15.5137 9.781 14.3987 12 14.4ZM12 9.60005C14.12 9.5967 16.1986 10.1874 18 11.3051V10.56C14.2864 8.41931 9.71358 8.41931 6 10.56V11.3052C7.80143 10.1874 9.87998 9.59674 12 9.60005ZM12 18C13.3661 18.0002 14.5598 18.9229 14.9041 20.245C15.086 20.1436 15.2625 20.0328 15.4329 19.9132C14.9586 18.4168 13.5697 17.4 12 17.4C10.4303 17.4 9.04137 18.4168 8.56714 19.9132C8.73759 20.0329 8.91411 20.1436 9.096 20.245C9.44028 18.923 10.6339 18.0002 12 18ZM15.1155 3.87845C14.1781 3.3034 13.0997 2.99935 12 3.00005C10.9003 2.99935 9.82188 3.3034 8.88449 3.87845C10.9449 3.50734 13.0551 3.50734 15.1155 3.87845ZM7.0944 5.55643C10.2871 4.54792 13.7131 4.54792 16.9058 5.55643C16.6973 5.26082 16.4627 4.98444 16.2049 4.73059C13.4463 4.02319 10.5539 4.02319 7.7953 4.73059C7.53753 4.98445 7.30297 5.26083 7.0944 5.55643ZM12 1.80005C8.04 1.80005 4.8 5.04005 4.8 9.00005V15C4.8 18.96 8.04 22.2001 12 22.2001C15.96 22.2001 19.2 18.96 19.2 15V9.00005C19.2 5.04005 15.96 1.80005 12 1.80005ZM18.6 15.2001C18.6 18.72 15.63 21.6 12 21.6C8.37 21.6 5.4 18.72 5.4 15.2001V8.80003C5.4 5.28005 8.37 2.40005 12 2.40005C15.63 2.40005 18.6 5.28005 18.6 8.80003V15.2001Z" fill="currentColor"/>
</svg>
