<svg width="24" height="24" viewBox="0 0 24 24" fill="currentColor" xmlns="http://www.w3.org/2000/svg">
<path d="M19.198 16.6113L19.1942 11.8731C19.1961 11.3881 18.9383 10.9391 18.5185 10.6961C18.0987 10.4531 17.581 10.4533 17.1613 10.6965C16.7417 10.9398 16.4842 11.3889 16.4864 11.874L16.4858 11.1974C16.4856 10.7136 16.2274 10.2668 15.8084 10.0251C15.3894 9.78342 14.8733 9.78364 14.4545 10.0257C14.0357 10.2677 13.7778 10.7148 13.778 11.1985L13.7775 10.5217C13.774 9.77612 13.1685 9.17364 12.423 9.17395C11.6775 9.17425 11.0725 9.77722 11.0696 10.5228L11.0642 3.75385C11.0639 3.0061 10.4575 2.40019 9.70972 2.40051C8.96197 2.40083 8.35606 3.00726 8.35638 3.755L8.36334 12.5433L8.35559 13.6346C8.3555 13.7072 8.30999 13.772 8.24174 13.7966C8.17349 13.8213 8.09708 13.8006 8.0506 13.7449L6.48959 11.6795C6.03228 11.0418 5.14495 10.8946 4.50602 11.3502C3.86709 11.8058 3.71733 12.6925 4.17119 13.3326L8.34839 19.2448C9.48496 20.9387 11.4208 22.0785 13.5146 22.0797C13.9496 22.0802 14.3832 22.0306 14.8068 21.9319C17.3096 21.4536 19.2 19.2532 19.198 16.6113Z" fill="currentColor"/>
</svg>
