<svg width="24" height="24" viewBox="0 0 24 24" fill="currentColor" xmlns="http://www.w3.org/2000/svg">
<path fill-rule="evenodd" clip-rule="evenodd" d="M12.3139 6.0031C12.2175 6.0031 12.1209 6 12.024 6C11.927 6 11.8304 6.0031 11.734 6.0031C7.23199 6.0031 2.67574 9.17623 1.19995 12C2.67574 14.8237 7.18399 17.9969 11.686 17.9969C11.7824 17.9969 11.879 18 11.976 18C12.0729 18 12.1695 17.9969 12.2659 17.9969C16.7679 17.9969 21.3242 14.8237 22.7999 12C21.3242 9.17623 16.8159 6.0031 12.3139 6.0031ZM11.9668 16.32C9.58096 16.32 7.64683 14.3859 7.64683 12C7.64683 9.61413 9.58096 7.68 11.9668 7.68C14.3527 7.68 16.2868 9.61413 16.2868 12C16.2868 13.1457 15.8317 14.2445 15.0215 15.0547C14.2114 15.8649 13.1126 16.32 11.9668 16.32ZM2.89003 12.0009C3.6048 11.0026 4.74763 9.98294 6.08002 9.1733C6.51318 8.90995 6.96128 8.67199 7.42205 8.46062C5.79283 10.5503 5.80056 13.4822 7.44077 15.5632C6.9659 15.3466 6.50463 15.1014 6.0595 14.8288C4.73921 14.0214 3.6037 13.0017 2.89003 12.0009ZM17.92 14.8268C17.4545 15.11 16.9716 15.3637 16.4744 15.5865C18.1535 13.4794 18.1459 10.4893 16.4561 8.39078C16.9674 8.61836 17.4632 8.87905 17.9405 9.17119C19.2608 9.9786 20.3964 10.9985 21.11 11.9993C20.3951 12.9975 19.2525 14.0172 17.92 14.8268ZM13.056 12.8972C12.2034 12.8956 11.4424 12.3619 11.1506 11.5608C10.8588 10.7597 11.0982 9.8616 11.75 9.312C10.3425 9.42356 9.26817 10.6169 9.30463 12.0284C9.3411 13.44 10.4756 14.5763 11.887 14.615C13.2985 14.6537 14.4936 13.5814 14.6074 12.174C14.2228 12.6328 13.6547 12.8977 13.056 12.8972ZM12.0576 11.3784L12.3384 11.6284L12.2448 12.0034L12.588 11.8159L12.9312 12.0034L12.8376 11.6284L13.1184 11.3784L12.744 11.316L12.588 10.991L12.432 11.316L12.0576 11.3784ZM13.1574 9.85025L13.5435 10.194L13.4148 10.7096L13.8867 10.452L14.3586 10.7098L14.2298 10.1942L14.616 9.85032L14.1012 9.76438L13.8867 9.3175L13.6722 9.76438L13.1574 9.85025Z" fill="currentColor"/>
</svg>
