<svg width="24" height="24" viewBox="0 0 24 24" fill="currentColor" xmlns="http://www.w3.org/2000/svg">
<path fill-rule="evenodd" clip-rule="evenodd" d="M19.8 21H4.2C3.53726 21 3 20.4627 3 19.8V4.2C3 3.53726 3.53726 3 4.2 3H19.8C20.4627 3 21 3.53726 21 4.2V19.8C21 20.4627 20.4627 21 19.8 21ZM19.8 4.2H4.2V19.8H8.4V9C8.4 8.66863 8.66863 8.4 9 8.4H19.8V4.2ZM9.6 9.6V19.8H13.8V14.4C13.8 14.0686 14.0686 13.8 14.4 13.8H19.8V9.6H9.6ZM15 15H19.8V19.8H15V15ZM5.7 4.8C6.19706 4.8 6.6 5.20294 6.6 5.7C6.6 6.19706 6.19706 6.6 5.7 6.6C5.20294 6.6 4.8 6.19706 4.8 5.7C4.8 5.4613 4.89482 5.23239 5.0636 5.0636C5.23239 4.89482 5.4613 4.8 5.7 4.8ZM11.1 10.2C11.5971 10.2 12 10.6029 12 11.1C12 11.5971 11.5971 12 11.1 12C10.6029 12 10.2 11.5971 10.2 11.1C10.2 10.6029 10.6029 10.2 11.1 10.2ZM16.5 15.6C16.9971 15.6 17.4 16.0029 17.4 16.5C17.4 16.9971 16.9971 17.4 16.5 17.4C16.0029 17.4 15.6 16.9971 15.6 16.5C15.6 16.2613 15.6948 16.0324 15.8636 15.8636C16.0324 15.6948 16.2613 15.6 16.5 15.6Z" fill="currentColor"/>
</svg>
