<svg width="24" height="24" viewBox="0 0 24 24" fill="currentColor" xmlns="http://www.w3.org/2000/svg">
<path fill-rule="evenodd" clip-rule="evenodd" d="M20.4 11.4H18.6L15.4152 6.09207C15.2329 5.70028 14.8546 5.4362 14.424 5.40003H13.2V5.07603C13.2 4.57897 12.7971 4.17603 12.3 4.17603C11.8029 4.17603 11.4 4.57897 11.4 5.07603V5.40003H2.4V17.1C2.4 18.5912 3.60883 19.8 5.1 19.8C6.59117 19.8 7.8 18.5912 7.8 17.1V16.8H13.2V17.1C13.2 18.5912 14.4088 19.8 15.9 19.8C17.3912 19.8 18.6 18.5912 18.6 17.1V16.8H21.6V12.6C21.6 11.9373 21.0627 11.4 20.4 11.4ZM10.5427 11.0516C10.3823 12.2552 9.61186 12.6082 9.24267 12.849C8.87347 13.0897 7.9374 13.4748 7.96959 14.2132C8.00177 14.9515 7.20624 13.3302 7.96186 12.3456C8.65407 11.4435 8.45626 11.0064 8.31195 10.7466C8.31195 10.7466 8.24983 11.241 7.53091 11.6026C6.91587 11.9119 6.84303 12.5416 6.99571 12.9774C7.09325 13.2555 6.45019 12.7581 6.25771 12.405C6.06523 12.0518 5.97041 11.6714 6.01147 11.2389C6.12514 10.0429 7.17039 9.72065 7.08247 9.17146C7.07928 9.15156 7.05708 9.0361 7.05708 9.0361C7.35519 9.33846 7.45586 9.78382 7.31676 10.185C7.2913 10.2626 7.99083 9.99238 7.76621 9.4146C7.54159 8.83682 7.3008 7.85796 8.23167 7.20003C8.23167 7.20003 8.15136 7.55302 8.50447 8.00239C8.85759 8.45177 9.46743 9.16327 9.51559 9.65537C9.56374 10.1486 9.51413 10.6741 9.24267 11.0837C9.23206 11.0997 9.71364 10.8644 9.82049 10.3615C9.92415 9.87394 9.88471 9.31829 9.78835 9.15782C9.69199 8.99736 10.7032 9.84795 10.5427 11.0516Z" fill="currentColor"/>
</svg>
