<svg width="24" height="24" viewBox="0 0 24 24" fill="currentColor" xmlns="http://www.w3.org/2000/svg">
<path fill-rule="evenodd" clip-rule="evenodd" d="M19.0099 4.02699C16.7513 4.02699 14.6524 3.31899 12.6954 2.10102C12.2549 1.82704 11.6969 1.82718 11.2566 2.10138C9.29959 3.32058 7.20077 4.03405 4.94218 4.02632C4.18786 4.02681 3.57605 4.63849 3.57605 5.39281V10.6289C3.57605 14.9509 6.02623 19.9601 11.5231 21.8829C11.8163 21.9855 12.1358 21.9855 12.429 21.8829C17.9258 19.96 20.376 14.9509 20.376 10.6289V5.39353C20.376 5.03115 20.2322 4.6836 19.976 4.42732C19.7198 4.17105 19.3723 4.02704 19.0099 4.02699ZM19.1761 11.0576C19.1761 14.1933 17.0934 18.9294 12.4234 20.6105C12.1342 20.7145 11.8179 20.7145 11.5287 20.6105C6.85865 18.9294 4.77605 14.1933 4.77605 11.0576V5.78072C4.77605 5.47503 5.02361 5.22709 5.3293 5.22673C7.68907 5.22673 9.87701 4.54124 11.6739 3.37306C11.8576 3.25354 12.0945 3.25354 12.2782 3.37306C14.0751 4.54131 16.2625 5.22721 18.6222 5.22721C18.7691 5.22723 18.91 5.28563 19.0139 5.38955C19.1178 5.49347 19.1761 5.63439 19.1761 5.78132V11.0576ZM15.6 13.2H8.40005C7.73811 13.1981 7.20199 12.6619 7.20005 12C7.20199 11.3381 7.73811 10.8019 8.40005 10.8H15.6C16.262 10.8019 16.7981 11.3381 16.8 12C16.7981 12.6619 16.262 13.1981 15.6 13.2Z" fill="currentColor"/>
</svg>
