<svg width="24" height="24" viewBox="0 0 24 24" fill="currentColor" xmlns="http://www.w3.org/2000/svg">
<path fill-rule="evenodd" clip-rule="evenodd" d="M17.7303 11.6767L12 22.2001L6.26952 11.6767C5.69802 10.6794 5.39819 9.54953 5.39997 8.40005C5.39997 4.75505 8.35484 1.80005 12 1.80005C15.6451 1.80005 18.6 4.75505 18.6 8.40005C18.6017 9.54955 18.3019 10.6794 17.7303 11.6767ZM16.7626 7.80005C16.4879 5.62497 14.7751 3.91204 12.6 3.63732V4.80005H11.4V3.63732C9.22491 3.91204 7.51204 5.62497 7.2374 7.80005H8.39998V9.00005H7.2374C7.51203 11.1751 9.2249 12.8881 11.4 13.1628V12H12.6V13.1628C14.7751 12.8881 16.4879 11.1751 16.7626 9.00005H15.6V7.80005H16.7626ZM14.5556 9.72581C14.4152 9.80484 14.2565 9.84541 14.0954 9.84341H13.2051C13.0746 9.84341 12.9732 9.80725 12.9011 9.73493C12.829 9.66261 12.793 9.56101 12.793 9.43013V7.29315C12.793 7.16444 12.8292 7.06338 12.9017 6.98995C12.9742 6.91653 13.0753 6.87984 13.2051 6.87984H13.8779C14.139 6.87984 14.3431 6.94203 14.4902 7.06642C14.5662 7.13118 14.6278 7.2112 14.6708 7.30128C14.7147 7.38981 14.7377 7.48723 14.738 7.58604C14.738 7.73719 14.711 7.85978 14.6569 7.95379C14.6028 8.04781 14.5134 8.13278 14.3886 8.20872C14.548 8.25573 14.672 8.31792 14.7606 8.3953C14.9173 8.53089 15.005 8.7295 14.9997 8.93662C15.0016 9.09857 14.9607 9.25816 14.8813 9.39929C14.8048 9.53599 14.6921 9.64897 14.5556 9.72581ZM14.0034 7.54049C13.9375 7.49658 13.8598 7.47387 13.7806 7.4754H13.4712V8.00803H13.812C13.8885 8.01025 13.9627 7.98127 14.0175 7.92775C14.0723 7.87429 14.1021 7.80027 14.0997 7.72375C14.1023 7.64993 14.0657 7.58025 14.0034 7.54049ZM13.9224 8.61226H13.4712V9.25229H13.9407C14.0719 9.25229 14.1663 9.2183 14.2241 9.15034C14.2709 9.09973 14.2944 9.02126 14.2944 8.91492C14.2829 8.71316 14.1589 8.61227 13.9224 8.61226ZM12.2318 9.88366C12.0739 9.88366 11.9661 9.84352 11.9084 9.76325C11.8659 9.70466 11.8363 9.61281 11.8198 9.4877L11.5894 8.09266L11.173 9.48336C11.152 9.55963 11.1257 9.6343 11.0941 9.70682C11.0696 9.75961 11.0311 9.80464 10.9827 9.837C10.9329 9.87103 10.8648 9.88805 10.7784 9.88805C10.6753 9.88805 10.5945 9.86093 10.5361 9.80669C10.4778 9.75245 10.4316 9.67145 10.3977 9.56369L9.9283 8.09266L9.6979 9.56364C9.68375 9.65547 9.63713 9.73919 9.56652 9.79958C9.49183 9.85779 9.39889 9.88757 9.30427 9.88358C9.21855 9.88721 9.13792 9.8429 9.09502 9.7686C9.04779 9.69194 9.02419 9.58816 9.02419 9.45725L9.38753 7.22583C9.40918 7.10215 9.45352 7.01066 9.52056 6.95136C9.6041 6.87851 9.71143 6.83877 9.82227 6.83964C9.91983 6.8378 10.016 6.86295 10.1002 6.91231C10.1807 6.96048 10.2396 7.03785 10.2645 7.12831L10.7609 8.65246L11.2173 7.19117C11.2486 7.09345 11.3067 7.00645 11.3849 6.94006C11.4597 6.87458 11.5559 6.83887 11.6553 6.83971C11.7625 6.83872 11.8672 6.87239 11.9538 6.93571C12.0396 6.99519 12.0969 7.08776 12.1117 7.19117L12.5064 9.44755C12.5064 9.73829 12.4149 9.88366 12.2318 9.88366Z" fill="currentColor"/>
</svg>
