<svg width="24" height="24" viewBox="0 0 24 24" fill="currentColor" xmlns="http://www.w3.org/2000/svg">
<path fill-rule="evenodd" clip-rule="evenodd" d="M19.8 3H2.40002V15.6C2.40002 16.5941 3.20591 17.4 4.20002 17.4H6.60002V21.6L10.8 17.4H21.6V4.8C21.6 3.80589 20.7941 3 19.8 3ZM7.77602 7.2C8.43877 7.2 8.97602 7.73726 8.97602 8.4C8.97602 9.06274 8.43877 9.6 7.77602 9.6C7.11328 9.6 6.57603 9.06274 6.57603 8.4C6.57603 7.73726 7.11328 7.2 7.77602 7.2ZM16.176 7.2C16.8388 7.2 17.376 7.73726 17.376 8.4C17.376 9.06274 16.8388 9.6 16.176 9.6C15.5133 9.6 14.976 9.06274 14.976 8.4C14.976 7.73726 15.5133 7.2 16.176 7.2ZM15 12.3C14.9986 11.8035 14.5965 11.4014 14.1 11.4H9.90002C9.40357 11.4014 9.00147 11.8035 9.00002 12.3V12.6C9.00002 13.2627 10.3432 13.8 12 13.8C13.6569 13.8 15 13.2627 15 12.6V12.3Z" fill="currentColor"/>
</svg>
