<svg width="24" height="24" viewBox="0 0 24 24" fill="currentColor" xmlns="http://www.w3.org/2000/svg">
<path fill-rule="evenodd" clip-rule="evenodd" d="M22.5359 11.0535C22.5286 10.8244 22.4339 10.6067 22.2711 10.4453L21.6 9.77954V4.80106C21.6013 4.32403 21.4128 3.86607 21.0761 3.52819C20.7394 3.19031 20.282 3.00027 19.805 3H2.39999V15.6072C2.39999 16.0839 2.59002 16.5409 2.92777 16.8773C3.26552 17.2137 3.7233 17.4018 4.19999 17.4H6.59999L6.60119 21.0104L10.2 17.4H12.48L11.1435 19.8937L10.2272 21.6L11.9476 20.7113L14.5806 19.3511L14.6636 19.3082C14.6636 19.3082 15.7748 18.1855 16.56 17.4H21.6V12.3686L22.262 11.7124C22.271 11.7039 22.2799 11.6951 22.2889 11.6858C22.4533 11.5171 22.5424 11.289 22.5359 11.0535ZM7.79999 13.8C7.48171 13.8001 7.17642 13.6737 6.95136 13.4486C6.7263 13.2236 6.5999 12.9183 6.59999 12.6L6.59563 10.8045L6.57599 5.4L6.59999 4.2H19.2C19.5184 4.20024 19.8236 4.32694 20.0486 4.55225C20.2736 4.77755 20.3998 5.083 20.3996 5.40139V9.4008L14.895 14.904L13.8 13.8H7.79999ZM20.5102 12.6106C20.5068 12.6146 20.5031 12.6183 20.499 12.6216C18.8462 14.2752 15.3757 17.7466 14.3052 18.8177L11.6722 20.1778L13.0675 17.5797L19.4559 11.1974L20.4987 12.2126C20.5521 12.2651 20.5839 12.3358 20.5877 12.4106C20.5912 12.4852 20.5631 12.5578 20.5102 12.6106ZM21.8581 11.2677C21.8547 11.2714 21.8511 11.2749 21.8473 11.2782L21.1177 12.0075L19.8797 10.7691L20.8132 9.83592L21.8464 10.8695C21.9613 10.9846 21.9664 11.1594 21.8581 11.2677Z" fill="currentColor"/>
</svg>
