<svg width="24" height="24" viewBox="0 0 24 24" fill="currentColor" xmlns="http://www.w3.org/2000/svg">
<path fill-rule="evenodd" clip-rule="evenodd" d="M22.5266 13.0448C22.3527 12.8335 22.1118 12.6881 21.8438 12.6324L18.912 12.072L14.664 8.15981C14.4362 7.92841 14.1247 7.7987 13.8 7.80005H7.75656C7.3769 7.79975 7.01954 7.97932 6.7932 8.28413L3.19704 12.4872C3.1956 12.4889 3.1944 12.4906 3.1932 12.492L3.19104 12.4952C3.03854 12.7012 2.95634 12.9507 2.95656 13.207V14.1519C2.6075 13.9028 2.40021 13.5005 2.4 13.0716V6.12845C2.40083 5.39514 2.99509 4.80088 3.7284 4.80005H8.59152C8.86537 5.85948 9.82094 6.5997 10.9152 6.60005H13.0488C13.1195 6.60018 13.1874 6.57217 13.2375 6.52219C13.2875 6.47222 13.3157 6.40439 13.3157 6.33365V5.80013H15.3156C15.5366 5.80013 15.7157 5.62101 15.7157 5.40005C15.7157 5.17909 15.5366 4.99997 15.3156 4.99997H13.3157V3.40013H15.3156C15.5366 3.40013 15.7157 3.22101 15.7157 3.00005C15.7157 2.77909 15.5366 2.59997 15.3156 2.59997H13.3157V2.06645C13.3157 1.99571 13.2875 1.92788 13.2375 1.87791C13.1874 1.82793 13.1195 1.80005 13.0488 1.80005H10.9152C9.82084 1.80005 8.86511 2.54044 8.59152 3.60005H3.7284C2.33202 3.6001 1.2 4.73207 1.2 6.12845V13.0716C1.2 14.1708 1.90997 15.144 2.95656 15.4798V16.8C2.9568 17.4627 3.49391 17.9998 4.15656 18H5.97792C6.12717 19.0332 7.01263 19.8 8.05656 19.8C9.10048 19.8 9.98594 19.0332 10.1352 18H15.5779C15.7272 19.0332 16.6126 19.8 17.6566 19.8C18.7005 19.8 19.5859 19.0332 19.7352 18H21.6C22.2627 17.9999 22.8 17.4627 22.8 16.8V13.8065C22.8003 13.5285 22.7036 13.2591 22.5266 13.0448ZM12.0005 2.59973L11.6196 3.93293H12.5333L10.9332 5.79965L11.3143 4.46621H10.3997L12.0005 2.59973ZM11.6446 9.00005C11.6446 9.00005 13.7626 8.99957 13.7642 9.00005L17.0558 11.9993H11.6446V9.00005ZM7.93296 9.00005H10.4446V11.9993H5.31672L7.93296 9.00005Z" fill="currentColor"/>
</svg>
