<svg width="24" height="24" viewBox="0 0 24 24" fill="currentColor" xmlns="http://www.w3.org/2000/svg">
<path fill-rule="evenodd" clip-rule="evenodd" d="M18.0288 13.1962C17.9506 13.1953 17.873 13.1969 17.796 13.201C17.1592 13.2343 16.5598 12.898 16.241 12.3456L15.1121 10.3894C14.7589 9.77456 14.7625 9.01755 15.1216 8.40615C15.4447 7.85279 15.6137 7.22295 15.6109 6.58215C15.6056 4.61492 14.0026 3.00392 12.0363 2.99006C10.7436 2.98177 9.54546 3.66657 8.89661 4.78467C8.24776 5.90277 8.24763 7.28279 8.89627 8.40101C9.24515 8.99985 9.24685 9.73961 8.90071 10.34L7.74528 12.3423C7.4302 12.8941 6.83415 13.2247 6.1992 13.1997C6.12288 13.1962 6.04597 13.1952 5.96846 13.1965C4.02033 13.2311 2.44219 14.8317 2.43321 16.781C2.42474 18.4447 3.55709 19.8975 5.17244 20.2955C6.78778 20.6935 8.46548 19.933 9.23083 18.4559C9.55396 17.8275 10.2005 17.4316 10.9071 17.4296H13.2875C13.9026 17.4271 14.464 17.7792 14.7295 18.334C15.4499 19.8631 17.1369 20.6852 18.7851 20.3105C20.4333 19.9357 21.599 18.4649 21.5875 16.7747C21.575 14.8188 19.9836 13.2183 18.0288 13.1962ZM6.0096 19.1994C5.03822 19.1999 4.16224 18.6151 3.7902 17.7178C3.41815 16.8205 3.62333 15.7874 4.31003 15.1004C4.99673 14.4133 6.0297 14.2077 6.92718 14.5793C7.82466 14.9509 8.40986 15.8266 8.40986 16.798C8.41017 18.124 7.33554 19.1991 6.0096 19.1994ZM12.0103 8.9935C11.0389 8.99395 10.1629 8.40915 9.79091 7.51185C9.41887 6.61454 9.62405 5.58148 10.3108 4.89446C10.9975 4.20744 12.0304 4.00178 12.9279 4.37341C13.8254 4.74503 14.4106 5.62074 14.4106 6.59211C14.4107 7.22885 14.1579 7.83957 13.7078 8.28992C13.2576 8.74027 12.647 8.99335 12.0103 8.9935ZM18.011 19.1994C17.0396 19.1999 16.1637 18.6151 15.7916 17.7178C15.4196 16.8204 15.6248 15.7874 16.3115 15.1004C16.9982 14.4133 18.0312 14.2077 18.9286 14.5793C19.8261 14.9509 20.4113 15.8266 20.4113 16.798C20.4114 17.4348 20.1586 18.0455 19.7085 18.4958C19.2584 18.9462 18.6478 19.1993 18.011 19.1994Z" fill="currentColor"/>
</svg>
