<svg width="24" height="24" viewBox="0 0 24 24" fill="currentColor" xmlns="http://www.w3.org/2000/svg">
<path fill-rule="evenodd" clip-rule="evenodd" d="M19.7605 18.0851L16.1295 13.3945H17.658C18.0252 13.3945 18.2406 12.9889 18.03 12.6937L14.3292 7.39745H15.2012C15.579 7.39745 15.7916 6.97117 15.5596 6.67858L12.2869 2.17196C12.1997 2.06325 12.0679 2 11.9285 2C11.7892 2 11.6573 2.06325 11.5701 2.17196L8.29749 6.67853C8.06553 6.97112 8.27805 7.39741 8.65588 7.39741H9.52794L5.82714 12.6937C5.61649 12.9889 5.83177 13.3945 6.19914 13.3945H7.72765L4.09648 18.0851C3.86452 18.3777 4.07706 18.804 4.45489 18.804H19.4021C19.78 18.804 19.9925 18.3776 19.7605 18.0851ZM8.36368 15.7933C8.03252 15.7931 7.76424 15.5245 7.7644 15.1933C7.76456 14.8622 8.0331 14.5938 8.36425 14.5939C8.69541 14.594 8.96382 14.8625 8.96382 15.1936C8.96366 15.5249 8.69499 15.7934 8.36368 15.7933ZM8.36368 12.1951C8.03252 12.1948 7.76424 11.9262 7.7644 11.5951C7.76456 11.2639 8.0331 10.9956 8.36425 10.9957C8.69541 10.9957 8.96382 11.2642 8.96382 11.5954C8.96366 11.9267 8.69499 12.1952 8.36368 12.1951ZM10.7642 6.57694C10.4331 6.5767 10.1648 6.3081 10.165 5.97694C10.1651 5.64579 10.4337 5.37744 10.7648 5.37752C11.096 5.3776 11.3644 5.64607 11.3644 5.97723C11.3642 6.30854 11.0955 6.57702 10.7642 6.57694ZM14.3651 10.9957C14.0339 10.9954 13.7657 10.7268 13.7658 10.3957C13.766 10.0645 14.0345 9.79615 14.3657 9.79623C14.6968 9.79631 14.9652 10.0648 14.9652 10.3959C14.9651 10.7273 14.6964 10.9957 14.3651 10.9957ZM16.7656 16.9928C16.4345 16.9925 16.1662 16.7239 16.1664 16.3927C16.1665 16.0616 16.4351 15.7932 16.7663 15.7933C17.0974 15.7934 17.3658 16.0619 17.3658 16.3931C17.3656 16.7244 17.0969 16.9928 16.7656 16.9928ZM10.7642 21.1907H13.1648V19.3821H10.7642V21.1907Z" fill="currentColor"/>
</svg>
