<svg width="24" height="24" viewBox="0 0 24 24" fill="currentColor" xmlns="http://www.w3.org/2000/svg">
<path fill-rule="evenodd" clip-rule="evenodd" d="M15.7848 10.1379C13.6592 12.1407 10.3412 12.1408 8.21546 10.1381C6.51737 11.0635 5.444 12.8266 5.40156 14.76H5.40002V19.8C5.40002 21.1255 6.47454 22.2001 7.80002 22.2001H18.6V14.88C18.6007 12.9031 17.5207 11.0839 15.7848 10.1379ZM16.32 6.12005C16.32 8.50592 14.3859 10.44 12 10.44C9.61415 10.44 7.68002 8.50592 7.68002 6.12005C7.68002 3.73418 9.61415 1.80005 12 1.80005C14.3859 1.80005 16.32 3.73418 16.32 6.12005ZM8.89574 20.9771H7.86002C7.86019 20.9692 7.86062 20.9614 7.86062 20.9535C7.85801 20.343 7.36169 19.8498 6.75115 19.851V18.822C7.93579 18.822 8.89615 19.7763 8.89615 20.9535C8.89606 20.9614 8.89584 20.9692 8.89574 20.9771ZM10.8188 20.9771H9.78334C9.78334 20.9692 9.78362 20.9614 9.78362 20.9535C9.7854 20.1528 9.46535 19.385 8.89541 18.8226C8.32641 18.255 7.55476 17.9374 6.75106 17.9401V16.911C8.99779 16.911 10.8191 18.7209 10.8191 20.9535C10.8192 20.9614 10.8189 20.9692 10.8188 20.9771ZM12.7421 20.9771H11.7064C11.7064 20.9692 11.7067 20.9614 11.7067 20.9535C11.7081 19.6454 11.1853 18.3912 10.2552 17.4714C9.32457 16.545 8.06413 16.0262 6.75103 16.029V15C10.0599 15 12.7422 17.6655 12.7422 20.9535C12.7422 20.9614 12.7421 20.9692 12.7421 20.9771Z" fill="currentColor"/>
</svg>
