<svg width="24" height="24" viewBox="0 0 24 24" fill="currentColor" xmlns="http://www.w3.org/2000/svg">
<path fill-rule="evenodd" clip-rule="evenodd" d="M21.5185 13.1116L15.4063 16.6215L8.34859 4.46293C7.53653 3.06397 5.73799 2.58467 4.33147 3.39234L2.29406 4.56225C2.15911 4.63929 2.06049 4.76699 2.02007 4.91704C1.97966 5.06708 2.00079 5.22705 2.07878 5.36145C2.24222 5.64151 2.60107 5.73715 2.88221 5.57557L4.91962 4.4056C5.76218 3.92178 6.84343 4.20993 7.32989 5.04796L13.2113 15.1798C12.11 15.0448 11.0269 15.5433 10.4132 16.4678C9.79962 17.3922 9.76076 18.5839 10.3128 19.5464C11.1249 20.9453 12.9234 21.4246 14.33 20.617C15.3413 20.0385 15.9121 18.9143 15.7824 17.7565L22.1067 14.1248C22.2416 14.0478 22.3403 13.9201 22.3807 13.77C22.4211 13.62 22.4 13.46 22.322 13.3256C22.1585 13.0456 21.7997 12.95 21.5185 13.1116ZM13.4477 19.0971C12.8854 19.4195 12.1682 19.2284 11.8409 18.6689C11.6854 18.4 11.6434 18.0803 11.7242 17.7804C11.805 17.4804 12.0019 17.2251 12.2714 17.0707C12.8338 16.7483 13.5509 16.9394 13.8783 17.4989C14.0338 17.7678 14.0758 18.0876 13.995 18.3875C13.9142 18.6874 13.7173 18.9428 13.4477 19.0971ZM21.2139 12.6111L16.1412 15.5241C15.8544 15.6889 15.4884 15.5914 15.3217 15.3057L12.393 10.2604C12.3134 10.1232 12.2918 9.95988 12.3331 9.80669C12.3743 9.6535 12.475 9.5231 12.6127 9.4444L17.6855 6.53154C17.9722 6.36671 18.3383 6.46426 18.5049 6.74994L21.4335 11.7952C21.5131 11.9324 21.5347 12.0957 21.4934 12.2489C21.4522 12.402 21.3516 12.5324 21.2139 12.6111Z" fill="currentColor"/>
</svg>
