<svg width="24" height="24" viewBox="0 0 24 24" fill="currentColor" xmlns="http://www.w3.org/2000/svg">
<path fill-rule="evenodd" clip-rule="evenodd" d="M16.4 3.8H13.4V5C13.4 5.66274 12.8627 6.2 12.2 6.2H11C10.3373 6.2 9.8 5.66274 9.8 5V3.8H6.8C5.80589 3.8 5 4.60589 5 5.6V20.6C5 21.5941 5.80589 22.4 6.8 22.4H16.4C17.3941 22.4 18.2 21.5941 18.2 20.6V5.6C18.2 4.60589 17.3941 3.8 16.4 3.8ZM7.4 9.8H15.8C16.4627 9.8 17 10.3373 17 11V20C17 20.6627 16.4627 21.2 15.8 21.2H7.4C6.73726 21.2 6.2 20.6627 6.2 20V11C6.2 10.3373 6.73726 9.8 7.4 9.8ZM11 2H12.2C12.5314 2 12.8 2.26863 12.8 2.6V5C12.8 5.33137 12.5314 5.6 12.2 5.6H11C10.6686 5.6 10.4 5.33137 10.4 5V2.6C10.4 2.26863 10.6686 2 11 2ZM6.87241 14.4297L9.37532 16.6579L8.54101 20L11.6001 18.3289L14.6593 20L13.825 16.6579L16.328 14.4297L12.9907 13.8728L11.6001 10.9762L10.2096 13.8728L6.87241 14.4297ZM11.588 14.12C12.2019 14.1202 12.6993 14.618 12.6992 15.2319C12.699 15.8457 12.2013 16.3432 11.5875 16.3432C10.9736 16.3431 10.476 15.8454 10.476 15.2316C10.4761 14.9367 10.5932 14.6539 10.8018 14.4455C11.0103 14.237 11.2931 14.1199 11.588 14.12ZM9.92 18.488V17.7326C9.92 17.132 10.1897 16.6537 10.6663 16.3602C10.905 16.5533 11.2569 16.6931 11.588 16.6931C11.9191 16.6931 12.271 16.5533 12.5097 16.3602C12.9863 16.6537 13.256 17.132 13.256 17.7326V18.4899L11.6 17.5529L9.92 18.488Z" fill="currentColor"/>
</svg>
