<svg width="24" height="24" viewBox="0 0 24 24" fill="currentColor" xmlns="http://www.w3.org/2000/svg">
<path fill-rule="evenodd" clip-rule="evenodd" d="M16.2 6.00005V5.99813C16.199 3.68909 14.3093 1.80005 12 1.80005C9.69 1.80005 7.8 3.69005 7.8 6.00005H4.2V20.4C4.2 21.3942 5.00589 22.2001 6 22.2001H18C18.9941 22.2001 19.8 21.3942 19.8 20.4V6.00005H16.2ZM9.88224 3.88229C10.7401 3.02729 12.0279 2.77201 13.1471 3.23512C14.2662 3.69823 14.9971 4.78887 15 6.00005H9C8.99951 5.20465 9.31719 4.44209 9.88224 3.88229ZM7.2 8.40005C7.19978 7.97128 7.42856 7.57504 7.8 7.36085V8.40005C7.8 8.73142 8.06863 9.00005 8.4 9.00005C8.73137 9.00005 9 8.73142 9 8.40005V7.36085C9.50434 7.65203 9.72681 8.26328 9.52763 8.81051C9.32845 9.35775 8.76511 9.68298 8.1916 9.58185C7.61809 9.48071 7.2 8.9824 7.2 8.40005ZM8.16 18.7801C7.79184 18.4484 7.56 17.9364 7.56 17.4C7.56 16.8636 7.79184 16.4117 8.16 16.08V18.7801ZM15.6 18.9591C15.24 19.2 14.64 19.2001 14.64 19.2001C14.3086 19.2001 14.04 18.9314 14.04 18.6V16.2C14.0392 16.0407 14.1022 15.8876 14.2149 15.7749C14.3276 15.6622 14.4806 15.5993 14.64 15.6H15V14.4C15.0007 14.0003 14.9202 13.6046 14.7636 13.2368C14.4565 12.5169 13.8832 11.9435 13.1633 11.6364C12.4198 11.3212 11.5802 11.3212 10.8367 11.6364C10.1168 11.9435 9.54348 12.5169 9.2364 13.2368C9.07976 13.6046 8.99934 14.0003 9 14.4V15.6H9.36C9.69137 15.6 9.96 15.8687 9.96 16.2V18.6C9.96 18.9314 9.69137 19.2001 9.36 19.2001C9.36 19.2001 8.76 19.2 8.4 18.9591V14.4C8.4 12.42 10.02 10.8 12 10.8C13.98 10.8 15.6 12.42 15.6 14.4V18.9591ZM15.84 18.768V16.08C16.2082 16.4103 16.44 16.866 16.44 17.4C16.44 17.934 16.2082 18.4378 15.84 18.768ZM15.6 9.60005C15.0569 9.60003 14.5815 9.23523 14.4409 8.71064C14.3004 8.18604 14.5297 7.63243 15 7.36085V8.40005C15 8.73142 15.2686 9.00005 15.6 9.00005C15.9314 9.00005 16.2 8.73142 16.2 8.40005V7.36085C16.6703 7.63243 16.8996 8.18604 16.7591 8.71064C16.6185 9.23523 16.1431 9.60003 15.6 9.60005Z" fill="currentColor"/>
</svg>
