<svg width="24" height="24" viewBox="0 0 24 24" fill="currentColor" xmlns="http://www.w3.org/2000/svg">
<path fill-rule="evenodd" clip-rule="evenodd" d="M6.6 21H17.4C17.7314 21 18 20.7314 18 20.4C18 20.0686 17.7314 19.8 17.4 19.8H6.6C6.26863 19.8 6 20.0686 6 20.4C6 20.7314 6.26863 21 6.6 21ZM19.2 6H4.8C4.46863 6 4.2 6.26863 4.2 6.6C4.2 6.93137 4.46863 7.2 4.8 7.2H5.7L3 12.6C3 14.2569 4.34315 15.6 6 15.6C7.65685 15.6 9 14.2569 9 12.6L6.3 7.2H11.4V18H8.4C8.06863 18 7.8 18.2686 7.8 18.6C7.8 18.9314 8.06863 19.2 8.4 19.2H15.6C15.9314 19.2 16.2 18.9314 16.2 18.6C16.2 18.2686 15.9314 18 15.6 18H12.6V7.2H17.7L15 12.6C15 14.2569 16.3431 15.6 18 15.6C19.6569 15.6 21 14.2569 21 12.6L18.3 7.2H19.2C19.5314 7.2 19.8 6.93137 19.8 6.6C19.8 6.26863 19.5314 6 19.2 6ZM4.2 12L6 8.4L7.8 12H4.2ZM16.2 12L18 8.4L19.8 12H16.2ZM12 5.4C12.6627 5.4 13.2 4.86274 13.2 4.2C13.2 3.53726 12.6627 3 12 3C11.3373 3 10.8 3.53726 10.8 4.2C10.8 4.86274 11.3373 5.4 12 5.4Z" fill="currentColor"/>
</svg>
