<svg width="24" height="24" viewBox="0 0 24 24" fill="currentColor" xmlns="http://www.w3.org/2000/svg">
<path fill-rule="evenodd" clip-rule="evenodd" d="M21 7.8H3.00001C2.0059 7.8 1.20001 8.60589 1.20001 9.6V15C1.20001 15.9941 2.0059 16.8 3.00001 16.8H21C21.9941 16.8 22.8 15.9941 22.8 15V9.6C22.8 8.60589 21.9941 7.8 21 7.8ZM6.50773 12.2869L5.66053 12.5807L6.19093 13.3175C6.23625 13.3809 6.22425 13.4687 6.16357 13.5176L5.83679 13.7722C5.80803 13.7947 5.77116 13.8042 5.73512 13.7983C5.69908 13.7924 5.66715 13.7717 5.64707 13.7412L5.1141 12.9629L4.6113 13.739C4.59227 13.77 4.56096 13.7914 4.5252 13.7979C4.48943 13.8043 4.4526 13.7953 4.42391 13.773L4.08988 13.5168C4.02887 13.4685 4.01656 13.3807 4.06189 13.3175L4.59229 12.5807L3.76139 12.2875C3.68888 12.2599 3.65147 12.1796 3.67693 12.1063L3.80996 11.7084C3.82046 11.6734 3.84515 11.6445 3.87801 11.6286C3.91087 11.6128 3.94888 11.6114 3.98276 11.625L4.79106 11.9551V11.0128C4.78947 10.9355 4.85056 10.8714 4.92786 10.8692H5.31666C5.39396 10.8714 5.45505 10.9355 5.45346 11.0128V11.9551L6.28626 11.6238C6.32039 11.6106 6.35846 11.6122 6.39133 11.6283C6.4242 11.6443 6.4489 11.6734 6.45949 11.7084L6.5925 12.1063C6.61804 12.1796 6.58038 12.2598 6.50773 12.2869ZM11.2385 12.2869L10.3913 12.5807L10.9217 13.3175C10.967 13.3809 10.955 13.4687 10.8943 13.5176L10.5676 13.7722C10.5388 13.7947 10.5019 13.8042 10.4659 13.7983C10.4298 13.7924 10.3979 13.7717 10.3778 13.7412L9.84481 12.9628L9.34201 13.7389C9.32298 13.7699 9.29166 13.7913 9.25589 13.7978C9.22013 13.8043 9.18329 13.7952 9.1546 13.7729L8.82064 13.5168C8.75963 13.4685 8.74732 13.3807 8.79265 13.3175L9.32305 12.5807L8.49217 12.2875C8.41964 12.2599 8.38222 12.1796 8.40769 12.1063L8.54072 11.7084C8.55122 11.6734 8.57591 11.6445 8.60877 11.6286C8.64163 11.6128 8.67964 11.6114 8.71352 11.625L9.52182 11.9551V11.0128C9.52023 10.9355 9.58132 10.8714 9.65862 10.8692H10.0474C10.1247 10.8714 10.1858 10.9355 10.1842 11.0128V11.9551L11.0169 11.6238C11.051 11.6106 11.0891 11.6122 11.122 11.6283C11.1548 11.6443 11.1795 11.6734 11.1901 11.7084L11.3231 12.1063C11.3487 12.1795 11.3111 12.2597 11.2385 12.2869ZM16.0385 12.2869L15.1913 12.5807L15.7217 13.3175C15.767 13.3809 15.755 13.4687 15.6943 13.5176L15.3676 13.7722C15.3388 13.7947 15.3019 13.8042 15.2659 13.7983C15.2298 13.7924 15.1979 13.7717 15.1778 13.7412L14.6448 12.9628L14.142 13.7389C14.123 13.7699 14.0917 13.7913 14.0559 13.7978C14.0201 13.8043 13.9833 13.7952 13.9546 13.7729L13.6206 13.5168C13.5596 13.4685 13.5473 13.3807 13.5927 13.3175L14.1231 12.5807L13.2922 12.2875C13.2196 12.2599 13.1822 12.1796 13.2077 12.1063L13.3407 11.7084C13.3512 11.6734 13.3759 11.6445 13.4088 11.6286C13.4416 11.6128 13.4796 11.6114 13.5135 11.625L14.3218 11.9551V11.0128C14.3202 10.9355 14.3813 10.8714 14.4586 10.8692H14.8474C14.9247 10.8714 14.9858 10.9355 14.9842 11.0128V11.9551L15.817 11.6238C15.8511 11.6106 15.8892 11.6122 15.9221 11.6283C15.955 11.6443 15.9797 11.6734 15.9903 11.7084L16.1233 12.1063C16.1488 12.1796 16.1111 12.2598 16.0385 12.2869ZM20.4 13.8H18.0028V13.2H20.4V13.8Z" fill="currentColor"/>
</svg>
