<svg width="24" height="24" viewBox="0 0 24 24" fill="currentColor" xmlns="http://www.w3.org/2000/svg">
<path fill-rule="evenodd" clip-rule="evenodd" d="M17.4 21V15.576H15.312V16.776H15.6L15 17.376L14.4 16.776H14.712V15.576H12.288V16.776H12.6L12 17.376L11.4 16.776H11.688V15.576H9.288V16.776H9.6L9 17.376L8.4 16.776H8.688V15.576H6.6V21H3V3.6C3.00096 3.26903 3.26903 3.00096 3.6 3H6.6C6.93097 3.00096 7.19904 3.26903 7.2 3.6V6H9.6V3.6C9.60096 3.26903 9.86903 3.00096 10.2 3H13.8C14.131 3.00096 14.399 3.26903 14.4 3.6V6H16.8V3.6C16.801 3.26903 17.069 3.00096 17.4 3H20.4C20.731 3.00096 20.999 3.26903 21 3.6V21H17.4ZM15.312 14.976H17.3997C17.3973 14.1424 17.201 13.3207 16.8264 12.576H15.312V14.976ZM12.288 14.976H14.712V12.576H12.288V14.976ZM9.288 14.976H11.688V12.576H9.288V14.976ZM8.688 12.576H7.1736C6.79899 13.3207 6.60269 14.1424 6.60024 14.976H8.688V12.576ZM7.52556 11.976H8.688V10.735C8.23776 11.085 7.84547 11.5038 7.52556 11.976ZM9.288 10.3296V11.976H11.688V9.60919C10.8424 9.65664 10.02 9.9035 9.288 10.3296ZM12.288 9.60756V11.976H14.712V10.3296C13.973 9.89934 13.142 9.65173 12.288 9.60756ZM15.312 10.735V11.976H16.4744C16.1545 11.5038 15.7622 11.085 15.312 10.735Z" fill="currentColor"/>
</svg>
