<svg width="24" height="24" viewBox="0 0 24 24" fill="currentColor" xmlns="http://www.w3.org/2000/svg">
<path fill-rule="evenodd" clip-rule="evenodd" d="M22.776 15C22.776 15.6627 22.2387 16.1998 21.576 16.2H20.376C20.376 17.8568 19.0329 19.2 17.376 19.2C15.7192 19.2 14.376 17.8568 14.376 16.2H8.97603C8.97603 17.8568 7.63288 19.2 5.97603 19.2C4.31917 19.2 2.97603 17.8568 2.97603 16.2H2.37603C1.71336 16.1998 1.17603 15.6627 1.17603 15V10.807C1.17567 10.5507 1.25789 10.301 1.41051 10.0951L1.41276 10.0921L1.41646 10.0872L5.01269 5.28407C5.239 4.97922 5.59636 4.79965 5.97603 4.79999H13.776C14.0996 4.79963 14.4096 4.93037 14.6352 5.16239L14.64 5.15965L18.888 9.67199L21.8197 10.2321C22.3764 10.3475 22.7758 10.838 22.776 11.4065V15ZM10.9751 11.7079C10.9728 11.994 10.7984 12.2505 10.5332 12.3578C10.268 12.4652 9.96422 12.4021 9.76364 12.1981C9.56307 11.9941 9.50517 11.6893 9.61696 11.426C9.72875 11.1626 9.9882 10.9926 10.2743 10.9951C10.4618 10.9967 10.6409 11.0727 10.7724 11.2064C10.9038 11.34 10.9767 11.5205 10.9751 11.7079ZM11.3468 10.5174C10.6701 9.93048 9.66454 9.93139 8.98887 10.5195L8.47392 9.92668C9.44399 9.08044 10.8895 9.0791 11.8611 9.92356L11.3468 10.5174ZM12.3716 9.33438C11.1063 8.23718 9.22623 8.23903 7.96308 9.33873L7.44644 8.74398C9.00569 7.38808 11.3251 7.3865 12.8862 8.74026L12.3716 9.33438ZM13.992 7.61932L13.4784 8.21212C11.5752 6.56568 8.75137 6.56758 6.85032 8.21658L6.33603 7.62465C8.5305 5.71627 11.7949 5.714 13.992 7.61932Z" fill="currentColor"/>
</svg>
