<svg width="24" height="24" viewBox="0 0 24 24" fill="currentColor" xmlns="http://www.w3.org/2000/svg">
<path fill-rule="evenodd" clip-rule="evenodd" d="M6.00001 22.2001C5.0071 22.1972 4.20291 21.393 4.20001 20.4V3.60005C4.20291 2.60714 5.0071 1.80295 6.00001 1.80005H18.6V4.20005H19.8V22.2001H6.00001ZM17.4 3.00005H6.00001C5.66904 3.00101 5.40097 3.26908 5.40001 3.60005C5.40097 3.93102 5.66904 4.19909 6.00001 4.20005H17.4V3.00005ZM10.188 13.7976V9.7379C10.188 9.33192 10.503 8.99976 10.888 8.99976H13.088C13.473 8.99976 13.788 9.33192 13.788 9.7379V13.7976L15.6 13.8L12.7615 17.0534C12.5697 17.2736 12.292 17.4001 12 17.4001C11.708 17.4001 11.4303 17.2736 11.2385 17.0534L8.40001 13.8L10.188 13.7976Z" fill="currentColor"/>
</svg>
