<svg width="24" height="24" viewBox="0 0 24 24" fill="currentColor" xmlns="http://www.w3.org/2000/svg">
<path fill-rule="evenodd" clip-rule="evenodd" d="M14.64 1.19995H8.63878C7.97638 1.2003 7.43967 1.73755 7.44 2.39995V21.6C7.43967 22.2624 7.97638 22.7996 8.63878 22.7999H15.3612C15.6793 22.7999 15.9843 22.6733 16.2091 22.4482C16.4339 22.2232 16.5602 21.9181 16.56 21.6V3.11995L14.64 1.19995ZM12 2.75995C12.3976 2.75995 12.72 3.08231 12.72 3.47995C12.72 3.8776 12.3976 4.19995 12 4.19995C11.6024 4.19995 11.28 3.8776 11.28 3.47995C11.28 3.08231 11.6024 2.75995 12 2.75995ZM12 5.64619L13.248 6.88795H10.752L12 5.64619ZM13.08 9.11995C13.08 9.71642 12.5965 10.2 12 10.2C11.4035 10.2 10.92 9.71642 10.92 9.11995C10.92 8.52348 11.4035 8.03995 12 8.03995C12.5965 8.03995 13.08 8.52348 13.08 9.11995ZM8.52624 9.11995L9.768 7.87195V10.368L8.52624 9.11995ZM9.6 20.76C9.20236 20.76 8.88 20.4376 8.88 20.04C8.88 19.6423 9.20236 19.32 9.6 19.32C9.99765 19.32 10.32 19.6423 10.32 20.04C10.32 20.4376 9.99765 20.76 9.6 20.76ZM9.6 18.36C9.20236 18.36 8.88 18.0376 8.88 17.6399C8.88 17.2423 9.20236 16.92 9.6 16.92C9.99765 16.92 10.32 17.2423 10.32 17.6399C10.32 18.0376 9.99765 18.36 9.6 18.36ZM9.6 15.96C9.20236 15.96 8.88 15.6376 8.88 15.24C8.88 14.8423 9.20236 14.52 9.6 14.52C9.99765 14.52 10.32 14.8423 10.32 15.24C10.32 15.6376 9.99765 15.96 9.6 15.96ZM12 20.76C11.6024 20.76 11.28 20.4376 11.28 20.04C11.28 19.6423 11.6024 19.32 12 19.32C12.3976 19.32 12.72 19.6423 12.72 20.04C12.72 20.4376 12.3976 20.76 12 20.76ZM12 18.36C11.6024 18.36 11.28 18.0376 11.28 17.6399C11.28 17.2423 11.6024 16.92 12 16.92C12.3976 16.92 12.72 17.2423 12.72 17.6399C12.72 18.0376 12.3976 18.36 12 18.36ZM12 15.96C11.6024 15.96 11.28 15.6376 11.28 15.24C11.28 14.8423 11.6024 14.52 12 14.52C12.3976 14.52 12.72 14.8423 12.72 15.24C12.72 15.6376 12.3976 15.96 12 15.96ZM12 12.5937L10.752 11.328H13.248L12 12.5937ZM14.4 20.76C14.0024 20.76 13.68 20.4376 13.68 20.04C13.68 19.6423 14.0024 19.32 14.4 19.32C14.7976 19.32 15.12 19.6423 15.12 20.04C15.12 20.4376 14.7976 20.76 14.4 20.76ZM14.4 18.36C14.0024 18.36 13.68 18.0376 13.68 17.6399C13.68 17.2423 14.0024 16.92 14.4 16.92C14.7976 16.92 15.12 17.2423 15.12 17.6399C15.12 18.0376 14.7976 18.36 14.4 18.36ZM14.4 15.96C14.0024 15.96 13.68 15.6376 13.68 15.24C13.68 14.8423 14.0024 14.52 14.4 14.52C14.7976 14.52 15.12 14.8423 15.12 15.24C15.12 15.6376 14.7976 15.96 14.4 15.96ZM14.208 10.368V7.87195L15.4738 9.11995L14.208 10.368Z" fill="currentColor"/>
</svg>
