<svg width="24" height="24" viewBox="0 0 24 24" fill="currentColor" xmlns="http://www.w3.org/2000/svg">
<path fill-rule="evenodd" clip-rule="evenodd" d="M16.8 19.8H13.8V18H10.2V19.8H7.20002C6.86865 19.8 6.60002 20.0686 6.60002 20.4V21H17.4V20.4C17.4 20.0686 17.1314 19.8 16.8 19.8ZM20.4 3H3.60002C2.93728 3 2.40002 3.53726 2.40002 4.2V16.2C2.40002 16.8627 2.93728 17.4 3.60002 17.4H20.4C21.0628 17.4 21.6 16.8627 21.6 16.2V4.2C21.6 3.53726 21.0628 3 20.4 3ZM3.60002 4.2V15H20.4V4.2H3.60002ZM12 15.6C11.6687 15.6 11.4 15.8686 11.4 16.2C11.4 16.5314 11.6687 16.8 12 16.8C12.3314 16.8 12.6 16.5314 12.6 16.2C12.6 15.8686 12.3314 15.6 12 15.6ZM14.5496 6.432L15.576 7.45714L14.0363 8.99486L15.576 10.5326L14.5496 11.5577L11.9834 8.99486L14.5496 6.432ZM9.42648 13.344L8.40002 12.3189L9.93972 10.7811L8.40002 9.24343L9.42648 8.2183L11.9926 10.7811L9.42648 13.344Z" fill="currentColor"/>
</svg>
