<svg width="24" height="24" viewBox="0 0 24 24" fill="currentColor" xmlns="http://www.w3.org/2000/svg">
<path fill-rule="evenodd" clip-rule="evenodd" d="M5.72762 10.2L16.3116 7.36399L17.9772 6.91759L18.5567 6.76228L20.8021 6.16077L20.8751 6.14119L20.7198 5.56166C20.3767 4.28134 19.0607 3.52154 17.7804 3.8646L2.71198 7.90221L3.32765 10.2H3.31198V18.6C3.31198 19.9255 4.38649 21 5.71198 21H21.312V10.2H5.72762ZM18.5153 4.28892L20.1403 5.71692L17.822 6.33808L16.197 4.91008L18.5153 4.28892ZM13.8788 5.53125L15.5038 6.95925L13.1856 7.58049L11.5606 6.15249L13.8788 5.53125ZM9.24238 6.77356L10.8674 8.20157L8.54916 8.82273L6.92417 7.39473L9.24238 6.77356ZM4.60591 8.01597L6.23093 9.44397L3.9127 10.0652L3.44683 8.32649L4.60591 8.01597ZM5.11198 12.6H3.91198V10.8H6.31198L5.11198 12.6ZM7.51198 12.6L8.71198 10.8H11.112L9.91197 12.6H7.51198ZM14.712 12.6H12.312L13.512 10.8H15.912L14.712 12.6ZM19.512 12.6H17.112L18.312 10.8H20.712L19.512 12.6Z" fill="currentColor"/>
</svg>
