<svg width="24" height="24" viewBox="0 0 24 24" fill="currentColor" xmlns="http://www.w3.org/2000/svg">
<path fill-rule="evenodd" clip-rule="evenodd" d="M12 10.44C14.3859 10.44 16.32 8.50586 16.32 6.11999C16.32 3.73412 14.3859 1.79999 12 1.79999C9.61415 1.79999 7.68002 3.73412 7.68002 6.11999C7.68002 8.50586 9.61415 10.44 12 10.44ZM14.7044 17.0198C13.9974 17.0198 13.4242 17.5929 13.4242 18.3C13.4242 19.007 13.9974 19.5802 14.7044 19.5802C15.4114 19.5802 15.9846 19.007 15.9846 18.3C15.9846 17.5929 15.4114 17.0198 14.7044 17.0198ZM15.7848 10.1378C13.6592 12.1406 10.3412 12.1407 8.21546 10.138C6.51737 11.0635 5.444 12.8265 5.40156 14.76H5.40002V19.8C5.40002 21.1255 6.47454 22.2 7.80002 22.2H18.6V14.88C18.6007 12.903 17.5207 11.0838 15.7848 10.1378ZM17.3012 19.3774C16.9286 20.2765 16.7553 19.319 16.2371 19.837C15.7188 20.355 16.6765 20.5287 15.7776 20.9011C14.8786 21.2735 15.4328 20.4739 14.7001 20.4739C13.9674 20.4739 14.5217 21.2735 13.6227 20.9011C12.7236 20.5287 13.6811 20.3552 13.1629 19.837C12.6447 19.3188 12.4713 20.2765 12.099 19.3774C11.7266 18.4784 12.5262 19.0329 12.5262 18.3C12.5262 17.567 11.7264 18.1216 12.099 17.2225C12.4716 16.3235 12.6447 17.2809 13.1629 16.7628C13.6811 16.2447 12.7237 16.0712 13.6227 15.6988C14.5216 15.3264 13.9671 16.126 14.7001 16.126C15.4331 16.126 14.8783 15.3264 15.7776 15.6988C16.6768 16.0712 15.7188 16.2445 16.2371 16.7628C16.7553 17.281 16.9286 16.3236 17.3012 17.2225C17.6738 18.1215 16.8738 17.5671 16.8738 18.3C16.8738 19.0329 17.6736 18.4783 17.3012 19.3774Z" fill="currentColor"/>
</svg>
