<svg width="24" height="24" viewBox="0 0 24 24" fill="currentColor" xmlns="http://www.w3.org/2000/svg">
<path fill-rule="evenodd" clip-rule="evenodd" d="M12.6032 22.2C8.10717 22.2 4.38129 18.9007 3.71313 14.5903C3.6583 14.2432 3.75804 13.8895 3.98611 13.6221C4.21419 13.3548 4.54779 13.2006 4.89921 13.2C5.49098 13.2005 5.99389 13.6327 6.08351 14.2176C6.5727 17.3795 9.30537 19.8 12.6032 19.8C16.1653 19.8 19.082 16.9536 19.1973 13.4175C19.3191 9.68053 16.2851 6.60001 12.5475 6.60001H11.4036V9.60001L9.0045 7.21139L7.20515 5.41993L9.0045 3.61139L11.4036 1.20001V4.20001H12.6032C17.572 4.20001 21.6 8.22944 21.6 13.2C21.6 18.1706 17.5719 22.2 12.6032 22.2ZM7.80493 7.21139V9.60001L3.60645 5.41993L7.80493 1.20001V3.61139L6.00558 5.41993L7.80493 7.21139Z" fill="currentColor"/>
</svg>
