<svg width="24" height="24" viewBox="0 0 24 24" fill="currentColor" xmlns="http://www.w3.org/2000/svg">
<path fill-rule="evenodd" clip-rule="evenodd" d="M12.0002 7.82402L7.80022 6.42401V9.00002C7.80022 11.3196 9.68062 13.2 12.0002 13.2C14.3198 13.2 16.2002 11.3196 16.2002 9.00002V6.42401L12.0002 7.82402ZM18 5.20001L19.2 4.80002L12 2.40002L4.8 4.80002L12 7.20002L17.4 5.40002V9.60003L17.16 10.8H18.24L18 9.60003V5.20001ZM18 16.2C18.0007 14.7422 17.2449 13.3884 16.0036 12.624C14.9797 13.7548 13.5254 14.3999 12 14.3999C10.4746 14.3999 9.02027 13.7548 7.99644 12.624C6.75508 13.3884 5.99928 14.7422 6 16.2V21C6 21.9941 6.80589 22.8 7.8 22.8C7.84037 22.8 7.88031 22.7982 7.92 22.7956V22.8H18V16.272C18.0004 16.248 18 16.224 18 16.2ZM15.42 15.456C15.8508 15.456 16.2 15.7994 16.2 16.223C16.2 16.6466 15.8508 16.9901 15.42 16.9901C14.9892 16.9901 14.64 16.6467 14.64 16.223C14.64 15.7993 14.9892 15.456 15.42 15.456ZM16.848 21.768H14.352V21.48H14.424C14.432 21.4804 14.44 21.48 14.448 21.48C14.7529 21.48 15 21.2329 15 20.928C15 20.92 14.9997 20.912 14.9994 20.904L15 18.24H14.9985C14.9762 17.9629 14.7498 17.7465 14.472 17.7366L14.352 17.736V17.448H16.2V20.904C16.1997 20.912 16.2 20.92 16.2 20.928C16.2 21.2329 16.4471 21.48 16.752 21.48C16.76 21.48 16.768 21.4798 16.776 21.4794L16.848 21.48V21.768Z" fill="currentColor"/>
</svg>
