<svg width="24" height="24" viewBox="0 0 24 24" fill="currentColor" xmlns="http://www.w3.org/2000/svg">
<path fill-rule="evenodd" clip-rule="evenodd" d="M21.2481 19.8426L19.5527 21.5381C19.3279 21.7631 19.0228 21.8896 18.7047 21.8896C18.3867 21.8896 18.0816 21.7631 17.8568 21.5381L17.4328 21.1146L10.4332 14.115H8.27387L9.35375 13.0355L12.745 9.64371L13.801 8.58783V10.6997L20.8241 17.7228L21.2481 18.1468C21.4731 18.3716 21.5996 18.6766 21.5996 18.9947C21.5996 19.3128 21.4732 19.6178 21.2481 19.8426ZM16.1369 15.5793L15.289 14.7315C15.0548 14.4973 14.6752 14.4973 14.4411 14.7314C14.2069 14.9656 14.2069 15.3452 14.441 15.5793L15.289 16.4273C15.5234 16.6598 15.9017 16.659 16.1352 16.4255C16.3686 16.1921 16.3694 15.8138 16.1369 15.5793ZM4.97042 11.1956C4.73658 10.9613 4.73608 10.5819 4.96991 10.3476L10.0577 5.25996C10.292 5.02613 10.6714 5.02613 10.9057 5.25996L13.497 7.85184L7.56189 13.7876L4.97042 11.1956ZM8.39985 4.51397C8.06846 4.51376 7.79992 4.24509 7.79985 3.91371V2.71397C7.79849 2.49864 7.91258 2.29909 8.09884 2.19103C8.2851 2.08297 8.51497 2.08297 8.70122 2.19103C8.88748 2.29909 9.00157 2.49864 9.00021 2.71397V3.91352C9.0002 4.2451 8.73143 4.51391 8.39985 4.51397ZM4.73553 5.86616L3.89553 5.02616C3.66763 4.79348 3.66949 4.42072 3.89971 4.19033C4.12993 3.95995 4.50269 3.95782 4.73553 4.18556L5.57611 5.02616C5.72949 5.17563 5.79056 5.39608 5.73597 5.60317C5.68137 5.81026 5.51955 5.97195 5.31242 6.02638C5.10528 6.08081 4.88488 6.01966 4.73553 5.86616ZM4.20019 8.71431C4.20026 8.87346 4.13707 9.02612 4.02454 9.13866C3.912 9.25119 3.75934 9.31438 3.60019 9.31431H2.3998C2.06981 9.31222 1.80341 9.04412 1.80341 8.71413C1.80341 8.38413 2.06981 8.11603 2.3998 8.11395H3.60021C3.75938 8.114 3.91202 8.17728 4.02454 8.28987C4.13705 8.40246 4.20024 8.55513 4.20019 8.71431Z" fill="currentColor"/>
</svg>
