<svg width="24" height="24" viewBox="0 0 24 24" fill="currentColor" xmlns="http://www.w3.org/2000/svg">
<path fill-rule="evenodd" clip-rule="evenodd" d="M19.1911 12.3158C17.3206 13.8787 14.5995 13.8787 12.7289 12.3158C11.1884 13.0179 10.1998 14.555 10.2 16.248V19.968C10.2 20.6307 10.7373 21.168 11.4 21.168H21.72V16.248C21.7203 14.555 20.7317 13.0179 19.1911 12.3158ZM19.8 8.44799C19.8 10.5688 18.0808 12.288 15.96 12.288C13.8393 12.288 12.12 10.5688 12.12 8.44799C12.12 6.32721 13.8393 4.60799 15.96 4.60799C18.0808 4.60799 19.8 6.32721 19.8 8.44799ZM11.3452 10.5724C9.44346 12.2252 6.61316 12.2192 4.71843 10.5583C3.22699 11.28 2.27969 12.7911 2.28003 14.448V18.168C2.28003 18.8307 2.81729 19.368 3.48003 19.368H9.00003V16.248C9.00056 14.2482 10.0819 12.405 11.8272 11.4288C11.639 11.1597 11.4776 10.8729 11.3452 10.5724ZM10.92 8.54399C10.9185 7.54799 11.2135 6.57407 11.7674 5.74633C11.3406 4.02549 9.79141 2.82039 8.01846 2.83001C6.2455 2.83975 4.70954 4.06169 4.30153 5.78709C3.89352 7.51248 4.71949 9.29296 6.30033 10.0957C7.88116 10.8985 9.80605 10.5149 10.9584 9.16751C10.9329 8.96065 10.92 8.75242 10.92 8.54399ZM18.4495 14.1563C18.5846 14.0204 18.7683 13.944 18.96 13.944C19.1516 13.944 19.3353 14.0204 19.4704 14.1563C19.607 14.2906 19.6827 14.4748 19.68 14.6662C19.6827 14.8577 19.6059 15.0417 19.4678 15.1745C19.3334 15.3109 19.1492 15.3865 18.9578 15.384C18.6674 15.3831 18.4059 15.2077 18.2948 14.9394C18.1837 14.6711 18.2447 14.3623 18.4495 14.1563ZM20.232 20.088H17.88V19.8378L17.9301 19.8362C18.0125 19.8352 18.0942 19.8194 18.171 19.7895C18.2201 19.7695 18.2643 19.7392 18.3005 19.7006C18.3281 19.6701 18.384 19.5656 18.384 19.2145V16.872C18.384 16.5381 18.3264 16.4121 18.2861 16.3653C18.2549 16.3327 18.2163 16.3082 18.1735 16.294C18.0943 16.268 18.0118 16.2533 17.9284 16.2504L17.88 16.247V15.96H19.728V19.2144C19.728 19.5486 19.7771 19.6745 19.8176 19.7211C19.8747 19.787 19.9957 19.8257 20.177 19.8361L20.232 19.8394V20.088ZM7.68865 17.2992C7.66797 17.2684 7.64444 17.2397 7.61835 17.2134L5.51283 15.108C5.56092 14.7716 5.4289 14.4346 5.16508 14.2203C4.90126 14.0061 4.54435 13.946 4.22494 14.0621L4.7852 14.6224C4.87335 14.7105 4.85079 14.824 4.76257 14.9122L4.49617 15.1785C4.40794 15.2666 4.29457 15.2892 4.20644 15.201L3.64611 14.6407C3.53 14.9601 3.59006 15.3171 3.80431 15.5809C4.01856 15.8448 4.35556 15.9768 4.69203 15.9288L6.79743 18.0342C7.00876 18.246 7.34647 18.2623 7.57729 18.072C7.8081 17.8816 7.85633 17.547 7.68865 17.2992Z" fill="currentColor"/>
</svg>
