<svg width="24" height="24" viewBox="0 0 24 24" fill="currentColor" xmlns="http://www.w3.org/2000/svg">
<path fill-rule="evenodd" clip-rule="evenodd" d="M7.48799 11.712C8.4821 11.712 9.28799 10.9061 9.28799 9.91199C9.28799 8.91787 8.4821 8.11199 7.48799 8.11199C6.49388 8.11199 5.68799 8.91787 5.68799 9.91199C5.68799 10.9061 6.49388 11.712 7.48799 11.712ZM20.4 3.91199H1.79999V18.312C1.79999 19.3061 2.60588 20.112 3.59999 20.112H6.91199V18.936C6.71716 18.7615 6.60406 18.5135 6.59999 18.252C6.59999 17.7549 7.00293 17.352 7.49999 17.352C7.99704 17.352 8.39999 17.7549 8.39999 18.252C8.39592 18.5135 8.28282 18.7615 8.08799 18.936V20.112H15.888V18.912C15.7006 18.7443 15.5955 18.5034 15.6 18.252C15.6 17.7549 16.0029 17.352 16.5 17.352C16.997 17.352 17.4 17.7549 17.4 18.252C17.4 18.5184 17.2721 18.7471 17.088 18.912V20.112H22.2V5.71199C22.2 4.71787 21.3941 3.91199 20.4 3.91199ZM11.4 14.712C11.4 15.0434 11.1314 15.312 10.8 15.312H10.2V15.072C10.2005 15.0559 10.2 15.0401 10.2 15.024C10.2 13.5261 8.99111 12.312 7.49999 12.312C6.00887 12.312 4.79999 13.5261 4.79999 15.024C4.79999 15.0401 4.80023 15.0559 4.80071 15.072L4.79999 15.312H4.19999C3.86862 15.312 3.59999 15.0434 3.59999 14.712V7.51199C3.59999 7.18062 3.86862 6.91199 4.19999 6.91199H10.8C11.1314 6.91199 11.4 7.18062 11.4 7.51199V14.712ZM17.4 14.112H13.8C13.4686 14.112 13.2 13.8434 13.2 13.512C13.2 13.1806 13.4686 12.912 13.8 12.912H17.4C17.7314 12.912 18 13.1806 18 13.512C18 13.8434 17.7314 14.112 17.4 14.112ZM19.8 11.112H13.8C13.4686 11.112 13.2 10.8434 13.2 10.512C13.2 10.1806 13.4686 9.91199 13.8 9.91199H19.8C20.1314 9.91199 20.4 10.1806 20.4 10.512C20.4 10.8434 20.1314 11.112 19.8 11.112ZM19.8 8.11199H13.8C13.4686 8.11199 13.2 7.84336 13.2 7.51199C13.2 7.18062 13.4686 6.91199 13.8 6.91199H19.8C20.1314 6.91199 20.4 7.18062 20.4 7.51199C20.4 7.84336 20.1314 8.11199 19.8 8.11199Z" fill="currentColor"/>
</svg>
