<svg width="24" height="24" viewBox="0 0 24 24" fill="currentColor" xmlns="http://www.w3.org/2000/svg">
<path fill-rule="evenodd" clip-rule="evenodd" d="M15.312 4.49995C15.312 5.83468 14.508 7.03798 13.2748 7.54875C12.0417 8.05953 10.6223 7.7772 9.67854 6.8334C8.73474 5.88961 8.45241 4.47022 8.96319 3.2371C9.47396 2.00397 10.6773 1.19995 12.012 1.19995C13.8345 1.19995 15.312 2.67741 15.312 4.49995ZM14.9337 7.59989C13.293 9.14664 10.731 9.14664 9.0903 7.59989C7.75651 8.25611 6.91173 9.61347 6.91199 11.1V13.8C6.91199 14.2773 7.10163 14.7352 7.4392 15.0727C7.77676 15.4103 8.2346 15.6 8.71199 15.6V21C8.71199 21.6627 9.24925 22.2 9.91199 22.2H14.112C14.7747 22.2 15.312 21.6627 15.312 21V15.6C15.7894 15.6 16.2472 15.4103 16.5848 15.0727C16.9223 14.7352 17.112 14.2773 17.112 13.8V11.1C17.1122 9.61347 16.2675 8.25611 14.9337 7.59989Z" fill="currentColor"/>
</svg>
