<svg width="24" height="24" viewBox="0 0 24 24" fill="currentColor" xmlns="http://www.w3.org/2000/svg">
<path fill-rule="evenodd" clip-rule="evenodd" d="M20.1538 4.4C17.2445 4.4 14.5599 3.5065 12.4 2C10.2401 3.5065 7.55546 4.39933 4.64615 4.39933L4 4.4V11C4 15.4376 6.58461 20.6 12.4 22.4C18.2154 20.6 20.8 15.4376 20.8 11V4.4H20.1538ZM5.8 6.15754C7.00412 6.07079 8.19401 5.84383 9.34552 5.48125C10.4104 5.14619 11.4348 4.69414 12.4 4.13338C13.1074 4.54456 13.8471 4.89735 14.6118 5.18823L6.15234 13.6477C5.92013 12.7842 5.80168 11.8941 5.8 11V6.15754ZM17.2807 16.6942C16.6831 17.5978 15.9378 18.3944 15.076 19.0508C14.2619 19.6659 13.3598 20.1548 12.4 20.5011C11.4402 20.1548 10.5381 19.6659 9.724 19.0508C9.61618 18.9688 9.51021 18.8846 9.4061 18.7982L19 9.27027V11C19 13.0003 18.3894 15.0225 17.2807 16.6942Z" fill="currentColor"/>
</svg>
