<svg width="24" height="24" viewBox="0 0 24 24" fill="currentColor" xmlns="http://www.w3.org/2000/svg">
<path fill-rule="evenodd" clip-rule="evenodd" d="M19.7967 1.79999H11.9952C6.36191 1.79999 1.79944 6.36541 1.79944 11.9987C1.79944 17.632 6.36501 22.2 11.9983 22.2C17.6316 22.2 22.199 17.6333 22.199 12L22.1982 4.19999C22.1975 2.8742 21.1224 1.79999 19.7967 1.79999ZM15.1733 18.8882C14.3399 19.7247 11.2347 18.9322 8.16503 15.8526C5.09603 12.7725 4.29407 9.77624 5.13976 8.8204C6.81604 7.1482 6.74188 6.83008 8.06272 8.47847C9.38284 10.1269 9.29521 10.0249 7.98885 11.3358C7.46826 11.858 8.55525 13.1793 9.69229 14.3202C10.8293 15.461 12.146 16.5517 12.6667 16.0298C13.9671 14.7248 13.8715 14.6306 15.5137 15.956C17.1566 17.2807 16.9417 17.1136 15.1733 18.8882ZM20.16 8.39999H18V10.56C18 10.6925 17.8925 10.8 17.76 10.8H16.44C16.3074 10.8 16.2 10.6925 16.2 10.56V8.39999H14.04C13.9074 8.39999 13.8 8.29254 13.8 8.15999V6.83999C13.8 6.70744 13.9074 6.59999 14.04 6.59999H16.2V4.43999C16.2 4.30744 16.3074 4.19999 16.44 4.19999H17.76C17.8925 4.19999 18 4.30744 18 4.43999V6.59999H20.16C20.2925 6.59999 20.4 6.70744 20.4 6.83999V8.15999C20.4 8.29254 20.2925 8.39999 20.16 8.39999Z" fill="currentColor"/>
</svg>
