<svg width="24" height="24" viewBox="0 0 24 24" fill="currentColor" xmlns="http://www.w3.org/2000/svg">
<path fill-rule="evenodd" clip-rule="evenodd" d="M18 12V19.2C18 20.1941 17.1941 21 16.2 21H7.79999C6.80588 21 5.99999 20.1941 5.99999 19.2V17.4H3.59999C3.26902 17.399 3.00096 17.131 2.99999 16.8V14.4C3.00096 14.069 3.26902 13.801 3.59999 13.8H5.99999V12H2.39999L5.99999 8.42215V5.4H9.04079L10.2 4.248C10.6461 3.71557 11.3053 3.408 12 3.408C12.6946 3.408 13.3536 3.71557 13.7998 4.248L21.6 12H18ZM9.59875 15.1196L7.19635 13.2V14.3354C7.19873 14.3568 7.19994 14.3784 7.19999 14.4H3.59999V16.8H7.19999C7.19994 16.8216 7.19873 16.8432 7.19635 16.8646V18L9.59875 16.0804C9.74479 15.9637 9.82982 15.7869 9.82982 15.6C9.82982 15.4131 9.74479 15.2363 9.59875 15.1196Z" fill="currentColor"/>
</svg>
