<svg width="24" height="24" viewBox="0 0 24 24" fill="currentColor" xmlns="http://www.w3.org/2000/svg">
<path fill-rule="evenodd" clip-rule="evenodd" d="M18.6 1.80005H5.4C4.73726 1.80005 4.2 2.33731 4.2 3.00005V21C4.2 21.6628 4.73726 22.2001 5.4 22.2001H18.6C19.2627 22.2001 19.8 21.6628 19.8 21V3.00005C19.8 2.33731 19.2627 1.80005 18.6 1.80005ZM12 21.6C11.6686 21.6 11.4 21.3314 11.4 21C11.4 20.6687 11.6686 20.4 12 20.4C12.3314 20.4 12.6 20.6687 12.6 21C12.6 21.3314 12.3314 21.6 12 21.6ZM18.6 19.8H5.4V3.60005H18.6V19.8ZM13.2 6.60005H7.08V5.40005H13.2V6.60005ZM16.92 8.64005H7.08V7.68005H16.92V8.64005ZM16.92 10.32H7.08V9.36005H16.92V10.32ZM16.92 12H7.08V11.04H16.92V12ZM16.92 13.68H7.08V12.72H16.92V13.68ZM16.92 15.36H7.08V14.4H16.92V15.36ZM16.92 17.04H7.08V16.08H16.92V17.04Z" fill="currentColor"/>
</svg>
