<svg width="24" height="24" viewBox="0 0 24 24" fill="currentColor" xmlns="http://www.w3.org/2000/svg">
<path fill-rule="evenodd" clip-rule="evenodd" d="M12.012 1.80005C6.37869 1.80005 1.812 6.36674 1.812 12C1.812 17.6334 6.37869 22.2001 12.012 22.2001C17.6453 22.2001 22.212 17.6334 22.212 12C22.212 6.36674 17.6453 1.80005 12.012 1.80005ZM10.9981 12.9332C10.6123 12.5476 10.4968 11.9675 10.7055 11.4635C10.9142 10.9595 11.4059 10.6308 11.9515 10.6307C12.497 10.6307 12.9888 10.9593 13.1976 11.4632C13.4063 11.9672 13.291 12.5473 12.9052 12.933C12.6524 13.186 12.3094 13.3281 11.9517 13.3281C11.5941 13.3282 11.2511 13.1861 10.9981 12.9332ZM14.4659 11.8522C14.4007 10.562 13.3694 9.53066 12.0792 9.4655V8.38603C13.9654 8.45218 15.4791 9.96593 15.5453 11.8521L14.4659 11.8522ZM16.6248 11.852C16.5578 9.36992 14.5615 7.3736 12.0794 7.30659V6.22742C15.1583 6.29258 17.6388 8.77295 17.704 11.8519L16.6248 11.852ZM18.783 11.8518C18.7153 8.178 15.7534 5.21608 12.0796 5.14838V4.06978C16.3507 4.13363 19.7977 7.58056 19.8616 11.8517L18.783 11.8518ZM8.17068 15.8397C7.23962 14.9081 6.3497 13.8291 6.77592 13.4026C7.84555 12.3322 7.91728 12.4154 6.8364 11.0693C5.75493 9.72319 5.7983 9.96511 4.44314 11.3485C3.73034 12.1166 4.40733 14.5758 6.92016 17.0911C9.43353 19.6059 11.9559 20.2531 12.6584 19.5699C14.1023 18.1349 14.2158 18.215 12.9371 17.1755C11.5925 16.0931 11.6708 16.1701 10.606 17.2358C10.1797 17.662 9.1019 16.7715 8.17068 15.8397Z" fill="currentColor"/>
</svg>
