<svg width="24" height="24" viewBox="0 0 24 24" fill="currentColor" xmlns="http://www.w3.org/2000/svg">
<path fill-rule="evenodd" clip-rule="evenodd" d="M5.913 10.5155C5.79002 10.4085 5.60554 10.355 5.35954 10.3549H4.18428V11.7283H5.35954C5.60554 11.7283 5.79002 11.6737 5.913 11.5643C6.03598 11.455 6.09748 11.2774 6.09751 11.0314C6.09751 10.7946 6.03601 10.6226 5.913 10.5155ZM21.3566 6.73463L18.9104 8.99543L18 9.83682V5.99999C18 5.33725 17.4628 4.79999 16.8 4.79999H3.00005C2.33731 4.79999 1.80005 5.33725 1.80005 5.99999V18C1.80005 18.6627 2.33731 19.2 3.00005 19.2H16.8C17.4628 19.2 18 18.6627 18 18V14.2348L18.9104 15.0762L21.3565 17.2653C21.6669 17.5521 22.2001 17.3504 22.2001 16.9461V7.05378C22.2001 6.64955 21.6669 6.44783 21.3566 6.73463ZM6.24098 14.4C6.17706 14.222 6.14021 14.0354 6.13167 13.8465C6.118 13.6325 6.09751 13.4275 6.07018 13.2315C6.03365 12.9765 5.95621 12.7898 5.83786 12.6713C5.71951 12.5528 5.5259 12.4936 5.25706 12.4937H4.18426V14.4H3.11146V9.52129H5.74219C5.94419 9.51827 6.14487 9.55423 6.33324 9.6272C6.50132 9.69317 6.65461 9.79188 6.7842 9.9176C6.90818 10.0387 7.00587 10.1841 7.07119 10.3447C7.13804 10.5108 7.1717 10.6883 7.17027 10.8674C7.17027 11.1544 7.10991 11.4026 6.98921 11.6122C6.86851 11.8217 6.67149 11.9811 6.39816 12.0905V12.1041C6.51865 12.1346 6.63074 12.1919 6.72612 12.2715C6.81253 12.3465 6.88434 12.4369 6.93794 12.5379C6.99396 12.6443 7.03424 12.7582 7.05754 12.8762C7.08236 12.998 7.09947 13.1212 7.10875 13.2452C7.11327 13.3227 7.11783 13.4138 7.12246 13.5185C7.12708 13.6232 7.13508 13.7302 7.14646 13.8396C7.15699 13.9444 7.17525 14.0484 7.20111 14.1505C7.2223 14.2401 7.2606 14.3248 7.3139 14.3999L6.24098 14.4ZM11.6799 14.4H7.97645V9.52129H11.6252V10.4232H9.0492V11.4686H11.4134V12.3024H9.0492V13.4981H11.6799V14.4ZM16.4561 13.3477C16.3485 13.5849 16.1953 13.7985 16.0051 13.9764C15.8153 14.1513 15.5922 14.286 15.3491 14.3727C15.0837 14.4663 14.8038 14.5126 14.5224 14.5095C14.1488 14.5095 13.8128 14.4445 13.5145 14.3147C13.227 14.1926 12.9694 14.0096 12.7595 13.7783C12.5509 13.5444 12.3906 13.2715 12.288 12.9753C12.1767 12.6558 12.1212 12.3195 12.1241 11.9811C12.1209 11.6361 12.1764 11.293 12.288 10.9665C12.3906 10.6662 12.5507 10.3888 12.7595 10.1499C12.9683 9.91484 13.226 9.72828 13.5146 9.6033C13.8129 9.47124 14.1488 9.40518 14.5224 9.40509C14.7809 9.40357 15.038 9.44278 15.2843 9.52129C15.5166 9.59525 15.734 9.70976 15.9264 9.85952C16.1175 10.0099 16.2766 10.1969 16.3944 10.4096C16.5217 10.6419 16.6007 10.8976 16.6268 11.1612H15.5883C15.5711 11.0412 15.5292 10.926 15.4653 10.823C15.4012 10.7202 15.3204 10.629 15.2261 10.5531C15.0265 10.3931 14.7782 10.3063 14.5224 10.3071C14.2809 10.3071 14.076 10.3538 13.9075 10.4471C13.7424 10.5373 13.6017 10.6663 13.4975 10.823C13.3899 10.9867 13.3124 11.1684 13.2686 11.3594C13.2204 11.5631 13.1963 11.7718 13.1969 11.9811C13.1964 12.1826 13.2205 12.3834 13.2686 12.579C13.3132 12.7655 13.3907 12.9425 13.4975 13.1017C13.6024 13.2568 13.743 13.3846 13.9075 13.4741C14.0759 13.5675 14.2808 13.6142 14.5224 13.6142C14.8504 13.6142 15.1067 13.514 15.2911 13.3136C15.4756 13.1131 15.5884 12.8489 15.6294 12.5209H16.668C16.6456 12.8067 16.5739 13.0864 16.4561 13.3477Z" fill="currentColor"/>
</svg>
