<svg width="24" height="24" viewBox="0 0 24 24" fill="currentColor" xmlns="http://www.w3.org/2000/svg">
<path fill-rule="evenodd" clip-rule="evenodd" d="M0 0V24H24V0H0ZM16.9519 17.0468C16.6805 17.6462 16.2854 18.1813 15.7925 18.6171C15.295 19.0564 14.7183 19.3968 14.0933 19.62C13.4432 19.8532 12.7572 19.9707 12.0665 19.9671C10.8363 19.9671 9.77698 19.6805 8.88845 19.1076C8.31301 18.7231 7.81352 18.2356 7.41511 17.6697C7.00935 17.0968 6.78628 16.4999 6.7459 15.8792C6.7459 15.4568 6.9047 15.0803 7.22232 14.7498C7.53994 14.4193 7.90621 14.254 8.32114 14.254C8.91954 14.254 9.35649 14.4946 9.63199 14.9759L10.0121 15.6317C10.2005 15.9709 10.4714 16.2571 10.7997 16.464C11.1338 16.6771 11.4808 16.7836 11.8407 16.7836C12.4208 16.7836 12.8972 16.6045 13.2699 16.2464C13.6427 15.8882 13.829 15.4207 13.829 14.8438C13.829 13.8187 13.2048 13.2547 11.9563 13.1518C11.3578 13.0821 10.952 12.9608 10.7391 12.7881C10.3756 12.5015 10.1938 12.1102 10.1938 11.6142C10.1938 11.2652 10.2645 10.9952 10.4059 10.8042C10.5368 10.6215 10.7148 10.4777 10.9209 10.3881C11.1228 10.3017 11.4367 10.1997 11.8627 10.0822C12.8247 9.82867 13.3057 9.30147 13.3057 8.50061C13.2837 8.14421 13.1378 7.85946 12.8679 7.64638C12.598 7.43329 12.2776 7.32674 11.9068 7.32672C11.3119 7.32672 10.7262 7.65719 10.1498 8.31814C9.62103 8.90551 9.11798 9.1992 8.64062 9.1992C8.24766 9.1992 7.90802 9.04974 7.62168 8.75083C7.33534 8.45192 7.19214 8.10622 7.19208 7.71372C7.18891 7.18816 7.3518 6.67502 7.65751 6.24751C7.96774 5.80551 8.36797 5.43139 8.85821 5.12515C9.35178 4.8174 9.8856 4.57947 10.4444 4.41816C11.0117 4.2531 11.5377 4.17055 12.0224 4.17055C13.2415 4.17055 14.2861 4.51741 15.1564 5.21112C15.5816 5.56256 15.9255 6.00208 16.1644 6.49934C16.4064 6.98898 16.5327 7.5277 16.5334 8.07389C16.5334 8.80797 16.404 9.41721 16.1451 9.90161C15.8862 10.386 15.4594 10.8448 14.8645 11.278C15.6833 11.7115 16.2928 12.2221 16.6931 12.8097C17.1448 13.4636 17.3706 14.2093 17.3706 15.0467C17.3706 15.7704 17.231 16.4371 16.9519 17.0468Z" fill="currentColor"/>
</svg>
