<svg width="24" height="24" viewBox="0 0 24 24" fill="currentColor" xmlns="http://www.w3.org/2000/svg">
<path fill-rule="evenodd" clip-rule="evenodd" d="M12 10.44C14.3859 10.44 16.32 8.50592 16.32 6.12005C16.32 3.73418 14.3859 1.80005 12 1.80005C9.61415 1.80005 7.68002 3.73418 7.68002 6.12005C7.68002 8.50592 9.61415 10.44 12 10.44ZM18.6 14.88C18.6007 12.9031 17.5207 11.0839 15.7848 10.1379C13.6592 12.1407 10.3412 12.1408 8.21546 10.1381C6.51738 11.0635 5.44401 12.8266 5.40156 14.76H5.40002V19.8C5.40002 21.1255 6.47454 22.2001 7.80002 22.2001H18.6V14.88ZM17.3998 19.0363C17.3998 18.8368 17.1895 18.6752 16.9898 18.6763C16.9367 18.6772 16.8855 18.6959 16.8443 18.7294C16.531 18.9776 16.0793 18.9424 15.8083 18.6486C15.5374 18.3547 15.5388 17.9016 15.8116 17.6095C16.0844 17.3174 16.5363 17.285 16.848 17.5352C16.8876 17.5674 16.937 17.5851 16.988 17.5854C17.189 17.5854 17.3999 17.4224 17.3999 17.2214V16.0302C17.4031 15.9152 17.3597 15.8039 17.2794 15.7216C17.1992 15.6392 17.089 15.5929 16.974 15.5932H15.2349C15.1078 15.5932 15.0048 15.4422 15.0048 15.3151C15.0056 15.1921 15.041 15.0717 15.1071 14.9679C15.2569 14.728 15.2618 14.4248 15.1198 14.1802C14.9779 13.9355 14.7123 13.7893 14.4297 13.8002C14.0299 13.8154 13.6954 14.1639 13.6958 14.564C13.6957 14.7068 13.7358 14.8467 13.8116 14.9678C13.8783 15.074 13.9138 15.1968 13.914 15.3222C13.914 15.4453 13.8141 15.5932 13.691 15.5932H12.4306C12.1896 15.594 11.9944 15.7892 11.9938 16.0302V17.2214C11.9938 17.4224 11.7828 17.5854 11.5818 17.5854C11.5308 17.5851 11.4814 17.5674 11.4419 17.5352C11.1342 17.2884 10.6891 17.3165 10.4149 17.6001C10.1407 17.8837 10.1277 18.3295 10.3849 18.6287C10.642 18.9278 11.0847 18.9819 11.4063 18.7534C11.5463 18.6537 11.7881 18.6685 11.9026 18.7968C11.9614 18.8627 11.9939 18.948 11.9938 19.0363V20.5631C11.9944 20.804 12.1896 20.9993 12.4306 21.0001H13.6742C13.7334 21.0001 13.7901 20.9766 13.8319 20.9347C13.8738 20.8929 13.8972 20.8362 13.8972 20.777C13.8972 20.6516 13.8614 20.481 13.7949 20.3747C13.7191 20.2536 13.679 20.1137 13.6791 19.9709C13.6787 19.5708 14.0131 19.2222 14.413 19.2071C14.6956 19.1961 14.9612 19.3424 15.1031 19.587C15.2451 19.8317 15.2402 20.1348 15.0903 20.3748C15.025 20.4792 14.9881 20.6468 14.9881 20.77C14.9881 20.897 15.0911 21.0001 15.2181 21.0001H16.9739C17.0889 21.0003 17.1991 20.954 17.2793 20.8717C17.3596 20.7893 17.403 20.678 17.3998 20.5631V19.0363Z" fill="currentColor"/>
</svg>
