<svg width="24" height="24" viewBox="0 0 24 24" fill="currentColor" xmlns="http://www.w3.org/2000/svg">
<path fill-rule="evenodd" clip-rule="evenodd" d="M18.2 3.8H16.3236C16.0554 2.76786 15.113 2 14 2C13.6686 2 13.4 2.26863 13.4 2.6V3.8H5.6C5.26903 3.80096 5.00096 4.06903 5 4.4V21.8C5.00096 22.131 5.26903 22.399 5.6 22.4H18.2C18.531 22.399 18.799 22.131 18.8 21.8V4.4C18.799 4.06903 18.531 3.80096 18.2 3.8ZM15.2 20C15.2 20.081 15.1918 20.1617 15.1755 20.2411C15.1675 20.28 15.1576 20.3183 15.1458 20.3558C15.137 20.384 15.1272 20.4116 15.1164 20.4389C15.1056 20.4661 15.0939 20.4929 15.0812 20.519C15.0643 20.554 15.0458 20.588 15.0256 20.621C15.0156 20.6375 15.0052 20.6538 14.9944 20.6697C14.9728 20.7017 14.9497 20.7325 14.9252 20.7622C14.8762 20.8215 14.8216 20.8761 14.7623 20.9251C14.7326 20.9496 14.7018 20.9727 14.6698 20.9943C14.6538 21.0051 14.6376 21.0155 14.6211 21.0255C14.5881 21.0456 14.5541 21.0641 14.5191 21.0811C14.4929 21.0938 14.4662 21.1055 14.439 21.1163C14.4118 21.1271 14.3841 21.1369 14.3559 21.1457C14.3184 21.1575 14.2802 21.1674 14.2412 21.1754C14.2217 21.1794 14.202 21.183 14.1822 21.186C14.1219 21.1953 14.061 21.2 14 21.2H6.2V5H13.4V8H8C7.66863 8 7.4 8.26863 7.4 8.6C7.4 8.93137 7.66863 9.2 8 9.2H13.4V9.8H8C7.66863 9.8 7.4 10.0686 7.4 10.4C7.4 10.7314 7.66863 11 8 11H13.4V16.4H8C7.66863 16.4 7.4 16.6686 7.4 17C7.4 17.3314 7.66863 17.6 8 17.6H13.4V18.2C13.4 18.5314 13.6686 18.8 14 18.8C14.0582 18.8 14.1162 18.8043 14.1738 18.8128C14.1889 18.815 14.2039 18.8176 14.2189 18.8205C14.2225 18.8212 14.2261 18.8217 14.2298 18.8225C14.2435 18.8252 14.2571 18.8282 14.2706 18.8314C14.2754 18.8325 14.2801 18.8335 14.2847 18.8347C14.2977 18.8379 14.3105 18.8413 14.3233 18.8449C14.3285 18.8464 14.3336 18.8478 14.3388 18.8493C14.3512 18.853 14.3636 18.8569 14.3759 18.861C14.3811 18.8628 14.3864 18.8646 14.3916 18.8664C14.4037 18.8706 14.4158 18.8751 14.4278 18.8796C14.4329 18.8816 14.438 18.8836 14.443 18.8856C14.455 18.8904 14.467 18.8954 14.4788 18.9006C14.4835 18.9026 14.4882 18.9048 14.4928 18.9069C14.5048 18.9124 14.5168 18.918 14.5288 18.9237C14.5327 18.9257 14.5364 18.9277 14.5403 18.9296C14.5528 18.936 14.5653 18.9425 14.5776 18.9493L14.5818 18.9517C14.625 18.9758 14.6667 19.0026 14.7066 19.0319C14.7082 19.0331 14.7098 19.0341 14.7114 19.0353C14.7217 19.0429 14.7317 19.0508 14.7418 19.0588C14.7462 19.0623 14.7506 19.0657 14.755 19.0692C14.764 19.0765 14.7728 19.0841 14.7816 19.0917C14.7867 19.0961 14.7919 19.1005 14.797 19.105C14.8052 19.1122 14.8132 19.1198 14.8213 19.1274C14.8267 19.1325 14.832 19.1376 14.8373 19.1427C14.8449 19.1502 14.8524 19.1577 14.8598 19.1653C14.8652 19.1709 14.8706 19.1766 14.876 19.1823C14.883 19.1898 14.89 19.1974 14.8968 19.2052C14.9022 19.2112 14.9075 19.2174 14.9128 19.2236C14.9193 19.2313 14.9258 19.239 14.9322 19.2468C14.9375 19.2533 14.9427 19.26 14.9478 19.2667C14.9539 19.2745 14.9598 19.2822 14.9658 19.2901C14.971 19.2972 14.976 19.3045 14.981 19.3116C14.9866 19.3194 14.9921 19.3271 14.9974 19.3351C15.0027 19.343 15.0077 19.3509 15.0128 19.3589C15.0176 19.3664 15.0224 19.3739 15.0272 19.3815C15.0344 19.3935 15.0416 19.4059 15.0483 19.4182C15.0534 19.4272 15.0583 19.4364 15.0631 19.4456C15.0687 19.4562 15.0743 19.4668 15.0795 19.4776C15.083 19.4848 15.0862 19.492 15.0896 19.4992C15.0941 19.5089 15.0986 19.5186 15.1028 19.5285C15.1061 19.536 15.1091 19.5437 15.1122 19.5513C15.1162 19.5609 15.1201 19.5708 15.1238 19.5806C15.1268 19.5884 15.1295 19.5964 15.1323 19.6042C15.1358 19.6141 15.1392 19.624 15.1424 19.634C15.145 19.642 15.1474 19.6501 15.1499 19.6581C15.1529 19.6682 15.1558 19.6783 15.1585 19.6885C15.1607 19.6966 15.1628 19.7048 15.1649 19.713C15.1675 19.7233 15.1698 19.7337 15.1721 19.7442C15.1738 19.7523 15.1756 19.7604 15.1772 19.7686C15.1794 19.7794 15.1813 19.7902 15.1831 19.8012C15.1844 19.8092 15.1858 19.8172 15.187 19.8252C15.1887 19.8366 15.1901 19.8482 15.1915 19.8597C15.1923 19.8674 15.1934 19.875 15.1941 19.8826C15.1954 19.8955 15.1963 19.9084 15.1971 19.9214C15.1975 19.9279 15.1981 19.9343 15.1984 19.9408C15.1994 19.9604 15.2 19.9802 15.2 20ZM15.2 4.4V17.9238C15.0122 17.8144 14.8103 17.7312 14.6 17.6764V3.36224C14.9705 3.5767 15.199 3.97194 15.2 4.4ZM17.6 21.2H16.4V20V5H17.6V21.2ZM8 7.4H10.4C10.7314 7.4 11 7.13137 11 6.8C11 6.46863 10.7314 6.2 10.4 6.2H8C7.66863 6.2 7.4 6.46863 7.4 6.8C7.4 7.13137 7.66863 7.4 8 7.4Z" fill="currentColor"/>
</svg>
