<svg width="24" height="24" viewBox="0 0 24 24" fill="currentColor" xmlns="http://www.w3.org/2000/svg">
<path fill-rule="evenodd" clip-rule="evenodd" d="M12.3047 6.3307C12.2135 6.3307 12.1223 6.32782 12.0305 6.32782C11.9387 6.32782 11.8475 6.3307 11.7563 6.3307C7.49954 6.3307 3.19118 9.3326 1.79578 12.0038C3.19116 14.675 7.45416 17.6769 11.7109 17.6769C11.8021 17.6769 11.8933 17.6798 11.9851 17.6798C12.0769 17.6798 12.168 17.6769 12.2593 17.6769C16.5162 17.6769 20.8244 14.675 22.2198 12.0038C20.8244 9.3326 16.5616 6.3307 12.3047 6.3307ZM6.39082 14.6798C5.14236 13.9159 4.0687 12.9513 3.39382 12.0044C4.06966 11.0602 5.15028 10.0955 6.41002 9.32952C6.81964 9.08047 7.24338 8.85543 7.67911 8.65553C6.13822 10.6324 6.14556 13.4057 7.6969 15.3745C7.2478 15.1697 6.81163 14.9377 6.39082 14.6798ZM13.5954 14.3092C13.3433 14.6017 12.9631 14.8081 12.4549 14.9282V15.4782C12.4588 15.598 12.4206 15.7153 12.3469 15.8097C12.2749 15.8993 12.1752 15.9441 12.0478 15.9441C11.9306 15.9487 11.818 15.8983 11.7433 15.8078C11.6672 15.7151 11.627 15.5981 11.63 15.4782V14.9809C11.3129 14.9586 11.0004 14.8922 10.7016 14.7837C10.2654 14.6143 10.0472 14.3792 10.0471 14.0784C10.0472 13.9172 10.1026 13.7609 10.2039 13.6355C10.3085 13.5012 10.4377 13.434 10.5914 13.4339C10.6894 13.4314 10.787 13.4456 10.8802 13.4759L11.333 13.6313C11.5976 13.7111 11.8046 13.751 11.9541 13.7509C12.1354 13.7548 12.3132 13.7004 12.4612 13.5955C12.6052 13.492 12.6772 13.3465 12.6772 13.1591C12.6772 12.9758 12.5864 12.8351 12.4049 12.7371C12.2774 12.67 12.0164 12.5784 11.6218 12.4623C11.3156 12.3756 11.0854 12.3017 10.931 12.2408C10.769 12.175 10.6218 12.0776 10.4979 11.9542C10.3564 11.8168 10.2449 11.6514 10.1707 11.4686C10.0951 11.2874 10.0559 11.093 10.0555 10.8967C10.0555 10.7384 10.0757 10.5807 10.1158 10.4276C10.155 10.2751 10.2147 10.1286 10.2932 9.99207C10.3729 9.85462 10.4703 9.72831 10.583 9.6164C10.8435 9.36876 11.1925 9.19662 11.63 9.09996V8.60254C11.6271 8.48265 11.6673 8.36568 11.7434 8.27297C11.818 8.1825 11.9306 8.13212 12.0478 8.13677C12.1618 8.13313 12.271 8.1832 12.3426 8.27201C12.4185 8.36514 12.4584 8.48245 12.455 8.60254V9.09159C13.2554 9.22176 13.6557 9.48831 13.6557 9.89122C13.6585 10.0565 13.5923 10.2154 13.473 10.3298C13.3577 10.4474 13.1992 10.5127 13.0346 10.5105C12.9825 10.5106 12.9305 10.5049 12.8797 10.4937C12.8293 10.4824 12.7637 10.4639 12.6835 10.4379C12.6034 10.412 12.5443 10.3935 12.5069 10.3825C12.3596 10.3288 12.2045 10.2997 12.0478 10.2965C11.8999 10.2959 11.7549 10.3378 11.63 10.417C11.5014 10.4975 11.43 10.6091 11.4161 10.7519C11.4161 10.8847 11.4629 10.9847 11.5563 11.0519C11.6694 11.1279 11.795 11.1833 11.9273 11.2157C12.1919 11.2897 12.43 11.3666 12.6418 11.4465C12.9397 11.5486 13.189 11.6679 13.3896 11.8044C13.5859 11.9357 13.7462 12.1139 13.8561 12.3228C13.9663 12.532 14.0214 12.7905 14.0214 13.0982C14.0214 13.5781 13.8794 13.9817 13.5954 14.3092ZM17.6055 14.678C17.1653 14.9458 16.7087 15.1859 16.2385 15.3967C17.8262 13.403 17.819 10.5749 16.2212 8.58932C16.7047 8.80471 17.1736 9.05139 17.625 9.3278C18.8732 10.0916 19.9471 11.0563 20.6217 12.0032C19.9459 12.9475 18.8653 13.912 17.6055 14.678Z" fill="currentColor"/>
</svg>
