<svg width="24" height="24" viewBox="0 0 24 24" fill="currentColor" xmlns="http://www.w3.org/2000/svg">
<path fill-rule="evenodd" clip-rule="evenodd" d="M20.8525 12.7919C20.9507 12.3345 21.0001 11.8679 21 11.4001C21 7.75501 18.0451 4.80005 14.4 4.80005C12.401 4.79829 10.5094 5.70437 9.25789 7.2631C8.50354 7.09722 7.71427 7.26212 7.08944 7.71615C6.46461 8.17018 6.06397 8.86992 5.98873 9.63862C3.62639 9.93893 1.79999 11.9562 1.79999 14.4001C1.79999 17.051 3.94902 19.2001 6.59999 19.2001H18.6C20.128 19.2001 21.4895 18.2354 21.9962 16.7939C22.5029 15.3524 22.0444 13.748 20.8525 12.7919ZM18 17.4001H12.096C11.7101 17.4001 11.4 17.0626 11.4 16.676V8.40005H15.24V10.0561H15.2341C15.2478 10.6491 15.7269 11.1256 16.32 11.1361H18V17.4001ZM16.32 10.6081C16.1732 10.6095 16.0319 10.5517 15.9281 10.4479C15.8243 10.3441 15.7666 10.2029 15.768 10.0561V8.40005L18 10.6081H16.32ZM16.2224 13.603H16.0608V12.7702C16.0608 12.0301 15.4402 11.4001 14.7039 11.4001C13.9677 11.4001 13.3689 12.0301 13.3689 12.7702V13.603H12.696V16.2954C12.6956 16.4289 12.7483 16.5571 12.8425 16.6517C12.9367 16.7464 13.0646 16.7997 13.1981 16.8001H16.68V14.0916C16.68 13.8129 16.4996 13.603 16.2224 13.603ZM15.5494 13.603H13.8804V12.7702C13.8804 12.547 13.9548 12.3118 14.1136 12.1522C14.2692 11.9939 14.482 11.9048 14.704 11.9048C14.926 11.9048 15.1387 11.9939 15.2944 12.1522C15.4553 12.318 15.5465 12.5392 15.5493 12.7702L15.5494 13.603Z" fill="currentColor"/>
</svg>
