<svg width="24" height="24" viewBox="0 0 24 24" fill="currentColor" xmlns="http://www.w3.org/2000/svg">
<path fill-rule="evenodd" clip-rule="evenodd" d="M19.2 4.79999V15.4341C19.1988 15.8566 18.8566 16.1988 18.4341 16.2H9.26402L7.46402 18H13.8L16.8 21V18H19.2C20.1929 17.9971 20.9971 17.1929 21 16.2V6.59999C20.9971 5.60708 20.1929 4.80289 19.2 4.79999ZM18.3 15.6H9.00002L5.40002 19.2V15.6H4.50002C3.34023 15.6 2.40002 14.6598 2.40002 13.5V2.39999H16.5C17.057 2.39999 17.5911 2.62124 17.9849 3.01507C18.3788 3.4089 18.6 3.94304 18.6 4.49999V15.3C18.6 15.4657 18.4657 15.6 18.3 15.6ZM13.9628 12.9782C13.37 13.5734 11.1607 13.0095 8.97694 10.8187C6.79356 8.62754 6.22303 6.49612 6.82466 5.81613C8.01722 4.62657 7.96445 4.40027 8.90415 5.57289C9.84331 6.74555 9.78096 6.67303 8.85158 7.60555C8.48124 7.97704 9.2545 8.91703 10.0636 9.72859C10.8727 10.5401 11.8092 11.3161 12.1796 10.9448C13.1048 10.0164 13.0368 9.94941 14.2051 10.8923C15.3738 11.8347 15.2208 11.7158 13.9628 12.9782Z" fill="currentColor"/>
</svg>
