<svg width="24" height="24" viewBox="0 0 24 24" fill="currentColor" xmlns="http://www.w3.org/2000/svg">
<path fill-rule="evenodd" clip-rule="evenodd" d="M20.2032 13.5269L17.76 13.06L14.22 9.29974C14.0302 9.10692 13.7706 8.99885 13.5 9H7C6.68362 8.99972 6.38581 9.14936 6.19721 9.40339L4.2 12.0708V7.32838C4.20085 6.59507 4.79511 6.00082 5.52842 6H10.2761C10.55 7.05945 11.5056 7.79968 12.5999 7.8H14.7333C14.8041 7.80011 14.8719 7.77209 14.922 7.72212C14.972 7.67215 15.0001 7.60432 15.0001 7.5336V6.99998H17C17.2197 6.99828 17.3969 6.81971 17.3969 6.60001C17.3969 6.38032 17.2197 6.20174 17 6.20004H15.0001V4.60001H17C17.2197 4.59831 17.3969 4.41972 17.3969 4.20001C17.3969 3.9803 17.2197 3.80172 17 3.80002H15.0001V3.2664C15.0001 3.19568 14.972 3.12785 14.922 3.07788C14.8719 3.02791 14.8041 3 14.7333 3H12.5999C11.5055 3 10.5497 3.74037 10.2761 4.8H5.52842C4.13201 4.8 3 5.93201 3 7.32842V14.0058V17.5C3 18.0522 3.44779 18.4998 4 18.5H4.5C4.49723 19.395 4.97312 20.2232 5.74776 20.6715C6.5224 21.1198 7.47759 21.1198 8.25224 20.6715C9.02688 20.2232 9.50277 19.395 9.5 18.5H14C14 19.8807 15.1193 21 16.5 21C17.8807 21 19 19.8807 19 18.5H20C20.5522 18.4998 21 18.0522 21 17.5V14.5054C20.9998 14.0316 20.6671 13.6231 20.2032 13.5269ZM13.6851 3.79956L13.3041 5.13288H14.2179L12.6179 6.99958L12.9989 5.6664H12.0843L13.6851 3.79956ZM7.00001 20C6.17158 20 5.50001 19.3284 5.50001 18.5C5.50001 17.6716 6.17158 17 7.00001 17C7.82844 17 8.50001 17.6716 8.50001 18.5C8.50001 19.3284 7.82844 20 7.00001 20ZM9.73999 12.9994H4.96675L7.14691 10.0826L7.14919 10.0799H9.73999V12.9994ZM11.24 12.9994V10.08H13.4639C13.466 10.08 13.4681 10.0802 13.4701 10.0806L16.2133 12.9995L11.24 12.9994ZM16.5 20C15.6716 20 15 19.3284 15 18.5C15 17.6716 15.6716 17 16.5 17C17.3284 17 18 17.6716 18 18.5C18 19.3284 17.3284 20 16.5 20Z" fill="currentColor"/>
</svg>
