<svg width="24" height="24" viewBox="0 0 24 24" fill="currentColor" xmlns="http://www.w3.org/2000/svg">
<path fill-rule="evenodd" clip-rule="evenodd" d="M21.6 2.40002H2.40005C2.06868 2.40002 1.80005 2.66865 1.80005 3.00002V6.00002C1.80005 6.3314 2.06868 6.60002 2.40005 6.60002H21.6C21.9314 6.60002 22.2001 6.3314 22.2001 6.00002V3.00002C22.2001 2.66865 21.9314 2.40002 21.6 2.40002ZM3.90005 5.40002C3.40299 5.40002 3.00005 4.99708 3.00005 4.50002C3.00005 4.00297 3.40299 3.60002 3.90005 3.60002C4.3971 3.60002 4.80005 4.00297 4.80005 4.50002C4.80005 4.99708 4.3971 5.40002 3.90005 5.40002ZM21.6 7.20002H2.40005C2.06868 7.20002 1.80005 7.46865 1.80005 7.80002V10.8C1.80005 11.1314 2.06868 11.4 2.40005 11.4H21.6C21.9314 11.4 22.2001 11.1314 22.2001 10.8V7.80002C22.2001 7.46865 21.9314 7.20002 21.6 7.20002ZM3.90005 10.2C3.40299 10.2 3.00005 9.79708 3.00005 9.30002C3.00005 8.80297 3.40299 8.40002 3.90005 8.40002C4.3971 8.40002 4.80005 8.80297 4.80005 9.30002C4.80005 9.79708 4.3971 10.2 3.90005 10.2ZM21.6 12H2.40005C2.06868 12 1.80005 12.2687 1.80005 12.6V15.6C1.80005 15.9314 2.06868 16.2 2.40005 16.2H10.8V19.2H9.00005C8.66868 19.2 8.40005 19.4687 8.40005 19.8V21.6C8.40005 21.9314 8.66868 22.2 9.00005 22.2H15C15.3314 22.2 15.6 21.9314 15.6 21.6V19.8C15.6 19.4687 15.3314 19.2 15 19.2H13.2V16.2H21.6C21.9314 16.2 22.2001 15.9314 22.2001 15.6V12.6C22.2001 12.2687 21.9314 12 21.6 12ZM3.90005 15C3.40299 15 3.00005 14.5971 3.00005 14.1C3.00005 13.603 3.40299 13.2 3.90005 13.2C4.3971 13.2 4.80005 13.603 4.80005 14.1C4.80005 14.5971 4.3971 15 3.90005 15ZM7.80005 21.6H1.80005V19.8H7.80005V21.6ZM22.2001 21.6H16.2V19.8H22.2001V21.6Z" fill="currentColor"/>
</svg>
