<svg width="24" height="24" viewBox="0 0 24 24" fill="currentColor" xmlns="http://www.w3.org/2000/svg">
<path fill-rule="evenodd" clip-rule="evenodd" d="M16.7997 13.605V19.8062H7.19995V3.60615H16.7997V9.32178C17.0071 9.22391 17.2143 9.12647 17.4214 9.02948C17.6263 8.93348 17.8342 8.89988 17.9997 8.87204V3.00615C17.9999 2.34376 17.4633 1.80651 16.8009 1.80615H7.19878C6.88068 1.80615 6.57567 1.93283 6.35086 2.15787C6.12604 2.38292 5.99983 2.68805 6 3.00615V21.0062C5.99966 21.6685 6.53634 22.2058 7.19873 22.2062H16.8008C17.1189 22.2062 17.4239 22.0795 17.6488 21.8545C17.8736 21.6294 17.9998 21.3243 17.9997 21.0062V12.2414C17.7627 12.3549 17.523 12.4701 17.285 12.5858C17.1766 12.6386 17.0933 12.7318 17.053 12.8454C16.9745 13.066 16.8952 13.2891 16.8152 13.5147C16.805 13.5437 16.7997 13.5742 16.7997 13.605ZM11.0998 2.40615H12.8898C13.0557 2.4042 13.1931 2.5347 13.1997 2.70054C13.2012 2.78107 13.1702 2.85883 13.1138 2.91631C13.0574 2.97379 12.9802 3.00617 12.8997 3.00615H11.1097C10.9438 3.00809 10.8064 2.8776 10.7999 2.71177C10.7983 2.63124 10.8293 2.55349 10.8857 2.49601C10.9421 2.43853 11.0193 2.40615 11.0998 2.40615ZM11.9997 21.6062C11.6683 21.6062 11.3997 21.3375 11.3997 21.0062C11.3997 20.6748 11.6683 20.4062 11.9997 20.4062C12.331 20.4062 12.5997 20.6748 12.5997 21.0062C12.5997 21.3375 12.331 21.6062 11.9997 21.6062ZM19.4229 9.59031C18.8667 9.39416 18.2319 9.35946 17.6757 9.57294C15.3295 10.6736 12.9999 11.8093 10.6601 12.9233C10.5929 12.9517 10.518 12.9563 10.4479 12.9362C9.82836 12.7435 9.20371 12.5632 8.59625 12.3371C8.34158 12.2319 8.11822 12.3563 7.89754 12.4754C7.87625 12.4855 7.86056 12.5045 7.85475 12.5274C7.84895 12.5502 7.85362 12.5744 7.86751 12.5934C8.3982 13.1502 8.92435 13.7116 9.46807 14.2554C9.60709 14.3949 9.77876 14.4975 9.96749 14.5538C11.2304 14.6515 12.8231 14.039 13.9713 13.5181C13.9973 13.5066 14.0274 13.5097 14.0505 13.5264C14.0735 13.5431 14.0859 13.5707 14.0832 13.599C13.989 14.51 13.8905 15.4069 13.7957 16.3161C13.7477 16.7739 13.7003 17.2319 13.6569 17.6902C13.6317 17.9069 13.7211 17.8974 13.8692 17.8317C14.0977 17.7315 14.3198 17.6167 14.5491 17.5186C14.7352 17.439 14.8448 17.3064 14.9111 17.1172C15.4647 15.5348 16.0223 13.9538 16.584 12.3742C16.6245 12.2759 16.7019 12.1973 16.7997 12.1552C17.5188 11.8027 18.2438 11.4621 18.9645 11.1123C19.5145 10.8861 20.3037 9.90874 19.4229 9.59031ZM11.6583 9.45306C11.6058 9.43628 11.551 9.42795 11.496 9.42838C11.4349 9.42766 11.3742 9.43817 11.3169 9.45939C11.045 9.56658 10.7836 9.70083 10.5203 9.82899C10.3473 9.91323 10.3434 9.98127 10.5062 10.0868C11.092 10.4663 11.6784 10.8449 12.2685 11.2175C12.2979 11.2335 12.331 11.2413 12.3645 11.2401C12.394 11.2405 12.4234 11.2352 12.4509 11.2244C12.7029 11.1164 12.9504 10.9982 13.1977 10.8798C13.5396 10.716 13.8797 10.5488 14.2335 10.3768C14.2005 10.3424 12.5025 9.73657 11.6583 9.45306Z" fill="currentColor"/>
</svg>
