<svg width="24" height="24" viewBox="0 0 24 24" fill="currentColor" xmlns="http://www.w3.org/2000/svg">
<path fill-rule="evenodd" clip-rule="evenodd" d="M20.4 6.60002H17.6784C18.221 5.66093 18.0662 4.47463 17.3008 3.70621C16.5354 2.9378 15.3497 2.77832 14.4085 3.3172C14.0177 3.54079 13.732 3.82552 13.5266 4.19155L12.1089 6.60002H11.8911L10.4734 4.19152C10.268 3.8255 9.98234 3.54076 9.59147 3.31718C8.65024 2.77883 7.46494 2.93852 6.69974 3.70676C5.93453 4.475 5.77953 5.66092 6.32159 6.60002H3.59999C2.93725 6.60002 2.39999 7.13728 2.39999 7.80002V10.8H2.99999V19.8C2.99999 20.4628 3.53725 21 4.19999 21H19.8C20.4627 21 21 20.4628 21 19.8V10.8H21.6V7.80002C21.6 7.13728 21.0627 6.60002 20.4 6.60002ZM14.5608 4.80026L14.5671 4.78965L14.5731 4.7789C14.6722 4.60235 14.8052 4.4728 15.0045 4.3589C15.1848 4.25454 15.3895 4.19972 15.5979 4.20002C16.1424 4.19911 16.6192 4.5649 16.7594 5.09103C16.8996 5.61715 16.668 6.17172 16.1953 6.44188C16.0513 6.5242 15.8351 6.58348 15.6303 6.60002H13.5013L14.5608 4.80026ZM7.35878 4.80443C7.57341 4.43082 7.97128 4.20034 8.40215 4.20002C8.6105 4.19969 8.81522 4.25447 8.99555 4.3588C9.19475 4.47278 9.32783 4.60233 9.42693 4.7788L9.43295 4.78955L9.43922 4.80016L10.4987 6.60002H8.36968C8.16487 6.58353 7.9486 6.5242 7.80467 6.44188C7.23005 6.11233 7.03064 5.37987 7.35878 4.80443ZM15.5228 14.3698L12 18.2541L8.47715 14.3698C7.55024 13.3924 7.57722 11.8525 8.53781 10.9082C9.4984 9.9638 11.0385 9.96304 12 10.9065C12.9616 9.96365 14.5012 9.96471 15.4615 10.9088C16.4218 11.8529 16.4491 13.3923 15.5228 14.3698Z" fill="currentColor"/>
</svg>
