<svg width="24" height="24" viewBox="0 0 24 24" fill="currentColor" xmlns="http://www.w3.org/2000/svg">
<path fill-rule="evenodd" clip-rule="evenodd" d="M21.3566 6.73469L18.9103 8.99549L18 9.83688V6.00005C18 5.33731 17.4627 4.80005 16.8 4.80005H2.99999C2.33725 4.80005 1.79999 5.33731 1.79999 6.00005V18C1.79999 18.6628 2.33725 19.2 2.99999 19.2H16.8C17.4627 19.2 18 18.6628 18 18V14.2349L18.9103 15.0762L21.3565 17.2654C21.6668 17.5522 22.2 17.3505 22.2 16.9462V7.05384C22.2 6.64961 21.6669 6.44789 21.3566 6.73469ZM5.6564 10.8C6.25258 9.11479 7.78952 7.94203 9.57238 7.81196C11.3552 7.68189 13.0461 8.61916 13.8806 10.2H12.4457C11.738 9.34244 10.6461 8.89873 9.54084 9.01962C8.43555 9.14051 7.46539 9.80974 6.95984 10.8H8.15999L6.35999 12.6L4.55999 10.8H5.6564ZM14.3099 13.2C13.8929 15.254 12.077 16.8 9.89999 16.8C7.99277 16.8 6.2926 15.598 5.6564 13.8H6.95984C7.57708 15.0089 8.87138 15.7168 10.2223 15.5843C11.5731 15.4518 12.7052 14.5059 13.0757 13.2H11.76L13.56 11.4L15.36 13.2H14.3099Z" fill="currentColor"/>
</svg>
