<svg width="24" height="24" viewBox="0 0 24 24" fill="currentColor" xmlns="http://www.w3.org/2000/svg">
<path fill-rule="evenodd" clip-rule="evenodd" d="M6.90461 17.0869C6.6699 16.8536 6.2908 16.8536 6.05609 17.0869L4.7833 18.3597C4.55073 18.5943 4.55156 18.9728 4.78515 19.2064C5.01874 19.44 5.39721 19.4408 5.63182 19.2083L6.90461 17.9355C7.13795 17.7008 7.13795 17.3217 6.90461 17.0869ZM17.0869 6.90461C17.3217 7.13795 17.7008 7.13795 17.9355 6.90461L19.2083 5.63182C19.4408 5.39721 19.44 5.01874 19.2064 4.78515C18.9728 4.55156 18.5943 4.55073 18.3597 4.7833L17.0869 6.05609C16.8536 6.2908 16.8536 6.6699 17.0869 6.90461ZM17.9355 17.0869C17.7008 16.8536 17.3217 16.8536 17.0869 17.0869C16.8536 17.3217 16.8536 17.7008 17.0869 17.9355L18.3597 19.2083C18.5943 19.4408 18.9728 19.44 19.2064 19.2064C19.44 18.9728 19.4408 18.5943 19.2083 18.3597L17.9355 17.0869ZM6.05609 6.90461C6.2908 7.13795 6.6699 7.13795 6.90461 6.90461C7.13795 6.6699 7.13795 6.2908 6.90461 6.05609L5.63182 4.7833C5.39721 4.55073 5.01874 4.55156 4.78515 4.78515C4.55156 5.01874 4.55073 5.39721 4.7833 5.63182L6.05609 6.90461ZM4.79578 11.9958C4.79481 11.6648 4.52675 11.3967 4.19578 11.3958H2.39578C2.06441 11.3958 1.79578 11.6644 1.79578 11.9958C1.79578 12.3271 2.06441 12.5958 2.39578 12.5958H4.19578C4.52675 12.5948 4.79481 12.3267 4.79578 11.9958ZM21.5958 11.3958H19.7958C19.4644 11.3958 19.1958 11.6644 19.1958 11.9958C19.1958 12.3271 19.4644 12.5958 19.7958 12.5958H21.5958C21.9271 12.5958 22.1958 12.3271 22.1958 11.9958C22.1958 11.6644 21.9271 11.3958 21.5958 11.3958ZM11.9958 19.1958C11.6648 19.1967 11.3967 19.4648 11.3958 19.7958V21.5958C11.3958 21.9271 11.6644 22.1958 11.9958 22.1958C12.3271 22.1958 12.5958 21.9271 12.5958 21.5958V19.7958C12.5948 19.4648 12.3267 19.1967 11.9958 19.1958ZM11.9958 4.79578C12.3267 4.79481 12.5948 4.52675 12.5958 4.19578V2.39578C12.5958 2.06441 12.3271 1.79578 11.9958 1.79578C11.6644 1.79578 11.3958 2.06441 11.3958 2.39578V4.19578C11.3967 4.52675 11.6648 4.79481 11.9958 4.79578ZM11.9958 5.99578C8.68207 5.99578 5.99578 8.68207 5.99578 11.9958C5.99578 15.3095 8.68207 17.9958 11.9958 17.9958C15.3095 17.9958 17.9958 15.3095 17.9958 11.9958C17.9958 8.68207 15.3095 5.99578 11.9958 5.99578Z" fill="currentColor"/>
</svg>
