<svg width="24" height="24" viewBox="0 0 24 24" fill="currentColor" xmlns="http://www.w3.org/2000/svg">
<path fill-rule="evenodd" clip-rule="evenodd" d="M8.54184 9.51669L7.87539 11.0453L8.73044 11.4194L9.39689 9.89082L8.54184 9.51669ZM7.39405 9.01446C7.49682 7.82245 6.72777 6.7291 5.57118 6.42291C4.41458 6.11673 3.20529 6.68635 2.70482 7.77309C2.20434 8.85982 2.55758 10.149 3.54209 10.8289C4.52659 11.5088 5.85734 11.3824 6.69634 10.5295L7.31761 10.8012L7.98409 9.27256L7.39405 9.01446ZM20.8624 6.94374C20.1798 5.97715 18.9047 5.63528 17.8301 6.13077C16.7556 6.62626 16.1877 7.818 16.4796 8.96471L14.9755 10.0289C13.675 8.97781 11.7702 9.17241 10.7091 10.4648L9.95312 10.134L9.28657 11.6627L10.0433 11.9937C9.82937 13.559 10.8461 15.0285 12.3863 15.3801L12.3787 17.2181C11.223 17.6112 10.5189 18.78 10.7116 19.9854C10.9042 21.1908 11.9375 22.0819 13.1582 22.0953C14.3788 22.1085 15.4313 21.2402 15.6503 20.0393C15.8692 18.8384 15.1908 17.6545 14.044 17.2363L14.0476 16.3478L14.052 15.2908C14.8207 15.0261 15.452 14.4655 15.8058 13.7334C16.1596 13.0013 16.2066 12.1584 15.9364 11.3915L17.412 10.3472C18.3841 11.0558 19.7264 10.9558 20.5828 10.111C21.4392 9.26629 21.5576 7.92545 20.8624 6.94374ZM13.0709 14.217C12.3456 14.2182 11.6911 13.7823 11.4127 13.1125C11.1343 12.4428 11.2869 11.6713 11.7994 11.1581C12.3118 10.6448 13.083 10.4909 13.7532 10.7682C14.4234 11.0454 14.8604 11.6992 14.8604 12.4245C14.8608 12.8995 14.6725 13.3552 14.3369 13.6914C14.0013 14.0275 13.5459 14.2166 13.0709 14.217Z" fill="currentColor"/>
</svg>
