<svg width="24" height="24" viewBox="0 0 24 24" fill="currentColor" xmlns="http://www.w3.org/2000/svg">
<path fill-rule="evenodd" clip-rule="evenodd" d="M18.7885 5.21212C18.7886 5.21223 18.7884 5.21203 18.7885 5.21212C16.9882 3.41176 14.5461 2.40002 12 2.40002C9.45389 2.40002 7.01209 3.41145 5.21174 5.21181C1.4627 8.96085 1.4627 15.0392 5.21174 18.7883C7.01209 20.5886 9.45389 21.6001 12 21.6001C14.5461 21.6001 16.9879 20.5886 18.7882 18.7883L16.2426 16.2427C13.8995 18.5858 10.1005 18.5858 7.75735 16.2427C5.4142 13.8995 5.4142 10.1005 7.75735 7.7574C10.1005 5.41425 13.8995 5.41425 16.2426 7.75739L13.802 10.2H19.8C20.4627 10.2 21 9.66278 21 9.00004V3.00004L18.7885 5.21212Z" fill="currentColor"/>
</svg>
