<svg width="24" height="24" viewBox="0 0 24 24" fill="currentColor" xmlns="http://www.w3.org/2000/svg">
<path fill-rule="evenodd" clip-rule="evenodd" d="M8.45226 7.23826C8.43976 7.23826 8.42736 7.23826 8.41476 7.23826H8.45226ZM5.42376 7.23826H5.46126C5.44866 7.23826 5.43626 7.23846 5.42376 7.23826ZM19.2523 7.23826C19.2398 7.23826 19.2274 7.23826 19.2148 7.23826H19.2523ZM16.2238 7.23826H16.2613C16.2487 7.23826 16.2363 7.23846 16.2238 7.23826ZM12.0384 12.0237C12.0384 12.0362 12.0384 12.0486 12.0384 12.0612V12.0237ZM12.0384 15.0522V15.0147C12.0384 15.0273 12.0386 15.0397 12.0384 15.0522ZM21 7.19991H19.191C18.945 7.20007 18.7232 7.05216 18.6287 6.82507C18.5342 6.59798 18.5857 6.33634 18.7592 6.16199L18.762 6.1592C18.7732 6.14795 18.784 6.13631 18.7949 6.12469C19.3524 5.52934 19.332 4.59759 18.749 4.02718C18.166 3.45676 17.234 3.45676 16.651 4.02718C16.068 4.59759 16.0476 5.52934 16.6052 6.12469C16.616 6.13631 16.6268 6.14797 16.6381 6.15923C16.639 6.16014 16.6399 6.16105 16.6408 6.16196C16.8143 6.33631 16.8658 6.59795 16.7713 6.82505C16.6768 7.05214 16.455 7.20006 16.209 7.19991H12.1402C12.4365 7.52935 12.6003 7.95684 12.6 8.39991V12.0089C12.6 12.3453 12.3363 12.5999 12 12.5999C11.8326 12.5999 11.6721 12.5501 11.5621 12.4407L11.5593 12.4379C11.548 12.4267 11.5364 12.4159 11.5248 12.4051C10.9294 11.8475 9.99769 11.8679 9.42728 12.4509C8.85686 13.0339 8.85686 13.9659 9.42728 14.5489C9.99769 15.1319 10.9294 15.1523 11.5248 14.5948C11.5364 14.5839 11.5481 14.5732 11.5593 14.5619L11.5621 14.5591C11.6721 14.4497 11.8326 14.3999 12 14.3999C12.3363 14.3999 12.6 14.6546 12.6 14.9909V18.5999C12.6 19.2627 13.1373 19.7999 13.8 19.7999H22.8V8.99991C22.8 8.0058 21.9941 7.19991 21 7.19991ZM17.7 9.29991C18.5284 9.29991 19.2 9.97149 19.2 10.7999C19.2 11.6283 18.5284 12.2999 17.7 12.2999C16.8716 12.2999 16.2 11.6283 16.2 10.7999C16.2 9.97149 16.8716 9.29991 17.7 9.29991ZM19.8 17.9999H16.8C16.1373 17.9999 15.6 17.4627 15.6 16.7999V14.9999C15.6 13.8401 16.5402 12.8999 17.7 12.8999C18.8598 12.8999 19.8 13.8401 19.8 14.9999V17.9999ZM12 18.5999V14.9694C11.4029 15.579 10.4963 15.7667 9.70622 15.4442C8.91618 15.1217 8.39982 14.3532 8.39982 13.4999C8.39982 12.6466 8.91618 11.8781 9.70622 11.5556C10.4963 11.2332 11.4029 11.4208 12 12.0304V8.39991C12 7.73717 11.4628 7.19991 10.8 7.19991H8.39101C8.14505 7.20007 7.92317 7.05216 7.82869 6.82507C7.73421 6.59798 7.7857 6.33634 7.95918 6.16199L7.96199 6.1592C7.97322 6.14795 7.98402 6.13631 7.99489 6.12469C8.55242 5.52934 8.53205 4.5976 7.94903 4.02719C7.36601 3.45678 6.43404 3.45678 5.85102 4.02719C5.268 4.5976 5.24763 5.52934 5.80516 6.12469C5.81603 6.13631 5.82676 6.14797 5.83806 6.15923L5.8408 6.16196C6.01429 6.33631 6.06579 6.59795 5.97132 6.82505C5.87685 7.05214 5.65498 7.20006 5.40901 7.19991H1.20001V17.9999C1.20001 18.994 2.0059 19.7999 3.00001 19.7999H12.4598C12.1635 19.4705 11.9997 19.043 12 18.5999ZM5.10001 9.29991C5.92844 9.29991 6.60001 9.97149 6.60001 10.7999C6.60001 11.6283 5.92844 12.2999 5.10001 12.2999C4.27159 12.2999 3.60001 11.6283 3.60001 10.7999C3.60001 9.97149 4.27159 9.29991 5.10001 9.29991ZM7.20001 17.9999H4.20001C3.53727 17.9999 3.00001 17.4627 3.00001 16.7999V14.9999C3.00001 13.8401 3.94021 12.8999 5.10001 12.8999C6.25981 12.8999 7.20001 13.8401 7.20001 14.9999V17.9999Z" fill="currentColor"/>
</svg>
