<svg width="24" height="24" viewBox="0 0 24 24" fill="currentColor" xmlns="http://www.w3.org/2000/svg">
<path fill-rule="evenodd" clip-rule="evenodd" d="M9.59292 15.5929H17.9929C18.3243 15.5929 18.5929 15.3242 18.5929 14.9929V5.39286C18.5929 4.06738 17.5184 2.99286 16.1929 2.99286H3.59292C3.26155 2.99286 2.99292 3.26149 2.99292 3.59286V13.1929C2.99292 14.5183 4.06744 15.5929 5.39292 15.5929H6.59292V18.5929L9.59292 15.5929ZM6.99173 5.85296L7.25114 5.85265C8.53476 5.85265 9.73452 5.45485 10.6873 4.79286C11.6403 5.45485 12.8502 5.85265 14.1337 5.85265L14.3929 5.85231V8.76426C14.3929 10.7143 13.2532 13.0018 10.6875 13.7929C8.12191 13.0018 6.99173 10.7143 6.99173 8.76426V5.85296ZM19.1929 5.39286V14.9908C19.1929 15.6547 18.6547 16.1929 17.9909 16.1929H9.80892L8.00892 17.9929H13.7929L16.7929 20.9929V17.9929H19.1919C20.1866 17.9929 20.9929 17.1865 20.9929 16.1918V7.19286C20.9929 6.19875 20.187 5.39286 19.1929 5.39286Z" fill="currentColor"/>
</svg>
