<svg width="24" height="24" viewBox="0 0 24 24" fill="currentColor" xmlns="http://www.w3.org/2000/svg">
<path fill-rule="evenodd" clip-rule="evenodd" d="M7.79157 16.7935H4.19345C3.8622 16.7937 3.59376 17.0623 3.59376 17.3935V17.9935C3.59376 18.3248 3.8622 18.5933 4.19345 18.5935H7.79157C8.12286 18.5934 8.39134 18.3248 8.39126 17.9935V17.3935C8.39134 17.0622 8.12286 16.7936 7.79157 16.7935ZM13.7884 14.3935H10.1903C9.85904 14.3936 9.59056 14.6622 9.59064 14.9935V17.9937C9.59056 18.325 9.85904 18.5936 10.1903 18.5937H13.7884C14.1197 18.5936 14.3882 18.325 14.3881 17.9937V14.9934C14.3881 14.8343 14.325 14.6818 14.2125 14.5692C14.1001 14.4567 13.9475 14.3936 13.7884 14.3935ZM19.7853 12.5935H16.1872C15.8559 12.5936 15.5874 12.8622 15.5875 13.1935V17.9937C15.5874 18.325 15.8559 18.5936 16.1872 18.5937H19.7854C20.1167 18.5936 20.3851 18.325 20.385 17.9937V13.1934C20.3851 12.8621 20.1166 12.5936 19.7853 12.5935ZM20.9847 19.7937H2.99409C2.66281 19.7938 2.39441 20.0624 2.39441 20.3937C2.39441 20.725 2.66281 20.9936 2.99409 20.9937H20.9847C21.3159 20.9936 21.5844 20.725 21.5844 20.3937C21.5844 20.0624 21.3159 19.7938 20.9847 19.7937ZM9.96739 9.25991L12.3907 11.6846C12.9388 12.2332 13.8223 12.2508 14.3919 11.7247L21.1196 5.51094C21.4085 5.24406 21.5762 4.87101 21.5841 4.4778C21.5919 4.08459 21.4393 3.70514 21.1613 3.42693L21.1506 3.41625C20.6075 2.87269 19.7338 2.8497 19.1629 3.36395L13.3721 8.5785L10.9889 6.19384C10.7181 5.9228 10.3506 5.77051 9.96749 5.77051C9.58433 5.77051 9.21689 5.9228 8.94607 6.19384L2.81738 12.3259C2.25328 12.8905 2.25328 13.8053 2.81738 14.3699C3.08821 14.6409 3.45565 14.7932 3.8388 14.7932C4.22195 14.7932 4.58939 14.6409 4.86021 14.3699L9.96739 9.25991Z" fill="currentColor"/>
</svg>
