<svg width="24" height="24" viewBox="0 0 24 24" fill="currentColor" xmlns="http://www.w3.org/2000/svg">
<path fill-rule="evenodd" clip-rule="evenodd" d="M21.0546 10.5521C20.8221 10.3095 20.5285 10.134 20.2047 10.0442C20.1401 9.76375 20.0611 9.48686 19.968 9.21461C19.9128 9.0512 19.9901 8.87251 20.1469 8.80077C20.6683 8.56142 21.0076 8.04565 21.0209 7.47207C21.0342 6.89848 20.7192 6.36753 20.2095 6.10425C19.6997 5.84096 19.0845 5.89145 18.6244 6.23431C18.4768 6.34285 18.2713 6.32357 18.1464 6.18945C18.0128 6.04705 17.8744 5.90937 17.7312 5.77639C17.9952 4.98993 17.7032 4.09034 16.9914 3.62217C16.222 3.11532 15.1975 3.24766 14.5822 3.93341C14.4078 3.87758 14.231 3.82729 14.0518 3.78254C13.8939 3.74434 13.7899 3.5938 13.81 3.43267C13.8842 2.87794 13.6433 2.32805 13.1852 2.00655C12.7271 1.68506 12.128 1.64548 11.6316 1.90393C11.1352 2.16237 10.824 2.67579 10.8246 3.23546C10.8246 3.26125 10.8253 3.2869 10.8266 3.31241C10.8348 3.48488 10.7133 3.63648 10.5432 3.66607C10.2495 3.71842 9.95885 3.78652 9.67248 3.87007C9.04943 3.20545 8.03837 3.0859 7.27749 3.58687C6.60247 4.03087 6.30297 4.86084 6.49401 5.61727C6.26003 5.82232 6.03756 6.04014 5.82761 6.26973C5.74091 6.36481 5.5947 6.37467 5.49602 6.2921C5.04904 5.91495 4.4236 5.83199 3.89374 6.07955C3.36389 6.32712 3.02623 6.86008 3.02872 7.44491C3.03121 8.02975 3.37338 8.55981 3.90533 8.80286C4.05717 8.87612 4.13224 9.04972 4.08161 9.21053C3.98917 9.48011 3.91059 9.75424 3.84619 10.0319C3.05052 10.2323 2.44896 10.9466 2.41862 11.7927C2.38649 12.6697 2.96294 13.4532 3.80976 13.6834C3.88141 14.0236 3.97423 14.3589 4.08768 14.6874C4.14125 14.8382 4.07096 15.005 3.92561 15.072C3.39936 15.3056 3.05322 15.8197 3.03478 16.3952C3.01633 16.9707 3.32883 17.5059 3.83903 17.7728C4.34923 18.0396 4.96713 17.9909 5.42925 17.6475C5.5729 17.5389 5.77526 17.5561 5.8986 17.6873C6.1056 17.9081 6.32432 18.1176 6.5538 18.3149C6.44265 19.0146 6.74141 19.7489 7.35917 20.1552C7.65861 20.3537 8.00983 20.4597 8.36909 20.46C8.50717 20.4599 8.64482 20.4445 8.77949 20.4139C9.08625 20.3455 9.37024 20.1992 9.60415 19.9893C9.90635 20.0803 10.2135 20.1541 10.524 20.2104C10.7022 20.2441 10.8224 20.4118 10.7972 20.5914C10.7426 21.0155 10.8714 21.4428 11.1513 21.7661C11.4313 22.0894 11.8357 22.278 12.2633 22.2847C12.7127 22.2901 13.1408 22.094 13.4303 21.7503C13.7197 21.4066 13.8401 20.9513 13.7582 20.5095C13.7229 20.3285 13.8353 20.1516 14.0141 20.1065C14.207 20.0596 14.3972 20.006 14.5847 19.9457C14.8329 20.198 15.1486 20.3731 15.494 20.4502C15.6292 20.4809 15.7674 20.4964 15.9061 20.4965C16.2668 20.4961 16.6194 20.3897 16.92 20.1905C17.5988 19.7441 17.8938 18.9031 17.6856 18.1451C17.8476 17.9968 18.0038 17.8425 18.1541 17.6821C18.2785 17.5516 18.4813 17.5359 18.6243 17.6456C19.0843 17.9872 19.6987 18.0368 20.2076 17.7736C20.7166 17.5104 21.0311 16.9803 21.0182 16.4075C21.0053 15.8347 20.6672 15.3193 20.1469 15.0792C19.99 15.0075 19.9128 14.8287 19.968 14.6652C20.0797 14.3385 20.1711 14.0052 20.2416 13.6672C20.9934 13.438 21.5522 12.7455 21.5814 11.9308C21.6019 11.4185 21.4115 10.9202 21.0546 10.5521ZM20.9822 11.9093C20.9646 12.3435 20.7298 12.7397 20.3574 12.9636C20.1775 13.0729 19.9732 13.1356 19.763 13.1461C19.6252 13.1531 19.4872 13.1378 19.3542 13.101C19.3463 13.0988 19.3297 13.0942 18.8115 12.9847L18.7986 12.982L18.7839 12.9789C18.518 12.9228 18.1266 12.8404 17.5493 12.7192L17.5454 12.7184C17.54 12.7174 17.5346 12.7162 17.5291 12.715C17.5271 12.7145 17.5247 12.714 17.5227 12.7136C17.1172 12.622 16.8292 12.2617 16.8292 11.8459C16.8292 11.4302 17.1172 11.0699 17.5227 10.9782C17.5249 10.9777 17.5271 10.9772 17.5293 10.9767C17.5394 10.9745 17.5501 10.9726 17.5605 10.9707L17.5651 10.9699C18.1305 10.86 18.5196 10.7843 18.7877 10.732L18.8026 10.7291L18.8156 10.7266C19.3692 10.6186 19.3819 10.6155 19.3885 10.6138C19.7804 10.5165 20.1953 10.6092 20.5086 10.8639C20.8219 11.1186 20.9973 11.5058 20.9822 11.9093ZM18.9824 6.68645C19.2751 6.46367 19.6739 6.44137 19.9895 6.63013C20.3052 6.81889 20.4743 7.18073 20.4166 7.54398C20.3588 7.90723 20.0859 8.19881 19.7272 8.28038C19.5416 7.95552 19.3347 7.64331 19.1078 7.34577C18.9974 7.20086 18.8833 7.06057 18.7653 6.92489C18.8227 6.83295 18.8963 6.75217 18.9824 6.68645ZM15.2147 4.16405C15.6409 3.84826 16.219 3.83223 16.6621 4.12389C17.0626 4.39071 17.2782 4.86069 17.2192 5.33829C17.2005 5.49309 17.1527 5.64298 17.0785 5.78013C17.0142 5.89955 16.931 6.00787 16.8323 6.10094C16.8268 6.10615 16.8155 6.11683 16.5184 6.4337L16.509 6.44371L16.4993 6.4541C16.3165 6.64915 16.0319 6.9533 15.5873 7.42913L15.5843 7.43237C15.5807 7.4363 15.5771 7.44012 15.5734 7.44398C15.5719 7.44549 15.5704 7.44703 15.5689 7.44859C15.2858 7.74243 14.8369 7.8007 14.4882 7.58888C14.1394 7.37705 13.9842 6.95175 14.1145 6.5651C14.1153 6.56289 14.116 6.56069 14.1167 6.55848C14.1167 6.55853 14.1167 6.55843 14.1167 6.55848C14.12 6.54888 14.1237 6.53901 14.1274 6.52953C14.1279 6.52809 14.1285 6.52668 14.129 6.52526C14.3561 5.90949 14.5013 5.51541 14.5944 5.2625C14.596 5.25809 14.5976 5.25367 14.5992 5.24933C14.6007 5.24498 14.6024 5.24064 14.604 5.23639C14.7567 4.82119 14.7602 4.81008 14.762 4.80405C14.8415 4.54826 15 4.32421 15.2147 4.16405ZM13.8242 5.61801L13.8161 5.63988C13.8129 5.64857 13.8097 5.65727 13.8065 5.66599C13.7241 5.88955 13.6401 6.1175 13.5672 6.31497C13.5617 6.32937 13.5562 6.34399 13.5511 6.35858L13.5489 6.36458C13.546 6.37253 13.5434 6.38057 13.5411 6.38858C13.3954 6.83688 13.4732 7.32784 13.7503 7.70918C14.0274 8.09052 14.4703 8.31613 14.9417 8.31605C15.0079 8.31606 15.0739 8.31155 15.1395 8.30256C15.4637 8.25786 15.7639 8.10676 15.993 7.87296C15.9968 7.86924 16.0006 7.8654 16.0043 7.86146L16.0094 7.85597C16.0152 7.84992 16.0208 7.84397 16.0264 7.83773C16.164 7.69053 16.3226 7.52093 16.479 7.35362L16.4973 7.33406C16.5032 7.3278 16.509 7.32158 16.5149 7.31532C16.3239 7.99854 15.7198 8.48491 15.0116 8.52572C14.3034 8.56654 13.6474 8.15278 13.3792 7.49602C13.111 6.83926 13.2898 6.08464 13.8242 5.61801ZM14.1008 11.9475C14.0996 13.089 13.1735 14.0135 12.032 14.0126C10.8905 14.0118 9.9657 13.086 9.96614 11.9445C9.96659 10.803 10.8921 9.8779 12.0336 9.87797C13.1754 9.87994 14.1001 10.8057 14.1008 11.9475ZM12.3238 2.33498C12.6301 2.33534 12.9152 2.49135 13.0807 2.74911C13.2461 3.00687 13.2692 3.33104 13.1419 3.60965C12.7713 3.5603 12.3979 3.53557 12.024 3.53561C11.8419 3.53561 11.6612 3.54136 11.482 3.55286C11.378 3.2764 11.4162 2.96654 11.5841 2.72358C11.7521 2.48062 12.0285 2.33542 12.3238 2.33498ZM11.0537 6.8682C11.0547 7.6915 10.4521 8.39115 9.63774 8.51216C8.82338 8.63317 8.04339 8.13896 7.80499 7.35093L7.8234 7.37064L7.84375 7.39238C7.98451 7.54289 8.12498 7.69315 8.24858 7.82541C8.25417 7.83156 8.25986 7.83758 8.26555 7.84361L8.27059 7.84901C8.27433 7.85304 8.27817 7.85694 8.28209 7.86072C8.51226 8.09565 8.81394 8.24748 9.13975 8.29238C9.20563 8.30142 9.27205 8.30595 9.33854 8.30592C9.81213 8.30567 10.257 8.07884 10.5354 7.6957C10.8137 7.31256 10.892 6.81936 10.7459 6.36888C10.7436 6.36104 10.7411 6.35323 10.7383 6.34545L10.7359 6.33917C10.7307 6.32443 10.7252 6.30977 10.7196 6.29513C10.6466 6.09725 10.5624 5.86896 10.4798 5.64489C10.4768 5.63664 10.4737 5.62837 10.4707 5.6201C10.468 5.6129 10.4653 5.60553 10.4627 5.59824C10.8374 5.91359 11.0537 6.3784 11.0537 6.8682ZM8.58645 3.90981C9.02994 4.01012 9.38623 4.33942 9.52109 4.77365C9.52298 4.77977 9.52658 4.79126 9.68909 5.23317C9.69069 5.23749 9.69223 5.24169 9.69389 5.24611C9.69554 5.25053 9.69712 5.25492 9.69869 5.25929C9.79257 5.51445 9.93655 5.90522 10.1579 6.5052C10.1584 6.50669 10.159 6.50815 10.1595 6.50961C10.1633 6.51922 10.1669 6.52905 10.1703 6.53885C10.171 6.54101 10.1717 6.54319 10.1725 6.54537C10.3039 6.93522 10.1474 7.36405 9.79577 7.57763C9.44416 7.79121 8.99147 7.73243 8.70607 7.43613C8.70463 7.43465 8.70319 7.43316 8.70173 7.43169C8.69789 7.42764 8.69405 7.42358 8.69025 7.41943L8.68759 7.41653C8.26817 6.96773 7.99015 6.67056 7.80549 6.47349L7.79546 6.46279L7.78586 6.45245C7.45281 6.09705 7.44084 6.08575 7.43508 6.08045C7.33563 5.98663 7.25186 5.87749 7.18694 5.75717C7.09099 5.57961 7.03921 5.38155 7.03598 5.17975C7.02713 4.74237 7.24236 4.3308 7.60663 4.08854C7.89491 3.89714 8.24916 3.83252 8.58645 3.90981ZM3.37694 12.7545C3.13359 12.5034 3.00379 12.1635 3.01781 11.8141C3.03678 11.3495 3.3037 10.931 3.71688 10.7178C3.87814 10.6341 4.05554 10.5862 4.23701 10.5772C4.25853 10.5762 4.28002 10.5756 4.30149 10.5756C4.41781 10.5756 4.53361 10.5913 4.6457 10.6223C4.65374 10.6246 4.67088 10.6293 5.22185 10.7457L5.23476 10.7484L5.24988 10.7516C5.51484 10.8075 5.8974 10.888 6.45074 11.0041L6.45499 11.005C6.46029 11.0061 6.46555 11.0072 6.47081 11.0083L6.47731 11.0097C6.88282 11.1014 7.17077 11.4617 7.17077 11.8774C7.17077 12.2932 6.88282 12.6535 6.47731 12.7451C6.4751 12.7456 6.47289 12.7462 6.47069 12.7467C6.46041 12.7489 6.44969 12.7508 6.43915 12.7527L6.43483 12.7535C5.84229 12.8687 5.44344 12.9462 5.17445 12.9987L5.16005 13.0015L5.14733 13.0039C4.63005 13.1047 4.61779 13.1078 4.61143 13.1095C4.16604 13.2212 3.69491 13.0858 3.37694 12.7545ZM4.05403 8.15397C3.75291 7.94192 3.61134 7.56783 3.69662 7.20955C3.7819 6.85127 4.07683 6.58108 4.44119 6.52742C4.80555 6.47377 5.16584 6.64748 5.35077 6.96597C5.09657 7.24049 4.86081 7.53153 4.64503 7.83717C4.53993 7.98597 4.44033 8.13698 4.34623 8.2902C4.2414 8.26282 4.1424 8.21666 4.05403 8.15397ZM5.03803 17.2533C4.72707 17.4498 4.32781 17.4373 4.0297 17.2218C3.73159 17.0063 3.59461 16.6311 3.68375 16.2742C3.77288 15.9173 4.07021 15.6505 4.43465 15.6005C4.59131 15.9403 4.77029 16.2694 4.9704 16.5855C5.06784 16.7395 5.16937 16.8892 5.27501 17.0347C5.20987 17.1212 5.12955 17.1953 5.03803 17.2533ZM6.39996 13.5772C6.20986 13.5773 6.02118 13.5445 5.84222 13.4804L5.86533 13.4759L5.88969 13.4711C6.11678 13.427 6.3467 13.3823 6.54703 13.3434C6.56249 13.3406 6.57789 13.3377 6.59316 13.3344L6.59966 13.3332C6.60789 13.3316 6.61603 13.3296 6.624 13.3274C7.2968 13.1681 7.77159 12.5668 7.77059 11.8754C7.7696 11.1839 7.29308 10.5841 6.61982 10.4266C6.61457 10.4252 6.60921 10.424 6.60384 10.4228L6.59664 10.4213C6.58841 10.4196 6.58017 10.4178 6.57189 10.4162C6.41762 10.3838 6.24518 10.3476 6.07005 10.3107L6.04181 10.3048L6.0143 10.299C6.63683 10.1511 7.28899 10.3737 7.69106 10.8715C8.09313 11.3693 8.17366 12.0537 7.8981 12.6312C7.62254 13.2086 7.03982 13.5766 6.39996 13.5772ZM8.8992 19.7427C8.81854 19.7801 8.73415 19.8088 8.64744 19.8284C8.17134 19.9334 7.67765 19.7517 7.38325 19.3631C7.08884 18.9745 7.04758 18.45 7.27759 18.0202C7.34111 17.9024 7.4231 17.7956 7.52045 17.7038C7.52589 17.6986 7.5371 17.6881 7.82889 17.3768L7.83849 17.3664L7.84853 17.3557C8.02925 17.1629 8.31103 16.8618 8.75172 16.3902L8.75457 16.3871C8.75813 16.3832 8.76177 16.3794 8.76537 16.3755C8.76689 16.374 8.76837 16.3725 8.76984 16.371C9.04867 16.0814 9.49101 16.0239 9.83458 16.2326C10.1781 16.4413 10.3311 16.8603 10.2026 17.2413C10.2019 17.2434 10.2012 17.2455 10.2006 17.2476C10.2006 17.2476 10.2006 17.2477 10.2006 17.2476C10.1972 17.2572 10.1936 17.267 10.1899 17.2764C10.1894 17.2778 10.1889 17.2793 10.1883 17.2807C9.94867 17.9304 9.80121 18.3307 9.71028 18.578C9.70865 18.5825 9.70704 18.5868 9.70548 18.5912C9.70392 18.5956 9.70229 18.5999 9.70068 18.6041C9.56729 18.9669 9.56407 18.9772 9.56229 18.9829C9.5322 19.0797 9.49045 19.1724 9.43795 19.2591C9.31071 19.4705 9.12306 19.6389 8.8992 19.7427ZM10.4635 18.2681L10.471 18.2479L10.4795 18.2249C10.5715 17.975 10.668 17.7133 10.7501 17.4907C10.7556 17.4763 10.761 17.4619 10.7661 17.4475L10.7683 17.4414C10.7712 17.4337 10.7737 17.4258 10.7759 17.418C10.9858 16.7735 10.7242 16.0694 10.1444 15.7184C9.56457 15.3674 8.81938 15.462 8.34569 15.9468C8.34193 15.9504 8.33825 15.9541 8.33465 15.958L8.32958 15.9634C8.32392 15.9694 8.31825 15.9754 8.31278 15.9815C8.18366 16.1197 8.03585 16.2778 7.88882 16.435L7.86847 16.4568L7.84973 16.4768C8.05917 15.7933 8.68265 15.3206 9.39733 15.3035C10.112 15.2864 10.7574 15.7287 10.9994 16.4014C11.2413 17.0741 11.0254 17.8261 10.4635 18.2681ZM12.2598 21.6168C11.9535 21.6203 11.6665 21.4678 11.4979 21.2121C11.3293 20.9564 11.3022 20.6326 11.4259 20.3524C11.7971 20.3972 12.1709 20.4173 12.5447 20.4126C12.7268 20.4103 12.9074 20.4023 13.0865 20.3886C13.1939 20.6638 13.1595 20.9741 12.9946 21.2191C12.8297 21.4641 12.5551 21.6128 12.2598 21.6168ZM13.16 16.9632C13.1591 16.141 13.7603 15.4421 14.5734 15.3199C15.3865 15.1978 16.1665 15.6893 16.4072 16.4755L16.3884 16.4554C16.3816 16.4481 16.3748 16.4409 16.368 16.4336C16.2268 16.2826 16.0855 16.1315 15.9615 15.9988C15.956 15.9928 15.9504 15.9868 15.9447 15.9808L15.9399 15.9757C15.9361 15.9717 15.9322 15.9677 15.9283 15.9639C15.4525 15.4783 14.705 15.3839 14.1235 15.7361C13.5419 16.0883 13.2792 16.7944 13.4892 17.4411C13.4914 17.4489 13.4939 17.4568 13.4968 17.4645L13.4989 17.4704C13.504 17.485 13.5095 17.4996 13.5151 17.5141C13.5946 17.7295 13.6875 17.9815 13.7769 18.2241C13.7797 18.2318 13.7825 18.2395 13.7854 18.2472C13.7878 18.254 13.7903 18.2607 13.7928 18.2674C13.3932 17.9527 13.16 17.4719 13.16 16.9632ZM16.5908 19.6886C16.3068 19.8763 15.9585 19.94 15.6264 19.8652C15.2943 19.7903 15.0071 19.5833 14.831 19.2919C14.7783 19.2048 14.7363 19.1116 14.706 19.0143C14.7042 19.0085 14.7008 18.9975 14.556 18.6039C14.556 18.6042 14.5464 18.5778 14.5464 18.5778C14.4543 18.3274 14.3084 17.9314 14.077 17.304C14.0764 17.3024 14.0759 17.3009 14.0752 17.2993C14.0716 17.29 14.068 17.2807 14.0648 17.2713C14.0649 17.2716 14.0648 17.271 14.0648 17.2713C14.0642 17.2692 14.0633 17.2664 14.0625 17.2643C13.9334 16.881 14.0873 16.4594 14.433 16.2494C14.7787 16.0394 15.2238 16.0972 15.5044 16.3885C15.5058 16.39 15.5072 16.3914 15.5086 16.3928C15.5084 16.3926 15.5089 16.3931 15.5086 16.3928C15.5124 16.3967 15.5166 16.4013 15.5203 16.4053C15.521 16.4061 15.5218 16.407 15.5227 16.4078C15.9485 16.8635 16.2266 17.1607 16.4088 17.3551L16.4188 17.3658L16.4284 17.3762C16.7424 17.7112 16.754 17.7222 16.7596 17.7275C16.8575 17.8198 16.94 17.9273 17.0039 18.0457C17.0952 18.2147 17.1459 18.4026 17.1519 18.5945C17.1677 19.032 16.9552 19.4461 16.5908 19.6886ZM17.5968 13.5154C16.9454 13.5158 16.3537 13.1357 16.0834 12.543C15.8131 11.9503 15.914 11.2543 16.3415 10.7628C16.769 10.2712 17.4443 10.0748 18.0687 10.2602L18.0432 10.2652L18.0167 10.2704C17.8206 10.3085 17.6258 10.3464 17.453 10.38C17.4375 10.3827 17.4221 10.3857 17.4067 10.3889L17.4003 10.3902C17.392 10.3918 17.3838 10.3937 17.3759 10.3959C16.7031 10.5553 16.2284 11.1566 16.2294 11.848C16.2304 12.5394 16.7068 13.1393 17.3801 13.2967C17.3853 13.2981 17.3907 13.2994 17.3961 13.3005L17.4034 13.302C17.4115 13.3038 17.4196 13.3055 17.4278 13.3071C17.6109 13.3455 17.8195 13.3894 18.028 13.4332L18.0537 13.4386L18.0784 13.4438C17.9222 13.4913 17.76 13.5154 17.5968 13.5154ZM19.9669 15.631C20.2972 15.794 20.4949 16.1417 20.466 16.5089C20.4372 16.876 20.1876 17.1886 19.8359 17.298C19.4843 17.4074 19.1014 17.2916 18.8694 17.0056C19.0781 16.6951 19.266 16.371 19.432 16.0357C19.5128 15.8724 19.5879 15.7077 19.6572 15.5418C19.765 15.5526 19.8699 15.5828 19.9669 15.631ZM12.0137 10.0927C11.2692 10.092 10.5976 10.5399 10.3122 11.2275C10.0268 11.915 10.1838 12.7069 10.7099 13.2336C11.2361 13.7603 12.0278 13.918 12.7157 13.6333C13.4035 13.3486 13.8521 12.6774 13.8521 11.933C13.8515 10.9176 13.0291 10.0943 12.0137 10.0927ZM12.0137 13.1729C11.5121 13.1734 11.0596 12.8717 10.8672 12.4084C10.6749 11.9451 10.7807 11.4115 11.1352 11.0567C11.4897 10.7018 12.0231 10.5954 12.4866 10.7873C12.9501 10.9791 13.2523 11.4313 13.2523 11.933C13.2519 12.6171 12.6978 13.1718 12.0137 13.1729Z" fill="currentColor"/>
</svg>
