<svg width="24" height="24" viewBox="0 0 24 24" fill="currentColor" xmlns="http://www.w3.org/2000/svg">
<path fill-rule="evenodd" clip-rule="evenodd" d="M12 1.80005C6.3667 1.80005 1.8 6.36674 1.8 12C1.8 17.6334 6.3667 22.2001 12 22.2001C17.6333 22.2001 22.2 17.6334 22.2 12C22.2 6.36674 17.6333 1.80005 12 1.80005ZM12 4.46623L10.6365 3.10272C11.0878 3.03424 11.5436 2.99991 12 3.00005V4.46623ZM11.5522 20.989L3.01102 12.4478C3.00377 12.2995 3.0001 12.1502 3 12C3 11.6044 3.02574 11.2091 3.07723 10.8168L12 19.7398V21C11.8499 21 11.7006 20.9964 11.5522 20.989ZM3.3758 9.41849C3.5015 8.99794 3.65802 8.58723 3.84408 8.18969L12 16.3456V18.0427L3.3758 9.41849ZM4.45044 7.09901C4.67101 6.75996 4.9141 6.43611 5.17808 6.12965L12 12.9515V14.6486L4.45044 7.09901ZM6.01976 5.27419C6.32124 5.00589 6.64035 4.75808 6.97495 4.53242L12 9.5574V11.2545L6.01976 5.27419ZM8.05052 3.91085C8.4417 3.71946 8.84634 3.55692 9.26122 3.42451L12 6.16325V7.86031L8.05052 3.91085ZM3.34608 14.4799L9.52011 20.654C6.53662 19.7958 4.20425 17.4634 3.34608 14.4799Z" fill="currentColor"/>
</svg>
