<svg width="24" height="24" viewBox="0 0 24 24" fill="currentColor" xmlns="http://www.w3.org/2000/svg">
<path fill-rule="evenodd" clip-rule="evenodd" d="M12 1.79999C17.6333 1.79999 22.2 6.36668 22.2 12C22.2 17.6333 17.6333 22.2 12 22.2C6.3667 22.2 1.8 17.6333 1.8 12C1.8 6.36668 6.3667 1.79999 12 1.79999ZM11.8627 11.153C13.5002 11.1519 15.2753 11.3166 15.2748 12.0668C15.2737 13.9496 15.1375 13.9396 17.2709 14.1709C19.4048 14.4017 19.1542 14.2273 19.1317 11.8179C19.0843 10.515 16.2844 8.94971 11.864 8.95182C7.44353 8.95482 4.77708 10.5928 4.75892 11.8118C4.74862 14.3447 4.58974 14.3889 6.62796 14.1765C8.76173 13.9437 8.63463 13.9523 8.63566 12.0779C8.6365 11.3278 10.2247 11.154 11.8627 11.153Z" fill="currentColor"/>
</svg>
