<svg width="24" height="24" viewBox="0 0 24 24" fill="currentColor" xmlns="http://www.w3.org/2000/svg">
<path fill-rule="evenodd" clip-rule="evenodd" d="M20.4 1.80005H14.4C13.7374 1.80005 13.2 2.34941 13.2 3.01205V6.60005L10.8 9.00005L13.2 11.4V16.2C13.2001 16.8628 13.7373 17.4 14.4 17.4H20.4C21.0627 17.4 21.6 16.8628 21.6 16.2V3.01205C21.6 2.34941 21.0626 1.80005 20.4 1.80005ZM17.4 16.8C17.0686 16.8 16.8 16.5314 16.8 16.2C16.8 15.8687 17.0686 15.6 17.4 15.6C17.7314 15.6 18 15.8687 18 16.2C18 16.5314 17.7314 16.8 17.4 16.8ZM20.4 15H14.4V3.00005H20.4V15ZM16.8 18V19.8H3.59999V3.00005H12.6C12.6008 2.77565 12.6459 2.55362 12.733 2.34677C12.8174 2.14646 12.9346 1.96167 13.08 1.80005H3.59999C2.93728 1.80005 2.39999 2.33733 2.39999 3.00005V21C2.39999 21.6628 2.93728 22.2001 3.59999 22.2001H16.8C17.4627 22.2001 18 21.6628 18 21V18H16.8ZM10.2 21.6C9.86862 21.6 9.59999 21.3314 9.59999 21C9.59999 20.6687 9.86862 20.4 10.2 20.4C10.5314 20.4 10.8 20.6687 10.8 21C10.8 21.3314 10.5314 21.6 10.2 21.6Z" fill="currentColor"/>
</svg>
