<svg width="24" height="24" viewBox="0 0 24 24" fill="currentColor" xmlns="http://www.w3.org/2000/svg">
<path fill-rule="evenodd" clip-rule="evenodd" d="M19.2 4.1999H16.8003V3.5999L16.8 3.2999C16.8 2.80285 16.3971 2.3999 15.9 2.3999C15.403 2.3999 15 2.80285 15 3.2999V4.1999L15.0003 5.09971L15 6.2999C15 6.79696 15.403 7.1999 15.9 7.1999C16.3971 7.1999 16.8 6.79696 16.8 6.2999V5.9999L16.8003 5.10009C17.3167 5.48758 17.5272 6.16202 17.323 6.77447C17.1187 7.38692 16.5455 7.79997 15.8999 7.7999C15.2543 7.79983 14.6811 7.38666 14.477 6.77417C14.2728 6.16167 14.4838 5.48708 15.0003 5.09971L15 4.1999H8.40029V3.5999L8.40002 3.2999C8.40002 2.80285 7.99708 2.3999 7.50002 2.3999C7.00297 2.3999 6.60002 2.80285 6.60002 3.2999V4.1999L6.60029 5.09969L6.60002 6.2999C6.60002 6.79696 7.00297 7.1999 7.50002 7.1999C7.99708 7.1999 8.40002 6.79696 8.40002 6.2999V5.9999L8.40029 5.10007C8.9167 5.48754 9.12725 6.16199 8.923 6.77444C8.71875 7.38689 8.14552 7.79995 7.4999 7.79989C6.85429 7.79983 6.28114 7.38667 6.077 6.77417C5.87286 6.16168 6.0838 5.48706 6.60029 5.09969L6.60002 4.1999H2.40002V19.1999C2.40002 20.194 3.20591 20.9999 4.20002 20.9999H21V5.9999C21 5.00579 20.1941 4.1999 19.2 4.1999ZM19.7969 10.4358C19.7643 9.96833 19.3126 9.59913 18.9012 9.59913L3.60029 9.5999V18.7954H3.60286C3.60001 18.83 3.59935 18.8648 3.60058 18.8996C3.59876 19.3932 3.99622 19.7954 4.48978 19.7994V19.8006L19.8 19.7999V10.4399L19.7969 10.4358ZM16.2 14.6999C16.2 14.5472 16.1924 14.3946 16.1771 14.2427C16.1771 14.2417 16.1769 14.2408 16.1768 14.2398C15.9463 11.9706 14.0299 10.1999 11.7 10.1999C9.21473 10.1999 7.20002 12.2146 7.20002 14.6999C7.19959 16.3774 8.1324 17.9159 9.62002 18.6911C9.63048 18.6966 9.64085 18.7023 9.65138 18.7076C9.69698 18.7309 9.74292 18.7532 9.78926 18.775C10.3871 19.0557 11.0396 19.2008 11.7 19.1999C14.1853 19.1999 16.2 17.1852 16.2 14.6999ZM14.6457 16.4856L13.252 16.8422L12.4915 18.0499L13.0735 18.352C12.1848 18.6836 11.2062 18.6825 10.3182 18.3489L10.9064 18.0504L10.1366 16.8352L8.75309 16.4851L8.64653 17.1264C8.09622 16.4376 7.79757 15.5815 7.80001 14.6999C7.80001 14.6389 7.80156 14.5782 7.80432 14.5177L8.26272 14.9777L9.18065 13.8701L9.08604 12.446L8.45004 12.5418C8.59404 12.3263 8.75897 12.1255 8.94242 11.9423C9.41866 11.4638 10.0116 11.1179 10.6625 10.9389L10.368 11.5139L11.7052 12.0446L13.0302 11.5146L12.743 10.9402C13.3919 11.1197 13.9829 11.4651 14.4577 11.9423C14.643 12.1274 14.8093 12.3305 14.9543 12.5487L14.313 12.4459L14.2215 13.8815L15.135 14.9779L15.596 14.5239C15.5986 14.5824 15.6 14.641 15.6 14.6999C15.6025 15.585 15.3015 16.4441 14.7473 17.1342L14.6457 16.4856ZM10.3802 14.1593L10.9102 15.7439H12.5003L13.0303 14.1593L11.7052 13.2289L10.3802 14.1593Z" fill="currentColor"/>
</svg>
