<svg width="24" height="24" viewBox="0 0 24 24" fill="currentColor" xmlns="http://www.w3.org/2000/svg">
<path fill-rule="evenodd" clip-rule="evenodd" d="M21.0524 12.9919C21.1506 12.5344 21.2001 12.0679 21.2 11.6C21.2 7.95493 18.2451 5 14.6 5C12.601 4.99821 10.7093 5.90429 9.45778 7.46305C8.70344 7.29717 7.91417 7.46207 7.28934 7.9161C6.66451 8.37013 6.26388 9.06988 6.18865 9.83857C3.8264 10.1389 2 12.1562 2 14.6C2 17.251 4.14903 19.4 6.8 19.4H18.8C20.328 19.4 21.6894 18.4353 22.1961 16.9938C22.7028 15.5523 22.2443 13.948 21.0524 12.9919ZM14.6 17C11.6177 17 9.2 14.5823 9.2 11.6C9.2 8.61767 11.6176 6.20001 14.6 6.20001C17.5824 6.20001 20 8.61767 20 11.6C20 14.5823 17.5822 17 14.6 17ZM14.6651 11.4734C14.3996 11.4726 14.1672 11.6516 14.1002 11.9086C14.0332 12.1655 14.1485 12.4352 14.3806 12.5642L14.281 13.5623H15.049L14.9496 12.5642C15.1817 12.4352 15.2971 12.1654 15.2301 11.9085C15.163 11.6515 14.9306 11.4725 14.6651 11.4734ZM14.6651 8.58236C14.4074 8.58183 14.1602 8.68459 13.9788 8.86768C13.7974 9.05077 13.6969 9.29891 13.6999 9.55662V10.4491H15.6507V9.55662C15.6507 9.29908 15.5362 9.05214 15.3516 8.86797C15.17 8.68503 14.9229 8.58221 14.6651 8.58236ZM14.6 6.80001C11.949 6.80001 9.8 8.94904 9.8 11.6C9.8 14.251 11.949 16.4 14.6 16.4C17.251 16.4 19.4 14.251 19.4 11.6C19.4 8.94904 17.2509 6.80001 14.6 6.80001ZM17 14.6H12.9138C12.7593 14.6005 12.6109 14.5395 12.5014 14.4305C12.3919 14.3215 12.3302 14.1734 12.33 14.0189V10.4491H13.1186V9.55662C13.1186 8.70249 13.8089 8.00001 14.665 8.00001C15.5211 8.00001 16.2319 8.70249 16.2319 9.55662V10.4491H16.4186C16.5722 10.447 16.7201 10.5065 16.8293 10.6144C16.9386 10.7222 17.0001 10.8694 17 11.0229V14.6Z" fill="currentColor"/>
</svg>
