<svg width="24" height="24" viewBox="0 0 24 24" fill="currentColor" xmlns="http://www.w3.org/2000/svg">
<path fill-rule="evenodd" clip-rule="evenodd" d="M21 4.19995H2.99999C2.33999 4.19995 1.79999 4.75195 1.79999 5.41195V16.812C1.79999 17.472 2.33999 18 2.99999 18H4.79999V19.8H19.2V18H21C21.66 18 22.2 17.472 22.2 16.812V5.41195C22.2 4.75195 21.66 4.19995 21 4.19995ZM12 18.9C11.6686 18.9 11.4 18.6313 11.4 18.3C11.4 17.9686 11.6686 17.7 12 17.7C12.3314 17.7 12.6 17.9686 12.6 18.3C12.6 18.6313 12.3314 18.9 12 18.9ZM21 16.8H2.99999V5.39995H21V16.8ZM16.8 9.59995C16.8 9.26858 16.5314 8.99995 16.2 8.99995H5.39999C5.06862 8.99995 4.79999 9.26858 4.79999 9.59995V12.6C4.79999 12.9313 5.06862 13.2 5.39999 13.2H16.2C16.5314 13.2 16.8 12.9313 16.8 12.6H19.2V9.59995H16.8ZM18.6 12H16.8V10.2H18.6V12Z" fill="currentColor"/>
</svg>
