<svg width="24" height="24" viewBox="0 0 24 24" fill="currentColor" xmlns="http://www.w3.org/2000/svg">
<path fill-rule="evenodd" clip-rule="evenodd" d="M19.7967 1.80005H11.9952C6.36192 1.80005 1.79945 6.36547 1.79945 11.9988C1.79945 17.6321 6.36501 22.2001 11.9983 22.2001C17.6316 22.2001 22.199 17.6334 22.199 12L22.1982 4.20005C22.1975 2.87426 21.1224 1.80005 19.7967 1.80005ZM15.1733 18.8882C14.3399 19.7247 11.2347 18.9322 8.16504 15.8527C5.09604 12.7725 4.29408 9.7763 5.13977 8.82046C6.81605 7.14826 6.74189 6.83014 8.06273 8.47853C9.38285 10.1269 9.29522 10.025 7.98885 11.3358C7.46827 11.8581 8.55525 13.1794 9.6923 14.3202C10.8293 15.4611 12.146 16.5518 12.6667 16.0298C13.9672 14.7248 13.8715 14.6306 15.5137 15.956C17.1566 17.2808 16.9417 17.1137 15.1733 18.8882ZM17.9613 11.9028C17.8067 12.0442 17.6042 12.1218 17.3947 12.12C17.1814 12.123 16.9746 12.0465 16.8146 11.9055C16.6492 11.7625 16.5665 11.5625 16.5665 11.3055C16.5619 11.0884 16.6489 10.8795 16.8062 10.7299C16.9627 10.5757 17.175 10.4914 17.3947 10.4965C17.6106 10.4929 17.8187 10.5769 17.9717 10.7293C18.1246 10.8817 18.2094 11.0896 18.2066 11.3055C18.2066 11.5589 18.1248 11.758 17.9613 11.9028ZM19.9962 6.91147C19.8786 7.13299 19.7279 7.3353 19.5494 7.51147C19.377 7.67979 19.0673 7.96306 18.6204 8.36126C18.5161 8.45437 18.417 8.55318 18.3236 8.65723C18.2591 8.72816 18.2034 8.80651 18.1574 8.89063C18.1223 8.9582 18.094 9.02912 18.0729 9.10234C18.053 9.17295 18.0231 9.29694 17.9831 9.47434C17.9141 9.85077 17.698 10.039 17.3348 10.039C17.1576 10.0436 16.9859 9.97711 16.858 9.8544C16.7291 9.73141 16.6646 9.54864 16.6646 9.3061C16.6646 9.00197 16.7118 8.73861 16.8062 8.51602C16.8963 8.30006 17.0236 8.1016 17.1823 7.92965C17.3827 7.71903 17.5936 7.51872 17.8143 7.32948C18.0466 7.12695 18.2145 6.97405 18.3182 6.87077C18.421 6.7686 18.509 6.65256 18.5797 6.52601C18.6503 6.40004 18.687 6.25783 18.686 6.1134C18.686 5.8238 18.5779 5.57946 18.3617 5.38037C18.1456 5.18128 17.8668 5.08171 17.5255 5.08166C17.1259 5.08166 16.8317 5.18213 16.6428 5.38306C16.454 5.58398 16.2942 5.87987 16.1635 6.27072C16.0399 6.67978 15.8056 6.88431 15.4606 6.88433C15.2665 6.88824 15.0797 6.81041 14.9457 6.66984C14.8059 6.52688 14.736 6.37212 14.736 6.20556C14.736 5.86178 14.8468 5.51341 15.0683 5.16043C15.2898 4.80746 15.6131 4.51517 16.0381 4.28357C16.4631 4.05189 16.9589 3.93605 17.5255 3.93605C18.0519 3.93605 18.5168 4.03285 18.9203 4.22645C19.3233 4.42016 19.6347 4.68348 19.8545 5.01641C20.0706 5.33725 20.1854 5.71553 20.1842 6.10234C20.1842 6.41014 20.1215 6.67986 19.9962 6.91147Z" fill="currentColor"/>
</svg>
