<svg width="24" height="24" viewBox="0 0 24 24" fill="currentColor" xmlns="http://www.w3.org/2000/svg">
<path fill-rule="evenodd" clip-rule="evenodd" d="M9.59292 15.6214H17.9929C18.3243 15.6214 18.5929 15.3527 18.5929 15.0214V5.42136C18.5929 4.09588 17.5184 3.02136 16.1929 3.02136H3.59292C3.26155 3.02136 2.99292 3.28999 2.99292 3.62136V13.2214C2.99292 14.5468 4.06744 15.6214 5.39292 15.6214H6.59292V18.6214L9.59292 15.6214ZM4.89132 10.5625C4.89148 9.22489 5.88515 8.09553 7.21188 7.92507C7.25354 7.49921 7.4755 7.11156 7.82167 6.86005C8.16783 6.60854 8.6051 6.51723 9.02299 6.60919C10.0857 5.28945 11.9157 4.87252 13.4452 5.60173C14.9746 6.33093 15.8029 8.01526 15.4465 9.67176C16.1068 10.2014 16.3608 11.0902 16.0801 11.8887C15.7993 12.6872 15.045 13.2215 14.1985 13.2214H7.55052C6.08199 13.2215 4.89132 12.0311 4.89132 10.5625ZM19.1929 5.42136V15.0193C19.1929 15.6832 18.6547 16.2214 17.9909 16.2214H9.80892L8.00892 18.0214H13.7929L16.7929 21.0214V18.0214H19.1919C20.1866 18.0214 20.9929 17.215 20.9929 16.2203V7.22136C20.9929 6.22725 20.187 5.42136 19.1929 5.42136Z" fill="currentColor"/>
</svg>
