<svg width="24" height="24" viewBox="0 0 24 24" fill="currentColor" xmlns="http://www.w3.org/2000/svg">
<path fill-rule="evenodd" clip-rule="evenodd" d="M14.512 2H9.712C9.05006 2.00194 8.51394 2.53806 8.512 3.2V5.6H9.112V3.2C9.11296 2.86903 9.38103 2.60096 9.712 2.6H10.312V5.6H11.512V2.6H14.512C14.843 2.60096 15.111 2.86903 15.112 3.2V5.6H15.712V3.2C15.7101 2.53806 15.1739 2.00194 14.512 2ZM13.912 4.7C13.912 4.53431 13.7777 4.4 13.612 4.4C13.4463 4.4 13.312 4.53431 13.312 4.7V5.6H13.912V4.7ZM16 6.2H8.2C7.53806 6.20194 7.00194 6.73806 7 7.4V21.2C7.00194 21.8619 7.53806 22.3981 8.2 22.4H16C16.6619 22.3981 17.1981 21.8619 17.2 21.2V7.4C17.1981 6.73806 16.6619 6.20194 16 6.2ZM9.1 21.2C8.60294 21.2 8.2 20.7971 8.2 20.3C8.2 19.8029 8.60294 19.4 9.1 19.4C9.59706 19.4 10 19.8029 10 20.3C10 20.7971 9.59706 21.2 9.1 21.2ZM9.1 18.8C8.60294 18.8 8.2 18.3971 8.2 17.9C8.2 17.4029 8.60294 17 9.1 17C9.59706 17 10 17.4029 10 17.9C10 18.3971 9.59706 18.8 9.1 18.8ZM9.1 16.4C8.60294 16.4 8.2 15.9971 8.2 15.5C8.2 15.0029 8.60294 14.6 9.1 14.6C9.59706 14.6 10 15.0029 10 15.5C10 15.9971 9.59706 16.4 9.1 16.4ZM9.1 14C8.60294 14 8.2 13.5971 8.2 13.1C8.2 12.6029 8.60294 12.2 9.1 12.2C9.59706 12.2 10 12.6029 10 13.1C10 13.5971 9.59706 14 9.1 14ZM12.1 21.2C11.6029 21.2 11.2 20.7971 11.2 20.3C11.2 19.8029 11.6029 19.4 12.1 19.4C12.5971 19.4 13 19.8029 13 20.3C13 20.7971 12.5971 21.2 12.1 21.2ZM12.1 18.8C11.6029 18.8 11.2 18.3971 11.2 17.9C11.2 17.4029 11.6029 17 12.1 17C12.5971 17 13 17.4029 13 17.9C13 18.3971 12.5971 18.8 12.1 18.8ZM12.1 16.4C11.6029 16.4 11.2 15.9971 11.2 15.5C11.2 15.0029 11.6029 14.6 12.1 14.6C12.5971 14.6 13 15.0029 13 15.5C13 15.9971 12.5971 16.4 12.1 16.4ZM12.1 14C11.6029 14 11.2 13.5971 11.2 13.1C11.2 12.6029 11.6029 12.2 12.1 12.2C12.5971 12.2 13 12.6029 13 13.1C13 13.5971 12.5971 14 12.1 14ZM15.1 21.2C14.6029 21.2 14.2 20.7971 14.2 20.3C14.2 19.8029 14.6029 19.4 15.1 19.4C15.5971 19.4 16 19.8029 16 20.3C16 20.7971 15.5971 21.2 15.1 21.2ZM15.1 18.8C14.6029 18.8 14.2 18.3971 14.2 17.9C14.2 17.4029 14.6029 17 15.1 17C15.5971 17 16 17.4029 16 17.9C16 18.3971 15.5971 18.8 15.1 18.8ZM15.1 16.4C14.6029 16.4 14.2 15.9971 14.2 15.5C14.2 15.0029 14.6029 14.6 15.1 14.6C15.5971 14.6 16 15.0029 16 15.5C16 15.9971 15.5971 16.4 15.1 16.4ZM15.1 14C14.6029 14 14.2 13.5971 14.2 13.1C14.2 12.6029 14.6029 12.2 15.1 12.2C15.5971 12.2 16 12.6029 16 13.1C16 13.5971 15.5971 14 15.1 14ZM16 10.4C15.999 10.731 15.731 10.999 15.4 11H8.8C8.46903 10.999 8.20096 10.731 8.2 10.4V8C8.20096 7.66903 8.46903 7.40096 8.8 7.4H15.4C15.731 7.40096 15.999 7.66903 16 8V10.4Z" fill="currentColor"/>
</svg>
