<svg width="24" height="24" viewBox="0 0 24 24" fill="currentColor" xmlns="http://www.w3.org/2000/svg">
<path fill-rule="evenodd" clip-rule="evenodd" d="M12.2999 7.79999C12.797 7.79999 13.1999 7.39705 13.1999 6.89999C13.1999 6.40294 12.797 5.99999 12.2999 5.99999C11.8029 5.99999 11.3999 6.40294 11.3999 6.89999C11.3999 7.13869 11.4948 7.36761 11.6635 7.53639C11.8323 7.70517 12.0612 7.79999 12.2999 7.79999ZM21.3409 18.7893L15.5999 8.99999V3.59999H16.1999C16.5313 3.59999 16.7999 3.33136 16.7999 2.99999C16.7999 2.66862 16.5313 2.39999 16.1999 2.39999H7.79994C7.46857 2.39999 7.19994 2.66862 7.19994 2.99999C7.19994 3.33136 7.46857 3.59999 7.79994 3.59999H8.39994V8.99999L2.65895 18.7893C1.84794 19.9845 2.70405 21.6 4.14839 21.6H19.8516C21.2958 21.6 22.1519 19.9845 21.3409 18.7893ZM9.43506 9.60705L9.59994 9.32591V3.59999H14.3999V9.32591L14.5648 9.60705L14.967 10.2929H13.1854C13.0822 9.55164 12.4483 8.99993 11.6999 8.99993C10.9516 8.99993 10.3177 9.55164 10.2145 10.2929H9.03287L9.43506 9.60705ZM15.4952 18.5448C15.4005 18.6396 15.2696 18.6891 15.1358 18.6805C15.1493 18.895 15.0147 19.0909 14.8096 19.1552C14.6045 19.2195 14.3821 19.1354 14.2708 18.9516C14.1595 18.7678 14.1881 18.5317 14.34 18.3798C14.3448 18.3749 14.35 18.3702 14.3551 18.3654C14.3189 18.3484 14.2859 18.3253 14.2575 18.2971L13.7042 17.7438C13.6479 17.765 13.5897 17.7806 13.5303 17.7901V17.7919C13.5289 18.2907 13.1249 18.6946 12.6262 18.6961H11.4005C10.9017 18.6946 10.4978 18.2907 10.4963 17.7919V17.784C10.4317 17.7709 10.3688 17.7507 10.3086 17.7238L9.77034 18.2622C9.74201 18.2904 9.70901 18.3135 9.67281 18.3305C9.6779 18.3351 9.68291 18.3398 9.68783 18.3449C9.83978 18.4968 9.86833 18.7329 9.75698 18.9167C9.64563 19.1005 9.42317 19.1845 9.21811 19.1202C9.01305 19.0559 8.8784 18.8599 8.89194 18.6455C8.67747 18.659 8.4815 18.5243 8.41723 18.3192C8.35296 18.1142 8.43702 17.8917 8.62084 17.7804C8.80466 17.6691 9.04073 17.6977 9.19266 17.8497C9.19746 17.8546 9.20226 17.8596 9.20694 17.8647C9.22389 17.8285 9.24698 17.7955 9.27518 17.7671L9.82792 17.2144C9.78974 17.1132 9.77022 17.0058 9.77032 16.8976V16.5334C9.46094 15.8296 9.49934 15.0214 9.87405 14.35L9.2753 13.7513C9.24709 13.7229 9.22402 13.6899 9.20709 13.6537C9.20243 13.6588 9.1977 13.6638 9.19269 13.6687C9.04075 13.8208 8.80463 13.8494 8.62076 13.7381C8.43689 13.6268 8.35281 13.4043 8.41711 13.1992C8.48141 12.9941 8.67745 12.8594 8.89197 12.8729C8.87843 12.6585 9.01308 12.4625 9.21814 12.3982C9.42321 12.3339 9.64566 12.4179 9.75699 12.6018C9.86832 12.7856 9.83974 13.0217 9.68776 13.1736C9.68296 13.1784 9.67782 13.1832 9.67274 13.188C9.70894 13.2049 9.74194 13.228 9.77027 13.2562L10.304 13.7899C11.2553 12.8635 12.7714 12.8635 13.7226 13.7899L14.2564 13.2562C14.2847 13.228 14.3177 13.2049 14.3539 13.188C14.3488 13.1833 14.3438 13.1786 14.3389 13.1736C14.1868 13.0217 14.1582 12.7855 14.2695 12.6017C14.3809 12.4178 14.6034 12.3337 14.8085 12.398C15.0136 12.4623 15.1482 12.6584 15.1347 12.8729C15.3491 12.8594 15.5451 12.994 15.6094 13.1991C15.6737 13.4042 15.5896 13.6266 15.4058 13.7379C15.222 13.8492 14.9859 13.8207 14.834 13.6687C14.8292 13.6639 14.8244 13.6587 14.8196 13.6536C14.8026 13.6899 14.7795 13.7229 14.7514 13.7512L14.1527 14.35C14.5121 14.994 14.5629 15.7654 14.2912 16.4509V16.8977C14.2912 17.0236 14.2647 17.148 14.2134 17.263L14.7526 17.8023C14.7809 17.8306 14.8039 17.8636 14.8209 17.8998C14.8255 17.8947 14.8303 17.8897 14.8352 17.8848C15.0182 17.7071 15.31 17.7092 15.4903 17.8896C15.6707 18.07 15.6729 18.3618 15.4952 18.5448ZM12.0133 13.5618C11.3325 13.5621 10.6993 13.9114 10.3359 14.4871C9.97245 15.0629 9.92959 15.7848 10.2223 16.3995V16.8977C10.223 17.1471 10.425 17.3491 10.6744 17.3498H10.9631V17.8136C10.9639 18.063 11.1659 18.265 11.4152 18.2657H12.6115C12.8608 18.265 13.0628 18.063 13.0636 17.8136V17.3498H13.3857C13.6351 17.3491 13.8371 17.1471 13.8378 16.8977V16.3255C14.0993 15.7125 14.0358 15.0092 13.6686 14.4531C13.3015 13.897 12.6797 13.5622 12.0133 13.5618ZM11.0797 16.8292C10.7575 16.8292 10.4962 16.568 10.4962 16.2458C10.4962 15.9235 10.7575 15.6623 11.0797 15.6623C11.402 15.6623 11.6632 15.9235 11.6632 16.2458C11.6632 16.568 11.4019 16.8292 11.0797 16.8292ZM12.1387 17.5294H11.8879C11.8358 17.5294 11.7869 17.5044 11.7565 17.4622C11.7261 17.4199 11.7178 17.3657 11.7343 17.3163L11.8597 16.9399C11.8817 16.8738 11.9436 16.8292 12.0133 16.8292C12.083 16.8292 12.1449 16.8738 12.1669 16.9399L12.2924 17.3163C12.3088 17.3657 12.3005 17.4199 12.2701 17.4621C12.2397 17.5044 12.1907 17.5294 12.1387 17.5294ZM12.9468 16.8292C12.6246 16.8292 12.3633 16.568 12.3633 16.2458C12.3633 15.9235 12.6246 15.6623 12.9468 15.6623C13.269 15.6623 13.5303 15.9235 13.5303 16.2458C13.5303 16.568 13.269 16.8292 12.9468 16.8292Z" fill="currentColor"/>
</svg>
