<svg width="24" height="24" viewBox="0 0 24 24" fill="currentColor" xmlns="http://www.w3.org/2000/svg">
<path fill-rule="evenodd" clip-rule="evenodd" d="M22.0947 6.20103L20.5212 5.85639C20.5207 5.8563 20.5204 5.85597 20.5202 5.85553C20.3683 5.34787 19.9011 5 19.3712 5C18.8413 5 18.3742 5.34787 18.2222 5.85553C18.2221 5.85596 18.2217 5.85629 18.2213 5.85639L16.6961 6.20103C16.6116 6.20135 16.5308 6.23719 16.4741 6.29978C16.4173 6.36237 16.3895 6.44595 16.3974 6.53007C16.4157 6.68633 16.5491 6.80351 16.7064 6.80151H18.2561C18.2568 6.80152 18.2573 6.80198 18.2574 6.80261L18.3895 7.72865C18.3994 7.79746 18.3789 7.86716 18.3334 7.91968C18.2878 7.9722 18.2217 8.00239 18.1522 8.00242H17.3718C17.2851 8.00243 17.1988 7.99092 17.1151 7.9682C16.3613 7.76341 14.1227 6.20096 12.1732 6.20096C10.2237 6.20096 8.37826 7.76336 7.62442 7.9682C7.54077 7.99092 7.45447 8.00243 7.36779 8.00242H6.1722C6.10819 8.00238 6.04735 7.97456 6.00545 7.92617C5.96355 7.87778 5.9447 7.81359 5.9538 7.75023L6.08904 6.80254C6.08913 6.80192 6.08966 6.80144 6.09029 6.80144H7.664C7.8144 6.80144 7.95886 6.6799 7.97302 6.53C7.98826 6.3676 7.8714 6.22261 7.70948 6.203L7.61309 6.18728L6.12509 5.85627C6.12464 5.85619 6.12428 5.85585 6.12416 5.85541C5.97217 5.34775 5.50506 5 4.97514 5C4.44523 5 3.97811 5.34775 3.82613 5.85541C3.826 5.85584 3.82564 5.85617 3.8252 5.85627L2.36657 6.18617L2.25958 6.20374C2.10006 6.22596 1.98627 6.36979 2.00134 6.53014C2.01548 6.68002 2.17143 6.8006 2.32184 6.80002C2.7127 6.79853 3.8234 6.80002 3.85784 6.80002C3.85784 6.79957 3.85829 6.80002 3.85784 6.80002L4.3753 10.4044C4.37525 10.5638 4.43865 10.717 4.55152 10.8296C4.66438 10.9422 4.81743 11.0053 4.97688 11.0049C5.29265 11.0041 5.55048 10.7501 5.57283 10.4348L5.57499 10.4044L5.62587 10.0478C5.64584 9.90802 5.75667 9.80002 5.89784 9.80002H6.88184C7.16648 9.80002 7.43924 10.2048 7.62442 10.4199C7.89113 10.7298 8.22646 11.1687 8.61665 11.6336C8.72774 11.7658 8.74434 11.9533 8.6582 12.103L5.65488 17.3106C5.49027 17.5979 5.58831 17.9642 5.87444 18.1309C6.1615 18.2956 6.52776 18.1974 6.69382 17.9111L9.52486 13.0022C9.55888 12.9434 9.61747 12.9029 9.68452 12.8919C9.75157 12.8809 9.82002 12.9005 9.87106 12.9454C10.5654 13.5511 11.3463 14.0074 12.1732 14.0074C12.999 14.0074 13.779 13.5523 14.4726 12.9477C14.5243 12.9023 14.5937 12.8825 14.6616 12.8936C14.7295 12.9048 14.7888 12.9458 14.8233 13.0053L17.6525 17.9111C17.8186 18.1974 18.1849 18.2956 18.4719 18.1309C18.7581 17.9642 18.8561 17.5979 18.6915 17.3106L15.717 12.1529C15.6137 11.974 15.633 11.7497 15.7653 11.591C16.1403 11.142 16.4634 10.7204 16.722 10.4198C16.9071 10.2048 17.1812 9.80002 17.4658 9.80002H18.4498C18.5919 9.80002 18.7006 9.90853 18.7207 10.0493L18.7714 10.4045C18.7713 10.5639 18.8347 10.7171 18.9476 10.8297C19.0605 10.9423 19.2135 11.0054 19.373 11.005C19.6887 11.0042 19.9466 10.7502 19.9689 10.4349L19.9711 10.4045L20.485 6.80261C20.4851 6.80199 20.4857 6.80153 20.4863 6.80151H22.084C22.2413 6.80352 22.3747 6.68634 22.393 6.53007C22.4009 6.44595 22.3731 6.36239 22.3164 6.29981C22.2596 6.23722 22.1792 6.20137 22.0947 6.20103ZM13.9858 10.388C13.9858 11.3888 13.1746 12.2 12.1738 12.2C11.1731 12.2 10.3618 11.3888 10.3618 10.388C10.3618 9.38728 11.1731 8.57602 12.1738 8.57602C13.1746 8.57602 13.9858 9.38728 13.9858 10.388ZM12.1738 8.88747C11.3451 8.88747 10.6733 9.55926 10.6733 10.388C10.6733 11.2167 11.3451 11.8885 12.1738 11.8885C13.0025 11.8885 13.6743 11.2167 13.6743 10.388C13.6743 9.99006 13.5163 9.60839 13.2349 9.32698C12.9535 9.04557 12.5718 8.88747 12.1738 8.88747ZM11.2805 10.388H11.0853C11.0416 10.3881 11.0001 10.3694 10.9713 10.3366C10.9425 10.3038 10.9293 10.2602 10.935 10.217C10.9416 10.169 10.9509 10.1216 10.963 10.0747C10.975 10.0278 11.0073 9.98872 11.0511 9.96803C11.0949 9.94735 11.1456 9.94726 11.1895 9.96778L11.341 10.0389C11.4153 10.0739 11.4559 10.1553 11.4391 10.2357C11.4376 10.2427 11.4363 10.2498 11.435 10.257C11.4222 10.3324 11.357 10.3877 11.2805 10.388ZM11.3959 9.92648L11.2666 9.86583C11.2179 9.84305 11.1824 9.7991 11.1704 9.74669C11.1583 9.69428 11.1711 9.63925 11.205 9.59751C11.4031 9.35433 11.6855 9.19461 11.996 9.1501C12.0406 9.14362 12.0858 9.15683 12.12 9.18631C12.1541 9.21578 12.1737 9.25861 12.1738 9.3037V9.51509C12.1736 9.58096 12.1252 9.63676 12.0601 9.6463C11.8912 9.67211 11.7362 9.75488 11.6209 9.88088C11.5639 9.94366 11.4727 9.96215 11.3959 9.92648ZM12.1834 10.8881C11.9794 10.892 11.7935 10.7716 11.7136 10.5838C11.6337 10.3961 11.6758 10.1786 11.8201 10.0343C11.9644 9.89002 12.1819 9.84785 12.3697 9.92775C12.5574 10.0076 12.6778 10.1936 12.6739 10.3976C12.6687 10.6663 12.4521 10.8829 12.1834 10.8881ZM12.8617 11.2633C12.7858 11.2633 12.7174 11.2176 12.6884 11.1475C12.6593 11.0774 12.6754 10.9967 12.729 10.9431C12.7827 10.8895 12.8634 10.8734 12.9335 10.9024C13.0036 10.9315 13.0493 10.9999 13.0493 11.0757C13.0493 11.1255 13.0295 11.1733 12.9943 11.2084C12.9591 11.2436 12.9114 11.2634 12.8617 11.2633Z" fill="currentColor"/>
</svg>
