<svg width="24" height="24" viewBox="0 0 24 24" fill="currentColor" xmlns="http://www.w3.org/2000/svg">
<path fill-rule="evenodd" clip-rule="evenodd" d="M21 18.6C20.9987 19.9753 20.214 21.2297 18.9778 21.8325C17.7416 22.4353 16.27 22.281 15.1857 21.4351C14.1013 20.5892 13.5936 19.1993 13.8775 17.8536L8.87039 14.7936C7.40185 15.9873 5.25986 15.8401 3.96837 14.4568C2.67688 13.0735 2.67688 10.9265 3.96837 9.54323C5.25986 8.15997 7.40185 8.01279 8.87039 9.20642L13.8775 6.14642C13.5129 4.43021 14.4379 2.70097 16.0679 2.05163C17.6978 1.40229 19.5585 2.02176 20.4739 3.51853C21.3893 5.01529 21.0932 6.95389 19.7726 8.10908C18.4521 9.26427 16.4913 9.29998 15.1296 8.19362L10.1225 11.2536C10.2258 11.7459 10.2258 12.2542 10.1225 12.7464L15.1296 15.8064C16.2073 14.9304 17.6929 14.7525 18.947 15.3493C20.2011 15.9461 21.0001 17.2112 21 18.6Z" fill="currentColor"/>
</svg>
