<svg width="24" height="24" viewBox="0 0 24 24" fill="currentColor" xmlns="http://www.w3.org/2000/svg">
<path fill-rule="evenodd" clip-rule="evenodd" d="M21.1859 11.1158C18.8716 8.74666 16.5587 6.37618 14.247 4.00437C12.9829 2.70792 10.841 2.70184 9.58482 4.01049C7.29692 6.39406 5.01441 8.78269 2.73731 11.1764C2.38931 11.5408 2.29264 11.9644 2.48574 12.4236C2.68057 12.887 3.06047 13.1039 3.56574 13.1041C4.05227 13.1043 4.53884 13.1084 5.02525 13.1017C5.12788 13.0997 5.21267 13.1813 5.21464 13.284C5.21464 13.2864 5.21464 13.2887 5.21464 13.291C5.21281 13.4314 5.21072 14.7608 5.21063 14.9694C5.21052 15.1209 5.2706 15.2661 5.37763 15.3733C5.48467 15.4804 5.62989 15.5406 5.78132 15.5406H9.48011C9.68403 15.5406 9.87244 15.4318 9.97434 15.2551L10.7325 13.9413L12.8166 15.0183C12.9312 15.0775 13.0645 15.0888 13.1873 15.0496C13.3101 15.0104 13.4124 14.9241 13.4715 14.8095L14.7648 12.3042C14.888 12.0657 14.7946 11.7724 14.556 11.649L9.35802 8.96272C9.2435 8.90354 9.11015 8.89229 8.98733 8.93145C8.86451 8.97061 8.76228 9.05697 8.70316 9.17152L7.40972 11.6768C7.28652 11.9154 7.37999 12.2087 7.61852 12.332L9.66522 13.3897L9.11682 14.3401H6.35411C6.35411 13.4739 6.35425 12.6121 6.35425 12.38C6.35425 12.1627 6.17818 11.9865 5.96089 11.9864L3.82201 11.986C3.77731 11.986 3.73691 11.9593 3.71927 11.9182C3.70163 11.8772 3.71012 11.8295 3.74087 11.7971C4.6095 10.8809 8.42248 6.86104 10.3962 4.7999C11.225 3.93448 12.6111 3.94716 13.4482 4.80765C15.1257 6.53218 16.8051 8.25485 18.4865 9.97567C19.0592 10.5629 19.6321 11.1498 20.2414 11.7741C20.2762 11.8097 20.2864 11.8627 20.2672 11.9086C20.2479 11.9545 20.2031 11.9845 20.1533 11.9846C19.6395 11.9851 18.592 11.9861 18.0185 11.9867C17.9132 11.9868 17.8122 12.0288 17.7378 12.1034C17.6634 12.178 17.6217 12.2791 17.6218 12.3844C17.623 13.474 17.6261 16.5325 17.6259 18.1134C17.6259 19.1437 16.9639 19.8091 15.9272 19.8169C15.8314 19.8176 8.18814 19.8152 7.93756 19.8156C7.70114 19.8179 7.46773 19.7624 7.25759 19.6541C6.62399 19.3248 6.3454 18.7957 6.34799 18.0922C6.34924 17.7476 6.35022 17.5906 6.35104 17.3215C6.35152 17.1698 6.29162 17.0241 6.18455 16.9167C6.07748 16.8092 5.93204 16.7488 5.78034 16.7487C5.6287 16.7488 5.48331 16.8092 5.37625 16.9165C5.26919 17.0239 5.20925 17.1695 5.20964 17.3212C5.21036 17.6461 5.21444 17.8726 5.22748 18.3764C5.26249 19.7391 6.44368 20.8991 7.8022 20.9342C8.0978 20.9418 15.9188 20.9377 15.988 20.9377C17.5631 20.9364 18.7588 19.7522 18.7596 18.1917C18.7603 16.7759 18.755 13.9518 18.7536 13.2676C18.7534 13.1837 18.8211 13.1154 18.905 13.115C19.2487 13.1136 20.0871 13.1094 20.4747 13.1021C21.1239 13.0898 21.5887 12.6 21.5831 11.9574C21.5801 11.6143 21.418 11.3534 21.1859 11.1158ZM15.1168 15.2613L16.0926 13.3715C16.1554 13.2501 16.1388 13.1029 16.0507 12.9985C15.9625 12.8941 15.8202 12.853 15.69 12.8945L14.7795 13.1849L14.2049 14.298L14.4951 15.2089C14.5366 15.3391 14.6524 15.4314 14.7885 15.4429C14.9246 15.4544 15.0542 15.3827 15.1168 15.2613Z" fill="currentColor"/>
</svg>
