<svg width="24" height="24" viewBox="0 0 24 24" fill="currentColor" xmlns="http://www.w3.org/2000/svg">
<path fill-rule="evenodd" clip-rule="evenodd" d="M13.1679 12.3474L10.1548 14.0679L18.7019 18.9573C19.3908 19.3555 20.2098 19.4636 20.9785 19.2576C21.7472 19.0516 22.4024 18.5486 22.8 17.8593L13.1679 12.3474ZM5.40293 3.59998C3.77317 3.59869 2.34586 4.6925 1.92334 6.26653C1.50081 7.84056 2.18849 9.5021 3.59981 10.3171L3.60113 10.3179L3.60012 10.3183L6.53986 12L3.60002 13.6817L3.60103 13.6821L3.59971 13.6828C2.29294 14.4382 1.59665 15.929 1.85612 17.4159C2.11559 18.9028 3.27564 20.0697 4.76101 20.3378C6.24639 20.606 7.74122 19.9184 8.50424 18.6161C9.26726 17.3138 9.1362 15.6736 8.17606 14.509L22.8 6.14069C22.4024 5.45135 21.7472 4.94832 20.9785 4.74236C20.2098 4.5364 19.3908 4.64442 18.7019 5.04262L9.55065 10.2776L8.1762 9.49102C8.84944 8.67408 9.12915 7.60231 8.941 6.56057C8.75285 5.51882 8.11588 4.61262 7.1994 4.08281C6.65352 3.76652 6.03381 3.59998 5.40293 3.59998ZM5.39957 8.99998C4.40545 8.99998 3.59957 8.19409 3.59957 7.19998C3.59957 6.20587 4.40545 5.39998 5.39957 5.39998C6.39368 5.39998 7.19957 6.20587 7.19957 7.19998C7.19957 7.67737 7.00992 8.13521 6.67236 8.47277C6.33479 8.81034 5.87696 8.99998 5.39957 8.99998ZM5.39957 18.6C4.40545 18.6 3.59957 17.7941 3.59957 16.8C3.59957 15.8059 4.40545 15 5.39957 15C6.39368 15 7.19957 15.8059 7.19957 16.8C7.19957 17.7941 6.39368 18.6 5.39957 18.6Z" fill="currentColor"/>
</svg>
