<svg width="24" height="24" viewBox="0 0 24 24" fill="currentColor" xmlns="http://www.w3.org/2000/svg">
<path fill-rule="evenodd" clip-rule="evenodd" d="M22.2 14.6001C22.2 16.5883 20.5882 18.2001 18.6 18.2001H11.0984L9.16799 20.1681H9.15294C8.56913 20.744 7.63085 20.744 7.04704 20.1681H7.03199L4.70531 17.8113C2.94235 17.0536 1.79999 15.3189 1.79999 13.4001C1.79999 10.9562 3.62639 8.93891 5.98864 8.63862C6.06387 7.86993 6.4645 7.17018 7.08933 6.71615C7.71415 6.26212 8.50343 6.09722 9.25777 6.2631C10.5093 4.70434 12.401 3.79826 14.4 3.80005C18.0451 3.80005 21 6.75496 21 10.4001C21.0001 10.868 20.9507 11.3346 20.8525 11.7921C21.7051 12.4746 22.2009 13.5079 22.2 14.6001ZM6.59999 17.0001V14.0001C6.59999 13.6809 6.88079 13.4001 7.19999 13.4001H8.99999C9.31919 13.4001 9.59999 13.6809 9.59999 14.0001V17.0001H11.4L8.61299 19.79C8.4716 19.9251 8.28352 20.0003 8.08799 20.0001C7.89246 20.0003 7.70439 19.9251 7.56301 19.79L4.79999 17.0001H6.59999ZM14.388 14.5757C12.0684 14.5757 10.1874 12.6953 10.188 10.3757C10.1883 9.06155 10.769 7.88082 11.712 7.11205C11.7204 7.1062 11.7301 7.10245 11.7403 7.10111C11.9062 6.94985 12.1427 6.90392 12.3531 6.98211C12.5636 7.0603 12.7127 7.2495 12.7396 7.47239C12.7665 7.69528 12.6667 7.91453 12.4809 8.04054C12.4744 8.05236 12.466 8.06301 12.456 8.07205C11.855 8.58174 11.388 9.40984 11.388 10.3757C11.388 12.0325 12.7311 13.3757 14.388 13.3757C16.0448 13.3757 17.388 12.0325 17.388 10.3757C17.388 9.4557 16.948 8.64633 16.296 8.09605C16.2695 8.07273 16.2446 8.04774 16.2213 8.02125C15.9643 7.82621 15.9077 7.46267 16.0934 7.19873C16.279 6.9348 16.6403 6.86518 16.9107 7.04121L16.92 7.04005C17.9394 7.80637 18.588 9.00217 18.588 10.3757C18.588 12.6953 16.7076 14.5757 14.388 14.5757ZM14.4 11.0001C14.0686 11.0001 13.8 10.7314 13.8 10.4001V6.20005C13.8 5.86868 14.0686 5.60005 14.4 5.60005C14.7314 5.60005 15 5.86868 15 6.20005V10.4001C15 10.7314 14.7314 11.0001 14.4 11.0001Z" fill="currentColor"/>
</svg>
