<svg width="24" height="24" viewBox="0 0 24 24" fill="currentColor" xmlns="http://www.w3.org/2000/svg">
<path fill-rule="evenodd" clip-rule="evenodd" d="M19.7538 4.20005C16.8445 4.20005 14.1599 3.30655 12 1.80005C9.84012 3.30655 7.15545 4.19938 4.24615 4.19938L3.6 4.20005V10.8C3.6 15.2376 6.18458 20.4001 12 22.2001C17.8154 20.4001 20.4 15.2376 20.4 10.8V4.20005H19.7538ZM12 20.7909C11.046 20.4996 10.1384 20.0736 9.30465 19.5259V17.8881C9.3045 17.1028 9.7508 16.3857 10.4555 16.039C10.7331 16.3008 11.0774 16.5169 11.4601 16.6219C11.5722 16.6528 11.6869 16.6735 11.8027 16.6837C11.8675 16.6893 11.9328 16.6923 11.999 16.6923C12.0743 16.6923 12.1487 16.6887 12.2222 16.6813C12.3288 16.6707 12.4344 16.651 12.5378 16.6226C12.9205 16.5179 13.2648 16.3008 13.5425 16.039C14.2471 16.3857 14.6934 17.1028 14.6933 17.8881V19.515C13.8601 20.0621 12.9532 20.4876 12 20.7788V20.7909ZM10.2556 14.5764C10.2533 13.952 10.585 13.374 11.1254 13.0612C11.6658 12.7483 12.3322 12.7483 12.8725 13.0612C13.4129 13.374 13.7447 13.952 13.7424 14.5764C13.7424 14.5813 13.7422 14.5863 13.7422 14.5912C13.7348 15.547 12.9592 16.3187 12.0034 16.3211C11.0475 16.3234 10.268 15.5557 10.2559 14.5999C10.2558 14.592 10.2556 14.5843 10.2556 14.5764ZM19.1996 11.0075C19.1989 11.5786 19.1502 12.1486 19.0543 12.7116C18.8065 11.9518 18.2627 11.3241 17.546 10.9704C17.0403 11.4473 16.3809 11.8209 15.65 11.8929C15.5445 11.9033 15.4377 11.9085 15.3294 11.9086C15.2344 11.9086 15.1404 11.9043 15.0475 11.8962C14.3011 11.8317 13.6274 11.4557 13.1128 10.9704C12.6677 11.1903 12.2848 11.5181 11.999 11.9239C11.7132 11.518 11.3303 11.1902 10.8852 10.9704C10.3795 11.4473 9.72012 11.8209 8.9892 11.8929C8.88374 11.9033 8.77688 11.9085 8.66861 11.9086C8.57361 11.9086 8.47963 11.9043 8.3867 11.8962C7.6403 11.8317 6.9666 11.4557 6.45199 10.9704C5.73504 11.3242 5.19114 11.9522 4.94347 12.7124C4.84875 12.153 4.80076 11.5868 4.8 11.0195V5.38632L5.35385 5.36174C7.80151 5.2255 10.1158 4.56876 11.9996 3.18545V3.17316C13.8836 4.55666 16.198 5.21345 18.6458 5.34975L19.1996 5.37432V11.0075ZM9.63468 6.55968C8.86174 6.23641 7.97834 6.32118 7.28098 6.78553C6.58362 7.24988 6.16475 8.03227 6.16495 8.87009C6.16495 8.88139 6.16524 8.89262 6.16538 8.9039C6.1825 10.2767 7.30201 11.3795 8.67488 11.3761C10.0477 11.3727 11.1617 10.2642 11.172 8.89135C11.172 8.88415 11.1722 8.87719 11.1722 8.87009C11.1723 7.86043 10.5661 6.94947 9.63468 6.55968ZM16.2954 6.55968C15.5225 6.23641 14.6391 6.32118 13.9417 6.78553C13.2444 7.24988 12.8255 8.03227 12.8257 8.87009C12.8257 8.88139 12.826 8.89262 12.8262 8.9039C12.8433 10.2767 13.9628 11.3795 15.3356 11.3761C16.7085 11.3727 17.8225 10.2642 17.8327 8.89135C17.8327 8.88415 17.833 8.87719 17.833 8.87009C17.8331 7.86042 17.2268 6.94946 16.2954 6.55968Z" fill="currentColor"/>
</svg>
