<svg width="24" height="24" viewBox="0 0 24 24" fill="currentColor" xmlns="http://www.w3.org/2000/svg">
<path fill-rule="evenodd" clip-rule="evenodd" d="M14.4038 7.80593L16.8 7.19986L18 8.39986L17.4 10.7999L14.4038 7.80593ZM17.0148 16.5839C15.6336 16.5873 14.2729 16.2493 13.0539 15.5999H11.4L11.088 15.9119L13.176 17.9999H15.552L15.5532 18.001C15.5608 18.0007 15.5683 17.9999 15.576 17.9999C15.9074 17.9999 16.176 18.2685 16.176 18.5999V19.7999H2.97601V18.5999C2.97601 18.2685 3.24464 17.9999 3.57601 17.9999H5.40001L9.60001 13.7999V12.1672C8.26244 9.68157 8.25569 6.69187 9.58204 4.2002L20.9756 15.5938C19.7568 16.2443 18.3964 16.5844 17.0148 16.5839ZM9.00001 17.9999H10.212L9.604 17.3959L9.00001 17.9999ZM10.188 16.8119L11.376 17.9999H12.016L10.503 16.4969L10.188 16.8119Z" fill="currentColor"/>
</svg>
