<svg width="24" height="24" viewBox="0 0 24 24" fill="currentColor" xmlns="http://www.w3.org/2000/svg">
<path fill-rule="evenodd" clip-rule="evenodd" d="M21.4942 7.60468C21.2873 7.00076 20.7189 6.59554 20.0806 6.59682C17.0327 6.59605 13.9848 6.59658 10.9368 6.5984C10.8395 6.5984 10.7802 6.56982 10.7208 6.4898C10.1527 5.7242 9.57929 4.96271 9.00739 4.20001H2.42395V18.458C2.44375 18.5383 2.45865 18.6202 2.48419 18.6985C2.67139 19.2736 3.06081 19.6249 3.65246 19.7525C3.67441 19.7588 3.69588 19.7667 3.71671 19.776H21.576V7.91428C21.5491 7.81096 21.5287 7.70538 21.4942 7.60468ZM11.2698 8.39836C11.3699 8.37251 11.4741 8.36274 11.5763 8.34512C11.589 8.34296 11.6012 8.33845 11.6136 8.33502H11.9316C12.0372 8.35369 12.1438 8.36768 12.248 8.39183C13.0387 8.58041 13.6421 9.22008 13.7843 10.0204C13.9761 11.1276 13.2747 12.1653 12.1697 12.3877C11.0827 12.6018 10.0228 11.9116 9.77897 10.8309C9.53516 9.75009 10.1961 8.67167 11.2698 8.39836ZM14.8958 17.9976H9.67161C9.66136 17.9933 9.65073 17.99 9.63986 17.9876C9.18926 17.9309 8.81655 17.6096 8.694 17.1723C8.67573 17.1074 8.66417 17.0405 8.64953 16.9745V14.3599C8.65766 14.2964 8.66409 14.2327 8.67422 14.1696C8.80309 13.3672 9.21354 12.7534 9.90559 12.3281C9.99698 12.2719 9.96722 12.2752 10.0466 12.3425C10.7158 12.9112 11.4818 13.1097 12.3406 12.9319C12.7902 12.8387 13.1837 12.6275 13.5242 12.319C13.5485 12.297 13.5667 12.2836 13.6017 12.3044C14.273 12.7024 14.6917 13.2815 14.8494 14.0471C14.8707 14.1501 14.8806 14.2555 14.8958 14.3598V17.9976Z" fill="currentColor"/>
</svg>
