<svg width="24" height="24" viewBox="0 0 24 24" fill="currentColor" xmlns="http://www.w3.org/2000/svg">
<path fill-rule="evenodd" clip-rule="evenodd" d="M21 11.4H10.8V11.04C10.8 10.9074 10.6656 10.8 10.5 10.8H8.99999V10.2H7.19999V10.8H5.69999C5.53439 10.8 5.39999 10.9074 5.39999 11.04V11.4H2.99999C2.66902 11.401 2.40096 11.669 2.39999 12V12.6C2.39999 12.9314 2.66862 13.2 2.99999 13.2H3.59999V21H4.79999V13.9726C4.79999 13.5459 5.14589 13.2 5.57258 13.2H10.6274C11.0541 13.2 11.4 13.5459 11.4 13.9726V21H20.4V13.2H21C21.3314 13.2 21.6 12.9314 21.6 12.6V12C21.599 11.669 21.331 11.401 21 11.4ZM19.2 18.775C19.2 19.0097 19.0097 19.2 18.775 19.2H13.025C12.7903 19.2 12.6 19.0097 12.6 18.775V17.225C12.6 16.9903 12.7903 16.8 13.025 16.8H14.824C14.9367 16.8 15.0448 16.8448 15.1245 16.9245L15.4755 17.2755C15.5552 17.3552 15.6633 17.4 15.776 17.4H16.024C16.1367 17.4 16.2448 17.3552 16.3245 17.2755L16.6755 16.9245C16.7552 16.8448 16.8633 16.8 16.976 16.8H18.775C19.0097 16.8 19.2 16.9903 19.2 17.225V18.775ZM19.2 15.775C19.2 16.0097 19.0097 16.2 18.775 16.2H13.025C12.7903 16.2 12.6 16.0097 12.6 15.775V14.225C12.6 13.9903 12.7903 13.8 13.025 13.8H14.824C14.9367 13.8 15.0448 13.8448 15.1245 13.9245L15.4755 14.2755C15.5552 14.3552 15.6633 14.4 15.776 14.4H16.024C16.1367 14.4 16.2448 14.3552 16.3245 14.2755L16.6755 13.9245C16.7552 13.8448 16.8633 13.8 16.976 13.8H18.775C19.0097 13.8 19.2 13.9903 19.2 14.225V15.775ZM4.16251 9.6H12.0375C12.3513 9.59682 12.6031 9.33989 12.6 9.02609V3.57391C12.6031 3.26011 12.3513 3.00318 12.0375 3H4.16251C3.8487 3.00318 3.59688 3.26011 3.59997 3.57391V9.02609C3.59688 9.33989 3.8487 9.59682 4.16251 9.6ZM4.19999 3.6H12V8.4H4.19999V3.6Z" fill="currentColor"/>
</svg>
