<svg width="24" height="24" viewBox="0 0 24 24" fill="currentColor" xmlns="http://www.w3.org/2000/svg">
<path fill-rule="evenodd" clip-rule="evenodd" d="M21.6 15H21C20.0059 15 19.2001 14.1941 19.2001 13.2C19.2001 12.2059 20.0059 11.4 21 11.4H21.6C21.9314 11.4 22.2001 11.6686 22.2001 12V14.4C22.2001 14.7314 21.9314 15 21.6 15ZM1.80005 7.2C1.80005 5.87452 2.87457 4.8 4.20005 4.8H19.2001V6.6H21V10.8C19.6746 10.8 18.6 11.8745 18.6 13.2C18.6 14.5255 19.6746 15.6 21 15.6V19.8H4.20005C2.87457 19.8 1.80005 18.7255 1.80005 17.4V7.2ZM18.6 5.4H4.80005C4.46868 5.4 4.20005 5.66863 4.20005 6C4.20005 6.33137 4.46868 6.6 4.80005 6.6H18.6V5.4Z" fill="currentColor"/>
</svg>
