<svg width="24" height="24" viewBox="0 0 24 24" fill="currentColor" xmlns="http://www.w3.org/2000/svg">
<path fill-rule="evenodd" clip-rule="evenodd" d="M22.0484 20.3516L18.6699 16.9726C19.9243 15.348 20.6032 13.3525 20.6 11.3C20.6 6.16376 16.4362 2 11.3 2C6.16376 2 2 6.16376 2 11.3C2 16.4362 6.16376 20.6 11.3 20.6C13.3525 20.6032 15.348 19.9243 16.9726 18.6699L20.3514 22.0486C20.6545 22.3517 21.0965 22.4699 21.5105 22.3589C21.9246 22.248 22.248 21.9246 22.3589 21.5105C22.4699 21.0965 22.3515 20.6547 22.0484 20.3516ZM14.2189 18.2113C10.6466 19.7269 6.50748 18.2807 4.65632 14.8703C2.80515 11.4598 3.84774 7.20106 7.06499 5.0314C10.2822 2.86174 14.6213 3.49116 17.0895 6.48554C19.5576 9.47992 19.3472 13.8594 16.6033 16.6033C15.9205 17.2891 15.1106 17.8352 14.2189 18.2113ZM16.179 16.179C16.4827 15.8755 16.7576 15.5445 17 15.1902V8.6C17.0003 7.9376 16.4636 7.40034 15.8012 7.4H6.79882C6.48072 7.40015 6.1757 7.52667 5.95088 7.75171C5.72606 7.97676 5.59984 8.28189 5.6 8.6V15.1902C5.84244 15.5445 6.11728 15.8755 6.42097 16.179C6.54343 16.3014 6.66978 16.4187 6.8 16.531V9.2H15.8V16.531C15.9301 16.4188 16.0565 16.3015 16.179 16.179ZM12.2 8.6H10.4C10.2343 8.6 10.1 8.46569 10.1 8.3C10.1 8.13431 10.2343 8 10.4 8H12.2C12.3657 8 12.5 8.13431 12.5 8.3C12.5 8.46569 12.3657 8.6 12.2 8.6ZM14.48 12.68H8V11.96H14.48V12.68ZM13.76 14.12H8V13.4H13.76V14.12ZM13.04 15.56H8V14.84H13.04V15.56Z" fill="currentColor"/>
</svg>
