<svg width="24" height="24" viewBox="0 0 24 24" fill="currentColor" xmlns="http://www.w3.org/2000/svg">
<path fill-rule="evenodd" clip-rule="evenodd" d="M20.4 10.2C20.7314 10.2 21 9.93137 21 9.6C21 9.26863 20.7314 9 20.4 9H19.8V7.8H20.4C20.7314 7.8 21 7.53137 21 7.2C21 6.86863 20.7314 6.6 20.4 6.6H19.8V5.4C19.7981 4.73806 19.2619 4.20194 18.6 4.2H17.4V3.6C17.4 3.26863 17.1314 3 16.8 3C16.4686 3 16.2 3.26863 16.2 3.6V4.2H15V3.6C15 3.26863 14.7314 3 14.4 3C14.0686 3 13.8 3.26863 13.8 3.6V4.2H12.6V3.6C12.6 3.26863 12.3314 3 12 3C11.6686 3 11.4 3.26863 11.4 3.6V4.2H10.2V3.6C10.2 3.26863 9.93137 3 9.6 3C9.26863 3 9 3.26863 9 3.6V4.2H7.8V3.6C7.8 3.26863 7.53137 3 7.2 3C6.86863 3 6.6 3.26863 6.6 3.6V4.2H5.4C4.73806 4.20194 4.20194 4.73806 4.2 5.4V6.6H3.6C3.26863 6.6 3 6.86863 3 7.2C3 7.53137 3.26863 7.8 3.6 7.8H4.2V9H3.6C3.26863 9 3 9.26863 3 9.6C3 9.93137 3.26863 10.2 3.6 10.2H4.2V11.4H3.6C3.26863 11.4 3 11.6686 3 12C3 12.3314 3.26863 12.6 3.6 12.6H4.2V13.8H3.6C3.26863 13.8 3 14.0686 3 14.4C3 14.7314 3.26863 15 3.6 15H4.2V16.2H3.6C3.26863 16.2 3 16.4686 3 16.8C3 17.1314 3.26863 17.4 3.6 17.4H4.2V18.6C4.20194 19.2619 4.73806 19.7981 5.4 19.8H6.6V20.4C6.6 20.7314 6.86863 21 7.2 21C7.53137 21 7.8 20.7314 7.8 20.4V19.8H9V20.4C9 20.7314 9.26863 21 9.6 21C9.93137 21 10.2 20.7314 10.2 20.4V19.8H11.4V20.4C11.4 20.7314 11.6686 21 12 21C12.3314 21 12.6 20.7314 12.6 20.4V19.8H13.8V20.4C13.8 20.7314 14.0686 21 14.4 21C14.7314 21 15 20.7314 15 20.4V19.8H16.2V20.4C16.2 20.7314 16.4686 21 16.8 21C17.1314 21 17.4 20.7314 17.4 20.4V19.8H18.6C19.2619 19.7981 19.7981 19.2619 19.8 18.6V17.4H20.4C20.7314 17.4 21 17.1314 21 16.8C21 16.4686 20.7314 16.2 20.4 16.2H19.8V15H20.4C20.7314 15 21 14.7314 21 14.4C21 14.0686 20.7314 13.8 20.4 13.8H19.8V12.6H20.4C20.7314 12.6 21 12.3314 21 12C21 11.6686 20.7314 11.4 20.4 11.4H19.8V10.2H20.4ZM9.59549 17.4H8.17522C8.08157 16.4532 7.55822 15.9236 6.60516 15.8114V14.3994C8.28367 14.3425 9.69878 15.8682 9.59549 17.4ZM12.3069 17.3948L10.8763 17.3917C10.8526 16.2277 10.4539 15.2173 9.62647 14.3963C8.79902 13.5752 7.78889 13.166 6.60826 13.1443V11.7137C9.67296 11.6394 12.3823 14.2795 12.3069 17.3948ZM13.5846 17.3917C13.5464 15.486 12.8874 13.8343 11.5281 12.4885C10.1688 11.1427 8.514 10.4918 6.6 10.4494V9.03535C11.0199 8.91864 15.1 12.6919 15.0163 17.3907L15.0204 17.3917H13.5846Z" fill="currentColor"/>
</svg>
