<svg width="24" height="24" viewBox="0 0 24 24" fill="currentColor" xmlns="http://www.w3.org/2000/svg">
<path fill-rule="evenodd" clip-rule="evenodd" d="M19.576 7.4V3.32173C19.576 2.59177 18.9766 2 18.2372 2H5.33882C4.5994 2 4 2.59177 4 3.32173V7.4H5.19981V20H4V21.0794C4 21.8088 4.5994 22.4 5.33882 22.4H18.2372C18.9766 22.4 19.576 21.8088 19.576 21.0794V20H18.3978V7.4H19.576ZM5.19981 4.1C5.19989 3.60304 5.6028 3.20024 6.09976 3.20029C6.59672 3.20034 6.99955 3.60323 6.99952 4.10019C6.99949 4.59715 6.59662 5 6.09966 5C5.60266 4.99992 5.19981 4.597 5.19981 4.1ZM17.7979 20H5.79971V7.4H10.9965V7.50754C11.0023 7.94052 11.355 8.28846 11.788 8.28846C12.221 8.28846 12.5737 7.94052 12.5795 7.50754V7.4H17.7979V20ZM7.59945 13.4L8.59526 18.6506C8.63994 19.0783 9.00168 19.4024 9.4317 19.4H13.7253C14.1553 19.4023 14.517 19.0782 14.5618 18.6506L14.6542 18.1632C14.873 18.2449 15.1048 18.2867 15.3384 18.2865C16.4084 18.2865 17.2789 17.4271 17.2789 16.3707C17.2789 15.3206 16.4187 14.4655 15.3574 14.4554L15.5574 13.4H7.59945ZM16.414 16.3707C16.414 16.9563 15.9314 17.4327 15.3383 17.4327C15.1564 17.4329 14.9773 17.3872 14.8178 17.2997L15.1936 15.3186C15.2416 15.3121 15.2899 15.3088 15.3384 15.3087C15.9314 15.3087 16.414 15.7851 16.414 16.3707ZM11.7789 10.7451C12.2043 10.7397 12.5452 10.3914 12.5416 9.96603C12.538 9.54066 12.1912 9.19824 11.7658 9.20004C11.3404 9.20185 10.9965 9.54721 10.9965 9.97261C10.9994 10.4019 11.3496 10.7478 11.7789 10.7451Z" fill="currentColor"/>
</svg>
