<svg width="24" height="24" viewBox="0 0 24 24" fill="currentColor" xmlns="http://www.w3.org/2000/svg">
<path fill-rule="evenodd" clip-rule="evenodd" d="M16.32 6.11999C16.32 8.50586 14.3859 10.44 12 10.44C9.61412 10.44 7.67999 8.50586 7.67999 6.11999C7.67999 3.73412 9.61412 1.79999 12 1.79999C14.3859 1.79999 16.32 3.73412 16.32 6.11999ZM15.7848 10.1378C13.6592 12.1406 10.3412 12.1407 8.21543 10.138C6.51734 11.0635 5.44397 12.8265 5.40153 14.76H5.39999V19.8C5.39999 21.1255 6.47451 22.2 7.79999 22.2H18.6V14.88C18.6007 12.903 17.5207 11.0838 15.7848 10.1378ZM15.0283 16.7176L12.0543 19.9944L9.08027 16.7176C8.29862 15.8924 8.32199 14.5931 9.13282 13.7966C9.94365 13 11.2431 12.9997 12.0543 13.7959C12.8656 13.0003 14.1646 13.0009 14.9751 13.7972C15.7857 14.5935 15.8094 15.8923 15.0283 16.7176Z" fill="currentColor"/>
</svg>
