<svg width="24" height="24" viewBox="0 0 24 24" fill="currentColor" xmlns="http://www.w3.org/2000/svg">
<path fill-rule="evenodd" clip-rule="evenodd" d="M13.8 3.59999L12.6 2.39999H4.2V16.8C4.2 17.4627 4.73726 18 5.4 18V3.59999H13.8ZM15.6 5.39999L14.4 4.19999H6V18.6C6 19.2627 6.53726 19.8 7.2 19.8V5.39999H15.6ZM15.24 8.99999V5.99999H7.8V20.4C7.8 21.0627 8.33726 21.6 9 21.6H19.8V10.56H16.8C15.9388 10.559 15.241 9.86115 15.24 8.99999ZM17.4 18.48H10.2C9.9349 18.48 9.72 18.2651 9.72 18C9.72 17.7349 9.9349 17.52 10.2 17.52H17.4C17.6651 17.52 17.88 17.7349 17.88 18C17.88 18.2651 17.6651 18.48 17.4 18.48ZM17.4 16.08H10.2C9.9349 16.08 9.72 15.8651 9.72 15.6C9.72 15.3349 9.9349 15.12 10.2 15.12H17.4C17.6651 15.12 17.88 15.3349 17.88 15.6C17.88 15.8651 17.6651 16.08 17.4 16.08ZM17.88 13.2C17.88 13.4651 17.6651 13.68 17.4 13.68H10.2C9.9349 13.68 9.72 13.4651 9.72 13.2C9.72 12.9349 9.9349 12.72 10.2 12.72H17.4C17.6651 12.72 17.88 12.9349 17.88 13.2ZM19.8 9.59999H16.8C16.4686 9.59999 16.2 9.33137 16.2 8.99999V5.99999L19.8 9.59999Z" fill="currentColor"/>
</svg>
