<svg width="24" height="24" viewBox="0 0 24 24" fill="currentColor" xmlns="http://www.w3.org/2000/svg">
<path fill-rule="evenodd" clip-rule="evenodd" d="M22.0051 10.5228L20.74 11.0993V15.0453C20.8994 15.1101 21.004 15.2196 21.004 15.3438V18.2449H21.0024C20.9856 18.4348 20.7244 18.5857 20.4038 18.5857C20.0832 18.5857 19.822 18.4348 19.8052 18.2449H19.8035V15.3438C19.8035 15.2092 19.9268 15.092 20.109 15.0302V11.3868L12.3521 14.922C12.1285 15.0218 11.8729 15.0213 11.6496 14.9208L1.9944 10.4797C1.728 10.3602 1.7304 9.96029 1.99817 9.84439L11.6356 5.45306C11.8682 5.352 12.1323 5.35248 12.3644 5.45438L22.0034 9.88745C22.2709 10.0043 22.272 10.4043 22.0051 10.5228ZM12.4418 15.5162L17.9973 13.0363V16.1843C17.9973 16.5285 17.7989 16.8381 17.4965 16.9659L12.4934 19.0902C12.1783 19.224 11.8223 19.224 11.5072 19.0902L6.08671 16.7054C5.84791 16.6044 5.69134 16.3601 5.69134 16.0883V12.9403L11.5588 15.5162C11.841 15.636 12.1596 15.636 12.4418 15.5162Z" fill="currentColor"/>
</svg>
