<svg width="24" height="24" viewBox="0 0 24 24" fill="currentColor" xmlns="http://www.w3.org/2000/svg">
<path fill-rule="evenodd" clip-rule="evenodd" d="M7.2 16.2V19.8H16.7996V3.59999H7.2V8.08799C6.97123 8.179 6.35542 8.51785 5.99999 8.92799V2.99999C5.99889 2.6823 6.12424 2.37722 6.3484 2.15209C6.57255 1.92695 6.87707 1.80027 7.19477 1.79999H16.8008C17.1189 1.79999 17.424 1.92658 17.6489 2.15162C17.8738 2.37666 18 2.68183 18 2.99999V21C18 21.3181 17.8738 21.6233 17.6489 21.8484C17.424 22.0734 17.1189 22.2 16.8008 22.2H7.19477C6.87707 22.1997 6.57255 22.073 6.3484 21.8479C6.12424 21.6228 5.99889 21.3177 5.99999 21V16.2H7.2ZM12.8981 2.39999H11.0975C10.9318 2.39999 10.7975 2.5343 10.7975 2.69999C10.7975 2.86567 10.9318 2.99999 11.0975 2.99999H12.8981C13.0638 2.99999 13.1981 2.86567 13.1981 2.69999C13.1981 2.5343 13.0638 2.39999 12.8981 2.39999ZM11.9978 21.6C12.3291 21.5999 12.5977 21.3312 12.5976 20.9999C12.5975 20.6685 12.3289 20.4 11.9975 20.4C11.6662 20.4 11.3976 20.6686 11.3976 21C11.3977 21.3314 11.6664 21.6 11.9978 21.6ZM6.4152 9.36385L4.60716 11.1744L3 9.56502V14.7466C2.99974 15.2176 3.38133 15.5997 3.85234 15.6H9.02686L7.4197 13.9907L9.22776 12.1802L9.62954 11.7778C9.94902 11.4578 10.3827 11.2779 10.8349 11.2779C11.2871 11.2779 11.7208 11.4578 12.0403 11.7778L12.6925 12.4309C12.8868 10.8656 12.0656 9.34962 10.6484 8.65717C9.2312 7.96472 7.53065 8.2486 6.4152 9.36385Z" fill="currentColor"/>
</svg>
