<svg width="24" height="24" viewBox="0 0 24 24" fill="currentColor" xmlns="http://www.w3.org/2000/svg">
<path fill-rule="evenodd" clip-rule="evenodd" d="M16.8012 1.80005H7.19882C6.88072 1.80005 6.5757 1.92672 6.35088 2.15176C6.12606 2.3768 5.99984 2.68194 6 3.00005V21C5.99967 21.6625 6.53637 22.1997 7.19878 22.2001H16.8012C17.1193 22.2001 17.4243 22.0734 17.6491 21.8483C17.8739 21.6233 18.0002 21.3182 18 21V3.00005C18.0003 2.33765 17.4636 1.80039 16.8012 1.80005ZM11.1 2.40005H12.9C13.0657 2.40005 13.2 2.53436 13.2 2.70005C13.2 2.86573 13.0657 3.00005 12.9 3.00005H11.1C10.9343 3.00005 10.8 2.86573 10.8 2.70005C10.8 2.53436 10.9343 2.40005 11.1 2.40005ZM16.8 13.2559C16.1277 15.3388 14.1888 16.7505 12 16.7505C9.81124 16.7505 7.87228 15.3388 7.2 13.2559V10.1682C7.87228 8.08527 9.81124 6.67363 12 6.67363C14.1888 6.67363 16.1277 8.08527 16.8 10.1682V13.2559ZM12 21.6C11.6686 21.6 11.4 21.3314 11.4 21C11.4 20.6687 11.6686 20.4 12 20.4C12.3314 20.4 12.6 20.6687 12.6 21C12.6 21.3314 12.3314 21.6 12 21.6ZM16.8 19.8H7.2V15.3124C8.33325 16.823 10.1115 17.712 12 17.712C13.8885 17.712 15.6667 16.823 16.8 15.3124V19.8ZM12 5.71205C10.1112 5.71051 8.33224 6.59985 7.2 8.11171V3.60005H16.8V8.11171C15.6678 6.59985 13.8888 5.71051 12 5.71205ZM12 7.51205C9.6804 7.51205 7.8 9.39245 7.8 11.712C7.8 14.0316 9.6804 15.912 12 15.912C14.3196 15.912 16.2 14.0316 16.2 11.712C16.2 10.5981 15.7575 9.52985 14.9698 8.7422C14.1822 7.95455 13.1139 7.51205 12 7.51205ZM14.291 14.0031C13.1981 15.0961 11.4852 15.2648 10.2 14.406C8.91474 13.5473 8.41511 11.9002 9.00663 10.4722C9.59814 9.04411 11.1161 8.23275 12.6321 8.53431C14.1481 8.83586 15.24 10.1663 15.24 11.712C15.2423 12.5718 14.9006 13.3968 14.291 14.0031ZM12 9.31205C10.6745 9.31205 9.6 10.3866 9.6 11.712C9.6 13.0375 10.6745 14.112 12 14.112C13.3255 14.112 14.4 13.0375 14.4 11.712C14.4 10.3866 13.3255 9.31205 12 9.31205ZM12 13.152C11.2047 13.152 10.56 12.5073 10.56 11.712C10.56 10.9168 11.2047 10.272 12 10.272C12.7953 10.272 13.44 10.9168 13.44 11.712C13.4391 12.507 12.7949 13.1511 12 13.152Z" fill="currentColor"/>
</svg>
