<svg width="24" height="24" viewBox="0 0 24 24" fill="currentColor" xmlns="http://www.w3.org/2000/svg">
<path fill-rule="evenodd" clip-rule="evenodd" d="M6.00001 22.2001C5.0071 22.1972 4.20291 21.393 4.20001 20.4V3.60005C4.20291 2.60714 5.0071 1.80295 6.00001 1.80005H18.6V4.20005H19.8V22.2001H6.00001ZM17.4 3.00005H6.00001C5.66904 3.00101 5.40097 3.26908 5.40001 3.60005C5.40097 3.93102 5.66904 4.19909 6.00001 4.20005H17.4V3.00005ZM15.096 10.7455C14.3745 10.744 13.7909 10.1579 13.7924 9.43642V9.49282H13.789C13.7911 9.52831 13.7924 9.56402 13.7924 9.60005C13.7958 10.2426 13.4549 10.8378 12.8989 11.1601C12.343 11.4823 11.6571 11.4823 11.1011 11.1601C10.5452 10.8378 10.2043 10.2426 10.2076 9.60005C10.2076 9.54485 10.2105 9.49034 10.2153 9.43642H10.2076C10.2091 10.1579 9.62548 10.744 8.90401 10.7455V10.091C8.90328 9.7445 9.04021 9.41194 9.28468 9.16643C9.52915 8.92093 9.86113 8.7826 10.2076 8.78186H10.4036C10.708 8.1797 11.3253 7.80004 12 7.80004C12.6747 7.80004 13.292 8.1797 13.5964 8.78186H13.7924C14.1389 8.7826 14.4709 8.92093 14.7153 9.16643C14.9598 9.41194 15.0967 9.7445 15.096 10.091V10.7455ZM10.4131 11.2909C11.3028 12.1346 12.6972 12.1346 13.587 11.2909C14.31 11.6516 14.7649 12.3921 14.7601 13.2V14.352C14.7601 14.8943 14.34 15.336 13.8 15.336V17.9485C13.797 18.3102 13.5023 18.6014 13.1406 18.6001H10.8594C10.4994 18.6001 10.2 18.3135 10.2 17.952V15.336C9.66001 15.336 9.23997 14.8943 9.23997 14.352V13.2C9.23511 12.3921 9.69007 11.6516 10.4131 11.2909Z" fill="currentColor"/>
</svg>
