<svg width="24" height="24" viewBox="0 0 24 24" fill="currentColor" xmlns="http://www.w3.org/2000/svg">
<path fill-rule="evenodd" clip-rule="evenodd" d="M20.5221 21V18.25H19.4312V21H15.613V16.6L18.613 14.4L21.613 16.6V21H20.5221ZM18.3403 18.25H16.7039V19.9H18.3403V18.25ZM16.063 13.8H13.813L12.013 15.6L10.213 13.8H7.96303C7.21835 13.7978 6.61521 13.1947 6.61302 12.45V4.35C6.6152 3.60532 7.21834 3.00217 7.96303 3H16.063C16.8077 3.00217 17.4108 3.60532 17.413 4.35V12.45C17.4108 13.1947 16.8077 13.7978 16.063 13.8ZM8.41302 21H7.3221V18.25H6.23121V21H2.41302V16.6L5.41302 14.4L8.41302 16.6V21ZM5.14029 18.25H3.50394V19.9H5.14029V18.25ZM11.5888 16.0243C11.7013 16.1368 11.8539 16.2 12.013 16.2C12.1722 16.2 12.3248 16.1368 12.4373 16.0243L13.1949 15.2667L15.013 16.6V21H13.9221V18.25H12.8312V21H9.01302V16.6L10.8312 15.2667L11.5888 16.0243ZM10.1039 19.9H11.7403V18.25H10.1039V19.9Z" fill="currentColor"/>
</svg>
