<svg width="24" height="24" viewBox="0 0 24 24" fill="currentColor" xmlns="http://www.w3.org/2000/svg">
<path fill-rule="evenodd" clip-rule="evenodd" d="M9.93853 19.8026C9.93853 19.961 10.0015 20.113 10.1135 20.225C10.2256 20.3371 10.3775 20.4 10.536 20.4H10.9458C10.9716 20.4002 10.9955 20.4137 11.0091 20.4358C11.2282 20.7867 11.6128 21 12.0266 21C12.4404 21 12.8249 20.7867 13.0441 20.4358C13.0576 20.4137 13.0815 20.4002 13.1073 20.4H13.4987C13.662 20.4 13.8187 20.3351 13.9341 20.2196C14.0496 20.1041 14.1145 19.9475 14.1145 19.7841V18.5821C14.1145 18.4277 14.0532 18.2797 13.944 18.1705C13.8349 18.0613 13.6868 18 13.5324 18H10.5207C10.1992 18 9.93853 18.2606 9.93853 18.5821V19.8026ZM12 3C9.01765 3 6.59998 5.41766 6.59998 8.4C6.59833 9.48936 6.92775 10.5535 7.54458 11.4514C9.20968 14.0102 9.55578 16.2074 9.60222 16.5604C9.63399 17.0329 10.0264 17.4 10.5 17.4H13.5C13.9544 17.4 14.3374 17.0612 14.393 16.6102C14.393 16.6102 14.6448 14.1835 16.5297 11.3406C17.0993 10.4658 17.4016 9.44394 17.4 8.4C17.4 5.41766 14.9823 3 12 3ZM13.5044 8.4H12.7785C12.7785 8.39448 12.7789 8.38901 12.7789 8.38346C12.7771 7.95558 12.4292 7.60994 12.0013 7.61086V6.88975C12.8315 6.88975 13.5045 7.55851 13.5045 8.38346C13.5046 8.38901 13.5045 8.39448 13.5044 8.4ZM14.8521 8.4H14.1264C14.1264 8.39448 14.1266 8.38898 14.1266 8.38346C14.1278 7.82236 13.9035 7.28429 13.5041 6.89018C13.1054 6.49241 12.5646 6.26983 12.0014 6.27166V5.55055C13.5758 5.55055 14.8523 6.81888 14.8523 8.38346C14.8523 8.38901 14.8521 8.39448 14.8521 8.4ZM16.2 8.4H15.4742C15.4742 8.39448 15.4744 8.38898 15.4744 8.38346C15.4754 7.46675 15.109 6.58788 14.4573 5.94324C13.805 5.29411 12.9217 4.93054 12.0015 4.93246V4.21135C14.3202 4.21135 16.2 6.0792 16.2 8.38346C16.2 8.38898 16.2 8.39448 16.2 8.4Z" fill="currentColor"/>
</svg>
