<svg width="24" height="24" viewBox="0 0 24 24" fill="currentColor" xmlns="http://www.w3.org/2000/svg">
<path fill-rule="evenodd" clip-rule="evenodd" d="M12 1.8C17.6334 1.8 22.2001 6.3667 22.2001 12C22.2001 17.6333 17.6334 22.2 12 22.2C6.36674 22.2 1.80005 17.6333 1.80005 12C1.80005 6.3667 6.36674 1.8 12 1.8ZM10.86 16.8H9.09235C9.09264 16.7865 9.09338 16.7732 9.09338 16.7597C9.09338 15.7198 8.24405 14.8738 7.20005 14.8738V13.1136C9.22166 13.1136 10.8605 14.746 10.8605 16.7596C10.8605 16.7731 10.86 16.7865 10.86 16.8ZM14.1418 16.8H12.3747C12.3747 16.7865 12.3752 16.7731 12.3752 16.7597C12.3695 13.9072 10.0525 11.5994 7.20005 11.605V9.8448C11.0341 9.8448 14.1423 12.9408 14.1423 16.7596C14.1423 16.7731 14.1419 16.7865 14.1418 16.8ZM17.4239 16.8H15.6564C15.6564 16.7865 15.657 16.7731 15.657 16.7597C15.6597 14.5231 14.7678 12.3784 13.18 10.8033C11.5933 9.21954 9.44189 8.33189 7.20005 8.33614V6.576C12.8466 6.576 17.424 11.1354 17.424 16.7597C17.424 16.7731 17.4239 16.7865 17.4239 16.8Z" fill="currentColor"/>
</svg>
