<svg width="24" height="24" viewBox="0 0 24 24" fill="currentColor" xmlns="http://www.w3.org/2000/svg">
<path fill-rule="evenodd" clip-rule="evenodd" d="M12.2 2C6.5667 2 2 6.5667 2 12.2C2 17.8333 6.5667 22.4 12.2 22.4C17.8333 22.4 22.4 17.8333 22.4 12.2C22.4 6.5667 17.8333 2 12.2 2ZM11.48 16.4H9.8C9.80029 16.3872 9.8 16.3649 9.8 16.352C9.79888 15.3584 8.99365 14.5531 8 14.552V12.872C9.92195 12.872 11.48 14.43 11.48 16.352C11.48 16.3649 11.4801 16.3872 11.48 16.4ZM14.6 16.4H12.92C12.92 16.3872 12.92 16.3649 12.92 16.352C12.92 13.6348 10.7172 11.432 8 11.432V9.752C11.6451 9.752 14.6 12.7069 14.6 16.352C14.6 16.3649 14.6 16.3871 14.6 16.4ZM17.72 16.4H16.04C16.04 16.3872 16.04 16.3649 16.04 16.352C16.0421 14.219 15.1958 12.1727 13.6875 10.6645C12.1793 9.15623 10.133 8.30985 8 8.312V6.632C13.3682 6.632 17.72 10.9838 17.72 16.352C17.72 16.3649 17.72 16.3872 17.72 16.4Z" fill="currentColor"/>
</svg>
