<svg width="24" height="24" viewBox="0 0 24 24" fill="currentColor" xmlns="http://www.w3.org/2000/svg">
<path fill-rule="evenodd" clip-rule="evenodd" d="M16.8012 1.8H7.19882C6.88072 1.8 6.5757 1.92667 6.35088 2.15171C6.12606 2.37676 5.99984 2.68189 6 3V21C5.99967 21.6624 6.53637 22.1997 7.19878 22.2H16.8012C17.1193 22.2 17.4243 22.0733 17.6491 21.8483C17.8739 21.6232 18.0002 21.3181 18 21V3C18.0003 2.3376 17.4636 1.80034 16.8012 1.8ZM11.1 2.4H12.9C13.0657 2.4 13.2 2.53431 13.2 2.7C13.2 2.86568 13.0657 3 12.9 3H11.1C10.9343 3 10.8 2.86568 10.8 2.7C10.8 2.53431 10.9343 2.4 11.1 2.4ZM12 21.6C11.6686 21.6 11.4 21.3314 11.4 21C11.4 20.6686 11.6686 20.4 12 20.4C12.3314 20.4 12.6 20.6686 12.6 21C12.6 21.3314 12.3314 21.6 12 21.6ZM16.8 19.8H7.2V3.6H16.8V19.8ZM8.4 14.12C8.4 14.2324 8.44452 14.3402 8.52395 14.4197C8.60338 14.4992 8.71114 14.5439 8.82353 14.544H13.6941C13.8065 14.5439 13.9143 14.4992 13.9937 14.4197C14.0731 14.3402 14.1177 14.2324 14.1176 14.12V12.7896L14.439 13.0869L15.3024 13.8604C15.4119 13.9618 15.6 13.8905 15.6 13.7476V10.2523C15.6 10.1095 15.4118 10.0382 15.3024 10.1395L14.439 10.9384L14.1177 11.2356V9.88001C14.1178 9.7676 14.0732 9.65978 13.9937 9.58026C13.9143 9.50074 13.8065 9.456 13.6941 9.456H8.82353C8.71114 9.45606 8.60338 9.50077 8.52395 9.58029C8.44452 9.6598 8.4 9.76762 8.4 9.88001V14.12Z" fill="currentColor"/>
</svg>
