<svg width="24" height="24" viewBox="0 0 24 24" fill="currentColor" xmlns="http://www.w3.org/2000/svg">
<path fill-rule="evenodd" clip-rule="evenodd" d="M20.4 22.2H3.60001V21.6H4.20001V6H5.40001V4.2H8.40001V1.776H15.6V4.2H18.6V6H19.8V21.6H20.4V22.2ZM9.00001 16.8V21H11.736V16.8H9.00001ZM11.4 15V12H9.00001V15H11.4ZM7.80001 7.2H5.40001V10.2H7.80001V7.2ZM7.80001 12H5.40001V15H7.80001V12ZM7.80001 16.8H5.40001V19.8H7.80001V16.8ZM9.00001 10.2H11.4V7.2H9.00001V10.2ZM13.8 3.6H12.6V2.4H11.4V3.6H10.2V4.8H11.4V6H12.6V4.8H13.8V3.6ZM15 7.2H12.6V10.2H15V7.2ZM15 12H12.6V15H15V12ZM15.024 16.8H12.24V21H15.024V16.8ZM18.6 7.2H16.2V10.2H18.6V7.2ZM18.6 12H16.2V15H18.6V12ZM18.6 16.8H16.2V19.8H18.6V16.8Z" fill="currentColor"/>
</svg>
