<svg width="24" height="24" viewBox="0 0 24 24" fill="currentColor" xmlns="http://www.w3.org/2000/svg">
<path fill-rule="evenodd" clip-rule="evenodd" d="M17.2 7.4H16V2.9C16 2.40294 15.5971 2 15.1 2C14.6029 2 14.2 2.40294 14.2 2.9V7.4H10.6V2.9C10.6 2.40294 10.1971 2 9.7 2C9.20294 2 8.8 2.40294 8.8 2.9V7.4H7.6C7.26863 7.4 7 7.66863 7 8V12.8C7 15.3699 8.7952 17.5203 11.2 18.066V22.4H13.6V18.066C16.0048 17.5203 17.8 15.3699 17.8 12.8V8C17.8 7.66863 17.5314 7.4 17.2 7.4ZM11.2 16.4L12.0571 13.4H10L13.6 9.2L12.7429 12.2H14.8L11.2 16.4Z" fill="currentColor"/>
</svg>
