<svg width="24" height="24" viewBox="0 0 24 24" fill="currentColor" xmlns="http://www.w3.org/2000/svg">
<path fill-rule="evenodd" clip-rule="evenodd" d="M22.4 15.8C22.4 17.7882 20.7882 19.4 18.8 19.4H6.8C4.14903 19.4 2 17.251 2 14.6C2 12.1478 3.8389 10.1253 6.21289 9.83579C6.28855 9.07129 6.68608 8.37515 7.30604 7.92147C7.92601 7.46779 8.70979 7.29947 9.46136 7.45861C10.713 5.90249 12.603 4.99821 14.6 5C18.2451 5 21.2 7.95493 21.2 11.6C21.2001 12.0679 21.1507 12.5345 21.0525 12.992C21.9051 13.6746 22.4009 14.7079 22.4 15.8ZM16.5333 11.6H15.6C15.6002 11.5928 15.6 11.5806 15.6 11.5735C15.598 11.0228 15.1507 10.5776 14.6 10.5784V9.64957C15.6678 9.64957 16.5333 10.5109 16.5333 11.5734C16.5333 11.5806 16.5334 11.5928 16.5333 11.6ZM18.2667 11.6H17.3333C17.3333 11.5928 17.3333 11.5806 17.3333 11.5735C17.3316 10.8503 17.0426 10.1575 16.53 9.64742C16.0174 9.13734 15.3231 8.85178 14.6 8.85356V7.92477C16.625 7.92477 18.2667 9.55833 18.2667 11.5734C18.2667 11.5806 18.2667 11.5928 18.2667 11.6ZM20 11.6H19.0667C19.0667 11.5928 19.0667 11.5806 19.0667 11.5735C19.0681 10.3931 18.5969 9.26131 17.7584 8.43059C16.92 7.59476 15.7838 7.12645 14.6 7.12881V6.20001C17.5823 6.20001 20 8.60579 20 11.5735C20 11.5806 20 11.5928 20 11.6Z" fill="currentColor"/>
</svg>
