<svg width="24" height="24" viewBox="0 0 24 24" fill="currentColor" xmlns="http://www.w3.org/2000/svg">
<path fill-rule="evenodd" clip-rule="evenodd" d="M16.7927 1.79572H7.21428C6.57502 1.79572 6.01428 2.33298 6.01428 2.99572V20.9957C6.01428 21.6585 6.57502 22.1957 7.21428 22.1957H16.8143C17.4991 22.1957 18.0143 21.6585 18.0143 20.9957V2.99572C18.0143 2.333 17.4775 1.79572 16.7927 1.79572ZM11.1155 2.39572H12.9155C13.0812 2.39572 13.2155 2.53003 13.2155 2.69572C13.2155 2.8614 13.0812 2.99572 12.9155 2.99572H11.1155C10.9498 2.99572 10.8155 2.8614 10.8155 2.69572C10.8155 2.53003 10.9498 2.39572 11.1155 2.39572ZM12.0155 21.5957C11.6841 21.5957 11.4155 21.3271 11.4155 20.9957C11.4155 20.6643 11.6841 20.3957 12.0155 20.3957C12.3469 20.3957 12.6155 20.6643 12.6155 20.9957C12.6155 21.3271 12.3469 21.5957 12.0155 21.5957ZM16.8143 19.7957H7.21428V3.59572H16.8143V19.7957ZM12.671 10.1187C12.9708 10.2131 13.2434 10.3784 13.4657 10.6006L12.6705 11.3957H14.6237C14.8394 11.3957 15.0143 11.2208 15.0143 11.0051V9.05202L14.2943 9.77202C13.4758 8.95349 12.272 8.65436 11.1656 8.9946C10.0591 9.33484 9.2314 10.2587 9.01428 11.3957H10.2204C10.5445 10.3664 11.6417 9.79466 12.671 10.1187ZM11.9323 15.1199C13.4264 15.1198 14.7097 14.0585 14.9903 12.5911H13.789C13.5847 13.2399 13.0565 13.735 12.3958 13.8969C11.7351 14.0588 11.0378 13.864 10.5567 13.3831L11.3487 12.5911H9.40335C9.18847 12.5911 9.01428 12.7652 9.01428 12.9801V14.9254L9.73155 14.2082C10.3146 14.7928 11.1066 15.1209 11.9323 15.1199Z" fill="currentColor"/>
</svg>
