<svg width="24" height="24" viewBox="0 0 24 24" fill="currentColor" xmlns="http://www.w3.org/2000/svg">
<path fill-rule="evenodd" clip-rule="evenodd" d="M16.32 6.12C16.32 8.50587 14.3859 10.44 12 10.44C9.61412 10.44 7.67999 8.50587 7.67999 6.12C7.67999 3.73413 9.61412 1.8 12 1.8C14.3859 1.8 16.32 3.73413 16.32 6.12ZM12 15C13.6568 15 15 13.6569 15 12V10.8C13.8238 11.8183 12 13.2 12 13.2C12 13.2 10.1761 11.8183 8.99999 10.8V12C8.99999 13.6569 10.3431 15 12 15ZM15.6 10.2V12C15.5999 13.8765 14.1585 15.4383 12.288 15.5885V17.435C12.8769 17.5806 13.2645 18.1428 13.1912 18.745C13.1179 19.3472 12.6066 19.8 12 19.8C11.3934 19.8 10.8821 19.3472 10.8088 18.745C10.7355 18.1428 11.1231 17.5806 11.712 17.435V15.5885C9.84149 15.4383 8.40007 13.8765 8.39999 12V10.2C6.75559 11.0983 5.44504 12.7646 5.40153 14.76H5.39999V19.8C5.39999 21.1255 6.47451 22.2 7.79999 22.2H18.6V14.88C18.6 12.8341 17.2774 11.1162 15.6 10.2Z" fill="currentColor"/>
</svg>
