<svg width="24" height="24" viewBox="0 0 24 24" fill="currentColor" xmlns="http://www.w3.org/2000/svg">
<path fill-rule="evenodd" clip-rule="evenodd" d="M12 20.925V21.025H12.1C12.066 20.9919 12.033 20.9585 12 20.925ZM12.0423 21H6.00001C5.66864 21 5.40001 20.7314 5.40001 20.4V18H8.40001V21H9.00001V18H11.4373C11.4624 17.7978 11.5005 17.5974 11.5512 17.4H5.40001V14.4H9.00001V10.8H12V16.2751C12.1687 15.9711 12.3699 15.6862 12.6 15.4255V14.4H13.8751C14.5864 14.0054 15.3866 13.7989 16.2 13.8C16.4006 13.8 16.601 13.8125 16.8 13.8373V6.00005L12.6 1.80005H5.40001C4.73727 1.80005 4.20001 2.33731 4.20001 3.00005V21C4.20001 21.6628 4.73727 22.2001 5.40001 22.2001H13.0255C12.6352 21.8557 12.3031 21.4505 12.0423 21ZM12.6 10.8H15C15.3314 10.8 15.6 11.0687 15.6 11.4V13.8H12.6V10.8ZM5.40001 11.4C5.40001 11.0687 5.66864 10.8 6.00001 10.8H8.40001V13.8H5.40001V11.4ZM16.2 14.4C13.8804 14.4 12 16.2805 12 18.6C12 20.9196 13.8804 22.8 16.2 22.8C18.5196 22.8 20.4 20.9196 20.4 18.6C20.4 16.2805 18.5196 14.4 16.2 14.4ZM18.7456 20.2971L17.8971 21.1456L16.2 19.4486L14.503 21.1456L13.6544 20.2971L15.3515 18.6L13.6544 16.903L14.503 16.0545L16.2 17.7515L17.8971 16.0545L18.7456 16.903L17.0486 18.6L18.7456 20.2971Z" fill="currentColor"/>
</svg>
