<svg width="24" height="24" viewBox="0 0 24 24" fill="currentColor" xmlns="http://www.w3.org/2000/svg">
<path fill-rule="evenodd" clip-rule="evenodd" d="M21 4.20001H3.00005C2.33731 4.20001 1.80005 4.73727 1.80005 5.40001V18.6C1.80005 19.2628 2.33731 19.8 3.00005 19.8H21C21.6628 19.8 22.2001 19.2628 22.2001 18.6V5.40001C22.2001 4.73727 21.6628 4.20001 21 4.20001ZM3.60005 5.40001C3.93142 5.40001 4.20005 5.66864 4.20005 6.00001C4.20005 6.33138 3.93142 6.60001 3.60005 6.60001C3.26868 6.60001 3.00005 6.33138 3.00005 6.00001C3.00005 5.66864 3.26868 5.40001 3.60005 5.40001ZM21 18.6H3.00005V7.80001H21V18.6ZM12 9.00001C9.68045 9.00001 7.80005 10.8804 7.80005 13.2C7.80005 15.5196 9.68045 17.4 12 17.4C14.3196 17.4 16.2 15.5196 16.2 13.2C16.2 12.0861 15.7576 11.0178 14.9699 10.2302C14.1822 9.44251 13.114 9.00001 12 9.00001ZM15.2784 14.9294H14.0269C14.1413 14.4431 14.206 13.9465 14.2198 13.4471H15.6978C15.6713 13.8585 15.5757 14.2626 15.4149 14.6423C15.3735 14.7403 15.328 14.8361 15.2784 14.9294ZM8.58519 14.6424C8.42442 14.2627 8.32877 13.8587 8.30225 13.4472H9.78034C9.79414 13.9466 9.85876 14.4433 9.97318 14.9296H8.72165C8.6723 14.836 8.62682 14.7403 8.58519 14.6424ZM8.72165 11.4706H9.97322C9.85881 11.9569 9.79419 12.4536 9.78039 12.953H8.30225C8.32877 12.5415 8.42442 12.1374 8.58519 11.7578C8.62656 11.6597 8.67205 11.564 8.72165 11.4706ZM13.5667 11.6732C13.6595 12.0939 13.7126 12.5223 13.7254 12.953H12.2471V11.4706H13.5175C13.5348 11.537 13.5513 11.6045 13.5667 11.6732ZM12.2472 10.9765V9.538C12.3597 9.57962 12.4645 9.63983 12.5572 9.7161C12.7657 9.88273 12.9658 10.1404 13.1356 10.4613C13.223 10.6278 13.2992 10.7999 13.3636 10.9765H12.2472ZM11.4432 9.7161C11.5358 9.63982 11.6406 9.57962 11.7532 9.538V10.9765H10.6367C10.7011 10.7999 10.7773 10.6278 10.8647 10.4613C11.0344 10.1404 11.2346 9.88273 11.4432 9.7161ZM11.7532 11.4705V12.9529H10.2748C10.2875 12.5222 10.3407 12.0938 10.4334 11.6731C10.4488 11.6044 10.4652 11.5368 10.4826 11.4705H11.7532ZM10.4334 14.7269C10.3407 14.3062 10.2875 13.8777 10.2748 13.4471H11.753V14.9294H10.4826C10.4653 14.863 10.4489 14.7955 10.4334 14.7269ZM11.753 15.4235V16.862C11.6404 16.8204 11.5356 16.7602 11.443 16.6839C11.2344 16.5173 11.0344 16.2596 10.8646 15.9387C10.7772 15.7723 10.701 15.6002 10.6366 15.4235H11.753ZM12.5571 16.6839C12.4645 16.7602 12.3597 16.8204 12.2471 16.862V15.4235H13.3636C13.2992 15.6002 13.223 15.7723 13.1356 15.9387C12.9657 16.2596 12.7656 16.5173 12.5571 16.6839ZM12.2471 14.9295V13.4471H13.7253C13.7126 13.8777 13.6594 14.3062 13.5667 14.7269C13.5513 14.7956 13.5349 14.8631 13.5175 14.9294L12.2471 14.9295ZM14.2198 12.953C14.206 12.4536 14.1413 11.957 14.0269 11.4707H15.2784C15.3278 11.5641 15.3732 11.6598 15.4149 11.7577C15.5756 12.1374 15.6713 12.5415 15.6978 12.9529L14.2198 12.953ZM14.6206 10.5796C14.7447 10.7037 14.8599 10.8363 14.9653 10.9766H13.8868C13.719 10.4697 13.4956 10.0353 13.2326 9.70391C13.3031 9.72884 13.3731 9.75594 13.4424 9.78522C13.8828 9.97127 14.283 10.2411 14.6206 10.5796ZM10.5576 9.78515C10.627 9.75584 10.6969 9.72873 10.7675 9.70384C10.5045 10.0353 10.2811 10.4696 10.1133 10.9765H9.0348C9.14027 10.8362 9.25549 10.7036 9.37958 10.5795C9.71718 10.241 10.1173 9.97123 10.5576 9.78515ZM9.37958 15.8205C9.25549 15.6964 9.14027 15.5638 9.0348 15.4235H10.1133C10.2811 15.9304 10.5045 16.3648 10.7675 16.6962C10.697 16.6713 10.627 16.6442 10.5577 16.6149C10.1173 16.4288 9.71719 16.159 9.37958 15.8205ZM13.4424 16.6149C13.3731 16.6442 13.3031 16.6713 13.2326 16.6962C13.4955 16.3648 13.719 15.9304 13.8868 15.4235H14.9653C14.8598 15.5638 14.7446 15.6964 14.6205 15.8205C14.2829 16.159 13.8828 16.4288 13.4424 16.6149Z" fill="currentColor"/>
</svg>
