<svg width="24" height="24" viewBox="0 0 24 24" fill="currentColor" xmlns="http://www.w3.org/2000/svg">
<path fill-rule="evenodd" clip-rule="evenodd" d="M12.3001 5.9999C11.803 5.9999 11.4001 6.40285 11.4001 6.8999C11.4001 7.39696 11.803 7.7999 12.3001 7.7999C12.7971 7.7999 13.2001 7.39696 13.2001 6.8999C13.2001 6.40285 12.7971 5.9999 12.3001 5.9999ZM11.7001 8.9999C10.8716 8.9999 10.2001 9.67148 10.2001 10.4999C10.2001 11.3283 10.8716 11.9999 11.7001 11.9999C12.5285 11.9999 13.2001 11.3283 13.2001 10.4999C13.2001 10.1021 13.042 9.72055 12.7607 9.43924C12.4794 9.15794 12.0979 8.9999 11.7001 8.9999ZM21.3411 18.7892L15.6001 8.9999V3.5999H16.2001C16.5314 3.5999 16.8001 3.33127 16.8001 2.9999C16.8001 2.66853 16.5314 2.3999 16.2001 2.3999H7.80007C7.4687 2.3999 7.20007 2.66853 7.20007 2.9999C7.20007 3.33127 7.4687 3.5999 7.80007 3.5999H8.40007V8.9999L2.65907 18.7892C1.84807 19.9844 2.70417 21.5999 4.14851 21.5999H19.8517C21.296 21.5999 22.1521 19.9844 21.3411 18.7892ZM15.3978 13.7999C15.05 13.067 14.3113 12.5999 13.5001 12.5999C12.6888 12.5999 11.9501 13.067 11.6023 13.7999H6.97622L9.43519 9.60696L9.60007 9.32582V3.5999H14.4001V9.32582L14.5649 9.60696L17.0239 13.7999H15.3978Z" fill="currentColor"/>
</svg>
