<svg width="24" height="24" viewBox="0 0 24 24" fill="currentColor" xmlns="http://www.w3.org/2000/svg">
<path fill-rule="evenodd" clip-rule="evenodd" d="M9.59292 15.5929H17.9929C18.3243 15.5929 18.5929 15.3242 18.5929 14.9929V5.39286C18.5929 4.06738 17.5184 2.99286 16.1929 2.99286H3.59292C3.26155 2.99286 2.99292 3.26149 2.99292 3.59286V13.1929C2.99292 14.5183 4.06744 15.5929 5.39292 15.5929H6.59292V18.5929L9.59292 15.5929ZM7.19292 5.35537C7.19383 5.04508 7.44514 4.79377 7.75543 4.79286H13.8304C14.1407 4.79377 14.392 5.04508 14.3929 5.35537V6.03035C14.392 6.34064 14.1407 6.59195 13.8304 6.59286H7.75543C7.44514 6.59195 7.19383 6.34064 7.19292 6.03035V5.35537ZM13.8304 7.19286V7.79286H7.79292V7.19286H13.8304ZM7.19292 8.95537C7.19383 8.64508 7.44514 8.39377 7.75543 8.39286H13.8304C14.1407 8.39377 14.392 8.64508 14.3929 8.95537V9.63035C14.392 9.94064 14.1407 10.1919 13.8304 10.1929H7.75543C7.44514 10.1919 7.19383 9.94064 7.19292 9.63035V8.95537ZM13.7929 10.7929V11.3929H7.75543V10.7929H13.7929ZM7.19292 12.5554C7.19383 12.2451 7.44514 11.9938 7.75543 11.9929H13.8304C14.1407 11.9938 14.392 12.2451 14.3929 12.5554V13.2303C14.392 13.5406 14.1407 13.7919 13.8304 13.7929H7.75543C7.44514 13.7919 7.19383 13.5406 7.19292 13.2303V12.5554ZM19.1929 5.39286V14.9908C19.1929 15.6547 18.6547 16.1929 17.9909 16.1929H9.80892L8.00892 17.9929H13.7929L16.7929 20.9929V17.9929H19.1919C20.1866 17.9929 20.9929 17.1865 20.9929 16.1918V7.19286C20.9929 6.19875 20.187 5.39286 19.1929 5.39286ZM8.09292 5.99286C8.25861 5.99286 8.39292 5.85854 8.39292 5.69286C8.39292 5.52717 8.25861 5.39286 8.09292 5.39286C7.92723 5.39286 7.79292 5.52717 7.79292 5.69286C7.79292 5.85854 7.92723 5.99286 8.09292 5.99286ZM8.09292 9.59286C8.25861 9.59286 8.39292 9.45854 8.39292 9.29286C8.39292 9.12717 8.25861 8.99286 8.09292 8.99286C7.92723 8.99286 7.79292 9.12717 7.79292 9.29286C7.79292 9.45854 7.92723 9.59286 8.09292 9.59286ZM8.09292 13.1929C8.25861 13.1929 8.39292 13.0585 8.39292 12.8929C8.39292 12.7272 8.25861 12.5929 8.09292 12.5929C7.92723 12.5929 7.79292 12.7272 7.79292 12.8929C7.79292 13.0585 7.92723 13.1929 8.09292 13.1929Z" fill="currentColor"/>
</svg>
