<svg width="24" height="24" viewBox="0 0 24 24" fill="currentColor" xmlns="http://www.w3.org/2000/svg">
<path fill-rule="evenodd" clip-rule="evenodd" d="M10.104 19.1519V19.6319C10.104 20.406 9.46291 20.9999 8.68805 20.9999H7.92005C8.47642 21.7108 9.80071 22.1999 10.774 22.1999C12.4529 22.1999 13.8 20.8291 13.8 19.1519V13.3199H15.696L12.4503 10.0345C12.1763 9.76085 11.7323 9.76085 11.4583 10.0345L8.23205 13.3199H10.104V19.1519ZM16.4076 1.79993H7.4964C6.88438 1.79767 6.38639 2.29193 6.38404 2.90394V19.2892C6.383 19.583 6.49876 19.8651 6.70584 20.0734C6.91291 20.2817 7.19431 20.3992 7.48805 20.3999H8.68805C9.13986 20.2778 9.45345 19.8676 9.45278 19.3996V18.3598L7.48805 18.3599V3.59994H16.416V18.3599H14.4V19.0559C14.4 19.5817 14.3112 19.9237 14.1094 20.3932H16.4076C17.022 20.3932 17.52 19.8269 17.52 19.2172V2.90394C17.5177 2.29189 17.0197 1.79762 16.4076 1.79993ZM12.9 2.99994H11.1003C10.9346 2.99994 10.8003 2.86563 10.8003 2.69994C10.8003 2.53426 10.9346 2.39994 11.1003 2.39994H12.9C13.0657 2.39994 13.2 2.53426 13.2 2.69994C13.2 2.86563 13.0657 2.99994 12.9 2.99994Z" fill="currentColor"/>
</svg>
