<svg width="24" height="24" viewBox="0 0 24 24" fill="currentColor" xmlns="http://www.w3.org/2000/svg">
<path fill-rule="evenodd" clip-rule="evenodd" d="M17.4 10.2H9V6.00001C9 4.34316 10.3431 3.00001 12 3.00001C13.6569 3.00001 15 4.34316 15 6.00001V9.00001H16.8V6.00001C16.8 3.36001 14.64 1.20001 12 1.20001C9.36 1.20001 7.2 3.36001 7.2 6.00001V10.2H4.8V21C4.8 21.9941 5.60589 22.8 6.6 22.8H19.2V12C19.2 11.0059 18.3941 10.2 17.4 10.2ZM8.50488 16.6006C8.73528 16.9267 8.96216 17.2552 9.18552 17.586C9.47112 18.0101 9.24048 18.5278 8.73336 18.5935C8.48424 18.6259 8.286 18.5196 8.14248 18.318C8.0064 18.1277 7.8756 17.9333 7.74216 17.7408C7.71672 17.7041 7.69008 17.6679 7.656 17.6201C7.4856 17.8649 7.32672 18.1011 7.15944 18.3315C6.95016 18.6197 6.57288 18.6819 6.27624 18.4894C6.05544 18.3459 5.87736 17.9451 6.11832 17.5954C6.3228 17.2987 6.5268 17.0019 6.73032 16.7047C6.77904 16.6335 6.86088 16.5593 6.8604 16.4868C6.85992 16.4139 6.77712 16.3404 6.7284 16.2687C6.52344 15.9687 6.31816 15.6691 6.11256 15.3699C5.83272 14.9633 6.12168 14.4879 6.4572 14.4012C6.73224 14.3302 7.00104 14.4183 7.16664 14.6525C7.3104 14.8558 7.45032 15.0622 7.59216 15.2669C7.61064 15.2935 7.63056 15.3195 7.65648 15.3547C7.68336 15.3173 7.70616 15.2873 7.72752 15.2563C7.86432 15.0588 7.99704 14.8587 8.13816 14.6645C8.2932 14.4514 8.5044 14.3407 8.77176 14.3859C9.03912 14.431 9.21576 14.5937 9.2892 14.8541C9.34464 15.0509 9.29616 15.2328 9.18096 15.3994C8.9556 15.7253 8.73336 16.0534 8.50392 16.3764C8.44536 16.4587 8.44752 16.5197 8.50488 16.6006ZM12.8249 16.6006C13.0553 16.9267 13.2822 17.2552 13.5055 17.586C13.7911 18.0101 13.5605 18.5278 13.0534 18.5935C12.8042 18.6259 12.606 18.5196 12.4625 18.318C12.3264 18.1277 12.1956 17.9333 12.0622 17.7408C12.0367 17.7041 12.0101 17.6679 11.976 17.6201C11.8056 17.8649 11.6467 18.1011 11.4794 18.3315C11.2702 18.6197 10.8929 18.6819 10.5962 18.4894C10.3754 18.3459 10.1974 17.9451 10.4383 17.5954C10.6428 17.2987 10.8468 17.0019 11.0503 16.7047C11.099 16.6335 11.1809 16.5593 11.1804 16.4868C11.1799 16.4139 11.0971 16.3404 11.0484 16.2687C10.8434 15.9687 10.6382 15.6691 10.4326 15.3699C10.1527 14.9633 10.4417 14.4879 10.7772 14.4012C11.0522 14.3302 11.321 14.4183 11.4866 14.6525C11.6304 14.8558 11.7703 15.0622 11.9122 15.2669C11.9306 15.2935 11.9506 15.3195 11.9765 15.3547C12.0034 15.3173 12.0262 15.2873 12.0475 15.2563C12.1843 15.0588 12.317 14.8587 12.4582 14.6645C12.6132 14.4514 12.8244 14.3407 13.0918 14.3859C13.3591 14.431 13.5358 14.5937 13.6092 14.8541C13.6646 15.0509 13.6162 15.2328 13.501 15.3994C13.2756 15.7253 13.0534 16.0534 12.8239 16.3764C12.7654 16.4587 12.7675 16.5197 12.8249 16.6006ZM17.1929 16.6006C17.4233 16.9267 17.6502 17.2552 17.8735 17.586C18.1591 18.0101 17.9285 18.5278 17.4214 18.5935C17.1722 18.6259 16.974 18.5196 16.8305 18.318C16.6944 18.1277 16.5636 17.9333 16.4302 17.7408C16.4047 17.7041 16.3781 17.6679 16.344 17.6201C16.1736 17.8649 16.0147 18.1011 15.8474 18.3315C15.6382 18.6197 15.2609 18.6819 14.9642 18.4894C14.7434 18.3459 14.5654 17.9451 14.8063 17.5954C15.0108 17.2987 15.2148 17.0019 15.4183 16.7047C15.467 16.6335 15.5489 16.5593 15.5484 16.4868C15.5479 16.4139 15.4651 16.3404 15.4164 16.2687C15.2114 15.9687 15.0062 15.6691 14.8006 15.3699C14.5207 14.9633 14.8097 14.4879 15.1452 14.4012C15.4202 14.3302 15.689 14.4183 15.8546 14.6525C15.9984 14.8558 16.1383 15.0622 16.2802 15.2669C16.2986 15.2935 16.3186 15.3195 16.3445 15.3547C16.3714 15.3173 16.3942 15.2873 16.4155 15.2563C16.5523 15.0588 16.685 14.8587 16.8262 14.6645C16.9812 14.4514 17.1924 14.3407 17.4598 14.3859C17.7271 14.431 17.9038 14.5937 17.9772 14.8541C18.0326 15.0509 17.9842 15.2328 17.869 15.3994C17.6436 15.7253 17.4214 16.0534 17.1919 16.3764C17.1334 16.4587 17.1355 16.5197 17.1929 16.6006Z" fill="currentColor"/>
</svg>
