<svg width="24" height="24" viewBox="0 0 24 24" fill="currentColor" xmlns="http://www.w3.org/2000/svg">
<path fill-rule="evenodd" clip-rule="evenodd" d="M21 6.6001H2.99999C2.33805 6.60204 1.80193 7.13816 1.79999 7.8001V19.8001C1.80193 20.462 2.33805 20.9982 2.99999 21.0001H21C21.6619 20.9982 22.1981 20.462 22.2 19.8001V7.8001C22.1981 7.13816 21.6619 6.60204 21 6.6001ZM11.4 16.0501V15.0001C11.4009 14.6691 11.669 14.4011 12 14.4001C12.331 14.4011 12.599 14.6691 12.6 15.0001V16.2001C12.599 16.5311 12.331 16.7991 12 16.8001C11.669 16.7991 11.4009 16.5311 11.4 16.2001V16.0501ZM20.4 19.8001H3.59999C3.26902 19.7991 3.00095 19.5311 2.99999 19.2001V13.9501L10.8 15.9001V16.2001C10.8019 16.862 11.338 17.3982 12 17.4001C12.6619 17.3982 13.198 16.862 13.2 16.2001V15.9001L21 13.9501V19.2001C20.999 19.5311 20.731 19.7991 20.4 19.8001ZM8.99999 5.4001C9.00095 5.06913 9.26902 4.80106 9.59999 4.8001H14.4C14.731 4.80106 14.999 5.06913 15 5.4001V6.0001H16.2V5.4001C16.1971 4.40719 15.3929 3.603 14.4 3.6001H9.59999C8.60708 3.603 7.80289 4.40719 7.79999 5.4001V6.0001H8.99999V5.4001Z" fill="currentColor"/>
</svg>
