<svg width="24" height="24" viewBox="0 0 24 24" fill="currentColor" xmlns="http://www.w3.org/2000/svg">
<path fill-rule="evenodd" clip-rule="evenodd" d="M19.1344 6.59995H14.4V4.82395C14.4 4.49258 14.1314 4.19995 13.8 4.19995H10.2C9.86863 4.19995 9.6 4.49258 9.6 4.82395V6.59995H4.86562C3.84852 6.59995 3 7.44847 3 8.46557V17.9583C3 18.9754 3.84852 19.8 4.86562 19.8H19.1344C20.1515 19.8 20.976 18.9754 20.976 17.9583V8.46557C20.976 7.44847 20.1515 6.59995 19.1344 6.59995ZM10.716 4.79995H13.2844C13.7707 4.79995 13.8 5.04449 13.8 5.37516V6.59995H10.2V5.37516C10.2 5.21669 10.1808 4.79995 10.716 4.79995ZM6 19.2H5.4V7.19995H6V19.2ZM15.4551 10.9716L14.1999 12.6451L15.3799 16.1852C15.4404 16.2963 15.4236 16.4334 15.3381 16.5266L15.3379 16.5277L15.3295 16.536L14.8274 17.0381L12.9565 13.8976L10.6437 15.783L11.2357 17.1645L11.2354 17.1663C11.2534 17.2191 11.2401 17.2775 11.2011 17.3173C11.2011 17.3173 11.201 17.3174 11.2011 17.3173L11.2001 17.3184L11.062 17.4565L8.13336 14.5326L8.2709 14.4C8.27105 14.4 8.27119 14.3947 8.27136 14.3946C8.31353 14.3514 8.37761 14.338 8.43358 14.3606L8.43437 14.3592L9.80681 14.9468L11.6849 12.6426L8.56013 10.7541L9.05383 10.2604C9.13005 10.1841 9.24173 10.1554 9.34529 10.1854L9.3467 10.185L12.9448 11.3899L14.6183 10.1347C15.0719 9.7914 15.6088 9.53371 15.8401 9.68947C15.8427 9.69115 15.8452 9.69286 15.8477 9.69463C15.8502 9.69641 15.8533 9.69876 15.856 9.70094C15.8621 9.70575 15.8679 9.71089 15.8735 9.71635C15.8789 9.72189 15.8841 9.72772 15.8889 9.73382C15.891 9.73651 15.8931 9.7393 15.8952 9.74205C15.8972 9.74481 15.8987 9.74719 15.9005 9.74983C16.056 9.98126 15.7973 10.5179 15.4551 10.9716ZM18.6 19.2H18V7.19995H18.6V19.2Z" fill="currentColor"/>
</svg>
