<svg width="24" height="24" viewBox="0 0 24 24" fill="currentColor" xmlns="http://www.w3.org/2000/svg">
<path fill-rule="evenodd" clip-rule="evenodd" d="M16.8 19.8H13.8V18H10.2V19.8H7.20002C6.86865 19.8 6.60002 20.0686 6.60002 20.4V21H17.4V20.4C17.4 20.0686 17.1314 19.8 16.8 19.8ZM14.0043 6.6H6.00002V12.2707C6.00002 12.7862 6.44498 13.2 6.9941 13.2H15V7.51128C15 6.996 14.5536 6.6 14.0043 6.6ZM14.1562 8.58144L11.4987 10.9824H11.4963C11.2359 11.2253 10.8828 11.3515 10.4935 11.3515C10.1047 11.3515 9.75146 11.2253 9.49058 10.9824H9.48362L6.84386 8.58312V7.6692C7.90082 8.65008 9.8249 10.4016 9.8249 10.4016C9.99722 10.5706 10.2319 10.6423 10.4907 10.6423C10.7511 10.6463 11.0019 10.5442 11.1855 10.3594H11.1867L14.1562 7.65648V8.58144ZM20.4 3H3.60002C2.93731 3 2.40002 3.53729 2.40002 4.2V16.2C2.40002 16.8627 2.93731 17.4 3.60002 17.4H20.4C21.0627 17.4 21.6 16.8627 21.6 16.2V4.2C21.6 3.53729 21.0627 3 20.4 3ZM12 16.8C11.6687 16.8 11.4 16.5314 11.4 16.2C11.4 15.8686 11.6687 15.6 12 15.6C12.3314 15.6 12.6 15.8686 12.6 16.2C12.6 16.5314 12.3314 16.8 12 16.8ZM20.4 15H3.60002V4.2H20.4V15ZM14.0043 6.6H6.00002V12.2707C6.00002 12.7862 6.44498 13.2 6.9941 13.2H15V7.51128C15 6.996 14.5536 6.6 14.0043 6.6ZM14.1562 8.58144L11.4987 10.9824H11.4963C11.2359 11.2253 10.8828 11.3515 10.4935 11.3515C10.1047 11.3515 9.75146 11.2253 9.49058 10.9824H9.48362L6.84386 8.58312V7.6692C7.90082 8.65008 9.8249 10.4016 9.8249 10.4016C9.99722 10.5706 10.2319 10.6423 10.4907 10.6423C10.7511 10.6463 11.0019 10.5442 11.1855 10.3594H11.1867L14.1562 7.65648V8.58144ZM14.0043 6.6H6.00002V12.2707C6.00002 12.7862 6.44498 13.2 6.9941 13.2H15V7.51128C15 6.996 14.5536 6.6 14.0043 6.6ZM14.1562 8.58144L11.4987 10.9824H11.4963C11.2359 11.2253 10.8828 11.3515 10.4935 11.3515C10.1047 11.3515 9.75146 11.2253 9.49058 10.9824H9.48362L6.84386 8.58312V7.6692C7.90082 8.65008 9.8249 10.4016 9.8249 10.4016C9.99722 10.5706 10.2319 10.6423 10.4907 10.6423C10.7511 10.6463 11.0019 10.5442 11.1855 10.3594H11.1867L14.1562 7.65648V8.58144ZM18 7.16256V7.83744C18.0001 7.98665 17.9408 8.12976 17.8353 8.23527C17.7298 8.34078 17.5867 8.40004 17.4375 8.4H16.7626C16.6134 8.40004 16.4703 8.34078 16.3648 8.23527C16.2592 8.12976 16.2 7.98665 16.2 7.83744V7.16256C16.2 7.01335 16.2592 6.87024 16.3648 6.76473C16.4703 6.65922 16.6134 6.59996 16.7626 6.6H17.4375C17.5867 6.59996 17.7298 6.65922 17.8353 6.76473C17.9408 6.87024 18.0001 7.01335 18 7.16256ZM18 9.56256V10.2374C18.0001 10.3867 17.9408 10.5298 17.8353 10.6353C17.7298 10.7408 17.5867 10.8 17.4375 10.8H16.7626C16.6134 10.8 16.4703 10.7408 16.3648 10.6353C16.2592 10.5298 16.2 10.3867 16.2 10.2374V9.56256C16.2 9.41335 16.2592 9.27024 16.3648 9.16473C16.4703 9.05922 16.6134 8.99996 16.7626 9H17.4375C17.5867 8.99996 17.7298 9.05922 17.8353 9.16473C17.9408 9.27024 18.0001 9.41335 18 9.56256ZM18 11.9626V12.6374C18.0001 12.7867 17.9408 12.9298 17.8353 13.0353C17.7298 13.1408 17.5867 13.2 17.4375 13.2H16.7626C16.6134 13.2 16.4703 13.1408 16.3648 13.0353C16.2592 12.9298 16.2 12.7867 16.2 12.6374V11.9626C16.2 11.8133 16.2592 11.6702 16.3648 11.5647C16.4703 11.4592 16.6134 11.4 16.7626 11.4H17.4375C17.5867 11.4 17.7298 11.4592 17.8353 11.5647C17.9408 11.6702 18.0001 11.8133 18 11.9626Z" fill="currentColor"/>
</svg>
