<svg width="24" height="24" viewBox="0 0 24 24" fill="currentColor" xmlns="http://www.w3.org/2000/svg">
<path fill-rule="evenodd" clip-rule="evenodd" d="M16.8 6.2H7.2C6.53806 6.20194 6.00194 6.73806 6 7.4V11.9192C6 12.1023 6.0542 12.2813 6.15576 12.4336L7.07105 13.8066C7.15514 13.9327 7.20001 14.0809 7.2 14.2325V21.2C7.20194 21.8619 7.73806 22.3981 8.4 22.4H15.6C16.2619 22.3981 16.7981 21.8619 16.8 21.2V14.2325C16.8 14.0809 16.8449 13.9327 16.929 13.8066L17.8442 12.4336C17.9458 12.2813 18 12.1023 18 11.9192V7.4C17.9981 6.73806 17.4619 6.20194 16.8 6.2ZM9.6 21.2H9.012C8.72107 21.2 8.44128 20.9655 8.4048 20.6768C8.38323 20.5058 8.43607 20.3337 8.5499 20.2043C8.66373 20.0748 8.82763 20.0005 9 20H9.588C9.87893 20 10.1587 20.2345 10.1952 20.5232C10.2168 20.6942 10.1639 20.8663 10.0501 20.9957C9.93627 21.1252 9.77237 21.1995 9.6 21.2ZM9.6 19.4H9.012C8.72107 19.4 8.44128 19.1655 8.4048 18.8768C8.38323 18.7058 8.43607 18.5337 8.5499 18.4043C8.66373 18.2748 8.82763 18.2005 9 18.2H9.588C9.87893 18.2 10.1587 18.4345 10.1952 18.7232C10.2168 18.8942 10.1639 19.0663 10.0501 19.1957C9.93627 19.3252 9.77237 19.3995 9.6 19.4ZM9.6 17.6H9.012C8.72107 17.6 8.44128 17.3655 8.4048 17.0768C8.38323 16.9058 8.43607 16.7337 8.5499 16.6043C8.66373 16.4748 8.82763 16.4005 9 16.4H9.588C9.87893 16.4 10.1587 16.6345 10.1952 16.9232C10.2168 17.0942 10.1639 17.2663 10.0501 17.3957C9.93627 17.5252 9.77237 17.5995 9.6 17.6ZM9.6 15.8H9.012C8.72107 15.8 8.44128 15.5655 8.4048 15.2768C8.38323 15.1058 8.43607 14.9337 8.5499 14.8043C8.66373 14.6748 8.82763 14.6005 9 14.6H9.588C9.87893 14.6 10.1587 14.8345 10.1952 15.1232C10.2168 15.2942 10.1639 15.4663 10.0501 15.5957C9.93627 15.7252 9.77237 15.7995 9.6 15.8ZM12.888 20.5952C12.887 20.9262 12.619 21.1942 12.288 21.1952H11.688C11.357 21.1942 11.089 20.9262 11.088 20.5952C11.089 20.2642 11.357 19.9962 11.688 19.9952H12.288C12.619 19.9962 12.887 20.2642 12.888 20.5952ZM12.288 19.3968H11.7C11.4091 19.3968 11.1293 19.1623 11.0928 18.8736C11.0712 18.7026 11.1241 18.5306 11.2379 18.4011C11.3517 18.2717 11.5156 18.1973 11.688 18.1968H12.276C12.567 18.1968 12.8467 18.4313 12.8832 18.72C12.9047 18.891 12.8519 19.0631 12.7381 19.1925C12.6242 19.3219 12.4604 19.3964 12.288 19.3968ZM12.888 16.9985C12.887 17.3294 12.619 17.5975 12.288 17.5985H11.688C11.357 17.5975 11.089 17.3294 11.088 16.9985C11.089 16.6675 11.357 16.3994 11.688 16.3985H12.288C12.619 16.3994 12.887 16.6675 12.888 16.9985ZM12.288 15.8H11.7C11.4091 15.8 11.1293 15.5655 11.0928 15.2768C11.0712 15.1058 11.1241 14.9337 11.2379 14.8043C11.3517 14.6748 11.5156 14.6005 11.688 14.6H12.276C12.567 14.6 12.8467 14.8345 12.8832 15.1232C12.9048 15.2942 12.8519 15.4663 12.7381 15.5957C12.6243 15.7252 12.4604 15.7995 12.288 15.8ZM15 21.2H14.412C14.121 21.2 13.8413 20.9655 13.8048 20.6768C13.7832 20.5058 13.8361 20.3337 13.9499 20.2043C14.0637 20.0748 14.2276 20.0005 14.4 20H14.988C15.279 20 15.5587 20.2345 15.5952 20.5232C15.6168 20.6942 15.5639 20.8663 15.4501 20.9957C15.3363 21.1252 15.1724 21.1995 15 21.2ZM15 19.4H14.412C14.121 19.4 13.8413 19.1655 13.8048 18.8768C13.7832 18.7058 13.8361 18.5337 13.9499 18.4043C14.0637 18.2748 14.2276 18.2005 14.4 18.2H14.988C15.279 18.2 15.5587 18.4345 15.5952 18.7232C15.6168 18.8942 15.5639 19.0663 15.4501 19.1957C15.3363 19.3252 15.1724 19.3995 15 19.4ZM15 17.6H14.412C14.121 17.6 13.8413 17.3655 13.8048 17.0768C13.7832 16.9058 13.8361 16.7337 13.9499 16.6043C14.0637 16.4748 14.2276 16.4005 14.4 16.4H14.988C15.279 16.4 15.5587 16.6345 15.5952 16.9232C15.6168 17.0942 15.5639 17.2663 15.4501 17.3957C15.3363 17.5252 15.1724 17.5995 15 17.6ZM15 15.8H14.412C14.121 15.8 13.8413 15.5655 13.8048 15.2768C13.7832 15.1058 13.8361 14.9337 13.9499 14.8043C14.0637 14.6748 14.2276 14.6005 14.4 14.6H14.988C15.279 14.6 15.5587 14.8345 15.5952 15.1232C15.6168 15.2942 15.5639 15.4663 15.4501 15.5957C15.3363 15.7252 15.1724 15.7995 15 15.8ZM16.2 11.6C16.2 11.9314 15.9314 12.2 15.6 12.2H8.4C8.06863 12.2 7.8 11.9314 7.8 11.6V8.6C7.8 8.26863 8.06863 8 8.4 8H15.6C15.9314 8 16.2 8.26863 16.2 8.6V11.6ZM14.4 2H9.6C8.93806 2.00194 8.40194 2.53806 8.4 3.2V5.6H9V3.2C9.00096 2.86903 9.26903 2.60096 9.6 2.6H10.2V5.6H11.4V2.6H14.4C14.731 2.60096 14.999 2.86903 15 3.2V5.6H15.6V3.2C15.5981 2.53806 15.0619 2.00194 14.4 2ZM13.8 4.7C13.8 4.53431 13.6657 4.4 13.5 4.4C13.3343 4.4 13.2 4.53431 13.2 4.7V5.6H13.8V4.7Z" fill="currentColor"/>
</svg>
