<svg width="24" height="24" viewBox="0 0 24 24" fill="currentColor" xmlns="http://www.w3.org/2000/svg">
<path fill-rule="evenodd" clip-rule="evenodd" d="M12 1.8C17.6333 1.8 22.2 6.3667 22.2 12C22.2 17.6333 17.6333 22.2 12 22.2C6.36668 22.2 1.79999 17.6333 1.79999 12C1.79999 6.3667 6.36668 1.8 12 1.8ZM3.9891 13.2H7.19632V14.4L9.8133 12.3042C9.90561 12.2302 9.95933 12.1183 9.95933 12C9.95933 11.8817 9.90561 11.7698 9.8133 11.6959L7.19632 9.6V10.8H3.9891C3.77409 10.8001 3.59988 10.9745 3.59999 11.1895V12.8105C3.59988 13.0255 3.77409 13.1999 3.9891 13.2ZM13.2 9.21087V6.00324H14.4L12.3042 3.38595C12.2302 3.29363 12.1183 3.2399 12 3.2399C11.8817 3.2399 11.7698 3.29363 11.6958 3.38595L9.59999 6.00324H10.8V9.21087C10.8 9.31412 10.8411 9.41313 10.9142 9.48611C10.9872 9.55908 11.0863 9.6 11.1895 9.6H12.8105C12.9137 9.6 13.0128 9.55908 13.0858 9.48611C13.1589 9.41313 13.1999 9.31412 13.2 9.21087ZM10.8 14.7891V17.9968H9.59999L11.6958 20.6141C11.7698 20.7064 11.8817 20.7601 12 20.7601C12.1183 20.7601 12.2302 20.7064 12.3041 20.6141L14.4 17.9968H13.2V14.7891C13.1999 14.6859 13.1589 14.5869 13.0858 14.5139C13.0128 14.4409 12.9137 14.4 12.8105 14.4H11.1895C11.0863 14.4 10.9872 14.4409 10.9142 14.5139C10.8411 14.5869 10.8 14.6859 10.8 14.7891ZM19.9869 10.8H16.7792V9.6L14.1619 11.6958C14.0696 11.7698 14.0159 11.8817 14.0159 12C14.0159 12.1183 14.0696 12.2302 14.1619 12.3042L16.7792 14.4V13.2H19.9869C20.0901 13.2 20.1891 13.1589 20.2621 13.0858C20.3351 13.0128 20.376 12.9137 20.376 12.8105V11.1895C20.376 11.0863 20.3351 10.9872 20.2621 10.9142C20.1891 10.8411 20.0901 10.8001 19.9869 10.8Z" fill="currentColor"/>
</svg>
