<svg width="24" height="24" viewBox="0 0 24 24" fill="currentColor" xmlns="http://www.w3.org/2000/svg">
<path fill-rule="evenodd" clip-rule="evenodd" d="M15 1.80005V5.40005C15 6.06279 15.4776 6.60005 16.0667 6.60005H19.8L15 1.80005ZM16.2 7.80005C14.8745 7.80005 13.8 6.72553 13.8 5.40005V1.80005H4.2V20.9946C4.2 20.9964 4.2 20.9982 4.2 21C4.2 21.6628 4.73726 22.2001 5.4 22.2001H19.8V7.80005H16.2ZM8.60765 14.1748C9.08544 14.1748 9.45037 14.0213 9.70243 13.7144C9.92284 13.4518 10.0331 13.1106 10.0331 12.6908C10.0328 12.5603 10.0144 12.4304 9.97848 12.3048C9.94201 12.176 9.88855 12.0526 9.8195 11.9378C9.75337 11.8262 9.67248 11.724 9.57902 11.634C9.33224 11.3926 8.96521 11.2718 8.47793 11.2716H7.46702C7.27716 11.2716 7.12925 11.3252 7.02326 11.4322C6.91728 11.5393 6.86428 11.6867 6.86426 11.8744V15.1082C6.85993 15.2508 6.90805 15.3902 6.99953 15.4997C7.0897 15.6057 7.21125 15.6587 7.36418 15.6587C7.51817 15.6587 7.63866 15.606 7.72567 15.5005C7.81268 15.395 7.85618 15.2643 7.85618 15.1082V14.1748H8.60765ZM7.85618 12.1403H8.41298C8.58386 12.1403 8.72466 12.1904 8.83538 12.2906C8.9461 12.3908 9.00621 12.5263 9.01572 12.6972C9.01572 12.8828 8.96193 13.0299 8.85437 13.1385C8.73833 13.2546 8.5738 13.3126 8.36076 13.3126H7.85618V12.1403ZM10.6762 15.4206C10.7806 15.5277 10.9251 15.5812 11.1097 15.5812L12.1981 15.5939C12.6136 15.5939 12.9754 15.5011 13.2834 15.3155C13.5886 15.1329 13.8338 14.8651 13.989 14.5451C14.1514 14.2171 14.2326 13.8474 14.2326 13.436C14.2338 13.0915 14.1652 12.7503 14.031 12.433C13.9069 12.1278 13.7007 11.8628 13.4354 11.6674C13.0768 11.4038 12.6169 11.2719 12.0559 11.2719H11.1224C10.9325 11.2719 10.7846 11.3254 10.6786 11.4325C10.5726 11.5396 10.5196 11.6869 10.5196 11.8747V14.9784C10.5196 15.1662 10.5718 15.3136 10.6762 15.4206ZM11.5115 12.1403H11.8928C12.2872 12.1403 12.583 12.2289 12.7803 12.4061C13.0439 12.6349 13.1758 12.9782 13.1758 13.436C13.1758 13.8652 13.0614 14.2001 12.8326 14.4406C12.6491 14.6346 12.3727 14.7317 12.0036 14.7317H11.5116L11.5115 12.1403ZM16.779 12.1593C16.9061 12.1631 17.0303 12.1206 17.1286 12.0398C17.2232 11.9609 17.2758 11.8426 17.271 11.7195C17.271 11.5792 17.2243 11.4695 17.131 11.3904C17.0376 11.3113 16.9203 11.2717 16.779 11.2717H15.3473C15.1575 11.2717 15.0095 11.3253 14.9035 11.4323C14.7975 11.5394 14.7445 11.6868 14.7445 11.8745V15.1082C14.7402 15.2507 14.788 15.3899 14.8789 15.4997C14.9685 15.6057 15.0898 15.6587 15.2428 15.6587C15.3978 15.6587 15.5189 15.606 15.6059 15.5005C15.6929 15.395 15.7364 15.2643 15.7364 15.1082V13.9027H16.6176C16.7589 13.9027 16.8762 13.8636 16.9696 13.7856C17.063 13.7076 17.1096 13.5994 17.1096 13.4613C17.1096 13.3231 17.0632 13.2153 16.9704 13.1378C16.8776 13.0602 16.76 13.0215 16.6176 13.0215H15.7365V12.1593H16.779Z" fill="currentColor"/>
</svg>
