<svg width="24" height="24" viewBox="0 0 24 24" fill="currentColor" xmlns="http://www.w3.org/2000/svg">
<path fill-rule="evenodd" clip-rule="evenodd" d="M12.8012 2H3.19882C2.88072 2 2.5757 2.12667 2.35088 2.35171C2.12606 2.57676 1.99984 2.8819 2 3.2V21.2C1.99967 21.8624 2.53638 22.3997 3.19878 22.4H12.8012C13.1193 22.4 13.4243 22.2733 13.6491 22.0483C13.8739 21.8232 14.0002 21.5181 14 21.2V3.2C14.0003 2.5376 13.4636 2.00034 12.8012 2ZM7.1 2.6H8.9C9.06569 2.6 9.2 2.73431 9.2 2.9C9.2 3.06569 9.06569 3.2 8.9 3.2H7.1C6.93431 3.2 6.8 3.06569 6.8 2.9C6.8 2.73431 6.93431 2.6 7.1 2.6ZM8 21.8C7.66863 21.8 7.4 21.5314 7.4 21.2C7.4 20.8686 7.66863 20.6 8 20.6C8.33137 20.6 8.6 20.8686 8.6 21.2C8.6 21.5314 8.33137 21.8 8 21.8ZM12.8 20H3.2V3.8H12.8V20ZM10.9498 14.3927C10.5324 15.3574 9.80862 15.8 8.60336 15.8C7.83313 15.8 7.20056 15.5921 6.7231 15.1342C6.28038 14.7097 5.9959 14.1682 5.8639 13.52H5.48C5.19277 13.52 5 13.324 5 13.0466C5 12.7649 5.1885 12.536 5.48 12.536H5.792C5.79085 12.428 5.792 12.3014 5.792 12.248C5.792 12.1696 5.7879 12.152 5.792 12.008H5.48C5.19277 12.008 5 11.7757 5 11.498C5 11.2204 5.19277 10.952 5.48 10.952H5.912C6.0621 10.2678 6.34791 9.67263 6.79064 9.2552C7.2656 8.80712 7.89246 8.6 8.60336 8.6C9.76767 8.6 10.5242 9.06301 10.9163 10.0106C10.9558 10.0927 10.9757 10.1828 10.9742 10.2739C10.9742 10.4923 10.8479 10.6891 10.616 10.784C10.5496 10.82 10.4366 10.832 10.352 10.832C10.1278 10.832 9.9488 10.6688 9.85832 10.4543C9.60855 9.86259 9.27992 9.6387 8.60336 9.6387C7.82065 9.6387 7.26541 10.0517 7.016 10.952H9.488C9.77953 10.952 9.968 11.2038 9.968 11.48C9.968 11.7629 9.7753 12.008 9.488 12.008H6.872C6.86775 12.152 6.872 12.164 6.872 12.248C6.872 12.299 6.87068 12.428 6.872 12.536H9.056C9.3519 12.536 9.512 12.7542 9.512 13.04C9.512 13.3132 9.33891 13.52 9.056 13.52H6.968C7.19228 14.3843 7.77411 14.755 8.60336 14.755C9.31962 14.755 9.63385 14.5283 9.84896 14.0004L9.84973 13.9984L9.85059 13.9965C9.95343 13.7614 10.1382 13.632 10.3706 13.632C10.4368 13.6329 10.5025 13.6436 10.5656 13.6636C10.8176 13.7312 11 13.9477 11 14.172C11.001 14.2485 10.9838 14.3241 10.9498 14.3927ZM21.3748 8.05669C21.2046 7.71975 21.039 7.22658 20.542 7.46127C20.0599 7.68906 20.2766 8.11129 20.4518 8.47767C21.6454 10.9746 21.6271 13.4719 20.4339 15.9622C20.2665 16.3115 20.0907 16.6882 20.5127 16.9226C20.9613 17.1717 21.152 16.7687 21.3224 16.4417C22.0112 15.1197 22.4 13.7408 22.4 12.1976C22.4 10.7649 22.034 9.36147 21.3748 8.05669ZM19.4572 8.80765C19.3003 8.51965 19.0958 8.24386 18.7261 8.42535C18.3309 8.61934 18.3877 8.94094 18.5617 9.28786C19.526 11.2103 19.5365 13.1416 18.5785 15.0703C18.4148 15.4 18.2981 15.7289 18.69 15.9511C19.1017 16.1845 19.3079 15.8658 19.4734 15.5588C20.0275 14.5316 20.3076 13.4354 20.3076 12.2007C20.3077 11.0288 20.0426 9.88172 19.4572 8.80765ZM17.6038 9.69351C17.4555 9.43556 17.2617 9.18582 16.923 9.35226C16.5937 9.51411 16.5054 9.78186 16.6931 10.1341C17.4235 11.505 17.4273 12.8838 16.6963 14.2556C16.5101 14.605 16.5863 14.8761 16.9159 15.0411C17.2506 15.2088 17.4484 14.9689 17.5994 14.7077C18.0539 13.9221 18.2714 13.0772 18.2714 12.1618C18.2715 11.2746 18.0419 10.4554 17.6038 9.69351ZM15.8244 10.5183C15.6347 10.2675 15.4028 10.1118 15.0992 10.3167C14.8118 10.5106 14.7968 10.7747 14.9725 11.0626C15.4361 11.8221 15.4351 12.5815 14.9696 13.3406C14.7936 13.6277 14.8131 13.8938 15.1016 14.0861C15.4075 14.2901 15.6379 14.1283 15.8254 13.8782C16.1972 13.3821 16.2992 12.8052 16.3442 12.1796C16.3442 11.5818 16.1992 11.0138 15.8244 10.5183Z" fill="currentColor"/>
</svg>
