<svg width="24" height="24" viewBox="0 0 24 24" fill="currentColor" xmlns="http://www.w3.org/2000/svg">
<path fill-rule="evenodd" clip-rule="evenodd" d="M14.6683 19.6353C14.183 20.1515 13.8194 20.4583 13.4544 20.6601C13.0344 20.892 12.5724 21 12 21C11.4374 21 10.9692 20.8845 10.5264 20.6365C10.152 20.4267 9.79402 20.1269 9.33173 19.6353C9.14499 19.4028 8.33667 18.084 7.33493 16.2H6.00001C7.01537 18.1549 8.17769 20.1409 8.47052 20.453C9.37551 21.4178 10.3613 22.2001 12 22.2001C13.6387 22.2001 14.5575 21.4892 15.5295 20.453C15.8223 20.1409 16.9846 18.1549 18 16.2H16.6651C15.6633 18.084 14.855 19.4028 14.6683 19.6353ZM7.69825 5.44234C8.86561 3.86741 10.3933 3.00005 12 3.00005C13.6067 3.00005 15.1344 3.86741 16.3018 5.44234C16.4345 5.62138 16.5607 5.80728 16.6804 6.00005H18C16.6717 3.4595 14.4795 1.80005 12 1.80005C9.52047 1.80005 7.32831 3.4595 6.00001 6.00005H7.31955C7.43952 5.80762 7.56575 5.62171 7.69825 5.44234ZM6.01131 6.60005H17.9294C19.021 6.60005 19.8116 7.46422 19.9059 8.52005L20.4 13.68C20.4 14.7404 19.5151 15.6 18.4235 15.6H14.963C13.4824 15.6 13.4825 13.2096 11.9842 13.2048C10.5172 13.2 10.5176 15.6 9.02739 15.6H5.57648C4.48491 15.6 3.60001 14.7404 3.60001 13.68L4.03484 8.52005C4.08687 7.45255 4.91972 6.60005 6.01131 6.60005Z" fill="currentColor"/>
</svg>
