<svg width="24" height="24" viewBox="0 0 24 24" fill="currentColor" xmlns="http://www.w3.org/2000/svg">
<path fill-rule="evenodd" clip-rule="evenodd" d="M13.7925 2.31635C13.3516 1.82091 12.7253 1.53006 12.0623 1.51283C11.3993 1.49561 10.7587 1.75356 10.2927 2.22544L10.2911 2.22712C10.2637 2.25489 10.237 2.28332 10.211 2.31239L4.19995 8.71201V20.112C4.19995 21.4375 5.27447 22.512 6.59995 22.512H17.4C18.7254 22.512 19.8 21.4375 19.8 20.112V8.71201L13.7925 2.31635ZM12 4.21201C12.8284 4.21201 13.5 4.88359 13.5 5.71201C13.5 6.54044 12.8284 7.21201 12 7.21201C11.1715 7.21201 10.5 6.54044 10.5 5.71201C10.5 4.88359 11.1715 4.21201 12 4.21201ZM18.12 15.2757L16.0053 16.2732L17.3032 18.1257L14.9385 18.0009L15.072 20.212L13.0907 18.9984L12.024 20.9757L10.9572 18.9984L8.97595 20.212L9.10939 18.0009L6.74467 18.1257L8.04261 16.2732L5.92795 15.2757L8.04259 14.2781L6.74467 12.4256L9.10939 12.5504L8.97595 10.3392L10.9572 11.5528L12.024 9.5756L13.0908 11.5529L15.072 10.3392L14.9385 12.5504L17.3032 12.4256L16.0053 14.2781L18.12 15.2757Z" fill="currentColor"/>
</svg>
