<svg width="24" height="24" viewBox="0 0 24 24" fill="currentColor" xmlns="http://www.w3.org/2000/svg">
<path fill-rule="evenodd" clip-rule="evenodd" d="M12 1.79999C17.6334 1.79999 22.2001 6.36668 22.2001 12C22.2001 17.6333 17.6334 22.2 12 22.2C6.36674 22.2 1.80005 17.6333 1.80005 12C1.80005 6.36668 6.36674 1.79999 12 1.79999ZM12 2.39999C17.302 2.39999 21.6 6.69805 21.6 12C21.6 17.3019 17.302 21.6 12 21.6C6.69811 21.6 2.40005 17.3019 2.40005 12C2.40005 6.69805 6.69811 2.39999 12 2.39999ZM16.453 16.0125L15.7004 15.3535C17.4363 13.4456 17.4363 10.5304 15.7004 8.62252L16.453 7.96345C18.5157 10.25 18.5157 13.726 16.453 16.0125ZM15.1984 14.9139L14.4456 14.2546C15.6317 12.9763 15.6317 10.9997 14.4456 9.72136L15.1985 9.06208C16.7118 10.7192 16.7118 13.2568 15.1984 14.9139ZM13.9436 13.8151L13.1903 13.1554C13.8255 12.5067 13.8255 11.4692 13.1903 10.8206L13.9436 10.1609C14.9077 11.1882 14.9077 12.7878 13.9436 13.8151ZM6.60005 14.4C6.23186 14.4 6.00005 14.1685 6.00005 13.8V10.2C6.00005 9.83152 6.23186 9.59999 6.60005 9.59999H9.60005L12.6 7.19999V16.8L9.60005 14.4H6.60005Z" fill="currentColor"/>
</svg>
