<svg width="24" height="24" viewBox="0 0 24 24" fill="currentColor" xmlns="http://www.w3.org/2000/svg">
<path fill-rule="evenodd" clip-rule="evenodd" d="M19.8 4.2H3.59999V17.7C3.59999 17.8657 3.46567 18 3.29999 18C3.1343 18 2.99999 17.8657 2.99999 17.7V6.84H1.79999V18C1.79999 18.9941 2.60588 19.8 3.59999 19.8H20.4C21.3941 19.8 22.2 18.9941 22.2 18V6.6C22.2 5.27451 21.1255 4.2 19.8 4.2ZM6.29999 6H19.5C19.997 6 20.4 6.40294 20.4 6.9C20.4 7.39705 19.997 7.8 19.5 7.8H6.29999C5.80293 7.8 5.39999 7.39705 5.39999 6.9C5.39999 6.40294 5.80293 6 6.29999 6ZM12.6 16.68H6.59999C5.93725 16.68 5.39999 16.1427 5.39999 15.48V9.96H11.4C12.0627 9.96 12.6 10.4973 12.6 11.16V16.68ZM17.88 16.68H15C14.7349 16.68 14.52 16.4651 14.52 16.2C14.52 15.9349 14.7349 15.72 15 15.72H17.88C18.1451 15.72 18.36 15.9349 18.36 16.2C18.36 16.4651 18.1451 16.68 17.88 16.68ZM20.04 14.76H15C14.7349 14.76 14.52 14.5451 14.52 14.28C14.52 14.0149 14.7349 13.8 15 13.8H20.04C20.3051 13.8 20.52 14.0149 20.52 14.28C20.52 14.5451 20.3051 14.76 20.04 14.76ZM20.04 12.84H15C14.7349 12.84 14.52 12.6251 14.52 12.36C14.52 12.0949 14.7349 11.88 15 11.88H20.04C20.3051 11.88 20.52 12.0949 20.52 12.36C20.52 12.6251 20.3051 12.84 20.04 12.84ZM20.04 10.92H15C14.7349 10.92 14.52 10.7051 14.52 10.44C14.52 10.1749 14.7349 9.96 15 9.96H20.04C20.3051 9.96 20.52 10.1749 20.52 10.44C20.52 10.7051 20.3051 10.92 20.04 10.92Z" fill="currentColor"/>
</svg>
