<svg width="24" height="24" viewBox="0 0 24 24" fill="currentColor" xmlns="http://www.w3.org/2000/svg">
<path fill-rule="evenodd" clip-rule="evenodd" d="M18 11.9761V19.2001C18 20.1942 17.1941 21.0001 16.2 21.0001H7.8C6.80589 21.0001 6 20.1942 6 19.2001V11.9761H2.4L10.2 4.15207H10.2184C10.6796 3.6408 11.3383 3.35236 12.0268 3.36001C12.7153 3.36797 13.3673 3.67127 13.8168 4.19287L21.6 11.9761H18ZM7.20221 15.4005L7.20264 16.4621C9.32724 16.5409 10.5362 18.1039 10.5391 19.8003H11.6008C11.5987 17.3724 9.6288 15.4016 7.20221 15.4005ZM7.20264 13.1998V14.2741C10.1167 14.2791 12.7209 16.8843 12.7259 19.8003H13.7998C13.7986 16.1551 10.8456 13.2005 7.20264 13.1998ZM7.20199 18.7001C7.82148 18.7001 8.30167 19.1804 8.30167 19.8001H9.40133C9.38947 18.5953 8.40927 17.6001 7.20199 17.6001V18.7001C7.20934 18.6999 7.1946 18.7001 7.20199 18.7001Z" fill="currentColor"/>
</svg>
