<svg width="24" height="24" viewBox="0 0 24 24" fill="currentColor" xmlns="http://www.w3.org/2000/svg">
<path fill-rule="evenodd" clip-rule="evenodd" d="M10.8487 10.3252C11.0321 9.88201 11.2183 9.43215 11.4017 8.98899L10.8477 9.13637L10.8487 10.3252ZM16.785 5.41441C16.77 4.84371 16.406 4.37151 15.8732 4.22977C15.8277 4.21777 15.7831 4.20272 15.738 4.18909H7.19519C7.19612 4.24501 7.1979 4.30097 7.1979 4.35689C7.19804 7.88825 7.19819 11.4196 7.19833 14.9509C7.19833 15.5418 7.55703 16.0333 8.11139 16.1429C8.40037 16.2 8.70419 16.182 9.01412 16.1986C9.00239 16.1567 8.99936 16.1414 8.99387 16.127C8.80741 15.6388 8.83955 15.1612 9.04103 14.6822C9.12834 14.4747 9.31928 14.0157 9.57399 13.4019C9.05142 13.2589 8.73473 12.7291 8.85619 12.2011C8.97765 11.6731 9.49401 11.3349 10.0266 11.4345L10.0237 7.91866H10.0261L12.0672 7.38106C12.519 6.28906 12.8998 5.36871 13.1007 4.88389C13.28 4.45112 13.5828 4.32776 14.0155 4.50723C14.8963 4.87258 15.7773 5.23762 16.6584 5.60238C16.696 5.61793 16.7343 5.63199 16.7852 5.65181C16.7852 5.55769 16.7869 5.48598 16.785 5.41441ZM21.3945 8.39249C18.8989 7.35825 16.4031 6.32442 13.9072 5.29098C13.8387 5.26256 13.7694 5.23592 13.6971 5.20712C13.6744 5.25853 13.656 5.29794 13.6395 5.33806C13.3037 6.14914 12.9679 6.96026 12.6324 7.77145C11.6172 10.2231 10.602 12.6747 9.58676 15.1264C9.30851 15.7987 9.58326 16.4764 10.2457 16.751C12.7633 17.7946 15.2811 18.8378 17.799 19.8806C17.8496 19.9015 17.897 19.93 17.9458 19.955H17.9698C17.9897 19.9031 18.0085 19.8506 18.0298 19.7993C19.3789 16.5401 20.7278 13.2808 22.0766 10.0214C22.3523 9.35393 22.062 8.66912 21.3945 8.39249ZM18.6535 9.6597C19.0427 9.6675 19.3847 10.0363 19.3764 10.4393C19.368 10.854 19.0125 11.2008 18.602 11.1949C18.398 11.1928 18.2031 11.1097 18.0604 10.9639C17.9176 10.8181 17.8387 10.6215 17.8409 10.4175C17.8485 9.97251 18.1939 9.65045 18.6535 9.6597ZM19.0935 14.1783C19.0357 14.1916 18.9756 14.1917 18.9177 14.1787C18.3461 14.0484 17.7752 13.9157 17.2048 13.7806C16.9375 13.7172 16.8316 13.5433 16.8912 13.2715C16.9398 13.0496 16.9944 12.8288 17.0457 12.6074C17.0518 12.581 17.0541 12.5538 17.062 12.5019L16.0482 13.1307C16.3578 13.6311 16.6644 14.1262 16.971 14.6213C17.0319 14.7197 17.0934 14.818 17.1541 14.9165C17.2458 15.0653 17.2631 15.2168 17.1578 15.365C17.0498 15.517 16.899 15.5527 16.7229 15.5113C15.997 15.3405 15.2711 15.1702 14.545 15.0004C14.4596 14.9804 14.3739 14.9615 14.2891 14.9391C14.0621 14.8793 13.9316 14.6889 13.9776 14.487C14.0288 14.2621 14.2203 14.1402 14.4587 14.1935C14.9257 14.2979 15.3911 14.409 15.8573 14.5169C15.8949 14.5256 15.9333 14.5313 16.0034 14.5445C15.6572 13.9853 15.3266 13.4517 14.992 12.9113C14.7773 13.0445 14.5742 13.1705 14.3713 13.2964C13.486 13.8464 12.602 14.3985 11.7138 14.9437C11.6201 15.0021 11.5132 15.0359 11.4029 15.042C11.2419 15.046 11.1084 14.9169 11.0673 14.7637C11.0234 14.6035 11.0903 14.4336 11.2317 14.3464C11.4761 14.1876 11.7254 14.0364 11.9731 13.8826C13.4995 12.9345 15.0259 11.9864 16.5524 11.0384C16.5646 11.0294 16.5762 11.0198 16.5872 11.0096C16.4367 10.7665 16.2862 10.5234 16.1307 10.2723C15.8017 10.4766 15.4801 10.6764 15.1584 10.876C15.0838 10.9224 15.0104 10.9709 14.9338 11.0139C14.737 11.1243 14.5234 11.0728 14.4113 10.8906C14.2989 10.7078 14.343 10.4841 14.53 10.3658C15.0328 10.0477 15.538 9.7335 16.0458 9.42332C16.2521 9.29749 16.47 9.34837 16.5986 9.55374C17.0436 10.2644 17.4828 10.9788 17.924 11.6919C17.9988 11.8128 17.9928 11.9402 17.96 12.0733C17.8827 12.3869 17.8101 12.7016 17.7364 13.016C17.7301 13.0429 17.7292 13.071 17.7241 13.1119C17.9646 13.1691 18.2043 13.2262 18.4434 13.283C18.6568 13.3334 18.8716 13.3787 19.0836 13.4345C19.2717 13.4841 19.3806 13.6319 19.3838 13.8215C19.3862 13.9665 19.2504 14.1399 19.0935 14.1783ZM9.38108 16.8624C9.34477 16.8304 9.28059 16.8188 9.22878 16.8173C8.83743 16.8059 8.44249 16.829 8.05518 16.7843C7.45974 16.7154 6.99678 16.4215 6.73597 15.8579C6.73448 15.8547 6.52453 15.3855 6.5157 14.8691C6.04727 14.5741 5.8653 14.288 5.63382 13.7393C5.62856 13.7269 5.62422 13.7142 5.61908 13.7018C5.04406 13.733 4.50664 13.4155 4.25664 12.8967C4.00663 12.3779 4.0931 11.7597 4.47583 11.3294C4.85857 10.8991 5.4625 10.7412 6.00687 10.929C6.18673 10.698 6.4019 10.4968 6.64446 10.3329C6.61506 8.44294 6.58993 6.7909 6.58993 6.77101C6.53994 6.78798 6.50211 6.79844 6.46614 6.81337C5.39734 7.25695 4.32862 7.70072 3.25998 8.14467C2.69279 8.37961 2.12399 8.61121 1.55579 8.84442V8.86842C1.58058 8.91745 1.60875 8.96514 1.62973 9.0158C2.97373 12.2642 4.31755 15.5127 5.6612 18.7613C5.94817 19.4546 6.6099 19.7263 7.30412 19.4388C8.31431 19.0205 9.32411 18.6013 10.3335 18.1812C10.6274 18.0593 10.9213 17.9377 11.2349 17.8078C10.9529 17.6907 10.6947 17.5738 10.4296 17.4755C10.043 17.3323 9.69119 17.1357 9.38108 16.8624Z" fill="currentColor"/>
</svg>
