<svg width="24" height="24" viewBox="0 0 24 24" fill="currentColor" xmlns="http://www.w3.org/2000/svg">
<path fill-rule="evenodd" clip-rule="evenodd" d="M19.0338 14.7353C19.7273 13.4617 20.0897 12.0344 20.0878 10.5843C20.0878 5.75969 16.1555 1.84827 11.304 1.84827C6.45249 1.84827 2.52014 5.75964 2.52014 10.5843C2.52014 15.2442 6.18873 19.0517 10.8106 19.3063L10.0731 18.0445C6.46034 17.4596 3.7032 14.3428 3.7032 10.5843C3.7032 6.40887 7.10553 3.0247 11.304 3.0247C15.5025 3.0247 18.9048 6.40887 18.9048 10.5843C18.9058 11.5872 18.7056 12.5801 18.3159 13.5042L18.3908 13.6327L19.0338 14.7353ZM17.4521 12.0233C17.5548 11.5673 17.6066 11.1014 17.6065 10.634C17.6065 7.15243 14.7848 4.33023 11.3041 4.33023C7.8234 4.33023 5.00169 7.15243 5.00169 10.634C5.00169 13.3846 6.76329 15.7229 9.21948 16.5837L8.08908 14.6499C6.86862 13.6744 6.1586 12.1964 6.15991 10.634C6.15991 7.79278 8.4635 5.48871 11.3041 5.48871C14.0262 5.48871 16.2549 7.60457 16.4362 10.2812L16.9611 11.1812L17.4521 12.0233ZM11.1835 7.21095L11.8075 6.84415C10.0317 6.61512 8.32612 7.61756 7.66231 9.28049L9.25257 8.34583L11.1835 7.21095ZM19.8345 17.7153L18.5529 15.5178C18.5563 15.5129 18.5597 15.508 18.5631 15.503L17.892 14.3551C17.8891 14.3601 17.8863 14.3652 17.8834 14.3702L17.121 13.0627C17.1231 13.0575 17.1252 13.0521 17.1274 13.0468L16.7306 12.3679L16.3378 11.6959C16.3365 11.7019 16.3354 11.7079 16.3342 11.7138L13.8635 7.47763C13.6656 7.13813 13.2672 7.01067 12.8886 7.14696C12.886 7.14583 10.391 8.60388 10.391 8.60388L9.87955 8.90388L8.98092 9.4309L8.14013 9.92403L7.7016 10.1813L7.30303 10.415C7.01099 10.6589 6.93778 11.0781 7.12982 11.4067L9.48698 15.4483L9.47978 15.4456L10.3034 16.8576L10.3094 16.8585L11.0563 18.1392L11.0508 18.139L11.7332 19.3092L11.7385 19.3089L13.1006 21.6441C13.2045 21.8228 13.3752 21.9528 13.5751 22.0055C13.7749 22.0583 13.9876 22.0295 14.1662 21.9255L19.5548 18.7815C19.9263 18.5642 20.0515 18.087 19.8345 17.7153ZM9.8736 9.56323L10.8837 8.97396C10.9765 8.92114 11.0945 8.95288 11.1484 9.04513C11.2022 9.13738 11.1717 9.25576 11.0801 9.31059L10.07 9.90003C10.0099 9.93511 9.93554 9.93544 9.87507 9.90088C9.81461 9.86632 9.77717 9.80213 9.77686 9.73248C9.77656 9.66284 9.81344 9.59832 9.8736 9.56323ZM16.6242 19.9784C16.4303 20.103 16.1766 20.0802 16.0079 19.9231C15.8392 19.766 15.7985 19.5145 15.909 19.3123C16.0195 19.11 16.2531 19.0084 16.4765 19.0654C16.6998 19.1225 16.856 19.3237 16.8559 19.5542C16.8634 19.7277 16.7742 19.8909 16.6242 19.9784ZM13.2812 20.3947L8.17423 11.6384L13.5613 8.49526L18.6683 17.2515L13.2812 20.3947Z" fill="currentColor"/>
</svg>
