<svg width="24" height="24" viewBox="0 0 24 24" fill="currentColor" xmlns="http://www.w3.org/2000/svg">
<path fill-rule="evenodd" clip-rule="evenodd" d="M22.1037 1.91408C21.2935 1.10384 12.7411 4.65344 10.4121 6.65864C9.83709 6.65768 9.10077 6.7184 8.16621 6.85832C6.46581 7.11296 1.79565 8.68112 1.79565 9.33992C1.79565 9.81224 3.76269 10.6784 5.62989 11.4243L5.19501 11.8592C4.92093 12.1333 4.91277 12.5696 5.17677 12.8336L11.1345 18.7911C11.3985 19.0551 11.8346 19.047 12.1087 18.7729L12.5438 18.3378C13.2895 20.2052 14.1557 22.1725 14.6282 22.1725C15.287 22.1725 16.8552 17.5021 17.1098 15.8019C17.2497 14.8669 17.3105 14.1303 17.3095 13.5553C19.3128 11.2242 22.8309 2.64128 22.1037 1.91408ZM7.38477 16.628C8.30109 17.5446 8.30109 19.0304 7.38477 19.9467C6.46821 20.8633 2.25357 22.5368 1.85157 22.1348C1.49085 21.7741 3.14949 17.5446 4.06605 16.628C4.98261 15.7114 6.46845 15.7114 7.38477 16.628ZM16.9663 7.00184C17.8058 7.84136 17.8058 9.2024 16.9663 10.0419C16.1268 10.8814 14.7655 10.8814 13.926 10.0419C13.0865 9.2024 13.0865 7.84136 13.926 7.00184C14.7655 6.16208 16.1268 6.16208 16.9663 7.00184Z" fill="currentColor"/>
</svg>
