<svg width="24" height="24" viewBox="0 0 24 24" fill="currentColor" xmlns="http://www.w3.org/2000/svg">
<path fill-rule="evenodd" clip-rule="evenodd" d="M17.757 17.2624L16.4019 16.0767C18.5366 13.7781 18.5366 10.2219 16.4019 7.92331L17.757 6.73757C20.4809 9.71712 20.4809 14.2829 17.757 17.2624ZM15.4984 15.2861L14.1424 14.0997C15.2857 12.9334 15.2857 11.0666 14.1424 9.90034L15.4984 8.7139C17.2338 10.5609 17.2338 13.4391 15.4984 15.2861ZM2.39995 16.2C1.73721 16.2 1.19995 15.6627 1.19995 15V9C1.19995 8.33726 1.73721 7.8 2.39995 7.8H7.79995L13.2 3V21L7.79995 16.2H2.39995Z" fill="currentColor"/>
</svg>
