<svg width="24" height="24" viewBox="0 0 24 24" fill="currentColor" xmlns="http://www.w3.org/2000/svg">
<path fill-rule="evenodd" clip-rule="evenodd" d="M19.2 13.8V19.2H4.79999V13.8H1.79999V19.8C1.79999 21.1255 2.8745 22.2 4.19999 22.2H19.8C21.1255 22.2 22.2 21.1255 22.2 19.8V13.8H19.2ZM19.2 8.40004L15.6 4.82431L12.9394 2.18164C12.4266 1.67236 11.5733 1.67236 11.0606 2.18164L8.39999 4.82431L4.79999 8.39987H8.39999V15.6C8.39999 16.5942 9.20587 17.4 10.2 17.4H13.8C14.2774 17.4 14.7352 17.2104 15.0728 16.8728C15.4103 16.5353 15.6 16.0774 15.6 15.6V8.40004H19.2Z" fill="currentColor"/>
</svg>
