<svg width="24" height="24" viewBox="0 0 24 24" fill="currentColor" xmlns="http://www.w3.org/2000/svg">
<path fill-rule="evenodd" clip-rule="evenodd" d="M21.8 6.8V17.6H3.2V18.8H23V6.8H21.8ZM21.2 17V5H2V17H21.2ZM3.5 14C3.39925 14 3.29874 14.01 3.2 14.0301V7.96993C3.69345 8.07022 4.20431 7.91641 4.56036 7.56036C4.91642 7.20431 5.07022 6.69345 4.96993 6.2H18.2301C18.1298 6.69345 18.2836 7.20431 18.6396 7.56036C18.9957 7.91641 19.5066 8.07022 20 7.96993V14.0301C19.5066 13.9298 18.9957 14.0836 18.6396 14.4396C18.2836 14.7957 18.1298 15.3066 18.2301 15.8H4.96993C5.05962 15.3587 4.94644 14.9004 4.66159 14.5516C4.37674 14.2028 3.95034 14.0003 3.5 14ZM5.9 11.9C6.39706 11.9 6.8 11.4971 6.8 11C6.8 10.5029 6.39706 10.1 5.9 10.1C5.40294 10.1 5 10.5029 5 11C5 11.4971 5.40294 11.9 5.9 11.9ZM17.3 11.9C17.7971 11.9 18.2 11.4971 18.2 11C18.2 10.5029 17.7971 10.1 17.3 10.1C16.8029 10.1 16.4 10.5029 16.4 11C16.4 11.4971 16.8029 11.9 17.3 11.9ZM11.6 7.4C9.61177 7.4 8 9.01177 8 11C8 12.9882 9.61177 14.6 11.6 14.6C13.5882 14.6 15.2 12.9882 15.2 11C15.2 10.0452 14.8207 9.12955 14.1456 8.45442C13.4705 7.77928 12.5548 7.4 11.6 7.4ZM12.7164 12.4555C12.5401 12.658 12.2742 12.8009 11.9186 12.8842V13.2649C11.9213 13.348 11.8945 13.4293 11.8431 13.4945C11.792 13.5569 11.7144 13.5913 11.6338 13.5875C11.5521 13.5908 11.4734 13.5559 11.421 13.493C11.3678 13.4291 11.3397 13.348 11.3418 13.2649V12.9205C11.12 12.9052 10.9014 12.8592 10.6922 12.7839C10.387 12.6666 10.2344 12.5039 10.2344 12.2957C10.2345 12.1839 10.2733 12.0756 10.3441 11.9891C10.4173 11.8961 10.5076 11.8496 10.6151 11.8496C10.6836 11.8478 10.7519 11.8576 10.8171 11.8786L11.1339 11.9862C11.3189 12.0414 11.4637 12.069 11.5683 12.069C11.6949 12.0717 11.8191 12.0341 11.9228 11.9615C12.0218 11.8934 12.0789 11.7792 12.074 11.6592C12.074 11.5323 12.0106 11.4349 11.8837 11.3671C11.7945 11.3206 11.6119 11.2572 11.3359 11.1768C11.1217 11.1167 10.9607 11.0656 10.8527 11.0234C10.7396 10.978 10.6366 10.9106 10.5497 10.8251C10.4509 10.7301 10.3729 10.6155 10.3208 10.4887C10.2679 10.3634 10.2405 10.2288 10.2402 10.0927C10.2402 9.98309 10.2544 9.87393 10.2824 9.76794C10.3099 9.66225 10.3517 9.56081 10.4066 9.4664C10.4623 9.37111 10.5305 9.28364 10.6093 9.20629C10.7914 9.03483 11.0355 8.91568 11.3417 8.84883V8.50443C11.3396 8.4213 11.3677 8.34024 11.4209 8.27629C11.4733 8.21346 11.552 8.17856 11.6337 8.18185C11.7134 8.17927 11.7897 8.21391 11.8401 8.27557C11.8931 8.33986 11.921 8.42117 11.9186 8.50443V8.84302C12.4786 8.93309 12.7586 9.11763 12.7586 9.39666C12.7605 9.51134 12.7141 9.62154 12.6307 9.70035C12.5498 9.78193 12.4391 9.82705 12.3241 9.82532C12.2877 9.82538 12.2514 9.82149 12.2159 9.8137C12.1805 9.80596 12.1347 9.79312 12.0786 9.77518C12.0224 9.75725 11.9812 9.74445 11.955 9.73678C11.8519 9.69961 11.7435 9.67949 11.6339 9.67719C11.5306 9.67682 11.4293 9.7058 11.3418 9.76076C11.2567 9.80856 11.2007 9.89525 11.192 9.99246C11.192 10.0845 11.2247 10.1538 11.2901 10.2002C11.3693 10.2529 11.4571 10.2913 11.5496 10.3136C11.7346 10.365 11.9012 10.4182 12.0495 10.4734C12.234 10.5328 12.4099 10.6161 12.5727 10.7212C12.7096 10.8118 12.8218 10.9352 12.8989 11.0801C12.976 11.2249 13.0145 11.4039 13.0145 11.617C13.0144 11.9493 12.915 12.2288 12.7164 12.4555Z" fill="currentColor"/>
</svg>
