<svg width="24" height="24" viewBox="0 0 24 24" fill="currentColor" xmlns="http://www.w3.org/2000/svg">
<path fill-rule="evenodd" clip-rule="evenodd" d="M13.8 17.976C13.8 18.3074 13.5314 18.576 13.2 18.576H10.8C10.4686 18.576 10.2 18.3074 10.2 17.976H1.8V19.176C1.8 19.5074 2.06863 19.776 2.4 19.776H21.6C21.9314 19.776 22.2 19.5074 22.2 19.176V17.976H13.8ZM21 15.576C21.0001 15.568 21 15.56 21 15.552V5.976C21 5.31326 20.4627 4.776 19.8 4.776H4.2C3.53726 4.776 3 5.31326 3 5.976V15.552C3 15.56 3.00046 15.568 3.0006 15.576L3 17.376H21V15.576ZM19.8 16.176H4.2V5.976H19.8V16.176ZM16.3293 8.99614L14.3365 10.9889L14.1151 10.7675L16.1079 8.77471C16.2297 8.65221 16.2297 8.45436 16.1079 8.33187L14.7794 7.00335C14.6569 6.88156 14.459 6.88156 14.3365 7.00335L14.1151 7.22477L14.6688 7.7784C14.7089 7.81784 14.7248 7.87577 14.7104 7.93015C14.696 7.98453 14.6535 8.027 14.5991 8.0414C14.5447 8.05581 14.4868 8.03994 14.4474 7.99983L13.8936 7.44619L13.4508 7.88902L13.7829 8.22115C13.823 8.26059 13.8389 8.31852 13.8245 8.3729C13.8101 8.42728 13.7676 8.46975 13.7132 8.48415C13.6588 8.49856 13.6009 8.48269 13.5615 8.44258L13.2294 8.11044L12.7865 8.55329L13.34 9.10685C13.4012 9.16799 13.4012 9.26712 13.3401 9.32826C13.2789 9.38941 13.1798 9.38941 13.1186 9.32827L12.5651 8.77471L12.3437 8.99614L12.1222 8.77471L14.1151 6.78192C14.3601 6.53842 14.7557 6.53842 15.0007 6.78192L16.3293 8.11044C16.5728 8.35542 16.5729 8.75111 16.3293 8.99614ZM15.9456 13.0295C16.0223 13.1059 16.0813 13.1983 16.1183 13.3001C16.1182 13.2998 16.1183 13.3004 16.1183 13.3001C16.1251 13.3197 16.1313 13.3404 16.1363 13.3605C16.1413 13.3804 16.1454 13.4005 16.1486 13.4207C16.1496 13.4268 16.1505 13.433 16.1514 13.4392C16.1809 13.6569 16.1068 13.8759 15.9513 14.031L15.3975 14.5844L14.9611 15.0204C14.8291 15.1528 14.6498 15.227 14.4628 15.2268C14.4414 15.2268 14.4191 15.2258 14.3977 15.2238C14.3955 15.2236 14.3934 15.2234 14.3912 15.2232C14.372 15.2212 14.3529 15.2185 14.3339 15.2149C14.33 15.2142 14.3261 15.2135 14.3222 15.2127C14.1912 15.1862 14.0581 15.1321 13.9564 15.0305L10.869 11.9404L8.5824 9.66L8.12729 8.13651L7.90736 7.41218L7.86372 7.23814C7.86372 7.23828 7.86372 7.23797 7.86372 7.23814C7.86204 7.23254 7.86056 7.22652 7.85931 7.22088C7.85885 7.21886 7.85854 7.21685 7.85813 7.21481C7.85741 7.21116 7.85664 7.20746 7.85609 7.20382C7.85573 7.20142 7.85554 7.19914 7.85525 7.19678C7.85484 7.19347 7.85441 7.19019 7.85415 7.18692C7.85395 7.18452 7.85391 7.18212 7.85379 7.17955C7.85364 7.17643 7.85345 7.17329 7.85345 7.17019C7.85345 7.16971 7.85345 7.16921 7.85345 7.16873C7.85345 7.16522 7.85359 7.16175 7.85376 7.15827C7.85376 7.15726 7.85376 7.15622 7.85376 7.15519C7.85405 7.15018 7.85453 7.14519 7.85515 7.14024C7.8553 7.13897 7.85554 7.13784 7.85573 7.13645C7.85626 7.1328 7.85681 7.12925 7.85751 7.12555C7.85784 7.1238 7.85825 7.1221 7.85863 7.12035C7.85931 7.11727 7.86 7.1142 7.8608 7.11115C7.86128 7.10931 7.8618 7.10746 7.86233 7.10563C7.86315 7.10273 7.86404 7.09985 7.86497 7.09699C7.8656 7.09517 7.8662 7.09335 7.86684 7.09155C7.86788 7.08869 7.86895 7.08586 7.87011 7.08305C7.87078 7.08134 7.87148 7.07962 7.8722 7.07791C7.87349 7.07494 7.87488 7.07199 7.87628 7.06906C7.87697 7.06764 7.87762 7.06618 7.87831 7.06479C7.8804 7.06068 7.88259 7.05662 7.88489 7.05278C7.8848 7.05298 7.88489 7.05259 7.88489 7.05278C7.88734 7.04866 7.89021 7.04402 7.89288 7.04004C7.89375 7.03877 7.89468 7.03764 7.89555 7.03625C7.89742 7.03359 7.89932 7.03092 7.90128 7.02835C7.90241 7.02686 7.90356 7.02545 7.90472 7.02401C7.90656 7.02161 7.90846 7.0194 7.91038 7.01715C7.91165 7.01568 7.91292 7.01424 7.91422 7.01283C7.91619 7.01064 7.91818 7.00853 7.92022 7.00644C7.92154 7.00507 7.92288 7.0037 7.92425 7.00236C7.92641 7.00025 7.92862 6.99821 7.93085 6.99617C7.93217 6.99497 7.93349 6.99377 7.93484 6.99257C7.9374 6.99034 7.94007 6.98818 7.94273 6.98606C7.94381 6.9852 7.94487 6.98429 7.94595 6.98345C7.94974 6.98055 7.95362 6.97775 7.95759 6.97505C7.95836 6.97452 7.95917 6.97404 7.95999 6.97354C7.9632 6.9714 7.96647 6.96931 7.9698 6.96734L7.97422 6.96494C7.97696 6.96341 7.97969 6.9619 7.98248 6.96046C7.98416 6.95959 7.98586 6.9588 7.98756 6.95806C7.99025 6.95676 7.99294 6.95551 7.99568 6.95434C7.99745 6.95357 7.99923 6.9528 8.00103 6.95208C8.00379 6.95095 8.0066 6.9499 8.00943 6.94886C8.0112 6.94824 8.01298 6.94757 8.01478 6.94697C8.01778 6.94596 8.02083 6.94507 8.0239 6.94418C8.02553 6.9437 8.02716 6.94318 8.0287 6.94274C8.03252 6.94174 8.03638 6.94085 8.04027 6.94003L8.04305 6.93941C8.04785 6.93845 8.05274 6.93765 8.05771 6.93701C8.05903 6.93684 8.06036 6.93675 8.06168 6.9366C8.06532 6.93619 8.06888 6.93583 8.07267 6.93559C8.07447 6.93559 8.07632 6.93542 8.07814 6.93535C8.08138 6.93535 8.08462 6.93514 8.08774 6.93514C8.08973 6.93514 8.09172 6.93514 8.09371 6.93514C8.09688 6.93514 8.10007 6.93538 8.10331 6.93559C8.10535 6.93574 8.10737 6.93588 8.10941 6.93607C8.11265 6.93638 8.11594 6.93679 8.1192 6.93725C8.12117 6.93751 8.12312 6.93778 8.12508 6.93809C8.12866 6.93866 8.13228 6.93939 8.13586 6.94015C8.13751 6.94051 8.13917 6.9408 8.14085 6.94118C8.14611 6.94241 8.15139 6.94378 8.15667 6.94538L8.67718 7.09399L9.05573 7.20876L10.5771 7.66476L15.9456 13.0295ZM8.88036 7.37227L8.29752 7.9547L8.75592 9.48487L9.02551 9.21286L14.4562 14.6398L14.6777 14.4185L9.24691 8.99153L9.91136 8.32755L15.3421 13.7544L15.5636 13.5331L10.1328 8.10622L10.4116 7.83022L8.88036 7.37227ZM9.90814 11.4318L9.68672 11.6532L10.2403 12.2067C10.3014 12.2679 10.3014 12.367 10.2403 12.4281C10.1791 12.4893 10.08 12.4893 10.0189 12.4282L9.46529 11.8746L9.02244 12.3174L9.35458 12.6496C9.39469 12.689 9.41056 12.7469 9.39616 12.8013C9.38175 12.8557 9.33928 12.8982 9.2849 12.9126C9.23052 12.927 9.1726 12.9111 9.13315 12.871L8.80102 12.5388L8.3582 12.9816L8.91173 13.5352C8.97293 13.5963 8.97301 13.6954 8.91189 13.7566C8.85077 13.8178 8.75161 13.8179 8.6904 13.7568L8.13677 13.2031L7.91535 13.4245C7.79357 13.547 7.79357 13.7449 7.91535 13.8674L9.24387 15.1959C9.36637 15.3177 9.56422 15.3177 9.68672 15.1959L11.6795 13.2031L11.9009 13.4245L9.90814 15.4173C9.66315 15.6608 9.26753 15.6608 9.02254 15.4173L7.69392 14.0888C7.45042 13.8438 7.45042 13.4482 7.69392 13.2032L9.68672 11.2104L9.90814 11.4318Z" fill="currentColor"/>
</svg>
