<svg width="24" height="24" viewBox="0 0 24 24" fill="currentColor" xmlns="http://www.w3.org/2000/svg">
<path fill-rule="evenodd" clip-rule="evenodd" d="M3.17306 8.19825C3.25169 7.96784 3.37452 7.75498 3.53467 7.57161C3.6948 7.39122 3.89245 7.24803 4.11376 7.15209C4.34253 7.0507 4.60019 7 4.88675 7C5.17672 7 5.43527 7.05069 5.66239 7.15206C5.88265 7.24851 6.07934 7.39165 6.23884 7.57158C6.39901 7.75494 6.52184 7.9678 6.60045 8.19822C6.68613 8.44881 6.72866 8.71211 6.72623 8.97693C6.7284 9.23659 6.68585 9.49469 6.60045 9.73991C6.52176 9.96715 6.39886 10.1766 6.23884 10.3561C6.07851 10.5331 5.88189 10.6735 5.66239 10.7677C5.43519 10.8673 5.17664 10.9171 4.88675 10.9171C4.60024 10.9171 4.34258 10.8673 4.11376 10.7677C3.89322 10.674 3.69564 10.5336 3.53467 10.3561C3.37466 10.1765 3.25177 9.96714 3.17306 9.73991C3.08768 9.49468 3.04514 9.23659 3.0473 8.97693C3.04488 8.71212 3.0874 8.44883 3.17306 8.19825ZM3.9251 9.43578C3.95933 9.57887 4.01878 9.71471 4.10066 9.83694C4.18111 9.95596 4.28892 10.054 4.41506 10.1227C4.54427 10.1944 4.70149 10.2303 4.88671 10.2302C5.07192 10.2302 5.22915 10.1944 5.35838 10.1227C5.48448 10.0539 5.59228 9.95593 5.67278 9.83694C5.75463 9.71469 5.81407 9.57886 5.84834 9.43578C5.88521 9.28563 5.90369 9.13156 5.90338 8.97695C5.90378 8.81628 5.88531 8.65612 5.84834 8.49976C5.81474 8.3532 5.75529 8.21381 5.67278 8.08811C5.59285 7.96796 5.48496 7.86899 5.35838 7.7997C5.22908 7.7281 5.07186 7.69227 4.88671 7.69221C4.70155 7.69214 4.54434 7.72798 4.41506 7.7997C4.28844 7.86895 4.18054 7.96792 4.10066 8.08811C4.01812 8.21379 3.95867 8.35319 3.9251 8.49976C3.88814 8.65612 3.86967 8.81628 3.87008 8.97695C3.86976 9.13156 3.88823 9.28563 3.9251 9.43578ZM7.81106 8.12219V8.62562H7.82155C7.85678 8.54117 7.90452 8.46251 7.96315 8.39226C8.0218 8.32129 8.09068 8.25944 8.16753 8.20874C8.24386 8.15834 8.32674 8.11863 8.41384 8.09073C8.50195 8.06267 8.59389 8.04851 8.68636 8.04877C8.74148 8.04978 8.79618 8.05861 8.84882 8.07501V8.76719C8.81387 8.76023 8.77195 8.75411 8.72306 8.74883C8.67603 8.74371 8.62876 8.74109 8.58146 8.74098C8.46251 8.73748 8.3443 8.76077 8.23557 8.80914C8.14528 8.85128 8.06692 8.91525 8.00757 8.99529C7.9482 9.07772 7.90628 9.17141 7.8844 9.27062C7.85918 9.38244 7.84688 9.49679 7.84773 9.61142V10.8333H7.10356V8.12219H7.81106ZM9.21551 8.956C9.22599 8.78123 9.26967 8.63615 9.34653 8.52076C9.42181 8.40689 9.52222 8.31181 9.64003 8.24284C9.76429 8.17087 9.89978 8.12035 10.0408 8.09339C10.1884 8.06379 10.3384 8.04885 10.4889 8.0488C10.6274 8.04897 10.7657 8.05859 10.9029 8.0776C11.0356 8.09481 11.1647 8.13288 11.2855 8.1904C11.3976 8.24372 11.4948 8.32387 11.5685 8.42375C11.6419 8.52337 11.6786 8.65537 11.6785 8.81975V10.2304C11.6782 10.3478 11.6852 10.4651 11.6995 10.5817C11.7134 10.6936 11.7379 10.7775 11.7729 10.8334H11.0183C11.0043 10.7913 10.9929 10.7484 10.9842 10.7049C10.9754 10.6608 10.9693 10.6161 10.9659 10.5712C10.8505 10.6914 10.7061 10.7798 10.5467 10.828C10.387 10.8768 10.221 10.9015 10.054 10.9014C9.93189 10.9024 9.81021 10.8865 9.69242 10.8542C9.58577 10.8254 9.48598 10.7755 9.39895 10.7074C9.31445 10.6402 9.2471 10.554 9.20241 10.4557C9.15269 10.3417 9.12855 10.2182 9.13168 10.0939C9.13168 9.94007 9.15875 9.81334 9.2129 9.71368C9.26293 9.6187 9.33477 9.53694 9.42251 9.4751C9.51191 9.41394 9.6112 9.3687 9.71601 9.34137C9.82557 9.3118 9.93666 9.28817 10.0488 9.27059C10.1606 9.25312 10.2706 9.23914 10.3789 9.22864C10.476 9.22 10.5724 9.20422 10.6672 9.18143C10.7395 9.16589 10.8076 9.13455 10.8664 9.08966C10.9153 9.04953 10.938 8.99098 10.9345 8.914C10.9376 8.84792 10.9241 8.78211 10.8952 8.7226C10.8707 8.67721 10.8345 8.63919 10.7904 8.61249C10.7436 8.58519 10.692 8.56736 10.6384 8.56C10.5768 8.551 10.5146 8.54661 10.4523 8.54687C10.3056 8.54687 10.1903 8.57834 10.1064 8.64126C10.0226 8.70419 9.97366 8.80907 9.95971 8.9559L9.21551 8.956ZM10.9345 9.50658C10.9001 9.53624 10.86 9.55855 10.8166 9.57213C10.7668 9.58852 10.7161 9.60166 10.6646 9.61146C10.6104 9.62196 10.5536 9.6307 10.4942 9.63767C10.4348 9.64465 10.3754 9.65342 10.3161 9.664C10.2602 9.67447 10.2051 9.68849 10.151 9.70595C10.1003 9.72169 10.0524 9.7456 10.0094 9.77673C9.96905 9.80661 9.93593 9.84516 9.91245 9.88953C9.88611 9.94329 9.87351 10.0027 9.87575 10.0626C9.87385 10.1207 9.88646 10.1784 9.91245 10.2304C9.93553 10.2744 9.96988 10.3115 10.012 10.3379C10.057 10.3653 10.1068 10.384 10.1587 10.3929C10.2158 10.4035 10.2737 10.4088 10.3317 10.4087C10.4784 10.4087 10.592 10.3842 10.6723 10.3353C10.7459 10.2931 10.8073 10.2325 10.8505 10.1596C10.8874 10.0958 10.9115 10.0254 10.9213 9.95243C10.9289 9.89681 10.9333 9.84078 10.9344 9.78465L10.9345 9.50658ZM12.8578 8.12219V8.49976H12.8735C12.9586 8.35107 13.0864 8.2314 13.2404 8.1563C13.384 8.08616 13.5417 8.04941 13.7015 8.04878C13.9007 8.04878 14.064 8.07587 14.1915 8.13006C14.31 8.17752 14.414 8.25533 14.4929 8.35566C14.5697 8.45985 14.6225 8.57981 14.6473 8.70688C14.6783 8.85784 14.6932 9.01164 14.6919 9.16574V10.8333H13.9478V9.30208C13.9478 9.07837 13.9129 8.91143 13.843 8.80127C13.7731 8.69111 13.6491 8.63606 13.471 8.6361C13.2683 8.6361 13.1216 8.69641 13.0308 8.81702C12.94 8.93762 12.8946 9.13602 12.8945 9.41222V10.8333H12.1503V8.12219H12.8578ZM17.7131 11.0325C17.6815 11.1762 17.6159 11.3101 17.5218 11.4232C17.424 11.5438 17.2825 11.646 17.0974 11.73C16.9122 11.8139 16.6641 11.8558 16.3532 11.8558C16.2163 11.8553 16.08 11.8386 15.947 11.806C15.8139 11.7748 15.6865 11.7225 15.5697 11.6513C15.4572 11.5824 15.3608 11.4904 15.2867 11.3812C15.2089 11.2633 15.1646 11.1264 15.1583 10.9852H15.8972C15.9321 11.125 16.0002 11.222 16.1016 11.2763C16.2101 11.3322 16.3308 11.3601 16.4528 11.3576C16.6624 11.3576 16.8152 11.2946 16.9113 11.1688C17.0074 11.0429 17.0537 10.8839 17.0502 10.6916V10.3351H17.0397C16.9627 10.4753 16.8423 10.5866 16.6965 10.6524C16.5495 10.7202 16.3894 10.7551 16.2275 10.7546C16.0248 10.7546 15.8501 10.7188 15.7034 10.6471C15.5613 10.5793 15.4373 10.4786 15.3418 10.3535C15.2446 10.2235 15.1743 10.0756 15.1348 9.91823C15.0903 9.74612 15.0683 9.56898 15.0693 9.39122C15.0688 9.21966 15.0944 9.04902 15.1453 8.88518C15.1924 8.72935 15.2679 8.58358 15.368 8.45519C15.4661 8.33085 15.5904 8.22968 15.7321 8.15891C15.8879 8.08306 16.0594 8.04531 16.2326 8.04878C16.3946 8.04529 16.5551 8.0794 16.7016 8.14842C16.836 8.21489 16.9487 8.32675 17.0396 8.48402H17.0501V8.12219H17.7577V10.6602C17.7557 10.7855 17.7408 10.9103 17.7131 11.0325ZM16.6938 10.1306C16.7721 10.0904 16.8402 10.0331 16.893 9.96278C16.9464 9.891 16.9863 9.81017 17.011 9.72419C17.0374 9.63305 17.0507 9.53857 17.0503 9.44366C17.0508 9.3371 17.0402 9.23078 17.0188 9.1264C17.0001 9.03253 16.9646 8.94282 16.914 8.86158C16.8656 8.78525 16.799 8.72218 16.7201 8.67806C16.6397 8.63268 16.5384 8.60995 16.4161 8.60987C16.3223 8.60725 16.2293 8.62893 16.1462 8.6728C16.0713 8.7146 16.0068 8.77286 15.9576 8.8432C15.9057 8.91766 15.8683 9.00129 15.8475 9.08966C15.8245 9.18495 15.8131 9.28267 15.8135 9.3807C15.8134 9.47843 15.8231 9.57591 15.8423 9.67173C15.8598 9.76349 15.8935 9.8514 15.9419 9.93131C15.9885 10.0077 16.0521 10.0723 16.1278 10.12C16.2148 10.1717 16.3149 10.1973 16.4161 10.1935C16.5124 10.1954 16.6078 10.1738 16.6938 10.1306ZM19.0469 10.183C19.1586 10.2914 19.3193 10.3456 19.5289 10.3456C19.6668 10.3492 19.8023 10.3098 19.9167 10.2328C20.025 10.1576 20.0914 10.0781 20.1159 9.99419H20.7711C20.6663 10.3193 20.5056 10.5518 20.289 10.6916C20.0724 10.8315 19.8103 10.9014 19.5029 10.9014C19.306 10.9043 19.1103 10.8696 18.9264 10.7992C18.7617 10.7354 18.6132 10.636 18.4914 10.5081C18.37 10.3781 18.2763 10.2246 18.2161 10.0572C18.1497 9.8722 18.1169 9.67686 18.1192 9.48035C18.1175 9.28705 18.1512 9.09508 18.2187 8.91395C18.344 8.57332 18.6049 8.29989 18.9393 8.15884C19.1175 8.08367 19.3093 8.04617 19.5027 8.0487C19.7333 8.0487 19.9342 8.09328 20.1054 8.18243C20.2721 8.26776 20.4165 8.39078 20.5273 8.54171C20.6392 8.69602 20.7202 8.87052 20.7658 9.0556C20.8151 9.25257 20.8328 9.45613 20.8182 9.65865H18.8634C18.8739 9.89986 18.935 10.0747 19.0469 10.183ZM19.888 8.7568C19.7989 8.65898 19.6635 8.61003 19.4818 8.60997C19.3797 8.60645 19.2783 8.62711 19.1857 8.67028C19.1128 8.70594 19.0485 8.75692 18.9971 8.81973C18.9518 8.87551 18.918 8.93966 18.8975 9.00851C18.8798 9.06656 18.8684 9.12633 18.8634 9.18681H20.074C20.039 8.99796 19.977 8.85462 19.888 8.7568ZM3.92774 15.7616C4.0395 15.87 4.2002 15.9242 4.40985 15.9241C4.54771 15.9278 4.68327 15.8884 4.79767 15.8113C4.90592 15.7361 4.97232 15.6566 4.99687 15.5728H5.65207C5.54725 15.8979 5.38654 16.1303 5.16993 16.2702C4.95332 16.41 4.69123 16.48 4.38367 16.48C4.18675 16.4829 3.99108 16.4482 3.80719 16.3777C3.64247 16.314 3.4939 16.2146 3.37211 16.0867C3.2507 15.9566 3.15708 15.8032 3.09698 15.6357C3.03061 15.4507 2.9978 15.2554 3.00011 15.0589C2.99844 14.8656 3.03218 14.6736 3.09969 14.4925C3.22496 14.1519 3.48589 13.8784 3.82029 13.7374C3.99848 13.6622 4.19029 13.6247 4.38367 13.6273C4.61426 13.6273 4.81515 13.6718 4.98633 13.761C5.15297 13.8463 5.29741 13.9693 5.4082 14.1202C5.52008 14.2745 5.60105 14.449 5.64667 14.6341C5.69595 14.8311 5.71364 15.0346 5.69908 15.2371H3.74431C3.7548 15.4784 3.81595 15.6532 3.92774 15.7616ZM4.76891 14.3352C4.67981 14.2374 4.54442 14.1885 4.36274 14.1884C4.26067 14.1849 4.15921 14.2056 4.06665 14.2487C3.99375 14.2844 3.9294 14.3354 3.87799 14.3982C3.83274 14.454 3.7989 14.5181 3.77841 14.587C3.76072 14.645 3.74931 14.7048 3.74435 14.7652H4.95494C4.91993 14.5765 4.85792 14.4331 4.76891 14.3352ZM7.52277 13.7008V14.199H6.97773V15.5414C6.97773 15.6672 6.99869 15.7511 7.04061 15.7931C7.08253 15.835 7.16639 15.856 7.29218 15.856C7.3341 15.856 7.37427 15.8543 7.41271 15.8508C7.44965 15.8475 7.48639 15.8423 7.52277 15.835V16.4118C7.45337 16.423 7.38336 16.43 7.31313 16.4328C7.23633 16.4363 7.16122 16.438 7.08779 16.4381C6.97817 16.4385 6.86867 16.4306 6.76024 16.4145C6.66446 16.4012 6.57201 16.3701 6.48772 16.3227C6.40867 16.2768 6.34419 16.2096 6.3017 16.1287C6.25624 16.0448 6.23353 15.9346 6.23356 15.7983V14.1989H5.78287V13.7008H6.23356V12.888H6.97773V13.7008H7.52277ZM9.84957 13.7008V14.0679H9.86006C9.95153 13.9338 10.0725 13.8226 10.2138 13.7428C10.3593 13.664 10.5227 13.6242 10.6881 13.6274C10.8499 13.6254 11.0101 13.6594 11.1571 13.727C11.2986 13.7935 11.406 13.9106 11.4794 14.0783C11.5667 13.9528 11.678 13.8459 11.807 13.7637C11.9449 13.6729 12.1083 13.6274 12.297 13.6274C12.4316 13.6262 12.5657 13.6439 12.6954 13.6798C12.8114 13.7115 12.9189 13.7688 13.0098 13.8476C13.101 13.9303 13.1711 14.0337 13.2142 14.1491C13.2664 14.2927 13.2913 14.4448 13.2875 14.5975V16.4119H12.5433V14.8754C12.5433 14.7845 12.5398 14.6988 12.5328 14.6184C12.5278 14.5453 12.5082 14.474 12.4752 14.4087C12.4435 14.349 12.3953 14.2999 12.3363 14.2671C12.2751 14.2322 12.1922 14.2147 12.0874 14.2146C11.9826 14.2146 11.8979 14.2347 11.8332 14.2749C11.77 14.3136 11.7177 14.3678 11.6812 14.4322C11.6434 14.5005 11.6185 14.5752 11.6079 14.6525C11.5956 14.7349 11.5895 14.8182 11.5895 14.9016V16.4118H10.8453V14.8912C10.8453 14.8108 10.8436 14.7313 10.8401 14.6526C10.8374 14.5781 10.8224 14.5045 10.7955 14.435C10.7698 14.3692 10.7239 14.3132 10.6645 14.275C10.6033 14.2349 10.5134 14.2148 10.3946 14.2147C10.3475 14.2167 10.3008 14.2246 10.2557 14.2384C10.1942 14.2561 10.1371 14.2865 10.088 14.3275C10.028 14.379 9.98049 14.4436 9.94915 14.5162C9.91065 14.5984 9.89145 14.7059 9.89155 14.8388V16.4119H9.14733V13.7008H9.84957ZM13.7853 14.469C13.9071 14.1289 14.1712 13.8589 14.5085 13.7296C14.6924 13.6591 14.888 13.6244 15.085 13.6274C15.2827 13.6246 15.4792 13.6593 15.6641 13.7296C16.0027 13.8577 16.2681 14.128 16.3899 14.469C16.4584 14.658 16.4921 14.8579 16.4895 15.0589C16.4923 15.2591 16.4585 15.4582 16.3899 15.6462C16.328 15.8139 16.2316 15.9666 16.1069 16.0946C15.9816 16.2207 15.8305 16.3181 15.6641 16.3804C15.4788 16.4489 15.2825 16.4827 15.085 16.48C14.8883 16.4829 14.6928 16.4491 14.5085 16.3804C14.343 16.3177 14.1929 16.2202 14.0683 16.0946C13.9435 15.9667 13.847 15.8139 13.7853 15.6462C13.7166 15.4582 13.6828 15.2591 13.6857 15.0589C13.683 14.8579 13.7167 14.658 13.7853 14.469ZM14.4613 15.3762C14.4804 15.4745 14.5168 15.5686 14.5687 15.6541C14.6185 15.7355 14.6879 15.8031 14.7705 15.8508C14.8544 15.8998 14.9592 15.9242 15.0849 15.9242C15.1952 15.9279 15.3045 15.9026 15.402 15.8508C15.4857 15.8036 15.556 15.736 15.6064 15.6541C15.6583 15.5686 15.6947 15.4745 15.7138 15.3762C15.7349 15.2718 15.7454 15.1655 15.7452 15.0589C15.7453 14.9515 15.7348 14.8444 15.7138 14.7391C15.6953 14.6406 15.6589 14.5464 15.6064 14.4611C15.555 14.3801 15.4849 14.3127 15.402 14.2645C15.3051 14.211 15.1955 14.1848 15.0849 14.1885C14.9591 14.1885 14.8543 14.2138 14.7705 14.2645C14.6887 14.3132 14.6195 14.3806 14.5687 14.4611C14.5162 14.5464 14.4798 14.6406 14.4613 14.7391C14.4403 14.8444 14.4298 14.9515 14.4299 15.0589C14.4297 15.1655 14.4402 15.2718 14.4613 15.3762ZM16.8877 13.2813V12.6677H17.6319V13.2812L16.8877 13.2813ZM17.6319 13.7008V16.4118H16.8877V13.7008H17.6319Z" fill="currentColor"/>
</svg>
