<svg width="24" height="24" viewBox="0 0 24 24" fill="currentColor" xmlns="http://www.w3.org/2000/svg">
<path fill-rule="evenodd" clip-rule="evenodd" d="M6.6 14.4C4.61177 14.4 3 16.0118 3 18C3 19.9882 4.61177 21.6 6.6 21.6C8.58822 21.6 10.2 19.9882 10.2 18C10.2 16.0118 8.58822 14.4 6.6 14.4ZM6.6 20.4C5.27452 20.4 4.2 19.3255 4.2 18C4.2 16.6745 5.27452 15.6 6.6 15.6C7.92548 15.6 9 16.6745 9 18C8.99851 19.3249 7.92486 20.3985 6.6 20.4ZM18 11.4C16.0118 11.4 14.4 13.0118 14.4 15C14.4 16.9882 16.0118 18.6 18 18.6C19.9882 18.6 21.6 16.9882 21.6 15C21.6 13.0118 19.9882 11.4 18 11.4ZM18 17.4C16.6745 17.4 15.6 16.3255 15.6 15C15.6 13.6745 16.6745 12.6 18 12.6C19.3255 12.6 20.4 13.6745 20.4 15C20.3985 16.3249 19.3249 17.3985 18 17.4ZM12.9 6C13.7284 6 14.4 5.32843 14.4 4.5C14.4 3.67157 13.7284 3 12.9 3C12.0716 3 11.4 3.67157 11.4 4.5C11.4 5.32843 12.0716 6 12.9 6ZM12.8626 12.1977L10.0893 10.0093L11.4712 8.28185L15.9086 10.1245C16.0965 10.2275 16.3252 10.2225 16.5085 10.1113C16.6917 10 16.8017 9.79948 16.797 9.58516C16.7923 9.37084 16.6736 9.17532 16.4856 9.07224L11.439 6.18415C10.9226 5.859 10.2442 5.97379 9.86316 6.45053L7.46297 9.45038C7.25276 9.71293 7.16262 10.0518 7.21418 10.3842C7.26575 10.7165 7.45448 11.0119 7.73436 11.1984C7.7654 11.2192 7.79781 11.2387 7.83077 11.2566L11.4 13.4079V16.5C11.4 16.9971 11.8029 17.4 12.3 17.4C12.7971 17.4 13.2 16.9971 13.2 16.5V12.9C13.2002 12.6268 13.076 12.3683 12.8626 12.1977Z" fill="currentColor"/>
</svg>
