<svg width="24" height="24" viewBox="0 0 24 24" fill="currentColor" xmlns="http://www.w3.org/2000/svg">
<path fill-rule="evenodd" clip-rule="evenodd" d="M2.60435 4.57308C2.63741 4.57208 2.67048 4.57168 2.70435 4.57168C2.6987 4.57168 2.69314 4.57168 2.68766 4.57168C2.65959 4.57118 2.63209 4.57208 2.60435 4.57308ZM3.1896 12.5774C3.1918 12.5774 3.1935 12.5774 3.1954 12.5774H3.1788H3.1896ZM21.3625 4.66107C21.3745 4.66107 21.3862 4.66107 21.398 4.66107H21.388C21.3797 4.66067 21.3711 4.66107 21.3625 4.66107ZM20.7464 12.5921C20.7505 12.5921 20.7546 12.5921 20.7587 12.5921C20.7519 12.5921 20.7459 12.5921 20.7395 12.5921C20.7419 12.5916 20.744 12.5921 20.7464 12.5921ZM21.9812 4.7226C21.8366 4.56204 21.6224 4.48078 21.3442 4.48078C21.2901 4.48092 21.2361 4.48377 21.1822 4.48932C21.1015 4.49758 20.8344 4.52134 20.4648 4.55412C18.8766 4.69572 15.1574 5.02731 14.4574 5.16852C14.1344 5.23378 13.9404 5.36429 13.8808 5.55641C13.793 5.83882 14.0435 6.1074 14.0722 6.13721L15.1012 7.18935L12.5712 9.65729C12.1841 9.61449 11.7934 9.61749 11.407 9.66624L8.8113 7.14063L9.81105 6.1284C9.84045 6.09828 10.0908 5.83114 9.99757 5.55823C9.93234 5.36719 9.72364 5.24556 9.37727 5.19653C9.33378 5.19036 5.00303 4.57831 2.76877 4.39776C2.72077 4.39387 2.67385 4.39191 2.62914 4.39191C2.33394 4.39191 2.10945 4.47658 1.96194 4.64364C1.8057 4.82069 1.74769 5.07663 1.78941 5.40418C1.79951 5.48434 1.82977 5.74887 1.87151 6.11489C2.05233 7.69762 2.47569 11.4042 2.63447 12.0999C2.74429 12.5806 2.97527 12.6815 3.14968 12.6815C3.38968 12.6815 3.59142 12.4831 3.61367 12.4606L4.64217 11.4079L7.11208 13.8114C7.07068 14.0702 7.0497 14.3318 7.04934 14.5938C7.04934 16.3709 7.9974 18.013 9.5364 18.9015C11.0754 19.7901 12.9715 19.7901 14.5105 18.9015C16.0495 18.013 16.9976 16.3709 16.9976 14.5938C16.9975 14.3092 16.9732 14.0251 16.9248 13.7446L19.2714 11.4557L20.2604 12.4783C20.2827 12.5012 20.48 12.6961 20.7105 12.6961C20.8878 12.6961 21.1172 12.5872 21.2038 12.0683C21.211 12.0251 21.9299 7.72193 22.1659 5.49185C22.2015 5.15703 22.1394 4.89819 21.9812 4.7226ZM2.60435 4.57308C2.63209 4.57208 2.65959 4.57118 2.68766 4.57168C2.69314 4.57168 2.6987 4.57168 2.70435 4.57168C2.67048 4.57168 2.63741 4.57208 2.60435 4.57308ZM3.1896 12.5774H3.1788H3.1954C3.1935 12.5774 3.1918 12.5774 3.1896 12.5774ZM11.9755 17.5837C10.3353 17.5811 9.00747 16.2499 9.00916 14.6097C9.01085 12.9695 10.3414 11.641 11.9816 11.6418C13.6218 11.6426 14.951 12.9725 14.951 14.6127C14.9504 15.4013 14.6366 16.1573 14.0786 16.7145C13.5206 17.2716 12.764 17.5843 11.9755 17.5837ZM20.7464 12.5921C20.744 12.5921 20.7419 12.5916 20.7395 12.5921C20.7459 12.5921 20.7519 12.5921 20.7587 12.5921C20.7546 12.5921 20.7505 12.5921 20.7464 12.5921ZM21.3625 4.66107C21.3711 4.66107 21.3797 4.66067 21.388 4.66107H21.398C21.3862 4.66107 21.3745 4.66107 21.3625 4.66107Z" fill="currentColor"/>
</svg>
