<svg width="24" height="24" viewBox="0 0 24 24" fill="currentColor" xmlns="http://www.w3.org/2000/svg">
<path fill-rule="evenodd" clip-rule="evenodd" d="M19.5868 17.8497C19.3328 18.1756 18.9425 18.3661 18.5293 18.3659H17.5387C17.4968 18.4371 17.4541 18.5071 17.4108 18.5758L17.4074 18.5812C17.3877 18.6124 17.3677 18.6435 17.3474 18.6743L17.3378 18.6889C17.2539 18.816 17.1657 18.9399 17.0731 19.0604L17.0587 19.0792C17.0378 19.1062 17.0166 19.1331 16.9953 19.1599C16.9902 19.1662 16.9851 19.1725 16.98 19.1788C16.9123 19.2629 16.8425 19.3452 16.7706 19.4257C16.765 19.432 16.7595 19.4383 16.7538 19.4445C16.7326 19.4682 16.7111 19.4916 16.6894 19.5149C16.6809 19.5242 16.6723 19.5334 16.6636 19.5426C16.6422 19.5654 16.6206 19.5881 16.5988 19.6107C16.5916 19.6181 16.5845 19.6253 16.5774 19.6326C16.5056 19.7062 16.432 19.7781 16.3566 19.8483C16.3501 19.8544 16.3437 19.8605 16.3372 19.8666C16.0279 20.153 15.8458 20.5511 15.8316 20.9724C15.8312 20.9824 15.8307 20.9923 15.8302 21.0023C15.7994 21.5285 15.4531 21.9911 14.947 22.1417C14.8198 22.18 14.6878 22.1997 14.5551 22.2C14.3313 22.2004 14.1114 22.1418 13.9175 22.0301C13.3703 21.7146 12.7439 21.5617 12.1121 21.5617C12.0979 21.5617 12.0838 21.5618 12.0697 21.5619C12.0465 21.5622 12.0233 21.5623 12.0001 21.5623C11.9768 21.5623 11.9532 21.5622 11.9299 21.5619C11.9158 21.5618 11.9017 21.5617 11.8876 21.5617C11.2559 21.5617 10.6294 21.7147 10.0822 22.0301C9.88828 22.1418 9.66838 22.2004 9.44462 22.2C9.33492 22.2 9.22564 22.1864 9.11918 22.1599C8.56167 22.0201 8.16983 21.5202 8.1672 20.9454V20.9354C8.16811 20.5482 8.00518 20.1786 7.71869 19.918C7.7166 19.9162 7.71456 19.9142 7.71247 19.9123C7.7009 19.9018 7.68955 19.8912 7.67805 19.8807C7.65487 19.8594 7.63182 19.838 7.60891 19.8164C7.59549 19.8037 7.5822 19.7909 7.5689 19.7782C7.5481 19.7581 7.52742 19.738 7.50686 19.7176C7.49336 19.7043 7.47989 19.6909 7.46645 19.6775C7.44574 19.6567 7.42521 19.6357 7.40486 19.6145C7.39238 19.6016 7.37981 19.5888 7.36745 19.5758C7.33705 19.5438 7.30697 19.5116 7.27723 19.4791C7.26353 19.4641 7.25011 19.4488 7.23655 19.4336C7.21956 19.4146 7.20257 19.3957 7.18579 19.3765C7.1694 19.3578 7.15325 19.3388 7.13709 19.3199C7.1238 19.3043 7.11057 19.2887 7.0974 19.2731C7.08007 19.2524 7.06287 19.2316 7.0458 19.2106C7.03493 19.1973 7.0242 19.1839 7.0134 19.1705C6.99482 19.1474 6.97629 19.1242 6.95803 19.1009C6.95323 19.0948 6.94862 19.0886 6.94387 19.0824C6.87456 18.993 6.80762 18.9016 6.74306 18.8084C6.73898 18.8025 6.73485 18.7966 6.73077 18.7907C6.71023 18.7608 6.68995 18.7308 6.66993 18.7005C6.66613 18.6948 6.66233 18.689 6.65853 18.6833C6.59031 18.5796 6.52515 18.4739 6.46305 18.366H5.47464C5.06164 18.3672 4.67113 18.178 4.41612 17.8531C3.14486 16.2248 2.43769 14.2272 2.40132 12.1617C2.3016 6.8212 6.62837 2.41048 11.9813 2.40041C17.2919 2.39044 21.6 6.68306 21.6 11.9797C21.6031 14.1063 20.8943 16.1727 19.5868 17.8497ZM7.23734 18.422L7.2624 18.4368L7.26847 18.4456C7.32653 18.5294 7.38734 18.6124 7.44914 18.6922L7.45817 18.7039L7.46191 18.7087C7.47835 18.7298 7.49505 18.7506 7.51176 18.7714L7.51284 18.7727C7.52223 18.7845 7.53165 18.7961 7.54109 18.8078C7.5563 18.8264 7.57181 18.8452 7.58741 18.8638C7.59941 18.8782 7.61141 18.8921 7.62341 18.9061L7.62581 18.909C7.63951 18.925 7.65319 18.9411 7.66709 18.957C7.68098 18.9729 7.6943 18.9878 7.70789 19.003L7.71285 19.0085L7.72853 19.0262C7.73544 19.0339 7.74233 19.0417 7.74933 19.0494C7.77494 19.0774 7.80151 19.1059 7.83067 19.1366C7.83727 19.1435 7.84401 19.1504 7.85073 19.1574L7.86425 19.1713C7.88277 19.1905 7.90121 19.2094 7.91983 19.2281C7.93183 19.2401 7.94397 19.2521 7.95614 19.2641C7.97475 19.2825 7.99341 19.3007 8.01211 19.3187L8.01305 19.3196C8.02466 19.3307 8.03628 19.3419 8.04801 19.353C8.06868 19.3726 8.08946 19.3918 8.11041 19.4109L8.12513 19.4245C8.13057 19.4295 8.13602 19.4346 8.14152 19.4395L8.14941 19.4467C8.56775 19.828 8.80612 20.3679 8.80605 20.9339V20.9371C8.80589 21.221 8.99764 21.4691 9.2724 21.5405C9.32875 21.5546 9.3866 21.5619 9.44469 21.5621C9.55639 21.5626 9.66622 21.5335 9.76291 21.4775C10.3915 21.1151 11.1263 20.9237 11.8877 20.9237C11.9042 20.9237 11.9205 20.9237 11.937 20.924C11.9565 20.9242 11.976 20.9244 11.9956 20.9244H12.0002C12.0211 20.9244 12.042 20.9243 12.0629 20.924C12.0793 20.9239 12.0957 20.9238 12.1121 20.9238C12.8736 20.9238 13.6083 21.1153 14.2369 21.4775C14.3336 21.5335 14.4434 21.5627 14.5551 21.5621C14.6262 21.5617 14.6968 21.5511 14.7647 21.5304C15.0052 21.4588 15.1771 21.2316 15.1927 20.9649C15.193 20.9597 15.1933 20.9544 15.1935 20.9491C15.2126 20.3578 15.4685 19.7991 15.9036 19.3983L15.9082 19.394C15.9125 19.39 15.9168 19.3859 15.9211 19.3818C15.9886 19.3189 16.0555 19.2536 16.1198 19.1876L16.1301 19.1771L16.1392 19.1678C16.1587 19.1476 16.1781 19.127 16.1974 19.1065C16.2051 19.0983 16.2128 19.09 16.2206 19.0816C16.2401 19.0606 16.2594 19.0394 16.2786 19.0182L16.285 19.011L16.2936 19.0014C16.358 18.9292 16.4215 18.8544 16.4823 18.779L16.4888 18.7709L16.496 18.7619C16.5152 18.7379 16.5342 18.7137 16.5531 18.6892L16.5613 18.6785L16.5661 18.6724C16.6405 18.5755 16.7125 18.4751 16.7807 18.3735L16.7693 18.3658H16.7496L7.2192 18.3735C7.23228 18.393 7.22484 18.4038 7.23734 18.422ZM11.9998 6.23212C8.81858 6.23212 6.23981 8.80543 6.23981 11.9797C6.23981 15.154 8.81858 17.7273 11.9998 17.7273C15.181 17.7273 17.76 15.154 17.76 11.9797C17.76 8.80545 15.181 6.23212 11.9998 6.23212ZM12.002 16.4489C9.52829 16.4489 7.52294 14.4462 7.52294 11.9758C7.52294 9.50531 9.52829 7.50266 12.002 7.50266C14.4757 7.50266 16.4811 9.50534 16.4811 11.9758C16.4811 14.4462 14.4757 16.4489 12.002 16.4489ZM8.38759 11.0419C8.35152 11.1815 8.32362 11.323 8.30402 11.4658C8.28701 11.5948 8.32656 11.7249 8.41251 11.8226C8.49845 11.9203 8.62242 11.9762 8.75256 11.9758H9.33521C9.56349 11.9749 9.75812 11.8101 9.79649 11.585C9.80023 11.5637 9.80429 11.5426 9.80865 11.5215C9.85874 11.2817 9.73757 11.039 9.51585 10.9349L9.06357 10.723C8.9327 10.6618 8.78141 10.6621 8.65077 10.7238C8.52013 10.7854 8.4236 10.902 8.38759 11.0419ZM12.002 8.74348C12.0017 8.60897 11.943 8.48122 11.8411 8.39335C11.7393 8.30549 11.6043 8.26617 11.4712 8.28559C10.5447 8.41809 9.70192 8.89415 9.11016 9.61924C9.00897 9.74365 8.97081 9.90778 9.00672 10.0641C9.04264 10.2204 9.14862 10.3514 9.29397 10.4191L9.67977 10.5999C9.90938 10.7064 10.1816 10.6514 10.3518 10.4641C10.6962 10.0884 11.1586 9.84169 11.6625 9.7648C11.8569 9.73646 12.0013 9.57009 12.0021 9.3736L12.002 8.74348ZM11.9736 10.4849C11.1579 10.5015 10.5071 11.1706 10.5129 11.9864C10.5188 12.8022 11.1793 13.4619 11.9951 13.4667C12.8109 13.4716 13.4791 12.8198 13.4947 12.0041C13.5007 11.5991 13.3423 11.2089 13.0557 10.9226C12.7691 10.6363 12.3787 10.4784 11.9736 10.4849ZM14.0549 13.4668C13.7461 13.4671 13.4961 13.7177 13.4963 14.0264C13.4966 14.3352 13.747 14.5853 14.0557 14.5852C14.3645 14.5851 14.6147 14.3347 14.6147 14.026C14.6146 13.8776 14.5556 13.7353 14.4506 13.6304C14.3456 13.5256 14.2032 13.4667 14.0549 13.4668Z" fill="currentColor"/>
</svg>
