<svg width="24" height="24" viewBox="0 0 24 24" fill="currentColor" xmlns="http://www.w3.org/2000/svg">
<path fill-rule="evenodd" clip-rule="evenodd" d="M22.1958 11.9957L20.085 9.82823L20.8292 6.89572L17.9175 6.074L17.0958 3.16225L14.1633 3.90649L11.9958 1.79572L9.82829 3.90649L6.89578 3.16225L6.07406 6.074L3.16231 6.89572L3.90655 9.82823L1.79578 11.9957L3.90655 14.1632L3.16231 17.0957L6.07406 17.9174L6.89578 20.8292L9.82829 20.0849L11.9958 22.1957L14.1633 20.0849L17.0958 20.8292L17.9175 17.9174L20.8292 17.0957L20.085 14.1632L22.1958 11.9957ZM11.9958 18.5833C8.3507 18.5833 5.39578 15.6284 5.39578 11.9833C5.39578 8.33826 8.3507 5.38333 11.9958 5.38333C15.6408 5.38333 18.5958 8.33826 18.5958 11.9833C18.5958 15.6284 15.6408 18.5833 11.9958 18.5833Z" fill="currentColor"/>
</svg>
