<svg width="24" height="24" viewBox="0 0 24 24" fill="currentColor" xmlns="http://www.w3.org/2000/svg">
<path fill-rule="evenodd" clip-rule="evenodd" d="M4.75893 4.71858C5.9305 3.54701 7.82999 3.54701 9.00156 4.71858L19.1839 14.9009C20.3555 16.0725 20.3555 17.972 19.1839 19.1436C18.0123 20.3151 16.1128 20.3151 14.9413 19.1436L4.75893 8.96122C4.19632 8.39861 3.88025 7.63555 3.88025 6.8399C3.88025 6.04425 4.19632 5.28119 4.75893 4.71858ZM6.03172 5.99137C6.50035 5.52274 7.26015 5.52274 7.72878 5.99137C8.19741 6.46 8.19741 7.2198 7.72878 7.68843C7.26015 8.15706 6.50035 8.15706 6.03172 7.68843C5.80668 7.46339 5.68025 7.15816 5.68025 6.8399C5.68025 6.52164 5.80668 6.21641 6.03172 5.99137ZM14.0928 11.5068L13.2442 12.3552L14.0928 13.2038L13.2443 14.0524L12.3957 13.2038L11.5471 14.0524L10.6986 13.2038L11.5471 12.3552L10.6986 11.5068L11.5471 10.6583L12.3957 11.5068L13.2442 10.6583L14.0928 11.5068ZM12.7009 17.7998C12.6205 17.7176 12.5104 17.6713 12.3955 17.6713C12.2805 17.6713 12.1704 17.7176 12.09 17.7998L11.1566 18.7331L10.2186 17.8002C10.1392 17.718 10.0298 17.6716 9.91556 17.6715C9.80128 17.6714 9.69186 17.7177 9.61231 17.7998L8.64499 18.7671L7.3722 18.6822L8.35437 19.6644C8.43493 19.7469 8.5452 19.7935 8.66046 19.7939C8.77572 19.7943 8.88631 19.7484 8.96743 19.6665L9.90079 18.7331L10.8342 19.6665C11.0051 19.8374 11.2905 19.8212 11.4621 19.6496L12.3785 18.7331L13.3119 19.6665C13.4828 19.8374 13.7645 19.8249 13.9361 19.6533L14.2453 19.344L12.7009 17.7998ZM14.3475 4.20562L9.64953 4.20606L12.6465 7.20306L17.3445 7.20262C17.3446 5.55411 15.996 4.20546 14.3475 4.20562ZM12.3104 5.06307C12.3104 4.89739 12.4447 4.76307 12.6104 4.76307H14.4104C14.576 4.76307 14.7104 4.89739 14.7104 5.06307C14.7104 5.22876 14.576 5.36307 14.4104 5.36307H12.6104C12.4447 5.36307 12.3104 5.22876 12.3104 5.06307Z" fill="currentColor"/>
</svg>
