<svg width="24" height="24" viewBox="0 0 24 24" fill="currentColor" xmlns="http://www.w3.org/2000/svg">
<path fill-rule="evenodd" clip-rule="evenodd" d="M12.5568 13.5936C12.4051 13.4768 12.2176 13.4184 11.9941 13.4184C11.8636 13.4188 11.7349 13.4483 11.6173 13.5049C11.4984 13.56 11.3921 13.6389 11.3049 13.7367C11.1049 13.9636 11.0049 14.276 11.0049 14.674C11.0042 14.8871 11.04 15.0987 11.1109 15.2996C11.1748 15.4896 11.2895 15.6585 11.4424 15.7881C11.5926 15.9136 11.7804 15.9765 12.0058 15.9765C12.235 15.9765 12.4241 15.9149 12.5729 15.7917C12.724 15.665 12.8368 15.4986 12.8984 15.3113C12.968 15.1061 13.0026 14.8907 13.0008 14.674C13.0022 14.4638 12.9655 14.255 12.8925 14.0579C12.827 13.8744 12.7105 13.7133 12.5568 13.5936ZM20.7274 16.7908L13.7276 4.78475C13.3695 4.16999 12.7114 3.79187 12 3.79187C11.2885 3.79187 10.6307 4.16999 10.2726 4.78475L3.28963 16.7613C3.28939 16.7616 3.28915 16.762 3.28889 16.7625L3.27245 16.7907C2.91143 17.4095 2.90888 18.174 3.2655 18.7952C3.62212 19.4165 4.28365 19.7997 4.99999 19.8H19C19.7163 19.7997 20.3778 19.4165 20.7344 18.7952C21.091 18.174 21.0883 17.4095 20.7274 16.7908ZM9.24175 16.3721C9.10224 16.5221 8.92649 16.6336 8.73141 16.6959C8.52434 16.7647 8.30748 16.7993 8.08929 16.7985C7.68118 16.7985 7.33117 16.7282 7.03927 16.5875C6.94158 16.5426 6.85654 16.4742 6.79178 16.3883C6.72974 16.3055 6.69683 16.2045 6.69818 16.1011C6.69882 15.9941 6.7414 15.8915 6.81679 15.8155C6.88624 15.7349 6.98721 15.6884 7.09358 15.688C7.17376 15.6863 7.25347 15.7007 7.32792 15.7305L7.64568 15.8492C7.78848 15.9075 7.941 15.9383 8.09522 15.94C8.22074 15.9417 8.34347 15.9029 8.44521 15.8294C8.54506 15.761 8.60305 15.6464 8.59898 15.5254C8.59898 15.3945 8.5492 15.2969 8.44963 15.2324C8.37457 15.184 8.29393 15.1449 8.20946 15.1159C8.13132 15.09 7.99757 15.0488 7.80823 14.9921C7.56314 14.9208 7.36642 14.846 7.21807 14.7679C7.07139 14.6915 6.94813 14.5768 6.86133 14.436C6.77202 14.2929 6.72736 14.1061 6.72734 13.8756C6.72734 13.6187 6.79471 13.3931 6.92945 13.1988C7.06479 13.0039 7.25055 12.8494 7.46685 12.7519C7.69031 12.6484 7.93381 12.5954 8.18006 12.5966C8.34256 12.5977 8.50459 12.6141 8.664 12.6456C8.82328 12.6736 8.97536 12.7331 9.11133 12.8207C9.23825 12.9047 9.3017 13.018 9.3017 13.1606C9.30444 13.2783 9.262 13.3926 9.18309 13.48C9.10714 13.5666 8.9966 13.615 8.88144 13.612C8.83483 13.6128 8.78837 13.6064 8.74377 13.5928L8.57534 13.5328C8.44267 13.4834 8.30251 13.4571 8.16096 13.4551C8.05047 13.4541 7.94189 13.484 7.84754 13.5415C7.75287 13.5991 7.70552 13.6802 7.70549 13.7847C7.70549 13.9488 7.82948 14.0631 8.07749 14.1276L8.32351 14.1935C8.71013 14.2981 9.01667 14.4394 9.24312 14.6177C9.46957 14.7959 9.58281 15.0545 9.58286 15.3935C9.58291 15.8076 9.4692 16.1338 9.24175 16.3721ZM13.8173 15.5853C13.7137 15.8663 13.543 16.1178 13.3202 16.3179C13.146 16.4772 12.9416 16.5997 12.719 16.6783C12.232 16.8481 11.7002 16.8377 11.2202 16.649C10.9748 16.5518 10.7538 16.4018 10.5729 16.2096C10.2088 15.8248 10.0267 15.311 10.0267 14.6683C10.0249 14.369 10.0803 14.0721 10.1899 13.7936C10.2959 13.5232 10.4642 13.2818 10.6812 13.0888C11.0444 12.7606 11.4842 12.5965 12.0007 12.5965C12.2787 12.5928 12.5545 12.6459 12.8112 12.7525C13.0492 12.8526 13.263 13.0022 13.4387 13.1914C13.6151 13.3827 13.7516 13.6073 13.84 13.8521C13.9344 14.1137 13.9815 14.39 13.9792 14.6681C13.9812 14.9811 13.9263 15.2919 13.8173 15.5853ZM16.9608 16.3721C16.8213 16.5221 16.6455 16.6336 16.4505 16.6959C16.2434 16.7647 16.0265 16.7993 15.8083 16.7985C15.4002 16.7985 15.0502 16.7282 14.7583 16.5875C14.6606 16.5426 14.5756 16.4741 14.5108 16.3883C14.4487 16.3055 14.4158 16.2046 14.4171 16.1011C14.4178 15.9941 14.4603 15.8915 14.5357 15.8155C14.6052 15.7349 14.7061 15.6884 14.8125 15.688C14.8927 15.6862 14.9724 15.7007 15.0468 15.7305L15.3646 15.8492C15.5074 15.9075 15.6599 15.9383 15.8141 15.94C15.9397 15.9417 16.0624 15.9029 16.1641 15.8294C16.264 15.761 16.322 15.6464 16.3179 15.5254C16.3179 15.3945 16.2681 15.2969 16.1686 15.2324C16.0935 15.184 16.0129 15.1449 15.9284 15.1159C15.8502 15.09 15.7165 15.0488 15.5272 14.9921C15.2821 14.9208 15.0853 14.846 14.937 14.7679C14.7903 14.6915 14.6671 14.5768 14.5803 14.436C14.491 14.2929 14.4464 14.1061 14.4464 13.8756C14.4464 13.6187 14.5137 13.3931 14.6484 13.1988C14.7838 13.0039 14.9695 12.8494 15.1859 12.7519C15.4093 12.6484 15.6528 12.5954 15.899 12.5966C16.0615 12.5977 16.2236 12.6142 16.383 12.6457C16.5423 12.6737 16.6944 12.7333 16.8304 12.8208C16.9573 12.9048 17.0207 13.0181 17.0208 13.1607C17.0235 13.2784 16.9811 13.3927 16.9021 13.4801C16.8262 13.5667 16.7157 13.6151 16.6005 13.6121C16.5539 13.613 16.5074 13.6065 16.4628 13.5929L16.2944 13.5329C16.1617 13.4835 16.0216 13.4573 15.88 13.4553C15.7695 13.4542 15.6609 13.4842 15.5666 13.5417C15.4719 13.5993 15.4246 13.6803 15.4246 13.7849C15.4246 13.949 15.5486 14.0633 15.7966 14.1277L16.0426 14.1937C16.4292 14.2982 16.7358 14.4396 16.9622 14.6178C17.1887 14.796 17.3019 15.0546 17.302 15.3936C17.3019 15.8076 17.1882 16.1338 16.9608 16.3721Z" fill="currentColor"/>
</svg>
