<svg width="24" height="24" viewBox="0 0 24 24" fill="currentColor" xmlns="http://www.w3.org/2000/svg">
<path fill-rule="evenodd" clip-rule="evenodd" d="M21.458 8.39868L13.6998 5.18424L9.56807 15.1618C9.31454 15.774 9.60517 16.4758 10.2173 16.7296L17.9755 19.944L22.1072 9.96648C22.3446 9.35957 22.0626 8.64919 21.458 8.39868ZM9.33606 16.8H8.40006C7.63686 16.8 6.98027 16.4544 6.71934 15.782L6.71526 15.7836C6.71159 15.7852 6.70806 15.7867 6.70431 15.7882C6.26737 15.9692 5.76494 15.7801 5.55577 15.3559L5.55373 15.3567L3.58302 10.5916L6.59766 9.34083V6.74422L1.56006 8.83443L5.6846 18.8079C5.8058 19.1016 6.03882 19.3351 6.33232 19.4569C6.62581 19.5786 6.95568 19.5787 7.24921 19.457L11.2524 17.7962L9.98852 17.2726C9.75612 17.1368 9.53759 16.9785 9.33606 16.8ZM6.59766 14.5157V9.95307L4.35551 10.9052L5.99583 14.7713L6.59766 14.5157ZM8.39684 16.1759H9.02975C9.02974 16.1759 9.02974 16.1759 9.02975 16.1759C9.02471 16.1644 9.01933 16.1532 9.01451 16.1416C8.83059 15.7008 8.83059 15.2048 9.01451 14.764L10.3681 11.4955C8.54823 9.63999 8.08364 7.78032 8.58675 7.27666C9.66891 6.19411 9.56696 6.06269 10.3751 7.06812C11.1828 8.07358 11.1292 8.01132 10.3299 8.81093C10.0823 9.05856 10.429 9.6007 10.9225 10.1567L13.1463 4.78637C13.2071 4.63928 13.3238 4.52239 13.4708 4.46147C13.6178 4.40055 13.783 4.4006 13.9299 4.46163L16.7931 5.64792V5.37603C16.7803 4.72443 16.248 4.17603 15.5937 4.17603H7.19749V14.9759C7.19736 15.6384 7.73426 16.1757 8.39684 16.1759ZM17.104 9.38585C15.3157 8.64783 13.2677 9.49929 12.5296 11.2876C11.7916 13.076 12.6431 15.124 14.4314 15.862C16.2198 16.6001 18.2678 15.7486 19.0058 13.9602C19.3604 13.1015 19.3592 12.137 19.0025 11.2791C18.6459 10.4212 17.9629 9.74019 17.104 9.38585ZM17.7453 15.0004L16.7805 14.6022C17.0233 14.2637 17.2312 13.9013 17.4007 13.5207L18.5401 13.9909C18.3888 14.2997 18.1866 14.5808 17.9419 14.8224C17.8787 14.8848 17.8131 14.9442 17.7453 15.0004ZM12.6769 12.6497C12.6737 12.3058 12.7285 11.9638 12.839 11.6381L13.9785 12.1084C13.8302 12.4978 13.722 12.9013 13.6556 13.3126L12.6908 12.9144C12.6823 12.8267 12.6775 12.7384 12.6769 12.6497ZM13.791 10.2477L14.7558 10.6458C14.5129 10.9844 14.3051 11.3468 14.1356 11.7274L12.9961 11.2572C13.1474 10.9483 13.3496 10.6672 13.5944 10.4256C13.6575 10.3632 13.7231 10.3039 13.791 10.2477ZM17.4617 11.9452C17.3994 12.2991 17.304 12.6464 17.1769 12.9824L16.0373 12.5122L16.5088 11.3693L17.4882 11.7734C17.4803 11.8301 17.4716 11.8874 17.4617 11.9452ZM16.6659 10.9883L17.1235 9.87924C17.197 9.94715 17.2587 10.0269 17.3059 10.1152C17.4137 10.31 17.4859 10.5723 17.5148 10.8738C17.5293 11.0299 17.5333 11.1869 17.5268 11.3435L16.6659 10.9883ZM16.4469 9.76083C16.5426 9.7315 16.6425 9.71842 16.7426 9.72214L16.285 10.8312L15.4243 10.476C15.5301 10.3604 15.6435 10.2519 15.7639 10.1514C15.9969 9.95789 16.2331 9.82284 16.4469 9.76083ZM16.1277 11.2122L15.6561 12.3551L14.5166 11.8848C14.6634 11.5568 14.8406 11.2434 15.046 10.9485C15.0797 10.9005 15.1138 10.8537 15.1483 10.808L16.1277 11.2122ZM14.0746 13.3029C14.1369 12.9491 14.2323 12.6018 14.3594 12.2658L15.499 12.7362L15.0274 13.879L14.048 13.4749C14.0559 13.418 14.0647 13.3608 14.0746 13.3029ZM14.8705 14.2598L14.4129 15.3689C14.3393 15.3009 14.2776 15.2212 14.2305 15.1329C14.1227 14.9381 14.0505 14.6757 14.0217 14.3743C14.0072 14.2182 14.0031 14.0612 14.0097 13.9046L14.8705 14.2598ZM15.0894 15.4874C14.9937 15.5167 14.8938 15.5298 14.7938 15.5261L15.2514 14.417L16.1121 14.7722C16.0063 14.8879 15.8928 14.9963 15.7725 15.0968C15.5393 15.2902 15.3032 15.4252 15.0894 15.4874ZM15.4086 14.036L15.8802 12.8931L17.0197 13.3634C16.8729 13.6913 16.6957 14.0048 16.4903 14.2997C16.4566 14.3477 16.4225 14.3945 16.388 14.4402L15.4086 14.036ZM17.5581 13.1397C17.7063 12.7503 17.8145 12.3468 17.881 11.9355L18.8458 12.3337C18.8541 12.4214 18.8589 12.5097 18.8596 12.5984C18.8628 12.9423 18.808 13.2843 18.6975 13.61L17.5581 13.1397ZM18.622 11.4373C18.6782 11.5725 18.7249 11.7114 18.7616 11.8531L17.9301 11.5099C17.962 11.0657 17.9279 10.6597 17.8306 10.3206C17.8771 10.3622 17.9224 10.4053 17.9665 10.45C18.2468 10.7336 18.4695 11.0689 18.622 11.4373ZM15.7425 9.53232C15.8052 9.53178 15.8678 9.53314 15.9301 9.5364C15.622 9.70824 15.3115 9.97205 15.0209 10.3095L14.1895 9.96627C14.3154 9.89171 14.4464 9.82611 14.5815 9.76995C14.9495 9.61636 15.3438 9.53566 15.7425 9.53232ZM12.9145 13.8107C12.8583 13.6756 12.8116 13.5367 12.7749 13.395L13.6064 13.7382C13.5745 14.1824 13.6086 14.5884 13.7059 14.9275C13.6594 14.8859 13.6141 14.8428 13.57 14.7981C13.2896 14.5145 13.067 14.1792 12.9145 13.8107ZM15.7937 15.7158C15.731 15.7163 15.6685 15.715 15.6061 15.7117C15.9142 15.5399 16.2247 15.276 16.5153 14.9386L17.3467 15.2818C17.2208 15.3564 17.0898 15.422 16.9547 15.4782C16.5867 15.6318 16.1924 15.7124 15.7937 15.7158Z" fill="currentColor"/>
</svg>
