<svg width="24" height="24" viewBox="0 0 24 24" fill="currentColor" xmlns="http://www.w3.org/2000/svg">
<path fill-rule="evenodd" clip-rule="evenodd" d="M14.2188 11.6348C13.6716 11.6348 13.2972 12.2108 13.2972 13.262C13.2972 14.3132 13.6644 14.8964 14.2188 14.8964C14.7732 14.8964 15.1404 14.3132 15.1404 13.262C15.1404 12.2108 14.766 11.6348 14.2188 11.6348ZM21.0525 12.992C21.1507 12.5345 21.2001 12.0679 21.2 11.6C21.2 7.95493 18.2451 5 14.6 5C12.603 4.99821 10.713 5.90249 9.46136 7.45861C8.70979 7.29947 7.92601 7.46779 7.30604 7.92147C6.68608 8.37515 6.28855 9.07129 6.21289 9.83579C3.8389 10.1253 2 12.1478 2 14.6C2 17.251 4.14903 19.4 6.8 19.4H18.8C20.3279 19.4 21.6893 18.4353 22.196 16.9938C22.7026 15.5524 22.2442 13.9481 21.0525 12.992ZM10.1077 15.9764C8.62446 15.9764 7.60206 14.918 7.60206 13.2692C7.60206 11.6276 8.71086 10.562 10.1221 10.562C11.0293 10.562 11.6557 10.9724 11.6557 11.3828C11.6557 11.6564 11.4325 11.9084 11.1589 11.9084C10.8925 11.9084 10.5541 11.7068 10.1293 11.7068C9.38046 11.7068 8.86926 12.3116 8.86926 13.298C8.86926 14.2556 9.38046 14.846 10.1653 14.846C10.6549 14.846 10.9789 14.5796 11.2525 14.5796C11.4901 14.5796 11.7205 14.8172 11.7205 15.0908C11.7205 15.5444 11.0725 15.9764 10.1077 15.9764ZM14.2117 15.9764C12.9373 15.9764 12.0805 14.9684 12.0805 13.2692C12.0805 11.57 12.9373 10.562 14.2117 10.562C15.4861 10.562 16.3501 11.57 16.3501 13.2692C16.3501 14.9684 15.4861 15.9764 14.2117 15.9764ZM18.5306 17.248H17.153C16.841 17.248 16.6874 17.1328 16.6874 16.888C16.6874 16.696 16.9226 16.4704 17.3066 16.048C17.8538 15.4432 18.1706 15.0592 18.1706 14.7904C18.1706 14.5936 18.041 14.464 17.8778 14.464C17.729 14.464 17.5946 14.5792 17.5082 14.8144C17.4122 15.0784 17.3354 15.208 17.129 15.208C16.9034 15.208 16.745 15.0496 16.745 14.8096C16.745 14.632 16.8314 14.3728 16.985 14.1808C17.2049 13.8985 17.544 13.7351 17.9018 13.7392C18.569 13.7392 18.9962 14.1808 18.9962 14.752C18.9962 15.2992 18.5594 15.7888 17.8154 16.528H18.5306C18.9002 16.528 19.0826 16.6432 19.0826 16.888C19.0826 17.1328 18.9002 17.248 18.5306 17.248Z" fill="currentColor"/>
</svg>
