<svg width="24" height="24" viewBox="0 0 24 24" fill="currentColor" xmlns="http://www.w3.org/2000/svg">
<path fill-rule="evenodd" clip-rule="evenodd" d="M15.5359 12.8509C15.4978 12.8197 15.4609 12.7863 15.4252 12.7507C15.3896 12.7152 15.3562 12.6783 15.3251 12.6401C15.274 12.5777 15.2281 12.5112 15.1878 12.4414C14.6828 12.8394 14.3884 13.4471 14.389 14.0901C14.389 14.1407 14.3909 14.1909 14.3945 14.2405C14.8495 14.6168 15.3981 14.8626 15.9818 14.9517C15.656 14.4952 15.4815 13.9481 15.4829 13.3872C15.4829 13.2072 15.5006 13.0275 15.5359 12.8509ZM16.3465 12.5787C16.3567 12.5803 16.367 12.5818 16.3773 12.5831C16.392 12.5849 16.4066 12.5864 16.4213 12.5874C16.4248 12.5877 16.4282 12.5879 16.4317 12.5881C16.5282 12.5939 16.6251 12.5842 16.7185 12.5593C16.8214 12.5318 16.9184 12.4862 17.0052 12.4245C17.0882 12.3658 17.1606 12.2934 17.2192 12.2104C17.2808 12.1236 17.3265 12.0264 17.3539 11.9235C17.3948 11.7707 17.3948 11.6097 17.3539 11.4569C17.3265 11.354 17.2808 11.2568 17.2192 11.17C17.1606 11.087 17.0882 11.0145 17.0052 10.9559C16.9184 10.8942 16.8214 10.8486 16.7185 10.8211C16.6251 10.7962 16.5282 10.7864 16.4317 10.7923C16.4282 10.7925 16.4248 10.7927 16.4213 10.7929C16.4066 10.794 16.392 10.7955 16.3773 10.7973C16.367 10.7985 16.3567 10.8001 16.3465 10.8017C16.3413 10.8025 16.3362 10.8033 16.3311 10.8042C16.2281 10.8223 16.129 10.8584 16.0385 10.9107C15.9016 10.9899 15.7878 11.1037 15.7087 11.2407C15.6554 11.3329 15.619 11.4339 15.6012 11.5389C15.584 11.6391 15.584 11.7415 15.6012 11.8417C15.619 11.9467 15.6554 12.0476 15.7087 12.1398C15.7878 12.2768 15.9016 12.3906 16.0385 12.4698C16.129 12.5222 16.2281 12.5582 16.3311 12.5763C16.3362 12.5771 16.3413 12.5779 16.3465 12.5787ZM18.3959 11.1993C18.2687 11.3267 18.1292 11.4411 17.9795 11.541C17.9843 11.5901 17.9869 11.6398 17.9869 11.6901C17.9869 11.7404 17.9844 11.7901 17.9795 11.8392C17.9715 11.9201 17.9568 12.0001 17.9357 12.0786C18.5739 12.1543 19.2116 11.9329 19.6655 11.478C19.7021 11.4413 19.737 11.4037 19.7702 11.365C19.7138 10.777 19.499 10.2152 19.1488 9.73953C19.0568 10.2929 18.7934 10.8035 18.3959 11.1993ZM17.6456 12.6401C17.5848 12.7141 17.517 12.7823 17.4433 12.8435C17.4404 12.8459 17.4376 12.8485 17.4347 12.8509C17.4323 12.8528 17.4301 12.8544 17.4278 12.8563C17.411 12.8699 17.3939 12.8832 17.3765 12.8961C17.3704 12.9006 17.3643 12.9048 17.3582 12.9092C17.3406 12.9219 17.3228 12.9344 17.3047 12.9462C17.3034 12.9471 17.3021 12.9478 17.3008 12.9486C17.2797 12.9623 17.2586 12.976 17.2369 12.9886C17.6343 13.495 18.2426 13.7906 18.8864 13.7901C18.937 13.7901 18.9872 13.7881 19.0368 13.7846C19.4139 13.3279 19.6598 12.7773 19.7482 12.1917C19.2915 12.5191 18.7433 12.6945 18.1814 12.693C18.0014 12.6931 17.822 12.6754 17.6456 12.6401ZM14.9948 11.8401C14.9768 11.6595 14.9914 11.4772 15.038 11.3019C14.3988 11.2251 13.7598 11.4465 13.3052 11.9022C13.2702 11.9372 13.2368 11.973 13.205 12.0099C13.2606 12.5998 13.4755 13.1635 13.8268 13.6406C13.9188 13.0873 14.1822 12.5767 14.5797 12.1809C14.7065 12.0539 14.8455 11.9398 14.9948 11.8401ZM16.3388 10.1976C16.3878 10.1928 16.4375 10.1901 16.4878 10.1901C16.5381 10.1901 16.5878 10.1927 16.6368 10.1976C16.7167 10.2055 16.7959 10.22 16.8734 10.2408C16.9499 9.60177 16.7287 8.96306 16.2734 8.50824C16.2377 8.47253 16.2011 8.43842 16.1634 8.40593C15.5755 8.46234 15.0139 8.67723 14.5385 9.0277C15.0916 9.11981 15.6019 9.38327 15.9974 9.78091C16.1246 9.90818 16.239 10.0477 16.3388 10.1976ZM17.4348 10.5293C17.4377 10.5317 17.4404 10.5343 17.4434 10.5367C17.5803 10.6501 17.6962 10.7869 17.7856 10.9406C18.2918 10.5426 18.5872 9.93405 18.5866 9.29006C18.5866 9.23945 18.5846 9.18926 18.5811 9.13958C18.1246 8.76213 17.5739 8.51603 16.9881 8.42767C17.3144 8.8843 17.4892 9.43182 17.4878 9.99305C17.4878 10.1731 17.4701 10.3527 17.4348 10.5293ZM15.3252 10.7401C15.3564 10.702 15.3898 10.6651 15.4253 10.6294C15.4608 10.5938 15.4976 10.5604 15.5359 10.5293C15.5992 10.4774 15.6666 10.4308 15.7375 10.3901C15.34 9.88445 14.7323 9.58948 14.0891 9.59006C14.0386 9.59006 13.9883 9.59201 13.9388 9.59556C13.5625 10.0513 13.3169 10.6005 13.228 11.1847C13.6836 10.8597 14.2296 10.6857 14.7892 10.6871C14.9692 10.687 15.1487 10.7048 15.3252 10.7401ZM20.3856 5.99006H4.79442V4.19006C4.39417 4.19006 2.52075 4.19006 2.08395 4.19006C1.92293 4.19651 1.79572 4.32891 1.79572 4.49006C1.79572 4.65121 1.92293 4.78362 2.08395 4.79006H3.59509V7.19006H2.68362C2.5226 7.19651 2.39538 7.32891 2.39538 7.49006C2.39538 7.65121 2.5226 7.78362 2.68362 7.79006H3.59509V8.39006H2.99542C2.66455 8.39113 2.39664 8.65919 2.39576 8.99006V10.7901C2.39664 11.1209 2.66455 11.389 2.99542 11.3901H3.59509V12.5901H2.68362C2.5226 12.5965 2.39538 12.7289 2.39538 12.8901C2.39538 13.0512 2.5226 13.1836 2.68362 13.1901H3.59509V13.7901H2.99542C2.66455 13.7911 2.39664 14.0592 2.39576 14.3901V16.1901C2.39663 16.5209 2.66455 16.789 2.99542 16.7901H3.59509V19.1901C3.59509 19.5212 3.86357 19.7897 4.19475 19.7897C4.52594 19.7897 4.79442 19.5212 4.79442 19.1901V17.3901H6.59339V18.5901C6.59427 18.9209 6.86218 19.189 7.19305 19.1901H9.29187C9.88971 19.1901 11.0928 19.1901 11.6905 19.1901C12.2017 19.1896 13.2836 19.1904 13.7893 19.1901C14.1202 19.189 14.3881 18.9209 14.389 18.5901V17.3901H15.5883V18.6423C15.5891 18.9444 15.8337 19.1891 16.1357 19.1901C16.6101 19.1899 17.5649 19.1902 18.0392 19.1901C18.3412 19.1891 18.5858 18.9444 18.5866 18.6423V17.3901H20.3856C21.3782 17.3869 22.1819 16.5827 22.1846 15.5901V7.79006C22.1819 6.79745 21.3782 5.99327 20.3856 5.99006ZM3.59518 16.189C3.59486 16.1893 3.59449 16.1897 3.5941 16.19H2.99655C2.99616 16.1897 2.9958 16.1894 2.99547 16.189V14.3911C2.9958 14.3908 2.99616 14.3904 2.99655 14.3901H3.59415C3.59455 14.3904 3.59491 14.3907 3.59523 14.3911L3.59518 16.189ZM3.59518 10.789C3.59486 10.7893 3.5945 10.7897 3.5941 10.79H2.99655C2.99616 10.7897 2.9958 10.7893 2.99547 10.789V8.99117C2.99581 8.99078 2.99617 8.99041 2.99655 8.99006H3.59415C3.59455 8.99039 3.59491 8.99075 3.59523 8.99114L3.59518 10.789ZM6.89322 8.99006H10.4912C10.6569 8.99006 10.7912 9.12438 10.7912 9.29006C10.7912 9.45575 10.6569 9.59006 10.4912 9.59006H6.89322C6.72753 9.59006 6.59322 9.45575 6.59322 9.29006C6.59322 9.12438 6.72753 8.99006 6.89322 8.99006ZM6.89322 11.3901H10.4912C10.6569 11.3901 10.7912 11.5244 10.7912 11.6901C10.7912 11.8557 10.6569 11.9901 10.4912 11.9901H6.89322C6.72753 11.9901 6.59322 11.8557 6.59322 11.6901C6.59322 11.5244 6.72753 11.3901 6.89322 11.3901ZM6.89322 14.3901C6.72753 14.3901 6.59322 14.2557 6.59322 14.0901C6.59322 13.9244 6.72753 13.7901 6.89322 13.7901H10.4912C10.6569 13.7901 10.7912 13.9244 10.7912 14.0901C10.7912 14.2557 10.6569 14.3901 10.4912 14.3901H6.89322ZM13.7894 18.589C13.789 18.5894 13.7887 18.5897 13.7883 18.5901H13.1897V18.2901C13.1897 18.1245 13.0554 17.9902 12.8898 17.9902C12.7242 17.9902 12.59 18.1245 12.59 18.2901V18.5901H11.9903V18.2901C11.9903 18.1245 11.8561 17.9902 11.6905 17.9902C11.5249 17.9902 11.3907 18.1245 11.3907 18.2901V18.5901H10.791V18.2901C10.791 18.1245 10.6568 17.9902 10.4912 17.9902C10.3256 17.9902 10.1913 18.1245 10.1913 18.2901V18.5901H9.59175V18.2901C9.59272 18.1823 9.53578 18.0823 9.44262 18.0282C9.34946 17.974 9.2344 17.974 9.14124 18.0282C9.04808 18.0823 8.99115 18.1823 8.99211 18.2901V18.5901H8.39238V18.2901C8.39238 18.1245 8.25814 17.9902 8.09255 17.9902C7.92695 17.9902 7.79271 18.1245 7.79271 18.2901V18.5901H7.19415C7.19376 18.5897 7.1934 18.5894 7.19307 18.589V17.3901H13.7894V18.589ZM17.987 18.5901H17.3873V18.2901C17.3882 18.1823 17.3313 18.0823 17.2381 18.0282C17.145 17.974 17.0299 17.974 16.9368 18.0282C16.8436 18.0823 16.7867 18.1823 16.7876 18.2901V18.5901H16.188V17.3901H17.987V18.5901ZM19.9362 13.5089C19.774 13.8156 19.572 14.0995 19.3352 14.3531C18.221 15.6031 16.1671 15.9714 14.6701 15.1405C14.3635 14.9781 14.0798 14.776 13.8263 14.5391C13.3298 14.0754 12.9631 13.4898 12.7625 12.8407C12.7622 12.8418 12.7618 12.8429 12.7615 12.8441C12.6592 12.5124 12.6015 12.1686 12.59 11.8217C12.5907 11.8206 12.5915 11.8195 12.5924 11.8185C12.5693 11.1416 12.7234 10.4704 13.0394 9.8713C13.2016 9.56456 13.4036 9.28067 13.6404 9.02705C14.1025 8.53176 14.6858 8.16544 15.3326 7.96421C15.6641 7.86214 16.0072 7.80431 16.3539 7.79246C17.0323 7.76839 17.7052 7.92254 18.3055 8.23956C18.6121 8.40195 18.8958 8.60401 19.1493 8.8409C20.3986 9.95592 20.7667 12.011 19.9362 13.5089ZM16.6368 13.1826C16.5878 13.1874 16.5381 13.1901 16.4878 13.1901C16.4375 13.1901 16.3878 13.1875 16.3388 13.1826C16.2775 13.1764 16.2166 13.1664 16.1566 13.1526C16.1426 13.1494 16.1286 13.146 16.1147 13.1426C16.1093 13.1412 16.1038 13.14 16.0983 13.1385L16.0973 13.1382C16.0205 13.7776 16.2417 14.4169 16.6973 14.8721C16.7332 14.9079 16.77 14.9422 16.8077 14.9748C17.3973 14.919 17.9605 14.704 18.4372 14.3526C17.884 14.2605 17.3737 13.997 16.9783 13.5993C16.851 13.472 16.7366 13.3325 16.6368 13.1826Z" fill="currentColor"/>
</svg>
