<svg width="24" height="24" viewBox="0 0 24 24" fill="currentColor" xmlns="http://www.w3.org/2000/svg">
<path fill-rule="evenodd" clip-rule="evenodd" d="M14.8866 10.4448L11.5763 14.6049C11.4786 14.7282 11.3298 14.8001 11.1725 14.8001C11.0151 14.8001 10.8664 14.7282 10.7687 14.6049L9.1135 12.5249C8.94879 12.3178 8.96515 12.0202 9.15156 11.8324L9.35846 11.6244C9.54909 11.4323 9.85594 11.4205 10.0608 11.5974L11.069 12.72L14.129 9.74069C14.2794 9.59873 14.5001 9.56022 14.6897 9.64282C14.8794 9.72542 15.0015 9.9132 15 10.1201C15.0002 10.2381 14.9602 10.3526 14.8866 10.4448ZM16.8012 1.80005H7.19882C6.88072 1.80005 6.5757 1.92672 6.35088 2.15176C6.12606 2.3768 5.99984 2.68194 6 3.00005V21C5.99967 21.6625 6.53637 22.1997 7.19878 22.2001H16.8012C17.1193 22.2001 17.4243 22.0734 17.6491 21.8483C17.8739 21.6233 18.0002 21.3182 18 21V3.00005C18.0003 2.33765 17.4636 1.80039 16.8012 1.80005ZM11.1 2.40005H12.9C13.0657 2.40005 13.2 2.53436 13.2 2.70005C13.2 2.86573 13.0657 3.00005 12.9 3.00005H11.1C10.9343 3.00005 10.8 2.86573 10.8 2.70005C10.8 2.53436 10.9343 2.40005 11.1 2.40005ZM12 21.6C11.6686 21.6 11.4 21.3314 11.4 21C11.4 20.6687 11.6686 20.4 12 20.4C12.3314 20.4 12.6 20.6687 12.6 21C12.6 21.3314 12.3314 21.6 12 21.6ZM16.8 19.8H7.2V3.60005H16.8V19.8Z" fill="currentColor"/>
</svg>
