<svg width="24" height="24" viewBox="0 0 24 24" fill="currentColor" xmlns="http://www.w3.org/2000/svg">
<path fill-rule="evenodd" clip-rule="evenodd" d="M15.1624 9.14804C15.1073 9.20316 15.1073 9.29251 15.1624 9.34761C15.2175 9.40272 15.3069 9.40272 15.362 9.34761C15.4171 9.29251 15.4171 9.20316 15.362 9.14804C15.3069 9.09294 15.2175 9.09294 15.1624 9.14804ZM19.2 6.59999H14.4V5.99999C14.3981 5.33805 13.8619 4.80193 13.2 4.79999H10.8C10.1381 4.80193 9.60194 5.33805 9.6 5.99999V6.59999H4.8C3.80709 6.60289 3.0029 7.40708 3 8.39999V18C3.0029 18.9929 3.80709 19.7971 4.8 19.8H19.2C20.1929 19.7971 20.9971 18.9929 21 18V8.39999C20.9971 7.40708 20.1929 6.60289 19.2 6.59999ZM10.2 5.99999C10.201 5.66902 10.469 5.40095 10.8 5.39999H13.2C13.531 5.40095 13.799 5.66902 13.8 5.99999V6.59999H10.2V5.99999ZM6 18.3C6 18.4657 5.86569 18.6 5.7 18.6C5.53431 18.6 5.4 18.4657 5.4 18.3V8.09999C5.4 7.9343 5.53431 7.79999 5.7 7.79999C5.86569 7.79999 6 7.9343 6 8.09999V18.3ZM10.5161 16.735L9.92316 17.4L9.756 16.5249L8.94031 16.1665L9.72094 15.7371L9.80974 14.8506L10.4594 15.4602L11.3299 15.2706L10.9507 16.0768L11.4 16.8464L10.5161 16.735ZM15.5291 10.3779L13.978 11.9291C13.9326 11.9745 13.871 12 13.8069 12C13.7427 12 13.6812 11.9745 13.6358 11.9291L12.5808 10.8742C12.5354 10.8289 12.5099 10.7673 12.5099 10.7031C12.5099 10.639 12.5354 10.5774 12.5808 10.5321L14.1321 8.98079C14.1793 8.9336 14.2439 8.908 14.3106 8.91004L15.3341 8.9414C15.4619 8.94531 15.5646 9.04801 15.5685 9.17581L15.6 10.1995C15.602 10.2662 15.5764 10.3308 15.5291 10.3779ZM18 18.3C18 18.4657 17.8657 18.6 17.7 18.6C17.5343 18.6 17.4 18.4657 17.4 18.3V8.09999C17.4 7.9343 17.5343 7.79999 17.7 7.79999C17.8657 7.79999 18 7.9343 18 8.09999V18.3Z" fill="currentColor"/>
</svg>
