<svg width="24" height="24" viewBox="0 0 24 24" fill="currentColor" xmlns="http://www.w3.org/2000/svg">
<path fill-rule="evenodd" clip-rule="evenodd" d="M12 1.8C6.3667 1.8 1.8 6.3667 1.8 12C1.8 17.6333 6.3667 22.2 12 22.2C17.6333 22.2 22.2 17.6333 22.2 12C22.2 6.3667 17.6333 1.8 12 1.8ZM12 21C7.02943 21 3 16.9706 3 12C3 7.02943 7.02943 3 12 3C16.9706 3 21 7.02943 21 12C21 16.9706 16.9706 21 12 21ZM9.42427 10.9757L8.22427 9.77573C8.11175 9.6632 7.95914 9.59999 7.8 9.59999C7.64087 9.59999 7.48825 9.6632 7.37573 9.77573L6.17573 10.9757C5.94141 11.21 5.94141 11.59 6.17573 11.8243C6.41005 12.0586 6.78996 12.0586 7.02427 11.8243L7.8 11.0485L8.57573 11.8243C8.81005 12.0586 9.18996 12.0586 9.42427 11.8243C9.65859 11.59 9.65859 11.21 9.42427 10.9757ZM17.8243 10.9757L16.6243 9.77573C16.5118 9.6632 16.3591 9.59999 16.2 9.59999C16.0409 9.59999 15.8883 9.6632 15.7757 9.77573L14.5757 10.9757C14.3414 11.21 14.3414 11.59 14.5757 11.8243C14.8101 12.0586 15.19 12.0586 15.4243 11.8243L16.2 11.0485L16.9757 11.8243C17.21 12.0586 17.59 12.0586 17.8243 11.8243C18.0586 11.59 18.0586 11.21 17.8243 10.9757ZM15.3774 15.3597C15.1629 15.1454 14.8223 15.1247 14.5835 15.3115C13.0714 16.4911 10.9524 16.4967 9.43404 15.3251C9.19522 15.1402 8.85613 15.1616 8.6425 15.3752C8.52075 15.4965 8.45697 15.6643 8.46737 15.8358C8.47777 16.0074 8.56135 16.1663 8.69686 16.272C10.6503 17.7822 13.3791 17.7753 15.3248 16.2552C15.4596 16.1491 15.5424 15.9905 15.5525 15.8193C15.5625 15.6481 15.4988 15.4808 15.3774 15.3597Z" fill="currentColor"/>
</svg>
