<svg width="24" height="24" viewBox="0 0 24 24" fill="currentColor" xmlns="http://www.w3.org/2000/svg">
<path fill-rule="evenodd" clip-rule="evenodd" d="M12 1.80005C6.36668 1.80005 1.79999 6.36674 1.79999 12C1.79999 17.6334 6.36668 22.2001 12 22.2001C17.6333 22.2001 22.2 17.6334 22.2 12C22.2 6.36674 17.6333 1.80005 12 1.80005ZM12 3.60005C15.8265 3.60005 19.0553 6.15866 20.0692 9.65837C20.2137 10.1572 19.7942 10.6393 19.2794 10.5706L15.3549 10.0474C15.136 10.0181 14.9366 9.90613 14.7976 9.73447C14.1141 8.89048 13.0861 8.40017 12 8.40017C10.9139 8.40017 9.88591 8.89048 9.20238 9.73447C9.0634 9.90613 8.86401 10.0181 8.6451 10.0474L4.7206 10.5706C4.20577 10.6393 3.78628 10.1572 3.9308 9.65837C4.94464 6.15866 8.17348 3.60005 12 3.60005ZM4.72079 13.4295L8.64508 13.9527C8.86228 13.9809 9.06041 14.0913 9.19873 14.2612C9.3272 14.42 9.46888 14.5678 9.62226 14.7028C9.77705 14.8376 9.87947 15.0226 9.9116 15.2253L10.5314 19.254C10.6116 19.7757 10.1225 20.2064 9.61628 20.0569C6.87413 19.2426 4.73317 17.0914 3.93188 14.3454C3.86413 14.1112 3.91921 13.8586 4.07834 13.6739C4.23746 13.4891 4.47911 13.3972 4.72079 13.4295ZM12.0342 13.7997C11.3001 13.8137 10.6311 13.3803 10.3437 12.7046C10.0562 12.029 10.208 11.2465 10.7272 10.7273C11.2464 10.2081 12.0289 10.0563 12.7046 10.3437C13.3803 10.6311 13.8136 11.3001 13.7997 12.0342C13.7813 13.0016 13.0016 13.7814 12.0342 13.7997ZM13.4686 19.254L14.0884 15.2255C14.1205 15.0227 14.223 14.8377 14.3777 14.7029C14.5311 14.5679 14.6728 14.4202 14.8013 14.2613C14.9396 14.0915 15.1377 13.9811 15.3549 13.9528L19.2792 13.4295C19.5209 13.3972 19.7625 13.4891 19.9216 13.6739C20.0807 13.8586 20.1358 14.1112 20.0681 14.3454C19.2668 17.0914 17.1258 19.2425 14.3837 20.0569C13.8775 20.2064 13.3883 19.7757 13.4686 19.254Z" fill="currentColor"/>
</svg>
