<svg width="24" height="24" viewBox="0 0 24 24" fill="currentColor" xmlns="http://www.w3.org/2000/svg">
<path fill-rule="evenodd" clip-rule="evenodd" d="M22.2001 12L20.0893 9.8325L20.8335 6.89999L17.9218 6.07828L17.1 3.16652L14.1675 3.91076L12 1.79999L9.83256 3.91076L6.90005 3.16652L6.07834 6.07828L3.16658 6.89999L3.91082 9.8325L1.80005 12L3.91082 14.1675L3.16658 17.1L6.07834 17.9217L6.90005 20.8335L9.83256 20.0892L12 22.2L14.1675 20.0892L17.1 20.8335L17.9218 17.9217L20.8335 17.1L20.0893 14.1675L22.2001 12ZM12 18.5876C8.35498 18.5876 5.40005 15.6327 5.40005 11.9876C5.40005 8.34253 8.35498 5.3876 12 5.3876C15.6451 5.3876 18.6 8.34253 18.6 11.9876C18.6 15.6327 15.6451 18.5876 12 18.5876Z" fill="currentColor"/>
</svg>
