<svg width="24" height="24" viewBox="0 0 24 24" fill="none" xmlns="http://www.w3.org/2000/svg">
<path fill-rule="evenodd" clip-rule="evenodd" d="M21 5.60003C21.0041 4.96375 20.6379 4.38626 20.0691 4.13221C19.5003 3.87817 18.8386 3.99653 18.3872 4.43307L18.387 4.43277L9.2069 13.6L6.18226 10.1452L6.18199 10.1456C5.56756 9.60109 4.64704 9.63739 4.07518 10.2286L3.45449 10.8686C2.89523 11.4464 2.84616 12.3621 3.3403 12.9993L3.34004 12.9995L8.30563 19.3995L8.30587 19.3993C8.59907 19.7788 9.04525 20 9.5173 20C9.98935 20 10.4355 19.7788 10.7287 19.3993L10.729 19.3996L20.66 6.59956L20.6597 6.59936C20.8806 6.31557 21.0005 5.96311 21 5.60003Z" fill="black"/>
</svg>
