<svg width="25" height="24" viewBox="0 0 25 24" fill="none" xmlns="http://www.w3.org/2000/svg">
<path fill-rule="evenodd" clip-rule="evenodd" d="M12.1191 3C7.14858 3 3.11914 7.02944 3.11914 12C3.11914 16.9706 7.14858 21 12.1191 21C17.0897 21 21.1191 16.9706 21.1191 12C21.1191 7.02944 17.0897 3 12.1191 3ZM16.8219 8.61148L11.4295 15.3879C11.2703 15.5888 11.0279 15.7058 10.7715 15.7058C10.5152 15.7058 10.273 15.5887 10.1137 15.3878L7.41741 11.9997C7.14911 11.6623 7.17588 11.1775 7.47954 10.8716L7.81657 10.5327C8.12707 10.2197 8.62693 10.2005 8.96056 10.4888L10.603 12.3176L15.5877 7.46435C15.8328 7.23323 16.1922 7.17073 16.5011 7.30522C16.8099 7.43972 17.0088 7.74546 17.0065 8.08232C17.0068 8.27453 16.9418 8.46125 16.8219 8.61148Z" fill="black"/>
</svg>
