<svg width="24" height="24" viewBox="0 0 24 24" fill="none" xmlns="http://www.w3.org/2000/svg">
<path fill-rule="evenodd" clip-rule="evenodd" d="M19.7778 19.7517H4.22218C3.42697 19.7532 2.69182 19.3288 2.29534 18.6395C1.89887 17.9502 1.90175 17.1014 2.3029 16.4148L2.30271 16.4146L2.32099 16.3834L2.32184 16.3819L10.0804 3.10099H10.0806C10.4794 2.41911 11.21 2 12 2C12.7899 2 13.5205 2.41911 13.9193 3.10099H13.9195L21.6973 16.4146L21.6971 16.4148C22.0982 17.1014 22.1011 17.9502 21.7047 18.6395C21.3082 19.3289 20.573 19.7532 19.7778 19.7517ZM12.023 17.385C11.4021 17.3849 10.8988 16.8815 10.8989 16.2606C10.8989 15.6397 11.4023 15.1364 12.0232 15.1364C12.6441 15.1365 13.1474 15.6398 13.1474 16.2607C13.1474 16.5589 13.0289 16.8449 12.8181 17.0557C12.6072 17.2666 12.3212 17.385 12.023 17.385ZM13.1445 7.34859L12.7729 13.458C12.7727 13.8718 12.4371 14.0272 12.0233 14.0272C11.6094 14.0272 11.2739 13.8718 11.2737 13.458L10.9011 7.33451C10.8998 7.31205 10.8989 7.28954 10.8989 7.26665C10.8989 6.64564 11.4023 6.14222 12.0233 6.14222C12.6443 6.14222 13.1477 6.64564 13.1477 7.26665C13.1478 7.29425 13.1464 7.32149 13.1445 7.34859Z" fill="black"/>
</svg>
